<?xml version="1.0" standalone="no"?>
<!DOCTYPE svg PUBLIC "-//W3C//DTD SVG 1.1//EN" "http://www.w3.org/Graphics/SVG/1.1/DTD/svg11.dtd" >
<svg xmlns="http://www.w3.org/2000/svg">
<metadata>
This is a custom SVG webfont generated by Font Squirrel.
Copyright   : MACopr 1993
</metadata>
<defs>
<font id="KudasaiRegular" horiz-adv-x="1822" >
<font-face units-per-em="2048" ascent="1638" descent="-410" />
<missing-glyph horiz-adv-x="583" />
<glyph unicode=" "  horiz-adv-x="583" />
<glyph unicode="&#x09;" horiz-adv-x="583" />
<glyph unicode="&#xa0;" horiz-adv-x="583" />
<glyph unicode="!" horiz-adv-x="380" d="M43 1130q0 35 37 35q31 0 127 -28q115 -35 115 -68q0 -10 -31 -94q-37 -100 -58 -225q-31 -186 -30 -449q0 -12 -19 -12q-12 0 -48 15t-36 28q0 33 2 133v192q0 88 -29.5 236.5t-29.5 236.5zM80 172q0 41 20 41q27 0 56 -8l43 -12q14 -2 16 -18.5t2 -104.5q0 -74 -24 -74 q-104 0 -109 43q-4 51 -4 133z" />
<glyph unicode="&#x22;" horiz-adv-x="460" d="M18 1018q-14 53 74 74q92 23 105 -25q6 -25 2 -80q-8 -63 -6 -80l12 -147q4 -39 -12 -43q-20 -6 -31 28l-72 154q-29 37 -72 119zM258 1079q-8 29 25 54q27 23 57 22q68 0 78 -47q4 -12 4 -29q0 -14 -7 -52t-3 -58l24 -148q6 -37 -14 -43q-16 -4 -31 31l-55 139 q-33 43 -78 131z" />
<glyph unicode="#" horiz-adv-x="622" d="M94 840v26l109 -28l18 96l-98 27v28l102 -28l-41 145h43l41 -145h125l-43 145h45l43 -145l92 -21v-27l-100 21l-18 -96l94 -21v-26l-98 20l34 -143h-45l-35 143h-122l34 -143h-45l-32 143zM246 838h123l18 96h-123z" />
<glyph unicode="$" horiz-adv-x="1087" d="M94 238q0 16 6 16q-6 0 27 -25.5t100 -42.5q94 -25 242 -24q47 0 76 4v401l-207 -24q-78 -8 -134.5 28.5t-56.5 102.5q0 229 398 360v80q0 20 41 21q18 0 18 -11v-77q55 10 84 10q250 0 250 -146q0 -29 -10 -28q2 0 -41 32.5t-96 53.5q-80 31 -175 30h-12v-346l189 4 q213 -33 219 -147q12 -240 -408 -399v-121q0 -10 -19.5 -18.5t-29.5 -8.5t-10 25v104q-70 -23 -201 -22q-250 0 -250 168zM295 764q0 -68 82 -80l168 -25v332q-109 -20 -179.5 -85.5t-70.5 -141.5zM604 176q100 16 168 74q80 68 80 166q0 115 -248 143v-383z" />
<glyph unicode="%" horiz-adv-x="1720" d="M100 612q0 147 88 242q96 102 265 102q166 0 240.5 -65.5t74.5 -210.5q0 -150 -111.5 -235t-285.5 -85q-271 0 -271 252zM248 674q0 -233 192 -234q168 0 168 207q0 106 -24 154q-39 72 -150 71q-94 0 -143 -65q-43 -53 -43 -133zM391 -20q0 -4 133 165q115 145 379 551 l260 398q12 10 21 10q8 0 89 -56.5t81 -72.5q0 -6 -209 -215q-227 -229 -289 -316q-150 -221 -352 -499q-4 -10 -21 -11q-12 2 -49 19q-43 19 -43 27zM969 246q0 147 88 241q98 102 266 103q164 0 238.5 -66.5t74.5 -212.5q0 -147 -111.5 -233t-287.5 -86q-133 0 -203 71 q-65 66 -65 183zM1118 305q0 -231 191 -231q168 0 168 205q0 109 -25 155q-39 72 -149 72q-94 0 -144 -66q-41 -53 -41 -135z" />
<glyph unicode="&#x26;" horiz-adv-x="1640" d="M111 182q0 102 90 183t383 241q-102 111 -133 170q-18 35 -19 82q0 115 176 207q162 84 318 84q231 0 231 -117q0 -82 -84 -163t-328 -228q37 -49 169.5 -173t193.5 -169q80 72 121 166q29 66 28 115q0 14 -5 39.5t-5 31.5q0 8 13 8q39 0 97 -42t58 -78q0 -10 -6 -19 q-102 -141 -260 -256l39 -31q135 -106 356 -106q35 0 35 -16q0 -23 -76 -78.5t-114 -55.5q-72 0 -357 213q-117 -82 -299 -133q-174 -47 -338 -47q-284 0 -284 172zM373 279q0 -160 229 -160q139 0 209 16q84 20 184 86q-188 156 -387 354q-235 -132 -235 -296zM592 879 q0 -66 121 -201q152 92 194 172q18 35 19 115q0 43 -31 73.5t-84 30.5q-92 0 -155.5 -55t-63.5 -135z" />
<glyph unicode="'" horiz-adv-x="264" d="M53 1102q-8 29 22.5 52.5t61.5 23.5q66 0 76 -50q4 -12 4 -28q0 -12 -7 -50t-3 -59l24 -149q6 -37 -14 -41q-16 -4 -31 30l-55 140q-33 43 -78 131z" />
<glyph unicode="(" horiz-adv-x="606" d="M100 582q0 238 389 587l23 -24q-233 -223 -233 -594q0 -199 39.5 -304.5t158.5 -223.5l-37 -23q-137 115 -227 254q-113 172 -113 328z" />
<glyph unicode=")" horiz-adv-x="579" d="M109 1137l22 26q389 -350 389 -590q0 -156 -112 -327q-92 -139 -230 -254l-35 22q121 121 160 225.5t39 303.5q0 369 -233 594z" />
<glyph unicode="*" horiz-adv-x="561" d="M104 879q0 2 19.5 6t23.5 6l101 57l-101 56q-4 2 -23.5 7t-19.5 7q0 6 31 37.5t41 31.5q0 -18 8 -40l95 -56q-8 47 -23 82q-12 27 -12 31q0 12 20 10q45 -6 39 -6q10 0 29.5 12.5t21.5 12.5q4 -2 4 -7q0 -6 -8 -41q-12 -45 -20 -90l94 88l14 -30q10 0 24.5 -12.5 t14.5 -18.5q0 -10 -16 -18l-103 -56l129 -57q6 -2 -4 -6t-10 -6q0 -10 -9 -33t-20 -23q-6 12 -20 27l-88 65q8 -47 20.5 -82.5t12.5 -41.5q0 -10 -25 -9q-51 4 -41 4q8 0 -39 -4q-20 -2 -20 9q0 4 15 37.5t26 80.5l-101 -59q-8 -4 -18 -43q-10 0 -36 32t-26 40z" />
<glyph unicode="+" horiz-adv-x="913" d="M78 561v86h313v305h174v-305h275v-86h-275v-311h-174v311h-313z" />
<glyph unicode="," horiz-adv-x="280" d="M-70 -254q12 12 27 31q88 104 116.5 167.5t41.5 190.5q0 18 16 19q33 0 78 -23q53 -27 49 -57q-12 -102 -117 -197q-78 -61 -153 -121q-27 -18 -37 -18q-21 0 -21 8z" />
<glyph unicode="-" horiz-adv-x="667" d="M80 567l8 56h508v-56h-516z" />
<glyph unicode="." horiz-adv-x="333" d="M63 133q-2 10 16.5 21.5t31.5 11.5q123 0 127 -31l20 -147q2 -8 -10 -8q-8 0 -27.5 4t-23.5 4q-23 0 -56 8q-47 12 -51 33z" />
<glyph unicode="/" horiz-adv-x="921" d="M94 80q0 4 78 131q111 180 223 397l185 365q90 176 114 176q8 0 45 3t54 3q25 -2 24 -10q0 -37 -354 -561q-53 -78 -170 -355q-104 -244 -119 -243q-20 0 -50 40t-30 54z" />
<glyph unicode="0" horiz-adv-x="1333" d="M88 532q0 262 168 435q178 182 473 182q520 0 520 -584q0 -270 -213 -434q-197 -154 -481 -154q-467 0 -467 555zM309 535q0 -174 86 -285q98 -129 287 -129q346 0 346 426q0 180 -65 305q-86 162 -269 162q-209 0 -307 -160q-78 -122 -78 -319z" />
<glyph unicode="1" horiz-adv-x="921" d="M86 831q0 6 66 27q92 31 159 64l465 219q0 -4 7.5 -4t7.5 -13q0 8 -17 -77q-16 -100 -26 -263q-16 -236 -17 -587q0 -104 9.5 -163t9.5 -48q0 -14 -23 -15q-35 0 -133 21q-121 27 -121 53q0 -6 72.5 387t77.5 557l-205 -201q-29 -29 -99 -28q-18 0 -57 3t-55 3 q-29 0 -75 25.5t-46 39.5z" />
<glyph unicode="2" horiz-adv-x="1482" d="M113 80q0 18 92 53q393 147 583 301q207 166 207 367q0 125 -62.5 166t-223.5 41q-334 0 -334 -234q0 -88 188 -88q35 0 94.5 3t79.5 3q2 0 -74.5 -39t-76.5 -43q0 -20 -63.5 -44.5t-110.5 -24.5q-84 0 -139.5 50t-55.5 124q0 197 209 327q188 121 424 121q199 0 313 -76 q125 -82 125 -241q0 -170 -227 -340q-145 -109 -422 -236q-227 -104 -227 -118q0 -23 111.5 -42.5t256.5 -19.5q143 0 283 8q98 4 192 13q80 8 78 8q27 0 27 -19q0 -53 -432 -84q-330 -25 -670 -24q-76 0 -117 35q-28 24 -28 53z" />
<glyph unicode="3" horiz-adv-x="1290" d="M139 117q0 27 13 26q10 0 26 -24q20 -31 58 -45q55 -25 161 -25q215 0 385 105q182 113 183 272q0 88 -35 125q-45 45 -174 45q-92 0 -314 -41q-35 27 -34 63q0 12 8 27q436 4 549 242q8 18 8 37q0 57 -69.5 104t-164.5 47q-135 0 -225 -61q-51 -35 -111 -115 q-45 -61 -71 -61q-72 0 -72 65q0 66 166 150q176 88 350 88q150 0 254 -43q137 -55 137 -168q0 -117 -123 -191q-78 -47 -251 -94v-2q182 -10 254 -33q133 -43 133 -161q0 -186 -287 -340q-256 -137 -483 -138q-117 0 -194 44.5t-77 101.5z" />
<glyph unicode="4" horiz-adv-x="1370" d="M111 408v20q2 2 53 92l336 588q18 33 71 33q20 0 74 -37q59 -43 60 -78q0 -43 -27 -70l-412 -417q-51 -68 -51 -80q0 -27 102 -39q137 -16 525 -23l14 426q0 29 27 29q33 0 110 -18q98 -27 99 -58q0 -8 -56.5 -135t-60.5 -244h24q98 0 185.5 10.5t75.5 10.5q12 0 12 -12 q0 -37 -94 -54q-37 -6 -203 -20l57 -328q0 -33 -31 -33q-23 0 -94 23q-82 27 -82 49q0 57 13 283q-76 -2 -291 -31q-203 -27 -273 -27q-163 1 -163 140z" />
<glyph unicode="5" horiz-adv-x="1298" d="M115 121q0 10 16 10q-14 0 76 -23.5t196 -23.5q37 0 74 2q197 14 332 114.5t135 237.5q0 203 -244 203q-143 0 -259.5 -35t-110.5 -35q-16 0 -17 27q0 -16 15.5 172t15.5 346q170 -23 373 -22q113 0 244 28q96 25 192 47q8 -2 41 -24.5t33 -30.5q0 -29 -43 -82 q-59 -72 -148 -71q-90 0 -264 34q-199 39 -289 47l-12 -350q174 68 360 68q367 0 367 -254q0 -176 -287 -344q-274 -162 -514 -162q-109 0 -202 51q-80 43 -80 70z" />
<glyph unicode="6" horiz-adv-x="1175" d="M80 195q0 133 178 374q147 195 348 387q190 178 236 179q29 0 67 -86q35 -78 35 -117q0 -14 -16 -14q-6 0 -17.5 3t-21.5 3q-94 0 -344 -150q-262 -154 -203 -213l4 -4q168 76 365 76q381 0 381 -213q0 -190 -211 -330q-197 -127 -428 -127q-158 0 -256 51 q-117 60 -117 181zM270 279q0 -96 79 -168t194 -72q141 0 249.5 92t108.5 215q0 102 -70.5 163.5t-195.5 61.5q-145 0 -250 -75q-115 -82 -115 -217z" />
<glyph unicode="7" horiz-adv-x="1308" d="M115 1155q0 8 2 8q-8 0 43 -14q59 -16 184 -25q178 -14 477 -14q137 0 226 4q59 2 96 4q31 4 33 4q16 0 29.5 -26.5t13.5 -38.5q0 -8 -23 -21q-242 -141 -455 -465q-188 -291 -258 -567q-8 -12 -22 -12q-47 0 -82 65q-31 55 -29 105q8 211 170 422q115 154 316 309 q119 86 237 174l-39 2q-14 0 -86 -39q-90 -51 -168 -78q-125 -41 -266 -41q-127 0 -268 33q-131 31 -131 211z" />
<glyph unicode="8" horiz-adv-x="1394" d="M90 260q0 260 422 361v2q-127 4 -203 57q-86 59 -86 166q0 123 150 211q166 98 434 98q383 0 383 -225q0 -121 -109 -201q-92 -70 -235 -92v-2q174 0 289 -53q137 -66 137 -191q0 -186 -217 -301q-197 -104 -463 -104q-209 0 -340 57q-162 72 -162 217zM330 309 q0 -256 342 -256q162 0 266 74q113 80 113 221q0 145 -95 205q-80 49 -258 49q-158 0 -258 -74q-110 -80 -110 -219zM455 848q0 -195 233 -195q137 0 217 69t80 181q0 201 -256 201q-127 0 -200.5 -68.5t-73.5 -187.5z" />
<glyph unicode="9" horiz-adv-x="1175" d="M39 705q0 160 190 299q207 152 490 151q164 0 266 -53q123 -66 121 -199q-4 -188 -176 -418q-152 -199 -365 -352q-205 -147 -319 -147q-39 0 -107 71q-61 66 -61 88q0 8 12 9h27q127 0 403.5 150.5t366.5 270.5l-4 5l-2 -2q-231 -131 -484 -132q-156 0 -252 62 q-106 70 -106 197zM236 737q0 -207 311 -207q356 0 356 316q0 127 -50 172t-196 53q-127 8 -266 -86q-155 -105 -155 -248z" />
<glyph unicode=":" horiz-adv-x="280" d="M63 133q-2 10 16.5 21.5t31.5 11.5q123 0 127 -31l20 -147q2 -8 -10 -8q-8 0 -27.5 4t-23.5 4q-23 0 -56 8q-47 12 -51 33zM63 483q-2 10 16.5 22.5t31.5 12.5q123 0 127 -31l20 -147q2 -8 -10 -8q-8 0 -27.5 3t-23.5 3q-23 0 -56 10q-45 12 -51 33z" />
<glyph unicode=";" horiz-adv-x="280" d="M-70 -254q12 12 27 31q88 104 116.5 167.5t41.5 190.5q0 18 16 19q33 0 78 -23q53 -27 49 -57q-12 -102 -117 -197q-78 -61 -153 -121q-27 -18 -37 -18q-21 0 -21 8zM63 483q-2 10 16.5 22.5t31.5 12.5q123 0 127 -31l20 -147q2 -8 -10 -8q-8 0 -27.5 3t-23.5 3 q-23 0 -56 10q-45 12 -51 33z" />
<glyph unicode="&#x3c;" horiz-adv-x="1062" d="M33 895q0 53 41 94q16 16 22 6l76 -84l147 123q84 72 113 117q145 225 221 395q53 119 70 205q4 31 8 64q6 6 25 -13q27 -27 59 -106q35 -86 35 -140q0 -23 -6 -34q-59 -139 -215 -338q-141 -184 -228 -250l-145 -111l53 -63q295 -352 496 -533l156 -123q2 -2 -33 -49 t-43 -55t-41 -10q-33 0 -43 8q-127 90 -387 395q-158 184 -314 367q-67 67 -67 135z" />
<glyph unicode="=" horiz-adv-x="544" d="M33 610l6 58h436v-58h-442zM39 481l6 58h436v-58h-442z" />
<glyph unicode="&#x3e;" horiz-adv-x="1062" d="M68 115q76 61 149 125q199 182 500 530l53 61l-143 113q-88 70 -230 248q-156 201 -215 338q-6 14 -6 35q0 55 35 141q33 78 59 104q18 18 25 13q4 -31 8 -64q16 -86 70 -205q76 -172 221 -395q31 -49 262 -239q31 37 74 84q8 8 22 -7q43 -43 43 -96q0 -66 -69 -133 q-4 -4 -314 -367q-258 -303 -385 -393q-10 -10 -45 -10q-33 2 -42 11t-41.5 56.5t-30.5 49.5z" />
<glyph unicode="?" horiz-adv-x="1017" d="M102 918q0 90 172 163q158 68 314 68q356 0 356 -213q0 -115 -139 -182q-127 -49 -256 -101q-139 -59 -139 -155q0 -86 26 -119q31 -41 115 -41q78 0 130 38t52 103q0 16 17 17q33 0 64.5 -20.5t29.5 -53.5q-6 -106 -146 -141q-66 -16 -200 -17q-119 0 -195 49 q-90 55 -90 160q0 92 149 176l275 139q150 90 149 197q0 55 -19 73.5t-65 18.5q-12 0 -56 -3t-75 -3q-127 0 -219 -57q-59 -37 -116 -109q-49 -57 -64 -57q-18 0 -44 21.5t-26 48.5zM449 160q0 39 20 39q16 0 55 -6l47 -15q12 -2 14.5 -18.5t2.5 -106.5q0 -74 -23 -73 q-31 0 -65 10q-45 12 -47 33q-4 31 -4 137z" />
<glyph unicode="@" horiz-adv-x="808" d="M39 991q0 133 105.5 219t254.5 86q141 0 247 -73.5t106 -180.5q0 -70 -60 -133q-66 -66 -149 -65q-86 0 -86 61h-2q-57 -61 -117 -61q-96 0 -96 92q0 70 51 137q57 78 137 78q70 0 78 -43h2l10 35l90 -6l-86 -203q-8 -18 -8 -33q0 -33 41 -33q66 0 109 62q35 51 34 114 q0 88 -79 148q-98 74 -281 65q-109 -6 -168 -133q-47 -100 -37 -172q31 -217 277 -217q109 0 192 41l14 -18q-104 -47 -208 -47q-176 0 -283 98q-88 80 -88 182zM313 946q0 -31 25 -39q12 -4 55 -4q35 0 66 39q37 47 37 123q0 68 -50 68q-43 0 -84 -50q-49 -57 -49 -137z " />
<glyph unicode="A" horiz-adv-x="1896" d="M135 100q0 10 10 11q4 0 31 -14.5t45 -14.5q8 0 17 4q221 109 454 373l31 35q-29 0 -110 -25t-109 -25q-139 0 -139 170q0 12 6 13q-6 0 28 -15q43 -16 115 -26q104 -14 262 -15q238 305 332 447q-29 49 -111 84q-63 27 -90 26q-12 0 -12 11q0 16 55 16q164 0 236 -37 q51 -27 256 -385q221 -389 327 -493q31 0 31 -13q0 -16 -54 -62t-87 -46q-8 0 -14 4q-70 41 -95 88q-10 18 -94 221q-61 150 -158 305q-20 33 -165 250l-283 -422h14q47 0 228.5 3t232.5 3q29 0 29 -16q0 -37 -547 -72q-162 -256 -309 -387q-127 -111 -215 -110 q-41 0 -94.5 44.5t-53.5 69.5z" />
<glyph unicode="B" horiz-adv-x="1685" d="M94 1022q0 53 332 90v37q0 37 20 37q23 0 86.5 -23.5t63.5 -38.5q68 4 201 4q295 0 426 -30q207 -47 207 -185q0 -92 -98.5 -170.5t-213.5 -83.5l-76 -2q12 0 24 1q83 0 169 -13q330 -47 340 -221v-12q0 -200 -391 -314q-293 -84 -572 -84q-418 0 -417 127q0 16 8 17 q2 0 69.5 -14.5t106.5 -18.5q47 428 49 928q-102 -23 -172 -70q-57 -41 -74 -41q-18 0 -53 31t-35 49zM512 100q41 -6 305 -6q201 0 351.5 91t150.5 229q0 115 -88 155q-63 27 -217 27q-178 0 -296 -7q-99 -6 -99 -7h4q-10 0 -11 14q0 72 76 72q248 0 373 30q201 49 201 185 q0 205 -469 204q-35 0 -166 -22q-80 -633 -115 -965z" />
<glyph unicode="C" horiz-adv-x="1843" d="M111 272q0 158 120 349q137 217 367 354q274 162 623 166h19q107 0 196 -21q145 -33 145 -110q0 -12 -16.5 -30.5t-30.5 -18.5q-12 0 -35 20q-76 68 -330 68q-258 0 -458 -146q-162 -119 -262 -309q-82 -160 -82 -277q0 -121 163 -186q127 -50 295 -50q19 0 37 1 q238 8 447 76q141 47 272 121q111 63 113 63q12 0 35.5 -42t23.5 -54q0 -25 -178 -90q-193 -72 -418 -123q-272 -61 -481 -62q-565 0 -565 301z" />
<glyph unicode="D" horiz-adv-x="1763" d="M80 1001q0 20 133 52q115 25 211 34v33q0 35 29 35q31 0 79 -16q57 -20 66 -43q68 4 207 4q281 0 502 -68q352 -109 352 -354q0 -313 -367 -514q-330 -178 -745 -178q-49 0 -94 2q-147 10 -209 35q-68 29 -68 88q0 20 17 20q6 0 73.5 -20.5t145.5 -26.5q18 406 18 936 q-68 -10 -159 -75.5t-89 -65.5q-18 0 -60 51t-42 71zM522 78q348 4 596 141q270 152 283 402q1 16 1 31q0 394 -503 395q-57 0 -260 -19q-6 -57 -66 -473q-41 -287 -51 -477z" />
<glyph unicode="E" horiz-adv-x="1878" d="M84 291q0 170 205 379q193 197 465 336q287 143 506 143q139 0 241 -35q117 -41 117 -108q0 -35 -23 -35l-51 20q-59 23 -133 35q-104 20 -237 21q-227 0 -521.5 -234.5t-294.5 -425.5q0 -172 207 -233q125 -37 373 -37q211 0 424 53q145 35 295 96l127 53q2 -2 2 -8 q0 -14 -8.5 -57t-8.5 -45q0 -25 -36 -39q-154 -61 -412 -119q-342 -74 -635 -74q-233 0 -358 37q-244 72 -244 277zM463 516l10 43q266 4 621 35q344 31 331 31q35 0 35 -13q0 -76 -16 -98q-23 -31 -98 -31q-18 0 -379 16.5t-504 16.5z" />
<glyph unicode="F" horiz-adv-x="1562" d="M98 1055q0 31 54 30q47 0 215 -8v64q0 14 6 14q35 0 73 -20q49 -25 52 -62q272 0 623.5 18.5t338.5 18.5q18 0 19 -23q0 -39 -35 -94q-53 -84 -141 -84q4 0 -265.5 53.5t-502.5 53.5q-55 -193 -56 -389q0 -156 51.5 -389.5t51.5 -221.5q0 -31 -103 -30q-53 0 -98 14 q-61 20 -62 63q0 121 20.5 457t20.5 504q-31 -2 -104.5 -36t-95.5 -34q-20 0 -43 45q-19 40 -19 56zM539 535l6 30q166 0 471 22.5t303 22.5q20 0 20 -24q0 -27 -28 -76q-35 -61 -74 -61q-12 0 -251.5 42t-446.5 44z" />
<glyph unicode="G" horiz-adv-x="1789" d="M94 315q0 197 213 398q190 176 479 297q279 117 496 116q133 0 229 -28q135 -41 136 -127q0 -16 -20.5 -52t-27.5 -36l-47 39q-55 45 -125 69q-100 39 -231 39q-295 0 -514 -143q-176 -115 -276 -305q-84 -156 -84 -285q0 -119 122 -160q78 -27 252 -26q150 0 342 98 q154 78 293 190q123 102 123 131q0 10 -26.5 33t-26.5 43t24 21q115 0 115 1l-6 1q84 -4 86 -33l31 -514q4 -53 20 -89l17 -36q0 -2 -8 -2q-11 0 -38 4q-55 6 -57 6q-49 0 -57 37q-18 88 -35 176l-49 176q-492 -319 -899 -319q-451 -1 -451 280z" />
<glyph unicode="H" horiz-adv-x="1658" d="M88 612q0 29 6 41q84 -41 275 -41l-9 172q-6 150 -16 240q-6 61 -12 92q-6 25 -6 21q0 10 34 10q45 0 101 -17q72 -20 71 -53q0 -31 -23.5 -191.5t-23.5 -248.5v-25h179q201 0 401.5 7.5t212.5 7.5q18 0 18 -17q0 -16 -45 -28q-61 -14 -307 -54l-461 -71q0 -47 4 -172 q4 -143 5 -260q0 -39 -29 -39q-16 0 -74 20q-63 23 -63 37q0 76 2 88l49 313q4 23 -45 43q-41 16 -76 17q-68 0 -115 28q-53 31 -53 80zM1278 1145q0 10 27 10q49 0 129 -20q100 -25 100 -58q0 -45 -18.5 -382t-18.5 -593q0 -59 -31 -59q-29 0 -72.5 28.5t-43.5 51.5 q0 10 -3.5 230t-3.5 438q0 150 -16 241q-12 63 -30.5 91t-18.5 22z" />
<glyph unicode="I" horiz-adv-x="851" d="M63 2h4q170 0 310 227q141 229 178 568l27 243q16 141 24 142q41 0 93.5 -24.5t52.5 -59.5q-10 -481 -150 -760q-171 -336 -518 -336h-21z" />
<glyph unicode="J" horiz-adv-x="999" d="M70 293q0 25 11 59.5t25 34.5q45 0 60 -53q20 -78 43 -103q53 -55 188 -61q13 0 25 -1q188 0 256 120q72 127 72 508v260q-5 9 -5.5 29.5t5.5 52.5q0 16 14 16q139 0 139 -57l-47 -461q-61 -604 -479 -604q-115 0 -207 69q-100 76 -100 191zM203 1360q0 23 18 22h-1 q0 -2 71 -16q92 -16 239 -27q211 -16 519 -16q23 4 301 4q18 0 18 -18q0 -23 -39 -23l-280 -4q-102 -2 -316.5 -49t-306.5 -47q-94 0 -158.5 55.5t-64.5 118.5z" />
<glyph unicode="K" horiz-adv-x="1501" d="M94 1100h72q35 0 98 -23q72 -25 72 -45v-88l-33 -528q336 190 553 381q150 131 236 258q66 94 63 94q16 0 39 -95.5t23 -148.5q0 -55 -232 -180q-170 -84 -338 -168l236 -188q111 -88 256 -191q176 -121 208.5 -121t32.5 -12t-58 -40t-85 -28q-109 0 -418 209l-370 250 l-146 -78v-288q0 -18 -39 -19q-27 0 -53 12q-33 12 -33 31q0 84 -5 262.5t-5 264.5q0 193 -37 348q-32 134 -36 134q-1 0 -1 -3z" />
<glyph unicode="L" horiz-adv-x="1456" d="M127 115q0 20 12 20l111 -6q16 162 16 354q0 262 -16 428q-12 117 -33 176q-16 53 -16 43q0 10 26 11q51 0 150 -43q111 -47 110 -92q0 -82 -90 -699l-26 -182h78q328 0 548 45q156 31 252 80q73 40 73 44q0 1 -1 1q4 0 13 -56.5t9 -70.5q0 -10 -22.5 -34.5t-36.5 -27.5 q-829 -135 -975 -135q-182 1 -182 144z" />
<glyph unicode="M" horiz-adv-x="1992" d="M131 98q0 12 10 13q6 0 23.5 -5.5t21.5 -5.5q45 0 136 203q59 131 221 549l45 117l-53 80q-16 25 -64.5 47t-48.5 34q0 25 24 25q35 0 170 -29q154 -33 164 -57l254 -672q20 -55 29 -61h16q16 0 51 61l322 736q20 31 31 30h6q14 0 106.5 -19.5t94.5 -27.5 q80 -580 88 -631q31 -180 71 -249q8 -14 26.5 -14.5t18.5 -12.5q0 -10 -62.5 -31.5t-86.5 -21.5q-41 0 -109 84q-78 98 -96 219q-2 13 -2 37q0 109 37 446q4 45 -19 45q-10 0 -51 -67l-428 -719q-6 -25 -35 -25q-27 0 -41 27l-380 710h-5l-61 -315q-45 -229 -149 -426 q-96 -180 -152 -180q-43 0 -86 49q-37 41 -37 57z" />
<glyph unicode="N" horiz-adv-x="1773" d="M100 57q0 12 15 13q8 0 28.5 -5.5t32.5 -5.5q55 0 193 279q152 309 206 610q-72 94 -135 135q-45 27 -45 31q0 12 23 12q262 0 301 -49l655 -809q31 -39 66 -39q31 0 52 59.5t21 151.5q0 268 -30 432q-20 115 -56 172q-31 49 -30 43q0 16 35 17q29 0 122 -60 q102 -63 103 -104q0 -807 -234 -807q-53 0 -166 117l-641 663l-16 -249q-8 -127 -65 -318q-88 -291 -228 -387q-4 -2 -12 -2q-35 0 -115 43t-80 57z" />
<glyph unicode="O" horiz-adv-x="1939" d="M121 315q0 203 186 404q156 168 389 289q217 111 351 110q57 0 57 -22q0 -18 -23 -19q-231 0 -471 -211q-266 -233 -266 -526q0 -152 105 -215q86 -51 258 -51q61 0 147 6q338 25 536.5 164t198.5 354q0 172 -73 254q-84 88 -277 88q-170 0 -289 -47q-74 -29 -139 -84 q-53 -47 -68 -47q-37 0 -36 35q0 86 194 168q205 88 438 88q215 0 349 -95q143 -100 143 -274q0 -276 -324 -498q-344 -238 -829 -237q-254 0 -402 92q-155 96 -155 274z" />
<glyph unicode="P" horiz-adv-x="1667" d="M80 995q0 31 295 70v47q0 43 22 43q25 0 61 -21.5t40 -56.5q258 27 413 27q367 0 514 -74q96 -47 123 -151q12 -47 13 -93q0 -184 -191 -305q-182 -115 -442 -114q-63 0 -129 8q-106 14 -182 45t-76 57q0 27 30 27q-4 0 104.5 -22.5t207.5 -22.5q240 0 348 110 q74 78 74 195q0 35 -7 61q-37 160 -172 209q-78 29 -268 29q-147 0 -369 -37q-14 -170 -14 -506q0 -184 29 -317q20 -92 53 -158q29 -57 29 -51q0 -8 -15 -8q-45 0 -152.5 33.5t-107.5 50.5v-1q1 0 29 353q31 383 35 579q-88 -20 -135 -76l-47 -57q-14 0 -63.5 55.5 t-49.5 71.5z" />
<glyph unicode="Q" horiz-adv-x="1579" d="M90 489q0 162 148 324q125 135 311 234q174 88 278 88q47 0 47 -21q0 -12 -18 -12q-176 0 -362 -166q-207 -180 -207 -404q0 -20 2 -40q23 -223 323 -224q254 0 432 97q221 119 222 352q0 319 -275 319q-137 0 -223 -65q-55 -43 -100 -123q-35 -66 -47 -66q-10 0 -37 40 t-27 52q0 70 161 137.5t347 67.5q170 0 276 -73q115 -80 115 -220q0 -221 -258 -399q-274 -190 -663 -190q-201 0 -320 73q-125 78 -125 219zM385 100q0 18 90 41t182 23q231 0 358.5 -22.5t231.5 -22.5q80 0 127 12q29 8 45.5 21.5t22.5 13.5q14 0 14 -33q0 -51 -55 -102 q-70 -68 -184 -68q-53 0 -146 37q-123 49 -158 57q-219 55 -327 56q-90 0 -144.5 -11.5t-44.5 -11.5q-12 0 -12 10z" />
<glyph unicode="R" horiz-adv-x="1570" d="M80 1008q0 25 48 37t247 38v58q0 23 22 22q18 0 52 -16q43 -20 45 -49q285 25 417 24q283 0 411 -44t134 -152q1 -15 1 -30q0 -331 -404 -331q-74 0 -179.5 12.5t-117.5 12.5q-20 0 -21 -6v-4l246 -170q426 -295 504 -295q35 0 35 -9q0 -14 -70 -64t-104 -50 q-23 0 -91 22q-84 29 -127 66l-557 475l-47 41q0 8 29 27.5t59 19.5q4 0 71 -10t118 -10q395 0 395 208q0 41 -12 91q-27 100 -129 137q-68 25 -203 24q-141 0 -363 -36q-2 -82 -28 -236q-25 -141 -25 -229q0 -115 33 -240q23 -84 63 -178q33 -80 33 -84q0 -27 -28 -27 q-45 0 -127 45q-88 47 -88 82q0 37 2 68l53 784q-96 -25 -160 -76q-55 -45 -63 -45q-14 0 -44 37t-30 60z" />
<glyph unicode="S" horiz-adv-x="1570" d="M98 186q0 14 13 15q6 0 20 -19q41 -57 279 -71q68 -4 284 -5q164 0 355 89q207 96 206 204q0 88 -168 88q-35 0 -182 -10q-75 -4 -131 -4q-37 0 -65 2q-211 14 -336 93t-125 192q0 145 274 272q268 123 555 123q121 0 221 -35q133 -45 134 -135q0 -41 -23 -41l-41 21 q-49 23 -125 36q-111 20 -274 21q-217 0 -338 -74q-102 -63 -103 -151q0 -61 54 -82q63 -23 321 -43q291 -23 408 -56q168 -45 168 -140q0 -137 -90.5 -239.5t-255.5 -162.5q-238 -88 -611 -88q-174 0 -289 45q-135 55 -135 155z" />
<glyph unicode="T" horiz-adv-x="1720" d="M80 1124q0 12 22 13q-8 0 177 -13q223 -14 501 -24q8 63 37 63q90 0 90 -80q260 2 434 9q119 4 201 10q66 6 70 6q25 0 24 -16q0 -12 -53 -19q-227 -39 -672 -94q-23 -188 -22 -498q0 -88 37 -178q53 -127 147 -127q102 0 210 20.5t126 20.5q37 0 37 -24q0 -14 -23 -27 q-94 -51 -256 -107q-207 -68 -340 -67q-139 0 -139 182q0 246 88 801q-10 0 -240.5 -42t-324.5 -42q-45 0 -92 108q-39 90 -39 125z" />
<glyph unicode="U" horiz-adv-x="1658" d="M164 297q0 123 53 405q49 260 49 357q0 31 -11 54.5t-11 21.5q0 20 30 20q37 0 88 -25q61 -29 80 -69q33 -70 33 -176q0 -74 -20 -144q-90 -317 -90 -452q0 -74 44 -104.5t146 -34.5q3 0 7 -1q177 0 387 309q214 314 214 574q0 51 15 51q14 0 74.5 -26.5t60.5 -40.5 q18 -182 35 -365q27 -250 63 -385q47 -180 117 -186q16 0 16 -10q0 -23 -110 -56q-102 -29 -146 -28q-37 0 -71 252q-29 213 -29 338v16q0 4 2 203q0 35 -2 36q-35 -111 -68 -219q-90 -252 -233 -397q-178 -183 -425 -183q-32 0 -65 3q-233 20 -233 262z" />
<glyph unicode="V" horiz-adv-x="1640" d="M109 1049q0 20 59 20q236 0 258 -51l340 -809q2 -2 10 -39q6 -27 12 -27q37 0 175.5 178.5t246.5 368.5q125 221 125 326q0 72 -13 97.5t-13 23.5q0 12 20 12q37 0 123 -100.5t86 -145.5q0 -109 -354.5 -517.5t-454.5 -408.5q-23 0 -37 31l-418 885q-35 74 -77 104 q-23 16 -64 27q-24 7 -24 25z" />
<glyph unicode="W" horiz-adv-x="2131" d="M63 1098q0 16 37 16q76 0 174 -22q133 -29 144 -80l155 -813q4 -23 19 -23q16 0 24 21l433 706q20 33 79 33q25 0 46 -51l284 -684q28 -66 64 -66h6q29 4 110 123q92 135 156 291q78 195 78 360q0 113 -10.5 177.5t-10.5 52.5q0 25 31 24q82 0 127 -84q35 -66 35 -147 q0 -172 -131 -410q-111 -201 -266 -370q-147 -160 -209 -160q-53 0 -99 102l-284 647l-365 -561q-76 -119 -110.5 -153.5t-69.5 -34.5q-37 0 -64 96l-221 791q-27 96 -69 145q-25 29 -64 47q-29 15 -29 27z" />
<glyph unicode="X" horiz-adv-x="1544" d="M111 70q0 18 41 80q51 80 127 145l438 381q-51 113 -219 274q-41 51 -162 109q-113 53 -113 49q0 10 72 10q59 0 133 -12q94 -16 117 -45l254 -301l239 172q49 35 164 135q78 68 103 68q43 0 84 -39q33 -35 32 -47q0 -6 -20 -7q-98 -2 -291 -141q-131 -100 -262 -203 l162 -170q276 -291 383 -315q20 0 20 -6q0 -12 -31 -31q-37 -20 -75 -20q-154 0 -271 143q-78 90 -266 326q-561 -662 -577 -662q-12 0 -47 46.5t-35 60.5z" />
<glyph unicode="Y" horiz-adv-x="1308" d="M94 1077q0 16 60 17q203 0 227 -56q37 -78 121 -342q66 -209 141 -321l16 -25l19 15q178 139 297 376q94 193 94 301q0 29 -11 60l-11 31q0 8 10 8q27 0 100.5 -77t73.5 -118q0 -84 -191 -293q-123 -135 -354 -350q-190 -178 -190 -184q0 -12 24.5 -13.5t24.5 -7.5 q0 -4 -3 -10t-3 -10q0 -12 30 -12q18 0 47 4l78 10q16 2 30 5l13 3q14 0 15 -12q0 -12 -34 -21.5t-200 -42.5q-8 -2 -67.5 -21.5t-69.5 -19.5q-18 0 -40 20.5t-22 35.5q0 16 21 34l231 199l-245 506q-141 285 -215 297q-17 0 -17 14z" />
<glyph unicode="Z" horiz-adv-x="1746" d="M109 70q0 37 135 106q80 41 280 164q213 129 316 201q-70 20 -125 20q-47 0 -80 -16q-18 -10 -19 -6q0 18 24 87.5t38 69.5q12 0 227 -110q207 141 357 291q131 131 131 174q0 51 -258 51q-213 0 -441 -35q-156 -23 -321 -61q-139 -35 -142 -35q-8 0 -33.5 33.5 t-25.5 42.5q0 109 588 108q872 0 893 -149q1 -9 1 -18q0 -46 -38 -81q-33 -27 -189 -114q-213 -123 -397 -242q182 -66 182 -98q0 -55 -12 -56q6 0 -53 31q-78 39 -213 76l-438 -256q-127 -74 -127 -105l10 -14q0 -14 57 -14q25 0 190 9t298 9q264 0 448 8q129 6 211 17 q65 7 65 8h-1q6 0 12 -28.5t6 -43.5q0 -12 -43 -18q-285 -35 -639 -58l-219 -14q-338 -18 -465 -18q-190 0 -190 84z" />
<glyph unicode="[" horiz-adv-x="858" d="M59 -248v1673l76 76h529v-155h-451v-1516h520v-156h-598z" />
<glyph unicode="\" horiz-adv-x="409" d="M53 1126q0 12 17 17q37 2 86 -17q57 -18 59 -43q20 -209 74 -790q14 -162 14 -283q2 -14 -22 -16q-4 0 -19.5 -6t-23.5 -6q-16 0 -19 18l-106 784q-27 156 -60 342z" />
<glyph unicode="]" horiz-adv-x="858" d="M74 -170h522v1516h-453v155h529l78 -76v-1673l-78 -78h-598v156z" />
<glyph unicode="^" horiz-adv-x="645" d="M59 657q20 55 21 117q0 23 -12 43q55 86 108 156q129 168 225 219q23 12 103 -64q-6 -14 -31 -53q98 -207 98 -370q0 -4 27 8q-27 -70 -35 -70q0 -2 -47 -12q-10 63 -24 121q-35 135 -91 213q-14 18 -132.5 -158t-123.5 -201q-2 -2 -4 -2q-4 0 -82 53z" />
<glyph unicode="_" horiz-adv-x="1462" d="M-14 -168l6 102h1493v-102h-1499z" />
<glyph unicode="`" horiz-adv-x="368" d="M47 1069q0 35 31 59.5t65 24.5q31 0 47.5 -19.5t28.5 -64.5t25 -63l82 -125q20 -31 6 -43q-12 -10 -39 14l-111 102q-47 25 -125 88q-10 13 -10 27z" />
<glyph unicode="a" horiz-adv-x="1157" d="M63 162q0 150 201 297q195 143 375 143q121 0 201 -94q70 12 112 33l19 -162q37 -330 110 -330q16 0 17 -16q0 -12 -62.5 -37t-83.5 -25q-18 0 -28 19q-14 37 -47 186q-109 -104 -254 -145q-111 -31 -283 -31q-277 0 -277 162zM256 184q0 -111 225 -110q133 0 254 78 q94 61 119 114q3 4 3 9t-2.5 15t-2.5 15q0 37 -16 92q-18 70 -50 99q-80 76 -168 75q-147 0 -258 -129q-104 -119 -104 -258z" />
<glyph unicode="b" horiz-adv-x="942" d="M70 365q0 78 15 375.5t15 402.5q0 12 23 12q51 0 96 -18q59 -25 60 -66q0 -31 -63.5 -321.5t-63.5 -362.5q0 -31 10 -31q96 74 217 125q143 59 260 60q254 0 254 -160t-209 -287q-179 -108 -357 -108q-21 0 -42 2q-106 8 -148 55q-67 82 -67 322zM162 315 q2 -111 102 -186q81 -62 161 -62l19 1q166 16 246 135q53 75 53 137q0 10 -2 20q-6 37 -43 76q-51 53 -127 53q-100 0 -229 -59q-110 -52 -180 -115z" />
<glyph unicode="c" horiz-adv-x="1218" d="M63 203q0 195 267 352q242 143 477 143q221 0 221 -102q0 -41 -18 -41l-31 28q-31 28 -78 44q-53 17 -123 16q-26 0 -53 -2q-156 -10 -292 -147.5t-136 -284.5q0 -156 244 -156q35 0 96 6q158 14 328 72q160 53 157 53q23 0 23 -18q0 -47 -217 -107q-231 -63 -469 -63 q-396 0 -396 207z" />
<glyph unicode="d" horiz-adv-x="1034" d="M74 199q0 125 153 256q166 143 359 143q139 0 248 -94v217q0 143 -12 294q-10 136 -11 136v-2q0 14 18 14q41 0 99 -20q66 -23 67 -51q0 4 -30 -256q-31 -274 -31 -426q0 -98 -2 -222.5t-2 -181.5q0 -14 -10 -14q-23 0 -56 14q-43 20 -43 53q0 45 2 84v45 q-272 -129 -534 -129q-215 1 -215 140zM281 242q0 -104 190 -105q41 0 84 4q78 8 113 19q51 16 155 67q10 201 11 236q-72 63 -213 63q-39 0 -86 -6q-74 -8 -158 -88q-96 -90 -96 -190z" />
<glyph unicode="e" horiz-adv-x="1280" d="M72 211q0 66 63 162q82 127 223 207q184 104 439 114q8 0 15 1q228 0 228 -240q27 0 27 -23q0 -10 -12 -14l-78 -17l-631 -131q45 -193 307 -192q141 0 277 24q94 18 184 50l78 24q18 0 18 -20q0 -23 -63 -43q-356 -119 -627 -119q-213 0 -301 26q-147 48 -147 191z M350 326l416 94q76 16 82 20q37 16 37 62q0 143 -178 143q-158 0 -256 -96q-89 -88 -101 -223z" />
<glyph unicode="f" horiz-adv-x="593" d="M68 670q0 18 14 18q2 0 41 -2t67 -2q-2 18 0 59q4 55 5 86q0 158 118 248q86 63 156 64q63 0 63 -39q0 -35 -18 -35q-6 0 -29.5 15.5t-56.5 15.5q-66 0 -89.5 -81t-37.5 -341l21 -4q39 4 51 4q33 0 73.5 3t36.5 3q8 0 9 -8q0 -16 -56 -37q-61 -23 -145 -31 q-10 -145 -23 -291q-12 -176 -12 -323q0 -6 -16.5 -13.5t-22.5 -7.5q-18 0 -18 17l2 52q2 52 2 105q0 344 -6 471l-76 11q-53 8 -53 43z" />
<glyph unicode="g" horiz-adv-x="1116" d="M55 -311q0 29 54.5 93t76.5 64q10 0 11 -8l-2 -9q-2 -9 -2 -22q0 -90 103 -156.5t255 -74.5q11 -1 21 0q304 0 305 455q0 125 -3 166q-94 -82 -253.5 -138.5t-296.5 -56.5q-250 0 -250 182q0 127 170 261.5t315 134.5q160 0 303 -101q188 96 191 96q4 0 4 -24v1 q-2 0 -23 -113q-23 -124 -22 -273q0 -221 -92 -383q-145 -256 -492 -256q-135 0 -254 52.5t-119 109.5zM262 246q0 -88 57 -115q43 -18 175 -18q262 0 374 149q12 12 13 53q0 104 -37 136q-90 74 -238 73q-123 0 -233.5 -83.5t-110.5 -194.5z" />
<glyph unicode="h" horiz-adv-x="942" d="M76 1071q0 12 16 12q33 0 88 -18q63 -23 64 -45v1q-1 0 -19 -175q-20 -211 -28 -477l-7 -207q35 41 68 82q94 127 156 194q104 109 170 109q76 0 104.5 -42t65.5 -216q57 -272 114 -281q10 -4 11 -16q0 -12 -54.5 -46t-83.5 -34q-63 0 -73 70l-45 286q-23 141 -68 142 h-16q-12 -2 -19 -2q-63 0 -168 -132q-113 -139 -139 -278q-47 0 -127 45q12 133 12 709q0 129 -11 227t-11 92z" />
<glyph unicode="i" horiz-adv-x="358" d="M70 649q0 8 14 8q35 0 106 -16q92 -23 93 -49q0 -43 -19.5 -179.5t-19.5 -201.5q0 -188 -7.5 -199.5t-21.5 -11.5q-27 0 -65 14q-47 16 -48 39v369q0 119 -16 180t-16 47zM102 1044q0 8 17 9q31 0 90 -9.5t62 -15.5t3 -129q0 -31 -18 -50.5t-33 -19.5q-31 0 -67 15 q-43 16 -45 39q-9 85 -9 161z" />
<glyph unicode="j" horiz-adv-x="368" d="M-170 -483q0 33 80 37q106 6 149 84q76 135 76 542v307q0 51 -38 86t-38 41q0 12 31 13q41 0 129 -23q104 -25 107 -53q4 -53 4 -119q0 -336 -94 -616q-119 -344 -322 -344q-84 0 -84 45zM63 861q0 27 18 77q19 55 19 84q0 4 27 17.5t37 13.5q25 0 67 -33q33 -25 43 -39 v-125q0 -59 -16 -59q-39 0 -108 16q-87 19 -87 48z" />
<glyph unicode="k" horiz-adv-x="1054" d="M66 1114q0 12 12 12q39 0 112 -20q86 -23 86 -45q0 -35 -44 -371t-44 -473q170 74 306 178q82 61 172 156q66 66 79 65q16 0 31 -63q10 -51 10 -78q0 -39 -77 -84q-88 -51 -238 -86l219 -112q94 -49 133 -64q76 -31 142 -35q-4 -29 -67.5 -83t-100.5 -54q-43 0 -451 283 l-158 -58v-149q0 -14 -14 -15q-25 0 -49 11q-31 14 -31 34v719q0 135 -14 240q-13 93 -14 93v-1z" />
<glyph unicode="l" horiz-adv-x="327" d="M61 1120q0 14 19 15q37 0 110 -27q82 -31 82 -53q0 -111 -25.5 -347.5t-25.5 -439.5q0 -102 -2 -172q-2 -49 -4 -79l-2 -29q0 -16 -25 -17q-4 0 -19 -4t-24 -4q-18 0 -18 21l-37 790q-6 137 -18 248q-11 92 -11 98z" />
<glyph unicode="m" horiz-adv-x="1720" d="M84 39q0 -8 13.5 139.5t13.5 259.5q0 100 -5.5 151.5t-5.5 43.5q0 14 21 14q59 0 129 -18q86 -23 86 -56q0 -6 -45 -100q-45 -100 -51 -127l-37 -180h2q59 139 229 283.5t276.5 144.5t106.5 -135q0 -134 -18 -293h6q51 123 201 276q176 180 305 181q106 0 135 -113 l98 -375q20 -82 51 -84t31 -18t-66.5 -51t-103.5 -35q-18 0 -26 26q-8 20 -39 148q-25 102 -48 205q-23 70 -86 96q-12 6 -28 6q-94 0 -258 -152q-158 -143 -178 -227q-12 -51 -39 -51q-23 0 -49 10q-37 14 -37 35q0 12 16 74q18 76 29 166q2 23 2 41q0 51 -25 67 q-8 6 -63 21q-8 2 -18 2q-65 0 -193 -97q-166 -125 -217 -284q-10 -35 -25 -35q-90 0 -90 41z" />
<glyph unicode="n" horiz-adv-x="1062" d="M45 66q0 -4 12.5 107.5t12.5 250.5q0 92 -9.5 153.5t-9.5 57.5q0 12 12 12q18 0 99 -26q88 -29 88 -46q0 -12 -29 -88q-31 -84 -37 -131l-28 -198h4q86 162 213 286q164 162 311 162q66 0 96 -41q18 -25 51 -123l115 -340q2 -16 5 -32.5t26 -16.5q14 0 14 -10 q-4 -23 -64.5 -50.5t-88.5 -27.5q-8 0 -9 -10q0 -4 2 -8q-4 10 -47 98l-55 109l-82 180q-39 76 -86 76q-92 0 -196 -86q-127 -102 -199 -281q-8 -25 -23 -25q-98 1 -98 48z" />
<glyph unicode="o" horiz-adv-x="1198" d="M37 279q0 188 219 317q205 119 459 119q440 0 440 -266q0 -143 -147 -271q-195 -166 -551 -166q-420 1 -420 267zM264 383q0 -129 121 -209q111 -76 264 -76q279 0 279 273q0 264 -332 276h-14q-111 0 -205 -63q-113 -76 -113 -201z" />
<glyph unicode="p" horiz-adv-x="1024" d="M84 -408q0 -4 4 40t8 114q4 96 4 229v381q0 49 -8 181q-2 18 19 18q27 0 69 -20q53 -27 53 -56q0 -70 -6 -100h6q84 86 214.5 135t265.5 49q242 0 241 -176q0 -176 -161 -299q-147 -113 -320 -113q-78 0 -139 19q-78 25 -78 69q0 16 18 17q-8 0 53.5 -21.5t168.5 -21.5 q137 0 211 106q51 74 63 174q1 10 1 20q0 70 -66 114q-55 33 -109 32q-356 0 -373 -319l45 -627q2 -27 -16 -26q-18 0 -90 30q-78 33 -78 51z" />
<glyph unicode="q" horiz-adv-x="1054" d="M51 178q0 133 191.5 279.5t357.5 146.5q109 0 236 -119l4 76q0 16 14 17q33 0 78 -21q53 -20 53 -45q0 -23 -18.5 -92.5t-22.5 -110.5q-25 -322 -24 -624v-117q0 -16 -21 -17q-133 0 -133 29q0 100 32.5 316.5t32.5 246.5q-197 -145 -518 -145q-111 0 -180 41 q-82 47 -82 139zM244 231q0 -135 211 -135q35 0 69 4q303 39 303 105v219q0 41 -53 84q-68 53 -172 53q-137 0 -247.5 -109.5t-110.5 -220.5z" />
<glyph unicode="r" horiz-adv-x="921" d="M104 612q0 31 41 31q45 0 103 -14q72 -18 71 -43q0 -27 -38.5 -178.5t-38.5 -188.5q0 -12 2 -16l2 -2q61 115 289 360l6 10q0 57 38.5 105.5t88.5 48.5q16 0 16 -14q10 -68 29 -115q43 -117 121 -127q29 -6 28 -14q0 -18 -35.5 -46t-70.5 -28q-63 0 -123 49 q-53 39 -76 90l-135 -162q-162 -195 -184 -307q-6 -29 -23 -28q-90 0 -90 38q0 -4 0 125q-2 129 -2 195q0 78 -9 155z" />
<glyph unicode="s" horiz-adv-x="942" d="M72 121q0 92 12 92l70 -39q80 -45 153 -72q109 -39 205 -39q68 0 141.5 42t73.5 88q0 10 -4 20q-18 39 -115 43q-109 0 -215 2q-125 6 -217 56.5t-92 123.5q0 125 190 203q154 63 312 64q109 0 193.5 -38t84.5 -85q0 -51 -24 -52q-2 0 -37 25q-41 31 -82 47 q-63 25 -137 25q-47 0 -99 -11q-72 -12 -143 -26q-102 -29 -102 -92q0 -43 159 -47q109 2 217 2q129 -12 203 -61.5t74 -123.5q0 -135 -197 -209q-152 -57 -325 -57q-170 0 -234.5 26.5t-64.5 92.5z" />
<glyph unicode="t" horiz-adv-x="880" d="M59 696q0 16 21 17q8 0 84 -8q86 -8 172 -13q1 40 0 79q0 116 -4 218q-6 136 -6 137v-2q0 39 26 39q131 0 131 -53q0 -172 -20 -424q162 4 260 8l35 2l33 2q25 0 24 -20q0 -31 -80 -62q-98 -41 -266 -51q-3 -40 -3 -83q0 -86 13 -183q43 -293 43 -295q0 -10 -18 -10 q-16 0 -49 7t-39 7q-41 0 -77 13.5t-36 31.5q0 4 19.5 122t19.5 206q0 55 -6 100l-14 92l-187 37q-31 6 -53.5 37t-22.5 49z" />
<glyph unicode="u" horiz-adv-x="1116" d="M63 207q0 4 20.5 164.5t20.5 257.5q0 23 19 22q23 0 85 -24.5t62 -38.5q0 4 -23.5 -90.5t-23.5 -171.5q0 -53 31 -90q35 -45 96 -46q121 0 246 127q80 82 137 183q37 66 55.5 79t85.5 17q-6 -43 -6 -51q0 -90 43 -264q51 -205 101 -205q37 0 37 -23q0 -6 -48 -28 q-162 -76 -167 -76q-23 0 -89 465l5 2v-2h-9q-72 -141 -223 -258q-166 -131 -309 -131q-148 0 -146 182z" />
<glyph unicode="v" horiz-adv-x="962" d="M33 553q0 14 30 14q6 0 84 2q28 1 49 1t35 -1q39 -4 43 -16l117 -309q39 -104 68 -105q47 0 153 191q113 205 113 348q0 8 6 8q12 0 55 -32.5t50 -32.5q20 0 43.5 -75t23.5 -110q0 -86 -229 -274q-219 -178 -281 -178q-33 0 -147 254q-123 266 -199 299q-14 6 -14 16z " />
<glyph unicode="w" horiz-adv-x="1607" d="M70 678q0 12 47 12q182 0 198 -43l140 -389q27 -72 32 -72q2 0 3.5 22.5t7.5 22.5q31 0 169 227.5t148 227.5q16 0 146.5 -257t189.5 -257q66 0 138.5 140.5t72.5 254.5q0 59 -10.5 107.5t-10.5 42.5q0 8 13 8q31 0 96 -43q84 -51 84 -111q0 -154 -96 -288 q-76 -106 -193 -181q-100 -63 -151 -63t-178.5 220t-139.5 220q-4 0 -149.5 -228t-188.5 -228q-18 0 -137 270q-131 297 -221 375q-6 4 -10 10z" />
<glyph unicode="x" horiz-adv-x="942" d="M92 90q0 41 43 121q72 133 232 285q-100 98 -201 147q-74 35 -74 41q0 18 94 18q66 0 113 -34l152 -113q102 98 211 145q76 33 124 33q23 0 47.5 -30.5t24.5 -49.5q0 -8 -117 -49q-143 -51 -233 -129q106 -113 209 -180q59 -41 127 -70q45 -18 45 -28q0 -12 -64.5 -34 t-93.5 -22q-51 0 -293 271q-78 -88 -188 -256q-80 -125 -103 -125q-12 0 -33.5 22.5t-21.5 36.5z" />
<glyph unicode="y" horiz-adv-x="1105" d="M55 670q0 29 103 28q2 0 28.5 2t49.5 2q119 0 153 -61l234 -410q102 100 206 199q100 119 101 242q0 2 -8 35q-6 27 -2 26q29 0 75.5 -40t46.5 -66q0 -98 -454 -527q-70 -66 -156 -177t-86 -138q0 -16 14 -16q2 0 10.5 -2.5t43.5 -4.5q51 -2 159 -2q31 0 31 -10 q0 -12 -80 -22q-242 -29 -241 -41q0 -6 45 -6q-31 0 -90 8q-72 10 -72 22q0 43 307 379q-51 127 -158 291q-131 205 -229 264q-31 19 -31 25z" />
<glyph unicode="z" horiz-adv-x="1269" d="M55 76q0 37 213 147q373 193 398 207q213 123 213 191q0 18 -27 22q-18 4 -57 2q-55 -2 -50 -2q-147 0 -374.5 -46t-216.5 -46q-23 0 -23 24q0 20 52.5 65.5t78.5 51.5q102 23 238 23q317 0 447 -25.5t130 -87.5q0 -41 -47 -76q-20 -12 -192 -108l-308 -170 q-198 -109 -229 -109h-2q2 2 2 -2q0 -29 135 -28q74 0 207 9t150 9q59 0 228 30.5t183 30.5q1 0 1 -1q0 -6 -20 -36q-26 -38 -26 -42q0 -23 -225 -56q-266 -41 -576 -41q-303 1 -303 64z" />
<glyph unicode="{" horiz-adv-x="878" d="M59 911q78 82 117 203q16 51 57 246q33 152 64 217q53 100 162 156q250 125 270 125q2 0 2 -3q-2 -4 -16 -14q-150 -104 -219 -221q-59 -100 -99 -277q-35 -166 -229 -477q125 -127 170 -184q90 -119 115 -229q43 -197 94 -289q72 -133 223 -209q-37 8 -258 108 q-109 55 -160 156q-31 63 -63 217q-60 280 -230 475z" />
<glyph unicode="|" horiz-adv-x="307" d="M96 43v1597l97 11v-1608h-97z" />
<glyph unicode="}" horiz-adv-x="878" d="M94 -53q152 76 223 207q49 92 93 288q25 113 114 230q41 51 170 186q-57 90 -100 172q-104 195 -129 305q-39 176 -98 277q-70 117 -217 221q-16 10 -17 14q0 2 2 2q18 0 271 -127q109 -53 157 -155q33 -61 66 -215q43 -197 59 -246q39 -121 115 -203 q-172 -199 -230 -475q-33 -154 -63 -217q-51 -102 -160 -156q-117 -57 -256 -108z" />
<glyph unicode="~" horiz-adv-x="1064" d="M66 563q158 139 262 139q35 0 75 -18q33 -12 66 -27q25 -8 111 -51q57 -29 100 -28q285 0 330 139q-8 -59 -31 -107q-55 -117 -174 -157q-53 -18 -109 -19q-90 0 -188 47q-57 29 -113 60q-82 35 -205 34q-63 0 -124 -12z" />
<glyph unicode="&#xa1;" horiz-adv-x="380" d="M51 90q0 10 31 96q39 100 59 224q31 188 31 448q0 14 16 14q14 0 50 -15t36 -30q0 -33 -2 -133t-2 -192q0 -88 30 -235.5t30 -237.5q0 -35 -35 -35q-33 0 -129 29q-115 34 -115 67zM156 1092q0 74 24 73q29 0 62 -10q45 -12 47 -33q6 -59 6 -135q0 -39 -21 -39 q-18 0 -57 6l-43 13q-14 4 -16 20.5t-2 104.5z" />
<glyph unicode="&#xa2;" horiz-adv-x="1208" d="M49 203q0 156 180 295q160 121 377 176v205h74v-191q66 10 111 10q223 0 223 -102q0 -41 -19 -41l-30 28q-31 28 -80 44q-70 20 -174 14q-16 -2 -31 -4v-571q137 18 289 71q137 47 139 47q20 0 20 -18q0 -35 -131 -82q-137 -47 -317 -72v-260h-74v250q-80 -6 -164 -6 q-393 0 -393 207zM283 209q0 -154 237 -154q39 0 86 4v557q-131 -49 -227 -167.5t-96 -239.5z" />
<glyph unicode="&#xa3;" horiz-adv-x="1112" d="M127 115q0 20 12 20l111 -6q31 305 31 432q0 35 -2 55l-76 11q-53 8 -53 43q0 18 14 18q2 0 41 -2t67 -2q-2 18 0 59q4 55 4 86q0 158 119 248q86 63 156 64q63 0 63 -39q0 -35 -18 -35q-6 0 -29.5 15.5t-56.5 15.5q-55 0 -59 -84q-4 -168 -9 -338l21 -4q39 4 51 4 q31 0 73 3t38 3q8 0 8 -8q0 -16 -55 -37q-61 -23 -146 -31q-12 -184 -61 -481h78q213 0 344 27q90 16 139 47q41 27 39 26q2 0 12 -57t10 -70q0 -10 -22.5 -34.5t-36.5 -26.5q-401 -66 -625 -66q-182 1 -182 144z" />
<glyph unicode="&#xa5;" horiz-adv-x="1308" d="M94 1077q0 16 60 17q203 0 227 -56q37 -78 121 -342q66 -209 141 -321l16 -25l19 15q178 139 297 376q94 193 94 301q0 29 -11 60l-11 31q0 8 10 8q27 0 100.5 -77t73.5 -118q0 -135 -547 -645h188v-33h-225q-31 -31 -45 -43h277v-35h-314q-70 -63 -69 -71 q0 -12 24.5 -13.5t24.5 -7.5q0 -4 -3 -10t-3 -10q0 -12 30 -12q18 0 47 4l78 10q16 2 30 5l13 3q14 0 15 -12q0 -12 -34 -21.5t-200 -42.5q-8 -2 -67.5 -21.5t-69.5 -19.5q-18 0 -40 20.5t-22 35.5q0 16 21 34l149 129h-241l8 35h274l41 35l-2 8h-325l4 33h303 q-37 82 -143 299l-82 166q-141 285 -215 297q-17 0 -17 14z" />
<glyph unicode="&#xa7;" horiz-adv-x="1742" d="M98 186q0 14 13 15q6 0 20 -19q41 -57 279 -71q68 -4 284 -5q164 0 355 89q207 96 206 204q0 88 -168 88q-35 0 -182 -10q-125 -6 -196 -2q-211 14 -336 93t-125 195t-10 171q8 -29 22 -55q33 -63 92 -107q106 -78 205 -86q174 -8 346 -14q291 -23 408 -56 q174 -47 168 -147q-16 -274 -346 -395q-238 -88 -611 -88q-174 0 -289 45q-135 55 -135 155zM342 995q0 143 334 295q326 145 612 146q121 0 219 -35q133 -45 133 -133q0 -43 -20 -43l-41 20q-49 23 -125 37q-111 20 -274 21q-219 0 -396 -99q-162 -88 -161 -174 q0 -49 110 -57l381 -21q528 -43 528 -200q0 -23 -12 -47q-63 -125 -74 -125q-4 0 -19 35.5t-42 60.5q-41 39 -111 51q-76 14 -192 16q-184 6 -272 13q-244 16 -396 71q-182 64 -182 168z" />
<glyph unicode="&#xa8;" horiz-adv-x="518" d="M51 1114q-12 47 74 72q92 25 102 -25q8 -25 2 -80q-8 -63 -6 -80l15 -147q0 -39 -15 -43q-14 -4 -30 31l-72 153q-29 37 -70 119zM291 1176q-8 29 23.5 51t60.5 22q63 0 76 -47q2 -12 2 -24q0 -14 -7 -58q-6 -35 -2 -57l25 -148q6 -37 -14 -43q-16 -4 -31 31l-57 139 q-31 44 -76 134z" />
<glyph unicode="&#xa9;" horiz-adv-x="749" d="M90 1262q0 123 87 210t210 87t210 -87.5t87 -209.5q0 -123 -87 -210t-210 -87t-210 87t-87 210zM152 1266q0 -98 68.5 -164t166.5 -66t167 65.5t69 164.5q0 96 -69 164.5t-167 68.5q-96 0 -165.5 -68.5t-69.5 -164.5zM176 1217q0 63 66 126q80 78 200 80q88 2 88 -32 q-6 -10 -12 -11q-4 0 -8 4q-20 18 -80 19q-90 0 -147 -70q-45 -57 -45 -106q0 -29 36.5 -44.5t81.5 -13.5q80 2 144.5 33t54.5 31q8 0 16 -23q0 -12 -88 -36q-98 -29 -172 -29q-135 0 -135 72z" />
<glyph unicode="&#xaa;" horiz-adv-x="808" d="M94 1001l8 86h633v-86h-641zM111 1303q0 90 120 178q115 86 224 86q70 0 120 -58q37 6 68 19l12 -96q25 -197 66 -197q8 0 8 -10q0 -6 -37 -21.5t-49 -15.5t-16 12q-10 20 -29 111q-106 -104 -324 -105q-163 1 -163 97zM225 1315q0 -66 135 -66q80 0 152 45q57 37 74 70 q-2 -4 -2 25q0 78 -39 114q-47 45 -103 45q-88 0 -152.5 -74.5t-64.5 -158.5z" />
<glyph unicode="&#xab;" horiz-adv-x="1536" d="M33 895q0 53 41 94q16 16 22 6l76 -84l147 123q84 72 113 117q145 225 221 395q53 119 70 205q4 31 8 64q6 6 25 -13q27 -27 59 -106q35 -86 35 -140q0 -23 -6 -34q-59 -139 -215 -338q-141 -184 -228 -250l-145 -111l53 -63q295 -352 496 -533l156 -123q2 -2 -33 -49 t-43 -55t-41 -10q-33 0 -43 8q-127 90 -387 395q-158 184 -314 367q-67 67 -67 135zM541 858q0 53 43 96q14 14 22 7l74 -84q129 104 149 122q82 70 113 117q145 223 221 393q53 119 70 205l8 66q6 6 25 -13q27 -27 59 -106q35 -86 35 -141q0 -20 -6 -33q-59 -139 -215 -338 q-143 -182 -230 -250l-143 -111l53 -63q295 -352 496 -532q78 -61 153 -123q2 -2 -31.5 -49.5t-42 -55.5t-40.5 -8q-35 -2 -45 6q-125 92 -385 395q-307 360 -314 367q-69 67 -69 133z" />
<glyph unicode="&#xad;" horiz-adv-x="667" d="M80 567l8 56h508v-56h-516z" />
<glyph unicode="&#xae;" horiz-adv-x="749" d="M90 1262q0 123 87 210t210 87t210 -87.5t87 -209.5q0 -123 -87 -210t-210 -87t-210 87t-87 210zM152 1266q0 -98 68.5 -164t166.5 -66t167 65.5t69 164.5q0 96 -69 164.5t-167 68.5q-96 0 -165.5 -68.5t-69.5 -164.5zM203 1366q0 12 76 20v15q0 4 6 4q23 0 24 -14 q92 6 107 6q137 0 139 -51q4 -92 -104 -93q-80 0 -80 4l61 -43q109 -76 129 -75q10 0 10 -4q-27 -29 -45 -29q-29 0 -55 22l-141 123q-10 6 -13 11q8 12 21 12q2 0 19.5 -3t29.5 -3q102 0 102 53q0 10 -4 25q-10 41 -84 40q-16 0 -94 -10q0 -18 -6 -57t-6 -62 q0 -41 16.5 -87t16.5 -42q0 -4 -9 -4q-12 0 -33.5 11.5t-21.5 19.5q0 10 2 16l13 203q-25 -6 -39.5 -19.5t-18.5 -13.5t-11 10.5t-7 14.5z" />
<glyph unicode="&#xaf;" horiz-adv-x="624" d="M37 1171v127h545v-127h-545z" />
<glyph unicode="&#x2c9;" horiz-adv-x="624" d="M37 1171v127h545v-127h-545z" />
<glyph unicode="&#xb0;" horiz-adv-x="423" d="M25 954q0 72 62.5 132.5t162.5 60.5q68 0 112 -33l25 -35q4 -12 4 -28q0 -82 -74 -152q-68 -49 -167 -49q-78 0 -111 35q-14 34 -14 69zM127 901q0 -33 33 -33q96 0 129 224q0 39 -51 30q-91 -57 -111 -221z" />
<glyph unicode="&#xb1;" horiz-adv-x="737" d="M61 369l9 102l553 21l4 -111zM70 791l4 102l221 10l-8 225l110 7l4 -228l226 6l8 -106l-232 -6l7 -234l-103 8l-8 222z" />
<glyph unicode="&#xb2;" horiz-adv-x="1482" d="M113 80q0 18 92 53q393 147 583 301q207 166 207 367q0 125 -62.5 166t-223.5 41q-334 0 -334 -234q0 -88 188 -88q35 0 94.5 3t79.5 3q2 0 -74.5 -39t-76.5 -43q0 -20 -63.5 -44.5t-110.5 -24.5q-84 0 -139.5 50t-55.5 124q0 197 209 327q188 121 424 121q199 0 313 -76 q125 -82 125 -241q0 -170 -227 -340q-145 -109 -422 -236q-227 -104 -227 -118q0 -23 111.5 -42.5t256.5 -19.5q143 0 283 8q98 4 192 13q80 8 78 8q27 0 27 -19q0 -53 -432 -84q-330 -25 -670 -24q-76 0 -117 35q-28 24 -28 53z" />
<glyph unicode="&#xb3;" horiz-adv-x="1290" d="M139 117q0 27 13 26q10 0 26 -24q20 -31 58 -45q55 -25 161 -25q215 0 385 105q182 113 183 272q0 88 -35 125q-45 45 -174 45q-92 0 -314 -41q-35 27 -34 63q0 12 8 27q436 4 549 242q8 18 8 37q0 57 -69.5 104t-164.5 47q-135 0 -225 -61q-51 -35 -111 -115 q-45 -61 -71 -61q-72 0 -72 65q0 66 166 150q176 88 350 88q150 0 254 -43q137 -55 137 -168q0 -117 -123 -191q-78 -47 -251 -94v-2q182 -10 254 -33q133 -43 133 -161q0 -186 -287 -340q-256 -137 -483 -138q-117 0 -194 44.5t-77 101.5z" />
<glyph unicode="&#xb4;" horiz-adv-x="389" d="M49 838q-18 10 4 43l84 125q12 18 24.5 63t29 64.5t47.5 19.5q35 0 64.5 -25.5t29.5 -60.5q0 -14 -8 -25q-16 -20 -63.5 -46.5t-61.5 -41.5l-111 -102q-27 -24 -39 -14z" />
<glyph unicode="&#xb8;" horiz-adv-x="528" d="M80 -381l31 70q70 -25 129 -25q111 0 110 78q0 68 -90 68q-43 0 -67 -7l-23 15l82 182h78l-60 -121q23 8 70 8q147 0 147 -141q0 -78 -77 -123q-63 -35 -142 -35q-114 0 -188 31z" />
<glyph unicode="&#xb9;" horiz-adv-x="921" d="M86 831q0 6 66 27q92 31 159 64l465 219q0 -4 7.5 -4t7.5 -13q0 8 -17 -77q-16 -100 -26 -263q-16 -236 -17 -587q0 -104 9.5 -163t9.5 -48q0 -14 -23 -15q-35 0 -133 21q-121 27 -121 53q0 -6 72.5 387t77.5 557l-205 -201q-29 -29 -99 -28q-18 0 -57 3t-55 3 q-29 0 -75 25.5t-46 39.5z" />
<glyph unicode="&#xba;" horiz-adv-x="849" d="M92 1307q0 113 133 190q121 72 275 72q264 0 264 -160q0 -86 -90 -162q-117 -100 -330 -100q-252 0 -252 160zM94 1001l8 86h633v-86h-641zM227 1370q0 -78 74 -127q68 -45 158 -45q168 0 168 164q0 160 -199 166q-72 2 -131 -39q-70 -45 -70 -119z" />
<glyph unicode="&#xbb;" horiz-adv-x="1536" d="M59 70q76 61 154 123q201 180 496 532l53 63l-146 111q-86 66 -227 250q-156 199 -215 338q-6 12 -6 35q0 53 35 139q33 80 59 106q18 18 25 13l8 -66q14 -84 67 -205q78 -170 224 -393q39 -59 262 -239q31 37 74 84q6 10 22 -7q41 -41 41 -94q0 -68 -67 -135 q-156 -182 -314 -367q-260 -305 -387 -395q-10 -8 -43 -8q-33 2 -41 10t-42 55.5t-32 49.5zM567 104q76 63 150 127q199 182 500 529l55 63l-146 111q-86 66 -229 250q-154 199 -213 338q-6 14 -6 34q0 53 35 142q33 78 57 104q18 18 27 13q4 -33 8 -64q14 -86 67 -205 q76 -172 222 -395q29 -45 112 -117q76 -61 150 -123q33 37 76 84q4 10 20 -6q43 -43 43 -96q0 -66 -70 -133q-4 -4 -311 -367q-260 -305 -387 -395q-10 -8 -43 -8q-33 2 -41 10t-43 55t-33 49z" />
<glyph unicode="&#xbf;" horiz-adv-x="972" d="M51 213q0 115 139 182q127 49 256 101q139 59 140 155q0 86 -29 123t-113 37q-78 0 -129 -38t-51 -103q0 -16 -18 -17q-35 0 -65.5 20.5t-28.5 53.5q6 106 145 141q66 16 203 17q117 0 194 -49q88 -55 88 -162q0 -92 -147 -174q-137 -70 -277 -142q-147 -88 -147 -196 q0 -53 18.5 -71.5t63.5 -18.5q12 0 57 3t76 3q127 0 219 57q59 37 117 109q47 57 61 57q20 0 45 -21.5t25 -48.5q0 -90 -172 -165q-158 -68 -313 -68q-357 0 -357 215zM408 1096q0 74 24 73q23 0 57 -10q51 -12 54 -33q6 -45 6 -137q0 -39 -23 -39q-16 0 -55 6l-47 15 q-12 2 -14 19.5t-2 105.5z" />
<glyph unicode="&#xc0;" horiz-adv-x="1832" d="M90 100q0 10 12 11q2 0 30 -14.5t46 -14.5q8 0 17 4q217 106 452 373l31 35q-29 0 -109 -25t-108 -25q-141 0 -142 170q0 12 9 13q-6 0 28 -15q43 -16 115 -26q104 -14 262 -15q121 156 330 447q-27 49 -111 84q-63 27 -90 26q-10 0 -10 11q0 16 53 16q166 0 238 -37 q51 -27 254 -385q221 -389 327 -493q31 0 31 -13q0 -16 -54 -62t-87 -46q-8 0 -15 4q-68 41 -94 88q-10 16 -92 221q-59 150 -160 305q-2 6 -166 250l-280 -422h14q47 0 228.5 3t232.5 3q27 0 27 -16q0 -37 -547 -72q-162 -256 -309 -387q-125 -111 -215 -110 q-41 0 -94.5 44.5t-53.5 69.5zM807 1577q0 33 29.5 59.5t64.5 26.5q33 0 49.5 -19.5t28.5 -65.5t25 -65l83 -122q23 -33 7 -45q-14 -12 -41 16l-111 100q-39 25 -80 51q-55 35 -55 64z" />
<glyph unicode="&#xc1;" d="M76 100q0 10 12 11q2 0 28.5 -14.5t45.5 -14.5q10 0 18 4q215 104 453 373l31 35q-29 0 -109 -25t-109 -25q-141 0 -141 170q0 12 8 13q-6 0 29 -15q43 -16 115 -26q104 -14 262 -15q121 156 330 447q-27 49 -111 84q-63 27 -90 26q-10 0 -10 11q0 16 53 16 q166 0 237 -37q51 -27 254 -385q221 -389 328 -493q31 0 31 -13q0 -16 -54.5 -62t-87.5 -46q-8 0 -14 4q-68 41 -94 88q-8 14 -92 221q-61 150 -160 305q-8 14 -166 250l-282 -422h16q47 0 228.5 3t232.5 3q27 0 26 -16q0 -37 -546 -72q-162 -256 -310 -387 q-125 -111 -215 -110q-41 0 -94 44.5t-53 69.5zM877 1380q-14 12 6 45l82 123q12 18 24 64.5t28.5 66t51.5 19.5t63.5 -25.5t28.5 -58.5q0 -31 -55 -66q-39 -27 -80 -51l-111 -100q-24 -29 -38 -17z" />
<glyph unicode="&#xc2;" d="M76 100q0 10 12 11q2 0 28.5 -14.5t45.5 -14.5q10 0 18 4q215 104 453 373l31 35q-29 0 -109 -25t-109 -25q-141 0 -141 170q0 12 8 13q-6 0 29 -15q43 -16 115 -26q104 -14 262 -15q121 156 330 447q-27 49 -111 84q-63 27 -90 26q-10 0 -10 11q0 16 53 16 q166 0 237 -37q51 -27 254 -385q221 -389 328 -493q31 0 31 -13q0 -16 -54.5 -62t-87.5 -46q-8 0 -14 4q-68 41 -94 88q-8 14 -92 221q-61 150 -160 305q-8 14 -166 250l-282 -422h16q47 0 228.5 3t232.5 3q27 0 26 -16q0 -37 -546 -72q-162 -256 -310 -387 q-125 -111 -215 -110q-41 0 -94 44.5t-53 69.5zM776 1333q10 33 10 72q0 16 -6 29q35 53 68 98q82 102 141 135q14 8 64 -39q-4 -10 -19 -33q16 -39 31 -75q29 -88 31 -158q0 -4 16 6q-18 -45 -22.5 -46t-28.5 -5q-29 94 -72 209q-8 12 -83 -97.5t-79 -128.5q0 -2 -51 33z " />
<glyph unicode="&#xc3;" horiz-adv-x="1812" d="M76 100q0 10 12 11q2 0 28.5 -14.5t45.5 -14.5q10 0 18 4q215 104 453 373l31 35q-29 0 -109 -25t-109 -25q-141 0 -141 170q0 12 8 13q-6 0 29 -15q43 -16 115 -26q104 -14 262 -15q121 156 330 447q-27 49 -111 84q-63 27 -90 26q-10 0 -10 11q0 16 53 16 q166 0 237 -37q51 -27 254 -385q221 -389 328 -493q31 0 31 -13q0 -16 -54.5 -62t-87.5 -46q-8 0 -14 4q-68 41 -94 88q-8 14 -92 221q-61 150 -160 305q-8 14 -166 250l-282 -422h16q47 0 228.5 3t232.5 3q27 0 26 -16q0 -37 -546 -72q-162 -256 -310 -387 q-125 -111 -215 -110q-41 0 -94 44.5t-53 69.5zM537 1477q158 137 262 137q35 0 75 -17q33 -12 66 -26q27 -8 111 -51q57 -29 100 -29q285 0 330 139q-8 -59 -31 -106q-55 -117 -174 -158q-53 -18 -109 -18q-90 0 -188 47q-57 29 -113 59q-78 35 -202 35q-66 0 -127 -12z " />
<glyph unicode="&#xc4;" horiz-adv-x="1843" d="M90 100q0 10 12 11q2 0 30 -14.5t46 -14.5q8 0 17 4q217 106 452 373l31 35q-29 0 -109 -25t-108 -25q-141 0 -142 170q0 12 9 13q-6 0 28 -15q43 -16 115 -26q104 -14 262 -15q121 156 330 447q-27 49 -111 84q-63 27 -90 26q-10 0 -10 11q0 16 53 16q166 0 238 -37 q51 -27 254 -385q221 -389 327 -493q31 0 31 -13q0 -16 -54 -62t-87 -46q-8 0 -15 4q-68 41 -94 88q-10 16 -92 221q-59 150 -160 305q-2 6 -166 250l-280 -422h14q47 0 228.5 3t232.5 3q27 0 27 -16q0 -37 -547 -72q-162 -256 -309 -387q-125 -111 -215 -110 q-41 0 -94.5 44.5t-53.5 69.5zM735 1552q-12 45 74 74q92 20 104 -27q6 -25 2 -77q-8 -63 -6 -80l13 -150q2 -37 -13 -41q-20 -6 -30 29l-72 154q-29 36 -72 118zM975 1614q-8 29 22.5 52.5t61.5 23.5q66 0 76 -50q4 -12 4 -28q0 -12 -7.5 -50t-3.5 -59l25 -149 q6 -37 -14 -41q-16 -4 -31 30l-55 140q-33 43 -78 131z" />
<glyph unicode="&#xc5;" horiz-adv-x="1843" d="M76 100q0 10 12 11q2 0 28.5 -14.5t45.5 -14.5q10 0 18 4q215 104 453 373l31 35q-29 0 -109 -25t-109 -25q-141 0 -141 170q0 12 8 13q-6 0 29 -15q43 -16 115 -26q104 -14 262 -15q121 156 330 447q-27 49 -111 84q-63 27 -90 26q-10 0 -10 11q0 16 53 16 q166 0 237 -37q51 -27 254 -385q221 -389 328 -493q31 0 31 -13q0 -16 -54.5 -62t-87.5 -46q-8 0 -14 4q-68 41 -94 88q-8 14 -92 221q-61 150 -160 305q-8 14 -166 250l-282 -422h16q47 0 228.5 3t232.5 3q27 0 26 -16q0 -37 -546 -72q-162 -256 -310 -387 q-125 -111 -215 -110q-41 0 -94 44.5t-53 69.5zM850 1407q0 84 74 141q66 51 153 51q66 0 113 -30l24 -35q4 -10 5 -27q0 -84 -74 -155q-70 -47 -168 -47q-80 0 -113 34q-14 35 -14 68zM954 1354q0 -41 47 -31q90 37 113 221q0 39 -49 31q-93 -57 -111 -221z" />
<glyph unicode="&#xc6;" horiz-adv-x="3328" d="M76 100q0 10 12 11q2 0 28.5 -14.5t45.5 -14.5q10 0 18 4q215 104 453 373l31 35q-29 0 -109 -25t-109 -25q-141 0 -141 170q0 12 8 13q-6 0 29 -15q43 -16 115 -26q104 -14 262 -15q121 156 330 447q-27 49 -111 84q-63 27 -90 26q-10 0 -10 11q0 16 53 16 q168 0 237 -37q47 -25 181 -258q207 -358 247 -422q96 254 473 497t678 243q139 0 242 -35q117 -41 117 -109q0 -35 -23 -35l-51 21q-59 23 -133 35q-104 20 -238 20q-227 0 -521 -233.5t-294 -423.5q0 -172 207 -234q125 -39 373 -39q211 0 424 54q147 37 295 98l127 53 q4 -2 4 -10q0 -14 -9.5 -57t-9.5 -45q0 -25 -34 -39q-156 -61 -414 -117q-340 -74 -635 -74q-383 0 -514 115q-25 -6 -35 0q-68 41 -94 88q-8 14 -92 221q-61 150 -160 305q-8 14 -166 250l-282 -422h16q47 0 228.5 3t232.5 3q27 0 26 -16q0 -37 -546 -72 q-162 -256 -310 -387q-125 -111 -215 -110q-41 0 -94 44.5t-53 69.5zM1911 545l10 43q268 4 623 37q340 29 331 28q33 0 33 -12q0 -76 -16 -98q-23 -29 -99 -29q-18 0 -378.5 15.5t-503.5 15.5z" />
<glyph unicode="&#xc7;" d="M82 272q0 158 121 349q137 217 366 354q272 162 621 166q121 2 215 -21q147 -33 147 -110q0 -12 -17 -30.5t-32 -18.5q-12 0 -33 20q-82 68 -329 68q-258 0 -461 -146q-162 -119 -262 -309q-82 -160 -82 -277q0 -121 164 -186q143 -55 334 -49q238 8 446 76 q141 47 272 121q111 63 113 63q10 0 33.5 -42t23.5 -54q0 -33 -272 -123q-303 -100 -582 -135q63 -49 64 -78q0 -59 -197.5 -230.5t-245.5 -171.5q-12 0 -12 13q0 8 12 20q186 190 252 432q-33 -2 -94 -2q-565 0 -565 301z" />
<glyph unicode="&#xc8;" horiz-adv-x="1853" d="M84 291q0 170 205 379q193 197 465 336q287 143 506 143q139 0 241 -35q117 -41 117 -108q0 -35 -23 -35l-51 20q-59 23 -133 35q-104 20 -237 21q-227 0 -521.5 -234.5t-294.5 -425.5q0 -172 207 -233q125 -37 373 -37q211 0 424 53q145 35 295 96l127 53q2 -2 2 -8 q0 -14 -8.5 -57t-8.5 -45q0 -25 -36 -39q-154 -61 -412 -119q-342 -74 -635 -74q-233 0 -358 37q-244 72 -244 277zM463 516l10 43q266 4 621 35q344 31 331 31q35 0 35 -13q0 -76 -16 -98q-23 -31 -98 -31q-18 0 -379 16.5t-504 16.5zM842 1585q0 33 29.5 59.5t64.5 26.5 q33 0 49 -19.5t28.5 -64.5t24.5 -63l84 -125q23 -33 6 -45q-12 -10 -41 16l-110 103q-2 2 -80 49q-55 34 -55 63z" />
<glyph unicode="&#xc9;" d="M55 291q0 170 205 379q193 197 465 336q287 143 506 143q139 0 242 -35q117 -41 116 -108q0 -35 -22 -35l-51 20q-61 23 -134 35q-106 20 -237 21q-227 0 -521 -234.5t-294 -425.5q0 -172 207 -233q125 -37 372 -37q211 0 424 53q145 35 295 96l125 53q4 -2 4 -10 q0 -16 -8 -57t-8 -43q0 -25 -37 -39q-154 -61 -412 -119q-342 -74 -635 -74q-233 0 -358 37q-244 72 -244 277zM432 516l10 43q268 4 623 35q344 31 332 31q35 0 35 -13q0 -76 -19 -98q-23 -31 -96 -31q-18 0 -380 16.5t-505 16.5zM1047 1257q-14 14 6 46l82 122 q12 18 24 64.5t28.5 66t49.5 19.5q35 0 64.5 -25.5t29.5 -60.5q0 -29 -55 -64q-39 -27 -80 -51l-111 -100q-24 -29 -38 -17z" />
<glyph unicode="&#xca;" d="M55 291q0 170 205 379q193 197 465 336q287 143 506 143q139 0 242 -35q117 -41 116 -108q0 -35 -22 -35l-51 20q-61 23 -134 35q-106 20 -237 21q-227 0 -521 -234.5t-294 -425.5q0 -172 207 -233q125 -37 372 -37q211 0 424 53q145 35 295 96l125 53q4 -2 4 -10 q0 -16 -8 -57t-8 -43q0 -25 -37 -39q-154 -61 -412 -119q-342 -74 -635 -74q-233 0 -358 37q-244 72 -244 277zM432 516l10 43q268 4 623 35q344 31 332 31q35 0 35 -13q0 -76 -19 -98q-23 -31 -96 -31q-18 0 -380 16.5t-505 16.5zM778 1368q12 35 13 74q0 14 -9 26 q35 53 68 99q82 102 141 135q14 8 66 -39q-4 -10 -21 -33q61 -131 62 -233l16 6q-16 -43 -18 -44t-33 -7q-33 100 -72 209q-8 12 -82.5 -98.5t-77.5 -127.5q-2 -2 -53 33z" />
<glyph unicode="&#xcb;" horiz-adv-x="1873" d="M84 291q0 170 205 379q193 197 465 336q287 143 506 143q139 0 241 -35q117 -41 117 -108q0 -35 -23 -35l-51 20q-59 23 -133 35q-104 20 -237 21q-227 0 -521.5 -234.5t-294.5 -425.5q0 -172 207 -233q125 -37 373 -37q211 0 424 53q145 35 295 96l127 53q2 -2 2 -8 q0 -14 -8.5 -57t-8.5 -45q0 -25 -36 -39q-154 -61 -412 -119q-342 -74 -635 -74q-233 0 -358 37q-244 72 -244 277zM463 516l10 43q266 4 621 35q344 31 331 31q35 0 35 -13q0 -76 -16 -98q-23 -31 -98 -31q-18 0 -379 16.5t-504 16.5zM674 1544q-12 47 74 72q90 25 104 -25 q6 -25 2 -80q-8 -63 -6 -79l12 -148q2 -37 -12 -43q-20 -4 -31 31l-72 153q-28 37 -71 119zM913 1606q-8 29 24 51t62 22q63 0 74 -47q4 -12 4 -28q0 -12 -7 -50t-3 -61l25 -147q6 -37 -15 -43q-16 -6 -30 30l-56 140q-33 43 -78 133z" />
<glyph unicode="&#xcc;" horiz-adv-x="860" d="M63 2q172 -2 313.5 227.5t178.5 567.5l27 243q16 141 24 142q41 0 93.5 -24.5t52.5 -59.5q-10 -481 -150 -760q-177 -346 -539 -336zM469 1694q0 33 28.5 58.5t63.5 25.5q33 0 50.5 -19.5t28.5 -65.5t24 -65l84 -125q20 -31 6 -43t-39 17l-113 100q-45 25 -123 88 q-10 13 -10 29z" />
<glyph unicode="&#xcd;" horiz-adv-x="1034" d="M63 2q172 -2 313.5 227.5t178.5 567.5l27 243q16 141 24 142q41 0 93.5 -24.5t52.5 -59.5q-10 -481 -150 -760q-177 -346 -539 -336zM637 1337q-14 12 6 43l82 125q12 18 24.5 64.5t29 66t48.5 19.5q35 0 65 -25.5t30 -60.5q0 -14 -11 -27q-16 -20 -63 -48t-62 -40 l-110 -100q-25 -29 -39 -17z" />
<glyph unicode="&#xce;" horiz-adv-x="931" d="M63 2q172 -2 313.5 227.5t178.5 567.5l27 243q16 141 24 142q41 0 93.5 -24.5t52.5 -59.5q-10 -481 -150 -760q-177 -346 -539 -336zM500 1384q12 35 12 74q0 18 -8 29q35 53 69 96q80 104 142 137q14 8 63 -39q-4 -10 -18 -34q16 -37 31 -74q29 -88 30 -158q0 -4 17 6 q-18 -45 -21.5 -45t-30.5 -6q-31 98 -71 209q-10 10 -85 -99.5t-77 -125.5q0 -3 -53 30z" />
<glyph unicode="&#xcf;" horiz-adv-x="870" d="M63 2q172 -2 313.5 227.5t178.5 567.5l27 243q16 141 24 142q41 0 93.5 -24.5t52.5 -59.5q-10 -481 -150 -760q-177 -346 -539 -336zM356 1595q-12 51 72 74q92 25 104 -24q6 -25 0 -80q-6 -61 -4 -80l13 -148q4 -39 -13 -43q-20 -6 -30 29l-72 154q-29 36 -70 118z M596 1657q-6 29 21.5 52.5t58.5 23.5q68 0 80 -47q4 -12 4 -27q0 -14 -7.5 -52t-2.5 -61l22 -147q6 -39 -12 -43q-20 -4 -31 30l-57 140q-33 43 -76 131z" />
<glyph unicode="&#xd1;" horiz-adv-x="1710" d="M72 57q0 12 14 13q8 0 28.5 -5.5t32.5 -5.5q55 0 191 279q152 307 209 610q-74 94 -137 135q-43 27 -43 31q0 12 22 12q260 0 299 -49l655 -809q31 -39 68 -39q31 0 52.5 59.5t21.5 151.5q0 268 -31 432q-20 115 -55 172q-31 49 -31 43q0 16 33 17q31 0 125 -60 q102 -63 102 -104q0 -807 -233 -807q-55 0 -168 117l-641 663l-15 -249q-6 -125 -65 -318q-88 -291 -227 -387q-4 -2 -13 -2q-35 0 -114.5 43t-79.5 57zM401 1405q158 139 263 139q35 0 75 -16q33 -14 64 -25.5t115 -52.5q57 -29 98 -29q287 0 330 138q-8 -59 -31 -107 q-55 -115 -174 -156q-53 -18 -109 -18q-88 0 -188 47q-57 29 -113 59q-80 33 -201 33q-66 0 -129 -12z" />
<glyph unicode="&#xd2;" horiz-adv-x="1853" d="M78 315q0 203 184 404q156 168 391 289q215 111 348 110q57 0 58 -22q0 -18 -23 -19q-141 0 -311 -98q-180 -102 -295 -260q-131 -180 -131 -379q0 -152 104 -215q86 -51 259 -51q61 0 149 6q338 25 536.5 164t198.5 354q0 172 -73 254q-84 88 -277 88q-170 0 -289 -47 q-74 -29 -139 -84q-53 -47 -70 -47q-35 0 -34 35q0 86 194 168q205 88 438 88q213 0 346 -95q143 -100 144 -274q0 -276 -324 -498q-344 -238 -827 -237q-256 0 -402 92q-155 94 -155 274zM778 1585q0 35 30 60.5t64 25.5q33 0 49.5 -19.5t29 -64.5t24.5 -63l82 -125 q20 -31 6 -45q-14 -12 -39 16l-111 103q-2 2 -82 51q-53 32 -53 61z" />
<glyph unicode="&#xd3;" horiz-adv-x="1843" d="M78 315q0 203 184 404q156 168 391 289q215 111 348 110q57 0 58 -22q0 -18 -23 -19q-141 0 -311 -98q-180 -102 -295 -260q-131 -180 -131 -379q0 -152 104 -215q86 -51 259 -51q61 0 149 6q338 25 536.5 164t198.5 354q0 172 -73 254q-84 88 -277 88q-170 0 -289 -47 q-74 -29 -139 -84q-53 -47 -70 -47q-35 0 -34 35q0 86 194 168q205 88 438 88q213 0 346 -95q143 -100 144 -274q0 -276 -324 -498q-344 -238 -827 -237q-256 0 -402 92q-155 94 -155 274zM852 1303q-14 12 6 43l84 124q12 18 24.5 64.5t29 65t46.5 18.5q35 0 65 -25.5 t30 -60.5q0 -27 -54 -62q-41 -27 -79 -51l-111 -100q-25 -28 -41 -16z" />
<glyph unicode="&#xd4;" horiz-adv-x="1894" d="M92 315q0 203 184 404q156 168 392 289q215 111 348 110q57 0 57 -22q0 -18 -20 -19q-231 0 -471 -211q-266 -233 -267 -526q0 -152 105 -215q86 -51 256 -51q63 0 149 6q338 25 537 164t199 354q0 172 -74 254q-84 88 -277 88q-170 0 -288 -47q-74 -29 -140 -84 q-53 -47 -67 -47q-37 0 -37 35q0 86 194 168q205 88 439 88q213 0 348 -95q141 -100 141 -274q0 -276 -323 -498q-344 -238 -828 -237q-256 0 -401 92q-156 94 -156 274zM784 1350q12 35 13 73q0 12 -9 29q35 53 68 96q82 104 141 138q14 6 66 -39q-4 -10 -21 -35 q61 -129 62 -232q0 -2 16 4q-16 -43 -23 -44t-28 -7q-29 96 -72 211q-8 10 -82.5 -100.5t-76.5 -124.5z" />
<glyph unicode="&#xd5;" horiz-adv-x="1853" d="M78 315q0 203 184 404q156 168 391 289q215 111 348 110q57 0 58 -22q0 -18 -23 -19q-141 0 -311 -98q-180 -102 -295 -260q-131 -180 -131 -379q0 -152 104 -215q86 -51 259 -51q61 0 149 6q338 25 536.5 164t198.5 354q0 172 -73 254q-84 88 -277 88q-170 0 -289 -47 q-74 -29 -139 -84q-53 -47 -70 -47q-35 0 -34 35q0 86 194 168q205 88 438 88q213 0 346 -95q143 -100 144 -274q0 -276 -324 -498q-344 -238 -827 -237q-256 0 -402 92q-155 94 -155 274zM487 1415q158 137 261 137q35 0 75 -16q33 -12 64 -23.5t114 -54.5q57 -29 101 -28 q285 0 330 139q-8 -59 -31 -109q-55 -115 -174 -155q-53 -18 -109 -19q-90 0 -188 47q-57 29 -113 60q-78 35 -205 34q-64 0 -125 -12z" />
<glyph unicode="&#xd6;" horiz-adv-x="1843" d="M63 315q0 203 185 404q156 168 391 289q215 111 348 110q57 0 57 -22q0 -18 -22 -19q-141 0 -311 -98q-180 -102 -295 -260q-131 -180 -131 -379q0 -152 104 -215q86 -51 258 -51q61 0 150 6q338 25 536.5 164t198.5 354q0 174 -74 254q-84 88 -278 88q-170 0 -287 -47 q-74 -29 -139 -84q-53 -47 -70 -47q-37 0 -37 35q0 86 197 168q205 88 438 88q213 0 346 -95q143 -100 144 -274q0 -276 -324 -498q-344 -238 -827 -237q-256 0 -402 92q-156 94 -156 274zM735 1552q-12 45 74 74q92 20 104 -27q6 -25 2 -77q-8 -63 -6 -80l13 -150 q2 -37 -13 -41q-20 -6 -30 29l-72 154q-29 36 -72 118zM975 1614q-8 29 22.5 52.5t61.5 23.5q66 0 76 -50q4 -12 4 -28q0 -12 -7.5 -50t-3.5 -59l25 -149q6 -37 -14 -41q-16 -4 -31 30l-55 140q-33 43 -78 131z" />
<glyph unicode="&#xd8;" horiz-adv-x="2170" d="M47 178l158 80q-10 33 -10 86q0 203 184 404q156 170 391 290q215 111 348 111q57 0 58 -25q0 -16 -21 -16q-143 0 -313 -98q-180 -102 -293 -262q-131 -180 -131 -379v-4l1116 559q-82 47 -221 47q-170 0 -289 -47q-74 -29 -139 -86q-53 -47 -68 -47q-37 0 -37 34 q0 86 195 168q205 88 438 88q174 0 301 -65l273 137l104 -123l-250 -119q61 -84 62 -198q0 -274 -324 -498q-344 -238 -827 -238q-371 0 -504 185l-148 -72zM438 250q61 -145 336 -146q63 0 154 7q336 25 535.5 164t199.5 352q0 117 -31 186z" />
<glyph unicode="&#xd9;" horiz-adv-x="1536" d="M76 297q0 123 53 405q49 260 49 357q0 31 -11 54.5t-11 21.5q0 20 30 20q39 0 90 -25q61 -29 80 -69q31 -66 31 -172q0 -78 -20 -148q-90 -309 -91 -452q0 -74 44.5 -104.5t148.5 -34.5q178 -6 392 309t214 573q0 51 15 51q14 0 74.5 -26.5t62.5 -40.5q55 -537 59 -567 q55 -360 154 -369q16 0 16 -10q0 -23 -110 -56q-102 -29 -146 -28q-37 0 -72 252q-31 227 -28 354q0 4 4 203q-20 -51 -43 -103q-84 -270 -223 -434q-211 -252 -529 -223q-233 20 -233 262zM580 1630q0 35 28.5 60.5t63.5 25.5t51 -19.5t28.5 -65.5t24.5 -64l82 -125 q20 -31 6 -43t-39 16l-110 101q-47 25 -125 88q-10 12 -10 26z" />
<glyph unicode="&#xda;" horiz-adv-x="1576" d="M90 297q0 123 53 405q49 260 50 357q0 31 -11.5 54.5t-11.5 21.5q0 20 33 20q37 0 88 -25q61 -29 80 -69q31 -66 30 -172q0 -78 -20 -148q-90 -309 -90 -452q0 -74 44 -104.5t148 -34.5q178 -6 392.5 309t214.5 573q0 51 14 51t74.5 -26.5t62.5 -40.5q55 -537 59 -567 q55 -360 154 -369q16 0 16 -10q0 -23 -110 -56q-102 -29 -146 -28q-35 0 -69 252q-31 221 -31 354q0 4 4 203q-20 -51 -43 -103q-84 -270 -221 -434q-213 -252 -528 -223q-236 20 -236 262zM616 1407q-14 14 7 45l82 123q12 18 24 64.5t28.5 65.5t49.5 19q35 0 64.5 -25.5 t29.5 -60.5q0 -29 -55 -63q-41 -27 -80 -51l-111 -101q-25 -28 -39 -16z" />
<glyph unicode="&#xdb;" horiz-adv-x="1566" d="M76 297q0 123 53 405q49 260 49 357q0 31 -11 54.5t-11 21.5q0 20 30 20q39 0 90 -25q61 -29 80 -69q31 -66 31 -172q0 -78 -20 -148q-90 -309 -91 -452q0 -74 44.5 -104.5t148.5 -34.5q178 -6 392 309t214 573q0 51 15 51q14 0 74.5 -26.5t62.5 -40.5q55 -537 59 -567 q55 -360 154 -369q16 0 16 -10q0 -23 -110 -56q-102 -29 -146 -28q-37 0 -72 252q-31 227 -28 354q0 4 4 203q-20 -51 -43 -103q-84 -270 -223 -434q-211 -252 -529 -223q-233 20 -233 262zM518 1384q12 35 12 74q0 12 -8 29q35 53 68 96q82 104 141 137q14 8 66 -39 q-4 -10 -21 -34q61 -129 62 -232q0 -4 16 6q-16 -45 -21.5 -46t-29.5 -5q-29 96 -72 209q-8 10 -83 -99.5t-77 -125.5z" />
<glyph unicode="&#xdc;" horiz-adv-x="1546" d="M76 297q0 123 53 405q49 260 49 357q0 31 -11 54.5t-11 21.5q0 20 30 20q39 0 90 -25q61 -29 80 -69q31 -66 31 -172q0 -78 -20 -148q-90 -309 -91 -452q0 -74 44.5 -104.5t148.5 -34.5q178 -6 392 309t214 573q0 51 15 51q14 0 74.5 -26.5t62.5 -40.5q55 -537 59 -567 q55 -360 154 -369q16 0 16 -10q0 -23 -110 -56q-102 -29 -146 -28q-37 0 -72 252q-31 227 -28 354q0 4 4 203q-20 -51 -43 -103q-84 -270 -223 -434q-211 -252 -529 -223q-233 20 -233 262zM516 1606q-12 47 74 71q90 25 104 -24q6 -25 0 -80q-8 -61 -6 -80l14 -147 q4 -37 -14 -43q-14 -4 -31 30l-71 154q-29 37 -70 119zM756 1667q-8 29 23.5 51.5t62.5 22.5q63 0 73 -47q4 -12 5 -29q0 -12 -7.5 -50t-3.5 -61l25 -147q6 -37 -14 -43q-16 -4 -31 31l-58 139q-30 43 -75 133z" />
<glyph unicode="&#xdd;" horiz-adv-x="1308" d="M94 1077q0 16 60 17q203 0 227 -56q37 -78 121 -342q66 -209 141 -321l16 -25l19 15q178 139 297 376q94 193 94 301q0 29 -11 60l-11 31q0 8 10 8q27 0 100.5 -77t73.5 -118q0 -84 -191 -293q-123 -135 -354 -350q-190 -178 -190 -184q0 -12 24.5 -13.5t24.5 -7.5 q0 -4 -3 -10t-3 -10q0 -12 30 -12q18 0 47 4l78 10q16 2 30 5l13 3q14 0 15 -12q0 -12 -34 -21.5t-200 -42.5q-8 -2 -67.5 -21.5t-69.5 -19.5q-18 0 -40 20.5t-22 35.5q0 16 21 34l231 199l-245 506q-141 285 -215 297q-17 0 -17 14zM592 1329q-14 12 6 43l84 125 q12 18 24.5 63.5t29 65t46.5 19.5q35 0 65 -26t30 -60q0 -27 -54 -62q-78 -49 -80 -51l-110 -103q-27 -24 -41 -14z" />
<glyph unicode="&#xdf;" horiz-adv-x="1685" d="M94 1022q0 53 332 90v37q0 37 20 37q23 0 86.5 -23.5t63.5 -38.5q68 4 201 4q295 0 426 -30q207 -47 207 -185q0 -96 -94.5 -190t-207.5 -98l-73 -2q-133 -4 -158 -19.5t-25 -93.5q0 -43 158 -47h219q299 -29 299 -230q0 -279 -534 -278q-170 0 -234.5 26.5t-64.5 92.5 q0 92 14 92l68 -39q80 -45 155 -72q106 -39 203 -39q223 0 223 160q0 78 -352 94q-127 6 -215 54q-94 51 -94 127q0 127 119 190q94 49 241 51q113 2 149 36t36 155q0 205 -469 204q-35 0 -166 -22q-12 -90 -13 -217q0 -90 8.5 -265t8.5 -249q0 -319 -123 -320 q-313 0 -313 127q0 16 8 17q2 0 69.5 -14.5t106.5 -18.5q47 428 49 928q-102 -23 -172 -70q-57 -41 -74 -41q-18 0 -53 31t-35 49z" />
<glyph unicode="&#xe0;" horiz-adv-x="1177" d="M80 162q0 150 201 297q193 143 372 143q121 0 201 -94q70 12 113 33l18 -162q37 -330 111 -330q16 0 16 -16q0 -12 -62.5 -37t-82.5 -25q-18 0 -29 19q-14 37 -47 186q-106 -104 -254 -145q-111 -31 -283 -31q-274 0 -274 162zM270 184q0 -111 226 -110q133 0 254 78 q96 61 118 114v39q0 37 -16 92q-20 70 -51 99q-82 76 -168 75q-147 0 -258 -129q-105 -119 -105 -258zM512 1155q0 35 29.5 60.5t64.5 25.5q33 0 49.5 -19.5t28.5 -64.5t25 -63l82 -125q20 -31 6 -45q-14 -12 -39 16l-111 102q-2 2 -82 52q-53 32 -53 61z" />
<glyph unicode="&#xe1;" horiz-adv-x="1146" d="M49 162q0 150 201 297q195 143 375 143q121 0 200 -94q66 10 113 33l18 -162q37 -330 111 -330q16 0 16 -16q0 -12 -62.5 -37t-82.5 -25q-18 0 -29 19q-14 37 -47 186q-109 -104 -254 -145q-111 -31 -282 -31q-277 0 -277 162zM242 184q0 -111 225 -110q133 0 254 78 q94 61 119 114q4 6 2 15q-4 12 -4 24q0 37 -17 92q-18 70 -49 99q-80 76 -168 75q-147 0 -258 -129q-104 -119 -104 -258zM530 924q-16 12 7 45l84 125q12 18 24 63t28.5 64.5t49.5 19.5q35 0 64.5 -26.5t29.5 -59.5q0 -29 -55 -63q-78 -47 -80 -50l-111 -102 q-29 -26 -41 -16z" />
<glyph unicode="&#xe2;" horiz-adv-x="1157" d="M63 162q0 150 201 297q195 143 375 143q121 0 201 -94q70 12 112 33l19 -162q37 -330 110 -330q16 0 17 -16q0 -12 -62.5 -37t-83.5 -25q-18 0 -28 19q-14 37 -47 186q-109 -104 -254 -145q-111 -31 -283 -31q-277 0 -277 162zM256 184q0 -111 225 -110q133 0 254 78 q94 61 119 114q4 6 2 15q-4 12 -4 24q0 37 -16 92q-18 70 -50 99q-80 76 -168 75q-147 0 -258 -129q-104 -119 -104 -258zM444 858q12 35 13 74q0 12 -8 29q35 53 67 96q82 104 141 137q14 6 66 -39q-4 -10 -18 -35q16 -37 30 -73q29 -88 31 -158q0 -2 14 4q-16 -43 -22 -44 t-29 -7q-23 88 -72 211q-8 10 -82.5 -100.5t-76.5 -125.5z" />
<glyph unicode="&#xe3;" horiz-adv-x="1146" d="M63 162q0 150 201 297q195 143 375 143q121 0 201 -94q70 12 112 33l19 -162q37 -330 110 -330q16 0 17 -16q0 -12 -62.5 -37t-83.5 -25q-18 0 -28 19q-14 37 -47 186q-109 -104 -254 -145q-111 -31 -283 -31q-277 0 -277 162zM119 1036q158 139 262 140q35 0 74 -17 q33 -14 63.5 -24.5t114.5 -53.5q57 -29 100 -28q285 0 330 137q-8 -59 -31 -107q-55 -115 -174 -155q-53 -18 -108 -19q-88 0 -189 47q-57 29 -112 60q-80 33 -201 33q-68 -1 -129 -13zM256 184q0 -111 225 -110q133 0 254 78q94 61 119 114q4 6 2 15q-4 12 -4 24 q0 37 -16 92q-18 70 -50 99q-80 76 -168 75q-147 0 -258 -129q-104 -119 -104 -258z" />
<glyph unicode="&#xe4;" horiz-adv-x="1146" d="M49 162q0 150 201 297q195 143 375 143q121 0 200 -94q66 10 113 33l18 -162q37 -330 111 -330q16 0 16 -16q0 -12 -62.5 -37t-82.5 -25q-18 0 -29 19q-14 37 -47 186q-109 -104 -254 -145q-111 -31 -282 -31q-277 0 -277 162zM242 184q0 -111 225 -110q133 0 254 78 q94 61 119 114q4 6 2 15q-4 12 -4 24q0 37 -17 92q-18 70 -49 99q-80 76 -168 75q-147 0 -258 -129q-104 -119 -104 -258zM315 1122q-10 47 72 74q94 18 105 -27q6 -25 0 -79q-6 -59 -5 -78l13 -150q2 -37 -13 -41q-20 -6 -30 29l-72 154q-29 36 -70 118zM555 1184 q-6 29 22.5 52.5t59.5 23.5q66 0 78 -50q4 -12 4 -26t-7 -52t-3 -59l22 -149q6 -37 -12 -41q-20 -4 -31 30l-57 140q-33 43 -76 131z" />
<glyph unicode="&#xe5;" horiz-adv-x="1146" d="M63 162q0 150 201 297q195 143 375 143q121 0 201 -94q70 12 112 33l19 -162q37 -330 110 -330q16 0 17 -16q0 -12 -62.5 -37t-83.5 -25q-18 0 -28 19q-14 37 -47 186q-109 -104 -254 -145q-111 -31 -283 -31q-277 0 -277 162zM256 184q0 -111 225 -110q133 0 254 78 q94 61 119 114q4 6 2 15q-4 12 -4 24q0 37 -16 92q-18 70 -50 99q-80 76 -168 75q-147 0 -258 -129q-104 -119 -104 -258zM449 967q0 84 73 141q68 53 154 53q68 0 112 -33l25 -34q4 -12 4 -29q0 -82 -74 -152q-70 -49 -170 -49q-78 0 -110 35q-14 35 -14 68zM553 915 q0 -41 47 -30q88 35 115 221q0 39 -51 31q-91 -58 -111 -222z" />
<glyph unicode="&#xe6;" horiz-adv-x="2150" d="M94 162q0 150 201 297q193 143 373 143q121 0 200 -94q70 12 113 33l20 -162v-17q199 307 666 326q244 10 244 -239q27 0 26 -25q0 -10 -12 -14q-39 -6 -78 -15l-630 -131q45 -195 307 -194q141 0 276 26q94 16 185 47l77 27q18 0 19 -20q0 -25 -64 -46 q-350 -117 -626 -116q-205 0 -293 24q-70 -41 -117 -41q-18 0 -29 19q-14 37 -47 186q-106 -104 -254 -145q-111 -31 -282 -31q-275 0 -275 162zM285 184q0 -111 225 -110q133 0 254 78q96 61 119 114v39q0 37 -17 92q-18 70 -49 99q-82 76 -170 75q-147 0 -258 -129 q-104 -119 -104 -258zM1221 319l415 93q76 16 82 18q37 18 37 64q0 143 -178 143q-158 0 -256 -96q-88 -87 -100 -222z" />
<glyph unicode="&#xe7;" horiz-adv-x="1198" d="M49 203q0 195 266 352q242 143 476 143q223 0 223 -102q0 -41 -19 -41l-30 28q-31 28 -80 44q-70 23 -174 14q-156 -10 -292 -147.5t-136 -284.5q0 -156 243 -156q35 0 97 6q158 14 327 72q160 53 158 53q20 0 20 -18q0 -33 -129 -80t-303 -72q74 -49 74 -84 q0 -59 -198.5 -230t-243.5 -171q-12 0 -13 12q0 8 13 21q188 188 254 440q-70 -6 -140 -6q-393 0 -393 207z" />
<glyph unicode="&#xe8;" horiz-adv-x="1249" d="M57 211q0 66 64 162q82 127 223 207q182 104 436 114q246 10 246 -239q27 0 27 -23q0 -10 -15 -14q-37 -8 -75 -17l-633 -131q49 -193 307 -192q141 0 278 24q94 18 185 50l78 24q18 0 18 -20q0 -23 -63 -43q-356 -119 -629 -119q-211 0 -299 26q-148 48 -148 191z M336 326l414 94q70 10 84 16q37 16 36 66q0 143 -178 143q-158 0 -256 -96q-88 -88 -100 -223zM483 1157q0 33 29 58.5t63 25.5q35 0 51.5 -19.5t28 -64.5t23.5 -63l84 -125q23 -33 6 -45q-14 -12 -39 16l-113 102q-39 25 -79 52q-54 32 -54 63z" />
<glyph unicode="&#xe9;" horiz-adv-x="1280" d="M57 211q0 66 64 162q82 127 223 207q182 104 436 114q246 10 246 -239q27 0 27 -23q0 -10 -15 -14q-37 -8 -75 -17l-633 -131q49 -193 307 -192q141 0 278 24q94 18 185 50l78 24q18 0 18 -20q0 -23 -63 -43q-356 -119 -629 -119q-211 0 -299 26q-148 48 -148 191z M336 326l414 94q70 10 84 16q37 16 36 66q0 143 -178 143q-158 0 -256 -96q-88 -88 -100 -223zM584 881q-18 14 6 43l84 125q12 18 23.5 64t27.5 65.5t51 19.5t63.5 -25.5t28.5 -60.5q0 -14 -10 -27q-16 -20 -62 -45.5t-61 -42.5l-112 -100q-25 -28 -39 -16z" />
<glyph unicode="&#xea;" horiz-adv-x="1269" d="M57 211q0 66 64 162q82 127 223 207q182 104 436 114q246 10 246 -239q27 0 27 -23q0 -10 -15 -14q-37 -8 -75 -17l-633 -131q49 -193 307 -192q141 0 278 24q94 18 185 50l78 24q18 0 18 -20q0 -23 -63 -43q-356 -119 -629 -119q-211 0 -299 26q-148 48 -148 191z M336 326l414 94q70 10 84 16q37 16 36 66q0 143 -178 143q-158 0 -256 -96q-88 -88 -100 -223zM430 858q12 35 12 74q0 12 -8 29q35 53 68 96q82 104 141 137q14 6 66 -39q-4 -10 -21 -35q61 -129 62 -231q0 -2 16 4q-16 -43 -22.5 -44t-28.5 -7q-29 96 -72 211 q-8 10 -83 -100.5t-77 -125.5z" />
<glyph unicode="&#xeb;" horiz-adv-x="1280" d="M72 211q0 66 63 162q82 127 223 207q184 104 439 114q244 8 243 -239q27 0 27 -23q0 -10 -12 -14l-78 -17l-631 -131q45 -193 307 -192q141 0 277 24q94 18 184 50l78 24q18 0 18 -20q0 -23 -63 -43q-356 -119 -627 -119q-213 0 -301 26q-147 48 -147 191zM350 326 l416 94q76 16 82 20q37 16 37 62q0 143 -178 143q-158 0 -256 -96q-89 -88 -101 -223zM399 1114q-12 47 74 72q92 25 102 -25q8 -25 3 -80q-8 -63 -7 -80l15 -147q0 -39 -15 -43q-14 -4 -30 31l-72 153q-29 37 -70 119zM639 1176q-8 29 23.5 51t60.5 22q63 0 76 -47 q2 -12 2 -24q0 -14 -6 -58q-6 -35 -2 -57l24 -148q6 -37 -14 -43q-16 -4 -31 31l-57 139q-31 44 -76 134z" />
<glyph unicode="&#xec;" horiz-adv-x="460" d="M100 1018q0 33 29 58.5t64 25.5q33 0 50 -19.5t28.5 -65.5t23.5 -65l84 -125q20 -31 6 -43t-39 17l-113 100q-45 25 -122 88q-11 13 -11 29zM141 592q0 8 15 8q33 0 106 -18q92 -23 92 -47q0 -43 -19.5 -180.5t-19.5 -202.5q0 -27 -3 -101t-3 -92t-22 -18q-27 0 -66 14 q-47 16 -47 39v368q0 119 -16.5 180.5t-16.5 49.5z" />
<glyph unicode="&#xed;" horiz-adv-x="403" d="M39 649q0 8 14 8q35 0 107 -16q92 -23 92 -49q0 -43 -19.5 -179.5t-19.5 -201.5q0 -188 -7 -199.5t-22 -11.5q-27 0 -65 14q-47 16 -47 39v369q0 119 -16.5 180t-16.5 47zM72 956q-16 12 6 45l84 123q12 18 23.5 64.5t27.5 66t51 19.5t63.5 -25.5t28.5 -60.5 q0 -29 -53 -62q-72 -45 -80 -53l-112 -100q-25 -29 -39 -17z" />
<glyph unicode="&#xee;" horiz-adv-x="430" d="M29 934q12 35 12 74q0 18 -8 28q35 53 69 97q80 104 142 137q14 8 63 -39q-4 -10 -18 -35q16 -37 30 -74q29 -88 31 -157q0 -4 17 6q-18 -45 -21.5 -45t-30.5 -6q-31 98 -71 208q-10 10 -85 -99t-77 -126q0 -2 -53 31zM98 676q0 8 15 8q33 0 106 -18q90 -23 90 -48 q0 -43 -19.5 -179t-19.5 -201q0 -29 -3 -103t-3 -91t-20 -17q-27 0 -66 12q-47 16 -47 41v369q0 119 -16.5 179t-16.5 48z" />
<glyph unicode="&#xef;" horiz-adv-x="522" d="M45 1241q-14 49 74 74q90 25 104 -25q6 -25 0 -80q-8 -61 -6 -80l14 -147q4 -39 -14 -43q-14 -4 -31 31l-71 153q-29 35 -70 117zM176 684q0 10 17 10q33 0 106 -18q90 -23 90 -49q0 -43 -19.5 -179.5t-19.5 -201.5q0 -188 -7 -199.5t-21 -11.5q-27 0 -66 14 q-47 16 -47 39v369q0 119 -16.5 180t-16.5 47zM285 1303q-8 29 22.5 52t61.5 23q66 0 75 -47q4 -12 5 -28q0 -12 -7.5 -50.5t-3.5 -60.5l25 -148q6 -39 -14 -43q-16 -4 -31 31l-58 139q-32 44 -75 132z" />
<glyph unicode="&#xf1;" horiz-adv-x="1126" d="M74 66q0 -4 11 107.5t11 250.5q0 92 -8 153.5t-8 57.5q0 12 10 12q18 0 103.5 -27.5t85.5 -44.5q0 -12 -29 -88q-29 -84 -37 -131l-31 -198h4q90 164 213 286q164 162 312 162q66 0 96 -41q20 -27 53 -123l115 -340l4 -32q2 -16 27 -17q12 0 12 -10q-2 -23 -62.5 -50.5 t-89.5 -27.5q-8 0 -8 -10v-8q-2 8 -47 98l-55 109l-82 180q-39 76 -84 76q-94 0 -199 -86q-125 -102 -196 -281q-10 -25 -23 -25q-98 1 -98 48zM119 1036q158 139 262 140q35 0 74 -17q33 -14 63.5 -24.5t114.5 -53.5q57 -29 100 -28q285 0 330 137q-8 -59 -31 -107 q-55 -115 -174 -155q-53 -18 -108 -19q-88 0 -189 47q-57 29 -112 60q-80 33 -201 33q-68 -1 -129 -13z" />
<glyph unicode="&#xf2;" horiz-adv-x="1218" d="M37 279q0 188 219 317q205 119 459 119q440 0 440 -266q0 -143 -147 -271q-195 -166 -551 -166q-420 1 -420 267zM264 383q0 -129 121 -209q111 -76 264 -76q279 0 279 273q0 264 -332 276q-119 4 -219 -63q-113 -76 -113 -201zM483 1157q0 33 29 58.5t63 25.5 q35 0 51.5 -19.5t28 -64.5t23.5 -63l84 -125q23 -33 6 -45q-14 -12 -39 16l-113 102q-39 25 -79 52q-54 32 -54 63z" />
<glyph unicode="&#xf3;" horiz-adv-x="1269" d="M66 279q0 188 219 317q205 119 458 119q442 0 443 -266q0 -143 -150 -271q-195 -166 -551 -166q-419 1 -419 267zM293 383q0 -129 123 -209q111 -76 262 -76q279 0 278 273q0 264 -329 276q-121 4 -221 -63q-113 -76 -113 -201zM612 881q-18 14 6 43l84 125 q12 18 24.5 64t29 65.5t49.5 19.5q35 0 63.5 -26.5t28.5 -59.5q0 -16 -8 -27q-16 -20 -63.5 -47.5t-61.5 -40.5l-111 -100q-29 -26 -41 -16z" />
<glyph unicode="&#xf4;" horiz-adv-x="1239" d="M51 279q0 188 219 317q205 119 459 119q440 0 440 -266q0 -143 -147 -271q-195 -166 -551 -166q-420 1 -420 267zM279 383q0 -129 120 -209q111 -76 265 -76q279 0 278 273q0 264 -330 276q-121 4 -221 -63q-112 -76 -112 -201zM444 858q12 35 13 74q0 12 -8 29 q35 53 67 96q82 104 141 137q14 6 66 -39q-4 -10 -18 -35q16 -37 30 -73q29 -88 31 -158q0 -2 14 4q-16 -43 -22 -44t-29 -7q-23 88 -72 211q-8 10 -82.5 -100.5t-76.5 -125.5z" />
<glyph unicode="&#xf5;" horiz-adv-x="1228" d="M51 279q0 188 219 317q205 119 459 119q440 0 440 -266q0 -143 -147 -271q-195 -166 -551 -166q-420 1 -420 267zM119 1036q158 139 262 140q35 0 74 -17q33 -14 63.5 -24.5t114.5 -53.5q57 -29 100 -28q285 0 330 137q-8 -59 -31 -107q-55 -115 -174 -155 q-53 -18 -108 -19q-88 0 -189 47q-57 29 -112 60q-80 33 -201 33q-68 -1 -129 -13zM279 383q0 -129 120 -209q111 -76 265 -76q279 0 278 273q0 264 -330 276q-121 4 -221 -63q-112 -76 -112 -201z" />
<glyph unicode="&#xf6;" horiz-adv-x="1218" d="M51 279q0 188 219 317q205 119 459 119q440 0 440 -266q0 -143 -147 -271q-195 -166 -551 -166q-420 1 -420 267zM279 383q0 -129 120 -209q111 -76 265 -76q279 0 278 273q0 264 -330 276q-121 4 -221 -63q-112 -76 -112 -201zM399 1114q-12 47 74 72q92 25 102 -25 q8 -25 3 -80q-8 -63 -7 -80l15 -147q0 -39 -15 -43q-14 -4 -30 31l-72 153q-29 37 -70 119zM639 1176q-8 29 23.5 51t60.5 22q63 0 76 -47q2 -12 2 -24q0 -14 -6 -58q-6 -35 -2 -57l24 -148q6 -37 -14 -43q-16 -4 -31 31l-57 139q-31 44 -76 134z" />
<glyph unicode="&#xf9;" horiz-adv-x="1136" d="M63 207q0 4 20.5 164.5t20.5 257.5q0 23 19 22q23 0 85 -24.5t62 -38.5q0 4 -23.5 -90.5t-23.5 -171.5q0 -53 31 -90q35 -45 96 -46q121 0 246 127q80 82 137 183q37 66 55.5 79t85.5 17q-6 -43 -6 -51q0 -90 43 -264q51 -205 101 -205q37 0 37 -23q0 -6 -48 -28 q-162 -76 -167 -76q-23 0 -89 465l5 2v-2h-9q-72 -141 -223 -258q-166 -131 -309 -131q-148 0 -146 182zM469 1157q0 33 29.5 58.5t62.5 25.5t50.5 -19.5t28.5 -64.5t24 -63l84 -125q23 -33 6 -45q-14 -12 -39 16l-113 102q-41 25 -80 52q-53 34 -53 63z" />
<glyph unicode="&#xfa;" horiz-adv-x="1167" d="M92 207q0 4 21.5 164.5t21.5 257.5q0 23 17 22q23 0 85 -24.5t62 -38.5q0 4 -22.5 -90.5t-22.5 -171.5q0 -53 29 -90q35 -45 96 -46q121 0 246 127q78 80 137 183q39 68 51 78q20 14 90 18q-4 -29 -4 -51q0 -90 43 -264q49 -205 98 -205q37 0 37 -23q0 -6 -47 -28 q-162 -76 -168 -76q-23 0 -86 465l2 2v-2h-8q-70 -139 -221 -258q-168 -131 -311 -131q-148 0 -146 182zM459 915q-18 12 4 46l84 122q12 18 24.5 64.5t28.5 66t49 19.5q35 0 64.5 -26.5t29.5 -59.5q0 -29 -55 -64q-41 -27 -80 -51l-110 -100q-27 -29 -39 -17z" />
<glyph unicode="&#xfb;" horiz-adv-x="1136" d="M78 207q0 4 21.5 164.5t21.5 257.5q0 23 16 22q23 0 85.5 -24.5t62.5 -38.5q0 4 -23.5 -90.5t-23.5 -171.5q0 -53 30 -90q35 -45 97 -46q121 0 245 127q78 80 138 183q39 68 51 78q20 14 90 18q-6 -43 -6 -51q0 -90 43 -264q51 -205 100 -205q37 0 37 -23q0 -6 -47 -28 q-162 -76 -168 -76q-23 0 -88 465l4 2v-2h-8q-72 -141 -224 -258q-166 -131 -309 -131q-147 0 -145 182zM430 858q12 35 12 74q0 12 -8 29q35 53 68 96q82 104 141 137q14 6 66 -39q-4 -10 -21 -35q61 -129 62 -231q0 -2 16 4q-16 -43 -22.5 -44t-28.5 -7q-29 96 -72 211 q-8 10 -83 -100.5t-77 -125.5z" />
<glyph unicode="&#xfc;" horiz-adv-x="1136" d="M78 207q0 4 21.5 164.5t21.5 257.5q0 23 16 22q23 0 85.5 -24.5t62.5 -38.5q0 4 -23.5 -90.5t-23.5 -171.5q0 -53 30 -90q35 -45 97 -46q121 0 245 127q78 80 138 183q39 68 51 78q20 14 90 18q-6 -43 -6 -51q0 -90 43 -264q51 -205 100 -205q37 0 37 -23q0 -6 -47 -28 q-162 -76 -168 -76q-23 0 -88 465l4 2v-2h-8q-72 -141 -224 -258q-166 -131 -309 -131q-147 0 -145 182zM340 1130q-14 53 74 74q92 23 104 -24q6 -25 0 -80q-6 -61 -4 -80l12 -148q4 -39 -12 -43q-20 -6 -31 29l-71 154q-29 36 -72 118zM582 1192q-6 29 21.5 52.5 t58.5 23.5q68 0 77 -47q4 -14 4 -31q0 -14 -6 -51t-2 -58l23 -147q6 -39 -13 -43q-20 -4 -30 31l-58 139q-32 43 -75 131z" />
<glyph unicode="&#xfd;" horiz-adv-x="1185" d="M102 479q0 29 103 29q2 0 28.5 2t49.5 2q119 0 153 -61l234 -410q201 197 204 199q100 119 101 241l-6 35q-6 27 -2 27q29 0 76 -40t47 -67q0 -100 -455 -526q-70 -66 -157 -177.5t-87 -138.5q0 -16 17 -16q2 0 10 -2t43 -4q51 -2 160 -2q31 0 30 -10q0 -14 -80 -23 q-242 -27 -241 -41q0 -6 45 -6q-31 0 -90 8q-72 10 -72 23q0 43 307 379q-51 125 -158 290q-133 205 -229 265q-31 18 -31 24zM541 881q-16 12 4 43l84 125q12 18 24.5 64t28.5 65.5t49 19.5q35 0 63.5 -26.5t28.5 -59.5q0 -16 -8 -27q-16 -20 -63 -46.5t-62 -41.5 l-110 -100q-27 -28 -39 -16z" />
<glyph unicode="&#xff;" horiz-adv-x="1116" d="M70 479q0 29 102 29q2 0 28.5 2t49.5 2q119 0 153 -61l234 -410q102 100 207 199q100 119 100 241q0 2 -8 35q-6 27 -2 27q29 0 76 -40t47 -67q0 -98 -455 -526q-70 -66 -156 -177.5t-86 -138.5q0 -16 15 -16q2 0 10 -2t43 -4q51 -2 160 -2q31 0 30 -10q0 -14 -77 -23 q-242 -29 -242 -41q0 -6 43 -6q-31 0 -88 8q-72 10 -72 23q0 45 305 379q-51 125 -157 290q-131 205 -230 265q-30 18 -30 24zM406 1008q-14 53 73 73q92 23 103 -24q8 -25 2 -80q-8 -63 -6 -80l14 -147q0 -39 -14 -43q-16 -4 -31 28l-72 154q-28 37 -69 119zM645 1069 q-8 29 20.5 52.5t59.5 23.5q68 0 80 -47q2 -12 2 -27q0 -14 -6 -53t-2 -60l22 -147q6 -39 -12 -43q-16 -4 -31 31l-57 139q-31 43 -76 131z" />
<glyph unicode="&#x152;" horiz-adv-x="3317" d="M78 315q0 203 184 404q156 168 391 289q215 111 348 110q57 0 58 -22q0 -18 -23 -19q-141 0 -311 -98q-180 -102 -295 -260q-131 -180 -131 -379q0 -152 104 -215q86 -51 259 -51q61 0 149 6q338 25 536.5 164t198.5 354q0 172 -73 254q-84 88 -277 88q-170 0 -289 -47 q-74 -29 -139 -84q-53 -47 -70 -47q-35 0 -34 35q0 86 194 168q205 88 438 88q195 0 329 -82t157 -232q195 174 440 289q258 121 457 121q139 0 241 -35q117 -41 117 -108q0 -35 -22 -35l-52 20q-61 23 -133 35q-106 20 -237 21q-227 0 -521 -234.5t-294 -425.5 q0 -172 207 -233q125 -37 372 -37q211 0 424 53q145 35 295 96l127 53q2 -2 2 -8q0 -14 -8 -57t-8 -45q0 -25 -37 -39q-154 -61 -412 -119q-342 -74 -635 -74q-211 0 -327 29q-227 55 -267 215q-354 -272 -876 -272q-256 0 -402 92q-155 94 -155 274zM1882 516l10 43 q266 4 621 35q344 31 332 31q35 0 34 -13q0 -76 -18 -98q-23 -31 -96 -31q-18 0 -379 16.5t-504 16.5z" />
<glyph unicode="&#x153;" horiz-adv-x="2191" d="M74 287q0 188 219 315q203 119 457 119q350 0 426 -172q211 164 526 176q246 8 246 -242q27 0 26 -22q0 -10 -14 -15q-37 -6 -76 -14l-633 -133q49 -193 308 -193q141 0 278 27q94 16 184 47l78 27q18 0 19 -21q0 -25 -64 -45q-356 -119 -629 -118q-176 0 -254 16 q-135 27 -174 111q-188 -131 -503 -132q-420 1 -420 269zM299 391q0 -129 123 -211q113 -76 264 -76q279 0 279 275q0 264 -332 274q-119 4 -219 -63q-115 -76 -115 -199zM1257 356l414 93q78 16 82 18q39 18 39 63q0 143 -178 144q-158 0 -256 -96q-89 -87 -101 -222z" />
<glyph unicode="&#x178;" horiz-adv-x="1280" d="M63 1077q0 16 62 17q203 0 227 -56q37 -78 121 -342q66 -209 141 -321l17 -25l18 15q178 139 297 376q94 193 94 301q0 29 -11 60l-11 31q0 8 10 8q27 0 99.5 -77t72.5 -118q0 -84 -190 -293q-123 -135 -353 -350q-190 -178 -190 -184q0 -12 24.5 -13.5t24.5 -7.5 q0 -4 -3 -10t-3 -10q0 -12 31 -12q18 0 47 4l78 10q16 2 29 5l14 3q14 0 14 -12t-34 -21.5t-200 -42.5q-109 -23 -127 -35q-10 -6 -12 -6q-16 0 -37.5 20.5t-21.5 35.5q0 16 20 34l232 199l-246 506q-137 283 -217 297q-17 0 -17 14zM385 1526q-12 45 74 73q90 18 102 -24 q6 -27 2 -80q-8 -63 -6 -80l14 -147q0 -39 -14 -43q-16 -4 -31 28l-71 154q-29 37 -70 119zM625 1587q-8 29 21.5 52.5t60.5 23.5q66 0 77 -47q4 -12 4 -27q0 -14 -8 -57q-6 -35 -2 -55l23 -148q6 -39 -13 -43q-16 -4 -30 31l-58 139q-30 43 -75 131z" />
<glyph unicode="&#x2c6;" horiz-adv-x="432" d="M49 815q12 35 12 74q0 18 -8 26q35 53 70 99q80 102 141 135q14 6 64 -39q-4 -10 -19 -33q16 -39 31 -76q29 -88 31 -157l16 6q-18 -43 -20 -44t-31 -7q-29 94 -72 209q-8 12 -84 -98.5t-78 -127.5q-2 -4 -53 33z" />
<glyph unicode="&#x2dc;" horiz-adv-x="1075" d="M66 563q158 139 262 139q35 0 75 -18q33 -12 66 -27q25 -8 111 -51q57 -29 100 -28q285 0 330 139q-8 -59 -31 -107q-55 -117 -174 -157q-53 -18 -109 -19q-90 0 -188 47q-57 29 -113 60q-82 35 -205 34q-63 0 -124 -12z" />
<glyph unicode="&#x2013;" horiz-adv-x="686" d="M43 629l8 227h563v-227h-571z" />
<glyph unicode="&#x2014;" horiz-adv-x="1075" d="M59 629l7 227h944v-227h-951z" />
<glyph unicode="&#x2018;" horiz-adv-x="350" d="M70 1282q0 33 28.5 56.5t53.5 23.5q12 0 18 -19q20 -78 43 -153q2 -4 78 -92q27 -31 26 -33q0 -8 -18 -8q-8 0 -37 20q-63 41 -125 82q-65 51 -67 123z" />
<glyph unicode="&#x2019;" horiz-adv-x="305" d="M12 1065q2 2 13 16l14 17q78 90 78 92q23 78 45 153q4 18 16 19q25 0 54.5 -23.5t27.5 -56.5q-2 -72 -65 -123q-63 -41 -125 -82q-29 -20 -37 -20q-21 0 -21 8z" />
<glyph unicode="&#x201c;" horiz-adv-x="526" d="M70 1282q0 33 28.5 56.5t53.5 23.5q12 0 18 -19q20 -78 43 -153q2 -4 78 -92q27 -31 26 -33q0 -8 -18 -8q-8 0 -37 20q-63 41 -125 82q-65 51 -67 123zM293 1282q-2 33 27.5 56.5t54.5 23.5q14 0 16 -19q23 -76 45 -153q0 -2 78 -92l14 -17q12 -14 13 -16q0 -8 -21 -8 q-8 0 -37 20q-61 41 -125 82q-63 51 -65 123z" />
<glyph unicode="&#x201d;" horiz-adv-x="526" d="M12 1065q2 2 13 16l14 17q78 90 78 92q23 78 45 153q4 18 16 19q25 0 54.5 -23.5t27.5 -56.5q-2 -72 -65 -123q-63 -41 -125 -82q-29 -20 -37 -20q-21 0 -21 8zM236 1065q0 2 26 33q76 88 78 92q23 76 43 153q6 18 18 19q25 0 53.5 -23.5t28.5 -56.5q-2 -72 -67 -123 q-61 -41 -125 -82q-29 -20 -37 -20q-18 0 -18 8z" />
<glyph unicode="&#x2022;" horiz-adv-x="583" d="M55 874q0 70 37 127q66 106 197 107q68 0 125 -35q109 -68 108 -196q0 -66 -35 -123q-68 -109 -200 -109q-68 0 -125 35q-107 65 -107 194z" />
<glyph unicode="&#x2026;" horiz-adv-x="974" d="M63 133q-2 10 16.5 21.5t31.5 11.5q123 0 127 -31l20 -147q2 -8 -10 -8q-8 0 -27.5 4t-23.5 4q-23 0 -56 8q-47 12 -51 33zM387 133q-2 10 16.5 21.5t30.5 11.5q125 0 129 -31l21 -147q0 -8 -13 -8q-6 0 -25.5 4t-23.5 4q-23 0 -55 8q-45 14 -51 33zM705 133 q-2 10 16 21.5t29 11.5q125 0 129 -31l20 -147q2 -8 -10 -8q-8 0 -27.5 4t-23.5 4q-23 0 -56 8q-47 12 -51 33z" />
<glyph unicode="&#x2039;" horiz-adv-x="1062" d="M33 895q0 53 41 94q16 16 22 6l76 -84l147 123q84 72 113 117q145 225 221 395q53 119 70 205q4 31 8 64q6 6 25 -13q27 -27 59 -106q35 -86 35 -140q0 -23 -6 -34q-59 -139 -215 -338q-141 -184 -228 -250l-145 -111l53 -63q295 -352 496 -533l156 -123q2 -2 -33 -49 t-43 -55t-41 -10q-33 0 -43 8q-127 90 -387 395q-158 184 -314 367q-67 67 -67 135z" />
<glyph unicode="&#x203a;" horiz-adv-x="1062" d="M68 115q76 61 149 125q199 182 500 530l53 61l-143 113q-88 70 -230 248q-156 201 -215 338q-6 14 -6 35q0 55 35 141q33 78 59 104q18 18 25 13q4 -31 8 -64q16 -86 70 -205q76 -172 221 -395q31 -49 262 -239q31 37 74 84q8 8 22 -7q43 -43 43 -96q0 -66 -69 -133 q-4 -4 -314 -367q-258 -303 -385 -393q-10 -10 -45 -10q-33 2 -42 11t-41.5 56.5t-30.5 49.5z" />
<glyph unicode="&#x2122;" horiz-adv-x="667" d="M63 1522h5q18 0 114 -6q4 10 11 10q12 -2 12 -13q61 0 95 3.5t28 3.5l2 -4q0 -2 -11 -3q-37 -6 -114 -16q-2 -12 -2 -86q0 -49 28 -49q18 0 37 2t21 2q6 0 6 -2l-2 -4q-49 -31 -100 -31q-25 0 -25 31q0 51 14 137q-2 0 -41 -10t-55 -10q-6 0 -14.5 19.5t-8.5 25.5z M309 1350h2h6q10 0 60 125l10 18l-14 12l-13 17q0 2 2 4q55 -6 58 -13l39 -116q6 -10 10 -11q2 0 8 11l58 125q0 4 2 4q25 0 36 -6q18 -129 23 -152q6 0 10 -2q-12 -10 -24 -10q-29 0 -35 55q0 10 4 78q0 8 -2 8q0 -2 -8 -10l-72 -123q-2 -2 -4 -2q-6 0 -10 2l-64 123 l-8 -51q-6 -43 -24.5 -75t-28.5 -32q-21 1 -21 21z" />
<glyph unicode="&#xe000;" horiz-adv-x="735" d="M0 735h735v-735h-735v735z" />
<glyph unicode="&#xfb01;" horiz-adv-x="952" d="M664 649q0 8 14 8q35 0 106 -16q92 -23 93 -49q0 -43 -19.5 -179.5t-19.5 -201.5q0 -188 -7.5 -199.5t-21.5 -11.5q-27 0 -65 14q-47 16 -48 39v369q0 119 -16 180t-16 47zM696 1044q0 8 17 9q31 0 90 -9.5t62 -15.5t3 -129q0 -31 -18 -50.5t-33 -19.5q-31 0 -67 15 q-43 16 -45 39q-9 85 -9 161zM68 670q0 18 14 18q2 0 41 -2t67 -2q-2 18 0 59q4 55 5 86q0 158 118 248q86 63 156 64q63 0 63 -39q0 -35 -18 -35q-6 0 -29.5 15.5t-56.5 15.5q-66 0 -89.5 -81t-37.5 -341l21 -4q39 4 51 4q33 0 73.5 3t36.5 3q8 0 9 -8q0 -16 -56 -37 q-61 -23 -145 -31q-10 -145 -23 -291q-12 -176 -12 -323q0 -6 -16.5 -13.5t-22.5 -7.5q-18 0 -18 17l2 52q2 52 2 105q0 344 -6 471l-76 11q-53 8 -53 43z" />
<glyph unicode="&#xfb02;" horiz-adv-x="921" d="M655 1120q0 14 19 15q37 0 110 -27q82 -31 82 -53q0 -111 -25.5 -347.5t-25.5 -439.5q0 -102 -2 -172q-2 -49 -4 -79l-2 -29q0 -16 -25 -17q-4 0 -19 -4t-24 -4q-18 0 -18 21l-37 790q-6 137 -18 248q-11 92 -11 98zM68 670q0 18 14 18q2 0 41 -2t67 -2q-2 18 0 59 q4 55 5 86q0 158 118 248q86 63 156 64q63 0 63 -39q0 -35 -18 -35q-6 0 -29.5 15.5t-56.5 15.5q-66 0 -89.5 -81t-37.5 -341l21 -4q39 4 51 4q33 0 73.5 3t36.5 3q8 0 9 -8q0 -16 -56 -37q-61 -23 -145 -31q-10 -145 -23 -291q-12 -176 -12 -323q0 -6 -16.5 -13.5 t-22.5 -7.5q-18 0 -18 17l2 52q2 52 2 105q0 344 -6 471l-76 11q-53 8 -53 43z" />
<glyph unicode="&#xfb03;" horiz-adv-x="1546" d="M1258 649q0 8 14 8q35 0 106 -16q92 -23 93 -49q0 -43 -19.5 -179.5t-19.5 -201.5q0 -188 -7.5 -199.5t-21.5 -11.5q-27 0 -65 14q-47 16 -48 39v369q0 119 -16 180t-16 47zM1290 1044q0 8 17 9q31 0 90 -9.5t62 -15.5t3 -129q0 -31 -18 -50.5t-33 -19.5q-31 0 -67 15 q-43 16 -45 39q-9 85 -9 161zM662 670q0 18 14 18q2 0 41 -2t67 -2q-2 18 0 59q4 55 5 86q0 158 118 248q86 63 156 64q63 0 63 -39q0 -35 -18 -35q-6 0 -29.5 15.5t-56.5 15.5q-66 0 -89.5 -81t-37.5 -341l21 -4q39 4 51 4q33 0 73.5 3t36.5 3q8 0 9 -8q0 -16 -56 -37 q-61 -23 -145 -31q-10 -145 -23 -291q-12 -176 -12 -323q0 -6 -16.5 -13.5t-22.5 -7.5q-18 0 -18 17l2 52q2 52 2 105q0 344 -6 471l-76 11q-53 8 -53 43zM68 670q0 18 14 18q2 0 41 -2t67 -2q-2 18 0 59q4 55 5 86q0 158 118 248q86 63 156 64q63 0 63 -39q0 -35 -18 -35 q-6 0 -29.5 15.5t-56.5 15.5q-66 0 -89.5 -81t-37.5 -341l21 -4q39 4 51 4q33 0 73.5 3t36.5 3q8 0 9 -8q0 -16 -56 -37q-61 -23 -145 -31q-10 -145 -23 -291q-12 -176 -12 -323q0 -6 -16.5 -13.5t-22.5 -7.5q-18 0 -18 17l2 52q2 52 2 105q0 344 -6 471l-76 11 q-53 8 -53 43z" />
<glyph unicode="&#xfb04;" horiz-adv-x="1515" d="M1249 1120q0 14 19 15q37 0 110 -27q82 -31 82 -53q0 -111 -25.5 -347.5t-25.5 -439.5q0 -102 -2 -172q-2 -49 -4 -79l-2 -29q0 -16 -25 -17q-4 0 -19 -4t-24 -4q-18 0 -18 21l-37 790q-6 137 -18 248q-11 92 -11 98zM662 670q0 18 14 18q2 0 41 -2t67 -2q-2 18 0 59 q4 55 5 86q0 158 118 248q86 63 156 64q63 0 63 -39q0 -35 -18 -35q-6 0 -29.5 15.5t-56.5 15.5q-66 0 -89.5 -81t-37.5 -341l21 -4q39 4 51 4q33 0 73.5 3t36.5 3q8 0 9 -8q0 -16 -56 -37q-61 -23 -145 -31q-10 -145 -23 -291q-12 -176 -12 -323q0 -6 -16.5 -13.5 t-22.5 -7.5q-18 0 -18 17l2 52q2 52 2 105q0 344 -6 471l-76 11q-53 8 -53 43zM68 670q0 18 14 18q2 0 41 -2t67 -2q-2 18 0 59q4 55 5 86q0 158 118 248q86 63 156 64q63 0 63 -39q0 -35 -18 -35q-6 0 -29.5 15.5t-56.5 15.5q-66 0 -89.5 -81t-37.5 -341l21 -4q39 4 51 4 q33 0 73.5 3t36.5 3q8 0 9 -8q0 -16 -56 -37q-61 -23 -145 -31q-10 -145 -23 -291q-12 -176 -12 -323q0 -6 -16.5 -13.5t-22.5 -7.5q-18 0 -18 17l2 52q2 52 2 105q0 344 -6 471l-76 11q-53 8 -53 43z" />
</font>
</defs>
</svg>
