<?xml version="1.0" standalone="no"?>
<!DOCTYPE svg PUBLIC "-//W3C//DTD SVG 1.1//EN" "http://www.w3.org/Graphics/SVG/1.1/DTD/svg11.dtd" >
<svg xmlns="http://www.w3.org/2000/svg">
<metadata></metadata>
<defs>
<font id="tiennebold" horiz-adv-x="1291" >
<font-face units-per-em="2048" ascent="1638" descent="-410" />
<missing-glyph horiz-adv-x="532" />
<glyph horiz-adv-x="2048" />
<glyph horiz-adv-x="2048" />
<glyph unicode="&#xd;" horiz-adv-x="856" />
<glyph horiz-adv-x="0" />
<glyph unicode="&#x9;" horiz-adv-x="0" />
<glyph unicode=" "  horiz-adv-x="532" />
<glyph unicode="&#x09;" horiz-adv-x="532" />
<glyph unicode="&#xa0;" horiz-adv-x="532" />
<glyph unicode="!" horiz-adv-x="786" d="M399 -22q-40 0 -71.5 12.5t-53 34.5t-33 51.5t-11.5 64.5q0 34 12 63.5t34 51.5t53 35t70 13t70.5 -13t53 -35.5t33.5 -52t12 -62.5q0 -35 -11.5 -64.5t-33 -51.5t-53 -34.5t-71.5 -12.5zM491 435q-17 -8 -37.5 -12.5t-40.5 -4.5q-35 0 -57 3.5t-35 13.5t-19 27.5 t-8 44.5q-14 152 -27 298.5t-25 301.5q-4 48 -8.5 91t-8.5 77.5t-6.5 58.5t-2.5 36q0 2 0.5 4.5t0.5 4.5q62 56 181 56q37 0 67 -4t51 -15.5t32 -32.5t11 -55v-27t-2 -32l-39 -452q-12 -135 -20 -227t-7 -155z" />
<glyph unicode="&#x22;" horiz-adv-x="922" d="M794 1337q-16 -149 -25.5 -248t-14.5 -150q-20 -9 -41.5 -14.5t-44.5 -5.5q-31 0 -55 16q-28 5 -36 29t-11 53q-10 99 -20 194.5t-16 200.5q26 20 61.5 31t83.5 11q42 0 64.5 -12.5t33.5 -38.5q21 -30 21 -66zM390 1337q-16 -149 -25.5 -248t-14.5 -150q-20 -11 -42 -17 t-48 -6q-51 0 -72.5 29t-25.5 72q-11 99 -20.5 194.5t-14.5 200.5q25 20 60.5 31t83.5 11q42 0 65 -12.5t34 -38.5q10 -16 15 -31t5 -35z" />
<glyph unicode="#" horiz-adv-x="1216" d="M508 841l-54 -256h255l54 256h-255zM1023 442h-189l-76 -369h-57q-39 0 -59.5 9t-25.5 36q2 22 9.5 57.5t15.5 72.5l39 194h-255l-76 -369h-67q-33 0 -54 5.5t-21 28.5q0 14 6 44.5t14 75.5l46 215h-203v56q0 24 2.5 41t10.5 27t23.5 14.5t41.5 4.5h152l53 256h-209v76 q0 22 4 35.5t13.5 21t24.5 9.5t36 2h161l76 363h58q39 0 60.5 -8t26.5 -34q-3 -14 -5.5 -31t-6.5 -37l-53 -253h252l77 363h56q40 0 62.5 -6.5t22.5 -34.5q-2 -12 -3.5 -29.5t-6.5 -42.5l-54 -250h200v-55q0 -23 -1.5 -40t-9 -28t-23.5 -16t-44 -5h-150l-55 -256h211v-75 q0 -34 -11.5 -48.5t-38.5 -19.5z" />
<glyph unicode="$" horiz-adv-x="1338" d="M893 333q0 75 -40.5 127t-115.5 96v-431q35 8 64 26.5t49.5 46t31.5 62t11 73.5zM460 1120q-3 -8 -3.5 -15.5t-0.5 -15.5q0 -79 41.5 -130t117.5 -88v421q-71 -12 -108.5 -59t-46.5 -113zM737 1506v-65q71 0 137 -7t121 -21.5t95 -36t60 -49.5q0 -24 -3 -48q1 0 1 -5 t-1 -12.5t-3 -13.5l-51 -179l-193 47q-29 58 -67.5 101.5t-95.5 59.5v-459q88 -37 173.5 -77t152.5 -91t108.5 -117.5t41.5 -155.5q0 -87 -34.5 -158t-97 -123.5t-150.5 -84t-194 -38.5v-146l-35 -40q-29 0 -46.5 4t-26.5 14t-11.5 27t-2.5 44v96q-252 9 -441 128 q-21 13 -34.5 24t-21.5 28q0 44 8 90l73 177l198 -79q40 -101 92.5 -151.5t125.5 -63.5v491q-59 28 -116.5 55t-109.5 55t-96.5 59.5t-77 70.5t-51 87t-18.5 108q0 82 33 148t94 115t147.5 79t194.5 41v102l35 30q43 0 63 -12.5t24 -47.5z" />
<glyph unicode="%" horiz-adv-x="1663" d="M1264 -25q-74 0 -133 26t-100.5 75t-64 119t-22.5 158q0 90 21.5 160.5t63 119t101 74t134.5 25.5t134 -26t100 -74.5t62.5 -119t21.5 -159.5t-22.5 -159t-64.5 -118.5t-100.5 -74.5t-130.5 -26zM1264 630q-79 0 -110.5 -71.5t-31.5 -205.5q0 -65 7 -116t24 -86t45 -53.5 t70 -18.5q40 0 67 20.5t43 57t22.5 87t6.5 109.5q0 67 -7.5 118.5t-24 86.5t-44 53.5t-67.5 18.5zM715 1057q0 -87 -21.5 -156.5t-62 -118.5t-98 -75.5t-129.5 -26.5q-75 0 -135 25.5t-101.5 74.5t-64 119.5t-22.5 159.5q0 93 22.5 163t64.5 117.5t100.5 71.5t130.5 24 q71 0 129.5 -24.5t100 -72.5t64 -118.5t22.5 -162.5zM399 1333q-81 0 -113 -72t-32 -204q0 -66 7.5 -117t24.5 -86t44.5 -53.5t68.5 -18.5q78 0 109.5 72.5t31.5 202.5q0 146 -34.5 211t-106.5 65zM1332 1373l-860 -1407l-67 27q-25 10 -42 20t-31 19q211 358 429.5 711 t434.5 707q27 -11 53 -21t36 -26q12 -8 24 -15t23 -15z" />
<glyph unicode="&#x26;" horiz-adv-x="1515" d="M674 812h765v-304q-24 0 -47.5 0.5t-46.5 0.5q-8 50 -22 81t-35.5 48.5t-53 23.5t-74.5 6q4 -59 8.5 -123.5t4.5 -127.5q0 -219 -130 -333t-395 -114q-137 0 -242 24t-176.5 74t-108 126.5t-36.5 180.5q0 63 18.5 119.5t56.5 104.5t94.5 84.5t133.5 58.5v3 q-127 35 -195.5 113t-68.5 198q0 83 33.5 149.5t100.5 113t167.5 71.5t234.5 25q117 0 228.5 -22.5t213.5 -53.5l-12 -316h-185q-32 129 -87.5 193t-156.5 64q-58 0 -102.5 -18t-75 -48t-46 -70.5t-15.5 -85.5q0 -54 15 -99t45.5 -78t78 -51t113.5 -18zM900 668h-254 q-56 0 -101.5 -19.5t-77.5 -57.5t-50 -93t-18 -127q0 -58 15 -105t47 -80t83 -51t123 -18q62 0 107.5 21.5t75 61.5t44 96.5t14.5 126.5q1 42 -0.5 78t-3.5 71z" />
<glyph unicode="'" horiz-adv-x="519" d="M390 1337q-15 -149 -25 -248t-15 -150q-20 -10 -42 -16.5t-48 -6.5t-43.5 8t-28.5 21.5t-17 32t-9 39.5q-11 98 -20.5 192t-14.5 195q17 24 56 37t88 13q79 0 99 -51q9 -14 14.5 -28t5.5 -31v-7z" />
<glyph unicode="(" horiz-adv-x="675" d="M117 656q0 114 19 226.5t54.5 217.5t85.5 200t112 175q23 14 47.5 25t64.5 11q35 0 49 -7q0 -3 -1 -4l61 -26q-104 -171 -154 -378.5t-50 -439.5q0 -233 50 -442t154 -380q-23 -12 -43 -19t-38 -7q-20 0 -38 9q4 1 7 1.5t6 0.5q-7 -5 -41 -5q-57 28 -104.5 79t-86 118 t-67.5 146t-48.5 163t-29 170t-9.5 166z" />
<glyph unicode=")" horiz-adv-x="675" d="M558 662q0 -131 -23.5 -259t-64.5 -239.5t-96 -200t-117 -141.5q-23 -15 -48.5 -19t-46.5 -4q-24 0 -32 4q2 -1 4 -1t3 1l-71 31q49 82 87 177.5t63.5 200.5t38.5 217.5t13 228.5q0 236 -50 443t-152 373l61 27q11 5 29 6.5t38 1.5q29 0 47.5 -10t40.5 -32 q60 -69 112 -159.5t85 -184.5h-1q80 -225 80 -461z" />
<glyph unicode="*" horiz-adv-x="918" d="M456 665q-36 6 -64 15t-48.5 18t-35 16t-24.5 10q18 39 32.5 72.5t27.5 65t25 64t24 68.5l-268 -135q-12 38 -26 77.5t-21 77.5q17 6 37 11.5t42 10.5l212 44l-253 179q31 30 62 62t63 51q14 -16 27.5 -31.5t24.5 -31.5l136 -170l30 301l173 -41q-6 -17 -19.5 -49.5 t-30 -71.5t-33 -79t-29.5 -73l270 126l32 -92q7 -30 12 -56q-12 -6 -27 -11t-32 -8l-227 -44l247 -203l-80 -70q-14 -12 -26.5 -20t-25.5 -16q-14 14 -26.5 31t-25.5 36l-128 183z" />
<glyph unicode="+" horiz-adv-x="1269" d="M730 1031v-357h406v-78q-2 -28 -8 -45t-18.5 -26.5t-33.5 -12.5t-51 -3h-295v-420h-70q-36 0 -59.5 3t-37.5 13t-20 29.5t-6 52.5v322h-404v79q0 29 8 46t23 26t36 11.5t47 2.5h60h230v418h47q65 0 99 -11t47 -50z" />
<glyph unicode="," horiz-adv-x="578" d="M151 -345q-27 11 -43 29t-32 41q48 56 82.5 129t50.5 160q-50 7 -81.5 41t-31.5 85q1 42 16.5 72.5t39.5 50t54.5 29t62.5 9.5q94 0 137 -45t43 -123q0 -147 -79 -263.5t-219 -214.5z" />
<glyph unicode="-" horiz-adv-x="765" d="M653 496h-602v80q0 24 5.5 38.5t17.5 22t29.5 10t41.5 2.5h569v-63q0 -38 -15 -61.5t-46 -28.5z" />
<glyph unicode="." horiz-adv-x="642" d="M322 -28q-40 0 -71.5 12.5t-53 34.5t-32.5 52t-11 64t11.5 64t33.5 52t52.5 35t69.5 13q38 0 69 -13.5t52.5 -36t33 -52t11.5 -62.5q0 -34 -11 -63.5t-32 -51.5t-51.5 -35t-70.5 -13z" />
<glyph unicode="/" horiz-adv-x="878" d="M664 1426q24 22 55 30.5t64 8.5q23 0 47.5 -3.5t47.5 -8.5q-11 -26 -21.5 -51.5t-21.5 -51.5l-584 -1319q-27 -62 -59 -115q-19 -8 -49 -8h-60q-55 0 -83 15l43 101q156 352 310 701t311 701z" />
<glyph unicode="0" horiz-adv-x="1315" d="M657 -30q-141 0 -248.5 51.5t-180 147t-110 232t-37.5 306.5q0 172 37.5 307.5t110.5 229.5t180.5 143t247.5 49q141 0 249 -49.5t181 -143.5t110 -229.5t37 -306.5q0 -172 -38.5 -308.5t-112 -232t-181 -146t-245.5 -50.5zM914 707q0 284 -60 429.5t-197 145.5 q-65 0 -113 -33.5t-80 -104t-47.5 -179t-15.5 -258.5q0 -296 62.5 -439t193.5 -143q135 0 196 148.5t61 433.5z" />
<glyph unicode="1" horiz-adv-x="993" d="M657 1364v-1109q0 -35 2 -61t7 -47q20 -3 40.5 -4t43.5 -1h107v-157q-98 8 -184 11.5t-164 3.5q-86 0 -176 -4t-190 -11v157h105q23 0 44 0.5t40 4.5q5 18 8 44.5t3 62.5v883v54.5t-2 51.5q-17 8 -35 11.5t-42 3.5q-14 0 -30 -3l-104 -9l-9 104q52 15 106 29t108 25 t106.5 18t99.5 7q49 0 80 -12.5t36 -52.5z" />
<glyph unicode="2" horiz-adv-x="1276" d="M617 1292q-47 0 -93.5 -19.5t-86.5 -56t-70.5 -89t-44.5 -119.5l-212 151q6 64 49 115.5t111.5 87.5t157.5 55t188 19q114 0 205 -25.5t155 -76t98.5 -125t34.5 -172.5q0 -54 -14 -108.5t-46.5 -112.5t-85.5 -123t-130 -140t-181 -162.5t-239 -191.5h143h106t83 -0.5 t74 -0.5q24 9 52 23t57 37.5t56.5 59t50.5 88.5q32 -2 61.5 -7t56.5 -7q-1 -112 -3.5 -203t-9.5 -169q-30 -6 -65 -10t-79.5 -6.5t-100.5 -3t-127 -0.5h-565q-29 0 -49.5 4.5t-33.5 14.5t-19.5 26t-9.5 40q0 16 2.5 34t6.5 39q84 81 158.5 153t141.5 137.5t126.5 126 t114.5 117.5q43 48 75 92.5t52 89t30 90t10 96.5q0 112 -48 172t-143 60z" />
<glyph unicode="3" horiz-adv-x="1223" d="M806 1086q0 49 -18 85.5t-49 61t-71.5 37t-85.5 12.5q-48 0 -96 -16t-88.5 -47.5t-70.5 -78.5t-43 -108l-191 137q24 67 69.5 117t107.5 83t139 49.5t165 16.5q97 0 186 -21.5t157 -66t108.5 -111.5t40.5 -157q0 -60 -23.5 -112t-67 -93.5t-105.5 -72t-140 -47.5 q91 -12 163 -42t121.5 -77.5t75.5 -112.5t26 -147q0 -95 -38 -171t-107 -129t-166.5 -81.5t-216.5 -28.5q-75 0 -145.5 12t-133 33.5t-113.5 50.5t-87 64q1 27 2 56t3 62.5t5.5 74.5t9.5 92l155 -19q7 -77 33 -129.5t63.5 -84.5t84 -46.5t95.5 -14.5q61 0 108.5 20t80 55.5 t49.5 85t17 108.5q0 140 -93 205.5t-263 65.5h-94q1 35 2.5 72t7.5 66l84 5q55 3 116 23.5t112.5 57t85 88.5t33.5 118z" />
<glyph unicode="4" horiz-adv-x="1244" d="M219 516h425v547v69l-394 -566zM942 368v-114q0 -35 2 -61t7 -47q20 -3 40.5 -4t43.5 -1h107v-156q-94 8 -176.5 11.5t-157.5 3.5q-81 0 -170.5 -4t-193.5 -11v156h105q23 0 44 0.5t40 4.5q11 38 11 107v115h-549q-32 45 -48 84t-16 80q12 23 26 43t30 43 q110 159 196.5 283.5t154 220.5t118.5 167t90 124h130h51q29 0 50.5 -3t36 -12.5t21.5 -26.5t7 -45v-810h268v-70q0 -28 -8.5 -44t-25.5 -23.5t-42.5 -9t-59.5 -1.5h-132z" />
<glyph unicode="5" horiz-adv-x="1236" d="M437 1253l-4 -405q65 27 123 38.5t117 11.5q97 0 178 -32.5t140 -91t92 -139t33 -177.5q0 -120 -40.5 -211.5t-112.5 -153t-170 -92.5t-213 -31q-73 0 -137 9t-119.5 25t-103 36.5t-86.5 43.5l-5 334l171 -16q9 -54 19.5 -110.5t22.5 -117.5q49 -22 97 -35.5t109 -13.5 q70 0 119.5 24t81.5 66.5t47 99.5t15 123q0 67 -14.5 121.5t-46 92t-80.5 58t-117 20.5q-59 0 -120.5 -17.5t-125.5 -64.5q-22 6 -53.5 13.5t-90.5 18.5q2 170 3 337t3 337q19 22 46 34t59.5 17.5t69 6.5t75.5 1q86 0 161.5 -0.5t147.5 2t145 8.5t154 19l8 -149 q-15 -20 -37 -33.5t-52.5 -21.5t-70 -11.5t-90.5 -3.5q-78 0 -163 7t-185 23z" />
<glyph unicode="6" horiz-adv-x="1257" d="M422 756q80 62 160.5 91.5t168.5 29.5q94 0 172 -31t133.5 -89t86 -139.5t30.5 -183.5t-38 -187.5t-107.5 -147t-167.5 -95.5t-218 -34q-268 0 -400.5 165t-132.5 506q0 388 149.5 591.5t460.5 203.5q57 0 112 -5t104.5 -15t89.5 -24t67 -33l-7 -341h-174l-32 228 q-54 19 -97 27.5t-78 8.5q-67 0 -117 -30t-83.5 -83.5t-51.5 -126t-21 -156.5q-3 -29 -5 -60.5t-4 -69.5zM427 497q0 -86 14.5 -156t43 -120t70.5 -77.5t97 -27.5q47 0 86.5 20.5t67.5 60.5t43.5 98.5t15.5 135.5q0 64 -10.5 116.5t-32.5 90.5t-56 59t-80 23 q-17 0 -38.5 -9.5t-45.5 -23.5q-31 -6 -62 -26.5t-55.5 -47.5t-40.5 -58t-17 -58z" />
<glyph unicode="7" horiz-adv-x="1236" d="M151 1001l-50 364q61 17 121 27t124.5 14.5t136 5.5t155.5 1h488q17 -24 21.5 -62t4.5 -102l-451 -1062q-23 -49 -45 -86t-49 -62t-62 -37.5t-83 -12.5q-57 0 -92 11t-54 39l7.5 20t11.5 26l562 1168h-404q-45 0 -85 -3.5t-75 -11.5q-4 -26 -6 -47.5t-4 -40.5l-10 -149 h-162z" />
<glyph unicode="8" horiz-adv-x="1207" d="M788 1069q0 49 -13.5 88.5t-39 67.5t-62 43t-81.5 15q-92 0 -143 -57t-51 -157q0 -96 61 -162t169 -104q160 64 160 266zM583 626q-11 4 -22.5 8.5t-22.5 8.5q-80 -45 -122.5 -116.5t-42.5 -167.5q0 -56 16 -99.5t44.5 -73.5t69 -45.5t89.5 -15.5q57 0 99.5 17t71 47 t42.5 70t14 85q0 102 -62.5 173t-173.5 109zM1081 1078q0 -55 -18.5 -102t-51.5 -89t-79 -81t-101 -79q56 -24 109.5 -57.5t95 -78t67 -99.5t25.5 -122q0 -105 -41.5 -180.5t-114 -124.5t-170.5 -72t-210 -23q-108 0 -202 23.5t-163.5 69t-109 112.5t-39.5 153q0 122 66 222 t213 172q-125 63 -191.5 148t-66.5 211q0 82 37.5 147.5t103.5 111.5t156.5 71t195.5 25q100 0 189 -23.5t155.5 -69t105.5 -112.5t39 -153z" />
<glyph unicode="9" horiz-adv-x="1256" d="M835 650q-81 -58 -161 -87.5t-167 -29.5q-94 0 -171 31.5t-132 89.5t-85 140t-30 183t37.5 185.5t106.5 145t166 94.5t216 34q268 0 400 -161.5t132 -493.5q0 -198 -35 -349.5t-107.5 -254t-182.5 -155t-260 -52.5q-60 0 -119 6t-111.5 17.5t-95 29t-69.5 40.5v336h177 l38 -239q97 -35 171 -35q66 0 115.5 30.5t83.5 84t52 126.5t22 158q4 28 5.5 58.5t3.5 67.5zM830 894q0 189 -54.5 288.5t-171.5 99.5q-46 0 -84 -20t-65.5 -58t-42.5 -94.5t-15 -129.5q0 -62 9.5 -115t30 -91.5t52.5 -60t76 -21.5q21 0 52.5 4.5t63.5 14.5t59 25.5t39 38.5 q23 26 36 59.5t15 59.5z" />
<glyph unicode=":" horiz-adv-x="648" d="M157 870q0 36 12.5 66t35.5 51t54 32.5t69 11.5q37 0 67.5 -12.5t52.5 -34t34 -50t12 -60.5q0 -41 -12.5 -72t-34.5 -52.5t-52 -32.5t-65 -11q-85 0 -129 45t-44 119zM323 298q36 0 67 -13.5t53 -36t34.5 -52.5t12.5 -63q0 -40 -13 -70t-35 -50.5t-52 -30.5t-63 -10 q-42 0 -74 12t-54 33.5t-33 51t-11 63.5q0 40 12.5 71t35 52t53.5 32t67 11z" />
<glyph unicode=";" horiz-adv-x="575" d="M76 -327q5 13 10.5 26t10.5 27q33 41 58.5 92.5t43.5 108.5q0 5 -1 9q3 11 6 21t5 21q-37 7 -61 31t-29 62q-8 10 -13.5 23.5t-5.5 31.5q0 31 14.5 56.5t38 44t54 28.5t63.5 10q48 0 82 -12.5t55.5 -36t31 -56t9.5 -72.5q0 -69 -20.5 -133.5t-58.5 -124t-92 -112.5 t-121 -98q-12 9 -23 14.5t-21 11t-19 12t-17 15.5zM256 1029q10 2 19 2q37 0 67.5 -12.5t52.5 -34t34.5 -50t12.5 -60.5q0 -41 -12.5 -72t-34.5 -52.5t-52.5 -32.5t-65.5 -11q-85 0 -128.5 45t-43.5 119q0 69 41 111.5t110 47.5z" />
<glyph unicode="&#x3c;" horiz-adv-x="1444" d="M160 626l853 391l106 45q56 23 104 40q30 -24 44.5 -39t21.5 -29.5t10.5 -32t11.5 -45.5l-869 -397v-2l375 -171q141 -65 263.5 -121t229.5 -103q-8 -29 -11 -46.5t-9.5 -32t-21.5 -30t-46 -40.5q-35 12 -66.5 25t-59.5 26q-187 85 -426 193.5t-537 245.5v59q0 10 41 28 q-8 -3 -15.5 -5.5t-15.5 -5.5v13q0 9 3 18t14 16z" />
<glyph unicode="=" horiz-adv-x="1347" d="M1131 317h-1000v78q0 30 6 47t21 25.5t40 11t63 2.5h955v-76q0 -35 -20 -54.5t-65 -33.5zM1132 700h-1001v79q0 31 9 48.5t25.5 26t40 10.5t51.5 2h959v-78q0 -38 -23 -57t-61 -31z" />
<glyph unicode="&#x3e;" horiz-adv-x="1443" d="M961 546l-828 378l11 39q26 57 68 67q12 7 35 20.5t57 33.5l1038 -474l19 -31q4 -6 7.5 -15.5t3.5 -15.5v-54l-969 -442h3q-21 -10 -143 -48q-107 72 -113 96l-16 65zM1342 610q-3 3 -4 7z" />
<glyph unicode="?" horiz-adv-x="1055" d="M623 383q-23 -3 -39.5 -4.5t-31.5 -2.5t-31.5 -1.5t-40.5 -0.5q-25 14 -53 35t-51 47t-38.5 55.5t-15.5 60.5q0 39 16 72.5t40 62.5t52.5 55.5t52.5 50.5q35 35 62 68.5t45.5 68t28 70.5t9.5 77q0 45 -12 79t-33 57.5t-49.5 35.5t-61.5 12q-43 0 -91 -8t-108 -24 q-1 -20 -2 -42q-1 -19 -1.5 -44t-0.5 -51h-168v249q62 20 129 37q57 14 126 26t138 12q101 0 186 -22.5t146.5 -67t96 -109.5t34.5 -149q0 -60 -22.5 -111.5t-61.5 -99t-91 -94t-111 -95.5q-14 -11 -24 -24t-17.5 -32.5t-11 -47t-3.5 -67.5q0 -32 1.5 -67.5t6.5 -66.5z M500 258q36 0 64 -13.5t47.5 -35.5t29.5 -50t10 -56q0 -26 -8.5 -50.5t-26.5 -43t-46 -30t-66 -11.5q-41 0 -71 12.5t-49.5 32.5t-29 45.5t-9.5 52.5t10 53.5t29.5 47.5t48.5 33.5t67 12.5z" />
<glyph unicode="@" horiz-adv-x="1822" d="M746 532q0 -41 9.5 -76t27 -60.5t43 -40.5t57.5 -15q48 0 85 26.5t64.5 70.5t47.5 101.5t33.5 119.5t23.5 124.5t17 116.5q-8 42 -35 66.5t-76 24.5q-35 0 -70.5 -17t-68.5 -48t-61.5 -73.5t-50 -93.5t-34 -108.5t-12.5 -117.5zM1491 90l45 -85q-130 -84 -274 -129 t-290 -45q-191 0 -348 63t-269 172t-174 253.5t-62 308.5q0 121 30.5 230t87 201.5t135 166.5t174.5 126t206.5 80t230.5 28q162 0 298.5 -50.5t235.5 -142t154.5 -220t55.5 -284.5q0 -72 -14.5 -140t-41.5 -128.5t-64.5 -111t-83.5 -87t-98.5 -57t-108.5 -20.5 q-45 0 -81 12t-63.5 34t-47 52t-31.5 65q-23 -32 -55 -52.5t-74 -20.5q-22 -40 -57 -65t-82 -25q-59 0 -109.5 20.5t-87.5 60t-58 98t-21 134.5q0 121 39.5 224t106.5 178t155.5 117.5t187.5 42.5q49 0 87.5 -16.5t64.5 -51.5l17 70q57 -6 93.5 -24t57.5 -44 q-11 -42 -21.5 -87t-23 -100t-27.5 -124t-35 -158q-7 -30 -10 -55t-3 -53q0 -60 23 -88.5t76 -28.5q47 0 93.5 34t83.5 92.5t60 137.5t23 170q0 121 -44.5 226t-125.5 182t-194.5 121t-251.5 44q-136 0 -257.5 -49.5t-213 -142.5t-145 -226.5t-53.5 -301.5q0 -152 52 -276.5 t143 -213.5t214 -138t266 -49q266 0 504 146z" />
<glyph unicode="A" horiz-adv-x="1623" d="M875 1411q54 -27 95 -61t61 -87q64 -173 118.5 -318t100 -268t83.5 -225t71 -189q11 -30 19 -50.5t14 -34.5t10.5 -22.5t8.5 -14.5q10 -2 21 -4t27 -3.5t38 -3t54 -3.5l27 -140q-106 9 -185 11t-131 2q-19 0 -51.5 -0.5t-73.5 -2t-87.5 -4t-93.5 -6.5l-10 133q19 0 37 2 t32.5 5t23.5 8.5t9 13.5q-5 30 -14.5 63.5t-22.5 68.5l-46 126h-461l-38 -121q-14 -42 -21 -72t-7 -55q0 -12 12 -19t28.5 -10.5t35 -5t32.5 -2.5l-17 -135q-55 8 -119 10.5t-138 2.5q-98 0 -173.5 -2.5t-139.5 -10.5l33 137l37 2q34 0 57.5 9t39.5 25.5t27.5 40t22.5 52.5 q43 117 98.5 260t115.5 297t122 310t118 299h107q31 0 52 -2t41 -6zM781 1144h-7l-193 -610h389q-21 67 -44.5 142.5t-47.5 154.5t-48.5 158.5t-48.5 154.5z" />
<glyph unicode="B" horiz-adv-x="1484" d="M287 267v857q0 78 -12 126q-21 1 -43.5 1.5t-46.5 0.5q-29 0 -58.5 -0.5t-58.5 -1.5v139q157 16 334 24t386 8q561 0 561 -382q0 -52 -19 -101t-54.5 -90.5t-86.5 -72.5t-115 -48q310 -63 310 -339q0 -94 -29.5 -159.5t-82 -109t-124 -68.5t-156 -37.5t-178 -15.5 t-188.5 -3q-146 0 -279.5 1.5t-261.5 1.5v148h80q24 0 46 0.5t42 3.5q23 11 28.5 43t5.5 74zM1028 1033q0 119 -66.5 178t-217.5 59q-35 0 -58.5 -0.5t-39 -1.5t-24 -2t-13.5 -1v-476l46 -2t47 -1q75 0 135.5 14.5t103 45t65 77t22.5 110.5zM609 644v-498q97 -3 185 -3 q137 0 200.5 62t63.5 176q0 79 -23 130.5t-71 81.5t-121.5 41.5t-174.5 11.5q-16 0 -31 -0.5t-28 -1.5z" />
<glyph unicode="C" horiz-adv-x="1446" d="M1351 263l19 -167q-111 -65 -241.5 -98.5t-286.5 -33.5q-163 0 -297 45.5t-229.5 135t-148 222t-52.5 306.5q0 184 50.5 326.5t146.5 239.5t235.5 147t317.5 50q73 0 142 -9t131.5 -25t115.5 -37.5t94 -45.5l-23 -310h-190q-12 51 -33.5 101t-54.5 89.5t-79 64.5t-107 25 q-103 0 -178.5 -40.5t-125.5 -115.5t-74.5 -181t-24.5 -237q0 -294 106 -441t299 -147q65 0 126 10t121 28t119.5 43t121.5 55z" />
<glyph unicode="D" horiz-adv-x="1663" d="M599 1262v-1114q10 -2 19.5 -2h19.5q149 0 256.5 28t176.5 93.5t102 172t33 263.5q0 145 -23 251t-74.5 175t-135.5 102.5t-205 33.5q-40 0 -81.5 -1.5t-87.5 -1.5zM594 0q-131 0 -258 -2.5t-257 -4.5v146l76 1q24 0 47 1.5t45 6.5q22 13 28 44t6 75v853q0 40 -3.5 71.5 t-8.5 57.5q-23 4 -48.5 4.5t-52.5 0.5h-100v138q153 14 333 21.5t399 7.5q171 0 309 -37.5t235.5 -123t150.5 -223.5t53 -340q0 -147 -32.5 -255.5t-92 -186t-145 -127t-191.5 -78t-230.5 -39.5t-262.5 -11z" />
<glyph unicode="E" horiz-adv-x="1409" d="M664 1413h603l25 -129q9 -49 17 -97t13 -80l-184 -17q-6 36 -13.5 72t-21.5 73q-49 13 -106 18.5t-130 5.5h-42.5t-54.5 -0.5t-72 -1.5t-95 -2v-467h232q32 0 51.5 5t32 18.5t21 37.5t18.5 61h100q0 -100 -2 -199.5t-5 -193.5q-9 -1 -18 -1h-18q-17 0 -34.5 0.5 t-34.5 0.5q-11 40 -20.5 66t-21 41t-25.5 20.5t-33 5.5h-243v-504h371q47 0 82.5 6.5t52.5 17.5q8 22 15 63t15 110q44 -1 92.5 -1.5t101.5 -0.5l-3 -127q-2 -50 -4.5 -101.5t-5.5 -94.5q-44 -7 -87.5 -12t-91.5 -8t-101.5 -4.5t-116.5 -1.5q-77 0 -145 1t-131 2.5t-121.5 3 t-115.5 1.5q-94 0 -174.5 -1t-161.5 -6v153h112q24 0 45.5 0.5t41.5 3.5q5 20 8 44.5t3 56.5v893q0 34 -3.5 59t-8.5 45q-19 4 -40 4.5t-45 0.5h-119v133q140 15 290.5 21t305.5 6z" />
<glyph unicode="F" horiz-adv-x="1329" d="M593 1255v-464h218q34 0 54 5t33 18t21.5 36.5t19.5 59.5h99q0 -100 -1.5 -199.5t-4.5 -193.5q-5 0 -10.5 -0.5t-11.5 -0.5q-13 0 -32 0.5t-51 0.5q-11 40 -21 65t-21.5 39.5t-25.5 20t-33 5.5h-233v-388q0 -35 2.5 -61.5t7.5 -47.5q18 -3 37.5 -3.5t41.5 -0.5h97v-159 q-96 5 -179 9t-161 4q-85 0 -173 -4t-188 -9v159h103q23 0 43 0.5t39 3.5q5 18 8 44.5t3 62.5q0 223 -0.5 444.5t-0.5 444.5q0 33 -2.5 59t-7.5 43q-19 4 -38.5 4.5t-42.5 0.5h-114v134q89 8 168.5 13t160 7.5t167.5 4t190.5 1.5h228.5h282l21 -133q8 -51 14.5 -100t9.5 -83 l-183 -12q-2 24 -12 64t-27 90q-25 7 -48.5 11t-48 6t-52.5 2.5t-62 0.5h-47.5t-59 -0.5t-77 -1.5t-100.5 -2z" />
<glyph unicode="G" horiz-adv-x="1495" d="M929 1436q70 0 139 -10t130 -26t110 -36.5t79 -42.5l-25 -316q-47 0 -92.5 0.5t-92.5 0.5q-17 69 -40.5 122.5t-57.5 89.5t-80.5 54.5t-109.5 18.5q-108 0 -189 -39.5t-135 -116t-81 -187.5t-27 -254q0 -123 26.5 -225.5t78 -177t129 -115.5t179.5 -41q138 0 230 38v221 q0 35 -2.5 63.5t-8.5 48.5q-24 5 -51 6.5t-56 1.5h-112v123q45 5 96 8.5t111.5 6t131.5 4t157 1.5q12 0 24 -0.5t26 -0.5l-2 -93q-2 -30 -2 -59.5v-51.5v-334q-106 -69 -242 -108.5t-302 -39.5q-165 0 -303.5 43.5t-238 131.5t-155.5 220t-56 308q0 195 57.5 338.5t164 238 t256.5 140.5t336 46z" />
<glyph unicode="H" horiz-adv-x="1733" d="M1148 257v394h-563v-392q0 -35 2.5 -61.5t7.5 -47.5q19 -3 38 -3.5t41 -0.5h97v-159q-91 8 -170.5 10.5t-153.5 2.5q-89 0 -181.5 -2.5t-195.5 -10.5v159h103q23 0 43 0.5t39 3.5q11 39 11 107l-2 896q0 35 -3 61t-8 46q-18 4 -38.5 4.5t-43.5 0.5h-103v135 q86 10 169.5 14.5t173.5 4.5q109 0 200 -3t160 -13v-138h-99q-21 0 -40.5 -0.5t-38.5 -4.5q-9 -39 -9 -99l1 -353h563l-1 345q-1 35 -3.5 61t-7.5 46q-17 4 -37 4.5t-41 0.5h-98v135q87 10 170.5 14.5t172.5 4.5q110 0 200.5 -3t160.5 -13v-138h-106q-23 0 -43 -0.5 t-39 -4.5q-5 -20 -7.5 -46t-2.5 -61l1 -894q0 -35 2.5 -61.5t7.5 -47.5q19 -3 39 -3.5t43 -0.5h104v-159q-86 8 -161 10.5t-145 2.5h-65q-77 0 -158 -2.5t-172 -10.5v159h96q22 0 42 0.5t37 3.5q6 18 8.5 44.5t2.5 62.5z" />
<glyph unicode="I" horiz-adv-x="857" d="M68 -13v159h106q23 0 43.5 0.5t40.5 3.5q11 39 11 107v865q0 50 -2 82t-9 56q-19 4 -39.5 4.5t-43.5 0.5h-107v135q88 10 173.5 14.5t176.5 4.5q114 0 206.5 -3t164.5 -13v-138h-107q-23 0 -43.5 -0.5t-40.5 -4.5q-5 -20 -7.5 -44.5t-2.5 -59.5v-897q0 -35 2.5 -61.5 t7.5 -47.5q20 -3 40.5 -3.5t43.5 -0.5h106v-159q-94 8 -177 10.5t-158 2.5q-91 0 -185 -2.5t-200 -10.5z" />
<glyph unicode="J" horiz-adv-x="986" d="M790 1153v-812q0 -121 -28 -213t-81 -154.5t-130 -94t-175 -31.5q-39 0 -86 4t-94 12t-89.5 20t-72.5 28q-1 11 2 54t10 128l12 159l190 -3q3 -35 7.5 -71.5t9 -69.5t8 -59.5t4.5 -40.5q3 -1 12.5 -3t21.5 -4.5t26 -4t27 -1.5q36 0 58.5 13t35.5 36t18 55t5 71 q0 52 -5.5 110t-5.5 124v749q0 68 -11 106q-22 5 -47 5.5t-52 0.5h-91v135q104 11 200.5 14.5t196.5 3.5q97 0 178.5 -3.5t146.5 -11.5v-138h-93q-26 0 -51 -0.5t-47 -5.5q-10 -36 -10 -107z" />
<glyph unicode="K" horiz-adv-x="1644" d="M935 800l385 -497q17 -22 28.5 -38t24.5 -32t31 -35.5t48 -47.5q20 -3 40.5 -3.5t42.5 -0.5h67l36 -159q-79 6 -142 9.5t-114 3.5h-57q-100 0 -199 -2.5t-205 -10.5l-5 159h28q20 0 37.5 0.5t31.5 3.5q-9 23 -21.5 46t-39.5 61l-282 395q-11 12 -18 24t-14 23l-21 32 l26 30q6 9 19 22l325 342q45 48 76.5 83.5t33.5 51.5q-20 4 -42 4.5t-47 0.5h-74l1 135q109 11 206 15t195 4q94 0 168 -4t129 -12l-46 -138h-85q-27 0 -50.5 -0.5t-49.5 -4.5q-22 -18 -50 -44t-65 -63l-255 -255l-27 -27t-27.5 -27t-24.5 -24.5t-18 -19.5zM588 1153v-896 q0 -33 3 -59.5t8 -47.5q19 -3 40 -3.5t44 -0.5h106v-159q-97 8 -184 10.5t-170 2.5q-86 0 -176 -2.5t-190 -10.5v159h106q23 0 43.5 0.5t39.5 3.5q6 18 8.5 44.5t2.5 62.5v896q0 35 -3 61t-8 46q-19 4 -39.5 4.5t-43.5 0.5h-107v135q88 10 173.5 14.5t176.5 4.5 q114 0 206.5 -3t164.5 -13v-138h-107q-23 0 -43.5 -0.5t-40.5 -4.5q-5 -20 -7.5 -46t-2.5 -61z" />
<glyph unicode="L" horiz-adv-x="1286" d="M623 0q-188 0 -318 -2.5t-205 -10.5l-2 159h77q23 0 43.5 0.5t40.5 3.5q5 34 7.5 68.5t2.5 71.5v866q0 33 -3 58.5t-8 45.5q-19 4 -39.5 4.5t-43.5 0.5h-107v135q88 10 173.5 14.5t176.5 4.5q114 0 207.5 -3t165.5 -13v-138h-108q-23 0 -43.5 -0.5t-40.5 -4.5 q-10 -37 -10 -104v-1010h295q55 0 93.5 15.5t66.5 46.5t48 78t37 110l157 -21l-39 -375q-87 -3 -170.5 -5t-166.5 -2q-88 0 -160.5 3.5t-126.5 3.5z" />
<glyph unicode="M" horiz-adv-x="2201" d="M1613 184q0 23 -3.5 78t-9 128t-12 156.5t-13 165t-13 153t-10.5 119.5q-12 -42 -37 -119t-56.5 -171.5t-66.5 -198t-67.5 -199t-60 -173.5t-42.5 -122h-275q-28 77 -61 170.5t-67 191t-67 194t-61.5 179t-50.5 146.5t-33 98q-2 -23 -6 -66.5t-8.5 -100t-9.5 -121.5 t-10 -130.5t-9.5 -127t-8.5 -110.5t-6 -81.5t-3 -39.5v-9q0 -30 9 -39q17 -5 39 -7t50 -2h87l-15 -159q-91 8 -165.5 10.5t-139.5 2.5q-85 0 -168.5 -3t-174.5 -12l20 161h96q26 0 51 0.5t48 3.5q8 23 15.5 49t12.5 57q7 63 15 139.5t16 158.5t15.5 166.5t14.5 163t13.5 148 t11.5 123.5q2 16 1.5 27.5t-0.5 21.5q0 17 -2 30t-4 23q-20 5 -41 6.5t-48 1.5h-119v138q39 4 78 7t80 4.5t86 2.5t95 1q153 0 243 -18q17 -43 39.5 -106t48 -137.5t53 -156t54.5 -161.5t51.5 -154t45 -134t34.5 -101.5t20 -56.5q41 123 80 239t75 220t67 194t56.5 161 t43 120.5t26.5 72.5q23 5 54.5 8.5t66.5 5.5t73 2.5t74 0.5q85 0 158.5 -4t145.5 -10l5 -138h-75q-32 0 -63 -2t-54 -8q0 -4 -0.5 -7.5t-0.5 -7.5q0 -17 1 -36t4 -45q5 -70 12 -150.5t14.5 -165t14.5 -169.5t14 -164t13 -147.5t11 -120.5q2 -30 8 -51t11 -39q26 -4 53.5 -5 t59.5 -1h72l20 -161q-78 8 -156 11.5t-165 3.5q-98 0 -189.5 -2.5t-180.5 -10.5l-1 159h70q41 0 58 7.5t25 30.5z" />
<glyph unicode="N" horiz-adv-x="1708" d="M290 257q0 226 -0.5 448.5t-0.5 447.5q0 70 -10 107q-20 4 -42 4.5t-45 0.5h-124v132q43 4 84.5 8t84.5 7t89 4.5t99 1.5q45 0 88 -3t91 -14q71 -108 147.5 -226t156.5 -242t162 -252.5t163 -257.5q0 49 -0.5 110t-1 128t-1.5 136.5t-1.5 134t-1.5 122t-1 99.5 q0 73 -12 108q-20 3 -41.5 4t-44.5 1h-118v136q63 9 140.5 13t176.5 4q90 0 172 -2.5t152 -11.5v-139h-86q-26 0 -50 -1t-47 -4q-10 -37 -10 -107q-1 -138 -2.5 -285.5t-3.5 -296.5t-4.5 -296t-4.5 -283h-129q-44 0 -83 2.5t-85 13.5l-618 975q1 -61 2 -143t2 -176.5t2 -198 t2 -206.5q0 -30 3 -61.5t7 -48.5q19 -3 40.5 -3.5t44.5 -0.5h111v-160q-94 9 -171.5 11.5t-144.5 2.5q-81 0 -165 -2.5t-181 -11.5v160h112q23 0 45 0.5t42 3.5q11 36 11 107z" />
<glyph unicode="O" horiz-adv-x="1625" d="M1510 702q0 -173 -48.5 -308.5t-139.5 -230t-220 -144t-289 -49.5q-163 0 -292.5 50.5t-220 145t-138.5 230t-48 306.5q0 175 48.5 311.5t139 230.5t220 143t291.5 49t291 -49.5t219.5 -144t138.5 -231t48 -309.5zM456 699q0 -278 89 -426t268 -148q85 0 151 35 t111.5 106.5t69 180t23.5 255.5q0 289 -92 434.5t-263 145.5q-170 0 -263.5 -144.5t-93.5 -438.5z" />
<glyph unicode="P" horiz-adv-x="1393" d="M289 257v901q0 68 -11 104q-17 2 -39.5 2.5t-46.5 0.5h-123v136q131 13 287 18t342 5q144 0 258.5 -19t195.5 -67.5t124.5 -131.5t45.5 -212q0 -101 -35 -180t-107.5 -134t-184 -84t-263.5 -29h-58t-65 2q0 -91 -0.5 -152.5t-0.5 -102v-64t1 -40t3.5 -29.5t7.5 -31 q19 -3 40.5 -3.5t44.5 -0.5h110v-160q-104 9 -189.5 11.5t-160.5 2.5q-88 0 -182.5 -2.5t-203.5 -11.5v160h112q23 0 45 0.5t42 3.5q5 17 8 43t3 64zM704 1265h-96v-551q9 0 18.5 -0.5t20.5 -0.5q99 0 166 16.5t107.5 50.5t58 86t17.5 124q0 75 -17 127.5t-52.5 85t-91 47.5 t-131.5 15z" />
<glyph unicode="Q" horiz-adv-x="1678" d="M455 699q0 -286 89 -430.5t266 -144.5q85 0 151 34.5t111.5 106t69.5 180t24 256.5q0 290 -93 435.5t-263 145.5q-169 0 -262 -145t-93 -438zM1504 739q0 -126 -29 -242.5t-87.5 -213t-147 -167.5t-208.5 -105q21 -19 47 -31t54.5 -19.5t58 -10.5t57.5 -3q58 0 123 11.5 t154 36.5l37 -131q-111 -43 -216.5 -66.5t-208.5 -23.5q-59 0 -115.5 8t-110.5 27t-106.5 50t-102.5 76q-37 14 -72 31.5t-67 39.5q-106 32 -189.5 93t-141.5 149.5t-88.5 203.5t-30.5 256q0 172 48.5 307.5t138.5 229t219 142.5t290 49q156 0 284 -48t219 -138t141 -219 t50 -292z" />
<glyph unicode="R" horiz-adv-x="1544" d="M288 257q0 228 -0.5 453t-0.5 452q0 69 -10 99q-20 4 -42 4h-44h-123v138q66 6 145.5 10t162 6.5t165 3.5t154.5 1q139 0 257 -17.5t203.5 -64t133.5 -126.5t48 -204q0 -66 -22 -121.5t-62.5 -100.5t-98 -79t-128.5 -58q72 -27 123 -71.5t88.5 -106.5t64.5 -141.5 t51 -177.5q10 0 28 0.5t40.5 0.5t47 0.5t46.5 0.5l-8 -173q-42 -4 -94 -8.5t-102 -4.5q-97 0 -160 35.5t-96 114.5q-36 85 -60.5 158t-47.5 132t-48.5 102t-62.5 69q-53 9 -112 8.5t-116 1.5v-334q0 -35 2.5 -61.5t7.5 -47.5q20 -3 42 -3.5t45 -0.5h80v-159 q-88 8 -164.5 10.5t-148.5 2.5q-89 0 -180.5 -2.5t-194.5 -10.5v159h86q26 0 49 0.5t45 3.5q5 18 8 44.5t3 62.5zM703 1265h-95v-531q15 -1 30.5 -1h32.5q88 0 152 14.5t105.5 46.5t61.5 84t20 126q0 73 -17 122.5t-54 80.5t-95.5 44.5t-140.5 13.5z" />
<glyph unicode="S" horiz-adv-x="1278" d="M426 1089q0 -47 16 -82.5t44.5 -63t69 -50t89.5 -41.5q98 -39 193 -81.5t170 -96t121 -122t46 -160.5q0 -99 -40.5 -177.5t-112.5 -132.5t-172 -83t-218 -29q-51 0 -107 5.5t-111.5 16.5t-108 27.5t-97 37.5t-78 47.5t-50.5 57.5q3 29 11 63t18.5 69.5t21 70.5t19.5 67 l224 -61q7 -38 11 -69t9 -56t12 -44.5t21 -34.5q17 -15 43 -24.5t55 -15t58.5 -8t53.5 -2.5q47 0 86.5 17t68 46t44 69t15.5 85q0 62 -25 107.5t-70.5 81.5t-109.5 66.5t-142 62.5q-95 39 -169 80.5t-124.5 90t-77 105.5t-26.5 127q0 84 39 154.5t114 120.5t184 78t250 28 q67 0 125 -9.5t109 -25.5t96.5 -36t87.5 -41q-2 -72 -17 -141.5t-29 -136.5l-174 -1q-5 52 -16 94.5t-45 72.5q-20 17 -48.5 29.5t-59 20.5t-60 11.5t-50.5 3.5q-41 0 -75.5 -12.5t-59 -36.5t-38.5 -59t-14 -80z" />
<glyph unicode="T" horiz-adv-x="1416" d="M1376 1041h-162q0 45 -7 100.5t-20 119.5q-34 -1 -67.5 -1h-71.5h-176v-1001q0 -35 2.5 -61.5t8.5 -47.5q23 -3 47.5 -3.5t50.5 -0.5h92v-159q-94 8 -177 10.5t-160 2.5q-91 0 -185 -2.5t-200 -10.5v159h91q27 0 51.5 0.5t47.5 3.5q5 18 8 44.5t3 62.5q0 253 -0.5 501.5 t-0.5 501.5h-314q-12 -50 -19 -105.5t-8 -113.5h-169q0 28 -1.5 75.5t-3.5 99t-3.5 100.5t-1.5 81q26 11 97 13.5t171 2.5q19 0 51 -0.5t70.5 -1.5t80.5 -1.5t82 -1.5t75 -1.5t59 -0.5q46 0 105.5 1t118 2.5t109 2.5t78.5 1q97 0 164 -2.5t93 -13.5q0 -33 -1.5 -81.5 t-3 -100t-3 -98.5t-1.5 -76z" />
<glyph unicode="U" horiz-adv-x="1659" d="M1425 1153v-638q0 -140 -46.5 -242.5t-128 -169.5t-192 -100t-237.5 -33q-153 0 -264 40.5t-183 118.5t-106.5 192t-34.5 261v571q0 69 -11 107q-23 4 -47.5 4.5t-51.5 0.5h-91v141q80 6 160 9.5t166 3.5q73 0 130.5 -0.5t103.5 -2t82.5 -4.5t66.5 -7v-140h-86 q-25 0 -47.5 -0.5t-43.5 -4.5q-10 -44 -10 -107q0 -162 -0.5 -323t-0.5 -323q0 -93 20.5 -164t58.5 -120t93.5 -74t124.5 -25q82 0 139.5 31t93.5 89.5t52.5 142.5t16.5 190v576q0 69 -11 107q-20 4 -42.5 4.5t-46.5 0.5h-82v141q76 7 156 10t172 3q58 0 106 -0.5t88 -2 t73 -4.5t62 -7v-140h-93q-26 0 -51 -0.5t-47 -4.5q-5 -20 -8 -46t-3 -61z" />
<glyph unicode="V" horiz-adv-x="1687" d="M905 329l281 824q11 31 16 57t8 50q-18 4 -39 4.5t-44 0.5h-67l25 140q88 11 171.5 12t168.5 1q72 0 137.5 -2.5t124.5 -10.5l-24 -140h-55q-29 0 -57 -0.5t-55 -4.5q-10 -17 -21 -42.5t-25 -64.5q-105 -308 -218.5 -604.5t-229.5 -553.5h-146q-69 0 -110 12t-57 52 l-429 1094q-14 36 -28 61.5t-29 45.5q-21 4 -41 4.5t-43 0.5h-96l-23 140q42 4 86 7t93.5 4.5t106 2t122.5 0.5q78 0 146 -3.5t125 -10.5l29 -140h-68q-23 0 -44 -0.5t-39 -4.5q5 -27 15 -52.5t20 -51.5q75 -199 148.5 -396t147.5 -395z" />
<glyph unicode="W" horiz-adv-x="2429" d="M1952 1197q8 16 8 30q0 24 -26.5 31t-63.5 7h-72l19 140q24 3 50 5.5t58.5 4t73.5 2.5t94 1q60 0 107.5 -0.5t86.5 -2t71 -4t62 -6.5l-19 -140h-70q-26 0 -50 -0.5t-47 -4.5q-6 -13 -16 -43.5t-23 -72t-28 -90.5t-29.5 -99.5t-28.5 -97.5t-25 -85q-67 -214 -135.5 -409 t-139.5 -368h-177q-36 0 -60.5 2.5t-41.5 11.5t-28 27.5t-20 50.5l-251 770q-64 -241 -129.5 -454t-138.5 -408h-214q-45 0 -70.5 13.5t-35.5 50.5l-374 1094q-9 24 -16.5 40t-14.5 28t-13 21t-13 18q-24 4 -48 4.5t-50 0.5h-81l-24 140q33 3 67.5 6t75 4.5t90 2.5t112.5 1 q61 0 109.5 -1t88.5 -2.5t73.5 -4.5t63.5 -6l28 -140h-68q-23 0 -43.5 -0.5t-38.5 -4.5q5 -23 14 -48t21 -56l258 -827l9 31t25 85.5t38 128.5t46.5 160.5t50.5 181.5t52 191q11 41 17 80.5t9.5 76t6 68.5t7.5 58h162q34 0 56.5 -12.5t37 -33t24 -47.5t19.5 -57l287 -914 q68 243 122 435q23 82 45 160t39.5 139.5t28 99z" />
<glyph unicode="X" horiz-adv-x="1673" d="M999 254l-224 304l-209 -302q-21 -31 -32 -53.5t-15 -40.5q10 -9 26 -12.5t39 -3.5h88l-21 -159q-88 8 -169 10.5t-156 2.5q-69 0 -143.5 -2.5t-164.5 -10.5q3 40 6 79.5t5 79.5h73q21 0 40 0.5t39 3.5q25 14 50.5 42t59.5 69l355 431l-349 469q-22 29 -39 49t-34 32 t-37.5 17.5t-49.5 5.5h-75l-35 140q67 6 144 10t174 4h78q104 0 178 -3t134 -11l30 -140h-74q-21 0 -36 -2.5t-24 -10.5q2 -18 12.5 -35.5t31.5 -47.5l217 -318l189 274q31 42 48.5 71t24.5 50q-9 11 -25 15t-39 4h-87l39 140q69 7 148 10.5t190 3.5q81 0 147 -3t123 -11 l-34 -140h-85q-20 0 -39.5 -0.5t-39.5 -4.5q-23 -16 -49 -42t-61 -71q-54 -71 -100.5 -130.5t-87.5 -111.5t-76.5 -97.5t-67.5 -86.5l355 -441q30 -37 55 -69.5t54 -53.5q17 -7 35 -9t38 -2h52l11 -159q-93 8 -171.5 10.5t-157.5 2.5q-71 0 -157.5 -2.5t-192.5 -10.5 l-18 159h78q20 0 35.5 2.5t25.5 10.5q-5 17 -17.5 40t-35.5 55z" />
<glyph unicode="Y" horiz-adv-x="1582" d="M1085 1153q14 30 21.5 55.5t12.5 51.5q-16 4 -35 4.5t-41 0.5h-87l29 140q69 8 144.5 11t163.5 3q52 0 94 -1t77 -2.5t64.5 -4t56.5 -6.5l-32 -140h-91q-21 0 -40.5 -0.5t-39.5 -4.5q-17 -23 -23 -30.5t-7.5 -10t-1.5 -3.5t-4 -10.5t-15 -32t-35.5 -66.5t-64.5 -115 t-102 -177l-173 -300v-239q0 -42 2.5 -75.5t7.5 -59.5q20 -3 40.5 -4t43.5 -1h107v-149q-94 8 -177 10.5t-160 2.5q-91 0 -185 -2.5t-199 -10.5v149h106q23 0 43 0.5t40 4.5q10 34 10 96v253q-12 19 -21.5 38t-20.5 38l-349 587q-13 21 -22 38t-16.5 30.5t-14 23t-15.5 15.5 q-20 4 -41.5 4.5t-44.5 0.5h-69l-26 140q72 7 145.5 10.5t152.5 3.5q70 0 127 -0.5t104.5 -2t86.5 -4.5t73 -7l16 -140h-67q-23 0 -44 -0.5t-38 -4.5q8 -32 16.5 -51.5t19.5 -39.5l267 -465q33 59 67 124.5t65.5 126.5t57.5 113t41 85z" />
<glyph unicode="Z" horiz-adv-x="1320" d="M100 1390q130 11 266.5 17t287.5 6h439q26 0 50 -2t43 -10t30 -23t11 -40v-90l-792 -1096h331q36 0 72.5 1.5t72.5 5.5q22 20 41 44t33 56.5t22.5 76.5t8.5 106q26 0 58 -1.5t61 -3t52.5 -2.5t33.5 -1q1 -17 2.5 -55.5t3 -84t3 -90.5l2.5 -75q0 -15 -2.5 -44t-7.5 -72 q-62 -11 -131.5 -12t-150.5 -1h-795q-18 4 -28.5 13t-16 21.5t-7 27.5t-1.5 30v82l774 1083h-234q-29 0 -70.5 -2.5t-84 -8.5t-79 -16t-54.5 -25q-2 -14 -2.5 -43t-0.5 -62q0 -12 0.5 -24.5t0.5 -24.5q-50 0 -99.5 -0.5t-101.5 -0.5q-2 27 -7.5 70t-12 91t-12.5 95.5 t-9 83.5z" />
<glyph unicode="[" horiz-adv-x="741" d="M467 -92h200v-52q0 -30 -13.5 -45t-32.5 -22t-38.5 -7.5t-32.5 -0.5h-345v1740h312q42 0 71 -2.5t46.5 -11t25 -24.5t7.5 -42v-45h-200v-1488z" />
<glyph unicode="\" horiz-adv-x="961" d="M299 1413l662 -1432h-182q-84 0 -109 49l-670 1449h179q50 0 76.5 -16t43.5 -50z" />
<glyph unicode="]" horiz-adv-x="743" d="M76 -92h199v1488h-199v53q0 26 5 43.5t19 29.5h438v-1741h-262q-30 0 -58.5 0.5t-54.5 3.5t-48 10.5t-39 21.5v91z" />
<glyph unicode="^" horiz-adv-x="1233" d="M723 1284l379 -668q11 -20 18.5 -40t7.5 -37q0 -23 -15 -39t-51 -22l-132 -29l-312 566h-1l-310 -565l-128 30q-31 7 -53 15.5t-27 32.5q5 18 13.5 40t23.5 48l382 679h71.5t42 0.5t22.5 0.5h12q14 0 28.5 -2t28.5 -10z" />
<glyph unicode="_" horiz-adv-x="1029" d="M951 -324h-961v72q0 27 10 42.5t27 23.5t40 10t49 2q14 0 28.5 -0.5t28.5 -0.5h866v-69q0 -37 -24.5 -54t-63.5 -26z" />
<glyph unicode="`" horiz-adv-x="1203" d="M658 1191l-294 346h308l170 -345q-46 0 -92 -0.5t-92 -0.5z" />
<glyph unicode="a" d="M1213 123v-97q-63 -19 -139.5 -27.5t-164.5 -8.5q-30 0 -55 3.5t-45 12.5q-44 37 -65 103q-60 -59 -135 -95.5t-171 -36.5q-75 0 -138 19t-108 56t-70 92t-25 128q0 160 136.5 240.5t415.5 80.5h86v52q0 138 -27.5 200t-96.5 62q-45 0 -86 -16t-78 -44.5t-70.5 -67.5 t-64.5 -84l-188 120q4 45 42.5 85t101.5 70t145 47t173 17q229 0 345 -93t116 -298v-44.5t-0.5 -65t-0.5 -103v-159.5q0 -53 3.5 -89t8.5 -58q17 -1 35.5 -1h37.5h82zM727 198q3 61 5.5 129.5t2.5 149.5h-96q-112 0 -172.5 -51t-60.5 -145q0 -85 37.5 -123.5t98.5 -38.5 q45 0 92 21.5t93 57.5z" />
<glyph unicode="b" horiz-adv-x="1383" d="M145 8l6 85q24 15 37 34.5t20 48t8.5 67t1.5 90.5v911q0 55 -3 106q-20 3 -41.5 5t-45.5 2h-92v100q73 18 169 27t213 9q39 0 61.5 -8t34 -22t14.5 -34t3 -45v-459q72 57 150 83.5t162 26.5q105 0 186.5 -38t137 -105.5t84 -159.5t28.5 -201q0 -128 -38 -226 t-101.5 -165.5t-148 -105t-177.5 -43.5q-51 -3 -99 -3q-62 1 -124.5 3t-131.5 5t-146 6.5t-168 5.5zM954 525q0 369 -184 369q-110 0 -229 -86q-6 -78 -8 -159t-2 -167q0 -88 1.5 -180t5.5 -182q47 -5 96.5 -7t92.5 -2q105 0 166 104.5t61 309.5z" />
<glyph unicode="c" horiz-adv-x="1139" d="M1042 223l16 -145q-76 -51 -174.5 -76t-213.5 -25q-125 0 -229 34.5t-178.5 101t-116 163t-41.5 220.5q0 135 46.5 236t125.5 168t184.5 100.5t223.5 33.5q116 0 212.5 -29t162.5 -84l-17 -200h-168q-46 91 -95.5 132t-114.5 41q-53 0 -97 -24.5t-76.5 -70.5t-50.5 -112 t-18 -148q0 -105 20 -183.5t56 -130t85.5 -77t109.5 -25.5q51 0 96.5 6t88 18.5t82.5 31.5t81 44z" />
<glyph unicode="d" horiz-adv-x="1382" d="M1168 1396v-1139q0 -47 3 -79t8 -55h170v-98q-69 -17 -145 -26.5t-158 -9.5q-44 0 -73.5 5t-49 19t-30.5 39.5t-18 66.5q-60 -75 -142.5 -108.5t-177.5 -33.5q-97 0 -179.5 36t-143 103t-94.5 161.5t-34 211.5q0 129 31.5 230.5t91 172.5t145 108.5t193.5 37.5 q160 0 291 -91v323q0 21 -1 41t-3 39q-20 3 -41 5t-46 2h-92v100q78 19 179 28t235 9q28 0 44.5 -5.5t24.5 -17.5t10 -30.5t2 -44.5zM859 288q0 140 -1 271.5t-5 261.5q-45 35 -101 54t-102 19q-64 0 -106.5 -33.5t-67.5 -88.5t-35 -126t-10 -146q0 -193 53.5 -285 t161.5 -92q72 0 128 43t85 122z" />
<glyph unicode="e" horiz-adv-x="1211" d="M1028 224l53 -92q-69 -80 -171.5 -117.5t-239.5 -37.5q-129 0 -233.5 35.5t-178 103t-113.5 166.5t-40 227q0 119 40 216t113.5 165.5t177.5 106t233 37.5q96 0 178 -27t142 -78t93.5 -124.5t33.5 -166.5q0 -56 -11 -90t-34 -52.5t-59 -24.5t-85 -6h-503 q17 -161 98.5 -246t224.5 -85q72 0 142 21.5t139 68.5zM423 597h393q1 5 1 9v9q0 59 -10.5 111t-33 90.5t-57.5 61t-84 22.5q-96 0 -147 -76.5t-62 -226.5z" />
<glyph unicode="f" horiz-adv-x="842" d="M121 -12l4 107q51 6 78.5 13t41 20.5t16 35.5t2.5 58v648h-216v55q0 27 12 43t31 25t41.5 12t42.5 3h89v79q0 109 37 186t99 125.5t144 70.5t172 22q89 0 156.5 -16t118.5 -41v-224h-162q-20 68 -48 105.5t-55 41.5q-39 0 -67 -9t-46 -33.5t-27 -69t-9 -114.5v-123h271 v-62q0 -26 -10.5 -41.5t-28.5 -23t-41.5 -9.5t-50.5 -2h-140v-601q0 -49 2.5 -79.5t17 -49.5t45.5 -28.5t89 -16.5l9 -107l-118 5q-63 2 -113 4.5t-92 2.5q-68 0 -140 -3t-155 -9z" />
<glyph unicode="g" horiz-adv-x="1135" d="M714 657q0 122 -43.5 184t-124.5 62q-88 0 -127 -60.5t-39 -185.5q0 -59 12 -101.5t33.5 -69.5t52 -40t67.5 -13q38 0 69.5 13t53.5 40.5t34 69.5t12 101zM832 -156q0 42 -10.5 72t-38 49.5t-76 28.5t-124.5 9q-27 0 -55.5 -0.5t-54 -1.5t-46 -1.5t-31.5 -0.5 q-9 -9 -23.5 -27t-28.5 -40t-24 -45.5t-10 -42.5q0 -32 11 -60.5t38 -50t72 -34t113 -12.5q83 0 138.5 11.5t88.5 32t47 49.5t14 64zM775 989l304 27q14 -9 21.5 -21.5t11 -30t4 -41t0.5 -54.5q-53 0 -105.5 -0.5t-106.5 -0.5q44 -54 64.5 -102.5t20.5 -105.5 q0 -80 -27.5 -145.5t-85.5 -112t-146.5 -71.5t-210.5 -25q-22 0 -45 1.5t-44.5 3.5t-39.5 4.5t-28 4.5q-4 -6 -12.5 -29.5t-8.5 -52.5q0 -19 6 -31t23.5 -19.5t49.5 -10.5t84 -3q72 0 143 -1.5t135 -9.5t119 -25.5t95 -49.5t62.5 -80.5t22.5 -119.5q0 -92 -39 -156 t-112.5 -105t-178.5 -59.5t-236 -18.5q-119 0 -205 19.5t-141.5 54.5t-82 84t-26.5 109q0 73 49 125t154 84q-50 16 -76.5 57t-26.5 91q0 68 28.5 117t86.5 74q-87 43 -131 120.5t-44 180.5q0 88 32.5 156t92 114t143 70t184.5 24q61 0 117.5 -11t105.5 -29z" />
<glyph unicode="h" horiz-adv-x="1417" d="M1356 123l6 -106q-71 -17 -150 -25.5t-157 -8.5q-39 0 -71 5t-55 16t-35.5 29.5t-12.5 45.5q0 39 1 87t2 101.5t2 109.5t1 110v22q0 75 -2 142.5t-14 118t-37.5 80.5t-72.5 30q-37 0 -72.5 -11.5t-66.5 -30.5t-54.5 -44t-36.5 -51v-481q0 -44 1.5 -72.5t11.5 -46.5 t32 -28t62 -17l9 -110l-39 2q-88 5 -148 7.5t-100 2.5q-66 0 -131 -3t-134 -9l5 109q42 6 65.5 13.5t35 22.5t14.5 41t3 68v1031q0 22 -1 41t-5 36q-19 3 -40 5t-45 2h-91v100q81 20 178.5 28.5t207.5 8.5q37 0 58.5 -4t33 -15t14.5 -31.5t3 -53.5v-489q75 62 171.5 97.5 t198.5 35.5q155 0 226.5 -86.5t71.5 -250.5v-438q0 -45 4 -78.5t9 -57.5h144z" />
<glyph unicode="i" horiz-adv-x="728" d="M683 123l11 -101q-143 -34 -308 -34q-37 0 -68.5 5t-55 16t-37 29.5t-13.5 45.5q0 19 1 44t2.5 51t2.5 52.5t1 50.5v519q0 18 -1 37t-3 36q-16 5 -34 6.5t-38 1.5h-105v111q30 6 71.5 12t86.5 10t91 6.5t85 2.5q47 0 83.5 -5.5t68.5 -30.5q3 -14 5 -29t2 -30v-643 q0 -51 3.5 -92t9.5 -71h139zM188 1335q0 36 14.5 63.5t40 46t59 28t71.5 9.5q39 0 73 -10t59 -29t39.5 -46.5t14.5 -61.5q0 -36 -15.5 -63.5t-41 -45.5t-59.5 -27.5t-70 -9.5q-39 0 -72.5 10t-58.5 29t-39.5 46t-14.5 61z" />
<glyph unicode="j" horiz-adv-x="897" d="M343 1349q0 36 14.5 64t40 46.5t59 28t71.5 9.5q40 0 73.5 -10t58.5 -29t39 -46.5t14 -62.5q0 -36 -15.5 -63t-41 -45t-59 -27.5t-69.5 -9.5q-39 0 -73 10t-58.5 29t-39 46t-14.5 60zM685 968q0 -234 -0.5 -464.5t-0.5 -464.5q0 -226 -97 -338.5t-288 -112.5 q-48 0 -92.5 5.5t-80.5 14t-61.5 19t-35.5 19.5l32 288q12 -2 31 -4.5t40 -6t42.5 -6.5t40.5 -6q1 -26 3.5 -51.5t4.5 -48t4.5 -41t3.5 -28.5q2 -1 10.5 -3t19 -3.5t22 -3t20.5 -1.5q27 0 45.5 14.5t29 41t15 64.5t4.5 86q0 13 -0.5 28t-3 41t-6.5 67.5t-10 107.5 q-1 7 -1.5 35.5t-1 69t-0.5 90v100v98t-0.5 84.5t-0.5 59.5v22.5q0 34 -1 68t-3 66q-20 5 -41.5 6.5t-44.5 1.5h-92v111q30 7 65.5 12.5t74.5 9.5t79 6.5t79 2.5q76 0 129 -13.5t67 -42.5z" />
<glyph unicode="k" horiz-adv-x="1344" d="M94 -12l4 107q39 6 62 11.5t35.5 18.5t16.5 36t4 62v1042q0 24 -1 44.5t-4 39.5q-16 3 -33.5 5.5t-38.5 2.5h-105v99q85 20 192.5 29t219.5 11q28 -8 45 -20.5t25 -30.5t10.5 -43t2.5 -59v-769l215 186q39 34 67 61t28 42q0 25 -63 25v120h529v-126q-51 0 -89.5 -8.5 t-70.5 -23.5t-59.5 -35t-55.5 -43l-223 -188l298 -390q35 -46 78.5 -70t110.5 -24h15.5t15.5 1l18 -114q-63 7 -134 10t-154 3q-76 0 -145.5 -3t-137.5 -9v109q17 0 30 1t20 7q-10 17 -22 34t-28 39q-51 70 -101 141t-99 143l-43 -30v-204q0 -36 3 -59.5t14.5 -37.5 t34.5 -22.5t62 -14.5l6 -106q-106 5 -174 8.5t-110 3.5q-68 0 -134 -3t-137 -9z" />
<glyph unicode="l" horiz-adv-x="727" d="M211 198q3 63 3 134v928q0 25 -1.5 47.5t-5.5 42.5q-19 3 -40.5 5.5t-45.5 2.5h-90v100q71 16 156.5 26t180.5 10q34 0 58 -1.5t42 -6.5t31 -14t25 -23v-1200q0 -45 3.5 -75.5t8.5 -51.5h161v-100q-72 -17 -150 -25t-166 -8q-63 0 -109.5 18.5t-63.5 69.5q0 29 1.5 57 t1.5 64z" />
<glyph unicode="m" horiz-adv-x="2054" d="M1523 278v355q0 72 -4.5 118.5t-16 73.5t-31 37t-49.5 10q-41 0 -76.5 -11t-65 -29.5t-52.5 -42.5t-38 -49v-515q0 -36 3.5 -59t16.5 -37t37.5 -22.5t66.5 -14.5l5 -104q-41 3 -82 5t-80 3.5t-74 2.5t-63 1q-133 0 -241 -12v110q37 6 57 13.5t29.5 20.5t11 34t1.5 55v412 q0 73 -4 119.5t-14.5 72.5t-28.5 36t-46 10q-39 0 -76.5 -10.5t-70 -28.5t-57.5 -42t-38 -51v-491q0 -39 2 -64.5t11 -42.5t28 -27t54 -16l4 -110q-85 6 -160 9t-147 3q-59 0 -115 -3.5t-110 -8.5v104q43 3 67.5 11t36.5 23.5t14.5 39t2.5 58.5v573q0 20 -1 39.5t-3 37.5 q-23 5 -48 6.5t-52 1.5h-78v109q26 7 64 12.5t82 10t91 7t91 2.5q33 0 68 -3.5t88 -13.5q0 -17 1 -33t1 -33q0 -10 -0.5 -21.5t-0.5 -30.5q85 68 181.5 106.5t205.5 38.5q188 0 250 -145q36 28 76 54.5t85.5 47t97.5 33t111 12.5q149 0 221.5 -79.5t72.5 -237.5v-459 q0 -45 4 -78.5t9 -57.5h139l11 -106q-142 -34 -308 -34q-39 0 -71 5t-55 16t-35.5 29.5t-12.5 45.5q0 19 1 44t2.5 51t2.5 53t1 51z" />
<glyph unicode="n" horiz-adv-x="1438" d="M1219 706v-447q0 -45 3.5 -78.5t9.5 -57.5h139l12 -106q-143 -34 -309 -34q-38 0 -69.5 5t-54.5 16.5t-36 29.5t-13 45q0 19 1 44.5t2 52.5t2 54.5t1 51.5v368q0 61 -9.5 103.5t-27 69.5t-42 39.5t-53.5 12.5t-60 -10t-61.5 -26.5t-59 -38.5t-51.5 -47v-515q0 -37 3 -61 t14 -39t32.5 -24t57.5 -16l10 -110q-97 5 -168.5 8.5t-120.5 3.5q-138 0 -264 -12l5 110q42 5 65.5 12.5t35.5 23t15 41.5t3 68v558q0 19 -1 37.5t-3 35.5q-14 5 -29 6.5t-35 1.5h-114v111q27 6 64.5 11t79.5 9.5t86 7t85 2.5q35 0 71.5 -3.5t95.5 -13.5v-117 q88 72 191.5 108t199.5 36q69 0 124 -21t93.5 -62.5t59 -102.5t20.5 -141z" />
<glyph unicode="o" horiz-adv-x="1330" d="M432 505q0 -199 56.5 -294t176.5 -95q126 0 179 98t53 291q0 196 -56 292t-176 96q-124 0 -178.5 -97.5t-54.5 -290.5zM1225 504q0 -134 -46 -233t-123.5 -164.5t-178.5 -97.5t-211 -32q-121 0 -224 35.5t-178 103.5t-117 165.5t-42 222.5q0 132 45.5 231t123 166 t179 100.5t213.5 33.5q121 0 223.5 -36.5t177 -105t116.5 -167t42 -222.5z" />
<glyph unicode="p" horiz-adv-x="1375" d="M511 1007v-19v-29t0.5 -27.5t1.5 -14.5q63 57 142 87.5t172 30.5q104 0 186.5 -35.5t139.5 -102t87 -162.5t30 -216q0 -132 -36 -233t-99.5 -170t-151 -104t-189.5 -35q-81 0 -148 22.5t-124 64.5v-147.5t-0.5 -84.5t-0.5 -42v-20q0 -41 3 -64t14.5 -36t34.5 -20t64 -14 l10 -108q-46 6 -82.5 10t-66.5 6.5t-56.5 3.5t-53.5 1q-66 0 -138 -3.5t-163 -17.5l5 109q44 7 68 15t35 25t13 47t2 80v982q0 23 -0.5 45t-2.5 43q-20 5 -42 6.5t-46 1.5h-92v109q26 6 64.5 12t83.5 10.5t93 7t93 2.5q17 0 33 -0.5t33.5 -2t38 -5t45.5 -8.5zM527 787 q-1 -63 -1.5 -128.5t-0.5 -130.5q0 -79 2.5 -150.5t11.5 -125.5q33 -64 78.5 -96.5t110.5 -32.5q62 0 103.5 32t67 85.5t36 122t10.5 142.5q0 192 -40.5 287.5t-128.5 95.5q-59 0 -123.5 -22t-125.5 -79z" />
<glyph unicode="q" horiz-adv-x="1341" d="M845 257q0 154 0.5 293.5t0.5 277.5q-28 16 -58.5 27.5t-60 19t-56.5 10.5t-47 3q-195 0 -195 -380q0 -90 12 -161t36.5 -121t62.5 -76.5t91 -26.5q31 0 62 11t59.5 29t52 42.5t40.5 51.5zM858 1019q16 1 23 1.5t17.5 1t31.5 1t66 0.5q34 0 72.5 -0.5t76 -2.5t72.5 -5.5 t63 -10.5v-79q-20 -11 -40.5 -26t-37 -36.5t-27.5 -49t-11 -63.5v-978q0 -40 2 -63.5t13 -37t34.5 -21t67.5 -14.5l7 -108q-92 13 -159 17t-120 4q-51 0 -120.5 -4.5t-160.5 -16.5l7 109q39 6 62 13.5t35.5 22t16 39.5t3.5 66v286q-70 -42 -144.5 -64.5t-154.5 -22.5 q-98 0 -180.5 37t-142 106.5t-93 168.5t-33.5 222q0 105 33 198.5t93 164t144.5 111.5t186.5 41q33 0 73.5 -6.5t81.5 -17t78.5 -23t63.5 -24.5v64z" />
<glyph unicode="r" horiz-adv-x="1064" d="M532 1006v-187q36 49 73 89t79.5 68.5t92 43.5t108.5 15q53 0 87.5 -8t60.5 -18l-23 -297h-146l-25 149q-11 1 -20 1h-17q-65 0 -113 -27t-79.5 -71t-46.5 -99t-15 -112v-288q0 -48 2 -78t13.5 -48.5t37 -28.5t72.5 -17l10 -105q-112 5 -186 8.5t-119 3.5q-66 0 -131 -3 t-134 -9l5 105q44 6 68 13.5t35.5 20t13.5 31.5t2 48v9.5v28.5t-0.5 60.5t-0.5 105.5v162.5v233.5q0 17 -0.5 34.5t-3.5 33.5q-14 4 -29 6t-34 2h-114v109q27 7 65.5 12.5t82.5 9.5t90.5 6.5t90.5 2.5q16 0 31 -0.5t32 -2t37.5 -4.5t47.5 -9z" />
<glyph unicode="s" horiz-adv-x="1053" d="M126 344l187 -35l15 -161q32 -17 72.5 -25t96.5 -8q79 0 119.5 36.5t40.5 89.5q0 29 -16 52.5t-42 42.5t-60 34.5t-70 29t-70.5 25.5t-63.5 25q-59 25 -104 53.5t-76.5 62.5t-47.5 76t-16 95q0 140 116 219t341 79q121 0 212.5 -22.5t148.5 -63.5q-6 -41 -20.5 -106.5 t-28.5 -134.5l-162 26q-3 40 -5.5 75t-5.5 64q-33 16 -72 20.5t-87 4.5q-72 0 -110 -29.5t-38 -83.5q0 -42 30 -70.5t75.5 -50.5t99 -39.5t101.5 -36.5q144 -58 213 -127.5t69 -164.5q0 -85 -35 -145.5t-95.5 -99t-141.5 -56.5t-172 -18q-60 0 -126 8t-126.5 22.5t-112 34 t-82.5 43.5z" />
<glyph unicode="t" horiz-adv-x="978" d="M226 1008l25 171q4 24 13 51.5t20 53.5l15 38h227v-314h308v-52q0 -27 -8 -43t-22 -24t-33.5 -10.5t-42.5 -2.5q-13 0 -27 0.5t-28 0.5h-147v-553q0 -102 23 -149t83 -47q20 0 37.5 7.5t31.5 18.5t23 23.5t11 21.5q1 3 3 15.5t4.5 30t5.5 38t5 38.5h181v-251 q-71 -44 -162 -65t-202 -21q-170 0 -263 77.5t-93 244.5v571h-194v63q0 26 15.5 36.5t42.5 15.5q36 6 74 9t74 7z" />
<glyph unicode="u" horiz-adv-x="1359" d="M1201 968v-698q0 -52 4 -88t9 -59h157v-98q-73 -17 -150.5 -27t-162.5 -10q-46 0 -78.5 4t-54 17.5t-31.5 37.5t-11 65q-37 -28 -75.5 -52.5t-81.5 -43t-93 -29t-110 -10.5q-151 0 -229 83t-78 238v493q0 24 -1.5 45t-3.5 41q-18 3 -37.5 4t-40.5 1h-77l-6 111 q28 6 63 11.5t75 10t82 7t84 2.5q75 0 120 -12.5t53 -43.5q0 -165 0.5 -326.5t0.5 -326.5q0 -36 3 -69.5t14 -60t34 -42t64 -15.5q36 0 75 10.5t72.5 24.5t57.5 28.5t31 23.5q4 30 6 66.5t3 76t1.5 79.5t0.5 77v281q0 47 -7 82q-17 3 -35.5 4t-38.5 1h-75l-6 111 q60 14 140.5 22.5t163.5 8.5q31 0 59 -3t50.5 -10t38 -17.5t21.5 -25.5z" />
<glyph unicode="v" horiz-adv-x="1298" d="M705 278q54 152 108 300t99 296q-14 5 -29.5 6.5t-36.5 1.5h-53l16 121q61 11 124.5 16t132.5 5q64 0 119.5 -5t109.5 -16v-121h-49q-24 0 -46.5 -1.5t-44.5 -6.5q-15 -34 -35.5 -85.5t-44.5 -112.5t-50 -128.5t-52.5 -133.5t-51 -127.5t-45.5 -111.5l-76 -179 q-35 -3 -71 -4t-74 -1q-36 0 -67.5 2.5t-68.5 16.5l-333 791q-8 20 -16.5 38t-19.5 35q-17 5 -35 6.5t-38 1.5h-54l-19 121q54 12 129.5 16.5t169.5 4.5q30 0 59.5 -1t61.5 -3t68 -6t79 -11q5 -25 10 -55.5t10 -65.5h-47q-18 0 -33 -1.5t-27 -6.5q6 -22 14.5 -43.5 t16.5 -44.5q61 -174 108.5 -298.5t81.5 -209.5z" />
<glyph unicode="w" horiz-adv-x="1879" d="M1344 266l139 531q5 20 8.5 39t9.5 38q-14 5 -28 6.5t-34 1.5h-53q1 9 3 25t4 34t4 35t4 27q58 11 119.5 16t127.5 5q64 0 120 -5t111 -16q0 -30 -0.5 -60.5t-0.5 -60.5h-59q-22 0 -41.5 -1.5t-37.5 -6.5q-41 -127 -82 -253t-79 -241t-71 -213.5t-58 -170.5 q-35 -3 -72.5 -4t-77.5 -1q-64 0 -127 16q-7 10 -18 30.5t-11 36.5l-180 540q-27 -86 -55 -172.5t-55 -167t-52 -151.5t-45 -127q-35 -3 -73 -4t-78 -1q-46 0 -77.5 7.5t-60.5 19.5l-289 779q-15 40 -37 77q-17 5 -36.5 6.5t-40.5 1.5h-59l-8 121q50 11 122.5 16t162.5 5 q62 0 127.5 -3.5t143.5 -17.5q6 -25 10.5 -55.5t9.5 -65.5h-46q-40 0 -60 -8l188 -601q43 138 78 254t63.5 206t50.5 152.5t40 94.5q17 8 41 11t54 3t54 -2t42 -9t30.5 -20.5t20.5 -35.5z" />
<glyph unicode="x" horiz-adv-x="1313" d="M855 539l222 -303q29 -39 49 -62t40.5 -35.5t45.5 -17.5t64 -8l20 -125q-54 5 -132.5 8.5t-167.5 3.5q-72 0 -142 -3t-128 -9l-16 119q33 4 53 8.5t29 13.5q-4 12 -16 31.5t-31 45.5l-137 194l-118 -162q-26 -36 -43 -62t-25 -46q13 -9 34.5 -14t54.5 -9q-3 -10 -6.5 -26 t-7.5 -33.5t-7 -33.5t-6 -26q-51 6 -111.5 9t-126.5 3q-51 0 -111.5 -3.5t-118.5 -8.5l19 119q37 3 61 8.5t43.5 14.5t38 22t43.5 33l253 309l-209 293q-17 23 -34.5 44.5t-36.5 42.5q-17 5 -35 6.5t-37 1.5h-61l-14 121q50 11 119 16t156 5q68 0 143 -3.5t163 -17.5 q6 -25 10.5 -55.5t9.5 -65.5h-45q-37 0 -54 -8q9 -16 21.5 -31t24.5 -32l124 -175q41 54 84.5 115.5t87.5 122.5q-20 8 -57 8h-50l22 121q63 11 128.5 16t133.5 5q63 0 115 -5t104 -16l-18 -121h-44q-25 0 -49 -1.5t-47 -6.5l-114 -141q-42 -53 -85 -105t-75 -89z" />
<glyph unicode="y" horiz-adv-x="1297" d="M704 278q49 134 96 264.5t92 259.5q5 19 10.5 37t10.5 35q-14 5 -29.5 6.5t-35.5 1.5h-54l17 121q61 11 124.5 16t131.5 5q64 0 120 -5t110 -16v-121h-60q-23 0 -41.5 -1.5t-37.5 -6.5l-347 -843q-51 -124 -94.5 -212.5t-97 -144.5t-127 -82.5t-184.5 -26.5 q-33 0 -65 2.5t-60.5 7t-51.5 10.5t-38 13l39 154q53 -20 103 -28.5t88 -8.5q44 0 74.5 15t54.5 46.5t45 81t45 118.5l-341 792q-12 28 -24.5 54t-26.5 52q-38 8 -78 8h-59l-9 121q51 11 122 15.5t159 4.5q34 0 65.5 -0.5t65.5 -2.5t71.5 -6t83.5 -11q5 -26 10 -56t9 -65 h-46q-19 0 -35 -1.5t-28 -6.5q6 -18 18 -51t27.5 -75.5t34 -92t37.5 -99.5z" />
<glyph unicode="z" horiz-adv-x="1079" d="M392 133h341q25 0 47.5 3t39.5 14q16 28 29.5 68.5t30.5 99.5q29 2 59 3t59 3v-194q0 -39 2.5 -70t2.5 -65q-69 3 -154 4t-169 1h-411q-44 0 -78 1t-60 3q-14 3 -25 8t-18 14.5t-10.5 25t-3.5 38.5v80l620 708h-332q-26 0 -52.5 -3.5t-43.5 -14.5q-12 -30 -21 -69 t-14 -89h-4q-32 -2 -64.5 -4t-64.5 -3q-3 66 -4 113.5t-1 85.5q0 33 0.5 61t0.5 57q192 0 392 -2t397 -2q33 0 53 -4t31.5 -15t15 -32t3.5 -54v-86z" />
<glyph unicode="{" horiz-adv-x="748" d="M468 1271v-388q0 -88 -33 -147t-102 -87q66 -28 100.5 -85t34.5 -147v-389q0 -54 4.5 -81t13 -39t21.5 -14.5t31 -6.5q25 -7 56.5 -11t70.5 -8v-24q0 -23 -20 -46q-32 -10 -63.5 -15t-65.5 -5q-71 0 -128 10.5t-97 38.5t-61.5 77t-21.5 125v402q0 81 -31 128t-95 71v66 q24 14 47 32t40.5 39.5t28 46.5t10.5 55v412q0 74 22 120.5t63.5 73t100 36.5t131.5 10q28 0 52.5 -2t43.5 -8.5t30.5 -19.5t13.5 -35v-26q-59 -3 -97 -11t-60.5 -25t-31 -46.5t-8.5 -76.5z" />
<glyph unicode="|" horiz-adv-x="1234" d="M728 1420v-1657h-97q-46 0 -73 10t-41 33q-8 31 -10.5 67t-2.5 78v1556h97q59 0 90.5 -19.5t36.5 -67.5z" />
<glyph unicode="}" horiz-adv-x="744" d="M222 1521q90 0 151 -13.5t98 -48.5t53 -96.5t16 -157.5v-305q0 -33 9.5 -61t26 -50t38.5 -39t47 -27v-93q-42 -15 -66.5 -39.5t-37 -61t-15.5 -86t-3 -115.5v-186q0 -98 -8 -168.5t-42 -113.5q-21 -26 -49.5 -42t-63.5 -25t-77 -12t-89 -3q-21 0 -43.5 1.5t-41.5 8 t-31 19t-12 34.5v29q57 4 94.5 11t59.5 23.5t31 45.5t9 78q0 33 0.5 75.5t0.5 87.5t0.5 88t0.5 76q0 56 6.5 102.5t22 83.5t41.5 64t66 44q-39 15 -65.5 40.5t-42.5 60t-23 76t-7 86.5q0 33 0.5 78t0.5 91.5t0.5 90.5t0.5 77q0 59 -9.5 93.5t-32 52.5t-60.5 24.5t-94 11.5 v25q0 21 10.5 34t29 19.5t44 9t56.5 2.5z" />
<glyph unicode="~" horiz-adv-x="1204" d="M1026 645q23 -30 39.5 -55.5t24.5 -46.5q-12 -36 -36 -64t-56.5 -46.5t-71 -28.5t-79.5 -10q-44 0 -82.5 8.5t-77.5 23t-81 33.5t-93 40q-38 16 -73.5 23.5t-65.5 7.5q-55 0 -101 -35t-84 -97q-59 61 -76 97q10 38 37.5 70t64.5 55.5t78 37t77 13.5q37 0 73 -7t70 -18 t64 -24t56 -24q34 -15 60 -26.5t48 -19t41.5 -11t40.5 -3.5q38 0 70 9t57.5 24t44.5 34.5t31 39.5z" />
<glyph unicode="&#xa1;" horiz-adv-x="786" d="M399 1435q-40 0 -71.5 -12.5q-31.5 -12.499 -53 -34.4971q-21.5 -21.999 -33 -51.4971t-11.5 -64.4961q0 -33.998 12 -63.4961t34 -51.4971t53 -34.998t70 -12.999t70.5 12.999t53 35.498t33.5 51.9971t12 62.4961q0 34.998 -11.5 64.4961t-33 51.4971 q-21.5 21.998 -53 34.4971q-31.5 12.5 -71.5 12.5zM491 978.026q-17 8 -37.5 12.499q-20.5 4.5 -40.5 4.5q-35 0 -57 -3.5q-22 -3.49902 -35 -13.499q-13 -9.99902 -19 -27.498t-8 -44.4971q-14 -151.991 -27 -298.482q-13 -146.49 -25 -301.481q-4 -47.9971 -8.5 -90.9941 t-8.5 -77.4951t-6.5 -58.4971q-2.5 -23.998 -2.5 -35.9971q0 -2 0.5 -4.5t0.5 -4.5q62 -55.9961 181 -55.9961q37 0 67 3.99902q30 4 51 15.499q21 11.5 32 32.498q11 20.999 11 54.9971v26.998t-2 31.998l-39 451.973q-12 134.992 -20 226.986t-7 154.99z" />
<glyph unicode="&#xa2;" horiz-adv-x="1218" d="M1058 309l49 -96q-29 -42 -67.5 -73t-85 -52.5t-99 -33.5t-109.5 -16v-217h-34q-31 0 -49 4t-27 14.5t-11.5 27.5t-2.5 43v129q-110 9 -199 47.5t-152 103.5t-97 154.5t-34 201.5q0 122 38 216.5t103.5 161.5t153 108t187.5 56v226h34q26 0 43.5 -3.5t28 -12.5 t14.5 -25.5t4 -42.5v-133h12q2 0 23.5 -1.5t54 -5t71.5 -10.5t77 -18.5t71 -27.5t53 -39q-1 -14 -1.5 -28t-2.5 -28l-31 -155l-182 11q-29 61 -63 96t-82 49v-758q91 1 164.5 33t147.5 94zM622 208v736q-78 -38 -120.5 -128.5t-42.5 -237.5t43.5 -238.5t119.5 -131.5z" />
<glyph unicode="&#xa3;" horiz-adv-x="1246" d="M306 371q0 69 -3 141.5t-11 153.5h-200v61q0 24 6 38t17 20.5t27.5 8t36.5 1.5h96q-12 83 -19.5 149t-7.5 117q0 114 42.5 187.5t110.5 116t154.5 59.5t174.5 17q60 0 124 -6t122.5 -19t107.5 -33.5t81 -49.5q-1 -33 -1 -66.5v-66.5v-67.5t1 -66.5l-180 -23 q-40 130 -99.5 190t-155.5 60q-87 0 -130 -61.5t-43 -176.5q0 -24 1.5 -57t6.5 -71l14 -132h324v-60q0 -23 -7 -37t-19.5 -21.5t-31 -9.5t-41.5 -2h-18t-31.5 0.5t-59.5 0.5h-101q3 -45 5 -81t2 -67q0 -53 -7 -100.5t-20.5 -93t-34.5 -90.5t-49 -92h171q85 0 143.5 5.5 t101.5 29.5t75 73t64 135l141 -28q0 -83 -7 -167t-21 -175q-88 -10 -204.5 -14.5t-265.5 -4.5q-71 0 -147 0.5t-150 1t-143.5 1t-127.5 1.5q-26 23 -35 51t-9 66q57 17 100 38t72 50.5t43.5 70t14.5 95.5z" />
<glyph unicode="&#xa4;" horiz-adv-x="1304" d="M989 1002q90 -117 90 -272q0 -156 -91 -268l130 -132l-8 -8q-20 -20 -42.5 -40.5t-43.5 -29.5q-13 5 -29 18.5t-33 30.5t-33.5 35t-31.5 33q-58 -42 -128 -66t-145 -24t-142.5 23.5t-124.5 66.5l-131 -129q-22 21 -45.5 44.5t-34.5 43.5q13 28 38 53l82 81 q-90 114 -90 269t90 269l-133 131q23 21 46.5 45t46.5 34q12 -7 24.5 -15.5t25.5 -21.5l80 -80q122 91 269 91q73 0 141 -23.5t129 -68.5l132 132l9 -9q24 -23 42.5 -45.5t18.5 -48.5q0 -11 -1 -13zM308 731q0 -71 25 -130t68.5 -102t101.5 -67t124 -24q68 0 126.5 25 t101.5 68.5t67.5 102.5t24.5 127q0 69 -24.5 128t-67.5 102.5t-101.5 68.5t-126.5 25t-126 -24.5t-101 -68t-67.5 -103t-24.5 -128.5z" />
<glyph unicode="&#xa5;" horiz-adv-x="1597" d="M1094 1161q14 30 22 55.5t12 51.5q-16 5 -34.5 5.5t-41.5 0.5h-87l28 135q59 6 123 9.5t139 3.5h94q66 0 127 -3t117 -11l-32 -134h-126q-19 0 -31.5 -3.5t-24.5 -18t-28 -43.5t-42 -80q-8 -14 -24 -43t-37 -66.5t-45.5 -81.5t-48.5 -87q-57 -102 -126 -222h242v-53 q0 -25 -6 -39t-17.5 -20.5t-26.5 -8.5t-33 -3h-223v-104h306v-52q0 -23 -5.5 -37t-16 -21.5t-25.5 -10t-33 -2.5h-226v-33q0 -35 2.5 -61.5t7.5 -47.5q23 -3 47.5 -4t50.5 -1h93v-146q-93 7 -174 11t-156 4h-48q-81 0 -165.5 -4t-178.5 -11v146h91q26 0 50.5 0.5t47.5 4.5 q5 19 8 42.5t3 54.5v45h-308v71q26 29 60.5 40.5t90.5 11.5h156v75l-3 29h-304v71q26 29 61.5 41t89.5 12h82q-92 154 -170 284.5t-144 242.5q-19 32 -32.5 59.5t-30.5 52.5q-19 5 -38.5 5.5t-40.5 0.5h-86l-24 135q45 4 89.5 7t89.5 4t92.5 1.5t99.5 0.5q88 0 170.5 -3 t148.5 -11l13 -134h-78q-20 0 -38.5 -0.5t-32.5 -5.5q8 -32 16 -51.5t20 -39.5l269 -473q33 60 67.5 126.5t66 129t58 115.5t41.5 86z" />
<glyph unicode="&#xa6;" horiz-adv-x="935" d="M586 303v-730h-130q-34 0 -55 6.5t-32 23t-15 43t-4 67.5v653h107q57 0 87.5 -13.5t41.5 -49.5zM586 1430v-731h-109q-38 0 -62.5 4t-39 15.5t-20 32t-5.5 52.5v690h107q56 0 87 -14t42 -49z" />
<glyph unicode="&#xa7;" horiz-adv-x="1040" d="M279 957q-29 23 -50 47t-35 52t-21 61.5t-7 75.5q0 82 32 140.5t86.5 96t128.5 54.5t158 17q57 0 110.5 -11.5t95.5 -25.5q49 -16 93 -36l-41 -216l-114 4q-13 37 -28 63.5t-36 43.5t-51 25t-73 8q-76 0 -121.5 -31.5t-45.5 -97.5q0 -35 13.5 -60.5t39 -46.5t62.5 -39.5 t83 -39.5q113 -51 186.5 -90.5t116.5 -78.5t60 -84t17 -106q0 -91 -36.5 -157.5t-102.5 -104.5q121 -88 121 -234q0 -84 -31 -144.5t-85.5 -99.5t-128.5 -57t-159 -18q-152 0 -310 73q-47 21 -69 45q0 86 1 145.5t3 97.5h119q17 -53 39.5 -93t55 -67t76.5 -40.5t104 -13.5 q41 0 75.5 8.5t59 26t38.5 43.5t14 61q0 21 -9 39.5t-32.5 37.5t-63.5 41.5t-101 51.5l-139 66q-36 22 -78.5 47t-79.5 61t-61.5 87t-24.5 125q0 94 37 152t109 96zM424 876q-48 -28 -74 -60t-26 -80q0 -27 8 -46.5t24.5 -36t41.5 -32t60 -33.5q41 -22 69.5 -36.5t48.5 -24 t34.5 -16t28.5 -12.5q108 58 108 144q0 24 -18.5 49t-46.5 48t-60.5 42t-60.5 32q-44 20 -70 31.5t-40.5 18t-19.5 9z" />
<glyph unicode="&#xa8;" horiz-adv-x="1101" d="M461 1257q0 -72 -45 -114.5t-120 -42.5t-120 42t-45 115q0 34 12.5 63t34.5 49t52.5 31.5t65.5 11.5q36 0 66.5 -11.5t52 -31.5t34 -49t12.5 -63zM956 1257q0 -73 -45 -115t-120 -42t-120 42t-45 115q0 34 12.5 63t34.5 49t52.5 31.5t65.5 11.5q36 0 66.5 -11.5t52 -31.5 t34 -49t12.5 -63z" />
<glyph unicode="&#xa9;" horiz-adv-x="1724" d="M267 707q0 -129 45 -239.5t125 -192.5t188.5 -128.5t236.5 -46.5q90 0 169.5 22.5t146.5 63t119.5 96.5t89 123.5t56 144t19.5 157.5q0 130 -46.5 241t-127.5 193t-190.5 128.5t-235.5 46.5q-130 0 -239 -48t-188 -130.5t-123.5 -193.5t-44.5 -237zM113 706 q0 152 54.5 288t153.5 238.5t237 162.5t304 60q111 0 209.5 -27t181.5 -76.5t149.5 -118.5t113 -152t71 -178t24.5 -197q0 -104 -25.5 -199.5t-73 -178.5t-114.5 -150.5t-150.5 -115.5t-181 -74.5t-204.5 -26.5q-109 0 -206.5 26.5t-181 74.5t-150.5 115.5t-113.5 150.5 t-72 178.5t-25.5 199.5zM1160 496l11 -107q-53 -35 -128 -55.5t-160 -20.5q-93 0 -171 26t-134 76t-87 122.5t-31 165.5q0 102 34.5 178.5t94 127t138 76t166.5 25.5q86 0 159.5 -23t119.5 -64l-12 -150h-121q-35 71 -73 102t-88 31q-45 0 -79 -22t-57.5 -59t-35.5 -86 t-12 -103q0 -81 15 -141t42.5 -99t65.5 -58t83 -19q77 0 137.5 19t122.5 58z" />
<glyph unicode="&#xaa;" horiz-adv-x="877" d="M500 887q3 46 4.5 89.5t1.5 91.5h-46q-85 0 -129 -31.5t-44 -98.5q0 -48 23 -75t65 -27q29 0 61 14t64 37zM839 832v-68q-42 -11 -88 -16.5t-96 -5.5q-61 0 -92 17q-6 6 -12 15t-11.5 18.5t-10.5 18t-10 13.5q-45 -44 -96.5 -69t-118.5 -25q-53 0 -97 12.5t-75.5 38 t-48.5 63t-17 87.5q0 108 93.5 162.5t290.5 54.5h56v41q0 57 -5.5 90.5t-16 50.5t-25 22t-33.5 5q-31 0 -58 -10.5t-52.5 -29.5t-49 -45.5t-47.5 -57.5q-43 26 -76 46.5t-58 37.5q0 28 24 55t66 48t99.5 34t123.5 13q175 0 253 -67.5t78 -199.5q0 -30 -0.5 -63t-0.5 -68v-98 q0 -40 0.5 -68t3.5 -46q24 -4 50 -5t57 -1z" />
<glyph unicode="&#xab;" horiz-adv-x="1062" d="M449 84l-316 417q3 23 7.5 47.5t12.5 49.5l272 364q11 14 20.5 25.5t19.5 22.5q30 -8 59.5 -22t57.5 -27q-42 -75 -102 -182t-133 -235q60 -113 115 -214.5t106 -195.5q-21 -17 -37 -27t-29 -15t-25.5 -6.5t-27.5 -1.5zM795 101l-301 400q2 25 6.5 49t12.5 48l258 347 q10 14 20 25t19 22q29 -8 59.5 -21t59.5 -27q-38 -72 -95 -174.5t-126 -225.5l206 -393q-19 -16 -34 -26t-28.5 -15t-27 -7t-29.5 -2z" />
<glyph unicode="&#xac;" horiz-adv-x="1297" d="M966 304v355h-833v73q0 31 6 49t19.5 26t33.5 10t49 2h923v-576h-95q-48 0 -73.5 13t-29.5 48z" />
<glyph unicode="&#xad;" horiz-adv-x="772" d="M625 452h-552v101q0 25 11 39t26.5 20.5t33 7.5t30.5 1h11h25t51.5 0.5t92 0.5h147h214.5v-96q0 -35 -25 -50.5t-65 -23.5z" />
<glyph unicode="&#xae;" horiz-adv-x="1724" d="M839 1006h-27.5t-26.5 -1v-285q11 -1 22 -1h23q86 0 125.5 33.5t39.5 111.5q0 40 -8.5 67.5t-27 44t-48.5 23.5t-72 7zM610 463v486q0 35 -6 53q-9 0 -19.5 1t-21.5 1h-71v69q26 2 57 6.5t76 6.5q51 3 102.5 3.5t106.5 0.5q76 0 139 -10t108 -35.5t69.5 -68t24.5 -107.5 q0 -42 -14.5 -76t-40 -60t-60 -44t-73.5 -27q38 -13 68.5 -37t54 -53t40.5 -59.5t29 -56.5q4 -8 11 -23.5t15 -21.5q10 1 24.5 4t51.5 19l12 -61q-32 -26 -72.5 -43t-81.5 -17q-23 0 -40.5 4.5t-31 15.5t-25 28.5t-21.5 43.5q-30 73 -63 133t-73 112h-50.5t-49.5 1v-187 q0 -20 2 -33.5t4 -24.5q21 -3 47 -3h43v-82q-57 4 -106 6t-103 2q-38 0 -77.5 -2t-87.5 -6v82h46q14 0 26.5 0.5t24.5 2.5q6 19 6 57zM267 707q0 -129 45 -239.5t125 -192.5t188.5 -128.5t236.5 -46.5q90 0 169.5 22.5t146.5 63t119.5 96.5t89 123.5t56 144t19.5 157.5 q0 130 -46.5 241t-127.5 193t-190.5 128.5t-235.5 46.5q-130 0 -239 -48t-188 -130.5t-123.5 -193.5t-44.5 -237zM113 706q0 152 54.5 288t153.5 238.5t237 162.5t304 60q111 0 209.5 -27t181.5 -76.5t149.5 -118.5t113 -152t71 -178t24.5 -197q0 -104 -25.5 -199.5 t-73 -178.5t-114.5 -150.5t-150.5 -115.5t-181 -74.5t-204.5 -26.5q-109 0 -206.5 26.5t-181 74.5t-150.5 115.5t-113.5 150.5t-72 178.5t-25.5 199.5z" />
<glyph unicode="&#xb0;" horiz-adv-x="727" d="M196 1174q0 -36 13 -66.5t35.5 -52t52.5 -34t65 -12.5q36 0 66 12.5t52.5 34.5t35 52t12.5 66q0 34 -12.5 64t-35 52.5t-52.5 35t-66 12.5t-66 -12.5t-52.5 -35t-35 -52.5t-12.5 -64zM98 1174q0 55 20.5 102t56 81.5t83.5 53.5t104 19t104.5 -19.5t84 -54t56 -81 t20.5 -101.5t-20 -102.5t-55.5 -82t-84 -54t-105.5 -19.5q-56 0 -104 19.5t-83.5 54t-56 81.5t-20.5 103z" />
<glyph unicode="&#xb1;" horiz-adv-x="1225" d="M1006 34h-873v78q0 30 6.5 47t21.5 25.5t40 11t62 2.5h829v-77q0 -41 -22.5 -62t-63.5 -25zM954 671h-260v-337h-91q-29 0 -48.5 3t-31.5 12.5t-17 28t-5 48.5v245h-348v78q0 23 3.5 37.5t11.5 23.5t20.5 13t30.5 7q29 5 61.5 5.5t67.5 0.5h153v337h47q37 0 63.5 -2.5 t43.5 -11t26.5 -24t12.5 -41.5v-258h349v-78q-2 -21 -6.5 -36.5t-14 -26t-26.5 -16.5t-42 -8z" />
<glyph unicode="&#xb2;" horiz-adv-x="884" d="M437 1347q-31 0 -60 -12t-53.5 -35t-42.5 -56t-27 -74l-132 94q3 40 29.5 71.5t69.5 54t98 34.5t117 12q148 0 227.5 -63.5t79.5 -184.5q0 -62 -28.5 -119.5t-83 -119t-135 -130t-185.5 -150.5h217q54 0 95 28t73 101q20 -2 39 -4.5t36 -4.5q0 -122 -9 -231 q-35 -8 -88 -10.5t-143 -2.5h-350q-38 0 -52.5 12t-17.5 42q0 9 1.5 20t3.5 25q177 166 283.5 275.5t133.5 171.5q23 51 23 112q0 69 -29.5 106.5t-89.5 37.5z" />
<glyph unicode="&#xb3;" horiz-adv-x="866" d="M567 1225q0 30 -10.5 52.5t-29.5 38t-44 23t-53 7.5q-30 0 -59.5 -10t-54.5 -29.5t-44 -48.5t-27 -67l-118 86q30 83 109.5 123.5t188.5 40.5q58 0 113 -13.5t97.5 -39.5t68 -65t25.5 -91q0 -80 -53 -135.5t-154 -76.5q114 -16 176.5 -74t62.5 -161q0 -66 -27 -113.5 t-72.5 -79t-104.5 -46.5t-123 -15q-46 0 -90 7.5t-82.5 20.5t-70.5 31t-54 39q0 17 0.5 35t2 39t3.5 46.5t6 57.5l96 -12q4 -45 19 -77t38 -52.5t52 -30.5t62 -10q37 0 66.5 12.5t49.5 34.5t30.5 52.5t10.5 66.5q0 88 -56.5 128t-162.5 40h-59v40q0 20 4.5 29t12.5 13 t18.5 4.5t22.5 2.5q35 3 72.5 16t69 35.5t52 54t20.5 71.5z" />
<glyph unicode="&#xb4;" horiz-adv-x="1216" d="M362 1192q30 59 54.5 107.5t44.5 90.5t37.5 78t33.5 69h320q-18 -23 -43 -52t-61 -70t-85.5 -95.5t-116.5 -127.5h-184z" />
<glyph unicode="&#xb5;" horiz-adv-x="1562" d="M1011 483v315q0 45 -6 81q-29 6 -64 6h-86l-5 105q150 33 306 33q33 0 64.5 -2t61.5 -6q24 -6 32.5 -25.5t8.5 -42.5v-639q0 -69 2.5 -112.5t13.5 -71.5q22 -2 44.5 -2h47.5h61v-97q-155 -36 -316 -36q-47 0 -79 3.5t-52.5 16t-30.5 37t-11 66.5q-36 -26 -74 -50 t-77 -42.5t-80 -29.5t-83 -11q-17 0 -34 2.5t-35 8.5q0 -63 4 -108t18 -76.5t41.5 -50.5t74.5 -30q1 -20 1.5 -33t0.5 -19v-26q-48 -29 -101.5 -41.5t-117.5 -12.5q-30 0 -61.5 2.5t-58 11t-45.5 25t-26 44.5q-8 30 -10 60.5t-2 68.5v993q0 45 -6 81q-30 6 -66 6h-89l-6 105 q76 17 155 26t163 9q35 0 65.5 -2.5t55.5 -8.5q23 -5 31 -25.5t8 -41.5v-311q0 -90 0.5 -178t0.5 -177q0 -33 4.5 -62.5t17 -51t36.5 -34t63 -12.5q35 0 73 11.5t70.5 27t56 31.5t29.5 24q7 53 8 124.5t3 143.5z" />
<glyph unicode="&#xb6;" horiz-adv-x="1207" d="M655 1387h142q109 0 191 -2.5t136 -12.5v-100h-92q-33 0 -59 -2t-44 -9q-8 -23 -11.5 -52t-3.5 -68v-1077q0 -77 16 -121q18 -6 43.5 -7.5t59.5 -1.5h89v-136q-89 9 -178 14t-170 5v1494h-154v-1494q-81 0 -170 -5t-178 -14v136h89q33 0 59 1.5t44 7.5q16 44 16 121v531 q-102 0 -177 27.5t-124 80t-73 128.5t-24 173q0 112 40.5 185.5t115 117.5t180.5 62t237 18z" />
<glyph unicode="&#xb7;" horiz-adv-x="642" d="M322 636q-40 0 -71.5 12.5t-53 34.5t-32.5 52t-11 64t11.5 64t33.5 52t52.5 35t69.5 13q38 0 69 -13.5t52.5 -36t33 -52t11.5 -62.5q0 -34 -11 -63.5t-32 -51.5t-51.5 -35t-70.5 -13z" />
<glyph unicode="&#xb8;" horiz-adv-x="675" d="M119 -366q36 -11 70.5 -17.5t63.5 -6.5q62 0 98 25.5t36 73.5q0 52 -26 78.5t-74 34.5q-6 0 -15 -2.5t-22 -5.5q-11 7 -24.5 12t-26.5 11l85 174h101l-56 -107q53 -3 94.5 -13t70.5 -30.5t44.5 -53t15.5 -79.5q0 -57 -18.5 -99.5t-52.5 -70.5t-81.5 -42t-105.5 -14 q-60 0 -104 11t-73 30q-6 16 -6 40t6 51z" />
<glyph unicode="&#xb9;" horiz-adv-x="711" d="M469 1389v-696q0 -31 6 -50q12 -2 24 -2.5t26 -0.5h67v-96q-60 5 -112.5 7t-102.5 2q-54 0 -109.5 -2t-115.5 -7v96h82q9 0 17.5 0.5t16.5 2.5q3 11 5 26.5t2 38.5v570v19t-1 18q-21 9 -47 9q-5 0 -9 -0.5t-9 -0.5l-65 -6l-5 64q66 18 133 33t124 15q22 0 35.5 -2 t21.5 -7t11 -12.5t5 -18.5z" />
<glyph unicode="&#xba;" horiz-adv-x="928" d="M465 1349q-42 0 -71 -18t-46.5 -52t-25 -82t-7.5 -109q0 -60 8 -107.5t25.5 -81.5t46 -52t70.5 -18t70 18.5t45.5 52.5t25 82t7.5 107q0 60 -7.5 108t-25 82t-46 52t-69.5 18zM856 1087q0 -89 -31.5 -156t-85 -111.5t-124.5 -67t-150 -22.5q-86 0 -158 24.5t-124.5 70.5 t-81.5 112t-29 150q0 86 30 153t82.5 113.5t124.5 71t156 24.5t156 -25t124 -71.5t81.5 -114t29.5 -151.5z" />
<glyph unicode="&#xbb;" horiz-adv-x="1062" d="M928 501q-82 -106 -161.5 -213.5t-167.5 -209.5q-28 6 -53.5 19t-57.5 37q52 94 108.5 195.5t118.5 214.5q-77 136 -134 239t-96 178q29 14 57.5 27t58.5 22q9 -11 18.5 -22.5t19.5 -25.5l249 -338q13 -18 21 -33.5t12 -29.5t5 -28.5t2 -31.5zM568 501 q-81 -101 -156.5 -204t-158.5 -202q-26 5 -55.5 21.5t-56.5 34.5l213 393q-73 132 -126 230.5t-88 169.5q22 11 52.5 25t62.5 23q9 -11 18 -21t19 -23l238 -327q12 -17 19 -31.5t11 -28.5t5.5 -28.5t2.5 -31.5z" />
<glyph unicode="&#xbc;" horiz-adv-x="1884" d="M1182 342h247v368q-29 -41 -57.5 -83t-58.5 -87t-62.5 -94t-68.5 -104zM1621 245v-73q0 -48 7 -70q24 -3 53 -3h70v-103q-65 5 -118.5 7.5t-100.5 2.5q-51 0 -109.5 -2.5t-130.5 -7.5v103h75q15 0 29 0.5t26 2.5q7 22 7 69v74h-360q-14 19 -28.5 44.5t-14.5 66.5 q8 14 17.5 28.5t19.5 28.5q70 100 125 179.5t98.5 141.5t77 109t59.5 82h100q23 0 41.5 -1t31 -6t19 -17t6.5 -33v-526h175v-42q0 -19 -5.5 -30t-15.5 -17t-23 -7.5t-29 -1.5q-10 0 -20 0.5t-21 0.5h-61zM414 1389v-696q0 -17 1.5 -28.5t3.5 -21.5q12 -2 24.5 -2.5 t26.5 -0.5h66v-96q-59 5 -111.5 7t-102.5 2q-54 0 -109.5 -2t-115.5 -7v96h82q9 0 17.5 0.5t16.5 2.5q2 11 4 26.5t2 38.5v607q-21 9 -47 9q-5 0 -9.5 -0.5t-9.5 -0.5l-64 -6l-6 64q67 18 134 33t123 15q22 0 35.5 -2t21.5 -7t11.5 -12.5t5.5 -18.5zM1128 1402 q23 23 52 31.5t61 8.5q21 0 42.5 -2.5t42.5 -6.5q-14 -29 -27.5 -57.5t-28.5 -58.5l-601 -1211q-17 -35 -35.5 -67.5t-38.5 -61.5q-19 -8 -48 -8h-58q-46 0 -70 7q176 358 353.5 713t355.5 713z" />
<glyph unicode="&#xbd;" horiz-adv-x="1911" d="M1475 802q-31 0 -60 -12t-53.5 -35t-42.5 -56t-27 -74l-132 94q3 40 29.5 71.5t69.5 54t98 34.5t117 12q147 0 227 -63.5t80 -184.5q0 -62 -28.5 -119.5t-83.5 -119t-135.5 -130t-184.5 -150.5h216q55 0 96 28t73 101q20 -2 38.5 -4.5t35.5 -4.5q0 -60 -1.5 -118 t-6.5 -113q-36 -8 -88.5 -10.5t-142.5 -2.5h-351q-36 0 -51 11.5t-18 42.5q0 9 1.5 20t3.5 25q177 166 283.5 275.5t132.5 171.5q23 52 23 112q0 69 -29 106.5t-89 37.5zM414 1389v-696q0 -17 1.5 -28.5t3.5 -21.5q12 -2 24.5 -2.5t26.5 -0.5h66v-96q-59 5 -111.5 7 t-102.5 2q-54 0 -109.5 -2t-115.5 -7v96h82q9 0 17.5 0.5t16.5 2.5q2 11 4 26.5t2 38.5v607q-21 9 -47 9q-5 0 -9.5 -0.5t-9.5 -0.5l-64 -6l-6 64q67 18 134 33t123 15q22 0 35.5 -2t21.5 -7t11.5 -12.5t5.5 -18.5zM1126 1402q23 23 52 31.5t61 8.5q21 0 42.5 -2.5 t42.5 -6.5l-693 -1440q-35 -14 -66.5 -19.5t-62.5 -5.5q-23 0 -45 2.5t-41 5.5q17 39 36.5 78.5t41.5 82.5q159 318 315.5 632t316.5 633z" />
<glyph unicode="&#xbe;" horiz-adv-x="2006" d="M557 1225q0 30 -11 52.5t-29.5 38t-44 23t-53.5 7.5q-29 0 -58.5 -10t-55 -29.5t-44 -48.5t-26.5 -67l-119 86q31 83 110 123.5t189 40.5q58 0 113 -13.5t97.5 -39.5t68 -65t25.5 -91q0 -80 -53.5 -135.5t-154.5 -76.5q115 -16 177 -74t62 -161q0 -66 -27 -113.5 t-72.5 -79t-104.5 -46.5t-123 -15q-46 0 -90 7.5t-82.5 20.5t-70.5 31t-54 39q1 17 1.5 35t2 39t3.5 46.5t5 57.5l97 -12q4 -45 19 -77t37.5 -52.5t52 -30.5t62.5 -10q37 0 66.5 12.5t49.5 34.5t30.5 52.5t10.5 66.5q0 88 -57 128t-163 40h-58v40q0 20 4.5 29t12.5 13 t18.5 4.5t22.5 2.5q34 3 72 16t69.5 35.5t52 54t20.5 71.5zM1331 342h231v335zM1747 245v-73q0 -23 1 -40.5t5 -29.5q24 -3 54 -3h69v-103q-64 5 -118 7.5t-100 2.5q-51 0 -103 -2.5t-123 -7.5v103h69q15 0 28.5 0.5t25.5 2.5q7 22 7 69v74h-354q-14 19 -28 44.5t-14 66.5 q8 14 17 28t20 29q70 100 125 179.5t98 141.5t76.5 109t59.5 82h86q24 0 42 -1t31 -6t19.5 -17t6.5 -33v-526h174v-42q0 -19 -5 -30t-14.5 -17t-22.5 -7.5t-28 -1.5q-10 0 -21 0.5t-23 0.5h-60zM1275 1402q23 23 52 31.5t61 8.5q21 0 42.5 -2.5t42.5 -6.5q-20 -40 -39 -81 t-40 -83l-633 -1267q-21 -20 -50 -27t-59 -7q-23 0 -45.5 2.5t-41.5 5.5q19 40 38.5 81t41.5 84z" />
<glyph unicode="&#xbf;" horiz-adv-x="1055" d="M435.038 1022.02q22.999 3 39.4971 4.5q16.499 1.5 31.498 2.5q15 0.999023 31.499 1.49902t40.4971 0.5q24.998 -13.999 52.9971 -34.9971q27.998 -20.999 50.9971 -46.998q22.998 -25.998 38.4971 -55.4961t15.499 -60.4961q0 -38.998 -15.999 -72.4961 t-39.9971 -62.4961q-23.999 -28.998 -52.4971 -55.4961q-28.498 -26.499 -52.4971 -50.4971q-34.998 -34.998 -61.9961 -68.4961t-45.4971 -67.9961q-18.499 -34.4971 -27.998 -70.4951q-9.5 -35.998 -9.5 -76.9951q0 -44.998 11.999 -78.9951q12 -33.998 32.998 -57.4971 q20.999 -23.498 49.4971 -35.498q28.499 -11.999 61.4971 -11.999q42.9971 0 90.9941 8q47.9971 7.99902 107.993 23.998q1 19.999 2 41.9971q1 18.999 1.5 43.998q0.5 24.998 0.5 50.9971h167.989v-248.985q-61.9961 -19.999 -128.992 -36.998 q-56.9961 -13.999 -125.992 -25.998q-68.9951 -11.999 -137.991 -11.999q-100.994 0 -185.989 22.498q-84.9941 22.499 -146.49 66.9961t-95.9941 109.493t-34.498 148.991q0 59.9961 22.498 111.493q22.499 51.4971 61.4971 98.9941q38.9971 47.4971 90.9941 93.9941 t110.993 95.4941q13.999 10.999 23.998 23.999q10 12.999 17.499 32.4971q7.5 19.499 11 46.998q3.49902 27.498 3.49902 67.4951q0 31.998 -1.49902 67.4961q-1.5 35.498 -6.5 66.4961zM558.03 1147.02q-35.9971 0 -63.9961 13.499q-27.998 13.499 -47.4971 35.498 t-29.498 49.9971t-9.99902 55.9961q0 25.999 8.49902 50.4971q8.5 24.499 26.498 42.998q17.999 18.498 45.998 29.998q27.998 11.499 65.9961 11.499q40.9971 0 70.9951 -12.499t49.4971 -32.498t28.998 -45.4971q9.5 -25.499 9.5 -52.4971t-10 -53.4971 q-9.99902 -26.498 -29.498 -47.4971q-19.499 -20.998 -48.4971 -33.498q-28.998 -12.499 -66.9961 -12.499z" />
<glyph unicode="&#xc0;" horiz-adv-x="1623" d="M636 1558l-294 346h308l170 -345q-46 0 -92 -0.5t-92 -0.5zM875 1411q54 -27 95 -61t61 -87q64 -173 118.5 -318t100 -268t83.5 -225t71 -189q11 -30 19 -50.5t14 -34.5t10.5 -22.5t8.5 -14.5q10 -2 21 -4t27 -3.5t38 -3t54 -3.5l27 -140q-106 9 -185 11t-131 2 q-19 0 -51.5 -0.5t-73.5 -2t-87.5 -4t-93.5 -6.5l-10 133q19 0 37 2t32.5 5t23.5 8.5t9 13.5q-5 30 -14.5 63.5t-22.5 68.5l-46 126h-461l-38 -121q-14 -42 -21 -72t-7 -55q0 -12 12 -19t28.5 -10.5t35 -5t32.5 -2.5l-17 -135q-55 8 -119 10.5t-138 2.5q-98 0 -173.5 -2.5 t-139.5 -10.5l33 137l37 2q34 0 57.5 9t39.5 25.5t27.5 40t22.5 52.5q43 117 98.5 260t115.5 297t122 310t118 299h107q31 0 52 -2t41 -6zM781 1144h-7l-193 -610h389q-21 67 -44.5 142.5t-47.5 154.5t-48.5 158.5t-48.5 154.5z" />
<glyph unicode="&#xc1;" horiz-adv-x="1623" d="M636 1558q30 59 54.5 107.5t44.5 90.5t37.5 78t33.5 69h320q-18 -23 -43 -52t-61 -70t-85.5 -95.5t-116.5 -127.5h-184zM875 1411q54 -27 95 -61t61 -87q64 -173 118.5 -318t100 -268t83.5 -225t71 -189q11 -30 19 -50.5t14 -34.5t10.5 -22.5t8.5 -14.5q10 -2 21 -4 t27 -3.5t38 -3t54 -3.5l27 -140q-106 9 -185 11t-131 2q-19 0 -51.5 -0.5t-73.5 -2t-87.5 -4t-93.5 -6.5l-10 133q19 0 37 2t32.5 5t23.5 8.5t9 13.5q-5 30 -14.5 63.5t-22.5 68.5l-46 126h-461l-38 -121q-14 -42 -21 -72t-7 -55q0 -12 12 -19t28.5 -10.5t35 -5t32.5 -2.5 l-17 -135q-55 8 -119 10.5t-138 2.5q-98 0 -173.5 -2.5t-139.5 -10.5l33 137l37 2q34 0 57.5 9t39.5 25.5t27.5 40t22.5 52.5q43 117 98.5 260t115.5 297t122 310t118 299h107q31 0 52 -2t41 -6zM781 1144h-7l-193 -610h389q-21 67 -44.5 142.5t-47.5 154.5t-48.5 158.5 t-48.5 154.5z" />
<glyph unicode="&#xc2;" horiz-adv-x="1623" d="M1071 1579q-6 -21 -51 -21h-142l-149 184l-146 -184h-145q-47 0 -53 21q3 12 8 24t13 21l188 270h268l166 -237q14 -20 27 -39t16 -39zM875 1411q54 -27 95 -61t61 -87q64 -173 118.5 -318t100 -268t83.5 -225t71 -189q11 -30 19 -50.5t14 -34.5t10.5 -22.5t8.5 -14.5 q10 -2 21 -4t27 -3.5t38 -3t54 -3.5l27 -140q-106 9 -185 11t-131 2q-19 0 -51.5 -0.5t-73.5 -2t-87.5 -4t-93.5 -6.5l-10 133q19 0 37 2t32.5 5t23.5 8.5t9 13.5q-5 30 -14.5 63.5t-22.5 68.5l-46 126h-461l-38 -121q-14 -42 -21 -72t-7 -55q0 -12 12 -19t28.5 -10.5t35 -5 t32.5 -2.5l-17 -135q-55 8 -119 10.5t-138 2.5q-98 0 -173.5 -2.5t-139.5 -10.5l33 137l37 2q34 0 57.5 9t39.5 25.5t27.5 40t22.5 52.5q43 117 98.5 260t115.5 297t122 310t118 299h107q31 0 52 -2t41 -6zM781 1144h-7l-193 -610h389q-21 67 -44.5 142.5t-47.5 154.5 t-48.5 158.5t-48.5 154.5z" />
<glyph unicode="&#xc3;" horiz-adv-x="1623" d="M779 1758q30 -15 57 -30t52 -15q20 0 38 9t33 23t27 32t21 35q29 -8 57.5 -18t56.5 -25q-55 -103 -114 -157t-131 -54q-51 0 -97 17.5t-93 41.5q-27 14 -46.5 23t-33.5 14.5t-23.5 7.5t-18.5 2q-23 0 -42 -11.5t-34.5 -27.5t-27 -32.5t-19.5 -26.5q-27 8 -53.5 18 t-52.5 25q26 58 56 97.5t61.5 64t65 35.5t66.5 11q56 0 102 -17.5t93 -41.5zM875 1411q54 -27 95 -61t61 -87q64 -173 118.5 -318t100 -268t83.5 -225t71 -189q11 -30 19 -50.5t14 -34.5t10.5 -22.5t8.5 -14.5q10 -2 21 -4t27 -3.5t38 -3t54 -3.5l27 -140q-106 9 -185 11 t-131 2q-19 0 -51.5 -0.5t-73.5 -2t-87.5 -4t-93.5 -6.5l-10 133q19 0 37 2t32.5 5t23.5 8.5t9 13.5q-5 30 -14.5 63.5t-22.5 68.5l-46 126h-461l-38 -121q-14 -42 -21 -72t-7 -55q0 -12 12 -19t28.5 -10.5t35 -5t32.5 -2.5l-17 -135q-55 8 -119 10.5t-138 2.5 q-98 0 -173.5 -2.5t-139.5 -10.5l33 137l37 2q34 0 57.5 9t39.5 25.5t27.5 40t22.5 52.5q43 117 98.5 260t115.5 297t122 310t118 299h107q31 0 52 -2t41 -6zM781 1144h-7l-193 -610h389q-21 67 -44.5 142.5t-47.5 154.5t-48.5 158.5t-48.5 154.5z" />
<glyph unicode="&#xc4;" horiz-adv-x="1623" d="M646 1715q0 -72 -45 -114.5t-120 -42.5t-120 42t-45 115q0 34 12.5 63t34.5 49t52.5 31.5t65.5 11.5q36 0 66.5 -11.5t52 -31.5t34 -49t12.5 -63zM1141 1715q0 -73 -45 -115t-120 -42t-120 42t-45 115q0 34 12.5 63t34.5 49t52.5 31.5t65.5 11.5q36 0 66.5 -11.5 t52 -31.5t34 -49t12.5 -63zM875 1411q54 -27 95 -61t61 -87q64 -173 118.5 -318t100 -268t83.5 -225t71 -189q11 -30 19 -50.5t14 -34.5t10.5 -22.5t8.5 -14.5q10 -2 21 -4t27 -3.5t38 -3t54 -3.5l27 -140q-106 9 -185 11t-131 2q-19 0 -51.5 -0.5t-73.5 -2t-87.5 -4 t-93.5 -6.5l-10 133q19 0 37 2t32.5 5t23.5 8.5t9 13.5q-5 30 -14.5 63.5t-22.5 68.5l-46 126h-461l-38 -121q-14 -42 -21 -72t-7 -55q0 -12 12 -19t28.5 -10.5t35 -5t32.5 -2.5l-17 -135q-55 8 -119 10.5t-138 2.5q-98 0 -173.5 -2.5t-139.5 -10.5l33 137l37 2q34 0 57.5 9 t39.5 25.5t27.5 40t22.5 52.5q43 117 98.5 260t115.5 297t122 310t118 299h107q31 0 52 -2t41 -6zM781 1144h-7l-193 -610h389q-21 67 -44.5 142.5t-47.5 154.5t-48.5 158.5t-48.5 154.5z" />
<glyph unicode="&#xc5;" horiz-adv-x="1623" d="M853 1629q0 56 -33.5 89t-90.5 33t-90.5 -33t-33.5 -89q0 -57 33 -89t91 -32q56 0 90 32t34 89zM948 1629q0 -47 -16.5 -85.5t-46 -65.5t-69.5 -41.5t-87 -14.5q-48 0 -88 15t-69 42t-45.5 65t-16.5 85q0 46 16.5 84t45.5 65t69 42t88 15q47 0 87 -15t69.5 -42t46 -65 t16.5 -84zM875 1411q54 -27 95 -61t61 -87q64 -173 118.5 -318t100 -268t83.5 -225t71 -189q11 -30 19 -50.5t14 -34.5t10.5 -22.5t8.5 -14.5q10 -2 21 -4t27 -3.5t38 -3t54 -3.5l27 -140q-106 9 -185 11t-131 2q-19 0 -51.5 -0.5t-73.5 -2t-87.5 -4t-93.5 -6.5l-10 133 q19 0 37 2t32.5 5t23.5 8.5t9 13.5q-5 30 -14.5 63.5t-22.5 68.5l-46 126h-461l-38 -121q-14 -42 -21 -72t-7 -55q0 -12 12 -19t28.5 -10.5t35 -5t32.5 -2.5l-17 -135q-55 8 -119 10.5t-138 2.5q-98 0 -173.5 -2.5t-139.5 -10.5l33 137l37 2q34 0 57.5 9t39.5 25.5t27.5 40 t22.5 52.5q43 117 98.5 260t115.5 297t122 310t118 299h107q31 0 52 -2t41 -6zM781 1144h-7l-193 -610h389q-21 67 -44.5 142.5t-47.5 154.5t-48.5 158.5t-48.5 154.5z" />
<glyph unicode="&#xc6;" horiz-adv-x="2154" d="M619 534h388l-141 562zM1320 0q-30 0 -69 -1t-82.5 -2.5t-89 -4t-88.5 -5.5v133l42 4q10 0 21 1.5t21 3.5t16.5 6.5t6.5 10.5q0 5 -0.5 10.5t-1.5 13.5q-9 51 -25.5 114t-31.5 123h-460l-60 -149q-13 -32 -20.5 -56.5t-7.5 -41.5q0 -14 12 -21t29 -10.5t35 -4.5t30 -2 l-28 -135q-60 8 -135 10.5t-165 2.5q-81 0 -145 -2.5t-124 -10.5l44 137l37 2q25 2 45.5 5t40.5 11q21 18 37 48t32 67q21 49 54.5 120.5t75.5 160t92 192t103.5 215.5t109.5 230.5t111 237.5h964l63 -129q23 -49 45 -97t37 -80l-177 -17q-17 36 -35 72.5t-44 72.5 q-55 14 -118 19t-144 5q-42 0 -99.5 -0.5t-143.5 -1.5l133 -469h189q50 0 85 22q10 4 18.5 10t14.5 17t9.5 28.5t3.5 44.5h99q30 -100 57.5 -199.5t53.5 -193.5q-9 -1 -18 -1h-18q-17 0 -34.5 0.5t-34.5 0.5q-21 37 -38 62t-32.5 41t-32.5 23t-38 7h-242l143 -504h303 q32 0 63 0.5t57.5 2.5t46.5 7t31 14q0 18 -1.5 35t-4 36.5t-6.5 44t-9 57.5q51 0 97 -1t97 -1q21 -78 42.5 -162t40.5 -161q-42 -7 -85 -12t-89.5 -8t-100 -4.5t-116.5 -1.5q-128 0 -247.5 4t-246.5 4z" />
<glyph unicode="&#xc7;" horiz-adv-x="1446" d="M1351 263l19 -167q-111 -65 -241.5 -98.5t-286.5 -33.5q-163 0 -297 45.5t-229.5 135t-148 222t-52.5 306.5q0 184 50.5 326.5t146.5 239.5t235.5 147t317.5 50q73 0 142 -9t131.5 -25t115.5 -37.5t94 -45.5l-23 -310h-190q-12 51 -33.5 101t-54.5 89.5t-79 64.5t-107 25 q-103 0 -178.5 -40.5t-125.5 -115.5t-74.5 -181t-24.5 -237q0 -294 106 -441t299 -147q65 0 126 10t121 28t119.5 43t121.5 55zM508 -366q36 -11 70.5 -17.5t63.5 -6.5q62 0 98 25.5t36 73.5q0 52 -26 78.5t-74 34.5q-6 0 -15 -2.5t-22 -5.5q-11 7 -24.5 12t-26.5 11l85 174 h101l-56 -107q53 -3 94.5 -13t70.5 -30.5t44.5 -53t15.5 -79.5q0 -57 -18.5 -99.5t-52.5 -70.5t-81.5 -42t-105.5 -14q-60 0 -104 11t-73 30q-6 16 -6 40t6 51z" />
<glyph unicode="&#xc8;" horiz-adv-x="1409" d="M874 1558l-294 346h308l170 -345q-46 0 -92 -0.5t-92 -0.5zM664 1413h603l25 -129q9 -49 17 -97t13 -80l-184 -17q-6 36 -13.5 72t-21.5 73q-49 13 -106 18.5t-130 5.5h-42.5t-54.5 -0.5t-72 -1.5t-95 -2v-467h232q32 0 51.5 5t32 18.5t21 37.5t18.5 61h100 q0 -100 -2 -199.5t-5 -193.5q-9 -1 -18 -1h-18q-17 0 -34.5 0.5t-34.5 0.5q-11 40 -20.5 66t-21 41t-25.5 20.5t-33 5.5h-243v-504h371q47 0 82.5 6.5t52.5 17.5q8 22 15 63t15 110q44 -1 92.5 -1.5t101.5 -0.5l-3 -127q-2 -50 -4.5 -101.5t-5.5 -94.5q-44 -7 -87.5 -12 t-91.5 -8t-101.5 -4.5t-116.5 -1.5q-77 0 -145 1t-131 2.5t-121.5 3t-115.5 1.5q-94 0 -174.5 -1t-161.5 -6v153h112q24 0 45.5 0.5t41.5 3.5q5 20 8 44.5t3 56.5v893q0 34 -3.5 59t-8.5 45q-19 4 -40 4.5t-45 0.5h-119v133q140 15 290.5 21t305.5 6z" />
<glyph unicode="&#xc9;" horiz-adv-x="1409" d="M874 1558q30 59 54.5 107.5t44.5 90.5t37.5 78t33.5 69h320q-18 -23 -43 -52t-61 -70t-85.5 -95.5t-116.5 -127.5h-184zM664 1413h603l25 -129q9 -49 17 -97t13 -80l-184 -17q-6 36 -13.5 72t-21.5 73q-49 13 -106 18.5t-130 5.5h-42.5t-54.5 -0.5t-72 -1.5t-95 -2v-467 h232q32 0 51.5 5t32 18.5t21 37.5t18.5 61h100q0 -100 -2 -199.5t-5 -193.5q-9 -1 -18 -1h-18q-17 0 -34.5 0.5t-34.5 0.5q-11 40 -20.5 66t-21 41t-25.5 20.5t-33 5.5h-243v-504h371q47 0 82.5 6.5t52.5 17.5q8 22 15 63t15 110q44 -1 92.5 -1.5t101.5 -0.5l-3 -127 q-2 -50 -4.5 -101.5t-5.5 -94.5q-44 -7 -87.5 -12t-91.5 -8t-101.5 -4.5t-116.5 -1.5q-77 0 -145 1t-131 2.5t-121.5 3t-115.5 1.5q-94 0 -174.5 -1t-161.5 -6v153h112q24 0 45.5 0.5t41.5 3.5q5 20 8 44.5t3 56.5v893q0 34 -3.5 59t-8.5 45q-19 4 -40 4.5t-45 0.5h-119v133 q140 15 290.5 21t305.5 6z" />
<glyph unicode="&#xca;" horiz-adv-x="1409" d="M1309 1579q-6 -21 -51 -21h-142l-149 184l-146 -184h-145q-47 0 -53 21q3 12 8 24t13 21l188 270h268l166 -237q14 -20 27 -39t16 -39zM664 1413h603l25 -129q9 -49 17 -97t13 -80l-184 -17q-6 36 -13.5 72t-21.5 73q-49 13 -106 18.5t-130 5.5h-42.5t-54.5 -0.5 t-72 -1.5t-95 -2v-467h232q32 0 51.5 5t32 18.5t21 37.5t18.5 61h100q0 -100 -2 -199.5t-5 -193.5q-9 -1 -18 -1h-18q-17 0 -34.5 0.5t-34.5 0.5q-11 40 -20.5 66t-21 41t-25.5 20.5t-33 5.5h-243v-504h371q47 0 82.5 6.5t52.5 17.5q8 22 15 63t15 110q44 -1 92.5 -1.5 t101.5 -0.5l-3 -127q-2 -50 -4.5 -101.5t-5.5 -94.5q-44 -7 -87.5 -12t-91.5 -8t-101.5 -4.5t-116.5 -1.5q-77 0 -145 1t-131 2.5t-121.5 3t-115.5 1.5q-94 0 -174.5 -1t-161.5 -6v153h112q24 0 45.5 0.5t41.5 3.5q5 20 8 44.5t3 56.5v893q0 34 -3.5 59t-8.5 45 q-19 4 -40 4.5t-45 0.5h-119v133q140 15 290.5 21t305.5 6z" />
<glyph unicode="&#xcb;" horiz-adv-x="1409" d="M883 1715q0 -72 -45 -114.5t-120 -42.5t-120 42t-45 115q0 34 12.5 63t34.5 49t52.5 31.5t65.5 11.5q36 0 66.5 -11.5t52 -31.5t34 -49t12.5 -63zM1378 1715q0 -73 -45 -115t-120 -42t-120 42t-45 115q0 34 12.5 63t34.5 49t52.5 31.5t65.5 11.5q36 0 66.5 -11.5 t52 -31.5t34 -49t12.5 -63zM664 1413h603l25 -129q9 -49 17 -97t13 -80l-184 -17q-6 36 -13.5 72t-21.5 73q-49 13 -106 18.5t-130 5.5h-42.5t-54.5 -0.5t-72 -1.5t-95 -2v-467h232q32 0 51.5 5t32 18.5t21 37.5t18.5 61h100q0 -100 -2 -199.5t-5 -193.5q-9 -1 -18 -1h-18 q-17 0 -34.5 0.5t-34.5 0.5q-11 40 -20.5 66t-21 41t-25.5 20.5t-33 5.5h-243v-504h371q47 0 82.5 6.5t52.5 17.5q8 22 15 63t15 110q44 -1 92.5 -1.5t101.5 -0.5l-3 -127q-2 -50 -4.5 -101.5t-5.5 -94.5q-44 -7 -87.5 -12t-91.5 -8t-101.5 -4.5t-116.5 -1.5q-77 0 -145 1 t-131 2.5t-121.5 3t-115.5 1.5q-94 0 -174.5 -1t-161.5 -6v153h112q24 0 45.5 0.5t41.5 3.5q5 20 8 44.5t3 56.5v893q0 34 -3.5 59t-8.5 45q-19 4 -40 4.5t-45 0.5h-119v133q140 15 290.5 21t305.5 6z" />
<glyph unicode="&#xcc;" horiz-adv-x="857" d="M326 1558l-294 346h308l170 -345q-46 0 -92 -0.5t-92 -0.5zM68 -13v159h106q23 0 43.5 0.5t40.5 3.5q11 39 11 107v865q0 50 -2 82t-9 56q-19 4 -39.5 4.5t-43.5 0.5h-107v135q88 10 173.5 14.5t176.5 4.5q114 0 206.5 -3t164.5 -13v-138h-107q-23 0 -43.5 -0.5 t-40.5 -4.5q-5 -20 -7.5 -44.5t-2.5 -59.5v-897q0 -35 2.5 -61.5t7.5 -47.5q20 -3 40.5 -3.5t43.5 -0.5h106v-159q-94 8 -177 10.5t-158 2.5q-91 0 -185 -2.5t-200 -10.5z" />
<glyph unicode="&#xcd;" horiz-adv-x="857" d="M326 1558q30 59 54.5 107.5t44.5 90.5t37.5 78t33.5 69h320q-18 -23 -43 -52t-61 -70t-85.5 -95.5t-116.5 -127.5h-184zM68 -13v159h106q23 0 43.5 0.5t40.5 3.5q11 39 11 107v865q0 50 -2 82t-9 56q-19 4 -39.5 4.5t-43.5 0.5h-107v135q88 10 173.5 14.5t176.5 4.5 q114 0 206.5 -3t164.5 -13v-138h-107q-23 0 -43.5 -0.5t-40.5 -4.5q-5 -20 -7.5 -44.5t-2.5 -59.5v-897q0 -35 2.5 -61.5t7.5 -47.5q20 -3 40.5 -3.5t43.5 -0.5h106v-159q-94 8 -177 10.5t-158 2.5q-91 0 -185 -2.5t-200 -10.5z" />
<glyph unicode="&#xce;" horiz-adv-x="857" d="M761 1579q-6 -21 -51 -21h-142l-149 184l-146 -184h-145q-47 0 -53 21q3 12 8 24t13 21l188 270h268l166 -237q14 -20 27 -39t16 -39zM68 -13v159h106q23 0 43.5 0.5t40.5 3.5q11 39 11 107v865q0 50 -2 82t-9 56q-19 4 -39.5 4.5t-43.5 0.5h-107v135q88 10 173.5 14.5 t176.5 4.5q114 0 206.5 -3t164.5 -13v-138h-107q-23 0 -43.5 -0.5t-40.5 -4.5q-5 -20 -7.5 -44.5t-2.5 -59.5v-897q0 -35 2.5 -61.5t7.5 -47.5q20 -3 40.5 -3.5t43.5 -0.5h106v-159q-94 8 -177 10.5t-158 2.5q-91 0 -185 -2.5t-200 -10.5z" />
<glyph unicode="&#xcf;" horiz-adv-x="857" d="M335 1715q0 -72 -45 -114.5t-120 -42.5t-120 42t-45 115q0 34 12.5 63t34.5 49t52.5 31.5t65.5 11.5q36 0 66.5 -11.5t52 -31.5t34 -49t12.5 -63zM830 1715q0 -73 -45 -115t-120 -42t-120 42t-45 115q0 34 12.5 63t34.5 49t52.5 31.5t65.5 11.5q36 0 66.5 -11.5t52 -31.5 t34 -49t12.5 -63zM68 -13v159h106q23 0 43.5 0.5t40.5 3.5q11 39 11 107v865q0 50 -2 82t-9 56q-19 4 -39.5 4.5t-43.5 0.5h-107v135q88 10 173.5 14.5t176.5 4.5q114 0 206.5 -3t164.5 -13v-138h-107q-23 0 -43.5 -0.5t-40.5 -4.5q-5 -20 -7.5 -44.5t-2.5 -59.5v-897 q0 -35 2.5 -61.5t7.5 -47.5q20 -3 40.5 -3.5t43.5 -0.5h106v-159q-94 8 -177 10.5t-158 2.5q-91 0 -185 -2.5t-200 -10.5z" />
<glyph unicode="&#xd0;" horiz-adv-x="1663" d="M259 622h-201v48t-0.5 25.5t-0.5 11v3.5q0 28 15 43.5t34.5 23t39.5 9t31 1.5h13h30t63.5 0.5t114.5 0.5h184h271v-80q0 -13 -6 -28t-19.5 -28t-37 -21.5t-57.5 -8.5h-474zM599 1262v-1114q10 -2 19.5 -2h19.5q149 0 256.5 28t176.5 93.5t102 172t33 263.5q0 145 -23 251 t-74.5 175t-135.5 102.5t-205 33.5q-40 0 -81.5 -1.5t-87.5 -1.5zM594 0q-131 0 -258 -2.5t-257 -4.5v146l76 1q24 0 47 1.5t45 6.5q22 13 28 44t6 75v853q0 40 -3.5 71.5t-8.5 57.5q-23 4 -48.5 4.5t-52.5 0.5h-100v138q153 14 333 21.5t399 7.5q171 0 309 -37.5 t235.5 -123t150.5 -223.5t53 -340q0 -147 -32.5 -255.5t-92 -186t-145 -127t-191.5 -78t-230.5 -39.5t-262.5 -11z" />
<glyph unicode="&#xd1;" horiz-adv-x="1708" d="M1378 1758q30 -15 57 -30t52 -15q20 0 38 9t33 23t27 32t21 35q29 -8 57.5 -18t56.5 -25q-55 -103 -114 -157t-131 -54q-51 0 -97 17.5t-93 41.5q-27 14 -46.5 23t-33.5 14.5t-23.5 7.5t-18.5 2q-23 0 -42 -11.5t-34.5 -27.5t-27 -32.5t-19.5 -26.5q-27 8 -53.5 18 t-52.5 25q26 58 56 97.5t61.5 64t65 35.5t66.5 11q56 0 102 -17.5t93 -41.5zM290 257q0 226 -0.5 448.5t-0.5 447.5q0 70 -10 107q-20 4 -42 4.5t-45 0.5h-124v132q43 4 84.5 8t84.5 7t89 4.5t99 1.5q45 0 88 -3t91 -14q71 -108 147.5 -226t156.5 -242t162 -252.5 t163 -257.5q0 49 -0.5 110t-1 128t-1.5 136.5t-1.5 134t-1.5 122t-1 99.5q0 73 -12 108q-20 3 -41.5 4t-44.5 1h-118v136q63 9 140.5 13t176.5 4q90 0 172 -2.5t152 -11.5v-139h-86q-26 0 -50 -1t-47 -4q-10 -37 -10 -107q-1 -138 -2.5 -285.5t-3.5 -296.5t-4.5 -296 t-4.5 -283h-129q-44 0 -83 2.5t-85 13.5l-618 975q1 -61 2 -143t2 -176.5t2 -198t2 -206.5q0 -30 3 -61.5t7 -48.5q19 -3 40.5 -3.5t44.5 -0.5h111v-160q-94 9 -171.5 11.5t-144.5 2.5q-81 0 -165 -2.5t-181 -11.5v160h112q23 0 45 0.5t42 3.5q11 36 11 107z" />
<glyph unicode="&#xd2;" horiz-adv-x="1625" d="M721 1558l-294 346h308l170 -345q-46 0 -92 -0.5t-92 -0.5zM1510 702q0 -173 -48.5 -308.5t-139.5 -230t-220 -144t-289 -49.5q-163 0 -292.5 50.5t-220 145t-138.5 230t-48 306.5q0 175 48.5 311.5t139 230.5t220 143t291.5 49t291 -49.5t219.5 -144t138.5 -231 t48 -309.5zM456 699q0 -278 89 -426t268 -148q85 0 151 35t111.5 106.5t69 180t23.5 255.5q0 289 -92 434.5t-263 145.5q-170 0 -263.5 -144.5t-93.5 -438.5z" />
<glyph unicode="&#xd3;" horiz-adv-x="1625" d="M721 1558q30 59 54.5 107.5t44.5 90.5t37.5 78t33.5 69h320q-18 -23 -43 -52t-61 -70t-85.5 -95.5t-116.5 -127.5h-184zM1510 702q0 -173 -48.5 -308.5t-139.5 -230t-220 -144t-289 -49.5q-163 0 -292.5 50.5t-220 145t-138.5 230t-48 306.5q0 175 48.5 311.5t139 230.5 t220 143t291.5 49t291 -49.5t219.5 -144t138.5 -231t48 -309.5zM456 699q0 -278 89 -426t268 -148q85 0 151 35t111.5 106.5t69 180t23.5 255.5q0 289 -92 434.5t-263 145.5q-170 0 -263.5 -144.5t-93.5 -438.5z" />
<glyph unicode="&#xd4;" horiz-adv-x="1625" d="M1156 1579q-6 -21 -51 -21h-142l-149 184l-146 -184h-145q-47 0 -53 21q3 12 8 24t13 21l188 270h268l166 -237q14 -20 27 -39t16 -39zM1510 702q0 -173 -48.5 -308.5t-139.5 -230t-220 -144t-289 -49.5q-163 0 -292.5 50.5t-220 145t-138.5 230t-48 306.5 q0 175 48.5 311.5t139 230.5t220 143t291.5 49t291 -49.5t219.5 -144t138.5 -231t48 -309.5zM456 699q0 -278 89 -426t268 -148q85 0 151 35t111.5 106.5t69 180t23.5 255.5q0 289 -92 434.5t-263 145.5q-170 0 -263.5 -144.5t-93.5 -438.5z" />
<glyph unicode="&#xd5;" horiz-adv-x="1625" d="M864 1758q30 -15 57 -30t52 -15q20 0 38 9t33 23t27 32t21 35q29 -8 57.5 -18t56.5 -25q-55 -103 -114 -157t-131 -54q-51 0 -97 17.5t-93 41.5q-27 14 -46.5 23t-33.5 14.5t-23.5 7.5t-18.5 2q-23 0 -42 -11.5t-34.5 -27.5t-27 -32.5t-19.5 -26.5q-27 8 -53.5 18 t-52.5 25q26 58 56 97.5t61.5 64t65 35.5t66.5 11q56 0 102 -17.5t93 -41.5zM1510 702q0 -173 -48.5 -308.5t-139.5 -230t-220 -144t-289 -49.5q-163 0 -292.5 50.5t-220 145t-138.5 230t-48 306.5q0 175 48.5 311.5t139 230.5t220 143t291.5 49t291 -49.5t219.5 -144 t138.5 -231t48 -309.5zM456 699q0 -278 89 -426t268 -148q85 0 151 35t111.5 106.5t69 180t23.5 255.5q0 289 -92 434.5t-263 145.5q-170 0 -263.5 -144.5t-93.5 -438.5z" />
<glyph unicode="&#xd6;" horiz-adv-x="1625" d="M731 1715q0 -72 -45 -114.5t-120 -42.5t-120 42t-45 115q0 34 12.5 63t34.5 49t52.5 31.5t65.5 11.5q36 0 66.5 -11.5t52 -31.5t34 -49t12.5 -63zM1226 1715q0 -73 -45 -115t-120 -42t-120 42t-45 115q0 34 12.5 63t34.5 49t52.5 31.5t65.5 11.5q36 0 66.5 -11.5 t52 -31.5t34 -49t12.5 -63zM1510 702q0 -173 -48.5 -308.5t-139.5 -230t-220 -144t-289 -49.5q-163 0 -292.5 50.5t-220 145t-138.5 230t-48 306.5q0 175 48.5 311.5t139 230.5t220 143t291.5 49t291 -49.5t219.5 -144t138.5 -231t48 -309.5zM456 699q0 -278 89 -426 t268 -148q85 0 151 35t111.5 106.5t69 180t23.5 255.5q0 289 -92 434.5t-263 145.5q-170 0 -263.5 -144.5t-93.5 -438.5z" />
<glyph unicode="&#xd7;" d="M313 1116l332 -334l347 349l130 -138l-341 -348l347 -348l-137 -128l-346 339l-346 -346l-131 134l340 349l-346 347z" />
<glyph unicode="&#xd8;" horiz-adv-x="1564" d="M813 124q85 0 151 35.5t111.5 107t69 180t23.5 255.5q0 252 -70 395l-468 -920q76 -53 183 -53zM456 699q0 -273 86 -421l473 933q-82 71 -202 71q-170 0 -263.5 -144.5t-93.5 -438.5zM1510 702q0 -173 -48.5 -308.5t-139.5 -230t-220 -144t-289 -49.5q-75 0 -137 12 t-124 33l-50 -93q-12 -2 -23 -3.5t-22 -1.5q-25 0 -40.5 9t-27.5 36l51 104q-155 88 -240.5 247t-85.5 389q0 175 48.5 311.5t139 230.5t220 143t291.5 49q80 0 149.5 -14t135.5 -40l54 100q24 7 49 7q21 0 37 -8t28 -34l-59 -121q145 -84 224 -243t79 -381z" />
<glyph unicode="&#xd9;" horiz-adv-x="1659" d="M736 1558l-294 346h308l170 -345q-46 0 -92 -0.5t-92 -0.5zM1425 1153v-638q0 -140 -46.5 -242.5t-128 -169.5t-192 -100t-237.5 -33q-153 0 -264 40.5t-183 118.5t-106.5 192t-34.5 261v571q0 69 -11 107q-23 4 -47.5 4.5t-51.5 0.5h-91v141q80 6 160 9.5t166 3.5 q73 0 130.5 -0.5t103.5 -2t82.5 -4.5t66.5 -7v-140h-86q-25 0 -47.5 -0.5t-43.5 -4.5q-10 -44 -10 -107q0 -162 -0.5 -323t-0.5 -323q0 -93 20.5 -164t58.5 -120t93.5 -74t124.5 -25q82 0 139.5 31t93.5 89.5t52.5 142.5t16.5 190v576q0 69 -11 107q-20 4 -42.5 4.5 t-46.5 0.5h-82v141q76 7 156 10t172 3q58 0 106 -0.5t88 -2t73 -4.5t62 -7v-140h-93q-26 0 -51 -0.5t-47 -4.5q-5 -20 -8 -46t-3 -61z" />
<glyph unicode="&#xda;" horiz-adv-x="1659" d="M736 1558q30 59 54.5 107.5t44.5 90.5t37.5 78t33.5 69h320q-18 -23 -43 -52t-61 -70t-85.5 -95.5t-116.5 -127.5h-184zM1425 1153v-638q0 -140 -46.5 -242.5t-128 -169.5t-192 -100t-237.5 -33q-153 0 -264 40.5t-183 118.5t-106.5 192t-34.5 261v571q0 69 -11 107 q-23 4 -47.5 4.5t-51.5 0.5h-91v141q80 6 160 9.5t166 3.5q73 0 130.5 -0.5t103.5 -2t82.5 -4.5t66.5 -7v-140h-86q-25 0 -47.5 -0.5t-43.5 -4.5q-10 -44 -10 -107q0 -162 -0.5 -323t-0.5 -323q0 -93 20.5 -164t58.5 -120t93.5 -74t124.5 -25q82 0 139.5 31t93.5 89.5 t52.5 142.5t16.5 190v576q0 69 -11 107q-20 4 -42.5 4.5t-46.5 0.5h-82v141q76 7 156 10t172 3q58 0 106 -0.5t88 -2t73 -4.5t62 -7v-140h-93q-26 0 -51 -0.5t-47 -4.5q-5 -20 -8 -46t-3 -61z" />
<glyph unicode="&#xdb;" horiz-adv-x="1659" d="M1171 1579q-6 -21 -51 -21h-142l-149 184l-146 -184h-145q-47 0 -53 21q3 12 8 24t13 21l188 270h268l166 -237q14 -20 27 -39t16 -39zM1425 1153v-638q0 -140 -46.5 -242.5t-128 -169.5t-192 -100t-237.5 -33q-153 0 -264 40.5t-183 118.5t-106.5 192t-34.5 261v571 q0 69 -11 107q-23 4 -47.5 4.5t-51.5 0.5h-91v141q80 6 160 9.5t166 3.5q73 0 130.5 -0.5t103.5 -2t82.5 -4.5t66.5 -7v-140h-86q-25 0 -47.5 -0.5t-43.5 -4.5q-10 -44 -10 -107q0 -162 -0.5 -323t-0.5 -323q0 -93 20.5 -164t58.5 -120t93.5 -74t124.5 -25q82 0 139.5 31 t93.5 89.5t52.5 142.5t16.5 190v576q0 69 -11 107q-20 4 -42.5 4.5t-46.5 0.5h-82v141q76 7 156 10t172 3q58 0 106 -0.5t88 -2t73 -4.5t62 -7v-140h-93q-26 0 -51 -0.5t-47 -4.5q-5 -20 -8 -46t-3 -61z" />
<glyph unicode="&#xdc;" horiz-adv-x="1659" d="M745 1715q0 -72 -45 -114.5t-120 -42.5t-120 42t-45 115q0 34 12.5 63t34.5 49t52.5 31.5t65.5 11.5q36 0 66.5 -11.5t52 -31.5t34 -49t12.5 -63zM1240 1715q0 -73 -45 -115t-120 -42t-120 42t-45 115q0 34 12.5 63t34.5 49t52.5 31.5t65.5 11.5q36 0 66.5 -11.5 t52 -31.5t34 -49t12.5 -63zM1425 1153v-638q0 -140 -46.5 -242.5t-128 -169.5t-192 -100t-237.5 -33q-153 0 -264 40.5t-183 118.5t-106.5 192t-34.5 261v571q0 69 -11 107q-23 4 -47.5 4.5t-51.5 0.5h-91v141q80 6 160 9.5t166 3.5q73 0 130.5 -0.5t103.5 -2t82.5 -4.5 t66.5 -7v-140h-86q-25 0 -47.5 -0.5t-43.5 -4.5q-10 -44 -10 -107q0 -162 -0.5 -323t-0.5 -323q0 -93 20.5 -164t58.5 -120t93.5 -74t124.5 -25q82 0 139.5 31t93.5 89.5t52.5 142.5t16.5 190v576q0 69 -11 107q-20 4 -42.5 4.5t-46.5 0.5h-82v141q76 7 156 10t172 3 q58 0 106 -0.5t88 -2t73 -4.5t62 -7v-140h-93q-26 0 -51 -0.5t-47 -4.5q-5 -20 -8 -46t-3 -61z" />
<glyph unicode="&#xdd;" horiz-adv-x="1582" d="M701 1558q30 59 54.5 107.5t44.5 90.5t37.5 78t33.5 69h320q-18 -23 -43 -52t-61 -70t-85.5 -95.5t-116.5 -127.5h-184zM1085 1153q14 30 21.5 55.5t12.5 51.5q-16 4 -35 4.5t-41 0.5h-87l29 140q69 8 144.5 11t163.5 3q52 0 94 -1t77 -2.5t64.5 -4t56.5 -6.5l-32 -140 h-91q-21 0 -40.5 -0.5t-39.5 -4.5q-17 -23 -23 -30.5t-7.5 -10t-1.5 -3.5t-4 -10.5t-15 -32t-35.5 -66.5t-64.5 -115t-102 -177l-173 -300v-239q0 -42 2.5 -75.5t7.5 -59.5q20 -3 40.5 -4t43.5 -1h107v-149q-94 8 -177 10.5t-160 2.5q-91 0 -185 -2.5t-199 -10.5v149h106 q23 0 43 0.5t40 4.5q10 34 10 96v253q-12 19 -21.5 38t-20.5 38l-349 587q-13 21 -22 38t-16.5 30.5t-14 23t-15.5 15.5q-20 4 -41.5 4.5t-44.5 0.5h-69l-26 140q72 7 145.5 10.5t152.5 3.5q70 0 127 -0.5t104.5 -2t86.5 -4.5t73 -7l16 -140h-67q-23 0 -44 -0.5t-38 -4.5 q8 -32 16.5 -51.5t19.5 -39.5l267 -465q33 59 67 124.5t65.5 126.5t57.5 113t41 85z" />
<glyph unicode="&#xde;" horiz-adv-x="1300" d="M710 1019h-55.5t-50.5 -2v-534q10 -1 21 -1h23h51q82 0 137.5 18.5t90 53t49.5 84t15 111.5q0 72 -16 123t-50.5 83.5t-87.5 48t-127 15.5zM285 243q0 232 -0.5 461t-0.5 461q0 68 -10 107q-26 5 -54.5 5.5t-59.5 0.5h-76v116q34 5 68.5 9t74.5 7t89 4.5t111 1.5 q112 0 207 -4.5t172 -15.5v-118h-107q-23 0 -43.5 -0.5t-40.5 -5.5q-5 -18 -7.5 -43t-2.5 -57q32 1 64.5 1h66.5q128 0 234.5 -20t183.5 -68.5t120 -130t43 -204.5q0 -101 -37.5 -178.5t-115 -130.5t-196.5 -80.5t-282 -27.5q-18 0 -38 0.5t-43 2.5q0 -67 1.5 -122t8.5 -78 q19 -3 40 -4t44 -1h107v-136q-131 -3 -273 -3q-112 0 -221 1.5t-227 3.5v134h105q23 0 44 0.5t40 4.5q11 36 11 107z" />
<glyph unicode="&#xdf;" horiz-adv-x="1383" d="M505 997v-729q0 -64 2 -119.5t2 -112.5q-8 -28 -36 -36.5t-57 -8.5q-97 0 -197.5 1.5t-206.5 5.5l5 129h61q29 0 55.5 3.5t49.5 9.5q8 28 9 66.5t1 83.5v615q-9 -1 -27 -1h-38h-66q0 50 15.5 67.5t59.5 17.5q14 0 28 -0.5t28 -0.5q2 126 42.5 220t111 157t165.5 94.5 t207 31.5q117 0 208.5 -24.5t155 -73t96.5 -120.5t33 -168q0 -33 -4.5 -58.5t-14.5 -47.5t-25 -43t-37 -44q-26 8 -53.5 12t-52.5 4q-78 0 -119 -33t-41 -86q0 -37 14 -64t38.5 -47.5t57.5 -36t72 -29.5q67 -24 124 -51t99 -63.5t65.5 -86t23.5 -118.5q0 -90 -37 -154 t-96.5 -104t-134 -58.5t-148.5 -18.5q-41 0 -86.5 6t-89.5 15.5t-83.5 22t-67.5 24.5q2 26 8 57t12 58l26 125l111 -39q22 -69 61.5 -103.5t103.5 -34.5q35 0 63 12.5t47 34t29 50.5t10 62q0 40 -20.5 69t-58 55.5t-89.5 54.5t-116 67q-42 25 -74 52t-53.5 58.5t-32.5 69.5 t-11 86q0 58 15.5 101t47.5 73t80 49.5t113 30.5q26 28 39.5 62t13.5 74q0 51 -15 89t-42 63.5t-64 38.5t-81 13q-60 0 -104.5 -26t-73 -74.5t-42.5 -118.5t-14 -158z" />
<glyph unicode="&#xe0;" d="M494 1157l-294 346h308l170 -345q-46 0 -92 -0.5t-92 -0.5zM1213 123v-97q-63 -19 -139.5 -27.5t-164.5 -8.5q-30 0 -55 3.5t-45 12.5q-44 37 -65 103q-60 -59 -135 -95.5t-171 -36.5q-75 0 -138 19t-108 56t-70 92t-25 128q0 160 136.5 240.5t415.5 80.5h86v52 q0 138 -27.5 200t-96.5 62q-45 0 -86 -16t-78 -44.5t-70.5 -67.5t-64.5 -84l-188 120q4 45 42.5 85t101.5 70t145 47t173 17q229 0 345 -93t116 -298v-44.5t-0.5 -65t-0.5 -103v-159.5q0 -53 3.5 -89t8.5 -58q17 -1 35.5 -1h37.5h82zM727 198q3 61 5.5 129.5t2.5 149.5h-96 q-112 0 -172.5 -51t-60.5 -145q0 -85 37.5 -123.5t98.5 -38.5q45 0 92 21.5t93 57.5z" />
<glyph unicode="&#xe1;" d="M494 1157q30 59 54.5 107.5t44.5 90.5t37.5 78t33.5 69h320q-18 -23 -43 -52t-61 -70t-85.5 -95.5t-116.5 -127.5h-184zM1213 123v-97q-63 -19 -139.5 -27.5t-164.5 -8.5q-30 0 -55 3.5t-45 12.5q-44 37 -65 103q-60 -59 -135 -95.5t-171 -36.5q-75 0 -138 19t-108 56 t-70 92t-25 128q0 160 136.5 240.5t415.5 80.5h86v52q0 138 -27.5 200t-96.5 62q-45 0 -86 -16t-78 -44.5t-70.5 -67.5t-64.5 -84l-188 120q4 45 42.5 85t101.5 70t145 47t173 17q229 0 345 -93t116 -298v-44.5t-0.5 -65t-0.5 -103v-159.5q0 -53 3.5 -89t8.5 -58 q17 -1 35.5 -1h37.5h82zM727 198q3 61 5.5 129.5t2.5 149.5h-96q-112 0 -172.5 -51t-60.5 -145q0 -85 37.5 -123.5t98.5 -38.5q45 0 92 21.5t93 57.5z" />
<glyph unicode="&#xe2;" d="M929 1178q-6 -21 -51 -21h-142l-149 184l-146 -184h-145q-47 0 -53 21q3 12 8 24t13 21l188 270h268l166 -237q14 -20 27 -39t16 -39zM1213 123v-97q-63 -19 -139.5 -27.5t-164.5 -8.5q-30 0 -55 3.5t-45 12.5q-44 37 -65 103q-60 -59 -135 -95.5t-171 -36.5 q-75 0 -138 19t-108 56t-70 92t-25 128q0 160 136.5 240.5t415.5 80.5h86v52q0 138 -27.5 200t-96.5 62q-45 0 -86 -16t-78 -44.5t-70.5 -67.5t-64.5 -84l-188 120q4 45 42.5 85t101.5 70t145 47t173 17q229 0 345 -93t116 -298v-44.5t-0.5 -65t-0.5 -103v-159.5 q0 -53 3.5 -89t8.5 -58q17 -1 35.5 -1h37.5h82zM727 198q3 61 5.5 129.5t2.5 149.5h-96q-112 0 -172.5 -51t-60.5 -145q0 -85 37.5 -123.5t98.5 -38.5q45 0 92 21.5t93 57.5z" />
<glyph unicode="&#xe3;" d="M637 1357q30 -15 57 -30t52 -15q20 0 38 9t33 23t27 32t21 35q29 -8 57.5 -18t56.5 -25q-55 -103 -114 -157t-131 -54q-51 0 -97 17.5t-93 41.5q-27 14 -46.5 23t-33.5 14.5t-23.5 7.5t-18.5 2q-23 0 -42 -11.5t-34.5 -27.5t-27 -32.5t-19.5 -26.5q-27 8 -53.5 18 t-52.5 25q26 58 56 97.5t61.5 64t65 35.5t66.5 11q56 0 102 -17.5t93 -41.5zM1213 123v-97q-63 -19 -139.5 -27.5t-164.5 -8.5q-30 0 -55 3.5t-45 12.5q-44 37 -65 103q-60 -59 -135 -95.5t-171 -36.5q-75 0 -138 19t-108 56t-70 92t-25 128q0 160 136.5 240.5t415.5 80.5 h86v52q0 138 -27.5 200t-96.5 62q-45 0 -86 -16t-78 -44.5t-70.5 -67.5t-64.5 -84l-188 120q4 45 42.5 85t101.5 70t145 47t173 17q229 0 345 -93t116 -298v-44.5t-0.5 -65t-0.5 -103v-159.5q0 -53 3.5 -89t8.5 -58q17 -1 35.5 -1h37.5h82zM727 198q3 61 5.5 129.5 t2.5 149.5h-96q-112 0 -172.5 -51t-60.5 -145q0 -85 37.5 -123.5t98.5 -38.5q45 0 92 21.5t93 57.5z" />
<glyph unicode="&#xe4;" d="M503 1314q0 -72 -45 -114.5t-120 -42.5t-120 42t-45 115q0 34 12.5 63t34.5 49t52.5 31.5t65.5 11.5q36 0 66.5 -11.5t52 -31.5t34 -49t12.5 -63zM998 1314q0 -73 -45 -115t-120 -42t-120 42t-45 115q0 34 12.5 63t34.5 49t52.5 31.5t65.5 11.5q36 0 66.5 -11.5t52 -31.5 t34 -49t12.5 -63zM1213 123v-97q-63 -19 -139.5 -27.5t-164.5 -8.5q-30 0 -55 3.5t-45 12.5q-44 37 -65 103q-60 -59 -135 -95.5t-171 -36.5q-75 0 -138 19t-108 56t-70 92t-25 128q0 160 136.5 240.5t415.5 80.5h86v52q0 138 -27.5 200t-96.5 62q-45 0 -86 -16t-78 -44.5 t-70.5 -67.5t-64.5 -84l-188 120q4 45 42.5 85t101.5 70t145 47t173 17q229 0 345 -93t116 -298v-44.5t-0.5 -65t-0.5 -103v-159.5q0 -53 3.5 -89t8.5 -58q17 -1 35.5 -1h37.5h82zM727 198q3 61 5.5 129.5t2.5 149.5h-96q-112 0 -172.5 -51t-60.5 -145q0 -85 37.5 -123.5 t98.5 -38.5q45 0 92 21.5t93 57.5z" />
<glyph unicode="&#xe5;" d="M710 1364q0 56 -33.5 89t-90.5 33t-90.5 -33t-33.5 -89q0 -57 33 -89t91 -32q56 0 90 32t34 89zM805 1364q0 -47 -16.5 -85.5t-46 -65.5t-69.5 -41.5t-87 -14.5q-48 0 -88 15t-69 42t-45.5 65t-16.5 85q0 46 16.5 84t45.5 65t69 42t88 15q47 0 87 -15t69.5 -42t46 -65 t16.5 -84zM1213 123v-97q-63 -19 -139.5 -27.5t-164.5 -8.5q-30 0 -55 3.5t-45 12.5q-44 37 -65 103q-60 -59 -135 -95.5t-171 -36.5q-75 0 -138 19t-108 56t-70 92t-25 128q0 160 136.5 240.5t415.5 80.5h86v52q0 138 -27.5 200t-96.5 62q-45 0 -86 -16t-78 -44.5 t-70.5 -67.5t-64.5 -84l-188 120q4 45 42.5 85t101.5 70t145 47t173 17q229 0 345 -93t116 -298v-44.5t-0.5 -65t-0.5 -103v-159.5q0 -53 3.5 -89t8.5 -58q17 -1 35.5 -1h37.5h82zM727 198q3 61 5.5 129.5t2.5 149.5h-96q-112 0 -172.5 -51t-60.5 -145q0 -85 37.5 -123.5 t98.5 -38.5q45 0 92 21.5t93 57.5z" />
<glyph unicode="&#xe6;" horiz-adv-x="1811" d="M777 190q-37 107 -41 285q-17 1 -35 1.5t-37 0.5q-123 0 -190.5 -46.5t-67.5 -149.5q0 -85 39.5 -125.5t111.5 -40.5q49 0 104.5 20.5t115.5 54.5zM1054 597h393q1 5 1 9v9q0 59 -11 111.5t-33.5 92t-57 62.5t-82.5 23q-189 0 -210 -307zM1659 224l53 -92 q-69 -82 -172 -119.5t-239 -37.5q-143 0 -251.5 43t-181.5 129q-16 -8 -37.5 -23t-62.5 -41q-33 -21 -69.5 -40.5t-76 -34.5t-82.5 -24t-88 -9q-78 0 -143 19t-112 56.5t-73.5 93t-26.5 128.5q0 160 136.5 240.5t415.5 80.5h86v52q0 76 -6 126.5t-20 80.5t-37.5 42.5 t-58.5 12.5q-50 0 -92.5 -17t-79.5 -46t-69 -67.5t-60 -81.5l-188 120q4 46 42.5 87t101.5 71t145 47.5t173 17.5q125 0 212.5 -31t142.5 -93q71 61 160.5 92.5t198.5 31.5q96 0 178 -27t142 -78.5t94 -126t34 -168.5q0 -56 -11 -90t-34.5 -52.5t-59.5 -24.5t-85 -6h-503 q17 -165 100.5 -250.5t227.5 -85.5q71 0 139.5 22.5t136.5 72.5z" />
<glyph unicode="&#xe7;" horiz-adv-x="1139" d="M1042 223l16 -145q-76 -51 -174.5 -76t-213.5 -25q-125 0 -229 34.5t-178.5 101t-116 163t-41.5 220.5q0 135 46.5 236t125.5 168t184.5 100.5t223.5 33.5q116 0 212.5 -29t162.5 -84l-17 -200h-168q-46 91 -95.5 132t-114.5 41q-53 0 -97 -24.5t-76.5 -70.5t-50.5 -112 t-18 -148q0 -105 20 -183.5t56 -130t85.5 -77t109.5 -25.5q51 0 96.5 6t88 18.5t82.5 31.5t81 44zM355 -366q36 -11 70.5 -17.5t63.5 -6.5q62 0 98 25.5t36 73.5q0 52 -26 78.5t-74 34.5q-6 0 -15 -2.5t-22 -5.5q-11 7 -24.5 12t-26.5 11l85 174h101l-56 -107 q53 -3 94.5 -13t70.5 -30.5t44.5 -53t15.5 -79.5q0 -57 -18.5 -99.5t-52.5 -70.5t-81.5 -42t-105.5 -14q-60 0 -104 11t-73 30q-6 16 -6 40t6 51z" />
<glyph unicode="&#xe8;" horiz-adv-x="1211" d="M577 1157l-294 346h308l170 -345q-46 0 -92 -0.5t-92 -0.5zM1028 224l53 -92q-69 -80 -171.5 -117.5t-239.5 -37.5q-129 0 -233.5 35.5t-178 103t-113.5 166.5t-40 227q0 119 40 216t113.5 165.5t177.5 106t233 37.5q96 0 178 -27t142 -78t93.5 -124.5t33.5 -166.5 q0 -56 -11 -90t-34 -52.5t-59 -24.5t-85 -6h-503q17 -161 98.5 -246t224.5 -85q72 0 142 21.5t139 68.5zM423 597h393q1 5 1 9v9q0 59 -10.5 111t-33 90.5t-57.5 61t-84 22.5q-96 0 -147 -76.5t-62 -226.5z" />
<glyph unicode="&#xe9;" horiz-adv-x="1211" d="M577 1157q30 59 54.5 107.5t44.5 90.5t37.5 78t33.5 69h320q-18 -23 -43 -52t-61 -70t-85.5 -95.5t-116.5 -127.5h-184zM1028 224l53 -92q-69 -80 -171.5 -117.5t-239.5 -37.5q-129 0 -233.5 35.5t-178 103t-113.5 166.5t-40 227q0 119 40 216t113.5 165.5t177.5 106 t233 37.5q96 0 178 -27t142 -78t93.5 -124.5t33.5 -166.5q0 -56 -11 -90t-34 -52.5t-59 -24.5t-85 -6h-503q17 -161 98.5 -246t224.5 -85q72 0 142 21.5t139 68.5zM423 597h393q1 5 1 9v9q0 59 -10.5 111t-33 90.5t-57.5 61t-84 22.5q-96 0 -147 -76.5t-62 -226.5z" />
<glyph unicode="&#xea;" horiz-adv-x="1211" d="M1012 1178q-6 -21 -51 -21h-142l-149 184l-146 -184h-145q-47 0 -53 21q3 12 8 24t13 21l188 270h268l166 -237q14 -20 27 -39t16 -39zM1028 224l53 -92q-69 -80 -171.5 -117.5t-239.5 -37.5q-129 0 -233.5 35.5t-178 103t-113.5 166.5t-40 227q0 119 40 216t113.5 165.5 t177.5 106t233 37.5q96 0 178 -27t142 -78t93.5 -124.5t33.5 -166.5q0 -56 -11 -90t-34 -52.5t-59 -24.5t-85 -6h-503q17 -161 98.5 -246t224.5 -85q72 0 142 21.5t139 68.5zM423 597h393q1 5 1 9v9q0 59 -10.5 111t-33 90.5t-57.5 61t-84 22.5q-96 0 -147 -76.5t-62 -226.5 z" />
<glyph unicode="&#xeb;" horiz-adv-x="1211" d="M587 1314q0 -72 -45 -114.5t-120 -42.5t-120 42t-45 115q0 34 12.5 63t34.5 49t52.5 31.5t65.5 11.5q36 0 66.5 -11.5t52 -31.5t34 -49t12.5 -63zM1082 1314q0 -73 -45 -115t-120 -42t-120 42t-45 115q0 34 12.5 63t34.5 49t52.5 31.5t65.5 11.5q36 0 66.5 -11.5 t52 -31.5t34 -49t12.5 -63zM1028 224l53 -92q-69 -80 -171.5 -117.5t-239.5 -37.5q-129 0 -233.5 35.5t-178 103t-113.5 166.5t-40 227q0 119 40 216t113.5 165.5t177.5 106t233 37.5q96 0 178 -27t142 -78t93.5 -124.5t33.5 -166.5q0 -56 -11 -90t-34 -52.5t-59 -24.5 t-85 -6h-503q17 -161 98.5 -246t224.5 -85q72 0 142 21.5t139 68.5zM423 597h393q1 5 1 9v9q0 59 -10.5 111t-33 90.5t-57.5 61t-84 22.5q-96 0 -147 -76.5t-62 -226.5z" />
<glyph unicode="&#xec;" horiz-adv-x="687" d="M288 1157l-294 346h308l170 -345q-46 0 -92 -0.5t-92 -0.5zM223 280v519q0 20 -1 39t-4 39q-29 7 -72 7h-105v106q74 16 159.5 25.5t179.5 9.5q74 0 111.5 -14t42.5 -46v-697q0 -41 2 -75.5t10 -61.5q17 -6 36 -10t42 -4h62l12 -98q-146 -33 -308 -33q-37 0 -68.5 5 t-55 16t-37 29t-13.5 45q0 20 1 44.5t2.5 51t2.5 53t1 50.5z" />
<glyph unicode="&#xed;" horiz-adv-x="687" d="M288 1157q30 59 54.5 107.5t44.5 90.5t37.5 78t33.5 69h320q-18 -23 -43 -52t-61 -70t-85.5 -95.5t-116.5 -127.5h-184zM223 280v519q0 20 -1 39t-4 39q-29 7 -72 7h-105v106q74 16 159.5 25.5t179.5 9.5q74 0 111.5 -14t42.5 -46v-697q0 -41 2 -75.5t10 -61.5 q17 -6 36 -10t42 -4h62l12 -98q-146 -33 -308 -33q-37 0 -68.5 5t-55 16t-37 29t-13.5 45q0 20 1 44.5t2.5 51t2.5 53t1 50.5z" />
<glyph unicode="&#xee;" horiz-adv-x="687" d="M723 1178q-6 -21 -51 -21h-142l-149 184l-146 -184h-145q-47 0 -53 21q3 12 8 24t13 21l188 270h268l166 -237q14 -20 27 -39t16 -39zM223 280v519q0 20 -1 39t-4 39q-29 7 -72 7h-105v106q74 16 159.5 25.5t179.5 9.5q74 0 111.5 -14t42.5 -46v-697q0 -41 2 -75.5 t10 -61.5q17 -6 36 -10t42 -4h62l12 -98q-146 -33 -308 -33q-37 0 -68.5 5t-55 16t-37 29t-13.5 45q0 20 1 44.5t2.5 51t2.5 53t1 50.5z" />
<glyph unicode="&#xef;" horiz-adv-x="687" d="M297 1314q0 -72 -45 -114.5t-120 -42.5t-120 42t-45 115q0 34 12.5 63t34.5 49t52.5 31.5t65.5 11.5q36 0 66.5 -11.5t52 -31.5t34 -49t12.5 -63zM792 1314q0 -73 -45 -115t-120 -42t-120 42t-45 115q0 34 12.5 63t34.5 49t52.5 31.5t65.5 11.5q36 0 66.5 -11.5t52 -31.5 t34 -49t12.5 -63zM223 280v519q0 20 -1 39t-4 39q-29 7 -72 7h-105v106q74 16 159.5 25.5t179.5 9.5q74 0 111.5 -14t42.5 -46v-697q0 -41 2 -75.5t10 -61.5q17 -6 36 -10t42 -4h62l12 -98q-146 -33 -308 -33q-37 0 -68.5 5t-55 16t-37 29t-13.5 45q0 20 1 44.5t2.5 51 t2.5 53t1 50.5z" />
<glyph unicode="&#xf0;" horiz-adv-x="1304" d="M675 99q52 0 92 30.5t66 87t39.5 137t13.5 181.5q0 42 -3 79.5t-7 71.5q-20 49 -45 83.5t-53 56t-59.5 31t-65.5 9.5q-105 0 -157.5 -95.5t-52.5 -278.5q0 -100 12.5 -174t40 -122.5t72 -72.5t107.5 -24zM287 1408l63 108q259 -19 409 -95l247 146q21 -30 34.5 -48 t22 -29.5t13 -17.5t7.5 -11q-9 -15 -30 -31t-47.5 -31.5t-55.5 -31t-55 -29.5q156 -125 233.5 -311t77.5 -418q0 -135 -34 -252.5t-102.5 -204.5t-172.5 -137t-244 -50q-117 0 -215.5 35.5t-170.5 103t-112 165t-40 221.5q0 126 44.5 221t118.5 158t171.5 94.5t203.5 31.5 q59 0 109 -11.5t95 -42.5q-22 95 -63.5 164t-94.5 114l-242 -142q-23 29 -37.5 47t-23.5 29t-14 17t-8 12q5 10 21.5 22t45.5 29l135 80q-125 71 -289 95z" />
<glyph unicode="&#xf1;" horiz-adv-x="1438" d="M767 1357q30 -15 57 -30t52 -15q20 0 38 9t33 23t27 32t21 35q29 -8 57.5 -18t56.5 -25q-55 -103 -114 -157t-131 -54q-51 0 -97 17.5t-93 41.5q-27 14 -46.5 23t-33.5 14.5t-23.5 7.5t-18.5 2q-23 0 -42 -11.5t-34.5 -27.5t-27 -32.5t-19.5 -26.5q-27 8 -53.5 18 t-52.5 25q26 58 56 97.5t61.5 64t65 35.5t66.5 11q56 0 102 -17.5t93 -41.5zM1219 706v-447q0 -45 3.5 -78.5t9.5 -57.5h139l12 -106q-143 -34 -309 -34q-38 0 -69.5 5t-54.5 16.5t-36 29.5t-13 45q0 19 1 44.5t2 52.5t2 54.5t1 51.5v368q0 61 -9.5 103.5t-27 69.5t-42 39.5 t-53.5 12.5t-60 -10t-61.5 -26.5t-59 -38.5t-51.5 -47v-515q0 -37 3 -61t14 -39t32.5 -24t57.5 -16l10 -110q-97 5 -168.5 8.5t-120.5 3.5q-138 0 -264 -12l5 110q42 5 65.5 12.5t35.5 23t15 41.5t3 68v558q0 19 -1 37.5t-3 35.5q-14 5 -29 6.5t-35 1.5h-114v111 q27 6 64.5 11t79.5 9.5t86 7t85 2.5q35 0 71.5 -3.5t95.5 -13.5v-117q88 72 191.5 108t199.5 36q69 0 124 -21t93.5 -62.5t59 -102.5t20.5 -141z" />
<glyph unicode="&#xf2;" horiz-adv-x="1330" d="M574 1157l-294 346h308l170 -345q-46 0 -92 -0.5t-92 -0.5zM432 505q0 -199 56.5 -294t176.5 -95q126 0 179 98t53 291q0 196 -56 292t-176 96q-124 0 -178.5 -97.5t-54.5 -290.5zM1225 504q0 -134 -46 -233t-123.5 -164.5t-178.5 -97.5t-211 -32q-121 0 -224 35.5 t-178 103.5t-117 165.5t-42 222.5q0 132 45.5 231t123 166t179 100.5t213.5 33.5q121 0 223.5 -36.5t177 -105t116.5 -167t42 -222.5z" />
<glyph unicode="&#xf3;" horiz-adv-x="1330" d="M574 1157q30 59 54.5 107.5t44.5 90.5t37.5 78t33.5 69h320q-18 -23 -43 -52t-61 -70t-85.5 -95.5t-116.5 -127.5h-184zM432 505q0 -199 56.5 -294t176.5 -95q126 0 179 98t53 291q0 196 -56 292t-176 96q-124 0 -178.5 -97.5t-54.5 -290.5zM1225 504q0 -134 -46 -233 t-123.5 -164.5t-178.5 -97.5t-211 -32q-121 0 -224 35.5t-178 103.5t-117 165.5t-42 222.5q0 132 45.5 231t123 166t179 100.5t213.5 33.5q121 0 223.5 -36.5t177 -105t116.5 -167t42 -222.5z" />
<glyph unicode="&#xf4;" horiz-adv-x="1330" d="M1009 1178q-6 -21 -51 -21h-142l-149 184l-146 -184h-145q-47 0 -53 21q3 12 8 24t13 21l188 270h268l166 -237q14 -20 27 -39t16 -39zM432 505q0 -199 56.5 -294t176.5 -95q126 0 179 98t53 291q0 196 -56 292t-176 96q-124 0 -178.5 -97.5t-54.5 -290.5zM1225 504 q0 -134 -46 -233t-123.5 -164.5t-178.5 -97.5t-211 -32q-121 0 -224 35.5t-178 103.5t-117 165.5t-42 222.5q0 132 45.5 231t123 166t179 100.5t213.5 33.5q121 0 223.5 -36.5t177 -105t116.5 -167t42 -222.5z" />
<glyph unicode="&#xf5;" horiz-adv-x="1330" d="M717 1357q30 -15 57 -30t52 -15q20 0 38 9t33 23t27 32t21 35q29 -8 57.5 -18t56.5 -25q-55 -103 -114 -157t-131 -54q-51 0 -97 17.5t-93 41.5q-27 14 -46.5 23t-33.5 14.5t-23.5 7.5t-18.5 2q-23 0 -42 -11.5t-34.5 -27.5t-27 -32.5t-19.5 -26.5q-27 8 -53.5 18 t-52.5 25q26 58 56 97.5t61.5 64t65 35.5t66.5 11q56 0 102 -17.5t93 -41.5zM432 505q0 -199 56.5 -294t176.5 -95q126 0 179 98t53 291q0 196 -56 292t-176 96q-124 0 -178.5 -97.5t-54.5 -290.5zM1225 504q0 -134 -46 -233t-123.5 -164.5t-178.5 -97.5t-211 -32 q-121 0 -224 35.5t-178 103.5t-117 165.5t-42 222.5q0 132 45.5 231t123 166t179 100.5t213.5 33.5q121 0 223.5 -36.5t177 -105t116.5 -167t42 -222.5z" />
<glyph unicode="&#xf6;" horiz-adv-x="1330" d="M583 1314q0 -72 -45 -114.5t-120 -42.5t-120 42t-45 115q0 34 12.5 63t34.5 49t52.5 31.5t65.5 11.5q36 0 66.5 -11.5t52 -31.5t34 -49t12.5 -63zM1078 1314q0 -73 -45 -115t-120 -42t-120 42t-45 115q0 34 12.5 63t34.5 49t52.5 31.5t65.5 11.5q36 0 66.5 -11.5 t52 -31.5t34 -49t12.5 -63zM432 505q0 -199 56.5 -294t176.5 -95q126 0 179 98t53 291q0 196 -56 292t-176 96q-124 0 -178.5 -97.5t-54.5 -290.5zM1225 504q0 -134 -46 -233t-123.5 -164.5t-178.5 -97.5t-211 -32q-121 0 -224 35.5t-178 103.5t-117 165.5t-42 222.5 q0 132 45.5 231t123 166t179 100.5t213.5 33.5q121 0 223.5 -36.5t177 -105t116.5 -167t42 -222.5z" />
<glyph unicode="&#xf7;" horiz-adv-x="1162" d="M717 859q0 -69 -42 -109.5t-114 -40.5t-114 40.5t-42 109.5q0 33 11.5 60t32.5 46.5t49.5 30t62.5 10.5q33 0 61.5 -10.5t49.5 -30t33 -46.5t12 -60zM713 149q0 -69 -42 -109t-114 -40t-114 40t-42 109q0 33 11.5 60t32.5 46.5t49.5 30t62.5 10.5t62.5 -10.5t49.5 -30 t32.5 -46.5t11.5 -60zM955 515q0 -42 -19.5 -71t-56.5 -29h-716v91q0 26 5.5 42.5t18.5 25.5t33 12.5t50 3.5h685v-75z" />
<glyph unicode="&#xf8;" horiz-adv-x="1330" d="M910 1109q6 13 12.5 24t15.5 21q32 -2 62.5 -4t49.5 -14q-6 -14 -14 -27.5t-15 -27.5l-577 -1213q-26 -8 -52 -8q-37 0 -71 14q6 17 15 32t17 32zM432 505q0 -199 56.5 -294t176.5 -95q126 0 179 98t53 291q0 196 -56 292t-176 96q-124 0 -178.5 -97.5t-54.5 -290.5z M1225 504q0 -134 -46 -233t-123.5 -164.5t-178.5 -97.5t-211 -32q-121 0 -224 35.5t-178 103.5t-117 165.5t-42 222.5q0 132 45.5 231t123 166t179 100.5t213.5 33.5q121 0 223.5 -36.5t177 -105t116.5 -167t42 -222.5z" />
<glyph unicode="&#xf9;" horiz-adv-x="1359" d="M601 1157l-294 346h308l170 -345q-46 0 -92 -0.5t-92 -0.5zM1201 968v-698q0 -52 4 -88t9 -59h157v-98q-73 -17 -150.5 -27t-162.5 -10q-46 0 -78.5 4t-54 17.5t-31.5 37.5t-11 65q-37 -28 -75.5 -52.5t-81.5 -43t-93 -29t-110 -10.5q-151 0 -229 83t-78 238v493 q0 24 -1.5 45t-3.5 41q-18 3 -37.5 4t-40.5 1h-77l-6 111q28 6 63 11.5t75 10t82 7t84 2.5q75 0 120 -12.5t53 -43.5q0 -165 0.5 -326.5t0.5 -326.5q0 -36 3 -69.5t14 -60t34 -42t64 -15.5q36 0 75 10.5t72.5 24.5t57.5 28.5t31 23.5q4 30 6 66.5t3 76t1.5 79.5t0.5 77v281 q0 47 -7 82q-17 3 -35.5 4t-38.5 1h-75l-6 111q60 14 140.5 22.5t163.5 8.5q31 0 59 -3t50.5 -10t38 -17.5t21.5 -25.5z" />
<glyph unicode="&#xfa;" horiz-adv-x="1359" d="M601 1157q30 59 54.5 107.5t44.5 90.5t37.5 78t33.5 69h320q-18 -23 -43 -52t-61 -70t-85.5 -95.5t-116.5 -127.5h-184zM1201 968v-698q0 -52 4 -88t9 -59h157v-98q-73 -17 -150.5 -27t-162.5 -10q-46 0 -78.5 4t-54 17.5t-31.5 37.5t-11 65q-37 -28 -75.5 -52.5 t-81.5 -43t-93 -29t-110 -10.5q-151 0 -229 83t-78 238v493q0 24 -1.5 45t-3.5 41q-18 3 -37.5 4t-40.5 1h-77l-6 111q28 6 63 11.5t75 10t82 7t84 2.5q75 0 120 -12.5t53 -43.5q0 -165 0.5 -326.5t0.5 -326.5q0 -36 3 -69.5t14 -60t34 -42t64 -15.5q36 0 75 10.5t72.5 24.5 t57.5 28.5t31 23.5q4 30 6 66.5t3 76t1.5 79.5t0.5 77v281q0 47 -7 82q-17 3 -35.5 4t-38.5 1h-75l-6 111q60 14 140.5 22.5t163.5 8.5q31 0 59 -3t50.5 -10t38 -17.5t21.5 -25.5z" />
<glyph unicode="&#xfb;" horiz-adv-x="1359" d="M1036 1178q-6 -21 -51 -21h-142l-149 184l-146 -184h-145q-47 0 -53 21q3 12 8 24t13 21l188 270h268l166 -237q14 -20 27 -39t16 -39zM1201 968v-698q0 -52 4 -88t9 -59h157v-98q-73 -17 -150.5 -27t-162.5 -10q-46 0 -78.5 4t-54 17.5t-31.5 37.5t-11 65 q-37 -28 -75.5 -52.5t-81.5 -43t-93 -29t-110 -10.5q-151 0 -229 83t-78 238v493q0 24 -1.5 45t-3.5 41q-18 3 -37.5 4t-40.5 1h-77l-6 111q28 6 63 11.5t75 10t82 7t84 2.5q75 0 120 -12.5t53 -43.5q0 -165 0.5 -326.5t0.5 -326.5q0 -36 3 -69.5t14 -60t34 -42t64 -15.5 q36 0 75 10.5t72.5 24.5t57.5 28.5t31 23.5q4 30 6 66.5t3 76t1.5 79.5t0.5 77v281q0 47 -7 82q-17 3 -35.5 4t-38.5 1h-75l-6 111q60 14 140.5 22.5t163.5 8.5q31 0 59 -3t50.5 -10t38 -17.5t21.5 -25.5z" />
<glyph unicode="&#xfc;" horiz-adv-x="1359" d="M611 1314q0 -72 -45 -114.5t-120 -42.5t-120 42t-45 115q0 34 12.5 63t34.5 49t52.5 31.5t65.5 11.5q36 0 66.5 -11.5t52 -31.5t34 -49t12.5 -63zM1106 1314q0 -73 -45 -115t-120 -42t-120 42t-45 115q0 34 12.5 63t34.5 49t52.5 31.5t65.5 11.5q36 0 66.5 -11.5 t52 -31.5t34 -49t12.5 -63zM1201 968v-698q0 -52 4 -88t9 -59h157v-98q-73 -17 -150.5 -27t-162.5 -10q-46 0 -78.5 4t-54 17.5t-31.5 37.5t-11 65q-37 -28 -75.5 -52.5t-81.5 -43t-93 -29t-110 -10.5q-151 0 -229 83t-78 238v493q0 24 -1.5 45t-3.5 41q-18 3 -37.5 4 t-40.5 1h-77l-6 111q28 6 63 11.5t75 10t82 7t84 2.5q75 0 120 -12.5t53 -43.5q0 -165 0.5 -326.5t0.5 -326.5q0 -36 3 -69.5t14 -60t34 -42t64 -15.5q36 0 75 10.5t72.5 24.5t57.5 28.5t31 23.5q4 30 6 66.5t3 76t1.5 79.5t0.5 77v281q0 47 -7 82q-17 3 -35.5 4t-38.5 1 h-75l-6 111q60 14 140.5 22.5t163.5 8.5q31 0 59 -3t50.5 -10t38 -17.5t21.5 -25.5z" />
<glyph unicode="&#xfd;" horiz-adv-x="1297" d="M975 1157q30 59 54.5 107.5t44.5 90.5t37.5 78t33.5 69h320q-18 -23 -43 -52t-61 -70t-85.5 -95.5t-116.5 -127.5h-184zM704 278q49 134 96 264.5t92 259.5q5 19 10.5 37t10.5 35q-14 5 -29.5 6.5t-35.5 1.5h-54l17 121q61 11 124.5 16t131.5 5q64 0 120 -5t110 -16v-121 h-60q-23 0 -41.5 -1.5t-37.5 -6.5l-347 -843q-51 -124 -94.5 -212.5t-97 -144.5t-127 -82.5t-184.5 -26.5q-33 0 -65 2.5t-60.5 7t-51.5 10.5t-38 13l39 154q53 -20 103 -28.5t88 -8.5q44 0 74.5 15t54.5 46.5t45 81t45 118.5l-341 792q-12 28 -24.5 54t-26.5 52 q-38 8 -78 8h-59l-9 121q51 11 122 15.5t159 4.5q34 0 65.5 -0.5t65.5 -2.5t71.5 -6t83.5 -11q5 -26 10 -56t9 -65h-46q-19 0 -35 -1.5t-28 -6.5q6 -18 18 -51t27.5 -75.5t34 -92t37.5 -99.5z" />
<glyph unicode="&#xfe;" horiz-adv-x="1234" d="M177 -196v101.5v97.5v106.5t0.5 129t0.5 164.5v213.5v276v351.5q0 55 -3 106q-20 3 -41.5 5t-45.5 2h-92v100q73 18 169 27t213 9q39 0 61.5 -8t34 -22t14.5 -34t3 -45v-459q72 57 150 83.5t162 26.5q105 0 186.5 -38t137 -105.5t84 -159.5t28.5 -201q0 -128 -38 -226 t-101.5 -165.5t-148 -105t-177.5 -43.5q-51 -3 -99 -3h-187v-218q0 -41 3 -64t14.5 -36t34.5 -20t64 -14l10 -108q-46 6 -82.5 10t-66.5 6.5t-56.5 3.5t-53.5 1q-66 0 -138 -3.5t-163 -17.5l5 109q44 7 68 15t35 25t13 47t2 80zM914 525q0 369 -184 369q-110 0 -229 -86 q-6 -78 -8 -159t-2 -167q0 -88 1.5 -180t5.5 -182q47 -5 96.5 -7t92.5 -2q105 0 166 104.5t61 309.5z" />
<glyph unicode="&#xff;" horiz-adv-x="1297" d="M704 278q49 134 96 264.5t92 259.5q5 19 10.5 37t10.5 35q-14 5 -29.5 6.5t-35.5 1.5h-54l17 121q61 11 124.5 16t131.5 5q64 0 120 -5t110 -16v-121h-60q-23 0 -41.5 -1.5t-37.5 -6.5l-347 -843q-51 -124 -94.5 -212.5t-97 -144.5t-127 -82.5t-184.5 -26.5 q-33 0 -65 2.5t-60.5 7t-51.5 10.5t-38 13l39 154q53 -20 103 -28.5t88 -8.5q44 0 74.5 15t54.5 46.5t45 81t45 118.5l-341 792q-12 28 -24.5 54t-26.5 52q-38 8 -78 8h-59l-9 121q51 11 122 15.5t159 4.5q34 0 65.5 -0.5t65.5 -2.5t71.5 -6t83.5 -11q5 -26 10 -56t9 -65 h-46q-19 0 -35 -1.5t-28 -6.5q6 -18 18 -51t27.5 -75.5t34 -92t37.5 -99.5zM566 1257q0 -72 -45 -114.5t-120 -42.5t-120 42t-45 115q0 34 12.5 63t34.5 49t52.5 31.5t65.5 11.5q36 0 66.5 -11.5t52 -31.5t34 -49t12.5 -63zM1061 1257q0 -73 -45 -115t-120 -42t-120 42 t-45 115q0 34 12.5 63t34.5 49t52.5 31.5t65.5 11.5q36 0 66.5 -11.5t52 -31.5t34 -49t12.5 -63z" />
<glyph unicode="&#x131;" horiz-adv-x="687" d="M223 280v519q0 20 -1 39t-4 39q-29 7 -72 7h-105v106q74 16 159.5 25.5t179.5 9.5q74 0 111.5 -14t42.5 -46v-697q0 -41 2 -75.5t10 -61.5q17 -6 36 -10t42 -4h62l12 -98q-146 -33 -308 -33q-37 0 -68.5 5t-55 16t-37 29t-13.5 45q0 20 1 44.5t2.5 51t2.5 53t1 50.5z" />
<glyph unicode="&#x152;" horiz-adv-x="2191" d="M2070 1413l25 -129q9 -49 17 -97t13 -80l-184 -17l-2 10q-5 34 -12 67.5t-21 67.5q-49 13 -106 18.5t-130 5.5h-36.5t-43.5 -0.5t-59.5 -1.5t-84.5 -2v-467h192q32 0 51.5 5t32 18.5t21 37.5t18.5 61h100q0 -100 -1.5 -199.5t-5.5 -193.5q-9 -1 -18 -1h-18 q-17 0 -34.5 0.5t-34.5 0.5q-11 40 -20.5 66t-21 41t-25.5 20.5t-33 5.5h-203v-504h331q47 0 82.5 6.5t52.5 17.5q8 22 15 63t15 110q44 -1 92.5 -1.5t101.5 -0.5v-127l-13 -196q-44 -7 -87.5 -12t-91.5 -8t-101.5 -4.5t-116.5 -1.5q-38 0 -83.5 0.5t-94 1t-99 1t-96.5 1.5 q-109 2 -224 4q-54 -9 -109 -15q-48 -6 -102.5 -10.5t-104.5 -4.5q-163 0 -292.5 50.5t-220 145t-138.5 230t-48 306.5q0 175 48.5 311.5t139 230.5t220 143t291.5 49q50 0 93 -3.5t81 -8t73 -8t69 -3.5h941zM456 699q0 -278 89 -426t268 -148q17 0 39.5 1t48 2.5t52 3 t52.5 3.5q60 4 124 11v1108q-65 8 -124 14q-26 3 -52.5 5.5t-52 4.5t-48 3t-39.5 1q-170 0 -263.5 -144.5t-93.5 -438.5z" />
<glyph unicode="&#x153;" horiz-adv-x="1883" d="M1128 597h363q1 8 1 16.5v17.5q0 55 -11 104.5t-32 87t-52.5 59.5t-72.5 22q-90 0 -137.5 -77.5t-58.5 -229.5zM863 504q0 205 -55 300.5t-161 95.5q-107 0 -161 -95.5t-54 -300.5q0 -203 55 -299t161 -96q111 0 163 97t52 298zM1716 224l52 -92q-69 -83 -172.5 -121.5 t-242.5 -38.5q-108 0 -196.5 34.5t-159.5 109.5q-64 -68 -152 -106t-208 -38q-119 0 -217 37t-168 106t-108.5 167.5t-38.5 221.5q0 129 41.5 228.5t114 167.5t170 103t208.5 35q229 0 357 -155q66 71 155.5 113t205.5 42q93 0 173 -27t138 -78.5t91 -126t33 -168.5 q0 -56 -11 -90t-34 -52.5t-58.5 -24.5t-84.5 -6q-120 0 -238 0.5t-237 0.5q15 -163 97 -250.5t223 -87.5q66 0 133.5 23t133.5 73z" />
<glyph unicode="&#x178;" horiz-adv-x="1582" d="M711 1715q0 -72 -45 -114.5t-120 -42.5t-120 42t-45 115q0 34 12.5 63t34.5 49t52.5 31.5t65.5 11.5q36 0 66.5 -11.5t52 -31.5t34 -49t12.5 -63zM1206 1715q0 -73 -45 -115t-120 -42t-120 42t-45 115q0 34 12.5 63t34.5 49t52.5 31.5t65.5 11.5q36 0 66.5 -11.5 t52 -31.5t34 -49t12.5 -63zM1085 1153q14 30 21.5 55.5t12.5 51.5q-16 4 -35 4.5t-41 0.5h-87l29 140q69 8 144.5 11t163.5 3q52 0 94 -1t77 -2.5t64.5 -4t56.5 -6.5l-32 -140h-91q-21 0 -40.5 -0.5t-39.5 -4.5q-17 -23 -23 -30.5t-7.5 -10t-1.5 -3.5t-4 -10.5t-15 -32 t-35.5 -66.5t-64.5 -115t-102 -177l-173 -300v-239q0 -42 2.5 -75.5t7.5 -59.5q20 -3 40.5 -4t43.5 -1h107v-149q-94 8 -177 10.5t-160 2.5q-91 0 -185 -2.5t-199 -10.5v149h106q23 0 43 0.5t40 4.5q10 34 10 96v253q-12 19 -21.5 38t-20.5 38l-349 587q-13 21 -22 38 t-16.5 30.5t-14 23t-15.5 15.5q-20 4 -41.5 4.5t-44.5 0.5h-69l-26 140q72 7 145.5 10.5t152.5 3.5q70 0 127 -0.5t104.5 -2t86.5 -4.5t73 -7l16 -140h-67q-23 0 -44 -0.5t-38 -4.5q8 -32 16.5 -51.5t19.5 -39.5l267 -465q33 59 67 124.5t65.5 126.5t57.5 113t41 85z" />
<glyph unicode="&#x2c6;" horiz-adv-x="1205" d="M945 1228q-6 -21 -51 -21h-142l-149 184l-146 -184h-145q-47 0 -53 21q3 12 8 24t13 21l188 270h268l166 -237q14 -20 27 -39t16 -39z" />
<glyph unicode="&#x2da;" horiz-adv-x="668" d="M437 1382q0 56 -33.5 89t-90.5 33t-90.5 -33t-33.5 -89q0 -57 33 -89t91 -32q56 0 90 32t34 89zM532 1382q0 -47 -16.5 -85.5t-46 -65.5t-69.5 -41.5t-87 -14.5q-48 0 -88 15t-69 42t-45.5 65t-16.5 85q0 46 16.5 84t45.5 65t69 42t88 15q47 0 87 -15t69.5 -42t46 -65 t16.5 -84z" />
<glyph unicode="&#x2dc;" horiz-adv-x="1190" d="M637 1451q30 -15 57 -30t52 -15q20 0 38 9t33 23t27 32t21 35q29 -8 57.5 -18t56.5 -25q-55 -103 -114 -157t-131 -54q-51 0 -97 17.5t-93 41.5q-27 14 -46.5 23t-33.5 14.5t-23.5 7.5t-18.5 2q-23 0 -42 -11.5t-34.5 -27.5t-27 -32.5t-19.5 -26.5q-27 8 -53.5 18 t-52.5 25q26 58 56 97.5t61.5 64t65 35.5t66.5 11q56 0 102 -17.5t93 -41.5z" />
<glyph unicode="&#x2000;" horiz-adv-x="952" />
<glyph unicode="&#x2001;" horiz-adv-x="1904" />
<glyph unicode="&#x2002;" horiz-adv-x="952" />
<glyph unicode="&#x2003;" horiz-adv-x="1904" />
<glyph unicode="&#x2004;" horiz-adv-x="634" />
<glyph unicode="&#x2005;" horiz-adv-x="476" />
<glyph unicode="&#x2006;" horiz-adv-x="317" />
<glyph unicode="&#x2007;" horiz-adv-x="317" />
<glyph unicode="&#x2008;" horiz-adv-x="238" />
<glyph unicode="&#x2009;" horiz-adv-x="380" />
<glyph unicode="&#x200a;" horiz-adv-x="105" />
<glyph unicode="&#x2010;" horiz-adv-x="765" d="M653 496h-602v80q0 24 5.5 38.5t17.5 22t29.5 10t41.5 2.5h569v-63q0 -38 -15 -61.5t-46 -28.5z" />
<glyph unicode="&#x2011;" horiz-adv-x="765" d="M653 496h-602v80q0 24 5.5 38.5t17.5 22t29.5 10t41.5 2.5h569v-63q0 -38 -15 -61.5t-46 -28.5z" />
<glyph unicode="&#x2012;" horiz-adv-x="765" d="M653 496h-602v80q0 24 5.5 38.5t17.5 22t29.5 10t41.5 2.5h569v-63q0 -38 -15 -61.5t-46 -28.5z" />
<glyph unicode="&#x2013;" horiz-adv-x="1006" d="M990 496h-1000v73q0 28 9.5 44t28 24t46 10t62.5 2h927v-72q0 -38 -19 -57t-54 -24z" />
<glyph unicode="&#x2014;" horiz-adv-x="1785" d="M1708 496h-1718v73q0 28 9.5 44t28 24t46 10t62.5 2h1659v-72q0 -39 -22.5 -57.5t-64.5 -23.5z" />
<glyph unicode="&#x2018;" horiz-adv-x="566" d="M415 1491q18 -11 36.5 -26.5t38.5 -43.5q-51 -57 -84 -125.5t-51 -162.5q50 -7 81.5 -41.5t31.5 -85.5q0 -42 -15 -72t-39 -49.5t-55 -29t-63 -9.5q-51 0 -85.5 13.5t-55.5 38t-29.5 59t-8.5 76.5q0 132 79 248t219 210z" />
<glyph unicode="&#x2019;" horiz-adv-x="565" d="M153 846q-19 11 -37 26.5t-38 43.5q51 57 84 125.5t51 162.5q-50 7 -81.5 41.5t-31.5 85.5q0 42 15 72t39 49.5t55 29t63 9.5q51 0 85.5 -13.5t55.5 -38t29.5 -59t8.5 -76.5q0 -131 -79.5 -248t-218.5 -210z" />
<glyph unicode="&#x201a;" horiz-adv-x="578" d="M339 358q109 0 165.5 -64t56.5 -176q0 -73 -24 -137.5t-71 -124.5t-117 -117t-163 -115l-94 93q116 111 171 268q-66 14 -105.5 62t-39.5 123q0 43 18 78t48.5 59.5t70.5 37.5t84 13z" />
<glyph unicode="&#x201c;" horiz-adv-x="1035" d="M409 1491q19 -11 37 -26.5t39 -43.5q-51 -57 -84 -125.5t-51 -162.5q50 -7 81 -41.5t31 -85.5q0 -42 -15 -72t-39.5 -49.5t-55 -29t-61.5 -9.5q-51 0 -85.5 13t-55.5 37t-30 58t-9 76q0 133 78.5 249.5t219.5 211.5zM879 1491q19 -11 37 -26.5t38 -43.5 q-51 -57 -84 -125.5t-50 -162.5q49 -7 80.5 -41.5t31.5 -85.5q0 -42 -15 -72t-39 -49.5t-55 -29t-63 -9.5q-51 0 -85.5 13.5t-55.5 38t-29.5 59t-8.5 76.5q0 65 20.5 127.5t59 120.5t94 110.5t124.5 99.5z" />
<glyph unicode="&#x201d;" horiz-adv-x="1034" d="M644 846q-19 11 -37 26.5t-39 43.5q51 57 84 125.5t51 162.5q-50 7 -81 41.5t-31 85.5q0 42 15 72t39 49.5t54.5 29t62.5 9.5q51 0 85.5 -13t55.5 -37t30 -58t9 -76q0 -133 -79 -250t-219 -211zM174 846q-19 11 -37 26.5t-38 43.5q51 57 84 125.5t50 162.5 q-49 7 -80.5 41.5t-31.5 85.5q0 42 15 72t39 49.5t55 29t63 9.5q51 0 85.5 -13.5t55.5 -38t29.5 -59t8.5 -76.5q0 -131 -79.5 -248t-218.5 -210z" />
<glyph unicode="&#x201e;" horiz-adv-x="1103" d="M309 358q109 0 165.5 -64t56.5 -176q0 -73 -24 -137.5t-71 -124.5t-117 -117t-163 -115l-94 93q116 111 171 268q-66 14 -105.5 62t-39.5 123q0 43 18 78t48.5 59.5t70.5 37.5t84 13zM830 358q109 0 165.5 -64t56.5 -176q0 -73 -24 -137.5t-71 -124.5t-117 -117 t-163 -115l-94 93q116 111 171 268q-66 14 -105.5 62t-39.5 123q0 43 18 78t48.5 59.5t70.5 37.5t84 13z" />
<glyph unicode="&#x2022;" horiz-adv-x="838" d="M107 623q0 63 24.5 115t66.5 89.5t99 58.5t122 21q67 0 124 -21.5t99 -59t66 -89.5t24 -113q0 -63 -24.5 -115t-67 -89.5t-99.5 -58t-122 -20.5q-67 0 -124 21t-99 58.5t-65.5 89.5t-23.5 113z" />
<glyph unicode="&#x2026;" horiz-adv-x="1930" d="M1496 136q0 74 42.5 116.5t115.5 42.5q38 0 68 -12t50.5 -33t31 -50.5t10.5 -63.5q0 -75 -42.5 -117.5t-117.5 -42.5t-116.5 42.5t-41.5 117.5zM824 136q0 74 42.5 116.5t117.5 42.5q73 0 116 -43.5t43 -115.5q0 -75 -42 -117.5t-117 -42.5q-77 0 -118.5 42.5 t-41.5 117.5zM154 136q0 74 43 116.5t116 42.5q74 0 116.5 -43.5t42.5 -115.5q0 -75 -42 -117.5t-117 -42.5t-117 42.5t-42 117.5z" />
<glyph unicode="&#x202f;" horiz-adv-x="380" />
<glyph unicode="&#x2039;" horiz-adv-x="700" d="M133 581l339 435q34 -13 58 -23.5t38 -20.5q-5 -15 -17 -42t-36 -75.5t-62.5 -124t-96.5 -188.5q51 -105 84 -175t55 -116.5t34.5 -76t23.5 -53.5q-32 -28 -88 -49l-332 403v106z" />
<glyph unicode="&#x203a;" horiz-adv-x="701" d="M569 492l-336 -420q-53 17 -91 49q10 24 23 53t35 75.5t57 117.5t88 178q-59 117 -96.5 193t-60 123.5t-33 72t-14.5 38.5q25 20 92 44l337 -419q0 -26 -0.5 -52.5t-0.5 -52.5z" />
<glyph unicode="&#x205f;" horiz-adv-x="476" />
<glyph unicode="&#x20ac;" horiz-adv-x="1503" d="M1394 276l61 -118q-94 -100 -221.5 -147t-288.5 -47q-127 0 -235.5 32.5t-193.5 97.5t-143 162t-83 227h-220l20 84q5 21 13 33t21.5 17t33.5 6t49 1h65q-1 15 -1 29v29t0.5 30t1.5 30h-180l18 83q4 21 14.5 33t25 18t32 7t36.5 1h71q24 132 79.5 235.5t140.5 175 t197 109t249 37.5q70 0 138.5 -9t131 -25.5t114.5 -41.5t89 -56q-3 -72 -6.5 -132t-3.5 -118l-223 -10q-18 41 -41 83.5t-53 77.5t-69 57t-89 22q-73 0 -127.5 -29.5t-93.5 -83t-63 -128t-35 -164.5h521l-24 -86q-6 -21 -25.5 -32t-46 -16.5t-57.5 -6.5t-59 -1h-320 q0 -32 0.5 -62t3.5 -56h474q0 -47 -9.5 -74.5t-25 -42.5t-35 -19.5t-38.5 -4.5h-347q34 -170 118.5 -262t223.5 -92q62 0 117 10t105.5 29t98 46.5t94.5 61.5z" />
<glyph unicode="&#x2122;" horiz-adv-x="2078" d="M1691 692v426h-15q-123 -303 -225 -525q-17 0 -33 -0.5t-33 -0.5h-40l-231 546q-5 -116 -9 -208q-2 -39 -3.5 -77.5t-3 -69t-2 -50t-0.5 -22.5q0 -20 8.5 -31t22.5 -16.5t33.5 -7t40.5 -1.5l-4 -66q-71 3 -129 3q-48 0 -95.5 -1t-98.5 -3l5 67q37 0 64.5 5.5t39.5 31.5 q13 137 18 271.5t10 268.5l-2 49q-23 23 -52 33.5t-71 11.5v63q55 2 105 3t97 1q59 0 104 -6l239 -544q28 63 59 134t62 142.5t62 140t59 127.5q42 6 98 6q45 0 92.5 -1t99.5 -3v-63q-49 0 -74 -12.5t-37 -38.5q2 -61 4.5 -130.5t6.5 -150.5l11 -226q5 -42 10 -65 t15.5 -33.5t30 -12.5t52.5 -2l4 -67q-48 2 -95.5 3t-100.5 1q-93 0 -186 -3l3 66q33 0 55 5.5t29 31.5zM331 692q1 15 1.5 32t0.5 37v559h-136q-32 0 -48 -33t-20 -87h-72q0 18 -0.5 43t-0.5 51t-0.5 51t-0.5 43q28 3 66.5 4t89.5 1h430q51 0 90 -1t67 -4q0 -18 -0.5 -43 t-1 -51t-1 -51t-0.5 -43h-71q-3 40 -8.5 64t-16 36.5t-26 16t-37.5 3.5h-115v-559v-37t1 -32q11 -26 39 -32t64 -6v-66q-110 3 -195 3q-88 0 -202 -3v66q36 0 63.5 6t39.5 32z" />
<glyph unicode="&#xe000;" horiz-adv-x="1025" d="M0 1025h1025v-1025h-1025v1025z" />
<glyph unicode="&#xfb01;" horiz-adv-x="1481" d="M971 156q0 18 0.5 41.5t1 48t1 48t0.5 41.5v437q0 24 -1 42.5t-9 30.5t-26 18.5t-52 6.5h-343v-616q0 -46 5.5 -74t20.5 -43.5t42.5 -22.5t71.5 -10l28 -109q-65 1 -113.5 2t-86.5 2t-67.5 1h-56.5q-73 0 -149 -1.5t-159 -3.5l3 109l53 2q32 1 54 6.5t35.5 16.5t19 29.5 t5.5 45.5v666h-203v60q0 16 3.5 28.5t8.5 23.5q16 6 35 9t39 4t39 1h35h43v92q0 190 142.5 287t428.5 97q82 -1 147.5 -8t115 -21.5t85.5 -36.5t60 -53q0 -63 -12.5 -104.5t-41.5 -68.5q-79 0 -129.5 11t-89.5 44q0 31 -5.5 62t-25.5 45q-23 3 -46.5 5t-49.5 2 q-69 0 -122.5 -13t-89.5 -43.5t-54.5 -81.5t-18.5 -127v-88h254h82q47 0 97.5 0.5t99.5 0.5q55 0 102.5 -2t79.5 -8q5 -17 7.5 -34t2.5 -35v-693q0 -42 16.5 -70.5t60.5 -37.5h86l6 -101q-26 -4 -58 -10.5t-67 -13t-72 -11t-73 -4.5q-40 0 -75.5 8t-62.5 28t-42.5 55 t-15.5 88z" />
<glyph unicode="&#xfb02;" horiz-adv-x="1513" d="M1012 -4q-41 11 -66 33t-42 57l22 12q42 20 58.5 58t16.5 91v954v63.5t-9 56.5q-28 13 -68 20.5t-103 7.5q-57 0 -108 -4t-88.5 -29t-59.5 -79t-22 -153v-88h247v-84q-11 -23 -39 -32.5t-67 -9.5h-141v-616q0 -46 5.5 -74t20.5 -43.5t42.5 -22.5t71.5 -10l28 -109 q-65 1 -113.5 2t-86.5 2t-67.5 1h-56.5q-73 0 -149 -1.5t-159 -3.5l3 109l53 2q32 1 54 6.5t35.5 16.5t19 29.5t5.5 45.5v666h-203v85q6 17 23 25.5t38 12t43 3.5h39h60v92q0 107 35.5 180.5t107 118.5t178.5 65t250 20q54 0 120.5 0.5t132 -2.5t122 -10.5t90.5 -22.5 q5 -20 7.5 -41t2.5 -47v-1129q0 -36 6.5 -56.5t20 -31t35 -13.5t51.5 -3h61v-100q-116 -11 -229.5 -15.5t-227.5 -4.5z" />
</font>
</defs>
</svg>
