<?xml version="1.0" standalone="no"?>
<!DOCTYPE svg PUBLIC "-//W3C//DTD SVG 1.1//EN" "http://www.w3.org/Graphics/SVG/1.1/DTD/svg11.dtd" >
<svg xmlns="http://www.w3.org/2000/svg">
<metadata>
This is a custom SVG webfont generated by Font Squirrel.
Copyright   :  ITC Franklin Gothic is a trademark of The International Typeface Corporation which may be registered in certain jurisdictions Portions copyright Microsoft Corporation  All rights reserved
Designer    : Victor Caruso
Foundry     : International Typeface Corporation
Foundry URL : httpwwwitcfontscom
</metadata>
<defs>
<font id="FranklinGothicDemiItalic" horiz-adv-x="1201" >
<font-face units-per-em="2048" ascent="1638" descent="-410" />
<missing-glyph horiz-adv-x="512" />
<glyph unicode=" "  horiz-adv-x="512" />
<glyph unicode="&#x09;" horiz-adv-x="512" />
<glyph unicode="&#xa0;" horiz-adv-x="512" />
<glyph unicode="!" horiz-adv-x="590" d="M59 0l51 303h303l-51 -303h-303zM190 411l51 954h350l-243 -954h-158z" />
<glyph unicode="&#x22;" horiz-adv-x="745" d="M163 804l58 561h236l-130 -561h-164zM519 804l58 561h235l-130 -561h-163z" />
<glyph unicode="#" d="M94 421l45 199h218l36 154h-215l45 198h215l90 393h199l-90 -393h143l90 393h201l-90 -393h190l-45 -198h-190l-35 -154h193l-45 -199h-194l-96 -421h-201l96 421h-143l-96 -421h-199l96 421h-218zM542 620h157l35 154h-156z" />
<glyph unicode="$" d="M51 401l267 65q33 -212 297 -212q184 0 184 149q0 63 -44.5 91.5t-184.5 62.5q-114 28 -166 48t-106 67.5t-86.5 120t-32.5 148.5q0 151 123 274.5t361 123.5l28 171h164l-29 -185q236 -44 345 -284l-235 -109q-53 184 -273 184q-176 0 -176 -148q0 -53 37.5 -83.5 t227.5 -74.5q133 -31 202.5 -69t119 -121t49.5 -184q0 -175 -125.5 -297t-376.5 -122l-36 -215h-163l37 226q-110 4 -233 92.5t-175 280.5z" />
<glyph unicode="%" horiz-adv-x="1730" d="M142 952q0 179 104.5 301.5t254.5 122.5q129 0 221 -94t92 -261q0 -153 -103.5 -282t-257.5 -129q-137 0 -224 98.5t-87 243.5zM284 0l1035 1369h189l-1037 -1369h-187zM375 902q0 -120 82 -120q40 0 65 31t39 126.5t14 137.5q0 115 -77 115q-63 0 -93 -86t-30 -204z M977 337q0 164 98.5 292.5t256.5 128.5q127 0 221.5 -91t94.5 -282q0 -139 -94.5 -266t-265.5 -127q-149 0 -230 103t-81 242zM1212 282q0 -114 82 -114q117 0 117 293q0 114 -79 114q-74 0 -97 -114t-23 -179z" />
<glyph unicode="&#x26;" horiz-adv-x="1465" d="M37 372q0 133 91 247t329 175q-91 136 -91 250q0 148 111.5 247t306.5 99q194 0 297 -89t103 -226q0 -259 -343 -364l164 -224q120 110 179 294l275 -40q-107 -253 -313 -440q52 -62 130 -62q37 0 100 10l-28 -240q-96 -13 -153 -13q-156 0 -251 129q-192 -148 -427 -148 q-217 0 -348.5 115t-131.5 280zM354 384q0 -85 57 -128.5t133 -43.5q135 0 258 89l-227 315q-221 -65 -221 -232zM642 1061q0 -71 92 -187q202 59 202 188q0 63 -44.5 96t-101.5 33q-63 0 -105.5 -37.5t-42.5 -92.5z" />
<glyph unicode="'" horiz-adv-x="390" d="M163 804l58 561h236l-130 -561h-164z" />
<glyph unicode="(" horiz-adv-x="601" d="M28 397q0 489 479 968h194q-229 -245 -326 -540.5t-97 -576.5q0 -302 147 -603h-168q-229 416 -229 752z" />
<glyph unicode=")" horiz-adv-x="601" d="M-100 -355q228 242 325.5 538t97.5 578q0 304 -147 604h167q231 -418 231 -752q0 -490 -480 -968h-194z" />
<glyph unicode="*" d="M289 1080l74 142l263 -147l38 298l158 -26l-59 -295l296 55l23 -158l-299 -35l145 -264l-144 -72l-125 274l-207 -219l-112 114l221 204z" />
<glyph unicode="+" d="M125 580v219h397v412h218v-412h397v-219h-397v-411h-218v411h-397z" />
<glyph unicode="," horiz-adv-x="527" d="M-25 -314l196 314h-148l52 310h312l-47 -276l-246 -348h-119z" />
<glyph unicode="-" horiz-adv-x="527" d="M8 395l37 222h474l-37 -222h-474z" />
<glyph unicode="." horiz-adv-x="527" d="M23 0l52 310h311l-52 -310h-311z" />
<glyph unicode="/" horiz-adv-x="905" d="M-236 -355l1039 1720h184l-1034 -1720h-189z" />
<glyph unicode="0" d="M92 579q0 304 158.5 561t437.5 257q223 0 352.5 -161t129.5 -428q0 -329 -157.5 -580t-428.5 -251q-238 0 -365 173.5t-127 428.5zM407 497q0 -160 48 -223t139 -63q154 0 210.5 242t56.5 424q0 174 -52.5 231t-130.5 57q-88 0 -141 -67.5t-91.5 -241t-38.5 -359.5z" />
<glyph unicode="1" d="M74 0l44 261h359l130 778q-98 -100 -311 -100q-20 0 -65 1l43 253q326 0 463 206h231l-191 -1138h365l-44 -261h-1024z" />
<glyph unicode="2" d="M23 0l39 297q576 350 683.5 458.5t107.5 206.5q0 78 -53.5 125.5t-129.5 47.5q-187 0 -244 -251l-281 67q54 206 198 326.5t340 120.5q213 0 353.5 -123.5t140.5 -309.5q0 -144 -79.5 -252.5t-238.5 -202t-475 -252.5h690l-38 -258h-1013z" />
<glyph unicode="3" d="M20 381l267 51q62 -218 262 -218q104 0 163.5 54.5t59.5 137.5q0 66 -37 112.5t-85 59t-145 12.5h-101l32 232h146q247 0 247 173q0 74 -54.5 118.5t-136.5 44.5q-158 0 -229 -164l-269 75q144 329 512 329q216 0 353.5 -102t137.5 -273q0 -118 -71.5 -209.5 t-199.5 -114.5q109 -40 165.5 -126.5t56.5 -185.5q0 -171 -141.5 -295.5t-383.5 -124.5q-222 0 -368 116t-181 298z" />
<glyph unicode="4" d="M38 314l40 251l654 818h363l-138 -826h205l-41 -243h-205l-53 -314h-307l53 314h-571zM298 547h359l93 552z" />
<glyph unicode="5" d="M51 359l303 47q44 -174 235 -174q106 0 168.5 66.5t62.5 164.5q0 92 -58 148.5t-148 56.5q-122 0 -205 -111l-258 88l172 720h875l-71 -269h-603l-75 -313q99 115 266 115q175 0 300 -118t125 -300q0 -213 -158.5 -357.5t-394.5 -144.5q-204 0 -352.5 103.5t-183.5 277.5 z" />
<glyph unicode="6" d="M110 574q0 330 166 574.5t458 244.5q189 0 311.5 -107t143.5 -288l-271 -23q-23 191 -189 191q-250 0 -303 -474q105 181 300 181q176 0 295.5 -122t119.5 -298q0 -186 -133 -330.5t-369 -144.5q-237 0 -383 158t-146 438zM423 422q0 -101 66.5 -155t144.5 -54 q89 0 148.5 62.5t59.5 159.5q0 93 -58.5 152t-143.5 59q-90 0 -153.5 -64t-63.5 -160z" />
<glyph unicode="7" d="M196 1105l47 260h963l-23 -219q-203 -178 -375 -487.5t-202 -658.5h-361q30 232 158 490.5t289.5 424t209.5 190.5h-706z" />
<glyph unicode="8" d="M49 330q0 120 89.5 217.5t235.5 128.5q-179 109 -179 288q0 160 146.5 287t390.5 127q203 0 327.5 -87.5t124.5 -228.5q0 -215 -288 -325q229 -106 229 -314q0 -184 -155 -307t-399 -123q-229 0 -375.5 88t-146.5 249zM309 378q0 -85 77 -137.5t201 -52.5q110 0 179.5 44 t69.5 124q0 71 -73.5 121.5t-242.5 112.5q-94 -19 -152.5 -80.5t-58.5 -131.5zM473 1045q0 -139 291 -229q165 70 165 199q0 78 -62 131t-172 53q-101 0 -161.5 -43.5t-60.5 -110.5z" />
<glyph unicode="9" d="M51 299l279 61q36 -142 183 -142q131 0 209 118.5t126 377.5q-106 -205 -313 -205q-163 0 -288 111.5t-125 299.5q0 185 140.5 327.5t364.5 142.5q252 0 387 -161.5t135 -411.5q0 -316 -174 -576t-470 -260q-355 0 -454 318zM426 942q0 -85 56 -143.5t144 -58.5 q91 0 153 63.5t62 153.5q0 86 -58.5 144t-141.5 58q-91 0 -153 -63.5t-62 -153.5z" />
<glyph unicode=":" horiz-adv-x="527" d="M23 0l52 310h311l-52 -310h-311zM139 694l52 309h311l-52 -309h-311z" />
<glyph unicode=";" horiz-adv-x="527" d="M-25 -314l196 314h-148l52 310h312l-47 -276l-246 -348h-119zM139 694l52 309h312l-52 -309h-312z" />
<glyph unicode="&#x37e;" horiz-adv-x="527" d="M-25 -314l196 314h-148l52 310h312l-47 -276l-246 -348h-119zM139 694l52 309h312l-52 -309h-312z" />
<glyph unicode="&#x3c;" d="M187 567v236l887 458v-280l-589 -297l589 -297v-278z" />
<glyph unicode="=" d="M124 382v219h1012v-219h-1012zM124 758v218h1012v-218h-1012z" />
<glyph unicode="&#x3e;" d="M187 109v280l589 296l-589 298v278l887 -458v-237z" />
<glyph unicode="?" horiz-adv-x="1031" d="M115 1030q46 174 178.5 287.5t314.5 113.5q191 0 320.5 -110.5t129.5 -288.5q0 -85 -32 -154.5t-80.5 -115t-144.5 -104.5q-119 -74 -148.5 -114.5t-38.5 -129.5h-256q20 182 53.5 242.5t164.5 156.5q103 76 135.5 117.5t32.5 100.5q0 70 -44.5 110.5t-111.5 40.5 q-153 0 -211 -219zM278 0l51 306h304l-51 -306h-304z" />
<glyph unicode="@" horiz-adv-x="1584" d="M110 668q0 313 220.5 525.5t529.5 212.5q183 0 344 -79t253 -228t92 -317q0 -205 -123.5 -352t-292.5 -147q-116 0 -181 87q-81 -91 -189 -91q-119 0 -198 98t-79 253q0 179 103 296t245 117q86 0 155 -59l13 43h189l-74 -451q-10 -58 -10 -78q0 -31 45 -31 q82 0 148.5 91t66.5 219q0 194 -146 329t-363 135q-229 0 -388 -162.5t-159 -402.5q0 -220 143.5 -385.5t439.5 -165.5q183 0 389 88l59 -165q-202 -97 -472 -97q-371 0 -565.5 219t-194.5 498zM686 631q0 -70 26 -114.5t72 -44.5q71 0 125 72.5t54 161.5q0 71 -40.5 107.5 t-86.5 36.5q-64 0 -107 -61.5t-43 -157.5z" />
<glyph unicode="A" horiz-adv-x="1260" d="M-71 0l649 1365h374l230 -1365h-325l-45 300h-455l-132 -300h-296zM459 538h321l-81 546z" />
<glyph unicode="B" horiz-adv-x="1342" d="M52 0l228 1365h588q176 0 263 -43t132 -122t45 -175q0 -261 -307 -323q249 -70 249 -298q0 -164 -115 -284t-405 -120h-678zM407 244h277q119 0 177 50.5t58 123.5q0 89 -57 128.5t-190 39.5h-208zM503 818h215q110 0 153 11t75 50t32 104q0 153 -206 153h-216z" />
<glyph unicode="C" horiz-adv-x="1275" d="M94 567q0 327 181 575.5t481 248.5q217 0 363 -131.5t155 -407.5l-312 -15q2 31 2 48q0 103 -52 174.5t-157 71.5q-172 0 -246.5 -206.5t-74.5 -404.5q0 -147 63 -214.5t162 -67.5q201 0 276 252l281 -49q-156 -466 -581 -466q-263 0 -402 173.5t-139 418.5z" />
<glyph unicode="D" horiz-adv-x="1337" d="M52 0l228 1365h402q212 0 329.5 -66.5t196.5 -213t79 -343.5q0 -184 -67 -343.5t-178 -255.5t-223.5 -121t-289.5 -25zM393 243h164q248 0 329 165.5t81 354.5q0 361 -287 361h-140z" />
<glyph unicode="E" horiz-adv-x="1170" d="M52 0l228 1365h962l-44 -259h-641l-47 -280h536l-41 -247h-537l-53 -320h653l-44 -259h-972z" />
<glyph unicode="F" horiz-adv-x="1089" d="M52 0l228 1365h926l-43 -259h-612l-51 -305h520l-43 -259h-508l-91 -542h-326z" />
<glyph unicode="G" horiz-adv-x="1347" d="M94 564q0 352 189 590.5t486 238.5q216 0 351.5 -118t171.5 -331l-294 -48q-36 244 -231 244q-120 0 -199 -93.5t-115.5 -251.5t-36.5 -263q0 -124 59.5 -208t193.5 -84q198 0 266 245h-281l41 247h574l-124 -742h-128l-36 184q-144 -192 -376 -192q-214 0 -362.5 152.5 t-148.5 429.5z" />
<glyph unicode="H" horiz-adv-x="1315" d="M52 0l228 1365h301l-90 -535h441l90 535h300l-228 -1365h-301l96 571h-441l-96 -571h-300z" />
<glyph unicode="I" horiz-adv-x="587" d="M52 0l228 1365h314l-228 -1365h-314z" />
<glyph unicode="J" horiz-adv-x="799" d="M-69 0l38 242q70 -13 133 -13q121 0 169 33.5t62.5 82.5t54.5 290l123 730h308l-158 -948q-29 -169 -70.5 -247.5t-150.5 -135.5t-285 -57q-104 0 -224 23z" />
<glyph unicode="K" horiz-adv-x="1281" d="M52 0l228 1365h301l-108 -642l43 55q37 48 65 81l438 506h320l-431 -490l264 -875h-323l-173 634l-269 -306l-55 -328h-300z" />
<glyph unicode="L" horiz-adv-x="1001" d="M52 0l228 1365h314l-185 -1106h537l-43 -259h-851z" />
<glyph unicode="M" horiz-adv-x="1768" d="M52 0l228 1365h479l121 -835l400 835h495l-228 -1365h-319l191 1142l-551 -1142h-182l-183 1154l-193 -1154h-258z" />
<glyph unicode="N" horiz-adv-x="1335" d="M52 0l228 1365h346l329 -833q3 41 60 401l72 432h256l-229 -1365h-255l-398 988q-4 -99 -65 -467l-87 -521h-257z" />
<glyph unicode="O" horiz-adv-x="1318" d="M96 573q0 324 175 569t465 245q249 0 395.5 -165t146.5 -437q0 -329 -174 -567.5t-471 -238.5q-242 0 -389.5 163t-147.5 431zM410 528q0 -296 228 -296q176 0 252 202t76 396q0 305 -229 305q-163 0 -245 -190t-82 -417z" />
<glyph unicode="P" horiz-adv-x="1229" d="M52 0l228 1365h488q161 0 258 -30t167.5 -126.5t70.5 -236.5q0 -104 -43.5 -206.5t-124 -160.5t-148.5 -75.5t-206 -17.5h-290l-86 -512h-314zM492 751h235q121 0 177 57.5t56 141.5q0 64 -45 118t-198 54h-163z" />
<glyph unicode="Q" horiz-adv-x="1326" d="M96 572q0 316 172.5 565t475.5 249q258 0 402.5 -170.5t144.5 -427.5q0 -258 -109.5 -460t-283.5 -277q4 -87 147 -87q50 0 109 7l-13 -229q-99 -10 -152 -10q-137 0 -206.5 65t-69.5 163q0 10 2 27q-55 -9 -104 -9q-221 0 -368 162.5t-147 431.5zM408 526 q0 -295 236 -295q175 0 253 195.5t78 393.5q0 313 -230 313q-184 0 -260.5 -204t-76.5 -403z" />
<glyph unicode="R" horiz-adv-x="1345" d="M52 0l228 1365h505q191 0 294.5 -41.5t163 -142t59.5 -211.5q0 -119 -71.5 -227t-235.5 -151l170 -592h-318l-144 543h-254l-91 -543h-306zM483 780h202q117 0 172.5 15.5t91 60t35.5 109.5q0 85 -54.5 123t-181.5 38h-207z" />
<glyph unicode="S" horiz-adv-x="1175" d="M-6 389l292 40q45 -203 277 -203q105 0 161 45t56 114q0 66 -42.5 95.5t-197.5 71.5q-141 37 -224.5 82t-133 127.5t-49.5 188.5q0 173 131 305t361 132q396 0 512 -357l-280 -65q-48 170 -233 170q-86 0 -136.5 -41t-50.5 -99t41 -88t157 -59q167 -42 263 -88.5 t147.5 -130t51.5 -203.5q0 -193 -142 -322.5t-404 -129.5q-224 0 -372.5 103.5t-184.5 311.5z" />
<glyph unicode="T" horiz-adv-x="1002" d="M100 1106l43 259h1003l-44 -259h-344l-185 -1106h-314l185 1106h-344z" />
<glyph unicode="U" horiz-adv-x="1316" d="M116 382q0 60 12 136l142 847h336l-133 -797q-14 -84 -14 -147q0 -97 67.5 -135.5t149.5 -38.5q94 0 152.5 37.5t74 88t51.5 266.5l122 726h270l-127 -762q-38 -222 -62.5 -300t-88.5 -152.5t-177 -118.5t-269 -44q-249 0 -377.5 110t-128.5 284z" />
<glyph unicode="V" horiz-adv-x="1124" d="M116 1365h314l132 -1021l440 1021h272l-627 -1365h-330z" />
<glyph unicode="W" horiz-adv-x="1815" d="M144 1365h313l86 -946l360 946h284l115 -946l358 946h278l-559 -1365h-295l-122 952l-366 -952h-291z" />
<glyph unicode="X" horiz-adv-x="1221" d="M-92 0l551 730l-292 635h338l189 -428l292 428h306l-480 -635l330 -730h-341l-221 515l-358 -515h-314z" />
<glyph unicode="Y" horiz-adv-x="1086" d="M76 1365h340l209 -540l354 540h299l-548 -791l-96 -574h-314l96 574z" />
<glyph unicode="Z" horiz-adv-x="1173" d="M-44 0l37 220l798 893q-192 -7 -326 -7h-298l43 259h1013l-31 -209l-799 -903q55 0 176 4q68 2 240 2h281l-43 -259h-1091z" />
<glyph unicode="[" horiz-adv-x="601" d="M-44 -355l288 1720h407l-21 -125h-223l-246 -1472h222l-20 -123h-407z" />
<glyph unicode="\" horiz-adv-x="905" d="M201 1365h172l463 -1720h-176z" />
<glyph unicode="]" horiz-adv-x="601" d="M-51 -355l21 126h224l246 1471h-224l21 123h408l-288 -1720h-408z" />
<glyph unicode="^" horiz-adv-x="1024" d="M38 685l323 689h360l323 -689h-287l-216 470l-216 -470h-287z" />
<glyph unicode="_" horiz-adv-x="1024" d="M29 -94h1024v-239h-1024v239z" />
<glyph unicode="`" horiz-adv-x="1024" d="M401 1358l92 155l360 -241l-62 -111z" />
<glyph unicode="a" horiz-adv-x="1108" d="M22 251q0 166 149 266.5t540 118.5q18 48 18 91q0 56 -36 88.5t-97 32.5q-153 0 -204 -154l-267 30q107 311 493 311q195 0 296.5 -81t101.5 -213q0 -48 -28 -220l-44 -261q-21 -126 -21 -193q0 -32 5 -67h-283q-2 45 -2 63q0 20 6 65q4 27 5 47q-95 -201 -327 -201 q-134 0 -219.5 79t-85.5 198zM330 285q0 -53 31.5 -88.5t84.5 -35.5q86 0 153 83t91 249q-360 -13 -360 -208z" />
<glyph unicode="b" horiz-adv-x="1109" d="M38 0q18 62 35 186q13 101 53 339l140 840h294l-82 -487q98 162 259 162q142 0 226.5 -109.5t84.5 -311.5q0 -257 -128 -449t-340 -192q-209 0 -300 183q-53 -85 -79 -161h-163zM400 348q0 -75 35 -121t100 -46q113 0 166 164t53 323q0 76 -35.5 122t-96.5 46 q-120 0 -171 -168.5t-51 -319.5z" />
<glyph unicode="c" horiz-adv-x="1038" d="M63 448q0 229 144 408.5t384 179.5q218 0 319.5 -118.5t101.5 -253.5v-22l-264 -16q0 101 -46 144.5t-105 43.5q-99 0 -157.5 -114.5t-58.5 -299.5q0 -187 155 -187q137 0 191 179l248 -33q-129 -380 -469 -380q-212 0 -327.5 132.5t-115.5 336.5z" />
<glyph unicode="d" horiz-adv-x="1106" d="M60 399q0 233 118 436.5t328 203.5q194 0 241 -189l86 515h294l-228 -1365h-276l26 158q-107 -180 -266 -180q-155 0 -239 116t-84 305zM364 362q0 -91 38 -132.5t87 -41.5q64 0 118 57.5t78.5 211.5t24.5 196q0 82 -40.5 130.5t-98.5 48.5q-106 0 -156.5 -153.5 t-50.5 -316.5z" />
<glyph unicode="e" horiz-adv-x="1079" d="M55 443q0 232 147.5 414t390.5 182q204 0 317.5 -132t113.5 -328q0 -43 -10 -122h-657q-6 -50 -6 -75q0 -99 50 -148.5t122 -49.5q143 0 203 162l250 -42q-51 -147 -173 -238.5t-297 -91.5q-201 0 -326 130t-125 339zM378 625h367q5 34 5 61q0 80 -45.5 123t-109.5 43 q-168 0 -217 -227z" />
<glyph unicode="f" horiz-adv-x="652" d="M56 0l132 786h-120l28 231h130q29 228 135.5 319t302.5 91q61 0 125 -10l-17 -235q-48 7 -90 7q-67 0 -110 -31t-54 -141h198l-38 -231h-197l-131 -786h-294z" />
<glyph unicode="g" horiz-adv-x="1051" d="M-78 -137q0 135 190 206q-88 66 -88 166q0 68 36.5 124.5t180.5 127.5q-115 72 -115 213q0 157 126 247.5t310 90.5q107 0 178 -21q37 238 244 238q28 0 81 -4l-12 -200q-44 7 -66 7q-114 0 -129 -87q143 -84 143 -235q0 -152 -123 -242t-316 -90q-62 0 -173 18 q-82 -33 -82 -90q0 -35 31.5 -53.5t117.5 -19.5q255 -3 342 -29.5t137 -93t50 -152.5q0 -137 -120 -239.5t-454 -102.5q-275 0 -382 58t-107 163zM173 -89q0 -53 82 -77.5t196 -24.5q260 0 260 108q0 30 -30 52t-141 24q-148 2 -228 8q-26 2 -35 2q-34 0 -69 -29t-35 -63z M403 712q0 -150 147 -150q89 0 134 52.5t45 126.5q0 132 -146 132q-91 0 -135.5 -51.5t-44.5 -109.5z" />
<glyph unicode="h" horiz-adv-x="1119" d="M38 0l228 1365h294l-83 -497q105 167 285 167q117 0 193.5 -71t76.5 -187q0 -61 -30 -241l-90 -536h-294l103 617q9 54 9 87q0 44 -30 73.5t-78 29.5q-59 0 -103.5 -36t-63.5 -92.5t-42 -192.5l-81 -486h-294z" />
<glyph unicode="i" horiz-adv-x="551" d="M38 0l170 1017h306l-170 -1017h-306zM221 1094l48 289h306l-48 -289h-306z" />
<glyph unicode="j" horiz-adv-x="549" d="M-202 -359l33 234q34 -5 60 -5q63 0 96.5 24.5t45 83t35.5 200.5l141 839h303l-149 -889q-37 -218 -69.5 -308.5t-110 -141.5t-205.5 -51q-67 0 -180 14zM221 1092l49 291h303l-49 -291h-303z" />
<glyph unicode="k" horiz-adv-x="1108" d="M38 0l228 1365h290l-133 -795l436 447h314l-354 -345l218 -672h-307l-143 466l-211 -200l-44 -266h-294z" />
<glyph unicode="l" horiz-adv-x="539" d="M38 0l228 1365h294l-228 -1365h-294z" />
<glyph unicode="m" horiz-adv-x="1667" d="M38 0l170 1017h266l-29 -175q78 127 147.5 162.5t146.5 35.5q178 0 250 -190q115 185 298 185q133 0 211 -80.5t78 -208.5q0 -49 -22 -182l-95 -564h-288l95 568q15 91 15 116q0 119 -108 119q-65 0 -117.5 -54.5t-84.5 -247.5l-84 -501h-284l102 605q12 72 12 93 q0 110 -104 110q-56 0 -100.5 -40.5t-62.5 -99.5t-43 -218l-75 -450h-294z" />
<glyph unicode="n" horiz-adv-x="1117" d="M38 0l170 1017h276l-32 -193q111 211 305 211q120 0 195.5 -77.5t75.5 -196.5q0 -48 -23 -189l-96 -572h-293l99 594q15 89 15 112q0 107 -105 107q-55 0 -101 -36.5t-67 -94t-41 -179.5l-84 -503h-294z" />
<glyph unicode="o" horiz-adv-x="1093" d="M64 437q0 261 145 433t378 172q198 0 320.5 -131.5t122.5 -344.5q0 -243 -148.5 -415t-372.5 -172q-193 0 -319 130t-126 328zM365 368q0 -193 152 -193q124 0 170 169.5t46 307.5q0 193 -147 193q-125 0 -173 -156t-48 -321z" />
<glyph unicode="p" horiz-adv-x="1106" d="M-21 -355l230 1372h267l-30 -183q111 197 281 197q149 0 233.5 -115t84.5 -303q0 -257 -121.5 -445.5t-307.5 -188.5q-92 0 -163.5 48t-95.5 122l-84 -504h-294zM395 362q0 -89 41.5 -135.5t98.5 -46.5q110 0 159.5 166t49.5 315q0 67 -32.5 116t-97.5 49 q-61 0 -114 -54.5t-79 -205.5t-26 -204z" />
<glyph unicode="q" horiz-adv-x="1109" d="M57 382q0 248 128 450.5t356 202.5q194 0 275 -182q61 67 97 164h165q-14 -39 -73 -393l-164 -979h-293l81 485q-88 -155 -250 -155q-149 0 -235.5 114.5t-86.5 292.5zM352 351q0 -187 127 -187q132 0 182 195t50 327q0 82 -39.5 121.5t-95.5 39.5q-119 0 -171.5 -188 t-52.5 -308z" />
<glyph unicode="r" horiz-adv-x="720" d="M38 0l170 1017h284l-39 -234q45 104 90 158.5t92.5 72t122.5 17.5l-31 -294q-82 0 -135 -24.5t-97.5 -89t-65 -144.5t-48.5 -259l-37 -220h-306z" />
<glyph unicode="s" horiz-adv-x="953" d="M-33 284l251 29q20 -144 220 -144q82 0 123.5 31.5t41.5 74.5t-32 63t-137 38q-218 37 -289.5 118t-71.5 193q0 151 106.5 251.5t298.5 100.5q356 0 424 -290l-227 -44q-28 142 -200 142q-57 0 -94 -30t-37 -68q0 -43 32.5 -62t135.5 -36q181 -29 269 -98.5t88 -212.5 q0 -151 -118 -257t-326 -106q-174 0 -304 75t-154 232z" />
<glyph unicode="t" horiz-adv-x="736" d="M57 784l39 233h170l69 280l257 7l-48 -287h235l-39 -233h-242l-68 -408q-11 -63 -11 -87q0 -82 132 -82q63 0 106 8l-38 -223q-105 -17 -202 -17q-303 0 -303 246q0 68 32 229l68 334h-157z" />
<glyph unicode="u" horiz-adv-x="1098" d="M87 236q0 52 20 171l102 610h294l-105 -628q-12 -68 -12 -89q0 -89 85 -89q52 0 97 35t70.5 93.5t47.5 188.5l82 489h293l-170 -1017h-269l31 184q-117 -207 -309 -207q-110 0 -183.5 66t-73.5 193z" />
<glyph unicode="v" horiz-adv-x="931" d="M65 1017h311l108 -631l293 631h233l-499 -1017h-245z" />
<glyph unicode="w" horiz-adv-x="1474" d="M83 1017h304l78 -634l242 634h272l60 -634l277 634h226l-460 -1017h-263l-73 657l-256 -657h-257z" />
<glyph unicode="x" horiz-adv-x="971" d="M-92 0l423 544l-222 473h325l127 -297l212 297h263l-385 -485l242 -532h-318l-148 359l-259 -359h-260z" />
<glyph unicode="y" horiz-adv-x="921" d="M-43 -350l16 227q87 -11 125 -11q87 0 130.5 32.5t70.5 113.5l-234 1005h307l123 -618l274 618h231l-456 -960q-91 -192 -139 -261.5t-125 -110t-217 -40.5q-69 0 -106 5z" />
<glyph unicode="z" horiz-adv-x="885" d="M-44 0l33 196l532 607h-416l36 214h774l-33 -199l-532 -604h445l-36 -214h-803z" />
<glyph unicode="{" horiz-adv-x="601" d="M75 459l18 110q116 17 138 146l63 376q23 141 85 208t196 67q8 0 41 -2q48 -2 93 -3l-20 -119l-30 1q-60 0 -79 -20.5t-34 -112.5l-61 -365q-16 -93 -49.5 -145t-113.5 -95q90 -54 90 -171q0 -22 -8 -70l-61 -364q-10 -63 -10 -81q0 -31 16.5 -41.5t57.5 -10.5l36 1 l-20 -119q-33 0 -94 -3l-43 -1q-106 0 -151.5 43.5t-45.5 142.5q0 34 9 89l63 375q6 37 6 57q0 92 -92 107z" />
<glyph unicode="|" horiz-adv-x="1024" d="M401 -341v1706h283v-1706h-283z" />
<glyph unicode="}" horiz-adv-x="601" d="M-61 -351l20 119h31q59 0 78 20t35 112l61 365q15 93 48.5 145t113.5 95q-90 54 -90 172q0 21 8 69l61 364q10 62 10 81q0 31 -15.5 41.5t-56.5 10.5l-37 -1l19 119q30 0 94 3q34 2 43 2q106 0 151.5 -44t45.5 -143q0 -33 -9 -88l-63 -376q-6 -37 -6 -57q0 -91 92 -107 l-18 -110q-116 -17 -138 -146l-63 -376q-23 -141 -85.5 -207.5t-195.5 -66.5l-41 1q-48 3 -93 3z" />
<glyph unicode="~" d="M132 578q65 165 137 226.5t175 61.5q68 0 214 -54q128 -47 173 -47q87 0 142 105l156 -96q-117 -278 -326 -278q-52 0 -204 54q-134 47 -171 47q-88 0 -144 -123z" />
<glyph unicode="&#xa1;" horiz-adv-x="590" d="M-1 -355l242 954h159l-52 -954h-349zM177 707l50 303h304l-51 -303h-303z" />
<glyph unicode="&#xa2;" d="M215 646q0 205 120 370t325 171l33 199h139l-35 -214q254 -53 290 -344l-252 -28q3 23 3 36q0 76 -43 117t-105 41q-110 0 -156 -129.5t-46 -256.5q0 -94 43.5 -142t109.5 -48q124 0 183 172l226 -44q-110 -325 -402 -334l-44 -267h-138l46 279q-143 33 -220 149t-77 273 z" />
<glyph unicode="&#xa3;" d="M-64 0l32 261h109q80 0 123.5 16t79 59t47 100t13.5 188h-195l33 207h159q-1 29 -1 49q0 232 119 373.5t346 141.5q324 0 395 -272l-274 -102q-14 134 -120 134q-156 0 -156 -247l1 -77h226l-35 -207h-195q-21 -254 -166 -363h107q141 0 202.5 37t101.5 151l270 -80 q-67 -176 -170 -256t-187.5 -96.5t-306.5 -16.5h-558z" />
<glyph unicode="&#xa4;" horiz-adv-x="1365" d="M103 1254l127 127l208 -207q134 94 294 94q147 0 280 -92l205 204l127 -126l-205 -205q97 -141 97 -287q0 -149 -94 -282l207 -207l-125 -127l-207 206q-136 -96 -291 -96q-147 0 -289 95l-206 -204l-125 126l205 205q-94 133 -94 284q0 153 94 284zM443 762 q0 -118 83.5 -201.5t199.5 -83.5q117 0 200.5 83.5t83.5 201.5q0 117 -82.5 201t-201.5 84q-116 0 -199.5 -83.5t-83.5 -201.5z" />
<glyph unicode="&#xa5;" horiz-adv-x="1202" d="M70 382l27 164h374l5 28l-53 136h-298l27 164h207l-190 491h332l179 -550l329 550h290l-321 -491h239l-27 -164h-319l-89 -136l-5 -28h385l-27 -164h-385l-64 -382h-306l64 382h-374z" />
<glyph unicode="&#xa6;" horiz-adv-x="1024" d="M401 314h283v-655h-283v655zM401 652v713h283v-713h-283z" />
<glyph unicode="&#xa7;" d="M36 -62l258 42q56 -146 241 -146q100 0 157.5 41.5t57.5 103.5q0 61 -57.5 100.5t-280.5 130.5q-165 68 -207.5 132t-42.5 142q0 175 187 343q-82 64 -82 176q0 162 136.5 269t316.5 107q265 0 399 -236l-219 -66q-63 119 -190 119q-73 0 -119.5 -34.5t-46.5 -85.5 q0 -45 33.5 -69.5t176.5 -83.5q191 -79 257.5 -140.5t66.5 -176.5q0 -162 -170 -317q111 -70 111 -227q0 -199 -145.5 -315t-357.5 -116q-187 0 -313 85t-167 222zM434 578q0 -34 31 -65t249 -122q91 70 91 135q0 36 -26 64.5t-247 125.5q-98 -74 -98 -138z" />
<glyph unicode="&#xa8;" horiz-adv-x="1024" d="M357 1306q0 46 33 81.5t85 35.5q47 0 84 -30.5t37 -85.5q0 -53 -35.5 -84.5t-85.5 -31.5q-54 0 -86 35t-32 80zM691 1306q0 46 33.5 81.5t85.5 35.5q48 0 84 -31t36 -85q0 -53 -35.5 -84.5t-85.5 -31.5q-54 0 -86 35t-32 80z" />
<glyph unicode="&#xa9;" horiz-adv-x="1584" d="M117 682q0 287 205.5 495.5t499.5 208.5q303 0 503 -212.5t200 -491.5q0 -282 -203 -493t-500 -211q-294 0 -499.5 208t-205.5 496zM215 682q0 -247 177 -425.5t430 -178.5q254 0 428.5 181t174.5 424t-174.5 423.5t-429.5 180.5q-252 0 -429 -179t-177 -426zM434 622 q0 191 114 338.5t305 147.5q137 0 232.5 -79.5t100.5 -252.5l-215 -9l1 34q0 57 -30 98t-90 41q-101 0 -143 -121.5t-42 -224.5q0 -167 131 -167q114 0 161 151l195 -33q-99 -287 -371 -287q-168 0 -258.5 105t-90.5 259z" />
<glyph unicode="&#xaa;" horiz-adv-x="728" d="M123 929q0 215 427 232q9 23 9 46q0 66 -73 66q-88 0 -118 -92l-186 20q64 196 318 196q128 0 193 -51t65 -129q0 -31 -16 -131l-26 -153q-12 -72 -12 -109q0 -21 5 -52h-199q-1 22 -1 51q0 4 1 16q-59 -82 -190 -82q-87 0 -142 50t-55 122zM335 949q0 -68 63 -68 q106 0 136 181q-199 -7 -199 -113z" />
<glyph unicode="&#xab;" horiz-adv-x="706" d="M68 503l214 293h102l-149 -299l69 -284h-94zM341 504l213 292h102l-148 -299l68 -284h-96z" />
<glyph unicode="&#xac;" d="M187 301v253h887v-554h-281v301h-606z" />
<glyph unicode="&#xad;" horiz-adv-x="527" d="M8 395l37 222h474l-37 -222h-474z" />
<glyph unicode="&#xae;" horiz-adv-x="1584" d="M117 682q0 287 205.5 495.5t499.5 208.5q303 0 503 -212.5t200 -491.5q0 -282 -203 -493t-500 -211q-294 0 -499.5 208t-205.5 496zM215 682q0 -247 177 -425.5t430 -178.5q254 0 428.5 181t174.5 424t-174.5 423.5t-429.5 180.5q-252 0 -429 -179t-177 -426zM429 273 l138 819h323q200 0 266 -77.5t66 -163.5q0 -171 -186 -226l108 -352h-219l-92 321h-139l-53 -321h-212zM717 747h114q118 0 145 32t27 68q0 30 -21.5 60.5t-115.5 30.5h-117z" />
<glyph unicode="&#xaf;" horiz-adv-x="1024" d="M29 1591v239h1024v-239h-1024z" />
<glyph unicode="&#xb0;" d="M416 1106q0 118 83 202.5t200 84.5q120 0 203 -86t83 -204q0 -120 -83 -203.5t-199 -83.5q-118 0 -202.5 85.5t-84.5 204.5zM563 1106q0 -59 41.5 -100t97.5 -41t96 41t40 98q0 58 -40 99.5t-97 41.5t-97.5 -41t-40.5 -98z" />
<glyph unicode="&#xb1;" d="M84 -102v218h1012v-218h-1012zM84 580v219h397v412h218v-412h397v-219h-397v-411h-218v411h-397z" />
<glyph unicode="&#xb2;" horiz-adv-x="792" d="M80 546l24 186q368 209 434 270.5t66 115.5q0 46 -33.5 72.5t-79.5 26.5q-117 0 -148 -150l-193 42q33 129 127.5 202.5t222.5 73.5q139 0 232 -76t93 -189q0 -117 -92.5 -195t-385.5 -212h419l-24 -167h-662z" />
<glyph unicode="&#xb3;" horiz-adv-x="792" d="M74 783l184 32q42 -128 166 -128q63 0 98 28.5t35 74.5q0 53 -38 78.5t-128 25.5h-72l20 151h101q149 0 149 92q0 42 -34 67t-84 25q-99 0 -141 -98l-186 47q94 207 337 207q141 0 232 -62.5t91 -168.5q0 -143 -154 -190q127 -65 127 -183q0 -106 -92 -180t-249 -74 q-144 0 -240.5 70t-121.5 186z" />
<glyph unicode="&#xb4;" horiz-adv-x="1024" d="M428 1272l410 241l76 -162l-438 -190z" />
<glyph unicode="&#xb5;" d="M3 -355l230 1372h293l-90 -536q-18 -113 -18 -158q0 -82 36.5 -118.5t85.5 -36.5q79 0 132.5 62.5t85.5 250.5l89 536h294l-170 -1017h-239l26 158q-83 -185 -220 -185q-148 0 -158 168l-83 -496h-294z" />
<glyph unicode="&#xb6;" d="M137 952q0 93 29.5 171.5t84 132t120.5 78.5t109.5 27.5t264.5 3.5h554l-21 -127h-150l-264 -1579h-121l265 1579h-122l-264 -1579h-127l169 1007h-141q-143 0 -214.5 19t-121.5 87.5t-50 179.5zM392 965q0 -110 56 -143t206 -33h30l76 452h-26q-141 0 -202 -18.5 t-100.5 -85t-39.5 -172.5z" />
<glyph unicode="&#xb7;" horiz-adv-x="363" d="M0 351l52 310h311l-52 -310h-311z" />
<glyph unicode="&#xb8;" horiz-adv-x="1024" d="M170 -354l47 86q75 -46 129 -46q84 0 84 74q0 64 -97 64q-19 0 -53 -4l94 180h99l-53 -100q20 3 30 3q70 0 109 -36t39 -93q0 -82 -65.5 -134.5t-163.5 -52.5q-105 0 -199 59z" />
<glyph unicode="&#xb9;" horiz-adv-x="792" d="M140 546l28 168h202l73 435q-71 -49 -190 -49q-15 0 -47 1l27 163q213 0 298 122h158l-113 -672h207l-29 -168h-614z" />
<glyph unicode="&#xba;" horiz-adv-x="719" d="M148 1035q0 152 89.5 257t255.5 105q112 0 193.5 -79t81.5 -212q0 -145 -94.5 -247.5t-236.5 -102.5q-129 0 -209 80.5t-80 198.5zM357 997q0 -112 84 -112q72 0 96.5 98t24.5 173q0 111 -83 111q-70 0 -96 -91t-26 -179z" />
<glyph unicode="&#xbb;" horiz-adv-x="706" d="M51 213l148 299l-68 284h96l139 -291l-214 -292h-101zM322 213l150 299l-70 284h95l142 -290l-214 -293h-103z" />
<glyph unicode="&#xbc;" horiz-adv-x="1802" d="M80 542l28 168h202l73 435q-71 -49 -190 -49q-15 0 -47 1l27 163q213 0 298 122h158l-113 -672h207l-29 -168h-614zM323 0l987 1369h189l-989 -1369h-187zM1026 184l24 157l416 487h243l-81 -487h129l-26 -157h-130l-31 -186h-199l31 186h-376zM1196 322h239l58 345z" />
<glyph unicode="&#xbd;" horiz-adv-x="1802" d="M80 546l28 168h202l73 435q-71 -49 -190 -49q-15 0 -47 1l27 163q213 0 298 122h158l-113 -672h207l-29 -168h-614zM323 0l987 1369h189l-989 -1369h-187zM1016 -2l24 186q368 209 434 270.5t66 115.5q0 46 -33.5 72.5t-79.5 26.5q-117 0 -148 -150l-193 42 q33 129 127.5 202.5t222.5 73.5q139 0 232 -76t93 -189q0 -117 -92.5 -195t-385.5 -212h419l-24 -167h-662z" />
<glyph unicode="&#xbe;" horiz-adv-x="1802" d="M34 787l184 32q42 -128 166 -128q63 0 98 28.5t35 74.5q0 53 -38 78.5t-128 25.5h-72l20 151h101q149 0 149 92q0 42 -34 67t-84 25q-99 0 -141 -98l-186 47q94 207 337 207q141 0 232 -62.5t91 -168.5q0 -143 -154 -190q127 -65 127 -183q0 -106 -92 -180t-249 -74 q-144 0 -240.5 70t-121.5 186zM399 0l987 1369h189l-989 -1369h-187zM1046 184l24 157l416 487h243l-81 -487h129l-26 -157h-130l-31 -186h-199l31 186h-376zM1216 322h239l58 345z" />
<glyph unicode="&#xbf;" horiz-adv-x="1029" d="M-27 -22q0 85 32 155t80 114.5t145 104.5q118 74 147.5 114.5t39.5 130.5h254q-20 -182 -53.5 -243t-163.5 -157q-102 -75 -135 -117t-33 -101q0 -69 44.5 -110t111.5 -41q152 0 210 220l262 -68q-45 -172 -177.5 -286.5t-314.5 -114.5q-180 0 -314.5 105.5t-134.5 293.5 zM397 705l51 305h303l-51 -305h-303z" />
<glyph unicode="&#xc0;" horiz-adv-x="1260" d="M-71 0l649 1365h374l230 -1365h-325l-45 300h-455l-132 -300h-296zM459 538h321l-81 546zM501 1678l92 155l360 -241l-62 -111z" />
<glyph unicode="&#xc1;" horiz-adv-x="1260" d="M-71 0l649 1365h374l230 -1365h-325l-45 300h-455l-132 -300h-296zM459 538h321l-81 546zM628 1592l410 241l76 -162l-438 -190z" />
<glyph unicode="&#xc2;" horiz-adv-x="1260" d="M-71 0l649 1365h374l230 -1365h-325l-45 300h-455l-132 -300h-296zM403 1508l419 314l307 -314l-199 -21l-134 138l-194 -138zM459 538h321l-81 546z" />
<glyph unicode="&#xc3;" horiz-adv-x="1260" d="M-71 0l649 1365h374l230 -1365h-325l-45 300h-455l-132 -300h-296zM459 538h321l-81 546zM463 1643q118 106 228 106q65 0 145 -43q57 -30 87 -30q69 0 155 80l63 -112q-119 -124 -243 -124q-59 0 -154 49q-47 24 -78 24q-61 0 -139 -63z" />
<glyph unicode="&#xc4;" horiz-adv-x="1260" d="M-71 0l649 1365h374l230 -1365h-325l-45 300h-455l-132 -300h-296zM459 538h321l-81 546zM509 1622q0 46 33 81.5t85 35.5q47 0 84 -30.5t37 -85.5q0 -53 -35.5 -84.5t-85.5 -31.5q-54 0 -86 35t-32 80zM843 1622q0 46 33.5 81.5t85.5 35.5q48 0 84 -31t36 -85 q0 -53 -35.5 -84.5t-85.5 -31.5q-54 0 -86 35t-32 80z" />
<glyph unicode="&#xc5;" horiz-adv-x="1260" d="M-71 0l649 1365h374l230 -1365h-325l-45 300h-455l-132 -300h-296zM459 538h321l-81 546zM604 1637q0 72 53.5 130t136.5 58t139 -55t56 -131q0 -77 -56.5 -133.5t-139.5 -56.5q-82 0 -135.5 58.5t-53.5 129.5zM716 1637q0 -31 23.5 -53.5t56.5 -22.5t57 22.5t24 53.5 t-23.5 53.5t-56.5 22.5q-35 0 -58 -23t-23 -53z" />
<glyph unicode="&#xc6;" horiz-adv-x="1724" d="M-99 0l829 1365h1063l-43 -259h-606l-46 -275h506l-41 -248h-507l-54 -324h618l-43 -259h-919l58 344h-333l-209 -344h-273zM512 583h244l91 546z" />
<glyph unicode="&#xc7;" horiz-adv-x="1275" d="M94 567q0 327 181 575.5t481 248.5q217 0 363 -131.5t155 -407.5l-312 -15q2 31 2 48q0 103 -52 174.5t-157 71.5q-172 0 -246.5 -206.5t-74.5 -404.5q0 -147 63 -214.5t162 -67.5q201 0 276 252l281 -49q-68 -218 -218 -342t-347 -124q-13 0 -35 1l-39 -79q33 5 58 5 q69 0 115 -40t46 -97q0 -92 -76 -151t-185 -59q-128 0 -233 68l49 85q94 -48 151 -48q49 0 79 26t30 61q0 71 -104 71q-25 0 -81 -9l83 178q-203 40 -309 205.5t-106 374.5z" />
<glyph unicode="&#xc8;" horiz-adv-x="1170" d="M52 0l228 1365h962l-44 -259h-641l-47 -280h536l-41 -247h-537l-53 -320h653l-44 -259h-972zM517 1682l92 155l360 -241l-62 -111z" />
<glyph unicode="&#xc9;" horiz-adv-x="1170" d="M52 0l228 1365h962l-44 -259h-641l-47 -280h536l-41 -247h-537l-53 -320h653l-44 -259h-972zM632 1592l410 241l76 -162l-438 -190z" />
<glyph unicode="&#xca;" horiz-adv-x="1170" d="M52 0l228 1365h962l-44 -259h-641l-47 -280h536l-41 -247h-537l-53 -320h653l-44 -259h-972zM419 1512l419 314l307 -314l-199 -21l-134 138l-194 -138z" />
<glyph unicode="&#xcb;" horiz-adv-x="1170" d="M52 0l228 1365h962l-44 -259h-641l-47 -280h536l-41 -247h-537l-53 -320h653l-44 -259h-972zM513 1622q0 46 33 81.5t85 35.5q47 0 84 -30.5t37 -85.5q0 -53 -35.5 -84.5t-85.5 -31.5q-54 0 -86 35t-32 80zM847 1622q0 46 33.5 81.5t85.5 35.5q48 0 84 -31t36 -85 q0 -53 -35.5 -84.5t-85.5 -31.5q-54 0 -86 35t-32 80z" />
<glyph unicode="&#xcc;" horiz-adv-x="587" d="M52 0l228 1365h314l-228 -1365h-314zM177 1670l92 155l360 -241l-62 -111z" />
<glyph unicode="&#xcd;" horiz-adv-x="587" d="M52 0l228 1365h314l-228 -1365h-314zM300 1592l410 241l76 -162l-438 -190z" />
<glyph unicode="&#xce;" horiz-adv-x="587" d="M52 0l228 1365h314l-228 -1365h-314zM91 1512l419 314l307 -314l-199 -21l-134 138l-194 -138z" />
<glyph unicode="&#xcf;" horiz-adv-x="587" d="M52 0l228 1365h314l-228 -1365h-314zM193 1626q0 46 33 81.5t85 35.5q47 0 84 -30.5t37 -85.5q0 -53 -35.5 -84.5t-85.5 -31.5q-54 0 -86 35t-32 80zM527 1626q0 46 33.5 81.5t85.5 35.5q48 0 84 -31t36 -85q0 -53 -35.5 -84.5t-85.5 -31.5q-54 0 -86 35t-32 80z" />
<glyph unicode="&#xd0;" horiz-adv-x="1337" d="M29 601l34 205h123l94 559h402q260 0 371.5 -89.5t172 -225t60.5 -306.5q0 -180 -61.5 -335t-173.5 -255.5t-225.5 -127t-295.5 -26.5h-479l101 601h-123zM393 246h164q248 0 329 165.5t81 354.5q0 360 -287 360h-140l-54 -320h260l-34 -205h-260z" />
<glyph unicode="&#xd1;" horiz-adv-x="1335" d="M52 0l228 1365h346l329 -833q3 41 60 401l72 432h256l-229 -1365h-255l-398 988q-4 -99 -65 -467l-87 -521h-257zM523 1643q118 106 228 106q65 0 145 -43q57 -30 87 -30q69 0 155 80l63 -112q-119 -124 -243 -124q-59 0 -154 49q-47 24 -78 24q-61 0 -139 -63z" />
<glyph unicode="&#xd2;" horiz-adv-x="1317" d="M96 573q0 324 175 569t465 245q249 0 395.5 -165t146.5 -437q0 -329 -174 -567.5t-471 -238.5q-242 0 -389.5 163t-147.5 431zM410 528q0 -296 228 -296q176 0 252 202t76 396q0 305 -229 305q-163 0 -245 -190t-82 -417zM545 1678l92 155l360 -241l-62 -111z" />
<glyph unicode="&#xd3;" horiz-adv-x="1317" d="M96 573q0 324 175 569t465 245q249 0 395.5 -165t146.5 -437q0 -329 -174 -567.5t-471 -238.5q-242 0 -389.5 163t-147.5 431zM410 528q0 -296 228 -296q176 0 252 202t76 396q0 305 -229 305q-163 0 -245 -190t-82 -417zM660 1592l410 241l76 -162l-438 -190z" />
<glyph unicode="&#xd4;" horiz-adv-x="1317" d="M96 573q0 324 175 569t465 245q249 0 395.5 -165t146.5 -437q0 -329 -174 -567.5t-471 -238.5q-242 0 -389.5 163t-147.5 431zM410 528q0 -296 228 -296q176 0 252 202t76 396q0 305 -229 305q-163 0 -245 -190t-82 -417zM443 1512l419 314l307 -314l-199 -21l-134 138 l-194 -138z" />
<glyph unicode="&#xd5;" horiz-adv-x="1317" d="M96 573q0 324 175 569t465 245q249 0 395.5 -165t146.5 -437q0 -329 -174 -567.5t-471 -238.5q-242 0 -389.5 163t-147.5 431zM410 528q0 -296 228 -296q176 0 252 202t76 396q0 305 -229 305q-163 0 -245 -190t-82 -417zM507 1647q118 106 228 106q65 0 145 -43 q57 -30 87 -30q69 0 155 80l63 -112q-119 -124 -243 -124q-59 0 -154 49q-47 24 -78 24q-61 0 -139 -63z" />
<glyph unicode="&#xd6;" horiz-adv-x="1317" d="M96 573q0 324 175 569t465 245q249 0 395.5 -165t146.5 -437q0 -329 -174 -567.5t-471 -238.5q-242 0 -389.5 163t-147.5 431zM410 528q0 -296 228 -296q176 0 252 202t76 396q0 305 -229 305q-163 0 -245 -190t-82 -417zM549 1622q0 46 33 81.5t85 35.5q47 0 84 -30.5 t37 -85.5q0 -53 -35.5 -84.5t-85.5 -31.5q-54 0 -86 35t-32 80zM883 1622q0 46 33.5 81.5t85.5 35.5q48 0 84 -31t36 -85q0 -53 -35.5 -84.5t-85.5 -31.5q-54 0 -86 35t-32 80z" />
<glyph unicode="&#xd7;" d="M186 982l153 153l292 -291l281 281l155 -155l-282 -281l291 -290l-153 -154l-291 291l-281 -281l-155 154l281 281z" />
<glyph unicode="&#xd8;" horiz-adv-x="1318" d="M70 -108l164 252q-142 181 -142 430q0 326 173.5 570t464.5 244q187 0 285 -77l109 165h191l-176 -265q139 -166 139 -439q0 -301 -171 -546t-470 -245q-146 0 -276 64l-98 -153h-193zM405 540q0 -57 14 -120l446 676q-47 38 -125 38q-174 0 -254.5 -198.5t-80.5 -395.5z M507 267q53 -34 120 -34q192 0 264.5 207.5t72.5 385.5q0 51 -10 116z" />
<glyph unicode="&#xd9;" horiz-adv-x="1316" d="M116 382q0 60 12 136l142 847h336l-133 -797q-14 -84 -14 -147q0 -97 67.5 -135.5t149.5 -38.5q94 0 152.5 37.5t74 88t51.5 266.5l122 726h270l-127 -762q-38 -222 -62.5 -300t-88.5 -152.5t-177 -118.5t-269 -44q-249 0 -377.5 110t-128.5 284zM561 1674l92 155 l360 -241l-62 -111z" />
<glyph unicode="&#xda;" horiz-adv-x="1316" d="M116 382q0 60 12 136l142 847h336l-133 -797q-14 -84 -14 -147q0 -97 67.5 -135.5t149.5 -38.5q94 0 152.5 37.5t74 88t51.5 266.5l122 726h270l-127 -762q-38 -222 -62.5 -300t-88.5 -152.5t-177 -118.5t-269 -44q-249 0 -377.5 110t-128.5 284zM692 1588l410 241 l76 -162l-438 -190z" />
<glyph unicode="&#xdb;" horiz-adv-x="1316" d="M116 382q0 60 12 136l142 847h336l-133 -797q-14 -84 -14 -147q0 -97 67.5 -135.5t149.5 -38.5q94 0 152.5 37.5t74 88t51.5 266.5l122 726h270l-127 -762q-38 -222 -62.5 -300t-88.5 -152.5t-177 -118.5t-269 -44q-249 0 -377.5 110t-128.5 284zM451 1512l419 314 l307 -314l-199 -21l-134 138l-194 -138z" />
<glyph unicode="&#xdc;" horiz-adv-x="1316" d="M116 382q0 60 12 136l142 847h336l-133 -797q-14 -84 -14 -147q0 -97 67.5 -135.5t149.5 -38.5q94 0 152.5 37.5t74 88t51.5 266.5l122 726h270l-127 -762q-38 -222 -62.5 -300t-88.5 -152.5t-177 -118.5t-269 -44q-249 0 -377.5 110t-128.5 284zM561 1622q0 46 33 81.5 t85 35.5q47 0 84 -30.5t37 -85.5q0 -53 -35.5 -84.5t-85.5 -31.5q-54 0 -86 35t-32 80zM895 1622q0 46 33.5 81.5t85.5 35.5q48 0 84 -31t36 -85q0 -53 -35.5 -84.5t-85.5 -31.5q-54 0 -86 35t-32 80z" />
<glyph unicode="&#xdd;" horiz-adv-x="1086" d="M76 1365h340l209 -540l354 540h299l-548 -791l-96 -574h-314l96 574zM572 1592l410 241l76 -162l-438 -190z" />
<glyph unicode="&#xde;" horiz-adv-x="1242" d="M52 0l228 1365h314l-30 -184h174q162 0 260.5 -32t166.5 -128t68 -234q0 -102 -42.5 -203.5t-119 -158.5t-146 -77t-214.5 -20h-290l-55 -328h-314zM461 567h235q121 0 177 57t56 141q0 64 -45 118.5t-198 54.5h-163z" />
<glyph unicode="&#xdf;" horiz-adv-x="1279" d="M27 -104l140 834h-102l38 227h101q42 253 210.5 387.5t400.5 134.5q177 0 282.5 -88t105.5 -212q0 -92 -78.5 -181t-259.5 -128q-89 -19 -89 -36q0 -11 46 -29q226 -85 309.5 -175.5t83.5 -213.5q0 -167 -134.5 -299.5t-339.5 -132.5q-138 0 -274 68l102 178 q72 -44 169 -44q90 0 140 40t50 110q0 54 -43 92t-157 92q-109 52 -151 96.5t-42 116.5q0 126 145 253q88 0 154.5 45t66.5 117q0 51 -40.5 83t-108.5 32q-83 0 -135 -42.5t-69.5 -108t-49.5 -272.5l-158 -944h-313z" />
<glyph unicode="&#xe0;" horiz-adv-x="1108" d="M22 251q0 166 149 266.5t540 118.5q18 48 18 91q0 56 -36 88.5t-97 32.5q-153 0 -204 -154l-267 30q107 311 493 311q195 0 296.5 -81t101.5 -213q0 -48 -28 -220l-44 -261q-21 -126 -21 -193q0 -32 5 -67h-283q-2 45 -2 63q0 20 6 65q4 27 5 47q-95 -201 -327 -201 q-134 0 -219.5 79t-85.5 198zM330 285q0 -53 31.5 -88.5t84.5 -35.5q86 0 153 83t91 249q-360 -13 -360 -208zM389 1358l92 155l360 -241l-62 -111z" />
<glyph unicode="&#xe1;" horiz-adv-x="1108" d="M22 251q0 166 149 266.5t540 118.5q18 48 18 91q0 56 -36 88.5t-97 32.5q-153 0 -204 -154l-267 30q107 311 493 311q195 0 296.5 -81t101.5 -213q0 -48 -28 -220l-44 -261q-21 -126 -21 -193q0 -32 5 -67h-283q-2 45 -2 63q0 20 6 65q4 27 5 47q-95 -201 -327 -201 q-134 0 -219.5 79t-85.5 198zM330 285q0 -53 31.5 -88.5t84.5 -35.5q86 0 153 83t91 249q-360 -13 -360 -208zM516 1272l410 241l76 -162l-438 -190z" />
<glyph unicode="&#xe2;" horiz-adv-x="1108" d="M22 251q0 166 149 266.5t540 118.5q18 48 18 91q0 56 -36 88.5t-97 32.5q-153 0 -204 -154l-267 30q107 311 493 311q195 0 296.5 -81t101.5 -213q0 -48 -28 -220l-44 -261q-21 -126 -21 -193q0 -32 5 -67h-283q-2 45 -2 63q0 20 6 65q4 27 5 47q-95 -201 -327 -201 q-134 0 -219.5 79t-85.5 198zM291 1188l419 314l307 -314l-199 -21l-134 138l-194 -138zM330 285q0 -53 31.5 -88.5t84.5 -35.5q86 0 153 83t91 249q-360 -13 -360 -208z" />
<glyph unicode="&#xe3;" horiz-adv-x="1108" d="M22 251q0 166 149 266.5t540 118.5q18 48 18 91q0 56 -36 88.5t-97 32.5q-153 0 -204 -154l-267 30q107 311 493 311q195 0 296.5 -81t101.5 -213q0 -48 -28 -220l-44 -261q-21 -126 -21 -193q0 -32 5 -67h-283q-2 45 -2 63q0 20 6 65q4 27 5 47q-95 -201 -327 -201 q-134 0 -219.5 79t-85.5 198zM330 285q0 -53 31.5 -88.5t84.5 -35.5q86 0 153 83t91 249q-360 -13 -360 -208zM335 1311q118 106 228 106q65 0 145 -43q57 -30 87 -30q69 0 155 80l63 -112q-119 -124 -243 -124q-59 0 -154 49q-47 24 -78 24q-61 0 -139 -63z" />
<glyph unicode="&#xe4;" horiz-adv-x="1108" d="M22 251q0 166 149 266.5t540 118.5q18 48 18 91q0 56 -36 88.5t-97 32.5q-153 0 -204 -154l-267 30q107 311 493 311q195 0 296.5 -81t101.5 -213q0 -48 -28 -220l-44 -261q-21 -126 -21 -193q0 -32 5 -67h-283q-2 45 -2 63q0 20 6 65q4 27 5 47q-95 -201 -327 -201 q-134 0 -219.5 79t-85.5 198zM330 285q0 -53 31.5 -88.5t84.5 -35.5q86 0 153 83t91 249q-360 -13 -360 -208zM389 1306q0 46 33 81.5t85 35.5q47 0 84 -30.5t37 -85.5q0 -53 -35.5 -84.5t-85.5 -31.5q-54 0 -86 35t-32 80zM723 1306q0 46 33.5 81.5t85.5 35.5q48 0 84 -31 t36 -85q0 -53 -35.5 -84.5t-85.5 -31.5q-54 0 -86 35t-32 80z" />
<glyph unicode="&#xe5;" horiz-adv-x="1108" d="M22 251q0 166 149 266.5t540 118.5q18 48 18 91q0 56 -36 88.5t-97 32.5q-153 0 -204 -154l-267 30q107 311 493 311q195 0 296.5 -81t101.5 -213q0 -48 -28 -220l-44 -261q-21 -126 -21 -193q0 -32 5 -67h-283q-2 45 -2 63q0 20 6 65q4 27 5 47q-95 -201 -327 -201 q-134 0 -219.5 79t-85.5 198zM330 285q0 -53 31.5 -88.5t84.5 -35.5q86 0 153 83t91 249q-360 -13 -360 -208zM484 1325q0 72 53.5 130t136.5 58t139 -55t56 -131q0 -77 -56.5 -133.5t-139.5 -56.5q-82 0 -135.5 58.5t-53.5 129.5zM596 1325q0 -31 23.5 -53.5t56.5 -22.5 t57 22.5t24 53.5t-23.5 53.5t-56.5 22.5q-35 0 -58 -23t-23 -53z" />
<glyph unicode="&#xe6;" horiz-adv-x="1720" d="M21 261q0 94 44.5 163.5t135 117.5t187.5 63t344 34q18 58 18 91q0 122 -138 122q-160 0 -209 -151l-274 36q122 302 508 302q177 0 290 -92q121 92 289 92q199 0 324 -124t125 -341q0 -50 -9 -117h-677q-9 -51 -9 -77q0 -89 49.5 -143t132.5 -54q141 0 208 163l258 -42 q-139 -330 -480 -330q-278 0 -404 228q-125 -220 -387 -220q-153 0 -239.5 79t-86.5 200zM334 286q0 -57 35.5 -88t86.5 -31q186 0 250 330q-372 -11 -372 -211zM1001 625h377q4 44 4 62q0 78 -43.5 121t-114.5 43q-172 0 -223 -226z" />
<glyph unicode="&#xe7;" horiz-adv-x="1038" d="M63 448q0 229 144 408.5t384 179.5q211 0 316 -115t105 -257v-22l-264 -16q0 101 -46 144.5t-105 43.5q-99 0 -157.5 -114.5t-58.5 -299.5q0 -187 155 -187q137 0 191 179l248 -33q-123 -373 -469 -380l-41 -79q19 3 30 3q70 0 109 -36t39 -94q0 -81 -65.5 -133.5 t-164.5 -52.5q-104 0 -198 59l47 86q75 -46 129 -46q84 0 84 74q0 64 -98 64q-18 0 -53 -4l87 167q-162 27 -255 152t-93 309z" />
<glyph unicode="&#xe8;" horiz-adv-x="1079" d="M55 443q0 232 147.5 414t390.5 182q204 0 317.5 -132t113.5 -328q0 -43 -10 -122h-657q-6 -50 -6 -75q0 -99 50 -148.5t122 -49.5q143 0 203 162l250 -42q-51 -147 -173 -238.5t-297 -91.5q-201 0 -326 130t-125 339zM361 1358l92 155l360 -241l-62 -111zM378 625h367 q5 34 5 61q0 80 -45.5 123t-109.5 43q-168 0 -217 -227z" />
<glyph unicode="&#xe9;" horiz-adv-x="1079" d="M55 443q0 232 147.5 414t390.5 182q204 0 317.5 -132t113.5 -328q0 -43 -10 -122h-657q-6 -50 -6 -75q0 -99 50 -148.5t122 -49.5q143 0 203 162l250 -42q-51 -147 -173 -238.5t-297 -91.5q-201 0 -326 130t-125 339zM378 625h367q5 34 5 61q0 80 -45.5 123t-109.5 43 q-168 0 -217 -227zM484 1272l410 241l76 -162l-438 -190z" />
<glyph unicode="&#xea;" horiz-adv-x="1079" d="M55 443q0 232 147.5 414t390.5 182q204 0 317.5 -132t113.5 -328q0 -43 -10 -122h-657q-6 -50 -6 -75q0 -99 50 -148.5t122 -49.5q143 0 203 162l250 -42q-51 -147 -173 -238.5t-297 -91.5q-201 0 -326 130t-125 339zM275 1184l419 314l307 -314l-199 -21l-134 138 l-194 -138zM378 625h367q5 34 5 61q0 80 -45.5 123t-109.5 43q-168 0 -217 -227z" />
<glyph unicode="&#xeb;" horiz-adv-x="1079" d="M55 443q0 232 147.5 414t390.5 182q204 0 317.5 -132t113.5 -328q0 -43 -10 -122h-657q-6 -50 -6 -75q0 -99 50 -148.5t122 -49.5q143 0 203 162l250 -42q-51 -147 -173 -238.5t-297 -91.5q-201 0 -326 130t-125 339zM377 1306q0 46 33 81.5t85 35.5q47 0 84 -30.5 t37 -85.5q0 -53 -35.5 -84.5t-85.5 -31.5q-54 0 -86 35t-32 80zM378 625h367q5 34 5 61q0 80 -45.5 123t-109.5 43q-168 0 -217 -227zM711 1306q0 46 33.5 81.5t85.5 35.5q48 0 84 -31t36 -85q0 -53 -35.5 -84.5t-85.5 -31.5q-54 0 -86 35t-32 80z" />
<glyph unicode="&#xec;" horiz-adv-x="552" d="M38 0l170 1017h306l-170 -1017h-306zM109 1362l92 155l360 -241l-62 -111z" />
<glyph unicode="&#xed;" horiz-adv-x="552" d="M38 0l170 1017h306l-170 -1017h-306zM220 1272l410 241l76 -162l-438 -190z" />
<glyph unicode="&#xee;" horiz-adv-x="552" d="M11 1188l419 314l307 -314l-199 -21l-134 138l-194 -138zM38 0l170 1017h306l-170 -1017h-306z" />
<glyph unicode="&#xef;" horiz-adv-x="551" d="M38 0l170 1017h306l-170 -1017h-306zM113 1310q0 46 33 81.5t85 35.5q47 0 84 -30.5t37 -85.5q0 -53 -35.5 -84.5t-85.5 -31.5q-54 0 -86 35t-32 80zM447 1310q0 46 33.5 81.5t85.5 35.5q48 0 84 -31t36 -85q0 -53 -35.5 -84.5t-85.5 -31.5q-54 0 -86 35t-32 80z" />
<glyph unicode="&#xf0;" horiz-adv-x="1084" d="M62 461q0 237 141.5 399t336.5 162q119 0 205 -75q-35 163 -102 234l-184 -83l-60 95l162 74q-66 43 -158 74l37 109q162 -26 282 -104l177 82l78 -90l-163 -76q221 -254 221 -630q0 -300 -147.5 -476.5t-382.5 -176.5q-196 0 -319.5 130t-123.5 352zM362 373 q0 -198 149 -198q126 0 173 160.5t47 293.5q0 95 -42 144.5t-106 49.5q-106 0 -163.5 -121.5t-57.5 -328.5z" />
<glyph unicode="&#xf1;" horiz-adv-x="1117" d="M38 0l170 1017h276l-32 -193q111 211 305 211q120 0 195.5 -77.5t75.5 -196.5q0 -48 -23 -189l-96 -572h-293l99 594q15 89 15 112q0 107 -105 107q-55 0 -101 -36.5t-67 -94t-41 -179.5l-84 -503h-294zM331 1315q118 106 228 106q65 0 145 -43q57 -30 87 -30 q69 0 155 80l63 -112q-119 -124 -243 -124q-59 0 -154 49q-47 24 -78 24q-61 0 -139 -63z" />
<glyph unicode="&#xf2;" horiz-adv-x="1093" d="M64 437q0 261 145 433t378 172q198 0 320.5 -131.5t122.5 -344.5q0 -243 -148.5 -415t-372.5 -172q-193 0 -319 130t-126 328zM365 368q0 -193 152 -193q124 0 170 169.5t46 307.5q0 193 -147 193q-125 0 -173 -156t-48 -321zM365 1358l92 155l360 -241l-62 -111z" />
<glyph unicode="&#xf3;" horiz-adv-x="1093" d="M64 437q0 261 145 433t378 172q198 0 320.5 -131.5t122.5 -344.5q0 -243 -148.5 -415t-372.5 -172q-193 0 -319 130t-126 328zM365 368q0 -193 152 -193q124 0 170 169.5t46 307.5q0 193 -147 193q-125 0 -173 -156t-48 -321zM492 1272l410 241l76 -162l-438 -190z" />
<glyph unicode="&#xf4;" horiz-adv-x="1093" d="M64 437q0 261 145 433t378 172q198 0 320.5 -131.5t122.5 -344.5q0 -243 -148.5 -415t-372.5 -172q-193 0 -319 130t-126 328zM283 1192l419 314l307 -314l-199 -21l-134 138l-194 -138zM365 368q0 -193 152 -193q124 0 170 169.5t46 307.5q0 193 -147 193 q-125 0 -173 -156t-48 -321z" />
<glyph unicode="&#xf5;" horiz-adv-x="1093" d="M64 437q0 261 145 433t378 172q198 0 320.5 -131.5t122.5 -344.5q0 -243 -148.5 -415t-372.5 -172q-193 0 -319 130t-126 328zM323 1311q118 106 228 106q65 0 145 -43q57 -30 87 -30q69 0 155 80l63 -112q-119 -124 -243 -124q-59 0 -154 49q-47 24 -78 24 q-61 0 -139 -63zM365 368q0 -193 152 -193q124 0 170 169.5t46 307.5q0 193 -147 193q-125 0 -173 -156t-48 -321z" />
<glyph unicode="&#xf6;" horiz-adv-x="1093" d="M64 437q0 261 145 433t378 172q198 0 320.5 -131.5t122.5 -344.5q0 -243 -148.5 -415t-372.5 -172q-193 0 -319 130t-126 328zM365 368q0 -193 152 -193q124 0 170 169.5t46 307.5q0 193 -147 193q-125 0 -173 -156t-48 -321zM385 1306q0 46 33 81.5t85 35.5 q47 0 84 -30.5t37 -85.5q0 -53 -35.5 -84.5t-85.5 -31.5q-54 0 -86 35t-32 80zM719 1306q0 46 33.5 81.5t85.5 35.5q48 0 84 -31t36 -85q0 -53 -35.5 -84.5t-85.5 -31.5q-54 0 -86 35t-32 80z" />
<glyph unicode="&#xf7;" d="M125 580v219h1012v-219h-1012zM493 334q0 55 40 95.5t97 40.5q56 0 96 -39.5t40 -96.5t-40.5 -97t-96.5 -40t-96 40t-40 97zM493 1042q0 56 40 96.5t96 40.5q57 0 96.5 -40t39.5 -97q0 -56 -40 -96t-96 -40t-96 40t-40 96z" />
<glyph unicode="&#xf8;" horiz-adv-x="1094" d="M51 -89l141 193q-128 131 -128 339q0 245 142.5 422.5t371.5 177.5q145 0 239 -61l94 127h155l-151 -207q115 -130 115 -350q0 -219 -144.5 -396t-382.5 -177q-110 0 -214 50l-83 -118h-155zM365 404q0 -23 2 -52l321 452q-38 42 -105 42q-125 0 -171.5 -161t-46.5 -281z M414 205q45 -31 97 -31q129 0 173.5 152t44.5 320z" />
<glyph unicode="&#xf9;" horiz-adv-x="1098" d="M87 236q0 52 20 171l102 610h294l-105 -628q-12 -68 -12 -89q0 -89 85 -89q52 0 97 35t70.5 93.5t47.5 188.5l82 489h293l-170 -1017h-269l31 184q-117 -207 -309 -207q-110 0 -183.5 66t-73.5 193zM381 1358l92 155l360 -241l-62 -111z" />
<glyph unicode="&#xfa;" horiz-adv-x="1098" d="M87 236q0 52 20 171l102 610h294l-105 -628q-12 -68 -12 -89q0 -89 85 -89q52 0 97 35t70.5 93.5t47.5 188.5l82 489h293l-170 -1017h-269l31 184q-117 -207 -309 -207q-110 0 -183.5 66t-73.5 193zM508 1272l410 241l76 -162l-438 -190z" />
<glyph unicode="&#xfb;" horiz-adv-x="1098" d="M87 236q0 52 20 171l102 610h294l-105 -628q-12 -68 -12 -89q0 -89 85 -89q52 0 97 35t70.5 93.5t47.5 188.5l82 489h293l-170 -1017h-269l31 184q-117 -207 -309 -207q-110 0 -183.5 66t-73.5 193zM295 1188l419 314l307 -314l-199 -21l-134 138l-194 -138z" />
<glyph unicode="&#xfc;" horiz-adv-x="1098" d="M87 236q0 52 20 171l102 610h294l-105 -628q-12 -68 -12 -89q0 -89 85 -89q52 0 97 35t70.5 93.5t47.5 188.5l82 489h293l-170 -1017h-269l31 184q-117 -207 -309 -207q-110 0 -183.5 66t-73.5 193zM397 1306q0 46 33 81.5t85 35.5q47 0 84 -30.5t37 -85.5 q0 -53 -35.5 -84.5t-85.5 -31.5q-54 0 -86 35t-32 80zM731 1306q0 46 33.5 81.5t85.5 35.5q48 0 84 -31t36 -85q0 -53 -35.5 -84.5t-85.5 -31.5q-54 0 -86 35t-32 80z" />
<glyph unicode="&#xfd;" horiz-adv-x="921" d="M-43 -350l16 227q87 -11 125 -11q87 0 130.5 32.5t70.5 113.5l-234 1005h307l123 -618l274 618h231l-456 -960q-91 -192 -139 -261.5t-125 -110t-217 -40.5q-69 0 -106 5zM432 1272l410 241l76 -162l-438 -190z" />
<glyph unicode="&#xfe;" horiz-adv-x="1106" d="M-21 -355l288 1720h293l-82 -490q99 156 258 156q136 0 222.5 -113t86.5 -305q0 -257 -121.5 -445.5t-306.5 -188.5q-93 0 -164.5 48t-95.5 122l-84 -504h-294zM396 359q0 -85 41 -132t98 -47q111 0 160 166.5t49 315.5q0 77 -37 120.5t-93 43.5q-61 0 -113.5 -54.5 t-78.5 -209t-26 -203.5z" />
<glyph unicode="&#xff;" horiz-adv-x="921" d="M-43 -350l16 227q87 -11 125 -11q87 0 130.5 32.5t70.5 113.5l-234 1005h307l123 -618l274 618h231l-456 -960q-91 -192 -139 -261.5t-125 -110t-217 -40.5q-69 0 -106 5zM305 1306q0 46 33 81.5t85 35.5q47 0 84 -30.5t37 -85.5q0 -53 -35.5 -84.5t-85.5 -31.5 q-54 0 -86 35t-32 80zM639 1306q0 46 33.5 81.5t85.5 35.5q48 0 84 -31t36 -85q0 -53 -35.5 -84.5t-85.5 -31.5q-54 0 -86 35t-32 80z" />
<glyph unicode="&#x152;" horiz-adv-x="1862" d="M99 570q0 340 175.5 583.5t468.5 243.5q145 0 284 -71l7 39h911l-43 -259h-624l-47 -279h514l-42 -248h-513l-54 -320h624l-43 -259h-887l10 57q-106 -73 -241 -73q-217 0 -358.5 157.5t-141.5 428.5zM422 545q0 -140 58.5 -224.5t166.5 -84.5q116 0 202 101l114 682 q-61 125 -195 125q-101 0 -184.5 -80t-122.5 -237.5t-39 -281.5z" />
<glyph unicode="&#x153;" horiz-adv-x="1697" d="M62 446q0 254 145.5 424.5t376.5 170.5q184 0 307 -127q124 125 319 125q193 0 312 -126t119 -349q0 -55 -7 -104h-656q-4 -42 -4 -75q0 -93 44.5 -149t124.5 -56q150 0 206 167l256 -38q-59 -162 -186 -251t-291 -89q-183 0 -312 124q-126 -128 -323 -128 q-201 0 -316 133.5t-115 347.5zM362 390q0 -223 154 -223q107 0 159.5 128t52.5 335q0 213 -147 213q-124 0 -171.5 -151.5t-47.5 -301.5zM1000 625h364q2 31 2 55q0 82 -44.5 127t-114.5 45q-82 0 -137.5 -64.5t-69.5 -162.5z" />
<glyph unicode="&#x178;" horiz-adv-x="1086" d="M76 1365h340l209 -540l354 540h299l-548 -791l-96 -574h-314l96 574zM425 1622q0 46 33 81.5t85 35.5q47 0 84 -30.5t37 -85.5q0 -53 -35.5 -84.5t-85.5 -31.5q-54 0 -86 35t-32 80zM759 1622q0 46 33.5 81.5t85.5 35.5q48 0 84 -31t36 -85q0 -53 -35.5 -84.5 t-85.5 -31.5q-54 0 -86 35t-32 80z" />
<glyph unicode="&#x2c6;" horiz-adv-x="1024" d="M251 1188l419 314l307 -314l-199 -21l-134 138l-194 -138z" />
<glyph unicode="&#x2dc;" horiz-adv-x="1024" d="M307 1311q118 106 228 106q65 0 145 -43q57 -30 87 -30q69 0 155 80l63 -112q-119 -124 -243 -124q-59 0 -154 49q-47 24 -78 24q-61 0 -139 -63z" />
<glyph unicode="&#x2013;" d="M145 393l37 224h874l-37 -224h-874z" />
<glyph unicode="&#x2014;" horiz-adv-x="1365" d="M-46 395l37 222h1420l-37 -222h-1420z" />
<glyph unicode="&#x2018;" horiz-adv-x="527" d="M173 786l45 270l235 309h114l-195 -285h125l-50 -294h-274z" />
<glyph unicode="&#x2019;" horiz-adv-x="527" d="M151 786l195 286h-125l49 293h275l-46 -269l-235 -310h-113z" />
<glyph unicode="&#x201a;" horiz-adv-x="527" d="M-29 -285l195 285h-125l49 294h275l-46 -270l-235 -309h-113z" />
<glyph unicode="&#x201c;" horiz-adv-x="904" d="M163 786l45 270l236 309h113l-195 -285h125l-50 -294h-274zM560 786l46 270l235 309h113l-195 -285h125l-49 -294h-275z" />
<glyph unicode="&#x201d;" horiz-adv-x="904" d="M141 786l195 286h-125l49 293h275l-46 -269l-235 -310h-113zM538 786l195 286h-125l49 293h275l-45 -269l-236 -310h-113z" />
<glyph unicode="&#x201e;" horiz-adv-x="904" d="M-39 -285l195 285h-125l49 294h275l-46 -270l-235 -309h-113zM358 -285l195 285h-125l49 294h275l-45 -270l-236 -309h-113z" />
<glyph unicode="&#x2022;" horiz-adv-x="1365" d="M435 696q0 118 82.5 202t199.5 84q116 0 198.5 -84t82.5 -202q0 -117 -82.5 -201.5t-198.5 -84.5q-119 0 -200.5 84.5t-81.5 201.5z" />
<glyph unicode="&#x2026;" horiz-adv-x="1630" d="M31 0l52 310h311l-52 -310h-311zM574 0l52 310h312l-52 -310h-312zM1118 0l52 310h311l-52 -310h-311z" />
<glyph unicode="&#x2039;" horiz-adv-x="433" d="M68 504l213 292h102l-148 -299l68 -284h-96z" />
<glyph unicode="&#x203a;" horiz-adv-x="434" d="M51 213l148 299l-68 284h96l139 -291l-214 -292h-101z" />
<glyph unicode="&#x20ac;" horiz-adv-x="1200" d="M39 463l20 153h76q8 84 17 119h-76l22 156h92q65 236 222.5 365.5t380.5 129.5q186 0 318 -114.5t149 -306.5l-338 -23q0 82 -41.5 132t-112.5 50q-82 0 -149 -62.5t-99 -170.5h228l-21 -156h-244l-14 -119h242l-23 -153h-223q20 -223 186 -223q138 0 209 204l328 -32 q-75 -225 -201 -328.5t-356 -103.5q-221 0 -354 127.5t-146 355.5h-92z" />
<glyph unicode="&#x2122;" horiz-adv-x="1690" d="M106 1206l27 159h633l-27 -159h-210l-103 -619h-214l104 619h-210zM697 587l130 778h312l76 -442l224 442h322l-130 -778h-217l97 582l-297 -582h-129l-110 591l-99 -591h-179z" />
<glyph unicode="&#xe000;" horiz-adv-x="1014" d="M0 1015h1015v-1015h-1015v1015z" />
<glyph unicode="&#xfb01;" horiz-adv-x="1120" d="M54 0l132 788h-126l39 233h126q33 225 129 313.5t261 88.5q67 0 133 -11l-19 -228q-48 9 -76 9q-115 0 -139 -172h185l-39 -233h-185l-132 -788h-289zM606 0l171 1021h307l-171 -1021h-307zM789 1095l49 292h307l-49 -292h-307z" />
<glyph unicode="&#xfb02;" horiz-adv-x="1119" d="M56 0l132 786h-129l40 235h128q21 196 113 299t275 103q52 0 134 -10l-17 -229q-39 9 -74 9q-56 0 -88.5 -27t-55.5 -145h179l-40 -235h-179l-131 -786h-287zM605 0l228 1365h307l-228 -1365h-307z" />
<glyph unicode="&#xfb03;" horiz-adv-x="1855" d="M56 0l132 786h-120l28 231h130q29 228 135.5 319t302.5 91q61 0 125 -10l-17 -235q-48 7 -90 7q-67 0 -110 -31t-54 -141h198l-38 -231h-197l-131 -786h-294zM708 0l132 786h-120l28 231h130q29 228 135.5 319t302.5 91q61 0 125 -10l-17 -235q-48 7 -90 7 q-67 0 -110 -31t-54 -141h198l-38 -231h-197l-131 -786h-294zM1342 0l170 1017h306l-170 -1017h-306zM1525 1094l48 289h306l-48 -289h-306z" />
<glyph unicode="&#xfb04;" horiz-adv-x="1843" d="M56 0l132 786h-120l28 231h130q29 228 135.5 319t302.5 91q61 0 125 -10l-17 -235q-48 7 -90 7q-67 0 -110 -31t-54 -141h198l-38 -231h-197l-131 -786h-294zM708 0l132 786h-120l28 231h130q29 228 135.5 319t302.5 91q61 0 125 -10l-17 -235q-48 7 -90 7 q-67 0 -110 -31t-54 -141h198l-38 -231h-197l-131 -786h-294zM1342 0l228 1365h294l-228 -1365h-294z" />
</font>
</defs>
</svg>
