<?xml version="1.0" standalone="no"?>
<!DOCTYPE svg PUBLIC "-//W3C//DTD SVG 1.1//EN" "http://www.w3.org/Graphics/SVG/1.1/DTD/svg11.dtd" >
<svg>
<metadata>
Created by FontForge 20090914 at Wed Oct 16 20:55:07 2013
 By www-data
Copyright 2000, 2002 , 2005Adobe Systems Incorporated. All Rights Reserved. U.S. Patent Des. 337,604.Minion is either a registered trademark or a trademark of Adobe Systems Incorporated in the United States and/or other countries.
</metadata>
<defs>
<font id="MinionPro-Medium" horiz-adv-x="400" >
  <font-face 
    font-family="Minion Pro"
    font-weight="500"
    font-stretch="normal"
    units-per-em="1000"
    panose-1="2 4 5 3 5 2 1 2 2 3"
    ascent="727"
    descent="-273"
    x-height="438"
    cap-height="650"
    bbox="-295 -360 1684 995"
    underline-thickness="50"
    underline-position="-50"
    stemh="33"
    stemv="88"
    unicode-range="U+0020-U+FB06"
  />
<missing-glyph horiz-adv-x="500" 
d="M0 0v700h500v-700h-500zM250 395l170 255h-340zM280 350l170 -255v510zM80 50h340l-170 255zM50 605v-510l170 255z" />
    <glyph glyph-name="T_h" unicode="Th" horiz-adv-x="1077" 
d="M1058 0h-216v27c57 6 63 13 63 77v166c0 82 -31 120 -94 120c-35 0 -72 -17 -98 -48v-238c0 -63 5 -70 63 -77v-27h-219v27c62 7 69 13 69 78v501c-54 5 -106 7 -196 7h-65v-486c0 -85 9 -92 98 -98v-29h-286v29c86 6 94 13 94 98v486h-58c-89 0 -107 -9 -122 -33
c-12 -18 -22 -41 -33 -87h-30c4 61 9 128 11 182h20c15 -22 27 -25 55 -25h416c81 0 96 6 96 25v14c23 4 59 14 87 24v-334c37 38 87 70 139 71c85 2 141 -52 141 -169v-176c0 -67 7 -72 65 -78v-27z" />
    <glyph glyph-name="Tcaron_h" unicode="&#x164;h" horiz-adv-x="1077" 
d="M1058 0h-216v27c57 6 63 13 63 77v166c0 82 -31 120 -94 120c-35 0 -72 -17 -98 -48v-238c0 -63 5 -70 63 -77v-27h-219v27c62 7 69 13 69 78v501c-54 5 -106 7 -196 7h-65v-486c0 -85 9 -92 98 -98v-29h-286v29c86 6 94 13 94 98v486h-58c-89 0 -107 -9 -122 -33
c-12 -18 -22 -41 -33 -87h-30c4 61 9 128 11 182h20c15 -22 27 -25 55 -25h416c81 0 96 6 96 25v14c23 4 59 14 87 24v-334c37 38 87 70 139 71c85 2 141 -52 141 -169v-176c0 -67 7 -72 65 -78v-27zM446 822l15 -25c-43 -33 -87 -69 -127 -111h-23c-39 42 -84 77 -127 111
l16 25c41 -17 83 -37 123 -61c40 23 82 44 123 61z" />
    <glyph glyph-name="Tcommaaccent_h" unicode="&#x162;h" horiz-adv-x="1077" 
d="M1058 0h-216v27c57 6 63 13 63 77v166c0 82 -31 120 -94 120c-35 0 -72 -17 -98 -48v-238c0 -63 5 -70 63 -77v-27h-219v27c62 7 69 13 69 78v501c-54 5 -106 7 -196 7h-65v-486c0 -85 9 -92 98 -98v-29h-286v29c86 6 94 13 94 98v486h-58c-89 0 -107 -9 -122 -33
c-12 -18 -22 -41 -33 -87h-30c4 61 9 128 11 182h20c15 -22 27 -25 55 -25h416c81 0 96 6 96 25v14c23 4 59 14 87 24v-334c37 38 87 70 139 71c85 2 141 -52 141 -169v-176c0 -67 7 -72 65 -78v-27zM312 -28h1c38 0 75 -33 75 -82c0 -61 -50 -93 -109 -108l-10 27
c39 17 61 34 61 59c0 22 -20 35 -46 42c-7 2 -15 9 -15 24c0 25 22 38 43 38z" />
    <glyph glyph-name="f_b" unicode="fb" horiz-adv-x="812" 
d="M458 407l74 31c18 8 34 12 47 12c109 0 199 -92 199 -210c0 -146 -118 -252 -254 -252c-44 0 -96 10 -153 36v594c-22 24 -59 45 -96 45c-32 0 -51 -17 -63 -37c-14 -21 -26 -67 -25 -149l1 -39h112c6 -10 2 -34 -11 -42h-101v-282c0 -71 6 -79 84 -86v-28h-239v28
c57 6 67 14 67 78v290h-70l-4 13l27 29h47v22c0 30 4 58 11 80c7 24 25 72 79 117c38 31 75 48 118 53c30 -1 58 -10 76 -23c22 6 49 15 69 23l5 -6v-297zM458 377v-262c0 -15 2 -26 6 -35c7 -19 35 -54 83 -55c79 -1 133 73 133 189s-68 180 -149 180c-27 0 -55 -7 -73 -17
z" />
    <glyph glyph-name="f_f_b" unicode="ffb" horiz-adv-x="1083" 
d="M730 705v-298l73 31c18 8 34 12 46 12c109 0 199 -92 199 -209c0 -147 -118 -253 -255 -253c-43 0 -95 10 -152 36v593c-20 27 -55 49 -92 49c-32 0 -52 -17 -64 -36c-15 -23 -26 -70 -27 -154v-38h113c6 -10 1 -34 -11 -41h-102v-293c0 -66 9 -70 77 -77v-27h-224v27
c51 6 60 12 60 78v292h-184v-293c0 -65 9 -70 65 -77v-27h-220v28c60 6 68 12 68 76v293h-70l-4 11l27 30h47v11c0 23 5 49 13 74c11 29 31 70 83 110c39 30 81 48 129 53c61 -2 97 -26 115 -47c43 43 89 67 140 71c30 -1 59 -9 77 -23c22 5 49 15 68 23zM371 438v17
c0 45 8 88 30 128c-18 27 -56 60 -108 60c-41 0 -65 -23 -79 -48c-15 -27 -27 -70 -27 -133v-24h184zM730 377v-261c0 -15 2 -26 5 -35c7 -19 36 -54 84 -55c75 0 133 69 133 188c0 116 -69 179 -149 179c-27 0 -56 -7 -73 -16z" />
    <glyph glyph-name="f_f_h" unicode="ffh" horiz-adv-x="1093" 
d="M1075 0h-216v28c56 6 63 12 63 75v167c0 82 -32 121 -95 121c-35 0 -72 -17 -98 -48v-240c0 -63 8 -69 63 -75v-28h-212v28c53 6 62 12 62 76v514c-22 25 -55 47 -93 47c-32 0 -53 -17 -66 -38c-14 -23 -25 -66 -25 -151v-38h113c6 -10 3 -34 -11 -41h-102v-293
c0 -63 9 -70 70 -76v-28h-217v28c52 6 60 13 60 76v293h-183v-293c0 -63 8 -70 64 -76v-28h-217v28c56 6 65 14 65 76v293h-69l-4 10l27 31h46v11c0 24 6 51 14 74c10 27 33 72 83 110c38 30 80 49 130 53c60 -2 95 -26 114 -47c42 44 88 66 136 71c31 0 60 -10 78 -23
c22 5 50 15 69 23l5 -4v-326c37 38 88 69 139 70c86 2 141 -52 141 -170v-178c0 -63 8 -69 66 -74v-28zM371 438v18c0 45 8 88 30 128c-18 27 -55 59 -108 59c-42 0 -65 -25 -78 -50c-16 -28 -27 -68 -27 -131v-24h183z" />
    <glyph glyph-name="f_f_j" unicode="ffj" horiz-adv-x="800" 
d="M458 438h84c73 0 133 2 186 13v-337c0 -67 -4 -109 -23 -161c-36 -99 -99 -176 -121 -196c-10 -9 -19 -12 -28 -12c-13 0 -37 19 -37 45c0 13 8 20 21 24c37 9 59 19 70 34s17 35 23 72c5 48 8 108 8 192l-1 229c0 48 -1 56 -50 56h-132v-296c0 -62 5 -67 69 -74v-27
h-219v27c56 6 62 12 62 74v296h-183v-293c0 -65 6 -71 65 -78v-26h-218v27c58 6 66 12 66 77v293h-70l-4 11l27 30h47v20c0 22 4 46 12 70c11 31 33 73 84 112c40 29 79 47 128 51c63 -2 101 -28 119 -53c48 45 104 70 150 73c62 -2 95 -30 109 -47c11 -14 12 -27 7 -39
c-5 -10 -14 -21 -24 -27c-12 -9 -24 -10 -34 1c-20 22 -51 64 -104 64c-30 0 -49 -17 -63 -41c-18 -28 -26 -79 -26 -144v-40zM370 438v26c0 24 3 49 10 70c4 14 9 31 19 47c-18 30 -58 67 -112 67c-38 0 -60 -21 -73 -46c-15 -26 -26 -70 -26 -136v-28h182z" />
    <glyph glyph-name="f_f_k" unicode="ffk" horiz-adv-x="1057" 
d="M1074 0l-139 -2c-51 54 -110 131 -162 198c-12 16 -20 21 -28 21c-6 0 -11 0 -17 -2v-110c0 -66 9 -71 73 -77v-28h-225v28c57 6 65 11 65 77v512c-22 26 -56 48 -92 48c-30 0 -52 -16 -65 -37c-15 -23 -26 -67 -26 -152v-38h113c6 -10 1 -36 -10 -42h-103v-294
c0 -63 9 -68 69 -74v-28h-217v28c52 6 61 12 61 74v294h-184v-292c0 -64 8 -69 65 -76v-28h-220v28c59 6 68 12 68 75v293h-70l-4 10l27 32h47v11c0 23 5 50 15 75c10 27 30 69 81 109c38 30 82 49 132 53c59 -2 95 -26 113 -47c42 44 89 66 138 71c28 -1 58 -9 75 -22
c21 4 49 13 70 22l4 -5v-463c30 6 49 20 64 35c20 20 52 62 68 86c19 29 15 40 -29 44v28l207 9v-27c-65 -10 -91 -24 -126 -57c-26 -25 -44 -45 -84 -94c24 -37 120 -150 154 -184c34 -35 54 -51 92 -55v-27zM371 438v18c0 45 8 88 30 128c-18 26 -56 59 -109 59
c-39 0 -63 -24 -78 -50c-15 -25 -27 -67 -27 -131v-24h184z" />
    <glyph glyph-name="f_f_t" unicode="fft" horiz-adv-x="865" 
d="M857 35l-73 -36c-17 -8 -31 -11 -40 -11c-65 0 -102 39 -102 120v289h-184v-295c0 -64 9 -68 75 -75v-27h-222v27c52 6 60 12 60 76v294h-183v-295c0 -63 8 -68 65 -75v-27h-221v28c60 6 68 12 68 74v295h-70l-5 11l28 30h47v12c0 22 5 49 13 71c11 29 31 72 83 112
c37 29 81 49 132 53c56 -2 93 -25 113 -48c43 44 87 67 134 72c37 -1 63 -15 78 -31c11 -12 13 -23 7 -36c-5 -9 -14 -21 -26 -29c-9 -6 -15 -5 -24 4c-21 21 -52 40 -81 40c-23 0 -39 -12 -50 -32c-13 -21 -22 -61 -21 -155v-33h184v65l74 71l13 -3v-133h111
c10 -10 7 -33 -7 -41h-104v-254c0 -79 33 -96 58 -96c24 0 46 9 60 16zM371 438v19c0 44 8 86 29 126c-18 26 -57 60 -108 60c-40 0 -64 -23 -78 -46c-16 -26 -27 -70 -27 -136v-23h184z" />
    <glyph glyph-name="f_h" unicode="fh" horiz-adv-x="822" 
d="M804 0h-216v27c56 6 63 14 63 77v166c0 82 -31 120 -94 119c-35 0 -73 -16 -99 -47v-238c0 -63 8 -71 63 -77v-27h-213v27c54 6 63 13 63 77v513c-21 26 -58 47 -96 47c-30 0 -51 -17 -64 -36c-13 -21 -24 -70 -24 -152l1 -38h111c6 -10 1 -35 -10 -42h-101v-285
c0 -71 7 -76 64 -84v-27h-219v27c59 8 67 14 67 77v292h-69l-4 10l28 32h45v18c0 30 4 60 11 83c8 25 25 72 78 117c38 31 76 49 117 54c35 -1 62 -10 78 -23c22 5 50 15 69 23l5 -4v-326c37 37 88 69 139 70c86 2 142 -52 142 -170v-175c0 -65 7 -72 65 -78v-27z" />
    <glyph glyph-name="f_j" unicode="fj" horiz-adv-x="530" 
d="M188 438h83c74 0 134 2 187 13v-337c0 -67 -5 -110 -24 -162c-36 -99 -94 -169 -121 -194c-10 -9 -20 -13 -29 -13c-13 0 -37 18 -37 44c0 13 8 20 21 24c36 9 61 19 71 34c11 14 19 37 24 74c6 48 7 111 7 195v225c0 48 -2 56 -51 56h-131v-297c0 -62 7 -67 69 -73v-27
h-226v27c63 7 69 12 69 73v297h-70l-5 11l29 30h46v23c0 32 6 58 14 80c9 27 30 74 81 115c41 33 90 51 128 54c61 -2 95 -30 108 -47c10 -14 12 -28 7 -40c-5 -9 -15 -19 -25 -25c-12 -8 -22 -9 -31 1c-21 25 -56 62 -105 62c-29 0 -48 -16 -62 -40
c-17 -29 -27 -75 -27 -150v-33z" />
    <glyph glyph-name="f_k" unicode="fk" horiz-adv-x="787" 
d="M803 0l-139 -2c-52 57 -109 131 -162 198c-12 16 -20 21 -28 21c-6 0 -11 0 -16 -2v-110c0 -66 8 -71 71 -77v-28h-225v28c59 6 67 11 67 77v514c-23 25 -58 45 -94 45c-33 0 -53 -17 -65 -38c-13 -22 -26 -68 -25 -151l1 -37h111c6 -9 3 -35 -9 -42h-102v-283
c0 -73 7 -78 64 -85v-28h-219v28c59 7 67 14 67 78v290h-70l-3 10l26 32h47v18c0 30 4 60 11 83c8 27 28 74 79 116c39 32 76 50 116 55c34 -1 61 -10 77 -22c20 4 50 13 70 22l5 -5v-464c30 7 49 21 63 36c21 21 52 61 69 87c20 30 20 39 -28 44v27l205 9v-26
c-66 -11 -89 -24 -125 -57c-26 -25 -44 -46 -86 -95c25 -36 121 -150 155 -185c34 -34 55 -50 92 -54v-27z" />
    <glyph glyph-name="f_t" unicode="ft" horiz-adv-x="592" 
d="M586 35l-71 -35c-18 -9 -33 -12 -42 -12c-65 0 -102 39 -102 120v288h-183v-291c0 -64 6 -72 71 -78v-27h-228v27c62 7 69 14 69 76v293h-70l-5 12l27 30h48v23c0 30 4 56 11 77c6 23 24 74 80 119c38 32 74 48 112 53c38 -1 63 -15 79 -30c11 -12 12 -25 7 -38
c-5 -9 -14 -20 -25 -27c-10 -6 -17 -6 -26 3c-19 19 -53 38 -80 38c-23 0 -39 -10 -51 -30c-12 -21 -21 -65 -20 -161l1 -27h183v67l73 69l14 -3v-133h112c8 -10 6 -33 -7 -42h-105v-254c0 -80 34 -95 58 -95c25 0 46 9 61 16z" />
    <glyph glyph-name="longs_b" unicode="&#x17f;b" horiz-adv-x="811" 
d="M457 407l72 31c18 8 34 12 47 12c109 0 200 -92 200 -210c0 -146 -120 -252 -254 -252c-44 0 -95 10 -153 36v596c-23 27 -55 47 -90 47s-54 -20 -67 -43c-14 -25 -25 -79 -25 -174v-338c0 -73 6 -78 72 -85v-27h-225v27c60 6 66 11 66 78v292h-70l-4 11l28 30h46v21
c0 30 4 58 10 79c8 25 26 74 79 118c37 32 76 49 118 54c33 -1 59 -10 78 -24c20 5 47 15 67 24l5 -5v-298zM457 377v-262c0 -15 2 -26 6 -35c7 -19 36 -53 85 -54c76 0 131 67 131 188c0 114 -70 179 -151 179c-24 0 -54 -8 -71 -16z" />
    <glyph glyph-name="longs_h" unicode="&#x17f;h" horiz-adv-x="821" 
d="M800 0h-213v27c57 6 62 12 62 76v168c0 82 -32 120 -95 119c-35 0 -71 -16 -97 -47v-240c0 -63 6 -70 61 -76v-27h-211v27c56 6 62 11 62 76v517c-24 28 -56 47 -92 47c-33 0 -53 -20 -65 -41c-14 -25 -25 -78 -25 -189v-327c0 -72 7 -76 66 -83v-27h-219v27
c58 8 66 14 66 76v294h-70l-4 10l27 31h47v21c0 30 4 58 10 79c8 25 26 74 79 118c37 31 76 49 116 54c35 -1 62 -11 78 -23c21 4 50 14 69 23l5 -5v-326c37 37 87 70 139 71c85 2 141 -51 141 -170v-177c0 -66 6 -70 63 -76v-27z" />
    <glyph glyph-name="longs_i" unicode="&#x17f;i" horiz-adv-x="542" 
d="M53 438h47v22c0 29 5 56 13 78c10 28 33 77 84 118c39 31 85 51 127 54c60 -2 95 -31 109 -49c11 -14 11 -27 6 -37c-4 -9 -14 -20 -24 -26c-12 -9 -23 -10 -31 -1c-21 25 -53 64 -107 64c-29 0 -48 -16 -62 -42c-17 -29 -28 -85 -28 -186v-325c0 -69 8 -74 65 -81v-27
h-217v27c58 6 65 12 65 75v295h-70l-4 10zM523 0h-218v27c59 7 65 11 65 81v201c0 67 -5 70 -62 81v23c51 8 104 21 149 39v-344c0 -70 6 -75 66 -81v-27z" />
    <glyph glyph-name="longs_k" unicode="&#x17f;k" horiz-adv-x="784" 
d="M800 0l-139 -2c-43 45 -108 131 -160 198c-13 16 -20 20 -29 20c-5 0 -10 0 -15 -2v-110c0 -65 7 -71 70 -77v-27h-222v27c59 6 65 11 65 76v517c-26 27 -57 47 -94 47c-33 0 -53 -20 -65 -42c-13 -25 -24 -78 -24 -184v-333c0 -69 7 -74 65 -81v-27h-219v27
c59 7 67 14 67 74v296h-70l-4 10l27 31h47v21c0 30 4 58 10 79c8 25 27 75 79 118c38 32 75 49 115 54c35 -1 65 -10 79 -24c20 6 50 16 68 24l6 -5v-462c30 6 47 18 61 33c22 22 53 61 73 92c15 24 15 35 -32 40v27l205 9v-26c-65 -11 -92 -24 -127 -58
c-26 -25 -43 -45 -84 -93c23 -34 114 -144 154 -186c34 -35 55 -50 93 -54v-27z" />
    <glyph glyph-name="longs_l" unicode="&#x17f;l" horiz-adv-x="541" 
d="M526 -1h-221v27c59 7 64 11 64 79v516c-21 25 -53 45 -90 45c-34 0 -53 -19 -64 -37c-17 -26 -28 -80 -28 -197v-320c0 -73 6 -78 62 -85v-27h-215v27c59 7 66 12 66 78v292h-70l-3 10l26 31h47v22c0 30 4 57 11 79c7 24 26 73 77 116c38 32 77 50 118 55
c35 -1 63 -11 79 -23c18 5 47 14 67 23l5 -5v-600c0 -68 7 -72 69 -79v-27z" />
    <glyph glyph-name="longs_longs" unicode="&#x17f;&#x17f;" horiz-adv-x="542" 
d="M100 438v9c0 26 5 51 13 73c11 27 32 71 80 111c39 33 84 51 129 55c51 -2 91 -20 116 -50c36 39 82 67 132 74c38 -1 68 -16 83 -33c11 -12 13 -24 8 -35c-5 -9 -14 -19 -24 -26c-9 -7 -16 -7 -25 1c-21 22 -50 44 -83 44c-26 0 -43 -17 -53 -38
c-13 -28 -19 -84 -19 -198v-316c0 -70 8 -74 68 -82v-27h-219v27c56 6 64 12 64 78v291h-71l-4 11l28 31h47v18c0 47 9 86 30 126c-27 32 -60 62 -114 62c-37 0 -61 -26 -75 -54c-15 -29 -24 -85 -24 -182v-303c0 -67 6 -71 62 -78v-27h-216v27c59 6 67 12 67 72v297h-70
l-3 11l27 31h46z" />
    <glyph glyph-name="longs_longs_i" unicode="&#x17f;&#x17f;i" horiz-adv-x="812" 
d="M100 438v9c0 23 4 49 13 73c10 27 29 71 79 112c39 31 83 50 130 54c52 -2 94 -21 121 -53c36 40 96 73 151 77c60 -2 96 -31 110 -50c11 -14 11 -26 6 -36c-4 -10 -13 -20 -23 -27c-12 -8 -23 -9 -31 1c-21 25 -56 64 -107 64c-29 0 -50 -18 -64 -43
c-17 -30 -27 -81 -27 -179v-332c0 -68 7 -74 66 -81v-27h-218v27c57 7 65 13 65 77v292h-71l-4 10l28 32h46v21c0 43 10 84 31 121c-25 32 -63 61 -116 61c-38 0 -60 -23 -73 -49c-16 -28 -25 -86 -25 -185v-300c0 -67 8 -73 63 -80v-27h-217v27c58 7 67 13 67 76v293h-71
l-4 10l28 32h47zM798 0h-223v27c59 7 66 14 66 79v203c0 68 -5 70 -62 80v24c50 8 105 21 150 39v-344c0 -67 8 -74 69 -81v-27z" />
    <glyph glyph-name="longs_longs_l" unicode="&#x17f;&#x17f;l" horiz-adv-x="813" 
d="M800 -1h-223v28c56 6 64 12 64 79v515c-24 28 -56 43 -89 43s-55 -17 -68 -39c-14 -24 -25 -67 -25 -192v-321c0 -72 7 -78 65 -85v-27h-219v27c58 7 66 14 66 78v291h-71l-3 10l27 32h47v18c0 45 7 86 30 127c-23 33 -60 60 -113 60c-34 0 -57 -21 -72 -48
c-19 -29 -28 -91 -28 -183v-302c0 -70 7 -76 62 -83v-27h-216v27c58 7 66 14 66 77v292h-71l-3 10l27 32h47v9c0 21 4 51 13 73c10 28 30 72 80 113c40 32 85 49 129 54c51 -1 90 -20 118 -51c37 37 89 69 138 74c34 0 61 -10 79 -23c17 4 48 14 68 23l5 -5v-599
c0 -67 8 -73 70 -79v-28z" />
    <glyph glyph-name="f_f" unicode="ff" horiz-adv-x="570" 
d="M98 438v14c0 27 5 55 14 77c9 26 29 68 78 107c41 32 81 49 128 54c60 -2 98 -26 119 -49c44 43 88 64 132 70c35 -2 65 -16 83 -36c9 -11 10 -23 5 -34c-4 -9 -13 -20 -23 -27c-10 -8 -21 -8 -30 1c-20 19 -50 43 -82 43c-25 0 -40 -13 -49 -31
c-11 -20 -20 -64 -18 -155l1 -34h118c5 -9 2 -34 -9 -41h-110v-293c0 -65 8 -71 81 -78v-26h-228v26c52 7 60 13 60 78v293h-183v-293c0 -64 8 -71 66 -78v-26h-220v27c58 6 67 12 67 77v293h-71l-3 11l27 30h47zM368 438v19c0 31 3 56 8 74c4 17 10 32 20 49
c-20 31 -59 67 -112 67c-37 0 -58 -22 -71 -45c-15 -27 -28 -68 -28 -139v-25h183z" />
    <glyph glyph-name="f_i" unicode="fi" horiz-adv-x="543" 
d="M526 0h-216v27c53 6 60 12 60 74v240c0 48 -3 56 -52 56h-130v-296c0 -62 7 -68 67 -74v-27h-224v27c61 7 69 13 69 74v296h-71l-5 11l29 30h47v23c0 32 6 58 13 80c10 27 31 73 82 114c42 33 89 52 128 55c61 -2 95 -30 108 -48c11 -14 11 -27 6 -39
c-5 -9 -14 -20 -24 -26c-13 -8 -23 -8 -31 2c-21 25 -56 62 -105 62c-29 0 -49 -17 -61 -39c-16 -26 -28 -77 -28 -151v-33h82c74 0 135 2 188 13v-350c0 -62 6 -68 68 -74v-27z" />
    <glyph glyph-name="f_l" unicode="fl" horiz-adv-x="542" 
d="M528 0h-219v27c54 6 61 12 61 74v518c-17 26 -53 46 -88 46c-30 0 -51 -14 -65 -35c-17 -23 -30 -65 -30 -137v-55h114c6 -9 1 -34 -10 -41h-104v-296c0 -62 6 -68 65 -74v-27h-221v27c62 7 69 12 69 74v296h-70l-4 11l28 30h46v18c0 39 5 67 14 91c10 26 29 70 81 111
c39 31 77 47 121 52c33 0 64 -9 86 -23c15 4 31 13 47 21l8 -5v-602c0 -62 8 -67 71 -74v-27z" />
    <glyph glyph-name="f_f_i" unicode="ffi" horiz-adv-x="811" 
d="M794 0h-216v27c53 6 60 12 60 73v241c0 49 -2 56 -51 56h-131v-296c0 -62 7 -68 64 -74v-27h-213v27c55 6 61 11 61 74v296h-183v-293c0 -65 7 -71 65 -78v-26h-217v27c57 6 65 11 65 77v293h-70l-3 11l27 30h46v20c0 22 4 48 12 72c11 31 33 72 85 111
c38 28 77 46 126 51c63 -2 103 -27 120 -52c48 45 105 69 150 71c63 -1 97 -31 111 -47c11 -14 12 -27 7 -39c-5 -10 -15 -20 -25 -27c-12 -8 -24 -10 -34 2c-20 22 -50 64 -103 64c-30 0 -49 -16 -64 -41c-18 -28 -27 -79 -27 -145v-40h83c74 0 134 2 187 13v-351
c0 -60 5 -67 68 -73v-27zM368 438v26c0 24 4 49 9 69c4 14 10 33 20 50c-18 30 -57 66 -111 66c-39 0 -61 -21 -74 -46c-15 -26 -27 -71 -27 -137v-28h183z" />
    <glyph glyph-name="f_f_l" unicode="ffl" horiz-adv-x="813" 
d="M798 0h-217v27c53 5 60 11 60 73v520c-16 25 -49 47 -87 47c-30 0 -53 -15 -67 -34c-16 -21 -29 -68 -29 -145v-50h115c5 -9 1 -34 -10 -41h-104l-1 -296c0 -63 7 -68 65 -74v-27h-215v27c55 6 62 12 62 74v296h-183v-293c0 -65 8 -70 64 -77v-27h-217v27
c58 6 66 11 66 77v293h-69l-4 11l28 30h45v18c0 25 5 51 13 73c10 26 31 68 81 107c39 30 82 50 132 54c62 -2 100 -28 118 -48c41 39 92 65 139 69c38 0 68 -10 92 -25c14 5 28 14 44 22l9 -5v-603c0 -62 7 -67 70 -73v-27zM370 438v19c0 36 5 62 11 82c4 13 10 28 20 47
c-19 30 -58 60 -111 60c-38 0 -64 -22 -78 -48c-13 -25 -24 -65 -24 -134v-26h182z" />
    <glyph glyph-name="longs_t" unicode="&#x17f;t" horiz-adv-x="588" 
d="M53 438h47v21c0 30 4 54 11 77c6 24 25 75 83 122c36 31 74 47 111 52c38 -1 63 -15 78 -30c11 -12 13 -26 8 -37c-5 -10 -15 -21 -26 -29c-9 -5 -16 -5 -24 3c-22 23 -52 43 -81 43c-21 0 -38 -13 -50 -34c-15 -26 -23 -82 -23 -189v-327c0 -68 8 -76 72 -83v-27h-225
v27c59 7 66 15 66 77v293h-70l-5 11zM581 34l-71 -35c-18 -8 -32 -11 -41 -11c-65 0 -102 39 -102 120v289h-68l-5 11l28 30h45v67l73 69l14 -3v-133h110c9 -10 6 -33 -6 -41h-104v-255c0 -80 32 -96 58 -96c22 0 45 8 59 15z" />
    <glyph glyph-name=".notdef" horiz-adv-x="500" 
d="M0 0v700h500v-700h-500zM250 395l170 255h-340zM280 350l170 -255v510zM80 50h340l-170 255zM50 605v-510l170 255z" />
    <glyph glyph-name="space" unicode=" " horiz-adv-x="225" 
 />
    <glyph glyph-name="exclam" unicode="!" horiz-adv-x="277" 
d="M137 665h1c41 0 58 -10 58 -33c0 -16 -3 -38 -8 -78c-14 -113 -22 -228 -33 -353c-4 -8 -32 -8 -36 0c-11 125 -18 240 -33 353c-5 40 -8 62 -8 78c0 23 18 33 59 33zM138 -12h-1c-33 0 -58 25 -58 62c0 35 25 62 59 62c35 0 61 -27 61 -62c0 -37 -26 -62 -61 -62z" />
    <glyph glyph-name="quotedbl" unicode="&#x22;" horiz-adv-x="329" 
d="M124 709l7 -5c-3 -24 -19 -161 -28 -226l-30 -14c-11 95 -28 203 -32 218zM280 709l6 -5c-2 -25 -19 -163 -28 -226l-29 -14c-13 95 -28 203 -32 218z" />
    <glyph glyph-name="numbersign" unicode="#" horiz-adv-x="483" 
d="M451 457l-9 -63h-92l-30 -134h86l-10 -62h-90l-38 -173h-40l38 173h-107l-38 -173h-40l39 173h-97l11 62h101l28 134h-92l9 63h97l34 152h41l-34 -152h106l33 152h40l-32 -152h86zM310 394h-106l-29 -134h106z" />
    <glyph glyph-name="dollar" unicode="$" horiz-adv-x="483" 
d="M266 366l30 -12c75 -26 143 -77 143 -167c0 -96 -66 -163 -173 -176v-86h-36v84c-63 0 -121 18 -158 41c-6 22 -18 82 -27 134l30 7c18 -56 58 -137 155 -147v236l-35 15c-74 31 -130 78 -130 156c0 80 57 151 165 163v79h36v-76c32 0 65 -6 89 -13c15 -4 24 -6 35 -8
c6 -35 13 -71 21 -127l-29 -6c-16 56 -37 108 -116 120v-217zM230 380v203c-62 -7 -91 -53 -91 -98c0 -53 36 -84 91 -105zM266 267v-222c59 8 93 50 93 105c0 43 -13 82 -81 112z" />
    <glyph glyph-name="percent" unicode="%" horiz-adv-x="758" 
d="M595 628l-404 -661l-32 24l403 661zM194 635h1c102 0 146 -101 146 -180s-43 -181 -147 -181c-102 0 -146 102 -146 180c0 80 44 181 146 181zM195 604h-1c-57 0 -69 -98 -69 -149c0 -50 12 -150 70 -150c60 0 69 101 69 150c0 50 -9 149 -69 149zM566 349h1
c102 0 146 -101 146 -180s-44 -181 -147 -181c-102 0 -146 102 -146 180c0 80 44 181 146 181zM567 319h-1c-57 0 -69 -97 -69 -150c0 -50 12 -150 70 -150c59 0 68 102 68 150c0 51 -9 150 -68 150z" />
    <glyph glyph-name="ampersand" unicode="&#x26;" horiz-adv-x="712" 
d="M719 427v-29c-68 -8 -83 -25 -116 -73l-87 -131c47 -45 132 -142 165 -201l-7 -11c-62 4 -118 27 -130 40l-86 94c-70 -94 -136 -130 -206 -130c-129 0 -200 96 -200 182c0 91 63 131 148 192c-44 42 -71 84 -71 139c0 90 78 160 167 160c85 0 152 -59 152 -139
c0 -40 -20 -68 -42 -87c-19 -16 -43 -35 -80 -60c32 -28 100 -87 165 -153c23 35 40 68 58 110c20 46 10 59 -60 68v29h230zM286 624h-1c-44 0 -78 -40 -78 -98c0 -51 30 -86 92 -133c44 32 69 72 70 127c0 56 -33 104 -83 104zM282 59h1c62 0 120 42 151 85
c-56 61 -118 119 -208 193c-59 -43 -82 -90 -82 -137c0 -95 72 -141 138 -141z" />
    <glyph glyph-name="quotesingle" unicode="'" horiz-adv-x="175" 
d="M124 709l7 -5c-3 -24 -19 -161 -28 -226l-30 -13c-11 95 -28 203 -32 217z" />
    <glyph glyph-name="parenleft" unicode="(" horiz-adv-x="347" 
d="M303 -146l-20 -24c-146 99 -212 259 -212 440v1c0 180 66 339 212 439l20 -24c-98 -85 -155 -244 -155 -416s58 -333 155 -416z" />
    <glyph glyph-name="parenright" unicode=")" horiz-adv-x="347" 
d="M275 270v-1c0 -180 -63 -336 -211 -439l-20 24c99 84 155 244 155 416s-59 335 -155 417l20 23c148 -101 211 -259 211 -440z" />
    <glyph glyph-name="asterisk" unicode="*" horiz-adv-x="404" 
d="M365 491l-132 -25l39 -138l-24 -10l-71 130l-122 -76l-15 23l103 94l-105 102l16 22l121 -80l58 132l25 -6l-26 -139l133 -3v-26z" />
    <glyph glyph-name="plus" unicode="+" horiz-adv-x="579" 
d="M529 228h-208v-228h-61v228h-209v53h209v206h61v-206h208v-53z" />
    <glyph glyph-name="comma" unicode="," horiz-adv-x="233" 
d="M95 135h1c38 0 95 -41 95 -111c0 -81 -72 -125 -138 -144l-11 30c51 21 80 48 80 87c0 35 -28 59 -65 68c-5 1 -13 9 -13 27c0 26 25 43 51 43z" />
    <glyph glyph-name="hyphen" unicode="-" horiz-adv-x="353" 
d="M300 255l-14 -58h-232l14 58h232z" />
    <glyph glyph-name="period" unicode="." horiz-adv-x="233" 
d="M116 -12h-1c-33 0 -58 24 -58 61c0 35 25 61 59 61s59 -26 59 -61c0 -37 -25 -61 -59 -61z" />
    <glyph glyph-name="slash" unicode="/" horiz-adv-x="330" 
d="M299 665l-217 -709h-58l216 709h59z" />
    <glyph glyph-name="zero" unicode="0" horiz-adv-x="483" 
d="M242 635h1c152 0 205 -171 205 -323c0 -146 -53 -324 -206 -324c-154 0 -208 168 -208 323c0 147 55 324 208 324zM241 600h-1c-86 0 -108 -148 -108 -287c0 -138 27 -290 110 -290c86 0 108 150 108 289c0 142 -24 288 -109 288z" />
    <glyph glyph-name="one" unicode="1" horiz-adv-x="483" 
d="M388 0h-280v28c88 7 95 16 95 88v381c0 52 -5 57 -48 59l-49 3v24c64 11 126 30 187 52v-519c0 -72 7 -81 95 -88v-28z" />
    <glyph glyph-name="two" unicode="2" horiz-adv-x="483" 
d="M417 146l29 -9c-14 -45 -24 -93 -36 -137h-378v24c54 54 112 111 161 169c63 76 122 156 122 240c0 81 -42 130 -115 130c-67 0 -109 -52 -136 -92l-23 21l58 83c32 34 79 60 138 60c90 0 170 -65 170 -170c0 -86 -40 -146 -133 -243l-138 -143h182c55 0 68 4 99 67z" />
    <glyph glyph-name="three" unicode="3" horiz-adv-x="483" 
d="M289 379v-2c90 -17 141 -80 141 -153c-1 -163 -196 -236 -266 -236c-47 0 -88 21 -102 34s-19 24 -18 36c1 14 15 29 25 36c8 7 18 7 26 0c25 -22 67 -54 125 -54c68 0 116 52 115 150c0 92 -69 129 -125 129c-23 0 -47 -5 -62 -10l-7 29c90 30 156 68 156 140
c0 63 -41 94 -93 94c-54 0 -93 -40 -120 -78l-21 20l44 64c29 31 75 57 130 57h1c92 0 150 -56 150 -133c0 -28 -11 -51 -30 -70c-16 -16 -39 -33 -69 -53z" />
    <glyph glyph-name="four" unicode="4" horiz-adv-x="483" 
d="M461 177h-95v-70c0 -66 5 -72 84 -79v-28h-263v28c87 7 91 15 91 80v69h-259v31c97 143 200 291 302 424h45v-406h95v-49zM278 226v290h-2c-61 -86 -126 -181 -192 -290h194z" />
    <glyph glyph-name="five" unicode="5" horiz-adv-x="483" 
d="M152 544l-26 -180c40 15 88 31 115 31c128 0 194 -86 194 -169c0 -61 -29 -118 -91 -167c-55 -44 -122 -70 -176 -71c-45 0 -87 20 -103 35c-15 13 -19 22 -18 35c1 10 11 26 23 36c10 7 18 7 28 -2c23 -19 65 -52 125 -52c80 0 120 70 120 144c0 89 -54 151 -160 151
c-43 0 -81 -11 -104 -19l40 307h291l6 -8l-27 -71h-237z" />
    <glyph glyph-name="six" unicode="6" horiz-adv-x="483" 
d="M145 346l64 31c22 11 42 18 62 18c108 0 182 -81 182 -185c0 -121 -87 -222 -209 -222c-119 0 -209 96 -209 251c0 218 152 331 260 370c40 14 92 26 131 32l7 -33c-32 -6 -72 -18 -108 -35c-59 -28 -151 -91 -180 -227zM229 336h-1c-35 0 -66 -13 -89 -25
c-4 -19 -6 -46 -6 -71c0 -122 51 -216 128 -216c75 0 98 82 98 148c0 85 -43 164 -130 164z" />
    <glyph glyph-name="seven" unicode="7" horiz-adv-x="483" 
d="M452 623l8 -12l-284 -612l-79 -11l-7 12c108 171 218 372 298 544h-215c-66 0 -73 -9 -97 -74h-30c10 60 14 110 19 153h387z" />
    <glyph glyph-name="eight" unicode="8" horiz-adv-x="483" 
d="M250 635h1c97 0 166 -66 166 -149c0 -29 -10 -57 -29 -79c-9 -10 -34 -32 -78 -63c69 -38 132 -86 132 -174c0 -118 -115 -182 -203 -182c-111 0 -196 63 -196 169c0 46 23 73 44 93c16 16 55 43 89 64c-63 36 -109 85 -109 155c0 86 74 166 183 166zM240 601h-1
c-57 0 -89 -50 -89 -100c0 -73 58 -106 130 -141c31 25 57 61 57 121c0 84 -52 120 -97 120zM249 22h1c60 0 105 45 105 120c-1 74 -68 114 -149 155c-44 -30 -76 -78 -76 -133c0 -93 58 -142 119 -142z" />
    <glyph glyph-name="nine" unicode="9" horiz-adv-x="483" 
d="M244 635h1c128 0 201 -115 201 -250c0 -184 -103 -313 -239 -368c-51 -21 -116 -31 -145 -32l-5 31c144 25 252 126 284 272l-65 -34c-22 -12 -41 -16 -59 -16c-109 0 -182 79 -182 184c0 95 76 213 209 213zM230 600h-1c-73 0 -99 -82 -99 -142c0 -88 49 -161 131 -161
c33 0 64 11 84 25c3 23 4 47 4 68c0 90 -26 210 -119 210z" />
    <glyph glyph-name="colon" unicode=":" horiz-adv-x="233" 
d="M117 413h1c33 0 57 -25 57 -61c0 -35 -24 -61 -58 -61s-59 26 -59 61c0 36 25 61 59 61zM117 -12h-1c-32 0 -57 24 -57 61c0 34 25 60 58 60c34 0 59 -26 59 -60c0 -37 -25 -61 -59 -61z" />
    <glyph glyph-name="semicolon" unicode=";" horiz-adv-x="233" 
d="M116 413h1c33 0 58 -25 58 -61c0 -35 -25 -61 -59 -61s-59 26 -59 61c0 36 25 61 59 61zM96 135h1c38 0 95 -41 95 -111c0 -81 -72 -126 -137 -145l-11 31c50 21 78 48 78 87c0 36 -28 60 -64 68c-5 1 -13 9 -13 27c0 26 25 43 51 43z" />
    <glyph glyph-name="less" unicode="&#x3c;" horiz-adv-x="552" 
d="M493 0l-434 228v51l434 228v-59l-373 -194v-2l373 -194v-58z" />
    <glyph glyph-name="equal" unicode="=" horiz-adv-x="579" 
d="M529 320h-478v52h478v-52zM529 137h-478v52h478v-52z" />
    <glyph glyph-name="greater" unicode="&#x3e;" horiz-adv-x="552" 
d="M493 228l-434 -228v58l373 194v2l-373 194v59l434 -228v-51z" />
    <glyph glyph-name="question" unicode="?" horiz-adv-x="382" 
d="M221 218l-19 -23c-40 15 -114 68 -114 130c0 35 21 67 87 114c40 29 100 68 100 107c0 32 -21 52 -57 52c-64 0 -105 -57 -118 -57c-15 0 -44 22 -44 48c0 15 7 24 21 37c31 27 77 39 96 39h1c83 0 163 -79 163 -163c0 -36 -12 -62 -50 -92c-32 -26 -109 -70 -109 -115
c0 -31 15 -51 43 -77zM185 -12h-1c-32 0 -57 25 -57 62c0 34 25 61 58 61c34 0 59 -27 59 -61c0 -37 -25 -62 -59 -62z" />
    <glyph glyph-name="at" unicode="@" horiz-adv-x="755" 
d="M546 -14l11 -29c-68 -40 -134 -54 -201 -54c-159 0 -304 102 -304 305c1 234 189 371 381 371c180 0 282 -120 282 -257c0 -136 -102 -248 -238 -248c-53 0 -55 28 -46 71l10 55l-2 1c-32 -48 -121 -127 -168 -127c-25 0 -49 26 -49 85c1 55 22 131 81 187
c43 42 100 74 163 74c14 1 37 -5 50 -8c13 -2 23 -4 35 -4c-15 -60 -33 -141 -49 -226c-10 -51 -5 -66 19 -65c66 1 145 70 145 205c0 138 -101 217 -237 217c-184 0 -310 -136 -310 -322c0 -130 71 -268 269 -268c59 0 130 21 158 37zM423 379h-1c-26 0 -47 -12 -63 -29
c-28 -31 -56 -101 -56 -165c-1 -36 8 -46 20 -46c17 0 71 36 127 118c10 34 20 81 26 111c-13 6 -35 11 -53 11z" />
    <glyph glyph-name="A" unicode="A" horiz-adv-x="694" 
d="M676 0h-253v29c62 8 70 17 57 57c-12 38 -31 89 -52 147h-210c-15 -43 -29 -84 -42 -125c-20 -61 -13 -71 62 -79v-29h-219v29c65 9 78 16 113 104l206 522l35 10l193 -533c31 -86 45 -96 110 -103v-29zM413 277l-85 248h-3l-91 -248h179z" />
    <glyph glyph-name="B" unicode="B" horiz-adv-x="597" 
d="M377 353v-3c102 -15 180 -59 180 -159c0 -66 -37 -118 -95 -150c-51 -29 -120 -41 -199 -41h-227v29c84 6 90 13 90 96v400c0 83 -4 89 -83 96v29h263c76 0 121 -12 154 -34c35 -24 56 -67 56 -114c0 -95 -80 -134 -139 -149zM220 362h42c108 0 153 43 153 127
c0 72 -41 127 -129 127c-24 0 -45 -4 -54 -10s-12 -18 -12 -49v-195zM220 328v-201c0 -72 19 -92 81 -91c77 0 148 42 148 146c0 100 -68 146 -188 146h-41z" />
    <glyph glyph-name="C" unicode="C" horiz-adv-x="667" 
d="M616 177l30 -11c-14 -46 -39 -121 -57 -154c-28 -7 -113 -27 -184 -27c-252 0 -362 173 -362 331c0 210 161 349 388 349c81 0 150 -22 177 -27c8 -56 15 -98 21 -153l-31 -7c-27 108 -90 149 -193 149c-163 0 -250 -140 -250 -291c0 -186 107 -313 257 -313
c99 0 153 55 204 154z" />
    <glyph glyph-name="D" unicode="D" horiz-adv-x="739" 
d="M42 650h284c127 0 221 -26 284 -86c49 -47 85 -120 85 -214c0 -120 -47 -209 -123 -267c-75 -57 -176 -83 -299 -83h-240v29c85 6 93 12 93 97v398c0 85 -8 90 -84 96v30zM220 545v-412c0 -75 30 -95 102 -95c178 0 266 133 266 297c0 102 -37 189 -111 235
c-44 31 -101 45 -168 45c-42 0 -66 -6 -76 -13c-9 -7 -13 -19 -13 -57z" />
    <glyph glyph-name="E" unicode="E" horiz-adv-x="570" 
d="M520 164l30 -5c-5 -35 -26 -128 -34 -159h-488v29c90 7 99 15 99 97v395c0 89 -9 93 -85 100v29h450c0 -24 5 -92 9 -145l-31 -5c-9 41 -20 65 -33 85c-15 22 -42 29 -111 29h-71c-32 0 -35 -3 -35 -33v-225h90c89 0 96 8 108 75h30v-193h-30c-13 71 -21 77 -108 77h-90
v-185c0 -47 6 -70 24 -82c19 -12 54 -12 102 -12c72 0 101 8 123 33c18 21 36 55 51 95z" />
    <glyph glyph-name="F" unicode="F" horiz-adv-x="533" 
d="M498 502l-30 -4c-9 39 -16 60 -30 81c-17 27 -40 35 -112 35h-72c-30 0 -34 -3 -34 -33v-234h100c90 0 96 9 108 73h30v-193h-30c-12 68 -18 79 -108 79h-100v-177c0 -88 9 -93 99 -100v-29h-279v29c78 6 87 12 87 100v393c0 87 -8 92 -85 98v30h446c1 -33 6 -99 10 -148
z" />
    <glyph glyph-name="G" unicode="G" horiz-adv-x="717" 
d="M694 303v-29c-58 -9 -63 -14 -63 -74v-84c0 -35 1 -67 7 -94c-61 -15 -145 -37 -224 -37c-223 0 -370 136 -370 335c0 231 186 345 384 345c84 0 160 -22 193 -29c3 -34 8 -89 16 -158l-30 -6c-24 120 -99 156 -195 156c-146 0 -257 -112 -257 -295
c0 -146 83 -312 271 -312c31 0 61 6 81 17c19 10 30 24 30 63v87c0 72 -6 78 -105 86v29h262z" />
    <glyph glyph-name="H" unicode="H" horiz-adv-x="769" 
d="M732 650v-29c-81 -7 -89 -12 -89 -96v-400c0 -84 8 -89 89 -96v-29h-275v29c84 7 92 12 92 96v197h-328v-197c0 -84 8 -89 88 -96v-29h-269v29c79 7 87 12 87 96v400c0 84 -8 89 -90 96v29h267v-29c-75 -7 -83 -12 -83 -96v-159h328v159c0 83 -8 89 -85 96v29h268z" />
    <glyph glyph-name="I" unicode="I" horiz-adv-x="347" 
d="M309 0h-271v29c80 6 89 12 89 97v397c0 85 -9 91 -89 98v29h271v-29c-80 -7 -89 -13 -89 -98v-397c0 -85 9 -91 89 -97v-29z" />
    <glyph glyph-name="J" unicode="J" horiz-adv-x="335" 
d="M310 650v-29c-76 -7 -85 -14 -85 -98v-365c0 -126 -18 -201 -89 -264c-35 -32 -70 -50 -97 -59l-14 30c56 27 85 71 96 129c9 50 11 109 11 191v338c0 84 -9 91 -89 98v29h267z" />
    <glyph glyph-name="K" unicode="K" horiz-adv-x="678" 
d="M673 0h-162c-72 82 -153 184 -239 289c-23 28 -37 32 -53 29v-188c0 -87 9 -95 91 -101v-29h-267v29c75 6 84 14 84 101v389c0 90 -9 95 -88 102v29h265v-29c-76 -6 -85 -13 -85 -102v-174c21 6 42 20 71 47c57 56 120 121 162 175c29 34 28 45 -18 51l-21 3v29h243v-29
c-73 -7 -99 -17 -162 -75c-42 -38 -108 -105 -171 -170c73 -94 177 -214 230 -275c51 -55 73 -66 120 -72v-29z" />
    <glyph glyph-name="L" unicode="L" horiz-adv-x="541" 
d="M498 166l31 -7c-6 -33 -27 -129 -36 -159h-459v29c84 6 93 13 93 98v397c0 85 -7 90 -88 97v29h269v-29c-78 -6 -88 -11 -88 -97v-394c0 -53 5 -72 24 -82c19 -11 52 -12 92 -12c53 0 87 5 110 31c18 20 36 52 52 99z" />
    <glyph glyph-name="M" unicode="M" horiz-adv-x="890" 
d="M861 0h-269v29c80 8 84 14 83 117l-3 404h-4l-240 -543h-21l-220 529h-3l-14 -280c-4 -82 -4 -127 -3 -165c2 -47 25 -55 92 -61v-30h-234v30c57 6 77 18 84 59c5 34 12 79 19 184l15 206c9 127 3 133 -87 142v29h172l221 -489l225 489h176v-29c-87 -9 -93 -12 -90 -111
l10 -363c2 -104 6 -110 91 -118v-29z" />
    <glyph glyph-name="N" unicode="N" horiz-adv-x="743" 
d="M720 650v-29c-56 -3 -79 -16 -84 -60c-3 -31 -6 -76 -6 -168v-402h-34l-424 519h-2v-246c0 -91 3 -139 6 -168c5 -49 27 -63 96 -67v-29h-238v29c57 4 82 17 87 65c3 31 7 79 7 170v218c0 71 -2 78 -21 102c-20 25 -41 33 -88 37v29h155l411 -490h3v233
c0 91 -4 137 -7 166c-5 44 -28 58 -99 62v29h238z" />
    <glyph glyph-name="O" unicode="O" horiz-adv-x="750" 
d="M382 664h1c172 0 324 -131 324 -331c0 -216 -152 -348 -336 -348s-328 142 -328 334c0 178 126 345 339 345zM362 628h-1c-108 0 -206 -98 -206 -283c0 -184 98 -323 237 -323c108 0 203 93 203 284c0 209 -104 322 -233 322z" />
    <glyph glyph-name="P" unicode="P" horiz-adv-x="569" 
d="M45 650h253c72 0 129 -12 169 -41c41 -30 66 -77 66 -142c0 -131 -97 -193 -196 -206c-15 -2 -33 -2 -44 -1l-73 19v-154c0 -84 8 -90 97 -96v-29h-278v29c79 6 88 14 88 97v397c0 88 -9 92 -82 98v29zM220 561v-248c12 -5 39 -11 69 -11c60 0 139 33 139 161
c0 109 -67 154 -146 154c-26 0 -45 -5 -52 -12c-7 -6 -10 -18 -10 -44z" />
    <glyph glyph-name="Q" unicode="Q" horiz-adv-x="748" 
d="M722 -138l-7 -22c-49 -2 -101 5 -132 14c-31 8 -108 44 -231 132c-57 3 -145 27 -207 89c-60 57 -102 143 -102 240c0 183 126 350 342 350c171 0 322 -134 322 -334c0 -176 -108 -291 -226 -328c62 -43 152 -100 241 -141zM350 26l70 22c9 -6 19 -12 27 -19
c74 23 148 112 148 273c0 206 -99 325 -233 325c-111 0 -207 -101 -207 -285c0 -168 80 -291 195 -316z" />
    <glyph glyph-name="R" unicode="R" horiz-adv-x="628" 
d="M636 19l-4 -27c-11 0 -22 0 -34 1c-85 4 -125 27 -170 92c-33 47 -68 108 -97 157c-18 29 -35 41 -83 41h-29v-157c0 -84 9 -91 88 -97v-29h-270v29c81 6 90 13 90 97v399c0 84 -9 89 -86 96v29h254c76 0 125 -9 163 -35c41 -26 67 -70 67 -131c0 -86 -54 -138 -127 -170
c17 -32 58 -99 88 -144c36 -53 57 -80 80 -105c26 -28 48 -40 70 -46zM219 317h44c49 0 82 8 107 28c37 30 53 70 53 123c0 108 -69 148 -141 148c-29 0 -45 -4 -53 -10c-7 -6 -10 -17 -10 -43v-246z" />
    <glyph glyph-name="S" unicode="S" horiz-adv-x="480" 
d="M415 502l-30 -6c-18 63 -47 134 -132 134c-73 0 -109 -53 -109 -108c0 -70 46 -104 127 -145c83 -42 173 -90 173 -200c0 -107 -90 -192 -226 -192c-40 0 -73 7 -98 15c-26 8 -41 16 -52 21c-8 22 -21 107 -27 158l31 8c16 -62 63 -165 165 -165c73 0 117 46 117 117
s-53 107 -128 147c-71 37 -167 88 -167 198c0 98 79 181 210 181c50 0 94 -13 128 -24c4 -36 10 -76 18 -139z" />
    <glyph glyph-name="T" unicode="T" horiz-adv-x="621" 
d="M596 495l-30 -3c-11 49 -21 75 -34 92c-17 22 -34 30 -107 30h-66v-489c0 -80 8 -90 102 -96v-29h-294v29c90 6 98 16 98 96v489h-57c-83 0 -103 -9 -116 -31c-12 -17 -22 -46 -33 -91h-31c4 62 10 129 12 183h21c14 -23 27 -25 55 -25h397c27 0 36 6 51 25h22
c0 -45 5 -121 10 -180z" />
    <glyph glyph-name="U" unicode="U" horiz-adv-x="735" 
d="M717 650v-29c-59 -5 -82 -19 -87 -59c-3 -28 -6 -70 -6 -158v-87c0 -116 -18 -201 -75 -261c-46 -48 -113 -70 -180 -70c-60 0 -118 14 -163 48c-59 46 -87 121 -87 238v246c0 91 -9 95 -87 103v29h266v-29c-77 -6 -85 -12 -85 -103v-224c0 -160 62 -251 183 -251
c139 0 185 115 185 281v80c0 88 -3 129 -7 160c-6 38 -27 52 -97 57v29h240z" />
    <glyph glyph-name="V" unicode="V" horiz-adv-x="705" 
d="M690 650v-30c-68 -7 -82 -17 -120 -108c-28 -67 -131 -316 -207 -523h-34l-206 541c-30 75 -46 84 -106 90v30h255v-30c-72 -8 -74 -16 -59 -59l162 -426h2c52 129 121 309 152 407c20 60 15 69 -66 78v30h227z" />
    <glyph glyph-name="W" unicode="W" horiz-adv-x="972" 
d="M958 650v-29c-68 -10 -79 -19 -108 -101c-23 -65 -82 -251 -165 -531h-35l-173 489h-2l-160 -489h-36c-52 181 -108 355 -163 533c-25 81 -40 91 -100 99v29h252v-29c-74 -9 -75 -19 -61 -70l119 -399h2l158 489h33l173 -490h2c42 131 95 320 110 389c14 60 10 72 -69 81
v29h223z" />
    <glyph glyph-name="X" unicode="X" horiz-adv-x="661" 
d="M663 0h-273v29c62 8 67 18 48 51l-127 208c-48 -73 -90 -142 -120 -198c-24 -43 -18 -52 49 -61v-29h-233v29c57 6 89 20 117 57c27 33 82 109 164 235l-136 218c-40 62 -56 74 -127 82v29h256v-29c-59 -8 -60 -18 -46 -43c31 -53 67 -109 110 -177c40 60 71 110 97 158
c24 43 19 53 -47 62v29h231v-29c-72 -9 -93 -19 -137 -76c-24 -31 -58 -80 -122 -176l159 -250c45 -68 68 -83 137 -90v-29z" />
    <glyph glyph-name="Y" unicode="Y" horiz-adv-x="638" 
d="M625 650v-29c-68 -8 -81 -20 -119 -80c-44 -71 -77 -126 -125 -215c-13 -26 -16 -38 -16 -64v-135c0 -85 8 -92 99 -98v-29h-290v29c88 6 97 13 97 98v129c0 21 -4 31 -20 59l-125 221c-40 68 -52 79 -111 85v29h248v-29c-71 -10 -68 -21 -50 -55
c41 -78 88 -159 131 -234c35 65 89 162 116 223c22 48 19 57 -58 66v29h223z" />
    <glyph glyph-name="Z" unicode="Z" horiz-adv-x="606" 
d="M563 179l31 -7c-8 -38 -26 -133 -37 -172h-519l-9 15l413 597h-164c-108 0 -124 -9 -141 -35c-12 -19 -24 -45 -35 -89l-30 1c4 66 10 140 12 186h24c13 -24 24 -25 54 -25h400l7 -14l-405 -593c32 -4 87 -6 155 -6c117 0 160 7 188 37c21 22 37 54 56 105z" />
    <glyph glyph-name="bracketleft" unicode="[" horiz-adv-x="346" 
d="M292 -163h-173v866h173v-29c-105 -9 -108 -14 -108 -92v-624c0 -78 2 -83 108 -92v-29z" />
    <glyph glyph-name="backslash" unicode="\" horiz-adv-x="333" 
d="M300 -44h-59l-206 709h58z" />
    <glyph glyph-name="bracketright" unicode="]" horiz-adv-x="346" 
d="M227 -163h-173v29c106 10 109 15 109 93v623c0 78 -3 83 -109 92v29h173v-866z" />
    <glyph glyph-name="asciicircum" unicode="^" horiz-adv-x="565" 
d="M498 211h-62l-155 344l-156 -344h-58l192 412h47z" />
    <glyph glyph-name="underscore" unicode="_" horiz-adv-x="500" 
d="M500 -125h-500v50h500v-50z" />
    <glyph glyph-name="grave" unicode="`" 
d="M246 504l-28 -14l-119 160l3 9c10 6 66 17 82 14c19 -47 43 -117 62 -169z" />
    <glyph glyph-name="a" unicode="a" horiz-adv-x="444" 
d="M439 40l-90 -52c-17 0 -38 9 -49 20c-13 13 -20 27 -24 43c-40 -27 -88 -63 -116 -63c-73 0 -123 61 -123 123c0 50 26 80 80 98c60 21 134 48 156 66v20c0 70 -32 110 -80 110c-18 0 -33 -7 -43 -19c-12 -14 -21 -36 -29 -67c-5 -18 -16 -25 -32 -25
c-19 0 -47 20 -47 44c0 16 13 27 33 42c29 21 96 59 153 70c31 0 62 -9 84 -27c37 -30 47 -71 47 -125v-182c0 -45 17 -59 34 -59c12 0 26 5 36 10zM273 83v157c-21 -11 -62 -30 -84 -40c-37 -18 -58 -36 -58 -73c0 -52 39 -76 69 -76c24 0 55 15 73 32z" />
    <glyph glyph-name="b" unicode="b" horiz-adv-x="513" 
d="M160 407l73 31c19 9 32 12 45 12c110 0 199 -94 199 -211c0 -146 -117 -251 -253 -251c-44 0 -95 10 -152 36v553c0 62 -3 68 -65 74v24c47 6 112 21 153 35v-303zM160 376v-261c0 -15 2 -25 5 -35c7 -19 36 -53 84 -53c79 -1 130 69 130 186c0 116 -68 179 -148 179
c-25 0 -53 -7 -71 -16z" />
    <glyph glyph-name="c" unicode="c" horiz-adv-x="423" 
d="M392 113l18 -22c-45 -59 -111 -103 -170 -103c-129 0 -204 102 -204 210c0 76 35 144 101 194c54 42 115 58 153 58h1c40 0 73 -13 88 -26c14 -11 17 -20 17 -31c0 -23 -23 -46 -35 -46c-6 0 -11 3 -19 11c-33 30 -67 43 -101 43c-61 0 -116 -52 -116 -157
c0 -138 95 -184 149 -184c42 0 74 12 118 53z" />
    <glyph glyph-name="d" unicode="d" horiz-adv-x="531" 
d="M522 52v-26c-23 -4 -101 -17 -163 -38v64l-61 -37c-37 -22 -61 -27 -73 -27c-81 0 -188 73 -188 214c0 138 120 248 260 248c13 0 39 -2 62 -10v138c0 63 -6 66 -75 72v25c54 7 123 22 163 35v-593c0 -53 6 -58 44 -62zM359 84v277c-23 34 -62 51 -97 51
c-43 0 -126 -37 -126 -183c0 -120 73 -176 134 -176c33 0 65 14 89 31z" />
    <glyph glyph-name="e" unicode="e" horiz-adv-x="427" 
d="M383 109l16 -22c-63 -81 -133 -99 -166 -99c-125 0 -197 100 -197 213c0 70 26 132 67 176c42 46 96 73 147 73h1c85 0 153 -75 152 -154c0 -20 -4 -29 -24 -33c-16 -2 -141 -12 -257 -16c2 -131 77 -187 147 -187c40 0 78 16 114 49zM228 413h-1c-43 0 -86 -43 -99 -124
c53 0 105 1 160 3c17 0 23 5 23 20c1 52 -31 101 -83 101z" />
    <glyph glyph-name="f" unicode="f" horiz-adv-x="303" 
d="M54 438h45v22c0 29 4 57 11 79s25 71 79 118c36 30 71 48 112 53c35 -1 63 -14 79 -33c10 -11 11 -25 6 -37c-3 -8 -10 -17 -21 -26c-10 -8 -19 -7 -28 2c-21 20 -50 39 -82 39c-24 0 -39 -11 -49 -28c-12 -19 -21 -65 -19 -150v-39h118c5 -9 1 -34 -11 -41h-107v-288
c0 -71 7 -75 85 -83v-26h-242v27c63 6 69 12 69 77v293h-69l-4 11z" />
    <glyph glyph-name="g" unicode="g" horiz-adv-x="472" 
d="M468 438l5 -8c-8 -16 -28 -43 -44 -52l-57 3c18 -21 29 -52 29 -87c0 -107 -91 -159 -178 -159c-17 0 -35 2 -51 5c-12 -9 -26 -26 -26 -39c0 -19 17 -39 62 -39c36 0 70 2 104 2c62 0 145 -20 145 -119c0 -104 -120 -200 -253 -200c-114 0 -174 65 -175 123
c-1 22 9 40 25 55c21 20 57 48 81 67c-36 11 -61 33 -74 55c-9 14 -13 33 -12 44c43 15 75 42 91 61c-48 20 -89 67 -89 134c0 114 102 166 181 166h1c34 0 66 -9 97 -26c50 3 101 9 138 14zM223 419h-1c-40 0 -78 -42 -78 -119c0 -76 36 -132 90 -132c43 1 78 40 78 118
c0 76 -34 133 -89 133zM242 -13h-1c-47 0 -69 -6 -87 -21c-23 -21 -41 -46 -41 -73c0 -54 56 -96 131 -96c92 0 140 47 140 108c0 34 -18 59 -47 70c-26 10 -53 12 -95 12z" />
    <glyph glyph-name="h" unicode="h" horiz-adv-x="537" 
d="M516 0h-215v27c56 6 63 13 63 76v167c0 82 -32 120 -93 120c-36 0 -72 -17 -99 -47v-240c0 -63 6 -70 62 -76v-27h-217v27c60 6 68 11 68 77v475c0 62 -3 66 -66 72v24c49 7 111 22 153 35v-331c36 35 89 71 142 71c82 0 138 -52 138 -170v-177c0 -65 7 -70 64 -76v-27z
" />
    <glyph glyph-name="i" unicode="i" horiz-adv-x="273" 
d="M138 533c-29 0 -54 25 -54 54c0 32 25 56 55 56c29 0 53 -24 53 -56c0 -29 -24 -54 -54 -54zM258 0h-227v27c62 6 69 12 69 80v205c0 63 -4 67 -61 76v25c52 8 103 21 149 39v-345c0 -68 6 -74 70 -80v-27z" />
    <glyph glyph-name="j" unicode="j" horiz-adv-x="262" 
d="M137 533c-29 0 -53 25 -53 54c0 32 24 56 54 56s53 -24 53 -56c0 -29 -23 -54 -54 -54zM34 389v24c54 8 107 21 154 39v-337c0 -68 -5 -110 -24 -162c-36 -99 -102 -177 -125 -196c-10 -8 -18 -12 -27 -12c-14 0 -37 21 -37 46c0 13 7 21 22 24c35 7 60 18 73 35
c11 14 18 37 22 72c6 45 8 106 8 192v194c0 68 -6 72 -66 81z" />
    <glyph glyph-name="k" unicode="k" horiz-adv-x="499" 
d="M517 0l-144 -2c-43 48 -104 130 -158 198c-12 15 -20 21 -29 21c-4 0 -9 0 -14 -2v-110c0 -66 8 -72 71 -78v-27h-230v27c66 6 72 13 72 78v471c0 64 -5 69 -65 75v24c48 6 108 21 152 35v-468c29 6 46 19 62 35c22 23 51 62 68 88c19 29 16 38 -30 43v27l206 9v-26
c-67 -11 -91 -22 -128 -58c-26 -25 -43 -45 -83 -93c21 -32 120 -150 153 -186c35 -37 60 -51 97 -54v-27z" />
    <glyph glyph-name="l" unicode="l" horiz-adv-x="258" 
d="M244 0h-230v27c63 7 71 12 71 78v471c0 66 -6 69 -68 75v24c53 6 118 23 155 35v-605c0 -66 8 -72 72 -78v-27z" />
    <glyph glyph-name="m" unicode="m" horiz-adv-x="823" 
d="M801 0h-217v27c56 6 66 11 66 80v168c0 73 -27 112 -84 112c-34 0 -69 -18 -106 -48c2 -12 3 -24 3 -42v-196c0 -62 9 -68 62 -74v-27h-217v27c59 6 67 11 67 75v174c0 74 -27 112 -84 112c-37 0 -74 -25 -103 -49v-237c0 -63 8 -69 55 -75v-27h-216v27c65 6 73 11 73 77
v207c0 63 -3 68 -59 77v24c44 8 98 21 146 41v-81c21 15 42 32 71 50c27 17 51 28 83 28c49 0 91 -31 111 -82c29 22 57 40 81 56c22 14 48 26 76 26c80 0 129 -56 129 -154v-193c0 -66 6 -69 63 -76v-27z" />
    <glyph glyph-name="n" unicode="n" horiz-adv-x="550" 
d="M528 0h-213v27c56 6 63 13 63 83v167c0 70 -26 111 -87 111c-37 0 -74 -23 -103 -48v-236c0 -67 6 -71 62 -77v-27h-221v27c66 7 71 12 71 78v207c0 63 -6 66 -59 76v24c50 9 100 22 147 41v-79c20 15 41 30 66 46c29 19 53 30 82 30c80 0 129 -56 129 -153v-193
c0 -67 6 -70 63 -77v-27z" />
    <glyph glyph-name="o" unicode="o" horiz-adv-x="513" 
d="M259 450h1c125 0 217 -101 217 -223c0 -162 -117 -239 -219 -239c-141 0 -222 111 -222 221c0 165 128 241 223 241zM247 416h-1c-57 0 -108 -60 -108 -174c0 -126 51 -220 131 -220c57 0 106 42 106 181c0 121 -45 213 -128 213z" />
    <glyph glyph-name="p" unicode="p" horiz-adv-x="528" 
d="M177 382l88 52c18 11 37 16 50 16c112 0 178 -92 178 -190c0 -150 -119 -247 -249 -272c-28 1 -54 10 -67 17v-131c0 -72 7 -78 84 -84v-28h-244v28c64 6 72 12 72 76v452c0 63 -5 66 -65 73v25c45 8 102 25 153 44v-78zM177 348v-272c21 -22 59 -39 91 -39
c79 0 132 71 132 183c0 110 -62 167 -130 167c-30 0 -68 -20 -93 -39z" />
    <glyph glyph-name="q" unicode="q" horiz-adv-x="516" 
d="M518 -238h-246v28c77 6 84 12 84 80v158l-101 -40c-149 0 -218 113 -218 210c0 143 130 253 270 252c36 -3 58 -9 70 -13c13 -5 19 -6 28 -5c6 0 20 3 37 11l4 -4c-1 -20 -3 -39 -3 -106v-464c0 -68 7 -72 75 -79v-28zM356 60v308c-22 26 -62 42 -92 42
c-64 0 -128 -60 -128 -179c0 -120 82 -186 153 -186c28 0 49 6 67 15z" />
    <glyph glyph-name="r" unicode="r" horiz-adv-x="377" 
d="M188 344h2c31 53 73 106 119 106c36 0 60 -27 60 -52c0 -23 -14 -44 -35 -54c-12 -5 -21 -3 -27 3c-15 14 -27 20 -44 20c-24 0 -54 -26 -75 -79v-184c0 -65 5 -71 82 -77v-27h-238v27c61 6 68 12 68 77v209c0 64 -5 67 -60 76v23c51 8 97 20 148 40v-108z" />
    <glyph glyph-name="s" unicode="s" horiz-adv-x="370" 
d="M323 325l-27 -7c-20 59 -54 99 -103 99c-36 0 -62 -28 -62 -66c0 -42 36 -65 82 -85c77 -32 128 -67 128 -138c0 -93 -86 -140 -167 -140c-52 0 -99 19 -117 34c-7 14 -16 83 -17 121l28 4c18 -65 63 -125 124 -125c36 0 68 27 68 67c0 42 -26 65 -78 90
c-58 27 -127 61 -127 139c0 72 61 132 155 132c43 0 70 -9 91 -18c8 -22 19 -84 22 -107z" />
    <glyph glyph-name="t" unicode="t" horiz-adv-x="311" 
d="M303 36l-70 -35c-17 -9 -32 -13 -41 -13c-66 0 -103 39 -103 120v289h-68l-4 11l27 30h45v73l74 68l13 -3v-138h111c10 -10 7 -33 -6 -41h-105v-255c0 -80 34 -94 59 -94c23 0 45 8 59 15z" />
    <glyph glyph-name="u" unicode="u" horiz-adv-x="535" 
d="M522 50v-26c-23 -3 -51 -9 -79 -16c-27 -7 -53 -14 -74 -20l-7 6v69c-22 -17 -42 -33 -69 -49c-29 -17 -52 -26 -79 -26c-70 0 -125 43 -125 148v197c0 52 -8 58 -33 63l-28 6v25c22 1 48 4 76 7s57 8 76 11c-3 -33 -4 -81 -4 -147v-136c0 -85 42 -109 85 -109
c35 0 69 14 101 45v235c0 52 -8 58 -40 63l-35 6v25c28 1 62 4 92 7c29 3 55 8 71 11v-332c0 -51 8 -58 46 -61z" />
    <glyph glyph-name="v" unicode="v" horiz-adv-x="463" 
d="M478 438v-27c-52 -7 -61 -17 -87 -74c-34 -76 -86 -199 -142 -348h-29l-139 351c-23 55 -31 63 -84 71v27h213v-27c-53 -7 -55 -15 -40 -56c25 -70 65 -174 91 -240c32 76 65 167 86 232c15 46 9 57 -47 64v27h178z" />
    <glyph glyph-name="w" unicode="w" horiz-adv-x="685" 
d="M697 438v-27c-50 -7 -59 -19 -79 -73c-32 -82 -76 -213 -122 -349h-30c-40 106 -81 203 -121 305c-38 -99 -78 -197 -117 -305h-31c-36 120 -75 239 -116 357c-17 52 -26 59 -73 65v27h214v-27c-60 -9 -64 -16 -51 -59l71 -226h2l114 307h28c37 -102 78 -205 119 -310h2
c21 65 49 155 66 223c12 49 6 56 -58 65v27h182z" />
    <glyph glyph-name="x" unicode="x" horiz-adv-x="473" 
d="M478 0h-220v27c41 6 49 14 32 41l-70 112c-22 -32 -43 -69 -62 -102s-16 -43 34 -51v-27h-187v27c60 8 73 17 111 66c28 33 55 73 84 117l-87 138c-30 48 -42 56 -97 63v27h206v-27c-41 -6 -45 -14 -27 -42l57 -89c20 29 39 60 56 90s11 36 -32 41v27h183v-27
c-60 -6 -73 -12 -108 -52c-21 -25 -45 -60 -79 -109l98 -149c36 -56 51 -66 108 -74v-27z" />
    <glyph glyph-name="y" unicode="y" horiz-adv-x="460" 
d="M479 438v-26c-52 -9 -61 -17 -88 -73c-25 -53 -56 -136 -124 -297c-66 -160 -88 -218 -103 -272c-6 -20 -18 -25 -33 -25c-28 0 -59 25 -59 51c0 16 9 25 26 37c33 19 53 43 76 85c17 32 24 51 29 64c5 15 4 29 -2 46c-43 119 -89 244 -117 311c-21 52 -31 65 -84 73v26
h211v-26c-46 -8 -52 -18 -39 -54l89 -246c27 67 68 181 88 243c12 37 5 48 -51 57v26h181z" />
    <glyph glyph-name="z" unicode="z" horiz-adv-x="424" 
d="M391 141l26 -13c-15 -42 -31 -90 -46 -128h-334l-8 15c86 128 165 254 246 388h-83c-71 0 -86 -15 -114 -72l-15 -28l-26 10c12 40 27 103 35 147h22c6 -16 18 -22 56 -22h232l7 -14l-240 -389h93c75 0 98 19 135 81z" />
    <glyph glyph-name="braceleft" unicode="{" horiz-adv-x="349" 
d="M296 -139v-30c-63 0 -150 14 -150 131c0 70 8 142 8 206c0 35 -4 81 -91 87v30c88 7 91 52 91 87c0 67 -8 140 -8 203c0 119 87 134 150 134v-30c-75 -9 -85 -50 -85 -94c0 -63 13 -134 13 -197c0 -55 -23 -102 -84 -116v-4c60 -13 84 -61 84 -116
c0 -65 -13 -132 -13 -193c0 -47 10 -88 85 -98z" />
    <glyph glyph-name="bar" unicode="|" horiz-adv-x="264" 
d="M166 -250h-68v1000h68v-1000z" />
    <glyph glyph-name="braceright" unicode="}" horiz-adv-x="349" 
d="M286 285v-30c-88 -6 -91 -53 -91 -92c0 -59 8 -131 8 -202c0 -112 -87 -130 -150 -130v30c73 10 85 50 85 95c0 61 -13 130 -13 195c0 55 23 103 85 117v4c-61 14 -85 62 -85 116c0 65 13 135 13 198c0 46 -12 84 -85 94v29c64 0 150 -13 150 -130c0 -71 -8 -142 -8 -202
c0 -39 3 -86 91 -92z" />
    <glyph glyph-name="asciitilde" unicode="~" horiz-adv-x="579" 
d="M488 311l38 -23c-22 -69 -65 -109 -129 -109c-47 0 -90 23 -126 44c-33 20 -58 32 -89 32c-41 0 -68 -27 -91 -83l-37 27c39 94 95 108 132 108c40 0 71 -12 115 -38c38 -22 70 -38 103 -38c39 0 64 26 84 80z" />
    <glyph glyph-name="uni00A0" unicode="&#xa0;" horiz-adv-x="225" 
 />
    <glyph glyph-name="exclamdown" unicode="&#xa1;" horiz-adv-x="277" 
d="M138 450h1c33 0 59 -25 59 -63c0 -35 -26 -61 -60 -61c-35 0 -60 26 -60 61c0 38 25 63 60 63zM139 -227h-1c-41 0 -58 11 -58 33c0 16 3 38 8 77c14 114 23 229 33 354c4 8 33 8 37 0c11 -125 17 -240 32 -354c5 -39 8 -61 8 -77c0 -22 -18 -33 -59 -33z" />
    <glyph glyph-name="cent" unicode="&#xa2;" horiz-adv-x="483" 
d="M421 221l17 -24c-40 -53 -99 -90 -149 -98v-98h-36v95c-123 4 -203 100 -203 203c0 76 38 141 95 183c36 28 77 43 108 50v83h36v-79c8 1 12 1 18 1c40 0 79 -11 100 -26c10 -7 14 -18 14 -26c0 -22 -21 -44 -36 -44c-5 0 -10 3 -16 9c-23 24 -48 39 -80 43v-329
c54 -1 92 19 132 57zM253 168v326c-50 -2 -118 -45 -118 -154c0 -113 66 -160 118 -172z" />
    <glyph glyph-name="sterling" unicode="&#xa3;" horiz-adv-x="483" 
d="M380 294h-167c1 -8 1 -14 1 -21c0 -69 -38 -123 -91 -169c36 0 69 -10 105 -26c42 -19 87 -39 123 -39s55 17 55 42c0 13 -4 25 -7 34c-4 7 -3 14 2 22c11 15 24 26 37 26c14 0 24 -21 24 -41c0 -46 -41 -92 -79 -117c-28 -19 -58 -32 -93 -32c-41 0 -90 29 -135 54
c-31 17 -47 24 -61 24c-12 0 -27 -10 -40 -42c-2 -9 -6 -14 -12 -14c-14 0 -30 18 -14 47c9 19 32 44 50 64c33 37 42 92 42 131c0 25 -2 43 -4 57h-89v39h84c-3 27 -6 54 -6 82c0 63 22 125 85 175c32 25 77 44 107 45c46 0 85 -25 97 -41c8 -11 9 -21 3 -33
c-4 -8 -13 -18 -20 -24c-9 -6 -19 -5 -28 3c-26 21 -55 43 -95 43c-45 0 -66 -30 -66 -90c0 -46 11 -103 22 -160h170v-39z" />
    <glyph glyph-name="currency" unicode="&#xa4;" horiz-adv-x="483" 
d="M452 135l-43 -42l-64 75c-31 -25 -72 -38 -106 -38c-35 0 -76 12 -107 38l-64 -75l-42 42l69 67c-28 34 -42 78 -42 123s14 89 43 122l-70 68l42 41l65 -75c31 26 71 38 106 38h1c33 0 74 -12 106 -37l63 74l43 -41l-69 -68c27 -32 43 -77 43 -122s-16 -90 -44 -123z
M240 467h-1c-69 0 -121 -58 -121 -142c0 -86 53 -143 122 -143s121 57 121 143c0 84 -52 142 -121 142z" />
    <glyph glyph-name="yen" unicode="&#xa5;" horiz-adv-x="483" 
d="M470 623v-27c-52 -7 -61 -18 -91 -71c-23 -40 -53 -99 -98 -192h128v-38h-135v-30v-37h136v-37h-136v-79c0 -71 6 -78 90 -84v-28h-265v28c82 6 88 13 88 84v79h-132v37h132v31v36h-132v38h121c-24 59 -47 112 -84 191c-28 59 -40 66 -85 72v27h212v-27l-25 -5
c-27 -6 -32 -12 -24 -33c20 -53 57 -140 84 -204c26 54 70 150 85 190c11 29 11 40 -21 46l-27 6v27h179z" />
    <glyph glyph-name="brokenbar" unicode="&#xa6;" horiz-adv-x="264" 
d="M166 325h-68v350h68v-350zM166 -175h-68v350h68v-350z" />
    <glyph glyph-name="section" unicode="&#xa7;" horiz-adv-x="477" 
d="M426 203v-1c-1 -84 -53 -162 -98 -213c-46 -49 -88 -77 -141 -93c-16 0 -50 7 -69 22c-13 11 -20 20 -20 30c0 12 15 28 23 35c7 5 15 6 22 3c8 -6 39 -28 79 -28c32 0 67 18 67 57c1 27 -15 53 -66 100l-100 100c-40 38 -71 92 -71 152c0 68 36 129 80 176
c49 53 88 83 151 98c26 0 54 -11 67 -23c9 -9 12 -15 12 -24c0 -16 -13 -29 -20 -34c-4 -3 -11 -7 -19 -1c-11 9 -41 27 -78 27c-42 0 -61 -29 -61 -50c-1 -20 8 -42 37 -67l110 -95c51 -42 96 -96 95 -171zM104 414v-2c0 -53 24 -99 88 -160c73 -66 108 -104 122 -126
c12 -19 22 -51 20 -78l2 -1c23 35 37 71 37 111c0 44 -18 93 -82 148c-32 29 -88 79 -110 101c-23 23 -44 60 -40 98l-3 1c-21 -28 -34 -58 -34 -92z" />
    <glyph glyph-name="dieresis" unicode="&#xa8;" 
d="M112 535c-27 0 -51 23 -51 51c0 30 24 53 52 53s51 -23 51 -53c0 -28 -23 -51 -52 -51zM287 535c-27 0 -51 23 -51 51c0 30 24 53 52 53s51 -23 51 -53c0 -28 -23 -51 -52 -51z" />
    <glyph glyph-name="copyright" unicode="&#xa9;" horiz-adv-x="701" 
d="M351 627h1c171 0 300 -135 300 -305c0 -167 -128 -303 -301 -303c-174 0 -302 136 -302 303c0 169 129 305 302 305zM351 591h-1c-146 0 -253 -115 -253 -268c0 -152 108 -269 254 -269c147 0 253 118 253 269c0 153 -106 268 -253 268zM480 262l23 -5
c-7 -27 -18 -71 -26 -89c-20 -7 -63 -19 -105 -19c-129 0 -190 87 -190 171c0 112 91 177 194 177c50 0 87 -11 105 -18c3 -26 6 -50 11 -90l-22 -4c-18 54 -47 83 -100 83c-70 0 -112 -60 -112 -141c0 -88 50 -148 115 -148c54 0 85 32 107 83z" />
    <glyph glyph-name="ordfeminine" unicode="&#xaa;" horiz-adv-x="310" 
d="M299 303l-65 -33c-27 1 -41 20 -47 38c-26 -17 -58 -38 -76 -38c-46 0 -79 38 -79 76c0 29 16 50 50 62c30 12 82 28 104 43v11c0 32 -19 53 -48 53c-23 0 -38 -22 -47 -52c-4 -12 -11 -17 -21 -17c-15 0 -34 14 -34 30c0 11 8 20 21 28c17 12 60 36 100 43
c56 0 90 -29 90 -88v-108c0 -27 11 -34 22 -34c7 0 15 2 23 6zM186 333v91c-13 -7 -42 -19 -58 -26c-19 -11 -29 -20 -29 -40c0 -28 23 -44 43 -44c18 0 34 10 44 19z" />
    <glyph glyph-name="guillemotleft" unicode="&#xab;" horiz-adv-x="446" 
d="M231 53l-24 -16c-60 78 -120 148 -158 185c38 38 98 107 158 185l24 -15l-91 -170zM399 53l-24 -16c-62 78 -122 148 -158 185c37 38 97 107 158 185l24 -15l-91 -170z" />
    <glyph glyph-name="logicalnot" unicode="&#xac;" horiz-adv-x="579" 
d="M529 98h-61v219h-417v52h478v-271z" />
    <glyph glyph-name="uni00AD" unicode="&#xad;" horiz-adv-x="353" 
d="M300 255l-14 -58h-232l14 58h232z" />
    <glyph glyph-name="registered" unicode="&#xae;" horiz-adv-x="320" 
d="M161 659h1c73 0 129 -60 129 -130c0 -68 -56 -129 -130 -129s-130 56 -130 129c0 70 57 130 130 130zM161 636h-1c-58 0 -100 -47 -100 -107s44 -106 101 -106c58 0 102 46 102 106s-44 107 -102 107zM235 472l-3 -11c-23 0 -37 4 -49 20c-9 12 -14 25 -18 32
c-4 6 -9 7 -14 7h-4v-24c0 -18 2 -18 19 -19v-15h-68v15c18 1 19 1 19 19v69c0 17 -1 18 -18 19v15h69c22 0 48 -6 48 -36c0 -17 -11 -27 -27 -34c10 -19 18 -30 33 -46c5 -5 10 -9 13 -11zM147 535h9c5 0 13 2 17 5c8 4 11 11 11 20c0 20 -16 24 -24 24
c-9 0 -13 -3 -13 -12v-37z" />
    <glyph glyph-name="macron" unicode="&#xaf;" 
d="M313 547h-225v58h225v-58z" />
    <glyph glyph-name="degree" unicode="&#xb0;" horiz-adv-x="340" 
d="M170 664h1c73 0 139 -54 139 -136c0 -86 -66 -136 -140 -136c-73 0 -139 50 -139 136c0 82 66 136 139 136zM171 620h-1c-45 0 -78 -37 -78 -92s33 -93 79 -93c47 0 78 38 78 92c0 56 -31 93 -78 93z" />
    <glyph glyph-name="plusminus" unicode="&#xb1;" horiz-adv-x="579" 
d="M529 310h-208v-202h-61v202h-209v52h209v189h61v-189h208v-52zM529 0h-478v52h478v-52z" />
    <glyph glyph-name="two.superior" unicode="&#xb2;" horiz-adv-x="342" 
d="M286 499l23 -7c-10 -33 -18 -62 -24 -91h-246v23c58 46 169 132 169 210c0 49 -28 72 -65 72s-65 -27 -84 -54l-19 18l33 45c23 28 60 45 98 45c59 0 112 -39 112 -108c0 -48 -31 -85 -106 -150l-51 -44v-2h92c37 0 49 5 68 43z" />
    <glyph glyph-name="three.superior" unicode="&#xb3;" horiz-adv-x="342" 
d="M206 612v-1c56 -10 89 -40 89 -83c0 -92 -127 -134 -170 -134c-30 0 -58 11 -69 21c-11 9 -14 18 -11 29c4 10 11 19 19 25c7 4 14 4 22 -2c18 -14 46 -34 75 -34c33 0 61 21 61 73c0 47 -37 67 -75 67c-16 0 -29 -3 -41 -7l-7 26c59 19 97 41 97 77c0 24 -18 44 -50 44
s-60 -27 -74 -48l-17 17l30 41c17 18 52 37 87 37h1c60 0 97 -36 97 -78c0 -16 -8 -31 -20 -40c-10 -9 -24 -19 -44 -30z" />
    <glyph glyph-name="acute" unicode="&#xb4;" 
d="M195 492l-27 14c18 41 57 142 64 159c9 5 73 13 86 10l4 -10z" />
    <glyph glyph-name="mu" unicode="&#xb5;" horiz-adv-x="517" 
d="M503 57l10 -27c-16 -21 -52 -42 -89 -42c-43 0 -74 29 -81 76h-2c-37 -42 -79 -76 -130 -76c-35 0 -64 19 -80 42h-4v-16c-1 -77 22 -216 36 -256l-12 -13c-24 2 -62 23 -79 40c-4 17 -1 154 -1 261v288c0 37 -1 74 -4 97l90 20c3 -25 2 -69 2 -107v-172
c0 -92 48 -119 88 -119c41 0 75 27 93 49v329l89 20v-335c0 -54 20 -69 40 -69c12 0 25 4 34 10z" />
    <glyph glyph-name="paragraph" unicode="&#xb6;" horiz-adv-x="501" 
d="M469 534l-30 -28l-88 -11v-472c0 -83 -21 -137 -69 -186c-32 -32 -79 -51 -89 -51c-29 0 -54 11 -67 23c-11 10 -14 21 -10 31c3 10 13 22 20 28c7 5 13 5 20 0c21 -14 42 -22 64 -22c39 0 78 25 78 157v147l-68 -29c-4 -2 -8 -3 -17 -3c-57 0 -165 76 -165 203
c0 67 28 125 68 161c42 39 102 63 149 63h200z" />
    <glyph glyph-name="periodcentered" unicode="&#xb7;" horiz-adv-x="231" 
d="M115 171h-1c-33 0 -58 25 -58 62c0 35 25 61 59 61c35 0 61 -26 61 -61c0 -37 -26 -62 -61 -62z" />
    <glyph glyph-name="cedilla" unicode="&#xb8;" 
d="M247 0l-22 -27c-13 -16 -11 -24 6 -41c27 -27 39 -46 39 -69c0 -42 -45 -79 -116 -101l-13 26c41 18 60 40 60 61c1 15 -11 26 -23 37c-25 24 -30 39 -10 65l38 49h41z" />
    <glyph glyph-name="one.superior" unicode="&#xb9;" horiz-adv-x="342" 
d="M276 401h-200v24c53 5 64 11 64 60v174c0 38 -2 42 -36 45l-29 2v24c44 5 89 14 137 30v-275c0 -49 11 -54 64 -60v-24z" />
    <glyph glyph-name="ordmasculine" unicode="&#xba;" horiz-adv-x="341" 
d="M171 547h1c83 0 141 -62 140 -135c0 -93 -74 -142 -141 -142c-93 0 -145 68 -144 135c0 95 82 142 144 142zM164 519h-1c-29 0 -60 -32 -61 -100c0 -71 32 -121 73 -121c34 0 61 27 62 99c1 71 -27 122 -73 122z" />
    <glyph glyph-name="guillemotright" unicode="&#xbb;" horiz-adv-x="447" 
d="M49 391l24 16c61 -77 122 -147 159 -185c-37 -37 -98 -107 -159 -185l-24 16l92 169zM215 391l25 16c60 -77 120 -147 158 -185c-38 -37 -98 -107 -158 -185l-25 16l92 169z" />
    <glyph glyph-name="onequarter" unicode="&#xbc;" horiz-adv-x="766" 
d="M279 277h-200v24c53 5 64 11 64 60v174c0 38 -2 42 -36 45l-29 2v24c44 5 89 14 137 30v-275c0 -49 11 -54 64 -60v-24zM605 630l-406 -659l-32 25l404 657zM691 98h-58v-27c0 -38 10 -44 54 -48v-23h-184v23c53 4 63 10 63 48v27h-160v25c60 80 122 161 184 236h43v-222
h58v-39zM566 137v145h-2c-36 -46 -67 -89 -106 -145h108z" />
    <glyph glyph-name="onehalf" unicode="&#xbd;" horiz-adv-x="767" 
d="M272 277h-200v24c53 5 64 11 64 60v174c0 38 -2 42 -36 45l-29 2v24c44 5 89 14 137 30v-275c0 -49 11 -54 64 -60v-24zM590 630l-406 -659l-32 25l404 657zM685 98l23 -7c-10 -33 -18 -62 -24 -91h-246v23c58 46 169 132 169 210c0 49 -28 72 -65 72s-65 -27 -84 -54
l-19 18l33 45c23 28 60 45 98 45c59 0 112 -39 112 -108c0 -48 -31 -85 -106 -150l-51 -44v-2h92c37 0 49 5 68 43z" />
    <glyph glyph-name="threequarters" unicode="&#xbe;" horiz-adv-x="767" 
d="M608 630l-406 -659l-32 25l404 657zM685 98h-58v-27c0 -38 10 -44 54 -48v-23h-184v23c53 4 63 10 63 48v27h-160v25c60 80 122 161 184 236h43v-222h58v-39zM560 137v145h-2c-36 -46 -67 -89 -106 -145h108zM234 488v-1c56 -10 89 -40 89 -83c0 -92 -127 -134 -170 -134
c-30 0 -58 11 -69 21c-11 9 -14 18 -11 29c4 10 11 19 19 25c7 4 14 4 22 -2c18 -14 46 -34 75 -34c33 0 61 21 61 73c0 47 -37 67 -75 67c-16 0 -29 -3 -41 -7l-7 26c59 19 97 41 97 77c0 24 -18 44 -50 44s-60 -27 -74 -48l-17 17l30 41c17 18 52 37 87 37h1
c60 0 97 -36 97 -78c0 -16 -8 -31 -20 -40c-10 -9 -24 -19 -44 -30z" />
    <glyph glyph-name="questiondown" unicode="&#xbf;" horiz-adv-x="382" 
d="M194 450h1c32 0 57 -25 57 -61c0 -34 -25 -61 -58 -61c-34 0 -59 27 -59 61c0 36 25 61 59 61zM161 220l19 24c40 -15 114 -69 114 -131c0 -35 -22 -67 -87 -114c-41 -29 -99 -68 -99 -107c0 -32 21 -50 56 -50c64 0 105 56 118 56c15 0 44 -22 44 -49
c0 -14 -7 -24 -21 -37c-32 -27 -77 -38 -96 -38h-1c-83 0 -163 77 -163 161c0 36 12 63 49 92c33 27 110 72 110 118c0 30 -15 49 -43 75z" />
    <glyph glyph-name="Agrave" unicode="&#xc0;" horiz-adv-x="694" 
d="M676 0h-253v29c62 8 70 17 57 57c-12 38 -31 89 -52 147h-210c-15 -43 -29 -84 -42 -125c-20 -61 -13 -71 62 -79v-29h-219v29c65 9 78 16 113 104l206 522l35 10l193 -533c31 -86 45 -96 110 -103v-29zM413 277l-85 248h-3l-91 -248h179zM409 710l-13 -26l-190 63l-2 8
c4 16 31 56 45 62z" />
    <glyph glyph-name="Aacute" unicode="&#xc1;" horiz-adv-x="694" 
d="M676 0h-253v29c62 8 70 17 57 57c-12 38 -31 89 -52 147h-210c-15 -43 -29 -84 -42 -125c-20 -61 -13 -71 62 -79v-29h-219v29c65 9 78 16 113 104l206 522l35 10l193 -533c31 -86 45 -96 110 -103v-29zM413 277l-85 248h-3l-91 -248h179zM507 755l-2 -8l-189 -63l-13 25
l160 106c13 -3 41 -43 44 -60z" />
    <glyph glyph-name="Acircumflex" unicode="&#xc2;" horiz-adv-x="694" 
d="M676 0h-253v29c62 8 70 17 57 57c-12 38 -31 89 -52 147h-210c-15 -43 -29 -84 -42 -125c-20 -61 -13 -71 62 -79v-29h-219v29c65 9 78 16 113 104l206 522l35 10l193 -533c31 -86 45 -96 110 -103v-29zM413 277l-85 248h-3l-91 -248h179zM496 709l-16 -25
c-41 17 -82 40 -123 62c-39 -22 -81 -45 -122 -62l-16 25c44 34 89 70 127 110h24c38 -41 83 -76 126 -110z" />
    <glyph glyph-name="Atilde" unicode="&#xc3;" horiz-adv-x="694" 
d="M676 0h-253v29c62 8 70 17 57 57c-12 38 -31 89 -52 147h-210c-15 -43 -29 -84 -42 -125c-20 -61 -13 -71 62 -79v-29h-219v29c65 9 78 16 113 104l206 522l35 10l193 -533c31 -86 45 -96 110 -103v-29zM413 277l-85 248h-3l-91 -248h179zM305 790h1c18 0 32 -5 62 -19
c21 -10 37 -16 55 -16c20 0 34 15 47 43l26 -14c-23 -70 -56 -87 -85 -87c-21 0 -42 9 -69 21c-17 8 -28 14 -46 14s-33 -15 -48 -44l-25 18c25 64 56 84 82 84z" />
    <glyph glyph-name="Adieresis" unicode="&#xc4;" horiz-adv-x="694" 
d="M676 0h-253v29c62 8 70 17 57 57c-12 38 -31 89 -52 147h-210c-15 -43 -29 -84 -42 -125c-20 -61 -13 -71 62 -79v-29h-219v29c65 9 78 16 113 104l206 522l35 10l193 -533c31 -86 45 -96 110 -103v-29zM413 277l-85 248h-3l-91 -248h179zM451 799h1c28 0 50 -22 50 -52
c0 -28 -22 -52 -51 -52c-28 0 -51 24 -51 52c0 30 23 52 51 52zM257 799h1c28 0 50 -23 50 -53c0 -27 -22 -51 -51 -51c-28 0 -51 24 -51 51c0 30 23 53 51 53z" />
    <glyph glyph-name="Aring" unicode="&#xc5;" horiz-adv-x="694" 
d="M676 0h-253v29c62 8 70 17 57 57c-12 38 -31 89 -52 147h-210c-15 -43 -29 -84 -42 -125c-20 -61 -13 -71 62 -79v-29h-219v29c65 9 78 16 113 104l206 522l35 10l193 -533c31 -86 45 -96 110 -103v-29zM413 277l-85 248h-3l-91 -248h179zM355 857h1c44 0 89 -32 89 -85
s-45 -86 -90 -86s-89 33 -89 86s44 85 89 85zM355 824h-1c-25 0 -43 -22 -43 -52c0 -31 18 -54 44 -54c27 0 44 23 44 54c0 30 -17 52 -44 52z" />
    <glyph glyph-name="AE" unicode="&#xc6;" horiz-adv-x="871" 
d="M822 167l30 -7c-6 -32 -27 -129 -36 -160h-478v29c86 6 94 17 94 107v160h-176c-44 -85 -68 -135 -93 -191c-23 -53 -19 -66 58 -76v-29h-232v29c63 8 81 18 119 86c81 144 165 308 237 447c21 39 19 48 -29 54l-44 5v29h520c1 -24 5 -92 10 -143l-31 -4
c-10 40 -18 65 -33 83c-16 20 -38 27 -104 27h-77c-31 0 -34 -2 -34 -32v-245h85c90 0 97 8 110 76h31v-196h-31c-13 72 -21 79 -110 80h-85v-164c0 -53 6 -73 24 -84c20 -11 54 -11 100 -11c67 0 102 7 124 34c17 19 34 48 51 96zM432 336v272c-7 0 -14 -2 -28 -17
l-129 -255h157z" />
    <glyph glyph-name="Ccedilla" unicode="&#xc7;" horiz-adv-x="664" 
d="M615 179l30 -11c-14 -51 -38 -123 -54 -156c-26 -6 -101 -24 -166 -25l-11 -14c-13 -16 -10 -24 6 -41c26 -28 38 -46 38 -69c0 -40 -43 -79 -115 -102l-14 28c40 18 60 40 61 60c0 15 -13 27 -23 37c-24 25 -29 39 -11 63l28 37c-237 8 -338 176 -339 329
c0 207 158 350 383 350c85 0 150 -20 178 -26c8 -57 14 -99 21 -157l-32 -6c-32 110 -86 150 -194 150c-150 0 -243 -127 -243 -289c0 -181 98 -312 250 -312c102 0 155 52 207 154z" />
    <glyph glyph-name="Egrave" unicode="&#xc8;" horiz-adv-x="570" 
d="M520 164l30 -5c-5 -35 -26 -128 -34 -159h-488v29c90 7 99 15 99 97v395c0 89 -9 93 -85 100v29h450c0 -24 5 -92 9 -145l-31 -5c-9 41 -20 65 -33 85c-15 22 -42 29 -111 29h-71c-32 0 -35 -3 -35 -33v-225h90c89 0 96 8 108 75h30v-193h-30c-13 71 -21 77 -108 77h-90
v-185c0 -47 6 -70 24 -82c19 -12 54 -12 102 -12c72 0 101 8 123 33c18 21 36 55 51 95zM350 710l-13 -26l-190 63l-2 8c4 16 31 56 45 62z" />
    <glyph glyph-name="Eacute" unicode="&#xc9;" horiz-adv-x="570" 
d="M520 164l30 -5c-5 -35 -26 -128 -34 -159h-488v29c90 7 99 15 99 97v395c0 89 -9 93 -85 100v29h450c0 -24 5 -92 9 -145l-31 -5c-9 41 -20 65 -33 85c-15 22 -42 29 -111 29h-71c-32 0 -35 -3 -35 -33v-225h90c89 0 96 8 108 75h30v-193h-30c-13 71 -21 77 -108 77h-90
v-185c0 -47 6 -70 24 -82c19 -12 54 -12 102 -12c72 0 101 8 123 33c18 21 36 55 51 95zM435 755l-2 -8l-189 -63l-13 25l160 106c13 -3 41 -43 44 -60z" />
    <glyph glyph-name="Ecircumflex" unicode="&#xca;" horiz-adv-x="570" 
d="M520 164l30 -5c-5 -35 -26 -128 -34 -159h-488v29c90 7 99 15 99 97v395c0 89 -9 93 -85 100v29h450c0 -24 5 -92 9 -145l-31 -5c-9 41 -20 65 -33 85c-15 22 -42 29 -111 29h-71c-32 0 -35 -3 -35 -33v-225h90c89 0 96 8 108 75h30v-193h-30c-13 71 -21 77 -108 77h-90
v-185c0 -47 6 -70 24 -82c19 -12 54 -12 102 -12c72 0 101 8 123 33c18 21 36 55 51 95zM427 709l-16 -25c-41 17 -82 40 -123 62c-39 -22 -81 -45 -122 -62l-16 25c44 34 89 70 127 110h24c38 -41 83 -76 126 -110z" />
    <glyph glyph-name="Edieresis" unicode="&#xcb;" horiz-adv-x="570" 
d="M520 164l30 -5c-5 -35 -26 -128 -34 -159h-488v29c90 7 99 15 99 97v395c0 89 -9 93 -85 100v29h450c0 -24 5 -92 9 -145l-31 -5c-9 41 -20 65 -33 85c-15 22 -42 29 -111 29h-71c-32 0 -35 -3 -35 -33v-225h90c89 0 96 8 108 75h30v-193h-30c-13 71 -21 77 -108 77h-90
v-185c0 -47 6 -70 24 -82c19 -12 54 -12 102 -12c72 0 101 8 123 33c18 21 36 55 51 95zM388 802h1c28 0 50 -22 50 -52c0 -28 -22 -52 -51 -52c-28 0 -51 24 -51 52c0 30 23 52 51 52zM194 802h1c28 0 50 -23 50 -53c0 -27 -22 -51 -51 -51c-28 0 -51 24 -51 51
c0 30 23 53 51 53z" />
    <glyph glyph-name="Igrave" unicode="&#xcc;" horiz-adv-x="347" 
d="M309 0h-271v29c80 6 89 12 89 97v397c0 85 -9 91 -89 98v29h271v-29c-80 -7 -89 -13 -89 -98v-397c0 -85 9 -91 89 -97v-29zM239 710l-13 -26l-190 63l-2 8c4 16 31 56 45 62z" />
    <glyph glyph-name="Iacute" unicode="&#xcd;" horiz-adv-x="347" 
d="M309 0h-271v29c80 6 89 12 89 97v397c0 85 -9 91 -89 98v29h271v-29c-80 -7 -89 -13 -89 -98v-397c0 -85 9 -91 89 -97v-29zM318 755l-2 -8l-189 -63l-13 25l160 106c13 -3 41 -43 44 -60z" />
    <glyph glyph-name="Icircumflex" unicode="&#xce;" horiz-adv-x="347" 
d="M309 0h-271v29c80 6 89 12 89 97v397c0 85 -9 91 -89 98v29h271v-29c-80 -7 -89 -13 -89 -98v-397c0 -85 9 -91 89 -97v-29zM312 709l-16 -25c-41 17 -82 40 -123 62c-39 -22 -81 -45 -122 -62l-16 25c44 34 89 70 127 110h24c38 -41 83 -76 126 -110z" />
    <glyph glyph-name="Idieresis" unicode="&#xcf;" horiz-adv-x="347" 
d="M309 0h-271v29c80 6 89 12 89 97v397c0 85 -9 91 -89 98v29h271v-29c-80 -7 -89 -13 -89 -98v-397c0 -85 9 -91 89 -97v-29zM271 800h1c28 0 50 -22 50 -52c0 -28 -22 -52 -51 -52c-28 0 -51 24 -51 52c0 30 23 52 51 52zM77 800h1c28 0 50 -23 50 -53
c0 -27 -22 -51 -51 -51c-28 0 -51 24 -51 51c0 30 23 53 51 53z" />
    <glyph glyph-name="Eth" unicode="&#xd0;" horiz-adv-x="741" 
d="M53 650h280c118 0 212 -23 278 -86c50 -48 86 -121 86 -214c0 -120 -48 -209 -125 -267s-174 -83 -293 -83h-234v29c85 6 93 15 93 108v182h-100v43h100v151c0 94 -8 102 -85 108v29zM232 319v-186c0 -67 12 -94 94 -94c176 0 262 132 262 295c0 107 -36 191 -108 239
c-39 27 -96 42 -160 42c-43 0 -67 -5 -76 -11c-9 -5 -12 -16 -12 -44v-198h154v-43h-154z" />
    <glyph glyph-name="Ntilde" unicode="&#xd1;" horiz-adv-x="743" 
d="M720 650v-29c-56 -3 -79 -16 -84 -60c-3 -31 -6 -76 -6 -168v-402h-34l-424 519h-2v-246c0 -91 3 -139 6 -168c5 -49 27 -63 96 -67v-29h-238v29c57 4 82 17 87 65c3 31 7 79 7 170v218c0 71 -2 78 -21 102c-20 25 -41 33 -88 37v29h155l411 -490h3v233
c0 91 -4 137 -7 166c-5 44 -28 58 -99 62v29h238zM324 790h1c18 0 32 -5 62 -19c21 -10 37 -16 55 -16c20 0 34 15 47 43l26 -14c-23 -70 -56 -87 -85 -87c-21 0 -42 9 -69 21c-17 8 -28 14 -46 14s-33 -15 -48 -44l-25 18c25 64 56 84 82 84z" />
    <glyph glyph-name="Ograve" unicode="&#xd2;" horiz-adv-x="750" 
d="M382 664h1c172 0 324 -131 324 -331c0 -216 -152 -348 -336 -348s-328 142 -328 334c0 178 126 345 339 345zM362 628h-1c-108 0 -206 -98 -206 -283c0 -184 98 -323 237 -323c108 0 203 93 203 284c0 209 -104 322 -233 322zM446 718l-13 -26l-190 63l-2 8
c4 16 31 56 45 62z" />
    <glyph glyph-name="Oacute" unicode="&#xd3;" horiz-adv-x="750" 
d="M382 664h1c172 0 324 -131 324 -331c0 -216 -152 -348 -336 -348s-328 142 -328 334c0 178 126 345 339 345zM362 628h-1c-108 0 -206 -98 -206 -283c0 -184 98 -323 237 -323c108 0 203 93 203 284c0 209 -104 322 -233 322zM509 763l-2 -8l-189 -63l-13 25l160 106
c13 -3 41 -43 44 -60z" />
    <glyph glyph-name="Ocircumflex" unicode="&#xd4;" horiz-adv-x="750" 
d="M382 664h1c172 0 324 -131 324 -331c0 -216 -152 -348 -336 -348s-328 142 -328 334c0 178 126 345 339 345zM362 628h-1c-108 0 -206 -98 -206 -283c0 -184 98 -323 237 -323c108 0 203 93 203 284c0 209 -104 322 -233 322zM513 717l-16 -25c-41 17 -82 40 -123 62
c-39 -22 -81 -45 -122 -62l-16 25c44 34 89 70 127 110h24c38 -41 83 -76 126 -110z" />
    <glyph glyph-name="Otilde" unicode="&#xd5;" horiz-adv-x="750" 
d="M382 664h1c172 0 324 -131 324 -331c0 -216 -152 -348 -336 -348s-328 142 -328 334c0 178 126 345 339 345zM362 628h-1c-108 0 -206 -98 -206 -283c0 -184 98 -323 237 -323c108 0 203 93 203 284c0 209 -104 322 -233 322zM324 799h1c18 0 32 -5 62 -19
c21 -10 37 -16 55 -16c20 0 34 15 47 43l26 -14c-23 -70 -56 -87 -85 -87c-21 0 -42 9 -69 21c-17 8 -28 14 -46 14s-33 -15 -48 -44l-25 18c25 64 56 84 82 84z" />
    <glyph glyph-name="Odieresis" unicode="&#xd6;" horiz-adv-x="750" 
d="M382 664h1c172 0 324 -131 324 -331c0 -216 -152 -348 -336 -348s-328 142 -328 334c0 178 126 345 339 345zM362 628h-1c-108 0 -206 -98 -206 -283c0 -184 98 -323 237 -323c108 0 203 93 203 284c0 209 -104 322 -233 322zM472 804h1c28 0 50 -22 50 -52
c0 -28 -22 -52 -51 -52c-28 0 -51 24 -51 52c0 30 23 52 51 52zM278 804h1c28 0 50 -23 50 -53c0 -27 -22 -51 -51 -51c-28 0 -51 24 -51 51c0 30 23 53 51 53z" />
    <glyph glyph-name="multiply" unicode="&#xd7;" horiz-adv-x="579" 
d="M521 50l-39 -40l-192 197l-193 -197l-37 40l190 197l-190 195l37 40l193 -196l192 198l39 -40l-193 -197z" />
    <glyph glyph-name="Oslash" unicode="&#xd8;" horiz-adv-x="753" 
d="M636 674l-49 -75c72 -59 126 -152 126 -264c0 -214 -150 -350 -339 -350c-62 0 -123 18 -172 49l-57 -80l-27 24l53 77c-73 60 -123 153 -123 265c0 175 129 345 343 345c60 0 117 -16 164 -45l51 74zM220 126l296 436c-39 45 -90 66 -147 66c-112 0 -212 -98 -212 -285
c0 -85 25 -164 63 -217zM540 531l-296 -437c36 -47 90 -72 148 -72c141 0 212 122 212 284c0 97 -27 172 -64 225z" />
    <glyph glyph-name="Ugrave" unicode="&#xd9;" horiz-adv-x="735" 
d="M717 650v-29c-59 -5 -82 -19 -87 -59c-3 -28 -6 -70 -6 -158v-87c0 -116 -18 -201 -75 -261c-46 -48 -113 -70 -180 -70c-60 0 -118 14 -163 48c-59 46 -87 121 -87 238v246c0 91 -9 95 -87 103v29h266v-29c-77 -6 -85 -12 -85 -103v-224c0 -160 62 -251 183 -251
c139 0 185 115 185 281v80c0 88 -3 129 -7 160c-6 38 -27 52 -97 57v29h240zM441 710l-13 -26l-190 63l-2 8c4 16 31 56 45 62z" />
    <glyph glyph-name="Uacute" unicode="&#xda;" horiz-adv-x="735" 
d="M717 650v-29c-59 -5 -82 -19 -87 -59c-3 -28 -6 -70 -6 -158v-87c0 -116 -18 -201 -75 -261c-46 -48 -113 -70 -180 -70c-60 0 -118 14 -163 48c-59 46 -87 121 -87 238v246c0 91 -9 95 -87 103v29h266v-29c-77 -6 -85 -12 -85 -103v-224c0 -160 62 -251 183 -251
c139 0 185 115 185 281v80c0 88 -3 129 -7 160c-6 38 -27 52 -97 57v29h240zM523 755l-2 -8l-189 -63l-13 25l160 106c13 -3 41 -43 44 -60z" />
    <glyph glyph-name="Ucircumflex" unicode="&#xdb;" horiz-adv-x="735" 
d="M717 650v-29c-59 -5 -82 -19 -87 -59c-3 -28 -6 -70 -6 -158v-87c0 -116 -18 -201 -75 -261c-46 -48 -113 -70 -180 -70c-60 0 -118 14 -163 48c-59 46 -87 121 -87 238v246c0 91 -9 95 -87 103v29h266v-29c-77 -6 -85 -12 -85 -103v-224c0 -160 62 -251 183 -251
c139 0 185 115 185 281v80c0 88 -3 129 -7 160c-6 38 -27 52 -97 57v29h240zM519 709l-16 -25c-41 17 -82 40 -123 62c-39 -22 -81 -45 -122 -62l-16 25c44 34 89 70 127 110h24c38 -41 83 -76 126 -110z" />
    <glyph glyph-name="Udieresis" unicode="&#xdc;" horiz-adv-x="735" 
d="M717 650v-29c-59 -5 -82 -19 -87 -59c-3 -28 -6 -70 -6 -158v-87c0 -116 -18 -201 -75 -261c-46 -48 -113 -70 -180 -70c-60 0 -118 14 -163 48c-59 46 -87 121 -87 238v246c0 91 -9 95 -87 103v29h266v-29c-77 -6 -85 -12 -85 -103v-224c0 -160 62 -251 183 -251
c139 0 185 115 185 281v80c0 88 -3 129 -7 160c-6 38 -27 52 -97 57v29h240zM475 800h1c28 0 50 -22 50 -52c0 -28 -22 -52 -51 -52c-28 0 -51 24 -51 52c0 30 23 52 51 52zM281 800h1c28 0 50 -23 50 -53c0 -27 -22 -51 -51 -51c-28 0 -51 24 -51 51c0 30 23 53 51 53z" />
    <glyph glyph-name="Yacute" unicode="&#xdd;" horiz-adv-x="638" 
d="M625 650v-29c-68 -8 -81 -20 -119 -80c-44 -71 -77 -126 -125 -215c-13 -26 -16 -38 -16 -64v-135c0 -85 8 -92 99 -98v-29h-290v29c88 6 97 13 97 98v129c0 21 -4 31 -20 59l-125 221c-40 68 -52 79 -111 85v29h248v-29c-71 -10 -68 -21 -50 -55
c41 -78 88 -159 131 -234c35 65 89 162 116 223c22 48 19 57 -58 66v29h223zM477 755l-2 -8l-189 -63l-13 25l160 106c13 -3 41 -43 44 -60z" />
    <glyph glyph-name="Thorn" unicode="&#xde;" horiz-adv-x="557" 
d="M295 650v-29c-72 -7 -79 -11 -79 -115c30 1 59 2 87 2c133 0 216 -51 216 -171c0 -121 -107 -185 -231 -186l-72 17v-43c0 -82 10 -89 94 -96v-29h-272v29c77 6 85 14 85 102v389c0 88 -6 95 -80 101v29h252zM216 433v-228c11 -5 32 -12 64 -12c69 0 135 44 135 141
c0 95 -55 139 -138 139c-26 0 -43 -4 -51 -9c-7 -4 -10 -9 -10 -31z" />
    <glyph glyph-name="germandbls" unicode="&#xdf;" horiz-adv-x="550" 
d="M101 438v12c0 35 5 63 13 86c8 27 26 74 84 122c38 30 79 49 128 53c96 -2 159 -58 161 -152c1 -17 -3 -28 -11 -39c-68 -52 -100 -97 -100 -132c0 -38 33 -65 69 -98c35 -31 78 -73 78 -133c0 -97 -112 -170 -186 -170c-20 0 -40 3 -56 13c-17 11 -22 22 -19 35
c2 8 11 21 19 27c7 5 14 6 21 1c24 -20 51 -30 74 -30c27 0 67 20 67 77c0 42 -26 73 -66 109c-54 47 -83 85 -83 126c0 39 26 69 70 116c23 23 36 35 41 43s7 21 7 33c0 66 -49 130 -117 130c-96 0 -106 -127 -106 -264v-299c0 -61 5 -71 51 -76v-28h-209v28
c63 5 70 15 70 75v290h-69l-4 11l27 34h46z" />
    <glyph glyph-name="agrave" unicode="&#xe0;" horiz-adv-x="444" 
d="M255 504l-28 -14l-119 160l3 9c10 6 66 17 82 14c19 -47 43 -117 62 -169zM439 40l-90 -52c-17 0 -38 9 -49 20c-13 13 -20 27 -24 43c-40 -27 -88 -63 -116 -63c-73 0 -123 61 -123 123c0 50 26 80 80 98c60 21 134 48 156 66v20c0 70 -32 110 -80 110
c-18 0 -33 -7 -43 -19c-12 -14 -21 -36 -29 -67c-5 -18 -16 -25 -32 -25c-19 0 -47 20 -47 44c0 16 13 27 33 42c29 21 96 59 153 70c31 0 62 -9 84 -27c37 -30 47 -71 47 -125v-182c0 -45 17 -59 34 -59c12 0 26 5 36 10zM273 83v157c-21 -11 -62 -30 -84 -40
c-37 -18 -58 -36 -58 -73c0 -52 39 -76 69 -76c24 0 55 15 73 32z" />
    <glyph glyph-name="aacute" unicode="&#xe1;" horiz-adv-x="444" 
d="M206 492l-27 14c18 41 57 142 64 159c9 5 73 13 86 10l4 -10zM439 40l-90 -52c-17 0 -38 9 -49 20c-13 13 -20 27 -24 43c-40 -27 -88 -63 -116 -63c-73 0 -123 61 -123 123c0 50 26 80 80 98c60 21 134 48 156 66v20c0 70 -32 110 -80 110c-18 0 -33 -7 -43 -19
c-12 -14 -21 -36 -29 -67c-5 -18 -16 -25 -32 -25c-19 0 -47 20 -47 44c0 16 13 27 33 42c29 21 96 59 153 70c31 0 62 -9 84 -27c37 -30 47 -71 47 -125v-182c0 -45 17 -59 34 -59c12 0 26 5 36 10zM273 83v157c-21 -11 -62 -30 -84 -40c-37 -18 -58 -36 -58 -73
c0 -52 39 -76 69 -76c24 0 55 15 73 32z" />
    <glyph glyph-name="acircumflex" unicode="&#xe2;" horiz-adv-x="444" 
d="M326 508l-25 -18c-34 30 -63 64 -90 96c-27 -32 -56 -66 -90 -96l-25 18c39 55 71 108 102 165h27c30 -57 62 -110 101 -165zM439 40l-90 -52c-17 0 -38 9 -49 20c-13 13 -20 27 -24 43c-40 -27 -88 -63 -116 -63c-73 0 -123 61 -123 123c0 50 26 80 80 98
c60 21 134 48 156 66v20c0 70 -32 110 -80 110c-18 0 -33 -7 -43 -19c-12 -14 -21 -36 -29 -67c-5 -18 -16 -25 -32 -25c-19 0 -47 20 -47 44c0 16 13 27 33 42c29 21 96 59 153 70c31 0 62 -9 84 -27c37 -30 47 -71 47 -125v-182c0 -45 17 -59 34 -59c12 0 26 5 36 10z
M273 83v157c-21 -11 -62 -30 -84 -40c-37 -18 -58 -36 -58 -73c0 -52 39 -76 69 -76c24 0 55 15 73 32z" />
    <glyph glyph-name="atilde" unicode="&#xe3;" horiz-adv-x="444" 
d="M108 519l-26 17c22 69 54 93 82 93c17 0 30 -5 59 -20c22 -11 38 -19 54 -19c19 0 32 17 45 45l25 -14c-23 -76 -55 -93 -80 -93c-22 0 -42 10 -66 24c-19 10 -32 16 -48 16c-17 0 -31 -15 -45 -49zM439 40l-90 -52c-17 0 -38 9 -49 20c-13 13 -20 27 -24 43
c-40 -27 -88 -63 -116 -63c-73 0 -123 61 -123 123c0 50 26 80 80 98c60 21 134 48 156 66v20c0 70 -32 110 -80 110c-18 0 -33 -7 -43 -19c-12 -14 -21 -36 -29 -67c-5 -18 -16 -25 -32 -25c-19 0 -47 20 -47 44c0 16 13 27 33 42c29 21 96 59 153 70c31 0 62 -9 84 -27
c37 -30 47 -71 47 -125v-182c0 -45 17 -59 34 -59c12 0 26 5 36 10zM273 83v157c-21 -11 -62 -30 -84 -40c-37 -18 -58 -36 -58 -73c0 -52 39 -76 69 -76c24 0 55 15 73 32z" />
    <glyph glyph-name="adieresis" unicode="&#xe4;" horiz-adv-x="444" 
d="M124 535c-27 0 -51 23 -51 51c0 30 24 53 52 53s51 -23 51 -53c0 -28 -23 -51 -52 -51zM299 535c-27 0 -51 23 -51 51c0 30 24 53 52 53s51 -23 51 -53c0 -28 -23 -51 -52 -51zM439 40l-90 -52c-17 0 -38 9 -49 20c-13 13 -20 27 -24 43c-40 -27 -88 -63 -116 -63
c-73 0 -123 61 -123 123c0 50 26 80 80 98c60 21 134 48 156 66v20c0 70 -32 110 -80 110c-18 0 -33 -7 -43 -19c-12 -14 -21 -36 -29 -67c-5 -18 -16 -25 -32 -25c-19 0 -47 20 -47 44c0 16 13 27 33 42c29 21 96 59 153 70c31 0 62 -9 84 -27c37 -30 47 -71 47 -125v-182
c0 -45 17 -59 34 -59c12 0 26 5 36 10zM273 83v157c-21 -11 -62 -30 -84 -40c-37 -18 -58 -36 -58 -73c0 -52 39 -76 69 -76c24 0 55 15 73 32z" />
    <glyph glyph-name="aring" unicode="&#xe5;" horiz-adv-x="444" 
d="M213 499c-45 0 -90 33 -90 87c0 53 45 84 91 84c44 0 89 -31 89 -84c0 -54 -45 -87 -90 -87zM214 531c27 0 44 24 44 55c0 30 -17 52 -45 52c-25 0 -44 -22 -44 -52c0 -31 19 -55 45 -55zM439 40l-90 -52c-17 0 -38 9 -49 20c-13 13 -20 27 -24 43
c-40 -27 -88 -63 -116 -63c-73 0 -123 61 -123 123c0 50 26 80 80 98c60 21 134 48 156 66v20c0 70 -32 110 -80 110c-18 0 -33 -7 -43 -19c-12 -14 -21 -36 -29 -67c-5 -18 -16 -25 -32 -25c-19 0 -47 20 -47 44c0 16 13 27 33 42c29 21 96 59 153 70c31 0 62 -9 84 -27
c37 -30 47 -71 47 -125v-182c0 -45 17 -59 34 -59c12 0 26 5 36 10zM273 83v157c-21 -11 -62 -30 -84 -40c-37 -18 -58 -36 -58 -73c0 -52 39 -76 69 -76c24 0 55 15 73 32z" />
    <glyph glyph-name="ae" unicode="&#xe6;" horiz-adv-x="671" 
d="M282 276v24c0 63 -39 105 -84 105c-21 0 -35 -9 -45 -22c-11 -13 -19 -35 -27 -64c-5 -18 -15 -26 -31 -26c-17 0 -49 21 -49 43c0 16 11 29 32 44c32 22 97 57 154 70c29 0 56 -8 75 -22c18 -12 32 -30 40 -51c39 44 94 73 145 74c87 0 155 -76 155 -154
c1 -23 -4 -31 -23 -35c-15 -4 -142 -13 -262 -17c-1 -129 75 -186 152 -186c37 0 73 14 111 49l17 -22c-59 -80 -134 -98 -165 -98c-73 0 -129 35 -161 88l-35 -27c-38 -29 -90 -61 -119 -61c-76 0 -124 62 -124 121c0 51 25 80 78 100c55 19 135 45 166 67zM469 412h-1
c-44 0 -91 -42 -100 -126c54 1 110 1 165 3c15 0 22 5 22 23c0 51 -32 100 -86 100zM203 54h1c28 0 67 13 97 52c-16 34 -20 86 -20 134c-21 -10 -60 -26 -92 -40c-39 -17 -57 -35 -57 -70c0 -51 36 -76 71 -76z" />
    <glyph glyph-name="ccedilla" unicode="&#xe7;" horiz-adv-x="421" 
d="M393 114l18 -23c-41 -51 -89 -87 -140 -98l-13 -19c-12 -16 -8 -24 8 -41c26 -26 37 -46 37 -67c0 -41 -44 -79 -114 -102l-12 26c40 18 59 41 59 61c1 16 -11 28 -21 38c-25 24 -30 37 -12 61l30 38c-117 5 -197 94 -197 208c0 77 37 147 101 196c60 46 118 58 155 58
c28 0 70 -10 90 -27c12 -9 16 -19 15 -30c-1 -21 -24 -46 -37 -46c-6 0 -11 3 -19 11c-34 30 -66 43 -102 43c-52 0 -113 -44 -114 -157c0 -143 97 -184 148 -184c44 0 75 12 120 54z" />
    <glyph glyph-name="egrave" unicode="&#xe8;" horiz-adv-x="427" 
d="M267 504l-28 -14l-119 160l3 9c10 6 66 17 82 14c19 -47 43 -117 62 -169zM383 109l16 -22c-63 -81 -133 -99 -166 -99c-125 0 -197 100 -197 213c0 70 26 132 67 176c42 46 96 73 147 73h1c85 0 153 -75 152 -154c0 -20 -4 -29 -24 -33c-16 -2 -141 -12 -257 -16
c2 -131 77 -187 147 -187c40 0 78 16 114 49zM228 413h-1c-43 0 -86 -43 -99 -124c53 0 105 1 160 3c17 0 23 5 23 20c1 52 -31 101 -83 101z" />
    <glyph glyph-name="eacute" unicode="&#xe9;" horiz-adv-x="427" 
d="M221 492l-27 14c18 41 57 142 64 159c9 5 73 13 86 10l4 -10zM383 109l16 -22c-63 -81 -133 -99 -166 -99c-125 0 -197 100 -197 213c0 70 26 132 67 176c42 46 96 73 147 73h1c85 0 153 -75 152 -154c0 -20 -4 -29 -24 -33c-16 -2 -141 -12 -257 -16
c2 -131 77 -187 147 -187c40 0 78 16 114 49zM228 413h-1c-43 0 -86 -43 -99 -124c53 0 105 1 160 3c17 0 23 5 23 20c1 52 -31 101 -83 101z" />
    <glyph glyph-name="ecircumflex" unicode="&#xea;" horiz-adv-x="427" 
d="M344 508l-25 -18c-34 30 -63 64 -90 96c-27 -32 -56 -66 -90 -96l-25 18c39 55 71 108 102 165h27c30 -57 62 -110 101 -165zM383 109l16 -22c-63 -81 -133 -99 -166 -99c-125 0 -197 100 -197 213c0 70 26 132 67 176c42 46 96 73 147 73h1c85 0 153 -75 152 -154
c0 -20 -4 -29 -24 -33c-16 -2 -141 -12 -257 -16c2 -131 77 -187 147 -187c40 0 78 16 114 49zM228 413h-1c-43 0 -86 -43 -99 -124c53 0 105 1 160 3c17 0 23 5 23 20c1 52 -31 101 -83 101z" />
    <glyph glyph-name="edieresis" unicode="&#xeb;" horiz-adv-x="427" 
d="M137 535c-27 0 -51 23 -51 51c0 30 24 53 52 53s51 -23 51 -53c0 -28 -23 -51 -52 -51zM312 535c-27 0 -51 23 -51 51c0 30 24 53 52 53s51 -23 51 -53c0 -28 -23 -51 -52 -51zM383 109l16 -22c-63 -81 -133 -99 -166 -99c-125 0 -197 100 -197 213c0 70 26 132 67 176
c42 46 96 73 147 73h1c85 0 153 -75 152 -154c0 -20 -4 -29 -24 -33c-16 -2 -141 -12 -257 -16c2 -131 77 -187 147 -187c40 0 78 16 114 49zM228 413h-1c-43 0 -86 -43 -99 -124c53 0 105 1 160 3c17 0 23 5 23 20c1 52 -31 101 -83 101z" />
    <glyph glyph-name="igrave" unicode="&#xec;" horiz-adv-x="273" 
d="M172 504l-28 -14l-119 160l3 9c10 6 66 17 82 14c19 -47 43 -117 62 -169zM258 0h-226v27c62 6 69 14 69 84v198c0 65 -4 70 -62 79v25c53 8 104 21 150 39v-341c0 -71 6 -77 69 -84v-27z" />
    <glyph glyph-name="iacute" unicode="&#xed;" horiz-adv-x="273" 
d="M128 492l-27 14c18 41 57 142 64 159c9 5 73 13 86 10l4 -10zM258 0h-226v27c62 6 69 14 69 84v198c0 65 -4 70 -62 79v25c53 8 104 21 150 39v-341c0 -71 6 -77 69 -84v-27z" />
    <glyph glyph-name="icircumflex" unicode="&#xee;" horiz-adv-x="273" 
d="M250 508l-25 -18c-34 30 -63 64 -90 96c-27 -32 -56 -66 -90 -96l-25 18c39 55 71 108 102 165h27c30 -57 62 -110 101 -165zM258 0h-226v27c62 6 69 14 69 84v198c0 65 -4 70 -62 79v25c53 8 104 21 150 39v-341c0 -71 6 -77 69 -84v-27z" />
    <glyph glyph-name="idieresis" unicode="&#xef;" horiz-adv-x="273" 
d="M46 535c-27 0 -51 23 -51 51c0 30 24 53 52 53s51 -23 51 -53c0 -28 -23 -51 -52 -51zM221 535c-27 0 -51 23 -51 51c0 30 24 53 52 53s51 -23 51 -53c0 -28 -23 -51 -52 -51zM258 0h-226v27c62 6 69 14 69 84v198c0 65 -4 70 -62 79v25c53 8 104 21 150 39v-341
c0 -71 6 -77 69 -84v-27z" />
    <glyph glyph-name="eth" unicode="&#xf0;" horiz-adv-x="508" 
d="M453 660l-116 -61c88 -91 133 -198 133 -331c0 -195 -108 -280 -221 -280c-133 0 -213 114 -213 222c1 161 126 240 224 240h1c32 0 59 -6 87 -22c-11 53 -37 101 -69 139l-145 -77l-16 32l136 71c-56 52 -120 79 -173 86c-6 8 -2 26 7 31c71 -4 154 -34 220 -85l128 67z
M256 416h-1c-68 0 -116 -69 -117 -178c0 -127 49 -215 128 -215c54 0 106 44 108 211c1 88 -9 122 -29 143c-23 24 -52 39 -89 39z" />
    <glyph glyph-name="ntilde" unicode="&#xf1;" horiz-adv-x="550" 
d="M167 519l-26 17c22 69 54 93 82 93c17 0 30 -5 59 -20c22 -11 38 -19 54 -19c19 0 32 17 45 45l25 -14c-23 -76 -55 -93 -80 -93c-22 0 -42 10 -66 24c-19 10 -32 16 -48 16c-17 0 -31 -15 -45 -49zM528 0h-213v27c56 6 63 13 63 83v167c0 70 -26 111 -87 111
c-37 0 -74 -23 -103 -48v-236c0 -67 6 -71 62 -77v-27h-221v27c66 7 71 12 71 78v207c0 63 -6 66 -59 76v24c50 9 100 22 147 41v-79c20 15 41 30 66 46c29 19 53 30 82 30c80 0 129 -56 129 -153v-193c0 -67 6 -70 63 -77v-27z" />
    <glyph glyph-name="ograve" unicode="&#xf2;" horiz-adv-x="513" 
d="M295 504l-28 -14l-119 160l3 9c10 6 66 17 82 14c19 -47 43 -117 62 -169zM259 450h1c125 0 217 -101 217 -223c0 -162 -117 -239 -219 -239c-141 0 -222 111 -222 221c0 165 128 241 223 241zM247 416h-1c-57 0 -108 -60 -108 -174c0 -126 51 -220 131 -220
c57 0 106 42 106 181c0 121 -45 213 -128 213z" />
    <glyph glyph-name="oacute" unicode="&#xf3;" horiz-adv-x="513" 
d="M248 492l-27 14c18 41 57 142 64 159c9 5 73 13 86 10l4 -10zM259 450h1c125 0 217 -101 217 -223c0 -162 -117 -239 -219 -239c-141 0 -222 111 -222 221c0 165 128 241 223 241zM247 416h-1c-57 0 -108 -60 -108 -174c0 -126 51 -220 131 -220c57 0 106 42 106 181
c0 121 -45 213 -128 213z" />
    <glyph glyph-name="ocircumflex" unicode="&#xf4;" horiz-adv-x="513" 
d="M371 508l-25 -18c-34 30 -63 64 -90 96c-27 -32 -56 -66 -90 -96l-25 18c39 55 71 108 102 165h27c30 -57 62 -110 101 -165zM259 450h1c125 0 217 -101 217 -223c0 -162 -117 -239 -219 -239c-141 0 -222 111 -222 221c0 165 128 241 223 241zM247 416h-1
c-57 0 -108 -60 -108 -174c0 -126 51 -220 131 -220c57 0 106 42 106 181c0 121 -45 213 -128 213z" />
    <glyph glyph-name="otilde" unicode="&#xf5;" horiz-adv-x="513" 
d="M149 519l-26 17c22 69 54 93 82 93c17 0 30 -5 59 -20c22 -11 38 -19 54 -19c19 0 32 17 45 45l25 -14c-23 -76 -55 -93 -80 -93c-22 0 -42 10 -66 24c-19 10 -32 16 -48 16c-17 0 -31 -15 -45 -49zM259 450h1c125 0 217 -101 217 -223c0 -162 -117 -239 -219 -239
c-141 0 -222 111 -222 221c0 165 128 241 223 241zM247 416h-1c-57 0 -108 -60 -108 -174c0 -126 51 -220 131 -220c57 0 106 42 106 181c0 121 -45 213 -128 213z" />
    <glyph glyph-name="odieresis" unicode="&#xf6;" horiz-adv-x="513" 
d="M168 535c-27 0 -51 23 -51 51c0 30 24 53 52 53s51 -23 51 -53c0 -28 -23 -51 -52 -51zM343 535c-27 0 -51 23 -51 51c0 30 24 53 52 53s51 -23 51 -53c0 -28 -23 -51 -52 -51zM259 450h1c125 0 217 -101 217 -223c0 -162 -117 -239 -219 -239c-141 0 -222 111 -222 221
c0 165 128 241 223 241zM247 416h-1c-57 0 -108 -60 -108 -174c0 -126 51 -220 131 -220c57 0 106 42 106 181c0 121 -45 213 -128 213z" />
    <glyph glyph-name="divide" unicode="&#xf7;" horiz-adv-x="579" 
d="M292 353h-1c-25 0 -50 23 -50 52c0 27 25 51 51 51c28 0 52 -24 52 -51c0 -29 -24 -52 -52 -52zM529 228h-478v52h478v-52zM291 155h1c24 0 50 -22 50 -51c0 -27 -26 -51 -51 -51c-29 0 -52 24 -52 51c0 29 23 51 52 51z" />
    <glyph glyph-name="oslash" unicode="&#xf8;" horiz-adv-x="516" 
d="M434 454l-35 -52c52 -41 81 -105 81 -175c0 -158 -115 -239 -220 -239c-43 0 -82 11 -116 30l-38 -54l-26 22l37 52c-52 43 -81 108 -81 172c0 163 130 240 226 240c42 0 76 -10 109 -29l36 52zM161 105l175 265c-19 28 -51 46 -86 46c-61 0 -117 -61 -117 -182
c0 -50 10 -96 28 -129zM356 338l-175 -265c19 -30 49 -51 88 -51c58 0 115 49 115 191c0 46 -9 89 -28 125z" />
    <glyph glyph-name="ugrave" unicode="&#xf9;" horiz-adv-x="535" 
d="M296 504l-28 -14l-119 160l3 9c10 6 66 17 82 14c19 -47 43 -117 62 -169zM522 50v-26c-23 -3 -51 -9 -79 -16c-27 -7 -53 -14 -74 -20l-7 6v69c-22 -17 -42 -33 -69 -49c-29 -17 -52 -26 -79 -26c-70 0 -125 43 -125 148v197c0 52 -8 58 -33 63l-28 6v25c22 1 48 4 76 7
s57 8 76 11c-3 -33 -4 -81 -4 -147v-136c0 -85 42 -109 85 -109c35 0 69 14 101 45v235c0 52 -8 58 -40 63l-35 6v25c28 1 62 4 92 7c29 3 55 8 71 11v-332c0 -51 8 -58 46 -61z" />
    <glyph glyph-name="uacute" unicode="&#xfa;" horiz-adv-x="535" 
d="M255 492l-27 14c18 41 57 142 64 159c9 5 73 13 86 10l4 -10zM522 50v-26c-23 -3 -51 -9 -79 -16c-27 -7 -53 -14 -74 -20l-7 6v69c-22 -17 -42 -33 -69 -49c-29 -17 -52 -26 -79 -26c-70 0 -125 43 -125 148v197c0 52 -8 58 -33 63l-28 6v25c22 1 48 4 76 7s57 8 76 11
c-3 -33 -4 -81 -4 -147v-136c0 -85 42 -109 85 -109c35 0 69 14 101 45v235c0 52 -8 58 -40 63l-35 6v25c28 1 62 4 92 7c29 3 55 8 71 11v-332c0 -51 8 -58 46 -61z" />
    <glyph glyph-name="ucircumflex" unicode="&#xfb;" horiz-adv-x="535" 
d="M379 508l-25 -18c-34 30 -63 64 -90 96c-27 -32 -56 -66 -90 -96l-25 18c39 55 71 108 102 165h27c30 -57 62 -110 101 -165zM522 50v-26c-23 -3 -51 -9 -79 -16c-27 -7 -53 -14 -74 -20l-7 6v69c-22 -17 -42 -33 -69 -49c-29 -17 -52 -26 -79 -26
c-70 0 -125 43 -125 148v197c0 52 -8 58 -33 63l-28 6v25c22 1 48 4 76 7s57 8 76 11c-3 -33 -4 -81 -4 -147v-136c0 -85 42 -109 85 -109c35 0 69 14 101 45v235c0 52 -8 58 -40 63l-35 6v25c28 1 62 4 92 7c29 3 55 8 71 11v-332c0 -51 8 -58 46 -61z" />
    <glyph glyph-name="udieresis" unicode="&#xfc;" horiz-adv-x="535" 
d="M172 535c-27 0 -51 23 -51 51c0 30 24 53 52 53s51 -23 51 -53c0 -28 -23 -51 -52 -51zM347 535c-27 0 -51 23 -51 51c0 30 24 53 52 53s51 -23 51 -53c0 -28 -23 -51 -52 -51zM522 50v-26c-23 -3 -51 -9 -79 -16c-27 -7 -53 -14 -74 -20l-7 6v69
c-22 -17 -42 -33 -69 -49c-29 -17 -52 -26 -79 -26c-70 0 -125 43 -125 148v197c0 52 -8 58 -33 63l-28 6v25c22 1 48 4 76 7s57 8 76 11c-3 -33 -4 -81 -4 -147v-136c0 -85 42 -109 85 -109c35 0 69 14 101 45v235c0 52 -8 58 -40 63l-35 6v25c28 1 62 4 92 7
c29 3 55 8 71 11v-332c0 -51 8 -58 46 -61z" />
    <glyph glyph-name="yacute" unicode="&#xfd;" horiz-adv-x="460" 
d="M246 492l-27 14c18 41 57 142 64 159c9 5 73 13 86 10l4 -10zM479 438v-26c-52 -9 -61 -17 -88 -73c-25 -53 -56 -136 -124 -297c-66 -160 -88 -218 -103 -272c-6 -20 -18 -25 -33 -25c-28 0 -59 25 -59 51c0 16 9 25 26 37c33 19 53 43 76 85c17 32 24 51 29 64
c5 15 4 29 -2 46c-43 119 -89 244 -117 311c-21 52 -31 65 -84 73v26h211v-26c-46 -8 -52 -18 -39 -54l89 -246c27 67 68 181 88 243c12 37 5 48 -51 57v26h181z" />
    <glyph glyph-name="thorn" unicode="&#xfe;" horiz-adv-x="519" 
d="M164 710v-323c37 20 71 38 106 55c11 5 23 8 37 8c113 0 175 -99 175 -190c1 -149 -115 -247 -249 -272c-32 1 -56 11 -69 19v-134c0 -71 9 -78 89 -84v-27h-248v27c61 6 71 11 71 81v705c0 66 -3 71 -69 77v25c51 5 111 18 157 33zM164 353v-274c20 -21 59 -40 94 -40
c65 0 132 51 132 178c0 117 -62 171 -134 171c-32 0 -64 -16 -92 -35z" />
    <glyph glyph-name="ydieresis" unicode="&#xff;" horiz-adv-x="460" 
d="M153 535c-27 0 -51 23 -51 51c0 30 24 53 52 53s51 -23 51 -53c0 -28 -23 -51 -52 -51zM328 535c-27 0 -51 23 -51 51c0 30 24 53 52 53s51 -23 51 -53c0 -28 -23 -51 -52 -51zM479 438v-26c-52 -9 -61 -17 -88 -73c-25 -53 -56 -136 -124 -297
c-66 -160 -88 -218 -103 -272c-6 -20 -18 -25 -33 -25c-28 0 -59 25 -59 51c0 16 9 25 26 37c33 19 53 43 76 85c17 32 24 51 29 64c5 15 4 29 -2 46c-43 119 -89 244 -117 311c-21 52 -31 65 -84 73v26h211v-26c-46 -8 -52 -18 -39 -54l89 -246c27 67 68 181 88 243
c12 37 5 48 -51 57v26h181z" />
    <glyph glyph-name="Amacron" unicode="&#x100;" horiz-adv-x="694" 
d="M676 0h-253v29c62 8 70 17 57 57c-12 38 -31 89 -52 147h-210c-15 -43 -29 -84 -42 -125c-20 -61 -13 -71 62 -79v-29h-219v29c65 9 78 16 113 104l206 522l35 10l193 -533c31 -86 45 -96 110 -103v-29zM413 277l-85 248h-3l-91 -248h179zM471 715h-228v55h228v-55z" />
    <glyph glyph-name="amacron" unicode="&#x101;" horiz-adv-x="444" 
d="M321 547h-225v58h225v-58zM439 40l-90 -52c-17 0 -38 9 -49 20c-13 13 -20 27 -24 43c-40 -27 -88 -63 -116 -63c-73 0 -123 61 -123 123c0 50 26 80 80 98c60 21 134 48 156 66v20c0 70 -32 110 -80 110c-18 0 -33 -7 -43 -19c-12 -14 -21 -36 -29 -67
c-5 -18 -16 -25 -32 -25c-19 0 -47 20 -47 44c0 16 13 27 33 42c29 21 96 59 153 70c31 0 62 -9 84 -27c37 -30 47 -71 47 -125v-182c0 -45 17 -59 34 -59c12 0 26 5 36 10zM273 83v157c-21 -11 -62 -30 -84 -40c-37 -18 -58 -36 -58 -73c0 -52 39 -76 69 -76
c24 0 55 15 73 32z" />
    <glyph glyph-name="Abreve" unicode="&#x102;" horiz-adv-x="694" 
d="M676 0h-253v29c62 8 70 17 57 57c-12 38 -31 89 -52 147h-210c-15 -43 -29 -84 -42 -125c-20 -61 -13 -71 62 -79v-29h-219v29c65 9 78 16 113 104l206 522l35 10l193 -533c31 -86 45 -96 110 -103v-29zM413 277l-85 248h-3l-91 -248h179zM445 816h30
c-1 -84 -49 -122 -119 -122s-117 38 -118 122h30c8 -36 35 -62 88 -62s80 25 89 62z" />
    <glyph glyph-name="abreve" unicode="&#x103;" horiz-adv-x="444" 
d="M292 650h30c0 -107 -53 -140 -114 -140c-60 0 -112 33 -112 140h31c7 -51 37 -79 82 -79s75 28 83 79zM439 40l-90 -52c-17 0 -38 9 -49 20c-13 13 -20 27 -24 43c-40 -27 -88 -63 -116 -63c-73 0 -123 61 -123 123c0 50 26 80 80 98c60 21 134 48 156 66v20
c0 70 -32 110 -80 110c-18 0 -33 -7 -43 -19c-12 -14 -21 -36 -29 -67c-5 -18 -16 -25 -32 -25c-19 0 -47 20 -47 44c0 16 13 27 33 42c29 21 96 59 153 70c31 0 62 -9 84 -27c37 -30 47 -71 47 -125v-182c0 -45 17 -59 34 -59c12 0 26 5 36 10zM273 83v157
c-21 -11 -62 -30 -84 -40c-37 -18 -58 -36 -58 -73c0 -52 39 -76 69 -76c24 0 55 15 73 32z" />
    <glyph glyph-name="Aogonek" unicode="&#x104;" horiz-adv-x="694" 
d="M676 0h-176c-29 -24 -61 -83 -61 -122c0 -36 24 -55 57 -55c14 0 32 5 45 11l8 -26l-59 -34c-9 -6 -25 -10 -33 -10c-66 0 -89 42 -89 84c0 68 66 136 112 182c10 9 12 18 6 34c-10 34 -43 124 -59 169h-208c-15 -43 -30 -84 -43 -124c-21 -63 -14 -73 62 -81v-28h-219
v28c63 9 78 17 113 105l206 522c12 3 23 7 35 10l192 -532c33 -86 47 -99 111 -106v-27zM413 277l-85 247h-2l-92 -247h179z" />
    <glyph glyph-name="aogonek" unicode="&#x105;" horiz-adv-x="444" 
d="M429 67l10 -26l-50 -30c-47 -29 -103 -89 -103 -140c0 -32 22 -46 52 -46c13 0 29 4 43 10l8 -26l-53 -31c-11 -7 -27 -12 -37 -12c-55 0 -84 30 -84 77c0 52 45 104 106 153c-15 8 -38 27 -45 55c-40 -27 -88 -63 -116 -63c-74 0 -123 61 -123 123c0 50 26 79 80 98
c60 21 134 47 157 66v20c0 71 -31 111 -79 111c-18 0 -33 -8 -44 -20c-12 -14 -20 -36 -29 -67c-5 -18 -16 -25 -32 -25c-19 0 -46 21 -46 45c0 15 12 27 32 41c29 21 97 58 153 70c32 0 61 -9 84 -27c37 -30 46 -71 46 -123v-184c0 -45 18 -59 35 -59c12 0 26 4 35 10z
M274 84v157c-21 -11 -63 -31 -84 -41c-37 -17 -58 -36 -58 -73c0 -52 39 -76 69 -76c24 0 54 15 73 33z" />
    <glyph glyph-name="Cacute" unicode="&#x106;" horiz-adv-x="667" 
d="M616 177l30 -11c-14 -46 -39 -121 -57 -154c-28 -7 -113 -27 -184 -27c-252 0 -362 173 -362 331c0 210 161 349 388 349c81 0 150 -22 177 -27c8 -56 15 -98 21 -153l-31 -7c-27 108 -90 149 -193 149c-163 0 -250 -140 -250 -291c0 -186 107 -313 257 -313
c99 0 153 55 204 154zM519 770l-2 -8l-189 -63l-13 25l160 106c13 -3 41 -43 44 -60z" />
    <glyph glyph-name="cacute" unicode="&#x107;" horiz-adv-x="423" 
d="M231 492l-27 14c18 41 57 142 64 159c9 5 73 13 86 10l4 -10zM392 113l18 -22c-45 -59 -111 -103 -170 -103c-129 0 -204 102 -204 210c0 76 35 144 101 194c54 42 115 58 153 58h1c40 0 73 -13 88 -26c14 -11 17 -20 17 -31c0 -23 -23 -46 -35 -46c-6 0 -11 3 -19 11
c-33 30 -67 43 -101 43c-61 0 -116 -52 -116 -157c0 -138 95 -184 149 -184c42 0 74 12 118 53z" />
    <glyph glyph-name="Ccircumflex" unicode="&#x108;" horiz-adv-x="667" 
d="M616 177l30 -11c-14 -46 -39 -121 -57 -154c-28 -7 -113 -27 -184 -27c-252 0 -362 173 -362 331c0 210 161 349 388 349c81 0 150 -22 177 -27c8 -56 15 -98 21 -153l-31 -7c-27 108 -90 149 -193 149c-163 0 -250 -140 -250 -291c0 -186 107 -313 257 -313
c99 0 153 55 204 154zM537 722l-16 -25c-41 17 -82 40 -123 62c-39 -22 -81 -45 -122 -62l-16 25c44 34 89 70 127 110h24c38 -41 83 -76 126 -110z" />
    <glyph glyph-name="ccircumflex" unicode="&#x109;" horiz-adv-x="423" 
d="M359 508l-25 -18c-34 30 -63 64 -90 96c-27 -32 -56 -66 -90 -96l-25 18c39 55 71 108 102 165h27c30 -57 62 -110 101 -165zM392 113l18 -22c-45 -59 -111 -103 -170 -103c-129 0 -204 102 -204 210c0 76 35 144 101 194c54 42 115 58 153 58h1c40 0 73 -13 88 -26
c14 -11 17 -20 17 -31c0 -23 -23 -46 -35 -46c-6 0 -11 3 -19 11c-33 30 -67 43 -101 43c-61 0 -116 -52 -116 -157c0 -138 95 -184 149 -184c42 0 74 12 118 53z" />
    <glyph glyph-name="Cdotaccent" unicode="&#x10a;" horiz-adv-x="667" 
d="M616 177l30 -11c-14 -46 -39 -121 -57 -154c-28 -7 -113 -27 -184 -27c-252 0 -362 173 -362 331c0 210 161 349 388 349c81 0 150 -22 177 -27c8 -56 15 -98 21 -153l-31 -7c-27 108 -90 149 -193 149c-163 0 -250 -140 -250 -291c0 -186 107 -313 257 -313
c99 0 153 55 204 154zM402 817h1c30 0 54 -24 54 -56c0 -30 -24 -54 -55 -54c-30 0 -55 24 -55 54c0 32 25 56 55 56z" />
    <glyph glyph-name="cdotaccent" unicode="&#x10b;" horiz-adv-x="423" 
d="M243 534c-29 0 -54 25 -54 54c0 32 25 56 55 56s53 -24 53 -56c0 -29 -23 -54 -54 -54zM392 113l18 -22c-45 -59 -111 -103 -170 -103c-129 0 -204 102 -204 210c0 76 35 144 101 194c54 42 115 58 153 58h1c40 0 73 -13 88 -26c14 -11 17 -20 17 -31
c0 -23 -23 -46 -35 -46c-6 0 -11 3 -19 11c-33 30 -67 43 -101 43c-61 0 -116 -52 -116 -157c0 -138 95 -184 149 -184c42 0 74 12 118 53z" />
    <glyph glyph-name="Ccaron" unicode="&#x10c;" horiz-adv-x="667" 
d="M616 177l30 -11c-14 -46 -39 -121 -57 -154c-28 -7 -113 -27 -184 -27c-252 0 -362 173 -362 331c0 210 161 349 388 349c81 0 150 -22 177 -27c8 -56 15 -98 21 -153l-31 -7c-27 108 -90 149 -193 149c-163 0 -250 -140 -250 -291c0 -186 107 -313 257 -313
c99 0 153 55 204 154zM522 837l15 -25c-43 -33 -87 -69 -127 -111h-23c-39 42 -84 77 -127 111l16 25c41 -17 83 -37 123 -61c40 23 82 44 123 61z" />
    <glyph glyph-name="ccaron" unicode="&#x10d;" horiz-adv-x="423" 
d="M339 677l25 -18c-40 -55 -71 -108 -102 -164h-27c-31 57 -62 109 -101 164l25 18c34 -31 63 -63 90 -95c27 31 55 64 90 95zM392 113l18 -22c-45 -59 -111 -103 -170 -103c-129 0 -204 102 -204 210c0 76 35 144 101 194c54 42 115 58 153 58h1c40 0 73 -13 88 -26
c14 -11 17 -20 17 -31c0 -23 -23 -46 -35 -46c-6 0 -11 3 -19 11c-33 30 -67 43 -101 43c-61 0 -116 -52 -116 -157c0 -138 95 -184 149 -184c42 0 74 12 118 53z" />
    <glyph glyph-name="Dcaron" unicode="&#x10e;" horiz-adv-x="739" 
d="M42 650h284c127 0 221 -26 284 -86c49 -47 85 -120 85 -214c0 -120 -47 -209 -123 -267c-75 -57 -176 -83 -299 -83h-240v29c85 6 93 12 93 97v398c0 85 -8 90 -84 96v30zM220 545v-412c0 -75 30 -95 102 -95c178 0 266 133 266 297c0 102 -37 189 -111 235
c-44 31 -101 45 -168 45c-42 0 -66 -6 -76 -13c-9 -7 -13 -19 -13 -57zM469 822l15 -25c-43 -33 -87 -69 -127 -111h-23c-39 42 -84 77 -127 111l16 25c41 -17 83 -37 123 -61c40 23 82 44 123 61z" />
    <glyph glyph-name="dcaron" unicode="&#x10f;" horiz-adv-x="531" 
d="M522 52v-26c-23 -4 -101 -17 -163 -38v64l-61 -37c-37 -22 -61 -27 -73 -27c-81 0 -188 73 -188 214c0 138 120 248 260 248c13 0 39 -2 62 -10v138c0 63 -6 66 -75 72v25c54 7 123 22 163 35v-593c0 -53 6 -58 44 -62zM359 84v277c-23 34 -62 51 -97 51
c-43 0 -126 -37 -126 -183c0 -120 73 -176 134 -176c33 0 65 14 89 31zM536 711h1c33 0 63 -34 63 -82c0 -60 -41 -93 -90 -108l-10 27c32 17 46 35 46 59c0 23 -13 34 -33 41c-6 2 -13 10 -13 25c0 24 18 38 36 38z" />
    <glyph glyph-name="Dcroat" unicode="&#x110;" horiz-adv-x="741" 
d="M53 650h280c118 0 212 -23 278 -86c50 -48 86 -121 86 -214c0 -120 -48 -209 -125 -267s-174 -83 -293 -83h-234v29c85 6 93 15 93 108v182h-100v43h100v151c0 94 -8 102 -85 108v29zM232 319v-186c0 -67 12 -94 94 -94c176 0 262 132 262 295c0 107 -36 191 -108 239
c-39 27 -96 42 -160 42c-43 0 -67 -5 -76 -11c-9 -5 -12 -16 -12 -44v-198h154v-43h-154z" />
    <glyph glyph-name="dcroat" unicode="&#x111;" horiz-adv-x="530" 
d="M522 52v-26c-22 -4 -102 -17 -163 -38v64l-63 -37c-37 -21 -59 -27 -71 -27c-81 0 -189 73 -189 215c0 135 119 247 260 247c13 0 40 -3 63 -10v92h-134v38h133v21c-1 53 -6 55 -71 62v25c54 7 120 22 159 34v-142h77v-38h-77v-413c0 -55 7 -60 45 -64zM359 84v277
c-24 35 -64 52 -97 52c-37 0 -126 -35 -126 -184c0 -122 74 -177 135 -177c31 0 64 16 88 32z" />
    <glyph glyph-name="Emacron" unicode="&#x112;" horiz-adv-x="570" 
d="M520 164l30 -5c-5 -35 -26 -128 -34 -159h-488v29c90 7 99 15 99 97v395c0 89 -9 93 -85 100v29h450c0 -24 5 -92 9 -145l-31 -5c-9 41 -20 65 -33 85c-15 22 -42 29 -111 29h-71c-32 0 -35 -3 -35 -33v-225h90c89 0 96 8 108 75h30v-193h-30c-13 71 -21 77 -108 77h-90
v-185c0 -47 6 -70 24 -82c19 -12 54 -12 102 -12c72 0 101 8 123 33c18 21 36 55 51 95zM415 715h-228v55h228v-55z" />
    <glyph glyph-name="emacron" unicode="&#x113;" horiz-adv-x="427" 
d="M343 547h-225v58h225v-58zM383 109l16 -22c-63 -81 -133 -99 -166 -99c-125 0 -197 100 -197 213c0 70 26 132 67 176c42 46 96 73 147 73h1c85 0 153 -75 152 -154c0 -20 -4 -29 -24 -33c-16 -2 -141 -12 -257 -16c2 -131 77 -187 147 -187c40 0 78 16 114 49zM228 413
h-1c-43 0 -86 -43 -99 -124c53 0 105 1 160 3c17 0 23 5 23 20c1 52 -31 101 -83 101z" />
    <glyph glyph-name="Ebreve" unicode="&#x114;" horiz-adv-x="570" 
d="M520 164l30 -5c-5 -35 -26 -128 -34 -159h-488v29c90 7 99 15 99 97v395c0 89 -9 93 -85 100v29h450c0 -24 5 -92 9 -145l-31 -5c-9 41 -20 65 -33 85c-15 22 -42 29 -111 29h-71c-32 0 -35 -3 -35 -33v-225h90c89 0 96 8 108 75h30v-193h-30c-13 71 -21 77 -108 77h-90
v-185c0 -47 6 -70 24 -82c19 -12 54 -12 102 -12c72 0 101 8 123 33c18 21 36 55 51 95zM389 817h30c-1 -84 -49 -122 -119 -122s-117 38 -118 122h30c8 -36 35 -62 88 -62s80 25 89 62z" />
    <glyph glyph-name="ebreve" unicode="&#x115;" horiz-adv-x="427" 
d="M316 650h30c0 -107 -53 -140 -114 -140c-60 0 -112 33 -112 140h31c7 -51 37 -79 82 -79s75 28 83 79zM383 109l16 -22c-63 -81 -133 -99 -166 -99c-125 0 -197 100 -197 213c0 70 26 132 67 176c42 46 96 73 147 73h1c85 0 153 -75 152 -154c0 -20 -4 -29 -24 -33
c-16 -2 -141 -12 -257 -16c2 -131 77 -187 147 -187c40 0 78 16 114 49zM228 413h-1c-43 0 -86 -43 -99 -124c53 0 105 1 160 3c17 0 23 5 23 20c1 52 -31 101 -83 101z" />
    <glyph glyph-name="Edotaccent" unicode="&#x116;" horiz-adv-x="570" 
d="M520 164l30 -5c-5 -35 -26 -128 -34 -159h-488v29c90 7 99 15 99 97v395c0 89 -9 93 -85 100v29h450c0 -24 5 -92 9 -145l-31 -5c-9 41 -20 65 -33 85c-15 22 -42 29 -111 29h-71c-32 0 -35 -3 -35 -33v-225h90c89 0 96 8 108 75h30v-193h-30c-13 71 -21 77 -108 77h-90
v-185c0 -47 6 -70 24 -82c19 -12 54 -12 102 -12c72 0 101 8 123 33c18 21 36 55 51 95zM300 813h1c30 0 54 -24 54 -56c0 -30 -24 -54 -55 -54c-30 0 -55 24 -55 54c0 32 25 56 55 56z" />
    <glyph glyph-name="edotaccent" unicode="&#x117;" horiz-adv-x="427" 
d="M229 534c-29 0 -54 25 -54 54c0 32 25 56 55 56s53 -24 53 -56c0 -29 -23 -54 -54 -54zM383 109l16 -22c-63 -81 -133 -99 -166 -99c-125 0 -197 100 -197 213c0 70 26 132 67 176c42 46 96 73 147 73h1c85 0 153 -75 152 -154c0 -20 -4 -29 -24 -33
c-16 -2 -141 -12 -257 -16c2 -131 77 -187 147 -187c40 0 78 16 114 49zM228 413h-1c-43 0 -86 -43 -99 -124c53 0 105 1 160 3c17 0 23 5 23 20c1 52 -31 101 -83 101z" />
    <glyph glyph-name="Eogonek" unicode="&#x118;" horiz-adv-x="570" 
d="M521 165l29 -6c-5 -35 -26 -128 -34 -159h-40c-48 -41 -80 -95 -80 -133c0 -32 24 -44 50 -44c13 0 29 3 47 11l8 -27l-53 -32c-10 -6 -30 -12 -39 -12c-60 0 -84 34 -84 75c0 53 52 116 110 162h-407v29c90 7 99 14 99 100v389c0 90 -9 96 -85 103v29h449
c0 -24 5 -91 10 -144l-31 -5c-10 42 -19 66 -37 86c-17 20 -42 26 -111 26h-67c-31 0 -35 -2 -35 -32v-222h91c91 0 95 6 107 72h30v-189h-30c-13 70 -18 75 -106 75h-92v-186c0 -47 7 -71 25 -83c19 -12 53 -12 101 -12c70 0 101 9 124 35c17 20 35 56 51 94z" />
    <glyph glyph-name="eogonek" unicode="&#x119;" horiz-adv-x="426" 
d="M267 -7l-1 2c-10 -3 -23 -7 -34 -7c-124 0 -197 100 -197 213c0 69 24 130 66 174c44 49 99 75 148 75h1c85 0 154 -75 154 -154c0 -20 -5 -29 -24 -33c-17 -3 -142 -12 -258 -16c2 -132 76 -187 146 -187c41 0 77 14 114 49l17 -21c-20 -23 -37 -41 -54 -54
c-51 -44 -110 -115 -110 -165c0 -29 21 -44 47 -44c13 0 34 5 51 13l8 -25l-57 -35c-8 -6 -28 -12 -37 -12c-58 0 -83 38 -83 73c0 52 47 109 103 154zM227 413h-1c-43 0 -88 -45 -99 -124c53 0 107 2 161 2c17 1 23 5 23 19c1 53 -32 103 -84 103z" />
    <glyph glyph-name="Ecaron" unicode="&#x11a;" horiz-adv-x="570" 
d="M520 164l30 -5c-5 -35 -26 -128 -34 -159h-488v29c90 7 99 15 99 97v395c0 89 -9 93 -85 100v29h450c0 -24 5 -92 9 -145l-31 -5c-9 41 -20 65 -33 85c-15 22 -42 29 -111 29h-71c-32 0 -35 -3 -35 -33v-225h90c89 0 96 8 108 75h30v-193h-30c-13 71 -21 77 -108 77h-90
v-185c0 -47 6 -70 24 -82c19 -12 54 -12 102 -12c72 0 101 8 123 33c18 21 36 55 51 95zM420 823l15 -25c-43 -33 -87 -69 -127 -111h-23c-39 42 -84 77 -127 111l16 25c41 -17 83 -37 123 -61c40 23 82 44 123 61z" />
    <glyph glyph-name="ecaron" unicode="&#x11b;" horiz-adv-x="427" 
d="M321 677l25 -18c-40 -55 -71 -108 -102 -164h-27c-31 57 -62 109 -101 164l25 18c34 -31 63 -63 90 -95c27 31 55 64 90 95zM383 109l16 -22c-63 -81 -133 -99 -166 -99c-125 0 -197 100 -197 213c0 70 26 132 67 176c42 46 96 73 147 73h1c85 0 153 -75 152 -154
c0 -20 -4 -29 -24 -33c-16 -2 -141 -12 -257 -16c2 -131 77 -187 147 -187c40 0 78 16 114 49zM228 413h-1c-43 0 -86 -43 -99 -124c53 0 105 1 160 3c17 0 23 5 23 20c1 52 -31 101 -83 101z" />
    <glyph glyph-name="Gcircumflex" unicode="&#x11c;" horiz-adv-x="717" 
d="M694 303v-29c-58 -9 -63 -14 -63 -74v-84c0 -35 1 -67 7 -94c-61 -15 -145 -37 -224 -37c-223 0 -370 136 -370 335c0 231 186 345 384 345c84 0 160 -22 193 -29c3 -34 8 -89 16 -158l-30 -6c-24 120 -99 156 -195 156c-146 0 -257 -112 -257 -295
c0 -146 83 -312 271 -312c31 0 61 6 81 17c19 10 30 24 30 63v87c0 72 -6 78 -105 86v29h262zM542 716l-16 -25c-41 17 -82 40 -123 62c-39 -22 -81 -45 -122 -62l-16 25c44 34 89 70 127 110h24c38 -41 83 -76 126 -110z" />
    <glyph glyph-name="gcircumflex" unicode="&#x11d;" horiz-adv-x="472" 
d="M342 508l-25 -18c-34 30 -63 64 -90 96c-27 -32 -56 -66 -90 -96l-25 18c39 55 71 108 102 165h27c30 -57 62 -110 101 -165zM468 438l5 -8c-8 -16 -28 -43 -44 -52l-57 3c18 -21 29 -52 29 -87c0 -107 -91 -159 -178 -159c-17 0 -35 2 -51 5c-12 -9 -26 -26 -26 -39
c0 -19 17 -39 62 -39c36 0 70 2 104 2c62 0 145 -20 145 -119c0 -104 -120 -200 -253 -200c-114 0 -174 65 -175 123c-1 22 9 40 25 55c21 20 57 48 81 67c-36 11 -61 33 -74 55c-9 14 -13 33 -12 44c43 15 75 42 91 61c-48 20 -89 67 -89 134c0 114 102 166 181 166h1
c34 0 66 -9 97 -26c50 3 101 9 138 14zM223 419h-1c-40 0 -78 -42 -78 -119c0 -76 36 -132 90 -132c43 1 78 40 78 118c0 76 -34 133 -89 133zM242 -13h-1c-47 0 -69 -6 -87 -21c-23 -21 -41 -46 -41 -73c0 -54 56 -96 131 -96c92 0 140 47 140 108c0 34 -18 59 -47 70
c-26 10 -53 12 -95 12z" />
    <glyph glyph-name="Gbreve" unicode="&#x11e;" horiz-adv-x="717" 
d="M694 303v-29c-58 -9 -63 -14 -63 -74v-84c0 -35 1 -67 7 -94c-61 -15 -145 -37 -224 -37c-223 0 -370 136 -370 335c0 231 186 345 384 345c84 0 160 -22 193 -29c3 -34 8 -89 16 -158l-30 -6c-24 120 -99 156 -195 156c-146 0 -257 -112 -257 -295
c0 -146 83 -312 271 -312c31 0 61 6 81 17c19 10 30 24 30 63v87c0 72 -6 78 -105 86v29h262zM482 825h30c-1 -84 -49 -122 -119 -122s-117 38 -118 122h30c8 -36 35 -62 88 -62s80 25 89 62z" />
    <glyph glyph-name="gbreve" unicode="&#x11f;" horiz-adv-x="472" 
d="M310 650h30c0 -107 -53 -140 -114 -140c-60 0 -112 33 -112 140h31c7 -51 37 -79 82 -79s75 28 83 79zM468 438l5 -8c-8 -16 -28 -43 -44 -52l-57 3c18 -21 29 -52 29 -87c0 -107 -91 -159 -178 -159c-17 0 -35 2 -51 5c-12 -9 -26 -26 -26 -39c0 -19 17 -39 62 -39
c36 0 70 2 104 2c62 0 145 -20 145 -119c0 -104 -120 -200 -253 -200c-114 0 -174 65 -175 123c-1 22 9 40 25 55c21 20 57 48 81 67c-36 11 -61 33 -74 55c-9 14 -13 33 -12 44c43 15 75 42 91 61c-48 20 -89 67 -89 134c0 114 102 166 181 166h1c34 0 66 -9 97 -26
c50 3 101 9 138 14zM223 419h-1c-40 0 -78 -42 -78 -119c0 -76 36 -132 90 -132c43 1 78 40 78 118c0 76 -34 133 -89 133zM242 -13h-1c-47 0 -69 -6 -87 -21c-23 -21 -41 -46 -41 -73c0 -54 56 -96 131 -96c92 0 140 47 140 108c0 34 -18 59 -47 70c-26 10 -53 12 -95 12z
" />
    <glyph glyph-name="Gdotaccent" unicode="&#x120;" horiz-adv-x="717" 
d="M694 303v-29c-58 -9 -63 -14 -63 -74v-84c0 -35 1 -67 7 -94c-61 -15 -145 -37 -224 -37c-223 0 -370 136 -370 335c0 231 186 345 384 345c84 0 160 -22 193 -29c3 -34 8 -89 16 -158l-30 -6c-24 120 -99 156 -195 156c-146 0 -257 -112 -257 -295
c0 -146 83 -312 271 -312c31 0 61 6 81 17c19 10 30 24 30 63v87c0 72 -6 78 -105 86v29h262zM403 815h1c30 0 54 -24 54 -56c0 -30 -24 -54 -55 -54c-30 0 -55 24 -55 54c0 32 25 56 55 56z" />
    <glyph glyph-name="gdotaccent" unicode="&#x121;" horiz-adv-x="472" 
d="M226 534c-29 0 -54 25 -54 54c0 32 25 56 55 56s53 -24 53 -56c0 -29 -23 -54 -54 -54zM468 438l5 -8c-8 -16 -28 -43 -44 -52l-57 3c18 -21 29 -52 29 -87c0 -107 -91 -159 -178 -159c-17 0 -35 2 -51 5c-12 -9 -26 -26 -26 -39c0 -19 17 -39 62 -39c36 0 70 2 104 2
c62 0 145 -20 145 -119c0 -104 -120 -200 -253 -200c-114 0 -174 65 -175 123c-1 22 9 40 25 55c21 20 57 48 81 67c-36 11 -61 33 -74 55c-9 14 -13 33 -12 44c43 15 75 42 91 61c-48 20 -89 67 -89 134c0 114 102 166 181 166h1c34 0 66 -9 97 -26c50 3 101 9 138 14z
M223 419h-1c-40 0 -78 -42 -78 -119c0 -76 36 -132 90 -132c43 1 78 40 78 118c0 76 -34 133 -89 133zM242 -13h-1c-47 0 -69 -6 -87 -21c-23 -21 -41 -46 -41 -73c0 -54 56 -96 131 -96c92 0 140 47 140 108c0 34 -18 59 -47 70c-26 10 -53 12 -95 12z" />
    <glyph glyph-name="Gcommaaccent" unicode="&#x122;" horiz-adv-x="717" 
d="M694 303v-29c-58 -9 -63 -14 -63 -74v-84c0 -35 1 -67 7 -94c-61 -15 -145 -37 -224 -37c-223 0 -370 136 -370 335c0 231 186 345 384 345c84 0 160 -22 193 -29c3 -34 8 -89 16 -158l-30 -6c-24 120 -99 156 -195 156c-146 0 -257 -112 -257 -295
c0 -146 83 -312 271 -312c31 0 61 6 81 17c19 10 30 24 30 63v87c0 72 -6 78 -105 86v29h262zM395 -47h1c38 0 75 -33 75 -82c0 -61 -50 -93 -109 -108l-10 27c39 17 61 34 61 59c0 22 -20 35 -46 42c-7 2 -15 9 -15 24c0 25 22 38 43 38z" />
    <glyph glyph-name="gcommaaccent" unicode="&#x123;" horiz-adv-x="472" 
d="M468 438l5 -8c-8 -16 -28 -43 -44 -52l-57 3c18 -21 29 -52 29 -87c0 -107 -91 -159 -178 -159c-17 0 -35 2 -51 5c-12 -9 -26 -26 -26 -39c0 -19 17 -39 62 -39c36 0 70 2 104 2c62 0 145 -20 145 -119c0 -104 -120 -200 -253 -200c-114 0 -174 65 -175 123
c-1 22 9 40 25 55c21 20 57 48 81 67c-36 11 -61 33 -74 55c-9 14 -13 33 -12 44c43 15 75 42 91 61c-48 20 -89 67 -89 134c0 114 102 166 181 166h1c34 0 66 -9 97 -26c50 3 101 9 138 14zM223 419h-1c-40 0 -78 -42 -78 -119c0 -76 36 -132 90 -132c43 1 78 40 78 118
c0 76 -34 133 -89 133zM242 -13h-1c-47 0 -69 -6 -87 -21c-23 -21 -41 -46 -41 -73c0 -54 56 -96 131 -96c92 0 140 47 140 108c0 34 -18 59 -47 70c-26 10 -53 12 -95 12zM239 516h-1c-39 0 -76 33 -76 82c0 61 51 94 110 109l9 -27c-39 -17 -61 -35 -61 -60
c0 -21 20 -35 46 -42c8 -2 15 -9 15 -24c0 -25 -21 -38 -42 -38z" />
    <glyph glyph-name="Hcircumflex" unicode="&#x124;" horiz-adv-x="769" 
d="M732 650v-29c-81 -7 -89 -12 -89 -96v-400c0 -84 8 -89 89 -96v-29h-275v29c84 7 92 12 92 96v197h-328v-197c0 -84 8 -89 88 -96v-29h-269v29c79 7 87 12 87 96v400c0 84 -8 89 -90 96v29h267v-29c-75 -7 -83 -12 -83 -96v-159h328v159c0 83 -8 89 -85 96v29h268z
M522 709l-16 -25c-41 17 -82 40 -123 62c-39 -22 -81 -45 -122 -62l-16 25c44 34 89 70 127 110h24c38 -41 83 -76 126 -110z" />
    <glyph glyph-name="hcircumflex" unicode="&#x125;" horiz-adv-x="537" 
d="M516 0h-215v27c56 6 63 13 63 76v167c0 82 -32 120 -93 120c-36 0 -72 -17 -99 -47v-240c0 -63 6 -70 62 -76v-27h-217v27c60 6 68 11 68 77v475c0 62 -3 66 -66 72v24c49 7 111 22 153 35v-331c36 35 89 71 142 71c82 0 138 -52 138 -170v-177c0 -65 7 -70 64 -76v-27z
M257 745l-16 -25c-41 17 -82 40 -123 62c-39 -22 -81 -45 -122 -62l-16 25c44 34 89 70 127 110h24c38 -41 83 -76 126 -110z" />
    <glyph glyph-name="Hbar" unicode="&#x126;" horiz-adv-x="769" 
d="M729 470h-86v-341c0 -86 8 -94 89 -100v-29h-275v29c84 6 92 14 92 100v179h-328v-179c0 -86 8 -94 88 -100v-29h-269v29c79 6 87 14 87 100v341h-87v38h87v17c0 85 -8 89 -90 96v29h267v-29c-75 -7 -83 -11 -83 -96v-17h328v17c0 85 -8 89 -85 96v29h268v-29
c-81 -7 -89 -11 -89 -96v-17h86v-38zM549 352v118h-328v-118h328z" />
    <glyph glyph-name="hbar" unicode="&#x127;" horiz-adv-x="536" 
d="M517 0h-215v27c56 6 62 13 62 77v168c0 81 -31 118 -92 118c-37 0 -74 -17 -100 -48v-238c0 -65 7 -71 62 -77v-27h-215v27c57 6 66 12 66 79v428h-70v38h70v51c0 31 -5 35 -43 41v24c40 5 91 16 130 27v-143h155v-38h-155v-155c36 38 89 70 143 71
c83 2 137 -53 137 -165v-180c0 -67 8 -72 65 -78v-27z" />
    <glyph glyph-name="Itilde" unicode="&#x128;" horiz-adv-x="347" 
d="M309 0h-271v29c80 6 89 12 89 97v397c0 85 -9 91 -89 98v29h271v-29c-80 -7 -89 -13 -89 -98v-397c0 -85 9 -91 89 -97v-29zM121 790h1c18 0 32 -5 62 -19c21 -10 37 -16 55 -16c20 0 34 15 47 43l26 -14c-23 -70 -56 -87 -85 -87c-21 0 -42 9 -69 21
c-17 8 -28 14 -46 14s-33 -15 -48 -44l-25 18c25 64 56 84 82 84z" />
    <glyph glyph-name="itilde" unicode="&#x129;" horiz-adv-x="273" 
d="M31 519l-26 17c22 69 54 93 82 93c17 0 30 -5 59 -20c22 -11 38 -19 54 -19c19 0 32 17 45 45l25 -14c-23 -76 -55 -93 -80 -93c-22 0 -42 10 -66 24c-19 10 -32 16 -48 16c-17 0 -31 -15 -45 -49zM258 0h-226v27c62 6 69 14 69 84v198c0 65 -4 70 -62 79v25
c53 8 104 21 150 39v-341c0 -71 6 -77 69 -84v-27z" />
    <glyph glyph-name="Imacron" unicode="&#x12a;" horiz-adv-x="347" 
d="M309 0h-271v29c80 6 89 12 89 97v397c0 85 -9 91 -89 98v29h271v-29c-80 -7 -89 -13 -89 -98v-397c0 -85 9 -91 89 -97v-29zM288 715h-228v55h228v-55z" />
    <glyph glyph-name="imacron" unicode="&#x12b;" horiz-adv-x="273" 
d="M245 547h-225v58h225v-58zM258 0h-226v27c62 6 69 14 69 84v198c0 65 -4 70 -62 79v25c53 8 104 21 150 39v-341c0 -71 6 -77 69 -84v-27z" />
    <glyph glyph-name="Ibreve" unicode="&#x12c;" horiz-adv-x="347" 
d="M309 0h-271v29c80 6 89 12 89 97v397c0 85 -9 91 -89 98v29h271v-29c-80 -7 -89 -13 -89 -98v-397c0 -85 9 -91 89 -97v-29zM262 816h30c-1 -84 -49 -122 -119 -122s-117 38 -118 122h30c8 -36 35 -62 88 -62s80 25 89 62z" />
    <glyph glyph-name="ibreve" unicode="&#x12d;" horiz-adv-x="273" 
d="M216 650h30c0 -107 -53 -140 -114 -140c-60 0 -112 33 -112 140h31c7 -51 37 -79 82 -79s75 28 83 79zM258 0h-226v27c62 6 69 14 69 84v198c0 65 -4 70 -62 79v25c53 8 104 21 150 39v-341c0 -71 6 -77 69 -84v-27z" />
    <glyph glyph-name="Iogonek" unicode="&#x12e;" horiz-adv-x="347" 
d="M309 0h-116c-19 -40 -34 -86 -34 -123c0 -35 25 -54 58 -54c13 0 33 5 48 12l8 -26l-57 -34c-10 -6 -30 -11 -39 -11c-62 0 -88 40 -88 81c0 54 41 110 69 155h-120v28c80 6 89 14 89 100v393c0 87 -9 94 -89 100v29h271v-29c-80 -6 -89 -13 -89 -100v-393
c0 -86 9 -94 89 -100v-28z" />
    <glyph glyph-name="iogonek" unicode="&#x12f;" horiz-adv-x="273" 
d="M259 0h-96c-21 -39 -34 -81 -34 -118c0 -38 24 -56 55 -56c14 0 30 5 45 11l8 -26l-52 -31c-9 -6 -28 -12 -37 -12c-58 0 -87 32 -87 80c0 51 40 111 68 152h-98v27c63 6 70 13 70 82v200c0 65 -6 71 -63 79v25c52 8 104 21 150 39v-343c0 -69 7 -76 71 -82v-27zM138 534
c-29 0 -54 25 -54 54c0 32 25 56 55 56s53 -24 53 -56c0 -29 -23 -54 -54 -54z" />
    <glyph glyph-name="Idotaccent" unicode="&#x130;" horiz-adv-x="347" 
d="M309 0h-271v29c80 6 89 12 89 97v397c0 85 -9 91 -89 98v29h271v-29c-80 -7 -89 -13 -89 -98v-397c0 -85 9 -91 89 -97v-29zM174 813h1c30 0 54 -24 54 -56c0 -30 -24 -54 -55 -54c-30 0 -55 24 -55 54c0 32 25 56 55 56z" />
    <glyph glyph-name="dotlessi" unicode="&#x131;" horiz-adv-x="273" 
d="M258 0h-226v27c62 6 69 14 69 84v198c0 65 -4 70 -62 79v25c53 8 104 21 150 39v-341c0 -71 6 -77 69 -84v-27z" />
    <glyph glyph-name="IJ" unicode="&#x132;" horiz-adv-x="683" 
d="M309 0h-271v29c80 6 89 12 89 97v397c0 85 -9 91 -89 98v29h271v-29c-80 -7 -89 -13 -89 -98v-397c0 -85 9 -91 89 -97v-29zM657 650v-29c-76 -7 -85 -14 -85 -98v-365c0 -126 -18 -201 -89 -264c-35 -32 -70 -50 -97 -59l-14 30c56 27 85 71 96 129c9 50 11 109 11 191
v338c0 84 -9 91 -89 98v29h267z" />
    <glyph glyph-name="ij" unicode="&#x133;" horiz-adv-x="533" 
d="M138 533c-29 0 -54 25 -54 54c0 32 25 56 55 56c29 0 53 -24 53 -56c0 -29 -24 -54 -54 -54zM258 0h-227v27c62 6 69 12 69 80v205c0 63 -4 67 -61 76v25c52 8 103 21 149 39v-345c0 -68 6 -74 70 -80v-27zM399 533c-29 0 -53 25 -53 54c0 32 24 56 54 56s53 -24 53 -56
c0 -29 -23 -54 -54 -54zM296 389v24c54 8 107 21 154 39v-337c0 -68 -5 -110 -24 -162c-36 -99 -102 -177 -125 -196c-10 -8 -18 -12 -27 -12c-14 0 -37 21 -37 46c0 13 7 21 22 24c35 7 60 18 73 35c11 14 18 37 22 72c6 45 8 106 8 192v194c0 68 -6 72 -66 81z" />
    <glyph glyph-name="Jcircumflex" unicode="&#x134;" horiz-adv-x="335" 
d="M310 650v-29c-76 -7 -85 -14 -85 -98v-365c0 -126 -18 -201 -89 -264c-35 -32 -70 -50 -97 -59l-14 30c56 27 85 71 96 129c9 50 11 109 11 191v338c0 84 -9 91 -89 98v29h267zM314 709l-16 -25c-41 17 -82 40 -123 62c-39 -22 -81 -45 -122 -62l-16 25
c44 34 89 70 127 110h24c38 -41 83 -76 126 -110z" />
    <glyph glyph-name="jcircumflex" unicode="&#x135;" horiz-adv-x="264" 
d="M33 391v22c54 8 109 21 156 39v-339c0 -67 -5 -109 -24 -161c-36 -99 -101 -177 -124 -196c-11 -9 -20 -12 -28 -12c-13 0 -35 18 -35 43c0 14 7 22 21 25c35 6 60 17 72 34c11 15 18 38 23 73c5 46 7 108 7 194v196c0 69 -5 73 -68 82zM247 508l-25 -18
c-34 30 -63 64 -90 96c-27 -32 -56 -66 -90 -96l-25 18c39 55 71 108 102 165h27c30 -57 62 -110 101 -165z" />
    <glyph glyph-name="Kcommaaccent" unicode="&#x136;" horiz-adv-x="678" 
d="M673 0h-162c-72 82 -153 184 -239 289c-23 28 -37 32 -53 29v-188c0 -87 9 -95 91 -101v-29h-267v29c75 6 84 14 84 101v389c0 90 -9 95 -88 102v29h265v-29c-76 -6 -85 -13 -85 -102v-174c21 6 42 20 71 47c57 56 120 121 162 175c29 34 28 45 -18 51l-21 3v29h243v-29
c-73 -7 -99 -17 -162 -75c-42 -38 -108 -105 -171 -170c73 -94 177 -214 230 -275c51 -55 73 -66 120 -72v-29zM364 -23h1c38 0 75 -33 75 -82c0 -61 -50 -93 -109 -108l-10 27c39 17 61 34 61 59c0 22 -20 35 -46 42c-7 2 -15 9 -15 24c0 25 22 38 43 38z" />
    <glyph glyph-name="kcommaaccent" unicode="&#x137;" horiz-adv-x="499" 
d="M517 0l-144 -2c-43 48 -104 130 -158 198c-12 15 -20 21 -29 21c-4 0 -9 0 -14 -2v-110c0 -66 8 -72 71 -78v-27h-230v27c66 6 72 13 72 78v471c0 64 -5 69 -65 75v24c48 6 108 21 152 35v-468c29 6 46 19 62 35c22 23 51 62 68 88c19 29 16 38 -30 43v27l206 9v-26
c-67 -11 -91 -22 -128 -58c-26 -25 -43 -45 -83 -93c21 -32 120 -150 153 -186c35 -37 60 -51 97 -54v-27zM264 -33h1c38 0 75 -33 75 -82c0 -61 -50 -93 -109 -108l-10 27c39 17 61 34 61 59c0 22 -20 35 -46 42c-7 2 -15 9 -15 24c0 25 22 38 43 38z" />
    <glyph glyph-name="kgreenlandic" unicode="&#x138;" horiz-adv-x="530" 
d="M526 0h-145c-18 21 -105 134 -146 189c-17 23 -29 23 -43 18v-98c0 -70 6 -77 67 -82v-27h-223v27c61 5 68 11 68 81v213c0 67 -6 75 -66 80v27c57 4 105 13 154 24v-217c14 4 32 11 49 25c44 41 79 79 99 105c17 23 14 38 -13 43l-17 3v27h201v-27
c-49 -5 -75 -13 -117 -49c-25 -20 -60 -55 -107 -101c55 -77 114 -147 148 -183c36 -37 51 -46 91 -51v-27z" />
    <glyph glyph-name="Lacute" unicode="&#x139;" horiz-adv-x="541" 
d="M498 166l31 -7c-6 -33 -27 -129 -36 -159h-459v29c84 6 93 13 93 98v397c0 85 -7 90 -88 97v29h269v-29c-78 -6 -88 -11 -88 -97v-394c0 -53 5 -72 24 -82c19 -11 52 -12 92 -12c53 0 87 5 110 31c18 20 36 52 52 99zM326 755l-2 -8l-189 -63l-13 25l160 106
c13 -3 41 -43 44 -60z" />
    <glyph glyph-name="lacute" unicode="&#x13a;" horiz-adv-x="258" 
d="M244 0h-230v27c63 7 71 12 71 78v471c0 66 -6 69 -68 75v24c53 6 118 23 155 35v-605c0 -66 8 -72 72 -78v-27zM255 799l-2 -8l-189 -63l-13 25l160 106c13 -3 41 -43 44 -60z" />
    <glyph glyph-name="Lcommaaccent" unicode="&#x13b;" horiz-adv-x="541" 
d="M498 166l31 -7c-6 -33 -27 -129 -36 -159h-459v29c84 6 93 13 93 98v397c0 85 -7 90 -88 97v29h269v-29c-78 -6 -88 -11 -88 -97v-394c0 -53 5 -72 24 -82c19 -11 52 -12 92 -12c53 0 87 5 110 31c18 20 36 52 52 99zM294 -35h1c38 0 75 -33 75 -82
c0 -61 -50 -93 -109 -108l-10 27c39 17 61 34 61 59c0 22 -20 35 -46 42c-7 2 -15 9 -15 24c0 25 22 38 43 38z" />
    <glyph glyph-name="lcommaaccent" unicode="&#x13c;" horiz-adv-x="258" 
d="M244 0h-230v27c63 7 71 12 71 78v471c0 66 -6 69 -68 75v24c53 6 118 23 155 35v-605c0 -66 8 -72 72 -78v-27zM118 -34h1c38 0 75 -33 75 -82c0 -61 -50 -93 -109 -108l-10 27c39 17 61 34 61 59c0 22 -20 35 -46 42c-7 2 -15 9 -15 24c0 25 22 38 43 38z" />
    <glyph glyph-name="Lcaron" unicode="&#x13d;" horiz-adv-x="541" 
d="M498 166l31 -7c-6 -33 -27 -129 -36 -159h-459v29c84 6 93 13 93 98v397c0 85 -7 90 -88 97v29h269v-29c-78 -6 -88 -11 -88 -97v-394c0 -53 5 -72 24 -82c19 -11 52 -12 92 -12c53 0 87 5 110 31c18 20 36 52 52 99zM390 655h1c33 0 63 -34 63 -82
c0 -60 -41 -93 -90 -108l-10 27c32 17 46 35 46 59c0 23 -13 34 -33 41c-6 2 -13 10 -13 25c0 24 18 38 36 38z" />
    <glyph glyph-name="lcaron" unicode="&#x13e;" horiz-adv-x="258" 
d="M244 0h-230v27c63 7 71 12 71 78v471c0 66 -6 69 -68 75v24c53 6 118 23 155 35v-605c0 -66 8 -72 72 -78v-27zM254 712h1c33 0 63 -34 63 -82c0 -60 -41 -93 -90 -108l-10 27c32 17 46 35 46 59c0 23 -13 34 -33 41c-6 2 -13 10 -13 25c0 24 18 38 36 38z" />
    <glyph glyph-name="Ldot" unicode="&#x13f;" horiz-adv-x="541" 
d="M498 166l31 -7c-6 -33 -27 -129 -36 -159h-459v29c84 6 93 13 93 98v397c0 85 -7 90 -88 97v29h269v-29c-78 -6 -88 -11 -88 -97v-394c0 -53 5 -72 24 -82c19 -11 52 -12 92 -12c53 0 87 5 110 31c18 20 36 52 52 99zM367 410h1c30 0 54 -24 54 -56
c0 -30 -24 -54 -55 -54c-30 0 -55 24 -55 54c0 32 25 56 55 56z" />
    <glyph glyph-name="ldot" unicode="&#x140;" horiz-adv-x="282" 
d="M270 410h1c29 0 51 -23 51 -54c0 -28 -22 -53 -52 -53c-28 0 -52 24 -52 53c0 31 24 54 52 54zM244 0h-230v27c63 7 71 12 71 78v471c0 66 -6 69 -68 75v24c53 6 118 23 155 35v-605c0 -66 8 -72 72 -78v-27z" />
    <glyph glyph-name="Lslash" unicode="&#x141;" horiz-adv-x="552" 
d="M509 168l32 -6c-6 -30 -27 -131 -36 -162h-460v29c85 6 94 15 94 103v142l-99 -72v47l99 73v197c0 86 -8 95 -87 102v29h269l-1 -29c-79 -7 -87 -16 -87 -102v-132l126 93v-48l-126 -94v-199c0 -56 4 -81 23 -91s52 -12 91 -12c56 0 88 6 111 31c17 20 35 54 51 101z" />
    <glyph glyph-name="lslash" unicode="&#x142;" horiz-adv-x="279" 
d="M276 462l-90 -75v-277c0 -70 9 -77 73 -83v-27h-234v27c65 6 74 13 74 83v207l-74 -60v47l74 61v218c0 59 -7 63 -70 71v25c49 6 118 21 157 35v-280l90 76v-48z" />
    <glyph glyph-name="Nacute" unicode="&#x143;" horiz-adv-x="743" 
d="M720 650v-29c-56 -3 -79 -16 -84 -60c-3 -31 -6 -76 -6 -168v-402h-34l-424 519h-2v-246c0 -91 3 -139 6 -168c5 -49 27 -63 96 -67v-29h-238v29c57 4 82 17 87 65c3 31 7 79 7 170v218c0 71 -2 78 -21 102c-20 25 -41 33 -88 37v29h155l411 -490h3v233
c0 91 -4 137 -7 166c-5 44 -28 58 -99 62v29h238zM512 755l-2 -8l-189 -63l-13 25l160 106c13 -3 41 -43 44 -60z" />
    <glyph glyph-name="nacute" unicode="&#x144;" horiz-adv-x="550" 
d="M269 492l-27 14c18 41 57 142 64 159c9 5 73 13 86 10l4 -10zM528 0h-213v27c56 6 63 13 63 83v167c0 70 -26 111 -87 111c-37 0 -74 -23 -103 -48v-236c0 -67 6 -71 62 -77v-27h-221v27c66 7 71 12 71 78v207c0 63 -6 66 -59 76v24c50 9 100 22 147 41v-79
c20 15 41 30 66 46c29 19 53 30 82 30c80 0 129 -56 129 -153v-193c0 -67 6 -70 63 -77v-27z" />
    <glyph glyph-name="Ncommaaccent" unicode="&#x145;" horiz-adv-x="743" 
d="M720 650v-29c-56 -3 -79 -16 -84 -60c-3 -31 -6 -76 -6 -168v-402h-34l-424 519h-2v-246c0 -91 3 -139 6 -168c5 -49 27 -63 96 -67v-29h-238v29c57 4 82 17 87 65c3 31 7 79 7 170v218c0 71 -2 78 -21 102c-20 25 -41 33 -88 37v29h155l411 -490h3v233
c0 91 -4 137 -7 166c-5 44 -28 58 -99 62v29h238zM383 -14h1c38 0 75 -33 75 -82c0 -61 -50 -93 -109 -108l-10 27c39 17 61 34 61 59c0 22 -20 35 -46 42c-7 2 -15 9 -15 24c0 25 22 38 43 38z" />
    <glyph glyph-name="ncommaaccent" unicode="&#x146;" horiz-adv-x="550" 
d="M528 0h-213v27c56 6 63 13 63 83v167c0 70 -26 111 -87 111c-37 0 -74 -23 -103 -48v-236c0 -67 6 -71 62 -77v-27h-221v27c66 7 71 12 71 78v207c0 63 -6 66 -59 76v24c50 9 100 22 147 41v-79c20 15 41 30 66 46c29 19 53 30 82 30c80 0 129 -56 129 -153v-193
c0 -67 6 -70 63 -77v-27zM284 -43h1c38 0 75 -33 75 -82c0 -61 -50 -93 -109 -108l-10 27c39 17 61 34 61 59c0 22 -20 35 -46 42c-7 2 -15 9 -15 24c0 25 22 38 43 38z" />
    <glyph glyph-name="Ncaron" unicode="&#x147;" horiz-adv-x="743" 
d="M720 650v-29c-56 -3 -79 -16 -84 -60c-3 -31 -6 -76 -6 -168v-402h-34l-424 519h-2v-246c0 -91 3 -139 6 -168c5 -49 27 -63 96 -67v-29h-238v29c57 4 82 17 87 65c3 31 7 79 7 170v218c0 71 -2 78 -21 102c-20 25 -41 33 -88 37v29h155l411 -490h3v233
c0 91 -4 137 -7 166c-5 44 -28 58 -99 62v29h238zM498 807l15 -25c-43 -33 -87 -69 -127 -111h-23c-39 42 -84 77 -127 111l16 25c41 -17 83 -37 123 -61c40 23 82 44 123 61z" />
    <glyph glyph-name="ncaron" unicode="&#x148;" horiz-adv-x="550" 
d="M364 677l25 -18c-40 -55 -71 -108 -102 -164h-27c-31 57 -62 109 -101 164l25 18c34 -31 63 -63 90 -95c27 31 55 64 90 95zM528 0h-213v27c56 6 63 13 63 83v167c0 70 -26 111 -87 111c-37 0 -74 -23 -103 -48v-236c0 -67 6 -71 62 -77v-27h-221v27c66 7 71 12 71 78
v207c0 63 -6 66 -59 76v24c50 9 100 22 147 41v-79c20 15 41 30 66 46c29 19 53 30 82 30c80 0 129 -56 129 -153v-193c0 -67 6 -70 63 -77v-27z" />
    <glyph glyph-name="napostrophe" unicode="&#x149;" horiz-adv-x="550" 
d="M54 713h1c41 0 91 -35 91 -97c0 -67 -66 -104 -127 -118l-8 23c43 18 70 41 70 77c0 32 -28 51 -58 56c-6 1 -12 8 -12 21c0 25 25 38 43 38zM528 0h-213v27c56 6 63 13 63 83v167c0 70 -26 111 -87 111c-37 0 -74 -23 -103 -48v-236c0 -67 6 -71 62 -77v-27h-221v27
c66 7 71 12 71 78v207c0 63 -6 66 -59 76v24c50 9 100 22 147 41v-79c20 15 41 30 66 46c29 19 53 30 82 30c80 0 129 -56 129 -153v-193c0 -67 6 -70 63 -77v-27z" />
    <glyph glyph-name="Eng" unicode="&#x14a;" horiz-adv-x="737" 
d="M715 650v-29c-56 -3 -79 -16 -84 -60c-3 -31 -6 -81 -6 -173v-299c0 -110 -7 -184 -36 -235c-25 -44 -56 -65 -93 -65c-25 0 -48 25 -48 53c0 10 3 21 14 21s20 -6 41 -6c38 0 75 36 77 149l-407 501h-3v-239c0 -90 4 -143 7 -172c5 -50 27 -63 96 -67v-29h-239v29
c57 4 81 17 86 65c4 31 8 84 8 174v209c0 72 -2 83 -21 107c-20 25 -41 33 -88 37v29h154l406 -488h3v227c0 91 -4 142 -7 170c-6 45 -28 58 -99 62v29h239z" />
    <glyph glyph-name="eng" unicode="&#x14b;" horiz-adv-x="544" 
d="M187 453v-79c20 15 42 30 66 46c29 19 53 30 82 30c80 0 129 -55 129 -152v-173c0 -58 -4 -108 -19 -155c-14 -43 -33 -76 -57 -105c-31 -38 -64 -59 -89 -59c-20 0 -42 24 -42 51c0 10 4 20 14 20c12 0 33 -11 51 -11c15 0 28 4 37 20c13 24 18 58 18 149v240
c0 69 -26 112 -86 112c-37 0 -74 -23 -104 -48v-233c0 -66 5 -73 67 -79v-27h-226v27c66 7 72 12 72 79v205c0 63 -4 68 -60 78v24c49 8 101 21 147 40z" />
    <glyph glyph-name="Omacron" unicode="&#x14c;" horiz-adv-x="750" 
d="M382 664h1c172 0 324 -131 324 -331c0 -216 -152 -348 -336 -348s-328 142 -328 334c0 178 126 345 339 345zM362 628h-1c-108 0 -206 -98 -206 -283c0 -184 98 -323 237 -323c108 0 203 93 203 284c0 209 -104 322 -233 322zM490 716h-228v55h228v-55z" />
    <glyph glyph-name="omacron" unicode="&#x14d;" horiz-adv-x="513" 
d="M369 547h-225v58h225v-58zM259 450h1c125 0 217 -101 217 -223c0 -162 -117 -239 -219 -239c-141 0 -222 111 -222 221c0 165 128 241 223 241zM247 416h-1c-57 0 -108 -60 -108 -174c0 -126 51 -220 131 -220c57 0 106 42 106 181c0 121 -45 213 -128 213z" />
    <glyph glyph-name="Obreve" unicode="&#x14e;" horiz-adv-x="750" 
d="M382 664h1c172 0 324 -131 324 -331c0 -216 -152 -348 -336 -348s-328 142 -328 334c0 178 126 345 339 345zM362 628h-1c-108 0 -206 -98 -206 -283c0 -184 98 -323 237 -323c108 0 203 93 203 284c0 209 -104 322 -233 322zM457 822h30c-1 -84 -49 -122 -119 -122
s-117 38 -118 122h30c8 -36 35 -62 88 -62s80 25 89 62z" />
    <glyph glyph-name="obreve" unicode="&#x14f;" horiz-adv-x="513" 
d="M333 650h30c0 -107 -53 -140 -114 -140c-60 0 -112 33 -112 140h31c7 -51 37 -79 82 -79s75 28 83 79zM259 450h1c125 0 217 -101 217 -223c0 -162 -117 -239 -219 -239c-141 0 -222 111 -222 221c0 165 128 241 223 241zM247 416h-1c-57 0 -108 -60 -108 -174
c0 -126 51 -220 131 -220c57 0 106 42 106 181c0 121 -45 213 -128 213z" />
    <glyph glyph-name="Ohungarumlaut" unicode="&#x150;" horiz-adv-x="750" 
d="M382 664h1c172 0 324 -131 324 -331c0 -216 -152 -348 -336 -348s-328 142 -328 334c0 178 126 345 339 345zM362 628h-1c-108 0 -206 -98 -206 -283c0 -184 98 -323 237 -323c108 0 203 93 203 284c0 209 -104 322 -233 322zM554 798l-100 -113l-26 13
c17 43 34 88 49 124c21 3 64 -6 76 -13zM409 797l-100 -112l-26 13l49 124c20 2 65 -7 76 -14z" />
    <glyph glyph-name="ohungarumlaut" unicode="&#x151;" horiz-adv-x="513" 
d="M183 493l-28 9c14 50 40 147 44 163c9 4 66 14 80 11l3 -9zM324 493l-28 9c14 52 40 147 44 163c9 4 66 14 80 11l3 -9zM259 450h1c125 0 217 -101 217 -223c0 -162 -117 -239 -219 -239c-141 0 -222 111 -222 221c0 165 128 241 223 241zM247 416h-1
c-57 0 -108 -60 -108 -174c0 -126 51 -220 131 -220c57 0 106 42 106 181c0 121 -45 213 -128 213z" />
    <glyph glyph-name="OE" unicode="&#x152;" horiz-adv-x="976" 
d="M925 164l31 -4c-6 -33 -26 -126 -35 -160h-309c-40 0 -69 -1 -103 -4c-43 -4 -71 -7 -101 -7c-248 0 -363 157 -363 328c0 207 164 343 383 344c37 0 64 -4 97 -6c33 -3 62 -5 92 -5h280c0 -24 5 -92 10 -143l-32 -3c-10 42 -19 64 -32 83c-15 20 -41 26 -112 26h-71
c-31 0 -34 -2 -34 -31v-225h94c85 0 91 10 103 74h31v-193h-31c-13 69 -18 77 -103 77h-94v-180c0 -54 6 -75 24 -86c20 -13 54 -13 101 -13c73 0 101 8 124 33c19 21 35 54 50 95zM533 108v440c0 34 -5 49 -20 57c-20 11 -52 19 -95 19c-163 0 -262 -113 -262 -294
c-1 -156 74 -305 263 -305c31 0 60 5 79 14c25 12 35 27 35 69z" />
    <glyph glyph-name="oe" unicode="&#x153;" horiz-adv-x="770" 
d="M254 450h1c73 0 133 -38 167 -97c37 54 103 97 168 97c87 0 155 -74 155 -153c0 -24 -5 -30 -22 -35c-15 -3 -145 -12 -266 -16c-1 -131 74 -187 154 -187c39 0 73 16 111 49l16 -22c-57 -80 -130 -98 -163 -98c-71 0 -129 33 -161 85c-43 -58 -105 -85 -162 -85
c-136 0 -217 113 -217 221c0 165 130 241 219 241zM565 412h-1c-44 0 -92 -43 -101 -126c55 0 111 1 169 3c15 0 21 6 21 23c0 55 -35 100 -88 100zM246 416h-1c-56 0 -106 -62 -107 -175c0 -126 50 -218 130 -218c53 0 104 47 104 183c1 122 -45 210 -126 210z" />
    <glyph glyph-name="Racute" unicode="&#x154;" horiz-adv-x="628" 
d="M636 19l-4 -27c-11 0 -22 0 -34 1c-85 4 -125 27 -170 92c-33 47 -68 108 -97 157c-18 29 -35 41 -83 41h-29v-157c0 -84 9 -91 88 -97v-29h-270v29c81 6 90 13 90 97v399c0 84 -9 89 -86 96v29h254c76 0 125 -9 163 -35c41 -26 67 -70 67 -131c0 -86 -54 -138 -127 -170
c17 -32 58 -99 88 -144c36 -53 57 -80 80 -105c26 -28 48 -40 70 -46zM219 317h44c49 0 82 8 107 28c37 30 53 70 53 123c0 108 -69 148 -141 148c-29 0 -45 -4 -53 -10c-7 -6 -10 -17 -10 -43v-246zM438 755l-2 -8l-189 -63l-13 25l160 106c13 -3 41 -43 44 -60z" />
    <glyph glyph-name="racute" unicode="&#x155;" horiz-adv-x="377" 
d="M204 492l-27 14c18 41 57 142 64 159c9 5 73 13 86 10l4 -10zM188 344h2c31 53 73 106 119 106c36 0 60 -27 60 -52c0 -23 -14 -44 -35 -54c-12 -5 -21 -3 -27 3c-15 14 -27 20 -44 20c-24 0 -54 -26 -75 -79v-184c0 -65 5 -71 82 -77v-27h-238v27c61 6 68 12 68 77v209
c0 64 -5 67 -60 76v23c51 8 97 20 148 40v-108z" />
    <glyph glyph-name="Rcommaaccent" unicode="&#x156;" horiz-adv-x="628" 
d="M636 19l-4 -27c-11 0 -22 0 -34 1c-85 4 -125 27 -170 92c-33 47 -68 108 -97 157c-18 29 -35 41 -83 41h-29v-157c0 -84 9 -91 88 -97v-29h-270v29c81 6 90 13 90 97v399c0 84 -9 89 -86 96v29h254c76 0 125 -9 163 -35c41 -26 67 -70 67 -131c0 -86 -54 -138 -127 -170
c17 -32 58 -99 88 -144c36 -53 57 -80 80 -105c26 -28 48 -40 70 -46zM219 317h44c49 0 82 8 107 28c37 30 53 70 53 123c0 108 -69 148 -141 148c-29 0 -45 -4 -53 -10c-7 -6 -10 -17 -10 -43v-246zM344 -23h1c38 0 75 -33 75 -82c0 -61 -50 -93 -109 -108l-10 27
c39 17 61 34 61 59c0 22 -20 35 -46 42c-7 2 -15 9 -15 24c0 25 22 38 43 38z" />
    <glyph glyph-name="rcommaaccent" unicode="&#x157;" horiz-adv-x="377" 
d="M188 344h2c31 53 73 106 119 106c36 0 60 -27 60 -52c0 -23 -14 -44 -35 -54c-12 -5 -21 -3 -27 3c-15 14 -27 20 -44 20c-24 0 -54 -26 -75 -79v-184c0 -65 5 -71 82 -77v-27h-238v27c61 6 68 12 68 77v209c0 64 -5 67 -60 76v23c51 8 97 20 148 40v-108zM142 -38h1
c38 0 75 -33 75 -82c0 -61 -50 -93 -109 -108l-10 27c39 17 61 34 61 59c0 22 -20 35 -46 42c-7 2 -15 9 -15 24c0 25 22 38 43 38z" />
    <glyph glyph-name="Rcaron" unicode="&#x158;" horiz-adv-x="628" 
d="M636 19l-4 -27c-11 0 -22 0 -34 1c-85 4 -125 27 -170 92c-33 47 -68 108 -97 157c-18 29 -35 41 -83 41h-29v-157c0 -84 9 -91 88 -97v-29h-270v29c81 6 90 13 90 97v399c0 84 -9 89 -86 96v29h254c76 0 125 -9 163 -35c41 -26 67 -70 67 -131c0 -86 -54 -138 -127 -170
c17 -32 58 -99 88 -144c36 -53 57 -80 80 -105c26 -28 48 -40 70 -46zM219 317h44c49 0 82 8 107 28c37 30 53 70 53 123c0 108 -69 148 -141 148c-29 0 -45 -4 -53 -10c-7 -6 -10 -17 -10 -43v-246zM411 822l15 -25c-43 -33 -87 -69 -127 -111h-23c-39 42 -84 77 -127 111
l16 25c41 -17 83 -37 123 -61c40 23 82 44 123 61z" />
    <glyph glyph-name="rcaron" unicode="&#x159;" horiz-adv-x="377" 
d="M299 677l25 -18c-40 -55 -71 -108 -102 -164h-27c-31 57 -62 109 -101 164l25 18c34 -31 63 -63 90 -95c27 31 55 64 90 95zM188 344h2c31 53 73 106 119 106c36 0 60 -27 60 -52c0 -23 -14 -44 -35 -54c-12 -5 -21 -3 -27 3c-15 14 -27 20 -44 20c-24 0 -54 -26 -75 -79
v-184c0 -65 5 -71 82 -77v-27h-238v27c61 6 68 12 68 77v209c0 64 -5 67 -60 76v23c51 8 97 20 148 40v-108z" />
    <glyph glyph-name="Sacute" unicode="&#x15a;" horiz-adv-x="480" 
d="M415 502l-30 -6c-18 63 -47 134 -132 134c-73 0 -109 -53 -109 -108c0 -70 46 -104 127 -145c83 -42 173 -90 173 -200c0 -107 -90 -192 -226 -192c-40 0 -73 7 -98 15c-26 8 -41 16 -52 21c-8 22 -21 107 -27 158l31 8c16 -62 63 -165 165 -165c73 0 117 46 117 117
s-53 107 -128 147c-71 37 -167 88 -167 198c0 98 79 181 210 181c50 0 94 -13 128 -24c4 -36 10 -76 18 -139zM387 763l-2 -8l-189 -63l-13 25l160 106c13 -3 41 -43 44 -60z" />
    <glyph glyph-name="sacute" unicode="&#x15b;" horiz-adv-x="370" 
d="M183 492l-27 14c18 41 57 142 64 159c9 5 73 13 86 10l4 -10zM323 325l-27 -7c-20 59 -54 99 -103 99c-36 0 -62 -28 -62 -66c0 -42 36 -65 82 -85c77 -32 128 -67 128 -138c0 -93 -86 -140 -167 -140c-52 0 -99 19 -117 34c-7 14 -16 83 -17 121l28 4
c18 -65 63 -125 124 -125c36 0 68 27 68 67c0 42 -26 65 -78 90c-58 27 -127 61 -127 139c0 72 61 132 155 132c43 0 70 -9 91 -18c8 -22 19 -84 22 -107z" />
    <glyph glyph-name="Scircumflex" unicode="&#x15c;" horiz-adv-x="480" 
d="M415 502l-30 -6c-18 63 -47 134 -132 134c-73 0 -109 -53 -109 -108c0 -70 46 -104 127 -145c83 -42 173 -90 173 -200c0 -107 -90 -192 -226 -192c-40 0 -73 7 -98 15c-26 8 -41 16 -52 21c-8 22 -21 107 -27 158l31 8c16 -62 63 -165 165 -165c73 0 117 46 117 117
s-53 107 -128 147c-71 37 -167 88 -167 198c0 98 79 181 210 181c50 0 94 -13 128 -24c4 -36 10 -76 18 -139zM391 715l-16 -25c-41 17 -82 40 -123 62c-39 -22 -81 -45 -122 -62l-16 25c44 34 89 70 127 110h24c38 -41 83 -76 126 -110z" />
    <glyph glyph-name="scircumflex" unicode="&#x15d;" horiz-adv-x="370" 
d="M305 508l-25 -18c-34 30 -63 64 -90 96c-27 -32 -56 -66 -90 -96l-25 18c39 55 71 108 102 165h27c30 -57 62 -110 101 -165zM323 325l-27 -7c-20 59 -54 99 -103 99c-36 0 -62 -28 -62 -66c0 -42 36 -65 82 -85c77 -32 128 -67 128 -138c0 -93 -86 -140 -167 -140
c-52 0 -99 19 -117 34c-7 14 -16 83 -17 121l28 4c18 -65 63 -125 124 -125c36 0 68 27 68 67c0 42 -26 65 -78 90c-58 27 -127 61 -127 139c0 72 61 132 155 132c43 0 70 -9 91 -18c8 -22 19 -84 22 -107z" />
    <glyph glyph-name="Scedilla" unicode="&#x15e;" horiz-adv-x="482" 
d="M416 501l-29 -5c-18 63 -47 134 -133 134c-71 0 -107 -51 -107 -105c0 -71 44 -106 127 -146c81 -39 171 -89 171 -201c0 -92 -64 -164 -162 -184l-16 -23c-11 -16 -9 -23 7 -39c27 -28 39 -46 39 -69c0 -41 -45 -79 -115 -100l-12 26c40 18 60 39 61 59
c0 15 -12 27 -24 38c-25 23 -32 38 -11 65l28 36c-6 -2 -12 -2 -18 -2c-38 1 -76 8 -102 16c-27 8 -43 16 -53 21c-8 21 -21 105 -27 157l29 8c17 -61 65 -165 173 -165c69 0 113 46 113 117c0 76 -56 112 -127 149c-69 35 -166 87 -166 197c0 97 79 180 209 180
c49 0 93 -13 128 -24c4 -36 9 -77 17 -140z" />
    <glyph glyph-name="scedilla" unicode="&#x15f;" horiz-adv-x="369" 
d="M324 325l-27 -8c-21 61 -56 100 -104 100c-37 0 -62 -27 -62 -64c0 -41 37 -66 83 -86c76 -32 128 -69 128 -139c0 -74 -52 -117 -114 -132l-18 -24c-12 -17 -9 -24 7 -40c28 -26 37 -45 37 -67c0 -41 -44 -79 -111 -99l-11 27c39 18 58 39 58 57c1 15 -11 26 -23 37
c-25 23 -31 39 -11 63l31 39c-5 -1 -11 -1 -16 -1c-48 0 -99 20 -117 36c-6 17 -15 83 -16 123l28 4c19 -67 66 -130 126 -130c35 0 69 25 69 68c0 41 -27 66 -81 92c-56 25 -125 61 -125 137c0 71 60 132 156 132c42 1 69 -9 90 -18c9 -23 21 -84 23 -107z" />
    <glyph glyph-name="Scaron" unicode="&#x160;" horiz-adv-x="480" 
d="M415 502l-30 -6c-18 63 -47 134 -132 134c-73 0 -109 -53 -109 -108c0 -70 46 -104 127 -145c83 -42 173 -90 173 -200c0 -107 -90 -192 -226 -192c-40 0 -73 7 -98 15c-26 8 -41 16 -52 21c-8 22 -21 107 -27 158l31 8c16 -62 63 -165 165 -165c73 0 117 46 117 117
s-53 107 -128 147c-71 37 -167 88 -167 198c0 98 79 181 210 181c50 0 94 -13 128 -24c4 -36 10 -76 18 -139zM374 832l15 -25c-43 -33 -87 -69 -127 -111h-23c-39 42 -84 77 -127 111l16 25c41 -17 83 -37 123 -61c40 23 82 44 123 61z" />
    <glyph glyph-name="scaron" unicode="&#x161;" horiz-adv-x="370" 
d="M282 677l25 -18c-40 -55 -71 -108 -102 -164h-27c-31 57 -62 109 -101 164l25 18c34 -31 63 -63 90 -95c27 31 55 64 90 95zM323 325l-27 -7c-20 59 -54 99 -103 99c-36 0 -62 -28 -62 -66c0 -42 36 -65 82 -85c77 -32 128 -67 128 -138c0 -93 -86 -140 -167 -140
c-52 0 -99 19 -117 34c-7 14 -16 83 -17 121l28 4c18 -65 63 -125 124 -125c36 0 68 27 68 67c0 42 -26 65 -78 90c-58 27 -127 61 -127 139c0 72 61 132 155 132c43 0 70 -9 91 -18c8 -22 19 -84 22 -107z" />
    <glyph glyph-name="Tcommaaccent" unicode="&#x162;" horiz-adv-x="621" 
d="M596 495l-30 -3c-11 49 -21 75 -34 92c-17 22 -34 30 -107 30h-66v-489c0 -80 8 -90 102 -96v-29h-294v29c90 6 98 16 98 96v489h-57c-83 0 -103 -9 -116 -31c-12 -17 -22 -46 -33 -91h-31c4 62 10 129 12 183h21c14 -23 27 -25 55 -25h397c27 0 36 6 51 25h22
c0 -45 5 -121 10 -180zM302 -36h1c38 0 75 -33 75 -82c0 -61 -50 -93 -109 -108l-10 27c39 17 61 34 61 59c0 22 -20 35 -46 42c-7 2 -15 9 -15 24c0 25 22 38 43 38z" />
    <glyph glyph-name="tcommaaccent" unicode="&#x163;" horiz-adv-x="311" 
d="M303 36l-70 -35c-17 -9 -32 -13 -41 -13c-66 0 -103 39 -103 120v289h-68l-4 11l27 30h45v73l74 68l13 -3v-138h111c10 -10 7 -33 -6 -41h-105v-255c0 -80 34 -94 59 -94c23 0 45 8 59 15zM169 -47h1c38 0 75 -33 75 -82c0 -61 -50 -93 -109 -108l-10 27
c39 17 61 34 61 59c0 22 -20 35 -46 42c-7 2 -15 9 -15 24c0 25 22 38 43 38z" />
    <glyph glyph-name="Tcaron" unicode="&#x164;" horiz-adv-x="621" 
d="M596 495l-30 -3c-11 49 -21 75 -34 92c-17 22 -34 30 -107 30h-66v-489c0 -80 8 -90 102 -96v-29h-294v29c90 6 98 16 98 96v489h-57c-83 0 -103 -9 -116 -31c-12 -17 -22 -46 -33 -91h-31c4 62 10 129 12 183h21c14 -23 27 -25 55 -25h397c27 0 36 6 51 25h22
c0 -45 5 -121 10 -180zM434 822l15 -25c-43 -33 -87 -69 -127 -111h-23c-39 42 -84 77 -127 111l16 25c41 -17 83 -37 123 -61c40 23 82 44 123 61z" />
    <glyph glyph-name="tcaron" unicode="&#x165;" horiz-adv-x="311" 
d="M303 36l-70 -35c-17 -9 -32 -13 -41 -13c-66 0 -103 39 -103 120v289h-68l-4 11l27 30h45v73l74 68l13 -3v-138h111c10 -10 7 -33 -6 -41h-105v-255c0 -80 34 -94 59 -94c23 0 45 8 59 15zM278 699h1c33 0 63 -34 63 -82c0 -60 -41 -93 -90 -108l-10 27
c32 17 46 35 46 59c0 23 -13 34 -33 41c-6 2 -13 10 -13 25c0 24 18 38 36 38z" />
    <glyph glyph-name="Tbar" unicode="&#x166;" horiz-adv-x="617" 
d="M592 496l-31 -3c-10 49 -19 74 -31 91c-16 23 -41 29 -114 29h-59v-262h147v-40h-147v-184c0 -82 8 -93 101 -98v-29h-293v29c89 5 98 16 98 98v184h-146v40h146v262h-46c-93 0 -112 -8 -126 -30c-12 -18 -21 -45 -32 -90h-31c4 63 10 128 12 182h21
c15 -23 25 -25 53 -25h397c27 0 33 6 49 25h22c0 -45 5 -120 10 -179z" />
    <glyph glyph-name="tbar" unicode="&#x167;" horiz-adv-x="309" 
d="M304 37l-73 -37c-17 -9 -31 -12 -40 -12c-65 0 -102 39 -102 120v117h-67v37h67v135h-68l-4 11l27 30h45v73l73 68l14 -3v-138h111c10 -10 7 -34 -6 -41h-105v-135h101v-37h-101v-82c0 -80 34 -95 59 -95c23 0 45 8 59 15z" />
    <glyph glyph-name="Utilde" unicode="&#x168;" horiz-adv-x="735" 
d="M717 650v-29c-59 -5 -82 -19 -87 -59c-3 -28 -6 -70 -6 -158v-87c0 -116 -18 -201 -75 -261c-46 -48 -113 -70 -180 -70c-60 0 -118 14 -163 48c-59 46 -87 121 -87 238v246c0 91 -9 95 -87 103v29h266v-29c-77 -6 -85 -12 -85 -103v-224c0 -160 62 -251 183 -251
c139 0 185 115 185 281v80c0 88 -3 129 -7 160c-6 38 -27 52 -97 57v29h240zM340 790h1c18 0 32 -5 62 -19c21 -10 37 -16 55 -16c20 0 34 15 47 43l26 -14c-23 -70 -56 -87 -85 -87c-21 0 -42 9 -69 21c-17 8 -28 14 -46 14s-33 -15 -48 -44l-25 18c25 64 56 84 82 84z" />
    <glyph glyph-name="utilde" unicode="&#x169;" horiz-adv-x="535" 
d="M161 519l-26 17c22 69 54 93 82 93c17 0 30 -5 59 -20c22 -11 38 -19 54 -19c19 0 32 17 45 45l25 -14c-23 -76 -55 -93 -80 -93c-22 0 -42 10 -66 24c-19 10 -32 16 -48 16c-17 0 -31 -15 -45 -49zM522 50v-26c-23 -3 -51 -9 -79 -16c-27 -7 -53 -14 -74 -20l-7 6v69
c-22 -17 -42 -33 -69 -49c-29 -17 -52 -26 -79 -26c-70 0 -125 43 -125 148v197c0 52 -8 58 -33 63l-28 6v25c22 1 48 4 76 7s57 8 76 11c-3 -33 -4 -81 -4 -147v-136c0 -85 42 -109 85 -109c35 0 69 14 101 45v235c0 52 -8 58 -40 63l-35 6v25c28 1 62 4 92 7
c29 3 55 8 71 11v-332c0 -51 8 -58 46 -61z" />
    <glyph glyph-name="Umacron" unicode="&#x16a;" horiz-adv-x="735" 
d="M717 650v-29c-59 -5 -82 -19 -87 -59c-3 -28 -6 -70 -6 -158v-87c0 -116 -18 -201 -75 -261c-46 -48 -113 -70 -180 -70c-60 0 -118 14 -163 48c-59 46 -87 121 -87 238v246c0 91 -9 95 -87 103v29h266v-29c-77 -6 -85 -12 -85 -103v-224c0 -160 62 -251 183 -251
c139 0 185 115 185 281v80c0 88 -3 129 -7 160c-6 38 -27 52 -97 57v29h240zM497 716h-228v55h228v-55z" />
    <glyph glyph-name="umacron" unicode="&#x16b;" horiz-adv-x="535" 
d="M379 547h-225v58h225v-58zM522 50v-26c-23 -3 -51 -9 -79 -16c-27 -7 -53 -14 -74 -20l-7 6v69c-22 -17 -42 -33 -69 -49c-29 -17 -52 -26 -79 -26c-70 0 -125 43 -125 148v197c0 52 -8 58 -33 63l-28 6v25c22 1 48 4 76 7s57 8 76 11c-3 -33 -4 -81 -4 -147v-136
c0 -85 42 -109 85 -109c35 0 69 14 101 45v235c0 52 -8 58 -40 63l-35 6v25c28 1 62 4 92 7c29 3 55 8 71 11v-332c0 -51 8 -58 46 -61z" />
    <glyph glyph-name="Ubreve" unicode="&#x16c;" horiz-adv-x="735" 
d="M717 650v-29c-59 -5 -82 -19 -87 -59c-3 -28 -6 -70 -6 -158v-87c0 -116 -18 -201 -75 -261c-46 -48 -113 -70 -180 -70c-60 0 -118 14 -163 48c-59 46 -87 121 -87 238v246c0 91 -9 95 -87 103v29h266v-29c-77 -6 -85 -12 -85 -103v-224c0 -160 62 -251 183 -251
c139 0 185 115 185 281v80c0 88 -3 129 -7 160c-6 38 -27 52 -97 57v29h240zM477 808h30c-1 -84 -49 -122 -119 -122s-117 38 -118 122h30c8 -36 35 -62 88 -62s80 25 89 62z" />
    <glyph glyph-name="ubreve" unicode="&#x16d;" horiz-adv-x="535" 
d="M346 650h30c0 -107 -53 -140 -114 -140c-60 0 -112 33 -112 140h31c7 -51 37 -79 82 -79s75 28 83 79zM522 50v-26c-23 -3 -51 -9 -79 -16c-27 -7 -53 -14 -74 -20l-7 6v69c-22 -17 -42 -33 -69 -49c-29 -17 -52 -26 -79 -26c-70 0 -125 43 -125 148v197
c0 52 -8 58 -33 63l-28 6v25c22 1 48 4 76 7s57 8 76 11c-3 -33 -4 -81 -4 -147v-136c0 -85 42 -109 85 -109c35 0 69 14 101 45v235c0 52 -8 58 -40 63l-35 6v25c28 1 62 4 92 7c29 3 55 8 71 11v-332c0 -51 8 -58 46 -61z" />
    <glyph glyph-name="Uring" unicode="&#x16e;" horiz-adv-x="735" 
d="M717 650v-29c-59 -5 -82 -19 -87 -59c-3 -28 -6 -70 -6 -158v-87c0 -116 -18 -201 -75 -261c-46 -48 -113 -70 -180 -70c-60 0 -118 14 -163 48c-59 46 -87 121 -87 238v246c0 91 -9 95 -87 103v29h266v-29c-77 -6 -85 -12 -85 -103v-224c0 -160 62 -251 183 -251
c139 0 185 115 185 281v80c0 88 -3 129 -7 160c-6 38 -27 52 -97 57v29h240zM388 845h1c44 0 89 -32 89 -85s-45 -86 -90 -86s-89 33 -89 86s44 85 89 85zM388 812h-1c-25 0 -43 -22 -43 -52c0 -31 18 -54 44 -54c27 0 44 23 44 54c0 30 -17 52 -44 52z" />
    <glyph glyph-name="uring" unicode="&#x16f;" horiz-adv-x="535" 
d="M267 499c-45 0 -90 33 -90 87c0 53 45 84 91 84c44 0 89 -31 89 -84c0 -54 -45 -87 -90 -87zM268 531c27 0 44 24 44 55c0 30 -17 52 -45 52c-25 0 -44 -22 -44 -52c0 -31 19 -55 45 -55zM522 50v-26c-23 -3 -51 -9 -79 -16c-27 -7 -53 -14 -74 -20l-7 6v69
c-22 -17 -42 -33 -69 -49c-29 -17 -52 -26 -79 -26c-70 0 -125 43 -125 148v197c0 52 -8 58 -33 63l-28 6v25c22 1 48 4 76 7s57 8 76 11c-3 -33 -4 -81 -4 -147v-136c0 -85 42 -109 85 -109c35 0 69 14 101 45v235c0 52 -8 58 -40 63l-35 6v25c28 1 62 4 92 7
c29 3 55 8 71 11v-332c0 -51 8 -58 46 -61z" />
    <glyph glyph-name="Uhungarumlaut" unicode="&#x170;" horiz-adv-x="735" 
d="M717 650v-29c-59 -5 -82 -19 -87 -59c-3 -28 -6 -70 -6 -158v-87c0 -116 -18 -201 -75 -261c-46 -48 -113 -70 -180 -70c-60 0 -118 14 -163 48c-59 46 -87 121 -87 238v246c0 91 -9 95 -87 103v29h266v-29c-77 -6 -85 -12 -85 -103v-224c0 -160 62 -251 183 -251
c139 0 185 115 185 281v80c0 88 -3 129 -7 160c-6 38 -27 52 -97 57v29h240zM553 797l-100 -113l-26 13c17 43 34 88 49 124c21 3 64 -6 76 -13zM408 796l-100 -112l-26 13l49 124c20 2 65 -7 76 -14z" />
    <glyph glyph-name="uhungarumlaut" unicode="&#x171;" horiz-adv-x="535" 
d="M194 493l-28 9c14 50 40 147 44 163c9 4 66 14 80 11l3 -9zM335 493l-28 9c14 52 40 147 44 163c9 4 66 14 80 11l3 -9zM522 50v-26c-23 -3 -51 -9 -79 -16c-27 -7 -53 -14 -74 -20l-7 6v69c-22 -17 -42 -33 -69 -49c-29 -17 -52 -26 -79 -26c-70 0 -125 43 -125 148v197
c0 52 -8 58 -33 63l-28 6v25c22 1 48 4 76 7s57 8 76 11c-3 -33 -4 -81 -4 -147v-136c0 -85 42 -109 85 -109c35 0 69 14 101 45v235c0 52 -8 58 -40 63l-35 6v25c28 1 62 4 92 7c29 3 55 8 71 11v-332c0 -51 8 -58 46 -61z" />
    <glyph glyph-name="Uogonek" unicode="&#x172;" horiz-adv-x="732" 
d="M715 650v-29c-59 -4 -81 -19 -86 -59c-4 -29 -7 -71 -7 -160v-85c0 -116 -18 -200 -75 -261c-38 -40 -82 -54 -110 -60c-37 -38 -61 -90 -61 -124c0 -37 26 -50 53 -50c13 0 33 6 47 11l7 -26l-58 -34c-10 -6 -28 -10 -37 -10c-58 0 -83 39 -83 76c0 58 50 113 90 149
c-90 -6 -147 14 -189 46c-59 46 -87 121 -87 238v244c0 93 -9 98 -87 105v29h266v-29c-77 -5 -85 -13 -85 -105v-222c0 -159 59 -250 181 -250c137 0 185 110 185 280v78c0 88 -4 132 -8 162c-6 38 -27 52 -97 57v29h241z" />
    <glyph glyph-name="uogonek" unicode="&#x173;" horiz-adv-x="535" 
d="M523 50v-26c-22 -4 -30 -6 -47 -9c-50 -36 -98 -97 -98 -145c0 -30 23 -46 50 -46c16 0 32 5 47 12l8 -26l-59 -34c-9 -6 -27 -11 -36 -11c-54 0 -81 34 -81 76c0 60 65 123 111 161l-50 -14c-1 2 -3 6 -5 8v67c-22 -17 -42 -33 -70 -49c-29 -17 -52 -26 -79 -26
c-70 0 -125 43 -125 148v196c0 52 -9 58 -34 64l-28 6v25c22 1 49 4 77 7s57 8 75 11c-3 -33 -3 -80 -3 -146v-138c0 -84 42 -108 85 -108c34 0 70 15 102 45v234c0 52 -9 59 -41 64l-33 6v25c27 1 60 4 90 7s55 8 71 11v-333c0 -51 8 -57 46 -60z" />
    <glyph glyph-name="Wcircumflex" unicode="&#x174;" horiz-adv-x="972" 
d="M958 650v-29c-68 -10 -79 -19 -108 -101c-23 -65 -82 -251 -165 -531h-35l-173 489h-2l-160 -489h-36c-52 181 -108 355 -163 533c-25 81 -40 91 -100 99v29h252v-29c-74 -9 -75 -19 -61 -70l119 -399h2l158 489h33l173 -490h2c42 131 95 320 110 389c14 60 10 72 -69 81
v29h223zM641 704l-16 -25c-41 17 -82 40 -123 62c-39 -22 -81 -45 -122 -62l-16 25c44 34 89 70 127 110h24c38 -41 83 -76 126 -110z" />
    <glyph glyph-name="wcircumflex" unicode="&#x175;" horiz-adv-x="685" 
d="M480 508l-25 -18c-34 30 -63 64 -90 96c-27 -32 -56 -66 -90 -96l-25 18c39 55 71 108 102 165h27c30 -57 62 -110 101 -165zM697 438v-27c-50 -7 -59 -19 -79 -73c-32 -82 -76 -213 -122 -349h-30c-40 106 -81 203 -121 305c-38 -99 -78 -197 -117 -305h-31
c-36 120 -75 239 -116 357c-17 52 -26 59 -73 65v27h214v-27c-60 -9 -64 -16 -51 -59l71 -226h2l114 307h28c37 -102 78 -205 119 -310h2c21 65 49 155 66 223c12 49 6 56 -58 65v27h182z" />
    <glyph glyph-name="Ycircumflex" unicode="&#x176;" horiz-adv-x="638" 
d="M625 650v-29c-68 -8 -81 -20 -119 -80c-44 -71 -77 -126 -125 -215c-13 -26 -16 -38 -16 -64v-135c0 -85 8 -92 99 -98v-29h-290v29c88 6 97 13 97 98v129c0 21 -4 31 -20 59l-125 221c-40 68 -52 79 -111 85v29h248v-29c-71 -10 -68 -21 -50 -55
c41 -78 88 -159 131 -234c35 65 89 162 116 223c22 48 19 57 -58 66v29h223zM466 709l-16 -25c-41 17 -82 40 -123 62c-39 -22 -81 -45 -122 -62l-16 25c44 34 89 70 127 110h24c38 -41 83 -76 126 -110z" />
    <glyph glyph-name="ycircumflex" unicode="&#x177;" horiz-adv-x="460" 
d="M360 508l-25 -18c-34 30 -63 64 -90 96c-27 -32 -56 -66 -90 -96l-25 18c39 55 71 108 102 165h27c30 -57 62 -110 101 -165zM479 438v-26c-52 -9 -61 -17 -88 -73c-25 -53 -56 -136 -124 -297c-66 -160 -88 -218 -103 -272c-6 -20 -18 -25 -33 -25c-28 0 -59 25 -59 51
c0 16 9 25 26 37c33 19 53 43 76 85c17 32 24 51 29 64c5 15 4 29 -2 46c-43 119 -89 244 -117 311c-21 52 -31 65 -84 73v26h211v-26c-46 -8 -52 -18 -39 -54l89 -246c27 67 68 181 88 243c12 37 5 48 -51 57v26h181z" />
    <glyph glyph-name="Ydieresis" unicode="&#x178;" horiz-adv-x="638" 
d="M625 650v-29c-68 -8 -81 -20 -119 -80c-44 -71 -77 -126 -125 -215c-13 -26 -16 -38 -16 -64v-135c0 -85 8 -92 99 -98v-29h-290v29c88 6 97 13 97 98v129c0 21 -4 31 -20 59l-125 221c-40 68 -52 79 -111 85v29h248v-29c-71 -10 -68 -21 -50 -55
c41 -78 88 -159 131 -234c35 65 89 162 116 223c22 48 19 57 -58 66v29h223zM427 800h1c28 0 50 -22 50 -52c0 -28 -22 -52 -51 -52c-28 0 -51 24 -51 52c0 30 23 52 51 52zM233 800h1c28 0 50 -23 50 -53c0 -27 -22 -51 -51 -51c-28 0 -51 24 -51 51c0 30 23 53 51 53z" />
    <glyph glyph-name="Zacute" unicode="&#x179;" horiz-adv-x="606" 
d="M563 179l31 -7c-8 -38 -26 -133 -37 -172h-519l-9 15l413 597h-164c-108 0 -124 -9 -141 -35c-12 -19 -24 -45 -35 -89l-30 1c4 66 10 140 12 186h24c13 -24 24 -25 54 -25h400l7 -14l-405 -593c32 -4 87 -6 155 -6c117 0 160 7 188 37c21 22 37 54 56 105zM478 755
l-2 -8l-189 -63l-13 25l160 106c13 -3 41 -43 44 -60z" />
    <glyph glyph-name="zacute" unicode="&#x17a;" horiz-adv-x="424" 
d="M216 492l-27 14c18 41 57 142 64 159c9 5 73 13 86 10l4 -10zM391 141l26 -13c-15 -42 -31 -90 -46 -128h-334l-8 15c86 128 165 254 246 388h-83c-71 0 -86 -15 -114 -72l-15 -28l-26 10c12 40 27 103 35 147h22c6 -16 18 -22 56 -22h232l7 -14l-240 -389h93
c75 0 98 19 135 81z" />
    <glyph glyph-name="Zdotaccent" unicode="&#x17b;" horiz-adv-x="606" 
d="M563 179l31 -7c-8 -38 -26 -133 -37 -172h-519l-9 15l413 597h-164c-108 0 -124 -9 -141 -35c-12 -19 -24 -45 -35 -89l-30 1c4 66 10 140 12 186h24c13 -24 24 -25 54 -25h400l7 -14l-405 -593c32 -4 87 -6 155 -6c117 0 160 7 188 37c21 22 37 54 56 105zM321 813h1
c30 0 54 -24 54 -56c0 -30 -24 -54 -55 -54c-30 0 -55 24 -55 54c0 32 25 56 55 56z" />
    <glyph glyph-name="zdotaccent" unicode="&#x17c;" horiz-adv-x="424" 
d="M223 534c-29 0 -54 25 -54 54c0 32 25 56 55 56s53 -24 53 -56c0 -29 -23 -54 -54 -54zM391 141l26 -13c-15 -42 -31 -90 -46 -128h-334l-8 15c86 128 165 254 246 388h-83c-71 0 -86 -15 -114 -72l-15 -28l-26 10c12 40 27 103 35 147h22c6 -16 18 -22 56 -22h232l7 -14
l-240 -389h93c75 0 98 19 135 81z" />
    <glyph glyph-name="Zcaron" unicode="&#x17d;" horiz-adv-x="606" 
d="M563 179l31 -7c-8 -38 -26 -133 -37 -172h-519l-9 15l413 597h-164c-108 0 -124 -9 -141 -35c-12 -19 -24 -45 -35 -89l-30 1c4 66 10 140 12 186h24c13 -24 24 -25 54 -25h400l7 -14l-405 -593c32 -4 87 -6 155 -6c117 0 160 7 188 37c21 22 37 54 56 105zM443 822
l15 -25c-43 -33 -87 -69 -127 -111h-23c-39 42 -84 77 -127 111l16 25c41 -17 83 -37 123 -61c40 23 82 44 123 61z" />
    <glyph glyph-name="zcaron" unicode="&#x17e;" horiz-adv-x="424" 
d="M308 677l25 -18c-40 -55 -71 -108 -102 -164h-27c-31 57 -62 109 -101 164l25 18c34 -31 63 -63 90 -95c27 31 55 64 90 95zM391 141l26 -13c-15 -42 -31 -90 -46 -128h-334l-8 15c86 128 165 254 246 388h-83c-71 0 -86 -15 -114 -72l-15 -28l-26 10
c12 40 27 103 35 147h22c6 -16 18 -22 56 -22h232l7 -14l-240 -389h93c75 0 98 19 135 81z" />
    <glyph glyph-name="longs" unicode="&#x17f;" horiz-adv-x="272" 
d="M54 438h46v21c0 32 4 57 11 79c7 24 25 73 78 119c37 31 73 48 112 53c37 -1 65 -15 81 -32c11 -12 12 -24 7 -36c-3 -10 -13 -20 -24 -29c-11 -7 -19 -5 -28 4c-21 21 -48 42 -81 42c-25 0 -41 -14 -51 -37c-12 -24 -18 -81 -18 -196v-314c0 -74 6 -78 69 -85v-27h-221
v27c58 6 65 13 65 77v293h-69l-4 11z" />
    <glyph glyph-name="florin" unicode="&#x192;" horiz-adv-x="483" 
d="M183 371l8 43c15 83 45 137 97 182c55 48 94 56 118 56s61 -21 59 -45c0 -17 -22 -51 -39 -44c-16 9 -44 37 -73 37c-16 0 -28 -11 -37 -30c-10 -21 -21 -55 -38 -199h111l-1 -39h-117l-29 -193c-22 -146 -71 -201 -124 -240c-36 -27 -66 -37 -89 -37
c-27 0 -56 21 -55 39c-1 19 25 50 37 50c11 0 40 -33 70 -33c20 0 31 10 38 32c8 24 17 73 31 181l27 201h-88v39h94z" />
    <glyph glyph-name="Ohorn" unicode="&#x1a0;" horiz-adv-x="750" 
d="M361 628c-108 0 -206 -98 -206 -283c0 -184 98 -323 237 -323c108 0 203 93 203 284c0 209 -104 322 -234 322zM383 664c75 0 140 -23 197 -64c13 -7 32 -10 44 -10c44 0 58 25 58 40c0 16 -6 23 -41 27c-8 1 -24 12 -24 31c0 24 20 43 45 43c38 0 68 -24 68 -80
c0 -53 -44 -89 -103 -96c49 -55 80 -131 80 -222c0 -216 -152 -348 -336 -348s-328 142 -328 334c0 178 126 345 340 345z" />
    <glyph glyph-name="ohorn" unicode="&#x1a1;" horiz-adv-x="528" 
d="M246 416c-57 0 -108 -60 -108 -174c0 -126 51 -220 131 -220c57 0 106 42 106 181c0 121 -45 213 -129 213zM260 450c47 0 84 -13 121 -36c12 -5 25 -8 39 -8c37 0 51 16 51 28c0 15 -7 21 -33 26c-7 1 -23 9 -23 29c0 22 20 39 45 39c29 0 56 -19 56 -70
c0 -48 -38 -78 -91 -85c32 -38 52 -89 52 -146c0 -162 -117 -239 -219 -239c-141 0 -222 111 -222 221c0 165 128 241 224 241z" />
    <glyph glyph-name="Uhorn" unicode="&#x1af;" horiz-adv-x="735" 
d="M477 621v29h182c37 0 60 12 60 33c0 16 -14 23 -38 28c-8 2 -25 10 -25 31c0 24 20 42 45 42c37 0 63 -25 63 -76s-34 -77 -67 -87c-43 -12 -63 -21 -67 -61c-3 -28 -6 -68 -6 -156v-87c0 -116 -18 -201 -75 -261c-46 -48 -113 -70 -180 -70c-60 0 -118 14 -163 48
c-59 46 -87 121 -87 238v246c0 91 -9 95 -87 103v29h266v-29c-77 -6 -85 -12 -85 -103v-224c0 -160 62 -251 183 -251c139 0 185 115 185 281v80c0 88 -3 129 -7 160c-6 38 -27 52 -97 57z" />
    <glyph glyph-name="uhorn" unicode="&#x1b0;" horiz-adv-x="551" 
d="M522 50v-26c-23 -3 -51 -9 -79 -16c-27 -7 -53 -14 -74 -20l-7 6v69c-22 -17 -42 -33 -69 -49c-29 -17 -52 -26 -79 -26c-70 0 -125 43 -125 148v197c0 52 -8 58 -33 63l-28 6v25c22 1 48 4 76 7s57 8 76 11c-3 -33 -4 -81 -4 -147v-136c0 -85 42 -109 85 -109
c35 0 69 14 101 45v235c0 52 -8 58 -40 63l-35 6v25c34 1 96 4 128 10c37 4 69 12 69 36c0 15 -8 23 -35 26c-7 1 -23 10 -23 29c0 23 17 41 43 41c31 0 59 -20 59 -71s-41 -78 -78 -87v-298c0 -51 8 -58 46 -61z" />
    <glyph glyph-name="uni01FA" unicode="&#x1fa;" horiz-adv-x="694" 
d="M676 0h-253v29c62 8 70 17 57 57c-12 38 -31 89 -52 147h-210c-15 -43 -29 -84 -42 -125c-20 -61 -13 -71 62 -79v-29h-219v29c65 9 78 16 113 104l206 522l35 10l193 -533c31 -86 45 -96 110 -103v-29zM413 277l-85 248h-3l-91 -248h179zM347 854h1c44 0 89 -32 89 -85
s-45 -86 -90 -86s-89 33 -89 86s44 85 89 85zM347 821h-1c-25 0 -43 -22 -43 -52c0 -31 18 -54 44 -54c27 0 44 23 44 54c0 30 -17 52 -44 52zM483 935l-2 -8l-189 -63l-13 25l160 106c13 -3 41 -43 44 -60z" />
    <glyph glyph-name="uni01FB" unicode="&#x1fb;" horiz-adv-x="444" 
d="M439 40l-90 -52c-17 0 -38 9 -49 20c-13 13 -20 27 -24 43c-40 -27 -88 -63 -116 -63c-73 0 -123 61 -123 123c0 50 26 80 80 98c60 21 134 48 156 66v20c0 70 -32 110 -80 110c-18 0 -33 -7 -43 -19c-12 -14 -21 -36 -29 -67c-5 -18 -16 -25 -32 -25
c-19 0 -47 20 -47 44c0 16 13 27 33 42c29 21 96 59 153 70c31 0 62 -9 84 -27c37 -30 47 -71 47 -125v-182c0 -45 17 -59 34 -59c12 0 26 5 36 10zM273 83v157c-21 -11 -62 -30 -84 -40c-37 -18 -58 -36 -58 -73c0 -52 39 -76 69 -76c24 0 55 15 73 32zM222 499
c-45 0 -90 33 -90 87c0 53 45 84 91 84c44 0 89 -31 89 -84c0 -54 -45 -87 -90 -87zM223 531c27 0 44 24 44 55c0 30 -17 52 -45 52c-25 0 -44 -22 -44 -52c0 -31 19 -55 45 -55zM217 693l-27 14c18 41 57 142 64 159c9 5 73 13 86 10l4 -10z" />
    <glyph glyph-name="AEacute" unicode="&#x1fc;" horiz-adv-x="871" 
d="M822 167l30 -7c-6 -32 -27 -129 -36 -160h-478v29c86 6 94 17 94 107v160h-176c-44 -85 -68 -135 -93 -191c-23 -53 -19 -66 58 -76v-29h-232v29c63 8 81 18 119 86c81 144 165 308 237 447c21 39 19 48 -29 54l-44 5v29h520c1 -24 5 -92 10 -143l-31 -4
c-10 40 -18 65 -33 83c-16 20 -38 27 -104 27h-77c-31 0 -34 -2 -34 -32v-245h85c90 0 97 8 110 76h31v-196h-31c-13 72 -21 79 -110 80h-85v-164c0 -53 6 -73 24 -84c20 -11 54 -11 100 -11c67 0 102 7 124 34c17 19 34 48 51 96zM432 336v272c-7 0 -14 -2 -28 -17
l-129 -255h157zM681 755l-2 -8l-189 -63l-13 25l160 106c13 -3 41 -43 44 -60z" />
    <glyph glyph-name="aeacute" unicode="&#x1fd;" horiz-adv-x="671" 
d="M337 492l-27 14c18 41 57 142 64 159c9 5 73 13 86 10l4 -10zM282 276v24c0 63 -39 105 -84 105c-21 0 -35 -9 -45 -22c-11 -13 -19 -35 -27 -64c-5 -18 -15 -26 -31 -26c-17 0 -49 21 -49 43c0 16 11 29 32 44c32 22 97 57 154 70c29 0 56 -8 75 -22
c18 -12 32 -30 40 -51c39 44 94 73 145 74c87 0 155 -76 155 -154c1 -23 -4 -31 -23 -35c-15 -4 -142 -13 -262 -17c-1 -129 75 -186 152 -186c37 0 73 14 111 49l17 -22c-59 -80 -134 -98 -165 -98c-73 0 -129 35 -161 88l-35 -27c-38 -29 -90 -61 -119 -61
c-76 0 -124 62 -124 121c0 51 25 80 78 100c55 19 135 45 166 67zM469 412h-1c-44 0 -91 -42 -100 -126c54 1 110 1 165 3c15 0 22 5 22 23c0 51 -32 100 -86 100zM203 54h1c28 0 67 13 97 52c-16 34 -20 86 -20 134c-21 -10 -60 -26 -92 -40c-39 -17 -57 -35 -57 -70
c0 -51 36 -76 71 -76z" />
    <glyph glyph-name="Oslashacute" unicode="&#x1fe;" horiz-adv-x="753" 
d="M636 674l-49 -75c72 -59 126 -152 126 -264c0 -214 -150 -350 -339 -350c-62 0 -123 18 -172 49l-57 -80l-27 24l53 77c-73 60 -123 153 -123 265c0 175 129 345 343 345c60 0 117 -16 164 -45l51 74zM220 126l296 436c-39 45 -90 66 -147 66c-112 0 -212 -98 -212 -285
c0 -85 25 -164 63 -217zM540 531l-296 -437c36 -47 90 -72 148 -72c141 0 212 122 212 284c0 97 -27 172 -64 225zM510 760l-2 -8l-189 -63l-13 25l160 106c13 -3 41 -43 44 -60z" />
    <glyph glyph-name="oslashacute" unicode="&#x1ff;" horiz-adv-x="516" 
d="M247 492l-27 14c18 41 57 142 64 159c9 5 73 13 86 10l4 -10zM434 454l-35 -52c52 -41 81 -105 81 -175c0 -158 -115 -239 -220 -239c-43 0 -82 11 -116 30l-38 -54l-26 22l37 52c-52 43 -81 108 -81 172c0 163 130 240 226 240c42 0 76 -10 109 -29l36 52zM161 105
l175 265c-19 28 -51 46 -86 46c-61 0 -117 -61 -117 -182c0 -50 10 -96 28 -129zM356 338l-175 -265c19 -30 49 -51 88 -51c58 0 115 49 115 191c0 46 -9 89 -28 125z" />
    <glyph glyph-name="Scommaaccent" unicode="&#x218;" horiz-adv-x="480" 
d="M415 502l-30 -6c-18 63 -47 134 -132 134c-73 0 -109 -53 -109 -108c0 -70 46 -104 127 -145c83 -42 173 -90 173 -200c0 -107 -90 -192 -226 -192c-40 0 -73 7 -98 15c-26 8 -41 16 -52 21c-8 22 -21 107 -27 158l31 8c16 -62 63 -165 165 -165c73 0 117 46 117 117
s-53 107 -128 147c-71 37 -167 88 -167 198c0 98 79 181 210 181c50 0 94 -13 128 -24c4 -36 10 -76 18 -139zM236 -53h1c38 0 75 -33 75 -82c0 -61 -50 -93 -109 -108l-10 27c39 17 61 34 61 59c0 22 -20 35 -46 42c-7 2 -15 9 -15 24c0 25 22 38 43 38z" />
    <glyph glyph-name="scommaaccent" unicode="&#x219;" horiz-adv-x="370" 
d="M323 325l-27 -7c-20 59 -54 99 -103 99c-36 0 -62 -28 -62 -66c0 -42 36 -65 82 -85c77 -32 128 -67 128 -138c0 -93 -86 -140 -167 -140c-52 0 -99 19 -117 34c-7 14 -16 83 -17 121l28 4c18 -65 63 -125 124 -125c36 0 68 27 68 67c0 42 -26 65 -78 90
c-58 27 -127 61 -127 139c0 72 61 132 155 132c43 0 70 -9 91 -18c8 -22 19 -84 22 -107zM184 -44h1c38 0 75 -33 75 -82c0 -61 -50 -93 -109 -108l-10 27c39 17 61 34 61 59c0 22 -20 35 -46 42c-7 2 -15 9 -15 24c0 25 22 38 43 38z" />
    <glyph glyph-name="uni021A" unicode="&#x21a;" horiz-adv-x="621" 
d="M596 495l-30 -3c-11 49 -21 75 -34 92c-17 22 -34 30 -107 30h-66v-489c0 -80 8 -90 102 -96v-29h-294v29c90 6 98 16 98 96v489h-57c-83 0 -103 -9 -116 -31c-12 -17 -22 -46 -33 -91h-31c4 62 10 129 12 183h21c14 -23 27 -25 55 -25h397c27 0 36 6 51 25h22
c0 -45 5 -121 10 -180zM302 -36h1c38 0 75 -33 75 -82c0 -61 -50 -93 -109 -108l-10 27c39 17 61 34 61 59c0 22 -20 35 -46 42c-7 2 -15 9 -15 24c0 25 22 38 43 38z" />
    <glyph glyph-name="uni021B" unicode="&#x21b;" horiz-adv-x="311" 
d="M303 36l-70 -35c-17 -9 -32 -13 -41 -13c-66 0 -103 39 -103 120v289h-68l-4 11l27 30h45v73l74 68l13 -3v-138h111c10 -10 7 -33 -6 -41h-105v-255c0 -80 34 -94 59 -94c23 0 45 8 59 15zM169 -47h1c38 0 75 -33 75 -82c0 -61 -50 -93 -109 -108l-10 27
c39 17 61 34 61 59c0 22 -20 35 -46 42c-7 2 -15 9 -15 24c0 25 22 38 43 38z" />
    <glyph glyph-name="uni021C" unicode="&#x21c;" horiz-adv-x="522" 
d="M137 267l-11 33c133 51 204 101 204 203c0 78 -50 124 -110 124c-77 0 -116 -55 -144 -146l-31 6c10 56 18 99 23 141c62 14 104 36 178 36c113 0 187 -57 187 -143c1 -69 -55 -118 -117 -157v-3c97 -18 168 -82 168 -181c0 -160 -174 -275 -379 -304l-63 45l6 22
c23 -4 53 -10 88 -10c140 0 242 85 242 214c0 105 -73 147 -132 147c-29 0 -66 -11 -109 -27z" />
    <glyph glyph-name="uni021D" unicode="&#x21d;" horiz-adv-x="389" 
d="M79 108l-11 29c109 48 155 91 155 161c0 57 -35 89 -80 89c-39 0 -73 -22 -112 -60l-20 23c53 64 102 100 167 100c78 0 138 -47 138 -125c0 -39 -19 -69 -47 -95c-11 -12 -28 -24 -42 -34v-1c77 -18 132 -77 132 -160c0 -142 -146 -242 -305 -268l-52 38l6 20
c19 -3 39 -6 61 -6c113 0 193 73 193 186c0 84 -55 124 -101 124c-23 0 -44 -6 -82 -21z" />
    <glyph glyph-name="uni0232" unicode="&#x232;" horiz-adv-x="638" 
d="M625 650v-29c-68 -8 -81 -20 -119 -80c-44 -71 -77 -126 -125 -215c-13 -26 -16 -38 -16 -64v-135c0 -85 8 -92 99 -98v-29h-290v29c88 6 97 13 97 98v129c0 21 -4 31 -20 59l-125 221c-40 68 -52 79 -111 85v29h248v-29c-71 -10 -68 -21 -50 -55
c41 -78 88 -159 131 -234c35 65 89 162 116 223c22 48 19 57 -58 66v29h223zM450 716h-228v55h228v-55z" />
    <glyph glyph-name="uni0233" unicode="&#x233;" horiz-adv-x="460" 
d="M363 547h-225v58h225v-58zM479 438v-26c-52 -9 -61 -17 -88 -73c-25 -53 -56 -136 -124 -297c-66 -160 -88 -218 -103 -272c-6 -20 -18 -25 -33 -25c-28 0 -59 25 -59 51c0 16 9 25 26 37c33 19 53 43 76 85c17 32 24 51 29 64c5 15 4 29 -2 46c-43 119 -89 244 -117 311
c-21 52 -31 65 -84 73v26h211v-26c-46 -8 -52 -18 -39 -54l89 -246c27 67 68 181 88 243c12 37 5 48 -51 57v26h181z" />
    <glyph glyph-name="circumflex" unicode="&#x2c6;" 
d="M315 508l-25 -18c-34 30 -63 64 -90 96c-27 -32 -56 -66 -90 -96l-25 18c39 55 71 108 102 165h27c30 -57 62 -110 101 -165z" />
    <glyph glyph-name="caron" unicode="&#x2c7;" 
d="M290 677l25 -18c-40 -55 -71 -108 -102 -164h-27c-31 57 -62 109 -101 164l25 18c34 -31 63 -63 90 -95c27 31 55 64 90 95z" />
    <glyph glyph-name="uni02C9" unicode="&#x2c9;" 
d="M313 547h-225v58h225v-58z" />
    <glyph glyph-name="breve" unicode="&#x2d8;" 
d="M283 650h30c0 -107 -53 -140 -114 -140c-60 0 -112 33 -112 140h31c7 -51 37 -79 82 -79s75 28 83 79z" />
    <glyph glyph-name="dotaccent" unicode="&#x2d9;" 
d="M200 534c-29 0 -54 25 -54 54c0 32 25 56 55 56s53 -24 53 -56c0 -29 -23 -54 -54 -54z" />
    <glyph glyph-name="ring" unicode="&#x2da;" 
d="M200 499c-45 0 -90 33 -90 87c0 53 45 84 91 84c44 0 89 -31 89 -84c0 -54 -45 -87 -90 -87zM201 531c27 0 44 24 44 55c0 30 -17 52 -45 52c-25 0 -44 -22 -44 -52c0 -31 19 -55 45 -55z" />
    <glyph glyph-name="ogonek" unicode="&#x2db;" 
d="M294 -178l-51 -29c-10 -6 -24 -9 -33 -9c-56 0 -82 40 -82 75c0 49 35 100 61 142h37c-18 -37 -32 -78 -32 -111c0 -35 23 -51 51 -51c14 0 27 3 41 8z" />
    <glyph glyph-name="tilde" unicode="&#x2dc;" 
d="M93 519l-26 17c22 69 54 93 82 93c17 0 30 -5 59 -20c22 -11 38 -19 54 -19c19 0 32 17 45 45l25 -14c-23 -76 -55 -93 -80 -93c-22 0 -42 10 -66 24c-19 10 -32 16 -48 16c-17 0 -31 -15 -45 -49z" />
    <glyph glyph-name="hungarumlaut" unicode="&#x2dd;" 
d="M133 493l-28 9c14 50 40 147 44 163c9 4 66 14 80 11l3 -9zM274 493l-28 9c14 52 40 147 44 163c9 4 66 14 80 11l3 -9z" />
    <glyph glyph-name="uni0374" unicode="&#x374;" horiz-adv-x="236" 
d="M209 644l3 -15l-124 -231l-27 6c18 69 43 195 52 246c13 10 82 3 96 -6z" />
    <glyph glyph-name="uni0375" unicode="&#x375;" horiz-adv-x="236" 
d="M174 123l3 -14c-40 -77 -80 -153 -125 -231l-27 5c18 69 44 196 53 246c13 11 82 4 96 -6z" />
    <glyph glyph-name="uni037E" unicode="&#x37e;" horiz-adv-x="236" 
d="M122 262h-1c-37 0 -66 29 -66 71c0 39 29 69 67 69s67 -30 67 -69c0 -42 -29 -71 -67 -71zM43 -123l-28 7c18 69 45 199 54 245c13 11 82 4 96 -6l3 -14c-40 -77 -81 -155 -125 -232z" />
    <glyph glyph-name="tonos" unicode="&#x384;" horiz-adv-x="362" 
d="M265 668l-68 -171l-29 1c4 48 13 133 13 166c8 9 67 17 80 14z" />
    <glyph glyph-name="dieresistonos" unicode="&#x385;" 
d="M312 524h-1c-28 0 -48 19 -48 47c0 27 20 49 49 49c25 0 45 -22 45 -48c0 -28 -20 -48 -45 -48zM253 674l-49 -174l-26 -2c-3 53 -5 129 -5 173c11 5 67 14 77 13zM91 524h-1c-27 0 -47 19 -47 47c0 27 20 49 48 49c26 0 46 -22 46 -49c0 -28 -20 -47 -46 -47z" />
    <glyph glyph-name="Alphatonos" unicode="&#x386;" horiz-adv-x="694" 
d="M676 0h-253v29c62 8 70 17 57 57c-12 38 -31 89 -52 147h-210c-15 -43 -29 -84 -42 -125c-20 -61 -13 -71 62 -79v-29h-219v29c65 9 78 16 113 104l206 522l35 10l193 -533c31 -86 45 -96 110 -103v-29zM413 277l-85 248h-3l-91 -248h179zM211 698l-68 -171l-29 1
c4 48 13 133 13 166c8 9 67 17 80 14z" />
    <glyph glyph-name="anoteleia" unicode="&#x387;" horiz-adv-x="236" 
d="M118 196h-1c-38 0 -67 28 -67 71c0 39 29 69 68 69s68 -30 68 -69c0 -43 -29 -71 -68 -71z" />
    <glyph glyph-name="Epsilontonos" unicode="&#x388;" horiz-adv-x="570" 
d="M520 164l30 -5c-5 -35 -26 -128 -34 -159h-488v29c90 7 99 15 99 97v395c0 89 -9 93 -85 100v29h450c0 -24 5 -92 9 -145l-31 -5c-9 41 -20 65 -33 85c-15 22 -42 29 -111 29h-71c-32 0 -35 -3 -35 -33v-225h90c89 0 96 8 108 75h30v-193h-30c-13 71 -21 77 -108 77h-90
v-185c0 -47 6 -70 24 -82c19 -12 54 -12 102 -12c72 0 101 8 123 33c18 21 36 55 51 95zM5 698l-68 -171l-29 1c4 48 13 133 13 166c8 9 67 17 80 14z" />
    <glyph glyph-name="Etatonos" unicode="&#x389;" horiz-adv-x="769" 
d="M732 650v-29c-81 -7 -89 -12 -89 -96v-400c0 -84 8 -89 89 -96v-29h-275v29c84 7 92 12 92 96v197h-328v-197c0 -84 8 -89 88 -96v-29h-269v29c79 7 87 12 87 96v400c0 84 -8 89 -90 96v29h267v-29c-75 -7 -83 -12 -83 -96v-159h328v159c0 83 -8 89 -85 96v29h268z
M-2 698l-68 -171l-29 1c4 48 13 133 13 166c8 9 67 17 80 14z" />
    <glyph glyph-name="Iotatonos" unicode="&#x38a;" horiz-adv-x="347" 
d="M309 0h-271v29c80 6 89 12 89 97v397c0 85 -9 91 -89 98v29h271v-29c-80 -7 -89 -13 -89 -98v-397c0 -85 9 -91 89 -97v-29zM-2 698l-68 -171l-29 1c4 48 13 133 13 166c8 9 67 17 80 14z" />
    <glyph glyph-name="Omicrontonos" unicode="&#x38c;" horiz-adv-x="750" 
d="M382 664h1c172 0 324 -131 324 -331c0 -216 -152 -348 -336 -348s-328 142 -328 334c0 178 126 345 339 345zM362 628h-1c-108 0 -206 -98 -206 -283c0 -184 98 -323 237 -323c108 0 203 93 203 284c0 209 -104 322 -233 322zM72 688l-68 -171l-29 1c4 48 13 133 13 166
c8 9 67 17 80 14z" />
    <glyph glyph-name="Upsilontonos" unicode="&#x38e;" horiz-adv-x="657" 
d="M651 621l-5 -13h-13c-51 0 -116 -37 -169 -119c-57 -90 -90 -195 -90 -295v-71c0 -80 8 -88 98 -94v-29h-290v29c89 6 98 14 98 94v76c0 109 -12 187 -50 267c-44 98 -108 140 -187 140c-12 0 -24 0 -37 -3l-5 27c32 18 85 35 127 35c83 0 133 -56 167 -135
c34 -69 43 -158 48 -221h6c13 74 35 141 68 199c43 88 111 157 182 157c23 0 42 -23 52 -44zM-31 698l-68 -171l-29 1c4 48 13 133 13 166c8 9 67 17 80 14z" />
    <glyph glyph-name="Omegatonos" unicode="&#x38f;" horiz-adv-x="759" 
d="M722 149l-19 -149h-246l-5 17c32 52 130 184 130 347c0 160 -75 266 -199 266s-198 -101 -198 -271c0 -153 99 -286 131 -341l-6 -18h-247l-17 149l28 1c22 -64 36 -72 77 -72h86c-51 50 -162 144 -162 283c0 181 135 304 309 304c176 0 307 -120 307 -300
c0 -138 -114 -234 -162 -287h85c45 0 54 5 79 72zM81 688l-68 -171l-29 1c4 48 13 133 13 166c8 9 67 17 80 14z" />
    <glyph glyph-name="iotadieresistonos" unicode="&#x390;" horiz-adv-x="251" 
d="M237 60l8 -27c-26 -20 -62 -45 -101 -45c-32 0 -73 21 -73 100v344l88 19v-332c0 -55 18 -67 39 -67c14 0 27 2 39 8zM232 530h-1c-28 0 -48 19 -48 47c0 27 20 49 49 49c25 0 45 -22 45 -49c0 -28 -20 -47 -45 -47zM194 678l-93 -175l-29 6c15 59 29 117 40 166
c11 5 69 13 79 12zM11 530h-1c-27 0 -47 19 -47 47c0 27 20 49 48 49c26 0 46 -22 46 -49c0 -28 -20 -47 -46 -47z" />
    <glyph glyph-name="Alpha" unicode="&#x391;" horiz-adv-x="694" 
d="M676 0h-253v29c62 8 70 17 57 57c-12 38 -31 89 -52 147h-210c-15 -43 -29 -84 -42 -125c-20 -61 -13 -71 62 -79v-29h-219v29c65 9 78 16 113 104l206 522l35 10l193 -533c31 -86 45 -96 110 -103v-29zM413 277l-85 248h-3l-91 -248h179z" />
    <glyph glyph-name="Beta" unicode="&#x392;" horiz-adv-x="597" 
d="M377 353v-3c102 -15 180 -59 180 -159c0 -66 -37 -118 -95 -150c-51 -29 -120 -41 -199 -41h-227v29c84 6 90 13 90 96v400c0 83 -4 89 -83 96v29h263c76 0 121 -12 154 -34c35 -24 56 -67 56 -114c0 -95 -80 -134 -139 -149zM220 362h42c108 0 153 43 153 127
c0 72 -41 127 -129 127c-24 0 -45 -4 -54 -10s-12 -18 -12 -49v-195zM220 328v-201c0 -72 19 -92 81 -91c77 0 148 42 148 146c0 100 -68 146 -188 146h-41z" />
    <glyph glyph-name="Gamma" unicode="&#x393;" horiz-adv-x="513" 
d="M491 499l-31 -4c-11 43 -21 71 -36 89c-16 22 -38 29 -101 29h-70c-29 0 -33 -3 -33 -32v-452c0 -85 8 -93 98 -100v-29h-278v29c77 6 86 15 86 100v393c0 83 -9 92 -86 98v30h440c1 -32 6 -100 11 -151z" />
    <glyph glyph-name="uni0394" unicode="&#x394;" horiz-adv-x="645" 
d="M604 0h-561v25l268 631l30 9l263 -640v-25zM491 51l-190 479l-192 -479h382z" />
    <glyph glyph-name="Epsilon" unicode="&#x395;" horiz-adv-x="570" 
d="M520 164l30 -5c-5 -35 -26 -128 -34 -159h-488v29c90 7 99 15 99 97v395c0 89 -9 93 -85 100v29h450c0 -24 5 -92 9 -145l-31 -5c-9 41 -20 65 -33 85c-15 22 -42 29 -111 29h-71c-32 0 -35 -3 -35 -33v-225h90c89 0 96 8 108 75h30v-193h-30c-13 71 -21 77 -108 77h-90
v-185c0 -47 6 -70 24 -82c19 -12 54 -12 102 -12c72 0 101 8 123 33c18 21 36 55 51 95z" />
    <glyph glyph-name="Zeta" unicode="&#x396;" horiz-adv-x="606" 
d="M563 179l31 -7c-8 -38 -26 -133 -37 -172h-519l-9 15l413 597h-164c-108 0 -124 -9 -141 -35c-12 -19 -24 -45 -35 -89l-30 1c4 66 10 140 12 186h24c13 -24 24 -25 54 -25h400l7 -14l-405 -593c32 -4 87 -6 155 -6c117 0 160 7 188 37c21 22 37 54 56 105z" />
    <glyph glyph-name="Eta" unicode="&#x397;" horiz-adv-x="769" 
d="M732 650v-29c-81 -7 -89 -12 -89 -96v-400c0 -84 8 -89 89 -96v-29h-275v29c84 7 92 12 92 96v197h-328v-197c0 -84 8 -89 88 -96v-29h-269v29c79 7 87 12 87 96v400c0 84 -8 89 -90 96v29h267v-29c-75 -7 -83 -12 -83 -96v-159h328v159c0 83 -8 89 -85 96v29h268z" />
    <glyph glyph-name="Theta" unicode="&#x398;" horiz-adv-x="743" 
d="M378 665h1c171 0 320 -133 320 -331c0 -215 -149 -349 -333 -349s-323 143 -323 333c0 175 122 347 335 347zM359 628h-1c-109 0 -203 -98 -203 -283s95 -322 232 -322c109 0 201 90 201 281c0 209 -97 324 -229 324zM500 225h-31c-7 65 -12 72 -58 72h-80
c-46 0 -52 -7 -59 -72h-31v219h31c7 -66 13 -72 59 -72h80c46 0 51 6 58 72h31v-219z" />
    <glyph glyph-name="Iota" unicode="&#x399;" horiz-adv-x="347" 
d="M309 0h-271v29c80 6 89 12 89 97v397c0 85 -9 91 -89 98v29h271v-29c-80 -7 -89 -13 -89 -98v-397c0 -85 9 -91 89 -97v-29z" />
    <glyph glyph-name="Kappa" unicode="&#x39a;" horiz-adv-x="678" 
d="M673 0h-162c-72 82 -153 184 -239 289c-23 28 -37 32 -53 29v-188c0 -87 9 -95 91 -101v-29h-267v29c75 6 84 14 84 101v389c0 90 -9 95 -88 102v29h265v-29c-76 -6 -85 -13 -85 -102v-174c21 6 42 20 71 47c57 56 120 121 162 175c29 34 28 45 -18 51l-21 3v29h243v-29
c-73 -7 -99 -17 -162 -75c-42 -38 -108 -105 -171 -170c73 -94 177 -214 230 -275c51 -55 73 -66 120 -72v-29z" />
    <glyph glyph-name="Lambda" unicode="&#x39b;" horiz-adv-x="688" 
d="M673 0h-254v29c64 10 73 20 58 65l-151 427h-3c-50 -144 -106 -285 -145 -407c-21 -65 -11 -75 63 -85v-29h-222v29c64 10 78 20 114 111l202 515l36 10l192 -531c32 -85 48 -97 110 -105v-29z" />
    <glyph glyph-name="Mu" unicode="&#x39c;" horiz-adv-x="890" 
d="M861 0h-269v29c80 8 84 14 83 117l-3 404h-4l-240 -543h-21l-220 529h-3l-14 -280c-4 -82 -4 -127 -3 -165c2 -47 25 -55 92 -61v-30h-234v30c57 6 77 18 84 59c5 34 12 79 19 184l15 206c9 127 3 133 -87 142v29h172l221 -489l225 489h176v-29c-87 -9 -93 -12 -90 -111
l10 -363c2 -104 6 -110 91 -118v-29z" />
    <glyph glyph-name="Nu" unicode="&#x39d;" horiz-adv-x="743" 
d="M720 650v-29c-56 -3 -79 -16 -84 -60c-3 -31 -6 -76 -6 -168v-402h-34l-424 519h-2v-246c0 -91 3 -139 6 -168c5 -49 27 -63 96 -67v-29h-238v29c57 4 82 17 87 65c3 31 7 79 7 170v218c0 71 -2 78 -21 102c-20 25 -41 33 -88 37v29h155l411 -490h3v233
c0 91 -4 137 -7 166c-5 44 -28 58 -99 62v29h238z" />
    <glyph glyph-name="Xi" unicode="&#x39e;" horiz-adv-x="614" 
d="M540 489h-30c-16 71 -19 87 -82 87h-239c-61 0 -66 -18 -82 -87h-30l8 161h448zM477 233h-31c-9 61 -16 69 -69 69h-138c-53 0 -59 -8 -69 -70h-30v214h31c10 -61 15 -69 64 -69h142c53 0 60 7 69 69h31v-213zM567 176l-11 -176h-494l-11 176h29c27 -76 34 -98 115 -98
h227c82 0 89 21 115 98h30z" />
    <glyph glyph-name="Omicron" unicode="&#x39f;" horiz-adv-x="750" 
d="M382 664h1c172 0 324 -131 324 -331c0 -216 -152 -348 -336 -348s-328 142 -328 334c0 178 126 345 339 345zM362 628h-1c-108 0 -206 -98 -206 -283c0 -184 98 -323 237 -323c108 0 203 93 203 284c0 209 -104 322 -233 322z" />
    <glyph glyph-name="Pi" unicode="&#x3a0;" horiz-adv-x="742" 
d="M707 650v-29c-82 -7 -90 -17 -90 -97v-398c0 -81 8 -90 88 -97v-29h-272v29c82 7 90 17 90 97v455c0 28 -6 30 -33 30h-237c-30 0 -34 -3 -34 -32v-453c0 -81 9 -90 85 -97v-29h-265v29c77 7 86 16 86 97v398c0 82 -8 90 -90 97v29h672z" />
    <glyph glyph-name="Rho" unicode="&#x3a1;" horiz-adv-x="569" 
d="M45 650h253c72 0 129 -12 169 -41c41 -30 66 -77 66 -142c0 -131 -97 -193 -196 -206c-15 -2 -33 -2 -44 -1l-73 19v-154c0 -84 8 -90 97 -96v-29h-278v29c79 6 88 14 88 97v397c0 88 -9 92 -82 98v29zM220 561v-248c12 -5 39 -11 69 -11c60 0 139 33 139 161
c0 109 -67 154 -146 154c-26 0 -45 -5 -52 -12c-7 -6 -10 -18 -10 -44z" />
    <glyph glyph-name="Sigma" unicode="&#x3a3;" horiz-adv-x="601" 
d="M573 173l-39 -173h-502v23l260 297l-246 307v23h474c1 -17 6 -91 12 -149l-31 -4c-12 43 -21 68 -36 87c-17 21 -41 29 -113 29h-175l205 -254l-240 -281h275c67 0 95 18 126 102z" />
    <glyph glyph-name="Tau" unicode="&#x3a4;" horiz-adv-x="621" 
d="M596 495l-30 -3c-11 49 -21 75 -34 92c-17 22 -34 30 -107 30h-66v-489c0 -80 8 -90 102 -96v-29h-294v29c90 6 98 16 98 96v489h-57c-83 0 -103 -9 -116 -31c-12 -17 -22 -46 -33 -91h-31c4 62 10 129 12 183h21c14 -23 27 -25 55 -25h397c27 0 36 6 51 25h22
c0 -45 5 -121 10 -180z" />
    <glyph glyph-name="Upsilon" unicode="&#x3a5;" horiz-adv-x="657" 
d="M651 621l-5 -13h-13c-51 0 -116 -37 -169 -119c-57 -90 -90 -195 -90 -295v-71c0 -80 8 -88 98 -94v-29h-290v29c89 6 98 14 98 94v76c0 109 -12 187 -50 267c-44 98 -108 140 -187 140c-12 0 -24 0 -37 -3l-5 27c32 18 85 35 127 35c83 0 133 -56 167 -135
c34 -69 43 -158 48 -221h6c13 74 35 141 68 199c43 88 111 157 182 157c23 0 42 -23 52 -44z" />
    <glyph glyph-name="Phi" unicode="&#x3a6;" horiz-adv-x="760" 
d="M495 658v-29c-63 -5 -70 -11 -70 -51c118 -4 292 -62 292 -242c0 -183 -177 -247 -292 -250c0 -46 8 -53 70 -57v-29h-229v29c61 4 68 11 68 57c-112 3 -291 62 -291 243c0 179 175 245 291 249c0 40 -7 46 -63 51v29h224zM334 119v426c-79 -5 -191 -57 -191 -208
c0 -155 109 -210 191 -218zM425 545v-426c81 7 192 56 192 214c0 155 -111 207 -192 212z" />
    <glyph glyph-name="Chi" unicode="&#x3a7;" horiz-adv-x="661" 
d="M663 0h-273v29c62 8 67 18 48 51l-127 208c-48 -73 -90 -142 -120 -198c-24 -43 -18 -52 49 -61v-29h-233v29c57 6 89 20 117 57c27 33 82 109 164 235l-136 218c-40 62 -56 74 -127 82v29h256v-29c-59 -8 -60 -18 -46 -43c31 -53 67 -109 110 -177c40 60 71 110 97 158
c24 43 19 53 -47 62v29h231v-29c-72 -9 -93 -19 -137 -76c-24 -31 -58 -80 -122 -176l159 -250c45 -68 68 -83 137 -90v-29z" />
    <glyph glyph-name="Psi" unicode="&#x3a8;" horiz-adv-x="736" 
d="M712 659l9 -28c-44 -23 -51 -51 -62 -111l-14 -69c-14 -73 -34 -106 -75 -137c-41 -32 -89 -45 -157 -48v-143c0 -76 9 -88 86 -94v-29h-265v29c77 6 85 18 85 94v143c-64 3 -120 16 -163 49c-40 31 -60 67 -72 138l-11 71c-10 59 -11 87 -58 107l10 28
c40 -5 85 -16 113 -50c15 -18 23 -37 31 -83l11 -60c21 -120 55 -157 139 -164v225c0 76 -8 88 -79 94v29h253v-29c-71 -6 -80 -18 -80 -94v-225c96 6 121 40 143 166l9 57c8 46 18 65 35 84c28 31 72 45 112 50z" />
    <glyph glyph-name="uni03A9" unicode="&#x3a9;" horiz-adv-x="759" 
d="M722 149l-19 -149h-246l-5 17c32 52 130 184 130 347c0 160 -75 266 -199 266s-198 -101 -198 -271c0 -153 99 -286 131 -341l-6 -18h-247l-17 149l28 1c22 -64 36 -72 77 -72h86c-51 50 -162 144 -162 283c0 181 135 304 309 304c176 0 307 -120 307 -300
c0 -138 -114 -234 -162 -287h85c45 0 54 5 79 72z" />
    <glyph glyph-name="Iotadieresis" unicode="&#x3aa;" horiz-adv-x="347" 
d="M309 0h-271v29c80 6 89 12 89 97v397c0 85 -9 91 -89 98v29h271v-29c-80 -7 -89 -13 -89 -98v-397c0 -85 9 -91 89 -97v-29zM271 800h1c28 0 50 -22 50 -52c0 -28 -22 -52 -51 -52c-28 0 -51 24 -51 52c0 30 23 52 51 52zM77 800h1c28 0 50 -23 50 -53
c0 -27 -22 -51 -51 -51c-28 0 -51 24 -51 51c0 30 23 53 51 53z" />
    <glyph glyph-name="Upsilondieresis" unicode="&#x3ab;" horiz-adv-x="657" 
d="M651 621l-5 -13h-13c-51 0 -116 -37 -169 -119c-57 -90 -90 -195 -90 -295v-71c0 -80 8 -88 98 -94v-29h-290v29c89 6 98 14 98 94v76c0 109 -12 187 -50 267c-44 98 -108 140 -187 140c-12 0 -24 0 -37 -3l-5 27c32 18 85 35 127 35c83 0 133 -56 167 -135
c34 -69 43 -158 48 -221h6c13 74 35 141 68 199c43 88 111 157 182 157c23 0 42 -23 52 -44zM443 800h1c28 0 50 -22 50 -52c0 -28 -22 -52 -51 -52c-28 0 -51 24 -51 52c0 30 23 52 51 52zM249 800h1c28 0 50 -23 50 -53c0 -27 -22 -51 -51 -51c-28 0 -51 24 -51 51
c0 30 23 53 51 53z" />
    <glyph glyph-name="alphatonos" unicode="&#x3ac;" horiz-adv-x="525" 
d="M510 77l11 -24c-24 -47 -60 -65 -92 -65c-37 0 -73 28 -84 119l-3 -1c-39 -79 -101 -118 -146 -118c-81 0 -161 89 -161 205c0 92 50 168 110 213c38 30 77 47 104 47c37 0 80 -35 103 -101h3c3 20 7 39 12 55c17 16 48 34 70 44l15 -9c-10 -28 -32 -138 -32 -241
c0 -101 25 -139 50 -139c13 0 28 6 40 15zM220 398h-1c-56 0 -94 -78 -94 -167c1 -104 57 -173 103 -173c58 0 110 76 110 156v26c0 84 -54 158 -118 158zM328 668l-68 -171l-29 1c4 48 13 133 13 166c8 9 67 17 80 14z" />
    <glyph glyph-name="epsilontonos" unicode="&#x3ad;" horiz-adv-x="407" 
d="M375 119l21 -22c-39 -66 -99 -109 -187 -109c-95 0 -171 49 -171 135c0 68 62 92 113 110v2c-59 11 -95 42 -95 95c0 71 77 120 176 120c97 0 137 -41 137 -77c0 -20 -20 -40 -44 -40c-11 0 -18 4 -22 16c-13 43 -36 68 -78 68c-44 0 -76 -34 -76 -79
c0 -40 31 -71 85 -71c24 0 48 1 65 3l5 -8l-27 -52c-12 1 -29 3 -50 3c-63 0 -91 -27 -91 -67c0 -57 48 -93 108 -93c54 0 95 24 131 66zM287 668l-68 -171l-29 1c4 48 13 133 13 166c8 9 67 17 80 14z" />
    <glyph glyph-name="etatonos" unicode="&#x3ae;" horiz-adv-x="513" 
d="M445 -247l-6 -9c-25 2 -71 21 -89 36c2 164 6 326 6 490c0 69 -24 116 -83 116c-42 0 -82 -32 -100 -48v-338c-30 -3 -61 -7 -92 -11c3 46 4 96 4 146v179c0 61 -4 64 -59 74v25c13 7 92 33 130 37c11 -12 17 -46 17 -76c18 13 37 28 62 45c26 18 53 31 81 31
c79 0 124 -54 124 -163l1 -128c0 -188 3 -355 4 -406zM328 668l-68 -171l-29 1c4 48 13 133 13 166c8 9 67 17 80 14z" />
    <glyph glyph-name="iotatonos" unicode="&#x3af;" horiz-adv-x="251" 
d="M237 60l8 -27c-26 -20 -62 -45 -101 -45c-32 0 -73 21 -73 100v344l88 19v-332c0 -55 18 -67 39 -67c14 0 27 2 39 8zM189 668l-68 -171l-29 1c4 48 13 133 13 166c8 9 67 17 80 14z" />
    <glyph glyph-name="upsilondieresistonos" unicode="&#x3b0;" horiz-adv-x="480" 
d="M292 424v9c5 6 35 17 54 17c32 0 96 -57 96 -177c0 -157 -106 -285 -215 -285c-76 0 -138 46 -138 149c0 54 1 121 1 178c0 53 -15 70 -39 70c-14 0 -26 -3 -37 -7l-8 27c24 16 74 45 110 45c37 0 62 -32 62 -105c0 -64 -1 -140 -1 -194c0 -66 41 -101 85 -101
c67 0 108 47 108 192c0 103 -42 160 -78 182zM344 530h-1c-28 0 -48 19 -48 47c0 27 20 49 49 49c25 0 45 -22 45 -49c0 -28 -20 -47 -45 -47zM306 678l-93 -175l-29 6c15 59 29 117 40 166c11 5 69 13 79 12zM123 530h-1c-27 0 -47 19 -47 47c0 27 20 49 48 49
c26 0 46 -22 46 -49c0 -28 -20 -47 -46 -47z" />
    <glyph glyph-name="alpha" unicode="&#x3b1;" horiz-adv-x="525" 
d="M510 77l11 -24c-24 -47 -60 -65 -92 -65c-37 0 -73 28 -84 119l-3 -1c-39 -79 -101 -118 -146 -118c-81 0 -161 89 -161 205c0 92 50 168 110 213c38 30 77 47 104 47c37 0 80 -35 103 -101h3c3 20 7 39 12 55c17 16 48 34 70 44l15 -9c-10 -28 -32 -138 -32 -241
c0 -101 25 -139 50 -139c13 0 28 6 40 15zM220 398h-1c-56 0 -94 -78 -94 -167c1 -104 57 -173 103 -173c58 0 110 76 110 156v26c0 84 -54 158 -118 158z" />
    <glyph glyph-name="beta" unicode="&#x3b2;" horiz-adv-x="514" 
d="M70 -215v582c0 139 21 216 70 272c43 50 92 71 139 71c90 0 148 -63 148 -153c0 -81 -61 -124 -105 -155c39 -8 76 -25 102 -47c39 -33 55 -78 55 -131c0 -152 -170 -239 -240 -239c-30 0 -55 17 -83 44c2 -96 9 -231 11 -277l-9 -9c-28 1 -74 21 -88 42zM216 350l17 53
c28 2 50 7 65 18c24 19 46 52 46 109c0 79 -43 134 -102 134c-90 0 -90 -130 -90 -270c0 -99 1 -222 4 -316c41 -27 78 -36 108 -36c81 0 124 39 124 145c0 103 -69 164 -150 164c-6 0 -15 0 -22 -1z" />
    <glyph glyph-name="gamma" unicode="&#x3b3;" horiz-adv-x="497" 
d="M292 61h3c34 66 97 208 97 291c0 21 -6 43 -13 58c-2 4 -1 9 4 14c13 15 37 29 52 29c22 0 32 -29 32 -62c0 -69 -38 -147 -114 -290c-22 -41 -46 -96 -53 -113c2 -51 12 -153 12 -200c-17 -17 -66 -40 -95 -44l-16 13c3 45 28 175 36 224c-3 76 -37 241 -106 347
c-29 48 -48 61 -109 49l-6 26c30 20 89 47 121 47c31 0 64 -35 95 -117c37 -96 51 -192 60 -272z" />
    <glyph glyph-name="delta" unicode="&#x3b4;" horiz-adv-x="499" 
d="M450 584l-11 -20c-70 61 -141 90 -200 90c-38 0 -49 -12 -49 -26c0 -16 41 -67 114 -135c108 -97 159 -164 159 -274c0 -149 -110 -231 -215 -231c-137 0 -212 113 -212 222c0 119 76 193 193 230c-67 70 -97 110 -97 148c0 59 71 122 144 122c99 1 160 -75 174 -126z
M371 195v1c0 109 -73 181 -118 222c-77 -25 -116 -94 -116 -197c0 -113 57 -198 123 -198c61 0 111 53 111 172z" />
    <glyph glyph-name="epsilon" unicode="&#x3b5;" horiz-adv-x="407" 
d="M375 119l21 -22c-39 -66 -99 -109 -187 -109c-95 0 -171 49 -171 135c0 68 62 92 113 110v2c-59 11 -95 42 -95 95c0 71 77 120 176 120c97 0 137 -41 137 -77c0 -20 -20 -40 -44 -40c-11 0 -18 4 -22 16c-13 43 -36 68 -78 68c-44 0 -76 -34 -76 -79
c0 -40 31 -71 85 -71c24 0 48 1 65 3l5 -8l-27 -52c-12 1 -29 3 -50 3c-63 0 -91 -27 -91 -67c0 -57 48 -93 108 -93c54 0 95 24 131 66z" />
    <glyph glyph-name="zeta" unicode="&#x3b6;" horiz-adv-x="381" 
d="M130 734l17 -5c-2 -58 45 -99 91 -102c39 36 88 68 119 68c13 0 18 -4 19 -13c0 -29 -18 -58 -41 -71c-25 -13 -53 -21 -82 -23c-69 -73 -127 -192 -127 -334c0 -93 26 -145 91 -163c16 -5 33 -10 48 -14c53 -15 97 -38 97 -103c0 -72 -62 -133 -73 -145l-26 17
c11 23 24 55 24 83c0 35 -17 56 -69 70c-19 5 -37 11 -57 17c-79 22 -124 85 -124 204c0 146 78 280 170 371c-67 5 -120 39 -122 78c0 18 16 46 45 65z" />
    <glyph glyph-name="eta" unicode="&#x3b7;" horiz-adv-x="513" 
d="M445 -247l-6 -9c-25 2 -71 21 -89 36c2 164 6 326 6 490c0 69 -24 116 -83 116c-42 0 -82 -32 -100 -48v-338c-30 -3 -61 -7 -92 -11c3 46 4 96 4 146v179c0 61 -4 64 -59 74v25c13 7 92 33 130 37c11 -12 17 -46 17 -76c18 13 37 28 62 45c26 18 53 31 81 31
c79 0 124 -54 124 -163l1 -128c0 -188 3 -355 4 -406z" />
    <glyph glyph-name="theta" unicode="&#x3b8;" horiz-adv-x="493" 
d="M457 356v-1c0 -201 -67 -367 -216 -367c-138 0 -205 166 -205 361s79 361 214 361c142 0 207 -166 207 -354zM131 390h230c-3 142 -37 285 -114 285c-69 0 -114 -137 -116 -285zM362 340h-231c1 -178 49 -317 120 -317c76 0 110 139 111 317z" />
    <glyph glyph-name="iota" unicode="&#x3b9;" horiz-adv-x="251" 
d="M237 60l8 -27c-26 -20 -62 -45 -101 -45c-32 0 -73 21 -73 100v344l88 19v-332c0 -55 18 -67 39 -67c14 0 27 2 39 8z" />
    <glyph glyph-name="kappa" unicode="&#x3ba;" horiz-adv-x="496" 
d="M483 61l6 -28c-27 -34 -64 -45 -92 -45c-29 0 -56 12 -95 68c-28 39 -57 89 -96 155c-8 -10 -19 -22 -36 -45v-166c-29 -3 -59 -7 -90 -11c3 40 4 92 4 151v190c0 46 -4 49 -59 59v24c13 7 97 34 132 37c10 -9 13 -42 13 -91v-146c22 31 102 129 140 170
c50 52 76 68 103 68c29 0 45 -23 45 -45c0 -18 -8 -34 -17 -42c-6 -4 -10 -5 -16 -1c-9 5 -21 10 -37 10c-37 0 -86 -49 -122 -94c17 -33 68 -118 110 -173c31 -43 53 -55 70 -55c15 0 26 4 37 10z" />
    <glyph glyph-name="lambda" unicode="&#x3bb;" horiz-adv-x="496" 
d="M477 54l10 -24c-23 -24 -62 -42 -99 -42c-46 0 -70 38 -100 135c-31 101 -52 170 -70 234c-37 -123 -95 -284 -123 -348l-72 -21l-8 12c60 111 132 268 183 426c-11 40 -20 74 -31 106c-31 93 -57 120 -94 119c-13 0 -28 -4 -40 -8l-7 23c31 27 68 45 99 45
c52 0 94 -41 149 -238c28 -98 65 -226 108 -348c23 -63 43 -77 63 -77c10 0 22 2 32 6z" />
    <glyph glyph-name="uni03BC" unicode="&#x3bc;" horiz-adv-x="517" 
d="M503 57l10 -27c-16 -21 -52 -42 -89 -42c-43 0 -74 29 -81 76h-2c-37 -42 -79 -76 -130 -76c-35 0 -64 19 -80 42h-4v-16c-1 -77 22 -216 36 -256l-12 -13c-24 2 -62 23 -79 40c-4 17 -1 154 -1 261v288c0 37 -1 74 -4 97l90 20c3 -25 2 -69 2 -107v-172
c0 -92 48 -119 88 -119c41 0 75 27 93 49v329l89 20v-335c0 -54 20 -69 40 -69c12 0 25 4 34 10z" />
    <glyph glyph-name="nu" unicode="&#x3bd;" horiz-adv-x="477" 
d="M24 376l-7 27c34 23 86 47 115 47c25 0 46 -20 74 -98c27 -75 60 -181 83 -250c31 56 88 161 88 235c0 27 -8 48 -18 63c-5 6 -5 13 -1 21c9 16 29 30 45 30c27 0 46 -35 46 -70c0 -70 -61 -170 -128 -290l-56 -103h-28c-40 127 -82 249 -108 316c-24 61 -42 77 -66 77
c-15 0 -25 -1 -39 -5z" />
    <glyph glyph-name="xi" unicode="&#x3be;" horiz-adv-x="408" 
d="M352 396l-38 -57c-16 2 -33 4 -57 4c-77 0 -132 -48 -132 -131c0 -62 30 -105 111 -125c14 -3 31 -7 51 -12c45 -11 102 -34 102 -106c0 -70 -62 -130 -72 -140l-27 15c12 23 26 54 26 84c0 34 -20 56 -65 68c-23 6 -42 10 -64 15c-103 23 -150 74 -150 163
c0 59 32 127 130 181c-53 14 -89 58 -89 113c0 49 27 101 92 141c-50 6 -99 36 -102 67c0 21 19 48 38 61l17 -5c0 -46 41 -85 85 -89c43 26 99 48 139 48c17 0 21 -5 20 -17c-6 -31 -26 -51 -43 -59c-24 -8 -67 -14 -110 -11c-32 -21 -56 -56 -56 -103
c0 -44 29 -98 114 -98c23 0 54 3 73 5z" />
    <glyph glyph-name="omicron" unicode="&#x3bf;" horiz-adv-x="513" 
d="M259 450h1c125 0 217 -101 217 -223c0 -162 -117 -239 -219 -239c-141 0 -222 111 -222 221c0 165 128 241 223 241zM247 416h-1c-57 0 -108 -60 -108 -174c0 -126 51 -220 131 -220c57 0 106 42 106 181c0 121 -45 213 -128 213z" />
    <glyph glyph-name="pi" unicode="&#x3c0;" horiz-adv-x="534" 
d="M489 467l28 -6c-5 -39 -16 -73 -25 -89c-14 -4 -55 -4 -75 -4c-5 -69 -5 -148 -4 -221c0 -68 18 -90 40 -90c13 0 29 4 42 10l11 -21c-21 -32 -60 -58 -95 -58c-40 0 -76 27 -76 126c0 92 4 174 8 256c-56 1 -96 1 -135 1v-17c0 -238 -43 -334 -53 -348
c-28 -12 -49 -17 -67 -18l-8 18c60 90 80 266 80 366c-58 1 -95 -10 -128 -35l-16 24c23 29 68 82 178 80c69 0 165 -2 244 -2c28 0 38 3 51 28z" />
    <glyph glyph-name="rho" unicode="&#x3c1;" horiz-adv-x="504" 
d="M74 -255l-7 11c6 24 6 77 6 143c-1 100 -3 216 -3 290c0 84 18 156 93 213c42 32 89 48 124 48c117 0 181 -98 181 -202c0 -160 -148 -257 -234 -260c-26 0 -55 13 -75 33c1 -55 6 -195 4 -232c-9 -21 -62 -42 -89 -44zM379 212v1c0 99 -53 186 -136 186
c-72 0 -87 -70 -87 -166c0 -51 1 -109 3 -149c24 -25 63 -44 98 -44c61 0 122 41 122 172z" />
    <glyph glyph-name="uni03C2" unicode="&#x3c2;" horiz-adv-x="405" 
d="M300 -159l-25 18c22 28 29 58 29 79c0 33 -23 53 -85 66c-18 4 -34 8 -49 12c-97 27 -134 91 -134 184c0 85 43 149 100 194c44 34 96 56 148 56c38 0 62 -9 80 -20c14 -10 18 -21 18 -34c0 -24 -25 -48 -39 -48c-6 0 -12 3 -23 11c-29 23 -59 35 -92 35
c-71 0 -111 -59 -111 -149c0 -92 39 -136 109 -153c14 -3 29 -7 49 -12c58 -14 103 -38 103 -104c0 -62 -50 -114 -78 -135z" />
    <glyph glyph-name="sigma" unicode="&#x3c3;" horiz-adv-x="517" 
d="M284 448h1c60 0 112 -4 151 -4c21 0 39 2 58 24l26 -12c-9 -32 -23 -71 -39 -81c-37 0 -86 7 -122 10l-2 -2c70 -39 97 -103 97 -164c0 -150 -103 -231 -206 -231c-139 0 -213 107 -213 223c0 147 107 239 249 237zM260 393h-1c-68 0 -125 -58 -125 -178
c0 -106 49 -192 121 -192c59 0 109 48 109 189c0 60 -12 106 -34 140c-19 30 -46 41 -70 41z" />
    <glyph glyph-name="tau" unicode="&#x3c4;" horiz-adv-x="449" 
d="M404 466l29 -4c-7 -41 -16 -76 -24 -90c-13 -4 -49 -4 -74 -3c-23 0 -46 1 -68 1c-5 -72 -5 -150 -4 -222c0 -72 24 -90 49 -90c14 0 31 4 45 10l11 -25c-21 -29 -63 -55 -102 -55c-47 0 -81 27 -81 123c0 93 4 179 9 262c-75 2 -120 -4 -165 -36l-16 24
c24 33 70 80 167 80c58 -1 107 -2 170 -3c28 0 41 2 54 28z" />
    <glyph glyph-name="upsilon" unicode="&#x3c5;" horiz-adv-x="480" 
d="M292 424v9c5 6 35 17 54 17c32 0 96 -57 96 -177c0 -157 -106 -285 -215 -285c-76 0 -138 46 -138 149c0 54 1 121 1 178c0 53 -15 70 -39 70c-14 0 -26 -3 -37 -7l-8 27c24 16 74 45 110 45c37 0 62 -32 62 -105c0 -64 -1 -140 -1 -194c0 -66 41 -101 85 -101
c67 0 108 47 108 192c0 103 -42 160 -78 182z" />
    <glyph glyph-name="phi" unicode="&#x3c6;" horiz-adv-x="591" 
d="M235 461l14 -29c-58 -33 -118 -83 -118 -192c0 -117 66 -183 128 -198c-2 88 -2 161 -2 225c2 133 74 183 138 183c78 0 161 -77 161 -206c0 -145 -104 -230 -216 -249c0 -50 3 -106 3 -205c-9 -22 -51 -44 -81 -45l-6 6c2 38 3 106 3 239c-135 7 -224 98 -224 228
c0 135 104 205 200 243zM375 407h-1c-26 0 -37 -18 -36 -96c0 -78 0 -175 2 -274c66 4 135 64 135 191c0 120 -60 179 -100 179z" />
    <glyph glyph-name="chi" unicode="&#x3c7;" horiz-adv-x="470" 
d="M490 -191l8 -28c-29 -25 -63 -37 -91 -37c-37 0 -66 20 -99 100c-24 57 -45 118 -78 212c-55 -120 -105 -236 -142 -325l-12 -1c-18 7 -37 27 -40 53l175 329c-24 69 -51 143 -73 196c-25 60 -43 75 -67 75c-15 0 -30 -4 -46 -10l-8 26c33 28 75 51 107 51
c36 0 62 -34 85 -89c18 -42 42 -113 59 -159c46 94 89 192 106 226l72 22l8 -10c-30 -45 -97 -159 -166 -291c35 -99 78 -214 99 -263c32 -70 55 -90 103 -77z" />
    <glyph glyph-name="psi" unicode="&#x3c8;" horiz-adv-x="606" 
d="M581 450l13 -27c-32 -26 -43 -52 -53 -98c-8 -42 -20 -102 -36 -169c-18 -78 -52 -113 -88 -137c-20 -13 -46 -23 -67 -25l-4 -243l-9 -6c-22 3 -42 15 -44 113l-1 131c-101 3 -167 46 -187 172c-10 59 -14 101 -21 148c-9 59 -24 72 -42 72c-10 0 -18 -1 -27 -4l-9 28
c28 25 67 45 97 45c43 0 65 -44 71 -109c4 -39 7 -75 12 -132c11 -119 51 -163 108 -172l-7 454l59 32l11 -5l-6 -484c65 8 85 57 95 119c8 45 14 111 19 157c5 41 7 66 21 81c19 21 50 46 95 59z" />
    <glyph glyph-name="omega" unicode="&#x3c9;" horiz-adv-x="645" 
d="M446 421v13c5 5 31 16 51 16c37 0 111 -67 111 -186c0 -174 -128 -276 -200 -276c-58 0 -89 38 -106 76c-26 -36 -71 -76 -112 -76c-81 0 -153 87 -153 213c0 114 54 195 153 255l19 -24c-54 -52 -79 -118 -79 -198c0 -111 52 -178 100 -178c47 0 68 48 67 100
c-1 63 -9 137 -12 179l90 20l8 -6c-3 -54 -12 -130 -13 -193c-1 -53 23 -104 75 -104c44 0 90 28 90 171c0 115 -51 177 -89 198z" />
    <glyph glyph-name="iotadieresis" unicode="&#x3ca;" horiz-adv-x="251" 
d="M237 60l8 -27c-26 -20 -62 -45 -101 -45c-32 0 -73 21 -73 100v344l88 19v-332c0 -55 18 -67 39 -67c14 0 27 2 39 8zM33 535c-27 0 -51 23 -51 51c0 30 24 53 52 53s51 -23 51 -53c0 -28 -23 -51 -52 -51zM208 535c-27 0 -51 23 -51 51c0 30 24 53 52 53s51 -23 51 -53
c0 -28 -23 -51 -52 -51z" />
    <glyph glyph-name="upsilondieresis" unicode="&#x3cb;" horiz-adv-x="480" 
d="M292 424v9c5 6 35 17 54 17c32 0 96 -57 96 -177c0 -157 -106 -285 -215 -285c-76 0 -138 46 -138 149c0 54 1 121 1 178c0 53 -15 70 -39 70c-14 0 -26 -3 -37 -7l-8 27c24 16 74 45 110 45c37 0 62 -32 62 -105c0 -64 -1 -140 -1 -194c0 -66 41 -101 85 -101
c67 0 108 47 108 192c0 103 -42 160 -78 182zM150 535c-27 0 -51 23 -51 51c0 30 24 53 52 53s51 -23 51 -53c0 -28 -23 -51 -52 -51zM325 535c-27 0 -51 23 -51 51c0 30 24 53 52 53s51 -23 51 -53c0 -28 -23 -51 -52 -51z" />
    <glyph glyph-name="omicrontonos" unicode="&#x3cc;" horiz-adv-x="513" 
d="M259 450h1c125 0 217 -101 217 -223c0 -162 -117 -239 -219 -239c-141 0 -222 111 -222 221c0 165 128 241 223 241zM247 416h-1c-57 0 -108 -60 -108 -174c0 -126 51 -220 131 -220c57 0 106 42 106 181c0 121 -45 213 -128 213zM328 668l-68 -171l-29 1
c4 48 13 133 13 166c8 9 67 17 80 14z" />
    <glyph glyph-name="upsilontonos" unicode="&#x3cd;" horiz-adv-x="480" 
d="M292 424v9c5 6 35 17 54 17c32 0 96 -57 96 -177c0 -157 -106 -285 -215 -285c-76 0 -138 46 -138 149c0 54 1 121 1 178c0 53 -15 70 -39 70c-14 0 -26 -3 -37 -7l-8 27c24 16 74 45 110 45c37 0 62 -32 62 -105c0 -64 -1 -140 -1 -194c0 -66 41 -101 85 -101
c67 0 108 47 108 192c0 103 -42 160 -78 182zM306 668l-68 -171l-29 1c4 48 13 133 13 166c8 9 67 17 80 14z" />
    <glyph glyph-name="omegatonos" unicode="&#x3ce;" horiz-adv-x="645" 
d="M446 421v13c5 5 31 16 51 16c37 0 111 -67 111 -186c0 -174 -128 -276 -200 -276c-58 0 -89 38 -106 76c-26 -36 -71 -76 -112 -76c-81 0 -153 87 -153 213c0 114 54 195 153 255l19 -24c-54 -52 -79 -118 -79 -198c0 -111 52 -178 100 -178c47 0 68 48 67 100
c-1 63 -9 137 -12 179l90 20l8 -6c-3 -54 -12 -130 -13 -193c-1 -53 23 -104 75 -104c44 0 90 28 90 171c0 115 -51 177 -89 198zM409 667l-68 -171l-29 1c4 48 13 133 13 166c8 9 67 17 80 14z" />
    <glyph glyph-name="uni03D0" unicode="&#x3d0;" horiz-adv-x="501" 
d="M466 221v-1c0 -153 -117 -232 -209 -232c-172 0 -220 162 -220 311c0 171 61 280 116 338c44 46 96 73 147 73c71 0 128 -42 128 -126c-1 -80 -64 -120 -137 -160c125 -16 175 -97 175 -203zM345 568v1c1 52 -29 97 -75 97c-111 0 -135 -197 -138 -288l107 54
c53 28 105 71 106 136zM367 199v1c0 119 -57 181 -127 181c-37 0 -77 -20 -108 -45c-1 -165 45 -311 132 -311c66 0 103 63 103 174z" />
    <glyph glyph-name="uni03D1" unicode="&#x3d1;" horiz-adv-x="496" 
d="M21 228l-6 24c14 13 57 40 95 40c51 0 64 -46 71 -98c2 -15 5 -33 8 -49c9 -59 34 -100 79 -100c70 -1 111 81 112 252c0 27 -1 63 -3 87c-42 -31 -91 -56 -135 -56c-120 0 -184 84 -184 179c0 127 102 205 196 205c104 0 206 -93 208 -340c1 -115 -25 -258 -119 -339
c-32 -28 -69 -45 -107 -45c-76 0 -118 43 -134 127c-4 18 -7 36 -11 56c-6 58 -26 64 -70 57zM221 670h-1c-53 0 -85 -44 -85 -121c0 -89 57 -161 140 -161c34 0 64 6 99 29c-16 149 -73 253 -153 253z" />
    <glyph glyph-name="uni03D5" unicode="&#x3d5;" horiz-adv-x="586" 
d="M339 653l-4 -202c119 -15 215 -93 215 -228c0 -141 -115 -212 -221 -229l-4 -247l-5 -3c-24 3 -49 13 -50 122l-1 124c-141 7 -234 95 -234 220c0 74 31 131 80 171c29 24 65 44 100 56l13 -29c-32 -17 -95 -60 -95 -177c0 -116 65 -181 135 -194v412l-1 171l62 37z
M333 406l-2 -370c66 7 137 43 137 183c0 101 -62 168 -135 187z" />
    <glyph glyph-name="uni03D6" unicode="&#x3d6;" horiz-adv-x="665" 
d="M143 489l-9 28c45 28 117 60 208 60c185 0 289 -119 289 -299c0 -188 -132 -290 -207 -290c-58 0 -97 41 -114 79c-26 -37 -80 -79 -120 -79c-80 0 -154 87 -154 213c0 117 55 195 153 254l18 -25c-53 -50 -78 -113 -78 -194c0 -112 52 -177 100 -177c47 0 79 46 78 97
c-1 59 -8 135 -12 178l90 21l8 -7c-2 -55 -12 -133 -13 -191c0 -53 31 -102 85 -102c48 0 96 45 96 177c0 193 -120 290 -267 290c-52 0 -108 -13 -151 -33z" />
    <glyph glyph-name="uni03DA" unicode="&#x3da;" horiz-adv-x="406" 
d="M371 467l26 -10c-11 -71 -38 -92 -58 -92c-14 0 -31 3 -49 9c-21 6 -47 14 -73 14c-57 0 -103 -49 -103 -149c1 -87 40 -130 109 -147c18 -4 34 -8 53 -12c65 -16 103 -42 103 -105c0 -77 -79 -139 -130 -139c-21 0 -37 16 -37 35c0 13 6 26 18 37c4 4 9 6 15 2
c11 -5 26 -9 42 -9c20 0 38 13 38 38c0 31 -31 50 -102 64c-23 4 -44 10 -64 15c-85 24 -123 87 -123 179c0 87 46 158 100 198c45 36 89 55 130 55c24 0 44 -3 62 -6c18 -4 32 2 43 23z" />
    <glyph glyph-name="uni03DD" unicode="&#x3dd;" horiz-adv-x="456" 
d="M430 452l-34 -68c-28 5 -122 11 -188 11h-35v-261c86 1 153 3 210 10l5 -13l-34 -48c-26 5 -92 7 -182 9v-109c0 -152 -31 -209 -111 -244l-8 8c27 44 33 121 33 245v446h177c75 0 128 4 156 24z" />
    <glyph glyph-name="uni03DE" unicode="&#x3de;" horiz-adv-x="512" 
d="M258 450h1c126 0 218 -101 218 -223c0 -138 -86 -214 -174 -233v-84c0 -24 0 -47 -8 -66c-8 -20 -33 -47 -71 -63l-11 6c2 36 3 95 3 131v74c-115 19 -181 118 -181 217c0 164 128 241 223 241zM247 414h-1c-60 0 -109 -59 -109 -172c0 -125 51 -217 131 -217
c57 0 107 39 107 178c0 120 -45 211 -128 211z" />
    <glyph glyph-name="uni03E0" unicode="&#x3e0;" horiz-adv-x="674" 
d="M77 617l-6 24l43 15c23 7 52 11 71 11c311 0 445 -228 446 -447c0 -171 -71 -303 -141 -386l-25 17c38 65 89 185 89 348c0 27 -2 49 -5 68c-54 -29 -153 -82 -245 -178c-40 -42 -45 -69 -43 -90v-9c-7 -3 -12 -4 -19 -4c-37 0 -78 64 9 146c84 80 195 138 289 187
c-20 87 -59 142 -74 158c-110 -77 -293 -165 -337 -178c-40 -12 -76 9 -86 27l2 10c94 27 251 81 392 175c-69 70 -174 112 -293 112c-23 0 -48 -3 -67 -6z" />
    <glyph glyph-name="uni03F0" unicode="&#x3f0;" horiz-adv-x="545" 
d="M518 89l16 -24c-26 -41 -64 -77 -112 -77c-54 0 -85 46 -85 117c0 61 17 122 32 163l-4 4c-97 -100 -179 -202 -269 -284h-15c-35 12 -53 50 -48 71c26 12 52 33 74 52c19 30 34 85 34 145c0 75 -24 122 -68 122c-16 0 -33 -6 -49 -18l-11 24c34 40 75 67 116 67
c50 0 78 -46 78 -112c0 -54 -18 -121 -42 -182l4 -2c77 80 152 166 204 225c23 30 46 63 67 70c17 1 40 -7 55 -36c4 -8 4 -18 2 -26c-24 -23 -65 -56 -79 -70c-9 -19 -22 -66 -22 -130c-1 -73 26 -122 69 -122c18 0 38 9 53 23z" />
    <glyph glyph-name="afii10023" unicode="&#x401;" horiz-adv-x="570" 
d="M520 164l30 -5c-5 -35 -26 -128 -34 -159h-488v29c90 7 99 15 99 97v395c0 89 -9 93 -85 100v29h450c0 -24 5 -92 9 -145l-31 -5c-9 41 -20 65 -33 85c-15 22 -42 29 -111 29h-71c-32 0 -35 -3 -35 -33v-225h90c89 0 96 8 108 75h30v-193h-30c-13 71 -21 77 -108 77h-90
v-185c0 -47 6 -70 24 -82c19 -12 54 -12 102 -12c72 0 101 8 123 33c18 21 36 55 51 95zM389 800h1c28 0 50 -22 50 -52c0 -28 -22 -52 -51 -52c-28 0 -51 24 -51 52c0 30 23 52 51 52zM195 800h1c28 0 50 -23 50 -53c0 -27 -22 -51 -51 -51c-28 0 -51 24 -51 51
c0 30 23 53 51 53z" />
    <glyph glyph-name="afii10051" unicode="&#x402;" horiz-adv-x="723" 
d="M353 614v-250c49 18 90 30 123 30c125 0 205 -104 205 -236c0 -177 -128 -281 -240 -325l-15 30c61 37 153 110 153 285c0 122 -60 196 -147 196c-29 0 -56 -4 -79 -13v-201c0 -87 8 -95 100 -101v-29h-292v29c89 6 98 12 98 101v484h-53c-80 0 -99 -9 -115 -33
c-13 -19 -21 -45 -33 -91l-31 2c5 61 10 132 12 183h22c14 -23 28 -25 57 -25h399c31 0 41 6 56 25h25c0 -42 4 -114 10 -182l-32 -4c-11 50 -20 74 -35 94c-16 24 -39 31 -110 31h-78z" />
    <glyph glyph-name="afii10052" unicode="&#x403;" horiz-adv-x="516" 
d="M492 506l-32 -5c-11 43 -19 66 -33 86c-15 21 -44 27 -104 27h-63c-39 0 -41 -2 -41 -37v-450c0 -86 8 -92 97 -98v-29h-274v29c75 6 83 12 83 98v396c0 87 -8 92 -81 98v29h437c1 -19 5 -99 11 -144zM412 755l-2 -8l-189 -63l-13 25l160 106c13 -3 41 -43 44 -60z" />
    <glyph glyph-name="afii10053" unicode="&#x404;" horiz-adv-x="647" 
d="M526 309l-373 8c6 -183 106 -292 236 -293c90 0 129 45 159 95c18 28 31 42 47 42c15 0 25 -13 25 -31c0 -24 -21 -56 -56 -85c-41 -34 -113 -60 -187 -60c-230 0 -334 166 -334 331c0 208 147 349 365 349c82 0 153 -24 174 -32c9 -55 14 -102 20 -146l-29 -6
c-30 110 -88 147 -183 147c-146 0 -230 -107 -236 -268l372 8v-59z" />
    <glyph glyph-name="afii10054" unicode="&#x405;" horiz-adv-x="480" 
d="M415 502l-30 -6c-18 63 -47 134 -132 134c-73 0 -109 -53 -109 -108c0 -70 46 -104 127 -145c83 -42 173 -90 173 -200c0 -107 -90 -192 -226 -192c-40 0 -73 7 -98 15c-26 8 -41 16 -52 21c-8 22 -21 107 -27 158l31 8c16 -62 63 -165 165 -165c73 0 117 46 117 117
s-53 107 -128 147c-71 37 -167 88 -167 198c0 98 79 181 210 181c50 0 94 -13 128 -24c4 -36 10 -76 18 -139z" />
    <glyph glyph-name="afii10055" unicode="&#x406;" horiz-adv-x="347" 
d="M309 0h-271v29c80 6 89 12 89 97v397c0 85 -9 91 -89 98v29h271v-29c-80 -7 -89 -13 -89 -98v-397c0 -85 9 -91 89 -97v-29z" />
    <glyph glyph-name="afii10056" unicode="&#x407;" horiz-adv-x="347" 
d="M309 0h-271v29c80 6 89 12 89 97v397c0 85 -9 91 -89 98v29h271v-29c-80 -7 -89 -13 -89 -98v-397c0 -85 9 -91 89 -97v-29zM271 800h1c28 0 50 -22 50 -52c0 -28 -22 -52 -51 -52c-28 0 -51 24 -51 52c0 30 23 52 51 52zM77 800h1c28 0 50 -23 50 -53
c0 -27 -22 -51 -51 -51c-28 0 -51 24 -51 51c0 30 23 53 51 53z" />
    <glyph glyph-name="afii10057" unicode="&#x408;" horiz-adv-x="335" 
d="M310 650v-29c-76 -7 -85 -14 -85 -98v-365c0 -126 -18 -201 -89 -264c-35 -32 -70 -50 -97 -59l-14 30c56 27 85 71 96 129c9 50 11 109 11 191v338c0 84 -9 91 -89 98v29h267z" />
    <glyph glyph-name="afii10058" unicode="&#x409;" horiz-adv-x="892" 
d="M513 528v-146c30 3 62 6 95 6c163 0 244 -70 244 -184c0 -84 -37 -133 -92 -164c-48 -28 -117 -40 -199 -40h-230v29c81 6 89 10 89 102v429c0 50 0 54 -37 54h-102c-35 0 -38 -5 -38 -31c0 -263 -40 -455 -108 -549c-27 -36 -53 -50 -74 -50c-20 0 -41 6 -51 10v20
c46 28 75 63 103 112c42 75 79 228 79 427c0 53 -13 63 -93 68v29h504v-29c-83 -5 -90 -16 -90 -93zM513 348v-209c0 -82 14 -103 82 -103c81 0 151 43 151 161c0 113 -70 156 -167 156c-32 0 -51 -3 -66 -5z" />
    <glyph glyph-name="afii10059" unicode="&#x40a;" horiz-adv-x="964" 
d="M585 375h95c160 0 246 -64 246 -176c0 -77 -35 -128 -91 -160c-48 -28 -120 -39 -196 -39h-229v29c75 6 82 10 82 99v206h-273v-207c0 -87 8 -93 85 -98v-29h-263v29c75 5 85 11 85 98v399c0 83 -8 89 -86 95v29h262v-29c-74 -6 -83 -13 -83 -94v-152h273v145
c0 89 -7 95 -79 101v29h259v-29c-78 -6 -87 -12 -87 -100v-146zM585 334v-211c0 -73 13 -87 82 -86c76 0 154 35 154 152c0 104 -63 145 -171 145h-65z" />
    <glyph glyph-name="afii10060" unicode="&#x40b;" horiz-adv-x="778" 
d="M752 0h-245v29c63 6 70 12 70 89v106c0 55 -19 120 -120 120c-46 0 -79 -11 -104 -21v-194c0 -86 9 -95 88 -101v-28h-275v28c85 6 93 15 93 101v485h-59c-82 0 -100 -10 -115 -37c-12 -21 -20 -49 -29 -81h-31c5 61 10 128 12 179h21c14 -23 29 -25 54 -25h412
c27 0 38 6 52 25h24c0 -42 4 -115 10 -176l-31 -3c-9 35 -16 61 -30 84c-15 27 -41 34 -117 34h-79v-258c63 24 107 39 151 39c67 0 108 -22 132 -48c26 -28 35 -63 35 -119v-109c0 -79 7 -85 81 -91v-28z" />
    <glyph glyph-name="afii10061" unicode="&#x40c;" horiz-adv-x="657" 
d="M642 0h-89c-65 0 -93 32 -122 92l-69 142c-39 84 -78 95 -143 94v-200c0 -87 8 -93 84 -99v-29h-262v29c76 6 84 12 84 98v401c0 81 -8 87 -84 93v29h262v-29c-76 -6 -84 -12 -84 -93v-166c66 1 94 9 127 41c31 29 50 73 87 156c35 77 73 105 118 106c35 0 55 -20 55 -42
c0 -19 -20 -30 -41 -31h-22c-42 0 -64 -34 -111 -129c-38 -77 -80 -102 -97 -111v-3c49 -14 87 -37 120 -95c18 -32 45 -86 77 -145c34 -63 62 -75 110 -80v-29zM479 755l-2 -8l-189 -63l-13 25l160 106c13 -3 41 -43 44 -60z" />
    <glyph glyph-name="afii10062" unicode="&#x40e;" horiz-adv-x="655" 
d="M642 650v-30c-68 -8 -75 -20 -114 -104c-38 -81 -136 -313 -177 -399c-58 -123 -115 -145 -164 -145c-34 0 -64 17 -71 40c-7 17 -3 34 12 47c13 11 29 13 44 2c18 -15 40 -21 58 -21c47 0 80 77 80 99c0 16 -5 31 -17 59l-176 356c-23 48 -36 57 -100 66v30h244v-30
l-30 -6c-28 -5 -30 -16 -13 -53l152 -311c44 104 82 187 117 290c18 54 10 69 -27 74l-35 6v30h217zM339 696h-1c-77 0 -125 33 -125 83c0 20 15 41 38 41c27 0 36 -24 35 -42c-1 -27 19 -44 53 -44c37 0 52 19 52 44c-2 20 10 42 36 42c24 0 38 -19 38 -41
c0 -50 -51 -83 -126 -83z" />
    <glyph glyph-name="afii10145" unicode="&#x40f;" horiz-adv-x="748" 
d="M712 0h-233c-51 0 -62 -17 -69 -53c-7 -35 -14 -93 -19 -143h-34c-5 52 -11 107 -18 143c-9 36 -21 53 -76 53h-228v30c81 5 91 12 91 102v387c0 88 -7 96 -89 101v30h268v-30c-78 -5 -85 -12 -85 -101v-415c0 -59 11 -68 68 -68h163c67 0 78 4 78 68v415
c0 89 -7 96 -88 101v30h270v-30c-82 -5 -88 -13 -88 -100v-388c0 -86 6 -97 89 -102v-30z" />
    <glyph glyph-name="afii10017" unicode="&#x410;" horiz-adv-x="694" 
d="M676 0h-253v29c62 8 70 17 57 57c-12 38 -31 89 -52 147h-210c-15 -43 -29 -84 -42 -125c-20 -61 -13 -71 62 -79v-29h-219v29c65 9 78 16 113 104l206 522l35 10l193 -533c31 -86 45 -96 110 -103v-29zM413 277l-85 248h-3l-91 -248h179z" />
    <glyph glyph-name="afii10018" unicode="&#x411;" horiz-adv-x="588" 
d="M218 578v-201c33 2 63 3 98 3c158 0 234 -70 234 -177c0 -80 -35 -130 -91 -162c-49 -29 -122 -41 -200 -41h-220v28c78 6 86 12 86 101v399c0 83 -8 87 -80 93v29h434c1 -20 5 -94 11 -144l-32 -6c-11 43 -20 69 -34 88c-17 20 -43 26 -99 26h-70c-33 0 -37 -2 -37 -36z
M298 37h1c70 0 145 39 145 156c0 107 -64 150 -167 150c-22 0 -41 -1 -59 -2v-206c0 -80 14 -98 80 -98z" />
    <glyph glyph-name="afii10019" unicode="&#x412;" horiz-adv-x="597" 
d="M377 353v-3c102 -15 180 -59 180 -159c0 -66 -37 -118 -95 -150c-51 -29 -120 -41 -199 -41h-227v29c84 6 90 13 90 96v400c0 83 -4 89 -83 96v29h263c76 0 121 -12 154 -34c35 -24 56 -67 56 -114c0 -95 -80 -134 -139 -149zM220 362h42c108 0 153 43 153 127
c0 72 -41 127 -129 127c-24 0 -45 -4 -54 -10s-12 -18 -12 -49v-195zM220 328v-201c0 -72 19 -92 81 -91c77 0 148 42 148 146c0 100 -68 146 -188 146h-41z" />
    <glyph glyph-name="afii10020" unicode="&#x413;" horiz-adv-x="516" 
d="M492 506l-32 -5c-11 43 -19 66 -33 86c-15 21 -44 27 -104 27h-63c-39 0 -41 -2 -41 -37v-450c0 -86 8 -92 97 -98v-29h-274v29c75 6 83 12 83 98v396c0 87 -8 92 -81 98v29h437c1 -19 5 -99 11 -144z" />
    <glyph glyph-name="afii10021" unicode="&#x414;" horiz-adv-x="654" 
d="M620 37l-24 -207h-31l-13 92c-8 66 -23 78 -72 78h-318c-55 0 -66 -17 -83 -84l-24 -86h-31l5 207h44c15 0 24 4 32 21c56 106 84 301 84 497c0 46 -12 53 -57 60l-39 6v29h519v-29c-77 -6 -85 -12 -85 -104v-428c0 -47 5 -52 34 -52h59zM433 110v437c0 63 -1 66 -39 66
h-114c-39 0 -42 -3 -42 -33c0 -162 -17 -365 -68 -512c-7 -21 -6 -30 20 -30h181c51 0 62 9 62 72z" />
    <glyph glyph-name="afii10022" unicode="&#x415;" horiz-adv-x="570" 
d="M520 164l30 -5c-5 -35 -26 -128 -34 -159h-488v29c90 7 99 15 99 97v395c0 89 -9 93 -85 100v29h450c0 -24 5 -92 9 -145l-31 -5c-9 41 -20 65 -33 85c-15 22 -42 29 -111 29h-71c-32 0 -35 -3 -35 -33v-225h90c89 0 96 8 108 75h30v-193h-30c-13 71 -21 77 -108 77h-90
v-185c0 -47 6 -70 24 -82c19 -12 54 -12 102 -12c72 0 101 8 123 33c18 21 36 55 51 95z" />
    <glyph glyph-name="afii10024" unicode="&#x416;" horiz-adv-x="962" 
d="M945 0h-89c-65 0 -94 34 -122 92l-69 143c-38 84 -77 95 -138 94v-199c0 -87 9 -95 85 -101v-29h-262v29c76 6 85 13 85 101v199c-62 1 -104 -11 -143 -94c-27 -55 -52 -114 -66 -143c-28 -58 -56 -92 -120 -92h-90v29c49 5 77 18 111 81c33 60 59 113 77 144
c34 59 69 82 115 96v3c-18 10 -58 33 -101 122c-43 90 -61 118 -106 118h-19c-21 0 -39 12 -39 31c0 22 19 42 55 41c44 -1 83 -28 117 -105c37 -84 57 -127 88 -157c32 -31 59 -39 121 -40v165c0 81 -9 87 -85 93v29h262v-29c-76 -6 -85 -12 -85 -93v-165c62 1 90 9 122 40
c31 29 50 73 86 156c35 78 74 105 119 106c36 1 54 -20 54 -42c0 -18 -19 -30 -40 -30h-21c-45 0 -64 -35 -103 -116c-43 -91 -85 -114 -102 -124v-3c51 -14 82 -37 116 -96c18 -31 44 -84 77 -144c34 -63 62 -76 110 -81v-29z" />
    <glyph glyph-name="afii10025" unicode="&#x417;" horiz-adv-x="524" 
d="M314 360v-4c92 -14 171 -62 171 -172c0 -137 -132 -199 -252 -199c-57 0 -117 14 -159 45c-28 22 -48 52 -48 78c0 27 19 41 36 41c15 0 30 -14 40 -36c30 -69 78 -92 135 -93c58 -1 138 36 138 159c0 93 -61 153 -119 153c-25 0 -48 -10 -80 -10c-24 0 -43 13 -43 32
s18 33 44 33c30 0 54 -11 80 -11c42 1 96 41 96 121c0 89 -51 133 -116 133c-87 0 -125 -77 -147 -145l-31 4c8 39 15 108 19 137c21 7 44 15 71 23c20 5 67 16 106 16c124 0 198 -64 198 -155c0 -51 -25 -87 -53 -108c-26 -19 -57 -34 -86 -42z" />
    <glyph glyph-name="afii10026" unicode="&#x418;" horiz-adv-x="758" 
d="M718 0h-263v29c77 6 86 11 86 99v256c0 34 0 88 4 184h-3l-306 -518c-8 -13 -9 -25 -9 -38v-12h-187v30c77 6 85 13 85 104v392c0 82 -8 89 -85 95v29h261v-29c-75 -6 -84 -12 -84 -94v-236c0 -45 0 -97 -5 -198h3l304 513c8 14 11 24 11 34v10h188v-29
c-77 -6 -86 -14 -86 -103v-390c0 -87 9 -93 86 -99v-29z" />
    <glyph glyph-name="afii10027" unicode="&#x419;" horiz-adv-x="758" 
d="M718 0h-263v29c77 6 86 11 86 99v256c0 34 0 88 4 184h-3l-306 -518c-8 -13 -9 -25 -9 -38v-12h-187v30c77 6 85 13 85 104v392c0 82 -8 89 -85 95v29h261v-29c-75 -6 -84 -12 -84 -94v-236c0 -45 0 -97 -5 -198h3l304 513c8 14 11 24 11 34v10h188v-29
c-77 -6 -86 -14 -86 -103v-390c0 -87 9 -93 86 -99v-29zM388 697h-1c-77 0 -125 33 -125 83c0 20 15 41 38 41c27 0 36 -24 35 -42c-1 -27 19 -44 53 -44c37 0 52 19 52 44c-2 20 10 42 36 42c24 0 38 -19 38 -41c0 -50 -51 -83 -126 -83z" />
    </font>
</defs>
</svg>
