<?xml version="1.0" standalone="no"?>
<!DOCTYPE svg PUBLIC "-//W3C//DTD SVG 1.1//EN" "http://www.w3.org/Graphics/SVG/1.1/DTD/svg11.dtd" >
<svg xmlns="http://www.w3.org/2000/svg">
<metadata>
This is a custom SVG webfont generated by Font Squirrel.
</metadata>
<defs>
<font id="ParkAvenueRoWdRegular" horiz-adv-x="282" >
<font-face units-per-em="1000" ascent="800" descent="-200" />
<missing-glyph horiz-adv-x="500" />
<glyph unicode=" " />
<glyph unicode="!" horiz-adv-x="275" d="M33 38q2 8 6.5 15t11.5 11q7 5 14.5 8t14.5 4h4.5h4.5q7 -1 13.5 -3t12.5 -6q8 -5 10.5 -13.5t0.5 -20.5q-2 -9 -6.5 -15t-11.5 -11q-4 -2 -7.5 -4t-6.5 -3q-3 0 -6.5 -1t-7.5 -2q-10 -1 -19.5 1t-17.5 6q-7 5 -9.5 13t-0.5 20v1v0zM103 186q-4 -1 -5.5 0t-2.5 3t-1.5 4 t-0.5 4v0.5v1.5h0.5t0.5 1l0.5 0.5l0.5 0.5v0.5v1.5v1.5v1.5q1 11 1.5 22.5t1.5 22.5q2 11 3.5 22.5t3.5 23.5q1 11 2 22.5t3 23.5q2 11 4 22.5t4 22.5t4 22.5t5 23.5q2 11 4.5 22.5t5.5 22.5q1 7 3 16.5t6 22.5q3 12 7 25.5t8 26.5q5 16 11 31t13 29q6 14 14.5 23.5 t17.5 14.5q2 2 4.5 2.5t6.5 1.5t7.5 1.5t7.5 1.5h10t9 -2q5 -1 8.5 -3.5t6.5 -5.5q3 -4 4.5 -7.5t1.5 -7.5v-7.5t-1 -8.5q-1 -1 -1.5 -2.5t-1.5 -2.5l-1.5 -3t-0.5 -3q-1 -3 -2.5 -6t-3.5 -5q0 -1 -0.5 -2t-1.5 -1q-1 -1 -1.5 -2t-0.5 -2l-2.5 -2.5t-1.5 -3.5q-2 -4 -4 -7.5 t-4 -6.5q-2 -4 -4 -7.5t-4 -6.5q-4 -7 -7.5 -13.5t-7.5 -13.5q-11 -21 -21.5 -42t-19.5 -42q-10 -21 -18 -42t-15 -43t-13.5 -43.5t-11.5 -43.5t-9 -43.5t-8 -43.5v-0.5v-0.5q-1 -1 -1 -1.5v-0.5v-1.5v-0.5q-1 -2 -2 -3.5t-2 -3.5q-1 -1 -3 -2t-5 -1v1v0z" />
<glyph unicode="&#x22;" horiz-adv-x="406" d="M113 425h-17l-36 221l-2 4t-1 5v5t1 6q0 8 2.5 16.5t6.5 15.5q5 8 14.5 11.5t23.5 3.5q13 0 21.5 -3.5t13.5 -11.5q5 -7 7.5 -15.5t2.5 -16.5v-6v-5q0 -1 -0.5 -2.5t-0.5 -2.5q0 -2 -0.5 -3t-0.5 -2l-35 -220v0v0zM310 425h-18l-35 221q-1 2 -1.5 4t-0.5 5v5t1 6 q0 8 2 16.5t7 15.5q5 8 14 11.5t22 3.5t22.5 -3.5t13.5 -11.5q5 -7 7.5 -15.5t2.5 -16.5v-6v-5v-2.5v-2.5q-1 -2 -1 -3v-2l-36 -220v0v0z" />
<glyph unicode="#" horiz-adv-x="961" d="M493 710h58l-106 -243h182l108 243h58l-107 -243h196l-16 -39h-198l-65 -148h213l-18 -39h-212l-106 -241h-59l106 241h-184l-106 -241h-57l106 241h-208l19 39h206l65 148h-225l18 39h225l107 243v0v0zM427 428l-66 -148h184l65 148h-183v0v0z" />
<glyph unicode="$" horiz-adv-x="535" d="M173 0h-9h-11h-5.5h-5.5h-6h-6h-4h-4h-8h-8h-6.5t-6.5 -1h-7h-6h-13.5t-12.5 1h-13.5h-13.5q-13 0 -22 2t-17 5q-8 2 -13 6t-9 10t-5.5 12t-2.5 12v1.5v1.5q1 1 1 1.5v1.5v2v2q1 0 1 1v2q6 17 17 32t24 28q15 14 31.5 26.5t35.5 23.5l9 4.5t10 5.5q2 2 4.5 3t5.5 3 q2 1 4.5 2.5t4.5 2.5q13 -8 23 -15.5t16 -14.5q5 -7 -2.5 -13t-29.5 -11q-2 0 -3.5 -0.5t-3.5 -1.5h-1.5h-1.5q-3 -1 -5.5 -1.5t-5.5 -1.5t-5.5 -1.5t-5.5 -1.5t-5.5 -1.5t-5.5 -1.5q-13 -4 -24 -8t-21 -9q-10 -4 -17.5 -10.5t-11.5 -14.5v-1.5t-1 -0.5v-1.5v-0.5v-1.5 t-1 -0.5v-1.5v-0.5q0 -3 0.5 -5.5t1.5 -4.5l3 -4.5t1 -3.5q2 -2 5.5 -3.5t7.5 -2.5t8 -1.5t9 -0.5h2h2h1h2h2h2h2h2h1.5h1.5h2.5h1.5l136 1l68 234q-6 5 -12 10.5t-14 12.5q-4 3 -7.5 6.5l-6.5 6.5q-4 4 -7.5 8t-7.5 8q-10 8 -18 17l-16 18q-7 9 -14.5 18.5t-12.5 19.5 q-7 10 -11.5 20t-6.5 20q-3 11 -2 20.5t5 18.5q6 17 19.5 29t32.5 20t39.5 13.5t41.5 8.5q11 2 21.5 2.5t20.5 1.5h9.5t9.5 1h9h9q0 1 0.5 5t2.5 11q1 7 2.5 14.5t4.5 16.5q2 9 5.5 18t7.5 16q4 8 8.5 11t9.5 1q4 -1 6 -5t2 -12q0 -5 -1.5 -10t-2.5 -10q0 -2 -0.5 -4.5 t-1.5 -5.5q-1 -2 -2 -4.5t-1 -4.5q-1 -2 -1.5 -4t-0.5 -4q-1 -3 -2 -5.5t-2 -5.5q-1 -2 -2 -4.5t-2 -4.5q-1 -4 -2.5 -6.5t-1.5 -3.5q6 -1 13 -1.5t14 -1.5q8 -1 15.5 -1.5t15.5 -1.5q15 -3 29.5 -7t27.5 -10q14 -6 20.5 -15.5t7.5 -21.5q0 -3 -0.5 -5.5t-2.5 -4.5 q0 -1 -0.5 -2.5t-1.5 -2.5q0 -2 -1 -3t-2 -3q-2 -4 -5 -7.5t-7 -7.5q-2 -2 -4 -3.5t-4 -3.5q-2 -1 -4 -2.5t-4 -3.5q-6 -4 -10.5 -6t-8.5 -4q-4 -1 -8 -0.5t-6 1.5q-1 1 -0.5 3t3.5 5q2 3 4.5 7.5t6.5 8.5q1 2 2.5 4t3.5 4q1 1 1.5 2.5t1.5 2.5q1 2 1.5 4t1.5 4q0 1 0.5 3 t1.5 4q1 8 -3.5 15.5t-14.5 14.5t-31.5 12t-55.5 8l-62 -210q3 -4 6 -7t7 -6q2 -1 3.5 -2.5l3.5 -3.5q2 -1 3.5 -2.5l3.5 -3.5q23 -22 43.5 -45t39.5 -48t26 -52t3 -56q-3 -15 -8.5 -28.5t-15.5 -25.5q-9 -13 -22 -23.5t-28 -18.5q-11 -6 -22.5 -9t-23.5 -5 q-13 -1 -25.5 -1.5t-25.5 -0.5h-3h-3h-6h-6h-4.5h-4.5h-4h-4h-7.5h-7.5h-7.5h-7.5l-41 -144q-1 -1 -2 -2.5t-1 -3.5q-1 -1 -2 -3t-2 -3q0 -1 -0.5 -1.5l-1.5 -1.5t-1.5 -2t-2.5 -2q-4 -2 -7.5 -2t-6.5 3q-2 3 -2 8t1 12l41 142v0v0zM216 51q3 -1 6.5 -1.5t7.5 -0.5h8.5h9.5 q6 -1 13.5 -1h14.5h15.5h14.5q19 0 37 3t34 8t23.5 15t7.5 25q0 8 -2.5 15.5t-7.5 16.5t-11 18t-14 18q-4 5 -9 10.5t-11 11.5l-5.5 5.5t-4.5 5.5l-4.5 4.5l-5.5 5.5q-8 8 -15.5 15t-15.5 14q-6 5 -10.5 9t-8.5 9q-2 1 -3 2.5t-3 2.5l-61 -211v0v0zM277 359l55 191 q-2 0 -4 -0.5t-4 -0.5h-4h-4h-4h-4q-2 -1 -4 -1h-4q-17 -1 -32.5 -4t-30.5 -8q-15 -4 -27 -12.5t-20 -20.5q-6 -7 -7 -14.5t2 -16.5q1 -4 3 -8.5t4 -8.5q3 -5 6 -9t7 -9q2 -5 5.5 -9.5t7.5 -9.5l6 -6l6 -6q1 -1 3 -2.5t3 -3.5q3 -3 5.5 -6.5t5.5 -6.5l5.5 -5.5l5.5 -5.5 q6 -5 10.5 -9.5l8.5 -8.5v1v0z" />
<glyph unicode="%" horiz-adv-x="922" d="M600 536h-227q28 -48 24.5 -88.5t-37.5 -74.5t-74.5 -57t-87.5 -34q-30 -8 -58.5 -10.5t-54.5 1.5q-28 3 -46.5 13.5t-27.5 27.5q-6 8 -8.5 17t-2.5 18v18.5v19.5q2 20 9.5 38.5t20.5 36.5t28 32.5t33 25.5l2.5 1t6.5 3t8 4.5t9 5.5q1 0 2.5 0.5t2.5 1.5q2 0 2.5 0.5 t1.5 0.5t1.5 0.5l0.5 0.5l4 2l4 2q4 1 8.5 2.5l7.5 2.5q6 2 9 1t4 -4q0 -3 -3 -7t-11 -9q-7 -5 -15 -11t-16 -13q-3 -2 -5.5 -4.5t-5.5 -4.5q-2 -3 -4.5 -5.5l-4.5 -4.5q-3 -2 -5.5 -4.5l-4.5 -4.5q-2 -3 -3.5 -5.5t-3.5 -4.5q-5 -8 -9 -16.5t-6 -16.5t-3 -16t0 -16 q0 -6 1 -11.5t2 -10.5q1 -2 1.5 -4t1.5 -4q1 -3 2.5 -6.5t3.5 -7.5q6 -10 12.5 -17t15.5 -10q8 -3 19.5 -4.5t25.5 -1.5h4.5h5.5h4.5h6.5h2h2h1h2h2.5h2.5h2.5h2.5q11 0 22.5 0.5t22.5 1.5t22 4t21 7q12 6 23 14t21 18q9 10 15 20.5t8 22.5q5 22 3.5 40t-9.5 33 q-8 14 -24 27t-40 23h-2h-1q-1 -1 -2 -1h-2h-2h-2h-1h-1q-7 -1 -13 -1t-11 1q-6 0 -7.5 3.5t-0.5 10.5q2 5 3.5 8t3.5 5t5.5 3.5t9.5 1.5l365 1q31 -1 40 -5.5t-3 -12.5t-29.5 -25t-40.5 -43q-24 -27 -45 -55.5t-39 -57.5l-18 -30t-18 -29q-9 -15 -17.5 -30t-17.5 -30 q-27 -46 -56 -90.5t-59 -88.5q-30 -43 -69 -81t-88 -72q-1 0 -2 -0.5l-1 -0.5q-1 -1 -2 -1.5t-2 -1.5t-2 -1.5t-1 -1.5q-1 -1 -2 -1.5t-2 -1.5t-2 -1.5t-2 -0.5q-1 -1 -1 -1.5t-1 -0.5l-3 -1.5t-2 -1.5q-4 -2 -7.5 -3t-6.5 -1q-4 0 -6 1t-4 4v1.5v0.5v1.5v0.5q0 1 0.5 2.5 t1.5 3.5l1.5 1.5t1.5 0.5q0 1 0.5 1.5l1.5 1.5l0.5 0.5l1.5 1.5h0.5h0.5q0 1 0.5 1.5t1.5 0.5q3 3 6 5.5t6 4.5q2 2 5 4.5t6 4.5q4 3 7.5 6t6.5 5q4 3 7 6l6 6t6.5 6t7.5 6q3 4 6.5 7t6.5 6q28 31 54 64t48 68q23 35 44.5 70.5t41.5 71.5q1 2 2.5 4.5t2.5 5.5q1 2 2.5 4.5 t2.5 5.5q3 5 6 10.5t7 10.5q19 35 39 66t42 59q22 29 50 56t63 52v1v0zM432 84v0.5v1.5v1.5v1.5q1 36 18 69.5t50 64.5q32 31 71.5 47.5t85.5 18.5q38 2 71 -7t59 -27q26 -19 35 -44.5t1 -57.5q-7 -25 -24.5 -47.5t-46.5 -43.5q-28 -21 -59 -36t-63 -24q-37 -9 -71 -10.5 t-64 6.5q-31 7 -47 28t-16 57v1v0zM497 125q-1 -29 7 -46.5t24 -23.5q17 -6 40.5 -8.5t54.5 -1.5h2h2h2h2h2t2 1h1h1h1.5h1.5q14 1 27 3.5t26 6.5q4 1 8.5 2.5t8.5 3.5q17 6 29 16.5t21 24.5q3 5 4.5 9.5t3.5 9.5q0 2 0.5 3.5t1.5 3.5q0 4 0.5 7.5t0.5 7.5q0 3 -0.5 6.5 t-0.5 7.5q-2 17 -9.5 32t-19.5 30q-12 14 -27 24t-34 14q-37 9 -69 2.5t-58 -27.5q-25 -21 -39 -45.5t-16 -51.5q-1 -1 -1 -2.5v-3.5v-2.5v-3.5v1v0z" />
<glyph unicode="&#x26;" horiz-adv-x="901" d="M315 342h-6t-6 1h-2.5t-2.5 1q-1 0 -2.5 0.5t-2.5 0.5q-19 4 -36 10.5t-32 15.5t-20.5 22.5t-1.5 32.5q5 21 19 39t39 33q24 15 50.5 27t54.5 22l18 6l18 6q4 1 9 2.5t9 2.5q3 1 6.5 1.5t6.5 1.5q10 2 19.5 4t17.5 4q4 1 9 2t11 2q5 1 12 2l14 2q3 1 6.5 1.5t7.5 1.5 q4 0 7.5 0.5t7.5 1.5l16 2l16 2q15 2 30 2.5t30 0.5q14 0 25.5 -1t20.5 -4q6 -2 8.5 -6.5t0.5 -10.5q-1 -6 -5 -12.5t-9 -13.5q0 -1 -0.5 -1.5l-1.5 -1.5t-1.5 -2.5t-2.5 -2.5q-1 -2 -2.5 -3.5t-2.5 -3.5q-5 -6 -9 -10.5t-8 -9.5l-6.5 -6.5l-2.5 -2.5q0 -1 -0.5 -1.5 t-1.5 -0.5l-1.5 -1.5t-0.5 -1.5q-1 -1 -1.5 -2t-2.5 -1q-4 -4 -7.5 -7t-7.5 -5q-4 -1 -9.5 -2.5t-12.5 -1.5v0h-1q0 -1 -1 -1h-2h-2.5h-3.5q-1 0 -2 -0.5t-2 -0.5h-2h-2h-0.5h-1.5h-1.5h-2.5h-2.5t-2.5 -1q-4 0 -8 0.5t-7 1.5q-4 1 -4.5 3t0.5 6q2 3 5 6.5t7 7.5t7.5 8 t7.5 8v0l1 1v0.5v0.5l0.5 0.5l1.5 1.5q11 11 20 21t13 19q5 9 -8 12t-43 1q-32 -3 -62.5 -10.5t-59.5 -21.5q-28 -13 -54 -27.5t-49 -31.5q-3 -2 -6 -4.5t-7 -5.5q-2 -1 -3.5 -3t-3.5 -3l-3.5 -3.5l-3.5 -3.5q-4 -4 -7.5 -8.5t-7.5 -9.5q-4 -4 -7.5 -8.5t-5.5 -9.5 q-4 -7 -6 -14t-3 -13t1 -11t6 -10q9 -10 22 -14.5t31 -4.5t37 1t38 4h2h2h2t3 1q11 1 22.5 2t22.5 2q8 1 15.5 1.5t14.5 0.5q3 -1 5.5 -1h4.5h0.5h1.5q0 -1 1 -1h2h0.5h1.5q0 -1 1 -1h2q6 -1 11.5 -3.5t9.5 -5.5q4 -4 1 -7.5t-14 -8.5q-9 -4 -22 -7.5t-28 -7.5 q-16 -4 -32.5 -8t-33.5 -8q-4 -1 -8.5 -2t-8.5 -2q-2 -1 -4.5 -1.5t-4.5 -0.5q-6 -2 -12.5 -3.5t-12.5 -3.5q-7 -1 -13 -3t-11 -3q-5 -2 -10 -3.5t-10 -3.5q-11 -4 -22.5 -8.5t-22.5 -9.5q-12 -5 -24 -10.5t-25 -11.5q-26 -13 -51 -29t-49 -33q-24 -18 -41.5 -36t-28.5 -36 q-10 -16 -9 -27.5t13 -17.5t27 -8.5t33 -2.5l238 1q8 -1 15.5 -1h14.5h8t8 1q3 0 7 0.5t8 0.5q47 3 90.5 13.5t84.5 28.5q41 17 65 47t34 72q4 20 -1.5 33t-20.5 18t-31 5.5t-35 -2.5q-9 -1 -18 -3.5t-17 -5.5q-4 -1 -8.5 -3t-7.5 -3q-4 -2 -7.5 -3.5t-6.5 -3.5 q-1 -1 -2.5 -1.5t-2.5 -1.5t-2.5 -2t-3.5 -2q-1 -1 -2 -1.5t-2 -0.5l-3 -1.5t-2 -1.5t-2 -1.5l-1 -0.5q-1 -1 -2 -1h-2h-2h-2q-1 -1 -1.5 -1h-1.5h-1.5h-0.5q-1 0 -1.5 0.5t-1.5 0.5h-0.5h-1.5t-2 1t-1 2t-0.5 1.5t-0.5 1.5l0.5 0.5t0.5 1.5t0.5 1t1.5 1l0.5 0.5l0.5 0.5 q0 1 0.5 1.5l1.5 1.5v0v0h0.5t0.5 1h0.5h0.5l6 6l6 6q4 2 7.5 5t7.5 6q8 5 16 10.5t17 9.5q2 2 5 3.5t6 2.5q1 1 2 1.5t2 0.5q0 1 0.5 1t1.5 1q1 0 2.5 1t3.5 2q1 1 2.5 1.5t2.5 1.5q1 0 2.5 0.5t2.5 1.5q1 0 2.5 0.5t2.5 1.5q1 0 2.5 0.5t2.5 1.5q5 2 9 3t9 2q4 1 8.5 1.5 t8.5 1.5q9 1 18.5 1.5t20.5 0.5l129 1q3 -1 7 -1t8 1q5 1 9.5 1.5t9.5 1.5h1.5h1.5h1.5t0.5 1h1.5h0.5q7 1 13.5 1.5t12.5 1.5h6.5h6.5q8 0 11 -3t1 -8q-1 -4 -4.5 -8t-7.5 -8q-1 -1 -3 -2.5t-3 -2.5l-6 -4l-6 -4q-4 -1 -6.5 -2.5t-4.5 -3.5q-2 -1 -3.5 -2t-2.5 -2 q-1 0 -1.5 -0.5l-1.5 -1.5q-6 -3 -12.5 -5t-14.5 -3q-4 -1 -8 -1.5t-7 -0.5h-8h-8h-7.5h-6.5h-3.5t-3.5 1h-2.5h-3.5h-7.5h-5.5h-3.5t-3.5 1h-2.5h-3.5v-1.5v-0.5q-1 -1 -1 -1.5v-0.5v-0.5v-0.5q-1 -1 -1 -1.5v-0.5q-10 -33 -25 -64.5t-37 -61.5q-21 -30 -49.5 -54.5 t-63.5 -43.5q-32 -16 -65 -26t-67 -13q-34 -2 -69 -3t-72 -2h-2.5h-3.5h-2h-2h-1h-1h-2h-1h-2h-2h-1.5h-0.5h-1.5h-1.5h-8t-8 -1h-8h-8h-5.5h-5.5h-11.5h-10.5q-19 0 -37.5 1.5t-35.5 2.5q-18 2 -34 7.5t-31 12.5q-17 8 -26.5 19t-11.5 24q-1 14 0.5 27.5t7.5 28.5q2 9 6 18 t10 18q5 9 11 17.5t13 15.5q2 4 5 7.5t7 7.5q2 2 3 3.5t3 3.5q1 1 2.5 3t2.5 3q22 23 48 41.5t57 32.5q30 14 62 26.5t65 24.5v1v0z" />
<glyph unicode="'" horiz-adv-x="255" d="M167 596q2 9 6 16.5t9 12.5q6 5 12.5 7.5t13.5 3.5q17 2 27.5 -11t12.5 -40q3 -27 -30.5 -64.5t-104.5 -87.5q-9 -7 -16.5 -10t-13.5 -2q-5 1 -3.5 5.5t10.5 12.5l27.5 27.5l18.5 18.5t11.5 13t7.5 11v3t1 3q0 1 0.5 2.5t0.5 2.5q0 3 1 6.5t2 7.5v10.5t1 12.5q1 5 2 10.5 t2 12.5q0 4 1 7.5t1 7.5v1v0z" />
<glyph unicode="(" horiz-adv-x="550" d="M152 32l-4 -20t-3 -19q-2 -10 -3 -20l-2 -20q-2 -20 -3.5 -40t-1.5 -40t1 -39.5t2 -39.5q2 -20 6.5 -40t10.5 -40v-1t1 -2q0 -2 0.5 -3.5t1.5 -2.5v-2v-2t0.5 -1.5t1.5 -0.5q0 -1 0.5 -1.5l0.5 -0.5v-3v-3v-2.5v-2.5q0 -2 -2 -3.5t-4 -2.5h-2.5t-2.5 1t-2.5 1.5t-2.5 2.5 q-3 3 -5.5 6t-4.5 8l-2 4l-2 4l-2 4l-2 4l-2 4t-1 4q-1 3 -2 5l-2 4q-4 10 -7.5 19t-6.5 17t-4 12l-1 4q-12 34 -18 72t-6 80t4.5 84.5t14.5 86.5q9 50 23 99.5t33 97.5t39 89.5t42 77.5q6 11 14 23t18 25q9 14 19.5 27.5t21.5 27.5q17 21 36.5 41.5t39.5 39.5q7 7 14 13 t14 11q14 11 28 20t28 16v0l1 1h0.5h0.5q2 0 2.5 0.5l1.5 1.5v0h1v0v0h0.5t0.5 1h0.5h0.5h0.5h0.5q4 2 7.5 1.5t6.5 -2.5q2 -1 2 -4t-4 -6l-2 -2t-1 -2l-2 -2l-2 -2l-2 -2t-2 -1l-2 -2l-2 -2l-2 -2t-1 -2l-2 -2l-2 -2l-2 -2t-2 -1l-2 -2l-2 -2q-11 -11 -22 -22.5t-21 -22.5 q-11 -11 -21 -23t-19 -24q-26 -35 -49 -73.5t-43 -80.5t-37.5 -84t-32.5 -86q-10 -30 -19 -60t-17 -59q-7 -29 -13.5 -57t-11.5 -55v1v0z" />
<glyph unicode=")" horiz-adv-x="550" d="M332 367q8 39 11.5 79t4.5 80q2 41 -3 80.5t-15 79.5h-0.5t-0.5 1l-0.5 0.5t-0.5 1.5q-1 2 -1.5 3.5t-0.5 2.5l-0.5 0.5l-0.5 0.5l-1.5 1.5t-0.5 1.5v2v2q0 2 -0.5 3t-0.5 3v2.5v2.5q0 2 2 3.5t6 2.5q2 0 4.5 -1.5t5.5 -4.5q2 -3 4.5 -7.5t6.5 -9.5q2 -3 3.5 -6.5 t2.5 -7.5l2 -4t2 -3l2 -4l2 -4q3 -6 4.5 -12.5t3.5 -12.5q1 -3 2 -5.5t2 -5.5l4.5 -12l1.5 -4q11 -34 17 -72.5t6 -80.5t-4.5 -84.5t-13.5 -86.5q-10 -51 -24 -100t-33 -97t-39.5 -89t-41.5 -77q-7 -11 -14.5 -22t-15.5 -24q-9 -12 -18 -25t-19 -26q-19 -23 -38.5 -44 t-41.5 -42t-45 -37t-47 -27q-4 -2 -7.5 -2.5t-5.5 1.5q-3 2 -2.5 5t4.5 7q1 2 3 4.5t4 4.5q1 2 2 3l2 2l3 3l2 2l8.5 8.5t10.5 9.5q5 5 9.5 10t9.5 10l10 10t9 10q5 5 9.5 10.5t9.5 10.5q4 6 8.5 11.5t9.5 11.5q25 35 47.5 73.5t43.5 80.5q20 40 37.5 82.5t32.5 85.5 q2 8 4.5 15t4.5 15q7 22 13.5 44t12.5 44q8 29 14.5 57t11.5 55v1v0z" />
<glyph unicode="*" horiz-adv-x="480" d="M277 513l-10 -5t-14 -6q-7 -3 -15.5 -6.5t-17.5 -7.5q-1 0 -2 -0.5t-2 -0.5q-1 -1 -2 -1.5t-2 -0.5q-1 -1 -2.5 -1.5t-3.5 -0.5q-7 -3 -13.5 -5.5t-12.5 -4.5q-3 -1 -6.5 -2t-6.5 -2q-9 -3 -16 -4.5t-13 -1.5q-4 -1 -8 0t-8 3t-6.5 5t-3.5 7q-1 5 -1 8.5t1 7.5q2 3 6 6 t9 5q2 1 5 2t7 2q4 0 8.5 1t9.5 2t10.5 2t11.5 2q5 0 10.5 1t11.5 2t12.5 1.5t13.5 0.5q3 1 6.5 1.5t6.5 0.5q9 2 17 2.5t14 1.5q-4 2 -10.5 5t-14.5 7q-8 5 -17 9.5t-18 9.5q-1 0 -2 0.5t-2 1.5q-1 0 -2 0.5t-2 1.5q-1 0 -2 0.5t-1 1.5q-1 0 -2 0.5t-2 1.5l-8 4t-8 5 q-3 2 -7 4t-7 4q-7 5 -11.5 8.5t-6.5 6.5l-1.5 1.5t-0.5 1.5q-1 1 -1 2v2q-2 2 -2.5 4.5t0.5 5.5q2 2 3.5 4.5t4.5 4.5q1 1 2 1.5t2 1.5l4 2t4 1t3.5 0.5t3.5 0.5h3.5h3.5q1 -1 2.5 -1.5t2.5 -0.5q1 -1 2.5 -1.5t2.5 -0.5q4 -2 8.5 -6t11.5 -9q6 -5 12.5 -11t13.5 -12 q0 -1 1.5 -2t2.5 -2q0 -1 0.5 -1.5t1.5 -0.5l1.5 -1.5l0.5 -0.5l13 -13l12 -12q5 -6 9 -10.5t8 -7.5v3.5v2.5t0.5 2t0.5 2t0.5 2t0.5 2v10v11t0.5 12t1.5 13q0 9 1 18t3 18q2 8 4 14.5t5 10.5q2 4 4.5 6.5t6.5 3.5q4 2 8.5 2t8.5 -1q6 -1 10.5 -3t7.5 -5t4 -7t1 -9 q-1 -4 -3 -10t-5 -14q-2 -4 -3.5 -8t-2.5 -7q-2 -4 -3.5 -8t-3.5 -8q-1 -1 -2 -2.5t-1 -3.5q0 -1 -0.5 -1.5l-0.5 -0.5q-1 -1 -1 -1.5v-1.5q-4 -7 -7 -13.5t-6 -12.5q-3 -4 -4.5 -8t-3.5 -7q0 -1 -0.5 -2t-1.5 -2q4 2 10.5 4t13.5 6q8 3 16 6.5t18 7.5q1 0 2.5 0.5t3.5 1.5 q1 0 2 0.5t2 1.5l1 0.5t2 1.5q5 2 9.5 4t9.5 3q5 2 9.5 4t9.5 3q9 3 16.5 4.5t13.5 1.5q5 0 9 -0.5t8 -2.5t6.5 -5t3.5 -7q2 -4 1.5 -8.5t-2.5 -7.5q-1 -3 -5 -6t-9 -5q-4 -2 -11.5 -4t-18.5 -4q-10 -1 -21 -2.5t-22 -3.5q-6 -1 -11 -1.5t-11 -0.5q-5 -1 -10 -1.5t-10 -1.5 q-10 -1 -17.5 -2t-12.5 -1l10 -5t14 -8l12 -6l12 -6q3 -1 6 -2.5t6 -3.5q1 -1 2 -1.5t2 -0.5q1 -1 2 -1.5t2 -0.5q1 -1 2.5 -1.5t3.5 -1.5q1 0 1.5 -0.5t1.5 -0.5q8 -4 15 -8.5t13 -9.5q7 -4 11.5 -7.5t7.5 -6.5q0 -1 1 -2l2 -2v-0.5t1 -0.5v-1.5v-0.5q1 -3 1 -5.5t-1 -4.5 q0 -2 -1.5 -3.5t-2.5 -3.5l-0.5 -0.5l-1.5 -1.5q-5 -4 -9.5 -6t-8.5 -2t-9 1t-10 4q-4 2 -9.5 5.5t-11.5 8.5q-5 5 -11.5 11t-13.5 12q-1 1 -2.5 2t-2.5 2q0 1 -0.5 1.5l-1.5 1.5l-0.5 0.5l-1.5 1.5l-6 6l-6 6q-3 2 -5.5 5t-5.5 6l-10.5 10.5l-8.5 8.5v-2v-2q-1 -2 -1 -3v-2 v-2.5v-2.5v-3v-3t-0.5 -4.5t-0.5 -4.5q0 -3 -0.5 -5.5t-0.5 -4.5v-5.5v-4.5q-1 -3 -1 -5.5v-4.5q-1 -10 -1.5 -19t-2.5 -17q-1 -4 -2 -7.5t-1 -6.5l-2 -6t-2 -5q-2 -4 -5.5 -6t-7.5 -4l-8 -2t-9 0q-6 1 -10.5 3t-7.5 5q-2 3 -3 7.5t0 8.5q0 4 1 10t5 13q3 8 6.5 15.5 t7.5 16.5v1.5t1 1.5l0.5 0.5t0.5 1.5q0 2 1 3.5t2 2.5q2 7 5 13.5t7 12.5q3 6 6 10.5t4 8.5v1v0z" />
<glyph unicode="+" horiz-adv-x="1041" d="M496 596h49v-278h341v-40h-341v-278h-49v278h-341v40h341v278v0v0z" />
<glyph unicode="," horiz-adv-x="255" d="M20 47q2 9 5.5 16.5t9.5 12.5q5 5 12 7.5t14 3.5q17 2 27 -10t14 -38q3 -25 -29 -61.5t-97 -85.5l-1 -1l-2 -2l-3.5 -3.5t-4.5 -2.5l-1 -0.5l-3 -1.5q-1 -1 -2 -1.5l-3 -1.5q-2 -2 -4 -2.5t-4 -0.5h-2h-2t-2 0.5t-2 1.5t-1.5 2t-0.5 2v1.5v0.5q1 1 1 1.5v0.5v0.5v0.5 q1 1 1 1.5v0.5l0.5 0.5l0.5 0.5q1 0 1.5 0.5l0.5 0.5l1.5 1.5l0.5 0.5v0.5v0.5l1 1v0q2 1 3 2l2 2l2 2l1 1l1.5 1.5l0.5 0.5h0.5h0.5q0 1 0.5 1h0.5l6 6l6 6l7 7l6 6q6 7 11 13.5t7 14.5q5 7 7.5 14.5t3.5 15.5q0 4 0.5 7.5t1.5 6.5t1.5 6.5t0.5 7.5v4t1 4v3v4q0 4 1 8l2 8 v1v0z" />
<glyph unicode="-" horiz-adv-x="343" d="M-6 115l21 48h230l-23 -48h-228v0v0z" />
<glyph unicode="." horiz-adv-x="255" d="M15 35q2 7 5.5 13t10.5 10q7 5 14.5 7t14.5 3q9 1 17.5 -0.5t15.5 -6.5q8 -4 11 -12t1 -19q-2 -8 -6.5 -14t-11.5 -10q-2 -1 -4.5 -2.5t-4.5 -2.5q-4 -1 -8.5 -2t-9.5 -2q-10 -1 -18 0.5t-16 5.5q-7 5 -10 12.5t-1 18.5v1v0z" />
<glyph unicode="/" horiz-adv-x="347" d="M412 671l-401 -763h-49l399 763h51v0v0z" />
<glyph unicode="0" horiz-adv-x="552" d="M20 93q-1 5 -1.5 10t-0.5 11q0 4 0.5 7.5t1.5 6.5q0 2 0.5 4t0.5 4q5 42 27 81t59 74t83 54t102 22q47 2 81 -10.5t54 -38.5q21 -27 30 -56t5 -61v-2.5v-3.5q-1 -1 -1 -2.5v-3.5q0 -1 -0.5 -2t-0.5 -2q-1 -2 -1.5 -4t-0.5 -4q-8 -33 -29.5 -62t-56.5 -55 q-35 -25 -72.5 -41t-78.5 -20h-2.5t-3.5 -1h-2h-2h-2t-2 -1h-2h-2q-42 -4 -75 -2t-56 9q-23 8 -36.5 30t-15.5 58v1v0zM293 43q28 12 48.5 27t35.5 31q15 17 22 38.5t6 48.5q0 2 -0.5 3.5t-0.5 2.5q0 2 -0.5 3.5t-0.5 2.5q-1 3 -1.5 6.5t-0.5 7.5q-6 24 -19 46.5t-34 41.5 q-21 20 -49 27.5t-62 3.5q-37 -4 -64 -18t-46 -37q-19 -24 -30 -49.5t-14 -52.5q-1 -7 -1.5 -13.5t-0.5 -12.5v-12t1 -12q2 -35 14.5 -54.5t34.5 -24.5q23 -4 50 -5.5t59 -0.5h12.5h13.5h4.5h4.5h2t2 1h6.5h7.5v1v0z" />
<glyph unicode="1" horiz-adv-x="292" d="M2 -11q4 6 7.5 10t6.5 8q2 2 3.5 4.5t3.5 4.5q5 7 9.5 13.5t8.5 13.5q6 8 10.5 16t8.5 17q2 3 3.5 6t2.5 6q5 12 9 25.5t8 28.5q2 8 4 15.5t4 15.5q4 16 8 31.5t8 30.5q7 23 16 45.5t22 44.5q-18 -6 -36 -11.5t-36 -10.5q-17 -4 -35 -8t-37 -6v26h2.5h3.5h1.5h1.5h2t2 1 h2h2q21 3 41 7t39 8q20 5 39 12t35 16l2 1l4 2q3 2 6.5 3.5t7.5 2.5q1 1 2.5 1.5t2.5 1.5q1 0 2.5 0.5t2.5 1.5q3 1 6 1.5t6 1.5q2 1 5 1.5t6 0.5q5 0 6.5 -2.5t0.5 -7.5l-2 -4t-1 -3q-1 -2 -2 -3.5t-2 -3.5q-1 -1 -1.5 -2.5t-1.5 -2.5q-2 -2 -3.5 -4.5t-2.5 -4.5 q-2 -2 -3.5 -4t-2.5 -4q-2 -2 -3 -4l-2 -4q-5 -8 -9 -16.5t-6 -17.5q-3 -9 -5 -18l-4 -18q0 -1 -0.5 -2t-0.5 -2t-0.5 -1.5l-0.5 -0.5q0 -2 -0.5 -3.5t-0.5 -3.5q-1 -3 -1.5 -6t-0.5 -6q0 -1 -0.5 -2.5t-0.5 -2.5q-1 -2 -1.5 -4.5t-0.5 -4.5q0 -1 -0.5 -3t-0.5 -3 q-1 -2 -1 -3.5v-3.5q-7 -36 -19 -68t-29 -59q-16 -27 -42 -51t-63 -45l-16 10v0v0z" />
<glyph unicode="2" horiz-adv-x="481" d="M-30 0q3 11 9.5 22t15.5 23q8 12 21 24t29 24q6 5 11.5 9t12.5 9q6 4 12.5 8.5t13.5 8.5q13 9 27 18t29 18q38 23 72 45.5t64 44.5q30 21 40.5 40.5t0.5 35.5q-5 8 -13.5 14t-22.5 9q-13 3 -27 4t-29 1q-13 -1 -25.5 -2.5t-23.5 -3.5q-12 -3 -21.5 -6t-14.5 -6 q-7 -4 -13 -7.5t-10 -8.5q-4 -4 -6.5 -8t-4.5 -8q-3 -4 -4.5 -8.5t-1.5 -9.5q0 -1 -0.5 -2.5t-0.5 -3.5q-1 -3 -1.5 -5.5t-0.5 -4.5q-1 -4 -1.5 -8.5t-1.5 -7.5t-3 -5t-5 -4q-1 -1 -2.5 -1.5t-2.5 -0.5l-3 -1.5t-3 -0.5q-4 -1 -7 -1h-6q-7 -1 -13.5 0.5t-12.5 4.5 q-5 3 -7.5 9t-1.5 16q3 23 16.5 40t36.5 29q23 11 48.5 18.5t53.5 11.5q7 1 13.5 1.5t12.5 0.5q6 1 12.5 1h13.5q13 0 24.5 -0.5t22.5 -2.5q38 -5 63 -15.5t36 -26.5t10.5 -33.5t-14.5 -35.5q-4 -6 -10 -12l-12 -12q-7 -6 -14.5 -11.5t-15.5 -10.5q-10 -6 -20.5 -11.5 t-21.5 -11.5q-5 -2 -10.5 -4.5t-10.5 -5.5q-16 -7 -31.5 -14.5t-32.5 -15.5q-25 -11 -49.5 -22.5t-48.5 -23.5q-25 -12 -47 -27t-41 -32l210 1q1 -1 2.5 -1h2.5h2.5h1.5h1.5h0.5h8h9h8.5h8.5t8.5 0.5t8.5 0.5q4 1 8.5 1.5t8.5 1.5q8 2 16.5 4t15.5 6l1 0.5t2 0.5t1.5 0.5 l0.5 0.5q1 0 1.5 0.5t1.5 0.5q1 1 2.5 1.5t3.5 1.5l1 0.5t2 1.5q1 0 2 0.5l3 1.5t5 1.5t6 1.5h3.5t2.5 -1h1.5t1.5 -1t1 -3.5t-1 -4.5l-1.5 -1.5l-1.5 -1.5l-2.5 -2.5t-3.5 -2.5l-2 -2l-2 -2l-1 -1l-1 -1t-2 -1.5l-1 -0.5q-1 -1 -2 -1.5t-2 -0.5q-4 -2 -7.5 -4t-5.5 -4 q-4 -1 -6 -2.5t-3 -1.5q-18 -10 -36 -16.5t-37 -10.5t-39 -6t-42 -2h-217v0v0z" />
<glyph unicode="3" horiz-adv-x="506" d="M-90 -111q2 2 3 2.5t2 0.5l1.5 1.5l1.5 1.5q0 1 0.5 1.5l0.5 0.5l1.5 1.5t0.5 1.5l6 6l6 6q4 3 7 5.5t6 4.5q7 5 15.5 8t19.5 5q2 0 4.5 0.5t5.5 0.5q7 1 14 1.5t15 0.5q11 0 22.5 -0.5t23.5 -1.5h7.5h7.5h6.5h7.5h7.5t7.5 -1h7.5h7.5q13 0 27 1t28 3q6 1 12.5 2t13.5 3 t13.5 4t12.5 4q14 6 26.5 14.5t24.5 20.5q11 12 19.5 24.5t12.5 26.5q1 4 1.5 8t0.5 8q0 3 -0.5 7t-1.5 8q-2 8 -6 15t-11 14t-20 12t-32 8t-38.5 5.5t-40.5 3.5h-14t-13 1h-5h-4h-9h-9h-12.5h-11.5q-6 -1 -11.5 -1h-10.5h-6.5h-4.5h-5.5h-4.5q2 3 4 5.5t4 5.5q2 2 4 4.5 t4 4.5t4 3.5t4 3.5q2 1 4 3t4 3l4 2l4 2q4 2 8.5 3.5t7.5 1.5q6 1 13.5 1.5t15.5 1.5q5 0 12 0.5t14 1.5q8 0 16 1.5t18 2.5q5 1 12 2.5t14 3.5q8 2 15.5 5t14.5 6q23 10 42.5 23.5t37.5 30.5q17 17 22.5 35.5t-1.5 37.5q-4 10 -12.5 16.5t-22.5 9.5q-15 3 -30 4t-31 0 q-11 -1 -22 -2.5t-22 -3.5t-19.5 -4.5t-15.5 -4.5q-1 0 -1.5 -0.5l-0.5 -0.5q-1 -1 -1.5 -1h-1.5h-0.5h-0.5q-1 -1 -1.5 -1h-0.5q-10 -4 -17 -8.5t-11 -9.5q-2 -2 -4 -4.5t-3 -4.5q-2 -3 -3 -5.5t-2 -4.5q-2 -4 -3.5 -8t-1.5 -7v-7v-6q-1 -4 -2 -8.5t-1 -7.5q-1 -3 -3 -5.5 t-4 -4.5l-6 -2t-7 -2q-2 -1 -4 -1.5t-4 -0.5h-4h-4q-4 0 -8 0.5t-8 0.5q-2 1 -4 1.5t-4 0.5q-5 2 -7.5 5.5t-2.5 9.5q0 26 12 45t36 31q23 12 48.5 20t53.5 12q4 1 9 1.5t11 1.5q5 0 11.5 0.5t13.5 1.5q14 1 28.5 1h29.5q24 -1 46 -5t41 -12q20 -7 29.5 -20t9.5 -33 q-1 -18 -10.5 -33t-28.5 -27t-39 -22t-42 -18q-11 -4 -22.5 -8.5t-22.5 -7.5q-11 -4 -21 -7t-18 -6q5 -1 10 -1.5t10 -1.5q3 0 6.5 -0.5t7.5 -1.5q2 0 3.5 -0.5t3.5 -0.5q17 -3 32.5 -7.5t30.5 -10.5t26.5 -15.5t18.5 -22.5q11 -22 8.5 -42.5t-17.5 -39.5t-33 -34.5 t-38 -28.5h-0.5h-0.5h-0.5t-0.5 -1h-0.5h-0.5q-1 0 -1.5 -0.5t-0.5 -1.5q-42 -26 -87 -41.5t-93 -21.5q-10 -1 -19.5 -2t-18.5 -2q-39 -3 -77 -4t-78 1l-3 -1v0z" />
<glyph unicode="4" horiz-adv-x="547" d="M268 0h-295q8 41 25.5 78.5t48.5 71.5q30 35 64.5 65t71.5 56q6 5 13.5 9.5t14.5 8.5q8 5 16 9.5t18 9.5q6 3 11.5 6t11.5 6q5 2 11 5l12 6q11 6 23.5 11.5t25.5 10.5l28 10t28 9q14 5 27 8t25 5q8 1 11 -0.5t3 -4.5t-1.5 -6.5t-4.5 -7.5v-1.5v-0.5l-1 -1v0 q-1 -1 -2 -1.5t-1 -1.5q-1 -2 -2.5 -3.5l-3.5 -3.5q-2 -1 -3 -2.5t-1 -2.5q-13 -20 -24 -42t-20 -45q-8 -23 -15.5 -46.5t-12.5 -47.5q-4 -14 -7.5 -28.5t-6.5 -28.5q-4 -14 -7 -27.5t-6 -27.5q-1 -1 -1.5 -2.5t-0.5 -3.5v-2v-2h15t15 1q7 0 14.5 1t14.5 2q14 2 27 6t26 11 h1.5t1.5 1l0.5 0.5l1.5 1.5q1 0 2 0.5t2 1.5t2 1.5t2 1.5l0.5 0.5l1.5 1.5q1 0 1.5 0.5l1.5 1.5l0.5 0.5t1.5 0.5t2 0.5t2 1.5q1 0 2 0.5t2 0.5h2.5h3.5q1 0 1.5 -0.5t1.5 -0.5q2 -1 2.5 -3.5t-1.5 -5.5l-1.5 -1.5t-0.5 -1.5q-1 -1 -1.5 -2l-0.5 -1q-1 -2 -2.5 -3.5 l-3.5 -3.5q-1 -1 -2 -1.5l-1 -0.5l-1.5 -1.5t-0.5 -1.5q-2 -1 -3 -2l-2 -2q-4 -3 -7.5 -5.5t-6.5 -4.5t-4.5 -3.5t-2.5 -1.5q-13 -10 -27.5 -16.5t-29.5 -10.5t-31.5 -6t-33.5 -2q-1 0 -1.5 -0.5t-0.5 -1.5v-2v-2q-7 -19 -15.5 -37t-17.5 -35q-8 -17 -20.5 -34t-29.5 -33 l-2.5 -2.5l-3.5 -3.5l-2.5 -2.5t-3.5 -2.5l-1.5 -1.5l-1.5 -1.5t-2 -1.5t-2 -1.5t-2 -1.5t-2 -1.5t-1.5 -1t-1.5 -1q-2 -1 -3.5 -2t-2.5 -2q-4 -2 -7 -2.5t-6 -0.5q-4 0 -6.5 1t-4.5 3q-1 2 -1 4.5t1 5.5t3 6t5 6l1.5 1.5l1.5 1.5q0 1 0.5 1.5l1.5 1.5l0.5 0.5l0.5 0.5 q1 2 2.5 3.5l3.5 3.5l1.5 1.5l1.5 1.5l1.5 1.5t0.5 1.5q1 1 2.5 1.5t1.5 1.5q7 10 12.5 20t9.5 21q5 10 9.5 20.5t8.5 21.5q2 6 3.5 11.5t2.5 10.5q2 3 2.5 6.5t1.5 7.5q1 2 1.5 3.5t0.5 2.5v0v0zM277 46q1 4 2 7.5t2 7.5t2 7.5t2 7.5t2 7.5t2 7.5q0 4 1 7.5t2 7.5 q4 17 8.5 32t9.5 30q4 15 9 29.5t11 28.5q5 15 12.5 31t15.5 32q9 16 19.5 33t23.5 35q-71 -28 -127 -59t-97 -65q-40 -34 -74 -81t-61 -107l235 1v0v0z" />
<glyph unicode="5" horiz-adv-x="530" d="M-58 -112q2 2 3.5 3t2.5 2l8 6t7 5q4 3 8.5 6t8.5 5q6 3 11 5t9 4q5 2 10 3t11 2q11 1 25.5 2t30.5 0h4.5h5.5h6h7h5.5h7.5h3.5h3.5h3.5h3.5h11.5t10.5 1q5 0 10.5 0.5t11.5 1.5q11 1 21.5 3.5t20.5 6.5q17 7 32 17t28 23q14 13 24.5 25.5t17.5 26.5v1.5t1 1.5l0.5 0.5 t0.5 1.5v1.5t1 1.5l0.5 0.5l1.5 1.5q1 3 2.5 6t2.5 6t2.5 6.5t2.5 6.5q1 2 1.5 4.5t0.5 4.5q1 5 2.5 9.5t1.5 8.5q4 22 0 42t-15 39q-11 18 -33.5 27t-57.5 9q-28 -1 -52 -7.5t-45 -19.5q-20 -13 -39 -27.5t-36 -29.5q-1 -1 -2.5 -2t-2.5 -2q-1 -2 -2.5 -3t-2.5 -2l-2 -2 l-2 -2l-2 -2l-2 -2l-15 8l58 121q1 2 2 3.5t2 2.5q0 2 1 3.5t2 3.5l2 4l2 4q0 1 1 3l2 4q8 18 18.5 33t22.5 28q13 12 33.5 18.5t50.5 7.5l159 1q12 -1 24.5 -1t25.5 1t25.5 2t25.5 2q-7 -7 -15 -14.5t-16 -13.5t-18.5 -10.5t-21.5 -6.5q-8 -2 -18.5 -3.5t-21.5 -1.5 q-6 0 -11.5 -0.5t-11.5 -0.5h-11.5h-11.5h-14h-14h-8h-8h-4h-4h-3.5h-3.5h-2t-2 1h-5.5h-4.5h-10h-9h-1.5h-0.5h-0.5h-0.5h-1.5h-0.5h-5h-6h-7h-5q-10 -1 -18 -2t-16 -3q-7 -1 -14 -4t-12 -8q-3 -2 -5.5 -4.5l-4.5 -4.5q-1 -1 -1.5 -2t-1.5 -2q-2 -2 -3.5 -4t-2.5 -4 q-2 -3 -3.5 -5.5t-3.5 -5.5q-2 -2 -3.5 -5t-3.5 -6l-4 -6t-3 -5q-2 -3 -3.5 -6t-3.5 -6l-9.5 -19l-8.5 -17q-4 -9 -7.5 -15.5t-5.5 -11.5q1 1 2 1.5l3 1.5q1 0 2 0.5t2 1.5t2.5 2t3.5 2l1.5 1.5t1.5 0.5q20 12 40 22.5t41 19.5q20 9 44 14t51 6q32 1 58 -5.5t48 -20.5 q21 -14 31 -34.5t10 -46.5q-1 -32 -13.5 -60.5t-37.5 -53.5q-24 -24 -52 -44.5t-59 -36.5q-13 -6 -25.5 -12t-23.5 -10q-6 -2 -11.5 -4t-11.5 -4t-11.5 -4t-11.5 -3q-25 -6 -50.5 -10t-50.5 -5t-51 0t-55 3l-2 -1v0z" />
<glyph unicode="6" horiz-adv-x="558" d="M153 303q3 3 6.5 5t6.5 5q6 5 12.5 9.5t13.5 8.5q10 6 20 11t20 9q55 21 103.5 15.5t89.5 -38.5t47.5 -78t-20.5 -103q-18 -37 -47 -66t-70 -50q-41 -22 -86 -31t-94 -7q-25 1 -43 4.5t-31 10.5t-22.5 19.5t-17.5 31.5q-4 8 -6.5 17t-4.5 18t-2.5 18t-0.5 19q0 9 0.5 18 t2.5 18q1 5 2 9t2 9q1 4 2 8.5t2 8.5q17 52 47.5 98.5t75.5 87.5t93.5 77t100.5 67q1 0 2.5 1.5t5.5 4.5q4 2 8 5t9 6q1 0 1 0.5t1 0.5q1 1 2 1.5t2 0.5q2 1 3.5 2t2.5 2q3 2 6 3l6 2q2 1 5 2l6 2q5 2 9 1t6 -3q1 -2 1 -4t-1 -4l-2 -2l-2 -2l-2 -2l-2 -2t-2.5 -2t-3.5 -2 q-1 -1 -1.5 -1t-1.5 -1t-2 -1.5t-2 -1.5t-2 -1.5t-2 -1.5q-4 -2 -7.5 -4t-7.5 -4q-4 -1 -6.5 -2.5t-3.5 -2.5q-10 -6 -17.5 -11.5t-15.5 -10.5q-7 -6 -14.5 -11t-14.5 -10q-9 -7 -17 -14t-16 -13q-8 -7 -15.5 -14t-14.5 -14q-14 -14 -27.5 -29t-26.5 -32q-3 -4 -6 -7.5 t-6 -6.5q-1 -2 -2 -3l-2 -2q-2 -3 -4 -5t-4 -5q-3 -5 -7.5 -10.5t-8.5 -10.5q-2 -3 -4 -5.5t-4 -5.5v1v0zM106 147v-4v-4v-2.5v-3.5q0 -10 1 -19.5t4 -18.5q3 -10 8 -18.5t12 -16.5q5 -7 12 -12t17 -7q5 -1 9.5 -2t9.5 -1q4 -1 9 -1h9h3.5h3.5h3.5h3.5h7.5t7.5 1h2h3h3.5 h2.5q37 1 66 8t50 20q21 14 33.5 36t16.5 53q6 47 -3.5 81t-33.5 56q-25 21 -52.5 30t-57.5 6q-28 -3 -54 -16t-49 -36t-35 -55.5t-12 -74.5v1v0z" />
<glyph unicode="7" horiz-adv-x="447" d="M385 350h-9.5t-9.5 1q-5 0 -9.5 0.5t-9.5 1.5q-9 1 -18 1.5t-17 0.5h-8.5t-9.5 1h-8.5h-9.5q-6 0 -12 -0.5t-12 -0.5q-3 0 -6 -0.5t-6 -0.5q-6 -1 -14 -1.5t-18 -1.5q-4 0 -9 -0.5t-10 -1.5q-5 0 -9.5 -0.5t-9.5 -1.5q-14 -2 -27.5 -5t-24.5 -7q-12 -4 -19.5 -9.5 t-10.5 -12.5q-1 -4 -1.5 -7.5t-0.5 -8.5v-4t1 -4q0 -3 1 -5l2 -4v-2v-2v-0.5t1 -0.5v-1v0q0 -3 0.5 -6t1.5 -6q2 -3 2.5 -6t0.5 -5q0 -1 -0.5 -3.5t-2.5 -4.5l-2 -4t-3 -4q-2 -3 -5 -6l-6 -6q-2 -1 -3.5 -2.5t-3.5 -2.5t-3.5 -1.5t-3.5 -1.5q-1 -1 -2.5 -1.5t-2.5 -1.5 q-1 0 -2.5 -0.5t-2.5 -0.5q-2 -1 -4 -1t-4 1q-4 1 -7.5 5.5t-5.5 12.5q-3 8 -4.5 16.5t-2.5 18.5q-2 8 -3 16t-1 15v12.5t1 7.5q1 9 8.5 16t20.5 12t27 9t30 7q6 1 11.5 1.5t10.5 1.5t10.5 1.5t11.5 1.5q11 1 19 1.5t14 1.5h5.5t9.5 1h6t6 1h7h8q8 0 18.5 0.5t21.5 1.5h11.5 t11.5 1h11h12q25 0 47.5 -0.5t42.5 -2.5q21 -1 31.5 -3.5t10.5 -7.5q0 -4 -2 -7t-6 -6q-2 -1 -4 -2.5t-4 -3.5q-2 -1 -4 -2.5t-4 -2.5q-4 -2 -6.5 -4t-4.5 -4q-3 -2 -5 -3.5t-4 -3.5q-14 -14 -26 -29.5t-22 -32.5q-3 -5 -6 -11t-6 -11q-2 -3 -3.5 -6l-2.5 -5 q-5 -9 -9.5 -17.5t-8.5 -16.5q-1 -3 -2.5 -6t-2.5 -6q-2 -3 -3 -6t-3 -6q-3 -6 -5.5 -12t-4.5 -11l-2 -4l-2 -4l-2 -4l-2 -4l-2 -4t-1 -3l-2 -4l-2 -4q-13 -26 -27 -51.5t-29 -49.5q-16 -23 -36.5 -45.5t-45.5 -42.5q-1 -2 -4 -4t-7 -5t-7.5 -6t-7.5 -6q-1 -1 -2 -1.5 t-1 -1.5q-1 -1 -2 -1.5t-2 -1.5t-2 -1.5t-2 -1.5q-1 0 -1.5 -0.5l-1.5 -1.5q-4 -3 -8 -5.5t-8 -3.5q-4 -2 -7 -3t-5 -1q-4 0 -6.5 0.5t-3.5 2.5q-2 2 -2.5 4.5t-0.5 4.5v2t1 2l0.5 1t1.5 1l0.5 0.5l0.5 0.5q2 2 3.5 4t3.5 4t3.5 4t3.5 4q2 4 5.5 7.5t7.5 6.5q3 3 5.5 6 t5.5 6q3 4 5.5 7t5.5 6q2 2 3.5 4t3.5 4q3 5 6.5 9.5t7.5 9.5q13 19 24 37t21 37q5 9 9 18t9 19q4 9 8.5 18t8.5 18q13 29 28 57t32 56t44.5 55t64.5 54v1v0z" />
<glyph unicode="8" horiz-adv-x="533" d="M233 260q-4 2 -9.5 6t-11.5 8q-3 2 -6.5 4.5t-6.5 4.5q-3 3 -6.5 5.5t-6.5 5.5q-7 5 -13.5 11t-11.5 12q-7 6 -12 12t-9 12q-5 6 -7.5 12.5t-4.5 13.5q-1 7 0.5 13t6.5 12q9 12 24 24t36 23q20 11 42 21t44 18q14 5 28 9.5t27 8.5q3 1 6.5 2t6.5 2q10 2 19.5 4t17.5 4 q19 3 37 3.5t34 -1.5q17 -2 26.5 -12.5t13.5 -28.5q2 -12 2.5 -21t0.5 -15q-1 -6 -3.5 -12t-6.5 -11q-1 -1 -3 -2.5t-3 -2.5q-2 -2 -3.5 -3t-3.5 -3q-2 -1 -4 -3t-4 -3q-2 -2 -4.5 -3.5t-4.5 -3.5q-10 -6 -15.5 -6.5t-8.5 3.5q-3 5 -4 10t-1 12q-1 2 -1 4.5v4.5v2t1 2v2v2v2 v2v1.5v1.5q0 15 -3 25.5t-8 17.5q-6 6 -19 8t-33 0q-7 -1 -16 -3t-19 -4l-20 -6t-21 -6q-16 -6 -31.5 -13t-29.5 -15q-15 -8 -24.5 -16.5t-14.5 -17.5q-3 -5 -2 -11t5 -12t8.5 -12.5t11.5 -13.5l7.5 -7.5t7.5 -6.5q4 -4 8 -7.5t8 -6.5q8 -6 14.5 -11t12.5 -10q7 -4 12.5 -8 t9.5 -7q13 5 27 10.5t28 10.5l28 10l28 10l10 -13q-7 -3 -13.5 -6t-12.5 -5q-7 -3 -13.5 -5.5t-13.5 -5.5q-4 -2 -8.5 -4t-8.5 -4q-9 -3 -17.5 -6.5t-16.5 -7.5q2 -2 4.5 -4t5.5 -4l6 -4t7 -4q17 -14 33.5 -30t31.5 -33q14 -18 17.5 -37.5t-4.5 -40.5q-8 -26 -26.5 -47 t-46.5 -36q-29 -15 -60 -22.5t-64 -7.5h-8.5h-10.5h-5.5t-5.5 -1h-5.5h-5.5h-6.5t-6.5 -1h-7.5h-6.5h-6t-7 -1h-6.5h-6.5q-16 0 -31 0.5t-29 1.5q-15 1 -25.5 1.5t-16.5 3.5q-10 4 -15 9.5t-6 12.5q-3 8 -4 15.5t-1 15.5v4t1 5q0 2 0.5 4t0.5 4q1 5 2 8.5t2 7.5q4 20 17 37 t35 32q21 15 43.5 29t46.5 27l8 4l8 4l4 2l4 2q6 2 12 5l12 6q11 5 22 10.5l21 10.5v1v0zM251 245q-3 -2 -6 -3.5t-5 -3.5q-2 -1 -3.5 -1.5t-3.5 -0.5q-1 -1 -2.5 -1.5t-2.5 -1.5q-17 -8 -33 -17t-31 -18q-5 -4 -10.5 -7t-10.5 -6q-20 -13 -36 -28.5t-30 -32.5 q-12 -16 -15.5 -29.5t0.5 -24.5q5 -12 19.5 -18t39.5 -6l129 1v-0.5t1 -0.5v0v0v0h1v0v0h2.5h1.5h1.5h0.5h3.5h3.5q20 0 38.5 3t34.5 7q17 5 25 18t7 34q-1 17 -8.5 33t-20.5 29q-13 14 -28 26.5t-31 24.5q-2 2 -4 3.5t-4 2.5q-2 2 -4 3.5t-4 2.5q-2 2 -4 3t-3 3 q-2 1 -4 2.5t-4 2.5v1v0z" />
<glyph unicode="9" horiz-adv-x="563" d="M172 37q1 -1 2.5 -1h2.5h2.5h1.5h1.5h0.5h6h6h3h3h8.5h8.5q17 0 33 2t32 6q15 4 28.5 11.5t23.5 19.5q8 11 16 23t15 27t11.5 30.5t7.5 31.5q2 24 -1.5 46t-12.5 43q-10 20 -30.5 33t-52.5 18q-40 7 -72.5 -2t-58.5 -33q-25 -24 -41 -51.5t-23 -57.5q-7 -28 -5.5 -53 t10.5 -48q10 -23 28 -34.5t46 -11.5v1v0zM323 45q-23 -17 -48.5 -29.5t-52.5 -19.5q-28 -8 -58 -8t-62 8q-23 4 -39 14.5t-25 27.5t-13 35.5t-3 37.5q0 11 1 22.5t4 23.5q3 11 7 21t8 19q2 5 4.5 9.5t5.5 9.5q2 2 3.5 4.5t3.5 5.5q1 2 3 4.5t4 4.5q19 25 44.5 48t59.5 44 t68.5 31t71.5 9q5 0 11.5 -0.5t13.5 -1.5q5 -1 11.5 -2.5t13.5 -3.5q32 -10 53 -25.5t32 -37.5t16 -45.5t4 -47.5q-1 -11 -3 -21.5t-5 -21.5q-1 -3 -2 -6.5t-2 -7.5q-2 -7 -3.5 -13.5t-4.5 -12.5q-19 -44 -48 -83.5t-69 -73.5q-39 -35 -80.5 -67.5t-85.5 -62.5 q-1 -1 -2.5 -2t-3.5 -2l-1.5 -1.5t-1.5 -0.5q-1 -1 -2 -1.5t-2 -1.5t-2 -1.5t-2 -1.5l-2 -1t-6 -4l-8 -6t-9 -7q-1 0 -2 -0.5t-1 -1.5q-1 0 -2 -0.5t-2 -1.5t-2 -1.5t-1 -1.5q-1 0 -2 -0.5t-2 -1.5q-3 -2 -6 -3t-5 -2q-3 -1 -6 -1.5t-6 -1.5q-5 -2 -8 -0.5t-5 5.5q-1 2 0 5 t5 6q4 4 8 7.5t9 6.5q1 1 2.5 2t2.5 2t2.5 1.5t2.5 1.5q4 4 8.5 7t9.5 6q4 3 7.5 4.5t4.5 3.5q11 8 21 16t19 16q7 5 12.5 10t11.5 10q3 3 6 5t6 5q17 15 33 30.5t30 32.5q6 8 12.5 17t13.5 17q7 9 13.5 19.5t12.5 21.5v1v0z" />
<glyph unicode=":" horiz-adv-x="283" d="M78 257q2 8 5.5 13.5t9.5 9.5q7 5 14.5 7.5t15.5 3.5q9 1 17.5 -1t15.5 -7q8 -4 10.5 -12t0.5 -19q-1 -7 -5 -13t-11 -11q-7 -4 -14 -7t-15 -3q-9 -1 -16.5 1t-15.5 6q-7 5 -10 12.5t-2 18.5v1v0zM23 35q2 7 6 13t11 10q6 5 13.5 7t14.5 3q10 1 18.5 -0.5t15.5 -6.5 q8 -4 10.5 -12t0.5 -19q-1 -8 -5.5 -14t-11.5 -10t-13.5 -6t-14.5 -3q-9 -1 -17 0.5t-16 5.5q-7 5 -10 12.5t-2 18.5v1v0z" />
<glyph unicode=";" horiz-adv-x="283" d="M31 47q1 8 4.5 15t9.5 13q5 5 12.5 8t14.5 4q4 0 7.5 -0.5t6.5 -1.5q2 0 3.5 -1t3.5 -2q6 -3 10 -7.5t7 -11.5q2 -7 2 -15.5t-2 -17.5q-3 -9 -7 -18t-10 -16q-4 -7 -9.5 -14t-11.5 -14q-3 -5 -7.5 -9.5t-8.5 -9.5q-2 -2 -4 -4.5t-4 -4.5q-3 -3 -6 -6.5t-6 -6.5 q-4 -3 -7 -6l-6 -6l-11.5 -11.5l-9.5 -9.5q-5 -8 -10.5 -11t-10.5 -1q-4 1 -3.5 5.5t6.5 12.5q11 15 17.5 26t10.5 18q5 7 8 13t5 11v2.5t1 2.5v3v3v6v6v4.5t1 4.5v6v6q0 6 1 15t3 19v1v0zM78 257q2 8 5.5 13.5t9.5 9.5q7 5 14.5 7.5t15.5 3.5q9 1 17.5 -1t15.5 -7 q8 -4 10.5 -12t0.5 -19q-1 -7 -5 -13t-11 -11q-7 -4 -14 -7t-15 -3q-9 -1 -16.5 1t-15.5 6q-7 5 -10 12.5t-2 18.5v1v0z" />
<glyph unicode="&#x3c;" horiz-adv-x="1041" d="M880 549v-44l-638 -207l638 -207v-43l-719 235v30l719 236v0v0z" />
<glyph unicode="=" horiz-adv-x="1041" d="M155 406h731v-39h-731v39v0v0zM155 229h731v-40h-731v40v0v0z" />
<glyph unicode="&#x3e;" horiz-adv-x="1041" d="M161 549l719 -236v-30l-719 -235v43l637 207l-637 207v44v0v0z" />
<glyph unicode="?" horiz-adv-x="480" d="M86 38q2 8 6 15t11 11q7 5 14.5 8t15.5 4q10 1 18.5 -1.5t16.5 -7.5t11 -13.5t1 -20.5q-2 -9 -6.5 -15t-11.5 -11q-7 -4 -14.5 -6.5t-15.5 -3.5h-4.5h-4.5q-7 1 -13.5 2.5t-12.5 4.5q-8 5 -11 13t0 20v1v0zM100 558q-3 26 6 45t31 32q22 14 48 22t57 12q71 8 121 -5.5 t80 -49.5t29.5 -77t-32.5 -86q-3 -3 -5.5 -6t-4.5 -5q-2 -3 -4.5 -6t-5.5 -6l-6 -6l-5 -5q-3 -3 -6 -5.5t-6 -5.5q-4 -4 -9 -8t-9 -8q-5 -3 -9.5 -7t-9.5 -7q-10 -7 -20.5 -14t-19.5 -14h-1.5h-0.5l-1 -1v0v0v0l-1 -1v0q-14 -10 -28 -19.5t-27 -19.5t-25.5 -21t-23.5 -23 q-4 -4 -6.5 -7.5t-4.5 -6.5q-2 -2 -3.5 -4.5t-2.5 -4.5q-1 -1 -1.5 -2t-1.5 -2q-2 -3 -3.5 -6l-2.5 -5q-1 -3 -1.5 -6t-1.5 -6t-1.5 -6t-0.5 -6q-1 -3 -1.5 -6.5t-1.5 -6.5t-2.5 -4.5t-3.5 -1.5q-1 0 -4 1.5t-6 4.5q-4 5 -8 13.5t-7 20.5t0 25.5t11 28.5t21 30t31 30 q17 15 36 29.5t39 28.5q6 5 13 10t14 11q6 5 13 10t13 10q7 5 13.5 10t12.5 11q6 5 11.5 10t10.5 10q7 8 12.5 16t9.5 18q5 9 8 19t5 20q1 5 1 10v11l-2 10t-3 10q-4 10 -9.5 19t-15.5 16q-9 7 -21 12t-26 9t-28.5 6t-29.5 2q-24 0 -46.5 -5t-43.5 -15q-20 -10 -30 -25 t-10 -35v-8v-8v-3.5t1 -3.5v-2.5v-3.5v-8.5v-8.5v-8v-8q-1 -6 -2.5 -12t-3.5 -12q-3 -6 -7.5 -13.5t-9.5 -16.5l-0.5 -0.5l-0.5 -0.5q0 -1 -0.5 -1h-0.5v-0.5v-0.5l-1 -1v0l-2.5 -2.5l-3.5 -3.5q-1 -1 -2 -1.5t-2 -0.5q-1 -1 -2 -1h-2h-1h-1q-1 0 -2 0.5t-2 0.5t-2.5 1.5 l-2.5 2.5v1v3q-1 2 -1 4.5v6.5q0 2 -0.5 4.5t-0.5 5.5q-1 5 -1.5 10.5t-0.5 11.5v1.5v1.5v2v2q-1 11 -1.5 20t-0.5 18q-1 8 -1 12t0 3v1v0z" />
<glyph unicode="@" horiz-adv-x="1232" d="M652 474q-24 -3 -46.5 -13.5t-42.5 -30.5q-19 -19 -35 -41t-30 -45q-7 -13 -13.5 -26l-12.5 -25q-5 -13 -9 -24t-7 -20q-2 -7 -3.5 -14t-2.5 -15q-1 -4 -1.5 -8t-1.5 -7v-8v-8q0 -24 7 -45.5t22 -39.5q14 -19 40.5 -24t63.5 4q30 7 55 22t46 37q20 23 37 47t29 50 q2 5 4 10.5t4 11.5q2 5 4 10.5t4 10.5q4 11 7 20.5t5 19.5q1 5 1.5 10.5t0.5 11.5v12v12q-3 20 -11.5 39t-22.5 36q-15 17 -37.5 24t-53.5 5v1v0zM728 168q-13 -19 -28 -34t-30 -27q-7 -6 -15 -11t-16 -9q-8 -5 -15.5 -8t-15.5 -6q-52 -20 -98 -12.5t-87 42.5 q-40 35 -49 81.5t13 103.5q11 32 32 60.5t51 54.5t61 45t65 30q32 11 62 11.5t59 -7.5q29 -9 50 -31.5t34 -59.5l35 91h74l-103 -295q-11 -31 -9.5 -54.5t14.5 -40.5q14 -16 42 -15.5t71 16.5q46 18 81.5 47t61.5 69q26 41 39 83.5t11 87.5q-1 44 -16.5 85t-44.5 80 q-30 39 -76 68.5t-110 48.5q-22 6 -45 11t-46 8q-24 3 -47 5t-46 2q-60 0 -117 -9.5t-113 -29.5q-55 -19 -101.5 -47.5t-84.5 -65.5q-25 -25 -45.5 -54t-37.5 -63q-16 -34 -25 -69t-13 -71q-3 -32 0 -63.5t11 -62.5t24 -58.5t40 -51.5q41 -43 92.5 -74t113.5 -50 q61 -19 124 -27t128 -5q47 2 92.5 9.5t90.5 20.5t86.5 30.5t79.5 40.5l16 -16q-30 -16 -60 -30.5t-62 -26.5t-65 -21.5t-69 -15.5q-9 -2 -18.5 -3t-19.5 -2t-19.5 -2t-18.5 -2q-19 -2 -37.5 -2.5t-37.5 -0.5q-58 0 -114.5 8t-110.5 23q-55 15 -102 39t-88 57 q-37 28 -63.5 60t-42.5 68q-17 36 -24.5 72.5t-5.5 73.5q2 92 52.5 174t148.5 155t224 98.5t280 4.5q66 -10 124 -33t107 -61q49 -37 78 -83t36 -101q0 -4 0.5 -8.5t0.5 -8.5q1 -5 1 -9v-9v-18t-1 -18q-4 -37 -15 -72t-31 -69t-48 -62t-65 -49q-12 -7 -25.5 -13.5 t-28.5 -11.5q-7 -3 -15 -5t-15 -3q-8 -2 -15.5 -3t-15.5 -2q-11 -1 -21.5 -0.5t-20.5 1.5q-11 2 -21 5t-19 7q-15 7 -25 16t-15 20q-6 11 -9.5 23t-5.5 24q0 1 -0.5 1.5t-0.5 1.5l-0.5 0.5t-0.5 1.5v3.5v2.5v1v0z" />
<glyph unicode="A" horiz-adv-x="1197" d="M671 270q-25 -46 -57 -88.5t-71 -80.5q-38 -39 -89.5 -64t-116.5 -37q-15 -1 -34.5 -3.5t-42.5 -4.5q-24 -2 -48 -2.5t-49 0.5q-34 1 -66 5.5t-61 11.5q-28 8 -46.5 22.5t-28.5 35.5q-11 27 -4 51t32 46q23 21 51.5 39t62.5 33q14 6 28.5 11.5t28.5 9.5q13 5 25 9t23 7 q41 11 82 18t83 11q21 2 42.5 3.5t42.5 2.5t42.5 1.5t42.5 0.5h16h16q8 -1 16 -1h16t16 -0.5t16 -0.5q8 -1 16 -1.5t16 -0.5q4 8 8.5 16t8.5 16l10 16t9 17q25 42 53 82.5t62 78.5q33 38 79 65.5t104 43.5q2 0 7.5 1.5t13.5 2.5q8 2 18 3.5t21 3.5q4 0 8.5 0.5t9.5 1.5 q3 0 5.5 0.5t4.5 1.5q2 0 4.5 0.5t5.5 0.5q17 2 33 3.5t31 2.5t23.5 0t11.5 -4q2 -2 2.5 -3.5t-1.5 -3.5q-1 -1 -2 -1.5t-1 -1.5q-1 -1 -2 -1.5t-2 -0.5v0v0l-1 -1v0h-0.5h-0.5h-0.5h-0.5q-7 -3 -13.5 -6t-11.5 -8q-3 -2 -5.5 -4.5t-4.5 -5.5l-4.5 -4.5l-5.5 -5.5 q-15 -17 -27 -38t-23 -46t-19.5 -50t-16.5 -51q-7 -21 -12 -41l-10 -40q-5 -19 -9 -37t-8 -34q9 -1 17.5 -2t16.5 -2t16.5 -1.5t17.5 -1.5q8 -1 16.5 -1.5t17.5 -1.5q8 0 16.5 -0.5t16.5 -0.5h1.5h2.5h2.5t2.5 1h0.5h1.5h1.5h0.5h2h3h7h5q3 -1 5 -2t2 -3q0 -7 -7.5 -12 t-22.5 -8t-31.5 -4.5t-33.5 -2.5q-11 -1 -21.5 -1h-21.5h-19.5t-15.5 1h-1h-1h-2h-2h-3h-2q-13 -39 -27.5 -77t-31.5 -76q-16 -37 -37.5 -72t-47.5 -69q-1 -1 -1.5 -2t-1.5 -2q-1 0 -1.5 -1t-0.5 -2q-1 -2 -2.5 -3.5l-2.5 -2.5q-4 -5 -9 -8t-10 -4q-5 -2 -12.5 -2.5 t-17.5 -0.5q11 19 20.5 36t17.5 34q8 16 15.5 32.5t14.5 32.5q8 18 14.5 36t11.5 36q4 12 7.5 24.5t6.5 25.5q2 6 3.5 13t3.5 14q1 3 2 5.5t2 5.5q0 3 1 6l2 6q1 2 1 4t1 4l2 8l2 8q-4 0 -8.5 0.5t-8.5 1.5q-4 0 -8.5 0.5t-8.5 1.5l-16 2l-16 2q-9 1 -17.5 1.5t-16.5 1.5 q-3 0 -5.5 0.5t-5.5 0.5q-6 1 -11.5 1.5t-10.5 1.5t-10.5 1.5t-11.5 0.5q-2 1 -5 1t-6 1q-8 0 -16 1t-17 2q-8 1 -16.5 2t-16.5 2q-8 0 -16.5 1t-16.5 2v1v0zM648 271q-16 0 -31.5 0.5t-30.5 1.5q-16 1 -31 1.5t-30 1.5q-47 1 -93.5 -0.5t-93.5 -5.5q-46 -4 -91 -13t-89 -23 q-7 -2 -15.5 -5t-19.5 -8q-10 -4 -20.5 -9t-21.5 -10q-22 -11 -41 -24.5t-35 -29.5q-15 -16 -16.5 -31.5t9.5 -32.5q7 -13 24 -22.5t43 -14.5q25 -4 52.5 -6.5t55.5 -2.5q19 -1 37.5 0t37.5 2q19 2 35.5 3.5t29.5 2.5h3.5t2.5 1h3.5h2.5q2 0 5 0.5t6 1.5q63 11 110.5 30.5 t81.5 47.5q34 29 64 64.5t56 78.5v1v0zM693 305q16 -1 32 -2.5t32 -3.5q16 -1 32 -2.5t32 -3.5q32 -3 63.5 -6t62.5 -6q14 51 31 100t39 95q22 47 56.5 89t81.5 80q-95 -7 -167 -35.5t-122 -79.5q-49 -51 -92.5 -107.5t-80.5 -118.5v1v0z" />
<glyph unicode="B" horiz-adv-x="1070" d="M-32 -15q17 20 34.5 32t38.5 16q20 5 40.5 8.5t41.5 5.5h1.5h1.5h1l1 1h2h2h2t3 1h2.5h2.5q11 1 22.5 3t23.5 5q11 2 22.5 6t22.5 8q23 9 43 28.5t39 50.5q3 5 5.5 10l5.5 11t5.5 12t5.5 13q2 6 4.5 13t5.5 13q2 7 4.5 14.5t4.5 14.5q1 3 2 6.5t2 6.5l4 14l4 14 q4 11 7.5 21.5t7.5 21.5q14 41 33.5 79.5t44.5 74.5q24 36 61.5 55.5t88.5 23.5q0 -2 -1 -3.5t-3 -3.5q-1 -1 -2.5 -1.5t-3.5 -1.5h-1.5h-1.5l-0.5 -0.5t-1.5 -0.5t-1.5 -0.5t-2.5 -0.5q-1 -1 -2.5 -1.5l-1.5 -0.5q-11 -6 -20.5 -13.5t-17.5 -17.5q-7 -10 -14 -19.5 t-13 -20.5q-1 -3 -2.5 -5.5t-2.5 -4.5q-1 -3 -2.5 -5.5t-2.5 -4.5t-2 -4.5t-1 -4.5q-1 -2 -2 -4.5t-2 -4.5q-6 -11 -10 -23l-8 -24q-2 -6 -4 -12.5t-4 -12.5q-2 -7 -4 -13l-4 -12q-1 -4 -1.5 -7.5t-2.5 -7.5q-1 -4 -2 -7.5t-1 -6.5q-7 -22 -15 -44t-17 -43q-8 -21 -19 -40 t-24 -36q-15 -18 -33 -33t-39 -26t-43 -21.5t-45 -20.5l563 1q45 0 75 7t45 20q15 14 14.5 40t-17.5 64q-19 41 -45 66t-59 35q-34 10 -71.5 17t-78.5 11q-11 1 -21.5 2t-21.5 2q-6 0 -11 0.5t-10 1.5q-6 1 -11 1.5t-11 1.5q-4 0 -7.5 0.5t-6.5 1.5q-4 0 -6.5 0.5t-4.5 1.5 q-11 2 -16 3.5t-3 4.5t9.5 8.5t20.5 13.5q4 2 8 3.5t8 1.5h8.5h10.5h0.5h1.5h1.5h1.5h0.5h1.5h1.5h1.5q0 -1 0.5 -1h1.5h1.5h1.5h0.5h1.5q8 -1 15.5 -1h14.5q8 0 15.5 0.5t14.5 1.5q6 0 12.5 1t12.5 1q6 1 12.5 2t12.5 2q13 2 25 4.5t24 5.5q34 8 62.5 21t50.5 31 q23 18 35 37t15 39q1 8 0 15.5t-4 15.5q-3 7 -7.5 15t-11.5 15q-13 15 -35.5 27.5t-54.5 22.5q-26 8 -57 13t-68 8t-74.5 4.5t-75.5 0.5q-39 -1 -77.5 -4.5t-74.5 -8.5q-37 -6 -68.5 -13.5t-56.5 -17.5q-19 -7 -29.5 -18t-13.5 -26q-4 -15 -4 -30.5t3 -32.5l2 -10l2 -10 q1 -4 2 -8.5t3 -9.5l2 -14t3 -13q1 -3 1.5 -6t1.5 -6q0 -3 0.5 -5.5t1.5 -4.5v-4.5t1 -5.5v-5v-6v-6t-1 -5q0 -3 -0.5 -6t-1.5 -6q-1 -10 -4.5 -20t-8.5 -19q-6 -9 -13.5 -15.5t-18.5 -10.5l-43 224l-0.5 0.5t-0.5 1.5t-0.5 1.5t-0.5 1.5v4v4q-1 5 0 10.5t3 11.5t5.5 11.5 t9.5 9.5q11 8 22 14t24 11q5 2 9 3t9 3l18 6t18 5q3 1 6.5 1.5t7.5 1.5t7.5 2t7.5 2q28 6 61.5 12t73.5 11q38 5 78.5 9t81.5 6q42 2 83.5 2t82.5 -2t75.5 -7.5t63.5 -14.5q35 -11 59 -28.5t37 -40.5q13 -24 10 -49.5t-23 -52.5q-13 -16 -30 -30.5t-38 -25.5 q-22 -11 -44 -20.5t-45 -17.5l-12 -4l-12 -4q-3 -1 -6 -1.5t-6 -1.5q-10 -3 -18 -5.5t-16 -4.5q1 0 2 -0.5t2 -0.5q0 -1 1 -1h2h2.5h2.5q1 -1 2.5 -1h2.5q14 -3 28.5 -6.5t29.5 -7.5q10 -3 18.5 -6.5t17.5 -7.5q5 -2 9.5 -4t8.5 -5q17 -10 30.5 -23.5t24.5 -29.5 q10 -16 17 -32t11 -33q0 -2 0.5 -4t1.5 -4q0 -1 0.5 -2t0.5 -2v-2.5t1 -2.5v-3v-3q1 -16 -1 -31.5t-8 -30.5q-5 -15 -13.5 -28.5t-22.5 -24.5q-19 -17 -40.5 -28.5t-46.5 -17.5q-13 -3 -26 -5.5t-26 -4.5t-26 -3l-26 -2h-14h-14h-12.5h-13.5h-604q-13 0 -26.5 -0.5 t-26.5 -2.5q-7 -1 -13 -2l-12 -2q-6 -2 -12 -3.5t-13 -3.5l-2 -1v0z" />
<glyph unicode="C" horiz-adv-x="687" d="M27 179q2 20 11 42t24 47t34 50.5t42 51.5q29 32 61 62t69 60q38 30 75.5 55.5t77.5 46.5q25 13 48.5 23.5t47.5 18.5q12 4 24 7.5t24 6.5q35 9 66.5 9t59.5 -8q22 -7 28.5 -24t-1.5 -44t-22 -55.5t-33 -58.5q-2 -2 -3.5 -5t-3.5 -5l-1.5 -3t-1.5 -2q-3 -4 -5.5 -8 t-5.5 -8q-5 -7 -10.5 -14.5t-10.5 -15.5q-15 -19 -28.5 -37t-26.5 -33q-13 -16 -22.5 -27t-15.5 -18l-1.5 -1.5l-1.5 -1.5l-1.5 -1.5l-0.5 -0.5l-1.5 -1.5t-0.5 -1.5t-0.5 -1.5t-1.5 -0.5l-1.5 -1.5l-0.5 -0.5q-1 -1 -2.5 -2t-2.5 -1q-1 -1 -2.5 -1h-2.5t-2.5 0.5t-2.5 1.5 t-1.5 2.5t0.5 4.5q0 2 1 3t2 3v0.5t1 0.5q0 1 1 2t1 2t1 1.5t2 1.5q0 1 0.5 1.5l1.5 1.5l2 2l2 2l2 2l2 2l1.5 1.5l1.5 1.5q0 1 0.5 1.5t1.5 0.5q0 1 0.5 1.5l1.5 1.5q0 1 1 2t3 2q19 24 37.5 49t36.5 52q17 26 30 53.5t20 55.5q5 20 3.5 38t-12.5 33q-10 15 -30 21t-50 3 q-13 -1 -27 -5t-28 -10q-15 -6 -29.5 -13.5t-28.5 -15.5q-8 -5 -16 -10.5t-16 -11.5q-9 -6 -17 -12l-16 -12q-16 -13 -31.5 -25.5t-29.5 -26.5q-16 -14 -30 -27.5t-27 -27.5q-13 -13 -23.5 -25t-18.5 -22q-6 -8 -13.5 -18.5t-17.5 -22.5q-4 -6 -9 -12.5t-9 -13.5 q-5 -7 -9.5 -14t-9.5 -14q-6 -7 -10.5 -14.5t-9.5 -15.5q-3 -4 -5 -8t-5 -7l-4 -8l-4 -8q-12 -21 -21.5 -40.5t-17.5 -38.5q-7 -19 -10.5 -35t-1.5 -29q0 -12 11 -20.5t31 -13.5q21 -6 44.5 -9t48.5 -5q16 -1 31.5 -2t30.5 -1h27.5h21.5h2h2h2h2h1h1h2h2q34 0 67 1t65 3 q11 1 21.5 2t21.5 2q22 3 43.5 7.5t42.5 10.5h1t3 1t4 1.5t5 1.5v0l1 1h0.5h0.5h0.5t1.5 1q1 0 1.5 0.5l0.5 0.5q2 0 3.5 0.5t3.5 0.5q2 1 3.5 1h3.5t4 -1t2 -3q0 -1 -0.5 -2t-1.5 -1q0 -1 -0.5 -1.5l-0.5 -0.5l-1.5 -1.5l-0.5 -0.5q-3 -2 -6 -4.5t-7 -4.5q-1 -1 -2 -1.5 t-2 -0.5q-1 -1 -2 -1.5t-2 -0.5t-1.5 -0.5l-1.5 -1.5q-2 0 -3.5 -0.5t-2.5 -1.5q-6 -3 -11 -5l-10 -4q-6 -2 -9 -3.5t-4 -1.5q-26 -10 -54 -18t-57 -11q-30 -5 -59.5 -7.5t-58.5 -3.5q-16 0 -31.5 0.5t-31.5 1.5t-31.5 2t-30.5 3q-49 4 -84.5 18.5t-58.5 39.5 q-25 25 -34 56.5t-4 69.5v1v0z" />
<glyph unicode="D" horiz-adv-x="1172" d="M15 -26q2 13 8.5 21.5t18.5 14.5q11 6 24.5 10.5t28.5 8.5q4 1 8.5 2t8.5 2q2 0 4 0.5t4 1.5q2 0 4 0.5t4 0.5q3 1 6.5 1t6.5 1q7 1 13.5 2t12.5 1q7 0 12.5 0.5t11.5 0.5q3 0 6 0.5t6 0.5q7 0 13.5 0.5t13.5 0.5q6 1 12.5 1.5t13.5 1.5q13 2 25.5 7t25.5 12q1 1 2 1.5 t2 1.5t2 1.5t2 1.5t2 1.5t2 1.5t2 1.5t2 1.5q22 18 38 39t26 45q11 24 19.5 48t15.5 49v0l1 1v0.5v0.5q0 1 0.5 1.5l1.5 1.5q9 33 21.5 65t28.5 63q16 30 46 54t75 42h0.5t1.5 1h1.5t1.5 1l0.5 0.5t1.5 0.5h2.5h1.5h0.5t1.5 1h1.5h1.5q4 1 7 1h6q2 -1 3.5 -2.5t-0.5 -4.5 q-1 -1 -4.5 -3t-11.5 -7q-7 -4 -15 -11t-16 -15q-4 -4 -8 -8.5t-8 -9.5q-4 -4 -7.5 -9.5t-6.5 -11.5q-10 -18 -18 -36t-13 -36q-6 -18 -11 -35.5t-9 -34.5q-10 -34 -23 -65.5t-30 -60.5q-16 -29 -52 -53t-90 -44q11 -1 24 -1.5t29 -0.5q15 -1 32.5 -1.5t36.5 -0.5 q23 -1 46.5 -1.5t48.5 -1.5q26 -1 52 -1h52q53 -1 104 0t100 3q47 2 82 6.5t56 11.5q34 11 52 26.5t20 35.5q1 20 -6 42t-21 44q-5 9 -12 18.5t-15 19.5q-3 3 -5.5 6t-5.5 6q-6 6 -11.5 12t-10.5 12q-10 11 -19.5 20.5l-18.5 18.5q-10 9 -18 16.5t-14 14.5q-37 38 -78.5 75 t-86.5 72t-94 64.5t-103 53.5q-17 8 -36.5 14.5t-42.5 12.5q-22 6 -44.5 11t-45.5 8q-19 2 -38.5 3t-38.5 -1q-19 -1 -36.5 -4.5t-32.5 -9.5q-23 -9 -38 -22.5t-23 -30.5q-7 -17 -11 -35t-3 -37q0 -21 2.5 -42t6.5 -41q4 -21 8.5 -41.5t9.5 -40.5q0 -1 0.5 -2t0.5 -2t0.5 -2 t0.5 -2q0 -2 0.5 -4t1.5 -4q-19 -25 -31 -40.5t-18 -21.5t-11.5 -2t-9.5 18q-1 6 -2.5 13.5t-3.5 16.5t-4.5 20.5t-4.5 24.5q-1 2 -1.5 4.5t-0.5 5.5l-1.5 3t-0.5 3q-1 1 -1 2.5v2.5l-2 10t-1 10l-2 10l-2 10q-2 11 -3.5 21.5t-3.5 20.5q-1 18 -0.5 35.5t3.5 34.5 q2 17 9 33.5t18 31.5q15 20 36.5 34.5t48.5 21.5q28 8 56.5 11t58.5 3q9 0 17.5 -0.5t16.5 -0.5q8 -1 16.5 -1.5t17.5 -1.5q17 -2 32 -4.5t30 -5.5q79 -15 150.5 -41.5t137.5 -64.5q65 -37 124 -80t111 -91q5 -6 12.5 -12t14.5 -14l8 -8t8 -7l3 -3l3 -3q3 -2 5.5 -4.5 l5.5 -5.5q11 -12 21.5 -24t20.5 -24q10 -13 18.5 -25.5t15.5 -25.5q6 -12 10 -23.5t6 -22.5t2 -21.5t-4 -20.5q-7 -22 -21.5 -41t-36.5 -34t-45 -27.5t-47 -21.5h-2h-1q-1 -1 -1.5 -1h-0.5l-3 -1.5t-2 -0.5q-30 -10 -62 -16t-64 -9q-33 -3 -66 -5t-66 -3h-11h-10q-2 1 -4 1 h-3h-7h-7h-21.5h-21.5h-9h-9q-5 1 -9.5 1h-9.5h-9.5h-9.5h-9.5h-9.5l-390 -1q-4 1 -9 1h-9q-5 0 -9.5 -0.5t-9.5 -1.5q-10 -1 -18.5 -2.5t-16.5 -2.5h-4.5t-4.5 -1q-3 0 -5.5 -0.5t-4.5 -0.5q-4 -1 -8.5 -2t-8.5 -2v-1v0z" />
<glyph unicode="E" horiz-adv-x="745" d="M380 349q-7 2 -16 3.5t-18 4.5q-5 2 -9.5 3.5t-9.5 2.5q-5 2 -9.5 3.5t-9.5 2.5q-21 8 -40.5 17t-36.5 21t-23 27t-1 34q6 23 27.5 43t58.5 38t77 33t83 27q30 8 60 15t58 13q28 5 50.5 9t40.5 6h2.5h2.5h0.5t1.5 1h1.5h1.5q3 0 6.5 0.5t7.5 0.5q2 0 3.5 0.5t3.5 0.5h4h4 q4 1 8.5 1.5t7.5 0.5q21 1 38 -1.5t32 -7.5q14 -6 13.5 -19t-17.5 -33q-5 -6 -9.5 -11.5t-8.5 -10.5t-7.5 -9.5t-7.5 -8.5q-11 -11 -22.5 -19t-25.5 -13q-13 -5 -31.5 -8t-43.5 -5q-4 -1 -6.5 0t-3.5 2q-1 2 -1.5 4t0.5 4v0.5v1.5l0.5 0.5l1.5 1.5q2 2 3.5 3t2.5 3 q2 1 3.5 2.5t3.5 2.5q2 2 3.5 3t3.5 3q2 1 3.5 2.5t3.5 2.5l0.5 0.5l1.5 1.5l1 0.5t2 1.5q5 4 9.5 8t8.5 8q5 5 10 9.5t9 8.5q17 20 19.5 31.5t-9.5 15.5q-13 4 -28 4.5t-34 -1.5q-3 0 -5.5 -0.5t-5.5 -0.5q-3 -1 -5.5 -1.5t-5.5 -0.5q-5 -1 -9.5 -2t-8.5 -2h-2h-1 q-1 -1 -1.5 -1h-0.5h-2h-1q-1 -1 -1.5 -1h-0.5q-13 -3 -28 -7.5t-34 -10.5t-37.5 -13.5t-38.5 -15.5q-37 -16 -68.5 -35t-60.5 -42q-28 -22 -34.5 -46t8.5 -48q8 -14 24.5 -23t41.5 -13q26 -4 53 -6t56 -1q11 0 22.5 0.5t22.5 1.5t22.5 2t21.5 2q7 0 13.5 0.5t12.5 0.5 q3 0 6.5 0.5t6.5 0.5q9 1 16.5 1.5t14.5 1.5h2h2h1h2h2h2h2h2q8 -1 14.5 -2.5t11.5 -3.5t2 -6.5t-14 -11.5q-10 -6 -21.5 -11t-22.5 -9q-6 -2 -11.5 -3.5t-11.5 -3.5q-6 -1 -11.5 -2t-11.5 -2t-10.5 -2t-9.5 -2t-9.5 -1.5t-9.5 -1.5q-3 -1 -6 -1.5t-5 -0.5q-3 -1 -6 -1.5 t-6 -0.5h-1.5h-0.5q-1 -1 -1.5 -1h-1.5h-0.5h-1.5h-1.5h-2.5q-34 -6 -67 -12t-65 -13q-33 -7 -65 -16.5t-62 -22.5q-5 -3 -15.5 -7.5t-25.5 -12.5q-15 -7 -30 -16t-31 -20q-4 -3 -8.5 -6t-8.5 -5q-4 -3 -8.5 -6t-8.5 -6q-8 -6 -15.5 -12t-14.5 -12q-16 -14 -26.5 -27.5 t-15.5 -25.5q-6 -13 0.5 -22.5t24.5 -16.5q12 -5 36 -8.5t61 -5.5q37 -1 76 -2t80 0q40 1 78 2.5t74 3.5q35 2 60.5 5t39.5 6q8 2 15 3.5t12 3.5l6 2l6 2l5 2.5t6 2.5q2 2 5.5 3.5t7.5 2.5l4 2l4 2q2 0 4 1t5 2h0.5h1.5v0l1 1v0v0h2h2q1 -1 2 -1h2q2 -1 2 -2t-1 -3 q-1 -3 -3.5 -6t-5.5 -6q-2 -3 -5 -5t-7 -4q-1 -1 -2 -1.5t-2 -1.5q-1 0 -1 -0.5t-1 -0.5l-3 -1.5t-2 -1.5q-22 -13 -46.5 -22.5t-50.5 -15.5t-52.5 -10t-53.5 -7h-4t-4 -1h-4h-4h-4.5t-4.5 -1q-3 0 -5.5 -0.5t-4.5 -0.5q-16 -1 -34.5 -2t-39.5 -2q-20 -1 -41.5 -1t-44.5 1 q-41 1 -78 6.5t-71 13.5q-34 9 -49.5 27t-13.5 44v6t1 6v3t1 3q0 1 1 2.5t2 2.5q4 14 12 28.5t21 27.5q13 14 26 26.5t28 24.5q3 2 6 4.5t6 5.5q3 2 6 4.5t6 4.5l6 4t6 5q1 0 2 1t2 1q2 2 4 3.5t4 2.5q25 18 53 33t58 28q30 12 61 23.5t63 21.5v1v0z" />
<glyph unicode="F" horiz-adv-x="950" d="M742 301h-176q-3 -1 -4.5 0t-3.5 2q-1 2 -1 4t1 5q0 1 0.5 2t1.5 2l0.5 0.5l0.5 0.5l1.5 1.5l0.5 0.5q1 1 1.5 1t1.5 1t2.5 1.5t3.5 0.5l179 1q8 27 16.5 55.5t15.5 56.5q8 29 15 57.5t13 56.5q2 15 -1 24.5t-12 13.5q-8 5 -20 8t-28 6h-2h-1v0v0h-1v0q-22 3 -56.5 5 t-79.5 3t-92.5 0t-96.5 -3q-56 -3 -108 -7.5t-101 -11.5t-82.5 -17t-51.5 -24q-13 -10 -10 -25.5t22 -36.5q19 -22 40.5 -45t46.5 -47q0 -1 1 -2l2 -2q0 -1 1 -1.5t2 -0.5q17 -18 33.5 -35t31.5 -34q15 -16 24 -31t11 -27v-0.5v-2.5q0 -1 0.5 -2l0.5 -1q0 -1 0.5 -1t0.5 -1 l0.5 -0.5t0.5 -1.5v-3.5v-4.5v-2t1 -2v-2v-2v-9.5v-8.5q-1 -4 -3 -6t-4 -2t-5 1.5t-7 5.5q-4 3 -8.5 7.5l-8.5 8.5h-0.5h-0.5l-1.5 1.5l-0.5 0.5q-1 0 -1 0.5v1.5q-3 2 -5 4t-4 5l-4 4l-4 4q-4 4 -6.5 6t-2.5 3l-81 81q-5 4 -10.5 8.5t-11.5 10.5q-3 3 -5.5 6t-5.5 6t-6 6.5 t-6 6.5q-7 8 -14.5 15.5t-14.5 15.5t-12.5 16.5t-10.5 17.5q-5 10 -8 19.5t-5 19.5q-2 9 0.5 18t7.5 18q14 23 40 40.5t63 30.5q37 14 76 23.5t81 16.5q30 5 59.5 8.5t57.5 5.5t52.5 3.5t44.5 2.5h30h35t37.5 -1t37.5 -3q32 -4 63 -11t61 -18q29 -10 49 -27.5t31 -41.5 q5 -11 7 -24.5t0 -29.5q-1 -16 -3.5 -32t-6.5 -33q-1 -3 -2 -6.5t-1 -6.5q-1 -4 -2 -7l-2 -6l-2 -8l-2 -8q-1 -2 -1 -4t-1 -4q-3 -9 -5.5 -17.5t-4.5 -16.5q-3 -8 -5 -15.5t-4 -13.5h5h7h4.5t4.5 1h3h3h2.5h2.5h5h7h2.5t2.5 1h3.5h3.5h18.5h16.5t14 -0.5t9 -2.5v-0.5t1 -0.5 v-1v0v-1.5v-0.5v-1.5v-0.5v0v0v-1v0v-1.5v-0.5v0v0v0v0v-1v0v-1v0q-1 -1 -1 -1.5v-0.5v0v0v-1v0q0 -1 -0.5 -1.5l-0.5 -0.5q0 -1 -0.5 -1.5l-0.5 -0.5l-2 -2t-3 -1q-7 -1 -14.5 -2.5t-15.5 -1.5h-14.5t-15.5 1h-2.5h-2.5h-2.5h-2.5h-2.5h-2.5t-2.5 0.5t-2.5 0.5h-9.5h-8.5 h-5t-5 1h-4h-4q-22 -79 -56 -137t-79 -96t-120.5 -56.5t-181.5 -18.5l-129 -1q-4 1 -8 1h-8q-8 0 -16 -0.5t-16 -0.5q-6 0 -11.5 -0.5t-11.5 -0.5q-6 -1 -11.5 -2t-11.5 -2q8 12 21.5 20t29.5 14q17 6 35.5 10t37.5 6q5 0 9.5 0.5t9.5 0.5q4 1 9 1h9h9.5t8.5 1h9h8l139 1 q2 0 2.5 -0.5t1.5 -0.5h1.5h0.5h2h2h2h2h3.5h3.5h3.5h3.5h7.5h7.5q13 0 24.5 1t23.5 3l12 2l12 2q18 4 32.5 13t25.5 22q5 7 9.5 14.5t8.5 17.5q2 4 4.5 9.5t4.5 10.5q7 16 13.5 32.5t11.5 33.5q2 7 4 13.5t4 13.5t4 13.5t4 13.5q2 6 3.5 12t3.5 12t3.5 11.5t3.5 10.5v1v0z " />
<glyph unicode="G" horiz-adv-x="1047" d="M912 292q-61 -31 -124.5 -60t-129.5 -55q-65 -26 -134.5 -41.5t-143.5 -20.5q-15 -1 -30.5 -2t-32.5 -1q-16 -1 -32.5 -0.5t-33.5 1.5q-23 2 -45.5 5.5t-44.5 8.5t-41 13t-34 18q-16 11 -28.5 23.5t-20.5 27.5q-9 15 -12 31.5t0 32.5q4 33 22.5 64.5t52.5 61.5 q32 30 68 56.5t75 48.5l30 18t30 16q15 8 30 14t28 12q4 2 8 3.5t8 2.5q4 2 8.5 4t9.5 4q30 11 64.5 22.5t71.5 21.5q38 11 76 19t78 15q25 4 49.5 6.5t48.5 4.5q12 1 24.5 1.5t24.5 0.5q37 1 70 -2.5t63 -11.5q29 -7 49.5 -20t33.5 -30q14 -17 11 -36.5t-21 -42.5 q-19 -22 -44 -43.5t-59 -41.5q-34 -21 -69.5 -39t-72.5 -35q-23 -11 -46 -21t-46 -18q-22 -9 -43 -16t-40 -13q-22 -7 -45.5 -14.5t-46.5 -13.5q-25 -7 -48.5 -12t-46.5 -9q-4 -1 -8 -1.5t-8 -0.5h-7.5t-6.5 1q-4 0 -7 0.5t-6 1.5q-2 1 -4 1.5t-4 0.5q-1 1 -2 1.5t-2 0.5 q-3 1 -5.5 1.5t-4.5 1.5q-1 0 -2 0.5t-2 1.5q-1 0 -2 0.5t-2 1.5q-5 2 -9.5 3.5t-8.5 3.5q-2 1 -4.5 2t-4.5 2q-7 3 -13.5 6t-11.5 7l1 7q15 -2 31 -3t32 -1q15 0 31 0.5t32 1.5q22 2 43.5 4t43.5 6q21 4 42.5 8.5t43.5 10.5q43 11 83.5 24.5t77.5 29.5q8 3 16 7t17 8 q8 4 16.5 8.5t18.5 8.5q27 14 52.5 31.5t48.5 38.5q23 20 37 42.5t18 47.5q2 17 -4.5 30t-21.5 22q-16 9 -33.5 16t-36.5 11q-4 1 -8.5 1.5t-8.5 1.5q-4 0 -8 0.5t-8 1.5q-8 1 -15.5 1.5t-13.5 0.5h-12h-12q-6 -1 -11.5 -1h-11.5h-11.5t-11.5 -1q-6 0 -11.5 -0.5t-11.5 -1.5 q-46 -4 -91 -13t-89 -22q-45 -13 -85.5 -29t-78.5 -35q-7 -4 -14 -7.5t-14 -6.5q-5 -2 -9.5 -5t-8.5 -5q-2 -1 -4.5 -2.5t-4.5 -2.5q-37 -20 -72 -44t-67 -51q-33 -27 -54 -57.5t-32 -65.5q-16 -51 -2 -84t59 -48q44 -15 95 -21.5t107 -4.5q29 2 57 4.5t55 6.5t51 8.5 t43 8.5q1 1 2.5 1t3.5 1q1 0 1.5 0.5t1.5 0.5h2t2 1q1 0 2 0.5t2 0.5q44 12 82.5 25.5t72.5 29.5q34 15 66.5 32t63.5 35q18 10 36.5 20.5t37.5 21.5t38.5 22t41.5 22q6 3 10.5 3.5t7.5 -1.5q2 -2 1 -5t-5 -8q-2 -2 -3.5 -4t-3.5 -4l-3.5 -3.5l-3.5 -3.5l-7.5 -7.5 t-7.5 -6.5l-1.5 -1.5t-2.5 -1.5l-1.5 -1.5t-0.5 -1.5q-3 -3 -6 -5.5t-5 -4.5q-3 -3 -6 -5.5t-6 -5.5q-5 -6 -9.5 -12t-8.5 -13q-7 -10 -12.5 -20.5t-10.5 -21.5q-2 -5 -4 -10.5t-4 -10.5q-2 -6 -4 -11.5t-4 -10.5l-0.5 -0.5t-0.5 -1.5q-1 0 -1.5 -0.5t-0.5 -1.5v-1.5v-1.5 q-2 -7 -5 -14l-6 -14q-1 -3 -2.5 -6.5t-2.5 -6.5q-2 -4 -3 -7.5t-3 -6.5q-8 -18 -18 -35.5t-21 -34.5q-11 -16 -25 -32t-29 -30l-3.5 -3.5l-3.5 -3.5q-3 -3 -6.5 -6t-7.5 -5q-3 -2 -5.5 -4.5l-5.5 -5.5q-3 -2 -5.5 -4.5l-5.5 -5.5q-28 -24 -59.5 -46.5t-65.5 -43.5 q-35 -21 -71.5 -35t-76.5 -21q-18 -3 -37.5 -5t-38.5 -3h-18.5h-19.5q-28 1 -57 2.5t-58 3.5q-31 3 -61.5 4.5t-60.5 2.5h-30.5t-31.5 -2q-16 -1 -31.5 -3t-30.5 -5q10 10 20 17.5t23 12.5q12 5 26 9t29 6q8 1 16.5 2.5t18.5 2.5q8 1 16.5 2t18.5 1q4 1 8.5 1h8.5h8.5h9.5 h20.5h20.5h7h7h3h4q5 1 10 1h11h5.5h4.5h4.5h5.5h5.5h5.5h5.5h5.5h15.5h15.5q7 1 15 1h16h15.5h15.5q8 1 16 1h16q36 1 69.5 5.5t63.5 10.5q30 7 56.5 22.5t50.5 41.5q15 16 27 32t21 34q5 9 9.5 18t9.5 18t9.5 18.5t9.5 19.5q0 2 1 4t3 5q1 2 1.5 4.5t1.5 5.5l6 14t7 14 q2 3 3.5 6.5t3.5 7.5q2 3 3.5 6.5t3.5 6.5q8 15 16 29.5t17 28.5q3 5 6.5 9.5t6.5 9.5q6 9 12.5 19t13.5 19v1v0z" />
<glyph unicode="H" horiz-adv-x="1195" d="M686 244q-8 -13 -16.5 -25.5t-17.5 -24.5q-4 -6 -8.5 -11.5t-8.5 -11.5q-14 -16 -30 -32t-35 -31q-26 -21 -56 -39.5t-62 -33.5q-31 -15 -66 -24.5t-71 -11.5h-2h-1h-2h-2h-2t-1 -1h-2h-2q-7 -1 -15 -1.5t-17 -1.5q-9 0 -18.5 -0.5t-19.5 -1.5q-21 -1 -42 -1t-44 1 q-37 2 -71 8t-64 16q-28 11 -42.5 29.5t-14.5 46.5q1 24 14.5 44.5t37.5 38.5q25 17 53.5 31.5t59.5 25.5q15 6 30 10.5t30 8.5t28.5 7t25.5 6q44 8 87.5 14t88.5 9q44 3 89 4t90 -1h10.5h11.5q5 -1 10.5 -1h11.5q11 -1 22.5 -1.5t22.5 -1.5q8 23 13 45.5t7 45.5t3 46.5 t-1 47.5q-1 18 -3.5 36.5t-4.5 37.5q-4 18 -7.5 36.5t-7.5 37.5q2 2 5 3.5t6 2.5l3 1.5l3 1.5q1 0 2.5 0.5t2.5 1.5q7 3 14 5.5t14 3.5q6 2 13.5 3.5t16.5 2.5q5 -19 8.5 -40.5t3.5 -44.5q0 -22 -1.5 -45.5t-5.5 -46.5q-4 -25 -9.5 -49t-12.5 -48t-14.5 -45.5t-15.5 -41.5 q29 -2 58.5 -4.5t59.5 -5.5l60 -6l60 -6q1 4 2 7.5t3 7.5l2 8t3 8q14 44 31 86.5t36 85.5q20 43 47 82.5t61 76.5q1 2 3.5 4.5l6.5 6.5q4 5 8 9.5t9 9.5q1 1 2 1.5t2 1.5q0 1 1 1.5t2 1.5t2 1.5t2 1.5q0 1 1 1.5t2 1.5q6 5 11 8.5t9 6.5q5 3 8.5 3.5t7.5 -1.5q2 -1 1.5 -5.5 t-4.5 -10.5q-2 -4 -5.5 -8.5t-6.5 -8.5q-1 -2 -2.5 -4.5t-3.5 -4.5q-1 -1 -1.5 -2t-0.5 -2q-1 -1 -2 -1.5t-1 -1.5q-5 -6 -9 -11l-8 -10t-6.5 -8.5t-3.5 -5.5q-21 -30 -37 -61.5t-30 -64.5q-13 -33 -24.5 -66t-22.5 -66q-3 -8 -6 -16.5t-5 -16.5q-3 -8 -5.5 -16.5 t-4.5 -16.5l-2 -6l-2 -6q0 -1 -0.5 -2t-0.5 -2q-1 -1 -1.5 -2.5t-0.5 -3.5q10 -1 20.5 -2.5t21.5 -2.5q5 0 10.5 -0.5t10.5 -1.5l32 -2t32 -1h1h2h1.5h1.5h0.5h1.5h1.5t1.5 1h0.5h1.5h3.5h3.5h3.5h3.5q1 -1 2.5 -1h3.5q3 -1 5 -2t3 -3q2 -6 -4.5 -10.5t-21.5 -7.5t-32 -5 t-35 -4q-15 -1 -28 -2t-25 -1q-13 -1 -21.5 -1t-13.5 1q-2 -4 -3 -7.5t-2 -7.5q-2 -4 -3 -7.5t-2 -6.5l-2 -6t-1 -5q-1 -3 -2 -5.5t-2 -5.5l-2 -6t-1 -5q-1 -3 -2 -5.5t-2 -5.5q-8 -25 -17.5 -50.5t-20.5 -50.5t-24 -48t-28 -45q-1 -1 -2 -1.5t-1 -1.5q-1 0 -1.5 -0.5 t-0.5 -1.5t-0.5 -1.5l-1.5 -1.5q-1 0 -1.5 -0.5t-0.5 -1.5q-4 -5 -9 -8t-11 -4q-5 -2 -12.5 -2.5t-17.5 -1.5q17 27 30 54t23 55q8 29 16.5 57.5t15.5 58.5v3t1 3q0 1 0.5 2.5t1.5 2.5q0 2 0.5 5t1.5 6q1 5 2 9.5t2 8.5q0 2 1 4.5t1 4.5q1 3 2 6.5t2 7.5q1 3 2 6.5t2 7.5 q-5 1 -10.5 1t-10.5 1q-11 1 -21.5 2t-20.5 2q-15 2 -30 3.5t-30 2.5h-3.5t-2.5 1h-1.5h-0.5h-2h-2q-4 0 -7 0.5t-6 1.5q-12 1 -24 2.5t-24 2.5q-6 1 -12.5 1.5t-12.5 1.5q-6 0 -12 0.5t-12 1.5v1v0zM660 248q-13 1 -26.5 2t-26.5 2q-14 0 -27.5 1t-26.5 2q-27 2 -54 3 t-53 1q-34 -1 -67.5 -2.5t-67.5 -4.5t-66.5 -8t-64.5 -12q-7 -1 -17.5 -4t-24.5 -8q-4 -1 -8.5 -3t-8.5 -3q-8 -3 -16.5 -6.5t-17.5 -7.5q-23 -10 -44 -23t-38 -27q-16 -14 -21.5 -29t0.5 -30q7 -13 23 -23t45 -15t60 -7.5t65 -2.5q23 -1 44.5 -0.5t43.5 1.5q21 2 39 3.5 t32 2.5h3.5t3.5 1h3.5h3.5t5 0.5t6 1.5q52 8 97.5 24t84.5 41q40 25 69 57t48 72v1v0z" />
<glyph unicode="I" horiz-adv-x="642" d="M-108 -17q5 8 11 13t16 9q6 3 12.5 5t13.5 5q3 1 6.5 2t6.5 2q4 1 7.5 1.5t6.5 1.5q3 0 6 0.5t6 1.5q7 2 11.5 2.5t7.5 1.5q9 1 17.5 2t16.5 2t16.5 1.5t17.5 1.5q17 1 34.5 1.5t35.5 0.5h16h16h8h8q2 -1 3 -1h3h5.5h5.5h3.5h3.5h3.5h3.5h3.5h3.5h2.5h3.5h6h6q2 -1 5 -1 h6h5.5h5.5q3 -1 5.5 -1h5.5q4 0 8 -0.5t8 -0.5q4 -1 8 -1h8h16t16 1q19 1 34 6t27 15q11 10 21 21.5t17 24.5q5 9 8.5 18.5t7.5 20.5q2 5 4 10.5t4 10.5q5 17 9 33.5t8 33.5q2 5 2.5 9.5t1.5 8.5q1 3 1.5 5.5t0.5 4.5q1 3 2 6.5t2 7.5q0 3 1 6.5t2 7.5q1 3 1 5t1 5q1 4 2 9 t2 9q1 3 2 6.5t2 7.5q0 3 1 6.5t2 6.5q11 40 23 74.5t26 62.5q14 29 35.5 56t49.5 54q8 6 15.5 12.5t14.5 13.5q6 5 12.5 9.5t13.5 9.5q2 2 4.5 3.5t4.5 3.5q-76 -7 -146.5 -24t-135.5 -45q-66 -28 -118 -69.5t-90 -97.5q-1 -1 -2 -2.5t-1 -2.5q-1 -2 -2 -3l-2 -2 q-2 -3 -3 -5.5t-2 -4.5q-10 -15 -19 -31t-18 -34t-15.5 -36t-10.5 -36q-4 -16 -7 -32.5t-3 -32.5q-1 -16 2 -30t8 -28q-9 1 -15 4t-10 9q-4 5 -5.5 11t-3.5 13v0.5v1.5q-1 1 -1 1.5v1.5v1.5v1.5q-1 0 -1 0.5v1.5v0v1v0v0v0.5v1.5q-2 6 -3 12.5t-1 13.5q-1 7 -1.5 13.5 t-0.5 13.5q-1 30 4 60t16 60q11 29 28 56t40 52q36 38 81 68t98 52q53 21 109 37.5t114 27.5q4 0 8.5 1t8.5 2t8.5 1.5t9.5 1.5q1 0 4.5 0.5l10.5 1.5l12.5 2.5t15.5 2.5h2.5h2.5t2.5 0.5t2.5 0.5h3.5t2.5 1h3.5h2.5q11 2 22 2.5t20 1.5q10 0 15.5 -0.5t7.5 -2.5 q1 -3 0 -5.5t-4 -4.5q-2 -1 -3.5 -2t-3.5 -2t-3.5 -1.5t-3.5 -1.5q-3 -1 -5.5 -2.5t-4.5 -2.5l-1 -0.5t-1 -1.5q-1 0 -2 -0.5t-2 -0.5q-13 -10 -24.5 -21t-19.5 -24q-4 -7 -8.5 -13.5t-7.5 -12.5q-4 -7 -7.5 -13.5t-6.5 -13.5q-1 -3 -2.5 -6t-2.5 -6t-1.5 -5.5t-2.5 -4.5 q-4 -13 -8.5 -26.5t-8.5 -27.5l-4 -14l-4 -14l-4 -14l-4 -14q-1 -4 -2 -7.5t-2 -6.5q-1 -4 -2 -7.5t-2 -7.5t-2 -7.5t-1 -6.5q-1 -4 -2 -7.5t-2 -7.5q-10 -34 -22.5 -68.5t-26.5 -67.5q-14 -34 -33.5 -63.5t-44.5 -55.5q-13 -14 -28.5 -27t-32.5 -24q-16 -12 -35 -20.5 t-40 -13.5q-5 0 -9.5 -1t-9.5 -2q-9 -2 -18.5 -3.5t-19.5 -1.5q-7 0 -14.5 -0.5t-14.5 -0.5q-8 -1 -15 -1h-15h-3h-2h-0.5h-1.5h-1.5h-0.5l-238 -1q-3 1 -7 1h-8h-4.5t-5.5 -1q-2 0 -4.5 -0.5t-4.5 -0.5h-8.5t-8.5 -1q-5 -1 -10 -1.5t-9 -1.5l-2 -1v0z" />
<glyph unicode="J" horiz-adv-x="717" d="M430 46q4 10 7.5 19.5t6.5 19.5t6.5 20t7.5 20q7 20 13.5 40.5t13.5 41.5v1v2t0.5 2t1.5 2q3 10 6 19.5t6 19.5q3 9 6.5 18.5t6.5 19.5t6 19.5t6 19.5q3 9 6.5 18.5t7.5 19.5q1 2 1.5 3.5t1.5 3.5q0 1 0.5 3t1.5 3q1 2 1.5 3.5t1.5 3.5q0 1 0.5 3t1.5 4q15 39 33 73.5 t39 62.5q20 29 52.5 56.5t77.5 53.5h-7.5h-6.5q-4 -1 -7.5 -1h-7.5h-14h-14q-61 -3 -120.5 -14t-115.5 -30q-57 -19 -103 -50t-81 -73q-4 -4 -7.5 -9t-6.5 -9q-3 -5 -6 -9.5t-6 -9.5q-2 -3 -3.5 -6.5t-3.5 -6.5q-4 -6 -7.5 -12.5t-6.5 -12.5l-0.5 -0.5t-0.5 -1.5 q-1 0 -1.5 -0.5l-0.5 -0.5v-1.5v-1.5t-0.5 -2t-1.5 -2t-1.5 -2.5t-2.5 -3.5q-1 -3 -2.5 -5.5t-2.5 -4.5q-3 -5 -6.5 -9.5t-8.5 -8.5q-4 -4 -9 -7.5t-10 -6.5q-1 -1 -2.5 -2t-5.5 -3q-2 -1 -5.5 -2.5t-6.5 -3.5q-1 0 -2.5 -0.5t-3.5 -1.5q-1 -1 -2.5 -1.5t-2.5 -0.5 q-1 -1 -2.5 -1.5l-1.5 -0.5q-6 -2 -10.5 -4t-8.5 -3l-3 -1.5t-3 -0.5q-5 -1 -8 -0.5t-3 4.5q0 9 4 20t11 24q7 14 15.5 27.5t18.5 27.5q3 5 6.5 9.5t7.5 8.5q2 3 3.5 5.5t3.5 4.5q3 3 6 6.5t6 7.5q2 3 5 6.5t6 6.5q8 10 16.5 19t16.5 16q8 8 15 14.5t14 11.5q31 24 68 43 t80 34q43 14 87 24t89 16q20 2 39.5 4t39.5 3q19 1 37.5 1h37.5h1h3q1 -1 3 -1h4h8.5h10.5q4 -1 8 -1.5t7 -0.5q3 -1 6 -1.5t6 -1.5q6 -1 4 -4t-11 -6q-21 -7 -37.5 -18t-27.5 -26q-13 -16 -22 -32t-17 -33q-3 -7 -5.5 -14.5t-4.5 -14.5q-3 -7 -5.5 -13.5t-4.5 -12.5 q-4 -10 -7.5 -20t-6.5 -20q-2 -5 -3.5 -10t-3.5 -10q-6 -15 -10.5 -30t-9.5 -30l-2 -6l-2 -6l-2 -6l-2 -6l-2 -6t-1 -6l-2 -6l-2 -6q-7 -22 -15.5 -44.5t-16.5 -45.5l-8 -22l-8 -22q-13 -34 -27 -67t-29 -65l170 1q-8 -13 -21 -23t-30 -15q-18 -5 -36.5 -8t-37.5 -4h-10.5 t-10.5 -1h-9.5h-9.5h-18.5h-16.5q-1 -2 -3 -3.5t-3 -3.5q-3 -4 -6 -7.5t-6 -7.5q-4 -5 -8 -11t-9 -12q-27 -34 -59 -66t-67 -63q-36 -30 -78 -52.5t-90 -36.5q-6 -2 -12.5 -3t-13.5 -3q-3 0 -6.5 -1t-6.5 -1q-4 -1 -9 -1.5t-10 -1.5t-9.5 -1.5t-9.5 -0.5q-29 -2 -54.5 2.5 t-50.5 13.5q-24 10 -41 27t-25 43q-8 27 -1 51t27 44q22 20 45 36.5t48 29.5q3 1 6 2.5l7 3.5q1 0 2 0.5t2 1.5h0.5h1.5q1 1 2.5 1.5t3.5 1.5q41 16 84.5 27t88.5 19t90 13t90 8h4t4 1h4h4h4t4 1h5h5v1v0zM407 -6q-16 2 -32.5 3t-32.5 1q-16 1 -32.5 1t-33.5 -1 q-26 0 -51.5 -2t-51.5 -5q-20 -2 -38.5 -5.5t-36.5 -8.5q-7 -2 -13 -3.5t-12 -3.5q-31 -10 -55 -25t-42 -36q-17 -21 -22 -46t4 -54q7 -22 21 -37t33 -22q22 -8 45.5 -10t48.5 1q1 0 2 0.5t2 0.5q2 0 4 0.5t4 0.5q3 1 6 1.5t7 1.5q37 10 69.5 27t60.5 42t52.5 51.5 t44.5 54.5q7 10 13.5 19.5t11.5 18.5q2 3 4 6.5t4 6.5q4 6 8.5 11.5t7.5 11.5v-1v0z" />
<glyph unicode="K" horiz-adv-x="948" d="M561 298q-2 -4 -3 -8.5t-2 -8.5q0 -2 -0.5 -4t-1.5 -4t-1.5 -3.5t-0.5 -3.5q-10 -36 -23 -69t-28 -63q-16 -30 -45 -56t-71 -49q-7 -4 -14.5 -7.5t-15.5 -6.5q-7 -3 -14 -5.5t-14 -4.5q-5 -1 -9.5 -2t-9.5 -2q-9 -1 -18.5 -2.5t-19.5 -2.5q-15 -2 -31.5 -2.5t-33.5 -0.5 h-39.5h-39.5h-20h-19q-10 1 -20 1h-20h-3.5h-5.5h-5.5t-7.5 -1h-5.5h-5.5h-5.5h-5.5h-10h-13q-11 0 -21.5 0.5t-20.5 1.5q-11 1 -17.5 2.5t-9.5 2.5q-2 1 -2 2.5t2 3.5l1.5 1.5t1.5 0.5q1 2 2.5 3.5t3.5 2.5q1 1 2 1.5t2 1.5q1 0 2 0.5t2 1.5q1 0 2 0.5t2 1.5t2 1.5t2 1.5 q4 2 7.5 3.5t7.5 2.5q4 2 6.5 2.5t3.5 1.5q19 5 41.5 8t50.5 4h58h59q38 -1 75 -0.5t71 1.5q35 2 60 8t40 17q5 5 10 11t9 13q1 4 2.5 7.5t2.5 7.5t2.5 8.5t2.5 8.5q0 3 0.5 6t1.5 7v3.5t1 3.5q0 1 0.5 3t1.5 3v2t1 2v2v2q0 2 0.5 4t1.5 4q1 3 1.5 6.5t1.5 6.5q2 7 3.5 13.5 t2.5 12.5q2 10 4.5 19.5t5.5 19.5q5 20 10 39.5t10 38.5q3 10 6 19.5t6 19.5q2 10 5 19.5t6 19.5q13 44 30 79.5t36 63.5t51.5 54.5t78.5 51.5q1 0 2 0.5t2 1.5q1 0 1.5 0.5l1.5 1.5q-12 -1 -24.5 -1.5t-25.5 -0.5q-14 -1 -27.5 -1.5t-28.5 -1.5q-10 0 -19.5 -1t-19.5 -1 q-19 -1 -38.5 -2.5t-39.5 -3.5q-37 -3 -73.5 -8t-71.5 -12q-36 -7 -66 -16t-56 -21q-24 -12 -35.5 -26.5t-11.5 -31.5q0 -16 3.5 -33.5t8.5 -35.5v-2v-2l0.5 -0.5l0.5 -0.5q0 -1 0.5 -1h0.5q1 -4 2 -8.5t2 -9.5q0 -4 1 -8.5t2 -8.5q2 -9 2.5 -17t-1.5 -16q-1 -2 -2 -6t-3 -9 l-2 -6t-2 -5q-2 -3 -3 -6t-3 -6l-2 -4l-2 -4l-2 -4l-2 -4q-3 -4 -5.5 -7.5t-4.5 -6.5l-2 -2t-1 -2q-1 -1 -2 -1.5t-2 -1.5t-2 -1.5l-1 -0.5q-1 -1 -2 -1h-2q-4 0 -6 2.5t-4 8.5q-2 5 -3.5 11t-2.5 13q-2 5 -3 10.5t-1 10.5q-1 5 -1 8.5v4.5q-1 3 -2 6.5t-1 7.5q-1 3 -2 6.5 t-2 6.5q0 2 -0.5 4t-1.5 4v2t-1 3q0 3 -1 6l-2 6q-10 38 -16 66.5t-8 46.5q-1 18 19.5 34.5t63.5 30.5q5 2 12 4l14 4q8 2 15.5 4.5t17.5 4.5q23 5 50.5 10.5t61.5 10.5t68.5 9t71.5 8q22 2 43.5 3.5t42.5 2.5q11 0 21.5 1t21.5 1q31 2 58 2t49 -1q10 -1 14.5 -3t3.5 -5 q-2 -4 -5 -7.5t-9 -8.5q-1 -1 -2.5 -1.5t-2.5 -1.5t-2.5 -2t-2.5 -2q-4 -3 -7.5 -5t-7.5 -4t-5.5 -3.5t-3.5 -2.5q-16 -13 -28.5 -31.5t-23.5 -41.5q-11 -24 -20.5 -48.5t-17.5 -50.5q-6 -19 -11.5 -37.5t-10.5 -36.5q-6 -18 -10.5 -34t-8.5 -30q14 1 28 2.5t27 4.5 q14 3 26 7.5t24 11.5q25 14 48.5 30t45.5 35q15 12 28.5 24.5t27.5 25.5q7 7 14 13.5t14 13.5l16.5 16.5t16.5 17.5q5 4 9 8l9 9q4 4 8.5 8t8.5 8q17 16 36.5 30t41.5 27t45.5 22t49.5 14h2h2l1 0.5l1 0.5h2t3 1h2h2h2t2 1h3.5h2.5h2t2 1h3.5h2.5h10.5h10.5q6 -1 10 -2t6 -3 t3 -4t0 -4l-2 -2l-2 -2t-2 -1.5t-2 -1.5l-5 -2.5t-6 -2.5t-5.5 -2t-4.5 -2q-1 -1 -2.5 -1.5t-2.5 -0.5l-3 -1.5t-3 -0.5q-1 -1 -2.5 -1.5t-3.5 -0.5q-1 -1 -2 -1.5t-2 -1.5q-13 -7 -25.5 -14t-23.5 -15q-12 -7 -23.5 -15.5t-22.5 -16.5t-22.5 -16.5t-22.5 -16.5t-21.5 -16.5 t-21.5 -16.5q-1 -1 -2 -1.5l-1 -0.5q-1 -1 -2 -1.5t-2 -1.5t-2 -1.5l-1 -0.5l-1 -1v0l-1 -1l-1 -1q-25 -20 -51.5 -39t-53.5 -37q-8 -6 -17 -12l-18 -12q-37 -23 -78.5 -40t-88.5 -28q25 -9 48.5 -19t45.5 -22t39 -28.5t30 -36.5q11 -18 19.5 -37t15.5 -39q2 -6 3.5 -12.5 t3.5 -13.5q4 -13 7.5 -26t6.5 -26q0 -2 0.5 -4.5t1.5 -4.5t1.5 -4.5t0.5 -4.5l2 -8l2 -8l2 -8l2 -8q0 -5 1 -9.5t2 -8.5q1 -5 2 -9t3 -9q1 -4 2.5 -8.5t2.5 -8.5q2 -7 3.5 -13.5t4.5 -13.5q2 -6 5 -12.5t7 -13.5q8 -13 17.5 -25t21.5 -23l0.5 -0.5l1.5 -1.5l0.5 -0.5 t1.5 -0.5q0 -1 0.5 -1.5l0.5 -0.5l0.5 -1t1.5 -2q2 -1 2.5 -2t1.5 -2v-3.5v-2.5v-1.5t-1 -1.5l-1 -0.5t-2 -1.5q-2 -1 -5 -1t-6 1q-4 1 -7 3t-5 4q-1 1 -2 1.5t-2 0.5q-1 1 -2 1.5t-2 1.5l-1.5 1.5t-1.5 0.5l-1.5 1.5t-0.5 1.5q-4 3 -6.5 5.5l-4.5 4.5l-4.5 4.5t-1.5 2.5 q-19 19 -34 40t-29 44q-13 22 -23.5 43.5t-20.5 43.5q-1 3 -2.5 5.5t-2.5 5.5q-1 2 -2.5 4.5t-2.5 5.5t-2 5.5t-1 5.5q-1 2 -2 4.5t-2 5.5q-4 8 -8 19t-10 24q-5 14 -11 27.5t-12 27.5q-3 5 -5.5 10t-4.5 10t-4.5 10t-5.5 10t-5.5 9.5t-5.5 9.5q-3 4 -5.5 8.5t-5.5 8.5 q-2 3 -3.5 5.5t-2.5 4.5q-2 2 -3.5 4.5t-3.5 4.5q-4 5 -7.5 8.5l-6.5 6.5q-6 5 -12.5 8.5t-13.5 6.5q-2 1 -4.5 1.5t-4.5 1.5q-10 3 -19.5 4.5t-20.5 2.5v1v0z" />
<glyph unicode="L" horiz-adv-x="788" d="M138 46h404q7 -1 14 -1h14h15.5t14.5 1q10 0 20.5 1.5t21.5 2.5q11 2 21 5t19 7h1t2 1q1 0 2.5 0.5t3.5 1.5v0l1 1h0.5h0.5h0.5t0.5 1h1.5h1.5q3 1 6 1h5t3 -2t1 -5v-1.5v-0.5q-1 -1 -1 -1.5v-0.5l-0.5 -0.5t-0.5 -1.5q-1 0 -1.5 -0.5t-0.5 -1.5q-4 -4 -8 -7.5t-9 -6.5 q-3 -2 -6 -3.5t-5 -3.5q-3 -1 -6 -2.5t-6 -3.5q-3 -1 -5.5 -2.5t-4.5 -2.5t-4.5 -2t-5.5 -2q-5 -2 -9 -3.5t-7 -2.5q-16 -6 -33.5 -9t-36.5 -4q-9 -1 -18.5 -1.5t-18.5 -1.5t-18.5 -1.5t-18.5 -0.5h-14.5h-13.5h-7.5h-6.5q-4 1 -7.5 1h-6.5h-5.5h-5.5h-5.5h-5.5h-10.5h-9.5 l-461 -1q-4 1 -10.5 1h-13.5h-4.5h-4.5q-4 -1 -8.5 -1.5t-9.5 -0.5h-13h-14h-6t-7 -1h-6.5h-6.5q-5 1 -8 1.5t-4 2.5q0 1 1 3t5 3q15 11 33 19t38 12q10 2 20.5 3.5t20.5 3.5q11 1 21 2t21 2h8.5h8.5h4t4 1h3.5h3.5q17 1 32.5 2t30.5 2q15 2 29 5t26 7q32 12 56 31t42 46 l8 14t9 14q12 21 24.5 44.5t23.5 48.5q3 8 6.5 16.5t7.5 16.5q2 4 3.5 8.5t3.5 8.5t4 8.5t4 8.5q4 9 8 17.5t8 16.5q16 33 35.5 66t44.5 65q24 32 57 59.5t75 49.5q11 6 24.5 12t28.5 12t30 11t30 9q39 10 74.5 10t65.5 -10t34.5 -39.5t-15.5 -79.5l-2 -4t-1 -3 q-1 -2 -2 -3.5t-2 -3.5q0 -1 -0.5 -2t-1.5 -2v-1.5t-1 -0.5q0 -2 -1 -3.5t-2 -3.5q-7 -13 -15 -25.5t-16 -24.5q-3 -4 -6.5 -8t-6.5 -8q-6 -7 -12.5 -14t-13.5 -14l-1.5 -1.5t-2.5 -1.5q-1 -1 -1.5 -2t-1.5 -2t-2 -1.5l-1 -0.5q-1 -1 -2 -1.5t-2 -1.5t-2 -1.5l-1 -0.5 q-1 -1 -2 -1h-2t-2 -0.5t-2 -0.5t-2 0.5t-2 0.5h-1t-1 1q-1 0 -2 1l-2 2q-4 3 -3 12t7 23q5 14 10.5 30t11.5 32v0.5v1.5h0.5t0.5 1l0.5 0.5l0.5 0.5q3 7 5.5 13.5t4.5 12.5t4.5 12t5.5 12q4 11 6.5 20t3.5 15q4 26 -5 40t-32 15q-22 1 -46.5 -5t-51.5 -19q-17 -8 -32.5 -18 t-30.5 -21t-27.5 -23t-22.5 -24q-9 -12 -17.5 -24.5t-14.5 -26.5q-3 -7 -6.5 -13.5t-6.5 -12.5q-3 -7 -5.5 -13.5t-5.5 -13.5q0 -1 -0.5 -2.5t-1.5 -3.5q-1 -1 -1.5 -2.5t-0.5 -3.5q-1 -3 -2.5 -5.5t-2.5 -4.5q-1 -4 -2.5 -7.5t-2.5 -6.5t-2.5 -6t-2.5 -6 q-5 -13 -11.5 -25.5t-12.5 -25.5l-6 -12l-6 -12q-10 -19 -21 -37t-23 -35q-19 -28 -42.5 -53.5t-51.5 -46.5t-58 -41t-62 -38v1v0z" />
<glyph unicode="M" horiz-adv-x="1561" d="M1002 620q-8 -7 -16 -15l-15 -15q-7 -8 -13.5 -15.5t-12.5 -15.5q-13 -16 -24 -33t-20 -35q-4 -7 -7.5 -14.5t-7.5 -14.5l-7.5 -15t-6.5 -15l-14 -30t-12 -30l-14 -30l-14 -30q-4 -7 -7.5 -14.5t-6.5 -15.5q-3 -7 -6.5 -14.5t-7.5 -14.5q-30 -58 -67 -103t-81 -77 q-43 -33 -104 -52.5t-138 -24.5q-10 -1 -22 -1.5t-24 -1.5q-13 0 -26.5 -0.5t-27.5 -1.5q-29 -2 -59 -2t-60 1q-36 1 -70.5 5t-67.5 8q-32 6 -58 15.5t-45 22.5q-5 4 -9 8.5t-6 8.5q-1 5 -1 10t2 10t5.5 10.5t8.5 11.5q4 4 7.5 7t6.5 7q2 1 3.5 3t3.5 3q4 2 7.5 4.5t6.5 4.5 q4 2 6.5 4.5t4.5 3.5q34 21 74 39.5t86 33.5t93 28.5t96 23.5q15 3 30 6.5t31 6.5q15 3 30 5.5t30 5.5q30 5 58 10.5t56 9.5q2 0 8 1t13 2q8 2 16.5 3.5t18.5 2.5h2h2h1h2h2.5t2.5 1q1 0 2.5 0.5t2.5 0.5q14 2 26 3.5t23 2.5t18.5 1t9.5 -2q1 -1 1.5 -2l0.5 -1v-2t-1 -2 q-1 0 -1.5 -0.5t-0.5 -1.5q-1 0 -1.5 -0.5l-0.5 -0.5q-1 -1 -2.5 -2t-3.5 -2t-4.5 -2t-4.5 -2q-3 -1 -5.5 -2t-4.5 -2q-4 -2 -8.5 -3.5t-8.5 -3.5q-5 -1 -7.5 -2t-4.5 -1q-39 -13 -78.5 -24t-79.5 -20t-80.5 -16.5t-81.5 -15.5q-2 0 -3.5 -0.5t-3.5 -1.5q-4 0 -7.5 -0.5 t-6.5 -1.5q-5 -1 -10 -1.5t-10 -1.5q-16 -3 -31.5 -6t-30.5 -6q-7 -1 -14.5 -3t-15.5 -3q-7 -2 -14.5 -3.5t-15.5 -3.5q-10 -2 -22 -5t-26 -7l-30 -8t-30 -9q-22 -7 -42 -15.5t-37 -18.5q-19 -10 -30.5 -21.5t-17.5 -23.5q-2 -7 2 -12t14 -8q5 -1 10.5 -2.5t10.5 -2.5 q6 -1 11.5 -2t9.5 -1q10 -1 19 -1.5t18 -0.5h13.5h9.5h0.5h0.5h0.5h0.5v0h1v0v0q13 -1 25.5 -1.5t25.5 -0.5q9 0 17.5 -0.5t16.5 -0.5h8.5h8.5q26 -1 51.5 -1t51.5 1q26 0 51.5 1t50.5 2h2h2h2h2h2t2 1h1h1h1.5h1.5q16 1 32.5 2t32.5 3q16 1 32.5 3.5t32.5 5.5 q32 6 61.5 17.5t55.5 28.5q38 24 66.5 54t47.5 64q19 35 35.5 70t31.5 72q0 1 0.5 2t1.5 2l0.5 1l0.5 1v2t1 2l0.5 1t0.5 2q7 17 14 33.5t14 32.5q7 17 14.5 32.5t16.5 31.5q4 7 8.5 15t11.5 17q6 9 13.5 18t14.5 18q12 15 26 30t30 28q15 14 31 24t33 16q8 3 13 2.5t8 -4.5 q2 -3 3.5 -6t2.5 -6q1 -2 1.5 -3.5t1.5 -3.5v-2v-2v-1.5t1 -0.5v-1.5v-0.5q3 -25 3.5 -50.5t-1.5 -51.5q-1 -26 -4.5 -52t-7.5 -52q-1 -5 -2 -10.5t-2 -10.5t-2 -10.5t-2 -10.5l-2 -10l-2 -10l-2 -10l-2 -10q-7 -42 -14 -82t-13 -78q-5 -39 -3.5 -74t11.5 -67 q11 8 19.5 16.5t15.5 18.5q3 5 6.5 9.5t6.5 9.5q3 6 6.5 11t6.5 11l54 98l8 14t8 15q2 3 4 7l4 8l6 12l6 12q3 5 6.5 11t6.5 12q2 5 5 10.5t6 11.5q2 3 3 6t3 6l2.5 5t2.5 6q18 35 38 70t42 69q23 35 51 65t62 57l2.5 2.5t4.5 3.5t6.5 4.5t7.5 5.5q1 1 2 1.5t2 1.5l1 0.5 t2 1.5t1.5 1t1.5 1h1l1 1q1 0 2 0.5t2 1.5q6 3 12 5t12 3q5 0 9 -3t6 -9q5 -25 4.5 -54.5t-8.5 -64.5q-7 -34 -16 -70.5t-20 -75.5q-6 -21 -11 -42l-10 -42q-3 -10 -5.5 -21t-4.5 -21q-2 -11 -3.5 -21.5t-3.5 -21.5q-4 -28 -5.5 -56t-0.5 -55q0 -27 5.5 -53t14.5 -51 q3 -7 7 -15t8 -15q4 -8 8.5 -14.5t9.5 -12.5q8 -9 14 -16t12 -13q5 -6 9 -10l5 -5q0 -2 -0.5 -4.5t-2.5 -3.5q-1 -2 -3.5 -3t-5.5 -1q-2 0 -4 0.5t-4 0.5q-1 1 -2 1t-2 1t-2.5 2t-2.5 1q0 1 -0.5 1t-0.5 1q-1 0 -1.5 0.5l-1.5 1.5t-2.5 2t-2.5 2t-1.5 2l-0.5 1 q-30 27 -51 57.5t-34 62.5q-13 33 -20 67.5t-8 69.5v14v14v14t1 14q2 22 5 43.5t7 43.5t8.5 43.5t9.5 43.5q2 4 2.5 8t1.5 8t2.5 8t2.5 8q1 7 2.5 13.5t2.5 13.5q1 3 2 6.5t2 7.5q1 3 2 6.5t2 7.5q1 7 1.5 14t1.5 14q2 7 2.5 13.5t0.5 13.5v6.5v7.5q-1 3 -1 6.5v6.5 q0 5 -0.5 9.5t-1.5 8.5q0 3 -0.5 5.5t-0.5 4.5q-18 -13 -34.5 -31t-32.5 -39q-16 -22 -30 -44t-28 -45q-11 -18 -20.5 -35.5t-18.5 -34.5t-16.5 -32l-14.5 -29q-5 -12 -11.5 -25t-14.5 -28q-7 -15 -15.5 -30t-17.5 -30q-4 -7 -7.5 -14t-7.5 -14q-2 -3 -3.5 -6.5t-2.5 -6.5 l-3.5 -7t-3.5 -6q-7 -12 -14.5 -23t-14.5 -22q-7 -10 -14 -19t-12 -16q-4 -4 -8.5 -8t-8.5 -8q-5 -3 -9 -7t-9 -7q-3 -2 -6.5 -4.5t-6.5 -4.5q-6 -5 -12.5 -8.5t-13.5 -6.5q-5 8 -9.5 17t-8.5 19q-4 9 -6.5 18t-4.5 18l-4 18t-3 18q-2 8 -2.5 17t-0.5 18q-1 23 0.5 45.5 t5.5 45.5t9 47.5t10 51.5v0.5v1.5v0.5t1 1.5v0.5v0.5q6 35 11 70.5t9 71.5q4 35 5 70.5t-1 71.5v1v0z" />
<glyph unicode="N" horiz-adv-x="1386" d="M967 612q-16 -22 -31 -46t-29 -51q-13 -27 -24.5 -54t-22.5 -55l-2 -4l-2 -4q-1 -3 -2 -5l-2 -4t-1.5 -4t-1.5 -4q-1 -3 -1.5 -5t-1.5 -4q-7 -15 -13.5 -30t-11.5 -29q-6 -14 -12 -27.5t-13 -27.5q-37 -73 -85 -124t-108 -80t-138.5 -44t-173.5 -16h-13.5h-17.5 q-9 1 -20 1h-23q-24 1 -50 2.5t-54 2.5q-31 2 -60 6.5t-54 11.5q-27 6 -45 15.5t-25 22.5q-8 12 -6 23.5t13 22.5t23.5 21t26.5 19q4 2 8 4.5t7 4.5q2 2 4.5 3.5t5.5 2.5q2 1 3.5 2t3.5 2q4 2 7.5 4t6.5 3q49 23 101.5 42t107.5 33q54 14 110 26.5t112 22.5q5 1 9.5 1.5 t8.5 1.5q9 2 18.5 3.5t17.5 2.5q7 1 13.5 2t13.5 3q6 1 12.5 2.5t13.5 2.5q2 0 3.5 0.5t3.5 0.5q3 1 6.5 1.5t7.5 1.5q3 0 5.5 0.5t5.5 1.5q3 0 5.5 0.5t5.5 1.5q2 0 4.5 0.5t8.5 1.5q3 1 5.5 1.5t5.5 1.5q3 0 6.5 0.5t7.5 1.5h1t2 1v0h1h1h1h2t2 1q1 0 2 0.5t2 0.5 q8 2 16.5 2.5t15.5 1.5q8 1 12.5 1t6.5 -2q0 -1 0.5 -1.5l0.5 -0.5q0 -1 -0.5 -1.5t-0.5 -1.5q-1 -1 -2 -2.5t-3 -3.5q-1 -1 -2 -1.5t-2 -1.5q-1 0 -1 -0.5t-1 -0.5t-2 -0.5l-1 -0.5q-1 -1 -2 -1.5t-2 -0.5q-1 -1 -2.5 -1.5t-2.5 -1.5t-2.5 -1.5t-2.5 -0.5l-4 -2t-3 -1 q-26 -13 -53 -23t-56 -18q-15 -4 -29.5 -8t-28.5 -7t-28.5 -6t-29.5 -6q-10 -2 -20.5 -4t-19.5 -4q-10 -1 -20.5 -2.5t-19.5 -3.5q-2 -1 -4.5 -1.5t-4.5 -0.5q-3 -1 -5.5 -1.5t-4.5 -0.5q-4 -1 -8.5 -1.5t-8.5 -1.5q-18 -3 -37 -6.5t-40 -7.5q-10 -2 -20.5 -4t-20.5 -4 q-11 -2 -21.5 -4t-20.5 -4q-32 -7 -62.5 -15t-59.5 -18q-28 -10 -50.5 -22.5t-41.5 -27.5q-11 -10 -16.5 -18t-4.5 -14t9.5 -10.5t24.5 -6.5q18 -3 42 -5t54 -4q30 -1 60.5 -2t61.5 0h59.5t58.5 1q28 1 52.5 2.5t44.5 2.5q83 5 142 19.5t94 39.5t65.5 64t56.5 92q2 6 4.5 12 t5.5 12q2 6 5 13t7 14q6 15 13.5 32.5t14.5 38.5q8 20 17 41t19 43q11 26 25 51.5t29 50.5t32 44.5t38 33.5q6 5 13 7.5t14 3.5q4 1 7.5 0.5t7.5 -1.5q3 -1 6.5 -3t7.5 -5q11 -10 20.5 -23.5t18.5 -30.5q8 -16 15 -33.5t12 -35.5q4 -15 7.5 -29t6.5 -28t5.5 -26t4.5 -23 t3.5 -22t2.5 -22t2.5 -22t2.5 -22v-2v-1v-2v-2v-1.5t1 -1.5v-1.5v-1.5q4 -36 9 -71t11 -70q6 -34 17.5 -68t27.5 -67q7 26 14 52.5t14 54.5q8 28 16 56.5t18 56.5q15 46 33 91t40 88q22 44 50 81.5t62 70.5q2 3 5 6t7 6l3.5 3.5l3.5 3.5l3 3t4 3q11 9 23 18t26 16 q13 8 27.5 10.5t29.5 0.5q-7 -15 -14.5 -26.5t-12.5 -19.5l-6 -8t-5 -7l-6 -6t-6 -5t-5.5 -4t-4.5 -4q-1 -1 -2.5 -2t-3.5 -2q-1 -1 -1.5 -1t-1.5 -1q-7 -6 -16 -12t-19 -13q-9 -7 -20.5 -18.5t-25.5 -27.5q-27 -31 -49.5 -64.5t-40.5 -69.5q-9 -18 -17.5 -36t-16.5 -36 q-7 -19 -14 -37t-13 -36q-3 -7 -5.5 -14t-4.5 -14q-2 -5 -3.5 -9.5t-2.5 -9.5q-1 -2 -1.5 -4.5t-1.5 -4.5q-1 -6 -4 -15.5t-7 -21.5q-4 -13 -7.5 -26t-7.5 -27q0 -1 -0.5 -2t-0.5 -2l-0.5 -0.5l-0.5 -0.5q0 -2 -0.5 -3t-0.5 -3q-1 -3 -1.5 -5.5t-1.5 -4.5q-2 -6 -3.5 -12 t-3.5 -11q-2 -6 -3.5 -11t-3.5 -10q-4 -10 -6.5 -16t-4.5 -10q-3 -3 -5.5 -5t-4.5 -3h-4.5t-5.5 2q-3 1 -6 3t-5 5q-3 2 -6 4.5t-6 6.5q-2 2 -3.5 4.5t-3.5 4.5q-2 3 -3.5 5.5t-3.5 5.5q-2 4 -4 7.5t-4 7.5l-2 4l-2 4q-7 12 -13 23t-10 21q-4 11 -6 16t-2 6q-10 25 -17 50.5 t-11 51.5l-8 52l-8 52v1.5v1.5v2v2q-2 11 -3.5 21.5t-3.5 21.5q-2 10 -3.5 21t-3.5 21q-2 11 -4 21.5t-4 21.5q-2 10 -4 21t-5 21q-1 2 -2 4.5t-1 5.5q-1 2 -1.5 4.5t-0.5 5.5q-2 6 -4.5 12t-4.5 13q-3 6 -6.5 12t-6.5 12q-6 12 -15.5 22.5t-20.5 19.5v1v0z" />
<glyph unicode="O" horiz-adv-x="898" d="M20 228q1 32 9 61.5t24 57.5q17 28 37 54t45 51l1 1l2 2l1.5 1.5t1.5 0.5l2.5 2.5t3.5 2.5l1 0.5t2 1.5l0.5 0.5l1.5 1.5q4 2 7 3l6 2q2 0 4 -1.5t2 -4.5q0 -1 -2.5 -5l-7.5 -12q-4 -5 -7.5 -10t-6.5 -10q-2 -3 -3.5 -5.5t-3.5 -5.5v0v0v-1v0h-0.5h-0.5q0 -1 -0.5 -1 h-0.5q-4 -7 -8 -13l-8 -12t-6.5 -11t-4.5 -8q-2 -4 -4 -9t-4 -9q-2 -5 -3.5 -9.5t-2.5 -9.5q-1 -4 -2.5 -9t-2.5 -9q0 -5 -1 -9.5t-1 -9.5q-4 -27 -2 -53t10 -52q9 -26 24 -50t36 -46q17 -18 38.5 -30.5t46.5 -18.5q26 -6 52 -9.5t53 -4.5q11 -1 21.5 -1h21.5h10t11 1h10h10 q37 1 71 4t65 9q32 6 62.5 19t59.5 33q32 22 56 49.5t40 60.5q15 33 22.5 67t7.5 68q0 25 -3.5 49.5t-11.5 48.5q-7 24 -18.5 46t-25.5 42q-18 24 -39.5 43.5t-47.5 33.5t-52.5 24t-54.5 14q-53 9 -101 0.5t-89 -34.5t-53 -68t5 -99q1 -4 2 -8.5t2 -9.5q1 -4 2 -8.5t2 -9.5 q1 -3 1.5 -6t1.5 -6q2 -6 3.5 -12t2.5 -12q2 -11 3 -22.5t1 -22.5t-2 -22.5t-4 -22.5q-1 -1 -2 -3.5t-2 -5.5q-1 -2 -2 -4.5t-2 -5.5q-1 -1 -1 -2.5t-1 -2.5q-3 -6 -6 -11t-7 -10q-2 -2 -4 -3.5t-4 -1.5q-2 -1 -4 0l-4 2t-3.5 4t-2.5 9q-2 5 -3 11t-1 13q0 1 -0.5 2t-0.5 2 l-0.5 0.5t-0.5 1.5t-0.5 2.5t-0.5 2.5v5.5v4.5q-1 2 -1 4.5v3.5v1.5v1.5q-1 1 -1 1.5v1.5q-1 5 -2 9.5t-2 8.5q-1 2 -1 4.5t-1 4.5l-2 6t-2 7q-1 3 -2 6.5t-2 6.5t-1.5 6t-1.5 7q-1 3 -1.5 6t-1.5 6l-2 8l-2 8q-1 2 -1 4t-1 4q-4 14 -5.5 28t-1.5 29q0 14 3 29.5t10 31.5 q13 34 38.5 60t63.5 44t79 28.5t84 12.5h32t32 -2q16 -1 31 -3.5t30 -6.5q69 -18 115.5 -49.5t70.5 -76.5q25 -45 31.5 -93t-2.5 -98q-1 -4 -2 -8.5t-2 -8.5q-1 -5 -2 -9l-2 -8q-2 -9 -5 -17l-6 -16q-12 -31 -29.5 -61t-40.5 -58t-51.5 -51.5t-60.5 -43.5q-34 -21 -71 -34.5 t-77 -21.5q-13 -2 -26.5 -3.5t-27.5 -3.5q-27 -3 -53.5 -6t-54.5 -4q-36 -2 -70 -0.5t-67 6.5q-32 4 -61 16t-55 33q-23 19 -40 40t-27 45q-11 24 -16 49t-4 51v1v0z" />
<glyph unicode="P" horiz-adv-x="1076" d="M5 -4q-1 1 -2.5 1h-2.5h-1.5h-2.5h-4.5t-5.5 -1h-5h-6h-2h-2h-4h-4q9 11 23 20t31 15q19 6 39.5 10t41.5 6q5 0 9.5 0.5t8.5 0.5q9 0 18.5 0.5t17.5 0.5h13.5t12.5 1h11.5h10.5h1.5h1.5h2.5h1.5l189 1q8 -1 14 0.5t10 5.5q2 2 3.5 4t3.5 4q1 3 2.5 5.5t3.5 5.5q0 1 0.5 2 t1.5 2l0.5 1l0.5 1q0 2 0.5 3.5t1.5 2.5q8 17 14.5 35t12.5 36q2 6 3.5 12t3.5 12q3 12 6.5 24t7.5 24v2v2v0.5t1 1.5v0.5v1.5q4 17 8.5 34t10.5 34q5 17 12 34.5t14 33.5q1 2 2 4.5t3 5.5q1 2 2.5 4.5t2.5 4.5q2 5 4.5 10t6.5 10q11 20 26 39t33 38q17 19 38 33.5t46 24.5 h0.5t1.5 1h1.5t1.5 1l0.5 0.5t1.5 0.5h0.5h1.5h0.5h0.5h0.5t1.5 1h0.5h1.5h2t2 1h2h2q2 0 3.5 -0.5t1.5 -2.5q0 -1 -1.5 -4t-5.5 -7l-4 -4t-3 -4q-2 -3 -4 -5l-4 -4v-0.5v-0.5l-1 -1v0h-1.5h-0.5v-1v0l-8 -8l-8 -8t-6.5 -6t-2.5 -3q-11 -13 -19.5 -28t-16.5 -32 q-6 -12 -10.5 -25t-8.5 -26q-2 -4 -3 -8.5t-3 -8.5q-1 -5 -2.5 -10t-2.5 -10q-2 -5 -3 -10t-3 -10q-3 -10 -5.5 -19.5t-4.5 -18.5q-2 -4 -3 -8t-2 -7q0 -2 -0.5 -4t-1.5 -3q-1 -2 -1.5 -3.5t-0.5 -3.5q-19 -58 -45.5 -105t-61.5 -85q-36 -37 -94 -55t-139 -18l-237 -1v0v0z M41 344q-6 8 -11 14.5t-9 13.5t-6.5 13.5t-3.5 13.5q-2 7 -1 14.5t2 14.5q2 8 7.5 15.5t12.5 16.5q25 28 57 50.5t72 40.5q39 18 81 32.5t85 25.5q17 5 34.5 8.5t35.5 7.5q12 3 23.5 5t22.5 5q6 1 11.5 2t11.5 2q26 5 56 9.5t64 8.5t69 7t71 4q39 1 77 -0.5t75 -5.5 q38 -4 70 -12.5t59 -21.5t49 -31.5t39 -42.5q16 -24 24 -48.5t9 -50.5v-14.5t-1 -15.5q-1 -4 -2 -7.5t-1 -6.5q-1 -4 -2 -7.5t-2 -6.5q-11 -28 -33 -54.5t-56 -49.5q-34 -24 -68.5 -41.5t-72.5 -28.5q-10 -3 -19 -5l-18 -4q-4 -1 -8.5 -1.5t-8.5 -1.5q-5 -1 -9 -1.5t-9 -0.5 q-8 -1 -16.5 -1.5t-16.5 -0.5h-18.5t-16.5 1q-15 2 -29.5 3.5t-28.5 4.5q-14 2 -27.5 5t-27.5 7h-1.5t-1.5 1h-1.5h-1.5t-2 0.5t-2 0.5t-1 0.5t-1 0.5q-6 2 -10 3.5t-7 3.5q-4 2 -1.5 5t9.5 6q11 5 22.5 9t22.5 6t22.5 3t22.5 1h9.5t9.5 -1q4 0 9 -0.5t9 -1.5q2 0 4.5 -0.5 t5.5 -0.5q7 -2 14.5 -3t15.5 -2q4 -1 7.5 -1.5t7.5 -0.5q3 0 6 -0.5t6 -1.5h3h3q65 -10 114 2t80 46q30 34 40 72t1 81q-4 14 -9.5 28.5t-13.5 28.5t-19 27.5t-24 26.5q-22 20 -49.5 34t-59.5 21q-33 8 -66.5 12.5t-67.5 5.5h-40t-39 -1q-10 -1 -19.5 -1.5t-18.5 -0.5 q-9 -1 -18 -1.5t-17 -1.5q-22 -1 -45 -4t-48 -6t-50 -7t-50 -9q-41 -8 -81.5 -19t-78.5 -25t-69 -32t-56 -40q-13 -12 -20.5 -23.5t-9.5 -22.5q-1 -11 -0.5 -22.5t4.5 -22.5q3 -8 7.5 -16.5t9.5 -16.5l6 -8l6 -8q2 -5 5 -9l6 -8q11 -16 20 -31.5t16 -31.5q8 -16 9.5 -33.5 t-3.5 -35.5v-0.5v-1.5q-1 0 -1 -0.5v-1.5q-1 -1 -1.5 -2.5t-2.5 -3.5q-1 -3 -3.5 -5.5l-4.5 -4.5q-3 -2 -5.5 -1.5t-4.5 4.5q-2 2 -3.5 4.5t-3.5 5.5q-1 1 -1.5 2.5t-0.5 2.5q-1 2 -1.5 3.5t-1.5 2.5v0v0h-1v0v0v1v0v0q0 1 -0.5 2t-1.5 2l-0.5 1t-1.5 2q-1 2 -1.5 4t-1.5 4 l-6 10t-7 11q-3 5 -6.5 10t-7.5 10t-7.5 10t-6.5 10q-3 4 -6.5 9t-7.5 10l-1.5 1.5t-0.5 1.5q-1 0 -1.5 0.5t-0.5 1.5t-0.5 1.5l-1.5 1.5q-1 0 -1.5 0.5t-0.5 1.5q-1 2 -2.5 4t-2.5 4q-2 1 -3 3t-3 4q-3 4 -5.5 7.5t-4.5 7.5v1v0z" />
<glyph unicode="Q" horiz-adv-x="846" d="M268 45q65 20 124 43.5t111 50.5q53 27 100 64.5t89 83.5q4 5 8.5 10.5t9.5 11.5t9.5 12.5t10.5 13.5q5 6 9 13t9 14q4 7 8.5 14.5t8.5 15.5q8 15 15.5 31t12.5 32q8 21 11 42t2 42q-1 20 -8.5 37.5t-22.5 32.5q-13 11 -28 19t-34 12q-19 5 -38.5 7t-39.5 2 q-15 0 -30 -0.5t-29 -2.5q-15 -1 -28.5 -3.5t-24.5 -4.5q-58 -13 -110.5 -35.5t-99.5 -54.5q-46 -33 -82 -71.5t-60 -82.5q-1 -1 -2 -3t-2 -3q-1 -2 -2 -3.5t-2 -3.5q0 -1 -0.5 -2t-1.5 -2v-1.5t-1 -0.5q0 -2 -1 -3.5t-2 -3.5q-4 -9 -7.5 -18t-7.5 -19t-6.5 -19.5 t-4.5 -20.5q-4 -13 -5 -26t-1 -25q0 -13 2.5 -24t8.5 -20q5 -9 12 -14t17 -7q9 -2 19 -2.5t21 0.5h7.5t7.5 1q4 0 7.5 0.5t7.5 1.5v0l1 1h0.5h1.5h1.5t1.5 1h0.5h1.5q7 1 13.5 2.5t12.5 2.5q6 2 12.5 3.5t13.5 3.5q6 2 12.5 4t13.5 4q7 1 13.5 3t12.5 4q9 3 17.5 5.5 t16.5 4.5q8 3 16.5 5.5t17.5 4.5q17 5 34.5 8.5t36.5 4.5h0.5h1.5h1.5t1.5 1h2h2h4h4h2.5t2.5 1h3.5h3.5q5 0 9.5 -0.5t8.5 -1.5t6.5 -2t3.5 -3q0 -3 -1.5 -5t-5.5 -4q-4 -1 -8.5 -2.5t-9.5 -3.5q-4 -1 -7.5 -2t-7.5 -2t-5.5 -1.5t-2.5 -0.5q-11 -4 -21.5 -8t-20.5 -9 l-9 -4.5t-10 -4.5q-5 -3 -9.5 -5.5t-9.5 -4.5q-9 -4 -17.5 -8.5t-16.5 -8.5q-4 -2 -8.5 -4t-8.5 -4t-8.5 -3.5t-8.5 -3.5q-10 -4 -21.5 -8t-23.5 -7q-12 -4 -24 -6t-25 -3q-11 -1 -22.5 -1.5t-22.5 0.5q-11 2 -21 5t-20 7q-16 8 -29 20.5t-23 28.5t-17.5 33t-12.5 35 q-4 11 -6 21.5t-3 20.5q-2 11 -2 20t1 18q4 62 37.5 114.5t94.5 95.5q62 44 130 73t141 44q59 11 115 12t108 -8q53 -9 90.5 -30.5t61.5 -56.5q9 -13 14.5 -26.5t9.5 -27.5q3 -14 4 -28.5t-1 -28.5q-4 -26 -13.5 -51.5t-25.5 -51.5q-16 -25 -33.5 -47t-37.5 -40 q-47 -44 -99.5 -79t-110.5 -61q-58 -25 -120 -48.5t-128 -43.5q11 -1 21 -3t21 -4q10 -1 20.5 -3t20.5 -4t20.5 -4t20.5 -4q10 -3 20.5 -5t20.5 -4h2h2q1 -1 2 -1h2t2 -0.5t2 -0.5q0 -1 1 -1h2q22 -4 44.5 -7.5t44.5 -7.5q23 -5 45.5 -8t44.5 -6q8 -1 15.5 -1.5t14.5 -1.5 q8 -1 16 -1.5t16 -1.5h7.5h7.5h4h5q2 1 4 1h4h0.5h1.5q0 1 0.5 1h0.5h1.5h1.5q1 1 2 1h2v0h1q0 1 0.5 1h0.5h1h2t2 0.5t2 0.5h1h2h2h2t2 -0.5t2 -0.5l4.5 -3t1.5 -3q0 -1 -1 -2.5t-3 -2.5q-3 -2 -5.5 -3t-5.5 -3q-3 -1 -6.5 -2.5t-6.5 -2.5q-5 -1 -9.5 -2t-8.5 -2 q-5 -1 -7 -1.5l-2 -0.5q-23 -5 -44.5 -7t-41.5 -3q-20 0 -39 1t-38 3q-17 2 -35 5l-36 6q-18 4 -37 7.5t-39 7.5q-55 10 -111 18t-112 14q-56 4 -111 5.5t-109 -0.5q-7 -1 -14 -1.5t-14 -0.5q-2 0 -4.5 -0.5t-4.5 -0.5h-2h-2h-6.5h-7.5q-7 0 -14 -1l-14 -2q-2 0 -4.5 -0.5 t-4.5 -0.5q-4 -1 -8.5 -1.5t-9.5 -1.5h-1.5h-2.5h-0.5h-1.5h-1.5h-0.5h-2h-2q0 1 -1 1h-2l-3 1.5t-2 1.5v2v1v0v1q1 0 1 0.5v0.5q1 2 2 3l3 3q2 1 4.5 2.5t5.5 2.5q5 2 10.5 4.5t10.5 4.5q7 2 13.5 4.5t11.5 3.5q6 2 9.5 2.5t4.5 1.5q24 8 48 12.5t50 6.5t52.5 2.5 t52.5 -0.5q8 0 16 -0.5t16 -1.5q8 0 16 -0.5t16 -1.5t15.5 -2t15.5 -1q7 -1 15 -2l16 -2v1v0z" />
<glyph unicode="R" horiz-adv-x="1045" d="M760 295q6 -11 11 -22l10 -22q4 -12 8.5 -23t8.5 -22q5 -11 9 -22l8 -22q4 -12 8 -23l8 -22v0v0v-1v0v-0.5t1 -0.5v-1v0q2 -7 4.5 -14t5.5 -14q2 -7 4.5 -14t5.5 -14q8 -22 19 -42.5t24 -39.5q13 -20 30 -37t38 -33h0.5t0.5 -1l0.5 -0.5l0.5 -0.5l0.5 -0.5l1.5 -1.5v0 l1 -1v-0.5v-0.5h0.5t0.5 -1h0.5h0.5q1 -2 1 -3.5v-2.5q0 -2 -2 -2h-4q-3 1 -5.5 1.5t-5.5 1.5t-5.5 2t-5.5 3q-3 1 -5.5 3t-5.5 3q-3 2 -6 3.5t-6 3.5q-2 1 -4 2.5t-4 2.5q-3 2 -5 3t-4 3q-4 3 -7.5 5.5t-5.5 4.5q-7 5 -13 9.5t-11 9.5q-6 4 -10 8t-8 7q-17 15 -31.5 33.5 t-25.5 41.5t-21.5 47t-18.5 49q-2 4 -3.5 7.5t-2.5 6.5q-1 2 -1.5 4t-1.5 4l-2 6t-1 6l-2 6l-2 6q-5 12 -9.5 23.5t-8.5 22.5t-9 21.5t-10 20.5q-1 2 -2.5 4.5t-2.5 5.5q-2 2 -3 4.5t-3 4.5t-3.5 4t-3.5 5q-1 2 -2.5 4t-2.5 4h-1.5t-0.5 1h-1v0v0.5v1.5q-3 3 -5.5 6t-4.5 7 q-3 3 -5 6l-4 6q-4 6 -6.5 13.5t-4.5 14.5q-5 17 -3.5 23.5t11.5 2.5q9 -4 19.5 -10.5t23.5 -16.5q1 -1 2 -1.5t2 -1.5q0 -1 1 -1.5t2 -1.5t2 -1.5t2 -0.5q0 -1 1 -1.5t2 -1.5q8 -7 14.5 -13.5t13.5 -12.5q5 -6 8.5 -9.5t4.5 -3.5q41 -1 77.5 3t69.5 13q32 8 62 26t56 46 q3 3 6 6.5t7 7.5q3 4 6.5 8.5t7.5 8.5q5 9 11.5 19.5t13.5 21.5q1 3 2.5 5.5t2.5 5.5q4 9 8 17.5t7 17.5q5 15 7.5 30t2.5 30q-1 14 -6.5 26.5t-16.5 22.5q-10 9 -23 14.5t-28 8.5t-30.5 4t-32.5 1q-13 -1 -26.5 -3t-25.5 -4q-13 -2 -24.5 -4.5t-20.5 -4.5 q-58 -17 -101 -45.5t-72 -67.5q-28 -39 -49.5 -80.5t-37.5 -85.5q-1 -3 -2 -5.5t-2 -4.5q-1 -3 -2 -5.5t-2 -4.5t-2 -4.5t-1 -4.5q-1 -3 -2 -5.5t-2 -4.5q-1 -1 -2 -3t-1 -3q-1 -2 -1.5 -3.5t-0.5 -3.5q-1 -1 -2 -3t-1 -3q-1 -2 -1.5 -3.5t-0.5 -3.5q-19 -48 -44 -93.5 t-57 -88.5t-81.5 -70.5t-117.5 -41.5q-15 -2 -31 -4t-35 -3q-12 -1 -25.5 -1.5t-26.5 -0.5q-6 0 -12.5 0.5t-13.5 0.5q-26 1 -50.5 4t-48.5 8t-41.5 14.5t-31.5 22.5q-34 32 -30 60.5t46 53.5q40 25 90.5 46t108.5 37q35 10 68 18t64 15q32 6 55 11t38 8q-6 -6 -12.5 -12 t-12.5 -11t-12.5 -10t-12.5 -9q-13 -8 -30 -14t-37 -10q-15 -3 -31 -6t-34 -6q-9 -1 -18 -3l-18 -4t-18.5 -4t-18.5 -4q-26 -6 -51 -13.5t-48 -16.5q-25 -9 -42.5 -19t-30.5 -22q-26 -24 -20 -41t47 -27q39 -10 86.5 -13.5t101.5 -2.5q36 1 70.5 4t66.5 9t54.5 13.5 t35.5 17.5q14 11 25 26.5t20 35.5q8 20 16 43t15 48q4 14 8.5 29t8.5 30t9 30.5t10 31.5q10 26 21.5 52t24.5 51q14 25 33 47.5t42 43.5q29 26 65 46t77 35t83 23.5t85 9.5h10.5h11.5h5.5h5.5q8 0 16 -0.5t16 -1.5q53 -6 86 -22.5t46 -43.5t12 -56t-16 -61l-6 -12t-7 -12 l-4 -6t-4 -5q-2 -3 -4 -5.5t-4 -5.5q-34 -43 -72.5 -72t-82.5 -43q-43 -14 -95 -21.5t-112 -8.5v1v0z" />
<glyph unicode="S" horiz-adv-x="928" d="M575 265q6 -4 12.5 -8.5t13.5 -7.5q7 -4 14.5 -7.5t14.5 -6.5v0v0q0 -1 0.5 -1h0.5q1 -1 2 -1.5t2 -0.5v0h1v-1v0v0h1v-1v0l0.5 -0.5l0.5 -0.5q1 -1 1.5 -1t0.5 -1v-1h-2h-5h-15h-21h-24q-1 -1 -1.5 -1h-0.5v0v0h-23h-22h-15.5h-7.5q-22 -1 -49 -3.5t-59 -5.5l-16 -2 l-16 -2q-24 -3 -48.5 -6.5t-49.5 -7.5q-43 -7 -83 -17t-79 -21q-38 -11 -67 -24.5t-46 -28.5q-20 -16 -22 -27.5t13 -17.5t33.5 -9t41.5 -4q9 -1 18 -1h18h15.5t14.5 1h7h6h2h2h1h2q29 -1 58 -1.5t59 -0.5q29 -1 58 -1h58h58h58t58 0.5t58 0.5h7.5h7.5h8.5h9.5h1h1h2h2h2h2 h1h2h8t8 1h8h8q8 0 15.5 1t14.5 2q2 0 3.5 0.5t3.5 1.5q4 1 7.5 3t6.5 5q4 4 7.5 8.5t7.5 8.5q0 2 0.5 3.5t1.5 2.5t1.5 2t0.5 2q1 0 1.5 1t0.5 2q2 5 3.5 9.5t2.5 9.5q1 3 1.5 5.5t1.5 4.5q1 8 1 15.5t-1 15.5q0 4 -1 8l-2 8v2t-1 3q0 2 -0.5 5t-1.5 5q-1 4 -2.5 7.5 t-2.5 7.5q-2 3 -3.5 6.5t-3.5 7.5q-8 16 -22 33t-33 35t-39 36t-41 37q-31 27 -58.5 54t-52.5 53q-24 26 -30.5 48t5.5 40q17 25 42.5 44.5t61.5 34.5q35 14 72.5 24t77.5 14q11 1 21.5 2t21.5 1q11 1 21.5 1h21.5q21 -1 40.5 -3t38.5 -6q22 -4 37 -11.5t22 -18.5 q8 -10 9 -21.5t-3 -23.5q-3 -7 -7 -13t-9 -12q-6 -6 -13 -11.5t-15 -10.5l-1.5 -1.5t-2.5 -0.5h-1.5h-1.5t-2 -0.5t-2 -0.5t-2 0.5t-2 0.5t-2.5 1.5t-1.5 2.5q-1 2 -1 3.5t1 3.5q1 1 1.5 2t1.5 2q0 1 0.5 2t1.5 2v0.5v1.5l0.5 0.5t1.5 0.5l0.5 0.5l0.5 0.5q0 1 0.5 2.5 t1.5 2.5l1.5 1.5t0.5 1.5q1 0 1.5 0.5t0.5 1.5q11 23 0.5 39t-42.5 25t-67.5 11.5t-75.5 -1.5q-43 -4 -81 -14t-70 -27q-32 -16 -39.5 -37.5t11.5 -47.5q11 -15 25 -30.5t32 -32.5l18 -16l18 -16q9 -9 19 -17l20 -16q35 -31 65.5 -63.5t57.5 -66.5q26 -34 32 -69t-9 -73 q-14 -34 -47.5 -57t-86.5 -36t-110 -19.5t-119 -8.5q-36 -2 -71.5 -2t-70.5 2q-36 1 -66.5 2.5t-56.5 2.5h-13.5h-12.5q-7 0 -12 0.5t-10 1.5q-9 0 -19 1t-23 2q-12 1 -24 2.5t-26 4.5q-3 0 -5.5 0.5t-5.5 1.5q-14 2 -27.5 5.5t-23.5 8.5q-15 5 -26 13t-17 18l-0.5 0.5 t-0.5 1.5l-0.5 0.5l-0.5 0.5q0 1 -0.5 2t-1.5 2q-1 4 -1.5 8t0.5 8q1 3 2.5 7t4.5 8q6 8 12 14.5t14 11.5q23 18 57.5 34t79.5 29q45 14 91.5 25t95.5 20l36 6t37 6q18 3 36 5.5t36 4.5q35 4 66 7t59 4v1v0z" />
<glyph unicode="T" horiz-adv-x="931" d="M977 560l-306 40q-13 1 -28 2.5t-31 3.5t-33.5 4t-35.5 5q-4 1 -8.5 1t-8.5 1q-8 1 -16.5 2t-17.5 2q-6 1 -12.5 1.5t-12.5 1.5q-7 0 -13.5 0.5t-12.5 1.5q-34 3 -66 6t-64 4q-32 2 -59 2t-50 -2q-22 -1 -38.5 -6.5t-30.5 -14.5q-13 -9 -20.5 -21.5t-10.5 -29.5 q-1 -10 -2.5 -19.5t-1.5 -19.5t0.5 -19.5t2.5 -18.5q0 -10 1.5 -20t3.5 -20l2 -10t2 -9q0 -5 1 -9.5t2 -9.5q2 -7 2 -14t-2 -13q-1 -7 -2.5 -13.5t-3.5 -12.5q-1 -4 -2.5 -8t-3.5 -8l-2 -4l-2 -4l-2 -4l-2 -4l-1.5 -1.5t-0.5 -1.5v-1.5v-0.5q-6 -13 -11 -17.5t-10 -0.5 q-5 5 -8 11t-5 14v0v1q-1 0 -1 0.5v0.5v0.5v1.5q-6 20 -10.5 40t-8.5 40t-6.5 40.5t-3.5 40.5q-1 29 5 53t21 43q15 20 40 34.5t60 23.5q36 8 79.5 12.5t95.5 5.5q52 0 105.5 -1.5t109.5 -6.5q10 -1 19.5 -1.5t18.5 -1.5q19 -2 38.5 -3.5t37.5 -3.5q14 -1 28 -2.5t27 -2.5 q14 -2 27 -3t26 -3q23 -3 44 -5.5t42 -4.5q20 -3 39 -5t36 -4q2 0 8 -0.5t17 -1.5q5 -1 10.5 -1.5t11.5 -0.5q5 -1 11 -1.5t12 -1.5q14 -1 27 -3.5t24 -5.5t16 -6t3 -7q-1 -1 -3.5 -2.5t-6.5 -3.5t-8.5 -4t-10.5 -4v0v0l-1 -1v0h-1v0q-6 -2 -10.5 -4t-8.5 -4 q-4 -1 -6.5 -2.5t-4.5 -2.5q-6 -4 -11.5 -7.5t-10.5 -6.5q-4 -3 -8.5 -6t-8.5 -6q-13 -11 -23 -22.5t-17 -23.5t-13 -25t-11 -28q0 -1 -1 -2.5t-1 -3.5q-1 0 -1 -1v-1q-1 -3 -2 -5t-1 -4l-2 -4t-1 -4q-1 -1 -1 -2v-1q-1 -2 -1 -3t-1 -3l-2 -4t-1 -4q-1 -3 -2 -5l-2 -4 t-1.5 -4.5t-0.5 -4.5q-1 -2 -1.5 -4.5t-1.5 -4.5l-8 -24t-8 -25q-2 -6 -4 -12.5t-4 -12.5q-2 -7 -4 -13l-4 -12q-10 -28 -22.5 -55.5t-26.5 -53.5q-15 -27 -34 -49t-42 -39q-17 -13 -35 -23.5t-38 -18.5q-19 -9 -39.5 -15t-42.5 -11l-36 -4t-35 -3q-18 -1 -36 -1.5t-36 -0.5 h-4h-4h-2h-2h-7h-6h-5h-6h-2.5h-2.5h-3h-3l-324 -1q2 3 4.5 5t5.5 3q7 5 14.5 10t15.5 9q11 6 24.5 10t28.5 7q13 2 26.5 4t26.5 3q14 2 28.5 2.5t28.5 1.5h10t10 1h11h11h21h20l184 1q3 -1 6 -1h7h7.5h7.5q4 -1 8.5 -1h8.5h8.5h9.5q8 0 17 0.5t19 1.5q9 1 18 2.5t17 3.5 q9 2 17.5 7t13.5 12q6 8 10 15.5t8 15.5q1 1 1 2t1 2q1 3 2 5.5t2 4.5q1 3 2 6.5t3 7.5v0v1v0v0v0l1 1v0.5v0.5q2 5 4 10.5t4 11.5l4 12l4 12l4 12t5 12q2 6 4 12.5t4 12.5l2 6l2 6q0 3 1 6l2 6l2 6l2 6l2 6l2 6q8 25 17 49t19 48q9 24 21.5 46t27.5 42q11 17 25 30.5 t30 25.5q16 11 34 21.5t38 19.5v1v0z" />
<glyph unicode="U" horiz-adv-x="1146" d="M820 177l-5.5 -5.5t-5.5 -4.5t-5.5 -4.5t-5.5 -4.5t-5.5 -4.5t-5.5 -4.5l-5.5 -5.5t-5.5 -4.5q-37 -29 -79.5 -55.5t-89.5 -50.5q-46 -24 -96 -33.5t-103 -7.5q-19 1 -29 5.5t-13 11.5q-4 8 -5 17t-1 21v3.5v2.5v3.5v2.5v9.5v8.5v10t1 10q1 23 4 46.5t8 46.5t11.5 46 t16.5 45q5 12 11 26t13 29q6 15 13.5 30t14.5 31q2 2 2.5 3.5t1.5 3.5q0 1 0.5 2t1.5 2t1.5 2t0.5 2q8 18 16.5 36t15.5 36q8 18 14 34t10 31q0 1 0.5 2t0.5 2q1 3 1.5 5.5t0.5 5.5v8v8q-1 11 -5 20.5t-10 19.5q-7 9 -17 15t-23 9q-16 3 -35.5 4t-42.5 1q-22 0 -45.5 -2 t-48.5 -5q-30 -4 -58.5 -11t-56.5 -16t-48.5 -20t-33.5 -24q-6 -5 -9.5 -11t-3.5 -13q0 -4 0.5 -7.5t0.5 -6.5q1 -4 1.5 -7.5t1.5 -7.5v-2.5t1 -2.5q0 -2 0.5 -3l1.5 -3q0 -3 1 -5.5t2 -4.5q0 -1 0.5 -2.5t0.5 -2.5t0.5 -1.5l0.5 -0.5q0 -1 0.5 -2t0.5 -2q1 -3 2 -5.5 t2 -4.5q0 -2 0.5 -4.5t1.5 -4.5q0 -3 0.5 -5.5t0.5 -4.5q1 -2 1.5 -4.5t1.5 -4.5q0 -3 0.5 -5.5t1.5 -4.5q4 -13 7 -25.5t6 -25.5q0 -3 0.5 -6.5t1.5 -6.5q1 -9 2 -18.5t1 -18.5q0 -2 -0.5 -5.5t-2.5 -8.5q0 -2 -0.5 -3.5t-1.5 -3.5q-1 -4 -1.5 -7.5t-2.5 -7.5 q-1 -2 -2 -4.5t-2 -4.5q-2 -4 -3.5 -7.5t-4.5 -7.5q-2 -3 -3.5 -5.5t-3.5 -3.5q-2 -2 -3.5 -3t-3.5 -1q-2 -1 -3.5 0t-2.5 2q-1 2 -2 3.5t-1 3.5q-1 1 -1 2v2v2.5v1.5q0 10 -2 19.5t-4 19.5q-3 10 -6 19.5t-7 19.5v0.5v1.5q-1 0 -1 0.5v1.5v0.5v1.5q-1 0 -1 0.5v1.5 q-7 17 -13 34.5t-11 34.5q-6 17 -10 35t-6 36q-2 13 -2 23.5t3 18.5q2 8 8.5 15.5t16.5 14.5l2 2l2 2q1 0 2.5 1t2.5 2q2 2 4.5 3.5t6.5 2.5q20 11 46 21.5t58 20.5q32 9 64.5 16.5t66.5 11.5q14 2 28 3.5t28 2.5t28 1.5t28 0.5q29 0 53 -3t45 -8q23 -7 39 -16.5t26 -23.5 q9 -13 12 -29.5t0 -35.5q-2 -13 -6 -27t-10 -29q-3 -7 -5.5 -14.5t-5.5 -14.5q-3 -8 -6.5 -15t-6.5 -15q-1 -2 -2 -4.5t-1 -4.5q-1 -2 -2 -4.5t-2 -4.5l-2 -4l-2 -4l-2 -4l-2 -4q-3 -5 -5.5 -10.5t-4.5 -10.5t-4.5 -10.5t-5.5 -10.5q-4 -10 -8 -20.5t-8 -19.5 q-4 -7 -7.5 -16t-7.5 -20q-2 -5 -4 -10.5t-4 -11.5q-2 -5 -4 -11l-4 -12q-3 -7 -5.5 -15.5t-4.5 -16.5q-3 -8 -5.5 -16t-4.5 -16q-6 -19 -10.5 -38.5t-7.5 -37.5q-4 -18 -4 -33.5t3 -27.5q1 -7 9.5 -10.5t24.5 -2.5q16 0 33.5 2t36.5 6q5 2 11.5 3.5t13.5 2.5q3 1 6.5 2 t6.5 2q3 0 6 1l6 2q8 2 15.5 4.5t14.5 4.5q5 2 10 4.5t9 3.5l8 4t8 5l8 4l8 4t7.5 4t7.5 4q3 2 6.5 4.5t7.5 4.5q35 22 62.5 44.5t43.5 46.5q17 23 32.5 50t28.5 58q3 5 5.5 10.5t4.5 11.5t4.5 12t5.5 12q5 12 10.5 25.5t11.5 26.5l8 18t9 18q4 8 9 17t11 18q11 17 24.5 33 t29.5 30q2 2 4 3.5t5 3.5l4.5 4.5l5.5 5.5q4 2 7.5 4.5t7.5 5.5t7.5 5.5t7.5 3.5q1 0 1 0.5t1 0.5q1 1 2 1.5t2 0.5h2t2 1l1 0.5t2 0.5q6 1 8 -1t0 -7q-2 -4 -4.5 -9.5t-6.5 -11.5q0 -1 -0.5 -1.5l-0.5 -0.5q0 -1 -0.5 -1.5l-0.5 -0.5l-1.5 -1.5t-0.5 -1.5q-4 -4 -6.5 -7.5 t-4.5 -6.5t-3.5 -5t-1.5 -3q-16 -26 -31.5 -56t-30.5 -63t-28 -66.5t-25 -68.5q-10 -28 -20 -56.5t-18 -55.5q-9 -28 -16.5 -53.5t-13.5 -49.5h15.5h14.5h6.5h6.5q4 -1 7 -1h6h12h12q5 -1 10.5 -1h9.5h12.5t11.5 1q3 0 6 0.5t6 0.5q10 1 21 2.5t22 4.5t24 7.5t28 10.5 q6 2 9 2t4 -2v-4.5t-1 -4.5q-1 -1 -2 -2.5t-2 -3.5q0 -1 -0.5 -1.5t-1.5 -0.5l-1.5 -1.5l-0.5 -0.5l-1.5 -1.5t-2.5 -1.5l-1.5 -1.5t-1.5 -0.5q-5 -4 -10 -7.5t-10 -6.5q-5 -4 -10 -7l-10 -6q-6 -3 -11.5 -6t-10.5 -5t-10.5 -4t-11.5 -4q-7 -1 -15.5 -3.5t-18.5 -3.5 q-6 -1 -12.5 -1.5t-13.5 -1.5q-3 0 -6.5 -0.5t-6.5 -0.5q-4 0 -9 -0.5t-9 -0.5q-5 0 -9.5 0.5t-9.5 0.5q-10 1 -17.5 2.5t-13.5 3.5q-10 3 -17 6.5t-12 10.5q-4 6 -6.5 13.5t-2.5 15.5q-1 5 -1 10.5v11.5v6v6q0 2 0.5 5t0.5 6v6v6q0 2 0.5 5t0.5 6q0 4 0.5 7.5t1.5 6.5 q0 2 0.5 4t0.5 4v6t1 6q0 2 0.5 5t0.5 6t0.5 5.5t0.5 5.5q0 2 0.5 5t0.5 6v1v0z" />
<glyph unicode="V" horiz-adv-x="911" d="M595 44q31 30 61.5 62t61.5 65l60 66t58 66q2 2 4 4.5t4 5.5q1 2 3 4.5t4 4.5t4 4.5t4 5.5q2 2 4 4.5t4 4.5q0 1 0.5 2t1.5 2q1 0 1.5 1t1.5 2q2 1 2.5 2.5t1.5 2.5l1.5 1.5t0.5 1.5q25 32 44.5 63.5t34.5 64.5q15 32 25.5 67t15.5 72q1 1 2 1.5t2 1.5q1 0 2 0.5t2 1.5 q1 0 2 0.5t2 1.5q0 1 1 1.5t2 1.5q8 5 15.5 8.5t14.5 7.5q8 4 15.5 7.5t17.5 7.5v-8.5v-8.5v-9v-9q0 -4 -0.5 -8.5t-1.5 -8.5q-1 -5 -1.5 -9t-1.5 -9q-10 -45 -33.5 -90t-60.5 -89t-76.5 -87t-80.5 -84q-28 -28 -55.5 -54t-53.5 -52q-26 -25 -48 -50t-41 -48q-3 -3 -5.5 -6 t-4.5 -6q-1 -2 -2.5 -4t-3.5 -4q-1 -1 -1.5 -2t-1.5 -2q-4 -6 -8.5 -11t-9.5 -8q-3 -2 -5.5 -4.5l-4.5 -4.5t-4.5 -4t-5.5 -4t-6 -2t-6 1q-1 1 -2.5 1.5t-2.5 1.5t-2.5 1.5t-2.5 1.5v0v0l-1 1v0v0v0l-1 1v0q-11 7 -19.5 17.5t-14.5 24.5q-5 14 -9.5 28.5t-6.5 30.5 q-3 11 -4 22.5t-1 22.5t0.5 21t1.5 19q3 22 7.5 43.5t10.5 43.5q5 21 12 42.5t14 43.5q0 2 1 4.5t2 4.5q0 2 0.5 4.5t1.5 4.5q3 10 6 19.5t6 19.5q3 9 6 18.5t6 19.5q5 20 10 39.5t9 38.5q0 3 0.5 7t1.5 8q0 4 1 8l2 8q1 18 -2.5 35.5t-11.5 33.5q-7 17 -25 26.5t-46 13.5 q-41 5 -80.5 -1t-77.5 -23q-38 -16 -72 -34t-63 -38q-1 -1 -1.5 -2t-2.5 -1l-1.5 -1.5l-0.5 -0.5q-2 -1 -4 -2.5t-4 -3.5q-2 -1 -4 -2.5t-4 -3.5q-2 -1 -4 -2.5t-4 -3.5q-3 -1 -5 -2.5t-4 -3.5q-21 -17 -40 -37t-36 -43q-16 -22 -21.5 -45.5t1.5 -47.5v-1.5t1 -0.5v-1.5 v-0.5l0.5 -0.5l0.5 -0.5q0 -1 0.5 -1.5l0.5 -0.5l2 -6t2 -5q2 -3 3.5 -6t3.5 -6q4 -6 9 -12t11 -12q4 -4 8 -8.5t8 -9.5l4 -4l4 -4l5 -5t5 -4q11 -12 22 -22t21 -19q11 -9 17 -14.5t7 -8.5q1 -4 -0.5 -6t-5.5 -4q-4 -1 -8.5 -1.5t-9.5 -0.5h-2.5h-2.5h-2.5h-2.5h-4t-4 1h-2 h-1v0v0h-1v0q-19 2 -36 9t-32 19q-15 11 -27.5 24t-22.5 26q-4 4 -6.5 7.5t-4.5 7.5q-2 3 -3.5 5t-2.5 5q-1 1 -1.5 2.5t-1.5 2.5q-10 19 -12 37t5 35q5 17 14.5 34t20.5 34q26 38 59.5 71t75.5 61q41 28 87.5 49t97.5 36q11 3 24 6t27 5t27.5 3.5t28.5 1.5q26 0 50.5 -3 t47.5 -11q23 -7 40.5 -20.5t28.5 -33.5q6 -12 9 -27.5t3 -34.5q-1 -19 -3.5 -38.5t-6.5 -39.5q-1 -6 -2.5 -12.5t-3.5 -12.5q-1 -3 -1.5 -6t-1.5 -6q-1 -4 -2 -8.5t-2 -9.5q-1 -4 -2 -8.5t-2 -8.5q-4 -10 -7 -19t-5 -17t-4 -15.5t-4 -13.5l-32 -105q-1 -4 -2 -7.5t-1 -6.5 q-1 -4 -2 -7l-2 -6l-2 -6t-1 -6q-1 -4 -1.5 -7t-0.5 -6q-4 -17 -4 -34t1 -34q2 -17 10.5 -33.5t21.5 -31.5v1v0z" />
<glyph unicode="W" horiz-adv-x="1111" d="M528 60q14 15 28 34t27 42q7 12 13.5 24t13.5 24q6 13 12.5 26t13.5 26q4 8 7.5 16t7.5 16l8 16t8 17q22 46 45 89t48 83q24 41 53 67.5t60 39.5q23 9 37.5 6t21.5 -18q6 -15 8.5 -32.5t2.5 -37.5q0 -4 -0.5 -7.5t-0.5 -6.5q-1 -4 -1.5 -7.5t-0.5 -7.5q-1 -7 -2 -13.5 t-1 -11.5q-1 -6 -2.5 -10.5t-1.5 -8.5q-1 -4 -1.5 -6.5t-0.5 -4.5q-1 -4 -2 -8.5t-2 -8.5q-1 -5 -2 -9l-2 -8t-2 -8.5t-1 -8.5q-1 -5 -2 -9l-2 -8q-3 -12 -5.5 -24t-4.5 -24q-3 -12 -5.5 -23.5t-4.5 -22.5t-4 -22.5t-4 -22.5q-1 -12 -2.5 -23.5t-2.5 -22.5q-1 -22 -0.5 -46 t4.5 -48l4 8l4 8q3 3 5 7t5 8q2 4 4.5 7.5t4.5 7.5q3 3 5.5 6.5t5.5 7.5q15 23 30 45t30 41q15 20 30 38.5t30 37.5q23 32 43 65t39 67q19 35 32.5 79t22.5 97q1 1 2 1.5t2 1.5q1 0 2 0.5t2 1.5t2 1.5t2 1.5q1 0 2 0.5t2 1.5q4 2 7.5 4t7.5 4q3 1 6.5 3t7.5 3q8 3 16 5.5 t18 4.5q0 -7 -1.5 -14t-2.5 -14q0 -4 -0.5 -7t-1.5 -7q-2 -10 -5 -20.5t-7 -21.5q-8 -22 -19 -44.5t-24 -45.5q-14 -22 -28.5 -42.5t-29.5 -40.5q-1 -2 -2.5 -4t-2.5 -3q-2 -2 -3 -3.5t-3 -3.5q-3 -4 -5.5 -7.5t-4.5 -6.5l-86 -105l-20 -26t-20 -25q-10 -13 -19.5 -26 t-18.5 -26q-19 -26 -35 -53t-31 -54l-0.5 -0.5t-0.5 -1.5h-0.5h-0.5q0 -1 -0.5 -1.5t-0.5 -1.5v-1.5v-0.5q-1 -1 -1 -1.5v-0.5q-1 -1 -1.5 -2.5t-0.5 -3.5q-1 -1 -2 -2.5t-1 -3.5q-1 -3 -2.5 -5.5t-3.5 -4.5q-1 0 -1.5 -1.5t-1.5 -2.5q-1 -3 -4 -6t-7 -6q-7 -5 -13 -4t-11 7 t-9 12.5t-6 15.5q0 2 -1 4t-1 4l-2 8l-2 8q-1 5 -1 8v4q-7 21 -9.5 43.5t-1.5 45.5q0 23 2.5 46t7.5 47q2 12 4.5 24t5.5 24q1 6 2.5 12t2.5 13q2 6 3.5 12t2.5 12q4 12 7 24.5t5 25.5q2 6 3.5 12t2.5 13q2 6 3.5 12t2.5 12v4t1 5t2 7.5t2 8.5q0 3 0.5 6t1.5 7q0 3 1 6.5 t2 7.5q1 11 0.5 20.5t-2.5 18.5q-1 9 -7 12t-15 1q-17 -5 -36 -26t-40 -59q-22 -37 -44.5 -79t-45.5 -88q-1 -2 -2 -3.5t-1 -3.5q-1 -1 -2 -2.5t-2 -3.5q-1 -1 -1.5 -2.5t-0.5 -3.5q-1 -1 -1.5 -2.5t-1.5 -3.5q-17 -33 -33 -64.5t-31 -61.5q-5 -10 -10.5 -20t-10.5 -20 q-20 -39 -38 -64.5t-33 -36.5q-7 -6 -14 -6t-12 6q-6 6 -10.5 12t-8.5 13l-3.5 7t-2.5 7q-1 1 -1.5 3t-1.5 3q-1 5 -2 8t-1 4q-6 14 -10.5 29t-6.5 30q-1 8 -2 15.5t-2 15.5q-1 7 -1.5 15t-0.5 15q-1 11 -1 22t1 22v10.5t1 11.5q0 5 1 10.5t2 10.5q2 18 5 35.5t7 34.5 q3 12 6 23.5t6 22.5q1 6 3 12t3 12q2 6 3.5 12t3.5 13q2 6 3.5 12.5t3.5 12.5q2 13 5 25.5t6 25.5q0 5 0.5 9.5t1.5 9.5q2 5 2.5 10t1.5 10q1 20 -2.5 37t-11.5 33q-7 15 -27.5 21t-52.5 2q-12 -1 -28 -5.5t-37 -10.5q-20 -6 -41 -14t-44 -17l-14 -6t-13 -6l-14 -6l-14 -6 q-13 -7 -25 -13.5t-23 -12.5q-13 -7 -24 -14.5t-20 -15.5q-10 -7 -15.5 -14t-8.5 -13q-5 -10 -7 -21.5t0 -23.5l2 -12t3 -12q1 -7 3 -13t5 -12q2 -7 5.5 -14.5t7.5 -15.5q2 -4 3.5 -7.5t3.5 -6.5q2 -4 3.5 -7.5t3.5 -6.5q8 -16 15 -29.5t13 -25.5q7 -12 10 -20t2 -13 q-2 -5 -6.5 -7.5t-10.5 -1.5q-3 0 -5.5 0.5t-5.5 1.5t-6 2.5t-6 2.5q-4 1 -7 2.5t-6 2.5q-3 2 -5.5 3.5t-4.5 2.5q-4 2 -6.5 4t-4.5 4q-1 1 -2.5 2t-2.5 2q-1 0 -1.5 1t-1.5 2q-7 8 -12.5 16.5t-10.5 18.5q-5 9 -9.5 18.5t-8.5 19.5q-1 3 -2 5.5t-1 5.5q-1 2 -2 4.5t-2 5.5 t-2 5.5t-2 5.5q-1 2 -2 4.5t-2 5.5q0 2 -1 3.5t-1 2.5q-1 3 -2 6.5t-2 6.5q-2 5 -3 10t-1 10q-1 9 -1 17.5t1 16.5q2 8 6.5 16t11.5 15q5 5 10.5 10t12.5 11q7 5 14.5 10.5t17.5 11.5q9 6 19 12t21 13q11 6 22.5 12t23.5 12q24 12 49 22.5t51 19.5q26 10 52.5 17.5 t51.5 13.5t47 9t41 3q59 -1 87.5 -23.5t26.5 -66.5q-1 -44 -9.5 -94.5t-21.5 -107.5q-1 -4 -2 -7.5t-2 -6.5q-1 -4 -2 -7.5t-2 -7.5q0 -2 -1 -4.5t-1 -5.5q-1 -4 -2 -8.5t-2 -9.5q-8 -34 -13 -66.5t-7 -64.5q-1 -32 3.5 -60.5t17.5 -52.5v1v0z" />
<glyph unicode="X" horiz-adv-x="937" d="M630 283l-64 155l-2 4l-2 4q-1 1 -1 2.5t-1 2.5q-1 2 -2 3.5t-1 3.5q-1 1 -2 3l-2 4q-6 14 -12.5 28.5t-14.5 28.5q-7 14 -15 27.5t-16 26.5q-11 15 -23.5 26.5t-26.5 20.5q-15 8 -33 12t-41 4q-12 0 -27 -2t-34 -6t-39 -9t-40 -11q-28 -9 -54.5 -19.5t-50.5 -22.5 q-25 -13 -40 -26t-20 -27q-4 -10 -4.5 -19t0.5 -18q2 -9 5 -18t9 -18q1 -1 2 -3t2 -3q0 -2 1 -3.5t2 -3.5t2 -3.5t2 -3.5q1 -1 2 -2.5t2 -3.5q8 -14 15 -29t12 -30q6 -16 3.5 -33t-13.5 -36q-1 -2 -2 -3.5t-2 -3.5l-2 -2l-2 -2q-3 -1 -5.5 -2t-4.5 0q-1 0 -2 0.5l-1 0.5 q-1 1 -2 1.5t-2 1.5q0 1 -1 1.5l-1 0.5q-1 1 -2 2.5t-2 3.5q-7 12 -14 24.5t-12 25.5q-7 12 -13.5 24.5t-11.5 25.5q-7 14 -11.5 26t-7.5 24q-2 6 -3 12t-1 12q0 5 1 11t3 12q2 7 4.5 13.5t6.5 13.5t10.5 14.5t13.5 14.5q15 15 34.5 27.5t41.5 22.5q23 9 46.5 17.5 t47.5 15.5q8 2 17 4.5t18 4.5q8 2 17 4.5t18 4.5q12 3 25.5 6t28.5 6q5 1 9.5 2t9.5 2q9 1 18.5 2.5t19.5 2.5h17.5h16.5t16.5 -1t17.5 -2q16 -2 31 -7t30 -13q17 -10 33 -27t31 -41t28 -49t26 -52q9 -19 17 -38.5t15 -38.5q5 -12 8.5 -23.5t7.5 -21.5q2 -5 4 -9.5t4 -8.5 q39 32 75 66t67 71q32 36 58 75t46 81q1 1 2.5 2t2.5 2q2 1 2.5 1t1.5 1q1 0 1.5 0.5l0.5 0.5q9 5 18 9.5t19 8.5q9 4 19 7.5t21 6.5q-20 -49 -47.5 -92t-62.5 -79q-36 -36 -76 -71t-84 -69q-7 -5 -14 -10.5t-14 -10.5l-14 -10t-13 -10l63 -169q1 -2 1.5 -4t1.5 -4 q0 -2 0.5 -3.5t1.5 -3.5t1.5 -4t1.5 -3q0 -2 0.5 -3.5t1.5 -3.5q10 -25 20.5 -49.5t22.5 -48.5q12 -22 28 -44t37 -43q1 -1 2 -1.5t2 -1.5q0 -1 1 -1.5l1 -0.5q2 -2 4.5 -4t4.5 -4l3.5 -3.5l2.5 -2.5q2 -1 2.5 -2.5t1.5 -2.5l1.5 -1.5t0.5 -1.5q2 -2 3 -4l2 -4v-4.5t-1 -4.5 q-1 -1 -2.5 -1.5t-2.5 -0.5h-2.5h-3.5t-3 0.5t-2 1.5l-3 1.5l-1 0.5l-1.5 1.5l-0.5 0.5h-1.5h-0.5l-1 1v0q-8 6 -15.5 12t-15.5 12q-4 3 -7.5 6.5l-6.5 6.5q-4 4 -7.5 7t-7.5 6l-2.5 2.5l-2.5 2.5l-3 3l-3 3l-5.5 5.5l-4.5 4.5q-26 25 -47.5 51.5t-38.5 56.5t-32 61t-28 62 q-3 6 -6 12.5t-6 13.5q-1 3 -2.5 6t-2.5 7q-1 3 -2.5 6t-2.5 6q-1 2 -1.5 4t-1.5 4l-2 4t-1 4q-31 -25 -61.5 -49t-62.5 -48l-62 -48t-63 -47q-10 -7 -19.5 -14t-18.5 -13q-10 -6 -19 -11l-18 -10q-16 -8 -34 -13t-36 -9q-19 -3 -40 -5t-47 -2l-203 -1q-7 1 -15 1t-18 -1 q-9 0 -18 -0.5t-18 -1.5h-1h-2v0h-1q0 1 -0.5 1h-0.5q-2 0 -2.5 0.5t-1.5 0.5t-1.5 0.5l-0.5 0.5l-1.5 1.5l-0.5 0.5v1.5v1.5q2 2 4.5 4t4.5 3t3 2t3 2q3 1 5.5 2t4.5 3q2 1 4.5 2.5t5.5 2.5q4 2 7.5 3.5t7.5 2.5q2 1 4 1.5t3 1.5q2 0 3.5 0.5t2.5 1.5q8 3 16.5 5.5 t17.5 3.5q8 2 16.5 2.5t15.5 1.5h4t4 1h3h4h8.5h8.5l133 1q31 -1 60 2t57 10q27 7 53 18t51 26q33 20 64.5 42t61.5 46t59.5 48t58.5 49v1v0z" />
<glyph unicode="Y" horiz-adv-x="1087" d="M887 203q-31 -25 -63 -49.5t-66 -47.5q-34 -22 -69.5 -42t-73.5 -37q-4 -1 -9 -3.5t-11 -4.5q-7 -3 -14.5 -5.5t-15.5 -4.5q-3 -1 -5.5 -1.5t-5.5 -1.5t-5.5 -1.5t-5.5 -1.5t-5.5 -1.5t-5.5 -0.5q-3 -1 -6 -1t-6 -1q-15 -3 -29.5 -5t-28.5 -3t-23 1.5t-14 7.5 q-9 8 -14.5 20t-7.5 25q-2 14 -3 27.5t1 27.5q0 11 1.5 21.5t3.5 20.5q1 7 2.5 13.5t3.5 13.5q1 3 1.5 6t1.5 6v2t1 2v1v2q0 2 0.5 3.5t1.5 2.5q7 26 14.5 52.5t14.5 52.5q8 26 16 52.5t17 52.5l2 6l2 6q0 3 1 6l2 6l2 6l2 6l2 6l2 6q5 14 9 28l8 28t7.5 28.5t7.5 28.5 q5 23 4 38.5t-6 24.5q-7 8 -25 11t-48 1q-22 -1 -43.5 -4t-42.5 -8q-11 -2 -21.5 -4.5t-21.5 -5.5q-31 -9 -61 -20t-59 -24q-13 -6 -24 -12t-21 -12q-4 -3 -8.5 -6t-8.5 -5l-8 -6t-7 -6q-23 -19 -33.5 -39.5t-6.5 -42.5t12.5 -49.5t23.5 -61.5q0 -1 2 -4.5t4 -9.5l6.5 -13 l7.5 -15q0 -1 1 -2.5t2 -3.5q0 -1 0.5 -2.5t1.5 -3.5q3 -8 6 -15.5t5 -15.5q2 -7 3 -12.5t0 -7.5q-2 -4 -4.5 -6t-6.5 -2q-5 -1 -9.5 -0.5t-8.5 1.5h-2t-1 1q-1 0 -2 0.5t-2 0.5q-2 0 -3.5 0.5t-3.5 1.5h-1h-1q-1 1 -2 1.5t-2 0.5t-2.5 0.5t-2.5 1.5q-7 2 -11.5 4.5 t-7.5 5.5q-4 3 -6.5 7t-4.5 8q-1 1 -1.5 2t-0.5 2l-1.5 1.5t-0.5 1.5q-1 0 -1 0.5v1.5q-3 5 -5.5 9.5t-4.5 9.5q-1 3 -2.5 6.5t-3.5 6.5q-1 2 -1.5 4t-1.5 4t-2.5 4.5t-2.5 5.5l-2.5 5t-2.5 6t-2 5.5t-1 5.5q-1 2 -2 5l-2 6q-4 8 -7 16.5t-6 16.5q-2 8 -4 16.5t-4 15.5 q-4 13 -5 24t1 21q1 5 2.5 9.5t4.5 9.5q2 4 5 9t7 9q2 3 5 6.5t7 7.5q4 3 8 6.5t10 7.5q23 18 50.5 34t59.5 29q32 14 64.5 25.5t66.5 20.5q13 4 27 7.5t28 6.5t28 5.5t27 4.5h0.5h1.5h0.5t0.5 1h0.5h0.5h0.5h0.5q4 1 8 1.5t8 1.5q5 0 9.5 0.5t9.5 1.5q9 1 19 1.5t20 1.5 q17 0 32.5 -2t30.5 -6t26.5 -12t18.5 -20q3 -4 4.5 -8.5t3.5 -8.5q1 -5 2 -9t2 -9v-9v-9q-1 -5 -1.5 -9.5t-1.5 -9.5t-2.5 -10.5t-2.5 -10.5t-2.5 -10t-3.5 -10q0 -1 -0.5 -2.5t-1.5 -3.5q-1 -1 -1.5 -2.5t-0.5 -3.5q-1 -3 -2.5 -6t-1.5 -6l-66 -221q-1 -7 -4 -15.5 t-6 -17.5q-2 -4 -3.5 -9t-3.5 -9q-1 -5 -2 -9.5t-2 -9.5q-2 -4 -3 -7.5t-2 -6.5q-2 -4 -3 -7.5t-1 -6.5q-4 -14 -8 -27.5t-7 -27.5q-3 -13 -4 -25t-1 -21v-2.5v-3.5v-2.5v-2.5q0 -9 2 -17t6 -15t12 -9t21 1q75 19 142.5 52.5t125.5 82.5q58 48 96.5 103.5t57.5 116.5 q8 28 18.5 55t21.5 53t29 50t44 45q2 1 3.5 2.5t4.5 3.5q1 1 2 1.5t2 1.5q2 2 4 3.5t4 3.5q1 1 2 1.5t2 1.5q1 0 2 0.5t2 1.5t2 1.5t2 1.5l1 0.5t2 1.5l4 2t5 2q2 1 4 1.5t4 1.5q3 1 4.5 1t3.5 -1h2t2 -1q2 -1 3 -3.5t0 -5.5q-1 -1 -1.5 -3t-1.5 -3q-1 -2 -2 -3.5t-2 -3.5 q-1 -1 -1.5 -2t-0.5 -2l-0.5 -0.5t-0.5 -1.5q-1 0 -1.5 -0.5t-0.5 -1.5q-1 -1 -2 -2.5t-1 -2.5l-2 -2l-2 -2l-3.5 -3.5t-1.5 -2.5q-13 -21 -24 -42t-19 -44q-8 -22 -15.5 -44.5t-14.5 -45.5l-2 -6t-1 -6l-2 -6l-2 -6q0 -1 -0.5 -2.5t-1.5 -2.5l-1.5 -3t-0.5 -3 q-1 -3 -1.5 -5.5t-0.5 -4.5l-50 -163q-2 -4 -3 -8.5t-2 -8.5t-2 -7.5t-2 -6.5q-13 -43 -29.5 -85t-35.5 -81q-19 -41 -48.5 -77.5t-70.5 -68.5q-40 -31 -84 -52t-91 -32q-48 -11 -98.5 -17t-103.5 -7h-6h-6h-2.5t-2.5 -1h-3h-3h-10.5h-10.5h-6t-6 -1h-6h-6q-7 0 -13.5 0.5 t-12.5 0.5q-3 0 -6.5 0.5t-6.5 0.5q-9 1 -16.5 3t-13.5 5q-5 3 -6 6t0 7q1 2 2.5 4t2.5 4q2 3 4 5t5 4q1 1 2 1.5t2 1.5q0 1 1 1.5t2 1.5t2 1.5t2 1.5t2 1.5t2 1.5q4 3 7.5 6t7.5 5q4 3 7 4.5t4 3.5q20 -5 43.5 -8t49.5 -4q26 -2 53 -1.5t55 2.5q34 2 67 6.5t65 12.5 q32 7 57.5 16.5t44.5 21.5q15 10 27 21t22 23q8 13 15 26.5t11 28.5q5 12 8.5 24t7.5 24q2 6 4 11.5t4 11.5q5 18 10.5 36t10.5 37q2 8 4 15t4 15q2 7 4 14.5t4 14.5q2 8 4 15t5 15q2 7 4.5 14.5t5.5 14.5v1v0z" />
<glyph unicode="Z" horiz-adv-x="818" d="M215 46h383q20 -1 39 0t38 3q13 2 24.5 4.5t23.5 6.5q6 2 12 4.5t12 5.5l1 0.5t2 1.5q1 0 2.5 0.5t3.5 1.5v0l1 1h0.5h0.5q2 0 2.5 0.5l1.5 1.5h3t3 1h2.5h2.5q2 0 4 -1.5t3 -3.5q0 -2 -1.5 -4.5t-3.5 -5.5q-1 -1 -3 -2.5t-3 -2.5q-2 -2 -3.5 -3t-3.5 -3q-1 -1 -2.5 -2 t-2.5 -2t-2.5 -1.5t-2.5 -1.5l-8 -6t-8 -5t-6.5 -3.5t-3.5 -2.5q-10 -5 -18.5 -9.5t-16.5 -7.5q-3 -1 -5.5 -2.5t-5.5 -2.5q-6 -2 -11.5 -3.5t-10.5 -2.5l-32 -4t-33 -3q-16 -1 -33.5 -1.5t-36.5 -0.5h-2h-2h-2h-2h-2h-2h-2h-2l-437 -1q-9 1 -17 1h-16h-14.5t-15.5 -1h-14 h-14h-8t-8 -1h-8.5h-8.5q2 9 7.5 15t15.5 12q4 3 9 5.5t9 5.5q5 2 9.5 4t8.5 3h0.5t1.5 1h1h2h1h1q1 1 2 1.5t2 0.5q13 3 25.5 5t23.5 3q8 1 14.5 1t13.5 1h7.5h6.5h6h5h3.5t2.5 1h3.5h3.5q8 0 16.5 1t17.5 3q4 1 8.5 2t8.5 2q14 3 29 10.5t32 18.5q26 17 51.5 38t50.5 46 q24 26 47.5 52t45.5 54q8 9 15 18t15 19q7 9 14.5 18t14.5 18q14 18 28.5 34.5t27.5 31.5q5 5 9.5 10t9.5 10q4 5 8.5 10t9.5 10q8 9 16.5 18t16.5 17q26 25 53 46t56 37q29 17 66.5 30.5t83.5 23.5q-22 2 -45.5 4.5t-46.5 3.5q-12 1 -24 1.5t-23 1.5q-12 0 -23.5 0.5 t-22.5 1.5h-28.5h-29.5q-43 -1 -86.5 -4t-85.5 -9q-57 -7 -110.5 -24t-103.5 -43q-6 -3 -11.5 -6t-10.5 -6l-8 -6t-6 -6q-9 -9 -12 -18t-2 -18q2 -10 7.5 -21.5t14.5 -25.5l16 -26t17 -25q3 -4 6.5 -8t6.5 -8q6 -8 12.5 -16t13.5 -16q1 -2 2.5 -4t2.5 -4l2 -2l2 -2l2 -2 l2 -2q11 -14 11.5 -21.5t-9.5 -8.5q-9 -1 -22 -0.5t-29 1.5h-3t-3 1q-3 1 -6 2.5t-6 3.5q-4 3 -8.5 7t-9.5 9l-4 4l-4 4l-5 5t-4 5q-4 5 -7.5 10.5t-7.5 11.5q-6 8 -11.5 16.5t-10.5 16.5q-4 8 -8 14t-6 10q-9 14 -16 27t-13 23q-3 5 -4 10t-1 11q0 5 1 10t4 10q2 5 6 10 t9 10q6 5 13.5 10l16.5 11q26 16 55.5 29t62.5 23q32 10 65 17.5t67 13.5q7 1 13.5 2t13.5 2q6 1 12.5 2t13.5 2l18 2l18 2q4 1 9 1.5t9 0.5q47 4 95 4t96 -3q47 -3 94.5 -8t95.5 -11h1h2v-1h1h1h1h2h3q1 -1 2.5 -1h2.5q2 -1 3.5 -1.5t3.5 -0.5q1 -1 3 -1.5t3 -1.5 q2 -1 4 -3t2 -4q0 -3 -2 -5t-6 -4q-4 -1 -7.5 -2.5t-7.5 -1.5h-2h-1q-1 -1 -2 -1h-2h-2h-2h-2h-2h-1.5h-0.5v0v0h-1v0q-26 -4 -50.5 -13t-44.5 -24q-22 -15 -41 -31t-36 -33l-5.5 -5.5l-4.5 -4.5q-2 -3 -4.5 -5.5t-5.5 -4.5q-4 -5 -8.5 -10t-8.5 -10q-25 -27 -47 -52 t-41 -48q-19 -24 -36.5 -46t-34.5 -43q-29 -34 -60.5 -66t-65.5 -61q-34 -28 -83 -55.5t-113 -53.5v1v0z" />
<glyph unicode="[" horiz-adv-x="550" d="M-31 -288l332 999h216l-12 -40h-148l-309 -920h148l-13 -39h-214v0v0z" />
<glyph unicode="\" horiz-adv-x="347" d="M258 -92h-48l-133 763h49l132 -763v0v0z" />
<glyph unicode="]" horiz-adv-x="550" d="M530 711l-335 -999h-215l14 39h146l308 920h-147l12 40h217v0v0z" />
<glyph unicode="^" horiz-adv-x="1250" d="M577 714h93l326 -276h-51l-322 227l-323 -227h-49l326 276v0v0z" />
<glyph unicode="_" horiz-adv-x="625" d="M0 -196h625v-39h-625v39v0v0z" />
<glyph unicode="`" horiz-adv-x="255" d="M126 487q0 5 0.5 9.5t1.5 9.5q0 5 1.5 10.5t2.5 11.5q2 6 3.5 12t4.5 13q2 6 5 12l6 12q5 12 14.5 23t22.5 20q4 2 8 4.5t9 4.5t9.5 3t10.5 2h2h2q2 -1 3.5 -1h2.5q2 -1 5 -1.5t6 -1.5q4 -3 7.5 -6t4.5 -7q2 -4 3.5 -8t1.5 -8v-2v-2q-1 -1 -1 -2v-2q-1 -2 -1.5 -4 t-2.5 -4q-1 -4 -4.5 -8t-8.5 -6q-6 -2 -10.5 -4t-9.5 -4h-1.5h-0.5v0v0q-1 -1 -2.5 -1.5t-2.5 -0.5q-1 -1 -2.5 -1.5t-2.5 -0.5q-1 -1 -2.5 -1.5t-2.5 -0.5q-1 -1 -2.5 -1.5t-2.5 -0.5q-11 -6 -19 -13t-13 -16q-6 -9 -9 -18t-5 -18q-3 -9 -4.5 -17t-1.5 -16v-14v-12v-6v-5 v-2v-2q-1 0 -1 -1v-1q-1 -1 -2 -2.5t-2 -2.5l-3 -1.5t-2 -0.5h-3t-2 1q-2 0 -3 1.5t-1 2.5q-3 4 -4.5 8.5t-2.5 9.5t-1.5 10t-0.5 11v7.5v7.5q0 3 0.5 5t1.5 5q0 1 0.5 2.5t0.5 2.5v0.5v1.5v1.5v1.5v1v0z" />
<glyph unicode="a" horiz-adv-x="503" d="M241 76l-2 -2l-2 -2t-2 -1.5t-2 -1.5l-0.5 -0.5l-1.5 -1.5l-1.5 -1.5t-2.5 -1.5q-19 -17 -41 -32t-46 -27q-25 -10 -52.5 -11.5t-59.5 6.5q-13 3 -21 9.5t-12 15.5q-5 9 -7.5 19.5t-3.5 20.5v4v4q1 1 1 3v4v4v4q1 1 1 3v4q4 19 11 36t20 33q14 16 29 30t32 27 q19 14 40.5 25t44.5 20t48 14t51 6h6h7h5h7q11 -1 22.5 -3.5t22.5 -6.5t19 -10.5t14 -15.5q5 -10 6 -21t-1 -25q-4 -13 -9 -27.5t-10 -28.5q-4 -6 -7 -12l-6 -12q-2 -6 -5 -11.5t-6 -10.5q-5 -8 -10 -15.5t-9 -15.5q-4 -7 -8 -13.5t-7 -11.5h3.5h3.5h3.5h3.5h3.5h3.5h3.5 h3.5h20h16t13.5 1t11.5 3q2 1 4 1.5t4 0.5q4 2 8 3.5t8 3.5q5 3 14 8t20 12v0v0v0l1 1h0.5h0.5q3 2 6 2t5 -2q2 -1 2 -3.5t-2 -5.5q-1 -1 -2 -3t-2 -3l-3.5 -3.5l-3.5 -3.5l-7.5 -7.5l-7.5 -7.5q-2 -1 -4.5 -3t-4.5 -3q-2 -2 -4 -3.5t-4 -3.5q-5 -3 -9.5 -6t-8.5 -6 q-3 -2 -5.5 -3.5t-5.5 -3.5q-3 -1 -5.5 -2.5t-5.5 -2.5q-6 -3 -10.5 -4.5t-8.5 -1.5q-28 -7 -48 -4t-31 15q-11 13 -18.5 28t-11.5 32v0v1q-1 0 -1 0.5v0.5v0.5v1.5v1v0zM46 104q-4 -22 1.5 -35t20.5 -17t34 -5.5t41 -0.5q20 2 38 9.5t34 21.5t29 29.5t24 31.5q5 8 9 15.5 t8 14.5q3 5 4.5 9.5t3.5 9.5l2 4l2 4q10 23 10 38t-9 24q-8 9 -27.5 11t-49.5 -3q-1 0 -2 -0.5t-2 -0.5q-1 -1 -2 -1h-2h-2h-1q-1 -1 -2 -1h-2q-22 -6 -42.5 -17t-40.5 -28q-19 -16 -34 -33.5t-26 -35.5l-4 -6t-3 -5q-2 -3 -3 -6l-2 -6q-2 -6 -3.5 -11.5t-1.5 -10.5v1v0z " />
<glyph unicode="b" horiz-adv-x="471" d="M-33 0l4 8t3 8q8 20 15 41t11 42q4 12 8 24.5t8 25.5q3 12 7 24.5t8 25.5l2 8l2 8q1 1 1 2t1 3t1.5 5t1.5 5l2 8l2 8l2 8l2 8q5 18 10.5 36t11.5 36q3 9 5.5 18.5t5.5 18.5q4 14 8 27.5t9 27.5q4 13 9 27t10 27q4 9 8 20t10 23q5 12 10.5 25t12.5 26q14 25 31.5 48 t38.5 44q22 21 49 32t59 11q26 0 43 -6.5t24 -20.5q8 -13 10 -27.5t-2 -30.5q-3 -9 -6.5 -17t-8.5 -16q-3 -5 -6.5 -10t-7.5 -10q-2 -2 -3.5 -4t-3.5 -4q-2 -1 -6.5 -5t-10.5 -9q-5 -5 -12 -10.5t-15 -11.5q-1 -1 -2 -1.5t-2 -1.5t-2 -1.5t-2 -1.5l-1 -0.5t-1 -1.5h-1v0 q-1 -1 -2 -1.5t-1 -1.5q-8 -6 -15.5 -10.5t-15.5 -8.5q-7 -4 -13 -6t-10 -1q-4 0 -5.5 1.5t-0.5 3.5l4.5 4.5t6.5 5.5q0 1 0.5 1.5t1.5 0.5l0.5 0.5l0.5 0.5q1 0 2 0.5t2 1.5t2.5 2t2.5 2q2 0 3.5 1t2.5 2t1.5 1t0.5 1q1 0 2.5 1l1.5 1q11 8 21 18t19 22q8 12 14 25t9 26 q2 8 2 15.5t-1 14.5q-2 8 -5 14.5t-8 13.5q-2 2 -3.5 4t-3.5 3q-3 3 -6.5 5.5t-7.5 3.5q-5 2 -10 2.5t-10 -1.5q-7 -2 -14.5 -6.5t-15.5 -10.5q-6 -4 -10.5 -9t-8.5 -10q-2 -2 -3 -3.5t-3 -3.5l-8 -10t-7 -10q-4 -5 -5.5 -9t-3.5 -7q-12 -24 -21 -48.5t-17 -49.5 q-4 -13 -7.5 -25.5t-7.5 -24.5q-3 -13 -6.5 -25.5t-6.5 -25.5v-1.5v-1.5q-1 -1 -1 -1.5v-1.5v-1.5v-0.5q-1 -1 -1 -1.5v-0.5l-2 -8t-2 -7l-2 -8l-2 -8t-2 -7.5t-1 -7.5q-1 -4 -2 -7.5t-2 -7.5q-10 -37 -20.5 -73.5t-21.5 -72.5q-6 -18 -11 -36l-10 -36q-6 -19 -11 -37 t-11 -36h5h6h2h2h4h4q32 -1 63 1.5t60 6.5q28 5 51.5 20.5t39.5 42.5q2 4 4.5 8t4.5 8t3.5 8t2.5 8q4 14 4 26.5t-3 25.5q-4 12 -11.5 24t-20.5 22h-3h-3q-2 -1 -3.5 -1h-3.5h-3.5h-2.5q-1 -1 -1.5 -1h-0.5h-2h-2h-2h-2h-2h-2h-2h-1q-1 -1 -2 -1h-2q-4 0 -8 -0.5t-8 -0.5h-4 h-4q-5 0 -10 1.5t-9 3.5l-2 2t-1 2v1.5v1.5v0.5v1.5v0l1 1v0.5v0.5v0.5t1 1.5v0v1v0v0v0l1 1v0.5v0.5l0.5 0.5t0.5 1.5l0.5 0.5t0.5 1.5v1.5t1 1.5l2 4t2 3q0 1 1 2l1 1q2 2 6.5 3t9.5 1l229 1q5 -1 7.5 -2.5t3.5 -4.5v-2.5v-2.5q0 -2 -0.5 -3l-1.5 -3v-1.5v-0.5 q-1 -1 -1 -1.5v-0.5l-1.5 -1.5t-0.5 -1.5q-1 -1 -1.5 -2t-0.5 -2l-0.5 -0.5t-0.5 -1.5q-1 0 -1.5 -0.5l-0.5 -0.5q-1 -4 -5 -6t-12 -3q-7 -1 -15.5 -1h-17.5h-4h-4h-2h-2q-4 0 -6.5 0.5t-4.5 1.5h-7.5h-6.5h-3.5t-2.5 1h-2h-2q2 -35 -5 -67t-24 -61q-16 -29 -44 -53t-66 -43 q-22 -10 -45 -16t-46 -8q-16 -1 -32 -1.5t-32 -0.5h-16h-16q-7 1 -14.5 1.5t-12.5 0.5h-6.5h-7.5h-7.5h-7.5h-2v0z" />
<glyph unicode="c" horiz-adv-x="385" d="M235 228q-22 2 -41.5 1t-38.5 -5t-36.5 -12t-33.5 -19q-2 -1 -3.5 -2t-3.5 -3q-2 -1 -3.5 -2t-3.5 -3q-2 -1 -4 -3l-3 -3q-2 -2 -4 -3.5t-4 -3.5l-14 -14t-14 -15q-6 -7 -11.5 -15.5t-9.5 -16.5q-4 -7 -5.5 -13.5t-1.5 -12.5v-13t1 -11q3 -7 14.5 -11.5t31.5 -6.5 q21 -2 42.5 -3t46.5 0q17 0 33 1l32 2q16 2 29 3.5t22 2.5h2t2 1h2h2h1h1q1 1 2 1.5t2 0.5q2 0 3.5 0.5t3.5 1.5t3.5 1.5t3.5 1.5q2 2 5 4t7 4l0.5 0.5l1.5 1.5q1 0 1.5 0.5l0.5 0.5q1 0 2 1l2 2t2 1.5t2 1.5q2 0 3.5 0.5t2.5 1.5q2 2 4.5 2.5t5.5 1.5q4 1 5.5 0t1.5 -3 t-1.5 -4t-2.5 -4q0 -1 -0.5 -2t-1.5 -2l-0.5 -0.5l-0.5 -0.5q-1 -1 -1.5 -1t-0.5 -1v-0.5v-0.5l-1 -1v0q0 -1 -1 -1.5t-1 -1.5l-2 -2l-2 -2q-2 -1 -3 -2l-1 -1q-11 -10 -22.5 -18t-23.5 -16q-12 -7 -26 -11t-30 -6q-5 -1 -10 -1.5t-10 -1.5q-5 0 -10.5 -0.5t-11.5 -1.5 q-12 -1 -24 -1.5t-23 -0.5q-9 0 -18 0.5t-18 1.5q-5 1 -9 1t-9 1q-13 1 -24 3.5t-20 5.5q-17 9 -26.5 23t-12.5 33t0.5 39t13.5 41q10 24 28.5 46t46.5 43q29 21 63 34.5t74 19.5q31 5 51 4.5t30 -5.5q9 -5 8.5 -20.5t-9.5 -41.5q-2 -4 -4 -8.5t-4 -9.5q-4 -9 -8 -17.5 t-8 -17.5q-7 -13 -14 -25.5t-15 -24.5q0 -1 -0.5 -1.5l-1.5 -1.5t-2 -1.5t-1 -1.5q-1 -1 -1.5 -2t-2.5 -2l-1.5 -1.5t-1.5 -0.5q-2 -1 -3 -1h-2q-2 0 -3 1.5t-2 2.5q-1 2 -1.5 3.5t-0.5 2.5q0 2 0.5 4t2.5 4v0.5v1.5l0.5 0.5l1.5 1.5q0 1 0.5 1.5t0.5 1.5h0.5h0.5 q0 1 0.5 1.5l0.5 0.5v0.5t1 1.5v0.5v1.5q4 11 7 22.5t4 23.5l2 12l2 12q1 5 1.5 11t1.5 12v1v0z" />
<glyph unicode="d" horiz-adv-x="500" d="M248 79l-2.5 -2.5l-2.5 -2.5t-2.5 -2t-2.5 -2l-2 -2t-2 -1l-2 -2l-2 -2q-18 -13 -36.5 -25.5t-37.5 -23.5q-19 -10 -41.5 -14.5t-48.5 -3.5q-31 1 -50.5 8.5t-30.5 22.5t-11.5 34.5t7.5 42.5q10 26 26.5 49.5t42.5 45.5q26 23 55 40t60 29q2 1 5 1.5t6 1.5q2 0 3 0.5 l3 1.5q1 0 2.5 0.5t2.5 1.5l8 2l8 2q3 1 7 1.5t8 1.5q5 1 10.5 1.5t11.5 1.5h5.5h5.5q8 0 15.5 -0.5t14.5 -1.5q8 -1 16 -2.5t16 -3.5l54 166v0.5t1 1.5v1.5v1.5t0.5 1.5t0.5 1.5h0.5h0.5q0 1 0.5 1.5l0.5 0.5q11 36 25 68.5t29 60.5q15 29 38.5 56.5t54.5 54.5l1.5 1.5 t1.5 0.5l1 1l1 1q1 0 2 1l2 2l1.5 1.5t1.5 0.5q0 1 0.5 1t0.5 1q1 0 2.5 1t2.5 2q22 0 27.5 -3.5t-3.5 -9.5q-10 -6 -23.5 -19t-29.5 -33q-2 -2 -4 -4.5t-3 -4.5q-2 -3 -3.5 -5.5t-3.5 -4.5q-2 -3 -4 -6.5t-4 -6.5q-1 -2 -2 -3.5t-2 -3.5q-13 -22 -22.5 -46t-17.5 -48 q-4 -12 -7.5 -24t-6.5 -24q-3 -13 -6 -25l-6 -24q-1 -4 -2 -7.5t-2 -7.5t-2 -7.5t-2 -7.5q-1 -7 -2.5 -14.5t-2.5 -15.5l-2 -8t-1 -8q-1 -5 -2 -9l-2 -8l-2 -8l-2 -8l-2 -8l-2 -8q-7 -31 -16 -62t-20 -61t-22.5 -60t-25.5 -59q18 -2 35 -2t32 2q10 2 19.5 5t18.5 8 q5 2 9.5 5.5t9.5 6.5v0v0v0l1 1v0v0l1.5 0.5t2.5 1.5q1 0 2.5 0.5t2.5 1.5h6h4q2 -1 2.5 -3t-1.5 -5q-1 -3 -4 -6.5t-7 -7.5l-8 -8t-9 -8q-7 -6 -15 -11.5t-18 -10.5q-4 -3 -9 -5t-9 -4q-5 -2 -9.5 -3.5t-9.5 -2.5q-19 -6 -36.5 -6t-33.5 6q-16 5 -24 25t-8 53v1v0zM273 149 q1 1 1.5 2.5t1.5 2.5q0 2 0.5 3.5t1.5 2.5q1 2 1.5 3.5t1.5 3.5q0 2 0.5 4t1.5 4t1.5 3.5t1.5 2.5q0 2 0.5 3.5t1.5 2.5q2 3 2.5 6t1.5 6q4 13 4 25t-3 22q-2 11 -13.5 15.5t-32.5 4.5q-33 -1 -61 -10.5t-51 -27.5q-24 -19 -41.5 -39t-28.5 -42l-0.5 -0.5l-0.5 -0.5 q0 -1 -0.5 -1h-0.5v0v0v-1v0q-1 -3 -2.5 -6l-2.5 -5q-1 -3 -2.5 -6t-2.5 -6q0 -1 -0.5 -2.5t-1.5 -3.5q-1 -4 -2 -8.5t-1 -9.5v-8v-8t1.5 -8t2.5 -8q2 -6 6.5 -10.5t11.5 -6.5q8 -3 15.5 -4t16.5 -1h8.5h9.5h4t4 1q2 0 4 0.5t4 0.5q22 2 41.5 9.5t38.5 21.5q18 14 31 29.5 t21 31.5q0 1 0.5 1.5t0.5 1.5h0.5h0.5q0 1 0.5 1.5l0.5 0.5q0 2 0.5 3.5t1.5 2.5v1v0z" />
<glyph unicode="e" horiz-adv-x="407" d="M92 153q-14 2 -24 5.5t-17 7.5q-7 5 -10.5 13t-3.5 20q0 11 3 21t10 19q6 8 15.5 15.5t21.5 14.5q15 8 32 12t34 5q9 0 17.5 0.5t17.5 0.5t17.5 -0.5t17.5 -0.5l0.5 -0.5t1.5 -0.5h0.5h0.5h2h3q4 0 8 -0.5t8 -0.5q3 -1 7 -1h8h8h8h7h8q13 0 19 -1.5t6 -4.5 q0 -4 -1.5 -7.5t-6.5 -8.5q-1 -1 -2 -1.5t-2 -1.5t-2 -1.5t-2 -1.5t-2 -1.5t-1 -1.5q-1 -1 -2 -1.5t-2 -0.5l-14 -8t-13 -6q-3 -1 -5.5 -2.5t-5.5 -1.5q-3 -1 -5.5 -1.5t-5.5 -0.5q-7 0 -13.5 1t-14.5 3q-7 2 -15.5 6t-19.5 9q-4 2 -8.5 3.5t-9.5 2.5q-5 2 -9.5 2.5 t-9.5 1.5q-11 2 -22 0.5t-21 -4.5q-9 -3 -14.5 -10.5t-7.5 -18.5q-1 -6 0 -10t5 -7t8.5 -5t11.5 -4q4 -1 7 -2t7 -2q7 -2 14 -3.5t14 -3.5q11 -3 22.5 -4.5t22.5 -1.5h0.5h1.5h0.5h0.5h1h3q9 -1 17 -3t15 -5q6 -3 3 -9t-17 -15q-6 -4 -13 -7t-15 -4q-4 -1 -8 -1.5t-8 -0.5 t-8 0.5t-8 0.5h-8.5t-8.5 1q-1 0 -3 0.5t-3 0.5q-3 1 -6 1.5t-6 0.5q-1 0 -2 -0.5t-2 -0.5q-1 -1 -2 -1.5t-2 -0.5q-1 -1 -2 -1.5t-2 -0.5q-1 -1 -2 -1h-2q-8 -3 -15.5 -6.5t-15.5 -7.5q-7 -4 -14 -8.5t-12 -9.5h-0.5h-0.5q0 -1 -0.5 -1h-0.5v0v0q-1 -1 -2 -2.5t-2 -2.5 q-1 -2 -2 -3t-2 -3q-1 -1 -2 -3t-2 -3q-1 -2 -1.5 -3.5t-1.5 -3.5q-1 -3 -1 -6t1 -6q0 -3 2 -6t6 -5q5 -4 16.5 -6t30.5 -4q19 -1 39.5 -2t42.5 0q20 0 38.5 1t36.5 2q17 2 30 4t20 5q1 0 2.5 1.5t5.5 3.5t7.5 4.5t7.5 5.5h0.5h1.5l0.5 0.5l0.5 0.5l0.5 0.5l1.5 1.5q3 2 6 3 t6 3q2 1 5 2l6 2q5 2 7 0.5t2 -6.5q-1 -3 -3 -6t-6 -7t-7.5 -8t-7.5 -8q-1 -1 -2 -1.5t-2 -0.5q-1 -1 -2 -1.5t-2 -1.5l-1 -0.5t-1 -1.5l-2 -2l-2 -2q-5 -4 -10 -7t-9 -6t-7.5 -5t-5.5 -4q-11 -7 -22.5 -10.5t-22.5 -5.5q-11 -1 -23.5 -1h-25.5l-128 -1q-1 1 -2 1h-2h-2h-2 h-2h-2h-2h-2q-16 0 -30.5 2.5t-25.5 7.5q-13 5 -19 16.5t-4 27.5q1 15 8.5 27t21.5 22q10 10 25 18.5t32 15.5q5 2 9.5 4t8.5 4q3 1 5.5 2t4.5 2q2 0 4.5 1t4.5 2v1v0z" />
<glyph unicode="f" horiz-adv-x="255" d="M47 249q-1 -1 -2.5 -1h-2.5h-2.5h-2.5h-0.5h-0.5l-1 -1v0h-0.5h-0.5h-0.5h-0.5q-7 -1 -13.5 -0.5t-11.5 1.5t-6 5.5t0 12.5q2 6 6.5 9.5t9.5 4.5q3 1 6 1.5t7 1.5q3 0 6.5 0.5t7.5 1.5v0h1h0.5h1.5h2.5h1.5h0.5t1.5 1h1.5h1.5q4 14 11 35t17 49q9 27 21 56t26 60 q19 41 41 79.5t48 73.5t53.5 52.5t58.5 17.5h2h2h2h2h2h2l1 0.5t2 0.5h2.5h1.5h1h2h15.5t14.5 -2q5 -1 7.5 -6.5t0.5 -13.5q-4 -13 -11.5 -20.5t-18.5 -9.5q-11 -1 -24 -1.5t-29 0.5h-5.5t-4.5 1h-4.5h-4.5h-5.5t-5.5 1h-4.5h-4.5q-13 -7 -25.5 -25t-24.5 -47 q-12 -28 -23 -58.5t-21 -62.5q-9 -28 -16.5 -54t-14.5 -51t-11.5 -44t-7.5 -31h5h8h4t4 1h5h5h3.5h3.5h3.5h3.5h3.5t3.5 1h3.5h3.5h10h10q1 -1 3 -1h3h6.5h6.5q8 0 13.5 -0.5t8.5 -2.5l0.5 -0.5l0.5 -0.5l1.5 -1.5t0.5 -1.5v-2v-2t-0.5 -1.5l-0.5 -0.5q0 -1 -0.5 -1.5 l-0.5 -0.5v-1.5v-0.5v-0.5v-0.5l-1 -1v0v0v0v-1v0v-1.5v-2.5v-2v-2t-0.5 -2l-0.5 -1q-1 -1 -1 -2v-2l-1.5 -1.5l-0.5 -0.5q-1 -1 -1.5 -1h-1.5q-7 -1 -14.5 -2t-15.5 -1h-8h-8h-8h-8h-4h-4h-2h-2h-2.5t-3.5 1h-2.5h-2.5h-10.5h-9.5h-5t-5 1h-4h-4q-1 -6 -2.5 -11.5 t-3.5 -10.5q-2 -6 -3 -11.5t-2 -10.5q-2 -6 -3.5 -11.5t-2.5 -10.5l-2 -6t-1 -5q-1 -3 -2 -5.5t-2 -5.5l-6 -22l-6 -22q-6 -22 -11.5 -43.5t-12.5 -43.5q-9 -31 -19 -63.5t-21 -65.5q-8 -29 -17 -56t-22 -54t-28 -53.5t-31 -52.5l-40 -1q26 61 47.5 121t38.5 120 q14 48 25.5 96.5t23.5 97.5q3 12 6 24.5t6 24.5q0 2 0.5 4t1.5 4q0 2 0.5 3.5t1.5 2.5q0 1 0.5 2t0.5 2q1 4 2 7.5t2 7.5q0 4 1 8l2 8q1 3 1.5 5.5t1.5 4.5q2 6 3.5 11.5t2.5 10.5v1v0z" />
<glyph unicode="g" horiz-adv-x="483" d="M297 113q-4 -3 -7 -6t-5 -6l-2.5 -2.5t-3.5 -2.5q-1 -2 -2.5 -3t-3.5 -3q-16 -15 -34 -29t-37 -27t-41.5 -21.5t-47.5 -11.5q-3 0 -5.5 -0.5t-4.5 -0.5h-4.5h-5.5h-5.5h-4.5h-4.5h-5.5q-8 0 -15.5 0.5t-15.5 1.5q-7 2 -14.5 3.5t-14.5 4.5q-9 5 -13.5 11t-8.5 14l-4 16 t-3 17q-2 40 15.5 75.5t58.5 66.5t86 49.5t96 24.5q11 2 22.5 2.5t22.5 0.5t22.5 -1t22.5 -3q19 -4 30.5 -10.5t15.5 -16.5t5.5 -21t0.5 -25q-4 -33 -11 -65.5t-18 -64.5q-10 -33 -21 -63.5t-22 -61.5q-1 -2 -1.5 -3.5t-0.5 -3.5q-1 -1 -1.5 -3t-0.5 -3q-2 -3 -3 -6l-2 -6 q-3 -6 -5.5 -12.5t-4.5 -13.5q-3 -6 -6 -13t-5 -14q-11 -24 -25.5 -48t-31.5 -47q-16 -23 -39.5 -40.5t-52.5 -30.5q-10 -5 -22 -8.5t-26 -7.5q-6 -2 -13 -3t-13 -2l-14 -2t-13 -2q-14 -2 -26.5 -1.5t-25.5 2.5q-14 1 -25.5 5.5t-21.5 10.5q-6 4 -10 8.5t-5 9.5v4.5v4.5 q0 3 1 5.5t2 4.5q1 4 3.5 8t5.5 7q2 2 4 4.5t4 5.5l2 2l2 2t2 1.5t2 1.5t2 1.5t2 1.5l1.5 1.5t0.5 1.5l1.5 1.5l1.5 1.5t4 3.5t6 5.5q1 1 2.5 3t2.5 3l3.5 3.5l3.5 3.5l2 2l2 2l1 1l1 1t2 1.5l1 0.5q1 1 2 1.5t2 0.5q4 3 7.5 5.5t4.5 4.5q2 2 5 3t6 1q2 0 3 -1.5t1 -3.5 t-1 -4t-3 -4v-0.5v-1.5q-1 0 -1 -0.5v-0.5q-1 0 -2 -1t-1 -2l-1.5 -1.5l-1.5 -1.5q-1 0 -1.5 -0.5t-0.5 -1.5q-1 -2 -1.5 -2.5l-0.5 -0.5q0 -2 -0.5 -3.5t-1.5 -2.5t-2 -1.5t-2 -1.5q0 -1 -1 -1.5t-2 -1.5q-2 -3 -5 -6l-6 -6t-4.5 -6.5t-1.5 -7.5v-2v-2v-1v-2t0.5 -2t1.5 -2 l0.5 -1t1.5 -2q4 -6 10.5 -10t12.5 -6q8 -2 17.5 -4t19.5 -3h7.5h7.5h4t5 -1h4h4h2h2h2h2h2t2 -1h2h2q11 0 19.5 1t14.5 4q3 1 5.5 3t4.5 4t4.5 4t5.5 5q1 2 2 4.5t3 4.5q1 1 2 2.5t2 2.5q0 2 1 3l2 2q19 29 35.5 59.5t29.5 62.5q14 31 26 62.5t23 62.5q2 6 4 12.5t4 13.5 q2 6 4 12.5t4 12.5q4 13 7.5 25.5t7.5 25.5v1v0zM111 210q-13 -11 -23 -23t-18 -25q-9 -13 -13.5 -26.5t-5.5 -28.5v-1.5v-1.5v-1.5v-1.5q-1 -2 -1 -4.5v-4.5v-5.5v-4.5q0 -6 1.5 -11t3.5 -10q2 -4 6 -7t11 -4q26 -5 50 -4.5t48 7.5q23 6 43 17t38 26q2 2 4.5 4t5.5 5 q2 2 4.5 5t6.5 6q3 3 6 7t6 7q2 4 5 8l6 8q5 8 9 16.5t8 17.5q4 10 6.5 19.5t3.5 18.5q0 9 -2 17.5t-8 15.5q-7 9 -18 14t-24 5t-27.5 -2t-29.5 -7l-16 -6l-16 -6q-8 -4 -15.5 -7.5t-14.5 -7.5q-4 -2 -8 -4.5t-8 -5.5l-4 -2l-4 -2q-5 -3 -9 -6t-7 -5v1v0z" />
<glyph unicode="h" horiz-adv-x="490" d="M-33 0l4 8t3 8q8 20 15 41t11 42q4 12 8 24.5t8 25.5q3 12 7 24.5t8 25.5l2 6t2 7q0 3 1 6l2 6l2 6t2 7q0 3 1 6l2 6l2 6t2 7q0 3 1 6l2 6l2 6t2 7l2 6l2 6q3 13 6.5 25.5t7.5 25.5q3 12 7.5 24.5t8.5 25.5q8 25 16.5 49.5t18.5 49.5q4 9 8 19t9 21t11.5 23t13.5 24 q15 26 34 48.5t44 43.5q23 20 52 27.5t63 1.5q16 -3 27 -9t18 -17q5 -10 8 -21.5t2 -23.5q-2 -13 -7 -25t-13 -23q-9 -11 -18 -21.5t-20 -19.5l-2 -2l-2 -2l-0.5 -0.5t-1.5 -0.5q-1 -2 -2.5 -3t-3.5 -3q-2 -1 -3.5 -2.5t-3.5 -2.5q-2 -2 -3.5 -3t-3.5 -2q-6 -4 -12 -8.5 t-12 -8.5q-3 -2 -7.5 -4.5t-8.5 -4.5l-4 -2l-4 -2q-1 -1 -2 -1.5t-2 -0.5q-1 -1 -2 -1.5t-2 -0.5t-2 -0.5t-2 -0.5q-1 -1 -2 -1h-2h-1.5h-0.5h-0.5h-0.5h-0.5h-0.5h-1.5h-0.5q-1 0 -1.5 0.5t-1.5 0.5q-1 1 -1.5 2t0.5 2q0 1 1 2t2 3q1 0 1.5 0.5l0.5 0.5q1 1 2 1.5t2 1.5 t2 1.5t2 1.5q1 0 2 1t3 2q1 0 1.5 0.5l1.5 1.5l0.5 0.5t1.5 0.5q14 9 27 20.5t24 26.5t18 30.5t8 31.5q0 5 -0.5 10.5t-1.5 11.5q-1 5 -3 10.5t-5 10.5q-3 4 -5.5 7.5t-5.5 6.5q-3 2 -5.5 4t-5.5 3q-7 2 -13.5 2t-13.5 -2q-5 -2 -9.5 -4.5t-8.5 -5.5q-2 -1 -4.5 -3t-4.5 -4 q-4 -4 -8 -8.5t-8 -8.5q-2 -2 -4 -4.5t-4 -4.5q-4 -5 -7.5 -10t-6.5 -10q-3 -3 -4.5 -6t-3.5 -6q0 -1 -0.5 -1.5l-1.5 -1.5q-11 -22 -20 -44.5t-17 -45.5q-7 -23 -13.5 -46.5t-11.5 -46.5q-2 -4 -3 -8l-2 -8q0 -1 -0.5 -2.5t-0.5 -2.5q-1 -3 -1.5 -5t-0.5 -5 q-1 -4 -2.5 -8.5t-2.5 -9.5q-1 -4 -2.5 -8.5t-2.5 -9.5q-1 -4 -2 -8.5t-2 -9.5q-1 -4 -2 -8.5t-2 -9.5q-1 -3 -1.5 -6t-1.5 -6q-2 -5 -3.5 -10.5t-2.5 -11.5q-2 -6 -3.5 -11.5t-2.5 -11.5q-1 -2 -1.5 -4.5t-1.5 -5.5q-3 -9 -5.5 -17.5t-4.5 -16.5q-2 -6 -3.5 -11.5 t-2.5 -11.5q-1 -3 -1.5 -5.5t-1.5 -5.5q5 4 9 7.5t9 7.5q9 8 18 15.5t18 14.5q14 11 29.5 20.5t33.5 17.5q3 2 6.5 3t7.5 3l7.5 2.5t9.5 2.5q6 2 12 3l12 2q3 0 6 0.5t6 0.5q11 2 21 1.5t20 -2.5q11 -1 20.5 -5.5t16.5 -10.5q11 -10 15.5 -21.5t2.5 -23.5q-1 -12 -6 -24.5 t-14 -25.5q-3 -4 -6.5 -9t-6.5 -9q-4 -5 -8 -9.5t-9 -9.5l-6 -6l-6 -6l-11.5 -11.5t-12.5 -10.5q-7 -6 -13.5 -11.5t-12.5 -10.5q-3 -2 -6.5 -4.5t-6.5 -5.5q-9 -7 -17 -12.5t-14 -10.5h7.5h6.5h3.5h3.5h5.5h4.5q2 -1 4.5 -1h5.5q17 -1 33 -1t31 1q15 0 30 3t30 8 q4 2 7.5 3.5t7.5 2.5q4 2 8.5 4t9.5 5l0.5 0.5l1.5 1.5q1 0 2.5 1t2.5 2h1t2 1l0.5 0.5l1.5 1.5h2t1 1h1v0h1.5h0.5h2h2l1 -0.5t2 -1.5t0.5 -3.5t-2.5 -4.5q-1 -1 -2 -2.5t-1 -2.5q-1 -2 -2 -3t-2 -3q-2 -1 -3 -2l-2 -2q-2 -1 -3 -2l-2 -2q-4 -3 -6.5 -5t-4.5 -4 q-3 -1 -5 -2.5t-3 -2.5q-5 -4 -10 -7l-10 -6t-10 -5l-10 -4q-19 -9 -38 -13.5t-39 -4.5h-41h-44h-4h-4h-8h-8h-12h-12l6 6l6 6q2 3 5 6.5t6 7.5q5 7 11.5 13.5l13.5 13.5q10 11 19.5 22.5t18.5 23.5q5 6 9.5 12t9.5 12q14 18 23.5 37.5t16.5 38.5q5 18 0.5 30t-17.5 18 t-29.5 6t-35.5 -6q-28 -9 -49.5 -23t-38.5 -32q-16 -19 -31 -38.5t-26 -40.5q-1 -2 -2.5 -4t-3.5 -4q-1 -3 -2 -5l-2 -4q-1 -1 -1.5 -2.5t-1.5 -3.5q-2 -3 -3.5 -6t-2.5 -6q-6 -10 -10 -19t-6 -16q-3 -7 -5 -12.5t-4 -10.5q-4 -7 -8.5 -11t-10.5 -6q-5 -1 -16 -2t-27 -1h-2 v0z" />
<glyph unicode="i" horiz-adv-x="277" d="M30 42q2 -1 5 -1h6h3h3h2.5h2.5q22 -1 42.5 0t40.5 3t38.5 10.5t34.5 21.5q6 4 10 4.5t7 -2.5q2 -3 1 -6t-5 -7q-5 -4 -9.5 -8.5t-9.5 -8.5t-9.5 -8t-9.5 -8t-10 -7l-10 -6t-10 -5.5t-10 -4.5q-32 -14 -60.5 -16t-52.5 7q-24 11 -30.5 39t3.5 74q1 2 1.5 3.5t0.5 3.5 q2 5 3.5 12t4.5 15l6 22t7 22q1 5 2.5 9.5t3.5 8.5q1 2 1.5 4.5t1.5 4.5q2 7 4.5 13.5t5.5 12.5q1 5 2.5 8.5t3.5 7.5l2 4t2 3q0 2 1 4t2 3q2 2 5.5 4.5t8.5 3.5q2 1 4 1t4 1q4 0 8 1t8 1h8h8q2 0 4 -0.5t4 -0.5q5 -1 8.5 -1.5t4.5 -2.5q2 -1 1.5 -4.5t-2.5 -8.5 q-1 -5 -4 -10.5t-6 -11.5v-1.5v-0.5q-1 -1 -1 -1.5v-0.5v-0.5v-0.5l-1 -1v0q-3 -5 -5 -9.5t-4 -8.5t-3.5 -6.5t-1.5 -4.5q-1 -2 -2 -4.5t-2 -4.5q-1 -3 -2 -5.5t-2 -4.5q0 -1 -0.5 -2.5t-1.5 -3.5q-1 -3 -1.5 -6t-2.5 -6q-4 -12 -9 -24t-10 -23q-4 -11 -9 -22t-11 -22 q-2 -6 -5 -11l-6 -10q-4 -5 -7 -10.5t-5 -10.5v1v0zM108 333v4.5v4.5q-1 3 -1 5.5v5.5v12t1 12q2 14 6 26.5t11 23.5q8 11 21 16t32 3q17 -1 24 -6.5t5 -13.5q-1 -9 -6.5 -18t-13.5 -19q-3 -3 -5.5 -6t-4.5 -5l-2.5 -2.5l-2.5 -2.5l-3 -3l-3 -3q-7 -7 -14 -12.5t-12 -10.5 q-7 -5 -10.5 -8t-4.5 -4l-17 1v0v0z" />
<glyph unicode="j" horiz-adv-x="218" d="M-141 -315q20 31 34.5 57.5t25.5 49.5t19.5 45.5t15.5 43.5q2 4 3.5 8.5t3.5 8.5q1 5 2 9t2 9q1 4 2 8.5t2 8.5q2 5 3 9t2 9q4 16 8.5 32.5t8.5 33.5l4 14t4 15q2 12 4.5 24.5t6.5 25.5l50 171q2 6 6.5 10.5t11.5 5.5q8 2 15.5 2.5t16.5 0.5q2 -1 5 -1.5t6 -0.5h3h3 q1 -1 2.5 -1h2.5v0v0h1h2q2 -1 2.5 -3t0.5 -5q-1 -4 -1.5 -7.5t-1.5 -7.5l-2 -2t-1 -2v-0.5v-0.5q-1 -1 -1 -1.5v-0.5q-2 -3 -3 -6t-2 -5q-2 -2 -2.5 -3.5l-0.5 -1.5q-8 -19 -15.5 -38.5t-12.5 -39.5q-3 -10 -6.5 -20t-6.5 -19q-3 -10 -5.5 -20t-4.5 -20q-1 -4 -2.5 -8.5 t-2.5 -9.5q-1 -4 -2.5 -8t-2.5 -8q-1 -6 -2.5 -12t-3.5 -12q-1 -3 -1.5 -6t-1.5 -6q-1 -4 -2.5 -8t-2.5 -8q-1 -5 -2.5 -9.5t-2.5 -8.5t-2.5 -8t-2.5 -9q-1 -4 -2.5 -8t-2.5 -8t-2.5 -8t-2.5 -8t-2.5 -8t-2.5 -8q-2 -5 -3.5 -10.5t-3.5 -10.5q-3 -10 -6.5 -20t-7.5 -20 q-3 -14 -9.5 -28.5t-13.5 -28.5q-7 -12 -15 -25t-18 -26q-9 -14 -19.5 -27.5t-23.5 -28.5l-44 -1v0v0zM108 333v9.5v10.5t0.5 12t1.5 12q1 14 5 26.5t11 23.5q8 11 20.5 16t31.5 3q17 -1 24.5 -6.5t5.5 -13.5q-1 -9 -6 -18t-15 -19q-1 -3 -4 -6t-6 -5l-2.5 -2.5l-2.5 -2.5 l-3 -3l-3 -3q-7 -7 -14 -12.5t-12 -10.5q-7 -5 -10.5 -8t-4.5 -4l-17 1v0v0z" />
<glyph unicode="k" horiz-adv-x="478" d="M-42 0q16 33 28.5 67t21.5 68q11 35 22.5 69.5t22.5 68.5q5 14 9.5 28t8.5 29q5 14 9.5 28t9.5 28t9.5 28t9.5 29l10 28t11 28q1 2 2 4.5t2 4.5q0 2 1 4.5t2 4.5t2 4.5t2 5.5q1 2 2 4.5t2 5.5q9 21 20.5 42t24.5 41t31.5 37.5t43.5 30.5q8 5 17.5 9t20.5 8q6 2 11.5 3 t10.5 2t10.5 2t11.5 1h4h4q1 -1 3 -1h4q4 0 7.5 -0.5t7.5 -1.5q21 -4 33 -13t16 -23q4 -13 3 -27t-7 -28l-8 -18t-9 -17q-3 -4 -5.5 -8.5t-5.5 -7.5q-3 -4 -5.5 -7.5t-5.5 -6.5q-1 -1 -2 -2.5t-2 -2.5q-1 -2 -2 -3l-2 -2l-2 -2l-2 -2t-2 -1.5t-2 -1.5t-4 -3.5t-6 -5.5 q-4 -3 -7.5 -6t-7.5 -6q-3 -1 -5.5 -2.5t-4.5 -3.5q-1 -1 -2 -1.5t-1 -1.5q-1 -1 -2 -1.5t-2 -0.5q-6 -3 -10.5 -5.5t-9.5 -4.5q-6 -1 -10 -1t-7 1q-1 0 -1.5 0.5t-0.5 1.5v2t1 2v0h1v0.5v0.5l0.5 0.5t1.5 0.5l0.5 0.5l0.5 0.5l0.5 0.5l1.5 1.5h0.5t0.5 1h0.5h0.5q3 3 6 5.5 t6 5.5q3 2 5.5 4.5l5.5 5.5q6 5 11 10.5t9 11.5q8 9 14 19t11 20t7 20.5t1 21.5v2.5v2.5q-1 2 -1 3.5v2.5q0 2 -0.5 3.5t-0.5 3.5l-0.5 0.5t-0.5 1.5t-0.5 2t-0.5 2q-1 5 -3.5 10.5t-5.5 9.5q-4 5 -7.5 8.5t-8.5 6.5q-1 1 -2.5 1t-3.5 1q-1 0 -1.5 0.5t-1.5 0.5h-2t-1 1h-2 h-2q-10 0 -20.5 -3t-19.5 -11q-10 -7 -18 -15t-15 -17q-5 -6 -9 -11.5t-7 -10.5q-3 -4 -4.5 -7.5t-3.5 -6.5q0 -1 -0.5 -1.5l-1.5 -1.5q-10 -19 -18.5 -38.5t-15.5 -39.5q-6 -20 -11.5 -40.5t-10.5 -40.5q-2 -5 -3.5 -10t-2.5 -10q-1 -2 -1.5 -4.5t-0.5 -4.5 q-1 -3 -1.5 -5.5t-0.5 -4.5q-1 -4 -2 -7.5t-2 -7.5q-1 -2 -1 -3.5t-1 -3.5q-2 -5 -3 -10l-2 -10q-7 -28 -15 -55t-18 -54q-4 -13 -9 -26.5t-9 -27.5q-5 -13 -9.5 -26.5t-9.5 -26.5q0 1 0.5 1.5l1.5 1.5q0 1 1 2l2 2q0 1 0.5 1.5l1.5 1.5l0.5 0.5t0.5 1.5l1.5 1.5l1.5 1.5 q0 1 0.5 1.5l1.5 1.5q11 13 22 25.5t23 25.5q11 12 26 22.5t32 19.5q4 2 8 3.5t8 3.5q4 1 8.5 3t9.5 3q9 3 19.5 5t20.5 3t20.5 0.5t20.5 -2.5q11 -1 20 -5t16 -10q7 -5 11.5 -11t6.5 -13t2 -13.5t-1 -13.5q-2 -9 -6 -17.5t-9 -16.5q-6 -8 -12 -14.5t-14 -11.5 q-10 -7 -21.5 -12.5t-22.5 -10.5l-12 -4l-12 -4q-7 -2 -13 -3.5t-12 -3.5q-1 0 -2 -0.5l-1 -0.5q-1 -1 -2 -1h-2t-2 -0.5l-1 -0.5q-1 -1 -2 -1h-2q2 -2 3.5 -5t4.5 -8q1 -2 2 -4.5t2 -4.5q2 -3 3.5 -5.5t2.5 -4.5v-2t1 -1q0 -1 0.5 -2t0.5 -2q2 -1 2.5 -2.5t1.5 -3.5 q2 -4 4.5 -8t5.5 -7q2 -3 4.5 -5t4.5 -2q5 -1 12 -2.5t14 -2.5q4 0 7.5 -0.5t7.5 -0.5h6.5h7.5h10t11 1q5 0 10 1l10 2q11 2 20 6t18 9l1 1l2 2q1 0 2 0.5t2 1.5t2 1.5t2 1.5l0.5 0.5l1.5 1.5q2 0 2.5 0.5l1.5 1.5q3 2 6 3t5 1q3 0 5 -1.5t2 -5.5q-1 -1 -1.5 -3t-1.5 -3 q-1 -2 -2 -3.5t-3 -3.5l-7.5 -7.5t-8.5 -6.5l-2 -2t-2 -1q-2 -1 -3 -2l-2 -2t-2.5 -2t-3.5 -2q-1 0 -1.5 -0.5l-1.5 -1.5q-3 -2 -5.5 -4t-5.5 -4t-5.5 -3.5t-5.5 -3.5q-6 -3 -9.5 -5t-5.5 -4q-7 -3 -14 -4.5t-15 -2.5q-4 -1 -8 -1.5t-7 -0.5q-4 -1 -8 -1.5t-8 -0.5h-5.5 h-5.5q-1 1 -1.5 1h-1.5h-3.5h-3.5h-5.5h-5.5q-2 1 -4.5 1h-4.5q-13 1 -21.5 3t-13.5 7q-6 5 -11.5 12t-10.5 15q-1 1 -1.5 2t-0.5 3q-1 1 -1.5 2t-1.5 2t-1.5 2t-0.5 3q-1 1 -1.5 2.5t-1.5 2.5q-1 0 -1.5 1t-0.5 2v0.5v1.5q-1 0 -1 0.5v0.5q-2 3 -3.5 6l-3.5 7q-2 3 -3.5 6 t-3.5 6l-4 6t-3 7l-4 6l-4 6q0 1 -0.5 1.5l-1.5 1.5l-1.5 1.5t-0.5 1.5q-1 2 -2.5 3.5l-2.5 2.5q0 1 -1 1.5l-1 0.5l-2 2l-2 2q0 1 -0.5 2t-1.5 2q-1 0 -1.5 1t-0.5 2q-1 3 -1 6t4 6t8 5.5t8 4.5q1 1 2.5 1t3.5 1q1 0 1.5 0.5t1.5 0.5h1h1q1 1 2 1.5t2 0.5q5 1 10.5 -0.5 t9.5 -4.5l7.5 -7.5l7.5 -7.5q0 -1 0.5 -2t1.5 -1q0 -1 1 -2l2 -2t2 -2.5t2 -3.5q19 5 33 11.5t25 13.5q11 8 19 15.5t13 15.5q9 17 4.5 32t-21.5 28q-17 12 -39.5 12t-48.5 -12q-19 -10 -35 -22.5t-29 -28.5t-25 -32t-21 -33q-6 -8 -10.5 -15.5t-8.5 -15.5q-4 -7 -7.5 -14.5 t-7.5 -14.5q-6 -9 -9.5 -16t-5.5 -13q-2 -4 -3.5 -7.5t-2.5 -6.5q-1 -2 -1.5 -3.5t-1.5 -2.5q-4 -7 -8.5 -10.5t-10.5 -5.5q-5 -1 -17 -2t-31 -1h-2v0z" />
<glyph unicode="l" horiz-adv-x="336" d="M-47 0q19 29 33.5 61t24.5 66q11 35 22.5 69.5t22.5 70.5l2 8l2 8q1 1 1 2t1 3t1.5 5t1.5 5q2 8 4.5 16t5.5 16q2 6 3.5 12t3.5 12q3 12 6.5 24t7.5 24q5 18 11 35.5t13 34.5q2 9 7 21t10 26q6 14 13.5 28.5t16.5 29.5q15 28 35.5 53t45.5 47q25 23 54.5 30.5t63.5 1.5 q15 -3 26.5 -9.5t18.5 -17.5q8 -10 11 -21t1 -23q-1 -14 -6 -27.5t-15 -25.5t-21.5 -23t-23.5 -21q-1 -1 -4 -3.5t-8 -5.5q-5 -4 -10.5 -7.5t-11.5 -6.5q-1 -1 -2 -1.5t-1 -1.5q-1 -1 -2 -1.5t-2 -0.5q-1 -1 -2 -1.5t-2 -0.5q-1 -1 -2 -1.5t-2 -0.5q-7 -4 -13.5 -7.5 t-12.5 -5.5q-7 -3 -11.5 -3t-7.5 1q-1 0 -1.5 0.5t0.5 1.5q0 1 1 2t3 2v0l1 1h0.5h0.5l0.5 0.5t1.5 0.5l0.5 0.5l0.5 0.5q1 0 2 0.5t2 1.5l1.5 1.5t1.5 0.5l6 4l6 4q2 2 5 4l6 4q5 5 10.5 9.5t9.5 9.5q8 9 15.5 19t13.5 20q5 11 8 22t4 23v2.5v2.5q-1 2 -1 3.5v3.5t-0.5 3.5 t-1.5 3.5q-1 1 -1.5 3t-0.5 3q-1 7 -5 13t-9 12q-4 6 -9.5 9.5t-13.5 4.5h-2h-1v0v1h-1v0q-12 0 -23.5 -6t-22.5 -20q-11 -13 -21 -27.5t-18 -31.5q-7 -13 -13 -25.5t-11 -24.5q-4 -12 -7 -19.5t-4 -11.5q-3 -9 -5.5 -17.5t-4.5 -16.5q-1 -4 -2 -8.5t-2 -8.5q-1 -5 -2 -9 l-2 -8q-13 -48 -26.5 -94.5t-28.5 -91.5t-35.5 -90t-46.5 -89l-4 -6t-3 -5l-4 -6l-4 -6l-4 -6t-3 -5l-4 -6l-4 -6l149 1q12 -1 22.5 -0.5t19.5 1.5q10 2 18.5 4t16.5 6q4 2 8.5 4t9.5 5q5 2 9.5 5l10.5 7q5 4 8.5 4.5t6.5 -1.5q2 -2 1 -5t-5 -8q-14 -14 -30.5 -26t-35.5 -22 t-39.5 -15.5t-43.5 -6.5q-6 0 -11.5 -0.5t-11.5 -1.5q-6 0 -11.5 -0.5t-11.5 -0.5h-11.5t-11.5 -1h-11.5h-11.5q-13 1 -24 1.5t-21 1.5q-11 1 -22.5 1.5t-22.5 0.5h-2v0z" />
<glyph unicode="m" horiz-adv-x="701" d="M-43 0q12 21 20.5 41t16.5 38q6 18 12.5 35.5t11.5 34.5q6 20 10.5 40.5t8.5 41.5q3 21 4.5 46t1.5 53q4 -3 7.5 -5.5t7.5 -4.5q2 -1 3.5 -2.5t3.5 -2.5q2 -2 3.5 -3t3.5 -2q11 -10 18.5 -21.5t10.5 -23.5t4 -26t1 -31l4.5 4.5t6.5 4.5q3 2 6 4.5t5 5.5q14 11 28 20.5 t29 18.5t31.5 14.5t35.5 7.5q23 2 39.5 -3.5t24.5 -17.5t13 -25.5t6 -28.5v-1.5v-0.5v-1.5v-1.5v-2v-2l1.5 1.5l1.5 1.5q1 0 1.5 0.5l1.5 1.5l0.5 0.5l1.5 1.5h0.5t0.5 1h0.5h0.5v0l1 1v0v0q5 4 9.5 8t9.5 8q5 3 10.5 7t10.5 8q9 8 20.5 14t24.5 11q4 2 7.5 3t7.5 3 q4 1 8.5 2.5t8.5 2.5q5 2 9.5 3t9.5 2t9.5 1.5t9.5 1.5h10t11 -1q5 0 10 -0.5t10 -1.5q10 -1 19 -5t16 -10q11 -10 16 -21.5t3 -25.5q-2 -13 -8 -26.5t-16 -27.5q-5 -8 -11.5 -16t-14.5 -16l-14.5 -14.5l-15.5 -15.5q-5 -4 -9.5 -8.5t-9.5 -8.5t-9.5 -8t-9.5 -8 q-9 -7 -16 -13.5t-12 -11.5h4h4h4h4h4h4h4h4q15 -1 29 -1t27 1q5 0 9.5 0.5t8.5 0.5q9 1 18.5 3t17.5 5q4 1 8.5 2.5t9.5 3.5t9.5 4.5t10.5 5.5l0.5 0.5l1.5 1.5h0.5t1.5 1q1 0 1.5 0.5t0.5 1.5q1 0 2 0.5t2 1.5q1 0 2 0.5l3 1.5h2h3q1 0 2 -0.5l3 -1.5q1 -1 0.5 -3.5 t-2.5 -4.5q-1 -1 -2 -2.5t-2 -2.5q-1 -2 -2 -3t-2 -3q-2 -1 -3 -2l-2 -2q-2 -1 -3 -2l-2 -2q-3 -3 -6 -5l-6 -4q-2 -1 -4 -2.5t-3 -2.5q-7 -4 -14 -8.5t-12 -7.5q-7 -4 -13.5 -6.5t-11.5 -4.5q-6 -2 -11.5 -3.5t-11.5 -3.5q-12 -3 -23.5 -4.5t-22.5 -1.5h-37h-39h-10.5h-9.5 h-5.5h-5.5h-5.5h-5.5q5 6 10.5 12t11.5 13l6 6t6 7q3 3 5.5 6.5t5.5 7.5l12 14l12 14t11.5 14.5t11.5 14.5q6 8 11 15t9 15q5 7 9 14.5t8 14.5q1 4 2.5 7.5t2.5 7.5q2 3 2.5 5.5t1.5 4.5q1 1 1.5 2.5t0.5 2.5q6 20 2 33.5t-19 20.5q-15 8 -33 6.5t-38 -11.5q-29 -14 -51 -32 t-37 -41q-15 -22 -27.5 -45t-23.5 -46q-2 -3 -3 -6l-2 -6q-1 -1 -2 -2.5t-1 -2.5l-1.5 -3t-0.5 -3q-4 -7 -6.5 -14t-4.5 -12q-1 -3 -2 -5t-1 -5q-1 -2 -2 -3.5t-2 -3.5q-4 -7 -8 -10.5t-9 -4.5q-6 -1 -18.5 -1.5t-32.5 -0.5h-2h-1v0v0h-1v0l59 154q19 48 17.5 74.5 t-24.5 32.5q-22 5 -50 -9.5t-61 -49.5q-11 -12 -19.5 -24t-16.5 -26q-4 -7 -7.5 -13.5t-7.5 -12.5q-4 -7 -7.5 -13.5t-6.5 -13.5q-1 -1 -1.5 -2.5t-1.5 -2.5l-1.5 -3t-0.5 -3q-1 -1 -1.5 -2.5t-1.5 -2.5l-1.5 -3t-0.5 -3q-2 -3 -3.5 -6t-2.5 -6q-1 -1 -1.5 -2.5t-1.5 -3.5 l-2 -4l-2 -4q-1 -3 -2 -5l-2 -4q-4 -6 -6 -10.5t-4 -8.5q-1 -2 -2 -3.5t-2 -3.5q-1 -1 -2 -2.5t-2 -2.5q-4 -4 -8 -7t-9 -3q-4 -1 -11.5 -1h-19.5h-2h-2h-2h-2h-2h-2h-1h-2h-2v0z" />
<glyph unicode="n" horiz-adv-x="488" d="M-43 0q11 20 19.5 38.5t16.5 35.5q6 17 11.5 34.5t11.5 33.5q1 5 2.5 10t2.5 10q4 14 8 29t7 31q4 20 6 43.5t3 49.5q23 -13 36 -26.5t16 -27.5t4 -32t-1 -39q1 1 2 1.5t2 1.5q0 1 1 1.5t2 1.5t2 1.5t2 1.5l2 2l2 2q10 9 21 18t24 18q12 9 25 16.5t27 13.5q4 2 7.5 3 t7.5 3q4 1 8.5 2.5t9.5 2.5q8 3 17 4.5t19 2.5q5 1 10 1h11q5 0 10 -0.5t10 -1.5q11 -2 20 -6t16 -10q11 -10 16 -21.5t3 -23.5q-1 -12 -6.5 -24.5t-13.5 -25.5q-3 -4 -6.5 -9t-7.5 -9q-4 -5 -8 -9.5t-8 -9.5q-9 -9 -18 -17.5t-18 -16.5q-7 -6 -13.5 -11.5t-12.5 -10.5 q-3 -2 -6.5 -4.5t-6.5 -5.5q-9 -7 -17.5 -12.5t-13.5 -10.5h10.5h10.5h4.5h5.5q2 -1 4.5 -1h5.5q17 -1 33 -1t31 1q15 0 30 3t30 8q4 2 7.5 3.5t7.5 2.5q4 2 8.5 4t8.5 5l0.5 0.5t1.5 0.5l0.5 0.5l0.5 0.5q1 0 2 1l2 2h0.5t1.5 1h0.5h0.5l1.5 0.5t2.5 1.5t2.5 1.5t2.5 0.5 q2 0 2.5 -0.5t1.5 -0.5q1 -1 1.5 -1t0.5 -1q2 -1 1.5 -3.5t-2.5 -4.5q-1 -1 -2 -2.5t-1 -2.5q-1 -2 -2 -3t-2 -3q-2 -1 -3 -2l-2 -2q-2 -1 -3 -2l-2 -2q-4 -3 -7 -5t-5 -4q-2 -1 -4 -2.5t-3 -2.5q-3 -2 -6 -3.5t-5 -3.5q-3 -1 -5.5 -2.5t-4.5 -3.5q-22 -12 -43.5 -18.5 t-44.5 -8.5h-46h-50h-8h-8h-4h-4h-7.5h-8.5h-4h-4q2 2 4 3.5t4 3.5q4 4 8 8.5t8 8.5l12 14t13 14l12 14t13 14q6 8 12 15.5t12 15.5q11 15 21.5 30.5t17.5 31.5q1 1 1 2t1 2l2 4l2 4q1 3 2 6.5t3 7.5q5 18 0.5 29.5t-18.5 17.5q-13 6 -29.5 6t-35.5 -5q-28 -9 -50 -23 t-38 -34q-16 -19 -30 -39.5t-25 -41.5q-1 -2 -2.5 -4t-3.5 -4q-1 -3 -2 -5l-2 -4l-2 -4l-2 -4q-1 -3 -2 -5l-2 -4q-1 -1 -1.5 -2t-1.5 -1q-1 -1 -1.5 -2t-0.5 -2q-1 -2 -1.5 -4t-2.5 -4q-4 -7 -7.5 -14t-5.5 -12q-1 -3 -2 -5l-2 -4t-2 -3.5t-2 -3.5q-4 -7 -9 -10.5t-11 -5.5 q-5 -1 -17 -1.5t-31 -0.5h-2v0z" />
<glyph unicode="o" horiz-adv-x="480" d="M-26 88q1 31 15.5 59.5t43.5 55.5q30 26 64 44.5t71 28.5q3 1 6 1.5t7 1.5q3 1 6 1.5t6 1.5t6 1.5t7 0.5q3 1 6 1.5t6 0.5h2.5h2.5h2.5h2.5h3.5t2.5 1h3.5h3.5q30 0 57 -5t52 -16q24 -11 37 -30.5t14 -47.5v-2v-2v-1.5v-0.5q-2 -33 -19 -63t-49 -58t-68 -44.5t-74 -20.5 h-2t-2 -1h-2h-2h-0.5h-1.5v0l-1 -1h-1h-2h-6.5t-6.5 -1h-6h-6h-6.5t-6.5 -1h-6h-6q-28 1 -54 6.5t-50 15.5q-22 11 -33.5 29.5t-13.5 43.5l-2 1v0zM286 43q11 15 20.5 31.5t16.5 32.5q7 17 9 34.5t-1 36.5q-4 23 -18.5 41t-37.5 31q-25 14 -51 16t-54 -7q-25 -8 -46.5 -21.5 t-38.5 -32.5t-26.5 -39.5t-11.5 -41.5v-5.5v-4.5v-4.5v-4.5q2 -19 10.5 -32t23.5 -19t33 -9t39 -3l133 1v0v0z" />
<glyph unicode="p" horiz-adv-x="492" d="M-122 -314q9 22 18.5 47t18.5 55q4 14 8.5 30t9.5 33q13 51 28 103t32 106q18 68 41 131.5t49 123.5t57.5 101.5t66.5 64.5q8 5 14 6t7 -4q2 -4 -0.5 -10.5t-10.5 -14.5q-16 -19 -30 -39t-25 -41q-10 -22 -18.5 -43.5t-16.5 -43.5q-3 -7 -5.5 -13.5t-4.5 -13.5 q-1 -4 -2.5 -8.5t-3.5 -9.5q-1 -2 -1.5 -4t-1.5 -4q-1 -4 -1.5 -7.5t-1.5 -6.5q-1 -1 -2 -3t-1 -3q-1 -2 -1.5 -3.5t-0.5 -3.5q13 13 27.5 25t30.5 22q17 11 35.5 17t39.5 8h5.5t4.5 1h4.5h5.5h5.5h4.5h4.5h5.5q17 -1 32 -4t30 -9t26.5 -14.5t18.5 -19.5q15 -25 13.5 -48.5 t-20.5 -45.5t-40 -40t-47 -33q-7 -4 -13.5 -8t-12.5 -7q-7 -3 -13 -6t-11 -6h2h2q0 -1 1 -1h2h2h2h2h2h4.5h4.5q3 -1 5.5 -1h5.5t6.5 -0.5t7.5 -0.5h3.5h3.5h14t14 1q6 1 13 2.5t14 2.5q6 2 11.5 3.5t9.5 3.5q3 2 6 3.5t6 2.5q1 1 3 2t3 2l2 2t3 2t3.5 2t2.5 2q1 0 2 0.5 t2 1.5q1 0 2 0.5t2 1.5q1 0 2 0.5t2 1.5l1 0.5t2 1.5v0l1 1h0.5h1.5h0.5h1.5h2t2 -1q1 0 2 -0.5t2 -1.5q2 -1 2 -2.5t-1 -3.5l-0.5 -0.5t-0.5 -1.5q-1 0 -1.5 -0.5t-0.5 -1.5v-0.5v-0.5l-1 -1v0q-4 -5 -8 -9.5t-9 -9.5q-3 -2 -5.5 -4.5t-5.5 -4.5t-5.5 -4t-5.5 -4 q-2 -1 -4 -2.5t-4 -3.5q-1 0 -2 -0.5t-2 -1.5q-3 -1 -5.5 -2.5t-4.5 -3.5q-13 -7 -28 -11t-32 -6q-11 -1 -22 -1.5t-22 -1.5h-11h-11h-6h-5h-6h-6h-5.5h-5.5q-3 1 -5.5 1h-5.5h-7.5h-6.5q-4 1 -7.5 1h-7.5h-14h-12h-7.5t-7.5 -1q-4 0 -7.5 -0.5t-7.5 -1.5h-0.5h-0.5h-0.5 h-0.5v0v0h-2.5h-2.5t-2.5 -0.5t-2.5 -0.5h-2.5t-2.5 -1h-2.5h-2.5h-1h-1q-1 0 -2 0.5t-2 1.5t-1.5 2t-0.5 2v1.5v0.5v0h1v0v0q2 2 5 4.5t7 5.5l9 4.5t10 3.5q3 2 6 2.5t5 1.5l6 2l6 2q2 1 5 1.5t7 1.5q2 0 3.5 0.5t3.5 1.5q2 0 3.5 0.5t3.5 1.5h2h2v0l1 1h0.5h1.5q3 1 6 1.5 t6 1.5q2 1 5 1.5t6 1.5t5.5 1.5t5.5 1.5t5.5 2t5.5 2q14 5 27.5 13.5t25.5 19.5q11 11 20.5 22.5t16.5 23.5q0 1 0.5 1.5t1.5 0.5q0 1 0.5 1.5l0.5 0.5v1.5t1 1.5l0.5 0.5t0.5 1.5q15 32 11.5 57.5t-26.5 43.5t-50 21t-58 -9q-3 -1 -6 -2.5l-5 -2.5q-3 -2 -6 -3t-6 -3 q-5 -4 -10.5 -7.5t-10.5 -8.5q-14 -12 -24.5 -25.5t-18.5 -28.5q-4 -7 -7.5 -15t-6.5 -15q-3 -8 -5.5 -15.5t-5.5 -15.5q0 -2 -0.5 -4t-1.5 -4q-1 -3 -1.5 -6.5t-2.5 -7.5q-1 -5 -2.5 -10.5t-2.5 -10.5v-0.5v-0.5q-1 -1 -1 -1.5v-0.5v-1.5v-0.5q-3 -8 -5.5 -16t-4.5 -16 l-2 -8l-2 -8t-2 -7.5t-2 -7.5l-2 -6t-1 -6q-1 -3 -2 -6.5t-2 -6.5l-2 -6t-2 -7q-1 -3 -2 -6.5t-2 -6.5q-7 -25 -14.5 -49.5t-13.5 -49.5q-8 -25 -18 -49t-22 -47q0 -2 -0.5 -3l-1.5 -3q0 -1 -1 -2.5t-2 -2.5l-1.5 -3l-1.5 -3q-1 -1 -1.5 -2.5t-1.5 -2.5q-5 -10 -10.5 -18 t-12.5 -14q-5 -6 -15.5 -8t-25.5 0l-2 -1v0z" />
<glyph unicode="q" horiz-adv-x="486" d="M281 86q-4 -3 -7 -5l-6 -4q-2 -2 -5 -4l-6 -4q-5 -3 -9.5 -6.5t-9.5 -6.5q-9 -7 -18.5 -13t-19.5 -12q-15 -9 -32 -16t-35 -12q-3 -1 -6.5 -1.5t-6.5 -0.5q-4 -1 -8 -1t-9 -1q-8 -2 -16.5 -2.5t-16.5 -1.5q-13 0 -24 0.5t-21 2.5q-10 1 -17.5 4.5t-12.5 9.5 q-8 8 -13 16.5t-7 18.5q-2 9 -2 19.5t2 20.5q1 5 3 10.5t4 11.5q2 5 4 10.5t5 10.5l4 8t4 7q2 6 5.5 12t8.5 11v0v1v0v0h0.5t0.5 1h0.5h0.5q19 22 42.5 40.5t53.5 34.5q29 15 60 24.5t65 13.5h6t6 1h6.5h7.5h14h14l14 -2l14 -2q6 -2 13 -4l14 -4q13 -4 23 -11.5t17 -18.5 q5 -9 7.5 -18t2.5 -18q0 -10 -1 -19.5t-3 -19.5q-2 -7 -4.5 -14.5t-5.5 -15.5q-2 -4 -3.5 -7.5t-3.5 -6.5q-2 -4 -3.5 -7.5t-3.5 -6.5l-2 -4t-1 -3q-1 -2 -2 -3.5t-2 -3.5l-2 -4t-1 -3q-1 -2 -2 -3.5t-2 -3.5q-3 -6 -5.5 -12t-5.5 -11l-6 -12l-6 -12q-7 -12 -13.5 -23 t-11.5 -21q-15 -26 -28.5 -52.5t-26.5 -53.5t-24 -54.5t-19 -55.5q-4 -11 -5 -22.5t-1 -23.5t1 -24t4 -24l-23 -1q-5 11 -9 21t-7 19q-4 10 -5.5 19t-1.5 18q-2 13 -2 25.5t2 25.5t5.5 27t9.5 28q5 16 12 32t14 31q8 16 15.5 31.5t15.5 30.5v0.5t1 0.5v1.5v0.5l0.5 0.5 l0.5 0.5q0 1 0.5 1h0.5q3 6 6 11t6 11q3 5 5.5 11t5.5 12l6 12l6 12q2 6 5 12l6 12v1v0zM96 200q-1 -1 -2.5 -3t-3.5 -3q-1 -2 -2.5 -3.5t-2.5 -3.5l-6 -8t-6 -9q-2 -3 -4 -7t-4 -7l-2 -4l-2 -4q-2 -3 -3.5 -6t-3.5 -5l-2 -6l-2 -6q-5 -10 -7.5 -20.5t-2.5 -20.5t3 -17.5 t10 -12.5q5 -4 11 -6t13 -4q7 -1 14.5 -2t14.5 -1h8h8q2 0 4 0.5t4 0.5h5.5t4.5 1q2 0 4.5 0.5t5.5 1.5q16 3 31.5 8t30.5 12t29 15t26 17q1 1 2 1.5t2 1.5t2 1.5t2 1.5l2 2l2 2l2 2l2 2q7 8 13.5 16t13.5 17q6 9 11 18.5t9 19.5q2 9 3.5 18.5t-0.5 19.5q-1 9 -5 17.5 t-12 15.5q-1 1 -2.5 2t-3.5 2q-4 3 -8.5 5t-10.5 3q-4 1 -8 1.5t-7 0.5q-4 1 -8 1h-8h-4h-3q-2 -1 -4 -1h-4h-4h-3q-2 -1 -4 -1h-4q-21 -3 -39.5 -9t-35.5 -15t-32 -19.5t-27 -23.5v1v0z" />
<glyph unicode="r" horiz-adv-x="380" d="M30 235q-13 -1 -20.5 1.5t-9.5 7.5q-4 5 -5 11t-1 13q0 2 0.5 3.5t1.5 3.5q0 1 0.5 3t1.5 3l1.5 3t0.5 3q0 1 0.5 2.5t0.5 2.5q3 3 6.5 6t7.5 5t8.5 3.5t9.5 2.5q7 0 13.5 -1t13.5 -4q5 -3 8.5 -8t4.5 -13l217 1q-3 -3 -5.5 -5t-4.5 -4q-1 -1 -2.5 -2t-3.5 -1l-2 -2 l-2 -2q-17 -12 -32.5 -24.5t-30.5 -26.5q-15 -13 -26 -28.5t-19 -32.5q0 -1 -0.5 -1.5l-0.5 -0.5q-1 -1 -1 -1.5v-1.5q-1 -1 -2 -2.5t-1 -3.5q-1 -4 -2.5 -9.5t-2.5 -10.5t-2.5 -10.5t-1.5 -10.5q-1 -10 -0.5 -19.5t2.5 -17.5q2 -9 7.5 -14t14.5 -7q2 0 2.5 -0.5l1.5 -1.5 h1.5h0.5h2h2h2h2q4 0 7 -0.5t7 -0.5q7 0 14 0.5t14 2.5q11 3 20.5 6t18.5 7q11 4 19 7.5t15 6.5t10.5 2.5t3.5 -5.5q0 -2 -1 -4t-3 -4l-2 -2l-2 -2l-2 -2l-2 -2t-2 -1.5t-1 -1.5q-1 -1 -2 -1.5t-2 -1.5t-2 -1.5t-2 -1.5t-2 -1.5t-2 -1.5q-2 -1 -4 -2.5t-4 -3.5q-1 0 -2 -0.5 t-2 -1.5q-4 -2 -6 -3.5t-4 -3.5q-14 -10 -29 -17t-31 -11q-4 -1 -8.5 -2t-8.5 -2q-13 -2 -26 -2t-27 2q-13 2 -23 7t-16 14q-5 9 -8.5 19t-3.5 20v10.5v10.5t1 10t2 9q4 18 12.5 34t21.5 31q14 14 28.5 28t29.5 27l4.5 4.5t5.5 4.5q2 2 5 4.5t6 5.5l-133 1q-1 -3 -3.5 -7.5 t-6.5 -11.5t-8 -13.5t-9 -14.5q-1 -2 -2 -3.5t-2 -3.5q-1 -1 -1 -1.5t-1 -1.5t-2 -2.5t-2 -2.5q-1 -2 -2 -3l-2 -2q-5 -7 -10 -12t-9 -10q-3 -3 -5 -4t-3 -2q-1 0 -2.5 0.5t-2.5 1.5t-1 2.5v2.5q0 2 0.5 4t1.5 4q1 0 2 0.5t1 1.5v0.5v1.5q1 0 1 0.5v1.5v1.5v1.5l0.5 0.5 t0.5 1.5q1 1 2 1.5t2 1.5q5 8 8.5 16t7.5 16t6 16t3 17v1v0z" />
<glyph unicode="s" horiz-adv-x="342" d="M86 220q-3 -3 -6.5 -7t-8.5 -9l-6 -6l-5 -5l-6 -6l-6 -6l-1.5 -1.5l-0.5 -0.5v-0.5v-0.5l-1 -1v0q-7 -7 -14 -13.5t-13 -11.5q-6 -6 -10 -8.5t-6 -2.5q-1 0 -1.5 1t-0.5 2v3.5v3.5v0.5v1.5v0.5v1.5v1.5v1.5v0l1 1v0.5v0.5q2 2 3.5 4.5t3.5 5.5q1 2 3 4.5t4 4.5t4 4.5 t4 5.5q2 2 4 4.5t4 5.5l2 2t2 3q0 1 1 2l2 2l2 2t2 3q1 1 2 2.5t2 2.5q3 4 7 9t8 11t9 12t12 12q10 11 21 20.5t24 18.5q7 5 13.5 8t13.5 5q6 2 12.5 2.5t13.5 -0.5q1 0 2 -0.5t2 -0.5q1 -1 2 -1.5t2 -0.5t2.5 -0.5t2.5 -0.5q1 -1 2.5 -1.5t2.5 -0.5q2 -1 4 -3.5t3 -4.5 t1.5 -4.5t0.5 -4.5q-1 -3 -1.5 -5t-2.5 -4q0 -1 -0.5 -1.5l-1.5 -1.5t-1.5 -2t-2.5 -2q-1 -1 -4 -2.5t-8 -3.5t-9.5 -4t-9.5 -4l-3 -1.5t-2 -0.5l-0.5 -0.5t-1.5 -0.5h-1.5h-0.5q-3 -1 -5.5 -2.5t-4.5 -2.5q-1 -1 -2 -1.5l-1 -0.5q-1 -1 -2 -1.5t-2 -0.5q2 -7 5 -13.5 t8 -11.5q5 -6 10.5 -11t11.5 -10q3 -3 5.5 -6t5.5 -5q3 -3 5.5 -6t5.5 -6q6 -6 9 -12t5 -14q3 -18 -1 -33t-15 -29q-11 -13 -26 -24.5t-32 -20.5h2.5h1.5h1.5h0.5h2h2h2h2h25.5t23.5 1t22.5 4t22.5 9h1h1q1 1 2 1.5t2 1.5q2 1 3.5 2t2.5 2l1 1t3 2q1 0 2 0.5t2 1.5l1 0.5 t2 1.5q1 0 1.5 0.5l1.5 1.5l0.5 0.5t1.5 0.5t1.5 0.5l1.5 1.5l0.5 0.5t1.5 0.5t1.5 0.5t1.5 0.5q2 0 3.5 0.5t2.5 0.5h4.5t4.5 -1t-0.5 -5.5t-8.5 -10.5q-5 -6 -13.5 -12.5t-18.5 -13.5q-7 -5 -15 -9.5t-17 -9.5q-3 -1 -6 -2.5t-6 -3.5q-6 -2 -11.5 -4.5t-12.5 -4.5 t-13 -3.5t-12 -2.5q-3 -1 -5.5 -1.5t-5.5 -0.5h-5.5h-5.5h-176q5 6 8.5 12t5.5 10l2 4t1 4q1 1 2 3t2 3q4 5 7.5 7.5t7.5 3.5q1 1 9.5 1.5t21.5 0.5h2h2h1h2h2h2h2h2h2h3h3.5h2.5h4.5h4.5h4.5h5.5h6.5h6.5t6.5 0.5t6.5 1.5q5 1 8.5 2.5t7.5 3.5q2 1 4 2.5t4 2.5 q18 14 27.5 25t11.5 20q2 8 -1 16t-9 15q-2 2 -4 3.5t-3 3.5q-2 1 -4 3t-4 3q-2 2 -4 3.5t-4 3.5q-3 2 -5 4l-4 4l-3.5 3.5l-3.5 3.5q-4 3 -7.5 7.5t-6.5 8.5q-5 6 -9 13.5t-7 16.5v1v0z" />
<glyph unicode="t" horiz-adv-x="318" d="M-27 0q9 20 16.5 40t11.5 41q3 11 6.5 21.5t6.5 20.5q3 11 6.5 21.5t6.5 20.5l2 6l2 6q1 2 2 5l2 6q1 2 1 4t1 4l2 8l2 8q2 5 3.5 9.5t2.5 8.5q1 5 2.5 9.5t2.5 8.5h-5.5h-4.5h-2.5h-2.5q-2 -1 -3 -1h-2q-9 -1 -15 -0.5t-10 1.5t-5.5 6t-0.5 14q2 8 5 12.5t7 5.5t10.5 1 h14.5h2.5h2.5q1 -1 2.5 -1h2.5h5h7q9 26 19 50t21 48q11 23 24 46.5t29 46.5l2 2t2 3q1 1 2 2.5t2 2.5l2 2t2 3q0 1 1 2.5t2 2.5q14 0 21.5 -0.5t8.5 -2.5q2 -1 -0.5 -7t-7.5 -15l-14 -30t-13 -30q-5 -16 -9.5 -31.5t-8.5 -31.5q-1 -3 -2 -6.5t-1 -6.5q-1 -4 -2 -7l-2 -6 q0 -2 -0.5 -4t-1.5 -4v-2t-1 -2q0 -4 -1 -7l-2 -6v-1.5v-1.5q-1 -1 -1 -1.5v-1.5v-1.5v-1.5q-1 -1 -1 -1.5v-1.5h5.5h7.5h5.5t5.5 1h6h6h6.5h7.5h4t4 1h3h4h11.5h10.5q6 -1 11 -1h10q10 0 16.5 -0.5t8.5 -2.5q2 -1 2.5 -1.5t0.5 -2.5v-2v-2v-1.5v-0.5q-1 -1 -1 -1.5v-0.5 v-1.5v-0.5l-0.5 -0.5l-0.5 -0.5q0 -1 -0.5 -1h-0.5v0v0v-1v0v-1.5v-2.5v-2v-2t-0.5 -2l-0.5 -1q-1 -1 -1 -2v-2l-2 -2t-3 -1l-12 -2t-12 -1q-3 -1 -6 -1h-6h-9.5h-9.5t-9.5 0.5t-9.5 0.5h-5.5h-4.5h-2.5t-2.5 1h-3h-2h-10.5h-10.5h-6t-5 1h-5.5h-4.5q-1 -4 -2 -7l-2 -6 q0 -1 -0.5 -2t-0.5 -2q-1 -2 -1.5 -4t-0.5 -4q-2 -7 -4 -13.5t-4 -12.5l-4 -12t-4 -11q-4 -11 -8 -21.5t-9 -21.5q-2 -3 -4 -6.5t-4 -7.5q-4 -6 -7.5 -12.5t-8.5 -13.5q-7 -10 -15 -21t-18 -22h4.5h4.5q2 -1 3 -1h3h2.5h2.5h6h6h5h6q2 0 4.5 -0.5t4.5 -0.5q4 0 8.5 -0.5 t9.5 -0.5h14.5h14.5q15 0 30 1t30 4q15 2 27 7t22 12l1 1t3 2q2 2 4 3.5t4 2.5l0.5 0.5t1.5 0.5l0.5 0.5l0.5 0.5q1 0 2 0.5t2 1.5q2 1 3.5 1.5t3.5 1.5q1 1 2.5 1.5t3.5 0.5q3 0 5 -1.5t2 -4.5q0 -4 -2.5 -8.5t-7.5 -9.5q-3 -2 -5.5 -4.5t-5.5 -4.5t-5.5 -4t-5.5 -4 q-2 -1 -4 -2.5t-4 -3.5q-1 0 -2 -0.5t-2 -1.5q-4 -2 -6.5 -3.5t-4.5 -3.5q-17 -10 -35 -17t-36 -10l-12 -2t-12 -1q-25 -1 -51 -1h-52h-2.5h-2.5h-8h-6h-6h-6h-5h-6h-2v0z" />
<glyph unicode="u" horiz-adv-x="497" d="M232 82l-7.5 -7.5t-7.5 -6.5l-4 -4t-4 -3l-4 -4l-4 -4q-15 -13 -31 -24t-35 -21q-19 -8 -39 -10t-41 2t-35 12.5t-20 21.5q-7 14 -10.5 28t-3.5 30q1 5 2 10.5t2 11.5q1 4 2 7.5t2 6.5q1 2 1 3.5t1 3.5q1 3 2 5.5t2 5.5q0 2 1 4.5t2 5.5q2 5 5 10.5t7 10.5v1.5t1 1.5 q0 1 0.5 2t1.5 2q8 14 13.5 27.5t9.5 27.5t3 28.5t-9 30.5h-0.5h-0.5l-0.5 0.5t-0.5 1.5q-1 2 -1.5 3.5t-1.5 2.5l-0.5 0.5t-0.5 1.5l-0.5 0.5l-0.5 0.5v0v1q-1 0 -1 0.5v1.5q-1 3 -1.5 6t0.5 5q0 2 3.5 2t10.5 -3q5 -3 9.5 -7t8.5 -9t7.5 -10t7.5 -10q1 -1 2 -2.5t2 -3.5 q0 -1 1 -2.5t2 -2.5q1 -3 2 -5.5t3 -4.5q1 -2 1.5 -4t0.5 -4q1 -4 2.5 -7.5t1.5 -7.5q1 -6 1 -11.5v-10.5l-2 -12t-3 -11q-1 -3 -1.5 -6t-1.5 -5q-1 -3 -1.5 -6t-1.5 -6l-2 -4t-2 -5q-1 -1 -1 -2t-1 -3t-2 -4.5t-2 -4.5t-2 -4.5t-2 -4.5q-1 -4 -2.5 -7.5t-2.5 -6.5t-2.5 -6 t-1.5 -6q-4 -10 -5 -19t-1 -18t3 -15t10 -9q5 -4 11.5 -6t13.5 -3q8 -1 15.5 -1t14.5 1q5 0 9 1t9 2q4 1 8.5 2.5t8.5 2.5q8 3 15 6t13 7q34 20 55 45t30 53q10 29 15.5 59t7.5 62l51 1q1 -22 1 -40.5t-1 -33.5q-1 -16 -4 -31t-7 -29q-4 -12 -8.5 -24.5t-10.5 -25.5 q-5 -13 -12 -27t-15 -29h0.5h1.5h1h2q20 0 38.5 1t36.5 2q6 1 11.5 2t10.5 2q11 4 22.5 9.5t21.5 12.5q7 5 11.5 5.5t5.5 -1.5q2 -3 0.5 -6.5t-6.5 -8.5l-2.5 -2.5l-3.5 -3.5l-2 -2l-2 -2l-1 -1l-1 -1q-11 -10 -23.5 -19t-25.5 -17t-27 -12.5t-29 -6.5q-22 -3 -37 -0.5 t-23 12.5q-10 10 -15.5 21.5t-9.5 24.5q-1 2 -2 3t-1 3q-1 1 -1 2.5v2.5t-0.5 2t-0.5 2q-1 2 -1.5 4t-0.5 4h-1v0v0.5v1.5v1v0z" />
<glyph unicode="v" horiz-adv-x="470" d="M288 249q-2 0 -3.5 -0.5t-2.5 -0.5q-2 -1 -3.5 -1h-3.5h-3.5h-3.5q-2 -1 -3.5 -1h-3.5h-2h-2h-2h-2h-1h-1h-1v0q-1 -1 -2 -1h-1h-14h-13q-7 0 -11.5 1t-8.5 3q-2 1 -3 2t-1 2v1.5v1.5v0.5v1.5v0l1 1v0.5v0.5v0.5t1 1.5v0v1v0v0h0.5t0.5 1l0.5 0.5l0.5 0.5v0.5t1 1.5v0.5 v1.5v1.5t1 1.5l2 4t2 3q0 1 1 2l1 1q2 2 6.5 3t10.5 1l228 1q5 -1 8 -2.5t4 -4.5v-2.5v-2.5l-1.5 -3l-1.5 -3v-1.5v-0.5q-1 -1 -1 -1.5v-0.5q-1 -1 -1 -1.5v-1.5l-2 -2t-1 -2q-1 -1 -1.5 -2l-0.5 -1q-2 -4 -6 -6t-11 -3t-14.5 -1h-15.5h-5h-6t-5.5 0.5t-4.5 1.5h-7h-5h-2.5 t-2.5 1h-2h-2q-1 -32 -7.5 -59t-18.5 -48q-13 -22 -31.5 -42t-41.5 -40q-3 -2 -6 -4.5t-6 -4.5q-3 -3 -6.5 -5.5t-6.5 -4.5t-6.5 -4.5t-6.5 -4.5q-3 -3 -6.5 -5.5t-6.5 -4.5q-2 -1 -4.5 -2.5t-4.5 -3.5q-1 -1 -2 -1.5l-1 -0.5q-1 -1 -2 -1.5t-2 -1.5l-4 -2l-4 -2 q-4 -1 -8 -2.5t-8 -2.5q-6 -1 -12 -1.5t-14 -1.5h-2.5t-3.5 -1h-2.5h-3.5h-2.5h-2.5h-2.5h-2.5h-5.5h-5.5h-5.5h-5.5q-6 1 -10.5 1.5t-9.5 1.5q-7 2 -14.5 7t-14.5 12q-6 5 -10.5 10.5t-8.5 11.5q-2 1 -3 3t-3 4q-4 5 -7.5 10t-6.5 10q-4 5 -6.5 9t-4.5 8q-4 9 -6.5 19 t-4.5 20t-2.5 20.5t-0.5 20.5q1 4 1.5 8t0.5 8q0 2 0.5 4t1.5 5q1 2 1.5 4t0.5 4q1 4 1 8v8q0 2 1 4t1 5l2 4l2 4l2 6t2 7q2 3 3.5 6t3.5 6q4 6 8.5 12t10.5 10q4 3 9 5.5t12 3.5q6 1 12.5 1h13.5h1.5h1.5h1h1q1 -1 2 -1h2h1.5h1.5h2.5h3.5h2h2q2 -1 3.5 -1h2.5h3h3h2.5h2.5 q-16 -21 -31 -43t-29 -45q-13 -23 -16.5 -47t0.5 -50q3 -22 9.5 -35.5t17.5 -16.5t28.5 -4.5t41.5 -0.5h7.5h7.5h8h9q17 -1 31.5 1.5t24.5 7.5q5 3 9.5 6t9.5 7q4 4 9 8.5t9 9.5q3 3 6 6.5t7 7.5q1 1 2 2.5t2 2.5l4 6l4 6q5 7 9 14.5t6 14.5q2 4 3 8l2 8q1 3 2 7t1 8 q0 10 -2 19.5t-4 18.5q-4 9 -9 18t-13 17v1v0z" />
<glyph unicode="w" horiz-adv-x="618" d="M250 139q-5 -6 -11 -13t-14 -16q-4 -4 -8.5 -9t-8.5 -10q-5 -4 -9 -9t-9 -10q-4 -4 -8 -7.5t-8 -6.5q-4 -4 -8 -7.5t-8 -6.5q-8 -7 -16.5 -13t-16.5 -11q-17 -10 -33.5 -15t-31.5 -6q-16 0 -28.5 9t-21.5 30q-3 6 -5 12.5t-3 13.5q-1 4 -1.5 8.5t-0.5 8.5v4.5v4.5 q-1 11 -0.5 21t0.5 21q1 10 3.5 20.5t6.5 20.5q8 21 19 40.5t26 38.5q4 6 7.5 10.5t7.5 7.5q2 3 5 6t7 5q4 3 8.5 4.5t10.5 1.5h12.5h17.5q3 -1 6.5 -1h7.5h8.5h9.5q-16 -14 -30 -28.5t-26 -29.5q-13 -15 -22.5 -31t-16.5 -33v-1.5v-0.5q-1 -1 -1 -1.5v-0.5v-0.5v-0.5 q-1 -1 -1 -1.5v-0.5l-2 -6t-1 -5q-1 -1 -1 -2v-2q-1 -2 -1 -4t-1 -4l-2 -6t-1 -5q-1 -3 -1 -6v-6q-1 -7 -1 -13.5t1 -13.5q0 -7 2.5 -13t6.5 -12q2 -3 5 -5t7 -4q4 -1 8.5 -2t10.5 -1q2 0 3 -0.5t3 -0.5h2.5h2.5h3t3 1h2.5h2.5q6 0 11 1.5t9 3.5q2 1 4 2.5t5 2.5q2 2 4 3.5 t4 3.5v0.5t1 1.5l0.5 0.5l1.5 1.5l6.5 6.5l7.5 7.5l4 4l4 4t4 4.5t4 4.5l5.5 5.5l5.5 5.5t5.5 6t5.5 6q5 6 8.5 12.5t7.5 13.5q2 4 3.5 7.5t2.5 6.5q1 2 1.5 4t1.5 4q2 5 2 10.5t-1 10.5q-4 18 -4 34.5t4 30.5t18 25.5t37 20.5q-2 -8 -3.5 -15.5t-1.5 -13.5q-1 -6 -1 -12 t1 -12q0 -3 0.5 -6t0.5 -5l2 -6l2 -6q2 -6 4 -12.5t6 -14.5q5 -16 10 -30t9 -27t3 -25.5t-5 -24.5q-2 -6 -5.5 -11.5t-7.5 -10.5q-2 -3 -4.5 -6t-4.5 -5t-3 -3.5t-3 -2.5q-1 -2 -2.5 -3t-2.5 -3h2h2h1h2h4.5h5.5q27 0 51 2t43 6q19 5 35 20t29 41q1 1 1 2.5t1 2.5l2 6l2 6 q0 2 0.5 4t1.5 5q0 2 0.5 4t1.5 4q2 13 1 25.5t-5 25.5q-4 12 -10.5 24t-15.5 23h-5h-5q-2 -1 -4 -1h-4h-7.5h-6.5q-13 -1 -21.5 -1.5t-14.5 0.5q-5 1 -7 5.5t2 13.5v0.5t1 1.5v0.5v1.5t0.5 1.5l1.5 1.5q1 3 2.5 6t3.5 4q2 2 6.5 3t9.5 1l208 1q5 -1 7.5 -2.5t3.5 -4.5v-2.5 v-2.5l-1.5 -3l-1.5 -3v-1.5v-0.5q-1 -1 -1 -1.5v-0.5q-1 -1 -1 -1.5v-1.5l-0.5 -0.5t-0.5 -1.5q-1 0 -1.5 -0.5t-0.5 -1.5q-1 -1 -1.5 -2l-0.5 -1q-2 -4 -6 -6t-9 -3q-7 -1 -13.5 -1h-14.5h-2.5h-2.5h-2.5h-2.5h-2.5t-2.5 1q-1 0 -2.5 0.5t-2.5 0.5h-4h-4h-2h-2h-2.5t-2.5 1 h-1.5h-1.5q-1 -26 -5.5 -51.5t-12.5 -51.5q-7 -25 -23.5 -47t-39.5 -42q-22 -19 -45 -31t-47 -18q-25 -5 -52.5 -7t-57.5 -1q5 7 9.5 14.5t8.5 14.5q2 4 4 7.5t3 7.5q2 3 3.5 6.5t2.5 7.5q2 9 2.5 18.5t-1.5 19.5q-1 9 -6 20t-11 23v1v0z" />
<glyph unicode="x" horiz-adv-x="462" d="M130 151q-6 17 -13.5 32.5t-15.5 31.5q-10 15 -23 28.5t-31 24.5q-1 0 -2.5 1t-3.5 2q-1 0 -2 0.5t-2 1.5t-2 1.5t-2 1.5l-4 2l-4 2q-1 1 -2 1.5t-2 1.5q-1 0 -1.5 0.5l-1.5 1.5q-1 2 -1.5 3.5t-0.5 2.5t0.5 1.5l1.5 1.5l1.5 0.5t3.5 1.5q4 2 8 3t9 1h8.5h8.5q6 -1 12 -3 l12 -4q2 -1 3.5 -1.5t3.5 -1.5q4 -1 7.5 -2.5t6.5 -2.5q0 -1 1 -1.5t2 -0.5v0h1q0 -1 0.5 -1h0.5q14 -7 25 -17t20 -21q8 -12 15.5 -24t13.5 -24v-2v-2t0.5 -1.5l1.5 -1.5l99 75q11 8 23.5 13t27.5 6q14 2 28.5 2.5t29.5 0.5h0.5h1.5h0.5h1.5h0.5h0.5h2h2h2h3q4 0 5.5 -2 t1.5 -5q-1 -4 -3 -7.5t-4 -7.5q-1 -1 -2 -2.5t-2 -3.5q0 -1 -0.5 -1.5t-1.5 -0.5l-1.5 -1.5l-0.5 -0.5q-1 -1 -2 -2.5t-1 -2.5q-1 -1 -2 -1.5t-2 -1.5q-2 -1 -3 -2.5t-2 -1.5q-4 -2 -9.5 -3.5t-13.5 -1.5q-4 0 -8 -0.5t-7 -0.5h-8h-8h-0.5h-1.5h-1.5h-0.5h-1.5h-2.5h-5.5 h-5.5h-5.5h-5.5h-5.5h-4.5q-2 -1 -4 -1h-4q-9 -1 -17 -5.5t-16 -10.5q-7 -7 -14.5 -13.5t-13.5 -14.5q-4 -4 -8 -8.5t-7 -9.5q-4 -4 -6.5 -8t-4.5 -7q2 -9 3.5 -18.5t2.5 -19.5q1 -4 1.5 -8.5t1.5 -9.5q1 -7 1.5 -14t1.5 -14q0 -7 0.5 -14t1.5 -14q4 0 7.5 -0.5t6.5 -0.5 q3 -1 6.5 -1h7.5h7.5h7.5h6.5h7.5h14h14q8 0 15.5 1t14.5 2q3 0 6 0.5t7 1.5q3 0 6 1.5t6 2.5q3 2 5.5 3.5t5.5 2.5q3 2 5.5 3.5t5.5 3.5h0.5t1.5 1q1 0 1.5 0.5l0.5 0.5q1 1 2 1.5l3 1.5q8 5 12.5 5t6.5 -3t0.5 -7t-5.5 -9h-0.5h-0.5q0 -1 -0.5 -1h-0.5v0v0 q-7 -7 -15.5 -14t-17.5 -14q-5 -3 -9.5 -6.5t-9.5 -6.5t-9.5 -5.5t-9.5 -4.5q-7 -4 -15.5 -5t-18.5 -2q-4 0 -9 -0.5t-9 -0.5q-5 -1 -9.5 -1h-9.5h-2h-2q-1 1 -2 1h-2h-2h-1h-2h-2q-17 1 -30 6.5t-23 15.5q-9 11 -16.5 23.5t-13.5 25.5l-4 12l-4 12l-2 6t-2 5q-1 3 -2 5.5 t-2 5.5q-4 -3 -12 -8.5t-19 -13.5q-12 -9 -25.5 -18t-28.5 -18q-1 -1 -2.5 -2t-3.5 -2q-1 -1 -1.5 -1t-1.5 -1t-2 -1.5l-1 -0.5q-1 -1 -2 -1.5t-2 -1.5q-18 -11 -33 -20t-30 -17q-15 -7 -24 -9t-13 0q-1 0 -1 0.5v0.5q-1 1 -1 2t1 2q1 2 3 4l5 5q1 0 2 0.5t1 1.5q1 0 2 0.5 t2 1.5t2 1.5t2 1.5q1 0 2 0.5t2 1.5l4 2t3 2q2 0 4 1l4 2q4 2 5.5 3t2.5 2q19 13 38 26.5t38 28.5q19 14 37.5 29.5t35.5 31.5v1v0z" />
<glyph unicode="y" horiz-adv-x="437" d="M247 104l-8.5 -8.5t-8.5 -9.5q-3 -2 -5.5 -4t-4.5 -4q-2 -3 -4.5 -5t-5.5 -4q-17 -16 -36.5 -29.5t-42.5 -24.5q-22 -11 -45 -14t-48 1q-23 5 -35.5 14.5t-16.5 22.5q-4 14 -4 28t4 30q1 2 2 4.5t2 5.5q1 2 2 4.5t2 5.5q1 2 2 4.5t1 5.5q1 2 2 4.5t1 5.5q0 2 0.5 4t1.5 4 t2.5 4.5t2.5 4.5v0v1v0v0v0l1 1v0.5v0.5q6 11 11 20.5t9 18.5q5 9 9 18t5 18q2 9 3 18t0 19q-2 9 -6 19.5t-12 21.5v0v1h-1v0v0v1v0v0q-1 1 -1.5 2t-0.5 2v1t1 2q0 2 1.5 3t5.5 1q3 0 6 -1t7 -3q2 -2 5 -4.5t6 -4.5q1 -1 2 -2.5t3 -3.5l2 -2l2 -2q10 -11 16.5 -21.5 t10.5 -20.5t5 -19.5t0 -19.5q-1 -4 -2 -8.5t-2 -8.5q-1 -5 -2.5 -9t-3.5 -9q-4 -9 -7.5 -18t-7.5 -18l-2 -4t-1 -3l-2 -4l-2 -4q-2 -4 -3 -7.5t-2 -6.5q-7 -18 -9.5 -31.5t0.5 -22.5t18 -13.5t41 -3.5h6t6 1q6 0 12.5 1t11.5 2q8 2 16.5 5.5t15.5 9.5q11 8 21.5 17t20.5 19 q9 10 17 20.5t15 21.5q6 9 10 19.5t5 20.5q1 5 2 10.5t2 11.5q1 5 2 10.5t2 11.5v10v10v4.5t1 5.5v4.5v5.5v4v4v4.5v4.5l59 1v-12v-11q0 -3 -0.5 -5.5t-0.5 -4.5q0 -3 -0.5 -5.5t-0.5 -5.5q-1 -37 -7 -74.5t-14 -74.5q-9 -37 -20.5 -72.5t-26.5 -70.5l-2 -4l-2 -4 q0 -1 -0.5 -1.5l-0.5 -0.5q-1 -2 -1.5 -3.5t-0.5 -2.5q-19 -47 -42 -88.5t-49 -78.5q-27 -38 -74 -59.5t-112 -27.5h-4.5t-5.5 -1h-5h-6h-6h-6q-3 1 -6.5 1h-6.5q-7 1 -13.5 2.5t-12.5 2.5q-3 1 -6.5 2t-6.5 2q-9 4 -15.5 9t-10.5 13v2t-1 1v2v2v2v1v2v2q0 2 1.5 4.5 t2.5 5.5q0 1 0.5 2.5t1.5 2.5q3 4 5.5 7.5t4.5 6.5q1 1 2 1.5l1 0.5l1.5 1.5t0.5 1.5t0.5 1.5t1.5 0.5l1.5 1.5l0.5 0.5l5.5 5.5l4.5 4.5l2.5 2.5l2.5 2.5l3 3t2 3q5 4 10 8.5t10 9.5q5 4 10.5 8.5t10.5 7.5v0v0l1 1v0h1.5h0.5v1v0h0.5h0.5l1 1v0h0.5h1.5q1 1 1.5 1h0.5h2.5 h2.5t1.5 -0.5t0.5 -1.5q2 -3 0.5 -7t-5.5 -8q-4 -5 -8 -9.5t-8 -8.5q-1 -2 -2.5 -3.5t-3.5 -2.5l-1.5 -1.5l-1.5 -1.5l-2 -2l-2 -2q0 -1 -1 -2l-2 -2q0 -1 -0.5 -2t-1.5 -2t-1.5 -2t-0.5 -2q-1 -2 -1.5 -4t-0.5 -4q0 -9 4.5 -15t15.5 -10q10 -4 21 -6.5t24 -3.5q2 0 4 -0.5 t3 -0.5q4 0 8 -0.5t8 -0.5h6t6 -1h5.5h4.5h2.5h1.5h0.5h1.5h1.5h0.5q9 0 16.5 2t13.5 5q5 3 10.5 8t9.5 12q8 11 15.5 23t14.5 24q3 6 6.5 12t6.5 12q3 7 6 13l6 12q16 32 30 64.5t25 65.5q11 32 21.5 65.5t19.5 67.5v1v0z" />
<glyph unicode="z" horiz-adv-x="407" d="M276 250q-17 -4 -33 -5.5t-31 -1.5h-31h-30h-34.5h-33.5q-16 -1 -32 -3t-31 -7q-13 -4 -18 -4t-3 6q1 5 6.5 11.5t17.5 13.5q10 5 21.5 10.5t26.5 9.5q14 5 30 7.5t34 3.5h8h8q4 -1 8 -1h8q8 -1 17 -1.5t18 -0.5q2 0 3.5 -0.5t3.5 -0.5q2 -1 3.5 -1h3.5h6.5h7.5 q11 -1 23 -1h24h11.5t11.5 1t11.5 2t11.5 2h0.5h1.5l0.5 0.5l0.5 0.5q1 0 2 0.5t2 0.5l1 0.5l1 0.5h1h2l0.5 0.5l1.5 1.5h6h5t3 -1.5t1 -4.5q0 -1 -3.5 -5t-11.5 -10q-7 -7 -15.5 -14t-16.5 -15q-9 -7 -16.5 -14t-13.5 -13q-7 -7 -11 -10.5t-6 -5.5l-4.5 -4.5t-4.5 -5.5 l-13.5 -13.5l-12.5 -12.5l-15.5 -15.5t-15.5 -14.5q-15 -13 -30 -25t-31 -23q-17 -10 -37.5 -20.5t-46.5 -19.5l184 1q1 -1 2 -1h3h3.5h2.5q11 0 21 1.5t20 2.5q10 2 19 5.5t16 8.5l1.5 0.5t2.5 1.5t2 1.5t2 1.5t2 1.5t2 1.5h0.5t1.5 1h0.5h0.5q2 0 2.5 0.5l1.5 1.5 q3 2 6 2.5t5 1.5q3 0 5 -0.5t3 -2.5v-2.5t-1 -2.5q0 -2 -1 -3t-2 -3l-2 -2l-2 -2q-2 -2 -3.5 -4t-4.5 -4q-1 0 -1.5 -0.5l-1.5 -1.5q-2 -1 -3.5 -2t-2.5 -2q-2 -1 -4.5 -2.5t-4.5 -3.5q-4 -3 -8.5 -6t-8.5 -5q-5 -3 -8 -4.5t-5 -3.5q-7 -4 -12 -7t-10 -5t-9.5 -3.5 t-9.5 -3.5q-4 -1 -7.5 -2t-6.5 -2q-4 0 -7.5 -0.5t-7.5 -0.5h-15.5h-19.5h-202q1 0 -0.5 0h-3.5h-2h-2t-2 -0.5t-2 -0.5h-2.5h-1.5h-0.5h-1.5t-1.5 -0.5l-0.5 -0.5h-3.5h-3.5h-3.5h-3.5q-4 0 -6.5 0.5t-4.5 1.5q-1 1 -1.5 2.5t-0.5 2.5v2t1 2l0.5 1t0.5 2l2 2t1 2h1v1 q1 0 1 1t1 1q1 1 2 1.5t2 1.5t2 1.5t2 1.5t2 1.5t1 1.5q1 0 2 0.5t2 1.5q2 1 3.5 1.5t3.5 1.5q11 5 20 9t15 7q8 3 14.5 5.5t13.5 4.5q1 0 2 0.5t2 1.5l1 0.5t2 1.5q1 0 1.5 0.5t1.5 0.5q2 1 3.5 1.5t2.5 1.5q7 3 14 7t14 9q8 5 17 12.5t20 17.5q2 2 4.5 4t5.5 5q2 2 4.5 4 t5.5 4q5 5 10 9.5t10 8.5q15 13 30 25.5t30 25.5t31 25.5t33 24.5v1v0z" />
<glyph unicode="{" horiz-adv-x="625" d="M516 740v-23q-61 -3 -96.5 -13.5t-44.5 -30.5q-10 -19 -15 -48.5t-5 -69.5v-4v-4v-4v-4q0 -52 -6 -90.5t-18 -64.5q-13 -25 -53 -44t-108 -31q69 -12 110 -31.5t52 -45.5q11 -27 17 -64t6 -84v-7.5v-6.5v-7.5v-7.5q-1 -42 4.5 -70t17.5 -44t47 -25t92 -11v-23 q-64 2 -109 10t-72 24q-28 16 -41 49.5t-13 83.5v109q0 40 -10 66t-29 39q-19 12 -53 20.5t-82 12.5v28q48 4 82 12t53 20t29 38.5t10 67.5v109q0 51 13.5 84.5t41.5 49.5q27 16 72 24.5t108 9.5v1v0z" />
<glyph unicode="|" horiz-adv-x="625" d="M285 764h55v-999h-55v999v0v0z" />
<glyph unicode="}" horiz-adv-x="625" d="M110 740q62 -1 106.5 -10t71.5 -25q28 -16 41.5 -49.5t13.5 -85.5v-107q0 -42 10 -68.5t29 -38.5t52.5 -20t82.5 -13v-26q-48 -4 -81.5 -13t-53.5 -21q-19 -13 -29 -39t-10 -67v-107q0 -51 -13.5 -84.5t-39.5 -49.5q-28 -16 -73 -24t-107 -9v21q60 3 95.5 13t45.5 28 q9 18 14 45.5t5 66.5v4.5v5.5v6v6q-1 52 4.5 91t18.5 64q13 26 53 44.5t109 30.5q-70 12 -111.5 31t-52.5 45t-16.5 63t-4.5 85v7.5v7.5v7v8q0 42 -6 71.5t-17 45.5q-12 17 -46.5 26t-90.5 10v24v0v0z" />
<glyph unicode="~" horiz-adv-x="1041" d="M933 361v-45q-24 -13 -47 -24.5t-44 -19.5q-22 -8 -42 -14t-40 -9q-14 -2 -27.5 -3.5t-27.5 -1.5t-27.5 1t-27.5 3q-28 3 -61 10.5t-68 18.5q-38 11 -71 18.5t-59 11.5q-27 3 -53 3t-51 -4q-13 -2 -26.5 -6t-27.5 -8q-7 -3 -13.5 -5.5t-13.5 -5.5q-22 -9 -46 -21l-52 -26 v46q25 12 47.5 22.5t44.5 18.5q10 4 20.5 7t20.5 6t20.5 5.5t20.5 4.5q20 3 40.5 4t41.5 0q7 0 14 -0.5t14 -1.5q29 -4 60.5 -11t68.5 -18q38 -12 69.5 -19.5t57.5 -11.5t52 -3t51 5q20 3 41 9.5t43 15.5q20 9 45 20.5t53 26.5v1v0z" />
<glyph unicode="&#xa0;" />
<glyph unicode="&#xa1;" horiz-adv-x="275" d="M253 632q-1 -9 -5.5 -16t-11.5 -12q-7 -4 -14.5 -7t-15.5 -3q-10 -1 -18.5 1t-16.5 7t-11 13.5t0 20.5q2 8 6 15t11 11q7 5 14.5 7.5t15.5 3.5q10 1 18.5 -1.5t16.5 -7.5t10.5 -13.5t0.5 -19.5v1v0zM182 484q4 -1 6 -2t3 -3v-2t1 -2v-2v-2v-0.5v-0.5l-1 -1v0v-1.5v-0.5 v-1.5v-1.5v-1.5v-0.5q0 -6 -0.5 -12t-1.5 -11q-1 -6 -1.5 -11.5t-0.5 -11.5q-1 -11 -2.5 -22.5t-3.5 -22.5q-3 -23 -6.5 -46t-7.5 -46q-4 -22 -8.5 -44.5t-10.5 -45.5q-1 -7 -3.5 -16.5t-4.5 -21.5q-4 -13 -7.5 -25.5t-7.5 -26.5q-2 -5 -4 -10.5t-4 -10.5q-4 -11 -7.5 -20.5 t-8.5 -18.5q-7 -14 -15 -23.5t-18 -14.5q-2 -1 -5 -1t-7 -1t-7.5 -1.5t-7.5 -1.5q-6 0 -10.5 0.5t-8.5 1.5q-1 0 -2 0.5t-2 0.5q-3 1 -5.5 2t-4.5 3q-4 3 -5 7t-1 8v4v5q1 2 1.5 4t1.5 4q0 2 0.5 3l1.5 3q0 1 1 2.5t2 2.5q0 2 0.5 3l1.5 3q0 1 1 2.5t2 2.5q1 2 1.5 3.5 t1.5 2.5t1.5 2t0.5 2q1 0 1.5 1t0.5 2q2 4 4.5 7.5t4.5 7.5q1 3 2.5 5.5t3.5 4.5q1 2 1.5 3.5t1.5 2.5q13 23 25 46.5t23 47.5t21 48.5t18 49.5q1 4 2 7.5t3 7.5q1 3 2 6.5t2 7.5q1 5 2.5 9.5t3.5 9.5q1 3 1.5 5.5t1.5 4.5q2 7 3.5 14t3.5 15q1 7 2.5 14.5t3.5 14.5 q3 14 6 28.5t6 29.5v0v1v0v0v0v1v0v0q0 2 1 4.5t2 4.5q2 2 3.5 3t5.5 1v1v0z" />
<glyph unicode="&#xa2;" horiz-adv-x="405" d="M140 41q1 0 2 -0.5t2 -0.5h1h2h4.5h4.5q5 -1 11.5 -1h13.5h11.5h13.5q6 0 11.5 0.5t11.5 0.5q6 1 11.5 1.5t11.5 1.5q11 2 21.5 5.5t19.5 7.5l1 0.5t2 1.5q1 0 1.5 0.5l0.5 0.5q1 1 2.5 2t2.5 2q2 0 3.5 1t3.5 2l0.5 0.5l1.5 1.5l1 0.5t2 1.5q2 1 3.5 1.5t3.5 1.5 q1 1 2.5 1.5t3.5 1.5q3 2 5 1t3 -3v-3v-3q-1 -2 -1.5 -3.5t-1.5 -3.5q-1 -3 -4 -6t-7 -6l-2 -2l-2 -2l-3.5 -3.5t-4.5 -3.5q-4 -3 -7 -5l-6 -4q-2 -1 -3.5 -2.5t-3.5 -2.5q-4 -2 -7.5 -3.5t-6.5 -3.5q-4 -3 -8 -4.5t-6 -3.5q-14 -6 -29 -9t-30 -4q-15 -2 -30.5 -2.5 t-31.5 -1.5h-4.5h-4.5h-2.5h-3.5h-1.5h-1.5l-50 -171h-27l50 171q-34 3 -58 11t-35 23q-10 15 -12.5 36t4.5 49q5 29 20.5 54.5t41.5 46.5t56.5 37t64.5 26l33 112h27l-30 -105q1 0 1.5 -0.5t1.5 -0.5t2.5 0.5t3.5 0.5t4.5 0.5t6.5 1.5h6.5t7.5 1q4 0 7.5 0.5t7.5 1.5h5.5 h5.5h11.5t10.5 -1q8 -1 12.5 -2.5t8.5 -4.5q4 -4 5 -11t-1 -18q-2 -10 -5.5 -21t-8.5 -22q-1 -1 -2 -3t-1 -3q-1 -1 -1 -1.5v-1.5q-1 -1 -1 -2t-1 -2t-2 -3t-1 -3q-1 -2 -2 -3.5t-2 -3.5q-4 -7 -7.5 -14t-7.5 -13q-3 -4 -4.5 -8t-3.5 -7q0 -1 -0.5 -1.5l-1.5 -1.5l-0.5 -1.5 t-2.5 -3.5q-1 -1 -2 -2.5t-1 -3.5q-1 -1 -2 -2.5t-2 -3.5q0 -1 -0.5 -1.5l-0.5 -0.5l-1.5 -1.5t-0.5 -1.5l-2 -2l-2 -2q-3 -3 -5.5 -5t-4.5 -3t-3.5 1t-2.5 6l1 3.5t2 10.5q1 2 1.5 4.5t1.5 5.5q1 5 2.5 11t3.5 12v2t1 2v2v2q0 2 0.5 3.5t1.5 2.5q0 1 0.5 1.5t0.5 1.5 q2 8 3.5 15.5t2.5 14.5q0 3 0.5 5t0.5 4q1 5 1.5 8.5t0.5 6.5q-7 1 -14.5 1.5t-15.5 0.5h-14.5h-15.5l-55 -188v0v0zM111 41l52 185q-13 -5 -24.5 -10.5t-22.5 -10.5q-11 -6 -22 -13t-21 -15l-0.5 -0.5l-1.5 -1.5t-1.5 -2t-2.5 -2l-1 -0.5t-1 -1.5l-2 -2l-2 -2 q-8 -7 -15.5 -16t-14.5 -18q-4 -4 -7 -9t-5 -9q-2 -5 -4 -9.5t-3 -9.5q0 -1 -0.5 -2.5t-0.5 -2.5q-1 -2 -1 -3v-3v-5.5v-4.5q0 -10 5 -16.5t15 -9.5q9 -3 19.5 -5t21.5 -2h3h3h2.5h2.5h6h5h1.5h1.5h3.5h2.5h4.5h4.5v1v0z" />
<glyph unicode="&#xa3;" horiz-adv-x="523" d="M-1 0q4 5 8 10.5t8 11.5q3 5 6.5 10.5t6.5 10.5t6.5 10.5t6.5 11.5q3 5 6 10.5t6 10.5q10 18 17.5 36t14.5 37q1 5 2.5 9.5t2.5 9.5q4 15 8 31.5t7 33.5h-2.5h-3.5q-1 -1 -2.5 -1h-3.5h-6.5h-4.5h-1.5h-0.5h-1.5h-0.5l-1 -1v0q-11 -1 -21.5 -1t-18.5 1q-8 0 -11.5 4.5 t-2.5 12.5q2 9 7.5 13.5t15.5 5.5q9 1 19 1t21 -1h3.5h3.5q2 -1 3.5 -1h3.5h5h7q0 3 0.5 6.5t1.5 7.5t1.5 7.5t0.5 7.5l2 10l2 10q0 3 1 5.5t1 5.5q2 8 3.5 15.5t4.5 15.5q2 7 5 15t6 15q7 15 17 29t23 26q12 11 28 20.5t36 16.5q20 8 40.5 13.5t42.5 9.5q7 1 13.5 2t12.5 2 t12.5 1.5t13.5 1.5q12 2 24 2h23q16 -1 28.5 -4.5t20.5 -9.5t13 -15.5t6 -22.5v-17.5v-13.5t-2 -11.5t-5 -10.5q-1 -3 -4 -6l-6 -6q-2 -3 -5.5 -6t-7.5 -6q-11 -9 -18.5 -9.5t-10.5 6.5q-4 7 -6 16.5t-3 21.5v1.5v1.5q-1 1 -1 1.5v1.5v3.5v2.5q-1 3 -1.5 6t-1.5 6 q-1 6 -2.5 12t-3.5 11q-3 8 -7.5 13t-11.5 7t-15.5 3t-16.5 2h-5.5h-5.5h-11.5t-10.5 -1q-16 -2 -31.5 -6t-30.5 -10t-26 -13.5t-19 -16.5q-10 -10 -16.5 -21.5t-11.5 -24.5q-4 -13 -7.5 -26.5t-5.5 -27.5q-2 -7 -3 -14.5t-2 -14.5l-2 -14t-1 -14q-1 -3 -1 -5.5v-4.5v-2v-2 q-1 -2 -1 -3v-2l138 1q5 -1 8 -2.5t5 -3.5q1 -1 1.5 -2.5t0.5 -2.5v-3v-3q-1 -4 -3.5 -7t-4.5 -5q-3 -3 -6.5 -4t-7.5 -1l-139 1q-4 -22 -8.5 -43t-11.5 -40t-16 -38t-21 -37q-2 -2 -3.5 -4.5t-3.5 -4.5q-2 -3 -3.5 -5.5t-3.5 -4.5t-3.5 -4.5t-3.5 -4.5t-3.5 -4.5t-3.5 -4.5 l211 1q18 -1 35 0.5t33 4.5q8 2 15.5 4t15.5 5q7 2 15 6t15 8h0.5t2.5 1q1 1 2 1.5l3 1.5v0l1 1h0.5h0.5h0.5t1.5 1q1 0 1.5 0.5l0.5 0.5q1 1 2.5 1t3.5 1h1.5h1.5h0.5h1.5l2 -2t1 -2q-1 -4 -3.5 -8.5t-6.5 -8.5q-5 -4 -9.5 -7t-9.5 -6q-3 -2 -6 -3.5t-5 -3.5q-3 -1 -5 -2.5 t-4 -3.5q-7 -5 -14.5 -9.5t-13.5 -8.5q-3 -2 -5.5 -3.5t-5.5 -3.5l-6 -2l-6 -2t-6.5 -2.5t-6.5 -2.5q-6 -2 -12.5 -3t-13.5 -2q-11 -1 -24.5 -1h-30.5h-257v0v0z" />
<glyph unicode="&#xa4;" horiz-adv-x="757" d="M92 689l126 -101q19 11 39 19t40 14q11 3 21 5t21 3q10 2 20.5 2.5t20.5 0.5q20 0 39.5 -3t40.5 -8q10 -3 20 -6.5t20 -7.5q10 -5 20 -9.5t20 -10.5l125 102l36 -29l-126 -100q13 -15 23.5 -30.5t17.5 -32.5q7 -16 10.5 -32.5t3.5 -33.5q0 -16 -3.5 -32.5t-10.5 -33.5 q-7 -16 -17.5 -32t-23.5 -30l126 -99l-36 -29l-125 101q-19 -12 -38 -20.5t-39 -13.5q-10 -3 -20 -5t-20 -3q-10 -2 -20 -2.5t-20 -0.5h-21t-21 2q-11 1 -21.5 3t-21.5 5q-21 5 -41 13.5t-39 20.5l-126 -100l-35 29l126 100q-13 14 -23.5 29.5t-18.5 31.5q-7 17 -10.5 33.5 t-3.5 32.5q0 8 1 16t2 17q2 8 4.5 16t6.5 16q8 17 18.5 32.5t23.5 30.5l-126 101l35 29v0v0zM380 594q-41 -1 -77 -13t-66 -36t-45 -52.5t-15 -60.5q0 -33 15 -61.5t45 -52.5t66 -36t77 -12t76 12t65 36t45 52.5t16 61.5q-1 32 -16 60.5t-45 52.5t-65 36t-76 12v1v0z" />
<glyph unicode="&#xa5;" horiz-adv-x="631" d="M370 142q-3 -3 -5.5 -6t-4.5 -5q-2 -3 -4.5 -5.5l-5.5 -5.5l-4 -4l-4 -4q-4 -3 -8 -6.5t-8 -7.5q-19 -17 -39.5 -32t-43.5 -29q-23 -13 -47 -18t-50 -1q-25 3 -41 12t-24 23q-7 14 -10.5 29.5t-2.5 32.5l-110 1l9 26h108l31 70h-113l7 26h120q0 2 0.5 3.5t1.5 3.5 q0 1 0.5 2l1.5 3q1 1 1.5 2t0.5 2q2 4 3.5 8t2.5 8q2 3 2.5 6t1.5 6q1 2 1.5 3.5t0.5 2.5q2 8 4 17t3 18q0 9 -2 18t-6 19q-1 1 -1.5 2.5t-2.5 2.5q-1 2 -2 3.5t-3 3.5v0.5v1.5q-1 0 -1 0.5v0.5q-1 1 -1.5 2t-0.5 2q-2 3 -3.5 6t-1.5 6t1 5t4 3q2 1 4.5 1t5.5 -2 q2 -1 4.5 -2.5t6.5 -3.5q2 -1 3 -3t3 -3q1 -2 2.5 -3.5t2.5 -3.5q3 -4 6 -7.5t5 -6.5q4 -6 7 -11l6 -10q3 -4 4.5 -7.5t2.5 -5.5q6 -13 8 -25.5t0 -25.5t-6 -25.5t-9 -24.5q-1 -2 -2 -4.5t-2 -5.5q-1 -1 -1 -2t-1 -2q-1 -2 -2 -3.5t-1 -3.5q-1 -1 -2 -2.5t-2 -3.5 q-1 -3 -2.5 -6l-2.5 -5q-1 -3 -2.5 -5.5t-2.5 -4.5q-1 -3 -2 -5.5t-1 -4.5q-1 -3 -2 -5.5t-2 -4.5l-0.5 -1l-0.5 -1q0 -1 -0.5 -1h-0.5q0 -1 -0.5 -2t-0.5 -2t-0.5 -2l-0.5 -1q-1 -1 -1 -2v-2q-1 -1 -2 -2.5t-1 -2.5l-1.5 -3t-0.5 -3q0 -1 -0.5 -2t-0.5 -2q-1 -2 -1.5 -4 t-0.5 -4q-2 -10 -2 -18.5t2 -16.5t9.5 -13t20.5 -7q5 -1 10.5 -2t12.5 -1h11.5t13.5 1q5 0 9.5 0.5t9.5 1.5q4 0 9 1.5t9 2.5q10 2 17.5 6t14.5 9q6 5 12.5 10.5t13.5 11.5l5.5 5.5l5.5 5.5q3 2 5.5 5t5.5 6q24 24 39 49.5t21 52.5q7 26 10.5 57t4.5 66l59 1 q0 -16 -0.5 -31.5t-1.5 -30.5t-3 -30l-4 -30l143 1l-9 -26h-139l-16 -70h129l-9 -26h-126q-4 -14 -8.5 -29t-10.5 -31q-5 -16 -11 -32t-13 -30q-9 -23 -20 -46t-23 -45q-13 -23 -26 -41.5t-28 -34.5q-13 -13 -28 -23.5t-31 -19.5t-34.5 -15t-39.5 -10q-3 -1 -6 -1.5t-7 -1.5 q-3 0 -6.5 -0.5t-7.5 -1.5q-7 -1 -14 -1.5t-14 -0.5h-19.5t-18.5 2q-10 1 -18 3.5t-16 6.5q-11 6 -17 12t-6 13q-1 7 1 13.5t6 13.5q2 4 5.5 8.5t7.5 9.5l8 8t9 8q2 3 5 6t6 5q2 1 3 2.5t3 2.5q1 2 2.5 3t2.5 2l1 1l3 3t4.5 4t6.5 4q0 1 1 1.5t2 0.5q0 1 0.5 1.5t1.5 0.5 q2 1 3.5 2.5t3.5 2.5t3.5 1.5t3.5 1.5q4 1 5 -0.5t1 -5.5q-1 -5 -3 -8.5t-4 -7.5q-4 -3 -7.5 -6.5l-7.5 -7.5q-5 -4 -9 -8l-8 -8t-5 -8.5t0 -10.5q2 -8 7 -13.5t15 -9.5q9 -3 19 -5.5t21 -3.5q6 -1 12.5 -1.5t13.5 -0.5h3.5h3.5h2t2 -1h5.5h4.5h1h2h0.5h1.5h5.5h5.5 q1 1 1.5 1h1.5h3.5h3.5q6 1 11 3t9 5q2 2 4 4.5t4 4.5q1 3 3 5.5t4 4.5q2 3 3.5 5.5t3.5 4.5q2 3 3.5 5.5t3.5 5.5q1 1 2 2.5t2 3.5q1 1 2 2.5t2 3.5q1 1 2 2.5t2 3.5q0 1 1 2.5t2 3.5q19 34 34.5 68.5t28.5 69.5q12 34 23.5 69.5t21.5 71.5v1v0z" />
<glyph unicode="&#xa6;" />
<glyph unicode="&#xa7;" horiz-adv-x="625" d="M348 4q19 -48 10.5 -91.5t-45.5 -80.5q-37 -38 -87 -45.5t-114 14.5q-14 4 -26 11t-23 16q-10 9 -17.5 18t-13.5 18q-7 13 -10 24.5t-1 22.5q2 10 11 16t24 7q5 1 9 0.5t7 -1.5q2 -2 4.5 -5t4.5 -7q1 -3 2 -6.5t3 -7.5q1 -4 2 -7.5t3 -7.5q4 -11 10.5 -21.5t13.5 -20.5 q8 -10 18 -17.5t24 -12.5h1h2l0.5 -0.5l1.5 -1.5q23 -6 44 -6t40 7q20 7 33.5 19.5t20.5 31.5q0 2 0.5 4t1.5 4q0 2 0.5 4t0.5 3q1 4 1.5 8t0.5 8v8v7q0 4 -0.5 8t-1.5 8q-1 5 -2.5 10t-3.5 10q-1 6 -3 11l-4 10q-2 7 -5.5 13.5t-6.5 12.5l-2.5 5t-3.5 6l-2 4t-1 4 q-1 1 -2 3l-2 4l-2 4l-2 4q-1 1 -2 3l-2 4l-59 123q-1 1 -1.5 2t-0.5 2q-1 1 -1.5 2.5t-1.5 2.5t-1.5 2.5t-0.5 2.5q-1 2 -1.5 3.5t-1.5 2.5q-6 13 -12 26.5t-11 28.5q-6 14 -10 28.5t-7 29.5q-4 17 -4 34.5t2 33.5q2 17 9 32.5t18 30.5q11 14 24 23.5t29 16.5 q15 7 31.5 13.5t33.5 12.5h0.5h1.5q2 0 2.5 0.5l1.5 1.5q-2 5 -3.5 10.5t-2.5 10.5q-1 3 -1.5 6t-1.5 6q-1 8 -2 16.5t-1 17.5q-1 8 0 16t2 17q2 8 5 16.5t9 16.5q11 17 26.5 30t37.5 22q21 9 43.5 13.5t46.5 4.5h5.5t5.5 -1q3 0 5.5 -0.5t5.5 -0.5t6 -0.5t6 -0.5 q2 -1 5 -1.5t6 -0.5q2 -1 4.5 -1.5t5.5 -1.5q2 -1 5 -1.5t6 -1.5q11 -4 21.5 -10t20.5 -14q5 -4 9.5 -8t8.5 -7q4 -4 7.5 -8t6.5 -8q5 -8 8 -16t2 -16q-1 -7 -7 -13t-17 -10q-8 -4 -14.5 -4t-11.5 4t-9 9t-8 12q0 1 -0.5 2t-1.5 2q-1 2 -1.5 4t-2.5 4q-1 2 -2 3.5t-1 2.5 q-1 2 -2 3.5t-2 3.5q-4 5 -8 10.5t-9 11.5q-5 5 -11 9.5t-14 8.5q-6 3 -13 5t-15 3q-7 2 -14.5 2h-15.5q-13 -1 -26 -3.5t-24 -7.5t-19.5 -12t-13.5 -16q-4 -8 -7 -16.5t-3 -16.5t1 -16.5t3 -16.5l4 -16t6 -16t7.5 -15.5t7.5 -15.5q2 -3 3.5 -6t2.5 -6q2 -2 2.5 -4t1.5 -4 q1 -1 1.5 -2t0.5 -2l70 -142q3 -6 5.5 -12t5.5 -12q3 -7 5.5 -13t5.5 -12q5 -13 9.5 -25.5t8.5 -25.5q11 -38 11.5 -74t-8.5 -70q-10 -34 -44.5 -57t-93.5 -35v1v0zM341 24q41 3 64.5 15.5t30.5 34.5q8 22 8 46t-7 49q-1 8 -4 16.5t-6 16.5q-2 4 -3.5 8t-3.5 9q-2 4 -3.5 8 t-3.5 8q-1 2 -2.5 4.5t-2.5 5.5q-1 2 -2.5 4.5t-2.5 5.5q-1 2 -2 4.5t-1 5.5q-1 2 -2 4.5t-2 4.5l-91 201q-47 -10 -72.5 -27.5t-30.5 -42.5t-2.5 -51.5t13.5 -55.5q2 -7 5 -13.5t7 -12.5q2 -7 5 -13.5t6 -12.5v-0.5t1 -0.5v-1v0v0v0l104 -220v0v0z" />
<glyph unicode="&#xa8;" />
<glyph unicode="&#xa9;" />
<glyph unicode="&#xaa;" horiz-adv-x="377" d="M181 528l-2 -2l-2 -2l-1 -1l-1 -1q-2 -1 -3 -2l-2 -2q-15 -12 -32 -22t-35 -18q-19 -9 -39 -10t-43 6q-10 2 -15.5 6.5t-9.5 11.5q-4 6 -5.5 13t-1.5 14v3v3v2.5v2.5v3v3q1 1 1 2.5v2.5q3 13 8 25t14 23q10 11 21.5 21t24.5 19q14 9 30 17t34 15q18 6 37 9.5t38 4.5h4.5 h5.5h2h3q1 -1 2 -1h2q9 -1 18 -2.5t16 -3.5q8 -3 13.5 -7.5t9.5 -10.5q4 -7 5 -15t-1 -17q-1 -10 -5 -19.5t-9 -19.5q-1 -2 -2.5 -4.5t-2.5 -4.5t-2.5 -4.5t-2.5 -4.5l-2 -4l-2 -4l-2 -4l-2 -4q-4 -6 -7.5 -11t-6.5 -10q-4 -4 -6.5 -8.5t-4.5 -8.5h5h6h2.5h3.5h1.5h1.5h15 h12q6 0 11 1t9 2t8 2.5t8 3.5q5 2 11.5 6t15.5 8v0v0v0h1v0.5v0.5h3.5h2.5t1.5 -0.5t1.5 -0.5q2 -1 2 -2.5t-2 -3.5l-1.5 -1.5l-1.5 -1.5q-1 -2 -2.5 -3.5l-3.5 -3.5q-3 -3 -6 -5.5t-7 -4.5q-2 -2 -5 -4l-6 -4q-4 -2 -7 -4t-5 -4q-5 -3 -9.5 -5t-8.5 -4q-4 -1 -7.5 -2.5 t-6.5 -2.5q-22 -5 -37 -3t-23 11q-7 9 -12.5 20t-9.5 23v0v0v0.5v1.5v1v0zM35 548q-3 -16 1 -25.5t15 -11.5q11 -3 25.5 -4t30.5 0q15 1 29 6t26 15q11 10 21.5 20.5t17.5 22.5q4 5 7 10.5t5 10.5q2 2 3 4.5t3 5.5q1 2 2 4.5t2 4.5q7 16 7 27t-5 17q-7 6 -21.5 7t-37.5 -2 h-2h-1l-1 -1v0h-1h-1q-2 -1 -3 -1h-2q-16 -4 -31.5 -12t-30.5 -19t-26 -23t-19 -24l-2 -4l-2 -4q-1 -3 -2 -5l-2 -4q-2 -4 -3.5 -8t-1.5 -8v1v0z" />
<glyph unicode="&#xab;" horiz-adv-x="480" d="M107 138q1 -2 4 -6.5t7 -11.5q5 -7 10.5 -15t12.5 -16q0 -2 1 -4t3 -4q0 -1 0.5 -2t1.5 -1q0 -1 1 -2l2 -2q8 -12 13 -23t9 -21t2.5 -15t-9.5 -4h-2h-1h-0.5t-1.5 1h-0.5h-1.5q-1 1 -2.5 1.5t-2.5 1.5l-2.5 2.5l-2.5 2.5l-2.5 2.5l-2.5 2.5q-1 2 -2.5 3.5l-2.5 2.5l-2 2 t-1 2l-2 2l-2 2q-2 2 -3 4.5t-2 3.5q-8 9 -17 18l-18 18q-5 5 -9.5 9t-8.5 9q-2 1 -3.5 2.5l-2.5 2.5l-6 6l-6 6q-2 2 -3.5 3t-3.5 3l-2.5 2.5t-3.5 2.5q-4 3 -7 6t-5 6q1 1 2.5 2t2.5 2q2 0 3.5 1t3.5 2q3 2 6.5 4t7.5 4q15 9 30.5 19.5t31.5 20.5q17 11 32 21.5t30 22.5 q1 1 2 2.5t3 2.5q2 2 4 3.5t4 3.5l1.5 1.5l1.5 1.5q1 0 2 0.5t2 1.5q1 0 1 0.5t1 0.5q1 1 2 1.5t2 1.5l3 1.5t3 0.5q1 1 2.5 1.5t2.5 0.5h4.5t4.5 -2q4 -3 3 -9t-9 -15q-7 -9 -17 -18.5t-21 -20.5l-2 -2l-1 -1l-2 -2l-2 -2l-2 -2t-2 -1l-2 -2l-2 -2q-10 -9 -19.5 -16.5 t-17.5 -14.5q-10 -7 -15.5 -11.5t-7.5 -6.5v1v0zM276 138q0 -2 3 -6.5t8 -11.5q3 -5 6.5 -10t7.5 -11q2 -2 3.5 -5t3.5 -6q1 -1 1.5 -2t1.5 -1q0 -1 0.5 -2t1.5 -2t1.5 -2l0.5 -1q1 -1 1.5 -2t0.5 -2q8 -12 13.5 -23t9.5 -21t2 -15t-10 -4h-2h-1q-1 0 -2 0.5t-2 1.5t-2 1.5 t-2 1.5l-2 2l-2 2t-2.5 2t-2.5 2q-1 2 -2.5 3.5l-2.5 2.5l-2 2t-1 3q-1 1 -2 2.5t-2 2.5q-2 2 -3.5 4t-3.5 3q-8 9 -16.5 18t-18.5 18l-6 6l-6 6l-2.5 2.5l-3.5 3.5l-8.5 8.5t-9.5 8.5q-2 2 -3.5 3t-3.5 3l-2.5 2.5l-2.5 2.5q-4 3 -7 6l-6 6q7 4 13.5 7.5t12.5 7.5 q13 8 26.5 16t25.5 16q19 12 37.5 25t35.5 27q1 0 1.5 0.5l1.5 1.5q0 1 0.5 1.5l1.5 1.5l1.5 1.5t1.5 0.5l2.5 2.5t3.5 2.5q0 1 0.5 1.5l1.5 1.5q1 0 1.5 0.5l1.5 1.5t2 1.5t2 1.5q1 0 2 0.5t2 1.5q2 1 4.5 1.5t5.5 1.5h2h2t2 -0.5t2 -1.5q4 -3 3 -9t-9 -15q-7 -9 -16 -18.5 t-20 -20.5l-2 -2t-2 -1l-2 -2l-2 -2l-2 -2l-1 -1l-2 -2l-2 -2q-10 -9 -19.5 -16.5t-18.5 -14.5t-14.5 -11.5t-7.5 -6.5v1v0z" />
<glyph unicode="&#xac;" />
<glyph unicode="&#xad;" />
<glyph unicode="&#xae;" />
<glyph unicode="&#xaf;" />
<glyph unicode="&#xb0;" />
<glyph unicode="&#xb1;" />
<glyph unicode="&#xb2;" />
<glyph unicode="&#xb3;" />
<glyph unicode="&#xb4;" horiz-adv-x="625" d="M230 330h-2t-1 1v1.5v1.5v1.5v1.5l0.5 0.5t0.5 1.5l1.5 1.5l1.5 1.5l0.5 0.5l1.5 1.5q6 3 11 6t9 5q5 2 9.5 4.5t8.5 4.5q2 1 3.5 2t2.5 2t2 1.5t2 0.5l1 0.5l1 0.5l6 4l6 4q1 1 3 2.5t3 2.5q5 4 10.5 9t11.5 11l2 2l2 2q1 2 2 3.5t2 2.5q1 2 2.5 4t3.5 5q1 1 1.5 2.5 t1.5 2.5l2 4t3 5q1 2 2 4.5t3 5.5q5 11 11.5 20t13.5 17q8 8 17.5 11.5t22.5 1.5q8 -2 13.5 -6t8.5 -9q3 -6 4 -12t0 -12q-2 -10 -7 -18.5t-13 -16.5q-4 -4 -8.5 -8t-8.5 -7q-4 -4 -8.5 -7t-8.5 -6q-2 -1 -3.5 -2t-2.5 -2q-1 0 -1.5 -0.5l-1.5 -1.5t-2 -1.5l-1 -0.5 q-1 -1 -2 -1.5t-2 -0.5q-3 -1 -7.5 -4t-12.5 -7l-8 -4l-8 -4q-4 -3 -8.5 -5t-9.5 -4q-1 -1 -2.5 -2t-3.5 -2q-1 0 -1.5 -0.5t-1.5 -0.5q-1 -1 -2 -1.5t-2 -0.5q-1 -1 -2 -1.5t-2 -0.5q-11 -6 -22 -10.5t-22 -7.5q-10 -3 -17 -3.5t-9 2.5v1v0z" />
<glyph unicode="&#xb5;" />
<glyph unicode="&#xb6;" horiz-adv-x="625" d="M568 722v-31h-78v-691h-43v691h-117v-691h-43v382q-5 0 -10 0.5t-10 0.5q-16 1 -31 3t-29 5q-19 4 -37 11.5t-35 17.5q-20 11 -35 25.5t-25 32.5q-10 17 -15 35.5t-5 37.5q0 41 18.5 72.5t53.5 53.5q36 22 78 33t91 11l272 1v0v0z" />
<glyph unicode="&#xb7;" />
<glyph unicode="&#xb8;" horiz-adv-x="625" d="M143 -68l59 71h28l-40 -50q39 6 66.5 3t43.5 -15q15 -12 21 -25.5t2 -29.5q-1 -5 -2.5 -9t-4.5 -9q-3 -4 -6 -8.5t-7 -8.5q-8 -9 -18.5 -16t-23.5 -11q-10 -3 -21.5 -5.5t-22.5 -3.5t-23 -1t-24 1q-13 1 -25.5 2.5t-24.5 4.5q-13 3 -24 6t-21 7q-1 0 -1.5 0.5t-1.5 0.5 q-1 1 -2.5 1t-3.5 1q-1 1 -3 1.5t-3 0.5q-2 1 -3.5 1.5t-3.5 1.5q-4 1 -7.5 3.5t-7.5 4.5t-5 4.5t-1 4.5v1.5v0.5v0h1v1v0q2 3 7.5 3t15.5 -1q9 -2 21 -4t25 -5q2 -1 4 -1t4 -1h2t2 -1q3 0 6 -0.5t6 -1.5q5 -1 11.5 -1.5t13.5 -1.5q9 -1 18 -1.5t18 -0.5h5.5t5.5 1 q6 0 11.5 1t10.5 2q10 3 18.5 7t13.5 9q6 5 9 10.5t5 10.5q2 10 -3.5 18t-17.5 16q-13 7 -32.5 8t-45.5 -4l-24 7v0v0z" />
<glyph unicode="&#xb9;" />
<glyph unicode="&#xba;" horiz-adv-x="360" d="M-20 537q1 21 12 40.5t33 38.5q23 18 47.5 31.5t52.5 20.5q5 1 9.5 2t8.5 2q3 0 5.5 0.5t4.5 1.5q2 0 4.5 0.5t5.5 0.5h2h2h2h2h2t2 1h1h1h1.5h1.5q23 0 43 -3.5t39 -11.5t28.5 -21.5t10.5 -33.5v-2v-2v-1.5v-0.5q-2 -22 -15 -43t-38 -41q-24 -19 -50 -30.5t-55 -15.5 h-1.5h-0.5q-1 -1 -1.5 -1h-1.5h-1.5h-0.5h-1.5h-1.5q-4 -1 -8.5 -1.5t-9.5 -0.5h-9.5h-8.5q-22 0 -42 4.5t-37 12.5q-16 8 -25 21t-10 31l-3 1v0zM215 505q8 11 15 21.5t12 22.5q6 12 7 24.5t-1 25.5q-4 16 -14.5 28.5t-27.5 22.5q-18 9 -37.5 10.5t-41.5 -4.5 q-19 -6 -34 -15t-28 -23q-13 -13 -20 -27t-9 -28v-4v-4v-2v-1v-2v-2q1 -13 7.5 -22t17.5 -14q11 -4 24.5 -6t29.5 -2l100 1v0v0z" />
<glyph unicode="&#xbb;" horiz-adv-x="480" d="M266 139q-2 1 -5 5t-8 11q-4 7 -9.5 14.5t-11.5 16.5q0 1 -0.5 2t-1.5 2l-0.5 1t-1.5 2t-1.5 2t-0.5 2q-1 1 -1.5 2t-1.5 2q-7 12 -12.5 23t-9.5 21t-2 14.5t9 4.5q2 0 3.5 -1t3.5 -1q2 -1 3.5 -2t3.5 -3l6 -6t5 -6q1 -1 2 -2.5t2 -2.5q1 -2 2 -3l2 -2l3.5 -3.5t2.5 -3.5 q8 -10 17 -19l18 -18q5 -4 9.5 -8.5t9.5 -8.5q5 -5 9.5 -9t9.5 -8q2 -3 5 -6t7 -6q2 -1 3.5 -2.5l2.5 -2.5q2 -2 3.5 -3t3.5 -3q-20 -12 -39.5 -24t-38.5 -24t-38 -24.5t-36 -26.5l-0.5 -0.5l-1.5 -1.5v0h-1q0 -1 -1 -1.5t-2 -1.5l-2 -2l-1 -1l-2 -2l-2 -2t-2 -1.5l-1 -0.5 q-1 -1 -2 -1.5t-2 -1.5l-1.5 -1.5l-0.5 -0.5q-1 -1 -1.5 -1h-1.5q-2 -2 -5 -3.5t-6 -1.5h-3.5h-2.5l-1.5 1.5t-1.5 0.5q-4 3 -3 9t8 15q8 9 17.5 19t20.5 20q1 1 2 1.5t2 1.5q0 1 1 1.5t2 1.5l2 2l2 2l2 2l2 2q5 4 9.5 8t9.5 8q4 4 9 7.5t9 7.5q9 7 14.5 11.5t8.5 6.5v1v0z M98 139q-1 1 -4 5t-8 11q-3 5 -6.5 9.5t-7.5 10.5q-2 2 -3.5 5t-3.5 6q-1 1 -1.5 2t-0.5 2q-1 0 -1.5 1t-0.5 2q-2 2 -3 4l-2 4q-7 12 -13 23t-10 21t-1.5 14.5t9.5 4.5q2 0 3.5 -1t3.5 -1q2 -1 3.5 -2t3.5 -3q2 -3 5 -6l6 -6q1 -1 2 -2.5t2 -2.5q0 -2 1 -3l2 -2l2 -2l2 -2 q0 -1 1 -1.5t2 -1.5q8 -10 16.5 -19t18.5 -18q8 -9 17 -17.5t19 -16.5l2 -2l2 -2l4 -4l4 -4q2 -1 3.5 -2.5t3.5 -2.5q2 -2 3.5 -3t3.5 -3q-19 -12 -38.5 -24t-38.5 -24q-20 -12 -38.5 -24.5t-35.5 -26.5q-1 -1 -2 -1.5l-1 -0.5l-1 -1v0l-1 -1l-1 -1l-2 -2t-2 -1l-2 -2l-2 -2 l-2.5 -2.5l-3.5 -3.5q-1 -1 -2 -1.5t-2 -1.5q-1 0 -1 -0.5t-1 -0.5q-1 -1 -3 -2t-4 -1h-1.5h-1.5q-2 0 -3.5 0.5t-2.5 1.5q-4 3 -3 9t8 15t15 19t19 20q1 1 2 1.5t2 1.5t2 1.5t2 1.5l2 2l2 2q0 1 1 2l2 2q5 4 9.5 8t9.5 8t9.5 7.5t9.5 7.5q8 7 14 11.5t8 6.5v1v0z" />
<glyph unicode="&#xbc;" />
<glyph unicode="&#xbd;" />
<glyph unicode="&#xbe;" />
<glyph unicode="&#xbf;" horiz-adv-x="480" d="M405 629q-2 -9 -6.5 -16t-11.5 -12q-4 -2 -7.5 -4t-6.5 -3q-4 -2 -7.5 -3t-7.5 -1q-10 -1 -19 1t-17 7q-7 5 -10 14t0 21q2 8 6.5 15t11.5 11q6 5 13.5 8t14.5 4q10 1 19 -1.5t16 -7.5q8 -5 11 -13.5t1 -20.5v1v0zM392 110q2 -27 -7.5 -46.5t-32.5 -33.5 q-22 -13 -47.5 -21t-54.5 -10q-71 -8 -122 6t-82 51q-32 38 -27.5 80.5t43.5 90.5q4 4 7.5 8t7.5 8t8.5 8t9.5 8q4 4 8.5 8t9.5 8q4 3 9 7t11 8q11 8 21.5 15.5t20.5 14.5v0l1 1h0.5h0.5l1 0.5t2 1.5q6 5 12.5 9.5t13.5 9.5q7 4 13.5 9t12.5 10q14 10 25 20.5t21 20.5 l1.5 1.5l1.5 1.5q0 1 0.5 1.5l1.5 1.5l1.5 1.5l1.5 1.5q0 1 0.5 1.5l1.5 1.5q6 8 10 15.5t7 14.5q2 8 4.5 16t3.5 17q0 2 1 3.5t2 2.5h1.5h0.5q1 0 2.5 -0.5t2.5 -0.5q1 -1 2.5 -2t2.5 -2q5 -5 9 -13.5t6 -20.5t-0.5 -25.5t-10.5 -28.5q-8 -16 -21 -31.5t-30 -30.5 q-18 -15 -36.5 -29t-37.5 -28l-22 -16l-22 -16t-20.5 -16t-17.5 -16q-3 -2 -5.5 -4.5l-4.5 -4.5q-3 -2 -5 -4l-4 -4q-7 -7 -13 -16t-11 -19t-8 -19.5t-4 -19.5q-2 -10 -1.5 -20.5t4.5 -20.5t10.5 -18.5t16.5 -16.5q9 -7 20.5 -12t25.5 -9q5 -1 9.5 -2t9.5 -2q9 -2 18.5 -2.5 t19.5 -0.5q25 0 47 4.5t42 14.5q21 10 31 25t10 36v9v8v4v4q-1 1 -1 3v4v7.5v7.5v6.5v7.5q0 5 2 11l4 12t7 14t12 18v0l1 1v0.5v0.5l0.5 0.5t1.5 0.5l0.5 0.5l0.5 0.5q0 1 0.5 1.5l1.5 1.5l1 0.5t2 1.5t2 1.5t2 0.5q0 1 1 1h2h1.5h1.5h0.5h1.5t1.5 -0.5l1.5 -1.5l0.5 -0.5 l1.5 -1.5l0.5 -1t0.5 -3q0 -1 0.5 -3t0.5 -5q0 -5 0.5 -11t1.5 -13v-5v-4v-2t1 -2v-3v-2q0 -7 0.5 -13.5t1.5 -12.5q0 -3 0.5 -6t0.5 -6v-7.5t1 -5.5v-2.5t0 0.5v1v0z" />
<glyph unicode="&#xc0;" />
<glyph unicode="&#xc1;" />
<glyph unicode="&#xc2;" />
<glyph unicode="&#xc3;" />
<glyph unicode="&#xc4;" />
<glyph unicode="&#xc5;" />
<glyph unicode="&#xc6;" horiz-adv-x="1623" d="M671 270q-25 -46 -57 -88.5t-71 -80.5q-38 -39 -89.5 -64t-116.5 -37q-15 -1 -34.5 -3.5t-42.5 -4.5q-24 -2 -48 -2.5t-49 0.5q-34 1 -66 5.5t-61 11.5q-28 8 -46.5 22.5t-28.5 35.5q-11 27 -4 51t32 46q23 21 51.5 39t62.5 33q14 6 28.5 11.5t28.5 9.5q13 5 25 9t23 7 q41 11 82 18t83 11q21 2 42.5 3.5t42.5 2.5t42.5 1.5t42.5 0.5h16h16q8 -1 16 -1h16t16 -0.5t16 -0.5q8 -1 16 -1.5t16 -0.5q0 1 0.5 2t1.5 2l0.5 0.5t0.5 1.5l0.5 0.5t0.5 1.5q1 2 1.5 3.5t1.5 2.5t1.5 2t0.5 2q1 0 1.5 1t0.5 2q31 56 67 107.5t77 99.5t102.5 78.5 t144.5 42.5h3t7 1q5 0 11 1t13 2h4t4 1h3h4h4t4 1q2 0 4 0.5t4 0.5h26h23q11 -1 14.5 -3.5t1.5 -7.5q-1 -1 -5 -2.5t-11 -2.5t-14.5 -1.5t-15.5 -0.5q-4 0 -8 -0.5t-8 -0.5h-4h-4h-5h-4q-2 -1 -3.5 -1h-3.5h-2.5h-1.5h-1.5h-0.5q-70 -8 -127.5 -32.5t-102.5 -65.5 t-82.5 -85.5t-67.5 -91.5q-3 -4 -5.5 -8t-5.5 -7q-2 -4 -4.5 -8t-4.5 -8q-1 -2 -3 -4.5t-3 -5.5l-6 -10l-6 -10q7 -1 14 -1.5t14 -0.5q6 -1 13 -1.5t14 -1.5t14 -1.5t14 -0.5q6 -1 13 -1.5t14 -0.5q5 0 9 -0.5t9 -1.5h4h5q6 -1 13 -1.5t14 -1.5t13.5 -1.5t13.5 -0.5 q7 -1 14 -1.5t14 -1.5q0 2 1 4.5t2 5.5q1 2 1.5 4.5t1.5 5.5q0 3 1.5 6.5t2.5 7.5t2.5 7.5t2.5 7.5q1 5 2.5 9.5t3.5 9.5q1 4 3 9t4 9q4 9 9 18t12 17q3 5 7 7.5t9 3.5q2 1 4 1t4 1q4 0 8 1t8 1h2h3h2h3q-7 -16 -13 -32.5t-12 -32.5q-5 -17 -10 -33t-10 -33q-5 -16 -9.5 -33 t-9.5 -33q-4 -17 -8 -33.5t-8 -33.5q1 2 2.5 3.5t3.5 2.5q1 1 1.5 2t1.5 2l4.5 4.5t5.5 4.5q31 30 62.5 54t65.5 42q33 18 71.5 34.5t83.5 32.5q2 0 3.5 0.5t3.5 1.5q2 0 3.5 0.5t3.5 1.5t3.5 1.5t3.5 1.5q1 0 3 0.5t4 1.5q-7 2 -15.5 4t-18.5 5q-4 2 -9 3.5t-9 2.5 q-5 2 -9.5 3.5t-9.5 3.5q-21 7 -39 16t-35 20t-23.5 25.5t-5.5 30.5q3 23 22 43t53 38q35 18 72.5 33t78.5 27q29 8 56 15t53 13q26 5 47 9t37 7q71 11 112.5 11t51.5 -12q9 -12 7.5 -25.5t-15.5 -29.5q-4 -4 -7.5 -8.5t-7.5 -8.5t-8.5 -8t-8.5 -8q-9 -7 -16.5 -12.5 t-15.5 -10.5q-7 -5 -11.5 -8t-6.5 -3l-3 -1.5t-2 -0.5h-3h-1q-1 0 -3 -0.5t-3 -1.5q-3 0 -6 -0.5t-6 -1.5q-4 -1 -7.5 -2t-7.5 -1q-4 -1 -8.5 -1.5t-8.5 -0.5t-8 0.5t-8 1.5q-3 0 -5 0.5t-2 1.5q0 2 0.5 3.5t1.5 2.5q0 1 0.5 1.5l1.5 1.5l1 0.5t2 1.5v0v1v0v0v0l1 1v0v0 q4 3 7.5 6.5l7.5 7.5q4 3 8 6.5t8 7.5v0v0v0l1 1h0.5h1.5q3 2 5.5 4.5l5.5 5.5q3 2 5.5 4.5l5.5 5.5q6 5 11 10t9 11q0 1 0.5 1.5l1.5 1.5t1.5 2t0.5 2l2 4l2 4v4.5t-2 5.5q-1 2 -2.5 4.5t-4.5 3.5q-13 5 -31.5 6t-41.5 -3q-22 -4 -46 -10.5t-49 -14.5q-11 -4 -22.5 -7.5 t-22.5 -8.5q-11 -4 -21 -8.5t-20 -8.5q-16 -7 -30.5 -14t-26.5 -13q-13 -7 -22.5 -12t-15.5 -10q-8 -6 -15.5 -12t-14.5 -12t-11.5 -12t-8.5 -12q-14 -21 -15.5 -40t9.5 -36t37 -27t67 -12h15.5t26.5 1q15 1 32 2t36 2h4.5h5.5h2.5t2.5 1h3.5h2.5q24 1 46.5 1.5t43.5 1.5 q20 1 31.5 0.5t14.5 -2.5q2 -2 3 -4t1 -4q0 -1 -1.5 -2.5t-2.5 -3.5l-0.5 -0.5l-1.5 -1.5q-3 -2 -6.5 -4.5t-8.5 -4.5q-6 -3 -10.5 -5t-9.5 -4q-7 -3 -14 -5t-13 -4q-6 -1 -9.5 -2.5t-5.5 -1.5q-13 -3 -27.5 -6t-28.5 -5q-15 -3 -29 -5.5t-28 -4.5q-10 -1 -20 -3t-19 -3 q-10 -2 -19.5 -3.5t-18.5 -3.5q-19 -4 -37.5 -8t-37.5 -9q-35 -10 -69.5 -22.5t-66.5 -29.5q-31 -16 -60 -35t-54 -41q-28 -25 -39 -45t-4 -34q6 -13 30.5 -20.5t66.5 -9.5h4.5h5.5q1 -1 2 -1h2h3.5h3.5h4h4h2h2q3 -1 6 -1h6q20 -1 41.5 -1.5t46.5 -0.5q24 -1 48.5 -1 t49.5 1q38 0 74 2t70 6q34 3 61 9.5t47 15.5q1 0 2 1t3 2q1 0 2 0.5t2 1.5l1 0.5t2 1.5t2 1.5l3 1.5q1 0 2.5 0.5t3.5 1.5t3.5 1.5t3.5 0.5h3.5h3.5l0.5 -0.5l0.5 -0.5q1 0 1.5 -0.5t0.5 -1.5v-2v-2q-1 -1 -2 -1.5l-1 -0.5v0v0v-1v0l-1.5 -1.5l-0.5 -0.5v0v0v-1v0 q-17 -15 -38.5 -27t-46.5 -20q-26 -9 -52.5 -15t-55.5 -9q-12 -2 -23.5 -3t-22.5 -2q-6 0 -11.5 -1t-11.5 -1q-16 -2 -32 -2.5t-31 -1.5h-2h-2h-2h-2h-2.5h-3.5q-1 0 -1.5 -0.5t-1.5 -0.5h-27h-29h-31.5t-32.5 1q-27 1 -52.5 5.5t-48.5 9.5q-24 6 -41.5 17.5t-28.5 27.5 q-1 -2 -2.5 -4.5t-2.5 -4.5t-1.5 -4.5t-0.5 -4.5q-4 -9 -9 -17.5t-9 -15.5q-3 -4 -5 -8.5t-5 -8.5q-7 -13 -15 -25t-17 -24q-5 -5 -10.5 -9t-11.5 -5q-6 -2 -13 -2.5t-15 -0.5q9 16 17.5 31t15.5 30q8 15 14.5 29.5t13.5 29.5q11 26 20 51.5t16 51.5q8 26 15.5 53.5 t14.5 56.5q-15 2 -29.5 3.5t-28.5 3.5q-14 1 -28.5 3t-28.5 3q-15 2 -29.5 3t-28.5 3q-14 1 -28.5 2.5t-29.5 2.5v1v0zM648 271q-16 0 -31.5 0.5t-30.5 1.5q-16 1 -31 1.5t-30 1.5q-47 1 -93.5 -0.5t-93.5 -5.5q-46 -4 -91 -13t-89 -23q-7 -2 -15.5 -5t-19.5 -8 q-10 -4 -20.5 -9t-21.5 -10q-22 -11 -41 -24.5t-35 -29.5q-15 -16 -16.5 -31.5t9.5 -32.5q7 -13 24 -22.5t43 -14.5q25 -4 52.5 -6.5t55.5 -2.5q19 -1 37.5 0t37.5 2q19 2 35.5 3.5t29.5 2.5h3.5t2.5 1h3.5h2.5q2 0 5 0.5t6 1.5q63 11 110.5 30.5t81.5 47.5q34 29 64 64.5 t56 78.5v1v0z" />
<glyph unicode="&#xc7;" />
<glyph unicode="&#xc8;" />
<glyph unicode="&#xc9;" />
<glyph unicode="&#xca;" />
<glyph unicode="&#xcb;" />
<glyph unicode="&#xcc;" />
<glyph unicode="&#xcd;" />
<glyph unicode="&#xce;" />
<glyph unicode="&#xcf;" />
<glyph unicode="&#xd0;" />
<glyph unicode="&#xd1;" />
<glyph unicode="&#xd2;" />
<glyph unicode="&#xd3;" />
<glyph unicode="&#xd4;" />
<glyph unicode="&#xd5;" />
<glyph unicode="&#xd6;" />
<glyph unicode="&#xd7;" />
<glyph unicode="&#xd8;" horiz-adv-x="898" d="M242 -148l61 134q-31 2 -60.5 6t-55.5 9q-27 7 -51.5 20.5t-44.5 33.5q-19 18 -33 38t-22 42q-8 23 -12 45.5t-4 46.5q0 11 1.5 22t3.5 22t5 22.5t7 21.5q8 19 17.5 36t21.5 33t26 31.5t29 31.5l2 2t3 2q1 2 2 3.5t3 2.5v0l1 1v0.5v0.5l1 1l2 2l2 2l2 2q2 0 3.5 1t3.5 2 q3 2 6.5 2.5t7.5 -1.5q2 -1 2.5 -3t-0.5 -4q0 -1 -1.5 -2.5t-2.5 -3.5q0 -1 -0.5 -1.5l-1.5 -1.5l-0.5 -0.5l-0.5 -0.5q-1 0 -1.5 -0.5t-0.5 -1.5v-0.5v-0.5l-1 -1v0l-2 -2t-1 -2q-1 -1 -2 -1.5t-2 -1.5q-2 -1 -3 -2.5l-1 -1.5q-8 -10 -15.5 -20t-13.5 -21q-5 -11 -10 -22.5 t-9 -22.5q0 -2 -1 -3.5t-1 -3.5q-1 -3 -2 -6.5t-2 -6.5q-1 -4 -2.5 -8.5t-2.5 -9.5q0 -2 -0.5 -4t-1.5 -4l-2 -12t-1 -12q-1 -8 -1 -16t1 -16q1 -21 6 -42t14 -41q8 -20 21.5 -38t29.5 -34q17 -16 36 -27t41 -17q23 -6 46 -10t47 -6l278 602q-61 15 -115.5 10t-102.5 -31 q-47 -25 -64 -65.5t-3 -95.5q0 -3 0.5 -6t1.5 -6q1 -1 1.5 -2.5t0.5 -2.5l1.5 -3t0.5 -3t1 -4l2 -4q0 -1 0.5 -2.5t1.5 -3.5q4 -14 7 -28.5t6 -28.5q2 -14 2 -28.5t-2 -28.5q-1 -3 -2 -6.5t-1 -7.5q0 -2 -0.5 -4t-1.5 -4q0 -3 -0.5 -5t-1.5 -4q-1 -7 -4 -13t-7 -12t-8.5 -10 t-10.5 -6q-4 -1 -7 -1t-5 3t-2.5 6.5t-0.5 7.5v1.5v1.5q-1 1 -1 1.5v1.5v1.5v1.5v0.5v1.5v1.5v1.5v0.5v1.5q0 5 -1 10.5t-2 11.5q-1 5 -2 10.5t-2 10.5l-6 22l-6 22q-1 2 -1.5 3.5t-0.5 2.5t-0.5 2t-0.5 2v1v2l-2 6t-2 7l-2 6l-2 6t-1.5 6t-1.5 7q-1 3 -1.5 6t-0.5 6 q-14 67 8.5 118t82.5 85q60 35 128 47t144 1l51 115h27l-53 -117q83 -23 136 -62.5t75 -95.5q23 -55 21 -114t-26 -121q-2 -3 -3 -6l-2 -6q-2 -3 -3 -5.5t-2 -4.5q-19 -40 -47.5 -76.5t-66.5 -69.5q-37 -33 -82 -56t-97 -37q-26 -6 -53 -9l-54 -6q-13 -2 -27 -3t-27 -2 q-14 -1 -27.5 -1.5t-27.5 -1.5l-62 -134h-28v0v0zM631 629l-276 -594q83 -4 156 5.5t135 32.5t101.5 71.5t58.5 123.5q3 14 4.5 27.5t2.5 27.5q2 14 1.5 28.5t-2.5 29.5q-4 38 -16.5 74t-35.5 70q-22 35 -54.5 60.5t-74.5 42.5v1v0z" />
<glyph unicode="&#xd9;" />
<glyph unicode="&#xda;" />
<glyph unicode="&#xdb;" />
<glyph unicode="&#xdc;" />
<glyph unicode="&#xdd;" />
<glyph unicode="&#xde;" />
<glyph unicode="&#xdf;" horiz-adv-x="475" d="M-122 -300q16 36 29 72t24 72t21.5 72t20.5 72q2 7 4 13.5t4 13.5q1 4 2 7.5t2 7.5q3 11 5.5 22.5t4.5 22.5q2 7 3.5 14t1.5 14q1 3 2 6.5t2 7.5q0 3 1 6.5t2 7.5q6 24 13.5 52.5t15.5 60.5t17 65.5t20 67.5q14 41 29 81t33 79q17 39 39 70.5t47 55.5q9 9 19 16t21 13 q4 2 7 4t7 3q7 3 14 5.5t14 4.5q34 9 65 4t59 -25q27 -19 37.5 -47.5t3.5 -66.5q-4 -25 -15 -48.5t-28 -44.5q-18 -21 -36.5 -39t-37.5 -34q-22 -17 -41.5 -32t-37.5 -27t-28 -22.5t-13 -18.5q-2 -3 0 -5.5t6 -4.5q5 -2 10.5 -3.5t12.5 -3.5q2 -1 4 -1.5t4 -0.5q2 -1 4 -1.5 t4 -0.5q4 -1 7 -1.5t4 -0.5q22 -6 40 -13.5t33 -17.5t23.5 -24.5t9.5 -34.5v-8t-1 -7q0 -4 -0.5 -8t-1.5 -8q-2 -8 -5 -16t-7 -16q-7 -14 -17 -27.5t-23 -27.5q-12 -13 -24 -25t-26 -22q-4 -4 -8.5 -7t-8.5 -6q-1 -1 -3 -2t-3 -2q-3 -1 -6 -2.5t-6 -3.5q-8 -4 -17 -6t-19 -4 q-5 -1 -10 -1.5t-10 -1.5q-6 -1 -11 -1.5t-10 -0.5h-5.5h-5.5q-6 1 -11.5 1t-10.5 1q-7 1 -14.5 1.5t-13.5 2.5q-16 2 -23.5 7.5t-6.5 15.5q0 10 4.5 20.5t11.5 22.5q4 5 7.5 9.5t7.5 8.5q4 5 8 9.5t8 8.5q8 8 14.5 14t13.5 10q6 5 11 7t6 2q4 -1 4.5 -4t-1.5 -8 q-4 -5 -8 -10.5t-9 -11.5l-1.5 -1.5l-0.5 -0.5v-1.5v-0.5q-4 -4 -7.5 -8.5t-6.5 -8.5q-4 -4 -5.5 -6.5t-1.5 -4.5q-4 -10 0 -16.5t15 -10.5q10 -4 22 -6t25 -2q4 0 8 -0.5t8 -0.5h7h8q8 0 14 0.5t10 1.5v0h1v0v0h0.5h0.5h0.5h0.5q13 17 24 35.5t21 37.5q9 20 12.5 40 t-0.5 40q0 1 -0.5 2t-0.5 2q-1 0 -1 1v2t-0.5 2t-0.5 2t-0.5 2t-0.5 2q-4 14 -10.5 24t-14.5 16q-7 6 -15.5 12t-17.5 11q-3 1 -5.5 2t-4.5 2q-1 1 -2.5 1.5t-3.5 1.5q-1 0 -2 0.5t-2 1.5q-4 2 -7 4l-6 4q-4 2 -7 4.5t-5 5.5q-4 3 -6 6t-2 6t1 6.5t3 7.5l4 6t5 6q2 3 5.5 6 t7.5 6q3 2 6 4.5t6 5.5q1 1 2.5 2t2.5 2t2.5 2t2.5 2q23 20 43.5 42t39.5 46t33 49.5t24 52.5q16 45 13 78t-23 53q-21 20 -46 18.5t-53 -24.5q-3 -2 -6 -4.5t-5 -5.5l-6 -6l-6 -6q-2 -2 -3.5 -4.5t-3.5 -4.5q-4 -5 -7.5 -10t-6.5 -11q-15 -25 -29.5 -57t-27.5 -70 q-13 -39 -25.5 -79t-23.5 -81q-11 -38 -21 -75t-18 -73l-16.5 -66t-14.5 -56q-13 -46 -28 -91.5t-31 -91.5q-14 -46 -34 -91t-43 -90l-47 -1v0v0z" />
<glyph unicode="&#xe0;" />
<glyph unicode="&#xe1;" />
<glyph unicode="&#xe2;" />
<glyph unicode="&#xe3;" />
<glyph unicode="&#xe4;" />
<glyph unicode="&#xe5;" />
<glyph unicode="&#xe6;" horiz-adv-x="636" d="M197 57q-7 -6 -14 -11.5t-12 -10.5q-7 -4 -13.5 -8.5t-11.5 -7.5q-14 -9 -29 -14t-30 -8q-16 -3 -36.5 -3t-44.5 3q-7 1 -14.5 3.5t-13.5 8.5q-7 6 -11.5 13t-7.5 14q-3 11 -3 22.5t4 23.5q4 11 9.5 22t13.5 21q4 6 11 14t16 18q10 9 22.5 19.5t27.5 20.5q5 4 10 7.5 t10 7.5q5 3 10.5 6.5t11.5 7.5q11 8 23 14.5t25 12.5q26 14 51 21.5t50 10.5q23 2 40 -6t26 -28q3 2 6 4.5t7 4.5q2 2 5 4.5t7 4.5q6 3 12 5.5t12 4.5l6 2l6 2q10 2 22 3t26 2h4h5q3 -1 7.5 -1h9.5h10.5h11.5q5 -1 10.5 -1h11.5q13 -1 24.5 -1.5t22.5 -1.5t17.5 -1.5 t7.5 -1.5q3 -1 4 -3.5t-1 -5.5q-1 -1 -2 -3t-3 -3q-1 -2 -2.5 -3.5l-3.5 -3.5q-1 -1 -2 -1.5t-2 -0.5q-1 -1 -2 -1.5t-2 -1.5t-2 -1.5t-1 -1.5q-1 -1 -2 -1.5t-2 -0.5q-5 -3 -9 -5.5t-8 -4.5q-4 -1 -6 -2.5t-4 -1.5q-4 -1 -9 -2t-9 -2q-5 0 -9.5 0.5t-9.5 1.5q-10 2 -18.5 5 t-16.5 6q-2 0 -3 0.5t-2 1.5q-2 0 -3 0.5t-2 1.5q-2 1 -4 1.5t-3 1.5q-2 0 -4 0.5t-4 1.5q-4 1 -7 1.5t-6 1.5h-2t-1 1h-2h-2h-2h-2h-1h-1q-10 -1 -17.5 -5t-15.5 -10q-7 -6 -10.5 -12.5t-1.5 -14.5v-0.5t1 -0.5v-1.5v-0.5v-1.5t1 -1.5q2 -4 7.5 -8t15.5 -6q9 -3 19 -4.5 t21 -3.5q8 -1 16.5 -2t15.5 -1q8 -1 14.5 -1.5t10.5 -0.5q6 -1 9.5 -2.5t4.5 -4.5v-2.5t-1 -2.5q0 -2 -1 -3t-2 -3l-2.5 -2.5t-2.5 -3.5l-2.5 -2.5l-3.5 -3.5l-0.5 -0.5t-1.5 -0.5q-1 -1 -1.5 -1h-0.5l-1.5 -1.5l-0.5 -0.5q-7 -4 -14.5 -6.5t-15.5 -2.5h-9.5h-8.5 q-5 0 -9.5 0.5t-9.5 1.5q-3 0 -5.5 0.5t-4.5 1.5q-2 0 -4.5 0.5t-5.5 1.5t-5 1.5t-5 1.5q-2 0 -4 0.5t-4 1.5q-4 1 -7.5 2t-6.5 2t-5.5 1.5t-4.5 1.5q-2 -1 -5.5 -4t-8.5 -8q-4 -4 -9 -8.5t-10 -9.5q-1 -1 -2 -2.5t-2 -2.5q-1 -2 -2 -3t-2 -3q-3 -3 -5 -5.5t-4 -4.5 q-7 -9 -11.5 -17.5t-6.5 -16.5q-1 -7 3.5 -12t15.5 -7q8 -2 18 -3.5t23 -1.5h6.5t6.5 -1h20.5h21.5h10h10h10h10h10t10 1h9h8h2.5h2.5h2.5h2.5h2t2 1h2h2h2h2h2h2h2t2 1h3.5h2.5q8 1 16.5 2.5t17.5 4.5q8 2 15.5 6t14.5 9q9 8 16.5 12t13.5 4q5 -1 5 -5.5t-7 -12.5 q-3 -3 -5.5 -6t-5.5 -5l-5.5 -5.5t-5.5 -4.5q-7 -5 -13.5 -9.5t-12.5 -8.5q-1 -1 -2 -1.5t-2 -1.5t-2 -1.5t-2 -1.5t-2 -1.5l-1 -0.5q-1 -1 -2 -1.5t-2 -0.5l-11 -5.5l-9 -4.5q-5 -2 -9.5 -3.5t-8.5 -3.5q-4 -1 -7.5 -1.5t-6.5 -0.5q-4 -1 -7.5 -1h-7.5h-8h-8h-8h-9l-127 -1 q-23 1 -41 2.5t-30 5.5q-12 5 -19.5 17t-10.5 32v1v0zM300 227q-6 20 -18 29.5t-32 8.5q-21 -1 -42.5 -8t-44.5 -21q-15 -9 -30 -20t-30 -24t-27 -25.5t-21 -26.5q-7 -9 -12.5 -18t-9.5 -18t-5.5 -16.5t-1.5 -15.5q-1 -10 4 -17.5t16 -10.5t22.5 -4t24.5 0q8 0 15.5 1.5 t14.5 2.5l14 3.5t11 2.5v0v1v0v0h0.5h0.5h0.5h0.5q19 7 35.5 18t30.5 27q14 15 26.5 31.5t22.5 34.5q5 8 9.5 16.5t8.5 16.5l4 8t5 8q2 4 4 7.5t4 7.5v1v0z" />
<glyph unicode="&#xe7;" />
<glyph unicode="&#xe8;" />
<glyph unicode="&#xe9;" />
<glyph unicode="&#xea;" />
<glyph unicode="&#xeb;" />
<glyph unicode="&#xec;" />
<glyph unicode="&#xed;" />
<glyph unicode="&#xee;" />
<glyph unicode="&#xef;" />
<glyph unicode="&#xf0;" />
<glyph unicode="&#xf1;" />
<glyph unicode="&#xf2;" />
<glyph unicode="&#xf3;" />
<glyph unicode="&#xf4;" />
<glyph unicode="&#xf5;" />
<glyph unicode="&#xf6;" />
<glyph unicode="&#xf7;" />
<glyph unicode="&#xf8;" horiz-adv-x="480" d="M38 -137l64 129q-45 6 -73.5 18.5t-38.5 34.5q-12 22 -12.5 45t10.5 48q10 27 33.5 52t59.5 47q35 23 78.5 35.5t92.5 15.5l55 111h26l-55 -111q43 -7 71 -21.5t41 -37.5q13 -22 10.5 -49t-19.5 -58q-18 -31 -43.5 -55.5t-57.5 -41.5q-34 -17 -71.5 -25t-80.5 -8 l-63 -129h-27v0v0zM128 43l112 221q-34 3 -63.5 -4.5t-55.5 -25.5q-25 -18 -42 -38t-26 -43q-7 -19 -6 -37.5t8 -35.5q8 -16 26.5 -26t46.5 -12v1v0zM286 43q3 4 5.5 8.5t5.5 8.5q3 5 5.5 9.5t5.5 9.5q6 10 10 20l8 20q5 19 5 37.5t-5 36.5q-6 18 -21.5 34t-39.5 29 l-109 -213h130v0v0z" />
<glyph unicode="&#xf9;" />
<glyph unicode="&#xfa;" />
<glyph unicode="&#xfb;" />
<glyph unicode="&#xfc;" />
<glyph unicode="&#xfd;" />
<glyph unicode="&#xfe;" />
<glyph unicode="&#xff;" />
<glyph unicode="&#x152;" horiz-adv-x="1251" d="M806 270q-4 -1 -7.5 -2.5t-6.5 -3.5q-4 -1 -7.5 -2.5t-7.5 -3.5q-4 -1 -7.5 -2.5t-6.5 -2.5q-4 -2 -7.5 -3t-7.5 -3q-30 -12 -58.5 -26.5t-57.5 -31.5q-28 -17 -50 -37t-39 -43q-8 -11 -11 -21t1 -18t13 -14t22 -10q53 14 92.5 35t67.5 48t47.5 62t30.5 78v1v0zM855 283 q-16 -42 -37 -76.5t-47 -62.5t-61 -54.5t-79 -50.5q20 -1 44.5 -2.5t52.5 -2.5q29 -1 58.5 -1t59.5 1h16h16q23 1 47 2t46 3q30 2 56 6t46 9q3 0 7 1.5t8 3.5q5 2 10.5 4t11.5 4v0v0v0l1 1v0v0l16 6t15 5q8 2 11 1.5t3 -3.5q-1 -1 -1.5 -2t-1.5 -2q-1 -2 -2.5 -3.5 l-3.5 -3.5q-3 -2 -5.5 -3.5t-4.5 -3.5q-1 -1 -2.5 -1.5t-2.5 -0.5l-1.5 -1.5l-0.5 -0.5q-19 -12 -39 -21t-40 -17q-22 -7 -44 -12t-45 -7q-22 -3 -44.5 -6t-46.5 -5q-16 -2 -32 -3t-32 -1q-8 -1 -16 -1h-16q-14 0 -28 0.5t-28 1.5q-15 1 -29 2t-28 3q-28 4 -53.5 9t-48.5 13 q-39 -8 -78 -13t-79 -9q-19 -2 -39 -2.5t-40 -0.5t-39.5 1t-39.5 3q-51 4 -91 22t-69 50t-45 67.5t-19 74.5q-1 2 -1 5v6v6v6v4.5v5.5v3.5t1 2.5v3.5v2.5q2 11 4 22.5t5 23.5q4 11 8 22.5t10 22.5q11 23 25 43t33 38l3 3t4 6q3 3 6.5 7.5t7.5 8.5q2 1 2.5 2t1.5 2q1 0 1.5 1 l0.5 1l1.5 1.5l1.5 1.5q1 0 2 0.5t2 1.5q2 3 5 5.5t7 4.5q3 2 6 3t5 1q4 0 6.5 -1t2.5 -3t-1 -4.5t-3 -4.5v-0.5v-0.5l-1 -1v0q-1 -1 -1 -1.5v-0.5q-2 -1 -3 -2t-1 -2q-1 -1 -1.5 -2l-0.5 -1q-10 -12 -18.5 -24t-16.5 -26q-4 -7 -7.5 -14l-6.5 -13l-6 -14t-5 -14 q-1 -4 -2.5 -7.5t-2.5 -6.5q-1 -4 -2 -7.5t-2 -7.5q-2 -7 -3 -14t-1 -14q-1 -25 1.5 -50.5t12.5 -49.5q8 -24 22.5 -46.5t34.5 -42.5q20 -21 45 -34t55 -19t62 -9t65 -3h11.5t11.5 1q6 0 11.5 0.5t11.5 0.5q11 0 22.5 0.5t22.5 1.5h6t6 1h2h2h4h4h5.5t5.5 1q3 0 5.5 0.5 t5.5 0.5q-10 18 -11 35.5t9 33.5q9 17 20.5 32.5t26.5 30.5q26 26 54.5 48.5t58.5 40.5t64 34t71 30q-2 77 -22 135t-58 97q-40 38 -82 61t-88 30q-45 7 -86 1t-79 -24q-37 -18 -58.5 -45.5t-25.5 -63.5q-2 -10 -2 -19t2 -18q0 -4 1 -9t2 -9q1 -5 2 -9.5t2 -9.5q0 -1 0.5 -3 t0.5 -3t0.5 -1.5t0.5 -1.5t0.5 -2t0.5 -2t0.5 -3t1.5 -3q0 -2 1 -3.5t2 -3.5q2 -5 3 -10.5t3 -10.5q1 -5 2.5 -10.5t2.5 -10.5t2 -10.5t2 -10.5q0 -6 0.5 -11.5t0.5 -10.5q0 -4 -0.5 -9t-1.5 -11q-1 -3 -1.5 -6t-0.5 -6q-1 -4 -1.5 -7t-0.5 -6q-2 -9 -5.5 -16.5t-7.5 -15.5 q-4 -7 -9 -12t-11 -8q-4 -2 -7 -0.5t-5 5.5q-2 5 -3 10t-1 11q0 2 -0.5 3.5t-0.5 3.5v3v3v6v4v0.5v1.5v0v1v0v0l-2 8l-2 8l-2 8l-2 8l-2 8t-2 9l-2 8l-2 8l-2 2t-1 2v2.5v2.5l-10 36t-7 37q-3 18 -2 37t7 38q11 41 40 73t77 54q48 23 99.5 32t106.5 5q36 -3 71 -12.5 t69 -24.5q34 -16 63 -39t54 -53q24 20 53.5 36t63.5 28q25 9 51.5 16.5t53.5 13.5q8 2 17 3.5t18 3.5q6 1 11.5 2t10.5 2q5 0 10.5 1t11.5 2t11.5 1.5t10.5 1.5q5 0 10.5 0.5t11.5 1.5q36 4 63.5 2.5t44.5 -8.5q18 -7 12.5 -25.5t-34.5 -47.5l-12 -12t-9 -10l-7.5 -7.5 t-7.5 -6.5q-2 -2 -5.5 -4t-6.5 -3q-1 -1 -2.5 -1.5t-3.5 -1.5q-4 -2 -10 -3.5t-12 -3.5q-2 -1 -3.5 -1.5t-3.5 -0.5q-2 -1 -3.5 -1h-3.5t-3.5 -0.5t-3.5 -0.5q-2 -1 -3.5 -1.5t-3.5 -0.5h-0.5h-1.5q0 -1 -0.5 -1h-1.5t-2 -0.5l-1 -0.5h-2h-2l-3 -1.5t-2 -0.5h-3h-2 q-4 -1 -8 -1.5t-8 0.5t-6 3t-1 6q2 5 6 9.5t11 10.5q6 6 13.5 12t16.5 12l2 2l2 2q1 0 2 1l2 2l1.5 1.5t1.5 0.5l3.5 3.5l2.5 2.5q4 3 7.5 6t6.5 7q3 3 5.5 6t4.5 6t3 6t1 6q0 2 -0.5 5t-2.5 6q-4 5 -9.5 7t-14.5 3h-18.5t-19.5 -1q-5 -1 -9.5 -1.5t-9.5 -0.5q-4 -1 -8 -1.5 t-8 -1.5q-5 -1 -9 -1.5t-6 -1.5l-6 -1.5t-4 -0.5q-29 -7 -56.5 -16.5t-53.5 -22.5t-47 -29.5t-36 -37.5q-2 -2 -3.5 -5t-3.5 -6q-4 -5 -7.5 -11t-6.5 -12q-4 -10 -7.5 -19.5t-5.5 -19.5q-1 -7 -1 -14t1 -14q0 -7 2.5 -13.5t6.5 -12.5q5 -9 13.5 -15t20.5 -9q11 -3 24 -4 t26 0h5.5h5.5h5.5h5.5h5.5t5.5 1q3 0 5.5 0.5t5.5 0.5h2.5t2.5 1h3.5h2.5h3t3 1h2.5h2.5q4 0 8 0.5t8 1.5q5 0 10.5 0.5t11.5 1.5h4h4t4 0.5t4 0.5h4t4 1h4.5h4.5q11 1 21.5 1.5t20.5 0.5q9 0 17 -0.5t15 -1.5q2 -1 3.5 -1.5t2.5 -2.5q2 -1 2 -2.5v-3.5l-0.5 -0.5l-0.5 -0.5 q0 -1 -0.5 -1h-0.5v0v0v-1v0q-4 -5 -8.5 -9.5t-12.5 -7.5q-4 -1 -7.5 -2.5t-6.5 -3.5q-4 -1 -7.5 -2.5t-7.5 -2.5q-2 -1 -4 -1.5t-4 -1.5t-4 -1.5t-4 -0.5q-4 -1 -7.5 -1.5t-6.5 -1.5q-15 -4 -30 -7t-30 -5q-7 -1 -14.5 -2.5t-14.5 -2.5q-7 -2 -14 -3t-15 -2q-2 -1 -3 -1h-2 h-1.5h-0.5l-1 -1v0q-15 -2 -29 -4.5t-28 -4.5q-7 -1 -14 -2.5t-14 -2.5q-7 -2 -14 -3t-13 -3v1v0z" />
<glyph unicode="&#x153;" horiz-adv-x="720" d="M285 28q-7 -4 -13.5 -7t-12.5 -6q-7 -3 -13.5 -5.5t-13.5 -4.5t-14 -3.5t-14 -2.5t-14 -2.5t-14 -2.5q-44 -5 -82.5 0t-72.5 21q-31 17 -41.5 43t3.5 63q12 35 35 64t60 53q38 24 79.5 36t87.5 13q14 0 27 -1l26 -2q4 -1 8.5 -1.5t8.5 -1.5q17 -4 31 -11.5t27 -18.5l6 4 t6 3q2 2 5 4t6 3q3 2 5.5 3t5.5 3q3 1 5.5 2.5t5.5 2.5t6.5 2t6.5 2q10 3 20.5 4.5t21.5 2.5h31.5t35.5 -1h1.5h3.5h4h4h7h8h4h5q0 -1 1 -1h2h3h3q8 0 16.5 -0.5t15.5 -2.5q8 -1 11 -3t3 -5q0 -1 -0.5 -2.5t-1.5 -3.5q-2 -1 -3 -2.5t-2 -3.5q-4 -4 -8 -7.5t-10 -6.5 q-3 -2 -5.5 -3.5t-5.5 -3.5q-3 -1 -5.5 -2.5t-5.5 -2.5q-2 -1 -4 -1.5t-4 -1.5q-3 -1 -5 -1.5t-4 -0.5q-4 -1 -7.5 -1h-5.5q-7 0 -14 1.5t-14 3.5t-13 5l-12 6h-1.5h-0.5h-0.5t-0.5 1h-0.5h-0.5q-8 3 -16.5 6t-16.5 6q-9 2 -18 2t-19 -2q-6 -1 -11.5 -4t-10.5 -8 q-6 -4 -8.5 -8.5t-4.5 -9.5q-1 -4 0 -8t3 -8t5.5 -6.5t10.5 -4.5q5 -2 10.5 -3.5t12.5 -3.5q3 -1 6 -1.5t6 -0.5q3 -1 6.5 -1.5t6.5 -1.5q12 -2 23.5 -3.5t22.5 -2.5t19 -2t13 -2h0.5h0.5q0 -1 0.5 -1h0.5h0.5h1.5q4 -1 5 -3.5t1 -4.5q-1 -3 -2.5 -5.5t-4.5 -4.5l-2 -2 l-2 -2l-1 -1l-1 -1t-2 -1.5t-2 -0.5l-1.5 -1.5l-1.5 -1.5q-4 -1 -6.5 -2.5t-4.5 -3.5q-3 -1 -4.5 -2t-2.5 -1q-4 -1 -7.5 -1.5t-7.5 -0.5q-2 0 -3.5 -0.5t-3.5 -0.5h-3.5h-3.5q-11 0 -21.5 1t-21.5 3q-5 1 -10 2.5t-10 2.5q-5 2 -10 3.5t-10 2.5q-1 -1 -1.5 -2t-0.5 -2 l-1.5 -3t-1.5 -2t-1.5 -2t-0.5 -2q-1 -1 -1.5 -2t-1.5 -2q-11 -17 -17.5 -32t-10.5 -28t9 -19.5t44 -8.5q53 -3 90.5 -3t61.5 4q23 4 38.5 8.5t23.5 8.5q4 2 7.5 4.5t5.5 4.5l2 2l2 2l1 1l2 2t2.5 1.5t2.5 1.5q1 0 2 0.5t2 0.5q1 1 2 1h2q4 0 5.5 -0.5t2.5 -2.5q1 -1 1.5 -2 l0.5 -1q0 -1 -0.5 -2t-1.5 -2v-0.5v-0.5q-1 -1 -1 -1.5v-0.5v-1.5v-0.5h-0.5h-0.5v-1v0v0v0q-6 -7 -12 -13t-14 -12l-8 -6t-8 -5q-4 -3 -8 -5.5t-8 -4.5q-1 -1 -2 -1.5l-1 -0.5q-1 -1 -2 -1.5t-2 -0.5q-1 -1 -2 -1.5t-2 -0.5q-1 -1 -2 -1.5t-2 -0.5q-3 -2 -5.5 -3.5 t-5.5 -3.5q-3 -1 -5.5 -2.5t-5.5 -2.5q-6 -3 -12 -4t-13 -1h-12h-12q-7 -1 -13 -1h-12h-12t-12 -1h-11.5h-11.5h-13.5h-12.5q-6 1 -12 1h-12q-13 1 -25 1h-23t-21.5 1t-18.5 4t-15 8.5t-12 13.5v1v0zM275 43q1 2 2 3.5t3 3.5l2 2t2 3q0 1 1 2l2 2q10 14 18.5 28t15.5 29 q8 15 11 31t1 32v1.5v1.5q-1 1 -1 1.5v1.5v2v2q-1 1 -1 2v2q-6 18 -17.5 31.5t-30.5 23.5q-19 9 -38.5 13.5t-39.5 3.5q-7 -1 -14 -1.5t-14 -2.5q-7 -1 -13 -3.5t-12 -4.5q-20 -8 -37.5 -21t-32.5 -30t-24 -35t-11 -37q-1 -6 -1 -11.5v-10.5t1.5 -10t3.5 -10q4 -15 15 -25 t30 -15q18 -4 37.5 -6.5t39.5 -2.5h15.5h14.5h7.5t7.5 1h7.5h7.5h5.5t5.5 1h5.5h5.5h5.5t4.5 1h4.5h5.5v1v0z" />
<glyph unicode="&#x178;" />
<glyph unicode="&#x2c6;" horiz-adv-x="625" d="M365 419q16 -4 28 -4.5t22 1.5q9 2 17.5 7.5t15.5 12.5l2 2l2 2q0 1 1 2l2 2l2 2l2 2q0 1 1 2.5t2 2.5q0 1 0.5 1.5l1.5 1.5q1 0 1.5 0.5l1.5 1.5t2 1.5t2 0.5l1 0.5l1 0.5q4 1 7 0.5t6 -2.5q2 -1 2.5 -4.5t-1.5 -8.5q-18 -44 -38.5 -66t-43.5 -21q-25 0 -54 5t-64 15 q-2 1 -4.5 1.5t-4.5 0.5q-1 1 -2 1t-2 1q-3 0 -6.5 1t-7.5 2t-7.5 2t-6.5 2q-4 0 -7.5 1t-7.5 2q-17 3 -30 3t-23 -2q-9 -3 -17 -8.5t-16 -14.5q-2 -1 -3 -2.5t-2 -3.5l-2 -2l-1 -1q-1 -1 -1.5 -2t-0.5 -2q-2 -1 -3 -2.5t-2 -2.5t-2 -1.5l-1 -0.5q-1 -1 -2 -1h-2 q-4 -1 -7 -0.5t-5 1.5q-3 2 -3 5.5t2 8.5q17 44 36.5 65t44.5 21q23 -1 52 -5.5t63 -13.5q7 -2 14.5 -4t14.5 -4q8 -1 15.5 -2.5t14.5 -3.5v1v0z" />
<glyph unicode="&#x2dc;" horiz-adv-x="625" d="M313 426q-2 -3 -5 -5l-6 -4t-5.5 -3.5t-4.5 -3.5q-10 -7 -21.5 -14.5t-22.5 -14.5q-5 -3 -10.5 -6.5t-11.5 -7.5q-17 -10 -35.5 -18.5t-37.5 -14.5h-0.5h-0.5q-1 -1 -1.5 -1h-0.5q-1 0 -2 -0.5l-1 -0.5q-1 -1 -2 -1h-2h-0.5h-0.5q-1 -1 -1.5 -1h-0.5h-3h-2 q-6 -1 -10 -1.5t-8 0.5q-4 0 -4 2.5t4 6.5q1 2 5 5t11 7q7 5 14.5 10t15.5 11h0.5h0.5h0.5h0.5v0v1h0.5h0.5q8 5 14.5 9.5t12.5 8.5q7 5 11.5 8l7.5 5q1 0 6 4.5t13 11.5q8 8 18 16.5t21 17.5v0v1v0v0v0l1 1v0v0q8 8 15.5 15t14.5 14q3 2 5.5 4.5l4.5 4.5q9 8 13 12t2 3 q5 2 8.5 1.5t5.5 -3.5q1 -1 1.5 -2t0.5 -2q1 -2 2.5 -4t1.5 -5v-1.5t1 -0.5v-1.5v-0.5v-2t1 -1v-2v-2t0.5 -1.5l0.5 -0.5q0 -1 0.5 -1h0.5q5 -16 13.5 -32.5t18.5 -31.5q11 -16 22 -31l22 -30q0 -1 0.5 -1.5t1.5 -0.5q0 -1 0.5 -1.5l1.5 -1.5t1.5 -2t1.5 -2q4 -5 4 -8.5 t-4 -5.5t-8 -2t-9 1h-0.5h-0.5h-1.5h-0.5q-1 0 -1.5 0.5t-0.5 1.5q-10 5 -18.5 12t-16.5 14l-15.5 15.5t-14.5 15.5q-1 2 -3 3.5t-3 2.5l-6 6l-6 6q-4 5 -7.5 9.5t-7.5 8.5v1v0z" />
<glyph unicode="&#x2013;" horiz-adv-x="625" d="M-60 121l17 35h623l-17 -35h-623v0v0z" />
<glyph unicode="&#x2014;" horiz-adv-x="1250" d="M-60 121l17 35h1248l-17 -35h-1248v0v0z" />
<glyph unicode="&#x2018;" horiz-adv-x="208" d="M112 425h-17l-37 221q-1 2 -1 4v5v5v6q0 8 3 16.5t7 15.5q5 8 14 11.5t22 3.5q14 0 23 -3.5t14 -11.5q5 -7 7.5 -15.5t2.5 -16.5v-6v-5q0 -1 -0.5 -2.5t-0.5 -2.5q0 -2 -0.5 -3t-0.5 -2l-36 -220v0v0z" />
<glyph unicode="&#x2019;" horiz-adv-x="625" d="M373 330q-4 -3 -11 -3t-16 3q-10 3 -21 7.5t-22 10.5q-1 0 -2.5 0.5t-2.5 1.5q-1 0 -2.5 0.5t-2.5 1.5q-1 0 -2 0.5t-1 1.5q-1 1 -2 1.5t-2 1.5q-5 2 -9.5 4t-8.5 5l-8 4l-8 4q-7 4 -12.5 7t-7.5 4q-1 1 -2.5 1.5t-3.5 1.5l-1.5 1.5t-1.5 0.5q-1 1 -2 1.5t-1 1.5 q-1 1 -2 1.5t-2 1.5q-10 6 -19 13.5t-17 16.5q-9 8 -13.5 17.5t-5.5 19.5q-1 6 0 11.5t5 9.5q3 5 8.5 8.5t13.5 4.5q13 2 23 -1t17 -11q8 -9 14.5 -18t12.5 -20l2 -6t3 -5q1 -1 1 -2t1 -2t2 -2.5t2 -3.5t2 -3.5t2 -3.5q0 -1 1 -2.5t2 -3.5q1 -1 2 -2.5t2 -3.5l2 -2l2 -2 q5 -6 11.5 -11.5t13.5 -10.5t14.5 -9.5t14.5 -9.5q1 -1 2 -1.5t2 -0.5q0 -1 1 -1.5t2 -0.5q1 -1 2 -1.5t2 -0.5q1 -1 2 -1.5t2 -0.5v0h1v-1v0h0.5h1.5t1.5 -0.5l1.5 -1.5h0.5h0.5q1 -1 2.5 -1.5t2.5 -1.5t2 -1.5t3 -0.5q1 -1 2 -1.5t2 -1.5t2 -1.5t2 -1.5v-1.5t1 -0.5v-1.5 v-0.5v-2v-2t-0.5 -1.5t-2.5 -1.5v1v0z" />
<glyph unicode="&#x201a;" />
<glyph unicode="&#x201c;" horiz-adv-x="468" d="M126 487q0 5 0.5 9.5t1.5 9.5q0 5 1.5 10.5t2.5 11.5q2 6 3.5 12t4.5 13q2 6 5 12l6 12q5 12 14.5 23t22.5 20q4 2 8 4.5t9 4.5t9.5 3t10.5 2h2h2q2 -1 3.5 -1h2.5q2 -1 5 -1.5t6 -1.5q4 -3 7.5 -6t4.5 -7q2 -4 3.5 -8t1.5 -8v-2v-2q-1 -1 -1 -2v-2q-1 -2 -1.5 -4 t-2.5 -4q-1 -4 -4.5 -8t-8.5 -6q-6 -2 -10.5 -4t-9.5 -4h-1.5h-0.5v0v0q-1 -1 -2.5 -1.5t-2.5 -0.5q-1 -1 -2.5 -1.5t-2.5 -0.5q-1 -1 -2.5 -1.5t-2.5 -0.5q-1 -1 -2.5 -1.5t-2.5 -0.5q-11 -6 -19 -13t-13 -16q-6 -9 -9 -18t-5 -18q-3 -9 -4.5 -17t-1.5 -16v-14v-12v-6v-5 v-2v-2q-1 0 -1 -1v-1q-1 -1 -2 -2.5t-2 -2.5l-3 -1.5t-2 -0.5h-3t-2 1q-2 0 -3 1.5t-1 2.5q-3 4 -4.5 8.5t-2.5 9.5t-1.5 10t-0.5 11v7.5v7.5q0 3 0.5 5t1.5 5q0 1 0.5 2.5t0.5 2.5v0.5v1.5v1.5v1.5v1v0zM338 487q0 3 0.5 6t1.5 6q0 2 0.5 3.5t0.5 3.5q0 5 1 10.5t3 11.5 q1 6 3 12t4 13q2 6 5 12l6 12q7 12 16.5 23t21.5 20q4 2 8 4.5t8 4.5q5 2 10 3l10 2h2h3q1 -1 2.5 -1h2.5q3 -1 6 -1.5t5 -1.5q5 -3 9 -6t5 -7q2 -4 3 -8t1 -8v-2v-2q-1 -1 -1 -2v-2t-0.5 -2.5t-1.5 -3.5l-0.5 -0.5t-0.5 -1.5q-3 -4 -6.5 -8t-8.5 -6q-4 -2 -9 -4t-11 -4v0v0 v0v0h-1v0q-3 -1 -5.5 -2t-4.5 -2t-4.5 -2t-4.5 -2q-11 -6 -19 -13t-13 -16q-6 -9 -9.5 -18t-5.5 -18q-2 -8 -3.5 -16t-1.5 -16v-14v-12v-6v-5q0 -1 -0.5 -2.5t-0.5 -2.5l-0.5 -1l-0.5 -1q-1 -1 -1.5 -2.5t-1.5 -2.5q-1 0 -2 -0.5l-1 -0.5q-1 -1 -2 -1h-2h-1.5h-0.5 q-1 0 -1.5 0.5t-1.5 0.5t-2 1.5t-1 2.5q-3 4 -5 8.5t-2 9.5q-1 5 -1 10v11v6v6v3.5v3.5v3v3v1.5t1 1.5v0.5v1.5v1.5v1.5v0.5v1.5v1v0z" />
<glyph unicode="&#x201d;" horiz-adv-x="468" d="M167 596q2 9 6 16.5t9 12.5q6 5 12.5 7.5t13.5 3.5q17 2 27.5 -11t12.5 -40q3 -27 -30.5 -64.5t-104.5 -87.5q-9 -7 -16.5 -10t-13.5 -2q-5 1 -3.5 5.5t10.5 12.5l27.5 27.5l18.5 18.5t11.5 13t7.5 11v3t1 3q0 1 0.5 2.5t0.5 2.5q0 3 1 6.5t2 7.5v10.5t1 12.5q1 5 2 10.5 t2 12.5q0 4 1 7.5t1 7.5v1v0zM381 596q2 9 5.5 16.5t9.5 12.5q5 5 12 8t14 4q18 2 28.5 -11t12.5 -40q3 -27 -31 -65t-105 -88q-9 -7 -16 -10t-13 -2q-5 1 -4 5.5t9 12.5q17 16 28.5 27.5l18.5 18.5q6 7 11 13t7 11l1.5 3t0.5 3q1 1 1 2.5v2.5q0 3 0.5 6t1.5 7q0 3 0.5 6.5 t1.5 8.5q0 2 0.5 4.5t0.5 4.5q0 8 1.5 17l3.5 21v1v0z" />
<glyph unicode="&#x201e;" horiz-adv-x="468" d="M20 47q2 9 5.5 16t9.5 12q5 5 12 8t14 4q17 2 27 -10t13 -38q2 -26 -32 -64t-103 -90q-8 -6 -15 -8.5t-11 -0.5q-4 1 -3 5.5t9 12.5q2 1 3 2l2 2l2 2l1 1l1.5 1.5l0.5 0.5h0.5h0.5q0 1 0.5 1h0.5l6 6l6 6l7 7l6 6q6 7 11 13.5t7 14.5q5 7 7.5 14.5t3.5 15.5q0 4 0.5 7.5 t1.5 6.5t1.5 6.5t0.5 7.5v4t1 4v3v4q0 4 1 8l2 8v1v0zM233 47q2 9 6 16.5t9 12.5q6 5 13 8t14 4q17 2 27.5 -11t13.5 -39q3 -27 -31 -64.5t-105 -86.5q-11 -8 -18.5 -10.5t-11.5 -0.5t-2.5 6.5t8.5 11.5l2 2l2 2q0 1 0.5 1.5t1.5 0.5q0 1 1 1.5t2 1.5v0h1v1v0v0h1l6 6l6 6 q3 4 6.5 7t6.5 6q7 7 12.5 13.5t10.5 14.5q5 7 7.5 14.5t3.5 15.5q0 4 0.5 7.5t1.5 6.5q0 3 0.5 6.5t1.5 7.5v4t1 4v3v4q0 4 0.5 8t1.5 8v1v0z" />
<glyph unicode="&#x2022;" horiz-adv-x="737" d="M201 425q11 22 29.5 39t44.5 29t53.5 17t57.5 3q4 0 8 -0.5t8 -0.5q2 -1 4 -1t4 -1q5 -1 11.5 -2.5t13.5 -3.5q28 -9 49.5 -24t36.5 -35q15 -21 21.5 -42.5t4.5 -44.5q-1 -6 -2 -11.5t-3 -10.5q-1 -3 -2 -5.5t-1 -4.5q-1 -3 -2 -5.5t-2 -4.5q-11 -22 -29.5 -39t-44.5 -29 t-52.5 -17t-55.5 -4q-6 0 -12.5 1t-13.5 2q-7 2 -14 3.5t-12 3.5q-28 9 -50.5 23.5t-37.5 35.5t-21 43t-2 46v4.5v5.5q0 2 0.5 4.5t1.5 4.5t1.5 3.5t1.5 2.5q1 4 2.5 7.5t3.5 6.5v1v0z" />
<glyph unicode="&#x2026;" horiz-adv-x="1250" d="M95 35q2 7 5.5 13t10.5 10q7 5 14.5 7t14.5 3q9 1 17.5 -0.5t15.5 -6.5q8 -4 11 -12t1 -19q-2 -8 -6.5 -14t-11.5 -10q-2 -1 -4.5 -2.5t-4.5 -2.5q-4 -1 -8.5 -2t-9.5 -2q-10 -1 -18 0.5t-16 5.5q-7 5 -10 12.5t-1 18.5v1v0zM511 35q2 7 5.5 13t10.5 10q7 5 14.5 7 t14.5 3q9 1 18 -0.5t16 -6.5q8 -4 10.5 -12t0.5 -19q-2 -8 -6.5 -14t-11.5 -10q-6 -4 -12.5 -6t-14.5 -3q-10 -1 -18 0.5t-16 5.5q-7 5 -10 12.5t-1 18.5v1v0zM927 35q2 7 6 13t10 10q7 5 14.5 7t14.5 3q10 1 18.5 -0.5t15.5 -6.5q8 -4 10.5 -12t0.5 -19q-1 -8 -6 -14 t-11 -10q-7 -4 -13.5 -6t-14.5 -3q-9 -1 -17.5 0.5t-16.5 5.5q-7 5 -9.5 12.5t-1.5 18.5v1v0z" />
<glyph unicode="&#x2039;" horiz-adv-x="312" d="M107 138q1 -2 4 -6.5t7 -11.5q5 -7 10.5 -15t12.5 -16q0 -2 1 -4t3 -4q0 -1 0.5 -2t1.5 -1q0 -1 1 -2l2 -2q8 -12 13 -23t9 -21t2.5 -15t-9.5 -4h-2h-1h-0.5t-1.5 1h-0.5h-1.5q-1 1 -2.5 1.5t-2.5 1.5l-2.5 2.5l-2.5 2.5l-2.5 2.5l-2.5 2.5q-1 2 -2.5 3.5l-2.5 2.5l-2 2 t-1 2l-2 2l-2 2q-2 2 -3 4.5t-2 3.5q-8 9 -17 18l-18 18q-5 5 -9.5 9t-8.5 9q-2 1 -3.5 2.5l-2.5 2.5l-6 6l-6 6q-2 2 -3.5 3t-3.5 3l-2.5 2.5t-3.5 2.5q-4 3 -7 6t-5 6q1 1 2.5 2t2.5 2q2 0 3.5 1t3.5 2q3 2 6.5 4t7.5 4q15 9 30.5 19.5t31.5 20.5q17 11 32 21.5t30 22.5 q1 1 2 2.5t3 2.5q2 2 4 3.5t4 3.5l1.5 1.5l1.5 1.5q1 0 2 0.5t2 1.5q1 0 1 0.5t1 0.5q1 1 2 1.5t2 1.5l3 1.5t3 0.5q1 1 2.5 1.5t2.5 0.5h4.5t4.5 -2q4 -3 3 -9t-9 -15q-7 -9 -17 -18.5t-21 -20.5l-2 -2l-1 -1l-2 -2l-2 -2l-2 -2t-2 -1l-2 -2l-2 -2q-10 -9 -19.5 -16.5 t-17.5 -14.5q-10 -7 -15.5 -11.5t-7.5 -6.5v1v0z" />
<glyph unicode="&#x203a;" horiz-adv-x="312" d="M97 139q-1 1 -4 5t-8 11t-10.5 14.5t-11.5 16.5q0 1 -0.5 2t-0.5 2q-1 0 -1.5 1t-0.5 2q-2 2 -3 4l-2 4q-7 12 -13 23t-10 21t-1.5 14.5t9.5 4.5v0h1q0 -1 0.5 -1h0.5v0h1q0 -1 1 -1h2q2 -1 4.5 -3t5.5 -4q1 -2 2.5 -3.5l3.5 -3.5l1.5 -1.5l1.5 -1.5t2 -2.5t2 -2.5 q0 -2 1 -3l2 -2q2 -1 2.5 -2.5t1.5 -2.5q1 0 1.5 -0.5t0.5 -1.5q5 -5 9 -9.5t9 -9.5l8.5 -8.5t8.5 -9.5q9 -9 18 -17.5t19 -16.5q2 -3 5 -6t7 -6q2 -1 3.5 -2.5t3.5 -2.5q2 -2 3.5 -3t3.5 -3q-6 -4 -13 -8t-13 -8l-26 -16l-26 -16q-19 -12 -37.5 -24.5t-35.5 -26.5 q-1 -1 -2 -1.5l-1 -0.5q-1 -1 -2 -1.5t-2 -1.5l-2 -2l-1 -1l-2 -2l-2 -2l-2 -2l-2 -2q-1 0 -1 -0.5t-1 -1.5q-2 -1 -3 -2l-2 -2t-3.5 -2t-5.5 -1h-2h-2t-2 0.5t-2 1.5q-4 3 -3 9t8 15t15 19t19 20q1 1 2 1.5t2 1.5t2 1.5t2 1.5l2 2l2 2q0 1 1 2l2 2q5 4 9.5 8t9.5 8t9.5 7.5 t9.5 7.5q8 7 13.5 11.5t8.5 6.5v1v0z" />
<glyph unicode="&#x2122;" />
<glyph unicode="&#xe000;" horiz-adv-x="300" d="M0 300h300v-300h-300v300z" />
<glyph unicode="&#xfb01;" horiz-adv-x="532" d="M285 42q2 -1 5 -1h6h3h3h2.5h2.5q22 -1 42.5 0t40.5 3t38.5 10.5t34.5 21.5q6 4 10 4.5t7 -2.5q2 -3 1 -6t-5 -7q-5 -4 -9.5 -8.5t-9.5 -8.5t-9.5 -8t-9.5 -8t-10 -7l-10 -6t-10 -5.5t-10 -4.5q-32 -14 -60.5 -16t-52.5 7q-24 11 -30.5 39t3.5 74q1 2 1.5 3.5t0.5 3.5 q2 5 3.5 12t4.5 15l6 22t7 22q1 5 2.5 9.5t3.5 8.5q1 2 1.5 4.5t1.5 4.5q2 7 4.5 13.5t5.5 12.5q1 5 2.5 8.5t3.5 7.5l2 4t2 3q0 2 1 4t2 3q2 2 5.5 4.5t8.5 3.5q2 1 4 1t4 1q4 0 8 1t8 1h8h8q2 0 4 -0.5t4 -0.5q5 -1 8.5 -1.5t4.5 -2.5q2 -1 1.5 -4.5t-2.5 -8.5 q-1 -5 -4 -10.5t-6 -11.5v-1.5v-0.5q-1 -1 -1 -1.5v-0.5v-0.5v-0.5l-1 -1v0q-3 -5 -5 -9.5t-4 -8.5t-3.5 -6.5t-1.5 -4.5q-1 -2 -2 -4.5t-2 -4.5q-1 -3 -2 -5.5t-2 -4.5q0 -1 -0.5 -2.5t-1.5 -3.5q-1 -3 -1.5 -6t-2.5 -6q-4 -12 -9 -24t-10 -23q-4 -11 -9 -22t-11 -22 q-2 -6 -5 -11l-6 -10q-4 -5 -7 -10.5t-5 -10.5v1v0zM363 333v4.5v4.5q-1 3 -1 5.5v5.5v12t1 12q2 14 6 26.5t11 23.5q8 11 21 16t32 3q17 -1 24 -6.5t5 -13.5q-1 -9 -6.5 -18t-13.5 -19q-3 -3 -5.5 -6t-4.5 -5l-2.5 -2.5l-2.5 -2.5l-3 -3l-3 -3q-7 -7 -14 -12.5t-12 -10.5 q-7 -5 -10.5 -8t-4.5 -4l-17 1v0v0zM47 249q-1 -1 -2.5 -1h-2.5h-2.5h-2.5h-0.5h-0.5l-1 -1v0h-0.5h-0.5h-0.5h-0.5q-7 -1 -13.5 -0.5t-11.5 1.5t-6 5.5t0 12.5q2 6 6.5 9.5t9.5 4.5q3 1 6 1.5t7 1.5q3 0 6.5 0.5t7.5 1.5v0h1h0.5h1.5h2.5h1.5h0.5t1.5 1h1.5h1.5q4 14 11 35 t17 49q9 27 21 56t26 60q19 41 41 79.5t48 73.5t53.5 52.5t58.5 17.5h2h2h2h2h2h2l1 0.5t2 0.5h2.5h1.5h1h2h15.5t14.5 -2q5 -1 7.5 -6.5t0.5 -13.5q-4 -13 -11.5 -20.5t-18.5 -9.5q-11 -1 -24 -1.5t-29 0.5h-5.5t-4.5 1h-4.5h-4.5h-5.5t-5.5 1h-4.5h-4.5q-13 -7 -25.5 -25 t-24.5 -47q-12 -28 -23 -58.5t-21 -62.5q-9 -28 -16.5 -54t-14.5 -51t-11.5 -44t-7.5 -31h5h8h4t4 1h5h5h3.5h3.5h3.5h3.5h3.5t3.5 1h3.5h3.5h10h10q1 -1 3 -1h3h6.5h6.5q8 0 13.5 -0.5t8.5 -2.5l0.5 -0.5l0.5 -0.5l1.5 -1.5t0.5 -1.5v-2v-2t-0.5 -1.5l-0.5 -0.5 q0 -1 -0.5 -1.5l-0.5 -0.5v-1.5v-0.5v-0.5v-0.5l-1 -1v0v0v0v-1v0v-1.5v-2.5v-2v-2t-0.5 -2l-0.5 -1q-1 -1 -1 -2v-2l-1.5 -1.5l-0.5 -0.5q-1 -1 -1.5 -1h-1.5q-7 -1 -14.5 -2t-15.5 -1h-8h-8h-8h-8h-4h-4h-2h-2h-2.5t-3.5 1h-2.5h-2.5h-10.5h-9.5h-5t-5 1h-4h-4 q-1 -6 -2.5 -11.5t-3.5 -10.5q-2 -6 -3 -11.5t-2 -10.5q-2 -6 -3.5 -11.5t-2.5 -10.5l-2 -6t-1 -5q-1 -3 -2 -5.5t-2 -5.5l-6 -22l-6 -22q-6 -22 -11.5 -43.5t-12.5 -43.5q-9 -31 -19 -63.5t-21 -65.5q-8 -29 -17 -56t-22 -54t-28 -53.5t-31 -52.5l-40 -1q26 61 47.5 121 t38.5 120q14 48 25.5 96.5t23.5 97.5q3 12 6 24.5t6 24.5q0 2 0.5 4t1.5 4q0 2 0.5 3.5t1.5 2.5q0 1 0.5 2t0.5 2q1 4 2 7.5t2 7.5q0 4 1 8l2 8q1 3 1.5 5.5t1.5 4.5q2 6 3.5 11.5t2.5 10.5v1v0z" />
<glyph unicode="&#xfb02;" horiz-adv-x="591" d="M208 0q19 29 33.5 61t24.5 66q11 35 22.5 69.5t22.5 70.5l2 8l2 8q1 1 1 2t1 3t1.5 5t1.5 5q2 8 4.5 16t5.5 16q2 6 3.5 12t3.5 12q3 12 6.5 24t7.5 24q5 18 11 35.5t13 34.5q2 9 7 21t10 26q6 14 13.5 28.5t16.5 29.5q15 28 35.5 53t45.5 47q25 23 54.5 30.5t63.5 1.5 q15 -3 26.5 -9.5t18.5 -17.5q8 -10 11 -21t1 -23q-1 -14 -6 -27.5t-15 -25.5t-21.5 -23t-23.5 -21q-1 -1 -4 -3.5t-8 -5.5q-5 -4 -10.5 -7.5t-11.5 -6.5q-1 -1 -2 -1.5t-1 -1.5q-1 -1 -2 -1.5t-2 -0.5q-1 -1 -2 -1.5t-2 -0.5q-1 -1 -2 -1.5t-2 -0.5q-7 -4 -13.5 -7.5 t-12.5 -5.5q-7 -3 -11.5 -3t-7.5 1q-1 0 -1.5 0.5t0.5 1.5q0 1 1 2t3 2v0l1 1h0.5h0.5l0.5 0.5t1.5 0.5l0.5 0.5l0.5 0.5q1 0 2 0.5t2 1.5l1.5 1.5t1.5 0.5l6 4l6 4q2 2 5 4l6 4q5 5 10.5 9.5t9.5 9.5q8 9 15.5 19t13.5 20q5 11 8 22t4 23v2.5v2.5q-1 2 -1 3.5v3.5t-0.5 3.5 t-1.5 3.5q-1 1 -1.5 3t-0.5 3q-1 7 -5 13t-9 12q-4 6 -9.5 9.5t-13.5 4.5h-2h-1v0v1h-1v0q-12 0 -23.5 -6t-22.5 -20q-11 -13 -21 -27.5t-18 -31.5q-7 -13 -13 -25.5t-11 -24.5q-4 -12 -7 -19.5t-4 -11.5q-3 -9 -5.5 -17.5t-4.5 -16.5q-1 -4 -2 -8.5t-2 -8.5q-1 -5 -2 -9 l-2 -8q-13 -48 -26.5 -94.5t-28.5 -91.5t-35.5 -90t-46.5 -89l-4 -6t-3 -5l-4 -6l-4 -6l-4 -6t-3 -5l-4 -6l-4 -6l149 1q12 -1 22.5 -0.5t19.5 1.5q10 2 18.5 4t16.5 6q4 2 8.5 4t9.5 5q5 2 9.5 5l10.5 7q5 4 8.5 4.5t6.5 -1.5q2 -2 1 -5t-5 -8q-14 -14 -30.5 -26t-35.5 -22 t-39.5 -15.5t-43.5 -6.5q-6 0 -11.5 -0.5t-11.5 -1.5q-6 0 -11.5 -0.5t-11.5 -0.5h-11.5t-11.5 -1h-11.5h-11.5q-13 1 -24 1.5t-21 1.5q-11 1 -22.5 1.5t-22.5 0.5h-2v0zM47 249q-1 -1 -2.5 -1h-2.5h-2.5h-2.5h-0.5h-0.5l-1 -1v0h-0.5h-0.5h-0.5h-0.5q-7 -1 -13.5 -0.5 t-11.5 1.5t-6 5.5t0 12.5q2 6 6.5 9.5t9.5 4.5q3 1 6 1.5t7 1.5q3 0 6.5 0.5t7.5 1.5v0h1h0.5h1.5h2.5h1.5h0.5t1.5 1h1.5h1.5q4 14 11 35t17 49q9 27 21 56t26 60q19 41 41 79.5t48 73.5t53.5 52.5t58.5 17.5h2h2h2h2h2h2l1 0.5t2 0.5h2.5h1.5h1h2h15.5t14.5 -2 q5 -1 7.5 -6.5t0.5 -13.5q-4 -13 -11.5 -20.5t-18.5 -9.5q-11 -1 -24 -1.5t-29 0.5h-5.5t-4.5 1h-4.5h-4.5h-5.5t-5.5 1h-4.5h-4.5q-13 -7 -25.5 -25t-24.5 -47q-12 -28 -23 -58.5t-21 -62.5q-9 -28 -16.5 -54t-14.5 -51t-11.5 -44t-7.5 -31h5h8h4t4 1h5h5h3.5h3.5h3.5h3.5 h3.5t3.5 1h3.5h3.5h10h10q1 -1 3 -1h3h6.5h6.5q8 0 13.5 -0.5t8.5 -2.5l0.5 -0.5l0.5 -0.5l1.5 -1.5t0.5 -1.5v-2v-2t-0.5 -1.5l-0.5 -0.5q0 -1 -0.5 -1.5l-0.5 -0.5v-1.5v-0.5v-0.5v-0.5l-1 -1v0v0v0v-1v0v-1.5v-2.5v-2v-2t-0.5 -2l-0.5 -1q-1 -1 -1 -2v-2l-1.5 -1.5 l-0.5 -0.5q-1 -1 -1.5 -1h-1.5q-7 -1 -14.5 -2t-15.5 -1h-8h-8h-8h-8h-4h-4h-2h-2h-2.5t-3.5 1h-2.5h-2.5h-10.5h-9.5h-5t-5 1h-4h-4q-1 -6 -2.5 -11.5t-3.5 -10.5q-2 -6 -3 -11.5t-2 -10.5q-2 -6 -3.5 -11.5t-2.5 -10.5l-2 -6t-1 -5q-1 -3 -2 -5.5t-2 -5.5l-6 -22l-6 -22 q-6 -22 -11.5 -43.5t-12.5 -43.5q-9 -31 -19 -63.5t-21 -65.5q-8 -29 -17 -56t-22 -54t-28 -53.5t-31 -52.5l-40 -1q26 61 47.5 121t38.5 120q14 48 25.5 96.5t23.5 97.5q3 12 6 24.5t6 24.5q0 2 0.5 4t1.5 4q0 2 0.5 3.5t1.5 2.5q0 1 0.5 2t0.5 2q1 4 2 7.5t2 7.5q0 4 1 8 l2 8q1 3 1.5 5.5t1.5 4.5q2 6 3.5 11.5t2.5 10.5v1v0z" />
</font>
</defs>
</svg>
