<?xml version="1.0" standalone="no"?>
<!DOCTYPE svg PUBLIC "-//W3C//DTD SVG 1.1//EN" "http://www.w3.org/Graphics/SVG/1.1/DTD/svg11.dtd" >
<svg xmlns="http://www.w3.org/2000/svg">
<metadata></metadata>
<defs>
<font id="julius_sans_oneregular" horiz-adv-x="1446" >
<font-face units-per-em="2048" ascent="1638" descent="-410" />
<missing-glyph horiz-adv-x="589" />
<glyph horiz-adv-x="2048" />
<glyph horiz-adv-x="2048" />
<glyph unicode="&#xd;" horiz-adv-x="544" />
<glyph unicode=" "  horiz-adv-x="589" />
<glyph unicode="&#x09;" horiz-adv-x="589" />
<glyph unicode="&#xa0;" horiz-adv-x="589" />
<glyph unicode="!" horiz-adv-x="464" d="M180 33q0 23 15 37.5t37.5 14.5t37.5 -14.5t15 -37.5t-15 -38t-37.5 -15t-37.5 15t-15 38zM195 1065h75l-8 -819h-59z" />
<glyph unicode="&#x22;" horiz-adv-x="371" d="M59 1171h74l-13 -242h-48zM239 1171h74l-13 -242h-48z" />
<glyph unicode="#" horiz-adv-x="1058" d="M56 357v61h191l64 364h-180v60h190l61 340l70 -11l-58 -329h356l61 340l71 -11l-60 -329h180v-60h-189l-64 -364h180v-61h-191l-66 -375l-70 8l63 367h-357l-66 -375l-70 8l64 367h-180zM319 418h358l64 364h-358z" />
<glyph unicode="$" horiz-adv-x="896" d="M94 70l39 60q92 -61 221 -76l54 540q-120 86 -184.5 163t-64.5 187.5t86 178.5t217 68h4l17 175h66l-18 -178q125 -13 219 -56l-28 -64q-84 36 -198 48l-46 -467q149 -103 199 -155q93 -98 93 -212q0 -149 -100 -225.5t-259 -76.5l-14 -158h-66l16 162q-157 16 -253 86z M246 947.5q0 -79.5 45 -138.5t127 -118l40 428q-97 -1 -154.5 -46.5t-57.5 -125zM419 53q119 1 191.5 57.5t72.5 149t-54.5 154t-159.5 136.5z" />
<glyph unicode="%" horiz-adv-x="1228" d="M114 903q0 134 63.5 211t163.5 77t162.5 -77t62.5 -211t-66 -215.5t-160 -81.5t-160 81.5t-66 215.5zM182 903q0 -110 46 -172t114 -62t112 62t44 172t-44 171t-112 61t-114 -61t-46 -171zM213 -2l749 1201l57 -34l-747 -1199zM663 276.5q0 134.5 63.5 212t163.5 77.5 t162 -77.5t62 -212t-65.5 -215.5t-160 -81t-160 81t-65.5 215.5zM730 276.5q0 -109.5 46 -172t114 -62.5t112.5 62.5t44.5 172t-44.5 171.5t-112.5 62t-114 -62t-46 -171.5z" />
<glyph unicode="&#x26;" horiz-adv-x="1079" d="M131 234q0 120 70.5 202.5t198.5 169.5q-195 210 -195 323t73.5 177.5t214.5 64.5t211.5 -66.5t70.5 -158.5t-70.5 -174t-194.5 -179l339 -362q28 33 47.5 100t19.5 119h64q-3 -152 -87 -267l170 -183h-98l-119 130q-79 -69 -180.5 -108.5t-196.5 -39.5q-159 0 -248.5 66 t-89.5 186zM206 258q0 -100 70.5 -156t201.5 -56q166 0 320 132l-349 374q-243 -147 -243 -294zM278 932q0 -46 29 -99t62 -90t91 -96q242 159 242 285q0 82 -54 128t-150 46q-219 0 -220 -174z" />
<glyph unicode="'" horiz-adv-x="191" d="M59 1171h74l-13 -242h-48z" />
<glyph unicode="(" horiz-adv-x="525" d="M147 437.5q0 242.5 85.5 432.5t217.5 298l43 -46q-111 -104 -185.5 -288.5t-74.5 -396t74.5 -395.5t185.5 -289l-43 -47q-132 108 -217.5 298.5t-85.5 433z" />
<glyph unicode=")" horiz-adv-x="525" d="M33 -247q111 105 186 289t75 395.5t-75 396t-186 288.5l42 46q133 -108 218 -298t85 -432.5t-85 -432.5t-218 -299z" />
<glyph unicode="*" horiz-adv-x="707" d="M114 1014l36 63l168 -99v193h72v-194l167 97l36 -60l-169 -98l167 -97l-36 -62l-165 97v-192h-72v192l-166 -97l-36 62l167 97z" />
<glyph unicode="+" horiz-adv-x="808" d="M114 531v65h258v258h66v-258h256v-65h-256v-257h-66v257h-258z" />
<glyph unicode="," horiz-adv-x="184" d="M30 -120l19 100v107h87v-81l-69 -126h-37z" />
<glyph unicode="-" horiz-adv-x="808" d="M114 531v65h580v-65h-580z" />
<glyph unicode="." horiz-adv-x="184" d="M49 0v87h87v-87h-87z" />
<glyph unicode="/" horiz-adv-x="605" d="M16 3l510 1183l64 -24l-510 -1184z" />
<glyph unicode="0" horiz-adv-x="1072" d="M131 589q0 283 107.5 442.5t299 159.5t298 -159.5t106.5 -442.5t-111.5 -446t-293.5 -163t-294 163t-112 446zM216 587q0 -254 85 -394t237 -140t235.5 140t83.5 394t-83.5 393t-235.5 139t-237 -139t-85 -393z" />
<glyph unicode="1" horiz-adv-x="520" d="M13 1024l242 147h50v-1171h-79v1071l-185 -97z" />
<glyph unicode="2" horiz-adv-x="1015" d="M114 0v64q288 241 459 452t171 354t-68 196t-205.5 53t-281.5 -51l-20 66q161 57 314 57t249.5 -73.5t96.5 -236.5t-160.5 -373t-430.5 -441h653v-67h-777z" />
<glyph unicode="3" horiz-adv-x="960" d="M89 44l25 61q112 -58 269.5 -58t250.5 86t93 221q0 87 -63.5 151t-147 91.5t-164.5 27.5h-10v56q120 6 221.5 94t101.5 184q0 72 -61.5 117.5t-181 45.5t-260.5 -50l-18 61q161 61 297.5 61t222 -65t85.5 -161.5t-63.5 -175t-151.5 -126.5q122 -33 200.5 -110.5 t78.5 -200.5q0 -163 -121.5 -271t-293.5 -108t-309 69z" />
<glyph unicode="4" horiz-adv-x="897" d="M56 377v61l570 744h56v-733h186v-72h-186v-377h-79v377h-547zM144 449h459v595z" />
<glyph unicode="5" horiz-adv-x="918" d="M105 34l26 64q115 -45 218 -45t168 29t99 79q67 93 67 208q0 336 -493 413l33 389h524v-65h-453l-20 -262q494 -105 495 -475q0 -152 -104.5 -270.5t-298.5 -118.5q-152 0 -261 54z" />
<glyph unicode="6" horiz-adv-x="988" d="M131 436q0 122 34.5 232t82 186t122 151t129.5 116.5t128 91.5l35 -53q-85 -56 -150.5 -112.5t-139.5 -146.5q-156 -188 -156 -465q0 -202 82 -292.5t207 -90.5t205.5 88.5t80.5 211t-67 200t-179 77.5t-234 -58l-21 50q140 74 282 74t222.5 -95.5t80.5 -245.5 t-106.5 -262.5t-258.5 -112.5q-155 0 -260 95q-120 107 -119 361z" />
<glyph unicode="7" horiz-adv-x="833" d="M114 1099v72h666v-55l-470 -1116h-87l465 1099h-574z" />
<glyph unicode="8" horiz-adv-x="949" d="M122 269.5q0 133.5 72.5 214t203.5 157.5q-98 61 -152 125t-54 152q0 120 84.5 196.5t220.5 76.5t208.5 -74.5t72.5 -174.5t-59 -165.5t-170 -130.5q131 -77 205.5 -156t74.5 -185q0 -138 -97.5 -231.5t-250.5 -93.5t-256 78t-103 211.5zM206 282q0 -115 76.5 -172 t198.5 -57t192.5 70.5t70.5 181.5q0 90 -95 169q-82 68 -182 126q-195 -111 -241 -215q-20 -47 -20 -103zM270 929q0 -82 52.5 -132.5t155.5 -110.5q110 63 165.5 117.5t55.5 132.5t-51.5 130.5t-154 52.5t-163 -54t-60.5 -136z" />
<glyph unicode="9" horiz-adv-x="988" d="M114 815.5q0 150.5 107 263t259 112.5q154 0 259 -93q120 -108 119 -362q0 -122 -34 -232t-82 -186.5t-122 -151t-129 -116.5t-129 -91l-34 52q85 56 150.5 112.5t139.5 145.5q156 190 156 467q0 202 -82 292.5t-207.5 90.5t-206 -88.5t-80.5 -211.5t67.5 -204t179.5 -81 t233 59l21 -51q-141 -73 -282.5 -73t-222 98t-80.5 248.5z" />
<glyph unicode=":" horiz-adv-x="348" d="M131 216v87h87v-87h-87zM131 729v87h87v-87h-87z" />
<glyph unicode=";" horiz-adv-x="348" d="M111 97l20 100v106h87v-80l-69 -126h-38zM131 729v87h87v-87h-87z" />
<glyph unicode="&#x3c;" horiz-adv-x="671" d="M49 542l487 338l31 -45l-426 -293l426 -293l-31 -44z" />
<glyph unicode="=" horiz-adv-x="889" d="M114 382v65h661v-65h-661zM114 716v66h661v-66h-661z" />
<glyph unicode="&#x3e;" horiz-adv-x="671" d="M105 249l426 293l-426 293l31 45l486 -338l-486 -337z" />
<glyph unicode="?" horiz-adv-x="776" d="M82 1101q48 39 127 63t160 24q144 0 234.5 -69.5t90.5 -205.5q0 -127 -124 -251q-52 -53 -104.5 -106t-89.5 -127t-37 -157h-62q0 95 35 174.5t86 133.5t100 105q122 120 121.5 226.5t-70 159.5t-200 53t-238.5 -72zM258 33q0 23 15 37.5t36.5 14.5t37 -14.5t15.5 -37.5 t-15.5 -38t-37 -15t-36.5 15t-15 38z" />
<glyph unicode="@" horiz-adv-x="1492" d="M147 513q0 278 200 481.5t469 203.5q226 0 377.5 -157.5t151.5 -383.5q0 -182 -66 -290.5t-183 -108.5q-72 0 -106.5 42t-57.5 119l-31 108h-341l-136 -257h-62l403 751h43l177 -575q21 -66 37 -94q27 -47 84 -47q88 0 136 93t48 252q0 210 -137 353t-347 143 q-159 0 -298 -87.5t-222 -233t-83 -311.5q0 -208 134.5 -346t338.5 -138t354 78l19 -41q-155 -89 -382.5 -89t-373.5 151t-146 384zM586 575h300l-106 367z" />
<glyph unicode="A" horiz-adv-x="1085" d="M26 0l493 1180h47l494 -1180h-89l-168 406h-525l-168 -406h-84zM306 474h469l-181 434q-56 125 -56 141q-2 -2 -7 -20q-23 -71 -45 -119z" />
<glyph unicode="B" horiz-adv-x="1030" d="M216 3v1165q128 10 261.5 10t231 -65.5t97.5 -190.5q0 -93 -51.5 -173t-124.5 -122q116 -36 195 -124.5t79 -197.5q0 -155 -97 -235t-267 -80t-324 13zM295 69q72 -8 254 -8q120 0 196.5 66.5t76.5 169.5t-74 178t-204 103q-61 13 -140 13h-109v-522zM295 658h80.5 t173.5 -9q73 39 125.5 112.5t52.5 163t-74.5 139t-166.5 49.5t-191 -7v-448z" />
<glyph unicode="C" horiz-adv-x="1220" d="M147 586q0 256 161 430.5t411 174.5q197 0 399 -65l-22 -66q-197 59 -377 59q-214 0 -350 -154t-136 -376.5t158 -379t379 -156.5q194 0 334 58l25 -55q-63 -36 -163 -56t-196 -20q-255 0 -439 175t-184 431z" />
<glyph unicode="D" horiz-adv-x="1335" d="M216 3v1168q167 12 338 12q270 0 452 -168t182 -457q0 -145 -47 -257t-128 -179q-169 -136 -422 -136q-165 0 -375 17zM295 70q106 -12 296 -12q231 0 371 125t140 377.5t-158 401.5t-390 149q-149 0 -259 -9v-1032z" />
<glyph unicode="E" horiz-adv-x="876" d="M216 0v1171h544v-69h-465v-430h421v-67h-421v-536h483v-69h-562z" />
<glyph unicode="F" horiz-adv-x="905" d="M216 0v1171h598v-69h-519v-430h475v-67h-475v-605h-79z" />
<glyph unicode="G" horiz-adv-x="1346" d="M147 587.5q0 254.5 161 429t411 174.5q197 0 399 -65l-22 -66q-197 59 -377 59q-214 0 -350 -154t-136 -377.5t154 -379t375 -155.5q190 0 316 52v481h79v-517q-143 -89 -399 -89t-433.5 176.5t-177.5 431z" />
<glyph unicode="H" horiz-adv-x="1393" d="M216 0v1171h79v-514h804v514h79v-1171h-79v586h-804v-586h-79z" />
<glyph unicode="I" horiz-adv-x="510" d="M216 0v1171h79v-1171h-79z" />
<glyph unicode="J" horiz-adv-x="510" d="M-41 -322q257 188 257 453v1040h79v-988q0 -219 -92 -350q-45 -67 -93 -112.5t-116 -94.5z" />
<glyph unicode="K" horiz-adv-x="1015" d="M216 0v1171h79v-1171h-79zM326 602l503 569h92l-499 -566q100 -120 230.5 -267.5t169 -181.5t60.5 -51.5t68 -38t99 -27.5l-2 -52q-98 2 -162 30.5t-111.5 75t-207.5 229.5t-240 280z" />
<glyph unicode="L" horiz-adv-x="869" d="M216 0v1171h79v-1099h539v-72h-618z" />
<glyph unicode="M" horiz-adv-x="1540" d="M105 0l193 1182h46l366 -869q28 -61 44 -115q4 19 51 113l408 871h44l178 -1182h-81l-128 890q-13 83 -13 126q-2 -2 -8 -16t-20 -46t-28 -66l-387 -827h-44l-343 829q-29 68 -47 121l-17 -125l-134 -886h-80z" />
<glyph unicode="N" horiz-adv-x="1433" d="M216 0v1182h36l772 -890q78 -94 122 -150q-7 79 -8 180v849h80v-1181h-36l-787 906q-81 94 -105 125l2 -36l3 -139v-846h-79z" />
<glyph unicode="O" d="M147 586.5q0 255.5 163.5 430t412 174.5t412.5 -174.5t164 -430t-164 -431t-412.5 -175.5t-412 175.5t-163.5 431zM233 587q0 -226 136.5 -380t354 -154t354 154t136.5 380t-136.5 379t-354.5 153t-354 -153t-136 -379z" />
<glyph unicode="P" horiz-adv-x="951" d="M216 0v1165q136 13 264 13q172 0 276 -80t104 -242t-141.5 -266t-338.5 -104h-18v55h12q162 0 281.5 85t119.5 222t-83.5 198t-224.5 61q-73 0 -172 -6v-1101h-79z" />
<glyph unicode="Q" d="M147 586.5q0 255.5 163.5 430t412 174.5t412.5 -174.5t164 -430.5q0 -150 -61.5 -279t-169.5 -212q336 -203 518 -265q216 -74 390 -74q100 0 227.5 26t183.5 54l20 -46q-64 -32 -196 -63.5t-235 -31.5t-218.5 25.5t-198.5 53.5t-206 88.5t-176 91t-173 99.5 q-130 -72 -282 -73q-248 0 -411.5 175.5t-163.5 431zM233 587q0 -226 136.5 -380t352.5 -154q118 0 213 47q-205 139 -322 139q-74 0 -120 -26l-26 48q61 41 149.5 41t177.5 -43t205 -121q102 72 158.5 190t56.5 258q0 227 -136.5 380t-354.5 153t-354 -153t-136 -379z" />
<glyph unicode="R" horiz-adv-x="1077" d="M216 0v1166q156 12 261 12q167 0 275 -86t108 -243q0 -107 -62 -199t-140 -145q61 -83 150.5 -199t115.5 -145q100 -107 226 -122l-1 -52q-100 2 -162.5 30.5t-119 87.5t-281.5 367q-160 0 -291 10v-482h-79zM295 546q131 -8 244 -8q72 0 154 94.5t82 220t-84.5 190 t-223.5 64.5q-73 0 -172 -6v-555z" />
<glyph unicode="S" horiz-adv-x="896" d="M94 70l39 60q117 -77 258.5 -77t216.5 56.5t75 162.5q0 74 -54 140t-131 119.5t-154 109t-131 132.5t-54 166q0 116 86 184t232.5 68t272.5 -59l-28 -64q-120 50 -237 51q-239 0 -239 -177q0 -76 54 -143t131 -118.5t154 -105.5t131 -129.5t54 -163.5q0 -149 -100 -225.5 t-276 -76.5t-300 90z" />
<glyph unicode="T" horiz-adv-x="943" d="M36 1102v69h872v-69h-397v-1102h-78v1102h-397z" />
<glyph unicode="U" horiz-adv-x="1321" d="M203 482v689h79v-689q0 -433 379 -433t379 433v689h79v-689q0 -235 -113 -368.5t-344 -133.5t-345 134.5t-114 367.5z" />
<glyph unicode="V" horiz-adv-x="1108" d="M26 1171h88l394 -930q41 -100 50 -138q14 53 48 135l393 933h84l-505 -1181h-45z" />
<glyph unicode="W" horiz-adv-x="1703" d="M26 1171h87l300 -881q21 -60 35 -107t16 -52q8 38 55 152l339 866h48l296 -872q35 -103 47 -149q13 54 45 147l302 896h82l-408 -1181h-46l-303 868q-7 22 -14.5 43t-12 37.5t-9.5 27.5l-7 20q-1 8 -1 10q-20 -59 -51 -136l-343 -870h-45z" />
<glyph unicode="X" horiz-adv-x="956" d="M42 0l400 606l-355 565h96l315 -514l328 514h87l-377 -575l378 -596h-95l-337 544l-352 -544h-88z" />
<glyph unicode="Y" horiz-adv-x="1013" d="M26 1171h96l340 -593q30 -52 49 -92q7 22 46 89l341 596h90l-442 -755v-416h-79v419z" />
<glyph unicode="Z" horiz-adv-x="1033" d="M108 0v38l690 1064h-648v69h763v-36l-690 -1066h703v-69h-818z" />
<glyph unicode="[" horiz-adv-x="563" d="M216 -195v1366h322v-72h-243v-1222h243v-72h-322z" />
<glyph unicode="\" horiz-adv-x="605" d="M16 1162l64 24l510 -1183l-64 -25z" />
<glyph unicode="]" horiz-adv-x="563" d="M26 -123h243v1222h-243v72h321v-1366h-321v72z" />
<glyph unicode="^" horiz-adv-x="592" d="M98 718l199 332l197 -332l-36 -27l-161 227l-163 -227z" />
<glyph unicode="_" horiz-adv-x="772" d="M0 -61h774v-72h-774v72z" />
<glyph unicode="`" horiz-adv-x="441" d="M66 1016l93 38l218 -153l-58 -16z" />
<glyph unicode="a" horiz-adv-x="977" d="M20 0l446 1070h44l448 -1070h-83l-154 369h-472l-152 -369h-77zM275 433h419l-161 391q-39 92 -50 125q-25 -74 -44 -123z" />
<glyph unicode="b" horiz-adv-x="936" d="M195 3v1055q116 10 239 10t210.5 -59t87.5 -171q0 -85 -45.5 -157.5t-111.5 -110.5q107 -31 177 -111.5t70 -181.5q0 -141 -89 -213t-251.5 -72t-286.5 11zM270 66q71 -7 228 -7q107 0 176.5 59.5t69.5 151t-69.5 159.5t-181.5 95q-57 14 -149 14l-74 -2v-470zM270 600 q143 0 228 -9q64 35 112 101t48 146.5t-67 124t-160 43.5t-161 -5v-401z" />
<glyph unicode="c" horiz-adv-x="1096" d="M131 531.5q0 233.5 145 391t374 157.5q185 0 363 -58l-20 -62q-171 53 -353 53t-305.5 -138.5t-123.5 -339.5t143.5 -341.5t332 -140.5t312.5 52l25 -52q-123 -69 -341.5 -69t-385 157t-166.5 390.5z" />
<glyph unicode="d" horiz-adv-x="1210" d="M197 3v1060q131 10 308 10q245 0 410 -151.5t165 -412t-151.5 -391.5t-390.5 -131q-166 0 -341 16zM275 67q99 -11 263 -11q209 0 336 113t127 341t-143.5 362t-352.5 134q-149 0 -230 -7v-932z" />
<glyph unicode="e" horiz-adv-x="813" d="M197 0v1063h496v-65h-421v-387h380v-64h-380v-478h438v-69h-513z" />
<glyph unicode="f" horiz-adv-x="836" d="M197 0v1063h545v-65h-470v-387h430v-64h-430v-547h-75z" />
<glyph unicode="g" horiz-adv-x="1208" d="M131 533.5q0 231.5 145 389t374 157.5q185 0 363 -58l-20 -62q-171 53 -353 53t-305.5 -138.5t-123.5 -340t139.5 -341.5t328.5 -140t295 44v437h75v-472q-128 -78 -362.5 -78t-395 159t-160.5 390.5z" />
<glyph unicode="h" horiz-adv-x="1282" d="M197 0v1063h75v-458h739v458h75v-1063h-75v538h-739v-538h-75z" />
<glyph unicode="i" horiz-adv-x="468" d="M197 0v1063h75v-1063h-75z" />
<glyph unicode="j" horiz-adv-x="466" d="M-39 -290q236 172 236 412v941h73v-894q0 -133 -40.5 -234.5t-95 -157t-139.5 -116.5z" />
<glyph unicode="k" horiz-adv-x="927" d="M197 0v1063h75v-1063h-75zM295 547l457 516h90l-454 -513q269 -326 368 -413t198 -98l-2 -50q-92 1 -149 26.5t-101.5 68t-189.5 208.5t-217 255z" />
<glyph unicode="l" horiz-adv-x="786" d="M197 0v1063h75v-994h488v-69h-563z" />
<glyph unicode="m" horiz-adv-x="1377" d="M85 0l174 1070h44l331 -785q40 -99 40 -103q11 34 44 101l368 787h44l163 -1070h-79l-116 808q-12 80 -12 106l-48 -108l-348 -750h-44l-310 752q-20 44 -39 103q0 -1 -2.5 -17.5t-6 -44t-6.5 -44.5l-123 -805h-74z" />
<glyph unicode="n" horiz-adv-x="1302" d="M197 0v1070h36l697 -803q38 -42 70 -84t34 -44q-4 39 -4 155v769h76v-1069h-36l-711 816l-90 109q3 -33 3 -154v-765h-75z" />
<glyph unicode="o" horiz-adv-x="1333" d="M131 532q0 230 154 389t381.5 159t381.5 -159t154 -389t-154 -389t-381.5 -159t-381.5 159t-154 389zM210 532q0 -202 130 -340.5t327.5 -138.5t327 138.5t129.5 340.5t-129.5 341.5t-327 139.5t-327.5 -139.5t-130 -341.5z" />
<glyph unicode="p" horiz-adv-x="864" d="M197 0v1057q123 13 259.5 13t231.5 -73t95 -220.5t-129.5 -241.5t-306.5 -94h-17v52h11q145 0 253.5 77t108.5 200t-76.5 178.5t-200.5 55.5q-66 0 -154 -6v-998h-75z" />
<glyph unicode="q" horiz-adv-x="1332" d="M131 532q0 230 154 389t381.5 159t381 -159t153.5 -388q0 -136 -57.5 -252.5t-157.5 -191.5q390 -231 600 -279q106 -27 204 -27q2 0 4 1q100 0 215.5 23t164.5 47l18 -43q-62 -29 -181 -57.5t-223 -28.5t-222 27t-245.5 86t-197 95.5t-201.5 113.5q-115 -63 -251 -63h-4 q-228 0 -382 159t-154 389zM210 532q0 -202 129.5 -340.5t327.5 -138.5q103 0 187 39q-184 124 -286 124h-2q-60 0 -109 -22l-24 45q56 36 124.5 36t134 -24.5t110.5 -50.5t117 -74q95 64 150 171.5t55 235.5q0 201 -130.5 340.5t-327.5 139.5t-326.5 -139.5t-129.5 -341.5z " />
<glyph unicode="r" horiz-adv-x="996" d="M197 0v1058q141 12 239 12q150 0 248.5 -78t98.5 -222q0 -96 -55.5 -178t-125.5 -134q195 -259 240 -309q94 -97 204 -110l-2 -50q-92 1 -149 26.5t-114 86t-248 326.5q-133 0 -261 8v-436h-75zM272 498q118 -8 219 -8q64 0 138 85t74 198t-77 172t-200 59q-66 0 -154 -6 v-500z" />
<glyph unicode="s" horiz-adv-x="794" d="M72 66l39 57q111 -75 236 -75q1 0 2 -1q123 1 193 53t69 147q0 82 -70 151q-49 49 -132 106.5t-115.5 83t-77.5 67.5q-83 83 -83 193t77.5 172.5t215.5 62.5t248 -54l-28 -61q-102 50 -235 50q-89 0 -144.5 -43t-55.5 -120q0 -89 74 -159q53 -50 135.5 -106.5t114 -81.5 t75.5 -67q80 -80 80 -186q0 -136 -91 -205.5t-254 -69.5t-273 86z" />
<glyph unicode="t" horiz-adv-x="846" d="M26 996v67h795v-67h-361v-996h-74v996h-360z" />
<glyph unicode="u" horiz-adv-x="1248" d="M186 458v605h76v-605q0 -408 362 -408t362 408v605h76v-605q0 -223 -108 -348.5t-329.5 -125.5t-330 126t-108.5 348z" />
<glyph unicode="v" horiz-adv-x="997" d="M20 1063h82l401 -945q8 25 41 105l355 840h79l-457 -1069h-44z" />
<glyph unicode="w" horiz-adv-x="1538" d="M20 1063h83l271 -797q23 -66 42 -146q9 33 51 139l307 783h47l267 -788l39 -132q5 31 41 130l272 811h78l-369 -1069h-45q-274 784 -283 816q-15 44 -30 86q-8 -28 -44 -116l-309 -786h-44z" />
<glyph unicode="x" horiz-adv-x="848" d="M26 0l364 550l-323 513h92l283 -460l297 460h82l-341 -521l342 -542h-90l-304 488l-318 -488h-84z" />
<glyph unicode="y" horiz-adv-x="915" d="M20 1063h90l309 -527q36 -72 41 -78q10 22 42 76l309 529h85l-402 -686v-377h-73v380z" />
<glyph unicode="z" horiz-adv-x="920" d="M89 0v38l625 960h-584v65h694v-36l-626 -958h634v-69h-743z" />
<glyph unicode="{" horiz-adv-x="474" d="M33 491v59q80 7 136 50.5t56 128.5q0 41 -18 122t-18 124q0 108 44 158t147 50v-61q-61 0 -89.5 -34t-28.5 -122q0 -34 17.5 -107t17.5 -110q0 -177 -150 -228q149 -51 150 -227q0 -38 -17.5 -111t-17.5 -108q0 -87 28.5 -121t89.5 -34v-61q-103 0 -147 50t-44 158 q0 43 18 124t18 122q0 85 -56 128.5t-136 49.5z" />
<glyph unicode="|" horiz-adv-x="460" d="M197 -367v1533h67v-1533h-67z" />
<glyph unicode="}" horiz-adv-x="474" d="M95 -80q61 0 89.5 34.5t28.5 120.5q0 35 -17.5 107.5t-17.5 111.5q0 176 150 227q-149 50 -150 228q0 37 17.5 110t17.5 107q0 88 -28.5 122t-89.5 34v61q103 0 147 -50t44 -158q0 -42 -18 -123.5t-18 -122.5q0 -85 56 -128.5t136 -50.5v-59q-80 -6 -136 -49.5 t-56 -128.5q0 -41 18 -122t18 -124q0 -108 -44 -158t-147 -50v61z" />
<glyph unicode="~" horiz-adv-x="1058" d="M114 558q48 76 84 116q64 72 151 72q56 0 125 -35q52 -26 67.5 -35t36 -20.5t29.5 -15.5t26 -12.5t29 -11.5q31 -10 49 -10q83 0 180 149l53 -31q-83 -134 -158 -167q-37 -19 -67.5 -18.5t-50 4.5t-33.5 7.5t-35.5 14t-30 14.5t-31.5 17q-140 82 -190.5 82t-99 -46.5 t-82.5 -101.5z" />
<glyph unicode="&#xa1;" horiz-adv-x="464" d="M180 1012.5q0 22.5 15 37.5t37.5 15t37.5 -15t15 -37.5t-15 -37.5t-37.5 -15t-37.5 15t-15 37.5zM195 -20l8 819h59l8 -819h-75z" />
<glyph unicode="&#xa2;" horiz-adv-x="1096" d="M131 533q0 228 140 384t363 163l23 236h65l-23 -236q161 -8 314 -56l-20 -61q-159 46 -300 51l-95 -955q48 -9 98 -10q180 0 305 53l23 -52q-122 -67 -328 -66q-54 0 -105 10l-21 -224h-65l22 238q-173 53 -284.5 194.5t-111.5 330.5zM208 533q0 -156 91 -280.5 t235 -175.5l93 939q-186 -10 -302.5 -147.5t-116.5 -335.5z" />
<glyph unicode="&#xa3;" horiz-adv-x="877" d="M25 0v72h172v557h-172v73h172v133q0 182 74.5 267.5t242.5 85.5q133 0 292 -53l-18 -58q-138 45 -273 45t-187.5 -65.5t-52.5 -221.5v-133h416v-73h-416v-557h531v-72h-781z" />
<glyph unicode="&#xa4;" horiz-adv-x="856" d="M114 259l105 105q-49 70 -49 159.5t48 156.5l-104 105l52 50l100 -103q72 59 162.5 59t162.5 -55l100 99l51 -50l-101 -102q50 -75 50 -163.5t-52 -158.5l103 -102l-51 -51l-101 102q-69 -55 -162.5 -55t-158.5 56l-103 -103zM242 523q0 -85 52.5 -141t136 -56t136 56 t52.5 141t-52.5 140.5t-136 55.5t-136 -55.5t-52.5 -140.5z" />
<glyph unicode="&#xa5;" horiz-adv-x="1000" d="M20 1171h94l332 -496q32 -49 59 -92q1 7 55 89l331 499h91l-428 -635h276v-72h-291v-202h291v-72h-291v-190h-79v190h-290v72h290v202h-290v72h277z" />
<glyph unicode="&#xa6;" horiz-adv-x="460" d="M197 202h67v-569h-67v569zM197 596v570h67v-570h-67z" />
<glyph unicode="&#xa7;" horiz-adv-x="816" d="M62 -189l35 53q109 -74 236 -74t197 53.5t70 150.5q0 52 -35 93t-89.5 65.5t-116 54t-115.5 59t-89 82t-35 121.5q0 100 71 157t191 72q-185 84 -224 170q-19 41 -19 95q0 105 76.5 166.5t205.5 61.5t246 -56l-25 -57q-101 49 -210.5 49t-163.5 -41.5t-54 -112.5 t49.5 -117t119 -76.5t139 -62.5t119 -87.5t49.5 -145t-62 -154t-158 -92.5q97 -44 151 -97.5t54 -138.5q0 -136 -91 -206t-235 -70q-80 0 -159 24t-128 61zM195 471.5q0 -66.5 46.5 -109.5t135.5 -84q93 10 165 66t72 146t-123 156h-45.5t-96.5 -12.5t-106.5 -54t-47.5 -108 z" />
<glyph unicode="&#xa8;" horiz-adv-x="579" d="M66 890v87h86v-87h-86zM428 890v87h86v-87h-86z" />
<glyph unicode="&#xa9;" d="M147 586.5q0 255.5 163.5 430t412 174.5t412.5 -174.5t164 -430t-164 -431t-412.5 -175.5t-412 175.5t-163.5 431zM214 587q0 -232 142 -388.5t366.5 -156.5t367 156.5t142.5 388.5t-141.5 387t-367 155t-367.5 -155t-142 -387zM370 582.5q0 156.5 98 262t237 105.5 t263 -39l-19 -54q-135 34 -231 34q-124 0 -203 -88.5t-79 -218t92.5 -219.5t214.5 -90t211 36l21 -47q-89 -49 -235.5 -49.5t-258 105.5t-111.5 262.5z" />
<glyph unicode="&#xaa;" horiz-adv-x="658" d="M98 655l215 511h33l214 -511h-57l-72 169h-203l-72 -169h-58zM244 872h167l-69 168q-12 30 -12 38q-5 -9 -8.5 -20t-7.5 -20z" />
<glyph unicode="&#xab;" horiz-adv-x="740" d="M82 544l267 305l48 -39l-233 -266l233 -266l-48 -39zM344 544l267 305l47 -39l-232 -266l232 -266l-47 -39z" />
<glyph unicode="&#xac;" horiz-adv-x="1040" d="M114 531v67h810v-444h-67v377h-743z" />
<glyph unicode="&#xad;" horiz-adv-x="808" d="M114 531v65h580v-65h-580z" />
<glyph unicode="&#xae;" d="M147 586.5q0 255.5 163.5 430t412 174.5t412.5 -174.5t164 -430t-164 -431t-412.5 -175.5t-412 175.5t-163.5 431zM214 587q0 -232 142 -388.5t366.5 -156.5t367 156.5t142.5 388.5t-141.5 387t-367 155t-367.5 -155t-142 -387zM518 225v714q162 5 204 5q102 0 167 -53 t65 -139.5t-47 -148.5t-94 -89l128 -180q36 -50 93 -59v-47q-60 0 -86.5 11t-54.5 53l-151 216q-60 0 -159 6v-289h-65zM583 567q83 -5 175 -5q41 0 84.5 54t43.5 125.5t-46.5 108t-136 36.5t-120.5 -3v-316z" />
<glyph unicode="&#xaf;" horiz-adv-x="622" d="M114 1152v66h394v-66h-394z" />
<glyph unicode="&#xb0;" horiz-adv-x="589" d="M114 1018.5q0 79.5 51 134t129 54.5t129.5 -54.5t51.5 -134t-51.5 -135.5t-129.5 -56t-129 56t-51 135.5zM172 1017.5q0 -59.5 33.5 -97.5t89 -38t89.5 38t34 97.5t-34 98t-89.5 38.5t-89 -38.5t-33.5 -98z" />
<glyph unicode="&#xb1;" horiz-adv-x="808" d="M114 0v72h580v-72h-580zM114 527v73h255v254h72v-254h253v-73h-253v-253h-72v253h-255z" />
<glyph unicode="&#xb2;" horiz-adv-x="688" d="M98 480v59q361 300 360 455q0 69 -34 96.5t-113.5 27.5t-163.5 -35l-21 69q105 36 199 36q211 0 211 -194q0 -183 -310 -445h364v-69h-492z" />
<glyph unicode="&#xb3;" horiz-adv-x="646" d="M98 511l27 59q78 -34 161.5 -34t133 45t49.5 113t-68 104.5t-129 36.5q-11 0 -22 -1v62q71 0 127.5 46t56.5 88q0 85 -116 86q-76 0 -166 -33l-18 64q97 41 184.5 41t139.5 -41t52 -109q0 -90 -99 -160q138 -54 138 -184q0 -98 -73.5 -163t-183 -65t-194.5 45z" />
<glyph unicode="&#xb4;" horiz-adv-x="425" d="M66 901l284 157l11 -87l-239 -86z" />
<glyph unicode="&#xb5;" horiz-adv-x="1221" d="M56 -374q138 360 139 736q-5 48 -5 96v607h72v-607q0 -198 79.5 -304.5t269.5 -106.5t269.5 107t79.5 304v607h72v-607q0 -475 -421 -474q-262 0 -361 185q-31 -299 -122 -543h-72z" />
<glyph unicode="&#xb6;" horiz-adv-x="1020" d="M82 880.5q0 156.5 103 233t264 76.5q75 0 356 -19v-1389h-63v1336l-64 3v-1431h-62v1429q-20 2 -39 2q-89 0 -158 -50q-83 -61 -83 -189t65.5 -209.5t153.5 -82.5v-49h-19q-182 0 -318 91.5t-136 248z" />
<glyph unicode="&#xb7;" horiz-adv-x="348" d="M131 591v87h87v-87h-87z" />
<glyph unicode="&#xb8;" horiz-adv-x="494" d="M114 -283l36 36q33 -41 76.5 -41t65 23t21.5 60.5t-22 60t-50 22.5t-49 -8l-48 20l42 110h66l-24 -70q11 1 21 1q53 0 92 -36.5t39 -97.5t-41.5 -102t-110.5 -41t-114 63z" />
<glyph unicode="&#xb9;" horiz-adv-x="347" d="M49 1088l154 92h46v-697h-74v600l-100 -51z" />
<glyph unicode="&#xba;" horiz-adv-x="696" d="M98 910q0 111 70.5 186t178.5 75t179.5 -75t71.5 -186t-71.5 -187.5t-179.5 -76.5t-178.5 76.5t-70.5 187.5zM172 909q0 -85 47.5 -138t129 -53t128.5 53t47 138t-47 138.5t-128.5 53.5t-129 -53.5t-47.5 -138.5z" />
<glyph unicode="&#xbb;" horiz-adv-x="740" d="M82 278l232 266l-232 266l48 39l267 -305l-267 -305zM344 278l233 266l-233 266l47 39l267 -305l-267 -305z" />
<glyph unicode="&#xbc;" horiz-adv-x="1179" d="M114 1055l155 92h45v-697h-73v600l-100 -51zM159 -2l749 1201l57 -34l-747 -1199zM572 216v53l330 433h55v-417h108v-69h-108v-216h-74v216h-311zM669 285h214v282z" />
<glyph unicode="&#xbd;" horiz-adv-x="1351" d="M114 1055l155 92h45v-697h-73v600l-100 -51zM159 -2l749 1201l57 -34l-747 -1199zM746 0v59q360 300 360 455q0 69 -34.5 96.5t-114 27.5t-163.5 -35l-20 69q104 36 197 36q211 0 212 -194q0 -183 -309 -445h363v-69h-491z" />
<glyph unicode="&#xbe;" horiz-adv-x="1295" d="M114 1055l155 92h45v-697h-73v600l-100 -51zM159 -2l749 1201l57 -34l-747 -1199zM730 30l27 59q78 -35 161.5 -35t133 45t49.5 113t-68 105t-129 37q-11 0 -21 -2v62q71 0 127 46t56 89q0 85 -116 85q-75 0 -165 -32l-19 63q97 41 184.5 41t139.5 -41t52 -108 q0 -91 -98 -160q138 -55 138 -184q0 -99 -74 -164t-183 -65t-195 46z" />
<glyph unicode="&#xbf;" horiz-adv-x="776" d="M82 259q0 127 124 252q53 51 105.5 104.5t89.5 127t37 156.5h62q0 -95 -35 -174t-86 -133t-101 -104q-121 -122 -120.5 -228t70 -159.5t199.5 -53.5t238 73l29 -50q-48 -39 -127 -62.5t-159 -23.5q-144 0 -235 69.5t-91 205.5zM414 1139q0 21 16 36.5t37 15.5t36.5 -15.5 t15.5 -36.5t-15.5 -37t-36.5 -16t-37 16t-16 37z" />
<glyph unicode="&#xc0;" horiz-adv-x="1085" d="M26 0l493 1180h47l494 -1180h-89l-168 406h-525l-168 -406h-84zM306 474h469l-181 434q-56 125 -56 141q-2 -2 -7 -20q-23 -71 -45 -119zM306 1371l94 38l218 -152l-58 -17z" />
<glyph unicode="&#xc1;" horiz-adv-x="1085" d="M26 0l493 1180h47l494 -1180h-89l-168 406h-525l-168 -406h-84zM306 474h469l-181 434q-56 138 -56 141q-2 -2 -7 -20q-23 -71 -45 -119zM475 1257l285 157l10 -87l-239 -87z" />
<glyph unicode="&#xc2;" horiz-adv-x="1085" d="M26 0l493 1180h47l494 -1180h-89l-168 406h-525l-168 -406h-84zM306 474h469l-181 434q-56 125 -56 141q-2 -2 -7 -20q-23 -71 -45 -119zM341 1260l192 146l191 -146l-21 -30l-170 84l-171 -84z" />
<glyph unicode="&#xc3;" horiz-adv-x="1085" d="M26 0l493 1180h47l494 -1180h-89l-168 406h-525l-168 -406h-84zM236 1268q23 36 40.5 59t54 49t63.5 26t41.5 -2t32 -9.5t25 -11t29.5 -14.5t25 -13q79 -44 113 -45q62 0 125 100l42 -28q-23 -36 -40 -58.5t-54 -49t-64 -26.5t-41.5 2.5t-32 10l-24.5 10.5t-29.5 14.5 t-25.5 13.5q-78 44 -113 44q-62 0 -125 -100zM306 474h469l-181 434q-56 125 -56 141q-2 -2 -7 -20q-23 -71 -45 -119z" />
<glyph unicode="&#xc4;" horiz-adv-x="1085" d="M26 0l493 1180h47l494 -1180h-89l-168 406h-525l-168 -406h-84zM306 474h469l-181 434q-56 125 -56 141q-2 -2 -7 -20q-23 -71 -45 -119zM308 1245v87h87v-87h-87zM670 1245v87h87v-87h-87z" />
<glyph unicode="&#xc5;" horiz-adv-x="1085" d="M26 0l471 1126q-42 12 -66.5 49.5t-24.5 90t38.5 92.5t96 40t97 -40t39.5 -92.5t-25 -89t-66 -49.5l474 -1127h-89l-168 406h-525l-168 -406h-84zM306 474h469l-181 434q-56 125 -56 141q-2 -2 -7 -20q-23 -71 -45 -119zM467 1258.5q0 -32.5 21.5 -54.5t52.5 -22t52 22 t21 54.5t-21 55.5t-52 23t-52.5 -23t-21.5 -55.5z" />
<glyph unicode="&#xc6;" horiz-adv-x="1387" d="M26 0l701 1171h544v-69h-465v-430h421v-67h-421v-536h484v-69h-563v605h-250l-359 -605h-92zM516 672h211v366q-41 -81 -70 -130z" />
<glyph unicode="&#xc7;" horiz-adv-x="1220" d="M147 586.5q0 255.5 161 430t411 174.5q197 0 399 -65l-22 -66q-197 59 -377 59q-214 0 -350 -154t-136 -376.5t158 -379t379 -156.5q194 0 334 58l25 -55q-107 -62 -300 -74l-18 -52q11 1 21 1q53 0 92 -36.5t39 -97.5t-41.5 -102t-110.5 -41t-113 63l36 36 q33 -41 76.5 -41t64.5 23t21 60.5t-22 60t-50 22.5t-49 -8l-48 20l35 90q-254 3 -434.5 177t-180.5 429.5z" />
<glyph unicode="&#xc8;" horiz-adv-x="876" d="M216 0v1171h544v-69h-465v-430h421v-67h-421v-536h483v-69h-562zM302 1371l93 38l218 -152l-58 -17z" />
<glyph unicode="&#xc9;" horiz-adv-x="876" d="M216 0v1171h544v-69h-465v-430h421v-67h-421v-536h483v-69h-562zM364 1257l285 157l9 -87l-239 -87z" />
<glyph unicode="&#xca;" horiz-adv-x="876" d="M216 0v1171h544v-69h-465v-430h421v-67h-421v-536h483v-69h-562zM295 1260l191 146l192 -146l-21 -30l-171 84l-170 -84z" />
<glyph unicode="&#xcb;" horiz-adv-x="876" d="M216 0v1171h544v-69h-465v-430h421v-67h-421v-536h483v-69h-562zM252 1245v87h87v-87h-87zM614 1245v87h88v-87h-88z" />
<glyph unicode="&#xcc;" horiz-adv-x="510" d="M67 1371l94 38l217 -152l-57 -17zM216 0v1171h79v-1171h-79z" />
<glyph unicode="&#xcd;" horiz-adv-x="510" d="M174 1257l284 157l11 -87l-239 -87zM216 0v1171h79v-1171h-79z" />
<glyph unicode="&#xce;" horiz-adv-x="510" d="M64 1260l191 146l192 -146l-21 -30l-171 84l-170 -84zM216 0v1171h79v-1171h-79z" />
<glyph unicode="&#xcf;" horiz-adv-x="510" d="M82 1250v87h87v-87h-87zM216 0v1171h79v-1171h-79zM342 1250v87h88v-87h-88z" />
<glyph unicode="&#xd0;" horiz-adv-x="1335" d="M10 580v72h206v519q167 11 338 12q270 0 452 -168t182 -457q0 -145 -47 -257t-128 -179q-169 -136 -422 -136q-165 0 -375 17v577h-206zM295 70q107 -12 296 -12q231 0 371 125t140 377.5t-158 401.5t-390 149q-149 0 -259 -9v-450h295v-72h-295v-510z" />
<glyph unicode="&#xd1;" horiz-adv-x="1433" d="M216 0v1182h36l777 -905q75 -83 121 -146q-6 79 -6 177v863h74v-1181h-36l-794 923q-82 89 -105 119l2 -36l3 -134v-862h-72zM421 1268q23 36 40 59t54 49t64 26t42 -2t32 -9.5t24.5 -11t29.5 -14.5t25 -13q78 -44 114 -45q62 0 124 100l43 -28q-23 -36 -40.5 -58.5 t-54 -49t-64 -26.5t-42 2.5t-32 10l-24.5 10.5t-29 14.5t-25 13.5q-80 44 -114 44q-62 0 -124 -100z" />
<glyph unicode="&#xd2;" d="M147 586.5q0 255.5 163.5 430t412 174.5t412.5 -174.5t164 -430t-164 -431t-412.5 -175.5t-412 175.5t-163.5 431zM233 587q0 -226 136.5 -380t354 -154t354 154t136.5 380t-136.5 379t-354.5 153t-354 -153t-136 -379zM558 1371l94 38l218 -152l-57 -17z" />
<glyph unicode="&#xd3;" d="M147 586.5q0 255.5 163.5 430t412 174.5t412.5 -174.5t164 -430t-164 -431t-412.5 -175.5t-412 175.5t-163.5 431zM233 587q0 -226 136.5 -380t354 -154t354 154t136.5 380t-136.5 379t-354.5 153t-354 -153t-136 -379zM638 1257l284 157l10 -87l-239 -87z" />
<glyph unicode="&#xd4;" d="M147 586.5q0 255.5 163.5 430t412 174.5t412.5 -174.5t164 -430t-164 -431t-412.5 -175.5t-412 175.5t-163.5 431zM233 587q0 -226 136.5 -380t354 -154t354 154t136.5 380t-136.5 379t-354.5 153t-354 -153t-136 -379zM558 1260l192 146l192 -146l-21 -30l-171 84 l-170 -84z" />
<glyph unicode="&#xd5;" d="M147 586.5q0 255.5 163.5 430t412 174.5t412.5 -174.5t164 -430t-164 -431t-412.5 -175.5t-412 175.5t-163.5 431zM233 587q0 -226 136.5 -380t354 -154t354 154t136.5 380t-136.5 379t-354.5 153t-354 -153t-136 -379zM454 1268q23 36 40 59t54 49t64 26t42 -2t32 -9.5 t24.5 -11t29.5 -14.5t25 -13q78 -44 113 -45q63 0 124 100l44 -28q-24 -36 -41 -58.5t-54 -49t-64 -26.5t-42 2.5t-32 10t-24 10.5t-29 14.5t-26 13.5q-79 44 -113 44q-63 0 -124 -100z" />
<glyph unicode="&#xd6;" d="M147 586.5q0 255.5 163.5 430t412 174.5t412.5 -174.5t164 -430t-164 -431t-412.5 -175.5t-412 175.5t-163.5 431zM233 587q0 -226 136.5 -380t354 -154t354 154t136.5 380t-136.5 379t-354.5 153t-354 -153t-136 -379zM526 1245v87h87v-87h-87zM888 1245v87h87v-87h-87z " />
<glyph unicode="&#xd7;" horiz-adv-x="856" d="M114 259l263 262l-263 264l52 50l262 -263l263 263l51 -50l-264 -264l264 -262l-51 -51l-263 262l-262 -262z" />
<glyph unicode="&#xd8;" d="M147 586q0 256 163.5 430.5t411.5 174.5q176 0 315 -93l100 145l53 -37l-100 -146q100 -83 154.5 -206.5t54.5 -267.5q0 -255 -164 -430.5t-413 -175.5q-175 0 -314 94l-98 -143l-52 36l99 144q-100 85 -155 208t-55 267zM233 573q0 -240 167 -398l594 862 q-117 81 -272 82q-217 0 -353 -153t-136 -393zM450 134q118 -81 272 -81q218 0 355 153.5t137 379.5q0 256 -168 412z" />
<glyph unicode="&#xd9;" horiz-adv-x="1321" d="M203 482v689h79v-689q0 -433 379 -433t379 433v689h79v-689q0 -235 -113 -368.5t-344 -133.5t-345 134.5t-114 367.5zM478 1371l94 38l218 -152l-58 -17z" />
<glyph unicode="&#xda;" horiz-adv-x="1321" d="M203 482v689h79v-689q0 -433 379 -433t379 433v689h79v-689q0 -235 -113 -368.5t-344 -133.5t-345 134.5t-114 367.5zM552 1257l286 157l9 -87l-239 -87z" />
<glyph unicode="&#xdb;" horiz-adv-x="1321" d="M203 482v689h79v-689q0 -433 379 -433t379 433v689h79v-689q0 -235 -113 -368.5t-344 -133.5t-345 134.5t-114 367.5zM491 1260l192 146l192 -146l-21 -30l-171 84l-170 -84z" />
<glyph unicode="&#xdc;" horiz-adv-x="1321" d="M203 482v689h79v-689q0 -433 379 -433t379 433v689h79v-689q0 -235 -113 -368.5t-344 -133.5t-345 134.5t-114 367.5zM458 1245v87h88v-87h-88zM821 1245v87h87v-87h-87z" />
<glyph unicode="&#xdd;" horiz-adv-x="1013" d="M26 1171h96l340 -593q30 -52 49 -92q7 22 46 89l341 596h90l-442 -755v-416h-79v419zM380 1257l285 157l10 -87l-239 -87z" />
<glyph unicode="&#xde;" horiz-adv-x="951" d="M216 0v1171h79v-286q128 6 185 6q380 0 380 -295q0 -162 -137 -243t-337 -81h-24v54h16q168 0 282.5 63t114.5 196.5t-81 184.5t-227 51q-73 0 -172 -7v-814h-79z" />
<glyph unicode="&#xdf;" horiz-adv-x="1601" d="M72 66l39 57q111 -75 236 -75.5t194.5 52t69.5 147.5q0 82 -70 151q-49 49 -132 106.5t-115.5 83t-77.5 67.5q-83 83 -83 193t77.5 172.5t215.5 62.5t248 -54l-28 -61q-102 50 -235 50q-89 0 -144.5 -43t-55.5 -120q0 -89 74 -159q53 -50 135.5 -106.5t114 -81.5 t75.5 -67q80 -80 80 -186q0 -136 -91 -205.5t-254 -69.5t-273 86zM880 66l39 57q111 -75 235.5 -75.5t194.5 52t70 147.5q0 82 -69 151q-50 49 -133 106.5t-116 83t-77 67.5q-83 83 -83 193t77.5 172.5t214.5 62.5t248 -54l-27 -61q-102 50 -235 50q-89 0 -144.5 -43 t-55.5 -120q0 -89 74 -159q53 -50 135 -106.5t113.5 -81.5t73.5 -67q82 -80 83 -186q0 -136 -91 -205.5t-254 -69.5t-273 86z" />
<glyph unicode="&#xe0;" horiz-adv-x="977" d="M20 0l446 1070h44l448 -1070h-83l-154 369h-472l-152 -369h-77zM275 433h419l-161 391q-39 92 -50 125q-25 -74 -44 -123zM292 1279l93 39l218 -153l-57 -16z" />
<glyph unicode="&#xe1;" horiz-adv-x="977" d="M20 0l446 1070h44l448 -1070h-83l-154 369h-472l-152 -369h-77zM275 433h419l-161 391q-39 92 -50 125q-25 -74 -44 -123zM398 1165l285 157l10 -87l-239 -86z" />
<glyph unicode="&#xe2;" horiz-adv-x="977" d="M20 0l446 1070h44l448 -1070h-83l-154 369h-472l-152 -369h-77zM275 433h419l-161 391q-39 92 -50 125q-25 -74 -44 -123zM288 1178l192 146l192 -146l-22 -29l-170 83l-170 -83z" />
<glyph unicode="&#xe3;" horiz-adv-x="977" d="M20 0l446 1070h44l448 -1070h-83l-154 369h-472l-152 -369h-77zM183 1171q23 36 40.5 59.5t54 49.5t64 26t42 -2.5t32 -10t24.5 -11l29 -14.5t25 -13q79 -44 114 -45q62 0 124 100l43 -27q-23 -36 -40 -59t-54 -49t-64 -26t-42 2.5t-32 9.5t-24.5 10t-29.5 15t-25 13 q-79 44 -114 44q-62 0 -124 -99zM275 433h419l-161 391q-39 92 -50 125q-25 -74 -44 -123z" />
<glyph unicode="&#xe4;" horiz-adv-x="977" d="M20 0l446 1070h44l448 -1070h-83l-154 369h-472l-152 -369h-77zM255 1154v86h87v-86h-87zM275 433h419l-161 391q-39 92 -50 125q-25 -74 -44 -123zM618 1154v86h87v-86h-87z" />
<glyph unicode="&#xe5;" horiz-adv-x="979" d="M20 0l426 1018q-41 12 -66.5 49t-25.5 89.5t38.5 93t96 40.5t96.5 -40.5t39 -93t-25 -89.5t-68 -49l429 -1018h-80l-154 370h-479l-152 -370h-75zM274 431h425l-163 395q-51 113 -51 128q-2 -2 -7 -19q-11 -37 -40 -108zM414 1150.5q0 -32.5 21.5 -55t52.5 -22.5 t52.5 22.5t21.5 55t-21.5 55.5t-52.5 23t-52.5 -23t-21.5 -55.5z" />
<glyph unicode="&#xe6;" horiz-adv-x="1268" d="M16 0l638 1065h493v-63h-423v-391h383v-62h-383v-487h439v-62h-509v549h-230l-324 -549h-84zM462 611h192v333q-35 -69 -64 -118z" />
<glyph unicode="&#xe7;" horiz-adv-x="1096" d="M131 533.5q0 231.5 145 389t374 157.5q185 0 363 -58l-20 -62q-171 53 -353 53t-305.5 -138.5t-123.5 -339.5t143.5 -341.5t332 -140.5t312.5 52l25 -52q-97 -56 -272 -67l-20 -56q11 1 22 1q52 0 91.5 -36.5t39.5 -97.5t-42 -102t-111 -41t-113 63l36 36 q33 -41 76.5 -41t65 23t21.5 60.5t-22 60t-50 22.5t-50 -8l-47 20l36 94q-230 5 -392 161.5t-162 388z" />
<glyph unicode="&#xe8;" horiz-adv-x="813" d="M197 0v1063h496v-65h-421v-387h380v-64h-380v-478h438v-69h-513zM282 1279l93 39l218 -153l-57 -16z" />
<glyph unicode="&#xe9;" horiz-adv-x="813" d="M197 0v1063h496v-65h-421v-387h380v-64h-380v-478h438v-69h-513zM313 1165l285 157l10 -87l-239 -86z" />
<glyph unicode="&#xea;" horiz-adv-x="813" d="M197 0v1063h496v-65h-421v-387h380v-64h-380v-478h438v-69h-513zM259 1178l191 146l192 -146l-21 -29l-171 83l-170 -83z" />
<glyph unicode="&#xeb;" horiz-adv-x="813" d="M197 0v1063h496v-65h-421v-387h380v-64h-380v-478h438v-69h-513zM214 1155v87h88v-87h-88zM577 1155v87h86v-87h-86z" />
<glyph unicode="&#xec;" horiz-adv-x="468" d="M34 1279l94 39l218 -153l-58 -16zM197 0v1063h75v-1063h-75z" />
<glyph unicode="&#xed;" horiz-adv-x="468" d="M141 1165l285 157l10 -87l-239 -86zM197 0v1063h75v-1063h-75z" />
<glyph unicode="&#xee;" horiz-adv-x="468" d="M42 1178l192 146l192 -146l-21 -29l-171 83l-170 -83zM197 0v1063h75v-1063h-75z" />
<glyph unicode="&#xef;" horiz-adv-x="468" d="M77 1158v87h87v-87h-87zM197 0v1063h75v-1063h-75zM305 1158v87h86v-87h-86z" />
<glyph unicode="&#xf0;" horiz-adv-x="1210" d="M11 526v65h186v472q131 10 308 10q245 0 410 -151.5t165 -412t-151.5 -391.5t-390.5 -131q-166 0 -341 16v523h-186zM275 67q99 -11 263 -11q209 0 336 113t127 341t-143.5 362t-352.5 134q-149 0 -230 -7v-408h264v-65h-264v-459z" />
<glyph unicode="&#xf1;" horiz-adv-x="1302" d="M197 0v1070h36l704 -816q37 -43 69 -84.5t34 -43.5q-3 40 -3 154v783h69v-1069h-36l-718 832l-90 109q4 -33 4 -153v-782h-69zM357 1171q23 36 40 59.5t54 49.5t64 26t42 -2.5t32 -10t24.5 -11t29.5 -14.5l26 -13q78 -44 113 -45q62 0 124 100l43 -27q-23 -36 -40.5 -59 t-54 -49t-64 -26t-42 2.5t-32 9.5t-24.5 10t-29 15t-25 13q-80 44 -114 44q-62 0 -124 -99z" />
<glyph unicode="&#xf2;" horiz-adv-x="1333" d="M131 532q0 230 154 389t381.5 159t381.5 -159t154 -389t-154 -389t-381.5 -159t-381.5 159t-154 389zM210 532q0 -202 130 -340.5t327.5 -138.5t327 138.5t129.5 340.5t-129.5 341.5t-327 139.5t-327.5 -139.5t-130 -341.5zM450 1279l94 39l218 -153l-57 -16z" />
<glyph unicode="&#xf3;" horiz-adv-x="1333" d="M131 532q0 230 154 389t381.5 159t381.5 -159t154 -389t-154 -389t-381.5 -159t-381.5 159t-154 389zM210 532q0 -202 130 -340.5t327.5 -138.5t327 138.5t129.5 340.5t-129.5 341.5t-327 139.5t-327.5 -139.5t-130 -341.5zM598 1165l285 157l10 -87l-239 -86z" />
<glyph unicode="&#xf4;" horiz-adv-x="1333" d="M131 532q0 230 154 389t381.5 159t381.5 -159t154 -389t-154 -389t-381.5 -159t-381.5 159t-154 389zM210 532q0 -202 130 -340.5t327.5 -138.5t327 138.5t129.5 340.5t-129.5 341.5t-327 139.5t-327.5 -139.5t-130 -341.5zM477 1178l192 146l191 -146l-21 -29l-170 83 l-171 -83z" />
<glyph unicode="&#xf5;" horiz-adv-x="1333" d="M131 532q0 230 154 389t381.5 159t381.5 -159t154 -389t-154 -389t-381.5 -159t-381.5 159t-154 389zM210 532q0 -202 130 -340.5t327.5 -138.5t327 138.5t129.5 340.5t-129.5 341.5t-327 139.5t-327.5 -139.5t-130 -341.5zM372 1158q23 36 40.5 59t54 49.5t63.5 26.5 t41.5 -2.5t32 -10t25 -11t29.5 -15t25 -12.5q79 -44 113 -44q62 0 125 100l42 -28q-23 -36 -40 -59t-54 -49.5t-64 -26.5t-41.5 2.5t-32 10t-25 11t-29.5 15t-25 12.5q-78 44 -113 44q-62 0 -125 -100z" />
<glyph unicode="&#xf6;" horiz-adv-x="1333" d="M131 532q0 230 154 389t381.5 159t381.5 -159t154 -389t-154 -389t-381.5 -159t-381.5 159t-154 389zM210 532q0 -202 130 -340.5t327.5 -138.5t327 138.5t129.5 340.5t-129.5 341.5t-327 139.5t-327.5 -139.5t-130 -341.5zM444 1154v86h87v-86h-87zM806 1154v86h87v-86 h-87z" />
<glyph unicode="&#xf7;" horiz-adv-x="808" d="M114 475v72h580v-72h-580zM352 259q0 23 15.5 37.5t37 14.5t37 -14.5t15.5 -37.5t-15.5 -38t-37 -15t-37 15t-15.5 38zM352 763.5q0 22.5 15.5 37.5t37 15t37 -15t15.5 -37.5t-15.5 -37.5t-37 -15t-37 15t-15.5 37.5z" />
<glyph unicode="&#xf8;" horiz-adv-x="1333" d="M131 533q0 229 154 388t382 159q155 0 283 -81l90 131l53 -37l-91 -131q94 -77 147 -188.5t53 -240.5q0 -230 -154 -389.5t-381 -159.5q-156 0 -285 80l-88 -128l-53 36l89 130q-94 75 -146.5 188t-52.5 243zM210 533q0 -233 160 -372l541 781q-109 71 -244 71 q-198 0 -327.5 -138.5t-129.5 -341.5zM421 122q109 -69 246 -69q199 0 328 138.5t129 341.5q0 231 -162 371z" />
<glyph unicode="&#xf9;" horiz-adv-x="1248" d="M186 458v605h76v-605q0 -408 362 -408t362 408v605h76v-605q0 -223 -108 -348.5t-329.5 -125.5t-330 126t-108.5 348zM413 1279l93 39l218 -153l-57 -16z" />
<glyph unicode="&#xfa;" horiz-adv-x="1248" d="M186 458v605h76v-605q0 -408 362 -408t362 408v605h76v-605q0 -223 -108 -348.5t-329.5 -125.5t-330 126t-108.5 348zM518 1165l285 157l10 -87l-239 -86z" />
<glyph unicode="&#xfb;" horiz-adv-x="1248" d="M186 458v605h76v-605q0 -408 362 -408t362 408v605h76v-605q0 -223 -108 -348.5t-329.5 -125.5t-330 126t-108.5 348zM434 1178l192 146l192 -146l-22 -29l-170 83l-171 -83z" />
<glyph unicode="&#xfc;" horiz-adv-x="1248" d="M186 458v605h76v-605q0 -408 362 -408t362 408v605h76v-605q0 -223 -108 -348.5t-329.5 -125.5t-330 126t-108.5 348zM402 1154v86h86v-86h-86zM763 1154v86h87v-86h-87z" />
<glyph unicode="&#xfd;" horiz-adv-x="915" d="M20 1063h90l309 -527l41 -78q20 40 42 76l309 529h85l-402 -686v-377h-73v380zM322 1165l286 157l10 -87l-240 -86z" />
<glyph unicode="&#xfe;" horiz-adv-x="863" d="M197 0v1065h75v-260q114 6 164 6q346 0 346 -269q0 -147 -124 -221t-306 -74h-22v53h17q149 0 252 55.5t103 177t-72.5 166.5t-182 45t-175.5 -5v-739h-75z" />
<glyph unicode="&#xff;" horiz-adv-x="915" d="M20 1063h90l309 -527q36 -72 41 -78q10 22 42 76l309 529h85l-402 -686v-377h-73v380zM234 1154v86h87v-86h-87zM596 1154v86h87v-86h-87z" />
<glyph unicode="&#x131;" horiz-adv-x="464" d="M197 0v1065h72v-1065h-72z" />
<glyph unicode="&#x141;" horiz-adv-x="943" d="M89 482l201 121v568h79v-521l200 124l34 -58l-234 -142v-502h539v-72h-618v524l-165 -100z" />
<glyph unicode="&#x142;" horiz-adv-x="786" d="M22 426l175 107v530h75v-485l177 108l34 -57l-211 -129v-431h488v-69h-563v454l-139 -85z" />
<glyph unicode="&#x152;" horiz-adv-x="1734" d="M147 586.5q0 255.5 163.5 430t411.5 174.5q202 0 352 -120v100h544v-69h-464v-430h420v-67h-420v-536h483v-69h-563v100q-150 -120 -352 -120q-248 0 -411.5 175.5t-163.5 431zM233 587q0 -226 136.5 -380t352 -154t352.5 150v765q-137 150 -353 150.5t-352 -152.5 t-136 -379z" />
<glyph unicode="&#x153;" horiz-adv-x="1592" d="M131 532.5q0 232.5 148.5 391.5t374.5 159q184 0 321 -108v90h496v-63h-424v-392h383v-61h-383v-488h441v-63h-513v91q-136 -108 -321 -109q-227 0 -375 160t-148 392.5zM208 532.5q0 -206.5 123.5 -346.5t321 -140t322.5 137v697q-128 138 -324 138t-319.5 -139.5 t-123.5 -346z" />
<glyph unicode="&#x160;" horiz-adv-x="896" d="M94 70l39 60q117 -77 258.5 -77t216.5 56.5t75 162.5q0 74 -54 140t-131 119.5t-154 109t-131 132.5t-54 166q0 116 86 184t232.5 68t272.5 -59l-28 -64q-120 50 -237 51q-239 0 -239 -177q0 -76 54 -143t131 -118.5t154 -105.5t131 -129.5t54 -163.5q0 -149 -100 -225.5 t-276 -76.5t-300 90zM267 1376l21 30l170 -84l171 84l21 -30l-192 -146z" />
<glyph unicode="&#x161;" horiz-adv-x="794" d="M72 66l39 57q111 -75 236 -75.5t194.5 52t69.5 147.5q0 82 -70 151q-49 49 -132 106.5t-115.5 83t-77.5 67.5q-83 83 -83 193t77.5 172.5t215.5 62.5t248 -54l-28 -61q-102 50 -235 50q-89 0 -144.5 -43t-55.5 -120q0 -89 74 -159q53 -50 135.5 -106.5t114 -81.5 t75.5 -67q80 -80 80 -186q0 -136 -91 -205.5t-254 -69.5t-273 86zM223 1294l21 30l170 -84l171 84l21 -30l-192 -145z" />
<glyph unicode="&#x178;" horiz-adv-x="1013" d="M26 1171h96l340 -593l49 -92q13 32 46 89l341 596h90l-442 -755v-416h-79v419zM282 1245v87h87v-87h-87zM644 1245v87h86v-87h-86z" />
<glyph unicode="&#x17d;" horiz-adv-x="1033" d="M108 0v38l688 1064h-646v69h763v-36l-690 -1066h703v-69h-818zM333 1376l21 30l170 -84l170 84l22 -30l-192 -146z" />
<glyph unicode="&#x17e;" horiz-adv-x="920" d="M89 0v38l625 961h-584v64h694v-36l-626 -961h634v-66h-743zM282 1294l21 30l171 -84l170 84l21 -30l-191 -145z" />
<glyph unicode="&#x192;" horiz-adv-x="702" d="M-72 -364l13 56q39 -5 77 -5q80 0 120 54t48 190l35 583h-160l5 63h159l13 206q9 163 69 231t191 68q82 0 172 -25l-18 -58q-89 22 -172 22t-122.5 -52.5t-47.5 -191.5l-12 -200h287l-5 -63h-286l-35 -589q-9 -161 -67.5 -230t-175.5 -69q-42 0 -88 10z" />
<glyph unicode="&#x2c6;" horiz-adv-x="514" d="M66 904l192 146l191 -146l-21 -29l-170 83l-171 -83z" />
<glyph unicode="&#x2c7;" horiz-adv-x="514" d="M66 1021l21 29l171 -84l170 84l21 -29l-191 -146z" />
<glyph unicode="&#x2da;" horiz-adv-x="400" d="M66 1258.5q0 59.5 38 99.5t96 40t97 -40t39 -98.5t-39 -99.5t-97 -41t-96 40t-38 99.5zM126 1258.5q0 -32.5 21.5 -54.5t52.5 -22t52.5 22t21.5 54.5t-21.5 55.5t-52.5 23t-52.5 -23t-21.5 -55.5z" />
<glyph unicode="&#x2dc;" horiz-adv-x="696" d="M53 913q23 36 40 58.5t53.5 49t64 26.5t42 -2.5t32 -10l24.5 -10.5t29.5 -14.5t25.5 -13.5q78 -44 113 -44q62 0 125 100l42 -28q-23 -36 -40.5 -59t-54 -49t-64 -26t-41.5 2t-31.5 10t-25 11t-29.5 14.5t-25 13.5q-79 44 -114 44q-62 0 -124 -100z" />
<glyph unicode="&#x2000;" horiz-adv-x="707" />
<glyph unicode="&#x2001;" horiz-adv-x="1414" />
<glyph unicode="&#x2002;" horiz-adv-x="707" />
<glyph unicode="&#x2003;" horiz-adv-x="1414" />
<glyph unicode="&#x2004;" horiz-adv-x="471" />
<glyph unicode="&#x2005;" horiz-adv-x="353" />
<glyph unicode="&#x2006;" horiz-adv-x="235" />
<glyph unicode="&#x2007;" horiz-adv-x="235" />
<glyph unicode="&#x2008;" horiz-adv-x="176" />
<glyph unicode="&#x2009;" horiz-adv-x="282" />
<glyph unicode="&#x200a;" horiz-adv-x="78" />
<glyph unicode="&#x2010;" horiz-adv-x="808" d="M114 531v65h580v-65h-580z" />
<glyph unicode="&#x2011;" horiz-adv-x="808" d="M114 531v65h580v-65h-580z" />
<glyph unicode="&#x2012;" horiz-adv-x="808" d="M114 531v65h580v-65h-580z" />
<glyph unicode="&#x2013;" horiz-adv-x="774" d="M0 531v65h775v-65h-775z" />
<glyph unicode="&#x2014;" horiz-adv-x="1035" d="M0 531v65h1035v-65h-1035z" />
<glyph unicode="&#x2018;" horiz-adv-x="197" d="M59 1091v80h87v-106l20 -100h-38z" />
<glyph unicode="&#x2019;" horiz-adv-x="197" d="M33 965l20 100v106h86v-80l-69 -126h-37z" />
<glyph unicode="&#x201a;" horiz-adv-x="197" d="M33 -120l20 100v107h86v-81l-69 -126h-37z" />
<glyph unicode="&#x201c;" horiz-adv-x="400" d="M59 1091v80h87v-106l20 -100h-38zM262 1091v80h87v-106l20 -100h-38z" />
<glyph unicode="&#x201d;" horiz-adv-x="400" d="M33 965l20 100v106h86v-80l-69 -126h-37zM236 965l19 100v106h87v-80l-68 -126h-38z" />
<glyph unicode="&#x201e;" horiz-adv-x="400" d="M33 -120l20 100v107h86v-81l-69 -126h-37zM236 -120l19 100v107h87v-81l-68 -126h-38z" />
<glyph unicode="&#x2020;" horiz-adv-x="776" d="M114 747v69h247v355h72v-355h229v-69h-229v-1121h-72v1121h-247z" />
<glyph unicode="&#x2021;" horiz-adv-x="776" d="M114 274v68h247v405h-247v69h247v355h72v-355h229v-69h-229v-405h229v-68h-229v-648h-72v648h-247z" />
<glyph unicode="&#x2022;" horiz-adv-x="399" d="M131 506v138h138v-138h-138z" />
<glyph unicode="&#x2026;" horiz-adv-x="555" d="M49 0v87h87v-87h-87zM234 0v87h87v-87h-87zM419 0v87h87v-87h-87z" />
<glyph unicode="&#x202f;" horiz-adv-x="282" />
<glyph unicode="&#x2030;" horiz-adv-x="1584" d="M114 919q0 121 56 192t144.5 71t143.5 -71t55 -191.5t-58 -194t-141.5 -73.5t-141.5 73t-58 194zM147 -2l749 1201l58 -34l-748 -1199zM180 919.5q0 -93.5 39 -149.5t95 -56t94 56t38 149.5t-38 147.5t-94 54t-95 -54t-39 -147.5zM591 252.5q0 121.5 56 191.5t144.5 70 t143.5 -70t55 -191.5t-58 -195t-142 -73.5t-141.5 73.5t-57.5 195zM658 252q0 -94 38 -149.5t95.5 -55.5t94 55.5t36.5 149.5t-36.5 148t-94 54t-95.5 -54t-38 -148zM1088 252.5q0 121.5 55.5 191.5t144 70t143.5 -70t55 -191.5t-58 -195t-142 -73.5t-141 73.5t-57 195z M1155 252q0 -94 37.5 -149.5t95 -55.5t94.5 55.5t37 149.5t-37 148t-94.5 54t-95 -54t-37.5 -148z" />
<glyph unicode="&#x2039;" horiz-adv-x="478" d="M82 544l267 305l48 -39l-233 -266l233 -266l-48 -39z" />
<glyph unicode="&#x203a;" horiz-adv-x="478" d="M82 278l232 266l-232 266l48 39l267 -305l-267 -305z" />
<glyph unicode="&#x205f;" horiz-adv-x="353" />
<glyph unicode="&#x20ac;" horiz-adv-x="858" d="M23 385l18 69h113q-6 54 -6.5 125t4.5 131h-129l18 68h121q35 199 143.5 306t288.5 107q104 0 172 -26v-74q-80 28 -172 28q-284 0 -347 -341h400l-18 -68h-391q-5 -60 -5 -131t6 -125h408l-18 -69h-380q64 -333 345 -332q112 0 172 25v-68q-64 -30 -181 -30 q-341 0 -419 405h-143z" />
<glyph unicode="&#x2122;" horiz-adv-x="1176" d="M82 1116v47h384v-47h-168v-461h-51v461h-165zM485 655l82 511h36l154 -368q6 -24 12 -35q0 7 13 36l170 367h33l77 -511h-52l-52 356q-6 33 -6 44l-18 -44l-156 -331h-29l-153 369q0 -10 -5 -38l-53 -356h-53z" />
<glyph unicode="&#xe000;" horiz-adv-x="1064" d="M0 0v1065h1065v-1065h-1065z" />
<glyph unicode="&#xfb01;" horiz-adv-x="1305" d="M197 0v1063h545v-65h-470v-387h430v-64h-430v-547h-75zM1034 0v1063h75v-1063h-75z" />
<glyph unicode="&#xfb02;" horiz-adv-x="1623" d="M197 0v1063h545v-65h-470v-387h430v-64h-430v-547h-75zM1034 0v1063h75v-994h489v-69h-564z" />
</font>
</defs>
</svg>
