<?xml version="1.0" standalone="no"?>
<!DOCTYPE svg PUBLIC "-//W3C//DTD SVG 1.1//EN" "http://www.w3.org/Graphics/SVG/1.1/DTD/svg11.dtd" >
<svg xmlns="http://www.w3.org/2000/svg">
<metadata></metadata>
<defs>
<font id="indie_flowerregular" horiz-adv-x="1567" >
<font-face units-per-em="2048" ascent="1638" descent="-410" />
<missing-glyph horiz-adv-x="1029" />
<glyph horiz-adv-x="2048" />
<glyph horiz-adv-x="2048" />
<glyph unicode="&#xd;" horiz-adv-x="1029" />
<glyph unicode=" "  horiz-adv-x="1029" />
<glyph unicode="&#x09;" horiz-adv-x="1029" />
<glyph unicode="&#xa0;" horiz-adv-x="1029" />
<glyph unicode="!" horiz-adv-x="410" d="M43 131q0 81 59 116q64 37 145 37q26 0 47.5 -16t37.5 -39t23 -48.5t7 -49.5q0 -29 -21.5 -53t-51 -43t-64.5 -28.5t-59 -9.5q-67 0 -95 36.5t-28 97.5zM102 2240l131 22l3 -48q0 -49 1.5 -126.5t2.5 -179.5t4 -211.5t3 -221t2.5 -208t4 -170t3.5 -105.5v-20.5t1.5 -34.5 t1.5 -39v-30q0 -21 1.5 -49t-2.5 -55t-17.5 -44.5t-45.5 -17.5q-19 0 -40.5 3t-29.5 29q-11 70 -15 189.5t-5 262.5t0 300t1 300.5v261.5q0 123 -5 192z" />
<glyph unicode="&#x22;" horiz-adv-x="643" d="M27 2085q8 21 22.5 24t30.5 3q27 0 48.5 -39t40.5 -102t36 -138t34.5 -150t35 -139.5t36.5 -101.5q-16 -32 -32 -43t-46 -11q-37 0 -66.5 43t-52.5 110t-39 150t-26.5 159.5t-15 141t-6.5 93.5zM389 2058v102q2 5 13 16q5 8 11 14h8q2 0 2 1t3 1q35 0 59 -51t40 -126 t24 -164.5t13.5 -168.5t5.5 -135.5v-67.5v-91q-5 -8 -24 -27q-19 -16 -27 -21l-8 -3h-5q-19 0 -33.5 19t-28 43t-21.5 44t-8 26q-6 91 -11 166t-8 143.5t-4 135.5t-1 144z" />
<glyph unicode="#" horiz-adv-x="2109" d="M24 649q0 50 59 85t149 62t193 45.5t193 33.5t148.5 25.5t58.5 26.5v359q0 11 11 23t25.5 21.5t32 15t28.5 5.5q0 -43 5.5 -91.5t13.5 -98t18.5 -96.5t18.5 -89q43 -17 74 -22t71 -5q13 0 33.5 5t37.5 17.5t30.5 25.5t13.5 29q0 27 -8 52.5t-18.5 52.5t-18.5 54 q-8 21 -8 48q0 37 18.5 72t58.5 35h14h13q3 -21 13.5 -76t26.5 -113t32.5 -102t29.5 -44h437q2 0 14.5 -12t28.5 -28l33.5 -33.5t27.5 -28.5v-8q0 -5 1.5 -5t1.5 -3q0 -11 -9.5 -21.5t-23 -20t-26.5 -15t-21 -5.5q-3 0 -10 3t-16 8.5t-16 8t-9 5.5q-6 0 -22 4t-36 8t-41.5 8 t-29.5 4h-13h-14q-27 -6 -67 -8.5t-75 -7.5q-43 -6 -88 -8v-180l24 -24q53 8 96 13.5t79.5 8t75 2.5h87.5q42 0 89 1.5t83.5 -9.5t60.5 -39t24 -87q0 -46 -54 -46h-27q-10 0 -43.5 4t-72.5 8.5t-74 8.5t-40 4h-13q-22 0 -63.5 -8.5t-85.5 -19t-79 -18.5q-38 -8 -43 -8v-17.5 v-25.5t-1.5 -26.5t-1.5 -18.5q0 -65 15 -125t15 -125v-6.5v-6.5v-8q-6 -6 -19.5 -19t-29.5 -29t-32 -32.5t-24 -21.5l-5 -3h-6q-13 0 -23.5 31t-19 78t-13.5 102t-10.5 103t-11 83t-13.5 46l-27 21l-179 -48v-231q0 -5 -11 -14.5t-13 -12.5q-8 -5 -28 -14.5t-26 -9.5 q-32 0 -45.5 19t-20 48.5t-6.5 63t-4 61.5t-13.5 48t-36.5 20q-5 0 -14.5 -1t-12.5 -1q-10 -3 -50.5 -8.5t-94 -13.5t-112.5 -17.5t-112.5 -17.5t-92.5 -14.5t-52 -6.5h-16q-27 0 -46 24t-19 54q0 5 1.5 13t1.5 11q134 29 258.5 54.5t256.5 47.5q10 2 27.5 6t33.5 8t28.5 7 t12.5 5v177l-25 30q-2 0 -11.5 1t-21.5 1h-24h-18q-88 0 -176.5 -24t-173 -56t-163.5 -56t-146 -24q-29 0 -48 10.5t-19 48.5zM1005 718q0 -8 2.5 -29.5t6.5 -45.5t8 -46.5t10 -28.5l230 48q0 11 3 22t3 19v13t-1.5 18.5t-1.5 25.5t-1.5 21.5t-1.5 12.5q-2 10 -11.5 30.5 t-15.5 20.5h-179q-3 0 -12.5 -11t-11.5 -16q-6 -8 -16.5 -28t-10.5 -26z" />
<glyph unicode="$" horiz-adv-x="1594" d="M27 799q8 32 29.5 42.5t48.5 10.5q56 0 107 -48t104.5 -107t107 -107.5t117.5 -48.5q38 0 62 47t41.5 119.5t28 162t16 173t7 153t1.5 101.5v18.5v28.5v28.5v15.5q-38 48 -89 87t-93.5 79.5t-73.5 88.5t-31 120q0 8 1.5 32.5t1.5 32.5q64 94 158 158t204 99 q5 54 6.5 123.5t14.5 136.5t42.5 123.5t88.5 80.5q0 -43 11 -78t16 -78q0 -2 -5.5 -10.5t-8 -16.5t-7.5 -16l-6 -8v-13v-25.5t-1 -29.5t-1 -23q0 -5 1 -17t1 -27v-28.5v-18.5q35 -19 58 -23t58 -4q5 0 21 1.5t19 1.5q0 37 -1.5 93.5t8 107.5t36.5 88q26 38 85 38v-405 q8 -19 28.5 -29.5t41.5 -21t38.5 -23t17.5 -28.5q0 -10 -16 -25t-38.5 -27t-49.5 -20t-48 -5q-11 -108 -32.5 -201.5t-21.5 -198.5v-22.5v-35t1.5 -33.5t1.5 -24q56 -70 127 -128.5t134 -124.5t107 -143.5t44 -184.5q0 -282 -148.5 -433.5t-419.5 -167.5q6 -27 6 -59 t-9.5 -60t-31 -47t-53.5 -19q-6 0 -20.5 1.5t-19.5 1.5q-8 75 -17 139q-10 54 -22 99.5t-28 56.5q-6 -11 -11.5 -56.5t-16 -92.5t-25 -86t-33.5 -39q-56 0 -75 42t-21.5 96.5t0 105.5t-8.5 70q-16 27 -65.5 63t-116.5 75t-138 80.5t-128.5 84.5t-92.5 83t-24 78zM565 1718 q0 -22 1.5 -39t9.5 -32t24 -27t46 -23l8 -5q5 -8 14.5 -15t19 -9.5t11.5 0.5q22 13 31.5 40t13.5 60.5t4 65.5v56q0 11 -5.5 25.5t-15 29.5t-20 24.5t-24.5 9.5q-32 0 -54.5 -15t-36 -39t-20.5 -52t-7 -55zM742.5 607q-2.5 -71 16 -110t66.5 -28q0 5 9.5 63t21.5 143.5 t25.5 184.5t27 185t21.5 145t8 64v24q5 8 -4 13.5t-22.5 5.5t-25.5 -2.5t-10 -8.5q-10 -61 -31.5 -149.5t-44.5 -182.5t-39 -185t-18.5 -162zM872.5 1514.5q-1.5 -29.5 2.5 -59t17.5 -53.5t34.5 -38q38 27 64.5 72.5t40 100.5t19 116.5t7 119t-1.5 108.5v86q-5 0 -22.5 -1.5 t-39 -4t-39 -4t-28.5 -1.5q-5 0 -14.5 -10.5t-9.5 -13.5q-11 -59 -16 -104.5t-9 -87t-4 -83v-92.5q0 -21 -1.5 -50.5zM1002 476q0 -20 1.5 -44.5t1.5 -44.5v-28q5 -5 25.5 -13t25.5 -11h11q85 0 147 39t102 99t59 134t19 143q0 150 -70 249.5t-190 185.5q-35 -19 -58 -66 t-37.5 -111.5t-22.5 -136.5t-11 -142t-3 -129v-96v-28z" />
<glyph unicode="%" horiz-adv-x="1747" d="M24 1107q0 67 25.5 136.5t71 124.5t104.5 90q64 35 134 35q62 0 127.5 -25.5t118 -70t86 -104.5t33.5 -130q0 -72 -29.5 -139t-80.5 -118t-117 -82t-135 -31q-59 0 -119.5 25.5t-108.5 68.5t-79 99.5t-31 120.5zM180 1120q0 -24 4 -55t17 -59t32 -49.5t51 -29.5 q38 -10 91.5 3t101.5 42.5t81.5 71t33.5 87.5q0 40 -18.5 77.5t-51 67t-71 47t-76.5 17.5q-43 0 -80.5 -21.5t-63 -53.5t-38.5 -69.5t-13 -75.5zM389 78q0 51 41.5 147.5t108.5 218t156.5 260t183.5 275t187.5 262.5t170 222.5t133 154t72.5 57.5q11 0 19 -12t9 -24t-1 -26 v-16q-65 -107 -137 -194t-144.5 -174t-139.5 -183.5t-121 -220.5q-16 -26 -50.5 -98.5t-83 -163.5t-102 -191.5t-103 -183.5t-90.5 -137q-37 -54 -58 -54q-33 0 -42 27t-9 54zM976 268q0 48 14.5 110t42.5 122t65.5 120.5t84.5 104.5t99.5 72t108.5 28q59 0 111 -32 t91 -81.5t62 -110t23 -113.5q0 -78 -37.5 -161t-98 -151.5t-137 -111.5t-156.5 -43q-59 0 -108.5 16.5t-86 46t-57.5 75t-21 109.5zM1104 237q0 -23 3 -33q21 -22 46.5 -24.5t57.5 -2.5q59 0 114 22.5t99.5 63t70.5 93.5q27 57 27 116q0 26 -8 59.5t-24 64.5t-40 52.5 t-59 21.5q-59 0 -112.5 -44t-92.5 -107t-60.5 -133t-21.5 -118v-31z" />
<glyph unicode="&#x26;" horiz-adv-x="1254" d="M27 204q0 136 48 253t110 225.5t120.5 217t83.5 231.5v29.5v49.5v48v28q0 27 4 97t8 149t8 147t4 98q0 11 6.5 31t16 40t24 36t30.5 19q65 11 110.5 -16t72 -72.5t40.5 -99.5q11 -53 11 -102q0 -85 -11 -153.5t-35 -131.5t-57.5 -128.5t-79.5 -143.5q0 -5 -1 -13.5 t-1 -13.5q0 -43 12 -90t30.5 -93.5t43 -92t45.5 -83.5h51q27 13 45.5 44t30.5 71t17.5 86t8 87.5t2.5 75v49.5q14 16 39.5 21.5t49.5 8t48 0t40 -2.5q32 0 67 6.5t64.5 5t48.5 -20t19 -69.5q0 -27 -9.5 -39t-44.5 -15q-13 -2 -34.5 -5t-41.5 -4.5t-41.5 -4t-35.5 0.5 q-37 -78 -52 -141t-27 -118t-29.5 -107t-60.5 -109v-13q-2 -5 -2 -16q0 -38 29.5 -92.5t68 -112.5t79 -109t56.5 -77q-11 -27 -32 -27q-22 -5 -48 0l-228 268h-6h-5h-3q-29 0 -56 -23t-53.5 -59t-57.5 -76t-71 -76.5t-88.5 -59t-112.5 -22.5h-22t-34.5 1t-34.5 2.5t-22 1.5 q-21 16 -48 40t-51 51t-40 56.5t-16 56.5zM180 257q0 -13 9 -36t22.5 -44.5t32.5 -36t40 -9.5q38 6 97 44.5t111 88.5t91 104.5t39 92.5q0 40 -19 85.5t-45.5 92.5t-53.5 95.5t-40 90.5q-33 -5 -66.5 -46.5t-65.5 -99t-58.5 -126t-48 -130t-33.5 -108.5t-12 -58z" />
<glyph unicode="'" horiz-adv-x="281" d="M54 1856v52v28t5 21.5t16 20.5l27 27q29 -16 52 -56.5t37.5 -92.5t22.5 -115t13.5 -123.5t7 -111.5t1.5 -83q0 -37 -6 -62q-5 -24 -48 -24q-35 0 -57.5 40.5t-37.5 100.5t-21.5 132.5t-9 137t-2.5 108.5z" />
<glyph unicode="(" horiz-adv-x="1157" d="M54 525q0 86 40 201.5t109.5 234.5t161 233t190.5 203.5t201 146.5q107 53 198 53q24 0 51 -10.5t49.5 -29.5t39 -41.5t16.5 -46.5q0 -22 -8.5 -51.5t-34.5 -29.5q-19 0 -32.5 8t-28 19t-29.5 19t-34 8q-91 0 -182 -48.5t-174 -128.5t-153 -183.5t-120.5 -212t-80 -211.5 t-29.5 -184q0 -128 44 -210t119 -130t173 -71t208 -36q21 -8 24 -21.5t3 -29.5q0 -38 -28.5 -55t-63 -22.5t-72 -4.5t-56.5 1q-126 0 -221 56.5t-157 146.5t-92.5 202.5t-30.5 224.5z" />
<glyph unicode=")" horiz-adv-x="795" d="M24 -54q0 22 41.5 65t106 106t138 140.5t136.5 168.5t106 191.5t43 207.5q0 102 -29.5 193.5t-79 175.5t-115 158t-138.5 138q-19 -11 -37.5 -5.5t-33.5 19t-25.5 31t-10.5 35.5q0 41 24 47.5t59 6.5q80 0 151 -39t131.5 -103t109 -147t82 -169t50.5 -169t17 -147 q0 -65 -29.5 -164t-80 -210.5t-116.5 -225t-139.5 -203.5t-150 -146t-143.5 -56q-16 0 -28 10.5t-21.5 26.5t-13.5 35t-4 29z" />
<glyph unicode="*" horiz-adv-x="1130" d="M51 1101q-3 11 3 30q5 24 28 44t53.5 33.5t60 20t51.5 6.5q21 0 29 -8t13.5 -18.5t11 -18.5t21.5 -8h8q2 0 5 3q5 5 14.5 13t9.5 13q0 49 -39 90.5t-84.5 80t-80 71t-24.5 67.5q3 5 22 23.5t29 26.5h6h2h3q0 -2 3 0h2h6l257 -152q-5 13 -4 36t6.5 44.5t17.5 36t36 14.5 q6 0 15 -1.5t9 -3.5l75 -126q38 24 86 64t102 80.5t110 72.5t115 40q16 -21 21.5 -38.5t5.5 -39.5q0 -27 -40 -61.5t-94 -72t-105 -70t-69 -53.5q21 3 58.5 4t76.5 -4t66 -17t27 -37q0 -37 -24.5 -52t-52.5 -25.5t-52 -25.5t-24 -49q0 -41 18.5 -79.5t44 -77.5t52.5 -77 q21 -37 38 -75q-6 -34 -30 -55.5t-59 -21.5h-13q-6 5 -19 14.5t-29.5 21.5t-32.5 23q-16 13 -21 18q5 -59 -19 -117.5t-83 -91.5q-13 19 -25.5 60.5t-21.5 96.5t-21 112.5t-28.5 103t-36.5 72.5t-47 22q-2 0 -9 -7l-15 -15l-16 -16q-5 -11 -10 -16q-11 -11 -34 -43 t-47 -69.5t-45.5 -71t-29.5 -46.5q-5 -6 -16 -10t-23 -8t-23 -6q-13 -3 -18 -3q-11 0 -16.5 8t-8 18.5t-2.5 21.5v16q0 38 10.5 70t22.5 61.5t24.5 61.5t12.5 70q-27 0 -43 -4t-28.5 -7t-25.5 -5.5t-37 -2.5q-11 0 -24.5 1.5t-23 5.5t-14.5 14z" />
<glyph unicode="+" horiz-adv-x="1262" d="M21 525q0 35 8.5 47t48.5 20q21 6 76 16.5t116.5 22.5t116.5 23t77 16q13 3 19.5 15t8 26.5t1.5 26.5v20q0 43 -8 84.5t-18.5 84.5t-18.5 86t-8 86v8q5 8 23.5 26.5l26.5 26.5h6q2 0 2 3h6h3q-3 -3 2 -3h8l51 -53l102 -359l27 -30l43 -5q45 -8 107 -16t127.5 -16 t108.5 -11q8 0 29.5 -2.5t44 -6.5t38.5 -15t16 -30q0 -8 -10.5 -25t-22.5 -33.5t-25.5 -29.5t-18.5 -13h-413v-461l-8 -8q-11 -8 -21.5 -16.5t-24 -16.5t-21.5 -13q-3 -3 -8 -3h-6q-29 0 -43.5 28.5t-17.5 63t-3 66.5q3 33 0 49q-3 18 -9.5 62.5t-14.5 94t-16 92.5t-11 62 h-27q-53 0 -105.5 -8.5t-103.5 -19t-101.5 -18.5t-101.5 -8q-40 0 -49 21q-8 16 -8 43z" />
<glyph unicode="," horiz-adv-x="359" d="M24 -423q0 64 13.5 128.5t28 131.5t28 134t13.5 131v21t-1 32.5t-1 29.5v19q-38 -3 -46 13t-8 38q0 53 18.5 94.5t77.5 41.5q54 0 77 -37.5t32 -88.5t8 -103t-1 -84q0 -22 -7 -74t-16.5 -119t-25.5 -139.5t-37.5 -131.5t-45.5 -96.5t-53 -37.5q-19 0 -29.5 9.5t-16 24 t-7 32t-1.5 31.5z" />
<glyph unicode="-" horiz-adv-x="1029" d="M40 662q0 64 29.5 101.5t78 60.5t108.5 31t124.5 9.5t126 2.5t109.5 7h8t19 1t21.5 1h16.5q37 0 80 -1t80.5 -14.5t61.5 -39t24 -73.5q0 -57 -51 -57q-59 0 -108.5 15t-110.5 15q-78 0 -154.5 -9.5t-154 -20t-154 -20t-154.5 -9.5z" />
<glyph unicode="." horiz-adv-x="560" d="M121 257q0 22 17 64.5t41.5 87t50 76.5t43.5 32q54 0 94 -28t65.5 -71t39 -94t13.5 -94q0 -32 -18.5 -72t-47 -75t-63 -59t-69.5 -24q-40 0 -69.5 28t-52.5 69.5t-33.5 86t-10.5 73.5z" />
<glyph unicode="/" horiz-adv-x="849" d="M27 91q0 38 17.5 93t43 113.5t52 111t42.5 81.5l437 1209q8 38 16 94t21.5 109.5t35 99.5t56.5 56q24 -5 34.5 -18.5t14.5 -32t3 -37.5t-1 -35q0 -40 -24.5 -146t-66 -249.5t-96.5 -313.5t-113.5 -341.5t-120.5 -331t-114 -281.5t-95 -197t-64 -75q-35 0 -56.5 32 t-21.5 59z" />
<glyph unicode="0" horiz-adv-x="1181" d="M51 598q0 91 49.5 194t128.5 190t178.5 145t198.5 58q61 0 121.5 -28.5t116.5 -75.5t104.5 -107t84.5 -125.5t56.5 -131.5t20.5 -122q0 -102 -29.5 -206.5t-88.5 -191.5t-147.5 -143.5t-206.5 -56.5q-123 0 -230.5 47t-188 129t-124.5 191.5t-44 233.5zM182 616 q-10 -93 16.5 -176.5t84 -147.5t138 -101.5t174.5 -37.5q35 0 60.5 4t51 13.5t53.5 25.5t65 37q6 38 26 66t43 60t41.5 75t18.5 110q0 88 -28 171.5t-81.5 147.5t-131.5 103t-177 39q-70 0 -131.5 -36t-108.5 -94t-76.5 -126t-37.5 -133z" />
<glyph unicode="1" horiz-adv-x="873" d="M38 600v16q5 6 11.5 16.5t14.5 22.5t15 21.5t12 14.5l491 515q21 21 34.5 61.5t23 87.5t17.5 93.5t20 84t32 62t49 24.5q17 0 30 -3t21 -21v-19.5t1.5 -28t1.5 -28v-16.5q0 -10 -6.5 -81t-18.5 -178.5t-28.5 -242.5t-36.5 -273t-38.5 -269.5t-40 -233.5t-40.5 -165 t-35 -63q-27 0 -44 12t-34 45v17t-1 27t-1 28v16q0 27 2.5 78t8 114t11 132.5t10.5 132.5t8 112.5t3 79.5v32t-4 29.5t-15 26.5q-14 11 -35 16q-11 -11 -37.5 -41.5t-59 -71t-72.5 -84.5t-76 -80t-71 -60.5t-59 -24.5q-64 0 -64 67z" />
<glyph unicode="2" horiz-adv-x="1364" d="M27 284q-6 40 11.5 65.5t46 40.5t63 19t58.5 4q62 0 122.5 -19t118 -44.5t116.5 -45.5t123 -20q56 0 104.5 37.5t87.5 98t68.5 136.5t48 148.5t29 135.5t10.5 98q0 38 -10.5 110t-34.5 142t-63 122t-101 52q-56 0 -84 -40t-44 -89.5t-31 -95.5t-47 -56q-40 27 -47 69.5 t-7 80.5q0 53 20.5 100t58 83.5t88.5 55t107 18.5q94 0 161 -56t108.5 -139.5t61.5 -177t20 -163.5t-4 -123.5t-16 -104.5t-33.5 -106t-53.5 -130q-19 -13 -46 -44t-51 -65.5t-41.5 -68t-17.5 -55.5q0 -27 28.5 -41.5t68.5 -22.5t85.5 -13.5t85.5 -15t68.5 -29.5t28.5 -57 q0 -27 -27 -51q-21 -27 -54 -27q-59 0 -116.5 12t-115 27t-114 28t-115.5 13q-96 0 -186 -14.5t-189 -14.5q-53 0 -111 12t-107.5 40t-85.5 72.5t-44 108.5z" />
<glyph unicode="3" horiz-adv-x="1181" d="M51 343v16q0 46 25.5 75.5t70.5 29.5q19 0 58 -48.5t104.5 -107.5t158 -107t218.5 -48q48 0 96.5 6.5t86 25.5t61.5 51t24 83q0 112 -56 184.5t-143.5 119.5t-189 71t-187.5 45.5t-143.5 40.5t-57.5 56q0 6 2.5 8.5t2.5 5.5q6 8 24.5 26.5l26.5 26.5q27 6 80.5 15 t116.5 24t127.5 36.5t118 49.5t88.5 67t35 90q0 40 -32.5 65.5t-74 40t-85.5 18.5t-71 4t-78 -1t-100.5 -8t-87 -16.5t-37.5 -25.5v-59q-61 0 -96 29.5t-35 91.5q0 27 14.5 48.5t39 37.5t51 24t50.5 8h389q62 0 114 -28t89.5 -72.5t57.5 -100.5t20 -113q0 -56 -36 -93.5 t-80.5 -67t-82 -59t-37.5 -72.5q0 -3 3 -5l3 -6q83 -29 156.5 -80t131.5 -118t92 -147q33 -78 33 -169q0 -83 -36.5 -143.5t-94 -96.5t-128.5 -55t-141 -19q-67 6 -127 12.5t-132.5 37.5t-166.5 98t-230 190q-3 5 -3 8z" />
<glyph unicode="4" horiz-adv-x="1130" d="M51 1002q0 89 8 158.5t25.5 136.5t41.5 138t56 162q6 27 30 40.5t53.5 15t53.5 -9.5t19 -35q0 -70 -25.5 -142t-55 -146t-55 -150.5t-25.5 -153.5q0 -57 14.5 -124t45.5 -123t79 -93.5t115 -37.5q92 0 165.5 44t134 110t104.5 143.5t75 144.5t47 110q13 43 19 43 q64 0 85 -22q19 -21 19 -59q0 -53 -12 -120t-28 -137t-27 -138t-11 -125q0 -64 8 -128t19 -128.5t19 -127.5t8 -125q0 -53 -32 -90.5t-86 -37.5q-35 0 -49.5 44t-21.5 111t-7 145t-1 145t-12 111t-35 44q-37 -21 -84 -52t-98 -58t-103.5 -41.5t-103.5 -3.5q-104 0 -175 57.5 t-115.5 144.5t-63 183.5t-18.5 176.5z" />
<glyph unicode="5" d="M51 389q-5 75 16 124.5t46.5 53.5t43 -49.5t9.5 -182.5q0 -27 35 -49.5t88.5 -39t118 -29.5t120.5 -22.5t99 -13.5t54 -4q88 0 179 16t165 57.5t119.5 110t45.5 170.5q0 112 -40 190t-107 128.5t-153 80t-178.5 47t-183.5 28.5t-169 24q-16 22 -21.5 39t-5.5 39v13l3 11 q11 21 41.5 76t63 118t62 118t39.5 77q3 2 7 11.5t6.5 21.5t8.5 23q5 16 5 21.5t-1.5 13.5t-1.5 10h-61q0 54 29.5 87.5t75 53.5t104.5 29.5t118 12t110 1.5t88 -1q54 0 118 2.5t128.5 -4t121 -31t93.5 -72.5q0 -3 1.5 -7t1.5 -6q0 -11 -9.5 -23t-20 -20t-24 -15t-21.5 -7 q-6 0 -30 4t-49.5 8t-48 8.5t-28.5 4.5q-5 0 -41 1t-79 2.5t-86 1.5h-67h-48.5t-60 -1.5t-55 -2.5t-26.5 -1l-81 -25q-8 -45 -32 -100t-52 -111.5t-48.5 -108.5t-20.5 -90q0 -5 3 -16v-10q148 -25 286 -75.5t247.5 -134t174 -205t64.5 -293.5q11 -102 -36 -186.5 t-126 -147.5t-178.5 -100.5t-187.5 -42.5q-62 0 -143.5 2.5t-166 16t-166 39t-144.5 68.5t-102 107t-39 156z" />
<glyph unicode="6" horiz-adv-x="1208" d="M51 568q0 105 33.5 224t92.5 234.5t142 222.5t181 191.5t206.5 139.5t220.5 66q27 2 62 -4.5t67 -22.5t55 -40.5t23 -58.5q0 -17 -4 -34t-12 -34.5t-20.5 -29.5t-30.5 -12q-6 0 -24.5 12t-41.5 26.5t-42 25.5q-21 11 -32 16h-13q-54 0 -119.5 -28t-136.5 -77.5 t-136.5 -112.5t-119.5 -131.5t-86 -134t-32 -119.5v-13q56 21 99 32t84.5 16t84.5 5h97q104 0 192.5 -34.5t153 -97.5t102 -150.5t37.5 -194.5q0 -123 -56.5 -210t-146 -140.5t-199.5 -78t-220 -24.5q-123 0 -210.5 49.5t-143.5 130t-81.5 182.5t-25.5 209zM182 515 q35 -167 130 -247t240 -91q75 0 150 13.5t136.5 48t100.5 93.5t39 150q0 49 -30.5 105t-76.5 104.5t-100.5 79t-103.5 30.5q-96 0 -187 -17.5t-161 -52t-108.5 -89.5t-28.5 -127z" />
<glyph unicode="7" horiz-adv-x="1130" d="M79 1377.5q-15 32.5 23 91.5q51 -6 138 -14t189 -12t206.5 -5.5t189.5 4.5v-39v-59v-57.5v-37.5q0 -118 -13 -230.5t-13 -225.5h80t93.5 -9t78 -34.5t32.5 -79.5q0 -27 -8 -53.5t-43 -26.5q-27 0 -55 8t-55 21t-53.5 21.5t-56.5 8.5h-25.5t-14.5 -3l-126 -592 q-11 -35 -33.5 -46t-44.5 -11q-35 0 -51 25.5t-27 55.5q38 147 67.5 278.5t29.5 278.5q-89 0 -185 8t-177 8q-29 54 -20 82t41.5 41.5t80.5 15t103 0t104.5 -1.5t81.5 11l6 8q2 8 6 21.5t8.5 25.5t9.5 20q13 53 21 101.5t9.5 100.5t-1 110t-5.5 127q-51 6 -122 3t-146 -5.5 t-144.5 0t-116.5 18.5t-62 48.5z" />
<glyph unicode="8" horiz-adv-x="1029" d="M47 1237q12 44 44 92.5t77.5 94t96.5 80t102 56.5q51 16 94 10q51 0 110 -17t110 -50.5t85 -82.5q33 -48 33 -107q0 -69 -35 -125.5t-80.5 -110t-80.5 -104.5t-35 -110q0 -30 28 -63.5t71 -69.5t94 -79t92.5 -93.5t71.5 -112.5q29 -59 29 -134q0 -145 -80 -231 q-81 -83 -225 -83q-108 0 -215 48.5t-186 130t-115.5 189t-1.5 227.5q27 57 73 110q48 59 107 123v6v2v3v8.5v5.5q-38 32 -84.5 64t-87 69.5t-67 80.5t-21.5 96q-16 33 -4 77zM182 1185q-8 -38 20 -75.5t68.5 -69.5t83.5 -54q40 -21 59 -32q10 11 39.5 37.5t62 60t56.5 67 t24 52.5q27 24 39 63t0 75t-53.5 64.5t-119.5 30.5q-54 0 -98 -21.5t-79 -55t-60.5 -72t-41.5 -70.5zM279 474q0 -69 28 -132t76 -111.5t111 -78t136 -29.5q27 0 61.5 11t63 29.5t49.5 45.5t21 59q0 78 -33.5 151.5t-85.5 135t-116.5 110t-128.5 83.5q-3 0 -11 2h-10 q-27 0 -58 -33.5t-52.5 -80t-36 -92.5t-14.5 -70z" />
<glyph unicode="9" horiz-adv-x="825" d="M27 1211q0 89 26.5 168t77.5 139.5t123.5 95t163.5 34.5q75 0 143.5 -28t120.5 -76.5t84.5 -115.5t32.5 -142q-24 -109 -39 -236.5t-27 -256t-16 -250.5t-4 -220t2.5 -165t13.5 -88q0 -32 -29.5 -40.5t-77.5 -8.5q-30 0 -40.5 56.5t-13.5 141t1.5 185t4.5 187.5t-7 144.5 t-26 63.5q-96 16 -188.5 32t-165 56t-116.5 115t-44 209zM180 1230q0 -48 14.5 -97.5t44 -91t72.5 -67t99 -25.5q27 0 55 2.5t52 24.5q3 29 19 93.5t35 131.5t35 122t16 65q0 27 -20 51t-48.5 43t-60.5 29.5t-53 10.5q-134 0 -197 -81.5t-63 -210.5z" />
<glyph unicode=":" horiz-adv-x="233" d="M51 863q0 21 5.5 42.5t34.5 21.5q24 0 47 -16t39 -38.5t27 -49.5q5 -27 0 -51q0 -6 -19 -24.5t-30 -29.5q-5 -2 -5 0h-8q-21 0 -38.5 16t-29.5 39t-17.5 47t-5.5 43zM54 268q0 32 24 51t53 19q32 0 41.5 -19t9.5 -51q0 -38 -14.5 -51t-54.5 -13q-59 -3 -59 64z" />
<glyph unicode=";" horiz-adv-x="353" d="M-41.5 -447.5q1.5 13.5 1.5 24.5q0 88 21.5 145.5t49.5 108.5t56 107.5t44 139.5q6 27 4.5 68.5t4 87t19 88t45.5 67.5q56 -35 68 -92.5t12 -114.5q0 -43 -8 -112.5t-24 -146t-41.5 -153t-56.5 -138t-71 -99t-83 -37.5q-19 0 -28.5 8t-12 21.5t-1 27zM51 957q-3 35 3 72 q-3 32 25 39t59 0t53.5 -20.5t12.5 -18.5q21 -53 25 -88t-5.5 -59t-25.5 -37.5t-32 -19.5q-37 0 -61.5 19t-37.5 48.5t-16 64.5z" />
<glyph unicode="&#x3c;" horiz-adv-x="1337" d="M12 254.5q-17 24.5 15 56.5l179 179q6 3 43.5 31t99 69.5t136.5 95.5t151.5 107.5t146 101.5t120.5 81q27 21 63 42.5t73.5 43t75 39t70.5 30.5q5 -5 17 -14.5t24 -21.5l23 -23t13 -16q0 -3 -32 -27t-83 -57.5t-111 -75t-115 -77.5t-96.5 -63t-49.5 -38q-59 -40 -125 -79 t-130 -83t-126 -92.5t-110 -104.5q5 -11 40 -23t83.5 -22.5t103 -20t104.5 -17.5t86 -13.5t47 -5.5q35 -5 104.5 -16t139 -32t122 -56t52.5 -89q0 -64 -70 -64q-27 0 -55 10.5t-56 23t-55 25.5t-54 19q-21 5 -74.5 10.5t-126 13.5t-157 18.5t-167.5 22.5t-155.5 29.5 t-119.5 37.5t-64 44.5z" />
<glyph unicode="=" horiz-adv-x="1439" d="M51 965q21 35 76 53.5t137 28t179.5 12t202 1.5t209 -2.5t201.5 -1.5h92.5t100.5 -15t81.5 -47t33.5 -91q0 -5 -20 -25t-31 -28l-5 -3q-6 -3 -11 0q-27 0 -52.5 13.5t-51 28t-50.5 26.5t-55 12q-59 0 -126 -8t-167.5 -17.5t-254.5 -13.5t-393 7q-32 0 -64 13.5t-32 56.5z M54 461q0 5 9 17t15 12q115 8 202 13.5t167.5 8.5t162 4t183.5 1q43 0 118 5.5t151.5 1.5t139.5 -28t84 -83l-101 -54h-981q-35 0 -62 2.5t-47 12t-30.5 29.5t-10.5 58z" />
<glyph unicode="&#x3e;" horiz-adv-x="1106" d="M75 91q5 24 52 65.5t115.5 91t153 107.5t165 114t151.5 112.5t111 104.5t45 86q6 37 -43 53q-48 3 -119 18t-150 43t-159.5 64t-147.5 76.5t-112.5 80.5t-58.5 78q0 2 -1.5 11.5t-1.5 14.5q0 35 27 43q21 11 53 11q43 0 74 -19t58 -44t57.5 -53.5t68.5 -41.5 q139 -54 301 -106t318 -74q43 -13 48 -38.5t5 -57.5q11 -48 -5 -88.5t-45.5 -74t-65.5 -64t-66 -63.5q-13 -10 -75 -55.5t-143.5 -107.5t-174 -127.5t-171.5 -122t-134 -94t-66 -37.5q-45 0 -54.5 28.5t-9.5 65.5z" />
<glyph unicode="?" horiz-adv-x="747" d="M22.5 2157q-1.5 16 0 29.5t1.5 19.5q0 43 27 73.5t67 49.5t84.5 29.5t81.5 10.5q102 0 178.5 -41.5t128.5 -110t79 -152.5t27 -173q0 -102 -33.5 -212t-86 -215.5t-110 -203.5t-105.5 -178q5 -11 13 -24.5t35 -24t76.5 -21.5t132.5 -21q13 0 24 -11t17.5 -25.5t9.5 -30.5 q3 -19 3 -30q0 -24 -17.5 -33.5t-44.5 -13.5t-52.5 -2.5t-41.5 1.5q-40 0 -93.5 6.5t-102 26.5t-82 55t-33.5 94q0 81 25.5 156t63 147t80.5 144.5t80.5 146t61.5 151.5t24 164q0 139 -75 207.5t-211 68.5q-54 0 -113 -27t-88 -75q-16 3 -23 16t-8.5 29zM488 102 q0 48 29.5 76t74.5 28q43 0 62 -38.5t19 -76.5q0 -29 -20.5 -60t-60.5 -31q-53 0 -78.5 28t-25.5 74z" />
<glyph unicode="@" horiz-adv-x="2237" d="M51 1386q0 126 36 254.5t102 246.5t158.5 221t202 178t235.5 119.5t266 44.5q85 0 181.5 -25.5t197 -70t197 -103.5t182.5 -124.5t157 -136.5t119 -135q27 -38 43 -97t24 -119t9.5 -120.5t1.5 -100.5q0 -62 -9.5 -141t-29.5 -159.5t-53.5 -157t-82 -135.5t-112.5 -93 q-64 -35 -150 -35q-38 0 -75.5 12t-69.5 34.5t-61.5 51t-50.5 55.5q-38 -49 -91.5 -98.5t-114 -91t-126 -67t-132.5 -25.5q-96 0 -172.5 36.5t-130 99t-83 143t-29.5 169.5q0 136 48 265t135 228t209 158t267 59q43 0 123.5 -20t158 -57.5t136.5 -90t59 -116.5 q0 -38 -24 -74t-56 -55q-38 67 -81 119.5t-94 88.5t-115 56t-145 20q-120 0 -212.5 -51t-154 -134t-94 -187.5t-32.5 -208.5q0 -65 16 -119.5t48.5 -93.5t86 -62t123.5 -23q53 0 108 24t107.5 63t92.5 85q40 43 64 86q-3 8 -5.5 41.5t-2.5 76t2.5 91t15 88.5t33.5 67 q24 27 61.5 27t59 -27t32 -67t16 -88.5t4.5 -91t-5.5 -75t-4.5 -42.5q6 -6 24.5 -28.5t45.5 -47t56.5 -40.5t50.5 -10q75 21 129 90.5t88.5 157t52 173t17.5 139.5q5 150 -43 270.5t-129.5 217t-189 167.5t-221.5 123t-225 83t-197 45q-166 -11 -324 -95.5t-281.5 -212 t-197 -287t-73.5 -325.5q0 -142 43 -292t119 -292t182 -266.5t233.5 -220t266.5 -149t289 -53.5q100 0 195 21.5t188.5 47t187.5 47t191 21.5q26 -46 -6 -86t-104.5 -72t-178 -56.5t-227.5 -37.5t-252 -14.5t-251 6.5q-220 91 -399.5 226.5t-305.5 309.5t-198 387t-75 463z " />
<glyph unicode="A" horiz-adv-x="1543" d="M51 831v5q0 19 9.5 27t22.5 12t26.5 9.5t21.5 18.5v13.5v22.5v23v14q11 112 17.5 239.5t24 249.5t54 234.5t100.5 198t163.5 136.5t249.5 51q118 0 213 -56.5t168.5 -151.5t128.5 -219.5t92.5 -264t63 -281.5t39 -270.5t19 -236t5.5 -176.5v-91.5t-4 -79t-8 -81.5 t-15 -99q-22 -30 -55.5 -55.5t-73.5 -25.5q-35 0 -44 17.5t-9 47.5q0 45 8 92t18.5 94t18.5 95t8 97q0 75 -5.5 160.5t-26.5 163.5q-60 -13 -123 -13q-16 0 -31 1q-79 4 -158 14.5t-159.5 21.5t-160.5 11h-77t-107 -3t-101 -8q-42 -5 -53 -16l-27 -24q0 -3 -1.5 -12.5 t-1.5 -23t-1 -26.5t-1 -21q0 -78 12 -157t26.5 -154t28.5 -150q13 -75 13 -150v-27q-30 -29 -56 -29q-8 0 -16 3q-32 12 -57.5 59t-43 121t-27 161t-11.5 178v29q0 76 7 148q-5 5 -21 22.5t-32 37.5t-32 39q-11 19 -16 29zM252 927l943 -53q8 0 20 1t20.5 13t16.5 39t13 75 q0 78 -15 178.5t-44 207.5t-76 209t-111.5 182.5t-149 128.5t-188.5 48q-110 0 -185 -57.5t-122 -150t-72.5 -207.5t-36 -230.5t-12 -217t-1.5 -166.5z" />
<glyph unicode="B" horiz-adv-x="2034" d="M54 1619v80q0 27 48 51t121.5 47t162 43t170.5 33.5t146 21.5t86 8q48 0 115 -11t141 -32.5t145 -55t127 -76t91 -96.5q35 -51 35 -115q0 -70 -28 -129t-64.5 -106t-64.5 -83t-28 -68q0 -5 52 -30.5t134 -71t176 -112.5t175.5 -149t135 -177t53.5 -202q0 -113 -49.5 -188 t-127 -119t-173 -64.5t-184 -20.5t-156.5 4t-136.5 13.5t-146 24.5t-185.5 39q-5 2 -41 21t-75 46t-68.5 56t-24.5 56q11 30 34 42t45.5 22.5t38.5 29.5q14 17 14 53v9q-46 319 -83.5 564t-79 411t-91 252t-121.5 86h-3h-6h-5q-21 -13 -57.5 -28t-78 -29.5t-81.5 -27 t-64 -20.5q-6 0 -14 -2h-10zM670 1646q32 -137 72.5 -300.5t76.5 -331t60 -328.5t24 -289q-25 -39 -25 -71q0 -12 4 -23q14 -40 59 -69.5t109.5 -47t129 -27t117.5 -9.5q54 0 81 3q80 0 157.5 6.5t136.5 34.5t94 82t35 147q0 132 -68.5 219t-171.5 148.5t-223.5 103t-225 78 t-171.5 76.5t-67 96q0 30 30.5 47.5t77.5 30.5t100.5 28t102 43t79 71t30.5 115q0 59 -32 104.5t-81.5 78t-107 48.5t-108.5 16q-75 0 -155.5 -16t-139.5 -64z" />
<glyph unicode="C" horiz-adv-x="1415" d="M51 742q0 108 35 224.5t96.5 231.5t146 219.5t186 185t214.5 128.5q113 46 225 46q64 0 96.5 -48.5t32.5 -107.5q0 -34 -13.5 -80t-40.5 -90t-60.5 -75t-73.5 -31q0 27 8 52.5t21.5 48.5t21.5 47t8 53q0 38 -31 44.5t-60 6.5h-21h-17q-123 -48 -241 -127t-209 -182 t-144.5 -228t-53.5 -267q0 -91 17.5 -199.5t60 -201t116.5 -154t184 -61.5q91 0 180.5 17.5t179.5 37.5t180 36t181 16q21 0 42.5 -5.5t21.5 -31.5q0 -14 -16 -34t-40 -39t-45.5 -29.5t-27.5 -13.5l-619 -131q-5 0 -22.5 -1.5t-28.5 -1.5q-88 0 -159 36.5t-126 94t-94 134 t-64.5 159.5t-36 166t-10.5 155z" />
<glyph unicode="D" horiz-adv-x="2034" d="M54 1544v10q0 38 38.5 65t96.5 45.5t127.5 30.5t130 17.5t102 9.5t43.5 4q137 0 292.5 -31t307 -90t289.5 -146t243.5 -199.5t168.5 -252t63 -299.5q0 -148 -45.5 -266t-126 -206.5t-187.5 -148.5t-227.5 -88t-248 -28t-247.5 29q-24 8 -59 23t-68.5 33.5t-56.5 46.5 t-23 63q0 22 7 44.5t34 22.5q13 0 68 -14.5t119 -33.5t126 -35t86 -19h13q118 0 238.5 44.5t220 125t162.5 186t63 229.5q0 96 -37.5 188.5t-100.5 178t-147.5 158t-178.5 130t-190.5 98t-184.5 56.5q2 -172 27.5 -324.5t51 -293.5t40.5 -275q8 -67 7.5 -134t-7.5 -134v-33 t-7.5 -34.5t-22 -28.5t-36.5 -11q-14 -8 -26 -8q-22 1 -36 25q-22 38 -32 114t-12.5 180.5t-9.5 218t-17.5 223.5t-34.5 201q-6 33 -14 83.5t-21.5 105.5t-31 102t-35.5 68q-193 0 -308.5 -12t-183.5 -28t-99 -33.5t-55 -27.5l-6 -3q-5 -3 -8 -3q-5 0 -5 3q-3 3 -5 3 q-3 2 -5.5 10t-6.5 20.5t-8 25.5t-4 19z" />
<glyph unicode="E" horiz-adv-x="1439" d="M51 391q0 102 14.5 204t14.5 206q0 43 -13 72.5t-13 64.5v16q5 5 18.5 25.5t18.5 25.5v592q0 43 9.5 64.5t45.5 29.5q27 6 72 6h30q66 -2 179.5 -8t280.5 -9q86 -1 187.5 -1t219.5 1q27 -10 53.5 -22t49.5 -31t36.5 -43t13.5 -59q0 -8 -9.5 -19t-14.5 -8l-129 51 l-863 -24q-11 0 -19 3q14 -27 14 -38v-485q12 -20 72 -20h5q64 1 152.5 9t188 25.5t185 32.5l142.5 25q41 8 56 8q7 0 8 -2q8 0 31 1t49.5 2.5t48 3t29.5 1.5q0 -65 -71 -105t-178 -61.5t-232 -33.5t-233.5 -20t-183.5 -19q-77 -5 -83 -27q-16 -42 -22.5 -96t-8.5 -109 q-1 -28 -0.5 -55t0.5 -55q2 -54 2 -97v-38v-55v-53.5v-33.5q10 -27 47.5 -40t80.5 -17q29 -3 55 -3q13 0 26 1q43 3 59 3q91 0 182 9.5t181 18.5t179.5 18.5t180.5 9.5h16q6 -3 16.5 -5.5t22.5 -8t20 -10.5q11 -5 16 -5q6 -3 16 -11q11 -5 11 -11q0 -51 -56 -84.5 t-142 -53.5t-188 -29.5t-195.5 -13.5t-160.5 -4h-86q-107 0 -189 19t-136.5 63t-81.5 119q-27 81 -27 193z" />
<glyph unicode="F" horiz-adv-x="1412" d="M-94 1471v14q38 37 131.5 66.5t222.5 50.5q130 22 282 33q134 10 269 10q18 -1 37 -1q154 -2 301.5 -21.5t263 -56t190.5 -95.5q75 -61 83 -142q-86 0 -168 21.5t-165 48.5t-167.5 48.5t-175.5 21.5q-21 0 -62 1q-42 0 -96 2q-15 0 -29 1q-41 0 -81 -3q-56 -4 -104 -16 t-77.5 -35t-29.5 -60q1 -40 -5 -110q-4 -48 -4 -98v-45q2 -74 18.5 -138.5t59.5 -93.5h19h29.5h32.5h21q134 11 234 11q50 0 92 -3q124 -8 178 -32q42 -19 42 -43q0 -7 -3 -13q-15 -30 -91 -57q-78 -27 -214 -45q-102 -13 -232 -13q-45 0 -94 2q5 -121 10.5 -189.5t12 -107 t12 -61.5t13.5 -53.5t13.5 -83t10.5 -154.5q-37 6 -69.5 7t-55 1t-34.5 3t-7 8q-16 72 -24 120.5t-12 87t-4 71t-1.5 70t-7 87t-15.5 121.5q-8 54 -37.5 74t-68.5 22h-14q-32 0 -66 -6q-42 -7 -78.5 -7t-57.5 17q-24 21 -24 69q0 6 12 15t17 9q49 6 94.5 7t81.5 14.5 t60 45.5q22 38 22 102q-19 115 -19 203v23q1 23 1 44q1 66 -7 114q-10 62 -48 82q-26 16 -74 16q-27 0 -62 -5h-36.5t-53.5 -1t-53.5 -1h-36.5q-5 -6 -25.5 -14t-25.5 -11h-8q-5 -2 -8 -2l-5 2h-6q-5 6 -13 24.5t-11 26.5z" />
<glyph unicode="G" d="M88 536q0 118 51 228t137 207.5t197 179.5t231.5 142t241.5 96.5t225 46.5q15 2 30 2q38 0 73 -11q50 -15 85 -41.5t56 -68t21 -95.5q-37 0 -72 9.5t-69.5 21.5t-72 20t-75.5 8q-96 0 -203.5 -28t-210.5 -81.5t-195.5 -127.5t-163.5 -162.5t-112.5 -190t-41.5 -209.5 q0 -75 37.5 -134t93.5 -97.5t123 -58.5t132 -20q118 0 242.5 6.5t226.5 40t166 106t64 203.5q0 16 -5 51q-3 35 -24 56h-491q-21 0 -38.5 11t-33.5 28t-24 37.5t-8 38.5q0 22 5 44.5t32 22.5t54 -9t53.5 -18.5t53.5 -19t56 -9.5q94 0 185 16t188 16q21 0 45.5 -12t43 -29.5 t32 -41.5t13.5 -45v-670q5 -6 18.5 -16.5t27 -22.5l27 -24t18.5 -18q2 -7 2 -13q0 -12 -6 -23q-9 -17 -25.5 -32t-36.5 -24.5t-36 -9.5q-56 0 -87 35t-47 83.5t-18.5 100.5t-2.5 90q-8 0 -33.5 1t-31.5 1q-75 0 -154 -17.5t-156.5 -36t-156.5 -36t-162 -17.5q-113 0 -204 39 t-155.5 108.5t-99.5 164.5t-35 208z" />
<glyph unicode="H" horiz-adv-x="1439" d="M43 630q0 35 17.5 45.5t39 20t38.5 24t17 55.5q0 107 -8 211.5t-18.5 211.5t-18.5 213t-8 210v27v39v37.5v22.5q8 22 22.5 27.5t30.5 5.5q14 0 33 -6q16 -5 16 -27l107 -897q0 -6 9.5 -27.5t14.5 -23.5h11h13q11 2 43 10t112.5 41.5t222.5 102t383 186.5l11 608 q0 16 10.5 36.5t27 36.5t32.5 25.5t32 9.5q24 0 38.5 -8.5t14.5 -45.5q0 -8 -10.5 -28t-13.5 -26q0 -10 -1 -37t-1 -58v-59v-39q0 -227 5 -455t21 -453q3 -27 9.5 -95.5t15 -146t16.5 -148.5t13 -101q0 -5 2.5 -15.5t8 -24t8 -24.5t5.5 -13v-16v-8q-5 -6 -16 -15.5 t-23 -17.5t-22.5 -14.5t-16.5 -6.5q-6 -1 -12 -1q-29 0 -49 33q-24 40 -37.5 95t-19.5 109q-5 53 -8 75q0 3 -1 40.5t-4 95t-7 130t-9 144.5t-12 136.5t-12 107.5l-139 -62q-25 -11 -71.5 -33.5t-108.5 -50.5t-129 -59t-127 -60.5t-109.5 -51t-71.5 -32.5l5 -536 q0 -8 -18.5 -28t-29.5 -25q-9 -2 -16 -2q-30 -1 -44 35q-17 44 -24 115.5t-11 151.5t-19 147q-14 68 -49 104q-22 23 -55 22q-20 0 -44 -8q-3 6 -7 19t-4 19z" />
<glyph unicode="I" horiz-adv-x="460" d="M40 1501q20 26 40 26q12 0 24 -10q32 -27 64.5 -100.5t63.5 -187.5t56.5 -242.5t48 -265.5t38.5 -257.5t27 -214.5t11 -142v-32t-3 -31t-15 -27t-36 -17q-4 -1 -8 -1l-24 11q-16 14 -32 33t-25.5 36t-12.5 23q-13 99 -25 207.5t-23 218.5t-24 217q-13 113 -30 209 q-8 40 -28 107t-38.5 143.5t-33.5 154t-15 142.5z" />
<glyph unicode="J" horiz-adv-x="1206" d="M59 844q0 48 37 89q33 37 92 40q29 -16 21 -35q-11 -16 -21 -43v-13q0 -70 36 -151.5t93.5 -162t132.5 -157t153 -134t151.5 -91t132.5 -33.5q32 0 52 36t33.5 91t21.5 120.5t9.5 124.5t1.5 102v59v41.5t-1.5 54t-1.5 45.5v23l-142 1005q29 76 58 76q2 0 5 -1 q31 -8 58 -76.5t52.5 -182.5t46.5 -244t37.5 -262.5t25.5 -238.5t15 -170q1 -19 1 -31q0 -32 -4 -28q2 -29 2 -69q0 -20 -1 -42q-1 -69 -9 -146.5t-25.5 -156.5t-49.5 -142t-81.5 -103.5t-119.5 -40.5q-110 22 -205 82t-177 139t-159.5 169t-149.5 181q-22 27 -43.5 54 t-39 59t-28 72t-10.5 91z" />
<glyph unicode="K" horiz-adv-x="1286" d="M51 1533q0 5 4 17t12 24.5t20 20.5t23 8q24 0 36 -16.5t19 -39t9.5 -45.5t7.5 -33q11 -43 16.5 -102t12 -127.5t13 -138t15.5 -136.5q34 37 81 99t103.5 134t119.5 147t127 134t128 95q60 34 119 34h10q19 -19 9.5 -44.5t-33.5 -57.5t-59 -67t-72 -75 q-56 -67 -122 -136.5t-130 -139.5t-121 -139q-56 -65 -91 -124q75 -104 170.5 -194t200 -170t216.5 -150q113 -72 220 -142q32 -11 56 -33q24 -20 36 -46q11 -24 11 -45q0 -25 -18 -39t-53 -10t-91 31q-43 35 -110 79t-142 95t-155.5 104.5t-153 107t-128.5 104.5t-88 99 q-8 -33 -8 -77q0 -15 1 -33q4 -66 13.5 -136t20 -137t10.5 -120.5t-13.5 -85.5t-50.5 -32q-38 0 -62 53.5t-37.5 136.5t-18.5 182t-5 187.5t1 155.5t1 89q-5 85 -17 179t-27 190.5t-25.5 190.5t-10.5 174z" />
<glyph unicode="L" horiz-adv-x="951" d="M51 434q5 94 12 213t17.5 238.5t24 230.5t32 194.5t40.5 128.5q20 34 40 34q7 0 13 -4q38 -5 48 -59q8 -39 8 -96q0 -22 -1 -46q-4 -88 -20 -201t-30.5 -231t-25.5 -234q-7 -75 -7 -143q0 -36 2 -70q0 -27 9 -58t25.5 -57.5t40.5 -48.5q27 -21 56 -21l539 -49 q24 -2 28 -26t4 -38q0 -48 -29.5 -64t-77.5 -27q-11 0 -39 -1.5t-59 -2.5t-58 -1h-37q-124 0 -227 18.5t-175.5 68t-112.5 134t-40 218.5z" />
<glyph unicode="M" horiz-adv-x="1465" d="M51 1621q0 57 54 57q67 0 112.5 -40.5t80 -96.5t67 -126t76.5 -126t101.5 -96.5t143.5 -40.5q12 -1 24 -1q91 0 154 35q71 39 115.5 99t72.5 131t49.5 131.5t45.5 98.5q22 30 51 30q6 0 13 -1q30 5 44.5 -13.5t22.5 -46.5t9.5 -55t1.5 -38q0 -102 -14.5 -194.5 t-14.5 -196.5q0 -137 18.5 -271t44 -269t45.5 -269t20 -268q0 -22 -5 -35.5t-16 -18.5t-24.5 -5h-29.5q-35 0 -63 8t-39 51q-5 26 -10.5 85t-13.5 131.5t-16 154.5t-16 155.5t-14.5 131t-9.5 87.5q-4 22 -4 53v14v10q1 35 -5 73q-6 43 -21.5 80.5t-44.5 53.5 q-97 -54 -193.5 -80.5t-203.5 -26.5q-158 0 -316 192q-11 0 -15 -16t-6.5 -37.5t-1 -45.5t1.5 -40l-3 -895q0 -16 -9.5 -28t-23 -17.5t-28 -9.5t-28.5 -4q-42 0 -57 36t-20 71v386q0 177 14.5 348.5t14.5 348.5q0 54 -21.5 96.5t-45.5 84t-44 83t-20 92.5z" />
<glyph unicode="N" horiz-adv-x="1672" d="M78 163q0 126 8 252t20 251t20 248q8 126 8 249q0 70 -14.5 134t-14.5 131v14q5 3 19.5 7t31 6.5t32.5 7.5q13 6 18 6h27q22 -97 58 -231t87 -273.5t120.5 -277.5t160.5 -246.5t204 -174.5q108 -63 240 -62h12q83 0 146 28t103 77.5t60.5 116.5t20.5 148q0 104 -42 194 t-90 173t-89.5 166t-41.5 179q0 38 8 59.5t45 21.5q43 0 87.5 -48.5t84.5 -123.5t75 -167.5t61.5 -183.5t41.5 -168.5t15 -123.5q0 -115 -37.5 -210t-106 -166t-163.5 -110t-210 -39q-126 0 -226.5 48t-179.5 124.5t-139.5 162.5t-103.5 162t-73.5 124.5t-49.5 48.5 q-35 0 -51 -24t-23 -56.5t-7 -68.5v-55q0 -86 16.5 -159.5t16.5 -156.5q0 -19 -4 -48.5t-13.5 -59t-28.5 -51t-48 -21.5q-27 0 -44.5 20.5t-28 45.5t-14.5 53.5t-4 46.5z" />
<glyph unicode="O" horiz-adv-x="1672" d="M51 748q-1 14 -1 29q0 103 32 191q36 102 103 180.5t163 127.5q97 43 212 53q201 -29 384.5 -101.5t324.5 -185t229.5 -262.5t98.5 -338q-27 -139 -110 -219.5t-195.5 -124.5t-240.5 -66q-129 -19 -236 -35q-166 0 -307 55t-241.5 151.5t-158 236t-57.5 308.5zM177 761 v-13q0 -116 52 -218q55 -108 143.5 -187.5t198.5 -133.5t220 -70q37 0 98.5 7t134 21.5t146.5 40t134 62t99 86t39 113.5q-19 134 -82 238.5t-154 185t-198.5 136.5t-212 89.5t-195.5 44.5q-46 6 -83 5.5t-67 -5.5q-83 -29 -135 -77.5t-83 -103.5t-43 -111t-12 -110z" />
<glyph unicode="P" horiz-adv-x="1723" d="M54 1469q0 29 28 54.5t75 44.5t100.5 33.5t103 24t88.5 15t52 5.5q91 0 213 -11t252 -39t257.5 -75t226.5 -115.5t163 -164.5q62 -94 62 -223q3 -20 3 -40q0 -68 -36 -127q-46 -76 -124.5 -136.5t-177.5 -105t-193 -69.5t-169 -32q-25 -2 -45 -2q-40 0 -59 9v-25 q0 -93 16 -184.5t16 -184.5q0 -11 -3 -34t-12 -44.5t-24 -34.5q-11 -9 -28 -9q-7 0 -14 1q-37 67 -62.5 173t-43 221t-28 217t-21.5 161v461q0 29 24 54.5t54 25.5h13h11q11 -72 16 -148.5t9 -151.5t18 -150q10 -75 35 -145q42 -10 93 -16q49 0 113 -5q70 0 151.5 22.5 t151 65.5t116.5 106t47 141q0 86 -56 151.5t-144.5 116.5t-196 88.5t-210.5 60t-191.5 33.5t-136.5 11q-16 1 -59 3q-27 2 -57 1q-18 -1 -38 -1q-52 -2 -100.5 -6.5t-75.5 -20.5q-24 -14 -44 -48.5t-39 -71t-39 -63t-44 -26.5h-5q-3 0 -8 2q-6 3 -8.5 8.5t-6.5 27t-6.5 61.5 t-2.5 110z" />
<glyph unicode="Q" horiz-adv-x="1763" d="M70 750v38q0 129 46.5 252t130 219.5t197 155.5t247.5 59q89 0 197.5 -43t219.5 -116.5t217 -168.5t188 -198.5t131.5 -206.5t49.5 -194q0 -73 -24 -133t-63 -109.5t-91.5 -91t-111.5 -79.5v-27q0 -48 28.5 -87t71 -68.5t92.5 -56t92.5 -51t73.5 -48.5t34 -51 q-59 -56 -111.5 -56t-102 33.5t-99 88.5t-102 106t-109.5 86q-50 30 -102 30q-9 0 -18 -1h-32l-21 -3q-8 -2 -39 -5t-66 -8t-65.5 -8t-38.5 -3h-11q-31 -3 -62 -3q-128 0 -247 44q-147 53 -259.5 157.5t-176.5 245.5t-64 301zM220 750q-2 -25 -2 -48q0 -99 36 -184 q46 -105 132 -180t198 -118q100 -40 215 -40h16h52t51 8t37.5 26.5t14.5 58.5q-11 51 -45.5 104.5t-61.5 102t-35 90.5q-1 7 -1 13q0 33 31 55q42 0 88 -48.5t91.5 -111.5t88.5 -124q40 -59 75 -91q5 0 18.5 -1.5t18.5 -1.5q38 0 91.5 23t104.5 57.5t88.5 79t37.5 87.5 q0 56 -19 111t-48.5 107t-66.5 95q-32 46 -70 86q-21 21 -56 57.5t-70 70t-64.5 56t-42.5 22.5q-5 -61 -22.5 -121.5t-55.5 -111.5h-5l-6 -3h-8q-2 0 -5 3q-3 0 -13.5 5.5t-24 13.5t-24.5 13l-10 11q37 92 37 157q0 18 -2 35q-14 73 -63.5 116t-120.5 60.5t-136.5 17.5 t-111.5 -6q-48 -5 -45 -10q-92 -32 -148 -90t-87 -130t-41.5 -155.5t-10.5 -166.5z" />
<glyph unicode="R" horiz-adv-x="1589" d="M-27 1439q0 38 16 71.5t43 60t59 49.5t64 39q86 16 152 26.5t124.5 17.5t119 8.5t135.5 1.5t158 -12.5t169 -36.5t162.5 -63t136.5 -93.5t95 -125.5t35 -160q0 -78 -48.5 -137t-128.5 -101.5t-178 -72t-196 -52.5t-183 -39q-86 -21 -140 -37q134 -185 265.5 -314 t246.5 -217.5t209 -143t153 -92t75 -59.5q5 -6 5 -12q0 -16 -29 -36q-20 -25 -56 -25q-18 0 -41 6q-67 19 -154 74t-186 136.5t-195.5 170t-183.5 174.5t-146 150q18 -121 43.5 -221.5t39.5 -175.5q10 -55 9 -93q0 -14 -1 -27q-6 -46 -54 -57q-5 -16 -21 19t-37.5 106 t-45.5 170t-47 210.5t-42 229.5t-31 225t-12 195.5t16 147.5q33 24 58 12t40 -39t20 -62q0 -34 -5 -64q3 -11 9.5 -40.5t14.5 -63t16 -62.5t14 -40q37 5 110.5 14.5t159.5 27t176 41.5t162 56t119 75t47 97q0 5 -3 13v8q-75 86 -152.5 139.5t-164.5 79t-183.5 33.5t-206.5 8 q-81 0 -169 -1.5t-162 -22.5t-122 -77.5t-48 -163.5q-24 0 -43 16t-32.5 38.5t-21.5 48t-8 44.5z" />
<glyph unicode="S" horiz-adv-x="1723" d="M54 477q0 27 10.5 57.5t29.5 59t45.5 47t56.5 18.5q0 -174 61.5 -274.5t170 -154t247.5 -72.5q140 -19 301 -27q53 3 140 4.5t167.5 19t136.5 57.5q54 38 54 115v8q0 38 -2.5 67t-12 52t-32.5 44.5t-63 42.5l-796 435q-43 24 -83 60t-67 80t-43 94t-16 98q0 102 55 166 t136.5 103t177 55t175.5 16q38 0 97 -6.5t126 -20t132.5 -35t116.5 -55t84.5 -77.5t33.5 -103q-28 -16 -56 -16q-11 0 -21 2q-38 8 -78.5 29.5t-83.5 48.5t-88 53q-46 28 -97 44q-37 12 -77 12q-15 0 -30 -2q-51 0 -131.5 -5t-156.5 -25.5t-131 -62t-55 -116.5 q0 -72 51 -132.5t138 -115.5t195.5 -104.5t219.5 -101.5t217 -108.5t185 -123.5q80 -67 124 -143q34 -59 33 -130q-1 -22 -3 -44q-14 -96 -83.5 -165.5t-176.5 -108.5q-106 -39 -238 -51q-62 -6 -126 -6q-71 -1 -145 7q-139 14 -276 51.5t-249.5 100.5t-193 147.5 t-106.5 191.5z" />
<glyph unicode="T" horiz-adv-x="1594" d="M8 1678h139.5t234.5 -3t294.5 -8t320.5 -16t311 -25.5t266.5 -37.5t185 -52.5t68.5 -66.5q0 -27 -8 -54t-40 -27q-100 6 -196.5 30t-193.5 46q-96 22 -196 32q-23 2 -47 3q-78 0 -158 -25q0 -123 14.5 -270.5t35 -300.5t46 -305.5t49.5 -286.5q5 -35 22.5 -68.5t36 -64.5 t32 -63t13.5 -64q0 -22 -13.5 -34t-32 -16t-40 -4h-34.5q-54 0 -85 43t-47 100.5t-21.5 119.5t-10.5 99q-21 148 -37.5 286t-28.5 276t-21 278.5t-20 290.5q-188 0 -387.5 25.5t-381.5 54.5q-24 -5 -37.5 7t-21.5 32t-9.5 39t-1.5 30z" />
<glyph unicode="U" d="M75 1045q0 24 1.5 65.5t5.5 91.5t14.5 102t32 93.5t53.5 68.5t78 27q29 0 45.5 -16t19 -39t-13.5 -50t-51 -48q-24 0 -35 -36t-16 -79t-5 -83.5v-48.5q0 -69 5 -160t21.5 -189t47 -194.5t80 -175.5t119.5 -132.5t169 -59.5q10 -1 21 -1q68 0 153 28q99 32 185 92.5 t146 139.5t60 165v10q-18 113 -38.5 188t-35 136.5t-24 126t-9.5 150.5q8 123 28 183.5t41.5 67t46 -31t42.5 -108.5t27 -169q6 -71 6 -149q0 -29 -1 -59q3 -80 31 -176.5t63 -193t71 -187.5q36 -92 55 -160q13 -48 13 -84q0 -15 -2 -28q-8 -44 -56 -44q-54 0 -81 32 t-45.5 71t-40.5 71q-21 32 -53 32q-27 0 -64.5 -20t-84.5 -52t-102 -69.5t-114 -70t-120.5 -54t-125.5 -21.5q-115 0 -201 55t-147.5 143.5t-103 202.5t-66 230.5t-35 225t-10.5 191.5z" />
<glyph unicode="V" horiz-adv-x="1157" d="M51 1378q0 29 20 35.5t42 6.5q50 0 93 -59t79.5 -138t64.5 -158t49 -122q8 -16 32.5 -67t55 -120.5t64 -146t66 -146t53.5 -122t29 -68.5q17 16 34 75t37.5 146.5t39 190.5t38.5 209t41.5 203.5t42.5 172.5q22 74 42 116q17 35 35 35q4 0 7 -1q7 2 14 2q29 0 42 -40 q14 -43 14 -116v-24q-2 -90 -21.5 -213t-50 -253t-69.5 -261.5t-84.5 -238.5t-91 -182t-88.5 -97q-6 0 -19 1.5t-16 1.5q-14 27 -48.5 92.5t-72 139.5t-69.5 138q-33 64 -43 91q-16 35 -49.5 107.5t-74 162t-82 188.5t-77.5 189t-57.5 161t-21.5 109z" />
<glyph unicode="W" horiz-adv-x="1929" d="M27 1056v57.5t8 106t29 101.5q27 46 70 46q19 0 27 -51t14.5 -131.5t14.5 -185t17.5 -214.5t27 -214.5t45.5 -186t69.5 -131t100.5 -49.5q48 0 92.5 26.5t82 64t68.5 78t55 67.5q16 37 22 86q6 48 8 98q1 25 1 50q-1 24 -1 46q-2 46 -3 79q13 37 31.5 52t35 9.5 t32.5 -28.5t29 -60q14 -86 48.5 -190.5t92 -194.5t141 -150t193.5 -60q58 0 121 24t113 67t82 99t32 121q0 102 -32 198.5t-72.5 191.5t-72.5 190t-32 194q30 65 65 65q6 0 12 -2q42 -12 83 -79t78.5 -173t67 -214.5t43.5 -203.5q13 -83 13 -128v-12q0 -102 -43 -193.5 t-116.5 -163.5t-169 -115t-197.5 -43q-80 0 -156.5 48t-136.5 107t-104.5 107.5t-65.5 48.5h-4.5h-3.5h-6q-118 -107 -190 -166t-115 -87.5t-62 -32.5t-27 -4q-101 0 -175 58t-123.5 149t-80.5 207.5t-47 232t-22.5 217t-6.5 171.5z" />
<glyph unicode="X" horiz-adv-x="1465" d="M54 -83q0 99 52 209t128.5 221t159.5 213t147 182q0 43 -22.5 95.5t-57.5 107.5t-75 112.5t-75 112.5t-58 107t-23 101q0 32 9.5 48t44.5 16q13 -3 38.5 -35t56.5 -80.5t64.5 -104.5t63 -108.5t53.5 -91t35 -52.5q27 -48 55 -70q13 -10 31 -9q21 -1 49 13 q52 26 146 106.5t250 235.5q18 16 66 46q49 28 101 46q40 13 75 14q10 0 22 -2q46 -6 55 -58q-86 -54 -181.5 -121t-187.5 -143.5t-178 -156.5t-148 -158q25 -67 82.5 -151.5t123 -170t127 -165t92.5 -135.5q23 -42 23 -67q0 -8 -2 -14q-6 -14 -33 -14q-22 0 -59 9 q-70 54 -131.5 126.5t-117.5 148.5t-115 150t-121 130h-13q-16 0 -43 -25.5t-58 -63t-64.5 -84.5t-65.5 -93.5t-53 -84.5q-27 -37 -38 -59q-16 -19 -37.5 -68.5t-45.5 -103t-51 -96.5t-45 -48q-33 0 -42 22.5t-9 60.5z" />
<glyph unicode="Y" horiz-adv-x="1106" d="M48 1755q3 0 15 1.5t27 3t28 3.5h16q19 -53 51 -120t79 -137t103 -135.5t119 -117.5t131.5 -83t140.5 -31q49 107 77 170t44 98t21.5 52.5t8 37.5t5.5 48t13 87q0 11 21.5 23t44.5 14.5t43 -5.5t20 -32q0 -147 -32 -280t-80.5 -259t-102 -250.5t-93.5 -255.5t-58 -273 q-7 -60 -7 -123q0 -87 14 -180q-16 -30 -32 -42t-43 -12t-46 12t-35 42v28v43v43v28q0 115 12 205t32.5 175.5t50 175.5t61.5 202q0 6 1 20.5t1 19.5q6 3 -46.5 27t-127.5 68.5t-163.5 111.5t-162 155.5t-117.5 198.5q-36 89 -36 194q0 24 2 49z" />
<glyph unicode="Z" d="M46 1490v16q0 70 46.5 107.5t111 59t130 24t108.5 2.5q123 0 244 -21.5t213.5 -77.5t148.5 -152.5t56 -244.5q0 -43 -8 -72.5t-17.5 -54.5t-16 -54.5t-6.5 -67.5q0 -13 27 -21t67 -12t87 -7t87 -11t68 -24t28 -43v-5l-2 -6q-19 -10 -43 -23.5t-51 -25.5t-53.5 -20 t-48.5 -8q-11 0 -17.5 4l-13 8t-12 8t-16.5 4q-104 0 -180.5 -51t-135.5 -128.5t-107.5 -169t-93.5 -166.5q0 -5 -4 -20t-4 -17q0 -43 18.5 -55t59.5 -12q96 0 191 21.5t187.5 45.5t186.5 43q97 21 188 21q34 0 43.5 -18.5t9.5 -48.5q0 -32 -8 -51t-45 -35 q-172 -59 -345 -96.5t-352 -37.5h-36.5t-55 1.5t-55 1.5h-33.5q-67 21 -99 73.5t-32 119.5t40 126t88.5 115t88.5 111t40 112v13q-2 5 -10 24q-6 19 -11 24h-19t-28 1.5t-28.5 1.5h-15.5q-78 0 -154.5 -16t-156.5 -16q0 37 12 78.5t52 57.5q89 27 168 38t143 21.5 t116.5 25.5t90 49.5t61.5 97.5t35 168q0 96 -47 162t-119.5 107.5t-158 58.5t-163.5 17q-64 0 -120.5 -16t-107.5 -36t-95 -36t-90 -16q-5 0 -13 9.5t-13 14.5z" />
<glyph unicode="[" horiz-adv-x="1310" d="M54 1544v10q0 27 13 52.5t35 39.5q118 45 260 96t289.5 92.5t296 69.5t277.5 28h8q5 -5 16 -24t13 -29v-14v-10q-5 -6 -14.5 -16.5t-14.5 -10.5q-113 -24 -237.5 -55t-252 -66t-252 -76.5t-234.5 -86.5h-21q0 -24 8 -74t22.5 -104.5t32 -104.5t36.5 -76 q54 -354 82 -591.5t46.5 -380.5t34.5 -205q22 -62 54 -62q156 0 310 16.5t309 16.5h47t75 -1.5t75 -1.5h50q24 -22 49.5 -52.5t25.5 -68.5q0 -2 -3 -5v-5q-5 -6 -22.5 -14t-25.5 -11q-78 3 -192 4.5t-234.5 0t-232.5 -6.5q-113 -6 -191 -22q-5 0 -20 -5t-31 -8t-30.5 -8 t-20.5 -5q-5 -3 -15.5 -7t-22.5 -9.5t-26 -8.5l-13 -2q-3 0 -12.5 10.5t-11.5 16.5q-8 10 -19 38.5t-11 36.5q-3 10 -3 45t-4 79t-5 95t-4 95.5t-5.5 78t-2.5 46.5q-3 13 -9.5 55t-16 99.5t-20 125.5t-21.5 132.5t-20 118t-15 88.5q-3 3 -7 13.5t-8 22.5t-9 23q-5 8 -5 14 v29z" />
<glyph unicode="\" horiz-adv-x="1181" d="M27 1453q0 21 17.5 30.5t33.5 9.5q5 0 52 -49.5t122 -130t169 -188t193 -225t192.5 -235.5t167.5 -224t118 -187.5t44 -130.5q0 -16 -8 -38.5t-22.5 -43t-33.5 -33.5t-40 -8q-48 11 -67 36.5t-24.5 60t-10.5 71t-27 65.5q-27 30 -80.5 97t-119 150t-138 175.5t-138 177 t-118 151.5t-76.5 99q-11 16 -45.5 59t-71 99t-63 113.5t-26.5 98.5z" />
<glyph unicode="]" horiz-adv-x="1181" d="M24 2224q11 30 63 42t123 10.5t153 -12t155.5 -22.5t128.5 -20t74 -8q94 -19 149 -66t85.5 -114t44.5 -147q13 -75 32 -161q2 -54 6.5 -149t11 -219.5t14.5 -268t16 -291t16 -291t16 -266.5t13.5 -219.5t8.5 -147.5v-48q0 -22 -15 -36.5t-33.5 -25.5t-40 -16t-40.5 -5 h-721q-70 0 -88.5 36t-18.5 95v30q5 16 5 21l51 21h694q22 0 24.5 19t2.5 30q0 134 2.5 302.5t1.5 353.5t-8 376.5t-27 371.5t-56 336.5t-92 269.5q-38 21 -106.5 37t-153 29.5t-171.5 27t-158 32t-116.5 40t-45.5 53.5z" />
<glyph unicode="^" horiz-adv-x="1029" d="M134 1533q75 70 128.5 112.5t90 85.5t62 99.5t46.5 152.5q5 22 22.5 23t33.5 1q38 0 56.5 -17.5t42.5 -57.5q16 -27 45.5 -60.5t60.5 -69.5t59 -69.5t44 -54.5q19 -30 28.5 -48.5t15 -33.5t8 -31t2.5 -43q0 -37 -8 -58.5t-46 -21.5q-40 0 -73.5 29.5t-68 69.5t-76.5 84.5 t-92 73.5q-51 -64 -109 -127t-110 -96.5t-96.5 -25.5t-65.5 83z" />
<glyph unicode="_" horiz-adv-x="1800" d="M75 233q0 43 32 47t73 4q96 0 194 -20t194 -31h24q11 0 52.5 -2.5t94 -6.5t112.5 -7t112.5 -5.5t91 -5t52.5 -2.5h49.5h88h107.5h107.5h88.5h49q30 0 58 -8t49.5 -23t35 -39t13.5 -56q0 -27 -17.5 -52.5t-44.5 -25.5q-70 0 -175.5 5.5t-231.5 13.5t-265.5 20t-273.5 28 t-254.5 35t-213 40t-147.5 44t-55 47z" />
<glyph unicode="`" horiz-adv-x="474" d="M55 1509q4 19 44 13.5t137 -53.5q32 -27 49.5 -43t32 -29.5t32 -29.5t49.5 -43q6 -5 16.5 -24t10.5 -24q0 -54 -19 -67q-21 -14 -59 -14q-5 0 -13 3t-35 23t-72.5 59t-120.5 111q-21 29 -38.5 64t-13.5 54z" />
<glyph unicode="a" horiz-adv-x="1388" d="M51 453q3 45 27 104t75 115.5t128.5 100.5t183.5 63q58 10 124 10q55 0 117 -7q136 -16 302 -81v27l-3 24q0 70 -40 142.5t-103 130t-135.5 93.5t-139.5 36q-27 0 -47 -8t-39 -20t-36 -21.5t-42 -9.5q-5 0 -5 3l-5 5q-6 6 -15 14t-9 11q0 48 17 82.5t48 56t70 33.5t82 12 q107 -10 205 -65t179.5 -138t143 -191.5t103 -225.5t55.5 -234q9 -66 9 -127q0 -54 -7 -104q-2 0 -15.5 1.5t-29.5 2.5t-27 4l-13 3q-57 126 -126.5 203.5t-138 122t-127.5 61.5t-96 26q-40 0 -95 -5.5t-114 -19t-119.5 -36.5t-107 -55t-75 -76t-28.5 -103q0 -65 51 -109 t123.5 -72t147.5 -39t120 -11q75 0 147.5 8t143.5 19t141 19t139 8h19t28 -1.5t27 -1.5h17q22 -8 24.5 -24t2.5 -32t-33.5 -35t-87 -37.5t-119 -38.5t-126 -33.5t-112.5 -23t-74 -9.5q-112 0 -238 19t-230.5 68.5t-173 138t-68.5 227.5z" />
<glyph unicode="b" horiz-adv-x="1364" d="M28 1624q1 54 34 83q34 30 120 40q6 -26 14 -101.5t17 -170.5t21.5 -198t23 -189t23.5 -139q14 -59 25 -54q48 0 95 16t100 16q81 0 172 -14.5t180.5 -44t174 -76.5t147.5 -108.5t100.5 -142t37.5 -177.5q0 -123 -60 -196.5t-154 -111t-204 -48.5q-112 -11 -209 -11 q-134 0 -222.5 33.5t-144.5 92.5t-85.5 137t-43 170.5t-19 193t-16.5 201.5q-2 19 -13 85t-25.5 145t-25.5 146t-13 85q-14 118 -32 201q-18 79 -18 131v6zM335 584q-11 -47 -11 -88q0 -64 26 -116q42 -86 120 -140t182 -76q61 -13 122 -13q42 0 84 6q102 15 182 63 q86 51 123 139q0 72 -33.5 131t-87 105t-122 79.5t-139.5 54.5t-140.5 33.5t-123.5 12.5q-88 0 -135 -51t-47 -140z" />
<glyph unicode="c" horiz-adv-x="1232" d="M51 598q0 118 45.5 229t124.5 197t183.5 136.5t222.5 50.5q54 0 114 -12t114 -38.5t88.5 -71t34.5 -111.5q0 -11 -6.5 -43t-17.5 -64t-25.5 -57.5t-25.5 -25.5q0 126 -69.5 210.5t-203.5 84.5q-102 0 -182.5 -43t-134 -112.5t-81.5 -157t-28 -178.5q0 -123 40 -203.5 t109.5 -130t161 -73.5t193.5 -32q77 -6 154 -6q24 1 49 1q102 2 196 7q8 0 26.5 -10.5t26.5 -13.5v-8q0 -5 1.5 -5t1.5 -3q0 -29 -29.5 -50.5t-72.5 -35t-93.5 -19t-100.5 -9.5t-87.5 -4h-53.5q-155 0 -279.5 35t-212 108.5t-135.5 187.5t-48 270z" />
<glyph unicode="d" horiz-adv-x="1439" d="M51 608q0 100 25.5 209.5t80.5 203.5t139.5 154t207.5 60q64 0 128.5 -18.5t132.5 -53.5t142 -82t157 -103q4 39 4 79q0 69 -12 142q-19 114 -48.5 224t-59.5 208q-30 97 -44 175q-8 44 -8 79q0 27 4 50q10 51 65 64q72 -53 124.5 -151t90 -226.5t61.5 -274.5t40 -296.5 t25.5 -292.5t20 -261t20 -203.5t28.5 -119.5q0 -43 -31 -53.5t-63 -10.5q-27 0 -45.5 20t-29.5 47t-20 60.5t-20 61.5t-24.5 46.5t-34.5 18.5q-6 0 -15 -1t-9 -4q-51 -70 -119.5 -135.5t-150 -115t-171.5 -79t-181 -29.5q-102 0 -178.5 67t-128.5 161t-77.5 198.5 t-25.5 181.5zM217 560q27 -96 48.5 -168.5t52 -118t73.5 -68.5t113 -23q86 0 182.5 49.5t179.5 127.5t136.5 170.5t53.5 178.5v32v32q-142 139 -262 200q-118 60 -212 61h-5q-91 1 -159 -41q-70 -42 -116 -112q-44 -70 -66 -156q-19 -75 -19 -145v-19z" />
<glyph unicode="e" horiz-adv-x="1415" d="M51 718q0 140 41.5 267t120.5 223.5t193 154t264 57.5q88 -10 154 -47.5t107.5 -92.5t60.5 -128q16 -69 16 -150q0 -96 -56.5 -174t-142 -130t-185 -80t-184.5 -28h-66.5t-60 10.5t-42.5 32t-16 64.5q0 13 4 22.5t22.5 13.5t56.5 1q37 -5 102 -16q37 0 108 25.5t144.5 66 t127.5 92.5t54 103q0 54 -17.5 106t-52.5 92.5t-82 64.5q-38 19 -83 19q-11 0 -23 -1q-93 -8 -169.5 -50.5t-130 -111t-83 -151.5t-29.5 -174q0 -70 2.5 -139.5t20 -136.5t56.5 -129t112.5 -108.5t186 -77.5t278.5 -39l480 32q-43 -59 -108.5 -96.5t-139.5 -60.5t-146 -33.5 t-137 -10.5q-155 0 -291.5 51t-241 143.5t-165 225t-60.5 298.5z" />
<glyph unicode="f" horiz-adv-x="1034" d="M-24 748q0 45 32 69.5t77.5 35t95 14.5t82.5 7q-6 80 -9 190v35q0 93 12 193q13 118 43.5 231.5t88.5 205t146 147.5t217 56q72 0 158 -36t159.5 -95t122 -132.5t48.5 -148.5h-62q-53 0 -94.5 40t-87.5 89.5t-96.5 90t-115.5 40.5q-91 0 -166 -40.5t-128.5 -107.5 t-80.5 -150t-27 -169v-27l49 -383q5 -5 29 -9t76.5 -11t139.5 -15t221 -16q49 0 49 -41q0 -5 -1 -12q24 -30 -1.5 -55.5t-84.5 -37.5q-52 -11 -128 -11q-10 0 -20 1q-88 1 -192 22q0 -102 47 -190t103 -168.5t104.5 -155.5t48.5 -150q0 -35 -22 -46q-16 -11 -48 -11 q-27 0 -57.5 20.5t-56 49.5t-47.5 62q-18 32 -29 53.5t-31 61.5t-47 93.5t-53.5 111.5t-52 111.5t-44.5 96.5q-21 40 -29 61l-30 30q-13 -6 -49.5 -12.5t-76.5 -14.5t-77.5 -16t-53.5 -8h-14q-21 0 -29 14.5t-8 36.5z" />
<glyph unicode="g" horiz-adv-x="1005" d="M-359 -745q-5 18 -5 34q0 17 6 33q12 29 33.5 48t47 24.5t43 -6.5t21.5 -44q1 -6 1 -12q0 -30 -18 -77q0 -59 49.5 -115.5t128.5 -102t172.5 -83t182 -64t158.5 -40.5q64 -13 96 -13q67 0 114 35t80.5 91t53.5 127t31 142t13.5 138t2.5 113q0 21 -4 78.5t-12 133 t-18.5 155.5t-24 150t-28.5 112.5t-31 42.5q-26 0 -62.5 -16t-75.5 -34.5t-79 -34.5t-77 -16q-76 0 -148 32t-124.5 83t-84.5 120.5t-32 144.5q0 118 47 241.5t128.5 225t193 166t237.5 64.5q96 -27 156.5 -122t94 -234.5t48 -309.5t20 -347t9.5 -347t20 -310 q0 -61 -6.5 -145.5t-23 -173t-44.5 -175.5t-73.5 -155.5t-111 -110t-151.5 -41.5q-70 0 -167.5 16t-203.5 51t-210.5 86t-187.5 116.5t-134 147t-51 178.5zM204 480q0 -49 14.5 -93t42.5 -79t70 -55t92 -20q137 0 208 53.5t98 134t27 171.5q-3 94 -8 169q0 38 -5.5 75.5 t-21.5 69.5t-44 51t-71 19q-89 0 -164 -50t-127 -123.5t-81.5 -160.5t-29.5 -162z" />
<glyph unicode="h" horiz-adv-x="1173" d="M-38 1868v11q0 10 13.5 19.5t31 17.5t35 12t28.5 4q51 -134 81.5 -226.5t49.5 -159.5t27 -112.5t13.5 -88.5t8 -88.5t10.5 -109.5q139 86 253 94q18 1 36 1q93 0 167 -34q88 -42 153.5 -128t108.5 -193t66 -227q24 -122 30 -234q2 -40 2 -76q0 -70 -8 -132 q-12 -96 -36 -153t-64 -67q-6 -1 -12 -1q-36 0 -77 51q5 70 10.5 145t9.5 150t5.5 147.5t1.5 131.5q0 86 -24 163.5t-70 135t-114 91t-162 33.5q-38 0 -64.5 -5.5t-53.5 -17.5t-59 -30q-32 -22 -75 -51q0 -6 -1.5 -20.5t-1.5 -17.5q0 -59 12.5 -156.5t25.5 -203.5t26.5 -205 t13.5 -161v-21.5t-1.5 -35t-1.5 -34.5v-24q-16 -38 -38.5 -47.5t-54.5 -9.5h-6q-29 0 -43 46q-16 51 -24 147.5t-14.5 233t-18.5 300t-35 347t-66 376.5q-21 75 -33 127.5t-23 94t-19 85.5t-19 106z" />
<glyph unicode="i" horiz-adv-x="479" d="M32 1600q0 32 19 41.5t48 9.5h4q18 -1 46 -23q31 -26 51 -58t22 -58q3 -33 -40 -38h-13q-40 0 -67 5.5t-41.5 17.5t-21.5 36t-7 67zM169 927v40.5t1.5 61.5t1.5 61.5v40.5q-2 13 -2 24q0 59 50 59q27 0 45.5 -13.5t34.5 -40.5q-2 -40 -2 -79q0 -97 14 -190 q20 -130 45.5 -257t48.5 -256t23 -268q0 -38 -23 -75.5t-68 -37.5q-35 0 -60.5 60.5t-44.5 153t-32 205t-20 215.5t-9.5 185t-2.5 111z" />
<glyph unicode="j" horiz-adv-x="549" d="M-302 -375v11q0 10 2 21q3 16 13.5 29.5t34.5 18.5q35 -19 68.5 -76.5t71 -138t80.5 -168.5t99 -160.5t128.5 -121t163.5 -48.5q30 0 50 16t32 39t16 50t4 48q3 64 3 128q0 172 -22 343q-29 234 -72 467t-89 464q-45 230 -64 461q5 18 5 31.5t7 23t20.5 15t45.5 5.5 q27 -19 57.5 -96.5t63 -198.5t64.5 -275t58.5 -323t45.5 -343t26 -337q3 -82 3 -158.5t-3 -147.5q-7 -142 -32.5 -242.5t-71.5 -153.5q-35 -41 -87 -41q-13 0 -28 3q-128 35 -246 115.5t-212 190t-155.5 242.5t-77.5 272q0 19 -2 35zM78 1549q0 11 20 29.5t33 21.5 q12 3 23 3q23 0 40 -13q26 -17 42 -45t24 -63t8 -62q-29 -26 -62 -29h-10q-28 0 -52 16q-29 19 -47.5 56.5t-18.5 85.5z" />
<glyph unicode="k" horiz-adv-x="1106" d="M-5 1637q18 50 39 50q6 0 13 -5q28 -20 57.5 -95t59 -186.5t52.5 -226.5t41 -217q16 -102 27 -158q5 -6 20 -6h20q54 0 94 32.5t76.5 82t71 107t72 105.5t83 81.5t104.5 33.5q38 0 46 -22.5t5 -52.5q-37 -29 -85.5 -77.5t-103.5 -104.5t-109.5 -117.5t-96 -119.5 t-70 -111.5t-28.5 -93.5q0 -59 39 -107t99.5 -88.5t135.5 -68.5t150 -48t142 -31q64 -11 107 -11q24 -5 26.5 -26.5t2.5 -40.5q0 -40 -25.5 -58.5t-61.5 -27t-75 -8.5h-65q-59 0 -135.5 37.5t-147.5 82t-125 81.5q-53 38 -75 38q-43 0 -57.5 -41.5t-20 -90t-17.5 -90 t-52 -41.5q-35 0 -64.5 19t-29.5 62q0 5 2.5 28t8 49.5t8 49.5t2.5 28.5v28t1.5 52t1.5 61.5v48.5v43t-1.5 54.5t-1.5 48.5v22.5q-8 124 -30.5 262t-48 274.5t-48.5 268t-33 240.5z" />
<glyph unicode="l" horiz-adv-x="329" d="M70 780q0 190 5 378q4 134 4 268q0 54 -1 107q0 21 16 29t37 8q24 0 43 -17t32.5 -42.5t20 -51t6.5 -41.5q16 -384 21 -640q3 -128 3 -231t-3 -181q-6 -157 -18 -232t-30 -102q-15 -22 -35 -22h-9q-26 6 -52 11q-27 191 -33.5 380t-6.5 379z" />
<glyph unicode="m" horiz-adv-x="2058" d="M75 938v18.5t1.5 28.5t1.5 27v17q2 5 13 13.5t14 13.5h13q45 0 67 -32q21 -27 21 -70q43 46 76.5 71.5t64.5 38.5t64.5 16t81.5 3q78 0 141 -16t114 -47t94 -82q42 -48 85 -113q3 0 7 -1t7 -1q2 0 26.5 25.5t64.5 61.5t93.5 80t112.5 82t120.5 63t120.5 25 q91 0 162.5 -37.5t127.5 -100.5t96 -142t67 -163.5t39 -167.5t12 -152q0 -27 -1 -92.5t-13.5 -134t-39 -121t-74.5 -52.5q-25 0 -35.5 9.5t-16 23t-5.5 29.5v35q0 8 1.5 21.5t1.5 26.5v24l3 16q0 8 4 45.5t9 80.5t8 82t3 50q-6 56 -24.5 147t-57.5 179.5t-98 153t-139 64.5 q-73 0 -152 -36.5t-147 -94t-111 -132.5q-46 -72 -46 -153q0 -40 13.5 -79t28.5 -76.5t28 -77.5t13 -83q0 -32 -12 -64.5t-57 -32.5q-49 0 -79.5 56.5t-56 143.5t-53.5 186.5t-70 186.5t-102 143t-154 56q-72 0 -128.5 -30.5t-92.5 -81.5t-56 -115.5t-20 -131.5 q0 -107 14.5 -210t14.5 -208q0 -37 -8 -68t-54 -31q-29 0 -49 14.5t-33.5 37.5t-21.5 51t-13 50q3 61 3 117q0 45 -2 87q-4 94 -11 178t-13.5 170t-6.5 182z" />
<glyph unicode="n" horiz-adv-x="1262" d="M78 883v162q0 24 17.5 31t38.5 7q16 0 22.5 -8t9.5 -19t8.5 -20.5t18.5 -9.5q37 0 91 29.5t117 64.5t134 64.5t140 29.5q91 0 167.5 -47t137 -124.5t103.5 -174t72.5 -197t42.5 -195.5t13 -165q0 -24 -4 -72.5t-13 -96.5t-30.5 -84.5t-53.5 -36.5q-6 0 -19.5 1.5 t-26.5 5.5t-22.5 9.5t-9.5 16.5q12 103 12 199.5t-12 187.5q-24 181 -78 317.5t-131.5 217t-165.5 80.5q-83 0 -155.5 -27t-126 -78t-84.5 -123t-31 -158t16 -170.5t36 -168.5t36 -170t16 -172q-75 0 -125.5 62t-81.5 158.5t-48.5 217t-24 237t-6.5 219.5z" />
<glyph unicode="o" horiz-adv-x="1337" d="M51 547q0 147 64.5 257t169 185t234.5 111t261 36q70 0 130 -25.5t115 -69.5t98 -101.5t73.5 -119.5t47 -125t16.5 -121q0 -137 -54 -244.5t-145 -181t-206 -112.5t-236 -39q-123 0 -226.5 39t-179.5 108.5t-119 173t-43 229.5zM182 568q0 -83 31 -159.5t86 -132.5 t130 -89.5t161 -33.5q10 -1 21 -1q37 0 89 16q66 20 132 58.5t126 93.5t100 121t50 137q2 16 3 31q-1 55 -27 111q-34 71 -122 136.5t-244 121.5q-88 0 -183 -25.5t-173 -76.5t-129 -128.5t-51 -179.5z" />
<glyph unicode="p" horiz-adv-x="1428" d="M51 351q0 169 59 284t156.5 185t227.5 102t272 32q116 0 224.5 -37.5t194 -104.5t136.5 -163.5t51 -219.5q0 -107 -40 -175.5t-110 -107.5t-154 -55t-173 -16q-86 0 -175.5 8t-164.5 37.5t-123.5 88.5t-48.5 166q57 0 109 -22.5t105.5 -48t107.5 -47.5q51 -24 110 -24 q43 0 114 8t134 31t108.5 63t45.5 102q0 91 -40.5 158t-104.5 111t-144.5 68.5t-161.5 24.5q-10 0 -51.5 -5.5t-95.5 -17.5t-112.5 -29.5t-108.5 -43t-82 -57.5t-32 -72v-33q3 -29 7 -78.5t6.5 -99t8 -87t5.5 -43.5q5 -43 18.5 -132.5t29.5 -201t36 -234.5t39 -234.5 t33.5 -200t22.5 -128.5q0 -5 1.5 -9t1.5 -7v-3l-3 -5v-5q-5 -8 -24 -27q-21 -16 -26 -22h-17q-26 0 -55.5 50t-60.5 134t-62 194t-60.5 228t-53.5 233.5t-42.5 214.5t-28 171.5t-9.5 101.5z" />
<glyph unicode="q" horiz-adv-x="1130" d="M51 646q0 134 41.5 264t122 232t194.5 163.5t256 61.5q53 0 117.5 -19t118 -53.5t91 -88.5t37.5 -123l-80 -928q0 -117 9 -234t20 -233.5t20.5 -234.5t9.5 -233q0 -40 -6 -67q0 -29 -48 -29q-43 0 -69.5 41.5t-40 108.5t-16.5 152.5t-5.5 174t-5 174.5t-10.5 153 t-28.5 108.5t-57.5 41.5h-24q-6 -3 -30 -5.5t-50.5 -8t-48 -8t-27.5 -2.5q-131 0 -223.5 49.5t-151.5 132.5t-87 190t-28 220zM177 638q0 -78 24 -151.5t69.5 -130t110.5 -91.5q69 -35 155 -35q59 0 120.5 9.5t115.5 44.5q13 83 17 178t12 194.5t24.5 198.5t50.5 193 q0 45 -25.5 80t-63 59t-83 35t-88.5 11q-101 0 -181.5 -61.5t-138 -153t-88.5 -194.5t-31 -186z" />
<glyph unicode="r" horiz-adv-x="951" d="M47 1048q1 24 8 45.5t23 37.5h5q3 0 3 1.5t2 1.5q3 0 3 -1.5t5 -1.5h6q5 -3 26.5 -11t26.5 -13q49 16 100 38.5t103 43t105.5 33.5t104.5 13q38 0 66 -2.5t56 -9t60.5 -16t74.5 -22.5q22 -17 39.5 -31.5t32 -33.5t22.5 -45.5t8 -69.5q-13 -1 -27 -1q-34 0 -74 8 q-58 12 -120 30q-63 18 -130 32q-57 11 -109 12h-19q-62 -2 -116 -35q-56 -27 -99 -97q-16 -67 -16 -132v-21q3 -75 19 -146t41.5 -142t48 -142t41.5 -140.5t24 -142.5q0 -26 -29.5 -57t-66.5 -31q-59 107 -102 233t-72.5 254.5t-47 250.5t-22.5 221q-1 19 -3 42 q-2 16 -1 33v14z" />
<glyph unicode="s" horiz-adv-x="1412" d="M46 324q21 16 38.5 20t38.5 4q24 0 48.5 -12t44.5 -29.5t41 -33.5q22 -16 46 -26q70 -30 111.5 -48.5t76 -29.5t80 -13.5t118.5 -2.5q57 1 137 -1q7 0 14 -1q72 0 138 14q72 15 123 53.5t51 119.5v10q0 70 -41 112q-44 44 -119 68t-169 33.5t-193 20t-194.5 30.5 t-170.5 63t-120 118q-46 75 -49 193q17 86 85 143.5t163 88.5q96 30 203 32q5 0 11 1q102 1 186 -27q90 -28 150 -90t63 -153q1 -15 1 -28q0 -37 -10 -61q-14 -34 -36 -51.5t-46 -16.5t-37.5 18.5t-12.5 51t31 84.5q-11 51 -62 80.5t-118 41.5q-43 8 -91 8q-26 0 -52 -2 q-76 -6 -139 -28t-102 -57q-35 -31 -35 -70q0 -5 1 -10q0 -81 47 -125t122 -68t173 -35t201 -20.5t199.5 -26.5t174.5 -57.5t123.5 -109t45.5 -177.5q0 -83 -43 -143.5t-108.5 -100.5t-143.5 -59t-147.5 -19t-148.5 1.5t-161 9.5t-165 25.5t-154 53.5t-127.5 92.5 t-90.5 141.5z" />
<glyph unicode="t" horiz-adv-x="900" d="M27 1024q0 10 4 30.5t25 20.5l276 24q10 99 16 162q4 41 4 78q0 20 -1 40q-3 55 -7 115t-6 157q0 19 8 29.5t20 16t26.5 8t22.5 2.5q16 0 33.5 -10.5t31 -26.5t21.5 -33.5t8 -33.5l22 -502l230 -11l16 2q37 0 69 -18q38 -22 41 -85q-31 -35 -77 -41q-39 -6 -82 -6h-14 h-49h-49q-48 -1 -85 -25q0 -17 2.5 -89t5.5 -171.5t6.5 -212t6.5 -207.5t4 -162t1 -75q-28 -18 -51 -18q-28 0 -48 24q-38 44 -60.5 131.5t-32 204t-10.5 230.5v64q-1 78 1 146q2 96 8 140h-74.5t-111 9.5t-104.5 31t-47 61.5z" />
<glyph unicode="u" horiz-adv-x="1377" d="M46 957q-9 62 -9 112q1 67 17 114q30 82 70 105q17 9 32 9q22 1 40 -19q17 -20 17 -57q0 -26 -9 -61q-6 -10 -8.5 -33t-5 -47t-5.5 -45.5t-3 -29.5q0 -56 11 -132.5t33.5 -159.5t57.5 -165t83 -146t111 -104.5t138 -40.5q49 0 110.5 47t116.5 112.5t94 135.5t39 118 q0 27 1 88.5t1 131t-1 131.5t-1 86q16 27 34.5 41.5t45.5 14.5q32 0 54 -43t35 -110t18 -144.5t8 -150t5 -127.5t9 -73q13 -54 38.5 -121t49.5 -130t43 -115.5t20 -78.5q0 -41 -23.5 -49t-58.5 -8q-43 0 -63 21.5t-29.5 55t-14.5 74t-17 83t-35 80t-66 62.5 q-62 -35 -106 -84.5t-89.5 -94t-100.5 -76.5t-141 -32q-96 0 -174 41.5t-138 112.5t-104.5 161t-72.5 185t-42.5 187.5t-14.5 167.5z" />
<glyph unicode="v" horiz-adv-x="1069" d="M27 954q2 8 7.5 20t15 25.5t19 23t22.5 9.5q3 0 3 -1.5t5 -1.5h6q61 -29 101.5 -84t71 -125t57.5 -149t60.5 -155t79 -148.5t115.5 -128.5q24 80 48 156.5t55 154t72.5 160.5t94.5 180q65 27 104 32q38 4 54 -10q10 -9 10 -22q0 -10 -4 -22q-10 -30 -46 -69 q-21 -19 -49.5 -86t-60.5 -158t-68 -190.5t-74 -180.5q-38 -82 -74 -136q-35 -52 -68 -51h-2q-38 0 -85 58t-100.5 149t-107 199.5t-103 215.5t-91 197t-68.5 138z" />
<glyph unicode="w" horiz-adv-x="1800" d="M26 702v16q0 118 34 230q36 120 122 212q43 -16 48 -42q6 -30 6 -62q0 -46 -9.5 -87.5t-20 -84t-20 -88.5t-9.5 -94q0 -35 8 -87t22.5 -111t39 -116.5t58 -104.5t73.5 -78t91 -31q46 0 109 28t120.5 71t96 96.5t38.5 107.5l17 348q0 8 10.5 16.5t22.5 15t25.5 12 t18.5 5.5q38 0 51.5 -48.5t21.5 -125t18.5 -162t38.5 -162t85 -124.5q53 -48 155 -48q99 2 158 41t86 103q26 61 26 136q-1 4 -1 8q-2 79 -21.5 158t-53 151.5t-73.5 125.5q-6 22 -0.5 31t15 13.5t23 5.5t21.5 1q43 -11 92.5 -71t87 -143t57.5 -185q14 -69 14 -137 q0 -32 -4 -64q-10 -99 -57.5 -185t-146.5 -139q-118 -8 -193 -10h-27q-57 0 -98 6q-50 6 -79.5 22t-56 41.5t-57.5 60.5t-82 83q-107 -144 -215 -202q-97 -52 -186 -52q-11 0 -21 1q-98 7 -185 71t-150 160.5t-102.5 218.5t-41.5 248z" />
<glyph unicode="x" horiz-adv-x="1230" d="M-3 992q-2 9 -2 16q-1 10 3 16q6 10 17.5 17t25 8.5t21.5 1.5q67 -25 127 -78.5t116.5 -112.5t111.5 -115t108 -86q54 8 121 55t139.5 106t142 119.5t128.5 94.5q54 31 92 30h7q40 -3 56 -70q0 -13 -36 -44t-89.5 -74t-120.5 -91t-130 -93.5t-115.5 -90t-78.5 -73.5 q56 -54 132.5 -123.5t151.5 -148.5t138 -162t92 -156q-11 -26 -27 -53t-48 -27q-5 0 -14.5 1.5t-12.5 1.5q-72 61 -133.5 131t-126 141t-131.5 134t-150 108q-38 0 -68.5 -25.5t-60 -67t-55 -91t-48.5 -92.5t-41.5 -75t-34.5 -37q-51 2 -51 51q0 75 40 143t89.5 128.5 t90 112.5t40.5 95q0 3 -1.5 5.5t-1.5 5.5q-46 43 -104.5 99t-119 119t-111.5 128q-48 59 -78 118z" />
<glyph unicode="y" horiz-adv-x="1337" d="M47 981q-2 18 -2 37q0 25 3 52q6 45 24.5 80t58.5 35q11 0 17.5 -43t16 -111.5t24.5 -157t39 -179.5t59 -179.5t85.5 -157t121.5 -111t163 -42.5q59 0 123 25.5t121.5 65.5t106.5 91q48 54 75 104q0 11 -3 51.5t-5.5 92.5t-5 113.5t-5.5 116.5t-4 95.5t-1 50.5 q5 164 23 200q8 14 16 14q13 0 30 -37q27 -59 56.5 -198t55 -325.5t40.5 -405.5q12 -188 12 -376v-66q-3 -221 -28.5 -427t-81.5 -365.5t-147.5 -259t-225.5 -104.5q-53 0 -127 20t-149 55t-148.5 83t-131 104.5t-94 118t-36.5 123.5v36t5.5 29.5t16.5 20.5q16 5 37 5 q40 -46 103 -117t143.5 -138t169 -117.5t179.5 -50.5q75 2 128.5 38.5t91 95t62 134t39 153t21.5 150t15 125.5q5 27 11.5 90t13.5 139.5t11 159.5q2 35 2 67q0 45 -4 84q-5 69 -21 113t-48 44q-46 0 -97 -26.5t-105.5 -60t-111 -60.5t-110.5 -27q-101 0 -185.5 41.5 t-154.5 108.5t-123.5 157t-89.5 186.5t-53.5 192.5t-17.5 182q0 19 -4 62z" />
<glyph unicode="z" horiz-adv-x="1262" d="M51 1225q0 43 31 72.5t81.5 52t109.5 34.5t118 20t108.5 12t76.5 4q75 0 141 -21t111.5 -63t72 -100.5t26.5 -136.5q0 -48 -10.5 -88.5t-24 -80.5t-24 -80.5t-10.5 -85.5q2 0 33 4t69 6h12q30 0 54 -6q30 -7 30 -31v-6.5v-4.5v-8q-8 -13 -28 -37t-23 -24l-287 -27 q-21 -38 -61.5 -82t-80.5 -91t-72 -93q-32 -44 -38 -82q-1 -6 0 -11q0 -31 27 -55q32 -28 123 -39q59 0 127.5 10.5t138 29.5t134 43t115.5 51q21 -16 37.5 -40t16.5 -51q0 -40 -37.5 -71t-96.5 -55t-131.5 -43t-143.5 -29.5t-131.5 -16t-92.5 -5.5q-37 0 -92 10.5 t-107.5 31t-87.5 55t-35 85.5q0 46 28.5 102t70 111t84.5 104.5t72 82.5l-354 10q-10 0 -17 8t-9.5 20t-2.5 23v14q0 24 2.5 36t13.5 17.5t27 7.5h37q27 3 91.5 11t139.5 16t140.5 14.5t92.5 12.5q37 53 61.5 92t39 72.5t21.5 68.5t7 83q0 22 -4.5 51t-16.5 57.5t-32 47 t-52 18.5h-335q-29 0 -54.5 -21.5t-46 -45.5t-41.5 -43q-21 -21 -38 -21q-45 0 -74.5 24t-29.5 70z" />
<glyph unicode="{" horiz-adv-x="1080" d="M51 1860q0 121 68.5 228t174 187.5t230.5 127.5t237 47q38 0 82 -11t80 -33.5t60.5 -59t24.5 -84.5q0 -22 -8 -51t-35 -29q-16 0 -36 21t-45.5 46.5t-55 47t-67.5 21.5q-115 -11 -210 -52.5t-169 -109.5t-126 -158t-79 -197q0 -83 32 -143.5t85.5 -107.5t123.5 -81.5 t141 -64t139 -57.5t127 -61q-16 -51 -1 -91t37.5 -76t44 -76.5t21.5 -88.5q0 -94 -45.5 -165t-114 -128.5t-148.5 -108.5t-148.5 -110t-114 -127t-45.5 -160v-24q32 -56 67 -104t80.5 -81.5t100.5 -52.5t122 -19h16q99 19 194 35t197 16q0 -46 -31 -78t-79 -52t-107 -31 t-116.5 -16t-104.5 -6.5t-71 -1.5q-97 -19 -172 20t-126 110t-77.5 158t-26.5 165q0 99 43 170t107 130t136.5 108.5t137 104.5t107 119.5t42.5 150.5v17t-1 24t-1 23v16q-6 5 -27 16q-19 11 -24 11h-16q-54 0 -123.5 -25.5t-143.5 -60.5t-137 -70t-95 -53h-14.5h-12.5 q-34 0 -43.5 16t-9.5 48v21v17q37 18 99 46.5t121 64.5t107 80t61 95q-107 19 -188.5 79.5t-138 143.5t-84.5 180.5t-28 194.5z" />
<glyph unicode="|" horiz-adv-x="410" d="M51 1678q0 16 3 43v26q0 6 9 18t15 12q8 0 27 -11q18 -13 26 -19q70 -190 111.5 -383t64.5 -388.5t29.5 -395t-1.5 -398.5q3 -5 7 -16t8 -23t6.5 -24t2.5 -17q0 -59 -32 -81q-27 -21 -80 -21h-14q-5 3 -16 12t-13 15q-3 21 -4.5 74.5t-6.5 115.5t-8 118t-3 78 q-5 123 -3.5 229t-2.5 209t-12.5 207.5t-32.5 227.5q-21 92 -51 193q-29 102 -29 199z" />
<glyph unicode="}" horiz-adv-x="1208" d="M0 -311q0 8 5.5 23t14.5 28t21.5 21.5t22.5 8.5q27 0 42 -16.5t24 -39t20 -41.5q16 -21 32 -32q24 -14 65.5 -35t83.5 -42.5t72.5 -36.5t36.5 -15q104 -21 206 4.5t181 85.5t128.5 150t49.5 197q0 46 -17.5 107.5t-45.5 127t-64 132.5t-74 130t-72.5 114t-61.5 86 q-48 59 -107 103t-111.5 92.5t-86 107.5t-33.5 144q0 51 13.5 83.5t13.5 72.5q0 27 -8 51t-17.5 48t-17.5 51t-8 54q0 50 7 89t44 79l440 437q10 11 17 32.5t8 44t1 43v36.5q0 80 -40 127t-101.5 71t-134 31t-139.5 7q-35 0 -65.5 -7t-61.5 -13.5t-63 -10.5t-65 -2 q14 -34 39.5 -41t52 -7t45.5 -8t19 -45q0 -41 -23 -47.5t-55 -6.5q-99 0 -155.5 53.5t-56.5 144.5q0 43 27 67t71 37.5t95 16.5t100.5 1.5t90 -4.5t56.5 -3h46.5t71 -1t70.5 -1h48q67 -24 122 -63t96.5 -87.5t65.5 -112.5t24 -137q0 -85 -40 -153.5t-100.5 -129 t-131.5 -112.5t-131.5 -103t-100.5 -104.5t-40 -117.5q0 -33 13.5 -49t33.5 -24t49.5 -10.5t58.5 -5.5q19 -3 63.5 -3h94h92.5t61 3q38 -16 44.5 -36t6.5 -52q0 -16 -2 -38q0 -21 -22 -27q-21 -2 -72 -6t-108.5 -7t-108.5 -8t-73 -5q-45 -6 -82.5 -30t-48.5 -72 q-3 -8 22.5 -40.5t63 -76.5t84.5 -93.5t90 -98t77.5 -91t51.5 -67.5q50 -83 101 -163t92.5 -166t67 -176t25.5 -191q0 -134 -42.5 -233.5t-120.5 -169t-181 -103t-227 -33.5q-75 -8 -166 2.5t-174 44t-145 98.5q-61 61 -80 163z" />
<glyph unicode="~" horiz-adv-x="1104" d="M63 1287.5q9 57.5 41.5 99t83.5 68.5q48 30 104 30q5 2 20 1t47 -12t84.5 -37.5t138.5 -77.5q50 -30 79.5 -32.5t72.5 13.5q11 5 27 10.5t16 8.5l164 128q32 -2 49.5 -13t24 -24.5t5 -26.5t-11.5 -21q-73 -59 -111.5 -96.5t-57.5 -56.5t-23 -25.5t-5.5 -9.5t-5.5 -4 t-25 -7q-70 -26 -125 -13t-104.5 45.5t-97.5 71t-105 65.5q-75 6 -111 -25t-49.5 -75.5t-12 -90t-4 -69.5t-24 -17.5t-72.5 71.5q-21 64 -12 121.5z" />
<glyph unicode="&#xa1;" horiz-adv-x="410" d="M57 1711q0 -66 56 -95q62 -30 139 -30q25 0 45.5 13t35.5 32t22 39.5t7 40.5q0 23 -20.5 42.5t-49 35t-62 23t-55.5 7.5q-64 0 -91 -29.5t-27 -78.5zM113 -4l125 -18l3 39q0 40 1.5 103t2.5 146t4 172t3 179.5t2.5 169t3.5 138.5t3 86v16.5t1.5 28t1.5 32v23.5 q0 18 1.5 40.5t-2.5 44.5t-16.5 36t-43.5 14q-18 0 -38.5 -2t-28.5 -24q-10 -56 -14 -153.5t-5 -213.5t0 -243.5t1 -244.5v-213q0 -100 -5 -156z" />
<glyph unicode="&#xa2;" horiz-adv-x="1232" d="M51 598q0 107 39 210t107 187.5t159.5 139.5t198.5 71l-8 40q-6 22 -6 40q-10 102 -2 143.5t26.5 43t40 -26.5t40.5 -71t29.5 -88.5t2.5 -77.5q51 -6 103 -20.5t96.5 -41.5t72.5 -68.5t28 -100.5q0 -11 -6.5 -43t-17.5 -64t-25.5 -57.5t-25.5 -25.5q0 107 -48 185 t-145 99q22 -107 31 -206.5t12 -205t0 -223.5q-3 -115 -5 -255q2 -5 5 -13t8 -19q89 -5 176 -2.5t170 7.5q8 0 26.5 -10.5t26.5 -13.5v-8q0 -5 1.5 -5t1.5 -3q11 -35 -29.5 -53.5t-103.5 -29.5t-139 -17.5t-138 -14.5q-8 -29 -18.5 -58.5t-24 -52.5t-29.5 -37.5t-32 -14.5 h-17q-5 2 -14.5 11.5t-11.5 14.5q-3 14 -1.5 46t-1.5 78q-276 16 -414 163t-138 448zM204 592q0 -107 30.5 -180.5t84.5 -124.5t126 -78q70 -27 153 -43q-3 86 -4.5 155.5t-1.5 91.5q-5 96 -2 179v164q0 80 -4 159t-12 165q-89 -11 -157.5 -57.5t-116.5 -113.5t-72 -149 t-24 -168z" />
<glyph unicode="&#xa3;" horiz-adv-x="2082" d="M27 233q0 48 24 73.5t60 39t77.5 15t76.5 1.5q54 0 98 -1.5t87 -4t88.5 -8t107.5 -13.5q48 32 93.5 108.5t82 166t59 179.5t22.5 154q0 27 -13.5 39t-31.5 20q-22 6 -43 6h-38q-48 0 -95 -8t-94 -19t-95 -19t-96 -8h-8q-6 5 -15.5 24t-11.5 27v24q5 8 25 28l26 26 q18 5 65 14.5t100.5 23t102 24t67.5 15.5h27q69 11 116 52.5t80.5 102t59 134t55 147.5t67 143.5t95 124.5t142 87t205.5 32q77 0 152 -25.5t133 -75t92.5 -119t34.5 -155.5q0 -32 -8 -64q-10 -30 -43 -30q-21 0 -34.5 23t-29.5 57.5t-36 76.5t-53.5 76.5t-83 57.5 t-119.5 23q-107 0 -183.5 -32.5t-130 -88.5t-88.5 -138t-64 -181q-6 -10 -10 -31.5l-8 -43t-6 -37.5l-3 -14l27 -29h463q19 0 29.5 -8t16 -21.5t7 -28.5t1.5 -28q0 -37 -11 -66.5t-53 -29.5q-27 0 -49 5q-21 5 -45 27h-27h-42.5h-43.5h-27q-107 0 -174 -31t-108.5 -84.5 t-64 -123t-43 -150t-44.5 -166.5t-69 -169l53 -24q73 -5 154.5 -2.5t159 -8t143.5 -41.5t109 -101q-59 -43 -130 -51t-138 -8q-97 0 -189.5 16t-188.5 16q-70 0 -129 -24t-114 -56t-112.5 -56t-129.5 -24q-54 0 -109 13t-99 41.5t-73.5 74t-29.5 109.5z" />
<glyph unicode="&#xa4;" horiz-adv-x="1696" d="M86 1399q-6 21 1 32t17.5 17.5t22.5 8t23 1.5q32 -11 71 -37.5t83 -60t90 -72.5t94 -82q107 80 242.5 121.5t274.5 41.5q75 0 143.5 -33.5t127.5 -86.5q53 48 102.5 87t90 56.5t68.5 8t36 -57.5q-59 -51 -108.5 -102t-95.5 -105q54 -80 85 -168.5t31 -163.5 q0 -150 -64.5 -262.5t-168.5 -187.5q67 -102 184 -204q-10 -29 -29 -54.5t-51 -25.5h-13h-11q-54 43 -103.5 97.5t-102.5 116.5q-134 -54 -282 -54q-203 0 -348 97q-38 -54 -71.5 -100.5t-63 -83t-55 -58t-41.5 -18.5q-51 3 -51 51q0 64 49 150q48 86 115 172 q-48 67 -76.5 151t-28.5 186q0 86 24.5 161t64.5 137q-43 43 -87.5 88.5t-82 87t-64 80t-42.5 68.5zM402 766q0 -83 31 -156.5t86 -131t130 -91t160 -33.5q110 -11 218.5 37.5t189 128.5t122 180.5t20 196t-120.5 173t-297 112.5q-89 0 -184 -25.5t-174 -78t-130 -131.5 t-51 -181z" />
<glyph unicode="&#xa5;" horiz-adv-x="1069" d="M43 882q-30 5 1 13t100.5 12t166 7t196.5 0l13 110l-415 948q2 9 7.5 22t15 26.5t18.5 23t23 9.5l3 -3h5h5q62 -29 98 -87t59 -129t40.5 -151t43 -159t67 -153t110.5 -127q24 80 59 159t79.5 161t94.5 167q51 81 105 177q129 56 158.5 24t-40.5 -112l-389 -783l-8 -131 q59 -6 112.5 -14t92.5 -20t63 -28q22 -13 22 -35q0 -5 -22 -24q-21 -19 -32 -27l-5 -2q-6 -3 -8 -3l-231 19l-13 -166q45 0 92 -5.5t83.5 -17.5t65.5 -36q32 -22 43 -54l-105 -53l-187 2l-30 -450l-187 -8l45 461l-209 5q-35 0 -64.5 3t-48 12t-30.5 29.5t-12 57.5 q0 8 10.5 19t16.5 11q75 5 108.5 7.5t46.5 5.5l11 3h187l19 185l-354 32q-32 0 -64 13.5t-32 53.5z" />
<glyph unicode="&#xa6;" horiz-adv-x="321" d="M62 576.5q0 88.5 2 214.5h158q8 -279 11 -444t-1 -253.5t-15 -112.5t-25.5 -16t-36 29.5t-45.5 26.5q-19 124 -28.5 213.5t-14.5 171.5t-5 170.5zM78 879q2 64 2 153v174q0 91 -1 177t-1 150q0 21 16 29t37 8q24 0 43 -17t32.5 -42.5t20 -51t6.5 -41.5q3 -57 0 -132 t-8 -152.5t-11 -147.5v-112z" />
<glyph unicode="&#xa7;" horiz-adv-x="1412" d="M96 986q17 89 86.5 146.5t165.5 84.5q-85 43 -139 119t-56 208q13 85 70.5 143t142 90t186.5 37.5t205 -14.5t199.5 -62t171.5 -109q89 -88 110.5 -145.5t-8 -73.5t-96.5 16q-67 27 -156 112q-40 43 -107 68.5t-144.5 36.5t-155.5 8t-138 -21.5t-96.5 -52t-30.5 -79.5 q0 -78 45.5 -123.5t123 -69.5t174 -33.5t198.5 -20t199.5 -29.5t174 -57.5t122 -107t45.5 -178.5q0 -51 -16 -92.5t-47 -76.5t-69.5 -61.5t-84.5 -45.5q73 -40 118.5 -107t45.5 -174q0 -83 -43 -143.5t-108.5 -100.5t-143.5 -59t-148 -19q-101 0 -218 5.5t-224 37.5t-198 99 q-97 67 -145 193q22 16 40.5 28t40.5 -1q64 -38 117.5 -74t110 -67t120.5 -49.5t153 -18.5q56 0 136.5 -1.5t153 13.5t123 53.5t50.5 119.5q0 56 -24 95t-64 63t-96.5 37.5t-123.5 23.5q-72 -2 -158 0.5t-170.5 16t-162 40.5t-136.5 75t-94 120q-32 75 -27 177zM260 874 q32 -54 79 -86t108.5 -49.5t136.5 -23t161 -5.5q56 0 135 -1t151.5 13.5t125 53.5t52.5 119q0 54 -23 91.5t-62 63t-95 40t-118 25.5q-158 -5 -264 -13.5t-174 -17.5t-107 -25t-58 -40.5t-28 -60.5t-20 -84z" />
<glyph unicode="&#xa8;" horiz-adv-x="1090" d="M185 1308q0 11 13.5 32t31 45.5t38.5 40.5q16 16 32 16q43 0 74 -15t49.5 -36.5t28 -48t9.5 -50.5q0 -16 -13.5 -36.5t-35 -37.5t-47 -29t-51.5 -12q-30 0 -54 14.5t-40 34.5t-25.5 43t-9.5 39zM614 1308q0 11 12 32t32 45.5t40 40.5t34 16q40 0 69.5 -15t49.5 -36.5 t29.5 -48t9.5 -50.5q0 -16 -13.5 -36.5t-33.5 -37.5t-48.5 -29t-52.5 -12q-29 0 -53 14.5t-40.5 34.5t-25.5 43t-9 39z" />
<glyph unicode="&#xa9;" horiz-adv-x="1833" d="M94 740q-6 77 17 164.5t63 173t96.5 163.5t123.5 139.5t143.5 99t151.5 42.5q150 19 292 -5t268 -84.5t230.5 -157t177 -221t108.5 -273.5t25 -317q-19 -91 -73.5 -159.5t-134 -118t-174.5 -82t-192.5 -55t-190 -36t-165.5 -24.5q-166 0 -306.5 55t-242.5 153t-159.5 236 t-57.5 307zM222 750q-2 -123 53 -229t143.5 -187.5t199.5 -132.5t218 -67q38 0 111.5 9.5t163.5 31t186.5 51t176.5 72t130 95t50 116.5q13 169 -39.5 305.5t-147.5 240t-217 174.5t-246.5 110t-237.5 44q-112 5 -184 -27q-54 -21 -103.5 -64t-90 -99.5t-71 -118t-50.5 -122 t-32.5 -114t-12.5 -88.5zM461 670q3 88 25.5 172.5t71 158.5t127.5 134t194 98q54 0 114 -11t113.5 -39t88.5 -72t35 -109q0 -13 -6.5 -45t-17.5 -65.5t-25.5 -58t-28.5 -24.5q0 126 -69 209q-70 86 -204 86q-102 -40 -157 -88.5t-79 -104.5t-25.5 -117.5t-1.5 -128.5 q11 -105 42 -162.5t80.5 -84.5t114 -28t139.5 4t158 13t174 3q11 0 29.5 -9.5t21.5 -17.5v-5v-5l3 -3q0 -46 -43 -71.5t-99.5 -37.5t-112.5 -13t-80 -1q-151 10 -254 25t-172.5 58t-107 122t-48.5 218z" />
<glyph unicode="&#xaa;" horiz-adv-x="731" d="M49 870q1 24 13 56t36.5 63t62.5 55t89.5 34t117.5 1.5t147 -44.5v15l-1 13q0 38 -19.5 77.5t-50.5 70.5t-66 50.5t-68 19.5q-13 0 -23 -4t-19 -10.5t-17.5 -12t-20.5 -5.5q-2 0 -2 2l-3 3q-3 3 -7 7.5t-4 5.5q0 26 8 45t23 30.5t34 18t40 6.5q52 -5 100 -35t87.5 -75 t69.5 -104t50.5 -122.5t27.5 -126.5q7 -68 1 -126q-1 0 -7.5 1t-14.5 1.5t-13 2.5l-7 1q-28 69 -61.5 111t-67 66t-62.5 33t-47 14q-19 0 -46 -3t-55.5 -10t-58 -19.5t-52.5 -30t-36.5 -41.5t-13.5 -56q0 -35 24.5 -59t60 -39t72 -21t58.5 -6q37 0 72 4t70 10t69 10.5 t67 4.5h9.5t14 -1t13 -1h8.5q10 -4 11.5 -12.5t1.5 -17.5t-16.5 -19t-42.5 -20t-58 -21t-61.5 -18.5t-54.5 -12.5t-36 -5q-55 0 -116.5 10.5t-112 37t-84 74.5t-33.5 124z" />
<glyph unicode="&#xab;" horiz-adv-x="2074" d="M12 254.5q-17 24.5 15 56.5l179 179q6 3 43.5 31t99 69.5t136.5 95.5t151.5 107.5t146 101.5t120.5 81q27 21 63 42.5t73.5 43t75 39t70.5 30.5q5 -5 17 -14.5t24 -21.5l23 -23t13 -16q0 -3 -32 -27t-83 -57.5t-111 -75t-115 -77.5t-96.5 -63t-49.5 -38q-59 -40 -125 -79 t-130 -83t-126 -92.5t-110 -104.5q5 -11 40 -23t83.5 -22.5t103 -20t104.5 -17.5t86 -13.5t47 -5.5q35 -5 104.5 -16t139 -32t122 -56t52.5 -89q0 -64 -70 -64q-27 0 -55 10.5t-56 23t-55 25.5t-54 19q-21 5 -75 10l-126 14q-72 8 -156.5 18.5t-167.5 22.5t-155.5 29.5 t-119.5 37.5t-64 44.5zM668.5 431.5q-17.5 24.5 12.5 53.5l182 180q3 2 41.5 30.5t99 71t135.5 95t151.5 106t146 102t117.5 82.5q59 41 140 83q80 46 144 73q6 -6 18 -16.5l24 -21t21.5 -23t14.5 -17.5q0 -3 -32 -27t-84.5 -57.5t-111.5 -75t-113.5 -77.5t-95 -63 t-51.5 -35q-59 -40 -123 -79t-129.5 -84.5t-127.5 -93.5t-110 -102q5 -11 38.5 -23t82 -24t104.5 -21.5t106 -17.5t86 -13.5t47 -5.5q34 -5 102.5 -14.5t139.5 -32t123.5 -56t52.5 -89.5q-3 -65 -73 -65q-26 0 -53 11t-57 21l-53 27q-24 14 -51 19q-21 5 -75 11l-129 16 q-72 8 -156.5 17.5t-166 22.5t-154 29t-119.5 37.5t-64.5 46z" />
<glyph unicode="&#xac;" horiz-adv-x="1013" d="M91 946q0 5 2.5 30.5t8 52.5t13.5 48.5t22 21.5l806 2v-184q0 -25 -2.5 -57t-6.5 -63t-8 -57.5t-4 -40.5q-54 -16 -83.5 -12t-40 23t-8 46t8.5 59l13 64q5 32 3 59q-14 13 -71.5 20t-138 5.5t-170 -5.5t-166 -8t-127.5 -5.5t-51 1.5z" />
<glyph unicode="&#xad;" horiz-adv-x="1029" d="M40 662q0 64 29.5 101.5t78 60.5t108.5 31t124.5 9.5t126 2.5t109.5 7h8q8 0 19 1t22 1h16q37 0 80 -1t80.5 -14.5t61.5 -39t24 -73.5q0 -57 -51 -57q-59 0 -108.5 15t-110.5 15q-78 0 -154.5 -9.5t-154 -20t-154 -20t-154.5 -9.5z" />
<glyph unicode="&#xae;" horiz-adv-x="1943" d="M99 788q-5 78 17.5 165t63 172.5t96.5 164.5t124.5 139.5t142 98t151.5 42.5q150 19 292 -5t267 -84.5t229.5 -157t176.5 -219.5t109.5 -272t27.5 -317q-19 -92 -74 -161.5t-135.5 -117.5t-175.5 -81.5t-193 -56.5t-189 -36.5t-166 -23.5q-166 0 -305.5 54.5 t-241.5 152.5t-159.5 236t-57.5 307zM228 799q-3 -124 50.5 -228.5t142 -186t201.5 -132.5q112 -54 220 -70q24 0 66.5 4t97.5 13.5t117 23t126 32.5q-59 32 -124.5 77.5t-130 95t-122 98t-95.5 82.5q24 -77 39 -139t15 -102t-23 -56t-74 -5q-5 -11 -17 23.5t-24 100.5 t-25.5 150.5t-21.5 167.5t-8 158q0 72 16 115q21 11 46.5 12t44.5 -7t29.5 -24t8.5 -32q0 -5 2.5 -26.5t6.5 -45.5t8 -47t9 -28q41 2 98.5 1t115 4t101.5 24t55 62l22 107q-24 48 -60.5 71t-84.5 28.5t-113 2.5q-59 -3 -134 -3q-53 0 -112 -4t-107.5 -21.5t-80.5 -52 t-32 -96.5q-16 0 -29.5 19t-24 41.5t-17.5 45.5t-7 36q0 43 41 75q40 32 83 48q59 8 103 13.5t84 9.5t80.5 5.5t88.5 1.5q75 0 163.5 -15t166 -47t128.5 -85.5t51 -128.5q0 -67 -41.5 -114t-104.5 -76.5t-139.5 -45.5t-142 -23t-110.5 -4q-27 3 -41 6q124 -92 212 -159 q91 -69 157 -118.5t108.5 -82t77.5 -53.5q59 24 114 52t95 60.5t63 71t23 81.5q13 166 -40.5 304t-147 241.5t-217 174.5t-247 108.5t-235.5 42.5q-113 5 -188 -27q-83 -29 -148.5 -108t-111 -171.5t-71 -182.5t-25.5 -143z" />
<glyph unicode="&#xaf;" horiz-adv-x="787" d="M91 1270q0 94 35 135.5t91 55t128.5 11t144.5 7.5q3 0 27 1.5t35 1.5q38 0 82 -2.5t80 -14.5t60.5 -37.5t24.5 -74.5q0 -56 -49 -56q-59 0 -109.5 15t-112.5 15q-78 0 -126 -9.5t-92.5 -19t-92.5 -19t-126 -9.5z" />
<glyph unicode="&#xb0;" horiz-adv-x="699" d="M21 1125q0 98 30.5 171.5t80 123.5t111 74t123.5 24q33 0 61.5 -17t54.5 -46.5t46.5 -68t35 -79.5t22 -83t7.5 -81q0 -91 -25.5 -162.5t-68.5 -120.5t-97.5 -75t-111.5 -26q-58 0 -107 26t-85 72.5t-56.5 115t-20.5 152.5zM83 1139q0 -55 14.5 -106t41 -88t61.5 -59.5 t76 -22.5q21 -4 52 9.5t62.5 39.5t60 62.5t47.5 80.5t23.5 91t-11.5 94.5t-57.5 91t-115.5 80.5q-42 0 -87 -17t-82 -50.5t-61 -85.5t-24 -120z" />
<glyph unicode="&#xb1;" horiz-adv-x="1262" d="M40 686q0 35 8 46q11 8 51 18q22 6 76.5 16.5t116.5 22.5t115 26q59 10 81 13q13 3 17 15t7 25.5t1.5 28t-1.5 20.5q0 42 -8 84t-19 84.5t-19 84t-8 87.5v8q6 8 26 28t25 23h8l6 3l2 -3h6h5q11 -8 29 -27l25 -24l101 -359l25 -27l45 -8q46 -5 107.5 -14.5t127 -17.5 t108.5 -11q8 0 28 -1.5t43 -6.5t39 -16t16 -27q0 -8 -9.5 -25.5t-22.5 -35t-24 -30.5q-16 -13 -22 -13h-407v-378q11 0 25.5 1t22.5 1q38 0 106 1.5t134 -6.5t115.5 -30.5t49.5 -71.5q3 -53 -51 -53q-27 0 -78 1t-107 2.5t-108.5 3t-81.5 1.5q-78 0 -154.5 -11t-152.5 -21.5 t-152.5 -20t-157.5 -9.5q-26 51 3.5 83t93.5 53.5t154 35t184 24.5q-3 27 -1.5 49.5t1.5 35.5q-3 19 -9.5 63.5t-15 92.5t-16.5 91t-13 62h-27q-53 0 -104 -8t-102 -17.5t-102 -17.5t-102 -8q-40 0 -49.5 18.5t-9.5 45.5z" />
<glyph unicode="&#xb2;" horiz-adv-x="814" d="M20 763q-4 24 5.5 39.5t25 24.5t34 11.5t31.5 2.5q33 0 66 -11.5t63.5 -27t62.5 -27.5t66 -12q31 0 57 22.5t47 59t37 82.5t26 89.5t15.5 81.5t5.5 59q0 23 -5.5 66.5t-18.5 86t-34 73.5t-55 31q-30 0 -45 -24t-23.5 -54t-16.5 -57.5t-26 -33.5q-21 16 -25 41.5t-4 48.5 q0 32 11 60.5t31.5 50.5t48 33t57.5 11q50 0 86.5 -33.5t58.5 -84t33 -107t11 -98.5t-2 -74.5t-8.5 -63t-18 -63.5t-29.5 -79q-10 -7 -24.5 -26t-27.5 -39.5t-22.5 -41t-9.5 -33.5q0 -16 15.5 -25t37 -13.5t46 -8t46 -9.5t37 -18t15.5 -34q0 -16 -15 -31q-11 -16 -29 -16 q-32 0 -62.5 7t-61.5 16.5t-61.5 17t-62.5 7.5q-52 0 -100.5 -8.5t-101.5 -8.5q-29 0 -60 7t-57.5 24t-46 44t-23.5 65z" />
<glyph unicode="&#xb3;" horiz-adv-x="560" d="M-13 937v10q0 29 13.5 47t37.5 18q10 0 30.5 -30t55 -66.5t83.5 -66t115 -29.5q26 0 51.5 4t45 16t32.5 31.5t13 51.5q0 69 -29.5 113.5t-76 73.5t-100 43.5t-99 28t-76 25t-30.5 34.5q0 4 1.5 5.5t1.5 3.5q3 5 13 16.5t14 15.5q14 4 42.5 9.5t61.5 15t67.5 22.5 t62.5 30.5t46.5 41.5t18.5 55q0 25 -17 40.5t-39 24.5t-45.5 11.5t-37.5 2.5t-41 -0.5t-53 -5t-46 -10t-20 -15.5v-37q-32 0 -50.5 18.5t-18.5 56.5q0 17 7.5 30t20.5 23t27 15t27 5h205q33 0 60.5 -17.5t47 -45t30.5 -62t11 -69.5q0 -34 -19 -57.5t-42.5 -41.5t-43.5 -36 t-20 -45q0 -2 2 -3l1 -4q44 -17 83 -48.5t69.5 -73t48.5 -90.5q17 -48 17 -104q0 -51 -19 -88.5t-49.5 -59.5t-68 -34t-74.5 -12q-35 4 -67 8t-70 23t-88 60.5t-121 116.5q-2 4 -2 5z" />
<glyph unicode="&#xb4;" horiz-adv-x="495" d="M24 1144q0 57 43 107.5t103 96.5t125 86q59 40 102 72q56 -27 49.5 -64.5t-56.5 -88.5t-130 -118t-169 -155q-40 0 -53.5 13.5t-13.5 50.5z" />
<glyph unicode="&#xb5;" horiz-adv-x="1377" d="M40 -172l6 1129q-22 144 7.5 226t71 105t71 -10.5t8.5 -117.5q-6 -10 -8.5 -33t-5 -47t-5.5 -45.5t-3 -29.5q0 -56 11 -132.5t33.5 -159.5t57.5 -165t83 -146t111 -104.5t138 -40.5q49 0 110.5 47t116.5 112.5t94 135.5t39 118q0 27 1 88.5t1 131t-1 131.5t-1 86 q16 27 34.5 41.5t45.5 14.5q32 0 53.5 -43t35 -110t18.5 -144.5t8 -150t5.5 -127.5t8.5 -73q13 -54 38.5 -121t49.5 -130t43 -115.5t19 -78.5q0 -41 -23 -49t-58 -8q-48 -5 -72 26t-43 82t-43 122t-67 146q-27 -30 -56.5 -78t-76 -93.5t-115 -84.5t-173.5 -50 q-115 24 -190 56.5t-123 72.5t-75 88q-27 43 -32 91l-6 -546z" />
<glyph unicode="&#xb6;" horiz-adv-x="1133" d="M54 954q0 89 26.5 168t77.5 140.5t122 96.5t162 35q97 0 181.5 5t152.5 1t116.5 -21.5t69.5 -62.5q22 -72 38 -179.5t25 -232t12 -257t0 -254.5t-13.5 -222.5t-29 -165t-45.5 -80.5t-65 35q-13 72 -17 182t-2.5 232t5.5 246.5t4 229t-11 179.5q-11 72 -32 91 q-11 6 -29.5 -5t-26.5 -3q-14 -123 -22 -247.5t-12 -242.5t-4 -222.5t4 -187.5t8 -137t9 -67q0 -29 -30.5 -38.5t-73.5 -9.5q-30 0 -42 55t-14.5 139.5t0 182t4 183.5t-5 142t-28.5 62q-64 10 -127 7.5t-120.5 -8t-106 -1.5t-86 25.5t-56 70t-18.5 136.5z" />
<glyph unicode="&#xb7;" horiz-adv-x="584" d="M134 638q0 13 16 40t37.5 55t44.5 47t39 19q51 0 88.5 -17.5t61.5 -43t36 -57.5t12 -59q0 -19 -16 -43t-43 -45.5t-60.5 -36.5t-65.5 -15q-37 0 -64 19t-47 43t-29.5 49.5t-9.5 44.5z" />
<glyph unicode="&#xb8;" horiz-adv-x="1222" d="M413 -579q16 14 29.5 18t34.5 4q43 0 83 -25.5t77.5 -55t74 -55t76.5 -25.5h80.5t63 9.5t40 40t14.5 94.5q3 62 -20 97t-60.5 53.5t-84 26.5t-97.5 19t-99.5 28.5t-86 51t-60 91t-25.5 151.5q5 69 17 98.5t31 28.5t37.5 -22.5t31 -48.5t14.5 -54q0 -26 -10 -37 q0 -86 41.5 -122t103 -52t134 -24t134 -36.5t103 -87.5t41.5 -174q0 -64 -35 -112.5t-86 -79t-114 -47t-116 -16.5q-78 0 -129 23t-89.5 59t-72 83t-76.5 98z" />
<glyph unicode="&#xb9;" horiz-adv-x="541" d="M-41 993v11q3 4 7.5 11t10 15t10.5 14t8 10l336 341q14 14 23.5 41t16 58.5t12 62t13.5 55.5t21.5 41.5t33.5 16.5q12 0 21 -2t14 -14v-13t1 -19t1 -18.5v-10.5q0 -7 -4.5 -54t-12.5 -118.5t-19.5 -161t-25 -181t-26 -179t-27.5 -155t-28 -109.5t-24 -42q-18 0 -29.5 8 t-23.5 30v11t-0.5 18t-0.5 18.5v10.5q0 18 1.5 52t5.5 75.5t7.5 88t7 88t5.5 74.5t2 53v21.5t-3 19.5t-10 17q-10 8 -24 11q-7 -7 -25.5 -27.5t-40.5 -47.5t-49.5 -56t-52 -53t-48.5 -40t-40 -16q-44 0 -44 44z" />
<glyph unicode="&#xba;" horiz-adv-x="699" d="M21 1125q0 98 30.5 171.5t80 123.5t111 74t123.5 24q33 0 61.5 -17t54.5 -46.5t46.5 -68t35 -79.5t22 -83t7.5 -81q0 -91 -25.5 -162.5t-68.5 -120.5t-97.5 -75t-111.5 -26q-58 0 -107 26t-85 72.5t-56.5 115t-20.5 152.5zM83 1139q0 -55 14.5 -106t41 -88t61.5 -59.5 t76 -22.5q21 -4 52 9.5t62.5 39.5t60 62.5t47.5 80.5t23.5 91t-11.5 94.5t-57.5 91t-115.5 80.5q-42 0 -87 -17t-82 -50.5t-61 -85.5t-24 -120z" />
<glyph unicode="&#xbb;" horiz-adv-x="1809" d="M75 91q5 24 52 65.5t115.5 91t153 107.5t165 114t151.5 112.5t111 104.5t45 86q6 37 -43 53q-48 3 -119 18t-150 43t-159.5 64t-147.5 76.5t-112.5 80.5t-58.5 78q0 2 -1.5 11.5t-1.5 14.5q0 35 27 43q21 11 53 11q43 0 74 -19t58 -44t57.5 -53.5t68.5 -41.5 q139 -54 301 -106t318 -74q43 -13 48 -38.5t5 -57.5q11 -48 -5 -88.5t-45.5 -74t-65.5 -64t-66 -63.5q-13 -10 -75 -55.5t-143.5 -107.5t-174 -127.5t-171.5 -122t-134 -94t-66 -37.5q-45 0 -54.5 28.5t-9.5 65.5zM686 158q8 32 84.5 92.5t182.5 133t218.5 151.5t194 150 t108.5 124.5t-38 80.5q-48 2 -119 18.5t-150 43t-159.5 63t-146 76.5t-112.5 80t-60 78q0 3 -1.5 13.5t-1.5 13.5q0 32 27 43q21 10 53 10q43 0 74 -18.5t58 -42.5t57.5 -52.5t68.5 -41.5q139 -54 300 -107q163 -54 319 -75q43 -16 48 -40.5t5 -56.5q11 -48 -5 -87 t-45.5 -72.5t-65.5 -65.5t-66 -64q-16 -11 -76 -56.5t-142 -106t-174.5 -126t-171.5 -122t-134 -94t-66 -37.5q-45 0 -54.5 28.5t-9.5 65.5z" />
<glyph unicode="&#xbc;" horiz-adv-x="1720" d="M49 1190v10q3 4 7.5 11t9.5 14.5t9.5 14t8.5 9.5l322 335q14 14 23 40.5t15 57t11.5 60.5t13.5 54.5t21 40.5t32 16q11 0 19.5 -2t13.5 -14v-12.5t1 -18t1 -18.5v-11q0 -6 -4 -52t-12 -116t-19 -158t-24 -178t-25 -175.5t-26 -152t-26.5 -107.5t-23.5 -41q-18 0 -29 8 t-22 29v11t-0.5 18t-0.5 18v10q0 18 1.5 51t5 74t7 86.5t7 86.5t5.5 73t2 52v20.5t-2.5 19.5t-10.5 17q-9 7 -23 11q-7 -8 -24.5 -27.5t-38.5 -46t-47.5 -55t-50 -52t-46.5 -39.5t-39 -16q-42 0 -42 44zM368 31q0 39 12.5 95t31.5 115.5t38.5 113t30.5 83.5l320 1233 q6 39 12 96t16 111.5t25.5 101.5t41.5 57q17 -5 25 -18.5t11 -32.5t2 -38.5t-1 -35.5q0 -41 -18 -149t-48.5 -254.5t-70.5 -320t-83 -348.5t-88.5 -337.5t-83.5 -287t-69.5 -201t-46.5 -76.5q-26 0 -41.5 32.5t-15.5 60.5zM833 592q0 55 6 97.5t18.5 83.5t30 84.5t40.5 99.5 q4 16 21.5 24.5t39 9.5t38.5 -6t14 -22q0 -42 -18.5 -86.5t-40 -89.5t-40 -92t-18.5 -94q0 -35 10.5 -76t33 -75t57.5 -57t83 -23q67 0 120 26.5t97 67t75.5 88t54 88.5t34.5 68q9 26 14 26q46 0 61 -14q14 -12 14 -36q0 -32 -8.5 -73t-20.5 -84t-20 -84.5t-8 -76.5 q0 -39 6 -78.5t14 -79t14 -78t6 -76.5q0 -32 -23.5 -55t-62.5 -23q-25 0 -35.5 27t-15.5 68t-5 88.5t-1 88.5t-9 68t-25 27q-27 -13 -61 -32t-71 -35.5t-75 -25t-75 -2.5q-75 0 -126.5 35.5t-83.5 88.5t-45.5 112t-13.5 108z" />
<glyph unicode="&#xbd;" horiz-adv-x="1554" d="M17 1059v13q4 5 8.5 13.5t10.5 18t11 17t9 11.5l362 413q15 17 25 49t17 70t13 75t15 67t23.5 49.5t35.5 19.5q13 0 22.5 -2t15.5 -17v-15.5t1 -22t1 -22.5v-13q0 -8 -4.5 -65t-13.5 -143t-21 -194.5t-27 -219t-28.5 -215.5t-29.5 -187t-30 -132t-26 -50q-19 0 -31.5 9.5 t-25.5 35.5v13.5t-0.5 21.5t-0.5 22.5v13.5q0 21 1.5 62t5.5 91.5t8 106t8 106t6 90t2 63.5v26t-3 23.5t-11 21.5q-10 9 -26 13q-8 -9 -27.5 -33.5t-43.5 -57t-53.5 -67.5t-56 -64t-52 -48.5t-43.5 -19.5q-47 0 -47 53zM364 -37q0 39 13.5 95t33 115.5t40.5 112.5t33 83 l338 1228q6 39 12.5 96t17 111t27 101t43.5 57q19 -5 27 -19t11 -32.5t2.5 -38t-0.5 -35.5q0 -41 -19 -148.5t-51.5 -253.5t-75 -318.5t-87.5 -347t-93 -336.5t-88.5 -286t-73.5 -200t-50 -76q-27 0 -43.5 32.5t-16.5 59.5zM663 218q-4 30 7 48.5t29 29.5t40 14t37 3 q39 0 77.5 -14t74.5 -32.5t73.5 -33.5t77.5 -15q36 0 66.5 27.5t55 72.5t43.5 101t30.5 109.5t18 100.5t6.5 72q0 29 -6.5 82t-21.5 105t-40 90t-64 38q-35 0 -53 -29.5t-28 -66t-19.5 -70.5t-29.5 -41q-25 20 -29.5 51t-4.5 60q0 39 13 73.5t36.5 61.5t56 41t67.5 14 q60 0 102 -41.5t68.5 -103.5t39 -131t12.5 -120.5t-2.5 -91.5t-10 -77.5t-21.5 -78t-34 -96.5q-12 -9 -29 -32t-32 -48.5t-26 -50.5t-11 -41q0 -20 18 -30.5t43 -16.5t54 -10t54 -11t43 -22t18 -42q0 -20 -17 -38q-13 -20 -34 -20q-37 0 -73.5 9t-72.5 20t-72 20.5t-73 9.5 q-61 0 -118 -10.5t-119 -10.5q-34 0 -70.5 8.5t-67.5 29.5t-54 54t-28 80z" />
<glyph unicode="&#xbe;" horiz-adv-x="1554" d="M32 939v10q0 30 13.5 49t37.5 19q10 0 30.5 -31t55 -69t83.5 -69t115 -31q26 0 51.5 4t45 16.5t32.5 33t13 53.5q0 72 -29.5 118.5t-76 77t-100 46t-99 29.5t-76 26t-30.5 36q0 4 1.5 5.5t1.5 3.5q3 5 13 17t14 17q14 4 42.5 10t61.5 15.5t67.5 23.5t62.5 32t46.5 43 t18.5 58q0 26 -17 42.5t-39 25.5t-45.5 12t-37.5 3t-41 -1t-53 -5.5t-46 -10.5t-20 -16v-38q-32 0 -50.5 19t-18.5 59q0 17 7.5 31t20.5 24t27 15.5t27 5.5h205q33 0 60.5 -18t47 -47t30.5 -65t11 -73q0 -36 -19 -60t-42.5 -43t-43.5 -38t-20 -47q0 -2 2 -3l1 -4 q44 -19 83 -52t69.5 -76t48.5 -95q17 -50 17 -108q0 -54 -19 -93t-49.5 -62t-68 -35.5t-74.5 -12.5q-35 4 -67 8t-70 24t-88 63.5t-121 122.5q-2 3 -2 5zM403 -115q0 39 12.5 95.5t31 116.5t38 114t30.5 84l318 1243q6 39 11.5 96.5t15.5 112.5t25.5 102t41.5 58 q17 -5 25 -19t10.5 -33t2 -38.5t-0.5 -36.5q0 -41 -18 -150t-48 -256.5t-70 -322t-82.5 -351t-87.5 -340.5t-83 -289.5t-69 -202.5t-47 -77q-25 0 -40.5 33t-15.5 61zM867 711q0 59 4.5 104.5t15 90t25 91.5t33.5 107q4 18 18.5 27t32 10t32 -6.5t11.5 -23.5 q0 -46 -15.5 -93.5t-33 -96.5t-33 -99.5t-15.5 -101.5q0 -38 9 -82t27.5 -81t47 -62t69.5 -25q55 0 99 29t80.5 72.5t62.5 95t45 96t28 72.5q8 28 12 28q38 0 51 -14q11 -14 11 -39q0 -35 -7 -79.5t-17 -90.5t-16.5 -91t-6.5 -83q0 -42 5 -84.5t11.5 -85t11.5 -84.5t5 -83 q0 -35 -19.5 -59.5t-51.5 -24.5q-21 0 -30 29t-13 73.5t-4 96t-0.5 95.5t-7 73.5t-21.5 29.5q-22 -14 -50 -34.5t-59 -38.5t-62.5 -27.5t-61.5 -2.5q-63 0 -105.5 38t-69 95.5t-37.5 121.5t-11 117z" />
<glyph unicode="&#xbf;" horiz-adv-x="747" d="M66 418q0 88 36 183t91.5 186t117 175.5t112.5 153.5q-5 9 -13.5 21t-37.5 21t-81.5 18.5t-141.5 17.5q-14 0 -25.5 9.5t-18.5 22t-10 26.5q-3 17 -3 26q0 21 18.5 29t47.5 11.5t56 2t44 -1.5q43 0 100 -5.5t108.5 -22.5t87 -47.5t35.5 -81.5q0 -69 -27 -134t-67 -127 t-85.5 -124.5t-85.5 -126t-66 -130.5t-26 -142q0 -119 80 -178.5t225 -59.5q58 0 121 24q63 23 93 64q18 -2 25 -13.5t9 -25t0 -25t-2 -17.5q0 -37 -28.5 -63t-71 -42.5t-90 -25.5t-87.5 -9q-108 0 -189.5 35.5t-137 95t-84.5 131.5t-29 149zM92 1972q0 25 21.5 51.5 t64.5 26.5q57 0 84 -24t27 -64q0 -41 -31.5 -65.5t-79.5 -24.5q-46 0 -66 33.5t-20 66.5z" />
<glyph unicode="&#xc0;" horiz-adv-x="1543" d="M51 831v5q0 19 9.5 27t22.5 12t26.5 9.5t21.5 18.5v13.5v22.5v23v14q11 112 17.5 239.5t24 249.5t54 234.5t100.5 198t163.5 136.5t249.5 51q118 0 213 -56.5t168.5 -151.5t128.5 -219.5t92.5 -264t63 -281.5t39 -270.5t19 -236t5.5 -176.5v-91.5t-4 -79t-8 -81.5 t-15 -99q-22 -30 -55.5 -55.5t-73.5 -25.5q-35 0 -44 17.5t-9 47.5q0 45 8 92t18.5 94t18.5 95t8 97q0 75 -5.5 160.5t-26.5 163.5q-75 -16 -154 -12t-158 14.5t-159.5 21.5t-160.5 11h-77t-107 -3t-101 -8q-42 -5 -53 -16l-27 -24q0 -3 -1.5 -12.5t-1.5 -23t-1 -26.5 t-1 -21q0 -78 12 -157t26.5 -154t28.5 -150q13 -75 13 -150v-27q-40 -38 -72 -26t-57.5 59t-43 121t-27 161t-11 178t6.5 177q-5 5 -21 22.5t-32 37.5t-32 39q-11 19 -16 29zM252 927l943 -53q8 0 20 1t20.5 13t16.5 39t13 75q0 78 -15 178.5t-44 207.5t-76 209 t-111.5 182.5t-149 128.5t-188.5 48q-110 0 -185 -57.5t-122 -150t-72.5 -207.5t-36 -230.5t-12 -217t-1.5 -166.5zM575 2527q4 19 44 13.5t137 -53.5q32 -27 49.5 -43t32 -29.5t32 -29.5t49.5 -43q6 -5 16.5 -24t10.5 -24q0 -54 -19 -67q-21 -14 -59 -14q-5 0 -13 3t-35 23 t-72.5 59t-120.5 111q-21 29 -38.5 64t-13.5 54z" />
<glyph unicode="&#xc1;" horiz-adv-x="1543" d="M51 831v5q0 19 9.5 27t22.5 12t26.5 9.5t21.5 18.5v13.5v22.5v23v14q11 112 17.5 239.5t24 249.5t54 234.5t100.5 198t163.5 136.5t249.5 51q118 0 213 -56.5t168.5 -151.5t128.5 -219.5t92.5 -264t63 -281.5t39 -270.5t19 -236t5.5 -176.5v-91.5t-4 -79t-8 -81.5 t-15 -99q-22 -30 -55.5 -55.5t-73.5 -25.5q-35 0 -44 17.5t-9 47.5q0 45 8 92t18.5 94t18.5 95t8 97q0 75 -5.5 160.5t-26.5 163.5q-75 -16 -154 -12t-158 14.5t-159.5 21.5t-160.5 11h-77t-107 -3t-101 -8q-42 -5 -53 -16l-27 -24q0 -3 -1.5 -12.5t-1.5 -23t-1 -26.5 t-1 -21q0 -78 12 -157t26.5 -154t28.5 -150q13 -75 13 -150v-27q-40 -38 -72 -26t-57.5 59t-43 121t-27 161t-11 178t6.5 177q-5 5 -21 22.5t-32 37.5t-32 39q-11 19 -16 29zM252 927l943 -53q8 0 20 1t20.5 13t16.5 39t13 75q0 78 -15 178.5t-44 207.5t-76 209 t-111.5 182.5t-149 128.5t-188.5 48q-110 0 -185 -57.5t-122 -150t-72.5 -207.5t-36 -230.5t-12 -217t-1.5 -166.5zM383 2200q0 57 43 107.5t103 96.5t125 86q59 40 102 72q56 -27 49.5 -64.5t-56.5 -88.5t-130 -118t-169 -155q-40 0 -53.5 13.5t-13.5 50.5z" />
<glyph unicode="&#xc2;" horiz-adv-x="1543" d="M51 831v5q0 19 9.5 27t22.5 12t26.5 9.5t21.5 18.5v13.5v22.5v23v14q11 112 17.5 239.5t24 249.5t54 234.5t100.5 198t163.5 136.5t249.5 51q118 0 213 -56.5t168.5 -151.5t128.5 -219.5t92.5 -264t63 -281.5t39 -270.5t19 -236t5.5 -176.5v-91.5t-4 -79t-8 -81.5 t-15 -99q-22 -30 -55.5 -55.5t-73.5 -25.5q-35 0 -44 17.5t-9 47.5q0 45 8 92t18.5 94t18.5 95t8 97q0 75 -5.5 160.5t-26.5 163.5q-75 -16 -154 -12t-158 14.5t-159.5 21.5t-160.5 11h-77t-107 -3t-101 -8q-42 -5 -53 -16l-27 -24q0 -3 -1.5 -12.5t-1.5 -23t-1 -26.5 t-1 -21q0 -78 12 -157t26.5 -154t28.5 -150q13 -75 13 -150v-27q-40 -38 -72 -26t-57.5 59t-43 121t-27 161t-11 178t6.5 177q-5 5 -21 22.5t-32 37.5t-32 39q-11 19 -16 29zM252 927l943 -53q8 0 20 1t20.5 13t16.5 39t13 75q0 78 -15 178.5t-44 207.5t-76 209 t-111.5 182.5t-149 128.5t-188.5 48q-110 0 -185 -57.5t-122 -150t-72.5 -207.5t-36 -230.5t-12 -217t-1.5 -166.5zM300 2190q75 70 128.5 112.5t90 85.5t62 99.5t46.5 152.5q5 22 22.5 23t33.5 1q38 0 56.5 -17.5t42.5 -57.5q16 -27 45.5 -60.5t60.5 -69.5t59 -69.5 t44 -54.5q19 -30 28.5 -48.5t15 -33.5t8 -31t2.5 -43q0 -37 -8 -58.5t-46 -21.5q-40 0 -73.5 29.5t-68 69.5t-76.5 84.5t-92 73.5q-51 -64 -109 -127t-110 -96.5t-96.5 -25.5t-65.5 83z" />
<glyph unicode="&#xc3;" horiz-adv-x="1543" d="M51 831v5q0 19 9.5 27t22.5 12t26.5 9.5t21.5 18.5v13.5v22.5v23v14q11 112 17.5 239.5t24 249.5t54 234.5t100.5 198t163.5 136.5t249.5 51q118 0 213 -56.5t168.5 -151.5t128.5 -219.5t92.5 -264t63 -281.5t39 -270.5t19 -236t5.5 -176.5v-91.5t-4 -79t-8 -81.5 t-15 -99q-22 -30 -55.5 -55.5t-73.5 -25.5q-35 0 -44 17.5t-9 47.5q0 45 8 92t18.5 94t18.5 95t8 97q0 75 -5.5 160.5t-26.5 163.5q-75 -16 -154 -12t-158 14.5t-159.5 21.5t-160.5 11h-77t-107 -3t-101 -8q-42 -5 -53 -16l-27 -24q0 -3 -1.5 -12.5t-1.5 -23t-1 -26.5 t-1 -21q0 -78 12 -157t26.5 -154t28.5 -150q13 -75 13 -150v-27q-40 -38 -72 -26t-57.5 59t-43 121t-27 161t-11 178t6.5 177q-5 5 -21 22.5t-32 37.5t-32 39q-11 19 -16 29zM221 2279.5q9 57.5 41.5 99t83.5 68.5q48 30 104 30q5 2 20 1t47 -12t84.5 -37.5t138.5 -77.5 q50 -30 79.5 -32.5t72.5 13.5l27 8q16 5 16 11l164 128q32 -2 49.5 -13t24 -24.5t5 -26.5t-11.5 -21q-73 -59 -111.5 -96.5t-57.5 -56.5t-23 -25.5t-5.5 -9.5t-5.5 -4t-25 -7q-70 -26 -125 -13t-104.5 45.5t-97.5 71t-105 65.5q-75 6 -111 -25t-49.5 -75.5t-12 -90t-4 -69.5 t-24 -17.5t-72.5 71.5q-21 64 -12 121.5zM252 927l943 -53q8 0 20 1t20.5 13t16.5 39t13 75q0 78 -15 178.5t-44 207.5t-76 209t-111.5 182.5t-149 128.5t-188.5 48q-110 0 -185 -57.5t-122 -150t-72.5 -207.5t-36 -230.5t-12 -217t-1.5 -166.5z" />
<glyph unicode="&#xc4;" horiz-adv-x="1543" d="M51 831v5q0 19 9.5 27t22.5 12t26.5 9.5t21.5 18.5v13.5v22.5v23v14q11 112 17.5 239.5t24 249.5t54 234.5t100.5 198t163.5 136.5t249.5 51q118 0 213 -56.5t168.5 -151.5t128.5 -219.5t92.5 -264t63 -281.5t39 -270.5t19 -236t5.5 -176.5v-91.5t-4 -79t-8 -81.5 t-15 -99q-22 -30 -55.5 -55.5t-73.5 -25.5q-35 0 -44 17.5t-9 47.5q0 45 8 92t18.5 94t18.5 95t8 97q0 75 -5.5 160.5t-26.5 163.5q-75 -16 -154 -12t-158 14.5t-159.5 21.5t-160.5 11h-77t-107 -3t-101 -8q-42 -5 -53 -16l-27 -24q0 -3 -1.5 -12.5t-1.5 -23t-1 -26.5 t-1 -21q0 -78 12 -157t26.5 -154t28.5 -150q13 -75 13 -150v-27q-40 -38 -72 -26t-57.5 59t-43 121t-27 161t-11 178t6.5 177q-5 5 -21 22.5t-32 37.5t-32 39q-11 19 -16 29zM252 927l943 -53q8 0 20 1t20.5 13t16.5 39t13 75q0 78 -15 178.5t-44 207.5t-76 209 t-111.5 182.5t-149 128.5t-188.5 48q-110 0 -185 -57.5t-122 -150t-72.5 -207.5t-36 -230.5t-12 -217t-1.5 -166.5zM375 2348q0 11 13.5 32t31 45.5t38.5 40.5q16 16 32 16q43 0 74 -15t49.5 -36.5t28 -48t9.5 -50.5q0 -16 -13.5 -36.5t-35 -37.5t-47 -29t-51.5 -12 q-30 0 -54 14.5t-40 34.5t-25.5 43t-9.5 39zM804 2348q0 11 12 32t32 45.5t40 40.5t34 16q40 0 69.5 -15t49.5 -36.5t29.5 -48t9.5 -50.5q0 -16 -13.5 -36.5t-33.5 -37.5t-48.5 -29t-52.5 -12q-29 0 -53 14.5t-40.5 34.5t-25.5 43t-9 39z" />
<glyph unicode="&#xc5;" horiz-adv-x="1543" d="M51 831v5q0 19 9.5 27t22.5 12t26.5 9.5t21.5 18.5v73q11 112 17.5 239.5t24 249.5t54 234.5t100.5 198t163 136.5q38 22 81 32q-38 14 -64 40q-67 62 -67 164q0 59 26.5 103t71 73.5t96.5 44.5t108 15q43 0 79.5 -23t63 -57.5t42.5 -72.5q16 -43 16 -75q0 -54 -24 -96.5 t-61 -72.5q-22 -16 -43 -29q75 -11 139 -49q94 -56 167.5 -152.5t128.5 -221t92.5 -264t63 -281.5t39 -270.5t19 -236t5.5 -176.5v-91.5t-4 -79t-8 -81.5t-15 -99q-22 -30 -55.5 -55.5t-73.5 -25.5q-35 0 -44 17.5t-9 47.5q0 45 8 92t18.5 94t18.5 95t8 97q0 75 -5.5 160.5 t-26.5 163.5q-75 -16 -154 -12t-158 14.5t-159.5 21.5t-160.5 11h-77t-107 -3t-101 -8q-42 -5 -53 -16l-27 -24q0 -3 -1.5 -12.5t-1.5 -23t-1 -26.5t-1 -21q0 -78 12 -157t26.5 -154t28.5 -150q13 -75 13 -150v-27q-40 -38 -72 -26t-57.5 59t-43 121t-27 161t-11 178 t6.5 177q-5 5 -21 22.5t-32 37.5t-32 39q-11 19 -16 29zM252 927l943 -53q8 0 20 1t20.5 13t16.5 39t13 75q0 78 -15 178.5t-44 207.5t-76 209t-111.5 182.5t-149 128.5t-188.5 48q-110 0 -185 -57.5t-122 -150t-72.5 -207.5t-36 -230.5t-12 -217t-1.5 -166.5zM525 2265 q0 -67 40.5 -99.5t112.5 -32.5q19 -2 47 8.5t56 30.5t48.5 49.5t19 62t-28.5 64.5q-32 35 -102 64q-37 0 -70.5 -6.5t-62 -24t-44.5 -46t-16 -70.5z" />
<glyph unicode="&#xc6;" horiz-adv-x="2637" d="M51 831v5q0 19 9.5 27t22.5 12t26.5 9.5t21.5 18.5v73q11 112 17.5 239.5t24 249.5t54 234.5t100.5 198t163.5 136.5t249.5 51q118 0 213 -56.5t168.5 -151.5t128.5 -219.5t93 -263.5l13 -46v255q0 43 9.5 65.5t44.5 30.5t102 5.5t180.5 -6.5t281 -9.5t403.5 -0.5 q27 -10 55 -23.5t49.5 -31t36.5 -41.5t15 -59q0 -8 -9.5 -19t-17.5 -8l-129 51l-860 -24q-11 0 -19 3q11 -24 11 -35v-488q13 -21 77.5 -21t153 9t189 26.5t185 32.5t143.5 23q59 10 64 5q8 0 30.5 2.5t48 5.5t48.5 3h31q0 -65 -71 -105t-178 -61.5t-232 -32t-234.5 -18.5 t-185 -19t-80.5 -32q-16 -43 -22.5 -95.5t-6.5 -108.5q-3 -21 -3 -40q5 -94 3 -158v-91v-11q2 -27 0 -54v-32q10 -27 47.5 -40t79 -16t80.5 -1.5t58 1.5q91 0 182 9.5t182.5 18.5t181 18.5t180.5 9.5h14q5 -2 17 -5t24 -8.5t21.5 -9.5t14.5 -4q6 -2 16.5 -11.5t10.5 -14.5 q0 -51 -56 -83.5t-142 -52.5t-189 -30.5t-195.5 -13.5t-159.5 -3h-89q-107 0 -190 19q-70 16 -121 51q-21 -27 -50 -54q-33 -24 -73 -24q-35 0 -44 17.5t-9 47.5q0 45 8 92t18.5 94t18.5 95q8 38 8 72v25q0 75 -5.5 160.5t-26.5 163.5q-75 -16 -154 -12t-158 14.5 t-159.5 21.5t-160.5 11h-77t-107 -3t-101 -8q-42 -5 -53 -16l-27 -24q0 -3 -1.5 -12.5t-1.5 -23t-1 -26.5t-1 -21q0 -78 12 -157t26.5 -154t28.5 -150q13 -75 13 -150v-27q-40 -38 -72 -26t-57.5 59t-43 121t-27 161t-11 178t6.5 177q-5 5 -21 22.5t-32 37.5t-32 39 q-11 19 -16 29zM252 927l943 -53q8 0 20 1t20.5 13t16.5 39t13 75q0 78 -15 178.5t-44 207.5t-76 209t-111.5 182.5t-149 128.5t-188.5 48q-110 0 -185 -57.5t-122 -150t-72.5 -207.5t-36 -230.5t-12 -217t-1.5 -166.5z" />
<glyph unicode="&#xc7;" horiz-adv-x="1415" d="M51 742q0 108 35 224.5t96.5 231.5t146 219.5t186 185t214.5 128.5q113 46 225 46q64 0 96.5 -48.5t32.5 -107.5q0 -34 -13.5 -80t-40.5 -90t-60.5 -75t-73.5 -31q0 27 8 52.5t21.5 48.5t21.5 47t8 53q0 38 -31 44.5t-60 6.5h-21h-17q-123 -48 -241 -127t-209 -182 t-144.5 -228t-53.5 -267q0 -91 17.5 -199.5t60 -201t116.5 -154t184 -61.5q91 0 180.5 17.5t179.5 37.5t180 36t181 16q21 0 42.5 -5.5t21.5 -31.5q0 -14 -16 -34t-40 -39t-45.5 -29.5t-27.5 -13.5l-619 -131q-5 0 -22.5 -1.5t-28.5 -1.5q-16 0 -32 3q11 -27 13.5 -53.5 t-7.5 -37.5q0 -86 41.5 -122t101.5 -52t132.5 -24t134 -36.5t103 -87.5t41.5 -174q0 -64 -33.5 -112.5t-85.5 -79t-114 -46.5q-64 -17 -118 -17q-77 0 -128 23t-90 59t-72.5 83t-76.5 98q16 14 31 18t33 4q43 0 84.5 -25.5t79 -55t72.5 -55t78 -25.5h80.5t61.5 9.5t39 40 t15 94.5q2 62 -20.5 97t-59 53.5t-84.5 26.5t-97.5 19t-98 28.5t-87 51t-61.5 91t-26 151.5q3 51 11 77q-11 6 -21 11q-70 38 -125 95.5t-94 134t-64.5 159.5t-36 166t-10.5 155z" />
<glyph unicode="&#xc8;" horiz-adv-x="1439" d="M51 391q0 102 14.5 204t14.5 206q0 43 -13 72.5t-13 64.5v16q5 5 18.5 25.5t18.5 25.5v592q0 43 9.5 64.5t45.5 29.5t102 5.5t179.5 -8t280.5 -8.5q171 -2 407 0q27 -10 53.5 -22t49.5 -31t36.5 -43t13.5 -59q0 -8 -9.5 -19t-14.5 -8l-129 51l-863 -24q-11 0 -19 3 q14 -27 14 -38v-485q13 -21 77.5 -20t152.5 9t187.5 25.5t185 32.5l142.5 25q59 11 64 6q8 0 31 1t49.5 2.5t48 3t29.5 1.5q0 -65 -71 -105t-178 -61.5t-232 -33.5t-233.5 -20t-183.5 -19q-77 -5 -83 -27q-16 -42 -22.5 -96t-8 -109t0 -109.5t1.5 -97.5v-38v-55v-53.5v-33.5 q10 -27 47.5 -40t80.5 -17t81 -2q43 3 59 3q91 0 182 9.5t181 18.5t179.5 18.5t180.5 9.5h16q6 -3 16.5 -5.5t22.5 -8t20 -10.5q11 -5 16 -5q6 -3 16 -11q11 -5 11 -11q0 -51 -56 -84.5t-142 -53.5t-188 -29.5t-195.5 -13.5t-160.5 -4h-86q-107 0 -189 19t-136.5 63 t-81.5 119q-27 81 -27 193zM511 2160q4 19 44 13.5t137 -53.5q32 -27 49.5 -43t32 -29.5t32 -29.5t49.5 -43q6 -5 16.5 -24t10.5 -24q0 -54 -19 -67q-21 -14 -59 -14q-5 0 -13 3t-35 23t-72.5 59t-120.5 111q-21 29 -38.5 64t-13.5 54z" />
<glyph unicode="&#xc9;" horiz-adv-x="1439" d="M51 391q0 102 14.5 204t14.5 206q0 43 -13 72.5t-13 64.5v16q5 5 18.5 25.5t18.5 25.5v592q0 43 9.5 64.5t45.5 29.5t102 5.5t179.5 -8t280.5 -8.5q171 -2 407 0q27 -10 53.5 -22t49.5 -31t36.5 -43t13.5 -59q0 -8 -9.5 -19t-14.5 -8l-129 51l-863 -24q-11 0 -19 3 q14 -27 14 -38v-485q13 -21 77.5 -20t152.5 9t187.5 25.5t185 32.5l142.5 25q59 11 64 6q8 0 31 1t49.5 2.5t48 3t29.5 1.5q0 -65 -71 -105t-178 -61.5t-232 -33.5t-233.5 -20t-183.5 -19q-77 -5 -83 -27q-16 -42 -22.5 -96t-8 -109t0 -109.5t1.5 -97.5v-38v-55v-53.5v-33.5 q10 -27 47.5 -40t80.5 -17t81 -2q43 3 59 3q91 0 182 9.5t181 18.5t179.5 18.5t180.5 9.5h16q6 -3 16.5 -5.5t22.5 -8t20 -10.5q11 -5 16 -5q6 -3 16 -11q11 -5 11 -11q0 -51 -56 -84.5t-142 -53.5t-188 -29.5t-195.5 -13.5t-160.5 -4h-86q-107 0 -189 19t-136.5 63 t-81.5 119q-27 81 -27 193zM442 1801q0 57 43 107.5t103 96.5t125 86q59 40 102 72q56 -27 49.5 -64.5t-56.5 -88.5t-130 -118t-169 -155q-40 0 -53.5 13.5t-13.5 50.5z" />
<glyph unicode="&#xca;" horiz-adv-x="1439" d="M51 391q0 102 14.5 204t14.5 206q0 43 -13 72.5t-13 64.5v16q5 5 18.5 25.5t18.5 25.5v592q0 43 9.5 64.5t45.5 29.5t102 5.5t179.5 -8t280.5 -8.5q171 -2 407 0q27 -10 53.5 -22t49.5 -31t36.5 -43t13.5 -59q0 -8 -9.5 -19t-14.5 -8l-129 51l-863 -24q-11 0 -19 3 q14 -27 14 -38v-485q13 -21 77.5 -20t152.5 9t187.5 25.5t185 32.5l142.5 25q59 11 64 6q8 0 31 1t49.5 2.5t48 3t29.5 1.5q0 -65 -71 -105t-178 -61.5t-232 -33.5t-233.5 -20t-183.5 -19q-77 -5 -83 -27q-16 -42 -22.5 -96t-8 -109t0 -109.5t1.5 -97.5v-38v-55v-53.5v-33.5 q10 -27 47.5 -40t80.5 -17t81 -2q43 3 59 3q91 0 182 9.5t181 18.5t179.5 18.5t180.5 9.5h16q6 -3 16.5 -5.5t22.5 -8t20 -10.5q11 -5 16 -5q6 -3 16 -11q11 -5 11 -11q0 -51 -56 -84.5t-142 -53.5t-188 -29.5t-195.5 -13.5t-160.5 -4h-86q-107 0 -189 19t-136.5 63 t-81.5 119q-27 81 -27 193zM348 1946q75 70 128.5 112.5t90 85.5t62 99.5t46.5 152.5q5 22 22.5 23t33.5 1q38 0 56.5 -17.5t42.5 -57.5q16 -27 45.5 -60.5t60.5 -69.5t59 -69.5t44 -54.5q19 -30 28.5 -48.5t15 -33.5t8 -31t2.5 -43q0 -37 -8 -58.5t-46 -21.5 q-40 0 -73.5 29.5t-68 69.5t-76.5 84.5t-92 73.5q-51 -64 -109 -127t-110 -96.5t-96.5 -25.5t-65.5 83z" />
<glyph unicode="&#xcb;" horiz-adv-x="1439" d="M51 391q0 102 14.5 204t14.5 206q0 43 -13 72.5t-13 64.5v16q5 5 18.5 25.5t18.5 25.5v592q0 43 9.5 64.5t45.5 29.5t102 5.5t179.5 -8t280.5 -8.5q171 -2 407 0q27 -10 53.5 -22t49.5 -31t36.5 -43t13.5 -59q0 -8 -9.5 -19t-14.5 -8l-129 51l-863 -24q-11 0 -19 3 q14 -27 14 -38v-485q13 -21 77.5 -20t152.5 9t187.5 25.5t185 32.5l142.5 25q59 11 64 6q8 0 31 1t49.5 2.5t48 3t29.5 1.5q0 -65 -71 -105t-178 -61.5t-232 -33.5t-233.5 -20t-183.5 -19q-77 -5 -83 -27q-16 -42 -22.5 -96t-8 -109t0 -109.5t1.5 -97.5v-38v-55v-53.5v-33.5 q10 -27 47.5 -40t80.5 -17t81 -2q43 3 59 3q91 0 182 9.5t181 18.5t179.5 18.5t180.5 9.5h16q6 -3 16.5 -5.5t22.5 -8t20 -10.5q11 -5 16 -5q6 -3 16 -11q11 -5 11 -11q0 -51 -56 -84.5t-142 -53.5t-188 -29.5t-195.5 -13.5t-160.5 -4h-86q-107 0 -189 19t-136.5 63 t-81.5 119q-27 81 -27 193zM357 1973q0 11 13.5 32t31 45.5t38.5 40.5q16 16 32 16q43 0 74 -15t49.5 -36.5t28 -48t9.5 -50.5q0 -16 -13.5 -36.5t-35 -37.5t-47 -29t-51.5 -12q-30 0 -54 14.5t-40 34.5t-25.5 43t-9.5 39zM786 1973q0 11 12 32t32 45.5t40 40.5t34 16 q40 0 69.5 -15t49.5 -36.5t29.5 -48t9.5 -50.5q0 -16 -13.5 -36.5t-33.5 -37.5t-48.5 -29t-52.5 -12q-29 0 -53 14.5t-40.5 34.5t-25.5 43t-9 39z" />
<glyph unicode="&#xcc;" horiz-adv-x="460" d="M-52 2083q4 19 44 13.5t137 -53.5q32 -27 49.5 -43t32 -29.5t32 -29.5t49.5 -43q6 -5 16.5 -24t10.5 -24q0 -54 -19 -67q-21 -14 -59 -14q-5 0 -13 3t-35 23t-72.5 59t-120.5 111q-21 29 -38.5 64t-13.5 54zM40 1501q32 43 64.5 16t64.5 -100.5t63 -187.5t56.5 -242.5 t48 -265.5t38.5 -257.5t27 -214.5t11 -142v-32t-3 -31t-15 -27t-36 -17q-16 -5 -32 9.5t-32 33.5t-25.5 36t-12.5 23q-13 99 -25 207.5t-23 218.5t-24 217q-13 113 -30 209q-8 40 -28 107t-38.5 143.5t-33.5 154t-15 142.5z" />
<glyph unicode="&#xcd;" horiz-adv-x="460" d="M-67 1667q0 57 43 107.5t103 96.5t125 86q59 40 102 72q56 -27 49.5 -64.5t-56.5 -88.5t-130 -118t-169 -155q-40 0 -53.5 13.5t-13.5 50.5zM40 1501q32 43 64.5 16t64.5 -100.5t63 -187.5t56.5 -242.5t48 -265.5t38.5 -257.5t27 -214.5t11 -142v-32t-3 -31t-15 -27 t-36 -17q-16 -5 -32 9.5t-32 33.5t-25.5 36t-12.5 23q-13 99 -25 207.5t-23 218.5t-24 217q-13 113 -30 209q-8 40 -28 107t-38.5 143.5t-33.5 154t-15 142.5z" />
<glyph unicode="&#xce;" horiz-adv-x="460" d="M-134 1946q75 70 128.5 112.5t90 85.5t62 99.5t46.5 152.5q5 22 22.5 23t33.5 1q38 0 56.5 -17.5t42.5 -57.5q16 -27 45.5 -60.5t60.5 -69.5t59 -69.5t44 -54.5q19 -30 28.5 -48.5t15 -33.5t8 -31t2.5 -43q0 -37 -8 -58.5t-46 -21.5q-40 0 -73.5 29.5t-68 69.5 t-76.5 84.5t-92 73.5q-51 -64 -109 -127t-110 -96.5t-96.5 -25.5t-65.5 83zM40 1501q32 43 64.5 16t64.5 -100.5t63 -187.5t56.5 -242.5t48 -265.5t38.5 -257.5t27 -214.5t11 -142v-32t-3 -31t-15 -27t-36 -17q-16 -5 -32 9.5t-32 33.5t-25.5 36t-12.5 23q-13 99 -25 207.5 t-23 218.5t-24 217q-13 113 -30 209q-8 40 -28 107t-38.5 143.5t-33.5 154t-15 142.5z" />
<glyph unicode="&#xcf;" horiz-adv-x="460" d="M-287 1739q0 11 13.5 32t31 45.5t38.5 40.5q16 16 32 16q43 0 74 -15t49.5 -36.5t28 -48t9.5 -50.5q0 -16 -13.5 -36.5t-35 -37.5t-47 -29t-51.5 -12q-30 0 -54 14.5t-40 34.5t-25.5 43t-9.5 39zM40 1501q32 43 64.5 16t64.5 -100.5t63 -187.5t56.5 -242.5t48 -265.5 t38.5 -257.5t27 -214.5t11 -142v-32t-3 -31t-15 -27t-36 -17q-16 -5 -32 9.5t-32 33.5t-25.5 36t-12.5 23q-13 99 -25 207.5t-23 218.5t-24 217q-13 113 -30 209q-8 40 -28 107t-38.5 143.5t-33.5 154t-15 142.5zM142 1739q0 11 12 32t32 45.5t40 40.5t34 16q40 0 69.5 -15 t49.5 -36.5t29.5 -48t9.5 -50.5q0 -16 -13.5 -36.5t-33.5 -37.5t-48.5 -29t-52.5 -12q-29 0 -53 14.5t-40.5 34.5t-25.5 43t-9 39z" />
<glyph unicode="&#xd0;" horiz-adv-x="2034" d="M54 1544v10q0 38 38.5 65t96.5 45.5t127.5 30.5t130 17.5t102 9.5t43.5 4q137 0 292.5 -31t307 -90t289.5 -146t243.5 -199.5t168.5 -252t63 -299.5q0 -148 -45.5 -266t-126 -206.5t-187.5 -148.5t-227.5 -88t-248 -28t-247.5 29q-24 8 -59 23t-68.5 33.5t-55.5 45.5 q-24 32 -24 64q0 22 7 44.5t34 22.5q13 0 68 -14.5t119 -33.5t126 -35t86 -19h13q118 0 238.5 44.5t220 125t162.5 186t63 229.5q0 96 -37.5 188.5t-100.5 178t-147.5 158t-178.5 130t-190.5 98t-184.5 56.5q0 -22 2.5 -63.5t8 -95t11 -109.5t10.5 -108.5t11 -92.5l5 -62 q46 0 88.5 3t77.5 5q3 0 27 1.5t35 1.5q37 0 81.5 -1.5t82 -14.5t61.5 -40t24 -75q0 -54 -51 -54q-59 0 -108.5 15t-113.5 15q-46 0 -90 -4t-93 -10q11 -70 22 -112.5t19 -75t13 -56.5t6.5 -53.5t-1 -69.5t-10.5 -105v-33t-7 -34.5t-21.5 -28.5t-36.5 -11q-53 -27 -70.5 5.5 t-19 109t-1.5 193t-21 252.5q-75 -10 -150 -19.5t-153 -9.5q0 54 23 90t57.5 58.5t82.5 33.5q54 14 108 19q-6 24 -14 75t-18.5 110t-21.5 124.5t-24 122t-25.5 96.5t-22.5 53q-193 0 -308.5 -12t-183.5 -28t-99 -33.5t-55 -27.5l-6 -3q-5 -3 -8 -3q-5 0 -5 3q-3 3 -5 3 q-3 2 -6 8l-5 24q-5 11 -9 24t-4 19z" />
<glyph unicode="&#xd1;" horiz-adv-x="1672" d="M78 163q0 126 8 252t20 251t20 248q8 126 8 249q0 70 -14.5 134t-14.5 131v14q5 3 19.5 7t31 6.5t32.5 7.5q13 6 18 6h27q22 -97 58 -231t87 -273.5t120.5 -277.5t160.5 -246.5t204 -174t252 -62.5q83 0 146 28t103 77.5t60.5 116.5t20.5 148q0 104 -42 194t-90 173 t-89.5 166t-41.5 179q0 38 8 59.5t45 21.5q43 0 87.5 -48.5t84.5 -123.5t75 -167.5t61.5 -183.5t41.5 -168.5t15 -123.5q0 -115 -37.5 -210t-106 -166t-163.5 -110t-210 -39q-126 0 -226.5 48t-179.5 124.5t-139.5 162.5t-103.5 162t-73.5 124.5t-49.5 48.5q-35 0 -51 -24 t-23 -56.5t-7 -68.5v-55q0 -86 16.5 -159.5t16.5 -156.5q0 -19 -4 -48.5t-13.5 -59t-28.5 -51t-48 -21.5q-27 0 -44.5 20.5t-28 45.5t-14.5 53.5t-4 46.5zM377 1700.5q9 57.5 41.5 99t83.5 68.5q48 30 104 30q5 2 20 1t47 -12t84.5 -37.5t138.5 -77.5q50 -30 79.5 -32.5 t72.5 13.5l27 8q16 5 16 11l164 128q32 -2 49.5 -13t24 -24.5t5 -26.5t-11.5 -21q-73 -59 -111.5 -96.5t-57.5 -56.5t-23 -25.5t-5.5 -9.5t-5.5 -4t-25 -7q-70 -26 -125 -13t-104.5 45.5t-97.5 71t-105 65.5q-75 6 -111 -25t-49.5 -75.5t-12 -90t-4 -69.5t-24 -17.5 t-72.5 71.5q-21 64 -12 121.5z" />
<glyph unicode="&#xd2;" horiz-adv-x="1672" d="M51 748q-5 118 31 219.5t103 180.5t163 128q97 43 212 53q201 -29 384.5 -101.5t324.5 -185t229.5 -262.5t98.5 -338q-27 -139 -110 -219.5t-195.5 -124.5t-240.5 -66q-129 -19 -236 -35q-166 0 -307 55t-241.5 151.5t-158 236t-57.5 308.5zM177 761q-3 -123 52 -230.5 t143.5 -187.5t198.5 -134t220 -70q37 0 98.5 7t134 21.5t146.5 40t134 62t99 86t39 113.5q-19 134 -82 238.5t-154 185t-198.5 136.5t-212 89.5t-195.5 44.5t-150 0q-83 -29 -135 -77.5t-83 -103.5t-43 -111t-12 -110zM687 1922q4 19 44 13.5t137 -53.5q32 -27 49.5 -43 t32 -29.5t32 -29.5t49.5 -43q6 -5 16.5 -24t10.5 -24q0 -54 -19 -67q-21 -14 -59 -14q-5 0 -13 3t-35 23t-72.5 59t-120.5 111q-21 29 -38.5 64t-13.5 54z" />
<glyph unicode="&#xd3;" horiz-adv-x="1672" d="M51 748q-5 118 31 219.5t103 180.5t163 128q97 43 212 53q201 -29 384.5 -101.5t324.5 -185t229.5 -262.5t98.5 -338q-27 -139 -110 -219.5t-195.5 -124.5t-240.5 -66q-129 -19 -236 -35q-166 0 -307 55t-241.5 151.5t-158 236t-57.5 308.5zM177 761q-3 -123 52 -230.5 t143.5 -187.5t198.5 -134t220 -70q37 0 98.5 7t134 21.5t146.5 40t134 62t99 86t39 113.5q-19 134 -82 238.5t-154 185t-198.5 136.5t-212 89.5t-195.5 44.5t-150 0q-83 -29 -135 -77.5t-83 -103.5t-43 -111t-12 -110zM571 1557q0 57 43 107.5t103 96.5t125 86q59 40 102 72 q56 -27 49.5 -64.5t-56.5 -88.5t-130 -118t-169 -155q-40 0 -53.5 13.5t-13.5 50.5z" />
<glyph unicode="&#xd4;" horiz-adv-x="1672" d="M51 748q-5 118 31 219.5t103 180.5t163 128q97 43 212 53q201 -29 384.5 -101.5t324.5 -185t229.5 -262.5t98.5 -338q-27 -139 -110 -219.5t-195.5 -124.5t-240.5 -66q-129 -19 -236 -35q-166 0 -307 55t-241.5 151.5t-158 236t-57.5 308.5zM177 761q-3 -123 52 -230.5 t143.5 -187.5t198.5 -134t220 -70q37 0 98.5 7t134 21.5t146.5 40t134 62t99 86t39 113.5q-19 134 -82 238.5t-154 185t-198.5 136.5t-212 89.5t-195.5 44.5t-150 0q-83 -29 -135 -77.5t-83 -103.5t-43 -111t-12 -110zM225 1624q75 70 128.5 112.5t90 85.5t62 99.5 t46.5 152.5q5 22 22.5 23t33.5 1q38 0 56.5 -17.5t42.5 -57.5q16 -27 45.5 -60.5t60.5 -69.5t59 -69.5t44 -54.5q19 -30 28.5 -48.5t15 -33.5t8 -31t2.5 -43q0 -37 -8 -58.5t-46 -21.5q-40 0 -73.5 29.5t-68 69.5t-76.5 84.5t-92 73.5q-51 -64 -109 -127t-110 -96.5 t-96.5 -25.5t-65.5 83z" />
<glyph unicode="&#xd5;" horiz-adv-x="1672" d="M51 748q-5 118 31 219.5t103 180.5t163 128q97 43 212 53q201 -29 384.5 -101.5t324.5 -185t229.5 -262.5t98.5 -338q-27 -139 -110 -219.5t-195.5 -124.5t-240.5 -66q-129 -19 -236 -35q-166 0 -307 55t-241.5 151.5t-158 236t-57.5 308.5zM177 761q-3 -123 52 -230.5 t143.5 -187.5t198.5 -134t220 -70q37 0 98.5 7t134 21.5t146.5 40t134 62t99 86t39 113.5q-19 134 -82 238.5t-154 185t-198.5 136.5t-212 89.5t-195.5 44.5t-150 0q-83 -29 -135 -77.5t-83 -103.5t-43 -111t-12 -110zM229 1595.5q9 57.5 41.5 99t83.5 68.5q48 30 104 30 q5 2 20 1t47 -12t84.5 -37.5t138.5 -77.5q50 -30 79.5 -32.5t72.5 13.5l27 8q16 5 16 11l164 128q32 -2 49.5 -13t24 -24.5t5 -26.5t-11.5 -21q-73 -59 -111.5 -96.5t-57.5 -56.5t-23 -25.5t-5.5 -9.5t-5.5 -4t-25 -7q-70 -26 -125 -13t-104.5 45.5t-97.5 71t-105 65.5 q-75 6 -111 -25t-49.5 -75.5t-12 -90t-4 -69.5t-24 -17.5t-72.5 71.5q-21 64 -12 121.5z" />
<glyph unicode="&#xd6;" horiz-adv-x="1672" d="M51 748q-5 118 31 219.5t103 180.5t163 128q97 43 212 53q201 -29 384.5 -101.5t324.5 -185t229.5 -262.5t98.5 -338q-27 -139 -110 -219.5t-195.5 -124.5t-240.5 -66q-129 -19 -236 -35q-166 0 -307 55t-241.5 151.5t-158 236t-57.5 308.5zM177 761q-3 -123 52 -230.5 t143.5 -187.5t198.5 -134t220 -70q37 0 98.5 7t134 21.5t146.5 40t134 62t99 86t39 113.5q-19 134 -82 238.5t-154 185t-198.5 136.5t-212 89.5t-195.5 44.5t-150 0q-83 -29 -135 -77.5t-83 -103.5t-43 -111t-12 -110zM482 1721q0 11 13.5 32t31 45.5t38.5 40.5q16 16 32 16 q43 0 74 -15t49.5 -36.5t28 -48t9.5 -50.5q0 -16 -13.5 -36.5t-35 -37.5t-47 -29t-51.5 -12q-30 0 -54 14.5t-40 34.5t-25.5 43t-9.5 39zM911 1721q0 11 12 32t32 45.5t40 40.5t34 16q40 0 69.5 -15t49.5 -36.5t29.5 -48t9.5 -50.5q0 -16 -13.5 -36.5t-33.5 -37.5t-48.5 -29 t-52.5 -12q-29 0 -53 14.5t-40.5 34.5t-25.5 43t-9 39z" />
<glyph unicode="&#xd7;" horiz-adv-x="1230" d="M139 791q-5 21 11 38.5t37.5 31t43 21.5t32.5 8q59 -54 87 -86t49.5 -53.5t47 -41.5t78.5 -50q54 8 101 39t89.5 68.5t79 69.5t66 44t51 -5t34.5 -84q0 -22 -33.5 -47.5t-80.5 -57.5t-99 -72t-92 -86q56 -54 80 -79.5t40 -46.5t40 -45.5t78 -69.5q-16 -35 -52 -56.5 t-79 -53.5q-38 43 -52.5 64.5t-20 28t-8 8t-10.5 12t-32.5 37.5t-72.5 80q-16 -2 -32 -17t-44 -47t-67 -77.5t-98 -104.5q-14 0 -31 5.5t-32 13.5t-24.5 20t-9.5 22q25 62 57 101t64 67t55 56t23 71q0 3 -1.5 5.5t-1.5 5.5q-46 43 -72.5 71t-50.5 55t-56.5 57.5t-91.5 79.5z " />
<glyph unicode="&#xd8;" horiz-adv-x="1672" d="M51 748q-5 118 31 219.5t103 180.5t163 128q97 43 212 53q164 -24 314 -75l59 166q8 38 16 94t21.5 111t34.5 99.5t56 55.5q24 -6 35 -19.5t15 -30.5t4 -36v-35q0 -40 -25.5 -146t-68.5 -251q-8 -29 -16 -61q147 -67 263 -158q142 -113 230.5 -263t98.5 -338 q-27 -139 -110 -219.5t-195.5 -124.5t-240.5 -66q-129 -19 -236 -35q-118 0 -225 27q-6 -16 -14 -29q-53 -124 -94.5 -199t-63.5 -75q-35 0 -56.5 32.5t-21.5 58.5q0 38 17.5 94t41.5 115q14 35 30 65q-91 48 -164 118q-102 99 -158 237t-56 307zM177 761q-3 -123 52 -230.5 t146 -187.5q59 -56 129 -99l316 866l-24 8q-105 34 -196 45t-150 0q-83 -29 -135 -77.5t-83 -103.5t-43 -111t-12 -110zM654 174q67 -24 137 -35q37 0 98.5 7t134 21.5t146.5 40t134 62t99 86t39 113.5q-19 134 -82 238.5t-154 185t-198 136.5l-49 24q-16 -51 -34 -104 q-54 -169 -114.5 -340.5t-119.5 -332.5q-21 -54 -37 -102z" />
<glyph unicode="&#xd9;" d="M75 1045q0 24 1.5 65.5t5.5 91.5t14.5 102t32 93.5t53.5 68.5t78 27q29 0 45.5 -16t19 -39t-13.5 -50t-51 -48q-24 0 -35 -36t-16 -79t-5 -83.5v-48.5q0 -69 5 -160t21.5 -189t47 -194.5t80 -175.5t119.5 -132.5t169 -59.5q75 -5 174 27t185 92.5t146 139.5t60 165v10 q-18 113 -38.5 188t-35 136.5t-24 126t-9.5 150.5q8 123 28 183.5t41.5 67t46 -31t43 -108.5t26.5 -169t5 -208q3 -80 31 -176.5t63 -193t71 -187.5t55 -159.5t11 -112.5t-56 -44q-54 0 -81 32t-45.5 71t-40.5 71q-21 32 -53 32q-27 0 -64.5 -20t-84.5 -52t-102 -69.5 t-114 -70t-120.5 -54t-125.5 -21.5q-115 0 -201 55t-147.5 143.5t-103 202.5t-66 230.5t-35 225t-10.5 191.5zM639 1922q4 19 44 13.5t137 -53.5q32 -27 49.5 -43t32 -29.5t32 -29.5t49.5 -43q6 -5 16.5 -24t10.5 -24q0 -54 -19 -67q-21 -14 -59 -14q-5 0 -13 3t-35 23 t-72.5 59t-120.5 111q-21 29 -38.5 64t-13.5 54z" />
<glyph unicode="&#xda;" d="M75 1045q0 24 1.5 65.5t5.5 91.5t14.5 102t32 93.5t53.5 68.5t78 27q29 0 45.5 -16t19 -39t-13.5 -50t-51 -48q-24 0 -35 -36t-16 -79t-5 -83.5v-48.5q0 -69 5 -160t21.5 -189t47 -194.5t80 -175.5t119.5 -132.5t169 -59.5q75 -5 174 27t185 92.5t146 139.5t60 165v10 q-18 113 -38.5 188t-35 136.5t-24 126t-9.5 150.5q8 123 28 183.5t41.5 67t46 -31t43 -108.5t26.5 -169t5 -208q3 -80 31 -176.5t63 -193t71 -187.5t55 -159.5t11 -112.5t-56 -44q-54 0 -81 32t-45.5 71t-40.5 71q-21 32 -53 32q-27 0 -64.5 -20t-84.5 -52t-102 -69.5 t-114 -70t-120.5 -54t-125.5 -21.5q-115 0 -201 55t-147.5 143.5t-103 202.5t-66 230.5t-35 225t-10.5 191.5zM520 1557q0 57 43 107.5t103 96.5t125 86q59 40 102 72q56 -27 49.5 -64.5t-56.5 -88.5t-130 -118t-169 -155q-40 0 -53.5 13.5t-13.5 50.5z" />
<glyph unicode="&#xdb;" d="M75 1045q0 24 1.5 65.5t5.5 91.5t14.5 102t32 93.5t53.5 68.5t78 27q29 0 45.5 -16t19 -39t-13.5 -50t-51 -48q-24 0 -35 -36t-16 -79t-5 -83.5v-48.5q0 -69 5 -160t21.5 -189t47 -194.5t80 -175.5t119.5 -132.5t169 -59.5q75 -5 174 27t185 92.5t146 139.5t60 165v10 q-18 113 -38.5 188t-35 136.5t-24 126t-9.5 150.5q8 123 28 183.5t41.5 67t46 -31t43 -108.5t26.5 -169t5 -208q3 -80 31 -176.5t63 -193t71 -187.5t55 -159.5t11 -112.5t-56 -44q-54 0 -81 32t-45.5 71t-40.5 71q-21 32 -53 32q-27 0 -64.5 -20t-84.5 -52t-102 -69.5 t-114 -70t-120.5 -54t-125.5 -21.5q-115 0 -201 55t-147.5 143.5t-103 202.5t-66 230.5t-35 225t-10.5 191.5zM413 1946q75 70 128.5 112.5t90 85.5t62 99.5t46.5 152.5q5 22 22.5 23t33.5 1q38 0 56.5 -17.5t42.5 -57.5q16 -27 45.5 -60.5t60.5 -69.5t59 -69.5t44 -54.5 q19 -30 28.5 -48.5t15 -33.5t8 -31t2.5 -43q0 -37 -8 -58.5t-46 -21.5q-40 0 -73.5 29.5t-68 69.5t-76.5 84.5t-92 73.5q-51 -64 -109 -127t-110 -96.5t-96.5 -25.5t-65.5 83z" />
<glyph unicode="&#xdc;" d="M75 1045q0 24 1.5 65.5t5.5 91.5t14.5 102t32 93.5t53.5 68.5t78 27q29 0 45.5 -16t19 -39t-13.5 -50t-51 -48q-24 0 -35 -36t-16 -79t-5 -83.5v-48.5q0 -69 5 -160t21.5 -189t47 -194.5t80 -175.5t119.5 -132.5t169 -59.5q75 -5 174 27t185 92.5t146 139.5t60 165v10 q-18 113 -38.5 188t-35 136.5t-24 126t-9.5 150.5q8 123 28 183.5t41.5 67t46 -31t43 -108.5t26.5 -169t5 -208q3 -80 31 -176.5t63 -193t71 -187.5t55 -159.5t11 -112.5t-56 -44q-54 0 -81 32t-45.5 71t-40.5 71q-21 32 -53 32q-27 0 -64.5 -20t-84.5 -52t-102 -69.5 t-114 -70t-120.5 -54t-125.5 -21.5q-115 0 -201 55t-147.5 143.5t-103 202.5t-66 230.5t-35 225t-10.5 191.5zM432 1721q0 11 13.5 32t31 45.5t38.5 40.5q16 16 32 16q43 0 74 -15t49.5 -36.5t28 -48t9.5 -50.5q0 -16 -13.5 -36.5t-35 -37.5t-47 -29t-51.5 -12 q-30 0 -54 14.5t-40 34.5t-25.5 43t-9.5 39zM861 1721q0 11 12 32t32 45.5t40 40.5t34 16q40 0 69.5 -15t49.5 -36.5t29.5 -48t9.5 -50.5q0 -16 -13.5 -36.5t-33.5 -37.5t-48.5 -29t-52.5 -12q-29 0 -53 14.5t-40.5 34.5t-25.5 43t-9 39z" />
<glyph unicode="&#xdd;" horiz-adv-x="1106" d="M48 1755q3 0 15 1.5t27 3t28 3.5h16q19 -53 51 -120t79 -137t103 -135.5t119 -117.5t131.5 -83t140.5 -31q49 107 77 170t44 98t21.5 52.5t8 37.5t5.5 48t13 87q0 11 21.5 23t44.5 14.5t43 -5.5t20 -32q0 -147 -32 -280t-80.5 -259t-102 -250.5t-93.5 -255.5t-57.5 -273 t6.5 -303q-16 -30 -32 -42t-43 -12t-46 12t-35 42v28v43v43v28q0 115 12 205t32.5 175.5t50 175.5t61.5 202q0 6 1 20.5t1 19.5q6 3 -46.5 27t-127.5 68.5t-163.5 111.5t-162 155.5t-117.5 198t-34 243.5zM485 1910q0 57 43 107.5t103 96.5t125 86q59 40 102 72 q56 -27 49.5 -64.5t-56.5 -88.5t-130 -118t-169 -155q-40 0 -53.5 13.5t-13.5 50.5z" />
<glyph unicode="&#xde;" horiz-adv-x="1364" d="M134 1419q0 74 2.5 130t8 89.5t10.5 31.5l159 -33q5 -26 3.5 -93t-6.5 -150t-10.5 -173t-8.5 -162.5t0 -120.5t14 -43q48 0 95 16t100 16q81 0 172 -14.5t180.5 -44t174 -76.5t147.5 -108.5t100.5 -142t37.5 -177.5q0 -123 -60 -196.5t-154 -111t-204 -48.5 q-112 -11 -209 -11q-29 0 -80 17.5t-106 39t-103.5 43t-66.5 26.5l32 -552l-148 59l-59 1195q0 8 -2.5 50t-5 103.5t-5.5 138t-5.5 152.5t-2.5 150zM335 584q-27 -118 14.5 -203.5t120.5 -140.5t182.5 -76.5t205 -6.5t182.5 63q86 51 123 139q0 72 -33.5 131t-87 105 t-122 79.5t-139.5 54.5t-140.5 33.5t-123.5 12.5q-88 0 -135 -51t-47 -140z" />
<glyph unicode="&#xdf;" horiz-adv-x="1621" d="M88.5 1645.5q2.5 96.5 32 161t91 91t163.5 5.5q51 0 118 -11t139.5 -32.5t143.5 -55t127 -76t94 -96.5q35 -51 35 -115q0 -70 -29.5 -129t-64.5 -106t-64.5 -83t-29.5 -68q0 -5 53.5 -30.5t135.5 -71t174.5 -112.5t174 -149t135 -177t53.5 -202q0 -75 -48 -127.5 t-127 -88.5t-177 -56.5t-195.5 -31t-186.5 -13.5q-91 -2 -150 -2q-21 0 -40 2.5t-29.5 16t-12 45.5t11.5 88q54 0 133 -1t165 -1t170 9.5t152.5 32t110 61.5t41.5 100q0 132 -68 219t-171.5 148.5t-224 103t-223.5 78t-171.5 76.5t-68.5 96q0 30 31 47.5t77.5 30.5t101.5 28 t102 43t78 71t31 115q0 59 -32.5 104.5t-82 78t-107 48.5t-108.5 16q-75 0 -155.5 -16t-139.5 -64l156 -2013q-6 3 -46 8t-85.5 16t-80.5 28.5t-29 43.5q42 121 58.5 260.5t12.5 288t-23 301.5t-43 301.5t-47 288t-33.5 260t-8 217z" />
<glyph unicode="&#xe0;" horiz-adv-x="1388" d="M51 453q3 45 27 104t75 115.5t128.5 100.5t183.5 63t241.5 3t301.5 -81v27l-3 24q0 70 -40 142.5t-103 130t-135.5 93.5t-139.5 36q-27 0 -47 -8t-39 -20t-36 -21.5t-42 -9.5q-5 0 -5 3l-5 5q-6 6 -15 14t-9 11q0 48 17 82.5t48 56t70 33.5t82 12q107 -10 205 -65 t179.5 -138t143 -191.5t103 -225.5t55.5 -234q16 -124 2 -231q-2 0 -15.5 1.5t-29.5 2.5t-27 4l-13 3q-57 126 -126.5 203.5t-138 122t-127.5 61.5t-96 26q-40 0 -95 -5.5t-114 -19t-119.5 -36.5t-107 -55t-75 -76t-28.5 -103q0 -65 51 -109t123.5 -72t147.5 -39t120 -11 q75 0 147.5 8t143.5 19t141 19t139 8h19t28 -1.5t27 -1.5h17q22 -8 24.5 -24t2.5 -32t-33.5 -35t-87 -37.5t-119 -38.5t-126 -33.5t-112.5 -23t-74 -9.5q-112 0 -238 19t-230.5 68.5t-173 138t-68.5 227.5zM462 1761q4 19 44 13.5t137 -53.5q32 -27 49.5 -43t32 -29.5 t32 -29.5t49.5 -43q6 -5 16.5 -24t10.5 -24q0 -54 -19 -67q-21 -14 -59 -14q-5 0 -13 3t-35 23t-72.5 59t-120.5 111q-21 29 -38.5 64t-13.5 54z" />
<glyph unicode="&#xe1;" horiz-adv-x="1388" d="M51 453q3 45 27 104t75 115.5t128.5 100.5t183.5 63t241.5 3t301.5 -81v27l-3 24q0 70 -40 142.5t-103 130t-135.5 93.5t-139.5 36q-27 0 -47 -8t-39 -20t-36 -21.5t-42 -9.5q-5 0 -5 3l-5 5q-6 6 -15 14t-9 11q0 48 17 82.5t48 56t70 33.5t82 12q107 -10 205 -65 t179.5 -138t143 -191.5t103 -225.5t55.5 -234q16 -124 2 -231q-2 0 -15.5 1.5t-29.5 2.5t-27 4l-13 3q-57 126 -126.5 203.5t-138 122t-127.5 61.5t-96 26q-40 0 -95 -5.5t-114 -19t-119.5 -36.5t-107 -55t-75 -76t-28.5 -103q0 -65 51 -109t123.5 -72t147.5 -39t120 -11 q75 0 147.5 8t143.5 19t141 19t139 8h19t28 -1.5t27 -1.5h17q22 -8 24.5 -24t2.5 -32t-33.5 -35t-87 -37.5t-119 -38.5t-126 -33.5t-112.5 -23t-74 -9.5q-112 0 -238 19t-230.5 68.5t-173 138t-68.5 227.5zM431 1535q0 57 43 107.5t103 96.5t125 86q59 40 102 72 q56 -27 49.5 -64.5t-56.5 -88.5t-130 -118t-169 -155q-40 0 -53.5 13.5t-13.5 50.5z" />
<glyph unicode="&#xe2;" horiz-adv-x="1388" d="M51 453q3 45 27 104t75 115.5t128.5 100.5t183.5 63t241.5 3t301.5 -81v27l-3 24q0 70 -40 142.5t-103 130t-135.5 93.5t-139.5 36q-27 0 -47 -8t-39 -20t-36 -21.5t-42 -9.5q-5 0 -5 3l-5 5q-6 6 -15 14t-9 11q0 48 17 82.5t48 56t70 33.5t82 12q107 -10 205 -65 t179.5 -138t143 -191.5t103 -225.5t55.5 -234q16 -124 2 -231q-2 0 -15.5 1.5t-29.5 2.5t-27 4l-13 3q-57 126 -126.5 203.5t-138 122t-127.5 61.5t-96 26q-40 0 -95 -5.5t-114 -19t-119.5 -36.5t-107 -55t-75 -76t-28.5 -103q0 -65 51 -109t123.5 -72t147.5 -39t120 -11 q75 0 147.5 8t143.5 19t141 19t139 8h19t28 -1.5t27 -1.5h17q22 -8 24.5 -24t2.5 -32t-33.5 -35t-87 -37.5t-119 -38.5t-126 -33.5t-112.5 -23t-74 -9.5q-112 0 -238 19t-230.5 68.5t-173 138t-68.5 227.5zM322 1533q75 70 128.5 112.5t90 85.5t62 99.5t46.5 152.5 q5 22 22.5 23t33.5 1q38 0 56.5 -17.5t42.5 -57.5q16 -27 45.5 -60.5t60.5 -69.5t59 -69.5t44 -54.5q19 -30 28.5 -48.5t15 -33.5t8 -31t2.5 -43q0 -37 -8 -58.5t-46 -21.5q-40 0 -73.5 29.5t-68 69.5t-76.5 84.5t-92 73.5q-51 -64 -109 -127t-110 -96.5t-96.5 -25.5 t-65.5 83z" />
<glyph unicode="&#xe3;" horiz-adv-x="1388" d="M51 453q3 45 27 104t75 115.5t128.5 100.5t183.5 63t241.5 3t301.5 -81v27l-3 24q0 70 -40 142.5t-103 130t-135.5 93.5t-139.5 36q-27 0 -47 -8t-39 -20t-36 -21.5t-42 -9.5q-5 0 -5 3l-5 5q-6 6 -15 14t-9 11q0 48 17 82.5t48 56t70 33.5t82 12q107 -10 205 -65 t179.5 -138t143 -191.5t103 -225.5t55.5 -234q16 -124 2 -231q-2 0 -15.5 1.5t-29.5 2.5t-27 4l-13 3q-57 126 -126.5 203.5t-138 122t-127.5 61.5t-96 26q-40 0 -95 -5.5t-114 -19t-119.5 -36.5t-107 -55t-75 -76t-28.5 -103q0 -65 51 -109t123.5 -72t147.5 -39t120 -11 q75 0 147.5 8t143.5 19t141 19t139 8h19t28 -1.5t27 -1.5h17q22 -8 24.5 -24t2.5 -32t-33.5 -35t-87 -37.5t-119 -38.5t-126 -33.5t-112.5 -23t-74 -9.5q-112 0 -238 19t-230.5 68.5t-173 138t-68.5 227.5zM194 1700.5q9 57.5 41.5 99t83.5 68.5q48 30 104 30q5 2 20 1 t47 -12t84.5 -37.5t138.5 -77.5q50 -30 79.5 -32.5t72.5 13.5l27 8q16 5 16 11l164 128q32 -2 49.5 -13t24 -24.5t5 -26.5t-11.5 -21q-73 -59 -111.5 -96.5t-57.5 -56.5t-23 -25.5t-5.5 -9.5t-5.5 -4t-25 -7q-70 -26 -125 -13t-104.5 45.5t-97.5 71t-105 65.5 q-75 6 -111 -25t-49.5 -75.5t-12 -90t-4 -69.5t-24 -17.5t-72.5 71.5q-21 64 -12 121.5z" />
<glyph unicode="&#xe4;" horiz-adv-x="1388" d="M51 453q3 45 27 104t75 115.5t128.5 100.5t183.5 63t241.5 3t301.5 -81v27l-3 24q0 70 -40 142.5t-103 130t-135.5 93.5t-139.5 36q-27 0 -47 -8t-39 -20t-36 -21.5t-42 -9.5q-5 0 -5 3l-5 5q-6 6 -15 14t-9 11q0 48 17 82.5t48 56t70 33.5t82 12q107 -10 205 -65 t179.5 -138t143 -191.5t103 -225.5t55.5 -234q16 -124 2 -231q-2 0 -15.5 1.5t-29.5 2.5t-27 4l-13 3q-57 126 -126.5 203.5t-138 122t-127.5 61.5t-96 26q-40 0 -95 -5.5t-114 -19t-119.5 -36.5t-107 -55t-75 -76t-28.5 -103q0 -65 51 -109t123.5 -72t147.5 -39t120 -11 q75 0 147.5 8t143.5 19t141 19t139 8h19t28 -1.5t27 -1.5h17q22 -8 24.5 -24t2.5 -32t-33.5 -35t-87 -37.5t-119 -38.5t-126 -33.5t-112.5 -23t-74 -9.5q-112 0 -238 19t-230.5 68.5t-173 138t-68.5 227.5zM351 1630q0 11 13.5 32t31 45.5t38.5 40.5q16 16 32 16 q43 0 74 -15t49.5 -36.5t28 -48t9.5 -50.5q0 -16 -13.5 -36.5t-35 -37.5t-47 -29t-51.5 -12q-30 0 -54 14.5t-40 34.5t-25.5 43t-9.5 39zM780 1630q0 11 12 32t32 45.5t40 40.5t34 16q40 0 69.5 -15t49.5 -36.5t29.5 -48t9.5 -50.5q0 -16 -13.5 -36.5t-33.5 -37.5t-48.5 -29 t-52.5 -12q-29 0 -53 14.5t-40.5 34.5t-25.5 43t-9 39z" />
<glyph unicode="&#xe5;" horiz-adv-x="1388" d="M51 453q3 45 27 104t75 115.5t128.5 100.5t183.5 63t241.5 3t301.5 -81v27l-3 24q0 70 -40 142.5t-103 130t-135.5 93.5t-139.5 36q-27 0 -47 -8t-39 -20t-36 -21.5t-42 -9.5q-5 0 -5 3l-5 5q-6 6 -15 14t-9 11q0 48 17 82.5t48 56t69 32.5l16 5q-22 11 -38 27 q-67 62 -67 164q0 59 27 103t70 73.5t96.5 45.5t106.5 16q43 0 80.5 -24t64.5 -57.5t43 -72.5t16 -74q0 -53 -24 -97.5t-61.5 -74t-86.5 -45.5q-13 -5 -26 -8q37 -16 72 -35q97 -53 178.5 -136t143 -191.5t103 -225.5t55.5 -234q16 -124 2 -231q-2 0 -15.5 1.5t-29.5 2.5 t-30 4l-10 3q-57 126 -126.5 203.5t-138 122t-127.5 61.5t-96 26q-40 0 -95 -5.5t-114 -19t-119.5 -36.5t-107 -55t-75 -76t-28.5 -103q0 -65 51 -109t123.5 -72t147.5 -39t120 -11q75 0 147.5 8t143.5 19t141 19t139 8h19q13 0 28 -1.5t26 -1.5h18q22 -8 24.5 -24t2.5 -32 t-33.5 -35t-87 -37.5t-119 -38.5t-126 -33.5t-112.5 -23t-74 -9.5q-112 0 -238 19t-230.5 68.5t-173 138t-68.5 227.5zM520 1549q0 -67 40 -100.5t110 -33.5q19 -3 48.5 9t57.5 31t48 48.5t19 61.5t-30.5 65.5t-99.5 63.5q-38 0 -72.5 -7t-61.5 -24t-43 -44t-16 -70z" />
<glyph unicode="&#xe6;" horiz-adv-x="2420" d="M51 453q3 45 27 104t75 115.5t128.5 100.5t183.5 63t241.5 3t301.5 -81v27l-3 24q0 70 -40 142.5t-103 130t-135.5 93.5t-139.5 36q-27 0 -47 -8t-39 -20t-36 -21.5t-42 -9.5q-5 0 -5 3l-5 5q-6 6 -15 14t-9 11q0 48 17 82.5t48 56t70 33.5t82 12q107 -10 205 -65 t179.5 -138t143.5 -193q8 -16 18 -30q41 118 113 204q80 97 194 153t264 56q89 -11 153 -47t107 -91t62 -127.5t19 -152.5q0 -96 -58 -174t-143.5 -129t-184.5 -80q-102 -30 -188 -30q-32 0 -64 1.5t-59 12t-43 32t-16 64.5q0 14 4 23t22.5 13t55 1.5t100.5 -15.5 q38 0 110 25.5t146 65.5t127.5 91t53.5 104q0 54 -17.5 105t-52.5 91t-81.5 64t-105.5 22q-94 -8 -170.5 -51t-131.5 -111.5t-83 -153t-28 -172.5v-48q27 -86 35 -177q8 -59 8 -118q13 -32 35 -62q40 -59 113.5 -107t186 -79t279.5 -39l477 32q-43 -59 -107.5 -96.5 t-138 -61.5t-147.5 -33.5t-135 -9.5q-156 0 -292.5 50t-241.5 143l-27 24q-8 -10 -21 -16q-35 -18 -88.5 -35.5t-119 -37.5t-126 -33.5t-112.5 -23t-74 -9.5q-112 0 -238 19t-230.5 68.5t-173 138t-68.5 227.5zM182 413q0 -65 51 -109t123.5 -72t147.5 -39t120 -11 q75 0 147.5 8t143.5 19t141 19t139 8h19q11 0 21 -3q-40 62 -72 126q-16 32 -27 64q-26 43 -53 75q-70 78 -138.5 122.5t-127.5 61.5t-96 26q-40 0 -95 -5.5t-114 -19t-119.5 -36.5t-107 -55t-75 -76t-28.5 -103z" />
<glyph unicode="&#xe7;" horiz-adv-x="1232" d="M51 598q0 118 45.5 229t124.5 197t183.5 136.5t222.5 50.5q54 0 114 -12t114 -38.5t88.5 -71t34.5 -111.5q0 -11 -6.5 -43t-17.5 -64t-25.5 -57.5t-25.5 -25.5q0 126 -69.5 210.5t-203.5 84.5q-102 0 -182.5 -43t-134 -112.5t-81.5 -157t-28 -178.5q0 -123 40 -203.5 t109.5 -130t161 -73.5t193 -32t203.5 -5.5t196 7.5q8 0 26.5 -10.5t26.5 -13.5v-8q0 -5 1.5 -5t1.5 -3q0 -29 -29.5 -50.5t-72.5 -35t-93.5 -19t-100.5 -9.5t-87 -4h-54q-120 0 -222 22q11 -27 13 -51q6 -27 -8 -40q0 -86 40.5 -122t102 -52.5t134 -24.5t134 -34.5 t103 -85.5t41.5 -177q0 -64 -35 -112.5t-86 -79.5t-114 -45.5t-116 -14.5q-78 0 -129 21.5t-89.5 59t-72 84.5t-76.5 98q16 13 30.5 15.5t33.5 2.5q43 0 84.5 -25.5t77.5 -55t72.5 -53.5t76.5 -24q43 0 82 -1t63 8t38.5 40t14.5 95q3 62 -20 97t-60.5 55t-84 28t-97.5 17.5 t-99.5 26.5t-86 50.5t-60 92.5t-25.5 150q3 54 11 84q-91 34 -164 93q-86 75 -134 188t-48 271z" />
<glyph unicode="&#xe8;" horiz-adv-x="1415" d="M51 718q0 140 41.5 267t120.5 223.5t193 154t264 57.5q88 -10 154 -47.5t107.5 -92.5t60.5 -128q16 -69 16 -150q0 -96 -56.5 -174t-142 -130t-185 -80t-184.5 -28h-66.5t-60 10.5t-42.5 32t-16 64.5q0 13 4 22.5t22.5 13.5t56.5 1q37 -5 102 -16q37 0 108 25.5t144.5 66 t127.5 92.5t54 103q0 54 -17.5 106t-52.5 92.5t-82 64.5t-106 18q-93 -8 -169.5 -50.5t-130 -111t-83 -151.5t-29.5 -174q0 -70 2.5 -139.5t20 -136.5t56.5 -129t112.5 -108.5t186 -77.5t278.5 -39l480 32q-43 -59 -108.5 -96.5t-139.5 -60.5t-146 -33.5t-137 -10.5 q-155 0 -291.5 51t-241 143.5t-165 225t-60.5 298.5zM406 1809q4 19 44 13.5t137 -53.5q32 -27 49.5 -43t32 -29.5t32 -29.5t49.5 -43q6 -5 16.5 -24t10.5 -24q0 -54 -19 -67q-21 -14 -59 -14q-5 0 -13 3t-35 23t-72.5 59t-120.5 111q-21 29 -38.5 64t-13.5 54z" />
<glyph unicode="&#xe9;" horiz-adv-x="1415" d="M51 718q0 140 41.5 267t120.5 223.5t193 154t264 57.5q88 -10 154 -47.5t107.5 -92.5t60.5 -128q16 -69 16 -150q0 -96 -56.5 -174t-142 -130t-185 -80t-184.5 -28h-66.5t-60 10.5t-42.5 32t-16 64.5q0 13 4 22.5t22.5 13.5t56.5 1q37 -5 102 -16q37 0 108 25.5t144.5 66 t127.5 92.5t54 103q0 54 -17.5 106t-52.5 92.5t-82 64.5t-106 18q-93 -8 -169.5 -50.5t-130 -111t-83 -151.5t-29.5 -174q0 -70 2.5 -139.5t20 -136.5t56.5 -129t112.5 -108.5t186 -77.5t278.5 -39l480 32q-43 -59 -108.5 -96.5t-139.5 -60.5t-146 -33.5t-137 -10.5 q-155 0 -291.5 51t-241 143.5t-165 225t-60.5 298.5zM397 1565q0 57 43 107.5t103 96.5t125 86q59 40 102 72q56 -27 49.5 -64.5t-56.5 -88.5t-130 -118t-169 -155q-40 0 -53.5 13.5t-13.5 50.5z" />
<glyph unicode="&#xea;" horiz-adv-x="1415" d="M51 718q0 140 41.5 267t120.5 223.5t193 154t264 57.5q88 -10 154 -47.5t107.5 -92.5t60.5 -128q16 -69 16 -150q0 -96 -56.5 -174t-142 -130t-185 -80t-184.5 -28h-66.5t-60 10.5t-42.5 32t-16 64.5q0 13 4 22.5t22.5 13.5t56.5 1q37 -5 102 -16q37 0 108 25.5t144.5 66 t127.5 92.5t54 103q0 54 -17.5 106t-52.5 92.5t-82 64.5t-106 18q-93 -8 -169.5 -50.5t-130 -111t-83 -151.5t-29.5 -174q0 -70 2.5 -139.5t20 -136.5t56.5 -129t112.5 -108.5t186 -77.5t278.5 -39l480 32q-43 -59 -108.5 -96.5t-139.5 -60.5t-146 -33.5t-137 -10.5 q-155 0 -291.5 51t-241 143.5t-165 225t-60.5 298.5zM335 1533q75 70 128.5 112.5t90 85.5t62 99.5t46.5 152.5q5 22 22.5 23t33.5 1q38 0 56.5 -17.5t42.5 -57.5q16 -27 45.5 -60.5t60.5 -69.5t59 -69.5t44 -54.5q19 -30 28.5 -48.5t15 -33.5t8 -31t2.5 -43q0 -37 -8 -58.5 t-46 -21.5q-40 0 -73.5 29.5t-68 69.5t-76.5 84.5t-92 73.5q-51 -64 -109 -127t-110 -96.5t-96.5 -25.5t-65.5 83z" />
<glyph unicode="&#xeb;" horiz-adv-x="1415" d="M51 718q0 140 41.5 267t120.5 223.5t193 154t264 57.5q88 -10 154 -47.5t107.5 -92.5t60.5 -128q16 -69 16 -150q0 -96 -56.5 -174t-142 -130t-185 -80t-184.5 -28h-66.5t-60 10.5t-42.5 32t-16 64.5q0 13 4 22.5t22.5 13.5t56.5 1q37 -5 102 -16q37 0 108 25.5t144.5 66 t127.5 92.5t54 103q0 54 -17.5 106t-52.5 92.5t-82 64.5t-106 18q-93 -8 -169.5 -50.5t-130 -111t-83 -151.5t-29.5 -174q0 -70 2.5 -139.5t20 -136.5t56.5 -129t112.5 -108.5t186 -77.5t278.5 -39l480 32q-43 -59 -108.5 -96.5t-139.5 -60.5t-146 -33.5t-137 -10.5 q-155 0 -291.5 51t-241 143.5t-165 225t-60.5 298.5zM298 1595q0 11 13.5 32t31 45.5t38.5 40.5q16 16 32 16q43 0 74 -15t49.5 -36.5t28 -48t9.5 -50.5q0 -16 -13.5 -36.5t-35 -37.5t-47 -29t-51.5 -12q-30 0 -54 14.5t-40 34.5t-25.5 43t-9.5 39zM727 1595q0 11 12 32 t32 45.5t40 40.5t34 16q40 0 69.5 -15t49.5 -36.5t29.5 -48t9.5 -50.5q0 -16 -13.5 -36.5t-33.5 -37.5t-48.5 -29t-52.5 -12q-29 0 -53 14.5t-40.5 34.5t-25.5 43t-9 39z" />
<glyph unicode="&#xec;" horiz-adv-x="479" d="M43 1618.5q5 18.5 45.5 14.5t136.5 -52q32 -27 49.5 -43t32.5 -30.5t31 -30.5q18 -14 51 -41q5 -5 14.5 -23.5t9.5 -26.5q0 -54 -19 -66t-56 -12q-6 0 -15 2.5t-34.5 21.5t-71 57.5t-121.5 111.5q-21 29 -39.5 64t-13.5 53.5zM169 927v40q0 30 1.5 62t1.5 59v43 q-11 83 48 83q27 0 45.5 -13.5t34.5 -40.5q-8 -139 12 -269t45.5 -257t48.5 -256t23 -268q0 -38 -23 -75.5t-68 -37.5q-35 0 -60.5 60.5t-44.5 153t-32 205t-20 215.5t-9.5 185t-2.5 111z" />
<glyph unicode="&#xed;" horiz-adv-x="479" d="M-29 1353q0 57 42.5 108t101.5 96.5t122 85.5t106 72q56 -27 49.5 -64.5t-57.5 -88t-131.5 -117.5t-165.5 -156q-41 0 -54 13.5t-13 50.5zM169 927v40q0 30 1.5 62t1.5 59v43q-11 83 48 83q27 0 45.5 -13.5t34.5 -40.5q-8 -139 12 -269t45.5 -257t48.5 -256t23 -268 q0 -38 -23 -75.5t-68 -37.5q-35 0 -60.5 60.5t-44.5 153t-32 205t-20 215.5t-9.5 185t-2.5 111z" />
<glyph unicode="&#xee;" horiz-adv-x="479" d="M-131 1533q75 70 128.5 112.5t89.5 85.5t60.5 99.5t50.5 152.5q6 22 22 23t32 1q37 0 56 -17.5t43 -57.5q16 -27 45.5 -60.5t60.5 -69.5t59 -69.5t44 -54.5q19 -30 29.5 -48.5t14.5 -33.5t7 -31t3 -43q0 -37 -7 -58.5t-47 -21.5t-73.5 29.5t-69.5 69.5t-76.5 84.5 t-91.5 73.5q-51 -64 -107 -127t-109.5 -96.5t-96.5 -25.5t-67 83zM169 927v40q0 30 1.5 62t1.5 59v43q-11 83 48 83q27 0 45.5 -13.5t34.5 -40.5q-8 -139 12 -269t45.5 -257t48.5 -256t23 -268q0 -38 -23 -75.5t-68 -37.5q-35 0 -60.5 60.5t-44.5 153t-32 205t-20 215.5 t-9.5 185t-2.5 111z" />
<glyph unicode="&#xef;" horiz-adv-x="479" d="M-134 1469q0 10 13.5 31.5t31 45.5t37.5 40.5t33 16.5q43 0 74 -15t49.5 -36.5t28 -48t9.5 -50.5q0 -17 -13.5 -37t-35 -37.5t-47 -29.5t-51.5 -12q-30 0 -55.5 15t-41.5 35t-24 43t-8 39zM169 927v40q0 30 1.5 62t1.5 59v43q-11 83 48 83q27 0 45.5 -13.5t34.5 -40.5 q-8 -139 12 -269t45.5 -257t48.5 -256t23 -268q0 -38 -23 -75.5t-68 -37.5q-35 0 -60.5 60.5t-44.5 153t-32 205t-20 215.5t-9.5 185t-2.5 111zM295 1469q0 10 12 31.5t32 45.5t39 40.5t35 16.5q40 0 69.5 -15t49.5 -36.5t29.5 -48t9.5 -50.5q0 -17 -13.5 -37t-33.5 -37.5 t-47 -27.5q-27 -14 -54 -14q-29 0 -54.5 15t-41.5 35t-24 43t-8 39z" />
<glyph unicode="&#xf0;" horiz-adv-x="1117" d="M64 373q0 93 35 172t95.5 137t144.5 88.5t181 30.5q51 0 91 -1t77.5 -5t78 -13.5t91.5 -28.5v13q0 54 -35 119.5t-89 130.5q-51 -16 -100.5 -41.5t-92.5 -47t-80.5 -35t-62.5 -4t-40 45.5t-12 111q16 -5 52 9.5t76.5 32t79 32.5t62.5 9q-37 27 -85.5 59t-96.5 60.5 t-91 44.5q-48 16 -75 16h-11q-10 -3 -30.5 -13.5t-40.5 -22.5t-36 -23q-21 -11 -27 -11q-16 0 -26.5 11t-17.5 25.5t-11 32t-4 30.5q0 32 21.5 53.5t51 36.5t63 20.5t57.5 2.5q75 -5 139.5 -21.5t121 -43t109.5 -72.5q56 -48 113 -112q56 -6 97.5 11.5t73.5 39t56.5 39 t45.5 19t42.5 -23t48.5 -91.5q6 -10 -15.5 -34.5t-54 -48.5t-72.5 -41.5t-72 -17.5q43 -59 77.5 -131t59 -148.5t39 -151.5t14.5 -142q0 -97 -24 -189.5t-76.5 -164.5t-135.5 -116.5t-198 -44.5q-102 0 -205 21.5t-186 70t-137 126t-54 190.5zM206 402q0 -83 37.5 -135.5 t95.5 -84.5t127 -43q70 -13 140 -13q136 11 228.5 82t119.5 221q8 67 -28 115t-100.5 81.5t-150 48.5t-174.5 15q-43 0 -95 -28.5t-96.5 -71t-74 -93.5t-29.5 -94z" />
<glyph unicode="&#xf1;" horiz-adv-x="1262" d="M78 883v162q0 24 17.5 31t38.5 7q16 0 22.5 -8t9.5 -19t8.5 -20.5t18.5 -9.5q37 0 91 29.5t117 64.5t134 64.5t140 29.5q91 0 167.5 -47t137 -124.5t103.5 -174t72.5 -197t42.5 -195.5t13 -165q0 -24 -4 -72.5t-13 -96.5t-30.5 -84.5t-53.5 -36.5q-6 0 -19.5 1.5 t-26.5 5.5t-22.5 9.5t-9.5 16.5q24 206 0 387t-78 317.5t-131.5 217t-165.5 80.5q-83 0 -155.5 -27t-126 -78t-84.5 -123t-31 -158t16 -170.5t36 -168.5t36 -170t16 -172q-75 0 -125.5 62t-81.5 158.5t-48.5 217t-24 237t-6.5 219.5zM84 1520.5q9 57.5 41.5 99t83.5 68.5 q48 30 104 30q5 2 20 1t47 -12t84.5 -37.5t138.5 -77.5q50 -30 79.5 -32.5t72.5 13.5l27 8q16 5 16 11l164 128q32 -2 49.5 -13t24 -24.5t5 -26.5t-11.5 -21q-73 -59 -111.5 -96.5t-57.5 -56.5t-23 -25.5t-5.5 -9.5t-5.5 -4t-25 -7q-70 -26 -125 -13t-104.5 45.5t-97.5 71 t-105 65.5q-75 6 -111 -25t-49.5 -75.5t-12 -90t-4 -69.5t-24 -17.5t-72.5 71.5q-21 64 -12 121.5z" />
<glyph unicode="&#xf2;" horiz-adv-x="1337" d="M51 547q0 147 64.5 257t169 185t234.5 111t261 36q70 0 130 -25.5t115 -69.5t98 -101.5t73.5 -119.5t47 -125t16.5 -121q0 -137 -54 -244.5t-145 -181t-206 -112.5t-236 -39q-123 0 -226.5 39t-179.5 108.5t-119 173t-43 229.5zM182 568q0 -83 31 -159.5t86 -132.5 t130 -89.5t161 -33.5q45 -6 110.5 14.5t131.5 59t126 93.5t100.5 121t50 137t-24 142t-122 136.5t-244.5 121.5q-88 0 -183 -25.5t-173 -76.5t-129 -128.5t-51 -179.5zM519 1509q4 19 44 13.5t137 -53.5q32 -27 49.5 -43t32 -29.5t32 -29.5t49.5 -43q6 -5 16.5 -24t10.5 -24 q0 -54 -19 -67q-21 -14 -59 -14q-5 0 -13 3t-35 23t-72.5 59t-120.5 111q-21 29 -38.5 64t-13.5 54z" />
<glyph unicode="&#xf3;" horiz-adv-x="1337" d="M51 547q0 147 64.5 257t169 185t234.5 111t261 36q70 0 130 -25.5t115 -69.5t98 -101.5t73.5 -119.5t47 -125t16.5 -121q0 -137 -54 -244.5t-145 -181t-206 -112.5t-236 -39q-123 0 -226.5 39t-179.5 108.5t-119 173t-43 229.5zM182 568q0 -83 31 -159.5t86 -132.5 t130 -89.5t161 -33.5q45 -6 110.5 14.5t131.5 59t126 93.5t100.5 121t50 137t-24 142t-122 136.5t-244.5 121.5q-88 0 -183 -25.5t-173 -76.5t-129 -128.5t-51 -179.5zM421 1299q0 57 43 107.5t103 96.5t125 86q59 40 102 72q56 -27 49.5 -64.5t-56.5 -88.5t-130 -118 t-169 -155q-40 0 -53.5 13.5t-13.5 50.5z" />
<glyph unicode="&#xf4;" horiz-adv-x="1337" d="M51 547q0 147 64.5 257t169 185t234.5 111t261 36q70 0 130 -25.5t115 -69.5t98 -101.5t73.5 -119.5t47 -125t16.5 -121q0 -137 -54 -244.5t-145 -181t-206 -112.5t-236 -39q-123 0 -226.5 39t-179.5 108.5t-119 173t-43 229.5zM182 568q0 -83 31 -159.5t86 -132.5 t130 -89.5t161 -33.5q45 -6 110.5 14.5t131.5 59t126 93.5t100.5 121t50 137t-24 142t-122 136.5t-244.5 121.5q-88 0 -183 -25.5t-173 -76.5t-129 -128.5t-51 -179.5zM273 1335q75 70 128.5 112.5t90 85.5t62 99.5t46.5 152.5q5 22 22.5 23t33.5 1q38 0 56.5 -17.5 t42.5 -57.5q16 -27 45.5 -60.5t60.5 -69.5t59 -69.5t44 -54.5q19 -30 28.5 -48.5t15 -33.5t8 -31t2.5 -43q0 -37 -8 -58.5t-46 -21.5q-40 0 -73.5 29.5t-68 69.5t-76.5 84.5t-92 73.5q-51 -64 -109 -127t-110 -96.5t-96.5 -25.5t-65.5 83z" />
<glyph unicode="&#xf5;" horiz-adv-x="1337" d="M51 547q0 147 64.5 257t169 185t234.5 111t261 36q70 0 130 -25.5t115 -69.5t98 -101.5t73.5 -119.5t47 -125t16.5 -121q0 -137 -54 -244.5t-145 -181t-206 -112.5t-236 -39q-123 0 -226.5 39t-179.5 108.5t-119 173t-43 229.5zM182 568q0 -83 31 -159.5t86 -132.5 t130 -89.5t161 -33.5q45 -6 110.5 14.5t131.5 59t126 93.5t100.5 121t50 137t-24 142t-122 136.5t-244.5 121.5q-88 0 -183 -25.5t-173 -76.5t-129 -128.5t-51 -179.5zM210 1287.5q9 57.5 41.5 99t83.5 68.5q48 30 104 30q5 2 20 1t47 -12t84.5 -37.5t138.5 -77.5 q50 -30 79.5 -32.5t72.5 13.5l27 8q16 5 16 11l164 128q32 -2 49.5 -13t24 -24.5t5 -26.5t-11.5 -21q-73 -59 -111.5 -96.5t-57.5 -56.5t-23 -25.5t-5.5 -9.5t-5.5 -4t-25 -7q-70 -26 -125 -13t-104.5 45.5t-97.5 71t-105 65.5q-75 6 -111 -25t-49.5 -75.5t-12 -90t-4 -69.5 t-24 -17.5t-72.5 71.5q-21 64 -12 121.5z" />
<glyph unicode="&#xf6;" horiz-adv-x="1337" d="M51 547q0 147 64.5 257t169 185t234.5 111t261 36q70 0 130 -25.5t115 -69.5t98 -101.5t73.5 -119.5t47 -125t16.5 -121q0 -137 -54 -244.5t-145 -181t-206 -112.5t-236 -39q-123 0 -226.5 39t-179.5 108.5t-119 173t-43 229.5zM182 568q0 -83 31 -159.5t86 -132.5 t130 -89.5t161 -33.5q45 -6 110.5 14.5t131.5 59t126 93.5t100.5 121t50 137t-24 142t-122 136.5t-244.5 121.5q-88 0 -183 -25.5t-173 -76.5t-129 -128.5t-51 -179.5zM316 1308q0 11 13.5 32t31 45.5t38.5 40.5q16 16 32 16q43 0 74 -15t49.5 -36.5t28 -48t9.5 -50.5 q0 -16 -13.5 -36.5t-35 -37.5t-47 -29t-51.5 -12q-30 0 -54 14.5t-40 34.5t-25.5 43t-9.5 39zM745 1308q0 11 12 32t32 45.5t40 40.5t34 16q40 0 69.5 -15t49.5 -36.5t29.5 -48t9.5 -50.5q0 -16 -13.5 -36.5t-33.5 -37.5t-48.5 -29t-52.5 -12q-29 0 -53 14.5t-40.5 34.5 t-25.5 43t-9 39z" />
<glyph unicode="&#xf7;" horiz-adv-x="921" d="M99 476q0 79 35 114t92.5 45t128.5 8.5t144 7.5h8q8 0 18.5 1.5t21.5 1.5h16q37 0 80 -2.5t80.5 -12.5t61.5 -31.5t24 -61.5q0 -50 -51 -50q-58 0 -108 13.5t-111 13.5q-78 0 -127.5 -8t-92.5 -15.5t-92.5 -15.5t-127.5 -8zM397 863q0 21 5.5 42.5t34.5 21.5q24 0 47 -16 t39 -38.5t27 -49.5q5 -27 0 -51q0 -6 -19 -24.5t-30 -29.5q-5 -2 -5 0h-8q-21 0 -38.5 16t-29.5 39t-17.5 47t-5.5 43zM400 268q0 32 24 51t53 19q32 0 41.5 -19t9.5 -51q0 -38 -14.5 -51t-54.5 -13q-59 -3 -59 64z" />
<glyph unicode="&#xf8;" horiz-adv-x="1337" d="M51 547q0 147 64.5 257t169 185t234.5 111t261 36q43 0 83 -8q5 19 16 40q16 35 41.5 63.5t65.5 33.5q27 -5 40.5 -12t19 -17.5t4 -22.5t-1.5 -23q3 -24 -30 -91q-8 -19 -18 -38q8 -10 24 -21q53 -43 97.5 -100.5t75 -119.5t47 -125t16.5 -121q0 -137 -54 -244.5 t-145 -181t-206 -112.5t-236 -39q-123 3 -228 41q-32 10 -59 21q-10 -8 -16 -13q-48 -46 -72 -46q-40 0 -65.5 19t-25.5 37q-3 22 19 57q13 21 29 42q-72 65 -110 161q-43 102 -40 231zM182 568q0 -83 31 -159.5t84 -132.5l3 -5l32 29l445 657q-27 10 -59 21 q-88 0 -183 -25.5t-173 -76.5t-129 -128.5t-51 -179.5zM440 182q69 -27 150 -29q45 -6 110.5 14.5t131.5 59t126 93.5t100.5 121t50 137t-25.5 140q-32 75 -124 140q-21 18 -48 32q-37 -65 -83 -137q-62 -104 -131 -209q-70 -104 -140 -204q-64 -88 -117 -158z" />
<glyph unicode="&#xf9;" horiz-adv-x="1377" d="M46 957q-22 144 7.5 226t71 105t71 -10.5t8.5 -117.5q-6 -10 -8.5 -33t-5 -47t-5.5 -45.5t-3 -29.5q0 -56 11 -132.5t33.5 -159.5t57.5 -165t83 -146t111 -104.5t138 -40.5q49 0 110.5 47t116.5 112.5t94 135.5t39 118q0 27 1 88.5t1 131t-1 131.5t-1 86q16 27 34.5 41.5 t45.5 14.5q32 0 53.5 -43t35 -110t18.5 -144.5t8 -150t5.5 -127.5t8.5 -73q13 -54 38.5 -121t49.5 -130t43 -115.5t19 -78.5q0 -41 -23 -49t-58 -8q-43 0 -63 21.5t-29.5 55t-14.5 74t-17 83t-35 80t-66 62.5q-62 -35 -106 -84.5t-89.5 -94t-100.5 -76.5t-141 -32 q-96 0 -174 41.5t-138 112.5t-104.5 161t-72.5 185t-42.5 187.5t-14.5 167.5zM358 1839q4 19 44 13.5t137 -53.5q32 -27 49.5 -43t32 -29.5t32 -29.5t49.5 -43q6 -5 16.5 -24t10.5 -24q0 -54 -19 -67q-21 -14 -59 -14q-5 0 -13 3t-35 23t-72.5 59t-120.5 111 q-21 29 -38.5 64t-13.5 54z" />
<glyph unicode="&#xfa;" horiz-adv-x="1377" d="M46 957q-22 144 7.5 226t71 105t71 -10.5t8.5 -117.5q-6 -10 -8.5 -33t-5 -47t-5.5 -45.5t-3 -29.5q0 -56 11 -132.5t33.5 -159.5t57.5 -165t83 -146t111 -104.5t138 -40.5q49 0 110.5 47t116.5 112.5t94 135.5t39 118q0 27 1 88.5t1 131t-1 131.5t-1 86q16 27 34.5 41.5 t45.5 14.5q32 0 53.5 -43t35 -110t18.5 -144.5t8 -150t5.5 -127.5t8.5 -73q13 -54 38.5 -121t49.5 -130t43 -115.5t19 -78.5q0 -41 -23 -49t-58 -8q-43 0 -63 21.5t-29.5 55t-14.5 74t-17 83t-35 80t-66 62.5q-62 -35 -106 -84.5t-89.5 -94t-100.5 -76.5t-141 -32 q-96 0 -174 41.5t-138 112.5t-104.5 161t-72.5 185t-42.5 187.5t-14.5 167.5zM434 1500q0 57 43 107.5t103 96.5t125 86q59 40 102 72q56 -27 49.5 -64.5t-56.5 -88.5t-130 -118t-169 -155q-40 0 -53.5 13.5t-13.5 50.5z" />
<glyph unicode="&#xfb;" horiz-adv-x="1377" d="M46 957q-22 144 7.5 226t71 105t71 -10.5t8.5 -117.5q-6 -10 -8.5 -33t-5 -47t-5.5 -45.5t-3 -29.5q0 -56 11 -132.5t33.5 -159.5t57.5 -165t83 -146t111 -104.5t138 -40.5q49 0 110.5 47t116.5 112.5t94 135.5t39 118q0 27 1 88.5t1 131t-1 131.5t-1 86q16 27 34.5 41.5 t45.5 14.5q32 0 53.5 -43t35 -110t18.5 -144.5t8 -150t5.5 -127.5t8.5 -73q13 -54 38.5 -121t49.5 -130t43 -115.5t19 -78.5q0 -41 -23 -49t-58 -8q-43 0 -63 21.5t-29.5 55t-14.5 74t-17 83t-35 80t-66 62.5q-62 -35 -106 -84.5t-89.5 -94t-100.5 -76.5t-141 -32 q-96 0 -174 41.5t-138 112.5t-104.5 161t-72.5 185t-42.5 187.5t-14.5 167.5zM316 1533q75 70 128.5 112.5t90 85.5t62 99.5t46.5 152.5q5 22 22.5 23t33.5 1q38 0 56.5 -17.5t42.5 -57.5q16 -27 45.5 -60.5t60.5 -69.5t59 -69.5t44 -54.5q19 -30 28.5 -48.5t15 -33.5t8 -31 t2.5 -43q0 -37 -8 -58.5t-46 -21.5q-40 0 -73.5 29.5t-68 69.5t-76.5 84.5t-92 73.5q-51 -64 -109 -127t-110 -96.5t-96.5 -25.5t-65.5 83z" />
<glyph unicode="&#xfc;" horiz-adv-x="1377" d="M46 957q-22 144 7.5 226t71 105t71 -10.5t8.5 -117.5q-6 -10 -8.5 -33t-5 -47t-5.5 -45.5t-3 -29.5q0 -56 11 -132.5t33.5 -159.5t57.5 -165t83 -146t111 -104.5t138 -40.5q49 0 110.5 47t116.5 112.5t94 135.5t39 118q0 27 1 88.5t1 131t-1 131.5t-1 86q16 27 34.5 41.5 t45.5 14.5q32 0 53.5 -43t35 -110t18.5 -144.5t8 -150t5.5 -127.5t8.5 -73q13 -54 38.5 -121t49.5 -130t43 -115.5t19 -78.5q0 -41 -23 -49t-58 -8q-43 0 -63 21.5t-29.5 55t-14.5 74t-17 83t-35 80t-66 62.5q-62 -35 -106 -84.5t-89.5 -94t-100.5 -76.5t-141 -32 q-96 0 -174 41.5t-138 112.5t-104.5 161t-72.5 185t-42.5 187.5t-14.5 167.5zM271 1538q0 11 13.5 32t31 45.5t38.5 40.5q16 16 32 16q43 0 74 -15t49.5 -36.5t28 -48t9.5 -50.5q0 -16 -13.5 -36.5t-35 -37.5t-47 -29t-51.5 -12q-30 0 -54 14.5t-40 34.5t-25.5 43t-9.5 39z M700 1538q0 11 12 32t32 45.5t40 40.5t34 16q40 0 69.5 -15t49.5 -36.5t29.5 -48t9.5 -50.5q0 -16 -13.5 -36.5t-33.5 -37.5t-48.5 -29t-52.5 -12q-29 0 -53 14.5t-40.5 34.5t-25.5 43t-9 39z" />
<glyph unicode="&#xfd;" horiz-adv-x="1337" d="M47 981q-4 43 1.5 88.5t24 80.5t58.5 35q11 0 17.5 -43t16 -111.5t24.5 -157t39 -179.5t59 -179.5t85.5 -157t121.5 -111t163 -42.5q59 0 123 25.5t121.5 65.5t106.5 91q48 54 75 104q0 11 -3 51.5t-5.5 92.5t-5 113.5t-5.5 116.5t-4 95.5t-1 50.5q5 164 23.5 200 t45.5 -23t56.5 -198t55 -325.5t40 -406t12 -441t-28 -427.5t-81.5 -365.5t-147.5 -259t-225.5 -104.5q-53 0 -127 20t-149 55t-148.5 83t-131 104.5t-94 118t-36.5 123.5v36t5.5 29.5t16.5 20.5q16 5 37 5q40 -46 103 -117t143.5 -138t169 -117.5t179.5 -50.5 q75 2 128.5 38.5t91 95t62 134t39 153t21.5 150t15 125.5q5 27 11.5 90t13.5 139.5t11 159.5t-1.5 151.5t-21.5 112.5t-48 44q-46 0 -97 -26.5t-105.5 -60t-111 -60.5t-110.5 -27q-101 0 -185.5 41.5t-154.5 108.5t-123.5 157t-89.5 186.5t-53.5 192.5t-17.5 182q0 19 -4 62 zM415 1479q0 57 43 107.5t103 96.5t125 86q59 40 102 72q56 -27 49.5 -64.5t-56.5 -88.5t-130 -118t-169 -155q-40 0 -53.5 13.5t-13.5 50.5z" />
<glyph unicode="&#xfe;" horiz-adv-x="1428" d="M76 85.5q4 136.5 13.5 248t9.5 170.5q0 32 1.5 103t1.5 159.5t4 186.5t10.5 181t17.5 147q5 62 21 83l132 32l-73 -541q86 62 204 103.5t246.5 53.5t254.5 -5.5t225.5 -78t163.5 -165t64 -259.5q0 -107 -40 -178t-110 -110t-154 -52.5t-173 -13.5q-59 0 -144.5 -1.5 t-174 5.5t-174.5 24.5t-145 51.5q-5 -115 -6.5 -203.5t-2.5 -170t1.5 -164.5t5.5 -188l-3 -8v-5q-5 -6 -21.5 -4.5t-40.5 5.5t-45.5 7t-34.5 -3q-27 145 -32.5 299t-1.5 290.5zM263 391q64 -10 141.5 -25t152.5 -27t142 -22.5t116 -10.5q43 0 114 8t134 30.5t108.5 61.5 t45.5 103q0 91 -40.5 158t-104.5 112.5t-144.5 68.5t-161.5 23q-10 0 -51.5 -6.5t-95.5 -17.5t-112.5 -29.5t-108.5 -43t-82 -56.5t-32 -72v-32q-5 -54 -10.5 -109t-10.5 -114z" />
<glyph unicode="&#xff;" horiz-adv-x="1337" d="M47 981q-4 43 1.5 88.5t24 80.5t58.5 35q11 0 17.5 -43t16 -111.5t24.5 -157t39 -179.5t59 -179.5t85.5 -157t121.5 -111t163 -42.5q59 0 123 25.5t121.5 65.5t106.5 91q48 54 75 104q0 11 -3 51.5t-5.5 92.5t-5 113.5t-5.5 116.5t-4 95.5t-1 50.5q5 164 23.5 200 t45.5 -23t56.5 -198t55 -325.5t40 -406t12 -441t-28 -427.5t-81.5 -365.5t-147.5 -259t-225.5 -104.5q-53 0 -127 20t-149 55t-148.5 83t-131 104.5t-94 118t-36.5 123.5v36t5.5 29.5t16.5 20.5q16 5 37 5q40 -46 103 -117t143.5 -138t169 -117.5t179.5 -50.5 q75 2 128.5 38.5t91 95t62 134t39 153t21.5 150t15 125.5q5 27 11.5 90t13.5 139.5t11 159.5t-1.5 151.5t-21.5 112.5t-48 44q-46 0 -97 -26.5t-105.5 -60t-111 -60.5t-110.5 -27q-101 0 -185.5 41.5t-154.5 108.5t-123.5 157t-89.5 186.5t-53.5 192.5t-17.5 182q0 19 -4 62 zM279 1474q0 11 13.5 32t31 45.5t38.5 40.5q16 16 32 16q43 0 74 -15t49.5 -36.5t28 -48t9.5 -50.5q0 -16 -13.5 -36.5t-35 -37.5t-47 -29t-51.5 -12q-30 0 -54 14.5t-40 34.5t-25.5 43t-9.5 39zM708 1474q0 11 12 32t32 45.5t40 40.5t34 16q40 0 69.5 -15t49.5 -36.5 t29.5 -48t9.5 -50.5q0 -16 -13.5 -36.5t-33.5 -37.5t-48.5 -29t-52.5 -12q-29 0 -53 14.5t-40.5 34.5t-25.5 43t-9 39z" />
<glyph unicode="&#x100;" horiz-adv-x="1543" d="M51 831v5q0 19 9.5 27t22.5 12t26.5 9.5t21.5 18.5v13.5v22.5v23v14q11 112 17.5 239.5t24 249.5t54 234.5t100.5 198t163.5 136.5t249.5 51q118 0 213 -56.5t168.5 -151.5t128.5 -219.5t92.5 -264t63 -281.5t39 -270.5t19 -236t5.5 -176.5v-91.5t-4 -79t-8 -81.5 t-15 -99q-22 -30 -55.5 -55.5t-73.5 -25.5q-35 0 -44 17.5t-9 47.5q0 45 8 92t18.5 94t18.5 95t8 97q0 75 -5.5 160.5t-26.5 163.5q-75 -16 -154 -12t-158 14.5t-159.5 21.5t-160.5 11h-77t-107 -3t-101 -8q-42 -5 -53 -16l-27 -24q0 -3 -1.5 -12.5t-1.5 -23t-1 -26.5 t-1 -21q0 -78 12 -157t26.5 -154t28.5 -150q13 -75 13 -150v-27q-40 -38 -72 -26t-57.5 59t-43 121t-27 161t-11 178t6.5 177q-5 5 -21 22.5t-32 37.5t-32 39q-11 19 -16 29zM252 927l943 -53q8 0 20 1t20.5 13t16.5 39t13 75q0 78 -15 178.5t-44 207.5t-76 209 t-111.5 182.5t-149 128.5t-188.5 48q-110 0 -185 -57.5t-122 -150t-72.5 -207.5t-36 -230.5t-12 -217t-1.5 -166.5zM327 2240q0 94 35 135.5t91 55t128.5 11t144.5 7.5q3 0 27 1.5t35 1.5q38 0 82 -2.5t80 -14.5t60.5 -37.5t24.5 -74.5q0 -56 -49 -56q-59 0 -109.5 15 t-112.5 15q-78 0 -126 -9.5t-92.5 -19t-92.5 -19t-126 -9.5z" />
<glyph unicode="&#x101;" horiz-adv-x="1388" d="M51 453q3 45 27 104t75 115.5t128.5 100.5t183.5 63t241.5 3t301.5 -81v27l-3 24q0 70 -40 142.5t-103 130t-135.5 93.5t-139.5 36q-27 0 -47 -8t-39 -20t-36 -21.5t-42 -9.5q-5 0 -5 3l-5 5q-6 6 -15 14t-9 11q0 48 17 82.5t48 56t70 33.5t82 12q107 -10 205 -65 t179.5 -138t143 -191.5t103 -225.5t55.5 -234q16 -124 2 -231q-2 0 -15.5 1.5t-29.5 2.5t-27 4l-13 3q-57 126 -126.5 203.5t-138 122t-127.5 61.5t-96 26q-40 0 -95 -5.5t-114 -19t-119.5 -36.5t-107 -55t-75 -76t-28.5 -103q0 -65 51 -109t123.5 -72t147.5 -39t120 -11 q75 0 147.5 8t143.5 19t141 19t139 8h19t28 -1.5t27 -1.5h17q22 -8 24.5 -24t2.5 -32t-33.5 -35t-87 -37.5t-119 -38.5t-126 -33.5t-112.5 -23t-74 -9.5q-112 0 -238 19t-230.5 68.5t-173 138t-68.5 227.5zM308 1576q0 94 35 135.5t91 55t128.5 11t144.5 7.5q3 0 27 1.5 t35 1.5q38 0 82 -2.5t80 -14.5t60.5 -37.5t24.5 -74.5q0 -56 -49 -56q-59 0 -109.5 15t-112.5 15q-78 0 -126 -9.5t-92.5 -19t-92.5 -19t-126 -9.5z" />
<glyph unicode="&#x102;" horiz-adv-x="1543" d="M51 831v5q0 19 9.5 27t22.5 12t26.5 9.5t21.5 18.5v13.5v22.5v23v14q11 112 17.5 239.5t24 249.5t54 234.5t100.5 198t163.5 136.5t249.5 51q118 0 213 -56.5t168.5 -151.5t128.5 -219.5t92.5 -264t63 -281.5t39 -270.5t19 -236t5.5 -176.5v-91.5t-4 -79t-8 -81.5 t-15 -99q-22 -30 -55.5 -55.5t-73.5 -25.5q-35 0 -44 17.5t-9 47.5q0 45 8 92t18.5 94t18.5 95t8 97q0 75 -5.5 160.5t-26.5 163.5q-75 -16 -154 -12t-158 14.5t-159.5 21.5t-160.5 11h-77t-107 -3t-101 -8q-42 -5 -53 -16l-27 -24q0 -3 -1.5 -12.5t-1.5 -23t-1 -26.5 t-1 -21q0 -78 12 -157t26.5 -154t28.5 -150q13 -75 13 -150v-27q-40 -38 -72 -26t-57.5 59t-43 121t-27 161t-11 178t6.5 177q-5 5 -21 22.5t-32 37.5t-32 39q-11 19 -16 29zM252 927l943 -53q8 0 20 1t20.5 13t16.5 39t13 75q0 78 -15 178.5t-44 207.5t-76 209 t-111.5 182.5t-149 128.5t-188.5 48q-110 0 -185 -57.5t-122 -150t-72.5 -207.5t-36 -230.5t-12 -217t-1.5 -166.5zM528 2522v18q32 -2 49.5 -3.5t25.5 -5.5t8 -7q2 0 2 -5q0 -43 28.5 -67t71 -32t88.5 -3t78 25.5t42.5 52.5t-15.5 75l112 -8q8 -16 10.5 -16t2.5 -14 q0 -53 -22.5 -97.5t-60 -74t-86 -45.5t-99.5 -16q-101 0 -168 60.5t-67 162.5z" />
<glyph unicode="&#x103;" horiz-adv-x="1388" d="M51 453q3 45 27 104t75 115.5t128.5 100.5t183.5 63t241.5 3t301.5 -81v27l-3 24q0 70 -40 142.5t-103 130t-135.5 93.5t-139.5 36q-27 0 -47 -8t-39 -20t-36 -21.5t-42 -9.5q-5 0 -5 3l-5 5q-6 6 -15 14t-9 11q0 48 17 82.5t48 56t70 33.5t82 12q107 -10 205 -65 t179.5 -138t143 -191.5t103 -225.5t55.5 -234q16 -124 2 -231q-2 0 -15.5 1.5t-29.5 2.5t-27 4l-13 3q-57 126 -126.5 203.5t-138 122t-127.5 61.5t-96 26q-40 0 -95 -5.5t-114 -19t-119.5 -36.5t-107 -55t-75 -76t-28.5 -103q0 -65 51 -109t123.5 -72t147.5 -39t120 -11 q75 0 147.5 8t143.5 19t141 19t139 8h19t28 -1.5t27 -1.5h17q22 -8 24.5 -24t2.5 -32t-33.5 -35t-87 -37.5t-119 -38.5t-126 -33.5t-112.5 -23t-74 -9.5q-112 0 -238 19t-230.5 68.5t-173 138t-68.5 227.5zM394 1740v18q32 -2 49.5 -3.5t25.5 -5.5t8 -7q2 0 2 -5 q0 -43 28.5 -67t71 -32t88.5 -3t78 25.5t42.5 52.5t-15.5 75l112 -8q8 -16 10.5 -16t2.5 -14q0 -53 -22.5 -97.5t-60 -74t-86 -45.5t-99.5 -16q-101 0 -168 60.5t-67 162.5z" />
<glyph unicode="&#x104;" horiz-adv-x="1543" d="M51 831v5q0 19 9.5 27t22.5 12t26.5 9.5t21.5 18.5v73q11 112 17.5 239.5t24 249.5t54 234.5t100.5 198t163.5 136.5t249.5 51q118 0 213 -56.5t168.5 -151.5t128.5 -219.5t92.5 -264t63 -281.5t39 -270.5t19 -236t5.5 -176.5v-91.5t-4 -79t-8 -81.5t-15 -99 q-22 -30 -55.5 -55.5t-73.5 -25.5q-13 0 -24 3q-86 -40 -121 -83q-56 -64 -28 -115t136 -81q102 -29 262 -18l-37 -92q-140 -2 -248.5 8.5t-174 48t-81.5 107.5q-11 70 37 190q22 38 51.5 63.5t64.5 41.5t75 32q19 5 35 13q0 22 5 40q11 46 21.5 93t18.5 95t8 97 q0 75 -5.5 160.5t-26.5 163.5q-75 -16 -154 -12t-158 14.5t-159.5 21.5t-160.5 11h-77t-107 -3t-101 -8q-42 -5 -53 -16l-27 -24q0 -3 -1.5 -12.5t-1.5 -23t-1 -26.5t-1 -21q0 -78 12 -157t26.5 -154t28.5 -150q13 -75 13 -150v-27q-40 -38 -72 -26t-57.5 59t-43 121 t-27 161t-11 178t6.5 177q-5 5 -21 22.5t-32 37.5t-32 39q-11 19 -16 29zM252 927l943 -53q8 0 20 1t20.5 13t16.5 39t13 75q0 78 -15 178.5t-44 207.5t-76 209t-111.5 182.5t-149 128.5t-188.5 48q-110 0 -185 -57.5t-122 -150t-72.5 -207.5t-36 -230.5t-12 -217 t-1.5 -166.5z" />
<glyph unicode="&#x105;" horiz-adv-x="1388" d="M51 453q3 45 27 104t75 115.5t128.5 100.5t183.5 63t241.5 3t301.5 -81v27l-3 24q0 70 -40 142.5t-103 130t-135.5 93.5t-139.5 36q-27 0 -47 -8t-39 -20t-36 -21.5t-42 -9.5q-5 0 -5 3l-5 5q-6 6 -15 14t-9 11q0 48 17 82.5t48 56t70 33.5t82 12q107 -10 205 -65 t179.5 -138t143 -191.5t103 -225.5t55.5 -234q16 -124 2 -231q-2 0 -15.5 1.5t-29.5 2.5t-30 4l-10 3q-57 126 -126.5 203.5t-138 122t-127.5 61.5t-96 26q-40 0 -95 -5.5t-114 -19t-119.5 -36.5t-107 -55t-75 -76t-28.5 -103q0 -65 51 -109t123.5 -72t147.5 -39t120 -11 q75 0 147.5 8t143.5 19t141 19t139 8h19q13 0 28 -1.5t26 -1.5h18q22 -8 24.5 -24t2.5 -32t-33.5 -35t-86.5 -37q-57 -19 -121 -41l-64 -18q-57 -33 -83 -62q-57 -64 -27.5 -115t134 -80.5t265.5 -18.5l-40 -92q-139 -2 -248 8.5t-174.5 47t-81.5 108.5q-8 59 24 158h-16 q-112 0 -238 19t-230.5 68.5t-173 138t-68.5 227.5z" />
<glyph unicode="&#x106;" horiz-adv-x="1415" d="M51 742q0 108 35 224.5t96.5 231.5t146 219.5t186 185t214.5 128.5q113 46 225 46q64 0 96.5 -48.5t32.5 -107.5q0 -34 -13.5 -80t-40.5 -90t-60.5 -75t-73.5 -31q0 27 8 52.5t21.5 48.5t21.5 47t8 53q0 38 -31 44.5t-60 6.5h-21h-17q-123 -48 -241 -127t-209 -182 t-144.5 -228t-53.5 -267q0 -91 17.5 -199.5t60 -201t116.5 -154t184 -61.5q91 0 180.5 17.5t179.5 37.5t180 36t181 16q21 0 42.5 -5.5t21.5 -31.5q0 -14 -16 -34t-40 -39t-45.5 -29.5t-27.5 -13.5l-619 -131q-5 0 -22.5 -1.5t-28.5 -1.5q-88 0 -159 36.5t-126 94t-94 134 t-64.5 159.5t-36 166t-10.5 155zM576 1878q0 57 43 107.5t103 96.5t125 86q59 40 102 72q56 -27 49.5 -64.5t-56.5 -88.5t-130 -118t-169 -155q-40 0 -53.5 13.5t-13.5 50.5z" />
<glyph unicode="&#x107;" horiz-adv-x="1232" d="M51 598q0 118 45.5 229t124.5 197t183.5 136.5t222.5 50.5q54 0 114 -12t114 -38.5t88.5 -71t34.5 -111.5q0 -11 -6.5 -43t-17.5 -64t-25.5 -57.5t-25.5 -25.5q0 126 -69.5 210.5t-203.5 84.5q-102 0 -182.5 -43t-134 -112.5t-81.5 -157t-28 -178.5q0 -123 40 -203.5 t109.5 -130t161 -73.5t193 -32t203.5 -5.5t196 7.5q8 0 26.5 -10.5t26.5 -13.5v-8q0 -5 1.5 -5t1.5 -3q0 -29 -29.5 -50.5t-72.5 -35t-93.5 -19t-100.5 -9.5t-87.5 -4h-53.5q-155 0 -279.5 35t-212 108.5t-135.5 187.5t-48 270zM461 1439q0 57 43 107.5t103 96.5t125 86 q59 40 102 72q56 -27 49.5 -64.5t-56.5 -88.5t-130 -118t-169 -155q-40 0 -53.5 13.5t-13.5 50.5z" />
<glyph unicode="&#x108;" horiz-adv-x="1415" d="M51 742q0 108 35 224.5t96.5 231.5t146 219.5t186 185t214.5 128.5q113 46 225 46q64 0 96.5 -48.5t32.5 -107.5q0 -34 -13.5 -80t-40.5 -90t-60.5 -75t-73.5 -31q0 27 8 52.5t21.5 48.5t21.5 47t8 53q0 38 -31 44.5t-60 6.5h-21h-17q-123 -48 -241 -127t-209 -182 t-144.5 -228t-53.5 -267q0 -91 17.5 -199.5t60 -201t116.5 -154t184 -61.5q91 0 180.5 17.5t179.5 37.5t180 36t181 16q21 0 42.5 -5.5t21.5 -31.5q0 -14 -16 -34t-40 -39t-45.5 -29.5t-27.5 -13.5l-619 -131q-5 0 -22.5 -1.5t-28.5 -1.5q-88 0 -159 36.5t-126 94t-94 134 t-64.5 159.5t-36 166t-10.5 155zM335 1946q75 70 128.5 112.5t90 85.5t62 99.5t46.5 152.5q5 22 22.5 23t33.5 1q38 0 56.5 -17.5t42.5 -57.5q16 -27 45.5 -60.5t60.5 -69.5t59 -69.5t44 -54.5q19 -30 28.5 -48.5t15 -33.5t8 -31t2.5 -43q0 -37 -8 -58.5t-46 -21.5 q-40 0 -73.5 29.5t-68 69.5t-76.5 84.5t-92 73.5q-51 -64 -109 -127t-110 -96.5t-96.5 -25.5t-65.5 83z" />
<glyph unicode="&#x109;" horiz-adv-x="1232" d="M51 598q0 118 45.5 229t124.5 197t183.5 136.5t222.5 50.5q54 0 114 -12t114 -38.5t88.5 -71t34.5 -111.5q0 -11 -6.5 -43t-17.5 -64t-25.5 -57.5t-25.5 -25.5q0 126 -69.5 210.5t-203.5 84.5q-102 0 -182.5 -43t-134 -112.5t-81.5 -157t-28 -178.5q0 -123 40 -203.5 t109.5 -130t161 -73.5t193 -32t203.5 -5.5t196 7.5q8 0 26.5 -10.5t26.5 -13.5v-8q0 -5 1.5 -5t1.5 -3q0 -29 -29.5 -50.5t-72.5 -35t-93.5 -19t-100.5 -9.5t-87.5 -4h-53.5q-155 0 -279.5 35t-212 108.5t-135.5 187.5t-48 270zM244 1533q75 70 128.5 112.5t90 85.5t62 99.5 t46.5 152.5q5 22 22.5 23t33.5 1q38 0 56.5 -17.5t42.5 -57.5q16 -27 45.5 -60.5t60.5 -69.5t59 -69.5t44 -54.5q19 -30 28.5 -48.5t15 -33.5t8 -31t2.5 -43q0 -37 -8 -58.5t-46 -21.5q-40 0 -73.5 29.5t-68 69.5t-76.5 84.5t-92 73.5q-51 -64 -109 -127t-110 -96.5 t-96.5 -25.5t-65.5 83z" />
<glyph unicode="&#x10a;" horiz-adv-x="1415" d="M51 742q0 108 35 224.5t96.5 231.5t146 219.5t186 185t214.5 128.5q113 46 225 46q64 0 96.5 -48.5t32.5 -107.5q0 -34 -13.5 -80t-40.5 -90t-60.5 -75t-73.5 -31q0 27 8 52.5t21.5 48.5t21.5 47t8 53q0 38 -31 44.5t-60 6.5h-21h-17q-123 -48 -241 -127t-209 -182 t-144.5 -228t-53.5 -267q0 -91 17.5 -199.5t60 -201t116.5 -154t184 -61.5q91 0 180.5 17.5t179.5 37.5t180 36t181 16q21 0 42.5 -5.5t21.5 -31.5q0 -14 -16 -34t-40 -39t-45.5 -29.5t-27.5 -13.5l-619 -131q-5 0 -22.5 -1.5t-28.5 -1.5q-88 0 -159 36.5t-126 94t-94 134 t-64.5 159.5t-36 166t-10.5 155zM648 2033q-4 36 1 74q-3 32 25.5 39t60.5 0t54.5 -20.5t12.5 -18.5q21 -54 25 -90t-5.5 -59t-25.5 -36t-32 -21q-37 0 -61.5 18.5t-37.5 48t-17 65.5z" />
<glyph unicode="&#x10b;" horiz-adv-x="1232" d="M51 598q0 118 45.5 229t124.5 197t183.5 136.5t222.5 50.5q54 0 114 -12t114 -38.5t88.5 -71t34.5 -111.5q0 -11 -6.5 -43t-17.5 -64t-25.5 -57.5t-25.5 -25.5q0 126 -69.5 210.5t-203.5 84.5q-102 0 -182.5 -43t-134 -112.5t-81.5 -157t-28 -178.5q0 -123 40 -203.5 t109.5 -130t161 -73.5t193 -32t203.5 -5.5t196 7.5q8 0 26.5 -10.5t26.5 -13.5v-8q0 -5 1.5 -5t1.5 -3q0 -29 -29.5 -50.5t-72.5 -35t-93.5 -19t-100.5 -9.5t-87.5 -4h-53.5q-155 0 -279.5 35t-212 108.5t-135.5 187.5t-48 270zM514 1392q-4 36 1 74q-3 32 25.5 39t60.5 0 t54.5 -20.5t12.5 -18.5q21 -54 25 -90t-5.5 -59t-25.5 -36t-32 -21q-37 0 -61.5 18.5t-37.5 48t-17 65.5z" />
<glyph unicode="&#x10c;" horiz-adv-x="1415" d="M51 742q0 108 35 224.5t96.5 231.5t146 219.5t186 185t214.5 128.5q113 46 225 46q64 0 96.5 -48.5t32.5 -107.5q0 -34 -13.5 -80t-40.5 -90t-60.5 -75t-73.5 -31q0 27 8 52.5t21.5 48.5t21.5 47t8 53q0 38 -31 44.5t-60 6.5h-21h-17q-123 -48 -241 -127t-209 -182 t-144.5 -228t-53.5 -267q0 -91 17.5 -199.5t60 -201t116.5 -154t184 -61.5q91 0 180.5 17.5t179.5 37.5t180 36t181 16q21 0 42.5 -5.5t21.5 -31.5q0 -14 -16 -34t-40 -39t-45.5 -29.5t-27.5 -13.5l-619 -131q-5 0 -22.5 -1.5t-28.5 -1.5q-88 0 -159 36.5t-126 94t-94 134 t-64.5 159.5t-36 166t-10.5 155zM453 2181q22 43 66 47t96.5 -14.5t108.5 -53.5t107 -72q51 18 91.5 42.5t75 48.5t69.5 40t72 16q38 0 46 -13.5t8 -34.5q0 -16 -2.5 -24t-8 -16.5t-15 -17.5t-28.5 -28q-16 -16 -44 -35t-57.5 -37.5t-58.5 -40.5q-30 -16 -46 -32 q-24 -21 -43 -33t-56 -12q-13 0 -29.5 1t-24.5 12q-24 56 -49.5 88.5t-61.5 56.5t-87 48q-54 24 -129 64z" />
<glyph unicode="&#x10d;" horiz-adv-x="1232" d="M51 598q0 118 45.5 229t124.5 197t183.5 136.5t222.5 50.5q54 0 114 -12t114 -38.5t88.5 -71t34.5 -111.5q0 -11 -6.5 -43t-17.5 -64t-25.5 -57.5t-25.5 -25.5q0 126 -69.5 210.5t-203.5 84.5q-102 0 -182.5 -43t-134 -112.5t-81.5 -157t-28 -178.5q0 -123 40 -203.5 t109.5 -130t161 -73.5t193 -32t203.5 -5.5t196 7.5q8 0 26.5 -10.5t26.5 -13.5v-8q0 -5 1.5 -5t1.5 -3q0 -29 -29.5 -50.5t-72.5 -35t-93.5 -19t-100.5 -9.5t-87.5 -4h-53.5q-155 0 -279.5 35t-212 108.5t-135.5 187.5t-48 270zM246 1613q22 43 66 47t96.5 -14.5 t108.5 -53.5t107 -72q51 18 91.5 42.5t75 48.5t69.5 40t72 16q38 0 46 -13.5t8 -34.5q0 -16 -2.5 -24t-8 -16.5t-15 -17.5t-28.5 -28q-16 -16 -44 -35t-57.5 -37.5t-58.5 -40.5q-30 -16 -46 -32q-24 -21 -43 -33t-56 -12q-13 0 -29.5 1t-24.5 12q-24 56 -49.5 88.5 t-61.5 56.5t-87 48q-54 24 -129 64z" />
<glyph unicode="&#x10e;" horiz-adv-x="2034" d="M54 1544v10q0 38 38.5 65t96.5 45.5t127.5 30.5t130 17.5t102 9.5t43.5 4q137 0 292.5 -31t307 -90t289.5 -146t243.5 -199.5t168.5 -252t63 -299.5q0 -148 -45.5 -266t-126 -206.5t-187.5 -148.5t-227.5 -88t-248 -28t-247.5 29q-24 8 -59 23t-68.5 33.5t-56.5 46.5 t-23 63q0 22 7 44.5t34 22.5q13 0 68 -14.5t119 -33.5t126 -35t86 -19h13q118 0 238.5 44.5t220 125t162.5 186t63 229.5q0 96 -37.5 188.5t-100.5 178t-147.5 158t-178.5 130t-190.5 98t-184.5 56.5q2 -172 27.5 -324.5t51 -293.5t39.5 -275q16 -134 0 -268v-33t-7 -34.5 t-21.5 -28.5t-36.5 -11q-40 -21 -61.5 16.5t-32 114t-13 181t-9.5 218t-17.5 223.5t-34.5 201q-6 33 -14 83.5t-21.5 105.5t-31 102t-35.5 68q-193 0 -308.5 -12t-183.5 -28t-99 -33.5t-55 -27.5l-6 -3q-5 -3 -8 -3q-5 0 -5 3q-3 3 -5 3q-3 2 -5.5 10t-6.5 20.5t-8 25.5 t-4 19zM646 2026q22 43 66 47t96.5 -14.5t108.5 -53.5t107 -72q51 18 91.5 42.5t75 48.5t69.5 40t72 16q38 0 46 -13.5t8 -34.5q0 -16 -2.5 -24t-8 -16.5t-15 -17.5t-28.5 -28q-16 -16 -44 -35t-57.5 -37.5t-58.5 -40.5q-30 -16 -46 -32q-24 -21 -43 -33t-56 -12 q-13 0 -29.5 1t-24.5 12q-24 56 -49.5 88.5t-61.5 56.5t-87 48q-54 24 -129 64z" />
<glyph unicode="&#x10f;" horiz-adv-x="1597" d="M51 608q0 100 25.5 209.5t80.5 203.5t139.5 154t207.5 60q64 0 128.5 -18.5t132.5 -53.5t142 -82t157 -103q11 107 -8 221t-48.5 224t-60 208t-44 175.5t-3 128.5t64.5 64q72 -53 124.5 -151t90 -226.5t61.5 -274.5t40 -296.5t25.5 -292.5t20 -261t20 -203.5t28.5 -119.5 q0 -43 -31 -53.5t-63 -10.5q-27 0 -45.5 20t-29.5 47t-20 60.5t-20 61.5t-24.5 46.5t-34.5 18.5q-6 0 -15 -1t-9 -4q-51 -70 -119.5 -135.5t-150 -115t-171.5 -79t-181 -29.5q-102 0 -178.5 67t-128.5 161t-77.5 198.5t-25.5 181.5zM217 560q27 -96 48.5 -168.5t52 -118 t73.5 -68.5t113 -23q86 0 182.5 49.5t179.5 127.5t136.5 170.5t53.5 178.5v32v32q-142 139 -261.5 199.5t-213 61.5t-163.5 -41.5t-115.5 -112.5t-67 -155.5t-18.5 -163.5zM1370 1914v53v28t5 21.5t16 20.5l27 27q29 -16 52 -56.5t37.5 -92.5t22.5 -115t13.5 -123.5 t7 -111.5t1.5 -83q0 -37 -6 -62q-5 -24 -48 -24q-35 0 -57.5 40.5t-37.5 100.5t-21.5 132.5t-9 137t-2.5 107.5z" />
<glyph unicode="&#x110;" horiz-adv-x="2034" d="M54 1544v10q0 38 38.5 65t96.5 45.5t127.5 30.5t130 17.5t102 9.5t43.5 4q137 0 292.5 -31t307 -90t289.5 -146t243.5 -199.5t168.5 -252t63 -299.5q0 -148 -45.5 -266t-126 -206.5t-187.5 -148.5t-227.5 -88t-248 -28t-247.5 29q-24 8 -59 23t-68.5 33.5t-56.5 46.5 t-23 63q0 22 7 44.5t34 22.5q13 0 68 -14.5t119 -33.5t126 -35t86 -19h13q118 0 238.5 44.5t220 125t162.5 186t63 229.5q0 96 -37.5 188.5t-100.5 178t-147.5 158t-178.5 130t-190.5 98t-184.5 56.5q2 -172 27 -324q21 -134 42 -260q38 0 81 -3t80.5 -15t61.5 -37.5 t24 -73.5q0 -56 -51 -56q-62 0 -110 13q-27 8 -56 14q11 -75 19 -151q16 -134 0 -268v-33t-7 -34.5t-21.5 -28.5t-36.5 -11q-40 -21 -61.5 16.5t-32 114t-13.5 180.5q-2 102 -8 212l-21 -3q-49 -8 -93 -18.5t-92 -20t-126 -9.5q0 94 35 135.5t91 55t128 10.5q33 -3 67 0 l-8 80q-10 110 -34 201q-6 33 -14 83.5t-21.5 105.5t-31 102t-35.5 68q-193 0 -308.5 -12t-183.5 -28t-99 -33.5t-55 -27.5l-6 -3q-5 -3 -8 -3q-5 0 -5 3q-3 3 -5 3q-3 2 -6 8l-5 24q-5 11 -9 24t-4 19z" />
<glyph unicode="&#x111;" horiz-adv-x="1439" d="M51 608q0 100 25.5 209.5t80.5 203.5t139.5 154t207.5 60q64 0 128.5 -18.5t132.5 -53.5t142 -82t157 -103q11 107 -8 221t-48 221q-6 22 -11 38q-62 -8 -126 -16q-75 -11 -152.5 -21.5t-155.5 -10.5q0 64 29.5 103t77.5 61.5t110 30.5t126 8h48q-5 8 -8 16 q-29 100 -42.5 177.5t-3 128.5t64.5 64q69 -53 123 -150q54 -99 91 -222h22q37 0 81.5 -3t82 -15t63 -37.5t25.5 -73.5q0 -56 -54 -56q-59 0 -107 13q-35 11 -75 14q13 -59 24 -124q24 -147 40 -296t25.5 -291t20 -261t20 -203.5t28.5 -119.5q0 -43 -31 -53.5t-63 -10.5 q-27 0 -45.5 20t-29.5 47t-20 60.5t-20 61.5t-24.5 46.5t-34.5 18.5q-6 0 -15 -1t-9 -4q-51 -70 -119.5 -135.5t-150 -115t-171.5 -79t-181 -29.5q-102 0 -178.5 67t-128.5 161t-77.5 198.5t-25.5 181.5zM217 560q27 -96 48.5 -168.5t52 -118t73.5 -68.5t113 -23 q86 0 182.5 49.5t179.5 127.5t136.5 170.5t53.5 178.5v32v32q-142 139 -261.5 199.5t-213 61.5t-163.5 -41.5t-115.5 -112.5t-67 -155.5t-18.5 -163.5z" />
<glyph unicode="&#x112;" horiz-adv-x="1439" d="M51 391q0 102 14.5 204t14.5 206q0 43 -13 72.5t-13 64.5v16q5 5 18.5 25.5t18.5 25.5v592q0 43 9.5 64.5t45.5 29.5t102 5.5t179.5 -8t280.5 -8.5q171 -2 407 0q27 -10 53.5 -22t49.5 -31t36.5 -43t13.5 -59q0 -8 -9.5 -19t-14.5 -8l-129 51l-863 -24q-11 0 -19 3 q14 -27 14 -38v-485q13 -21 77.5 -20t152.5 9t187.5 25.5t185 32.5l142.5 25q59 11 64 6q8 0 31 1t49.5 2.5t48 3t29.5 1.5q0 -65 -71 -105t-178 -61.5t-232 -33.5t-233.5 -20t-183.5 -19q-77 -5 -83 -27q-16 -42 -22.5 -96t-8 -109t0 -109.5t1.5 -97.5v-38v-55v-53.5v-33.5 q10 -27 47.5 -40t80.5 -17t81 -2q43 3 59 3q91 0 182 9.5t181 18.5t179.5 18.5t180.5 9.5h16q6 -3 16.5 -5.5t22.5 -8t20 -10.5q11 -5 16 -5q6 -3 16 -11q11 -5 11 -11q0 -51 -56 -84.5t-142 -53.5t-188 -29.5t-195.5 -13.5t-160.5 -4h-86q-107 0 -189 19t-136.5 63 t-81.5 119q-27 81 -27 193zM340 1838q0 94 35 135.5t91 55t128.5 11t144.5 7.5q3 0 27 1.5t35 1.5q38 0 82 -2.5t80 -14.5t60.5 -37.5t24.5 -74.5q0 -56 -49 -56q-59 0 -109.5 15t-112.5 15q-78 0 -126 -9.5t-92.5 -19t-92.5 -19t-126 -9.5z" />
<glyph unicode="&#x113;" horiz-adv-x="1415" d="M51 718q0 140 41.5 267t120.5 223.5t193 154t264 57.5q88 -10 154 -47.5t107.5 -92.5t60.5 -128q16 -69 16 -150q0 -96 -56.5 -174t-142 -130t-185 -80t-184.5 -28h-66.5t-60 10.5t-42.5 32t-16 64.5q0 13 4 22.5t22.5 13.5t56.5 1q37 -5 102 -16q37 0 108 25.5t144.5 66 t127.5 92.5t54 103q0 54 -17.5 106t-52.5 92.5t-82 64.5t-106 18q-93 -8 -169.5 -50.5t-130 -111t-83 -151.5t-29.5 -174q0 -70 2.5 -139.5t20 -136.5t56.5 -129t112.5 -108.5t186 -77.5t278.5 -39l480 32q-43 -59 -108.5 -96.5t-139.5 -60.5t-146 -33.5t-137 -10.5 q-155 0 -291.5 51t-241 143.5t-165 225t-60.5 298.5zM338 1584q0 94 35 135.5t91 55t128.5 11t144.5 7.5q3 0 27 1.5t35 1.5q38 0 82 -2.5t80 -14.5t60.5 -37.5t24.5 -74.5q0 -56 -49 -56q-59 0 -109.5 15t-112.5 15q-78 0 -126 -9.5t-92.5 -19t-92.5 -19t-126 -9.5z" />
<glyph unicode="&#x114;" horiz-adv-x="1439" d="M51 391q0 102 14.5 204t14.5 206q0 43 -13 72.5t-13 64.5v16q5 5 18.5 25.5t18.5 25.5v592q0 43 9.5 64.5t45.5 29.5t102 5.5t179.5 -8t280.5 -8.5q171 -2 407 0q27 -10 53.5 -22t49.5 -31t36.5 -43t13.5 -59q0 -8 -9.5 -19t-14.5 -8l-129 51l-863 -24q-11 0 -19 3 q14 -27 14 -38v-485q13 -21 77.5 -20t152.5 9t187.5 25.5t185 32.5l142.5 25q59 11 64 6q8 0 31 1t49.5 2.5t48 3t29.5 1.5q0 -65 -71 -105t-178 -61.5t-232 -33.5t-233.5 -20t-183.5 -19q-77 -5 -83 -27q-16 -42 -22.5 -96t-8 -109t0 -109.5t1.5 -97.5v-38v-55v-53.5v-33.5 q10 -27 47.5 -40t80.5 -17t81 -2q43 3 59 3q91 0 182 9.5t181 18.5t179.5 18.5t180.5 9.5h16q6 -3 16.5 -5.5t22.5 -8t20 -10.5q11 -5 16 -5q6 -3 16 -11q11 -5 11 -11q0 -51 -56 -84.5t-142 -53.5t-188 -29.5t-195.5 -13.5t-160.5 -4h-86q-107 0 -189 19t-136.5 63 t-81.5 119q-27 81 -27 193zM437 2102v18q32 -2 49.5 -3.5t25.5 -5.5t8 -7q2 0 2 -5q0 -43 28.5 -67t71 -32t88.5 -3t78 25.5t42.5 52.5t-15.5 75l112 -8q8 -16 10.5 -16t2.5 -14q0 -53 -22.5 -97.5t-60 -74t-86 -45.5t-99.5 -16q-101 0 -168 60.5t-67 162.5z" />
<glyph unicode="&#x115;" horiz-adv-x="1415" d="M51 718q0 140 41.5 267t120.5 223.5t193 154t264 57.5q88 -10 154 -47.5t107.5 -92.5t60.5 -128q16 -69 16 -150q0 -96 -56.5 -174t-142 -130t-185 -80t-184.5 -28h-66.5t-60 10.5t-42.5 32t-16 64.5q0 13 4 22.5t22.5 13.5t56.5 1q37 -5 102 -16q37 0 108 25.5t144.5 66 t127.5 92.5t54 103q0 54 -17.5 106t-52.5 92.5t-82 64.5t-106 18q-93 -8 -169.5 -50.5t-130 -111t-83 -151.5t-29.5 -174q0 -70 2.5 -139.5t20 -136.5t56.5 -129t112.5 -108.5t186 -77.5t278.5 -39l480 32q-43 -59 -108.5 -96.5t-139.5 -60.5t-146 -33.5t-137 -10.5 q-155 0 -291.5 51t-241 143.5t-165 225t-60.5 298.5zM515 1815v18q32 -2 49.5 -3.5t25.5 -5.5t8 -7q2 0 2 -5q0 -43 28.5 -67t71 -32t88.5 -3t78 25.5t42.5 52.5t-15.5 75l112 -8q8 -16 10.5 -16t2.5 -14q0 -53 -22.5 -97.5t-60 -74t-86 -45.5t-99.5 -16q-101 0 -168 60.5 t-67 162.5z" />
<glyph unicode="&#x116;" horiz-adv-x="1439" d="M51 391q0 102 14.5 204t14.5 206q0 43 -13 72.5t-13 64.5v16q5 5 18.5 25.5t18.5 25.5v592q0 43 9.5 64.5t45.5 29.5t102 5.5t179.5 -8t280.5 -8.5q171 -2 407 0q27 -10 53.5 -22t49.5 -31t36.5 -43t13.5 -59q0 -8 -9.5 -19t-14.5 -8l-129 51l-863 -24q-11 0 -19 3 q14 -27 14 -38v-485q13 -21 77.5 -20t152.5 9t187.5 25.5t185 32.5l142.5 25q59 11 64 6q8 0 31 1t49.5 2.5t48 3t29.5 1.5q0 -65 -71 -105t-178 -61.5t-232 -33.5t-233.5 -20t-183.5 -19q-77 -5 -83 -27q-16 -42 -22.5 -96t-8 -109t0 -109.5t1.5 -97.5v-38v-55v-53.5v-33.5 q10 -27 47.5 -40t80.5 -17t81 -2q43 3 59 3q91 0 182 9.5t181 18.5t179.5 18.5t180.5 9.5h16q6 -3 16.5 -5.5t22.5 -8t20 -10.5q11 -5 16 -5q6 -3 16 -11q11 -5 11 -11q0 -51 -56 -84.5t-142 -53.5t-188 -29.5t-195.5 -13.5t-160.5 -4h-86q-107 0 -189 19t-136.5 63 t-81.5 119q-27 81 -27 193zM586 1960q-4 36 1 74q-3 32 25.5 39t60.5 0t54.5 -20.5t12.5 -18.5q21 -54 25 -90t-5.5 -59t-25.5 -36t-32 -21q-37 0 -61.5 18.5t-37.5 48t-17 65.5z" />
<glyph unicode="&#x117;" horiz-adv-x="1415" d="M51 718q0 140 41.5 267t120.5 223.5t193 154t264 57.5q88 -10 154 -47.5t107.5 -92.5t60.5 -128q16 -69 16 -150q0 -96 -56.5 -174t-142 -130t-185 -80t-184.5 -28h-66.5t-60 10.5t-42.5 32t-16 64.5q0 13 4 22.5t22.5 13.5t56.5 1q37 -5 102 -16q37 0 108 25.5t144.5 66 t127.5 92.5t54 103q0 54 -17.5 106t-52.5 92.5t-82 64.5t-106 18q-93 -8 -169.5 -50.5t-130 -111t-83 -151.5t-29.5 -174q0 -70 2.5 -139.5t20 -136.5t56.5 -129t112.5 -108.5t186 -77.5t278.5 -39l480 32q-43 -59 -108.5 -96.5t-139.5 -60.5t-146 -33.5t-137 -10.5 q-155 0 -291.5 51t-241 143.5t-165 225t-60.5 298.5zM514 1714q-4 36 1 74q-3 32 25.5 39t60.5 0t54.5 -20.5t12.5 -18.5q21 -54 25 -90t-5.5 -59t-25.5 -36t-32 -21q-37 0 -61.5 18.5t-37.5 48t-17 65.5z" />
<glyph unicode="&#x118;" horiz-adv-x="1439" d="M51 391q0 102 14.5 204t14.5 206q0 43 -13 72.5t-13 64.5v16q5 5 18.5 25.5t18.5 25.5v592q0 43 9.5 64.5t45.5 29.5t102 5.5t179.5 -8t280.5 -8.5q171 -2 407 0q27 -10 53.5 -22t49.5 -31t36.5 -43t13.5 -59q0 -8 -9.5 -19t-14.5 -8l-129 51l-863 -24q-11 0 -19 3 q14 -27 14 -38v-485q13 -21 77.5 -20t152.5 9t187.5 25.5t185 32.5l142.5 25q59 11 64 6q8 0 31 1t49.5 2.5t48 3t29.5 1.5q0 -65 -71 -105t-178 -61.5t-232 -33.5t-233.5 -20t-183.5 -19q-77 -5 -83 -27q-16 -42 -22.5 -96t-8 -109t0 -109.5t1.5 -97.5v-38v-53.5v-56.5v-32 q10 -27 47.5 -40t80.5 -17t81 -2q43 3 59 3q91 0 182 9.5t181 18.5t179.5 18.5t180.5 9.5h16q6 -3 16.5 -5.5t22.5 -8t20 -10.5q11 -5 16 -5q6 -3 16 -11q11 -5 11 -11q0 -51 -56 -84.5t-142 -54.5h-11v-3q-163 -59 -218 -123t-25.5 -115t134 -80.5t265.5 -18.5l-43 -92 q-140 -2 -247 8.5t-172.5 48t-80.5 107.5t33 190q11 22 27 38q-21 0 -45 -3q-91 -3 -161 -3h-86q-107 0 -189 19t-136.5 63t-81.5 119q-27 81 -27 193z" />
<glyph unicode="&#x119;" horiz-adv-x="1415" d="M51 718q0 140 41.5 267t120.5 223.5t193 154t264 57.5q88 -10 154 -47.5t107.5 -92.5t60.5 -128q16 -69 16 -150q0 -96 -56.5 -174t-142 -130t-185 -80t-184.5 -28h-66.5t-60 10.5t-42.5 32t-16 64.5q0 13 4 22.5t22.5 13.5t56.5 1q37 -5 102 -16q37 0 108 25.5t144.5 66 t127.5 92.5t54 103q0 54 -17.5 106t-52.5 92.5t-82 64.5t-106 18q-93 -8 -169.5 -50.5t-130 -111t-83 -151.5t-29.5 -174q0 -70 2.5 -139.5t20 -136.5t56.5 -129t112.5 -108.5t186 -77.5t278.5 -39l480 32q-43 -59 -108.5 -96.5t-140.5 -61.5q-46 -14 -91 -24 q-102 -46 -145 -94q-56 -64 -26.5 -115t134 -80.5t264.5 -18.5l-42 -92q-140 -2 -247 8.5t-173 48t-80.5 107.5t33.5 190q8 16 19 30q-115 10 -220 48q-136 51 -240.5 143.5t-165 225t-60.5 298.5z" />
<glyph unicode="&#x11a;" horiz-adv-x="1439" d="M51 391q0 102 14.5 204t14.5 206q0 43 -13 72.5t-13 64.5v16q5 5 18.5 25.5t18.5 25.5v592q0 43 9.5 64.5t45.5 29.5t102 5.5t179.5 -8t280.5 -8.5q171 -2 407 0q27 -10 53.5 -22t49.5 -31t36.5 -43t13.5 -59q0 -8 -9.5 -19t-14.5 -8l-129 51l-863 -24q-11 0 -19 3 q14 -27 14 -38v-485q13 -21 77.5 -20t152.5 9t187.5 25.5t185 32.5l142.5 25q59 11 64 6q8 0 31 1t49.5 2.5t48 3t29.5 1.5q0 -65 -71 -105t-178 -61.5t-232 -33.5t-233.5 -20t-183.5 -19q-77 -5 -83 -27q-16 -42 -22.5 -96t-8 -109t0 -109.5t1.5 -97.5v-38v-55v-53.5v-33.5 q10 -27 47.5 -40t80.5 -17t81 -2q43 3 59 3q91 0 182 9.5t181 18.5t179.5 18.5t180.5 9.5h16q6 -3 16.5 -5.5t22.5 -8t20 -10.5q11 -5 16 -5q6 -3 16 -11q11 -5 11 -11q0 -51 -56 -84.5t-142 -53.5t-188 -29.5t-195.5 -13.5t-160.5 -4h-86q-107 0 -189 19t-136.5 63 t-81.5 119q-27 81 -27 193zM348 2026q22 43 66 47t96.5 -14.5t108.5 -53.5t107 -72q51 18 91.5 42.5t75 48.5t69.5 40t72 16q38 0 46 -13.5t8 -34.5q0 -16 -2.5 -24t-8 -16.5t-15 -17.5t-28.5 -28q-16 -16 -44 -35t-57.5 -37.5t-58.5 -40.5q-30 -16 -46 -32q-24 -21 -43 -33 t-56 -12q-13 0 -29.5 1t-24.5 12q-24 56 -49.5 88.5t-61.5 56.5t-87 48q-54 24 -129 64z" />
<glyph unicode="&#x11b;" horiz-adv-x="1415" d="M51 718q0 140 41.5 267t120.5 223.5t193 154t264 57.5q88 -10 154 -47.5t107.5 -92.5t60.5 -128q16 -69 16 -150q0 -96 -56.5 -174t-142 -130t-185 -80t-184.5 -28h-66.5t-60 10.5t-42.5 32t-16 64.5q0 13 4 22.5t22.5 13.5t56.5 1q37 -5 102 -16q37 0 108 25.5t144.5 66 t127.5 92.5t54 103q0 54 -17.5 106t-52.5 92.5t-82 64.5t-106 18q-93 -8 -169.5 -50.5t-130 -111t-83 -151.5t-29.5 -174q0 -70 2.5 -139.5t20 -136.5t56.5 -129t112.5 -108.5t186 -77.5t278.5 -39l480 32q-43 -59 -108.5 -96.5t-139.5 -60.5t-146 -33.5t-137 -10.5 q-155 0 -291.5 51t-241 143.5t-165 225t-60.5 298.5zM337 1827q22 43 66 47t96.5 -14.5t108.5 -53.5t107 -72q51 18 91.5 42.5t75 48.5t69.5 40t72 16q38 0 46 -13.5t8 -34.5q0 -16 -2.5 -24t-8 -16.5t-15 -17.5t-28.5 -28q-16 -16 -44 -35t-57.5 -37.5t-58.5 -40.5 q-30 -16 -46 -32q-24 -21 -43 -33t-56 -12q-13 0 -29.5 1t-24.5 12q-24 56 -49.5 88.5t-61.5 56.5t-87 48q-54 24 -129 64z" />
<glyph unicode="&#x11c;" d="M88 536q0 118 51 228t137 207.5t197 179.5t231.5 142t241.5 96.5t225 46.5q54 6 103.5 -9t84.5 -41.5t56 -68t21 -95.5q-37 0 -72 9.5t-69.5 21.5t-72 20t-75.5 8q-96 0 -203.5 -28t-210.5 -81.5t-195.5 -127.5t-163.5 -162.5t-112.5 -190t-41.5 -209.5q0 -75 37.5 -134 t93.5 -97.5t123 -58.5t132 -20q118 0 242.5 6.5t226.5 40t166 106t64 203.5q0 16 -5 51q-3 35 -24 56h-491q-21 0 -38.5 11t-33.5 28t-24 37.5t-8 38.5q0 22 5 44.5t32 22.5t54 -9t53.5 -18.5t53.5 -19t56 -9.5q94 0 185 16t188 16q21 0 45.5 -12t43 -29.5t32 -41.5 t13.5 -45v-670q5 -6 18.5 -16.5t27 -22.5l27 -24t18.5 -18q5 -19 -4 -36t-25.5 -32t-36.5 -24.5t-36 -9.5q-56 0 -87 35t-47 83.5t-18.5 100.5t-2.5 90q-8 0 -33.5 1t-31.5 1q-75 0 -154 -17.5t-156.5 -36t-156.5 -36t-162 -17.5q-113 0 -204 39t-155.5 108.5t-99.5 164.5 t-35 208zM635 1699q75 70 128.5 112.5t90 85.5t62 99.5t46.5 152.5q5 22 22.5 23t33.5 1q38 0 56.5 -17.5t42.5 -57.5q16 -27 45.5 -60.5t60.5 -69.5t59 -69.5t44 -54.5q19 -30 28.5 -48.5t15 -33.5t8 -31t2.5 -43q0 -37 -8 -58.5t-46 -21.5q-40 0 -73.5 29.5t-68 69.5 t-76.5 84.5t-92 73.5q-51 -64 -109 -127t-110 -96.5t-96.5 -25.5t-65.5 83z" />
<glyph unicode="&#x11d;" horiz-adv-x="1005" d="M-359 -745q-11 37 1 66.5t33.5 48.5t47 24.5t43 -6.5t21.5 -44.5t-17 -88.5q0 -59 49.5 -115.5t128.5 -102t172.5 -83t182 -64t158.5 -40.5q64 -13 96 -13q67 0 114 35t80.5 91t53.5 127t31 142t13.5 138t2.5 113q0 21 -4 78.5t-12 133t-18.5 155.5t-24 150t-28.5 112.5 t-31 42.5q-26 0 -62.5 -16t-75.5 -34.5t-79 -34.5t-77 -16q-76 0 -148 32t-124.5 83t-84.5 120.5t-32 144.5q0 118 47 241.5t128.5 225t193 166t237.5 64.5q96 -27 156.5 -122t94 -234.5t48 -309.5t20 -347t9.5 -347t20 -310q0 -61 -6.5 -145.5t-23 -173t-44.5 -175.5 t-73.5 -155.5t-111 -110t-151.5 -41.5q-70 0 -167.5 16t-203.5 51t-210.5 86t-187.5 116.5t-134 147t-51 178.5zM134 1533q75 70 128.5 112.5t90 85.5t62 99.5t46.5 152.5q5 22 22.5 23t33.5 1q38 0 56.5 -17.5t42.5 -57.5q16 -27 45.5 -60.5t60.5 -69.5t59 -69.5t44 -54.5 q19 -30 28.5 -48.5t15 -33.5t8 -31t2.5 -43q0 -37 -8 -58.5t-46 -21.5q-40 0 -73.5 29.5t-68 69.5t-76.5 84.5t-92 73.5q-51 -64 -109 -127t-110 -96.5t-96.5 -25.5t-65.5 83zM204 480q0 -49 14.5 -93t42.5 -79t70 -55t92 -20q137 0 208 53.5t98 134t27 171.5q-3 94 -8 169 q0 38 -5.5 75.5t-21.5 69.5t-44 51t-71 19q-89 0 -164 -50t-127 -123.5t-81.5 -160.5t-29.5 -162z" />
<glyph unicode="&#x11e;" d="M88 536q0 118 51 228t137 207.5t197 179.5t231.5 142t241.5 96.5t225 46.5q54 6 103.5 -9t84.5 -41.5t56 -68t21 -95.5q-37 0 -72 9.5t-69.5 21.5t-72 20t-75.5 8q-96 0 -203.5 -28t-210.5 -81.5t-195.5 -127.5t-163.5 -162.5t-112.5 -190t-41.5 -209.5q0 -75 37.5 -134 t93.5 -97.5t123 -58.5t132 -20q118 0 242.5 6.5t226.5 40t166 106t64 203.5q0 16 -5 51q-3 35 -24 56h-491q-21 0 -38.5 11t-33.5 28t-24 37.5t-8 38.5q0 22 5 44.5t32 22.5t54 -9t53.5 -18.5t53.5 -19t56 -9.5q94 0 185 16t188 16q21 0 45.5 -12t43 -29.5t32 -41.5 t13.5 -45v-670q5 -6 18.5 -16.5t27 -22.5l27 -24t18.5 -18q5 -19 -4 -36t-25.5 -32t-36.5 -24.5t-36 -9.5q-56 0 -87 35t-47 83.5t-18.5 100.5t-2.5 90q-8 0 -33.5 1t-31.5 1q-75 0 -154 -17.5t-156.5 -36t-156.5 -36t-162 -17.5q-113 0 -204 39t-155.5 108.5t-99.5 164.5 t-35 208zM534 1740v18q32 -2 49.5 -3.5t25.5 -5.5t8 -7q2 0 2 -5q0 -43 28.5 -67t71 -32t88.5 -3t78 25.5t42.5 52.5t-15.5 75l112 -8q8 -16 10.5 -16t2.5 -14q0 -53 -22.5 -97.5t-60 -74t-86 -45.5t-99.5 -16q-101 0 -168 60.5t-67 162.5z" />
<glyph unicode="&#x11f;" horiz-adv-x="1005" d="M-359 -745q-11 37 1 66.5t33.5 48.5t47 24.5t43 -6.5t21.5 -44.5t-17 -88.5q0 -59 49.5 -115.5t128.5 -102t172.5 -83t182 -64t158.5 -40.5q64 -13 96 -13q67 0 114 35t80.5 91t53.5 127t31 142t13.5 138t2.5 113q0 21 -4 78.5t-12 133t-18.5 155.5t-24 150t-28.5 112.5 t-31 42.5q-26 0 -62.5 -16t-75.5 -34.5t-79 -34.5t-77 -16q-76 0 -148 32t-124.5 83t-84.5 120.5t-32 144.5q0 118 47 241.5t128.5 225t193 166t237.5 64.5q96 -27 156.5 -122t94 -234.5t48 -309.5t20 -347t9.5 -347t20 -310q0 -61 -6.5 -145.5t-23 -173t-44.5 -175.5 t-73.5 -155.5t-111 -110t-151.5 -41.5q-70 0 -167.5 16t-203.5 51t-210.5 86t-187.5 116.5t-134 147t-51 178.5zM204 480q0 -49 14.5 -93t42.5 -79t70 -55t92 -20q137 0 208 53.5t98 134t27 171.5q-3 94 -8 169q0 38 -5.5 75.5t-21.5 69.5t-44 51t-71 19q-89 0 -164 -50 t-127 -123.5t-81.5 -160.5t-29.5 -162zM244 1466v18q32 -2 49.5 -3.5t25.5 -5.5t8 -7q2 0 2 -5q0 -43 28.5 -67t71 -32t88.5 -3t78 25.5t42.5 52.5t-15.5 75l112 -8q8 -16 10.5 -16t2.5 -14q0 -53 -22.5 -97.5t-60 -74t-86 -45.5t-99.5 -16q-101 0 -168 60.5t-67 162.5z" />
<glyph unicode="&#x120;" d="M88 536q0 118 51 228t137 207.5t197 179.5t231.5 142t241.5 96.5t225 46.5q54 6 103.5 -9t84.5 -41.5t56 -68t21 -95.5q-37 0 -72 9.5t-69.5 21.5t-72 20t-75.5 8q-96 0 -203.5 -28t-210.5 -81.5t-195.5 -127.5t-163.5 -162.5t-112.5 -190t-41.5 -209.5q0 -75 37.5 -134 t93.5 -97.5t123 -58.5t132 -20q118 0 242.5 6.5t226.5 40t166 106t64 203.5q0 16 -5 51q-3 35 -24 56h-491q-21 0 -38.5 11t-33.5 28t-24 37.5t-8 38.5q0 22 5 44.5t32 22.5t54 -9t53.5 -18.5t53.5 -19t56 -9.5q94 0 185 16t188 16q21 0 45.5 -12t43 -29.5t32 -41.5 t13.5 -45v-670q5 -6 18.5 -16.5t27 -22.5l27 -24t18.5 -18q5 -19 -4 -36t-25.5 -32t-36.5 -24.5t-36 -9.5q-56 0 -87 35t-47 83.5t-18.5 100.5t-2.5 90q-8 0 -33.5 1t-31.5 1q-75 0 -154 -17.5t-156.5 -36t-156.5 -36t-162 -17.5q-113 0 -204 39t-155.5 108.5t-99.5 164.5 t-35 208zM867 1631q-4 36 1 74q-3 32 25.5 39t60.5 0t54.5 -20.5t12.5 -18.5q21 -54 25 -90t-5.5 -59t-25.5 -36t-32 -21q-37 0 -61.5 18.5t-37.5 48t-17 65.5z" />
<glyph unicode="&#x121;" horiz-adv-x="1005" d="M-359 -745q-11 37 1 66.5t33.5 48.5t47 24.5t43 -6.5t21.5 -44.5t-17 -88.5q0 -59 49.5 -115.5t128.5 -102t172.5 -83t182 -64t158.5 -40.5q64 -13 96 -13q67 0 114 35t80.5 91t53.5 127t31 142t13.5 138t2.5 113q0 21 -4 78.5t-12 133t-18.5 155.5t-24 150t-28.5 112.5 t-31 42.5q-26 0 -62.5 -16t-75.5 -34.5t-79 -34.5t-77 -16q-76 0 -148 32t-124.5 83t-84.5 120.5t-32 144.5q0 118 47 241.5t128.5 225t193 166t237.5 64.5q96 -27 156.5 -122t94 -234.5t48 -309.5t20 -347t9.5 -347t20 -310q0 -61 -6.5 -145.5t-23 -173t-44.5 -175.5 t-73.5 -155.5t-111 -110t-151.5 -41.5q-70 0 -167.5 16t-203.5 51t-210.5 86t-187.5 116.5t-134 147t-51 178.5zM204 480q0 -49 14.5 -93t42.5 -79t70 -55t92 -20q137 0 208 53.5t98 134t27 171.5q-3 94 -8 169q0 38 -5.5 75.5t-21.5 69.5t-44 51t-71 19q-89 0 -164 -50 t-127 -123.5t-81.5 -160.5t-29.5 -162zM401 1392q-4 36 1 74q-3 32 25.5 39t60.5 0t54.5 -20.5t12.5 -18.5q21 -54 25 -90t-5.5 -59t-25.5 -36t-32 -21q-37 0 -61.5 18.5t-37.5 48t-17 65.5z" />
<glyph unicode="&#x122;" d="M88 536q0 118 51 228t137 207.5t197 179.5t231.5 142t241.5 96.5t225 46.5q54 6 103.5 -9t84.5 -41.5t56 -68t21 -95.5q-37 0 -72 9.5t-69.5 21.5t-72 20t-75.5 8q-96 0 -203.5 -28t-210.5 -81.5t-195.5 -127.5t-163.5 -162.5t-112.5 -190t-41.5 -209.5q0 -75 37.5 -134 t93.5 -97.5t123 -58.5t132 -20q118 0 242.5 6.5t226.5 40t166 106t64 203.5q0 16 -5 51q-3 35 -24 56h-491q-21 0 -38.5 11t-33.5 28t-24 37.5t-8 38.5q0 22 5 44.5t32 22.5t54 -9t53.5 -18.5t53.5 -19t56 -9.5q94 0 185 16t188 16q21 0 45.5 -12t43 -29.5t32 -41.5 t13.5 -45v-670q5 -6 18.5 -16.5t27 -22.5l27 -24t18.5 -18q5 -19 -4 -36t-25.5 -32t-36.5 -24.5t-36 -9.5q-56 0 -87 35t-47 83.5t-18.5 100.5t-2.5 90q-8 0 -33.5 1t-31.5 1q-75 0 -154 -17.5t-156.5 -36t-156.5 -36t-162 -17.5q-113 0 -204 39t-155.5 108.5t-99.5 164.5 t-35 208zM665 -775q0 65 9.5 81t21.5 22.5t21.5 23t9.5 83.5v24q0 13 -1.5 30.5t-1.5 30.5v19q-38 -3 -46 12t-8 36q0 54 19 94t78 40q53 0 76 -36t32.5 -87t6.5 -103t-3 -85q0 -32 -8 -80t-28 -92.5t-51 -76.5t-74 -32q-18 0 -27.5 10.5t-16 24t-8 31t-1.5 30.5z" />
<glyph unicode="&#x123;" horiz-adv-x="1005" d="M-359 -745q-11 37 1 66.5t33.5 48.5t47 24.5t43 -6.5t21.5 -44.5t-17 -88.5q0 -59 49.5 -115.5t128.5 -102t172.5 -83t182 -64t158.5 -40.5q64 -13 96 -13q67 0 114 35t80.5 91t53.5 127t31 142t13.5 138t2.5 113q0 21 -4 78.5t-12 133t-18.5 155.5t-24 150t-28.5 112.5 t-31 42.5q-26 0 -62.5 -16t-75.5 -34.5t-79 -34.5t-77 -16q-76 0 -148 32t-124.5 83t-84.5 120.5t-32 144.5q0 118 47 241.5t128.5 225t193 166t237.5 64.5q96 -27 156.5 -122t94 -234.5t48 -309.5t20 -347t9.5 -347t20 -310q0 -61 -6.5 -145.5t-23 -173t-44.5 -175.5 t-73.5 -155.5t-111 -110t-151.5 -41.5q-70 0 -167.5 16t-203.5 51t-210.5 86t-187.5 116.5t-134 147t-51 178.5zM204 480q0 -49 14.5 -93t42.5 -79t70 -55t92 -20q137 0 208 53.5t98 134t27 171.5q-3 94 -8 169q0 38 -5.5 75.5t-21.5 69.5t-44 51t-71 19q-89 0 -164 -50 t-127 -123.5t-81.5 -160.5t-29.5 -162zM416 2268v53v28t5 21.5t16 20.5l27 27q29 -16 52 -56.5t37.5 -92.5t22.5 -115t13.5 -123.5t7 -111.5t1.5 -83q0 -37 -6 -62q-5 -24 -48 -24q-35 0 -57.5 40.5t-37.5 100.5t-21.5 132.5t-9 137t-2.5 107.5z" />
<glyph unicode="&#x124;" horiz-adv-x="1439" d="M43 630q0 35 17.5 45.5t39 20t38.5 24t17 55.5q0 107 -8 211.5t-18.5 211.5t-18.5 213t-8 210v27v39v37.5v22.5q8 22 22.5 27.5t30.5 5.5q14 0 33 -6q16 -5 16 -27l107 -897q0 -6 9.5 -27.5t14.5 -23.5h11h13q11 2 43 10t112.5 41.5t222.5 102t383 186.5l11 608 q0 16 10.5 36.5t27 36.5t32.5 25.5t32 9.5q24 0 38.5 -8.5t14.5 -45.5q0 -8 -10.5 -28t-13.5 -26q0 -10 -1 -37t-1 -58v-59v-39q0 -227 5 -455t21 -453q3 -27 9.5 -95.5t15 -146t16.5 -148.5t13 -101q0 -5 2.5 -15.5t8 -24t8 -24.5t5.5 -13v-16v-8q-5 -6 -16 -15.5 t-23 -17.5t-22.5 -14.5t-16.5 -6.5q-37 -8 -61 32t-37.5 95t-19.5 109q-5 53 -8 75q0 3 -1 40.5t-4 95t-7 130t-9 144.5t-12 136.5t-12 107.5l-139 -62q-25 -11 -71.5 -33.5t-108.5 -50.5t-129 -59t-127 -60.5t-109.5 -51t-71.5 -32.5l5 -536q0 -8 -18.5 -28t-29.5 -25 q-43 -11 -60 33.5t-24 115.5t-11 151t-18.5 147t-49.5 103.5t-99 14.5q-3 6 -7 19t-4 19zM338 2141q75 70 128.5 112.5t90 85.5t62 99.5t46.5 152.5q5 22 22.5 23t33.5 1q38 0 56.5 -17.5t42.5 -57.5q16 -27 45.5 -60.5t60.5 -69.5t59 -69.5t44 -54.5q19 -30 28.5 -48.5 t15 -33.5t8 -31t2.5 -43q0 -37 -8 -58.5t-46 -21.5q-40 0 -73.5 29.5t-68 69.5t-76.5 84.5t-92 73.5q-51 -64 -109 -127t-110 -96.5t-96.5 -25.5t-65.5 83z" />
<glyph unicode="&#x125;" horiz-adv-x="1173" d="M-38 1868v11q0 10 13.5 19.5t31 17.5t35 12t28.5 4q51 -134 81.5 -226.5t49.5 -159.5t27 -112.5t13.5 -88.5t8 -88.5t10.5 -109.5q139 86 253 94t202.5 -33.5t154 -127.5t108.5 -193t66 -227.5t29.5 -233t-5.5 -208t-36 -153t-64.5 -67t-88.5 49.5q5 70 10.5 145t9.5 150 t5.5 147.5t1.5 131.5q0 86 -24 163.5t-70 135t-114 91t-162 33.5q-38 0 -64.5 -5.5t-53.5 -17.5t-59 -30q-32 -22 -75 -51q0 -6 -1.5 -20.5t-1.5 -17.5q0 -59 12.5 -156.5t25.5 -203.5t26.5 -205t13.5 -161v-21.5t-1.5 -35t-1.5 -34.5v-24q-16 -38 -38.5 -47.5t-54.5 -9.5 q-33 -5 -49 46t-24 147.5t-14.5 233t-18.5 300t-35 347t-66 376.5q-21 75 -33 127.5t-23 94t-19 85.5t-19 106zM247 1721q75 70 128.5 112.5t90 85.5t62 99.5t46.5 152.5q5 22 22.5 23t33.5 1q38 0 56.5 -17.5t42.5 -57.5q16 -27 45.5 -60.5t60.5 -69.5t59 -69.5t44 -54.5 q19 -30 28.5 -48.5t15 -33.5t8 -31t2.5 -43q0 -37 -8 -58.5t-46 -21.5q-40 0 -73.5 29.5t-68 69.5t-76.5 84.5t-92 73.5q-51 -64 -109 -127t-110 -96.5t-96.5 -25.5t-65.5 83z" />
<glyph unicode="&#x127;" horiz-adv-x="1173" d="M-220 1321q0 94 35 135.5t91 53.5t132 12q-9 35 -17 59q-10 54 -21 95.5t-19 85.5t-19 106v11q0 10 13.5 19.5t31 17.5t35 12t28.5 4q51 -134 81.5 -226.5t49.5 -159.5q3 -8 5 -16q24 3 35 3q38 0 82 -2.5t81.5 -15t61.5 -37.5t24 -74q0 -59 -50 -59q-59 0 -108 16 q-43 14 -96 17l3 -33q5 -43 9 -88.5t12 -109.5q139 86 253 94t202.5 -33.5t154 -127.5t108.5 -193t66 -227.5t29.5 -233t-5.5 -208t-36 -153t-64.5 -67t-88.5 49.5q5 70 10.5 145t9.5 150t5.5 147.5t1.5 131.5q0 86 -24 163.5t-70 135t-114 91t-162 33.5q-38 0 -64.5 -5.5 t-53.5 -17.5t-59 -30q-32 -22 -75 -51q0 -6 -1.5 -20.5t-1.5 -17.5q0 -59 12.5 -156.5t25.5 -203.5t26.5 -205t13.5 -161v-22q0 -16 -1.5 -34.5t-1.5 -34.5v-24q-16 -38 -38.5 -47.5t-54.5 -9.5q-33 -5 -49 46t-24 147.5t-14.5 233t-18.5 300t-36 345.5q-19 140 -46 287 q-37 -8 -75 -16q-43 -11 -91 -19t-129 -8z" />
<glyph unicode="&#x128;" horiz-adv-x="460" d="M-221 1700.5q9 57.5 41.5 99t83.5 68.5q48 30 104 30q5 2 20 1t47 -12t84.5 -37.5t138.5 -77.5q50 -30 79.5 -32.5t72.5 13.5l27 8q16 5 16 11l164 128q32 -2 49.5 -13t24 -24.5t5 -26.5t-11.5 -21q-73 -59 -111.5 -96.5t-57.5 -56.5t-23 -25.5t-5.5 -9.5t-5.5 -4t-25 -7 q-70 -26 -125 -13t-104.5 45.5t-97.5 71t-105 65.5q-75 6 -111 -25t-49.5 -75.5t-12 -90t-4 -69.5t-24 -17.5t-72.5 71.5q-21 64 -12 121.5zM40 1501q32 43 64.5 16t64.5 -100.5t63 -187.5t56.5 -242.5t48 -265.5t38.5 -257.5t27 -214.5t11 -142v-32t-3 -31t-15 -27t-36 -17 q-16 -5 -32 9.5t-32 33.5t-25.5 36t-12.5 23q-13 99 -25 207.5t-23 218.5t-24 217q-13 113 -30 209q-8 40 -28 107t-38.5 143.5t-33.5 154t-15 142.5z" />
<glyph unicode="&#x129;" horiz-adv-x="479" d="M-135.5 1601.5q9.5 57.5 41.5 99t82 68.5t103 27q5 2 20 2t47 -10.5t86 -37.5q51 -27 137 -78q50 -29 81 -33t74 12l24 11q16 5 16 10l166 129q33 -3 50 -13.5t24 -25.5t4 -27t-11 -20q-72 -59 -111 -96.5t-57.5 -56t-22.5 -25.5t-5.5 -9.5t-5.5 -4t-25 -6.5 q-70 -27 -125 -13.5t-106 45.5t-99 72.5t-102 64.5q-75 5 -111 -26t-49.5 -75t-12 -89.5t-4 -69.5t-24.5 -17.5t-72 70.5q-22 65 -12.5 122.5zM169 927v40q0 30 1.5 62t1.5 59v43q-11 83 48 83q27 0 45.5 -13.5t34.5 -40.5q-8 -139 12 -269t45.5 -257t48.5 -256t23 -268 q0 -38 -23 -75.5t-68 -37.5q-35 0 -60.5 60.5t-44.5 153t-32 205t-20 215.5t-9.5 185t-2.5 111z" />
<glyph unicode="&#x12b;" horiz-adv-x="479" d="M-123 1442q0 94 34.5 135.5t91 55t128.5 13.5q73 -6 148 5q2 0 25 1.5t34 1.5q37 0 81.5 -1.5t82 -13.5t61.5 -39t24 -75q0 -56 -51 -56q-59 0 -108.5 16t-111.5 16q-77 0 -127 -9.5t-92.5 -20t-91 -20t-128.5 -9.5zM169 927v40q0 30 1.5 62t1.5 59v43q-11 83 48 83 q27 0 45.5 -13.5t34.5 -40.5q-8 -139 12 -269t45.5 -257t48.5 -256t23 -268q0 -38 -23 -75.5t-68 -37.5q-35 0 -60.5 60.5t-44.5 153t-32 205t-20 215.5t-9.5 185t-2.5 111z" />
<glyph unicode="&#x12c;" horiz-adv-x="460" d="M8 2051v18q32 -2 49.5 -3.5t25.5 -5.5t8 -7q2 0 2 -5q0 -43 28.5 -67t71 -32t88.5 -3t78 25.5t42.5 52.5t-15.5 75l112 -8q8 -16 10.5 -16t2.5 -14q0 -53 -22.5 -97.5t-60 -74t-86 -45.5t-99.5 -16q-101 0 -168 60.5t-67 162.5zM40 1501q32 43 64.5 16t64.5 -100.5 t63 -187.5t56.5 -242.5t48 -265.5t38.5 -257.5t27 -214.5t11 -142v-32t-3 -31t-15 -27t-36 -17q-16 -5 -32 9.5t-32 33.5t-25.5 36t-12.5 23q-13 99 -25 207.5t-23 218.5t-24 217q-13 113 -30 209q-8 40 -28 107t-38.5 143.5t-33.5 154t-15 142.5z" />
<glyph unicode="&#x12d;" horiz-adv-x="479" d="M-43 1613v22q32 -3 49.5 -5.5t25.5 -6.5t9.5 -7t1.5 -5q0 -43 29.5 -67t71 -32.5t87 -1.5t77.5 25.5t43 51t-16 75.5l110 -8q8 -17 12 -17t4 -13q0 -54 -24 -96.5t-60.5 -73.5t-84.5 -47t-99 -16q-102 0 -169 60.5t-67 161.5zM169 927v40q0 30 1.5 62t1.5 59v43 q-11 83 48 83q27 0 45.5 -13.5t34.5 -40.5q-8 -139 12 -269t45.5 -257t48.5 -256t23 -268q0 -38 -23 -75.5t-68 -37.5q-35 0 -60.5 60.5t-44.5 153t-32 205t-20 215.5t-9.5 185t-2.5 111z" />
<glyph unicode="&#x12e;" horiz-adv-x="460" d="M0 -225q-11 70 38 190q21 38 50.5 63.5t64.5 41.5t75 32q13 5 27 8q-11 94 -25 201q-10 107 -21 217t-24 217q-13 113 -30 209q-8 40 -28 107t-38.5 143.5t-33.5 154t-15 142.5q32 43 64.5 16t64.5 -100.5t63 -187.5t56.5 -242.5t48 -265.5t38.5 -257.5t27 -214.5 t11 -142v-32q0 -16 -3 -31t-15 -27t-36 -17q-16 -5 -32 11h-5q-108 -46 -150 -94q-57 -64 -28.5 -115t135.5 -81q102 -29 262 -18l-37 -92q-140 -2 -248.5 8.5t-174 48t-81.5 107.5z" />
<glyph unicode="&#x12f;" horiz-adv-x="479" d="M-37.5 -233q-16.5 70 34.5 190q22 38 51.5 62t64.5 40q37 16 75 32q32 11 67 27q-11 43 -22 94q-19 91 -32 203.5t-20 215.5t-9.5 183.5t-2.5 112.5v40q0 30 1.5 62t1.5 59v43q-11 83 48 83q27 0 45.5 -13.5t34.5 -40.5q-8 -139 12 -269t45.5 -257t48.5 -256t23 -268 q0 -38 -23 -75.5t-68 -37.5q-19 0 -35 16q-121 -53 -169 -104q-56 -64 -28 -115t134 -80.5t264 -19.5l-40 -91q-140 -2 -248.5 8.5t-172.5 48t-80.5 107.5zM32 1600q0 32 19 41.5t48 9.5q19 3 50 -22.5t51 -58t22 -58.5q3 -33 -40 -38h-13q-40 0 -67 5.5t-41.5 17.5 t-21.5 36t-7 67z" />
<glyph unicode="&#x130;" horiz-adv-x="460" d="M-22 1901q-4 36 1 74q-3 32 25.5 39t60.5 0t54.5 -20.5t12.5 -18.5q21 -54 25 -90t-5.5 -59t-25.5 -36t-32 -21q-37 0 -61.5 18.5t-37.5 48t-17 65.5zM40 1501q32 43 64.5 16t64.5 -100.5t63 -187.5t56.5 -242.5t48 -265.5t38.5 -257.5t27 -214.5t11 -142v-32t-3 -31 t-15 -27t-36 -17q-16 -5 -32 9.5t-32 33.5t-25.5 36t-12.5 23q-13 99 -25 207.5t-23 218.5t-24 217q-13 113 -30 209q-8 40 -28 107t-38.5 143.5t-33.5 154t-15 142.5z" />
<glyph unicode="&#x131;" horiz-adv-x="479" d="M169 927v40q0 30 1.5 62t1.5 59v43q-11 83 48 83q27 0 45.5 -13.5t34.5 -40.5q-8 -139 12 -269t45.5 -257t48.5 -256t23 -268q0 -38 -23 -75.5t-68 -37.5q-35 0 -60.5 60.5t-44.5 153t-32 205t-20 215.5t-9.5 185t-2.5 111z" />
<glyph unicode="&#x134;" horiz-adv-x="1206" d="M59 844q0 48 37 89q33 37 92 40q29 -16 21 -35q-11 -16 -21 -43v-13q0 -70 36 -151.5t93.5 -162t132.5 -157t153 -134t151.5 -91t132.5 -33.5q32 0 52 36t33.5 91t21.5 120.5t9.5 124.5t1.5 102v59v41.5t-1.5 54t-1.5 45.5v23l-142 1005q32 83 63 75t58 -76.5 t52.5 -182.5t46.5 -244t37.5 -262.5t25.5 -238.5t15 -170q2 -65 -3 -59q3 -43 1.5 -111.5t-9.5 -146t-25.5 -156.5t-49.5 -142t-81.5 -103.5t-119.5 -40.5q-110 22 -205 82t-177 139t-159.5 169t-149.5 181q-22 27 -43.5 54t-39 59t-28 72t-10.5 91zM528 2174 q75 70 128.5 112.5t90 85.5t62 99.5t46.5 152.5q5 22 22.5 23t33.5 1q38 0 56.5 -17.5t42.5 -57.5q16 -27 45.5 -60.5t60.5 -69.5t59 -69.5t44 -54.5q19 -30 28.5 -48.5t15 -33.5t8 -31t2.5 -43q0 -37 -8 -58.5t-46 -21.5q-40 0 -73.5 29.5t-68 69.5t-76.5 84.5t-92 73.5 q-51 -64 -109 -127t-110 -96.5t-96.5 -25.5t-65.5 83z" />
<glyph unicode="&#x135;" horiz-adv-x="549" d="M-301.5 -375q-1.5 16 1.5 32t13.5 29.5t34.5 18.5q35 -19 68.5 -76.5t71 -138t80.5 -168.5t99 -160.5t128.5 -121t163.5 -48.5q30 0 50 16t32 39t16 50t4 48q11 236 -18.5 470.5t-72.5 467.5t-89 464q-45 230 -64 461q5 18 5 31.5t7 23t20.5 15t45.5 5.5 q27 -19 57.5 -96.5t63 -198.5t64.5 -275t58.5 -323t45.5 -343t25.5 -337.5t0 -305.5t-32 -242.5t-71 -153t-115.5 -38.5q-128 35 -246 115.5t-212 190t-155.5 242.5t-77.5 272q0 19 -1.5 35zM-96 1533q75 70 128.5 112.5t88 85.5t60 99.5t49.5 152.5q6 22 22 23t32 1 q38 0 58 -17.5t44 -57.5q16 -27 45.5 -60.5t60.5 -69.5t59 -69.5t44 -54.5q19 -30 28 -48.5t14.5 -33.5t8.5 -31t3 -43q0 -37 -8.5 -58.5t-45.5 -21.5q-40 0 -73.5 29.5t-70 69.5t-76.5 84.5t-91 73.5q-51 -64 -108.5 -127t-111 -96.5t-96.5 -25.5t-64 83z" />
<glyph unicode="&#x136;" horiz-adv-x="1286" d="M51 1533q0 5 4 17t12 24.5t20 20.5t23 8q24 0 36 -16.5t19 -39t9.5 -45.5t7.5 -33q11 -43 16.5 -102t12 -127.5t13 -138t15.5 -136.5q34 37 81 99t103.5 134t119.5 147t127 134t128.5 95.5t128.5 33.5q19 -19 9.5 -44.5t-33.5 -57.5t-59 -67t-72 -75q-56 -67 -122 -136.5 t-130 -139.5t-121 -139q-56 -65 -91 -124q75 -104 170.5 -194t200 -170t216.5 -150q113 -72 220 -142q32 -11 56 -32.5t36 -47t11 -48t-18.5 -36t-52.5 -9.5t-91 31q-43 35 -110 79t-142 95t-155.5 104.5t-153 107t-128.5 104.5t-88 99q-11 -45 -7 -110.5t13.5 -135.5 t20 -137t10.5 -120.5t-13.5 -85.5t-50.5 -32q-38 0 -62 53.5t-37.5 136.5t-18.5 182t-5 187.5t1 155.5t1 89q-5 85 -17 179t-27 190.5t-25.5 190.5t-10.5 174zM523 -775q0 65 9.5 81t21.5 22.5t21.5 23t9.5 83.5v24q0 13 -1.5 30.5t-1.5 30.5v19q-38 -3 -46 12t-8 36 q0 54 19 94t78 40q53 0 76 -36t32.5 -87t6.5 -103t-3 -85q0 -32 -8 -80t-28 -92.5t-51 -76.5t-74 -32q-18 0 -27.5 10.5t-16 24t-8 31t-1.5 30.5z" />
<glyph unicode="&#x137;" horiz-adv-x="1106" d="M-5 1637q24 65 52 45t57.5 -95t59 -186.5t52.5 -226.5t41 -217q16 -102 27 -158q5 -6 20 -6h20q54 0 94 32.5t76.5 82t71 107t72 105.5t83 81.5t104.5 33.5q38 0 46 -22.5t5 -52.5q-37 -29 -85.5 -77.5t-103.5 -104.5t-109.5 -117.5t-96 -119.5t-70 -111.5t-28.5 -93.5 q0 -59 39 -107t99.5 -88.5t135.5 -68.5t150 -48t142 -31q64 -11 107 -11q24 -5 26.5 -26.5t2.5 -40.5q0 -40 -25.5 -58.5t-61.5 -27t-75 -8.5h-65q-59 0 -135.5 37.5t-147.5 82t-125 81.5q-53 38 -75 38q-43 0 -57.5 -41.5t-20 -90t-17.5 -90t-52 -41.5q-35 0 -64.5 19 t-29.5 62q0 5 2.5 28t8 49.5t8 49.5t2.5 28.5v28t1.5 52t1.5 61.5v48.5v43t-1.5 54.5t-1.5 48.5v22.5q-8 124 -30.5 262t-48 274.5t-48.5 268t-33 240.5zM432 -775q0 65 9.5 81t21.5 22.5t21.5 23t9.5 83.5v24q0 13 -1.5 30.5t-1.5 30.5v19q-38 -3 -46 12t-8 36q0 54 19 94 t78 40q53 0 76 -36t32.5 -87t6.5 -103t-3 -85q0 -32 -8 -80t-28 -92.5t-51 -76.5t-74 -32q-18 0 -27.5 10.5t-16 24t-8 31t-1.5 30.5z" />
<glyph unicode="&#x139;" horiz-adv-x="951" d="M51 434q5 94 12 213t17.5 238.5t24 230.5t32 194.5t40.5 128.5q27 46 53 30q38 -6 48.5 -59.5t6.5 -142t-20 -201t-30.5 -230.5t-25.5 -234.5t-5 -212.5q0 -27 9 -58t25.5 -57.5t40.5 -48.5q27 -21 56 -21l539 -49q24 -2 28 -26t4 -38q0 -48 -29.5 -64t-77.5 -27 q-11 0 -39 -1.5t-59 -2.5t-58 -1h-37q-124 0 -227 18.5t-175.5 68t-112.5 134t-40 218.5zM399 1648q0 57 43 107.5t103 96.5t125 86q59 40 102 72q56 -27 49.5 -64.5t-56.5 -88.5t-130 -118t-169 -155q-40 0 -53.5 13.5t-13.5 50.5z" />
<glyph unicode="&#x13a;" horiz-adv-x="329" d="M-46 1744q0 57 43 107.5t103 96.5t125 86q59 40 102 72q56 -27 49.5 -64.5t-56.5 -88.5t-130 -118t-169 -155q-40 0 -53.5 13.5t-13.5 50.5zM70 780q0 190 5 377.5t3 375.5q0 21 16 29t37 8q24 0 43 -17t32.5 -42.5t20 -51t6.5 -41.5q16 -384 21.5 -639.5t0 -412.5 t-17.5 -232t-30.5 -102t-44 -21.5t-52.5 10.5q-27 191 -33.5 380t-6.5 379z" />
<glyph unicode="&#x13b;" horiz-adv-x="951" d="M51 434q5 94 12 213t17.5 238.5t24 230.5t32 194.5t40.5 128.5q27 46 53 30q38 -6 48.5 -59.5t6.5 -142t-20 -201t-30.5 -230.5t-25.5 -234.5t-5 -212.5q0 -27 9 -58t25.5 -57.5t40.5 -48.5q27 -21 56 -21l539 -49q24 -2 28 -26t4 -38q0 -48 -29.5 -64t-77.5 -27 q-11 0 -39 -1.5t-59 -2.5t-58 -1h-37q-124 0 -227 18.5t-175.5 68t-112.5 134t-40 218.5zM357 -775q0 65 9.5 81t21.5 22.5t21.5 23t9.5 83.5v24q0 13 -1.5 30.5t-1.5 30.5v19q-38 -3 -46 12t-8 36q0 54 19 94t78 40q53 0 76 -36t32.5 -87t6.5 -103t-3 -85q0 -32 -8 -80 t-28 -92.5t-51 -76.5t-74 -32q-18 0 -27.5 10.5t-16 24t-8 31t-1.5 30.5z" />
<glyph unicode="&#x13c;" horiz-adv-x="329" d="M48 -775q0 65 9.5 81t21.5 22.5t21.5 23t9.5 83.5v24q0 13 -1.5 30.5t-1.5 30.5v19q-38 -3 -46 12t-8 36q0 54 19 94t78 40q53 0 76 -36t32.5 -87t6.5 -103t-3 -85q0 -32 -8 -80t-28 -92.5t-51 -76.5t-74 -32q-18 0 -27.5 10.5t-16 24t-8 31t-1.5 30.5zM70 780 q0 190 5 377.5t3 375.5q0 21 16 29t37 8q24 0 43 -17t32.5 -42.5t20 -51t6.5 -41.5q16 -384 21.5 -639.5t0 -412.5t-17.5 -232t-30.5 -102t-44 -21.5t-52.5 10.5q-27 191 -33.5 380t-6.5 379z" />
<glyph unicode="&#x13d;" horiz-adv-x="951" d="M51 434q5 94 12 213t17.5 238.5t24 230.5t32 194.5t40.5 128.5q27 46 53 30q38 -6 48.5 -59.5t6.5 -142t-20 -201t-30.5 -230.5t-25.5 -234.5t-5 -212.5q0 -27 9 -58t25.5 -57.5t40.5 -48.5q27 -21 56 -21l539 -49q24 -2 28 -26t4 -38q0 -48 -29.5 -64t-77.5 -27 q-11 0 -39 -1.5t-59 -2.5t-58 -1h-37q-124 0 -227 18.5t-175.5 68t-112.5 134t-40 218.5zM472 1809v53v28t5 21.5t16 20.5l27 27q29 -16 52 -56.5t37.5 -92.5t22.5 -115t13.5 -123.5t7 -111.5t1.5 -83q0 -37 -6 -62q-5 -24 -48 -24q-35 0 -57.5 40.5t-37.5 100.5 t-21.5 132.5t-9 137t-2.5 107.5z" />
<glyph unicode="&#x13e;" horiz-adv-x="611" d="M70 780q0 190 5 377.5t3 375.5q0 21 16 29t37 8q24 0 43 -17t32.5 -42.5t20 -51t6.5 -41.5q16 -384 21.5 -639.5t0 -412.5t-17.5 -232t-30.5 -102t-44 -21.5t-52.5 10.5q-27 191 -33.5 380t-6.5 379zM384 1855v53v28t5 21.5t16 20.5l27 27q29 -16 52 -56.5t37.5 -92.5 t22.5 -115t13.5 -123.5t7 -111.5t1.5 -83q0 -37 -6 -62q-5 -24 -48 -24q-35 0 -57.5 40.5t-37.5 100.5t-21.5 132.5t-9 137t-2.5 107.5z" />
<glyph unicode="&#x13f;" horiz-adv-x="951" d="M51 434q5 94 12 213t17.5 238.5t24 230.5t32 194.5t40.5 128.5q27 46 53 30q38 -6 48.5 -59.5t6.5 -142t-20 -201t-30.5 -230.5t-25.5 -234.5t-5 -212.5q0 -27 9 -58t25.5 -57.5t40.5 -48.5q27 -21 56 -21l539 -49q24 -2 28 -26t4 -38q0 -48 -29.5 -64t-77.5 -27 q-11 0 -39 -1.5t-59 -2.5t-58 -1h-37q-124 0 -227 18.5t-175.5 68t-112.5 134t-40 218.5zM308 638q0 13 16 40t37.5 55t44.5 47t39 19q51 0 88.5 -17.5t61.5 -43t36 -57.5t12 -59q0 -19 -16 -43t-43 -45.5t-60.5 -36.5t-65.5 -15q-37 0 -64 19t-47 43t-29.5 49.5t-9.5 44.5z " />
<glyph unicode="&#x140;" horiz-adv-x="913" d="M70 780q0 190 5 377.5t3 375.5q0 21 16 29t37 8q24 0 43 -17t32.5 -42.5t20 -51t6.5 -41.5q16 -384 21.5 -639.5t0 -412.5t-17.5 -232t-30.5 -102t-44 -21.5t-52.5 10.5q-27 191 -33.5 380t-6.5 379zM464 638q0 13 16 40t37.5 55t44.5 47t39 19q51 0 88.5 -17.5t61.5 -43 t36 -57.5t12 -59q0 -19 -16 -43t-43 -45.5t-60.5 -36.5t-65.5 -15q-37 0 -64 19t-47 43t-29.5 49.5t-9.5 44.5z" />
<glyph unicode="&#x141;" horiz-adv-x="951" d="M32 552l150 94q6 96 14 199.5t20 202.5t24 185t29.5 147.5t37.5 93.5t44 19q43 -6 52.5 -71.5t1.5 -174t-27 -241t-35 -264.5l134 83q0 -13 16 -38.5t31 -47t24 -39t-7 -17.5q-29 -21 -49 -41t-41.5 -39t-48.5 -40.5t-75 -47.5q-3 -27 -1.5 -54t4.5 -48q0 -27 8 -56.5 t25.5 -57.5t41.5 -47t53 -22l542 -50q21 -3 23.5 -26t2.5 -39q0 -45 -28 -62.5t-76 -28.5q-11 0 -37.5 -1.5t-59 -1.5t-59 -1t-37.5 -1q-121 0 -222.5 17.5t-174 64t-115.5 129.5q-45 81 -45 210q-25 -11 -51.5 -22t-53.5 -21z" />
<glyph unicode="&#x142;" horiz-adv-x="329" d="M-188 662l282 198q2 180 6.5 354t1.5 351q0 24 17.5 32t35.5 8q27 0 46 -17.5t32.5 -44t18.5 -52t5 -41.5q6 -134 8.5 -248t7.5 -216l132 94q0 -13 17.5 -45.5t34.5 -64.5t28 -56t0 -24q-59 -11 -110 -30q-48 -18 -96 -40q5 -217 2.5 -360.5t-10.5 -230.5t-21.5 -127 t-31 -52t-39 -7t-42.5 11q-24 166 -33.5 329.5t-9.5 326.5q-70 -48 -121 -88t-85.5 -55t-53.5 4q-16 19 -22 91z" />
<glyph unicode="&#x143;" horiz-adv-x="1672" d="M78 163q0 126 8 252t20 251t20 248q8 126 8 249q0 70 -14.5 134t-14.5 131v14q5 3 19.5 7t31 6.5t32.5 7.5q13 6 18 6h27q22 -97 58 -231t87 -273.5t120.5 -277.5t160.5 -246.5t204 -174t252 -62.5q83 0 146 28t103 77.5t60.5 116.5t20.5 148q0 104 -42 194t-90 173 t-89.5 166t-41.5 179q0 38 8 59.5t45 21.5q43 0 87.5 -48.5t84.5 -123.5t75 -167.5t61.5 -183.5t41.5 -168.5t15 -123.5q0 -115 -37.5 -210t-106 -166t-163.5 -110t-210 -39q-126 0 -226.5 48t-179.5 124.5t-139.5 162.5t-103.5 162t-73.5 124.5t-49.5 48.5q-35 0 -51 -24 t-23 -56.5t-7 -68.5v-55q0 -86 16.5 -159.5t16.5 -156.5q0 -19 -4 -48.5t-13.5 -59t-28.5 -51t-48 -21.5q-27 0 -44.5 20.5t-28 45.5t-14.5 53.5t-4 46.5zM571 1557q0 57 43 107.5t103 96.5t125 86q59 40 102 72q56 -27 49.5 -64.5t-56.5 -88.5t-130 -118t-169 -155 q-40 0 -53.5 13.5t-13.5 50.5z" />
<glyph unicode="&#x144;" horiz-adv-x="1262" d="M78 883v162q0 24 17.5 31t38.5 7q16 0 22.5 -8t9.5 -19t8.5 -20.5t18.5 -9.5q37 0 91 29.5t117 64.5t134 64.5t140 29.5q91 0 167.5 -47t137 -124.5t103.5 -174t72.5 -197t42.5 -195.5t13 -165q0 -24 -4 -72.5t-13 -96.5t-30.5 -84.5t-53.5 -36.5q-6 0 -19.5 1.5 t-26.5 5.5t-22.5 9.5t-9.5 16.5q24 206 0 387t-78 317.5t-131.5 217t-165.5 80.5q-83 0 -155.5 -27t-126 -78t-84.5 -123t-31 -158t16 -170.5t36 -168.5t36 -170t16 -172q-75 0 -125.5 62t-81.5 158.5t-48.5 217t-24 237t-6.5 219.5zM335 1490q0 57 43 107.5t103 96.5 t125 86q59 40 102 72q56 -27 49.5 -64.5t-56.5 -88.5t-130 -118t-169 -155q-40 0 -53.5 13.5t-13.5 50.5z" />
<glyph unicode="&#x145;" horiz-adv-x="1672" d="M78 163q0 126 8 252t20 251t20 248q8 126 8 249q0 70 -14.5 134t-14.5 131v14q5 3 19.5 7t31 6.5t32.5 7.5q13 6 18 6h27q22 -97 58 -231t87 -273.5t120.5 -277.5t160.5 -246.5t204 -174t252 -62.5q83 0 146 28t103 77.5t60.5 116.5t20.5 148q0 104 -42 194t-90 173 t-89.5 166t-41.5 179q0 38 8 59.5t45 21.5q43 0 87.5 -48.5t84.5 -123.5t75 -167.5t61.5 -183.5t41.5 -168.5t15 -123.5q0 -115 -37.5 -210t-106 -166t-163.5 -110t-210 -39q-126 0 -226.5 48t-179.5 124.5t-139.5 162.5t-103.5 162t-73.5 124.5t-49.5 48.5q-35 0 -51 -24 t-23 -56.5t-7 -68.5v-55q0 -86 16.5 -159.5t16.5 -156.5q0 -19 -4 -48.5t-13.5 -59t-28.5 -51t-48 -21.5q-27 0 -44.5 20.5t-28 45.5t-14.5 53.5t-4 46.5zM718 -775q0 65 9.5 81t21.5 22.5t21.5 23t9.5 83.5v24q0 13 -1.5 30.5t-1.5 30.5v19q-38 -3 -46 12t-8 36q0 54 19 94 t78 40q53 0 76 -36t32.5 -87t6.5 -103t-3 -85q0 -32 -8 -80t-28 -92.5t-51 -76.5t-74 -32q-18 0 -27.5 10.5t-16 24t-8 31t-1.5 30.5z" />
<glyph unicode="&#x146;" horiz-adv-x="1262" d="M78 883v162q0 24 17.5 31t38.5 7q16 0 22.5 -8t9.5 -19t8.5 -20.5t18.5 -9.5q37 0 91 29.5t117 64.5t134 64.5t140 29.5q91 0 167.5 -47t137 -124.5t103.5 -174t72.5 -197t42.5 -195.5t13 -165q0 -24 -4 -72.5t-13 -96.5t-30.5 -84.5t-53.5 -36.5q-6 0 -19.5 1.5 t-26.5 5.5t-22.5 9.5t-9.5 16.5q24 206 0 387t-78 317.5t-131.5 217t-165.5 80.5q-83 0 -155.5 -27t-126 -78t-84.5 -123t-31 -158t16 -170.5t36 -168.5t36 -170t16 -172q-75 0 -125.5 62t-81.5 158.5t-48.5 217t-24 237t-6.5 219.5zM509 -775q0 65 9.5 81t21.5 22.5 t21.5 23t9.5 83.5v24q0 13 -1.5 30.5t-1.5 30.5v19q-38 -3 -46 12t-8 36q0 54 19 94t78 40q53 0 76 -36t32.5 -87t6.5 -103t-3 -85q0 -32 -8 -80t-28 -92.5t-51 -76.5t-74 -32q-18 0 -27.5 10.5t-16 24t-8 31t-1.5 30.5z" />
<glyph unicode="&#x147;" horiz-adv-x="1672" d="M78 163q0 126 8 252t20 251t20 248q8 126 8 249q0 70 -14.5 134t-14.5 131v14q5 3 19.5 7t31 6.5t32.5 7.5q13 6 18 6h27q22 -97 58 -231t87 -273.5t120.5 -277.5t160.5 -246.5t204 -174t252 -62.5q83 0 146 28t103 77.5t60.5 116.5t20.5 148q0 104 -42 194t-90 173 t-89.5 166t-41.5 179q0 38 8 59.5t45 21.5q43 0 87.5 -48.5t84.5 -123.5t75 -167.5t61.5 -183.5t41.5 -168.5t15 -123.5q0 -115 -37.5 -210t-106 -166t-163.5 -110t-210 -39q-126 0 -226.5 48t-179.5 124.5t-139.5 162.5t-103.5 162t-73.5 124.5t-49.5 48.5q-35 0 -51 -24 t-23 -56.5t-7 -68.5v-55q0 -86 16.5 -159.5t16.5 -156.5q0 -19 -4 -48.5t-13.5 -59t-28.5 -51t-48 -21.5q-27 0 -44.5 20.5t-28 45.5t-14.5 53.5t-4 46.5zM466 2026q22 43 66 47t96.5 -14.5t108.5 -53.5t107 -72q51 18 91.5 42.5t75 48.5t69.5 40t72 16q38 0 46 -13.5 t8 -34.5q0 -16 -2.5 -24t-8 -16.5t-15 -17.5t-28.5 -28q-16 -16 -44 -35t-57.5 -37.5t-58.5 -40.5q-30 -16 -46 -32q-24 -21 -43 -33t-56 -12q-13 0 -29.5 1t-24.5 12q-24 56 -49.5 88.5t-61.5 56.5t-87 48q-54 24 -129 64z" />
<glyph unicode="&#x148;" horiz-adv-x="1262" d="M78 883v162q0 24 17.5 31t38.5 7q16 0 22.5 -8t9.5 -19t8.5 -20.5t18.5 -9.5q37 0 91 29.5t117 64.5t134 64.5t140 29.5q91 0 167.5 -47t137 -124.5t103.5 -174t72.5 -197t42.5 -195.5t13 -165q0 -24 -4 -72.5t-13 -96.5t-30.5 -84.5t-53.5 -36.5q-6 0 -19.5 1.5 t-26.5 5.5t-22.5 9.5t-9.5 16.5q24 206 0 387t-78 317.5t-131.5 217t-165.5 80.5q-83 0 -155.5 -27t-126 -78t-84.5 -123t-31 -158t16 -170.5t36 -168.5t36 -170t16 -172q-75 0 -125.5 62t-81.5 158.5t-48.5 217t-24 237t-6.5 219.5zM260 1613q22 43 66 47t96.5 -14.5 t108.5 -53.5t107 -72q51 18 91.5 42.5t75 48.5t69.5 40t72 16q38 0 46 -13.5t8 -34.5q0 -16 -2.5 -24t-8 -16.5t-15 -17.5t-28.5 -28q-16 -16 -44 -35t-57.5 -37.5t-58.5 -40.5q-30 -16 -46 -32q-24 -21 -43 -33t-56 -12q-13 0 -29.5 1t-24.5 12q-24 56 -49.5 88.5 t-61.5 56.5t-87 48q-54 24 -129 64z" />
<glyph unicode="&#x149;" horiz-adv-x="1262" d="M78 883v162q0 24 17.5 31t38.5 7q16 0 22.5 -8t9.5 -19t8.5 -20.5t18.5 -9.5q37 0 91 29.5t117 64.5t134 64.5t140 29.5q91 0 167.5 -47t137 -124.5t103.5 -174t72.5 -197t42.5 -195.5t13 -165q0 -24 -4 -72.5t-13 -96.5t-30.5 -84.5t-53.5 -36.5q-6 0 -19.5 1.5 t-26.5 5.5t-22.5 9.5t-9.5 16.5q24 206 0 387t-78 317.5t-131.5 217t-165.5 80.5q-83 0 -155.5 -27t-126 -78t-84.5 -123t-31 -158t16 -170.5t36 -168.5t36 -170t16 -172q-75 0 -125.5 62t-81.5 158.5t-48.5 217t-24 237t-6.5 219.5zM225 1342q0 65 9.5 81t21.5 22.5 t21.5 23t9.5 83.5v24q0 13 -1.5 30.5t-1.5 30.5v19q-38 -3 -46 12t-8 36q0 54 19 94t78 40q53 0 76 -36t32.5 -87t6.5 -103t-3 -85q0 -32 -8 -80t-28 -92.5t-51 -76.5t-74 -32q-18 0 -27.5 10.5t-16 24t-8 31t-1.5 30.5z" />
<glyph unicode="&#x14c;" horiz-adv-x="1672" d="M51 748q-5 118 31 219.5t103 180.5t163 128q97 43 212 53q201 -29 384.5 -101.5t324.5 -185t229.5 -262.5t98.5 -338q-27 -139 -110 -219.5t-195.5 -124.5t-240.5 -66q-129 -19 -236 -35q-166 0 -307 55t-241.5 151.5t-158 236t-57.5 308.5zM177 761q-3 -123 52 -230.5 t143.5 -187.5t198.5 -134t220 -70q37 0 98.5 7t134 21.5t146.5 40t134 62t99 86t39 113.5q-19 134 -82 238.5t-154 185t-198.5 136.5t-212 89.5t-195.5 44.5t-150 0q-83 -29 -135 -77.5t-83 -103.5t-43 -111t-12 -110zM482 1683q0 94 35 135.5t91 55t128.5 11t144.5 7.5 q3 0 27 1.5t35 1.5q38 0 82 -2.5t80 -14.5t60.5 -37.5t24.5 -74.5q0 -56 -49 -56q-59 0 -109.5 15t-112.5 15q-78 0 -126 -9.5t-92.5 -19t-92.5 -19t-126 -9.5z" />
<glyph unicode="&#x14d;" horiz-adv-x="1337" d="M51 547q0 147 64.5 257t169 185t234.5 111t261 36q70 0 130 -25.5t115 -69.5t98 -101.5t73.5 -119.5t47 -125t16.5 -121q0 -137 -54 -244.5t-145 -181t-206 -112.5t-236 -39q-123 0 -226.5 39t-179.5 108.5t-119 173t-43 229.5zM182 568q0 -83 31 -159.5t86 -132.5 t130 -89.5t161 -33.5q45 -6 110.5 14.5t131.5 59t126 93.5t100.5 121t50 137t-24 142t-122 136.5t-244.5 121.5q-88 0 -183 -25.5t-173 -76.5t-129 -128.5t-51 -179.5zM313 1270q0 94 35 135.5t91 55t128.5 11t144.5 7.5q3 0 27 1.5t35 1.5q38 0 82 -2.5t80 -14.5 t60.5 -37.5t24.5 -74.5q0 -56 -49 -56q-59 0 -109.5 15t-112.5 15q-78 0 -126 -9.5t-92.5 -19t-92.5 -19t-126 -9.5z" />
<glyph unicode="&#x14e;" horiz-adv-x="1672" d="M51 748q-5 118 31 219.5t103 180.5t163 128q97 43 212 53q201 -29 384.5 -101.5t324.5 -185t229.5 -262.5t98.5 -338q-27 -139 -110 -219.5t-195.5 -124.5t-240.5 -66q-129 -19 -236 -35q-166 0 -307 55t-241.5 151.5t-158 236t-57.5 308.5zM177 761q-3 -123 52 -230.5 t143.5 -187.5t198.5 -134t220 -70q37 0 98.5 7t134 21.5t146.5 40t134 62t99 86t39 113.5q-19 134 -82 238.5t-154 185t-198.5 136.5t-212 89.5t-195.5 44.5t-150 0q-83 -29 -135 -77.5t-83 -103.5t-43 -111t-12 -110zM585 1740v18q32 -2 49.5 -3.5t25.5 -5.5t8 -7q2 0 2 -5 q0 -43 28.5 -67t71 -32t88.5 -3t78 25.5t42.5 52.5t-15.5 75l112 -8q8 -16 10.5 -16t2.5 -14q0 -53 -22.5 -97.5t-60 -74t-86 -45.5t-99.5 -16q-101 0 -168 60.5t-67 162.5z" />
<glyph unicode="&#x14f;" horiz-adv-x="1337" d="M51 547q0 147 64.5 257t169 185t234.5 111t261 36q70 0 130 -25.5t115 -69.5t98 -101.5t73.5 -119.5t47 -125t16.5 -121q0 -137 -54 -244.5t-145 -181t-206 -112.5t-236 -39q-123 0 -226.5 39t-179.5 108.5t-119 173t-43 229.5zM182 568q0 -83 31 -159.5t86 -132.5 t130 -89.5t161 -33.5q45 -6 110.5 14.5t131.5 59t126 93.5t100.5 121t50 137t-24 142t-122 136.5t-244.5 121.5q-88 0 -183 -25.5t-173 -76.5t-129 -128.5t-51 -179.5zM327 1574v18q32 -2 49.5 -3.5t25.5 -5.5t8 -7q2 0 2 -5q0 -43 28.5 -67t71 -32t88.5 -3t78 25.5 t42.5 52.5t-15.5 75l112 -8q8 -16 10.5 -16t2.5 -14q0 -53 -22.5 -97.5t-60 -74t-86 -45.5t-99.5 -16q-101 0 -168 60.5t-67 162.5z" />
<glyph unicode="&#x150;" horiz-adv-x="1672" d="M51 748q-5 118 31 219.5t103 180.5t163 128q97 43 212 53q201 -29 384.5 -101.5t324.5 -185t229.5 -262.5t98.5 -338q-27 -139 -110 -219.5t-195.5 -124.5t-240.5 -66q-129 -19 -236 -35q-166 0 -307 55t-241.5 151.5t-158 236t-57.5 308.5zM177 761q-3 -123 52 -230.5 t143.5 -187.5t198.5 -134t220 -70q37 0 98.5 7t134 21.5t146.5 40t134 62t99 86t39 113.5q-19 134 -82 238.5t-154 185t-198.5 136.5t-212 89.5t-195.5 44.5t-150 0q-83 -29 -135 -77.5t-83 -103.5t-43 -111t-12 -110zM479 1681q0 56 24.5 95t60.5 68.5t79 55.5q45 30 88 62 q59 -27 70 -52.5t-17.5 -61.5t-88.5 -89.5t-149 -144.5q-40 0 -53.5 13t-13.5 54zM785 1640q0 57 24 94.5t61.5 68t82 57.5t84.5 59q59 -27 71 -52.5t-16 -60t-90 -89.5t-150 -141q-38 0 -52.5 13.5t-14.5 50.5z" />
<glyph unicode="&#x151;" horiz-adv-x="1337" d="M51 547q0 147 64.5 257t169 185t234.5 111t261 36q70 0 130 -25.5t115 -69.5t98 -101.5t73.5 -119.5t47 -125t16.5 -121q0 -137 -54 -244.5t-145 -181t-206 -112.5t-236 -39q-123 0 -226.5 39t-179.5 108.5t-119 173t-43 229.5zM182 568q0 -83 31 -159.5t86 -132.5 t130 -89.5t161 -33.5q45 -6 110.5 14.5t131.5 59t126 93.5t100.5 121t50 137t-24 142t-122 136.5t-244.5 121.5q-88 0 -183 -25.5t-173 -76.5t-129 -128.5t-51 -179.5zM313 1268q0 56 24.5 95t60.5 68.5t79 55.5q45 30 88 62q59 -27 70 -52.5t-17.5 -61.5t-88.5 -89.5 t-149 -144.5q-40 0 -53.5 13t-13.5 54zM619 1227q0 57 24 94.5t61.5 68t82 57.5t84.5 59q59 -27 71 -52.5t-16 -60t-90 -89.5t-150 -141q-38 0 -52.5 13.5t-14.5 50.5z" />
</font>
</defs>
</svg>
