<?xml version="1.0" standalone="no"?>
<!DOCTYPE svg PUBLIC "-//W3C//DTD SVG 1.1//EN" "http://www.w3.org/Graphics/SVG/1.1/DTD/svg11.dtd" >
<svg xmlns="http://www.w3.org/2000/svg">
<metadata>
This is a custom SVG webfont generated by Font Squirrel.
Copyright   : Copyright Copr1995 JeanFranois Porchez Agfa Division of Miles Inc All rights reserved Apolline is a trademark of Agfa Division of miles Inc
Foundry     : Copr JeanFranois Porchez Agfa Division of Miles Inc
</metadata>
<defs>
<font id="ApollineRegular" horiz-adv-x="1024" >
<font-face units-per-em="2048" ascent="1638" descent="-410" />
<missing-glyph horiz-adv-x="512" />
<glyph unicode=" "  horiz-adv-x="512" />
<glyph unicode="&#x09;" horiz-adv-x="512" />
<glyph unicode="&#xa0;" horiz-adv-x="512" />
<glyph unicode="!" horiz-adv-x="512" d="M133 1460l246 29h2q-10 -127 -21.5 -270.5t-21.5 -291t-18.5 -290.5t-12.5 -272l-92 -9q-8 127 -15 268.5t-16.5 286t-21 284.5t-29.5 265zM160 88q0 33 3 54.5t12 33.5t27.5 18.5t51.5 8.5q33 4 53.5 4t32.5 -9.5t17 -30t5 -58.5q0 -70 -26.5 -94.5t-97.5 -24.5 q-59 0 -69.5 23.5t-8.5 74.5z" />
<glyph unicode="&#x22;" d="M242 1378q0 31 2 49.5t10 28.5t26.5 14.5t49.5 4.5t49 -3.5t27.5 -13.5t11.5 -28.5t2 -51.5q0 -45 -6 -110.5t-15.5 -132t-16.5 -122t-11 -83.5h-82q-2 20 -10.5 76.5t-16.5 125t-14 136t-6 110.5zM600 1376q0 31 2 49.5t11.5 29.5t26.5 14.5t50 3.5q31 0 49.5 -3.5 t27.5 -12.5t12 -28.5t3 -52.5l-2 2q0 -45 -6 -110.5t-15 -132t-16.5 -123t-11.5 -84.5h-78q-4 29 -12 85t-17.5 121.5t-16.5 131t-7 110.5z" />
<glyph unicode="#" d="M-6 428l31 121h206l41 274h-223l31 121h213l69 426l103 -14l-66 -412h295l70 426l102 -14l-65 -412h229l-31 -121h-219l-41 -274h240l-31 -121h-229l-66 -428l-102 14l61 414h-295l-65 -428l-102 14l61 414h-217zM338 549h295l41 274h-295z" />
<glyph unicode="$" horiz-adv-x="761" d="M66 698q0 104 72.5 180t189.5 103v141l82 17v-150h20q49 0 88 -5t86 -15q4 0 6 -2h6l13 -6l10 -23v-168h-64v49q0 23 -11 36t-27 24q-25 16 -59 22t-68 10l-2 -336q12 -4 32.5 -13t30.5 -13q45 -20 86 -44t73 -55.5t50 -72.5t18 -96q0 -61 -22.5 -111.5t-62.5 -87.5 t-92 -61.5t-111 -34.5l2 -133l-86 -19l2 143h-11q-55 0 -109 6.5t-110 16.5l-16 16l-10 207l63 2l2 -39q2 -33 15.5 -55t35.5 -39q27 -20 65 -29.5t75 -9.5l-2 363q-10 4 -24.5 12t-22.5 12q-43 20 -82 43t-69 53.5t-46 70.5t-16 91zM197 766q0 -59 38.5 -91t92.5 -61 l-2 289q-55 -14 -93 -47t-36 -90zM410 61q70 16 111.5 52.5t41.5 101.5q0 35 -13 59.5t-36 42.5q-23 20 -50.5 35t-53.5 29v-320z" />
<glyph unicode="%" horiz-adv-x="1843" d="M86 942q0 96 24.5 180t69.5 145.5t107.5 97.5t138.5 36q74 0 132 -33t100 -92t63.5 -142t21.5 -182l-2 2q0 -98 -25.5 -183t-69.5 -149.5t-106.5 -101.5t-136.5 -37t-133 34t-100 94.5t-62.5 144.5t-21.5 186zM240 975q0 -199 50 -306.5t126 -109.5q76 0 122 88t46 260h2 q0 203 -50.5 311.5t-127.5 108.5q-76 0 -122 -89t-46 -263zM477 16q207 348 398.5 698.5t384.5 706.5l102 -57h2q-201 -350 -397.5 -698.5t-386.5 -704.5zM1102 434q0 96 24.5 180t69.5 145.5t107.5 97.5t138.5 36q74 0 132 -33t100 -92t63.5 -141t21.5 -181 q0 -98 -25.5 -183t-70.5 -149.5t-107.5 -101.5t-136.5 -37t-133 34t-100 94.5t-62.5 144.5t-21.5 186zM1257 467q0 -199 50.5 -306.5t128.5 -107.5q76 0 122 88t46 258q0 203 -50.5 311.5t-128.5 108.5q-76 0 -122 -89t-46 -263z" />
<glyph unicode="&#x26;" horiz-adv-x="1030" d="M41 266q0 98 62.5 166t154.5 113q-23 41 -38 83t-17 93q0 59 22.5 108.5t64.5 85t99 56t125 20.5q98 0 160.5 -47t62.5 -125q0 -66 -40 -107.5t-89 -74.5h187h75q31 2 56.5 4t66.5 6l-37 -98q-27 4 -43 6t-39 4t-51 3t-61 1q66 -23 112 -63.5t46 -120.5q0 -61 -27 -108.5 t-74 -96.5l-12 -12q33 -29 55.5 -47.5t42.5 -30.5q53 -35 86 -35h29v-29l-12 -20l-242 -10l-14 4q-20 18 -37 35l-35 34q-20 -10 -39.5 -20t-40.5 -20q-102 -45 -219 -46q-74 0 -135.5 21.5t-107.5 60.5t-71.5 92.5t-25.5 114.5zM195 334q0 -57 20.5 -106.5t57 -85.5 t86 -57.5t106.5 -21.5q47 0 83 12.5t77 35.5q-31 29 -60 57l-57 57q-47 47 -90 95.5t-82 101.5q-12 16 -22.5 31.5t-22.5 38.5q-47 -27 -70.5 -64t-25.5 -94zM346 780q0 -78 45 -149.5t103 -143.5q23 -29 46 -56.5t50 -57.5q41 -47 80 -86t86 -80q23 29 34 60.5t11 76.5h-2 q0 55 -21.5 96t-56.5 69t-82 42t-98 14q-18 0 -32.5 -1t-39.5 -5l6 62q61 20 95 63t32 100q0 63 -33.5 101.5t-89.5 40.5q-59 0 -96 -40t-37 -106z" />
<glyph unicode="'" horiz-adv-x="512" d="M166 1376q0 31 2 49.5t10 28.5t26.5 14.5t49.5 4.5t49.5 -3.5t27.5 -13.5t12 -28.5t3 -51.5q0 -45 -6 -110.5t-15.5 -132t-17.5 -122t-12 -83.5h-80q-2 20 -10 76.5t-16.5 125t-15.5 136t-7 110.5z" />
<glyph unicode="(" horiz-adv-x="819" d="M141 555q0 154 32 283t94.5 239.5t155.5 204.5t214 180l41 -55q-109 -74 -179.5 -170t-111.5 -205.5t-57.5 -230.5t-16.5 -246q0 -123 16.5 -244t58.5 -231.5t112.5 -205.5t177.5 -169l-41 -57q-121 86 -214 180t-155.5 204.5t-94.5 239.5t-32 283z" />
<glyph unicode=")" horiz-adv-x="819" d="M141 -295q109 74 179.5 170t111.5 205.5t57.5 230.5t16.5 246q0 123 -16.5 243t-58.5 230.5t-111.5 205.5t-178.5 169l41 57q121 -86 214 -180t155.5 -204.5t94.5 -239.5t32 -283t-32 -283t-94.5 -239.5t-155.5 -204.5t-214 -180z" />
<glyph unicode="*" d="M174 1165l72 119q51 -47 106 -90l111 -86l12 8q-2 39 -4 66.5t-5 54.5t-8 57.5t-14 73.5l134 35q-8 -72 -17.5 -141.5t-13.5 -141.5l18 -8q41 27 69 46.5t54.5 39t54 41t64.5 51.5l31 -133l-119 -53q-59 -27 -119 -57l-4 -13q63 -35 126.5 -59.5t127.5 -50.5l-74 -121 q-53 43 -106.5 84t-108.5 86l-12 -8q2 -37 4 -64t5 -52.5t7 -55t10 -70.5l-126 -41l12 139q6 70 14 142l-14 8l-70 -52q-29 -22 -52.5 -40.5t-46 -39t-52.5 -46.5l-47 125q39 16 66.5 28t52 24.5t51 28t63.5 35.5l4 13q-66 35 -128 64t-128 54z" />
<glyph unicode="+" d="M123 518v107h334v333h108v-333h336v-107h-336v-338h-108v338h-334z" />
<glyph unicode="," horiz-adv-x="512" d="M80 -328q35 18 71.5 44t66.5 57.5t48.5 71.5t18.5 85q0 37 -12.5 63.5t-31 45t-40 30t-41.5 13.5l-10 10q12 84 32.5 120t55.5 36q37 0 72.5 -19.5t62 -51.5t43 -73t16.5 -84v-2q0 -72 -22.5 -130t-62.5 -107t-97 -89t-129 -77z" />
<glyph unicode="-" horiz-adv-x="512" d="M14 487l35 146q53 0 107.5 -3t107.5 -3q59 0 116.5 3t117.5 3l-25 -146q-53 0 -106.5 3.5t-106.5 3.5q-61 0 -123 -3.5t-123 -3.5z" />
<glyph unicode="." horiz-adv-x="512" d="M143 96q0 37 3.5 60.5t15.5 38t33.5 20.5t58.5 10q35 4 57.5 3t34.5 -11t17.5 -33.5t5.5 -64.5q0 -76 -30 -104.5t-110 -28.5q-33 0 -50 6t-25.5 20.5t-9.5 34.5t-1 49z" />
<glyph unicode="/" horiz-adv-x="622" d="M14 -190q137 401 262 802.5t248 806.5l119 -35q-135 -403 -264 -801.5t-248 -805.5z" />
<glyph unicode="0" d="M51 686q0 154 36 286t99.5 227t150.5 148.5t191 53.5q102 0 184.5 -50.5t139.5 -141.5t89 -220t32 -287q0 -156 -36 -291t-100.5 -234t-150.5 -155.5t-188 -56.5t-185.5 51.5t-141.5 145.5t-89 227t-31 297zM240 733q0 -156 19.5 -281.5t56 -215t88 -137.5t114.5 -48 q127 0 195.5 149.5t68.5 424.5q0 160 -19.5 287.5t-55 217t-87 137.5t-116.5 48q-127 0 -195.5 -151.5t-68.5 -430.5z" />
<glyph unicode="1" d="M174 1235l463 162l18 -13l-6 -131l-5 -62.5t-4 -83.5t-2 -95t-1 -97v-665q0 -27 -2 -59.5t4 -61.5t24.5 -48.5t57.5 -19.5h63v-61h-444v61h53q29 0 39 12.5t14 57.5q2 25 4.5 62.5t4.5 83t3 93.5t1 93v557v79q0 40 -6.5 70.5t-24.5 45t-55 2.5l-178 -62z" />
<glyph unicode="2" d="M88 80l33 26q119 100 221 196.5t177 198t118 209t43 230.5q0 66 -17.5 124t-51 102t-85 71t-118.5 27q-156 0 -258 -142l-60 56q74 104 172 161.5t236 57.5q84 0 153.5 -31t120.5 -84t80 -127t29 -160q0 -78 -30 -159.5t-79 -161.5t-109.5 -156t-123 -142.5 t-118.5 -123.5t-97 -100h307q80 0 136 7t120 11l-58 -172q-49 0 -74.5 1t-47.5 1h-49h-74h-482z" />
<glyph unicode="3" d="M119 -6q23 -2 35 -2h24q113 0 210 33.5t170 92t114 137.5t41 171q0 260 -330 260q-35 0 -69.5 -1t-104.5 -5l29 117h44q22 0 37 2q59 2 114.5 23.5t98.5 58.5t70 87t27 111q0 92 -61.5 147.5t-153.5 55.5q-61 0 -106.5 -20.5t-104.5 -79.5l-56 51q74 80 150 124t190 44 q72 0 131.5 -19.5t101.5 -53.5t65.5 -82t23.5 -107q0 -57 -22.5 -104.5t-58.5 -87.5t-80 -72.5t-89 -63.5v-6h16q143 -10 228.5 -100.5t85.5 -235.5q0 -113 -58.5 -214t-157 -178t-229.5 -122t-276 -45h-49v84z" />
<glyph unicode="4" d="M31 483q59 125 133 244t155.5 233.5t170 225t176.5 215.5h110q-4 -59 -6 -117.5t-2 -118.5v-620q59 2 115.5 3t113.5 11l-39 -149q-47 2 -95 3t-95 1v-138q0 -70 4 -138t8 -138h-202q8 78 14 154.5t6 154.5v105h-272q-135 0 -273 -4zM174 549q106 -6 212 -5t212 1v140v75 v32v14v21q0 14 -1 52.5t-1 107.5v189q-119 -147 -227.5 -302t-194.5 -325z" />
<glyph unicode="5" d="M203 -10q70 6 98 12q76 14 147.5 48t127 86t90 120t36.5 150q2 72 -18 125t-56 93t-85 67.5t-109 45.5l-115 39q-47 16 -69.5 35.5t-29.5 47.5t-6 62.5t3 79.5l6 148q2 39 6 98.5t15 116.5l426 -2q41 0 85 1t109 3l-51 -166q-47 4 -83 6t-71 2h-344q-6 -47 -8 -70.5 t-2 -54.5q0 -39 4 -63.5t18.5 -43t41 -31.5t71.5 -30l105 -36q66 -25 125 -59t104 -82t72.5 -110.5t27.5 -144.5q0 -106 -49 -200.5t-129 -169t-180 -125.5t-201 -70q-23 -4 -47 -6t-55 -6z" />
<glyph unicode="6" d="M92 444q0 139 42 265.5t112.5 237t164 202.5t193.5 162q35 25 60.5 41t52 31.5t56.5 29.5t71 35l35 -78q-45 -25 -79 -42t-59.5 -32.5t-48 -30t-45.5 -32.5q-80 -61 -147.5 -144t-116.5 -181.5t-75.5 -209t-26.5 -227.5q0 -88 20.5 -164t57 -131t88 -86t112.5 -31 q104 0 171 79t67 202q0 59 -18.5 113.5t-51.5 95.5t-76 65.5t-90 24.5q-35 0 -64.5 -11.5t-82.5 -41.5l-37 63q41 31 72.5 50.5t61.5 31.5t59.5 16.5t64.5 4.5q74 0 135 -26t106.5 -73t70 -110.5t24.5 -141.5q0 -88 -36 -165.5t-97.5 -136t-144.5 -92.5t-175 -34 q-94 0 -173 34t-135 96.5t-87 149.5t-31 191z" />
<glyph unicode="7" d="M78 2q6 33 13 56.5t16.5 47t23.5 51t39 68.5q143 246 303 486.5t332 470.5q-143 4 -284.5 4t-284.5 -10q-23 -2 -38.5 -3.5t-27.5 -2.5t-25.5 -2t-31.5 -5l39 207q61 -2 108 -3t87 -2t79 -1h86q117 0 230.5 2t230.5 2l43 -106v-2q-94 -102 -197.5 -231.5t-198 -270 t-173 -284.5t-125.5 -277q-16 -47 -23.5 -91.5t-9.5 -105.5z" />
<glyph unicode="8" d="M76 332q0 78 27.5 135t72.5 103t100.5 84t112.5 75q-123 78 -180 159t-57 177q0 72 30.5 132t83.5 105.5t128 70t161 24.5q78 0 141.5 -20.5t109.5 -57.5t71.5 -87t25.5 -110q0 -68 -24.5 -117t-64.5 -87.5t-89 -68.5t-100 -61q57 -39 115.5 -77.5t104.5 -87t75.5 -108.5 t29.5 -140q0 -82 -36.5 -153.5t-101 -126t-152 -85t-185.5 -30.5q-88 0 -161.5 25.5t-127 71.5t-82 111.5t-28.5 143.5zM233 334q0 -121 74 -198t191 -77q123 0 200.5 74t77.5 191q0 68 -30.5 120t-76.5 95t-101.5 77.5t-104.5 65.5q-49 -31 -91 -65.5t-73 -76.5 t-48.5 -92.5t-17.5 -113.5zM326 1135q0 -57 19.5 -101.5t51 -80t73.5 -64.5t85 -58q37 29 73 58t63.5 62.5t44 74.5t16.5 92q0 92 -60.5 149.5t-154.5 57.5q-92 0 -151.5 -53t-59.5 -137z" />
<glyph unicode="9" d="M92 973q0 88 36 166t97.5 136t144.5 92t175 34q96 0 174 -34t134 -96.5t87 -149.5t31 -191q0 -139 -42 -265t-113 -237t-163 -202t-194 -163q-33 -25 -59.5 -41t-52 -31.5t-56.5 -29.5t-72 -35l-35 78q47 25 80 42t59.5 32.5t48 30t44.5 32.5q80 61 147.5 144.5 t116.5 181.5t75.5 208.5t26.5 227.5q0 90 -20.5 165t-57 130t-88 86t-112.5 31q-104 0 -171 -79t-67 -202q0 -59 19.5 -113.5t51.5 -95.5t75 -65.5t90 -24.5q35 0 64.5 11.5t82.5 41.5l37 -63q-41 -31 -72.5 -50.5t-61.5 -31.5t-59.5 -16t-64.5 -4q-74 0 -135.5 25.5 t-106.5 72.5t-69.5 111.5t-24.5 140.5z" />
<glyph unicode=":" horiz-adv-x="512" d="M143 96q0 37 3.5 60.5t15.5 38t33.5 20.5t58.5 10q35 4 57.5 3t34.5 -11t17.5 -33.5t5.5 -64.5q0 -76 -30 -104.5t-110 -28.5q-33 0 -50 6t-25.5 20.5t-9.5 34.5t-1 49zM143 751q0 37 3.5 60.5t15.5 38t33.5 20.5t58.5 10q35 4 57.5 3t34.5 -11t17.5 -33.5t5.5 -64.5 q0 -76 -30 -104.5t-110 -28.5q-33 0 -50 6t-25.5 20.5t-9.5 34.5t-1 49z" />
<glyph unicode=";" horiz-adv-x="512" d="M80 -328q35 18 71.5 44t66.5 57.5t48.5 71.5t18.5 85q0 37 -12.5 63.5t-31 45t-40 30t-41.5 13.5l-10 10q12 84 32.5 120t55.5 36q37 0 72.5 -19.5t62 -51.5t43 -73t16.5 -84v-2q0 -72 -22.5 -130t-62.5 -107t-97 -89t-129 -77zM186 751q0 37 3.5 60.5t15.5 38t33.5 20.5 t58.5 10q35 4 57.5 3t34.5 -11t17.5 -33.5t5.5 -64.5q0 -76 -30 -104.5t-110 -28.5q-33 0 -50 6t-25.5 20.5t-9.5 34.5t-1 49z" />
<glyph unicode="&#x37e;" horiz-adv-x="512" d="M80 -328q35 18 71.5 44t66.5 57.5t48.5 71.5t18.5 85q0 37 -12.5 63.5t-31 45t-40 30t-41.5 13.5l-10 10q12 84 32.5 120t55.5 36q37 0 72.5 -19.5t62 -51.5t43 -73t16.5 -84v-2q0 -72 -22.5 -130t-62.5 -107t-97 -89t-129 -77zM186 751q0 37 3.5 60.5t15.5 38t33.5 20.5 t58.5 10q35 4 57.5 3t34.5 -11t17.5 -33.5t5.5 -64.5q0 -76 -30 -104.5t-110 -28.5q-33 0 -50 6t-25.5 20.5t-9.5 34.5t-1 49z" />
<glyph unicode="&#x3c;" d="M66 498v114l895 422v-116l-760 -363l760 -362v-115z" />
<glyph unicode="=" d="M66 393v107h895v-107h-895zM66 635v106h895v-106h-895z" />
<glyph unicode="&#x3e;" d="M66 78v115l761 362l-761 363v116l895 -422v-114z" />
<glyph unicode="?" horiz-adv-x="819" d="M98 1262q29 43 59.5 81.5t68.5 66.5t86 45.5t110 17.5q68 0 124 -21.5t98 -59.5t64.5 -91.5t22.5 -116.5h2q0 -61 -23.5 -108.5t-58.5 -88.5t-75.5 -79t-75.5 -79q-47 -53 -86 -111.5t-37 -131.5q0 -45 12 -81t45 -79v-12q-14 -25 -31 -45q-47 -53 -106 -13 q-96 61 -96 166q0 45 15 83t39 71t53.5 63.5t58.5 61.5t62.5 65.5t61 73.5t45 82t17.5 88q0 43 -16.5 83t-45 69.5t-65.5 47t-80 17.5q-53 0 -101 -25.5t-100 -82.5zM254 70q0 35 2 58.5t11 38.5t29.5 22.5t55.5 11.5q33 4 53.5 3t33 -10.5t16.5 -30t4 -59.5 q0 -68 -26.5 -93t-98.5 -25q-47 0 -63.5 16.5t-16.5 67.5z" />
<glyph unicode="@" horiz-adv-x="1638" d="M100 549q-10 178 49.5 334.5t168 274.5t259 185.5t324.5 67.5q143 0 261 -44t203 -123t131 -189.5t46 -243.5q0 -94 -21.5 -179t-64.5 -154.5t-108.5 -118t-151.5 -68.5q-55 -12 -117 -12h-116l-9 12l-12 108q-33 -23 -61.5 -46t-59.5 -44q-29 -18 -61.5 -29.5 t-71.5 -11.5q-86 0 -141 56.5t-55 144.5q0 47 19 90t54 72q18 14 39 25.5t52.5 22.5t81.5 23.5t126 30.5q33 8 47.5 16.5t18.5 28.5q2 10 2 37v51q0 158 -129 158q-123 0 -123 -123v-20l-4 -9q-14 -4 -20.5 -5t-14.5 -1q-68 0 -68 78q0 23 9.5 36t29.5 30q72 57 142.5 91 t134.5 34q98 0 144 -53.5t46 -155.5v-299q0 -37 -1 -82t5.5 -86t25.5 -67.5t58 -26.5q61 2 110.5 33.5t84.5 89t54.5 135t19.5 172.5q0 117 -43 215t-118 168.5t-177.5 110.5t-220.5 40q-150 0 -273 -56t-210 -157.5t-131 -241t-36 -305.5q6 -137 52.5 -245.5t122 -184.5 t175 -115.5t211.5 -39.5q123 0 220.5 31.5t185.5 97.5l47 -66q-98 -72 -212 -104.5t-255 -32.5q-147 0 -268 42t-209 124t-138.5 200.5t-58.5 272.5zM651 502q0 -53 31 -85t82 -32q37 0 72.5 16.5t60.5 42.5q27 29 31 66t4 72l-2 92q-70 -12 -102.5 -19.5t-63.5 -17.5 q-113 -33 -113 -135z" />
<glyph unicode="A" horiz-adv-x="1325" d="M-27 0l2 61q4 0 19.5 -1t19.5 3q16 8 40 48.5t63 126.5l141 323l328 744l26 86h150l22 -84l363 -1039q8 -23 23.5 -62.5t37.5 -76.5q16 -29 38 -47.5t48 -18.5h41v-63h-403v61h14q23 0 28 17.5t2 41t-9 46t-11 33.5l-88 268l-28 86l-226 2l-243 -2l-27 -68l-43 -108 l-18 -43q-12 -29 -24.5 -63.5t-20.5 -71.5q-7 -29 -7 -55v-13q2 -31 18.5 -50.5t53.5 -19.5h53v-61h-383zM412 649l200 -2l195 2l-178 514z" />
<glyph unicode="B" horiz-adv-x="1183" d="M92 1305v61h344q43 0 92 1q25 1 50 1t51 -1q51 -1 100 -6t94 -20q80 -25 133.5 -84t53.5 -174q0 -68 -24.5 -120t-64.5 -94t-91.5 -76.5t-104.5 -65.5h12l43 -6q66 -8 125.5 -28.5t105.5 -58.5t72.5 -96.5t26.5 -142.5v2q0 -86 -39 -155.5t-100 -120.5q-72 -59 -162 -90 t-178 -31h-484v61h17q29 0 39 12.5t14 57.5q2 25 4 62.5t4 83t3 93.5t1 93v645q0 72 -2 103.5t-10 52.5q-16 41 -74 41h-51zM420 252q0 -57 10 -92t39 -51q41 -29 133 -29q143 0 221 75.5t78 213.5q0 145 -90 220t-266 75q-41 0 -125 -7v-405zM420 748q25 -2 46 -3.5 t40 -1.5q66 0 121 21.5t94 60.5t60.5 93.5t21.5 117.5q0 117 -70.5 184.5t-193.5 67.5q-23 0 -43.5 -2t-61.5 -10q-2 -31 -3 -40t-2 -17.5t-2 -28t-1 -70.5z" />
<glyph unicode="C" horiz-adv-x="1394" d="M98 684q0 186 79 334.5t229 245.5q98 63 216.5 92.5t276.5 29.5q94 0 187.5 -9t181.5 -46l20 -26v-246h-76v67q0 35 -34 70q-45 43 -136.5 70.5t-201.5 27.5q-119 0 -215.5 -40t-164 -114.5t-103 -182t-35.5 -240.5q0 -127 31.5 -245t98 -208t170 -144t244.5 -54 q57 0 115.5 9t110 30.5t93.5 58.5t64 94l21 51l69 -24l-73 -238l-13 -12q-98 -35 -211.5 -46.5t-218.5 -11.5q-164 0 -298 50.5t-229 142.5t-146.5 223t-51.5 291z" />
<glyph unicode="D" horiz-adv-x="1603" d="M92 1305l2 61q176 -2 307 -2t220 4q84 2 170 2t169.5 -10t162.5 -38t149 -83q111 -86 172 -223t61 -297q0 -215 -108.5 -380t-309.5 -257q-70 -33 -137 -49.5t-134.5 -23.5t-138.5 -8t-147 -1h-383v61h17q29 0 39 12.5t14 57.5q2 25 4 62.5t4 83t3 93.5t1 93v645 q0 72 -2 103.5t-10 52.5q-16 41 -74 41h-51zM420 250q0 -47 14.5 -78t38.5 -49q41 -29 99.5 -33t121.5 -4q135 0 244 43t186.5 123t119.5 192.5t42 249.5q0 248 -139 408q-49 53 -101.5 88t-110.5 54.5t-121.5 26.5t-131.5 7q-35 0 -61.5 -1t-54 -3t-58.5 -5t-74 -9 q-4 -59 -7 -103.5t-4 -84.5t-2 -81t-1 -94v-647z" />
<glyph unicode="E" horiz-adv-x="1116" d="M92 1305v61l809 4l23 -16v-246h-70v57q0 27 -7 38t-36 28q-96 57 -250 57q-27 0 -53.5 -2t-73.5 -10q-4 -59 -7 -103.5t-4 -84t-2 -80.5t-1 -97l-2 -133q61 -3 120 -3h30q75 1 151 5q47 2 76.5 3t85.5 5l-13 -126q-25 2 -41 3t-31.5 2t-33.5 1h-45q-53 0 -85 1t-49 1h-29 h-27h-39h-68v-99v-288q0 -49 1 -85t11 -61q14 -35 50 -49t112 -14q145 0 237 35q104 37 121 114l15 68l69 -15l-51 -260l-22 -22l-816 6v61h17q29 0 39 12.5t14 57.5q2 25 4 62.5t4 83t3 93.5t1 93v645q0 72 -2 103.5t-10 52.5q-16 41 -74 41h-51z" />
<glyph unicode="F" horiz-adv-x="1048" d="M92 1305v61l834 4l22 -16l2 -260h-71v55q0 41 -7.5 53t-35.5 29q-51 29 -112.5 43t-143.5 14q-31 0 -62 -2t-84 -10q-4 -59 -7 -103.5t-4 -84t-2 -80.5t-1 -97l2 -151q66 -3 130 -3h33q81 1 163 5q43 2 73.5 3t87.5 5l-14 -129q-76 6 -156 6q-80 2 -159 3h-32l-128 -3 v-364v-78q0 -39 7 -71t28.5 -52.5t64.5 -20.5h51v-61h-424v61h17q29 0 39 12.5t14 57.5q2 25 4 62.5t4 83t3 93.5t1 93v645q0 72 -2 103.5t-10 52.5q-16 41 -74 41h-51z" />
<glyph unicode="G" horiz-adv-x="1546" d="M98 678q0 205 91.5 363.5t265.5 252.5q94 51 205.5 74t261.5 23q96 0 189 -10.5t183 -39.5q20 -4 31 -8l18 -24v-271h-81v78q0 37 -29 72q-45 49 -142.5 79.5t-220.5 30.5q-129 0 -230 -40.5t-172 -117.5t-108.5 -186.5t-37.5 -248.5q0 -145 45 -274.5t122 -215.5 q141 -152 390 -152q141 0 229 56q31 18 45 37.5t18 56.5q2 16 3 35v41v27v15q0 7 -1.5 23.5t-1.5 57.5q0 33 -8 50t-23.5 24.5t-38 8.5t-50.5 1h-54v71h447v-61q-4 0 -19.5 1t-21.5 -3q-23 -12 -29 -80q-6 -39 -6 -102v-230l-16 -29q-131 -45 -251 -64t-261 -19 q-152 0 -298.5 43t-256.5 153q-88 92 -137.5 223.5t-49.5 278.5z" />
<glyph unicode="H" horiz-adv-x="1662" d="M92 1305v61h422v-61h-29q-29 0 -39 -13.5t-14 -56.5q-2 -25 -4 -62.5t-4 -84t-3 -95.5t-1 -96v-131q57 0 113.5 -1t113.5 -1h393q51 0 101.5 1t101.5 1v342q0 72 -2 103.5t-10 52.5q-16 41 -74 41h-49v61h420v-61h-29q-29 0 -38 -13.5t-13 -56.5l-5 -62.5t-4 -84 t-2 -95.5t-1 -96v-647q0 -63 3 -96t9 -52q16 -41 74 -41h49v-61h-422v61h31q29 0 38 13.5t13 56.5q4 25 6 62.5t3 83t2 93.5t1 93v205q-49 0 -98 1t-98 1h-400q-57 0 -113.5 -1t-113.5 -1v-418q0 -63 3 -96t9 -52q16 -41 74 -41h51v-61h-424v61h31q29 0 39 13.5t14 56.5 q2 25 4 62.5t4 83t3 93.5t1 93v645q0 72 -2 103.5t-10 52.5q-16 41 -74 41h-51z" />
<glyph unicode="I" horiz-adv-x="667" d="M100 1305v61h445v-61h-51q-29 0 -39.5 -13.5t-14.5 -56.5q-2 -25 -4 -62.5t-4 -84t-3 -95.5t-1 -96v-647q0 -63 3 -96t9 -52q16 -41 74 -41h51v-61h-444v61h51q29 0 39 12.5t14 57.5q2 25 4 62.5t4.5 83t3.5 93.5t1 93v645q0 72 -2.5 103.5t-10.5 52.5q-16 41 -73 41h-52 z" />
<glyph unicode="J" horiz-adv-x="620" d="M-86 -457l43 29q78 53 129 113.5t84 128.5q29 66 44 134t22 142q6 72 6 144v151l4 721q0 72 -3 103.5t-12 52.5q-10 25 -28.5 33t-69.5 8h-51v61h436v-61h-19q-15 0 -20 -5q-18 -10 -28.5 -54t-10.5 -128v-24v-64q0 -39 -1 -89t-1 -101q-2 -121 -2 -275v-123v-70 q0 -26 1 -37t2 -20.5t1 -23.5v-45q0 -41 -1 -79t-3 -73q-8 -86 -29.5 -160.5t-64.5 -142.5q-35 -53 -83 -104.5t-116 -100.5q-35 -25 -70.5 -45t-101.5 -55l-24 -12z" />
<glyph unicode="K" horiz-adv-x="1349" d="M92 1305v61h410v-61h-17q-29 0 -39 -13.5t-14 -56.5q-2 -25 -4 -62.5t-4 -84t-3 -95.5t-1 -96v-264l299 350q8 10 30.5 35.5t49 59.5t50 72t34.5 71q10 35 -4.5 59.5t-69.5 24.5h-51v61h436v-61h-16q-18 0 -52 -27t-69 -62.5t-64.5 -69.5t-42.5 -46l-235 -273l-2 -16 q29 -35 67.5 -86t87.5 -127l119 -184q33 -51 68 -106.5t75 -108.5q14 -20 33 -45t41.5 -45.5t48 -35t54.5 -14.5h43v-59l-308 -6l-30 8l-33 51q-31 51 -59.5 108.5t-67.5 119.5l-109 172q-43 70 -79.5 117.5t-51.5 62.5q-27 27 -42 25.5t-42 -33.5l-55 -70 q-18 -23 -28.5 -41t-16.5 -40.5t-8 -52.5t-2 -75q0 -47 2 -95t4 -95q2 -49 20.5 -72t61.5 -23h51v-61h-410v61h17q29 0 39 12.5t14 57.5q2 25 4 62.5t4 83t3 93.5t1 93v645q0 72 -2 103.5t-10 52.5q-16 41 -74 41h-51z" />
<glyph unicode="L" horiz-adv-x="1048" d="M92 1305v61h434v-61h-30q-39 0 -48.5 -11.5t-15.5 -58.5q-2 -23 -4 -60.5t-4 -84t-3 -96.5t-1 -97v-614q0 -47 2 -83t12 -61q12 -35 47 -50t111 -15q156 0 244 30q102 39 125 132l14 65l69 -12l-51 -273l-24 -22l-822 6v61h17q29 0 39 12.5t14 57.5q2 25 4 62.5t4 83 t3 93.5t1 93v645q0 72 -2 103.5t-10 52.5q-16 41 -74 41h-51z" />
<glyph unicode="M" horiz-adv-x="1847" d="M102 1300v66l322 2q18 -55 40.5 -106.5t48.5 -103.5t55.5 -107.5t64.5 -118.5l282 -518l271 524q41 80 69.5 135t49 101.5t38 91.5t35.5 102l285 -2v-61h-19q-15 0 -20 -5q-25 -12 -36 -63q-8 -38 -8 -108q0 -26 1 -56l10 -282l15 -439q1 -25 1 -56v-20.5v-21.5 q0 -47 9 -90q8 -43 26.5 -73t55.5 -30h51v-61h-401l2 61h19q11 0 17 7q12 6 19 45q4 29 6 69.5t2 81.5t-2 77t-2 54l-18 719l-306 -598q-51 -102 -91 -179t-74 -161h-101q-18 41 -32.5 72t-33 66.5t-45 83.5t-67.5 124l-287 533q-4 -174 -6 -279.5t-4 -166t-3 -90.5t-1 -54 v-57v-99q0 -86 5 -137t20 -78q18 -33 69 -33h45v-61h-344v61q10 0 21.5 1t21.5 4q10 4 16.5 22t10.5 59q4 37 7 93.5t7 138.5q8 176 13.5 278.5t8.5 158.5t4 82t2 47.5t1 51.5v99q0 68 -3 107.5t-12.5 61t-28 28.5t-46.5 7h-56z" />
<glyph unicode="N" horiz-adv-x="1665" d="M92 1298v66l363 6l37 -55l741 -920l100 -119l-2 371l-4 389q0 74 -9 133.5t-26 92.5q-10 23 -29.5 33t-56.5 10h-51v61h367v-61h-20q-15 0 -19 -5q-8 -4 -14.5 -23.5t-10.5 -59.5q-4 -45 -6 -117t-2 -178v-854v-97h-131l-66 90l-718 881l-152 166l4 -406l4 -372 q0 -111 19 -178q8 -33 14 -48q10 -25 30.5 -34t57.5 -9h51v-61h-366l2 61q10 0 18 1t19 1q10 4 15 23.5t9 60.5q4 43 6 115t2 182l2 664q0 74 -6 104.5t-24 53.5q-16 18 -38 25t-57 7h-53z" />
<glyph unicode="O" horiz-adv-x="1634" d="M98 664q0 168 53.5 303t150.5 231t235.5 148.5t308.5 52.5q158 0 284.5 -47t217 -135.5t139.5 -215.5t49 -284q0 -164 -55.5 -302.5t-154.5 -237.5t-235.5 -155.5t-299.5 -56.5q-156 0 -283 50.5t-218 142.5t-141.5 221t-50.5 285zM324 723q0 -156 34.5 -280t100 -211 t158 -134t208.5 -47q127 0 218.5 50.5t150.5 133t88 190t29 220.5q0 156 -35 280t-101.5 210t-160.5 132t-213 46q-109 0 -197 -42t-150.5 -119t-96 -186.5t-33.5 -242.5z" />
<glyph unicode="P" horiz-adv-x="1144" d="M92 1305v61l434 -4q51 0 104 2q21 1 41 1q31 0 62 -2q51 -3 101.5 -13.5t97.5 -36.5q66 -37 103.5 -110t37.5 -169q0 -80 -26.5 -148.5t-73.5 -121.5q-51 -59 -122 -99t-153 -57q-33 -6 -58.5 -11t-55 -8t-67.5 -4t-97 -3v-332q0 -61 3 -97t12 -56.5t26.5 -27t44.5 -6.5 h65v-63h-424v61h17q29 0 39 12.5t14 57.5q2 25 4 62.5t4 83t3 93.5t1 93v645q0 72 -2 103.5t-10 52.5q-16 41 -74 41h-51zM420 688q47 -6 75.5 -8t51.5 -2q150 0 235.5 83t85.5 230q0 139 -76.5 218t-211.5 79q-23 0 -59 -3t-85 -11q-12 -92 -14 -187.5t-2 -189.5v-209z" />
<glyph unicode="Q" horiz-adv-x="1634" d="M98 672q0 168 55.5 303t156 229t238.5 144.5t304 50.5q156 0 283 -48t216 -136.5t137 -214.5t48 -283q0 -276 -162 -481q-33 -43 -79 -85t-99 -78t-111.5 -58.5t-113.5 -24.5l354 -164q199 -92 329 -132t222 -40q53 0 103.5 9t78.5 24l25 12l26 -59l-26 -17 q-37 -20 -81 -41.5t-89 -40t-91 -30t-89 -11.5q-57 0 -113.5 15.5t-113 41t-113 57.5t-111.5 64q-59 35 -123.5 74t-124 75t-107.5 64.5t-77 42.5q-23 10 -39 20.5t-43 10.5q-147 0 -270 52.5t-212 146.5t-138.5 223t-49.5 285zM324 723q0 -156 34.5 -280t100 -211t158 -134 t208.5 -47q127 0 218.5 50.5t150.5 133t88 190t29 220.5q0 156 -35 280t-101.5 210t-160.5 132t-213 46q-109 0 -197 -42t-150.5 -119t-96 -186.5t-33.5 -242.5z" />
<glyph unicode="R" horiz-adv-x="1312" d="M92 1305v61h361q45 0 94 1q25 1 49.5 1t49.5 -1q50 -1 98.5 -7t91.5 -21q76 -27 125 -86t49 -174q0 -59 -20.5 -112.5t-57.5 -94.5q-18 -18 -33.5 -31.5t-37 -28.5t-51.5 -35.5t-77 -49.5q33 -18 60 -51q27 -29 48 -62.5t42 -64.5l129 -197q16 -27 41.5 -63.5t60.5 -89.5 q92 -139 176 -140h43v-59l-309 -6l-29 10l-21 31.5t-20 32.5q-23 37 -43 76.5t-47 82.5l-123 199q-45 74 -78.5 121t-62.5 73.5t-57.5 36t-63.5 9.5q-10 0 -25.5 -1t-35.5 -3l4 -412v-68q0 -25 2 -39t4 -22t4 -19q16 -41 74 -41h51v-61h-410v61h17q29 0 39 12.5t14 57.5 q2 25 4 62.5t4 83t3 93.5t1 93v645q0 72 -2 103.5t-10 52.5q-14 41 -74 41h-51zM418 829q0 -84 2 -84q25 -4 41 -5t31 -3h14q133 0 216 83t83 216q0 117 -68.5 183.5t-189.5 66.5q-20 0 -44 -2t-69 -6q-2 -31 -2 -41t-1 -19.5t-2 -30t-3 -69.5q-8 -205 -8 -289z" />
<glyph unicode="S" horiz-adv-x="1067" d="M129 295l76 2l2 -25v-18q4 -74 72 -127q39 -31 92 -48.5t114 -17.5q125 0 201 66t76 176q0 59 -24.5 109.5t-69.5 85.5q-43 35 -91.5 62.5t-98.5 53t-99 50t-96 55.5q-72 47 -113 121.5t-41 160.5q0 84 36 156t98.5 123t149.5 80t191 29q35 0 61.5 -1.5t53 -5.5t57.5 -10 t72 -16l18 -27v-225h-73l-2 59q-4 47 -41 78q-66 55 -193 55q-113 0 -180.5 -61t-67.5 -164q0 -84 49.5 -142.5t171.5 -123.5q72 -37 150 -76t143 -90q59 -47 92 -114.5t33 -145.5q0 -88 -37 -163t-103.5 -129t-156.5 -85t-198 -31q-72 0 -142.5 10.5t-140.5 18.5l-20 23z " />
<glyph unicode="T" horiz-adv-x="1230" d="M20 1081v271l23 16l340 -2h465l338 2l24 -16v-271h-71v58q0 33 -6.5 53t-19.5 32.5t-33.5 20.5t-49.5 17q-41 14 -72.5 18t-91.5 4q-35 0 -70.5 -1t-70.5 -1q-4 -59 -7 -101t-4 -82t-2 -83t-1 -105v-628v-75q0 -30 2 -50.5t4 -32.5t4 -23q14 -41 88 -41h51v-61h-471v61 h66q29 0 38 12.5t13 57.5q4 25 6 62.5t3 83t2 93.5t1 93v678l-4 141q-39 0 -77 1t-77 1q-57 0 -87.5 -4t-71.5 -16q-27 -8 -48.5 -17.5t-35 -23t-20.5 -33t-7 -51.5v-58h-70z" />
<glyph unicode="U" horiz-adv-x="1687" d="M92 1305v61h410v-61h-17q-29 0 -39 -13.5t-14 -56.5q-2 -25 -4 -62.5t-4 -84t-3 -95.5t-1 -96v-274q0 -139 12 -217t39 -132q41 -80 123 -125t188 -45q53 0 106.5 12.5t104.5 34t97.5 52t80.5 67.5q18 20 32 44t22 56.5t11 78t3 106.5v553q0 72 -3 103.5t-11 52.5 q-16 41 -72 41h-51v61h409v-61h-16q-29 0 -39 -13.5t-14 -56.5q-2 -25 -4 -62.5t-4 -84t-3 -95.5t-1 -96v-397q0 -43 1 -92.5t4 -95.5t7 -87t8 -67q8 -53 26.5 -74t59.5 -21h51v-63l-323 -8l-13 16l-6 203q-39 -27 -72.5 -51.5t-68.5 -46.5q-88 -61 -182.5 -101.5 t-229.5 -40.5q-57 0 -116.5 12.5t-112.5 37t-97 63.5t-73 94q-20 41 -32.5 76t-20 81t-9.5 114.5t-2 175.5v483q0 72 -2 103.5t-10 52.5q-16 41 -74 41h-51z" />
<glyph unicode="V" horiz-adv-x="1370" d="M0 1303v63h401v-61h-14q-31 0 -31 -41q0 -12 6.5 -40t14.5 -57q25 -76 40 -124t26.5 -81.5t20.5 -59t19.5 -57.5t26.5 -78t41 -120l60 -181q36 -108 89 -265l332 786q16 35 38 88t32 105q5 23 4 43q0 24 -6 45q-12 37 -66 37h-55v61h381v-61h-20q-15 0 -19 -5 q-16 -6 -41 -47t-61 -127q-53 -121 -85 -192.5t-57 -124.5l-45 -102q-23 -51 -56.5 -129t-86.5 -200t-139 -317l-29 -88h-154l-20 86l-363 1037q-12 35 -26.5 71.5t-30.5 65.5q-16 31 -37.5 50.5t-50.5 19.5h-39z" />
<glyph unicode="W" horiz-adv-x="1890" d="M0 1303v63h401v-61h-16q-23 0 -28 -17.5t-5 -34.5q0 -10 3 -44.5t10 -63.5l200 -918l346 873l37 106h123l35 -102l336 -877l155 721q12 59 23.5 128t11.5 112q0 61 -21.5 89t-70.5 28h-49v61h399v-61h-20q-29 0 -39 -11.5t-29 -56.5q-29 -72 -57.5 -175.5t-52.5 -207.5 l-189 -793l-20 -88h-152l-28 80l-336 897l-367 -889l-31 -88h-151l-17 86l-239 1063q-18 78 -37 119q-16 35 -35.5 48.5t-50.5 13.5h-39z" />
<glyph unicode="X" horiz-adv-x="1288" d="M0 1303v63h442v-61h-14q-39 0 -35 -33q2 -18 13.5 -44t28 -53.5l34.5 -57.5t37 -58l153 -236l156 207q10 12 27.5 39t35 59.5t30 65.5t7.5 59q-2 23 -17 37.5t-50 14.5h-57v61h421v-61h-20q-25 0 -65 -40t-80.5 -92.5t-75.5 -103.5t-51 -72l-189 -252v-16l316 -465 q59 -88 106 -139q55 -61 96 -62h39v-63h-442v61l16 2q25 4 29 18.5t-1 33t-16.5 37t-17.5 28.5q-47 74 -68.5 109t-35.5 59q-10 16 -21.5 32.5t-29 44.5t-46 72t-73.5 113l-162 -233q-8 -10 -24.5 -32.5t-35 -52.5t-36 -62.5t-25.5 -63.5q-5 -19 -5 -35q0 -19 7 -34 q12 -28 66 -31l57 -5v-61h-422v61h21q23 0 53 32t67 80t76 106.5t78 109.5l217 293v18l-252 377q-18 29 -46 74t-60 84q-27 29 -55.5 48.5t-59.5 19.5h-41z" />
<glyph unicode="Y" horiz-adv-x="1275" d="M0 1303v63h424v-61h-16q-29 0 -29 -29q-2 -23 11 -57.5t31.5 -69.5t35 -62.5t20.5 -35.5l197 -353l188 285q8 12 23.5 35.5t32 53.5t33 62.5t24.5 63.5q5 21 5 40q0 20 -6 36q-11 31 -63 31h-57v61h422v-61h-19q-27 0 -43 -13.5t-47 -56.5t-48 -67.5t-27.5 -39 t-17.5 -23.5t-17 -25l-27 -40q-16 -25 -47 -67l-188 -277q-23 -33 -36.5 -58.5t-20.5 -51t-9 -55t-2 -70.5v-211q0 -63 3 -96t9 -52q16 -41 74 -41h49v-61h-442v61h51q25 0 39 25q10 16 14 37.5t5 44t1 43.5v35l5 217q0 47 -1.5 69.5t-8.5 41t-22.5 42t-41.5 70.5l-252 451 q-47 84 -84 123q-41 43 -86 43h-39z" />
<glyph unicode="Z" horiz-adv-x="1269" d="M90 104l76 95l584 868l124 205q-47 8 -93 10t-95 2q-37 0 -87 -2t-101.5 -7t-100.5 -15.5t-84 -26.5q-23 -10 -27.5 -22.5t-6.5 -47.5v-20q0 -10 -1.5 -27.5t-1.5 -42.5h-79v279l14 12h870l39 -107l-88 -106l-555 -825q-25 -35 -39 -59.5t-22 -41t-11.5 -30t-3.5 -27.5 q0 -49 48.5 -69.5t160.5 -20.5q170 0 276.5 20.5t166.5 65.5q18 14 29.5 34.5t23.5 57.5l16 51l70 -14l-66 -283l-16 -14l-981 8z" />
<glyph unicode="[" horiz-adv-x="819" d="M186 -291q2 117 3 230.5t1 230.5v731q0 117 -1 230.5t-3 230.5l13 12q23 0 36 -1t17 -1h190q94 0 191 4l-19 -82q-68 4 -140.5 3t-139.5 -1q0 -100 -3 -199.5t-3 -199.5v-725q0 -100 3 -199.5t1 -199.5h70h61q31 0 69.5 1t100.5 1l-17 -82q-92 4 -182 4h-182h-18 q-13 0 -35 -2z" />
<glyph unicode="\" horiz-adv-x="622" d="M14 1389l117 43q135 -403 269.5 -799.5t283.5 -794.5l-119 -45q-123 406 -268.5 800.5t-282.5 795.5z" />
<glyph unicode="]" horiz-adv-x="819" d="M184 1294h2l17 82q92 -4 182 -4h182h18q13 0 36 2l12 -14q-2 -117 -3 -230.5t-1 -230.5v-729q0 -117 1 -230.5t3 -230.5l-12 -14q-23 0 -36.5 1t-17.5 1h-190q-94 0 -191 -4l17 82q68 -4 140.5 -3t139.5 1q2 100 5.5 199.5t3.5 199.5v723q0 100 -3.5 199.5t-3.5 199.5 q-41 0 -70.5 1t-60 1t-70 -1t-100.5 -1z" />
<glyph unicode="^" d="M213 817l252 498h104l242 -498h-131l-166 350l-172 -350h-129z" />
<glyph unicode="_" d="M92 -438h840v-90h-840v90z" />
<glyph unicode="`" d="M268 1366v23l209 47q18 -53 49 -105.5t69 -102.5t80 -97.5t81 -88.5l-45 -47q-43 37 -99.5 85t-117 99.5t-119 99.5t-107.5 87z" />
<glyph unicode="a" horiz-adv-x="1021" d="M-12 0v53h16q10 0 15.5 1t13.5 9q14 16 35.5 59.5t40.5 84.5l94 209l217 477q6 12 17.5 46t13.5 48h149q4 -16 13.5 -47t13.5 -47l252 -672q27 -70 53 -119t67 -49h33v-53h-342v53h19q12 0 16 9.5t3 20.5t-5 23l-6 19l-25 74q-10 31 -20 62.5t-19 53.5l-20 58h-32 q-24 0 -51.5 1t-50.5 1h-30h-33q-27 0 -56.5 -1t-55.5 -1h-35l-60 -150q-6 -16 -15 -44.5t-12 -56.5t8 -48.5t44 -20.5h41v-53h-307zM322 455h31q22 0 45.5 -1t43 -2t23.5 -1h23q19 0 42 1t44 1h30l-129 356z" />
<glyph unicode="b" horiz-adv-x="917" d="M63 918v53h332q63 0 135 -1t132 -24q55 -20 90.5 -63t35.5 -117q0 -45 -17 -81t-46 -65.5t-66.5 -53t-80.5 -44.5l6 2q51 -2 101 -15t89 -41t62.5 -73t23.5 -108l2 -2q0 -63 -30.5 -114.5t-81.5 -88.5q-113 -82 -271 -82h-377v53h19q20 0 26.5 8.5t8.5 38.5q2 25 4 48.5 t3 50t2 59.5t1 76v448q0 55 -2 77t-10 36q-12 23 -50 23h-41zM340 188q0 -80 31 -102q29 -23 96 -23q98 0 151.5 53.5t53.5 145.5q0 100 -64 153q-61 50 -177 50h-9h-35q-18 0 -47 -2v-275zM342 535q16 -2 29 -3h22q96 0 153.5 53.5t57.5 145.5h-2q0 80 -49 125t-137 47 q-14 0 -27 -2l-37 -6q-2 -29 -3 -42t-1 -26q-2 -14 -2 -32v-54z" />
<glyph unicode="c" horiz-adv-x="1046" d="M68 485q0 135 60 242t175 174q144 86 363 86h10q68 0 136.5 -7t133.5 -30l17 -18v-191h-66v54q0 27 -23 49q-31 29 -96 48t-141 19q-172 0 -272 -107q-98 -105 -99 -287q0 -97 24.5 -179t74 -143.5t122 -98.5t168.5 -37q92 0 167 31t108 109l14 34l60 -20l-62 -180 l-12 -13q-72 -23 -155 -30.5t-157 -7.5q-125 0 -226 35.5t-173 101t-111.5 158.5t-39.5 208z" />
<glyph unicode="d" horiz-adv-x="1204" d="M63 918l3 53q47 0 112.5 -1t128 -1t115.5 1t76 1h118q57 0 111.5 -7.5t105 -22.5t97.5 -44q96 -59 151.5 -159.5t55.5 -223.5v-2q0 -139 -71 -247.5t-196 -178.5q-106 -57 -213.5 -71.5t-228.5 -14.5h-326v53h19q20 0 26.5 8.5t8.5 38.5q2 25 4 48.5t3 50t2 59.5t1 76 v448q0 55 -2 77t-10 36q-12 23 -50 23h-41zM340 182q0 -35 8 -54t23 -32q25 -18 66.5 -22t88.5 -4q94 0 171 29.5t131.5 85t84 133t29.5 171.5v3q0 172 -100 278q-66 72 -149 98.5t-187 26.5h-38q-17 0 -34.5 -2t-37 -4t-46.5 -6q-2 -43 -4 -75t-4 -59.5t-2 -56.5v-63v-447z " />
<glyph unicode="e" horiz-adv-x="841" d="M63 918v53l625 2l17 -12v-185h-62v43q0 16 -5 24.5t-24 18.5q-66 41 -176 41q-18 0 -36.5 -2t-51.5 -6q-2 -39 -4 -69.5t-4 -59.5t-2 -58v-69v-82q27 -1 58 -1h31q48 1 87 1q43 2 77 3t85 5l-12 -102l-53 3q-17 1 -52 1q-37 0 -59.5 1t-37.5 1h-27h-27h-70v-109v-33v-59 q0 -31 1 -55.5t3 -28.5q0 -57 14 -84q10 -18 35 -26q20 -7 55 -7q9 0 19 1q49 0 93 6t77 18q68 29 80 84l10 45l61 -12l-43 -199l-16 -16l-627 6v53h19q20 0 26.5 8.5t8.5 38.5q2 25 4 48.5t3 50t2 59.5t1 76v448q0 55 -2 77t-10 36q-12 23 -50 23h-41z" />
<glyph unicode="f" horiz-adv-x="792" d="M63 918v53l639 2l19 -12v-197h-64v47q0 23 -5 33t-23 20q-35 18 -78 28.5t-100 10.5q-23 0 -44.5 -2t-56.5 -6q-2 -39 -4 -69.5t-4 -59.5t-2 -58v-69v-96q29 -1 62 -2q17 0 35 1q54 1 98 1q41 2 74.5 3t84.5 5l-10 -102q-41 4 -78 4h-76q-41 0 -94 1h-34q-33 0 -62 -1 v-252v-53q0 -30 8 -52q6 -20 19.5 -31.5t42.5 -11.5h49v-53h-357v53h19q20 0 26.5 8.5t8.5 38.5q2 25 4 48.5t3 50t2 59.5t1 76v448q0 55 -2 77t-10 36q-12 23 -50 23h-41z" />
<glyph unicode="g" horiz-adv-x="1157" d="M68 483q0 147 70.5 261t201.5 180q72 35 158 51q76 15 172 14h24q25 0 65 -2t83 -6t82 -11t61 -18q8 -4 10 -6l13 -20v-201h-72v66q0 27 -21 47q-31 33 -101.5 53t-156.5 22q-186 0 -289 -108q-101 -106 -102 -294q0 -110 31 -198t84 -147q100 -106 278 -111q43 0 79 8.5 t65 20.5q23 10 30 20.5t11 24.5q2 4 4 18.5t2 22.5q2 23 1 38t-3 32q0 16 -2 20v13q0 9 -2 32t-11.5 31t-31.5 10h-29h-51v60h366v-52h-15q-11 0 -13 -2q-10 -4 -16.5 -14t-10.5 -39q-2 -14 -3 -32.5t-1 -41.5v-82v-82l-14 -20q-92 -29 -190.5 -43t-196.5 -14 q-121 0 -230.5 31.5t-187.5 109.5q-68 66 -104.5 159t-36.5 199z" />
<glyph unicode="h" horiz-adv-x="1261" d="M63 918v53h347v-53h-23q-20 0 -27.5 -8.5t-11.5 -37.5q-4 -35 -6 -104.5t-2 -134.5v-82q41 0 83 -1t83 -1h268q37 0 74 1t74 1v231q0 51 -2 71.5t-9 37.5q-10 27 -51 27h-41v53h346v-53h-24q-18 0 -24.5 -8.5t-10.5 -37.5q-4 -35 -7 -104.5t-3 -134.5l2 -451 q0 -45 2 -67.5t6 -34.5q10 -27 51 -27h41v-53h-348v53h29q18 0 23 8.5t9 38.5q4 35 7.5 102.5t3.5 131.5l-2 133q-35 0 -71 1t-71 1h-272q-41 0 -83 -1t-83 -1v-285q0 -45 2 -67.5t8 -34.5q10 -27 51 -27h41v-53h-348v53h25q20 0 27.5 8.5t11.5 38.5q4 35 6 102.5t2 131.5 v448q0 51 -2 71.5t-6 37.5q-10 27 -54 27h-41z" />
<glyph unicode="i" horiz-adv-x="518" d="M70 918v53h358v-53h-35q-20 0 -27.5 -8.5t-11.5 -39.5q-2 -16 -3 -42.5t-2 -59.5t-2 -67.5t-1 -67.5v-451q0 -45 2 -67.5t8 -34.5q10 -27 52 -27h41v-53h-359v53l35 -2q20 0 27.5 8.5t11.5 40.5q4 35 6 102.5t2 131.5v448q0 51 -2 71.5t-6 37.5q-10 27 -53 27h-41z" />
<glyph unicode="j" horiz-adv-x="518" d="M-57 -420l32 23q59 37 96.5 79t61.5 93q20 43 29.5 90t13.5 104q4 49 5 101.5t1 107.5l2 594q0 51 -3 75.5t-9 39.5q-6 16 -19.5 22t-46.5 6h-47v54h363v-54h2h-15q-11 0 -16 -2q-14 -4 -21 -27.5t-7 -74.5q-2 -6 -3.5 -53t-1.5 -104.5t-1 -108.5t-1 -62v-81v-105 q0 -53 1 -94t1 -47q0 -18 1 -32.5t1 -47.5q0 -29 -1 -53.5t-3 -49.5q-8 -121 -61 -204q-51 -84 -132 -138.5t-167 -95.5l-25 -12z" />
<glyph unicode="k" horiz-adv-x="1036" d="M63 918v53h340v-53l-16 -3q-20 0 -27.5 -7t-9.5 -36q-2 -27 -4 -50t-3 -51t-2 -61.5t-1 -78.5v-162l217 236q12 14 29.5 34.5t35 42t30 43t16.5 39.5q6 23 -5.5 38.5t-48.5 15.5h-41v53h353v-53h-21q-12 0 -33.5 -15.5t-44 -37t-41 -43t-28.5 -31.5l-185 -195l-2 -10 q27 -29 55.5 -69t63.5 -91l90 -131q27 -39 54.5 -80t56.5 -82q23 -29 52.5 -55.5t64.5 -26.5h36v-51l-266 -6l-22 8q-2 4 -11.5 18.5t-11.5 18.5q-23 37 -43 77t-49 81l-78 118q-29 47 -56.5 82t-43.5 52q-20 20 -45 -9l-33 -39q-25 -29 -35 -53t-10 -80q0 -25 1 -66.5 t1 -66.5q2 -47 14.5 -64.5t44.5 -17.5h41v-53h-340v53h19q20 0 26.5 8.5t8.5 38.5q2 25 4 48.5t3 50t2 59.5t1 76v448q0 55 -2 77t-10 36q-12 23 -50 23h-41z" />
<glyph unicode="l" horiz-adv-x="821" d="M63 918v53h359v-53h-31q-25 0 -32 -7.5t-11 -40.5t-6 -102.5t-2 -134.5v-416q0 -39 1 -62.5t9 -39.5q8 -27 33 -38t80 -11q53 0 97 6t77 20q70 27 84 92l10 45l64 -10l-45 -209l-19 -16l-629 6v53h19q20 0 26.5 8.5t8.5 38.5q2 25 4 48.5t3 50t2 59.5t1 76v448 q0 55 -2 77t-10 36q-12 23 -50 23h-41z" />
<glyph unicode="m" horiz-adv-x="1398" d="M72 915v56l278 2q12 -35 24.5 -64.5t28.5 -58.5t35 -62.5t41 -76.5l217 -398l213 398q25 49 42.5 81.5t30.5 60.5t24.5 54.5t23.5 63.5h242v-53h-16q-11 0 -15 -3q-18 -6 -24.5 -34.5t-6.5 -96.5q-4 -14 -4 -40.5t2 -59.5q2 -31 4 -59.5t2 -44.5l15 -322v-27v-38 q0 -20 1 -39t3 -31q4 -33 17.5 -51.5t41.5 -18.5h41v-53h-329v51h14q10 0 14 2q10 4 17 31q4 23 4 52v61q0 31 -1 58.5t-3 45.5l-13 455l-223 -420q-35 -66 -61.5 -116t-49.5 -105h-98q-12 27 -21.5 48t-21.5 44.5t-29.5 54.5t-42.5 76l-206 373q-2 -127 -4.5 -200 t-4.5 -119t-2 -79v-82q0 -66 5.5 -101.5t15.5 -51.5q16 -25 49 -25h39v-53h-277v53h17q8 0 12 2q8 2 14.5 14.5t10.5 41.5q2 23 3 40l2 34q1 17 2 41t1 59q6 133 10 206.5t6 119.5t3 80t1 85q0 84 -12 111.5t-61 27.5h-41z" />
<glyph unicode="n" horiz-adv-x="1259" d="M63 913v56l304 4q10 -14 29.5 -41t31.5 -41l504 -592l61 -72l-2 258v59q0 42 -1 89t-2 86t-3 45q-2 47 -11 81t-22 52q-10 10 -22 15.5t-35 5.5h-41v53h303v-53v-3h-31q-10 -4 -14 -15t-8 -40q-2 -25 -3 -44t-2 -41.5t-1 -52.5v-77v-514v-75q0 -40 2 -74l-129 2 q-16 20 -41 52t-47 56l-492 570l-96 102l4 -281v-57q0 -43 1 -90t2 -85t1 -44q2 -47 11.5 -81t23.5 -52q10 -10 22.5 -15.5t34.5 -5.5h41v-53h-303l-2 53h31q10 4 14 15.5t8 40.5q2 25 4 44t3.5 41.5t1.5 52.5v77v417q0 59 -4.5 89t-14.5 51q-18 33 -68 32h-43z" />
<glyph unicode="o" horiz-adv-x="1226" d="M68 471q0 119 39.5 215t113.5 165t179.5 105.5t234.5 36.5q121 0 217 -33.5t164.5 -96t105.5 -152.5t37 -203q0 -117 -42 -214t-116.5 -168t-179 -111t-229.5 -40q-119 0 -215 36t-165 101.5t-106.5 156.5t-37.5 202zM272 512q0 -217 92.5 -341t256.5 -124q88 0 151.5 35 t104.5 92t60 132t19 153h-2q0 217 -92 339t-258 122q-76 0 -137 -29t-104.5 -83t-67 -129t-23.5 -167z" />
<glyph unicode="p" horiz-adv-x="880" d="M63 918v53l371 -2q76 0 150.5 -1t144.5 -42q49 -29 77 -81t28 -118l-3 2q0 -123 -90 -209q-41 -37 -89 -58.5t-100 -32.5t-106.5 -15t-105.5 -6v-226q0 -43 2 -68.5t9 -39t19.5 -17.5t30.5 -4h50v-53h-349v53h19q20 0 26.5 8.5t8.5 38.5q2 25 4 48.5t3 50t2 59.5t1 76 v448q0 55 -2 77t-10 36q-12 23 -50 23h-41zM336 492q29 -4 48 -6h13q13 0 27 1q98 0 158.5 56.5t60.5 156.5v2q0 94 -52 149.5t-151 55.5q-14 0 -36.5 -2t-53.5 -8q-10 -70 -11 -130t-1 -134z" />
<glyph unicode="q" horiz-adv-x="1226" d="M68 473q0 121 41 216t116.5 163t180 103.5t233.5 35.5q119 0 215 -33.5t163.5 -96t104.5 -153t37 -202.5q0 -197 -123 -344q-49 -59 -128 -109.5t-165 -60.5l328 -150q127 -57 237.5 -87.5t182.5 -30.5q39 0 73.5 8t57.5 18l20 10l27 -49l-29 -16q-68 -39 -142.5 -68.5 t-141.5 -29.5q-92 0 -175 42t-161 87q-43 25 -100.5 58.5t-114.5 66t-107.5 60.5t-76.5 42q-16 10 -28.5 15t-33.5 7q-111 2 -201 40t-154.5 104.5t-100 157t-35.5 196.5zM272 512q0 -217 92.5 -341t256.5 -124q88 0 151.5 35t104.5 92t60 131t19 152l-2 2q0 217 -92 339 t-258 122q-76 0 -137 -29t-104.5 -83t-67 -129t-23.5 -167z" />
<glyph unicode="r" horiz-adv-x="1003" d="M63 918v53l340 -2q63 0 136 -2t133 -27q53 -20 87 -63t34 -117q0 -90 -62 -148q-27 -27 -56.5 -45t-88.5 -49q29 -14 47 -32.5t35 -43.5q10 -12 18 -25.5t19 -27.5q43 -66 84.5 -129t87.5 -127q57 -82 110 -82h37v-51l-262 -6l-25 8q-10 14 -16 24.5l-14 24.5 q-16 29 -32 59.5t-34 63.5l-82 131q-31 49 -54.5 80t-43 49.5t-39 24.5t-43.5 6q-6 0 -16.5 -1t-22.5 -1v-281q0 -53 2 -71.5t8 -30.5q8 -27 51 -27h41v-53h-340v53h19q20 0 26.5 8.5t8.5 38.5q2 25 4 48.5t3 50t2 59.5t1 76v448q0 55 -2 77t-10 34q-12 25 -50 25h-41z M338 618.5q0 -67.5 2 -90.5q12 -2 24.5 -2t24.5 -2h7q93 0 150 54q58 55 58 151q0 82 -47 128t-133 48q-12 0 -27.5 -1t-44.5 -5q-2 -16 -2 -24.5t-4 -18.5v-19q0 -11 -2 -40q-6 -111 -6 -178.5z" />
<glyph unicode="s" horiz-adv-x="804" d="M88 698q0 63 27.5 116.5t78 91.5t119 59.5t148.5 21.5q51 0 89 -5t97 -17l15 -21v-176h-64l-2 49q0 31 -27 55q-49 39 -143 39q-80 0 -129 -41t-49 -106q0 -39 18.5 -67.5t46 -50t60.5 -37t61 -29.5q53 -25 107.5 -52.5t99.5 -64.5q84 -68 84 -180v-2q0 -66 -28.5 -121.5 t-80 -96t-122 -63.5t-152.5 -23q-55 0 -110.5 7.5t-110.5 15.5l-17 18l-6 203l62 2l2 -37q0 -53 45 -86q27 -23 67.5 -34t83.5 -13q90 0 145.5 45t55.5 117q0 41 -22.5 75t-65.5 64q-25 16 -54.5 30.5t-60.5 31.5l-63 31q-31 15 -55 32q-66 37 -108 91t-42 128z" />
<glyph unicode="t" horiz-adv-x="929" d="M14 756v202l19 13h305h324h233l20 -13v-202h-63v49q0 39 -18.5 53t-59.5 27q-29 10 -51.5 13t-60.5 1h-50q-25 0 -49 -2q-2 -39 -4 -68.5t-4 -57.5t-2 -57v-71l-2 -442q0 -57 2 -82t10 -39q8 -27 58 -27h41v-53h-379v53h51q18 0 24.5 8.5t10.5 38.5q2 25 4 48.5t3 50 t1 59.5v76l-2 424v30q0 18 -1 39t-2 40.5t-1 31.5q-27 2 -52 2h-51q-39 0 -61.5 -3t-48.5 -11q-41 -12 -60.5 -27.5t-19.5 -52.5v-51h-64z" />
<glyph unicode="u" horiz-adv-x="1271" d="M59 918v53h340v-53l-18 -3q-20 0 -26.5 -8t-8.5 -37q-2 -27 -4 -50t-3 -51t-2 -60.5t-1 -75.5v-166q0 -53 2 -92t7 -69t12.5 -51.5t17.5 -41.5q29 -57 91 -89t142 -34q72 0 140.5 26.5t117.5 71.5q29 27 39 63t10 109v422q0 55 -3 77t-9 36q-12 23 -49 23h-41v53h340v-53 l-18 -3q-20 0 -26.5 -8t-8.5 -37q-2 -27 -4 -50t-3 -51t-2 -60.5t-1 -75.5v-283q0 -66 4 -131t10 -102q12 -63 63 -64h41v-53l-270 -6l-12 14l-2 131q-23 -14 -53.5 -33.5t-47.5 -29.5q-68 -43 -137.5 -69.5t-163.5 -26.5q-49 0 -96 10t-90 30.5t-77 52t-54 74.5 q-14 29 -22.5 52.5t-12.5 56.5t-6 80t-2 123v323q0 55 -2 77t-10 36q-12 23 -50 23h-41z" />
<glyph unicode="v" horiz-adv-x="1048" d="M-6 915v56h340v-53h-15q-23 0 -22 -27q0 -10 7 -37t22 -63q18 -51 30.5 -89t24.5 -74t26.5 -75t33 -92t44 -126t62.5 -175l235 549q14 33 27.5 68.5t17.5 64.5q4 35 -6 55.5t-49 20.5h-43v53h307v-53h-16q-8 0 -12 -5q-8 0 -17 -8q-12 -16 -33 -59q-10 -20 -20 -42 t-20 -40q-29 -61 -54.5 -119.5t-38.5 -87.5q-25 -53 -77 -169t-142 -312q-2 -6 -7 -19.5t-10 -28t-9.5 -27.5t-6.5 -19h-153q-4 16 -12.5 47.5t-12.5 46.5l-252 672q-10 29 -21 56t-28 56q-31 55 -69 55h-31z" />
<glyph unicode="w" horiz-adv-x="1497" d="M23 915v56h337v-53h-16q-16 0 -20.5 -10.5t-6.5 -24.5q0 -16 5.5 -49t11.5 -60l131 -588l242 594q2 4 6 17.5t10 28t10 27.5t6 19h125q0 -6 4 -18t10 -26l10 -26q5 -13 7 -22l231 -600l109 498q10 41 17.5 85t7.5 79q0 41 -15.5 58.5t-52.5 17.5h-41v53h311v-53h-18 q-20 0 -26.5 -7.5t-16.5 -38.5q-12 -33 -21.5 -60.5t-18.5 -56t-18 -61.5l-18 -73l-133 -547q-4 -16 -10 -46t-11 -46h-151l-15 46q-9 28 -14 33l-231 603l-252 -594q-2 -6 -6 -17.5t-9.5 -26t-8.5 -26.5t-5 -18h-147q-2 14 -7.5 43.5t-9.5 40.5l-161 696q-10 37 -16.5 58.5 t-16.5 43.5q-12 29 -27.5 40t-40.5 11h-30z" />
<glyph unicode="x" horiz-adv-x="1015" d="M16 0v53h19q25 0 80 68q27 31 56.5 70.5t64.5 84.5l170 213l-3 11l-174 252q-20 29 -39.5 58.5t-44.5 55.5q-20 23 -40.5 36t-45.5 13h-32v56h368v-53h-12q-27 0 -27 -21q0 -12 10.5 -32.5t25 -43t27.5 -42t19 -31.5l103 -150l102 133q10 12 24.5 31.5t28 41t21.5 43 t8 38.5q-4 33 -51 33h-45v53h325v-53h-16q-16 0 -38.5 -20.5t-51.5 -55.5q-29 -33 -56.5 -68t-50.5 -63l-145 -183l2 -8l217 -309q23 -33 44.5 -60.5t39.5 -50.5q45 -47 76 -47h33v-53h-365v53l16 2q12 0 15.5 7.5t1.5 16.5t-7 18t-10 16q-47 80 -75 120q-10 16 -44 67.5 t-81 121.5l-123 -168q-10 -14 -33.5 -46t-39 -65.5t-10.5 -59.5t52 -28l43 -2v-53h-332z" />
<glyph unicode="y" horiz-adv-x="983" d="M-2 915v56h354v-53h-14q-18 0 -19 -17q0 -12 8.5 -33.5t20.5 -43t24.5 -41t18.5 -31.5l141 -236l140 195q6 10 18 26.5t24.5 36t23 42t14.5 40.5q6 29 -5.5 45.5t-46.5 16.5h-43v53h330v-53h-16q-16 0 -28.5 -9.5t-35.5 -38.5q-29 -35 -42 -51t-25 -33 q-10 -14 -24.5 -33.5t-45.5 -60.5l-154 -207q-27 -39 -34 -64.5t-7 -72.5v-164q0 -45 2.5 -67.5t6.5 -36.5q10 -27 51 -27h41v-53h-359v53h37q20 0 31 25q10 27 11 73t1 74l2 125q0 27 -1 39t-5 23q-2 10 -12 26q-53 86 -104.5 169t-104.5 169q-37 59 -70 101q-37 39 -71 38 h-33z" />
<glyph unicode="z" horiz-adv-x="968" d="M70 82q18 25 43 53q12 16 22 28.5t15 20.5l397 578l84 131q-41 4 -65.5 5t-65.5 1q-31 0 -66 -1t-68.5 -5t-65.5 -11.5t-56 -19.5q-16 -8 -20.5 -17t-4.5 -34v-20q0 -10 -1 -20.5t-1 -25.5h-67v213l14 13l659 -2l31 -82q-8 -10 -20.5 -23.5t-26.5 -29.5l-22 -29 q-9 -12 -13 -19l-379 -544q-31 -45 -45 -71t-12 -46q0 -31 32.5 -44t120.5 -13q117 0 189 12t113 41q16 10 27 28.5t22 51.5l10 37l61 -13l-51 -217l-12 -12l-748 6z" />
<glyph unicode="{" horiz-adv-x="819" d="M135 496q2 18 3 33.5t-3 37.5l29 -2q51 -2 81.5 14.5t46 45t19.5 67.5t4 78l-2 225q0 72 14.5 141.5t48.5 124t89 87t135 32.5q23 0 41 -2t47 -6q-4 -18 -8 -37.5t-2 -34.5q-41 10 -68 9q-51 0 -79.5 -21.5t-42 -54.5t-17.5 -73t-4 -75l-6 -254q-2 -98 -44 -177 t-134 -117v-11q92 -39 134 -118.5t46 -178.5l4 -254q0 -35 4 -74.5t17.5 -72.5t42 -54.5t79.5 -21.5q14 0 28.5 2t37.5 8q0 -14 4 -33.5t8 -39.5l2 2q-29 -4 -47 -6t-43 -2q-80 0 -135 32.5t-89 87t-48.5 124t-14.5 141.5l2 225q0 41 -4 79t-19.5 66.5t-46 46t-81.5 13.5z " />
<glyph unicode="|" horiz-adv-x="409" d="M152 -10v1341h106v-1341h-106z" />
<glyph unicode="}" horiz-adv-x="819" d="M133 -309q6 18 10 37.5t4 33.5q23 -6 37.5 -8t28.5 -2q51 0 80 21.5t43 54.5t17 73t3 74l4 254q4 98 46.5 177t134.5 118v13q-92 39 -134 118.5t-45 178.5l-6 251q0 35 -3 75t-17 73t-43 54.5t-80 21.5q-27 2 -68 -9q2 14 -2 34t-8 38q29 4 47.5 6t40.5 2 q80 0 135.5 -32.5t89 -87t48 -124t14.5 -141.5l-2 -225q0 -39 4 -78t19.5 -67.5t46 -45t81.5 -14.5l29 2q0 -18 -1 -33.5t3 -37.5l-31 2q-51 4 -81.5 -13.5t-46 -46t-19.5 -66.5t-4 -79l2 -225q0 -72 -14.5 -141.5t-48 -124t-89 -87t-135.5 -32.5q-25 0 -43 2t-47 6z" />
<glyph unicode="~" d="M188 586q41 59 83 85.5t96 26.5q59 0 117.5 -30.5t109.5 -51.5q31 -12 57 -12q35 0 66 20.5t65 63.5l52 -94h2q-90 -109 -187 -111q-39 0 -73.5 14.5t-67.5 33t-67.5 33t-73.5 14.5q-29 0 -50.5 -13.5t-37.5 -32.5l-37 -43z" />
<glyph unicode="&#xa1;" horiz-adv-x="512" d="M133 -563q10 127 21.5 270t21.5 290.5t18.5 291t12.5 272.5l90 8q8 -125 15 -267t16.5 -286.5t20.5 -285t30 -265.5zM152 815v2q0 70 26.5 94.5t97.5 24.5q59 0 69.5 -23.5t8.5 -74.5q0 -33 -3 -54.5t-12 -35t-27.5 -19.5t-51.5 -10q-33 -2 -53.5 -2t-32.5 9t-17 29.5 t-5 59.5z" />
<glyph unicode="&#xa2;" d="M162 670q0 92 23.5 172t68.5 142.5t107.5 105.5t138.5 61v50v26q0 12 -1 35.5t-1 85.5l90 24q-2 -63 -3 -90t-1 -39t1 -25.5t1 -54.5q45 4 89 -1t85 -21t60.5 -39t15.5 -64q-4 -59 -30 -81.5t-73 -26.5l-20 -2l-11 6q-2 8 -5 18.5t-7 20.5q-4 12 -8 20q-33 66 -98 80 l2 -715q12 0 20 2q104 2 189 64l53 39l43 -57l-53 -56q-115 -115 -254 -139v-58v-29q0 -13 1 -42t1 -100l-90 -23q0 80 1 111.5t1 47t1 31t1 60.5h-17q-70 8 -129 46t-101 98.5t-66.5 141.5t-24.5 175zM324 735q0 -156 59 -252q43 -74 115 -104h2l-2 690q-82 -23 -129 -111 t-45 -223z" />
<glyph unicode="&#xa3;" d="M8 -16q31 55 50.5 83.5t45.5 53.5q35 35 70 50t88 19q29 31 54.5 61t45 62.5t30.5 70.5t11 85q0 72 -19 151.5t-36 149.5q-45 0 -74.5 -1t-53 -2t-45 -2t-52.5 -3l27 96h178q-8 20 -14.5 52t-6.5 61q0 88 36 167t95.5 137t137 92t161.5 34q174 0 174 -105 q0 -57 -27.5 -89.5t-88.5 -41.5l-13 9q-14 53 -51 87.5t-96 34.5q-74 0 -117 -62.5t-43 -172.5q0 -47 11.5 -96.5t27.5 -102.5q84 0 132 1t75 1h40h26h34h64l-41 -92q-78 4 -154 5t-153 -3q6 -25 15 -57.5t17.5 -68.5t14.5 -70.5t6 -61.5q0 -59 -25.5 -105t-63.5 -86 t-81 -74t-78 -69q33 -6 99.5 -17t125.5 -22q68 -10 107 -13t67 -3q41 0 71 9t53.5 27.5t43 47.5t39.5 65l60 -34q-29 -53 -52.5 -95.5t-52.5 -76.5q-35 -43 -66.5 -66.5t-65.5 -32t-73 -4.5t-88 19l-250 71q-49 12 -90 16.5t-76.5 -7t-68.5 -38t-66 -75.5z" />
<glyph unicode="&#xa4;" d="M158 590q0 61 20.5 117.5t54.5 99.5l-73 74l80 77l65 -84q90 66 205 66q117 0 207 -66l67 84l80 -77l-73 -74q35 -43 55 -99.5t20 -117.5t-20.5 -117.5t-54.5 -99.5l73 -74l-80 -78l-67 84q-90 -66 -203 -65q-117 0 -207 65l-67 -84l-80 78l73 74q-35 43 -55 99.5 t-20 117.5zM250 592q0 -59 21.5 -109.5t58.5 -87.5t84 -58.5t98 -21.5t98 21.5t83 58.5t57.5 87t21.5 108q0 57 -21.5 107.5t-57.5 87t-83 58t-98 21.5t-99 -21.5t-84 -58t-57.5 -87t-21.5 -105.5z" />
<glyph unicode="&#xa5;" d="M-2 1366h408l2 -55h-74q-37 0 -35 -37t21.5 -83t43 -88t29.5 -54l148 -287l57 86q37 55 76 116.5t71.5 121t47.5 96.5q10 25 12 48t-5 41.5t-24.5 29t-50.5 10.5h-53l-2 55h370l2 -55l-2 -2q-14 0 -25 -9.5t-26.5 -30t-38 -55t-59.5 -86.5q-27 -37 -76 -109.5t-96 -148 t-83 -135t-36 -71.5h172q86 0 174 6l-20 -97q-86 4 -167 5.5t-165 -0.5q-4 -84 -3 -168t-1 -162q0 -63 3 -96t11 -54q16 -43 76 -43h45l2 -55h-430l-2 55h49q29 0 41 23.5t16 52.5q4 31 4.5 62.5t2.5 50.5q2 82 2 130v73v37v22v25v49h-179q-88 0 -180 -5l25 93q82 -4 163 -4 h160q-10 23 -24.5 46t-38.5 70l-193 361q-51 96 -80.5 132t-62.5 36z" />
<glyph unicode="&#xa6;" horiz-adv-x="409" d="M152 -6v506h106v-506h-106zM152 657v504h106v-504h-106z" />
<glyph unicode="&#xa7;" d="M102 856q0 94 34 189.5t98.5 171t155.5 124t206 48.5q63 0 112.5 -8.5t106.5 -24.5l16 -23v-254h-88v109q0 16 -11 33.5t-40 33.5q-25 16 -58.5 29.5t-80.5 13.5q-82 0 -121 -43t-39 -96q0 -41 19.5 -80t54.5 -78.5t82 -84t102 -97.5q78 -72 131.5 -136.5t86 -131 t45 -138t6.5 -159.5h-2q-8 -102 -48.5 -196.5t-106 -166t-151.5 -114.5t-186 -43q-80 0 -158 12t-131 23l-18 26v328h88v-60q0 -100 54 -169.5t173 -69.5q29 0 63.5 10t64.5 30.5t49.5 52.5t19.5 75q0 59 -23.5 106t-62.5 90t-88 84t-101 88q-72 68 -121 123.5t-78.5 110.5 t-42 117.5t-12.5 144.5zM205 918q-2 -57 6 -109.5t34.5 -107t77 -114t132.5 -128.5q80 -68 135 -124t88 -110.5t45 -111t6 -123.5q51 51 67.5 114.5t20.5 122.5q4 70 -10 130.5t-45 115.5t-78 108.5t-106 110.5q-82 78 -136.5 136.5t-86 109.5t-43 102.5t-9.5 116.5 q-23 -18 -40 -49t-30.5 -64.5t-20.5 -66t-7 -59.5z" />
<glyph unicode="&#xa8;" d="M231 1288q0 37 3.5 58.5t14.5 34t31.5 17.5t57.5 9q59 8 80.5 -8.5t21.5 -75.5q0 -82 -25.5 -110.5t-99.5 -28.5q-31 0 -48 7t-25.5 20.5t-9.5 32.5t-1 44zM584 1288q0 37 3 58.5t13 34t31.5 17.5t58.5 9q59 8 81 -8.5t22 -75.5q0 -82 -26 -110.5t-99 -28.5 q-33 0 -49.5 7t-24.5 20.5t-9 32.5t-1 44z" />
<glyph unicode="&#xa9;" horiz-adv-x="1638" d="M111 684q0 150 55 281t151.5 229t225.5 154.5t274 56.5t274.5 -56.5t226.5 -153.5t153.5 -226t56.5 -277q0 -154 -55.5 -287t-150.5 -231t-225 -154.5t-278 -56.5q-145 0 -274 56.5t-225.5 154.5t-152.5 229t-56 281zM215 684q0 -131 47 -245.5t129 -199.5t192.5 -134.5 t235.5 -49.5q123 0 233.5 49.5t192.5 134.5t129 197.5t47 239.5h2q0 133 -47 249.5t-128 202.5t-191.5 135.5t-237.5 49.5q-125 0 -234.5 -49.5t-191.5 -135.5t-130 -200.5t-48 -243.5zM428 700q0 102 44 183.5t130 134.5q53 35 119.5 51t152.5 16q53 0 105.5 -5t103.5 -25 l13 -17v-141h-54v41q0 20 -20 35q-23 23 -71 37t-107 14q-129 0 -204 -82t-77 -223q0 -68 17.5 -131.5t53.5 -111.5t92 -76.5t132 -28.5q61 0 120.5 20.5t84.5 79.5l14 33l49 -17l-43 -135l-10 -10q-55 -18 -118.5 -24.5t-120.5 -6.5q-92 0 -166 28t-127.5 79t-83 122.5 t-29.5 159.5z" />
<glyph unicode="&#xaa;" horiz-adv-x="706" d="M106 561q0 82 60 131q14 12 30.5 20.5t43 17.5t65.5 19.5t101 24.5q27 6 35 12.5t10 24.5v18v39q0 115 -93 117q-92 0 -92 -90v-16l-6 -11q-12 -4 -18 -5t-13 -3q-57 0 -61 68q0 18 9 30.5t28 26.5q117 88 217 88q156 0 156 -160v-245q0 -115 18 -158t57 -43h39v-49 l-211 -10l-12 14l-10 74q-47 -35 -90 -65t-105 -32q-70 0 -115 45t-43 117zM242 586q0 -37 22.5 -59.5t59.5 -24.5q29 0 55.5 12t44.5 33q10 10 15 23.5t10 27.5q2 12 2 25v26v64q-51 -10 -76 -15.5t-49 -13.5q-84 -24 -84 -98z" />
<glyph unicode="&#xab;" horiz-adv-x="1228" d="M176 522q0 16 10 33q8 10 29 29.5t65 57.5t116.5 98.5t185.5 152.5l47 -62q-35 -39 -59.5 -67.5t-50 -60t-58.5 -74.5t-84 -109q49 -66 82 -107.5t58.5 -73.5t50 -59.5t59.5 -66.5h2l-47 -61q-209 172 -369 307q-39 34 -37 63zM600 522q0 16 10 33q8 10 27.5 28.5 t62.5 55.5t117 97.5t191 156.5l47 -62q-35 -39 -59.5 -67.5t-50 -60t-58.5 -74.5t-84 -109q49 -66 82 -107.5t58.5 -73.5t51 -59.5t60.5 -66.5l-47 -61q-104 86 -196.5 162.5t-170.5 144.5q-23 18 -31 32.5t-10 30.5z" />
<glyph unicode="&#xac;" d="M66 643v107h895v-119v-328h-107v340h-788z" />
<glyph unicode="&#xad;" horiz-adv-x="512" d="M14 487l35 146q53 0 107.5 -3t107.5 -3q59 0 116.5 3t117.5 3l-25 -146q-53 0 -106.5 3.5t-106.5 3.5q-61 0 -123 -3.5t-123 -3.5z" />
<glyph unicode="&#xae;" horiz-adv-x="1638" d="M111 684q0 150 55 281t151.5 229t225.5 154.5t274 56.5t274.5 -56.5t226.5 -153.5t153.5 -226t56.5 -277q0 -154 -55.5 -287t-150.5 -231t-225 -154.5t-278 -56.5q-145 0 -274 56.5t-225.5 154.5t-152.5 229t-56 281zM215 684q0 -131 47 -245.5t129 -199.5t192.5 -134.5 t235.5 -49.5q123 0 233.5 49.5t192.5 134.5t129 197.5t47 239.5h2q0 133 -47 249.5t-128 202.5t-191.5 135.5t-237.5 49.5q-125 0 -234.5 -49.5t-191.5 -135.5t-130 -200.5t-48 -243.5zM518 1049v45h205h107q58 0 106 -17q43 -14 70.5 -47t27.5 -98q0 -68 -43 -117 q-18 -18 -37.5 -31.5t-66.5 -42.5q10 -6 20 -18q10 -10 19.5 -22.5t19.5 -24.5l60 -90l84 -125q49 -74 92 -74h30v-45l-176 -4l-20 6q-20 31 -36.5 62.5t-37.5 60.5l-68 108q-25 41 -43 66t-33.5 38t-28.5 17t-32 4h-28l2 -217q0 -45 2 -57t4 -23q6 -16 35 -16h32l2 -45 h-239v45h16q12 0 16.5 5t6.5 28q2 12 3 30.5t1 41.5q2 27 2 54v52l2 348q0 41 -1 57.5t-5 26.5q-6 18 -37 19h-33zM709 756q16 -2 24 -2h17q72 0 115.5 43t43.5 112q0 59 -35.5 94t-99.5 33h-22q-12 0 -33 -2q-2 -20 -3 -39.5t-1 -40.5q-4 -92 -5 -138t-1 -60z" />
<glyph unicode="&#xaf;" d="M242 1176v135h540v-135h-540z" />
<glyph unicode="&#x2c9;" d="M242 1176v135h540v-135h-540z" />
<glyph unicode="&#xb0;" d="M227 1157q0 59 22.5 111.5t60.5 91.5t90.5 61.5t109.5 22.5q59 0 111.5 -22.5t91.5 -61.5t61.5 -91t22.5 -112q0 -59 -22.5 -111.5t-60.5 -90t-90.5 -60.5t-111.5 -23t-110.5 23t-90.5 60.5t-61.5 90t-22.5 111.5zM336 1157q0 -72 51 -122t127 -50q37 0 68.5 13.5t54 37 t36 54t13.5 67.5h2q0 74 -51 125t-123 51q-37 0 -68.5 -14t-56 -38t-39 -55.5t-14.5 -68.5z" />
<glyph unicode="&#xb1;" d="M121 145v107h782v-107h-782zM121 651v107h340v323h106v-323h336v-107h-336v-323h-106v323h-340z" />
<glyph unicode="&#xb2;" horiz-adv-x="778" d="M43 1235q66 82 143.5 124t186.5 42q66 0 121 -22.5t95 -61.5t62.5 -92.5t22.5 -114.5q0 -78 -43 -157t-107 -152q-66 -78 -137 -144q-35 -35 -67.5 -65.5t-63.5 -59.5h217q59 0 103.5 5.5t107.5 9.5l-51 -139q-49 2 -98 2h-99h-375l-16 65q78 59 152.5 118.5t140.5 131.5 q68 76 114 163t44 185q0 43 -12.5 83t-37 69.5t-60.5 48t-83 18.5q-57 0 -105 -23.5t-94 -80.5z" />
<glyph unicode="&#xb3;" horiz-adv-x="778" d="M78 346v76q27 -2 38 -2h21q84 0 156 23.5t125 63.5t82.5 94t29.5 114q0 84 -58 130t-183 46h-25q-12 0 -28.5 -1t-38 -2t-54.5 -3l27 96h43q18 0 29 2q45 2 85 16.5t70.5 39t48 58t17.5 72.5q0 57 -41 96.5t-107 39.5q-20 0 -39.5 -3.5t-39 -11.5t-40 -23.5t-46.5 -37.5 l-56 47q33 33 62.5 56.5t62.5 40t70 23.5t82 7q111 0 183.5 -52.5t72.5 -140.5q0 -76 -53.5 -129t-116.5 -94q106 -14 168.5 -77.5t62.5 -164.5h-2q0 -82 -46 -154.5t-123 -126.5t-178 -86t-212 -32h-49z" />
<glyph unicode="&#xb4;" d="M268 1042q39 41 81 88.5t80 97.5t68.5 102t49.5 106l209 -47l-2 -23q-47 -39 -105.5 -87t-119 -99.5t-117 -99.5t-99.5 -85z" />
<glyph unicode="&#xb5;" d="M33 846v49l286 18l13 -10q-4 -35 -7 -58.5t-3 -33.5q-6 -98 -7 -197v-196q0 -45 4.5 -94.5t18.5 -92.5q16 -53 54 -87.5t108 -34.5q53 0 87 22.5t68 63.5q16 16 26.5 33.5t17 41t9.5 55t3 76.5l-2 261q-2 106 -21.5 145t-79.5 39h-41v49l307 18l13 -10q-4 -35 -7 -58.5 t-3 -35.5q-8 -115 -7.5 -228.5t0.5 -228.5q0 -129 15 -192q10 -59 32.5 -83t61.5 -24h22v-49l-262 -14l-10 10l-12 154q-35 -31 -67 -61t-64.5 -53.5t-69.5 -38.5t-82 -15q-23 0 -62.5 5t-56.5 9v-295q0 -82 17.5 -114.5t62.5 -32.5h37v-50h-344v50h12q23 0 31 10t12 45 t7.5 112.5t3.5 149.5v787q0 106 -20.5 145t-80.5 39h-20z" />
<glyph unicode="&#x3bc;" d="M33 846v49l286 18l13 -10q-4 -35 -7 -58.5t-3 -33.5q-6 -98 -7 -197v-196q0 -45 4.5 -94.5t18.5 -92.5q16 -53 54 -87.5t108 -34.5q53 0 87 22.5t68 63.5q16 16 26.5 33.5t17 41t9.5 55t3 76.5l-2 261q-2 106 -21.5 145t-79.5 39h-41v49l307 18l13 -10q-4 -35 -7 -58.5 t-3 -35.5q-8 -115 -7.5 -228.5t0.5 -228.5q0 -129 15 -192q10 -59 32.5 -83t61.5 -24h22v-49l-262 -14l-10 10l-12 154q-35 -31 -67 -61t-64.5 -53.5t-69.5 -38.5t-82 -15q-23 0 -62.5 5t-56.5 9v-295q0 -82 17.5 -114.5t62.5 -32.5h37v-50h-344v50h12q23 0 31 10t12 45 t7.5 112.5t3.5 149.5v787q0 106 -20.5 145t-80.5 39h-20z" />
<glyph unicode="&#xb6;" d="M43 887q0 106 36 197.5t103 156.5q72 68 163 97.5t233 29.5q29 0 50 -1t49 -2t71 -2t114 -1h57q26 0 53 2t60 4t78 6l4 -16l-57 -82q-33 4 -47 4h-43h-103q-6 -55 -6 -110v-111v-467v-75q0 -40 -1 -80t-2 -76.5t-1 -61.5q-2 -66 -8 -119t-15.5 -99t-23.5 -87t-35 -82 q-29 -57 -65.5 -105.5t-77.5 -82t-83 -53t-83 -19.5q-78 0 -78 90q0 76 72 90l8 -2q29 -41 78 -41q29 0 59.5 19.5t52.5 54.5q72 106 72 385v36q0 17 -1 40.5t-2 55.5t-1 79q-45 -12 -77 -19.5t-58.5 -11.5t-50 -5t-52.5 -1q-98 0 -180 33.5t-140.5 94t-90 147t-31.5 190.5z M242 897q59 -49 112.5 -99t102.5 -110q47 59 97 108.5t110 98.5q-59 49 -111.5 97t-103.5 108q-47 -57 -97.5 -107.5t-109.5 -95.5z" />
<glyph unicode="&#xb7;" horiz-adv-x="512" d="M143 506q0 37 3.5 60.5t15.5 37.5t33.5 20.5t58.5 10.5q35 4 57.5 3t34.5 -11.5t17.5 -34t5.5 -64.5q0 -76 -30 -104.5t-110 -28.5q-33 0 -50 6.5t-25.5 20.5t-9.5 34.5t-1 49.5z" />
<glyph unicode="&#x2219;" horiz-adv-x="512" d="M143 506q0 37 3.5 60.5t15.5 37.5t33.5 20.5t58.5 10.5q35 4 57.5 3t34.5 -11.5t17.5 -34t5.5 -64.5q0 -76 -30 -104.5t-110 -28.5q-33 0 -50 6.5t-25.5 20.5t-9.5 34.5t-1 49.5z" />
<glyph unicode="&#xb8;" d="M346 -395q104 84 148.5 157.5t44.5 167.5l18 13q53 -31 87 -66t34 -57q0 -29 -27.5 -62.5t-70.5 -68.5t-94.5 -70t-98.5 -68z" />
<glyph unicode="&#xb9;" horiz-adv-x="778" d="M117 1284l377 121l16 -16l-6 -97q-2 -35 -5 -101.5t-3 -131.5v-471q0 -20 -1 -40t5 -42q4 -16 14 -26.5t35 -10.5h59v-59h-362v59l53 2q16 0 20.5 7t8.5 30q4 33 6 99.5t2 127.5v400v52q0 28 -4 46q-6 37 -45 27l-148 -48z" />
<glyph unicode="&#xba;" horiz-adv-x="786" d="M70 735q0 74 26.5 137.5t73.5 109.5t110.5 72.5t139.5 26.5q147 0 235 -92t88 -246h2q0 -74 -26.5 -138t-73.5 -112.5t-110.5 -75t-137.5 -26.5q-150 0 -237.5 93t-89.5 251zM225 758q0 -137 52.5 -214t138.5 -77t132 62.5t46 181.5q0 141 -51 218t-140 77 q-86 0 -132 -63.5t-46 -184.5z" />
<glyph unicode="&#xbb;" horiz-adv-x="1228" d="M174 213q35 39 59.5 66.5t50 59.5t58.5 74t84 107q-49 66 -82 109t-58.5 74.5t-51 60.5t-60.5 67l47 62q104 -86 196.5 -162t172.5 -145q39 -35 37 -64h2q0 -18 -11 -33q-8 -10 -26.5 -27.5t-61.5 -54t-117.5 -98t-191.5 -157.5zM600 213q35 39 59.5 66.5t50 59.5 t58.5 74t84 107q-49 66 -82 109t-59.5 74.5t-51 60.5t-59.5 67l47 62q104 -86 195.5 -163t169.5 -144q23 -20 32 -33.5t11 -30.5q0 -18 -11 -33q-6 -8 -22 -23t-57 -51t-116 -97.5t-202 -165.5z" />
<glyph unicode="&#xbc;" horiz-adv-x="1843" d="M98 1284l377 121l17 -16l-7 -97q-2 -35 -5 -101.5t-3 -131.5v-471q0 -20 -1 -40t5 -42q4 -16 14.5 -26.5t34.5 -10.5h60v-59h-363v59l54 2q16 0 20 7t8 30q4 33 6 99.5t2 127.5v400v52q0 28 -4 46q-6 37 -45 27l-147 -48zM477 16q207 348 398.5 698.5t384.5 706.5 l102 -57h2q-201 -350 -397.5 -698.5t-386.5 -704.5zM1067 350q94 178 224 337t268 308h102q-6 -100 -6 -176l-2 -422q41 2 83 3t97 10l-35 -123q-41 2 -74.5 3t-68.5 1v-86q0 -47 3 -96.5t7 -108.5h-182q8 66 13 119t5 106l-2 66h-202q-99 0 -207 -4zM1208 399q74 -4 148 -3 t147 1v398q-82 -94 -158 -193t-137 -203z" />
<glyph unicode="&#xbd;" horiz-adv-x="1843" d="M96 1284l377 121l16 -16l-6 -97q-2 -35 -5 -101.5t-3 -131.5v-471q0 -20 -1 -40t5 -42q4 -16 14.5 -26.5t34.5 -10.5h60v-59h-363v59l54 2q16 0 20 7t8 30q4 33 6 99.5t2 127.5v400v52q0 28 -4 46q-6 37 -45 27l-147 -48zM477 16q207 348 398.5 698.5t384.5 706.5 l102 -57h2q-201 -350 -397.5 -698.5t-386.5 -704.5zM1147 823q66 84 143.5 126t188.5 42q66 0 122 -22.5t97 -61.5t63.5 -92t22.5 -115q0 -78 -44 -157.5t-107.5 -154.5t-136.5 -142.5t-128 -118.5h211q59 0 105.5 5t109.5 9l-53 -143q-49 2 -99 2h-100h-377l-14 68 q66 49 144.5 112.5t146 138t114 160.5t46.5 183q0 86 -48.5 151.5t-144.5 65.5q-57 0 -105.5 -24t-93.5 -81z" />
<glyph unicode="&#xbe;" horiz-adv-x="1843" d="M59 346v76q27 -2 38 -2h22q84 0 155.5 23.5t125 63.5t83 94t29.5 114q0 84 -58.5 130t-183.5 46h-24q-12 0 -28.5 -1t-38 -2t-54.5 -3l27 96h43q18 0 28 2q45 2 85 16.5t71 39t48 58t17 72.5q0 57 -41 96.5t-106 39.5q-20 0 -39.5 -3.5t-39 -11.5t-40 -23.5t-47.5 -37.5 l-55 47q33 33 62.5 56.5t62 40t69.5 23.5t82 7q111 0 183.5 -52.5t72.5 -140.5q0 -76 -53 -129t-117 -94q106 -14 169 -77.5t63 -164.5h-2q0 -82 -46.5 -154.5t-123 -126.5t-178 -86t-211.5 -32h-50zM477 16q207 348 398.5 698.5t384.5 706.5l102 -57h2 q-201 -350 -397.5 -698.5t-386.5 -704.5zM1067 350q94 178 224 337t268 308h102q-6 -100 -6 -176l-2 -422q41 2 83 3t97 10l-35 -123q-41 2 -74.5 3t-68.5 1v-86q0 -47 3 -96.5t7 -108.5h-182q8 66 13 119t5 106l-2 66h-202q-99 0 -207 -4zM1206 399q74 -4 147.5 -3t147.5 1 v398q-82 -94 -158 -193t-137 -203z" />
<glyph unicode="&#xbf;" horiz-adv-x="819" d="M47 -266q0 61 23.5 108t58.5 88t76 79t76 79q47 53 86 111.5t39 134.5q-2 43 -14.5 79t-45.5 79v12q14 25 31 45q47 53 106 12q96 -59 97 -164q0 -45 -15.5 -84t-39 -71.5t-53.5 -62t-58 -60.5q-29 -31 -63 -66t-61.5 -73.5t-46 -81.5t-18.5 -88q0 -43 16.5 -83t45 -70 t65.5 -47.5t80 -17.5q102 0 201 107l47 -43q-29 -43 -59.5 -82t-69.5 -66.5t-86 -44t-111 -16.5q-68 0 -124 21.5t-97 59.5t-63.5 91.5t-22.5 114.5zM324 813q0 68 26.5 93.5t98.5 25.5q47 0 63 -16.5t16 -67.5q0 -35 -2 -58.5t-11 -39t-29.5 -22.5t-55.5 -11 q-33 -2 -53.5 -2t-32.5 9t-16 29.5t-4 59.5z" />
<glyph unicode="&#xc0;" horiz-adv-x="1325" d="M-27 0l2 61q4 0 19.5 -1t19.5 3q16 8 40 48.5t63 126.5l141 323l328 744l26 86h150l22 -84l363 -1039q8 -23 23.5 -62.5t37.5 -76.5q16 -29 38 -47.5t48 -18.5h41v-63h-403v61h14q23 0 28 17.5t2 41t-9 46t-11 33.5l-88 268l-28 86l-226 2l-243 -2l-27 -68l-43 -108 l-18 -43q-12 -29 -24.5 -63.5t-20.5 -71.5q-7 -29 -7 -55v-13q2 -31 18.5 -50.5t53.5 -19.5h53v-61h-383zM412 649l200 -2l195 2l-178 514zM329 1817v23l209 47q18 -53 49 -105.5t69 -102.5t80 -97.5t81 -88.5l-45 -47q-43 37 -99.5 85t-117 99.5t-119 99.5t-107.5 87z" />
<glyph unicode="&#xc1;" horiz-adv-x="1325" d="M-27 0l2 61q4 0 19.5 -1t19.5 3q16 8 40 48.5t63 126.5l141 323l328 744l26 86h150l22 -84l363 -1039q8 -23 23.5 -62.5t37.5 -76.5q16 -29 38 -47.5t48 -18.5h41v-63h-403v61h14q23 0 28 17.5t2 41t-9 46t-11 33.5l-88 268l-28 86l-226 2l-243 -2l-27 -68l-43 -108 l-18 -43q-12 -29 -24.5 -63.5t-20.5 -71.5q-7 -29 -7 -55v-13q2 -31 18.5 -50.5t53.5 -19.5h53v-61h-383zM412 649l200 -2l195 2l-178 514zM555 1493q39 41 81 88.5t80 97.5t68.5 102t49.5 106l209 -47l-2 -23q-47 -39 -105.5 -87t-119 -99.5t-117 -99.5t-99.5 -85z" />
<glyph unicode="&#xc2;" horiz-adv-x="1325" d="M-27 0l2 61q4 0 19.5 -1t19.5 3q16 8 40 48.5t63 126.5l141 323l328 744l26 86h150l22 -84l363 -1039q8 -23 23.5 -62.5t37.5 -76.5q16 -29 38 -47.5t48 -18.5h41v-63h-403v61h14q23 0 28 17.5t2 41t-9 46t-11 33.5l-88 268l-28 86l-226 2l-243 -2l-27 -68l-43 -108 l-18 -43q-12 -29 -24.5 -63.5t-20.5 -71.5q-7 -29 -7 -55v-13q2 -31 18.5 -50.5t53.5 -19.5h53v-61h-383zM412 649l200 -2l195 2l-178 514zM336 1493q39 41 84 91.5t85.5 101.5t71.5 98t41 82l158 8q14 -39 46 -89t73 -102t84 -102.5t77 -87.5l-45 -47q-66 55 -148.5 129 t-164.5 144q-82 -68 -167 -141.5t-150 -131.5z" />
<glyph unicode="&#xc3;" horiz-adv-x="1325" d="M-27 0l2 61q4 0 19.5 -1t19.5 3q16 8 40 48.5t63 126.5l141 323l328 744l26 86h150l22 -84l363 -1039q8 -23 23.5 -62.5t37.5 -76.5q16 -29 38 -47.5t48 -18.5h41v-63h-403v61h14q23 0 28 17.5t2 41t-9 46t-11 33.5l-88 268l-28 86l-226 2l-243 -2l-27 -68l-43 -108 l-18 -43q-12 -29 -24.5 -63.5t-20.5 -71.5q-7 -29 -7 -55v-13q2 -31 18.5 -50.5t53.5 -19.5h53v-61h-383zM412 649l200 -2l195 2l-178 514zM348 1548q33 43 66.5 85t72.5 72t85 40t104 -15l90 -38q41 -16 72.5 -16.5t58 14t50 38t48.5 54.5l49 -35h-2q-33 -45 -66.5 -89 t-73.5 -74t-86 -38t-102 17l-90 38q-43 18 -76.5 15.5t-60.5 -18t-49.5 -39t-40.5 -46.5z" />
<glyph unicode="&#xc4;" horiz-adv-x="1325" d="M-27 0l2 61q4 0 19.5 -1t19.5 3q16 8 40 48.5t63 126.5l141 323l328 744l26 86h150l22 -84l363 -1039q8 -23 23.5 -62.5t37.5 -76.5q16 -29 38 -47.5t48 -18.5h41v-63h-403v61h14q23 0 28 17.5t2 41t-9 46t-11 33.5l-88 268l-28 86l-226 2l-243 -2l-27 -68l-43 -108 l-18 -43q-12 -29 -24.5 -63.5t-20.5 -71.5q-7 -29 -7 -55v-13q2 -31 18.5 -50.5t53.5 -19.5h53v-61h-383zM412 649l200 -2l195 2l-178 514zM413 1657q0 37 3.5 58.5t14.5 34t31.5 17.5t57.5 9q59 8 80.5 -8.5t21.5 -75.5q0 -82 -25.5 -110.5t-99.5 -28.5q-31 0 -48 7 t-25.5 20.5t-9.5 32.5t-1 44zM766 1657q0 37 3 58.5t13 34t31.5 17.5t58.5 9q59 8 81 -8.5t22 -75.5q0 -82 -26 -110.5t-99 -28.5q-33 0 -49.5 7t-24.5 20.5t-9 32.5t-1 44z" />
<glyph unicode="&#xc5;" horiz-adv-x="1325" d="M-27 0l2 61q4 0 19.5 -1t19.5 3q16 8 40 48.5t63 126.5l141 323l328 744l26 86h150l22 -84l363 -1039q8 -23 23.5 -62.5t37.5 -76.5q16 -29 38 -47.5t48 -18.5h41v-63h-403v61h14q23 0 28 17.5t2 41t-9 46t-11 33.5l-88 268l-28 86l-226 2l-243 -2l-27 -68l-43 -108 l-18 -43q-12 -29 -24.5 -63.5t-20.5 -71.5q-7 -29 -7 -55v-13q2 -31 18.5 -50.5t53.5 -19.5h53v-61h-383zM412 649l200 -2l195 2l-178 514zM501 1626q0 41 16.5 77t44.5 61.5t64.5 41t79.5 15.5q82 0 134.5 -50t52.5 -126q0 -84 -57.5 -140.5t-143.5 -58.5q-84 0 -137.5 51 t-53.5 129zM592 1629q0 -51 27.5 -79t74.5 -30q49 0 78.5 33t29.5 86q0 51 -27.5 79.5t-74.5 30.5q-49 0 -78.5 -32.5t-29.5 -87.5z" />
<glyph unicode="&#xc6;" horiz-adv-x="1777" d="M-68 0v61h19q25 0 45 22.5t67 98.5q6 10 28 43t61 92q10 14 31.5 50t60.5 96l321 504q43 68 70 110.5t41 71.5t19 47t5 35q0 23 -10 40t-26 23q-27 10 -99 11h-37v61l1035 4l22 -16l2 -246h-71v57q0 27 -7.5 38t-35.5 28q-96 57 -250 57q-27 0 -53.5 -3t-73.5 -11 q-4 -59 -7.5 -102.5t-4.5 -83t-2 -80.5t-1 -97v-145h121h83q44 0 95 2q25 0 42 1l35 2q17 1 38 2t47 3l-12 -127q-25 2 -41 3l-33 2q-16 1 -34 1h-46l-176 2h-119v-374q0 -72 6.5 -112t20.5 -56q31 -41 147 -41q152 0 236 32q111 37 125 117l12 68l70 -15l-51 -260l-23 -22 l-815 6v61h16q29 0 39 12.5t15 57.5q2 25 4 62.5t4 83t3 93.5t1 93v168q-35 0 -60.5 1t-48 2t-46.5 1h-56l-113 -2l-86 -2l-135 -215q-129 -207 -129 -273q0 -82 80 -82h53v-61h-418zM537 727l65 -2q33 -2 65 -2h64q41 0 73 1t87 5v508l-29 6z" />
<glyph unicode="&#xc7;" horiz-adv-x="1394" d="M98 684q0 186 79 334.5t229 245.5q98 63 216.5 92.5t276.5 29.5q94 0 187.5 -9t181.5 -46l20 -26v-246h-76v67q0 35 -34 70q-45 43 -136.5 70.5t-201.5 27.5q-119 0 -215.5 -40t-164 -114.5t-103 -182t-35.5 -240.5q0 -127 31.5 -245t98 -208t170 -144t244.5 -54 q57 0 115.5 9t110 30.5t93.5 58.5t64 94l21 51l69 -24l-73 -238l-13 -12q-98 -35 -211.5 -46.5t-218.5 -11.5q-164 0 -298 50.5t-229 142.5t-146.5 223t-51.5 291zM592 -395q104 84 148.5 157.5t44.5 167.5l18 13q53 -31 87 -66t34 -57q0 -29 -27.5 -62.5t-70.5 -68.5 t-94.5 -70t-98.5 -68z" />
<glyph unicode="&#xc8;" horiz-adv-x="1116" d="M92 1305v61l809 4l23 -16v-246h-70v57q0 27 -7 38t-36 28q-96 57 -250 57q-27 0 -53.5 -2t-73.5 -10q-4 -59 -7 -103.5t-4 -84t-2 -80.5t-1 -97l-2 -133q61 -3 120 -3h30q75 1 151 5q47 2 76.5 3t85.5 5l-13 -126q-25 2 -41 3t-31.5 2t-33.5 1h-45q-53 0 -85 1t-49 1h-29 h-27h-39h-68v-99v-288q0 -49 1 -85t11 -61q14 -35 50 -49t112 -14q145 0 237 35q104 37 121 114l15 68l69 -15l-51 -260l-22 -22l-816 6v61h17q29 0 39 12.5t14 57.5q2 25 4 62.5t4 83t3 93.5t1 93v645q0 72 -2 103.5t-10 52.5q-16 41 -74 41h-51zM209 1817v23l209 47 q18 -53 49 -105.5t69 -102.5t80 -97.5t81 -88.5l-45 -47q-43 37 -99.5 85t-117 99.5t-119 99.5t-107.5 87z" />
<glyph unicode="&#xc9;" horiz-adv-x="1116" d="M92 1305v61l809 4l23 -16v-246h-70v57q0 27 -7 38t-36 28q-96 57 -250 57q-27 0 -53.5 -2t-73.5 -10q-4 -59 -7 -103.5t-4 -84t-2 -80.5t-1 -97l-2 -133q61 -3 120 -3h30q75 1 151 5q47 2 76.5 3t85.5 5l-13 -126q-25 2 -41 3t-31.5 2t-33.5 1h-45q-53 0 -85 1t-49 1h-29 h-27h-39h-68v-99v-288q0 -49 1 -85t11 -61q14 -35 50 -49t112 -14q145 0 237 35q104 37 121 114l15 68l69 -15l-51 -260l-22 -22l-816 6v61h17q29 0 39 12.5t14 57.5q2 25 4 62.5t4 83t3 93.5t1 93v645q0 72 -2 103.5t-10 52.5q-16 41 -74 41h-51zM452 1493q39 41 81 88.5 t80 97.5t68.5 102t49.5 106l209 -47l-2 -23q-47 -39 -105.5 -87t-119 -99.5t-117 -99.5t-99.5 -85z" />
<glyph unicode="&#xca;" horiz-adv-x="1116" d="M92 1305v61l809 4l23 -16v-246h-70v57q0 27 -7 38t-36 28q-96 57 -250 57q-27 0 -53.5 -2t-73.5 -10q-4 -59 -7 -103.5t-4 -84t-2 -80.5t-1 -97l-2 -133q61 -3 120 -3h30q75 1 151 5q47 2 76.5 3t85.5 5l-13 -126q-25 2 -41 3t-31.5 2t-33.5 1h-45q-53 0 -85 1t-49 1h-29 h-27h-39h-68v-99v-288q0 -49 1 -85t11 -61q14 -35 50 -49t112 -14q145 0 237 35q104 37 121 114l15 68l69 -15l-51 -260l-22 -22l-816 6v61h17q29 0 39 12.5t14 57.5q2 25 4 62.5t4 83t3 93.5t1 93v645q0 72 -2 103.5t-10 52.5q-16 41 -74 41h-51zM197 1493q39 41 84 91.5 t85.5 101.5t71.5 98t41 82l158 8q14 -39 46 -89t73 -102t84 -102.5t77 -87.5l-45 -47q-66 55 -148.5 129t-164.5 144q-82 -68 -167 -141.5t-150 -131.5z" />
<glyph unicode="&#xcb;" horiz-adv-x="1116" d="M92 1305v61l809 4l23 -16v-246h-70v57q0 27 -7 38t-36 28q-96 57 -250 57q-27 0 -53.5 -2t-73.5 -10q-4 -59 -7 -103.5t-4 -84t-2 -80.5t-1 -97l-2 -133q61 -3 120 -3h30q75 1 151 5q47 2 76.5 3t85.5 5l-13 -126q-25 2 -41 3t-31.5 2t-33.5 1h-45q-53 0 -85 1t-49 1h-29 h-27h-39h-68v-99v-288q0 -49 1 -85t11 -61q14 -35 50 -49t112 -14q145 0 237 35q104 37 121 114l15 68l69 -15l-51 -260l-22 -22l-816 6v61h17q29 0 39 12.5t14 57.5q2 25 4 62.5t4 83t3 93.5t1 93v645q0 72 -2 103.5t-10 52.5q-16 41 -74 41h-51zM256 1657q0 37 3.5 58.5 t14.5 34t31.5 17.5t57.5 9q59 8 80.5 -8.5t21.5 -75.5q0 -82 -25.5 -110.5t-99.5 -28.5q-31 0 -48 7t-25.5 20.5t-9.5 32.5t-1 44zM609 1657q0 37 3 58.5t13 34t31.5 17.5t58.5 9q59 8 81 -8.5t22 -75.5q0 -82 -26 -110.5t-99 -28.5q-33 0 -49.5 7t-24.5 20.5t-9 32.5t-1 44 z" />
<glyph unicode="&#xcc;" horiz-adv-x="667" d="M-39 1817v22l209 47q18 -53 49 -105t69 -102.5t80 -97.5t81 -88h-3l-45 -47q-43 37 -99 85l-115.5 99t-119 99.5t-106.5 87.5zM100 1305v61h445v-61h-51q-29 0 -39.5 -13.5t-14.5 -56.5l-5 -62.5t-5 -84t-3 -95.5t-1 -96l2 -647q0 -63 3 -96t9 -52q12 -41 72 -41h53v-61 h-444v61h51q29 0 39 12.5t14 57.5q2 25 4 62.5t4.5 83t3.5 93.5t1 93v645q0 72 -2.5 103.5t-10.5 52.5q-16 41 -73 41h-52z" />
<glyph unicode="&#xcd;" horiz-adv-x="667" d="M100 1305v61h445v-61h-51q-29 0 -39.5 -13.5t-14.5 -56.5l-5 -62.5t-5 -84t-3 -95.5t-1 -96l2 -647q0 -63 3 -96t9 -52q12 -41 72 -41h53v-61h-444v61h51q29 0 39 12.5t14 57.5q2 25 4 62.5t4.5 83t3.5 93.5t1 93v645q0 72 -2.5 103.5t-10.5 52.5q-16 41 -73 41h-52z M227 1493q39 41 81 88t80 97.5t68.5 102.5t49.5 105l207 -47v-22q-47 -39 -105.5 -87.5t-119 -99.5t-117 -99t-99.5 -85z" />
<glyph unicode="&#xce;" horiz-adv-x="667" d="M-35 1493q39 41 84 91t86 101.5t72 98.5t41 82l155 8q14 -39 46 -89t73 -102.5t84 -102.5t78 -87h2l-45 -47q-66 57 -148.5 131t-164.5 141q-82 -68 -166 -141.5t-150 -130.5zM100 1305v61h445v-61h-51q-29 0 -39.5 -13.5t-14.5 -56.5q-2 -25 -4 -62.5t-4 -84t-3 -95.5 t-1 -96v-647q0 -63 3 -96t9 -52q16 -41 74 -41h51v-61h-444v61h51q29 0 39 12.5t14 57.5q2 25 4 62.5t4.5 83t3.5 93.5t1 93v645q0 72 -2.5 103.5t-10.5 52.5q-16 41 -73 41h-52z" />
<glyph unicode="&#xcf;" horiz-adv-x="667" d="M68 1659q0 37 3 58.5t14 33.5t32.5 18.5t58.5 10.5q59 8 81 -8.5t22 -75.5l-3 -2q0 -82 -25.5 -111t-98.5 -29q-31 0 -48.5 7.5t-25.5 20.5t-9 32.5t-1 44.5zM100 1305v61h445v-61h-51q-29 0 -39.5 -13.5t-14.5 -56.5l-5 -62.5t-5 -84t-3 -95.5t-1 -96l2 -647 q0 -63 3 -96t9 -52q12 -41 72 -41h53v-61h-444v61h51q29 0 39 12.5t14 57.5q2 25 4 62.5t4.5 83t3.5 93.5t1 93v645q0 72 -2.5 103.5t-10.5 52.5q-16 41 -73 41h-52zM418 1657q0 37 4 58.5t14 33.5t33 18.5t59 10.5q59 8 80 -8.5t21 -75.5v-2q0 -82 -25.5 -111t-99.5 -29 q-33 0 -50.5 7.5t-25.5 20.5t-9 32.5t-1 44.5z" />
<glyph unicode="&#xd0;" horiz-adv-x="1603" d="M92 1305l2 61q176 -2 307 -2t220 4q84 2 170 2t169.5 -10t162.5 -38t149 -83q111 -86 172 -223t61 -297q0 -215 -108.5 -380t-309.5 -257q-70 -33 -137 -49.5t-134.5 -23.5t-138.5 -8t-147 -1h-383v61h17q29 0 39 12.5t14 57.5q2 25 4 62.5t4 83t3 93.5t1 93v211h-131v88 h131v346q0 72 -2 103.5t-10 52.5q-16 41 -74 41h-51zM420 250q0 -47 14.5 -78t38.5 -49q41 -29 99.5 -33t121.5 -4q135 0 244 43t186.5 123t119.5 192.5t42 249.5q0 248 -139 408q-49 53 -101.5 88t-110.5 54.5t-121.5 26.5t-131.5 7q-35 0 -61.5 -1t-54 -3t-58.5 -5t-74 -9 q-4 -59 -7 -103.5t-4 -84.5t-2 -81t-1 -94v-135h438v-88h-438v-424z" />
<glyph unicode="&#xd1;" horiz-adv-x="1665" d="M92 1298v66l363 6l37 -55l741 -920l100 -119l-2 371l-4 389q0 74 -9 133.5t-26 92.5q-10 23 -29.5 33t-56.5 10h-51v61h367v-61h-20q-15 0 -19 -5q-8 -4 -14.5 -23.5t-10.5 -59.5q-4 -45 -6 -117t-2 -178v-854v-97h-131l-66 90l-718 881l-152 166l4 -406l4 -372 q0 -111 19 -178q8 -33 14 -48q10 -25 30.5 -34t57.5 -9h51v-61h-366l2 61q10 0 18 1t19 1q10 4 15 23.5t9 60.5q4 43 6 115t2 182l2 664q0 74 -6 104.5t-24 53.5q-16 18 -38 25t-57 7h-53zM531 1548q33 43 66.5 85t72.5 72t85 40t104 -15l90 -38q41 -16 72.5 -16.5t58 14 t50 38t48.5 54.5l49 -35h-2q-33 -45 -66.5 -89t-73.5 -74t-86 -38t-102 17l-90 38q-43 18 -76.5 15.5t-60.5 -18t-49.5 -39t-40.5 -46.5z" />
<glyph unicode="&#xd2;" horiz-adv-x="1634" d="M98 664q0 168 53.5 303t150.5 231t235.5 148.5t308.5 52.5q158 0 284.5 -47t217 -135.5t139.5 -215.5t49 -284q0 -164 -55.5 -302.5t-154.5 -237.5t-235.5 -155.5t-299.5 -56.5q-156 0 -283 50.5t-218 142.5t-141.5 221t-50.5 285zM324 723q0 -156 34.5 -280t100 -211 t158 -134t208.5 -47q127 0 218.5 50.5t150.5 133t88 190t29 220.5q0 156 -35 280t-101.5 210t-160.5 132t-213 46q-109 0 -197 -42t-150.5 -119t-96 -186.5t-33.5 -242.5zM411 1817v23l209 47q18 -53 49 -105.5t69 -102.5t80 -97.5t81 -88.5l-45 -47q-43 37 -99.5 85 t-117 99.5t-119 99.5t-107.5 87z" />
<glyph unicode="&#xd3;" horiz-adv-x="1634" d="M98 664q0 168 53.5 303t150.5 231t235.5 148.5t308.5 52.5q158 0 284.5 -47t217 -135.5t139.5 -215.5t49 -284q0 -164 -55.5 -302.5t-154.5 -237.5t-235.5 -155.5t-299.5 -56.5q-156 0 -283 50.5t-218 142.5t-141.5 221t-50.5 285zM324 723q0 -156 34.5 -280t100 -211 t158 -134t208.5 -47q127 0 218.5 50.5t150.5 133t88 190t29 220.5q0 156 -35 280t-101.5 210t-160.5 132t-213 46q-109 0 -197 -42t-150.5 -119t-96 -186.5t-33.5 -242.5zM719 1493q39 41 81 88.5t80 97.5t68.5 102t49.5 106l209 -47l-2 -23q-47 -39 -105.5 -87t-119 -99.5 t-117 -99.5t-99.5 -85z" />
<glyph unicode="&#xd4;" horiz-adv-x="1634" d="M98 664q0 168 53.5 303t150.5 231t235.5 148.5t308.5 52.5q158 0 284.5 -47t217 -135.5t139.5 -215.5t49 -284q0 -164 -55.5 -302.5t-154.5 -237.5t-235.5 -155.5t-299.5 -56.5q-156 0 -283 50.5t-218 142.5t-141.5 221t-50.5 285zM324 723q0 -156 34.5 -280t100 -211 t158 -134t208.5 -47q127 0 218.5 50.5t150.5 133t88 190t29 220.5q0 156 -35 280t-101.5 210t-160.5 132t-213 46q-109 0 -197 -42t-150.5 -119t-96 -186.5t-33.5 -242.5zM469 1493q39 41 84 91.5t85.5 101.5t71.5 98t41 82l158 8q14 -39 46 -89t73 -102t84 -102.5t77 -87.5 l-45 -47q-66 55 -148.5 129t-164.5 144q-82 -68 -167 -141.5t-150 -131.5z" />
<glyph unicode="&#xd5;" horiz-adv-x="1634" d="M98 664q0 168 53.5 303t150.5 231t235.5 148.5t308.5 52.5q158 0 284.5 -47t217 -135.5t139.5 -215.5t49 -284q0 -164 -55.5 -302.5t-154.5 -237.5t-235.5 -155.5t-299.5 -56.5q-156 0 -283 50.5t-218 142.5t-141.5 221t-50.5 285zM324 723q0 -156 34.5 -280t100 -211 t158 -134t208.5 -47q127 0 218.5 50.5t150.5 133t88 190t29 220.5q0 156 -35 280t-101.5 210t-160.5 132t-213 46q-109 0 -197 -42t-150.5 -119t-96 -186.5t-33.5 -242.5zM471 1548q33 43 66.5 85t72.5 72t85 40t104 -15l90 -38q41 -16 72.5 -16.5t58 14t50 38t48.5 54.5 l49 -35h-2q-33 -45 -66.5 -89t-73.5 -74t-86 -38t-102 17l-90 38q-43 18 -76.5 15.5t-60.5 -18t-49.5 -39t-40.5 -46.5z" />
<glyph unicode="&#xd6;" horiz-adv-x="1634" d="M98 664q0 168 53.5 303t150.5 231t235.5 148.5t308.5 52.5q158 0 284.5 -47t217 -135.5t139.5 -215.5t49 -284q0 -164 -55.5 -302.5t-154.5 -237.5t-235.5 -155.5t-299.5 -56.5q-156 0 -283 50.5t-218 142.5t-141.5 221t-50.5 285zM324 723q0 -156 34.5 -280t100 -211 t158 -134t208.5 -47q127 0 218.5 50.5t150.5 133t88 190t29 220.5q0 156 -35 280t-101.5 210t-160.5 132t-213 46q-109 0 -197 -42t-150.5 -119t-96 -186.5t-33.5 -242.5zM569 1657q0 37 3.5 58.5t14.5 34t31.5 17.5t57.5 9q59 8 80.5 -8.5t21.5 -75.5q0 -82 -25.5 -110.5 t-99.5 -28.5q-31 0 -48 7t-25.5 20.5t-9.5 32.5t-1 44zM922 1657q0 37 3 58.5t13 34t31.5 17.5t58.5 9q59 8 81 -8.5t22 -75.5q0 -82 -26 -110.5t-99 -28.5q-33 0 -49.5 7t-24.5 20.5t-9 32.5t-1 44z" />
<glyph unicode="&#xd7;" d="M172 293l266 266l-266 266l74 76l268 -266l264 266l74 -76l-264 -266l264 -266l-74 -74l-264 266l-268 -266z" />
<glyph unicode="&#xd8;" horiz-adv-x="1634" d="M98 664q0 168 53.5 303t150.5 231t235.5 148.5t310.5 52.5q127 0 224 -23.5t175 -77.5l209 275l12 -6l29 -15l55 -26l-231 -287q10 -8 18 -16l19 -19q88 -94 133 -218t45 -269q0 -164 -55.5 -302.5t-154.5 -237.5t-235.5 -155.5t-299.5 -56.5q-111 0 -208.5 26.5 t-176.5 74.5l-191 -252l-96 49q53 66 105 130t104 130q-111 92 -170.5 229.5t-59.5 311.5zM324 723q0 -141 29.5 -257t82.5 -202q18 23 42 52.5t58.5 74.5t85 109.5t123 157t170.5 218.5l230 293q-66 70 -152 107t-192 37q-109 0 -197 -42t-150.5 -119t-96 -186.5 t-33.5 -242.5zM498 186q129 -135 327 -135h19q8 0 18 2q104 8 187.5 53.5t141.5 122t89 182t31 234.5v-2q0 137 -27 249t-78 198z" />
<glyph unicode="&#xd9;" horiz-adv-x="1687" d="M92 1305v61h410v-61h-17q-29 0 -39 -13.5t-14 -56.5q-2 -25 -4 -62.5t-4 -84t-3 -95.5t-1 -96v-274q0 -139 12 -217t39 -132q41 -80 123 -125t188 -45q53 0 106.5 12.5t104.5 34t97.5 52t80.5 67.5q18 20 32 44t22 56.5t11 78t3 106.5v553q0 72 -3 103.5t-11 52.5 q-16 41 -72 41h-51v61h409v-61h-16q-29 0 -39 -13.5t-14 -56.5q-2 -25 -4 -62.5t-4 -84t-3 -95.5t-1 -96v-397q0 -43 1 -92.5t4 -95.5t7 -87t8 -67q8 -53 26.5 -74t59.5 -21h51v-63l-323 -8l-13 16l-6 203q-39 -27 -72.5 -51.5t-68.5 -46.5q-88 -61 -182.5 -101.5 t-229.5 -40.5q-57 0 -116.5 12.5t-112.5 37t-97 63.5t-73 94q-20 41 -32.5 76t-20 81t-9.5 114.5t-2 175.5v483q0 72 -2 103.5t-10 52.5q-16 41 -74 41h-51zM432 1817v23l209 47q18 -53 49 -105.5t69 -102.5t80 -97.5t81 -88.5l-45 -47q-43 37 -99.5 85t-117 99.5t-119 99.5 t-107.5 87z" />
<glyph unicode="&#xda;" horiz-adv-x="1687" d="M92 1305v61h410v-61h-17q-29 0 -39 -13.5t-14 -56.5q-2 -25 -4 -62.5t-4 -84t-3 -95.5t-1 -96v-274q0 -139 12 -217t39 -132q41 -80 123 -125t188 -45q53 0 106.5 12.5t104.5 34t97.5 52t80.5 67.5q18 20 32 44t22 56.5t11 78t3 106.5v553q0 72 -3 103.5t-11 52.5 q-16 41 -72 41h-51v61h409v-61h-16q-29 0 -39 -13.5t-14 -56.5q-2 -25 -4 -62.5t-4 -84t-3 -95.5t-1 -96v-397q0 -43 1 -92.5t4 -95.5t7 -87t8 -67q8 -53 26.5 -74t59.5 -21h51v-63l-323 -8l-13 16l-6 203q-39 -27 -72.5 -51.5t-68.5 -46.5q-88 -61 -182.5 -101.5 t-229.5 -40.5q-57 0 -116.5 12.5t-112.5 37t-97 63.5t-73 94q-20 41 -32.5 76t-20 81t-9.5 114.5t-2 175.5v483q0 72 -2 103.5t-10 52.5q-16 41 -74 41h-51zM719 1493q39 41 81 88.5t80 97.5t68.5 102t49.5 106l209 -47l-2 -23q-47 -39 -105.5 -87t-119 -99.5t-117 -99.5 t-99.5 -85z" />
<glyph unicode="&#xdb;" horiz-adv-x="1687" d="M92 1305v61h410v-61h-17q-29 0 -39 -13.5t-14 -56.5q-2 -25 -4 -62.5t-4 -84t-3 -95.5t-1 -96v-274q0 -139 12 -217t39 -132q41 -80 123 -125t188 -45q53 0 106.5 12.5t104.5 34t97.5 52t80.5 67.5q18 20 32 44t22 56.5t11 78t3 106.5v553q0 72 -3 103.5t-11 52.5 q-16 41 -72 41h-51v61h409v-61h-16q-29 0 -39 -13.5t-14 -56.5q-2 -25 -4 -62.5t-4 -84t-3 -95.5t-1 -96v-397q0 -43 1 -92.5t4 -95.5t7 -87t8 -67q8 -53 26.5 -74t59.5 -21h51v-63l-323 -8l-13 16l-6 203q-39 -27 -72.5 -51.5t-68.5 -46.5q-88 -61 -182.5 -101.5 t-229.5 -40.5q-57 0 -116.5 12.5t-112.5 37t-97 63.5t-73 94q-20 41 -32.5 76t-20 81t-9.5 114.5t-2 175.5v483q0 72 -2 103.5t-10 52.5q-16 41 -74 41h-51zM459 1493q39 41 84 91.5t85.5 101.5t71.5 98t41 82l158 8q14 -39 46 -89t73 -102t84 -102.5t77 -87.5l-45 -47 q-66 55 -148.5 129t-164.5 144q-82 -68 -167 -141.5t-150 -131.5z" />
<glyph unicode="&#xdc;" horiz-adv-x="1687" d="M92 1305v61h410v-61h-17q-29 0 -39 -13.5t-14 -56.5q-2 -25 -4 -62.5t-4 -84t-3 -95.5t-1 -96v-274q0 -139 12 -217t39 -132q41 -80 123 -125t188 -45q53 0 106.5 12.5t104.5 34t97.5 52t80.5 67.5q18 20 32 44t22 56.5t11 78t3 106.5v553q0 72 -3 103.5t-11 52.5 q-16 41 -72 41h-51v61h409v-61h-16q-29 0 -39 -13.5t-14 -56.5q-2 -25 -4 -62.5t-4 -84t-3 -95.5t-1 -96v-397q0 -43 1 -92.5t4 -95.5t7 -87t8 -67q8 -53 26.5 -74t59.5 -21h51v-63l-323 -8l-13 16l-6 203q-39 -27 -72.5 -51.5t-68.5 -46.5q-88 -61 -182.5 -101.5 t-229.5 -40.5q-57 0 -116.5 12.5t-112.5 37t-97 63.5t-73 94q-20 41 -32.5 76t-20 81t-9.5 114.5t-2 175.5v483q0 72 -2 103.5t-10 52.5q-16 41 -74 41h-51zM559 1657q0 37 3.5 58.5t14.5 34t31.5 17.5t57.5 9q59 8 80.5 -8.5t21.5 -75.5q0 -82 -25.5 -110.5t-99.5 -28.5 q-31 0 -48 7t-25.5 20.5t-9.5 32.5t-1 44zM912 1657q0 37 3 58.5t13 34t31.5 17.5t58.5 9q59 8 81 -8.5t22 -75.5q0 -82 -26 -110.5t-99 -28.5q-33 0 -49.5 7t-24.5 20.5t-9 32.5t-1 44z" />
<glyph unicode="&#xdd;" horiz-adv-x="1214" d="M0 1303v63h424v-61h-16q-29 0 -29 -29q-2 -23 11 -57.5t31.5 -69.5t35 -62.5t20.5 -35.5l197 -353l188 285q8 12 23.5 35.5t32 53.5t33 62.5t24.5 63.5q5 21 5 40q0 20 -6 36q-11 31 -63 31h-57v61h422v-61h-19q-27 0 -43 -13.5t-47 -56.5t-48 -67.5t-27.5 -39 t-17.5 -23.5t-17 -25l-27 -40q-16 -25 -47 -67l-188 -277q-23 -33 -36.5 -58.5t-20.5 -51t-9 -55t-2 -70.5v-211q0 -63 3 -96t9 -52q16 -41 74 -41h49v-61h-442v61h51q25 0 39 25q10 16 14 37.5t5 44t1 43.5v35l5 217q0 47 -1.5 69.5t-8.5 41t-22.5 42t-41.5 70.5l-252 451 q-47 84 -84 123q-41 43 -86 43h-39zM616 1493q39 41 81 88.5t80 97.5t68.5 102t49.5 106l209 -47l-2 -23q-47 -39 -105.5 -87t-119 -99.5t-117 -99.5t-99.5 -85z" />
<glyph unicode="&#xde;" horiz-adv-x="1159" d="M92 1303v63h424v-61h-16q-29 0 -38 -16.5t-16 -82.5h95q51 0 103 2t103.5 -1t101.5 -14t97 -38q66 -37 103.5 -109.5t37.5 -168.5q0 -80 -26.5 -149t-73.5 -122q-51 -59 -121.5 -99t-152.5 -56q-33 -6 -58.5 -11.5t-55.5 -8.5t-67.5 -4t-97.5 -3v-174q0 -61 3 -97 t12.5 -56.5t27 -27t43.5 -6.5h66v-63h-424v61h16q29 0 39 12.5t14 57.5q2 25 4.5 62.5t4.5 83t3 93.5t1 93v508v145q0 59 -2 94t-11 58q-10 23 -27.5 29t-45.5 6h-66zM434 530q47 -6 76 -8t51 -2q150 0 236 83t86 231q0 139 -77 217.5t-212 78.5q-23 0 -60.5 -3t-87.5 -11 q-2 -27 -4 -72t-4 -97t-3 -106.5t-1 -101.5v-209z" />
<glyph unicode="&#xdf;" horiz-adv-x="1609" d="M88 698q0 63 27.5 116.5t78 91.5t119 59.5t148.5 21.5q51 0 89 -5t97 -17l15 -21v-176h-64l-2 49q0 31 -27 55q-49 39 -143 39q-80 0 -129 -41t-49 -106q0 -39 18.5 -67.5t46 -50t60.5 -37t61 -29.5q53 -25 107.5 -52.5t99.5 -64.5q84 -68 84 -180v-2q0 -66 -28.5 -121.5 t-80 -96t-122 -63.5t-152.5 -23q-55 0 -110.5 7.5t-110.5 15.5l-17 18l-6 203l62 2l2 -37q0 -53 45 -86q27 -23 67.5 -34t83.5 -13q90 0 145.5 45t55.5 117q0 41 -22.5 75t-65.5 64q-25 16 -54.5 30.5t-60.5 31.5l-63 31q-31 15 -55 32q-66 37 -108 91t-42 128zM893 696 q0 63 27.5 116.5t78 91.5t119 59.5t148.5 21.5q51 0 89 -5t97 -17l14 -21v-176h-63l-2 49q0 31 -27 55q-49 39 -143 39q-80 0 -129 -41t-49 -106q0 -39 18.5 -67.5t46 -50t59 -37t60.5 -29.5q53 -25 107.5 -52.5t101.5 -64.5q84 -68 84 -180v-2q0 -66 -28.5 -121.5 t-81 -96.5t-122 -63.5t-153.5 -22.5q-55 0 -110.5 7.5t-108.5 15.5l-17 18l-6 203l62 2v-37q0 -53 45 -86q27 -23 67.5 -34t85.5 -13q90 0 145.5 45t55.5 117q0 78 -90 139q-25 16 -54.5 30.5t-58.5 31.5l-63 31q-31 15 -56 32q-66 37 -107.5 91t-41.5 128z" />
<glyph unicode="&#xe0;" horiz-adv-x="1021" d="M-10 0v53h16q10 0 15.5 1t11.5 9q16 16 37.5 59.5t40.5 84.5l94 209l217 477q6 14 16.5 48t14.5 46h149q4 -16 13.5 -47t13.5 -45l252 -674q27 -70 53.5 -119t66.5 -49h33v-53h-342v53h17q12 0 16 9.5t3 20.5t-5 23l-6 19l-6 21q-6 22 -16.5 51.5t-20.5 62.5t-19 53 l-20 60h-32q-24 0 -51.5 1t-50.5 1h-30h-33q-27 0 -56.5 -1t-55.5 -1h-35l-58 -150q-6 -16 -15 -44.5t-12 -56.5t8 -48.5t44 -20.5h39v-53h-307zM168 1389l209 47q18 -53 49 -105.5t68.5 -102.5t79.5 -97.5t81 -88.5l-45 -47q-43 37 -99 85t-115.5 99.5t-119 99.5t-106.5 87 zM324 453h31q22 0 45.5 -1t42.5 -1h24q4 0 23.5 1t42 2t44.5 1h29v-2l-129 356z" />
<glyph unicode="&#xe1;" horiz-adv-x="1021" d="M-16 0l2 53h14q10 0 15 1t12 9q16 16 37.5 59.5t39.5 84.5l95 209l217 477q6 14 16 48t14 46h150q4 -16 13 -47t14 -45l251 -674q27 -70 53.5 -119t67.5 -49h33v-53h-342v53h19q12 0 16 9.5t3 20.5t-5 23l-6 19l-25 74l-20 61q-10 31 -19 53l-20 60h-32q-24 0 -51.5 1 t-50.5 1h-30h-33q-27 0 -56.5 -1t-56.5 -1h-34l-58 -150q-6 -16 -15 -44.5t-12 -56.5t8 -48.5t44 -20.5h41v-53h-309zM319 453h32q22 0 44.5 -1t41.5 -1h24q6 0 24.5 1t42 2t44.5 1h30l-2 -2l-129 356zM391 1044q39 41 80 88.5t79 97.5t68.5 102t49.5 106l209 -47v-23 q-47 -39 -105.5 -87t-119 -99.5t-117 -99.5t-99.5 -85z" />
<glyph unicode="&#xe2;" horiz-adv-x="1021" d="M-16 0l2 53h14q10 0 15 1t12 9q16 16 37.5 59.5t39.5 84.5l95 209l217 477q6 14 16 48t14 46h150q4 -16 13 -47t14 -45l251 -674q27 -70 53.5 -119t67.5 -49h33v-53h-342v53h19q12 0 16 9.5t3 20.5t-5 23l-6 19l-25 74l-20 61q-10 31 -19 53l-20 60h-32q-24 0 -51.5 1 t-50.5 1h-30h-33q-27 0 -56.5 -1t-56.5 -1h-34l-58 -150q-6 -16 -15 -44.5t-12 -56.5t8 -48.5t44 -20.5h41v-53h-309zM160 1044q39 41 84 91.5t86 101.5t71.5 98t40.5 82l158 8q14 -39 46 -89t73 -102t84 -102.5t78 -87.5l-45 -47q-66 57 -149 131t-165 142 q-82 -68 -166 -141.5t-149 -131.5zM319 453h32q22 0 44.5 -1t41.5 -1h24q6 0 24.5 1t42 2t44.5 1h30l-2 -2l-129 356z" />
<glyph unicode="&#xe3;" horiz-adv-x="1021" d="M-16 0l2 53h14q10 0 15 1t12 9q16 16 37.5 59.5t39.5 84.5l95 209l217 477q6 14 16 48t14 46h150q4 -16 13 -47t14 -45l251 -674q27 -70 53.5 -119t67.5 -49h33v-53h-342v53h19q12 0 16 9.5t3 20.5t-5 23l-6 19l-25 74l-20 61q-10 31 -19 53l-20 60h-32q-24 0 -51.5 1 t-50.5 1h-30h-33q-27 0 -56.5 -1t-56.5 -1h-34l-58 -150q-6 -16 -15 -44.5t-12 -56.5t8 -48.5t44 -20.5h41v-53h-309zM182 1161q33 43 68 85t73.5 72t85 40t103.5 -15l90 -36q41 -18 72 -17.5t57.5 14t50 37t47.5 54.5l50 -35q-33 -45 -67 -89t-74 -74t-86 -39t-101 16 l-92 40q-43 18 -76 15.5t-60.5 -18t-49 -39t-42.5 -46.5zM319 453h32q22 0 44.5 -1t41.5 -1h24q6 0 24.5 1t42 2t44.5 1h30l-2 -2l-129 356z" />
<glyph unicode="&#xe4;" horiz-adv-x="1021" d="M-16 0l2 53h14q10 0 15 1t12 9q16 16 37.5 59.5t39.5 84.5l95 209l217 477q6 14 16 48t14 46h150q4 -16 13 -47t14 -45l251 -674q27 -70 53.5 -119t67.5 -49h33v-53h-342v53h19q12 0 16 9.5t3 20.5t-5 23l-6 19l-25 74l-20 61q-10 31 -19 53l-20 60h-32q-24 0 -51.5 1 t-50.5 1h-30h-33q-27 0 -56.5 -1t-56.5 -1h-34l-58 -150q-6 -16 -15 -44.5t-12 -56.5t8 -48.5t44 -20.5h41v-53h-309zM252 1292q0 37 4 58.5t15.5 34t33 18.5t57.5 10q59 8 80 -8t21 -76v-2q0 -82 -25.5 -110.5t-99.5 -28.5q-33 0 -50.5 7t-25.5 20.5t-9 32.5t-1 44z M319 453h32q22 0 44.5 -1t41.5 -1h24q6 0 24.5 1t42 2t44.5 1h30l-2 -2l-129 356zM602 1290q0 37 3 58.5t13.5 34t33 18.5t59.5 10q59 8 80.5 -8.5t21.5 -75.5l-2 -2q0 -82 -25.5 -110.5t-99.5 -28.5q-33 0 -49 7t-24.5 20.5t-9.5 32.5t-1 44z" />
<glyph unicode="&#xe5;" horiz-adv-x="1021" d="M-16 0l2 53h14q10 0 15 1t12 9q16 16 37.5 59.5t39.5 84.5l95 209l217 477q6 14 16 48t14 46h150q4 -16 13 -47t14 -45l251 -674q27 -70 53.5 -119t67.5 -49h33v-53h-342v53h19q12 0 16 9.5t3 20.5t-5 23l-6 19l-25 74l-20 61q-10 31 -19 53l-20 60h-32q-24 0 -51.5 1 t-50.5 1h-30h-33q-27 0 -56.5 -1t-56.5 -1h-34l-58 -150q-6 -16 -15 -44.5t-12 -56.5t8 -48.5t44 -20.5h41v-53h-309zM319 453h32q22 0 44.5 -1t41.5 -1h24q6 0 24.5 1t42 2t44.5 1h30l-2 -2l-129 356zM336 1262q0 41 16.5 75.5t44 60t64.5 41t80 15.5q82 0 134 -50t52 -128 v2q0 -86 -57.5 -142.5t-143.5 -56.5q-84 2 -137 53.5t-53 129.5zM426 1257q0 -51 27.5 -78.5t74.5 -27.5q51 2 81 35t30 86l-2 -2q0 53 -27.5 81.5t-74.5 28.5q-49 -2 -79 -35t-30 -88z" />
<glyph unicode="&#xe6;" horiz-adv-x="1316" d="M-70 0v53l17 -2q14 0 24.5 11.5t38.5 50.5q6 10 23.5 34.5t46.5 65.5q10 14 26.5 40t43.5 66l253 388q55 84 70.5 118.5t11.5 55.5q-4 25 -24 30q-14 6 -58 7h-34v53l794 2l19 -12v-185h-62l-2 43q0 16 -5 24.5t-21 18.5q-68 41 -177 39q-18 0 -36.5 -2t-53.5 -6 q-2 -39 -4 -69.5t-4 -58.5t-2 -57v-69v-94h84h131q35 2 58.5 3t64.5 5l-10 -104q-35 4 -56.5 5t-60.5 1h-24q-19 0 -40.5 1t-40.5 1h-24h-82v-238q0 -51 4 -76.5t12 -40.5q18 -37 109 -34q49 0 94 6t80 18q68 29 80 84l10 45l60 -12l-41 -199l-19 -16l-626 6v53h18 q20 0 26.5 8.5t8.5 38.5q2 25 4 48.5t3 50t2 59.5t1 76v47v57q-47 2 -79 3t-79 -1h-82l-61 -2l-102 -159q-86 -133 -88 -173q-4 -53 59 -53h41v-53h-320zM389 516h55q27 0 56 2h70q36 0 71 2v354l-18 5z" />
<glyph unicode="&#xe7;" horiz-adv-x="1046" d="M68 485q0 135 60 242t173 174q76 43 167 64.5t208 21.5q68 2 136.5 -5t133.5 -30l17 -20v-191h-66v56q0 25 -20 45q-31 29 -96.5 48t-141.5 19q-86 0 -155.5 -27.5t-118 -79.5t-75 -126t-26.5 -166q0 -90 25.5 -172t75 -143.5t122 -98.5t170.5 -37q90 0 165 31t108 111 l14 32l60 -20l-60 -180l-12 -10q-72 -23 -155 -31t-159 -8q-125 0 -226 34.5t-173 100t-111.5 158.5t-39.5 208zM377 -395q104 84 148 157.5t44 167.5l19 13q53 -31 87 -66t34 -57q0 -29 -28 -62.5t-71 -68.5t-94 -70t-98 -68z" />
<glyph unicode="&#xe8;" horiz-adv-x="841" d="M51 1366v23l209 47q18 -53 49 -105.5t69 -102.5t80 -97.5t81 -88.5h-2l-45 -47q-43 37 -99.5 85t-116 99.5t-119 99.5t-106.5 87zM74 918v53l622 2l19 -12v-185h-62v43q0 16 -5 24.5t-21 18.5q-70 41 -178 41q-20 0 -39 -2t-52 -6q-2 -41 -4 -71.5t-4 -59.5t-2 -58v-69 l2 -80q39 -2 87 -1t87 3q45 0 79 1t83 5l-10 -102q-33 2 -52.5 3t-54.5 1q-37 0 -59.5 1t-37.5 1h-27h-27h-68v-107v-33v-59q0 -31 1 -55.5t1 -26.5q0 -63 17 -88q10 -18 34.5 -26t71.5 -8q49 0 93 6t77 20q68 29 80 84l12 45l62 -12l-43 -199l-19 -16l-626 6v53h18 q20 0 26.5 8.5t10.5 38.5q2 25 4 48.5t3 50t2 58.5t1 75v450q0 53 -2 75t-10 36q-12 25 -49 25h-41z" />
<glyph unicode="&#xe9;" horiz-adv-x="841" d="M55 918v53l625 2l18 -12v-185h-63v43q0 16 -5 24.5t-22 18.5q-66 41 -176 41q-20 0 -38.5 -2t-51.5 -6q-2 -41 -4 -71.5t-4 -59.5t-2 -58v-69v-80q41 -2 89 -1t87 3q43 0 76.5 1t83.5 5l-9 -102q-35 2 -54 3t-54 1q-37 0 -59.5 1t-37.5 1h-27h-28h-67v-107v-33v-59 q0 -31 1 -55.5t1 -26.5q0 -63 16 -88q10 -18 35 -26t72 -8q49 0 93 6t77 20q70 27 82 84l10 45l61 -12l-43 -199l-16 -16l-627 6v53h19q20 0 26 8.5t11 38.5q2 25 3 48.5t2 50t2 58.5t1 75v450q0 53 -2 75t-11 36q-8 25 -47 25h-43zM383 1042q39 41 81 88.5t80 97.5 t68.5 102t49.5 106l208 -47v-23q-49 -39 -107 -87t-118.5 -99.5t-117 -99.5t-99.5 -85z" />
<glyph unicode="&#xea;" horiz-adv-x="841" d="M63 918v53l623 2l19 -12v-185h-62v43q0 16 -5 24.5t-22 18.5q-70 41 -178 41q-18 0 -36.5 -2t-51.5 -6q-2 -41 -4 -71.5t-4 -59.5t-2 -58v-69v-80q39 -2 87 -1t87 3q45 0 79 1t83 5l-10 -102q-33 2 -52.5 3t-54.5 1q-37 0 -59.5 1t-37.5 1h-27h-27h-68v-107v-33v-59 q0 -31 1 -55.5t1 -26.5q0 -63 16 -88q10 -18 35 -26t72 -8q49 0 93 6t77 20q70 27 82 84l10 45l61 -12l-43 -199l-18 -16l-627 6v53h19q20 0 26.5 8.5t10.5 38.5q2 25 4 48.5t3 50t2 58.5t1 75v450q0 53 -2 75t-10 36q-12 25 -50 25h-41zM66 1042q39 41 84 91.5t85.5 101.5 t71.5 98t41 82l156 8q14 -39 46 -89t73 -102t84 -102.5t77 -87.5h2l-45 -47q-66 57 -148.5 131t-164.5 142q-82 -68 -166 -141.5t-149 -131.5z" />
<glyph unicode="&#xeb;" horiz-adv-x="841" d="M55 918v53l625 2l18 -12v-185h-61v43q0 16 -5 24.5t-22 18.5q-70 41 -178 41q-20 0 -38.5 -2t-51.5 -6q-2 -41 -4 -71.5t-4 -59.5t-2 -58v-69v-80q41 -2 89 -1t87 3q45 0 79 1t83 5l-11 -102q-33 2 -52 3t-54 1q-37 0 -59.5 1t-37.5 1h-27h-28h-69v-107v-33v-59 q0 -31 1 -55.5t1 -26.5q0 -63 16 -88q12 -18 37 -26t72 -8q49 0 93 6t77 20q68 29 80 84l12 45l59 -12l-41 -199l-18 -16l-627 6v53h19q20 0 26 8.5t11 38.5q2 25 4 48.5t3 50t2 58.5t1 75l-2 450q0 53 -2 75t-11 36q-8 25 -47 25h-43zM143 1290q0 37 4.5 58.5t15.5 34 t32.5 18.5t58.5 10q59 8 79.5 -8.5t20.5 -75.5v-2q0 -82 -25.5 -110.5t-99.5 -28.5q-33 0 -50 7t-25.5 20.5t-9.5 32.5t-1 44zM494 1288q0 37 3 58.5t13 34t32.5 18.5t59.5 10q59 8 81 -8.5t22 -75.5l-3 -2q0 -82 -25.5 -110.5t-98.5 -28.5q-33 0 -49.5 7t-24.5 20.5 t-9 32.5t-1 44z" />
<glyph unicode="&#xec;" horiz-adv-x="518" d="M-78 1366v23l209 47q18 -53 49 -105.5t69 -102.5t80 -97.5t81 -88.5h-2l-46 -47q-43 37 -99 85t-115.5 99.5t-119 99.5t-106.5 87zM74 918v53h358v-53h-37q-18 0 -24 -8.5t-11 -37.5q-4 -35 -7 -104.5t-3 -134.5v-451q0 -45 2 -67.5t6 -34.5q10 -27 52 -27h43v-53h-361 v53h37q20 0 26.5 8.5t10.5 38.5q4 33 6 100.5t2 131.5l2 450q0 51 -2 71.5t-8 37.5q-10 27 -53 27h-39z" />
<glyph unicode="&#xed;" horiz-adv-x="518" d="M68 918v53h358v-53h-37q-18 0 -24.5 -8.5t-10.5 -37.5q-4 -35 -7 -104.5t-3 -134.5v-451q0 -45 2 -67.5t6 -34.5q14 -27 54 -27h40v-53h-358v53h37q20 0 26.5 8.5t10.5 38.5q4 33 6 100.5t2 131.5v450q0 51 -2 71.5t-8 37.5q-10 27 -54 27h-38zM123 1042q39 41 81 88.5 t80 97.5t68.5 102t48.5 106l209 -47v-23q-49 -39 -107.5 -87t-118.5 -99.5t-116.5 -99.5t-99.5 -85z" />
<glyph unicode="&#xee;" horiz-adv-x="518" d="M-113 1042q39 41 84 91.5t86 101.5t72 98t41 82l156 8q14 -39 45.5 -89t72.5 -102t84 -102.5t78 -87.5h2l-45 -47q-66 57 -148.5 131t-164.5 142q-82 -68 -166 -141.5t-150 -131.5zM72 918v53h358v-53h-37q-18 0 -24.5 -8.5t-10.5 -37.5q-4 -35 -7 -104.5t-3 -134.5v-451 q0 -45 2 -67.5t6 -34.5q10 -27 52 -27h43v-53h-361v53h37q20 0 26.5 8.5t10.5 38.5q4 33 7 100.5t3 131.5v450q0 51 -2 71.5t-8 37.5q-10 27 -53 27h-39z" />
<glyph unicode="&#xef;" horiz-adv-x="518" d="M-33 1290q0 37 3 58.5t14.5 34t33 18.5t58.5 10q59 8 80.5 -8.5t21.5 -75.5l-2 -2q0 -82 -25.5 -110.5t-99.5 -28.5q-31 0 -48 7t-25.5 20.5t-9.5 32.5t-1 44zM74 922v53h358v-53h-37q-18 0 -24 -8.5t-11 -36.5q-4 -35 -7 -105t-3 -135v-451q0 -45 2 -67.5t6 -34.5 q10 -27 52 -27h43v-53h-361v53h37q20 0 26.5 8.5t10.5 38.5q4 33 6 100.5t2 131.5l2 450q0 51 -2 72t-8 37q-10 27 -53 27h-39zM317 1288q0 37 4.5 58.5t14.5 34t32.5 18.5t59.5 10q59 8 79.5 -8.5t20.5 -75.5v-2q0 -82 -25.5 -110.5t-99.5 -28.5q-33 0 -50 7t-25.5 20.5 t-9.5 32.5t-1 44z" />
<glyph unicode="&#xf0;" horiz-adv-x="1204" d="M59 918l2 53q47 0 113 -1t128.5 -1t115.5 1t76 1h118q57 0 111.5 -7.5t105 -22.5t97.5 -44q96 -59 151.5 -159.5t55.5 -223.5v-2q0 -139 -71 -247.5t-196 -178.5q-106 -57 -213.5 -71.5t-228.5 -14.5h-326v53h19q20 0 26.5 8.5t8.5 38.5q2 25 4 48.5t3 50t2 59.5t1 76 v139h-99v74h99v235q0 55 -2 77t-10 36q-12 23 -50 23h-41zM336 182q0 -35 8 -54t23 -32q25 -18 66.5 -22t88.5 -4q94 0 171 29.5t131.5 85t84 133t29.5 171.5v-2q0 174 -100 281q-66 72 -149 99.5t-187 27.5h-38q-17 0 -34.5 -2t-37 -4t-46.5 -6q-2 -43 -4 -75t-4 -59.5 t-2 -56.5v-63v-84h307v-74h-307v-289z" />
<glyph unicode="&#xf1;" horiz-adv-x="1259" d="M66 913v56l305 4q10 -14 29.5 -41t31.5 -41l502 -592l61 -72v258q0 16 -1 58.5t-2 89.5t-2 86t-3 45q-2 47 -11 81t-24 52q-14 18 -55 18l-41 3v53h303v-53h-15q-11 0 -16 -3q-8 -4 -12 -15t-8 -40q-2 -25 -3 -44t-2 -41.5t-1 -52.5v-77l-2 -512v-75q0 -40 2 -74l-129 -2 q-16 23 -41 54.5t-47 55.5l-492 570l-96 102l2 -281v-57q0 -43 1 -89t2 -85t3 -45q6 -92 37 -133q14 -20 55 -21h41v-53h-303v53h16q11 0 15 2q8 2 12 13.5t8 40.5q2 25 4.5 44t3.5 41.5t1 52.5v77l2 419q0 57 -4.5 87t-14.5 51q-20 33 -69 32h-43zM330 1159q33 43 66.5 85 t72.5 72t85 40t103 -15l93 -36q41 -18 71.5 -17.5t57 14t50 37t48.5 54.5l49 -35q-33 -45 -67.5 -89t-74.5 -74t-86 -39t-102 15l-90 41q-43 18 -76.5 15.5t-61.5 -18t-49.5 -39t-41.5 -46.5z" />
<glyph unicode="&#xf2;" horiz-adv-x="1226" d="M63 471q0 119 40 215t114 165t179.5 105.5t234.5 36.5q121 0 217 -33.5t164.5 -96t105.5 -151.5t37 -202v-2q0 -117 -42 -214t-116.5 -168t-178 -111t-228.5 -40q-119 0 -216.5 36t-166 101.5t-106.5 156.5t-38 202zM266 514q2 -215 94.5 -339t253.5 -124q90 0 153.5 34 t104.5 91t60.5 132t19.5 153q0 217 -93 339t-259 122q-76 0 -138.5 -29t-105.5 -83t-66.5 -129t-23.5 -167zM285 1389l209 47q18 -53 48.5 -105.5t68.5 -102.5t80 -97.5t81 -88.5l-45 -47q-43 37 -99.5 85t-115.5 99.5t-118.5 99.5t-106.5 87z" />
<glyph unicode="&#xf3;" horiz-adv-x="1226" d="M63 471q0 119 40 215t114 165t179.5 105.5t234.5 36.5q121 0 217 -33.5t164.5 -96t105.5 -151.5t37 -202v-2q0 -117 -42 -214t-116.5 -168t-178 -111t-228.5 -40q-119 0 -216.5 36t-166 101.5t-106.5 156.5t-38 202zM266 514q2 -215 94.5 -339t253.5 -124q90 0 153.5 34 t104.5 91t60.5 132t19.5 153q0 217 -93 339t-259 122q-76 0 -138.5 -29t-105.5 -83t-66.5 -129t-23.5 -167zM449 1044q39 41 80.5 88.5t79.5 97.5t69 102t49 106l209 -47v-23q-49 -39 -107.5 -87t-119 -99.5t-116.5 -99.5t-99 -85z" />
<glyph unicode="&#xf4;" horiz-adv-x="1226" d="M63 471q0 119 40 215t114 165t179.5 105.5t234.5 36.5q121 0 217 -33.5t164.5 -96t105.5 -151.5t37 -202v-2q0 -117 -42 -214t-116.5 -168t-178 -111t-228.5 -40q-119 0 -216.5 36t-166 101.5t-106.5 156.5t-38 202zM250 1044q39 41 84 91.5t86 101.5t71.5 98t40.5 82 l156 8q14 -39 47 -89t74 -102t84 -102.5t78 -87.5l-45 -47q-66 57 -149 131t-165 142q-82 -68 -166 -141.5t-149 -131.5zM266 514q2 -215 94.5 -339t253.5 -124q90 0 153.5 34t104.5 91t60.5 132t19.5 153q0 217 -93 339t-259 122q-76 0 -138.5 -29t-105.5 -83t-66.5 -129 t-23.5 -167z" />
<glyph unicode="&#xf5;" horiz-adv-x="1226" d="M63 471q0 119 40 215t114 165t179.5 105.5t234.5 36.5q121 0 217 -33.5t164.5 -96t105.5 -151.5t37 -202v-2q0 -117 -42 -214t-116.5 -168t-178 -111t-228.5 -40q-119 0 -216.5 36t-166 101.5t-106.5 156.5t-38 202zM266 514q2 -215 94.5 -339t253.5 -124q90 0 153.5 34 t104.5 91t60.5 132t19.5 153q0 217 -93 339t-259 122q-76 0 -138.5 -29t-105.5 -83t-66.5 -129t-23.5 -167zM303 1161q33 43 66.5 85t72.5 72t85 40t104 -15l92 -36q41 -18 71.5 -17.5t57.5 14t50.5 37t47.5 54.5l49 -35q-33 -45 -67.5 -89t-74.5 -74t-86 -39t-101 16 l-90 40q-43 18 -77 15.5t-61.5 -18t-49 -39t-42.5 -46.5z" />
<glyph unicode="&#xf6;" horiz-adv-x="1226" d="M63 471q0 119 40 215t114 165t179.5 105.5t234.5 36.5q121 0 217 -33.5t164.5 -96t105.5 -151.5t37 -202v-2q0 -117 -42 -214t-116.5 -168t-178 -111t-228.5 -40q-119 0 -216.5 36t-166 101.5t-106.5 156.5t-38 202zM266 514q2 -215 94.5 -339t253.5 -124q90 0 153.5 34 t104.5 91t60.5 132t19.5 153q0 217 -93 339t-259 122q-76 0 -138.5 -29t-105.5 -83t-66.5 -129t-23.5 -167zM350 1292q0 37 3 58.5t14.5 34t33 18.5t58.5 10q59 8 80.5 -8t21.5 -76l-2 -2q0 -82 -25.5 -110.5t-99.5 -28.5q-31 0 -48 7t-25.5 20.5t-9.5 32.5t-1 44zM702 1290 q0 37 3.5 58.5t13.5 34t32.5 18.5t59.5 10q59 8 79.5 -8.5t20.5 -75.5v-2q0 -82 -25.5 -110.5t-99.5 -28.5q-33 0 -49 7t-24 20.5t-9.5 32.5t-1.5 44z" />
<glyph unicode="&#xf7;" d="M66 516v107h895v-107h-895zM438 373q0 35 21.5 56.5t54.5 21.5t54.5 -21.5t21.5 -56.5v2q0 -31 -21.5 -53.5t-54.5 -22.5t-54.5 21.5t-21.5 52.5zM438 760q0 35 21.5 57.5t54.5 24.5q33 0 54.5 -22.5t21.5 -55.5t-21.5 -54.5t-54.5 -21.5t-54.5 21.5t-21.5 50.5z" />
<glyph unicode="&#xf8;" horiz-adv-x="1226" d="M68 471q0 119 39.5 215t113.5 165t178.5 104.5t233.5 35.5q195 0 325 -84l123 129l54 -53l-117 -121q68 -63 104.5 -152t36.5 -202q0 -117 -42 -214t-116.5 -168t-178 -111t-228.5 -40q-98 0 -180 24t-148 69l-127 -134l-53 52l123 131q-68 66 -104.5 154.5t-36.5 199.5z M272 512q0 -162 54 -274l532 563v2q-94 117 -254 117q-76 0 -137 -29t-104.5 -83t-67 -129t-23.5 -167zM367 174q45 -59 108.5 -92t145.5 -33q88 0 151.5 35t104.5 92t60 132t19 153q0 166 -57 276z" />
<glyph unicode="&#xf9;" horiz-adv-x="1271" d="M57 918v53h340v-53h-18q-18 0 -24.5 -8.5t-10.5 -37.5q-2 -27 -4 -51t-3 -52t-2 -60.5t-1 -75.5v-166q0 -53 2 -92t7 -69t12 -51.5t18 -41.5q29 -57 91 -89t144 -32q70 0 138.5 26.5t117.5 71.5q29 25 39 61t10 109v422q0 53 -3 75t-11 36q-8 25 -47 25h-41v53h340v-53 h-18q-18 0 -24.5 -8.5t-10.5 -37.5q-2 -27 -4 -51t-3 -52t-2.5 -60.5t-1.5 -75.5v-285q0 -66 4.5 -131t10.5 -100q12 -63 63 -64h41v-53l-270 -6l-12 14l-2 131q-23 -14 -53.5 -34.5t-47.5 -30.5q-68 -43 -137.5 -70t-165.5 -27q-47 0 -95 10.5t-90 32t-76 53t-54 74.5 q-14 29 -22.5 52.5t-12.5 56.5t-6 80t-2 123v323q0 53 -2 75t-11 36q-8 25 -47 25h-43zM186 1366v23l207 47q18 -53 49 -105.5t69 -102.5t80 -97.5t81 -88.5l-45 -47q-43 37 -99.5 85t-116 99.5t-119 99.5t-106.5 87z" />
<glyph unicode="&#xfa;" horiz-adv-x="1271" d="M57 918v53h340v-53h-18q-18 0 -24.5 -8.5t-10.5 -37.5q-2 -27 -4 -51t-3 -52t-2 -60.5t-1 -75.5v-166q0 -53 2 -92t7 -69t12 -51.5t18 -41.5q29 -57 91 -89t144 -32q70 0 138.5 26.5t117.5 71.5q29 25 39 61t10 109v422q0 53 -3 75t-11 36q-8 25 -47 25h-41v53h340v-53 h-18q-18 0 -24.5 -8.5t-10.5 -37.5q-2 -27 -4 -51t-3 -52t-2.5 -60.5t-1.5 -75.5v-285q0 -66 4.5 -131t10.5 -100q12 -63 63 -64h41v-53l-270 -6l-12 14l-2 131q-23 -14 -53.5 -34.5t-47.5 -30.5q-68 -43 -137.5 -70t-165.5 -27q-47 0 -95 10.5t-90 32t-76 53t-54 74.5 q-14 29 -22.5 52.5t-12.5 56.5t-6 80t-2 123v323q0 53 -2 75t-11 36q-8 25 -47 25h-43zM555 1042q39 41 80 88.5t79 97.5t68.5 102t48.5 106l209 -47v-23q-47 -39 -105 -87t-118.5 -99.5t-117 -99.5t-99.5 -85z" />
<glyph unicode="&#xfb;" horiz-adv-x="1271" d="M57 918v53h340v-53h-18q-18 0 -24.5 -8.5t-10.5 -37.5q-2 -27 -4 -51t-3 -52t-2 -60.5t-1 -75.5v-166q0 -53 2 -92t7 -69t12 -51.5t18 -41.5q29 -57 91 -89t144 -32q70 0 138.5 26.5t117.5 71.5q29 25 39 61t10 109v422q0 53 -3 75t-11 36q-8 25 -47 25h-41v53h340v-53 h-18q-18 0 -24.5 -8.5t-10.5 -37.5q-2 -27 -4 -51t-3 -52t-2.5 -60.5t-1.5 -75.5v-285q0 -66 4.5 -131t10.5 -100q12 -63 63 -64h41v-53l-270 -6l-12 14l-2 131q-23 -14 -53.5 -34.5t-47.5 -30.5q-68 -43 -137.5 -70t-165.5 -27q-47 0 -95 10.5t-90 32t-76 53t-54 74.5 q-14 29 -22.5 52.5t-12.5 56.5t-6 80t-2 123v323q0 53 -2 75t-11 36q-8 25 -47 25h-43zM272 1042q39 41 84 91.5t86 101.5t72 98t41 82l158 8q14 -39 46 -89t72.5 -102t83.5 -102.5t78 -87.5l-45 -47q-66 57 -148.5 131t-164.5 142q-82 -68 -166 -141.5t-150 -131.5z" />
<glyph unicode="&#xfc;" horiz-adv-x="1271" d="M63 918v53h340v-53h-18q-18 0 -24.5 -8.5t-10.5 -37.5q-2 -27 -4 -51t-3 -52t-2 -60.5t-1 -75.5v-166q0 -53 2 -92t7 -69t12.5 -51.5t17.5 -41.5q29 -57 91 -89t144 -32q70 0 138.5 26.5t117.5 71.5q29 25 39.5 61t10.5 109v422q0 53 -3.5 75t-11.5 36q-8 25 -47 25h-41 v53h340v-53h-18q-18 0 -24.5 -8.5t-10.5 -37.5q-2 -27 -4 -51t-3 -52t-2 -60.5t-1 -75.5v-285q0 -66 4 -131t10 -100q12 -63 63 -64h41v-53l-270 -6l-12 14l-2 131q-23 -14 -53.5 -34.5t-47.5 -30.5q-68 -43 -137 -70t-166 -27q-47 0 -95 10.5t-90 32t-76 53t-54 74.5 q-14 29 -22.5 52.5t-12.5 56.5t-6 80t-2 123v323q0 53 -2 75t-10 36q-8 25 -48 25h-43zM360 1290q0 37 4.5 58.5t15.5 34t32.5 18.5t58.5 10q59 8 79.5 -8.5t20.5 -75.5v-2q0 -82 -25.5 -110.5t-99.5 -28.5q-33 0 -50 7t-25.5 20.5t-9.5 32.5t-1 44zM711 1288q0 37 3 58.5 t13 34t32.5 18.5t59.5 10q59 8 81 -8.5t22 -75.5l-2 -2q0 -82 -26 -110.5t-99 -28.5q-33 0 -49.5 7t-24.5 20.5t-9 32.5t-1 44z" />
<glyph unicode="&#xfd;" horiz-adv-x="983" d="M37 915v56h354v-53h-14q-20 0 -21 -17q0 -12 9.5 -33.5t21.5 -43t24.5 -41t18.5 -31.5l141 -236l142 197q6 10 17 26.5t22.5 36t21.5 41t14 39.5q6 27 -4 43t-45 16l-43 3v53h330v-53h-16q-16 0 -28.5 -8.5t-35.5 -37.5q-29 -37 -43 -53t-24 -31q-10 -16 -23.5 -35.5 t-44.5 -60.5l-156 -207q-27 -39 -34 -64.5t-7 -72.5v-164q0 -45 2 -67.5t7 -34.5q10 -29 53 -29h39v-53h-359v53h37q20 0 29 25q10 27 12 73t2 74l2 123q0 29 -1 42t-5 24q-2 10 -12 24q-53 84 -104.5 168t-104.5 170q-39 63 -72 101q-33 41 -69 41zM492 1042 q39 41 80.5 88.5t79.5 97.5t69 102t49 106l209 -47v-23q-49 -39 -107.5 -87t-119 -99.5t-116.5 -99.5t-99 -85z" />
<glyph unicode="&#xfe;" horiz-adv-x="880" d="M63 915v56h349v-53l-19 -3q-23 0 -29 -10t-10 -47l88 -2q37 0 75 1t76 -2t73.5 -11t70.5 -29q49 -29 77 -81t28 -118h-2q0 -123 -90 -206q-41 -37 -89.5 -58.5t-100.5 -33t-106.5 -15.5t-105.5 -6v-115q0 -43 2 -68.5t9.5 -39t19.5 -17.5t31 -4h47v-53h-348v53h18 q20 0 26.5 8.5t10.5 38.5q2 25 4 48.5t3 50t2 59.5t1 76v295v84v24q0 16 -1 32.5t-1 31.5v16q-2 59 -16 80q-10 18 -43 18h-50zM344 379q29 -4 48.5 -5t39.5 -1q98 0 158.5 56t60.5 159q0 94 -52 149.5t-150 55.5q-31 0 -93 -7q-4 -53 -7 -122.5t-3 -143.5z" />
<glyph unicode="&#xff;" horiz-adv-x="983" d="M-2 915v56h354v-53h-14q-18 0 -19 -17q0 -12 8.5 -33.5t20.5 -43t24.5 -41t18.5 -31.5l141 -236l142 197q6 10 17 26.5t22.5 36t21.5 41t15 39.5q6 27 -4.5 43t-45.5 16l-43 3v53h330v-53h-16q-16 0 -28.5 -8.5t-35.5 -37.5q-29 -37 -43 -53t-24 -31q-10 -16 -23.5 -35.5 t-44.5 -60.5l-156 -207q-27 -39 -34 -64.5t-7 -72.5v-164q0 -45 2.5 -67.5t6.5 -34.5q10 -29 53 -29h39v-53h-359v53h37q20 0 29 25q10 27 12 73t2 74l2 123q0 29 -1 42t-5 24q-2 10 -12 24q-53 84 -104.5 168t-104.5 170q-39 63 -72 101q-33 41 -69 41zM274 1290 q0 37 3.5 58.5t14.5 34t32.5 18.5t58.5 10q59 8 80.5 -8.5t21.5 -75.5v-2q0 -82 -25.5 -110.5t-99.5 -28.5q-33 0 -50 7t-25.5 20.5t-9.5 32.5t-1 44zM625 1288q0 37 3 58.5t13 34t32.5 18.5t59.5 10q59 8 81 -8.5t22 -75.5l-2 -2q0 -82 -26 -110.5t-99 -28.5q-33 0 -49.5 7 t-24.5 20.5t-9 32.5t-1 44z" />
<glyph unicode="&#x152;" horiz-adv-x="2064" d="M98 674q0 111 29 209t82 181t129 146.5t172 102.5q78 33 169 46t226 13h56q29 0 63 -2l158 -4q25 0 56.5 -1t72.5 -1q74 0 205 1t333 5l23 -16v-246h-70v57q0 27 -7 38t-36 28q-96 57 -250 57q-27 0 -53 -3t-74 -11q-4 -59 -7 -102.5t-4 -83t-2 -80.5t-1 -97v-133 q41 -2 71 -2h50q39 0 83 1t95 3q47 2 77 3t85 5l-12 -126q-25 2 -41 3l-33 2q-16 1 -34 1h-46l-176 2h-119v-387q0 -72 6 -112t19 -56q35 -41 147 -41q145 0 240 35q104 37 121 114l14 68l70 -15l-52 -260l-24 -22l-543 8q-43 0 -74.5 1t-54.5 1h-70q-37 0 -110 -4l-127 -4 q-29 -2 -56 -2h-51q-57 0 -103 3t-86 9t-77 17.5t-78 27.5q-86 35 -156.5 96.5t-120.5 143.5t-77 179.5t-27 203.5zM324 721q0 -152 34.5 -270.5t101 -201.5t162 -126t218.5 -43q47 0 91 7t83 19.5t69.5 30t49.5 37.5q25 29 35 91.5t10 199.5v473v121q0 76 -15.5 110.5 t-60.5 57.5q-51 27 -126 42t-153 15q-170 0 -284 -76q-102 -68 -158.5 -196.5t-56.5 -290.5z" />
<glyph unicode="&#x153;" horiz-adv-x="1538" d="M68 481q0 158 86 279t233 174q61 23 132 33t169 8q53 -2 104.5 -3t102.5 -3h94h63q44 0 99 1t116.5 2t114.5 1l19 -12v-185h-62l-2 43q0 16 -5 24.5t-21 18.5q-68 41 -176 39q-18 0 -37 -2t-51 -6q-2 -39 -4.5 -69.5t-4.5 -58.5t-2 -57v-69l-2 -84h84q29 0 61.5 1t69.5 3 q35 2 58.5 2t64.5 4l-10 -104q-35 4 -56.5 5t-60.5 1h-23q-19 0 -41 1t-41 1h-24h-80v-250q0 -51 3 -76.5t10 -40.5q10 -18 36.5 -27t75.5 -7q49 0 93 6t77 18q68 27 82 84l10 45l62 -12l-43 -199l-19 -16l-405 8h-96q-16 0 -61.5 -1t-84.5 -1q-45 -2 -91 -3t-91 -1 q-82 2 -137.5 12t-114.5 33q-129 53 -201.5 170.5t-72.5 269.5zM266 510q0 -205 98.5 -324.5t276.5 -119.5q66 0 118 19t72 50q16 23 22.5 64t6.5 125v338v86q0 47 -9 70.5t-36 39.5q-31 20 -79 31.5t-103 11.5q-125 2 -207 -51q-76 -47 -118 -136t-42 -204z" />
<glyph unicode="&#x178;" horiz-adv-x="1275" d="M0 1303v63h424v-61h-16q-29 0 -29 -29q-2 -23 11 -57.5t31.5 -69.5t35 -62.5t20.5 -35.5l197 -353l188 285q8 12 23.5 35.5t32 53.5t33 62.5t24.5 63.5q5 21 5 40q0 20 -6 36q-11 31 -63 31h-57v61h422v-61h-19q-27 0 -43 -13.5t-47 -56.5t-48 -67.5t-27.5 -39 t-17.5 -23.5t-17 -25l-27 -40q-16 -25 -47 -67l-188 -277q-23 -33 -36.5 -58.5t-20.5 -51t-9 -55t-2 -70.5v-211q0 -63 3 -96t9 -52q16 -41 74 -41h49v-61h-442v61h51q25 0 39 25q10 16 14 37.5t5 44t1 43.5v35l5 217q0 47 -1.5 69.5t-8.5 41t-22.5 42t-41.5 70.5l-252 451 q-47 84 -84 123q-41 43 -86 43h-39zM395 1657q0 37 3.5 58.5t14.5 34t31.5 17.5t57.5 9q59 8 80.5 -8.5t21.5 -75.5q0 -82 -25.5 -110.5t-99.5 -28.5q-31 0 -48 7t-25.5 20.5t-9.5 32.5t-1 44zM748 1657q0 37 3 58.5t13 34t31.5 17.5t58.5 9q59 8 81 -8.5t22 -75.5 q0 -82 -26 -110.5t-99 -28.5q-33 0 -49.5 7t-24.5 20.5t-9 32.5t-1 44z" />
<glyph unicode="&#x2c6;" d="M152 1042q39 41 84 91.5t85.5 101.5t71.5 98t41 82l158 8q14 -39 46 -89t73 -102t84 -102.5t77 -87.5l-45 -47q-66 55 -148.5 129t-164.5 144q-82 -68 -167 -141.5t-150 -131.5z" />
<glyph unicode="&#x2da;" d="M317 1257q0 41 16.5 77t44.5 61.5t64.5 41t79.5 15.5q82 0 134.5 -50t52.5 -126q0 -84 -57.5 -140.5t-143.5 -58.5q-84 0 -137.5 51t-53.5 129zM408 1260q0 -51 27.5 -79t74.5 -30q49 0 78.5 33t29.5 86q0 51 -27.5 79.5t-74.5 30.5q-49 0 -78.5 -32.5t-29.5 -87.5z" />
<glyph unicode="&#x2dc;" d="M164 1159q33 43 66.5 85t72.5 72t85 40t104 -15l90 -38q41 -16 72.5 -16.5t58 14t50 38t48.5 54.5l49 -35h-2q-33 -45 -66.5 -89t-73.5 -74t-86 -38t-102 17l-90 38q-43 18 -76.5 15.5t-60.5 -18t-49.5 -39t-40.5 -46.5z" />
<glyph unicode="&#x2013;" d="M0 522l41 111h51h28q11 0 21.5 -1t29.5 -1h54h94h426h117q33 0 50.5 1t36.5 1h75l-29 -111h-63q-16 0 -31.5 1t-46.5 1h-109h-434h-129q-37 0 -56.5 -1t-40.5 -1h-85z" />
<glyph unicode="&#x2014;" horiz-adv-x="2048" d="M0 522l43 111q70 0 138.5 -1t137.5 -1h1446q72 0 141.5 1t141.5 1l-29 -111q-63 0 -125.5 1t-126.5 1h-1454q-78 0 -156.5 -1t-156.5 -1z" />
<glyph unicode="&#x2018;" horiz-adv-x="512" d="M80 1096v2q0 72 22.5 130t62.5 107t98.5 89t127.5 77l41 -57q-35 -18 -71.5 -44t-66.5 -57.5t-48.5 -71.5t-18.5 -85q0 -37 12.5 -63.5t31 -45t40 -29t41.5 -14.5l10 -10q-12 -84 -32.5 -120t-55.5 -36q-37 0 -72.5 19.5t-62 51.5t-43 73t-16.5 84z" />
<glyph unicode="&#x2019;" horiz-adv-x="512" d="M80 907q35 18 71.5 44t66.5 57.5t48.5 71.5t18.5 85q0 37 -12.5 63.5t-31 45t-40 30t-41.5 13.5l-10 10q12 84 32.5 120t55.5 36q37 0 72.5 -19.5t62 -51.5t43 -73t16.5 -84h-2q0 -145 -85 -239t-226 -166z" />
<glyph unicode="&#x201a;" horiz-adv-x="512" d="M80 -328q35 18 71.5 44t66.5 57.5t48.5 71.5t18.5 85q0 37 -12.5 63.5t-31 45t-40 30t-41.5 13.5l-10 10q12 84 32.5 120t55.5 36q37 0 72.5 -19.5t62 -51.5t43 -73t16.5 -84q0 -145 -85 -239t-226 -166z" />
<glyph unicode="&#x201c;" d="M117 1094v2q0 72 22.5 130t62.5 107t98 89t128 77l39 -57q-35 -18 -71 -44t-65.5 -57.5t-48 -71.5t-18.5 -85q0 -37 11.5 -63.5t30 -45t40 -29t41.5 -14.5l12 -10q-12 -84 -32.5 -120t-55.5 -36q-37 0 -72.5 19.5t-62 51.5t-43 73t-16.5 84zM553 1096l2 2q0 72 22.5 130 t62.5 107t98.5 89t127.5 77l39 -57q-35 -18 -71.5 -44t-66.5 -57.5t-48.5 -71.5t-18.5 -85q0 -37 12.5 -63.5t31 -45t40 -29t41.5 -14.5l11 -10q-12 -84 -33 -120t-55 -36q-37 0 -73 19.5t-62.5 51.5t-43 73t-16.5 84z" />
<glyph unicode="&#x201d;" d="M119 907q35 18 71.5 44t66.5 57.5t48.5 71.5t18.5 85q0 37 -12.5 63.5t-31 45t-40 30t-41.5 13.5l-11 10q12 84 33 120t55 36q37 0 73 -19.5t62.5 -51.5t43 -73t16.5 -84l-2 -2q0 -143 -85 -237t-226 -166zM557 909q35 18 71 44t65.5 57.5t48 71.5t18.5 85 q0 37 -11.5 63.5t-30 45t-40 30t-41.5 13.5l-12 10q12 84 32.5 120t55.5 36q37 0 72.5 -19.5t62 -51.5t43 -73t16.5 -84v-2q0 -143 -85 -237t-226 -166z" />
<glyph unicode="&#x201e;" d="M119 -328q35 18 71.5 44t66.5 57.5t48.5 71.5t18.5 85q0 37 -12.5 63.5t-31 45t-40 30t-41.5 13.5l-11 10q12 84 33 120t55 36q37 0 73 -19.5t62.5 -51.5t43 -73t16.5 -84h-2q0 -145 -85 -239t-226 -166zM557 -328q35 18 71 44t65.5 57.5t48 71.5t18.5 85 q0 37 -11.5 63.5t-30 45t-40 30t-41.5 13.5l-12 10q12 84 32.5 120t55.5 36q37 0 72.5 -19.5t62 -51.5t43 -73t16.5 -84q0 -145 -85 -239t-226 -166z" />
<glyph unicode="&#x2022;" d="M170 573q0 72 26.5 134.5t72.5 108.5t109.5 72.5t135.5 26.5t133.5 -26.5t107.5 -72.5t72.5 -107.5t26.5 -133.5h-2q0 -72 -26.5 -134t-72.5 -108t-108.5 -71.5t-134.5 -25.5q-70 0 -132.5 25.5t-108.5 71.5t-72.5 107t-26.5 133z" />
<glyph unicode="&#x2026;" horiz-adv-x="2048" d="M287 96q0 37 3 60.5t15 38t33.5 20.5t58.5 10q35 4 57.5 3t35 -11t17.5 -33.5t5 -64.5q0 -76 -29.5 -104.5t-109.5 -28.5q-33 0 -50.5 6t-25.5 20.5t-9 34.5t-1 49zM918 96q0 37 3 60.5t15 38t33.5 20.5t58.5 10q35 4 57.5 3t35 -11t17.5 -33.5t5 -64.5q0 -76 -30 -104.5 t-109 -28.5q-33 0 -50.5 6t-25.5 20.5t-9 34.5t-1 49zM1556 96q0 37 3.5 60.5t15.5 38t33.5 20.5t58.5 10q35 4 57.5 3t35 -11t17.5 -33.5t5 -64.5q0 -76 -30 -104.5t-110 -28.5q-33 0 -50 6t-25 20.5t-9.5 34.5t-1.5 49z" />
<glyph unicode="&#x2039;" horiz-adv-x="614" d="M82 522q0 16 10 33q8 10 27.5 28.5t62.5 55.5t117 97.5t190 156.5l46 -62q-35 -39 -59.5 -67.5t-50.5 -60t-58.5 -74.5t-81.5 -109q49 -66 81.5 -107.5t58.5 -73.5t50.5 -59.5t59.5 -66.5l-46 -61q-209 172 -368 307q-23 18 -31 32.5t-8 30.5z" />
<glyph unicode="&#x203a;" horiz-adv-x="614" d="M82 213q35 39 59.5 66.5t50 59.5t58.5 74t82 107q-49 66 -82 109t-58.5 74.5t-50 60.5t-59.5 67l45 62q104 -86 196.5 -162t172.5 -145q39 -33 39 -64q0 -18 -11 -33q-8 -10 -26.5 -27.5t-61.5 -54t-117.5 -98t-191.5 -157.5z" />
<glyph unicode="&#x2122;" horiz-adv-x="2048" d="M119 1184v170l16 12l207 -2h279l204 2l19 -12v-170h-56v39q0 39 -15 49t-44 20q-25 8 -43 10.5t-53 2.5q-20 0 -40 -1t-40 -1q-2 -33 -4 -57.5t-3 -47t-1 -48.5v-60v-371q0 -53 1 -73.5t5 -33.5q6 -18 47 -18h37v-49h-295v49l45 -2q12 0 16.5 5t8.5 32q2 14 3 34.5 t3 45.5q2 29 2 58v58v400l-4 78q-23 0 -43.5 1t-42.5 1q-35 0 -52.5 -2.5t-42.5 -12.5q-33 -10 -47 -20t-14 -45v-41h-53zM930 1315v49l203 2q10 -25 19 -49.5t19 -48.5q20 -41 43 -81t46 -81l163 -297l158 299q25 47 41 80t28.5 60.5t22.5 54t23 63.5l182 -2v-47h-12 q-10 0 -15 -2q-8 -4 -13 -16.5t-9 -36.5q-2 -27 0 -76l4 -109l12 -315v-51q0 -29 4 -56q4 -29 14.5 -45t28.5 -16h37v-49h-252l-2 47h15q10 0 14 4q4 2 8 22q2 18 3 43t1 49.5t-1 45t-1 28.5l-10 402l-174 -334q-31 -59 -54.5 -104.5t-45.5 -98.5l-68 2l-22 43l-20 40 t-26.5 50.5t-40.5 71.5l-161 295q-2 -70 -3.5 -120t-2.5 -84t-1 -54v-35q0 -14 -1 -24.5t-1 -22.5v-30v-46q0 -96 15 -123q10 -18 37 -18h32v-49h-219v47q10 0 17.5 1t13.5 3q4 4 7 19.5t7 54.5q2 20 3 45.5t1 58.5q4 41 7 74q2 57 4 96t3 66.5t2 44t1 28.5t1 20.5t1 19.5 v29v48q0 41 -2 63.5t-7.5 34t-14.5 14.5t-23 3h-39z" />
<glyph unicode="&#xe000;" horiz-adv-x="970" d="M0 970h970v-970h-970v970z" />
<glyph unicode="&#xfb01;" horiz-adv-x="1310" d="M63 918v53l639 2l19 -12v-197h-64v47q0 23 -5 33t-23 20q-35 18 -78 28.5t-100 10.5q-23 0 -44.5 -2t-56.5 -6q-2 -39 -4 -69.5t-4 -59.5t-2 -58v-69v-96q43 -2 97.5 -1t97.5 1q41 2 74.5 3t84.5 5l-10 -102q-41 4 -78 4h-76q-41 0 -94 1t-96 -1v-252v-53q0 -30 8 -52 q6 -20 19.5 -31.5t42.5 -11.5h49v-53h-357v53h19q20 0 26.5 8.5t8.5 38.5q2 25 4 48.5t3 50t2 59.5t1 76v448q0 55 -2 77t-10 36q-12 23 -50 23h-41zM862 918v53h359v-53h-37q-20 0 -26.5 -8.5t-10.5 -39.5q-2 -16 -3 -42.5t-2 -59.5t-2 -67.5t-1 -67.5v-451q0 -45 2 -67.5 t6 -34.5q10 -27 51 -27h43v-53h-360v53l37 -2q20 0 26 8.5t10 40.5q4 35 6.5 102.5t2.5 131.5l2 448q0 51 -2 71.5t-9 37.5q-10 27 -51 27h-41z" />
<glyph unicode="&#xfb02;" horiz-adv-x="1597" d="M63 918v53l639 2l19 -12v-197h-64v47q0 23 -5 33t-23 20q-35 18 -78 28.5t-100 10.5q-23 0 -44.5 -2t-56.5 -6q-2 -39 -4 -69.5t-4 -59.5t-2 -58v-69v-96q43 -2 97.5 -1t97.5 1q41 2 74.5 3t84.5 5l-10 -102q-41 4 -78 4h-76q-41 0 -94 1t-96 -1v-252v-53q0 -30 8 -52 q6 -20 19.5 -31.5t42.5 -11.5h49v-53h-357v53h19q20 0 26.5 8.5t8.5 38.5q2 25 4 48.5t3 50t2 59.5t1 76v448q0 55 -2 77t-10 36q-12 23 -50 23h-41zM862 918v53h359v-53h-31q-25 0 -32 -7.5t-11 -40.5t-6 -102.5t-2 -134.5v-416q0 -39 1 -62.5t9 -39.5q8 -27 32.5 -38 t80.5 -11q53 0 97 6t77 20q70 27 84 92l10 45l63 -10l-45 -209l-18 -16l-631 6v53h21q20 0 26 8.5t8 38.5q2 25 4.5 48.5t3.5 50t2 59.5t1 76v448q0 55 -2 77t-11 36q-12 23 -49 23h-41z" />
<glyph unicode="&#xfb03;" horiz-adv-x="2103" d="M1655 918v53h358v-53h-35q-20 0 -27.5 -8.5t-11.5 -39.5q-2 -16 -3 -42.5t-2 -59.5t-2 -67.5t-1 -67.5v-451q0 -45 2 -67.5t8 -34.5q10 -27 52 -27h41v-53h-359v53l35 -2q20 0 27.5 8.5t11.5 40.5q4 35 6 102.5t2 131.5v448q0 51 -2 71.5t-6 37.5q-10 27 -53 27h-41z M856 918v53l639 2l19 -12v-197h-64v47q0 23 -5 33t-23 20q-35 18 -78 28.5t-100 10.5q-23 0 -44.5 -2t-56.5 -6q-2 -39 -4 -69.5t-4 -59.5t-2 -58v-69v-96q29 -1 62 -2q17 0 35 1q54 1 98 1q41 2 74.5 3t84.5 5l-10 -102q-41 4 -78 4h-76q-41 0 -94 1h-34q-33 0 -62 -1v-252 v-53q0 -30 8 -52q6 -20 19.5 -31.5t42.5 -11.5h49v-53h-357v53h19q20 0 26.5 8.5t8.5 38.5q2 25 4 48.5t3 50t2 59.5t1 76v448q0 55 -2 77t-10 36q-12 23 -50 23h-41zM63 918v53l639 2l19 -12v-197h-64v47q0 23 -5 33t-23 20q-35 18 -78 28.5t-100 10.5q-23 0 -44.5 -2 t-56.5 -6q-2 -39 -4 -69.5t-4 -59.5t-2 -58v-69v-96q29 -1 62 -2q17 0 35 1q54 1 98 1q41 2 74.5 3t84.5 5l-10 -102q-41 4 -78 4h-76q-41 0 -94 1h-34q-33 0 -62 -1v-252v-53q0 -30 8 -52q6 -20 19.5 -31.5t42.5 -11.5h49v-53h-357v53h19q20 0 26.5 8.5t8.5 38.5 q2 25 4 48.5t3 50t2 59.5t1 76v448q0 55 -2 77t-10 36q-12 23 -50 23h-41z" />
<glyph unicode="&#xfb04;" horiz-adv-x="2406" d="M1648 918v53h359v-53h-31q-25 0 -32 -7.5t-11 -40.5t-6 -102.5t-2 -134.5v-416q0 -39 1 -62.5t9 -39.5q8 -27 33 -38t80 -11q53 0 97 6t77 20q70 27 84 92l10 45l64 -10l-45 -209l-19 -16l-629 6v53h19q20 0 26.5 8.5t8.5 38.5q2 25 4 48.5t3 50t2 59.5t1 76v448 q0 55 -2 77t-10 36q-12 23 -50 23h-41zM856 918v53l639 2l19 -12v-197h-64v47q0 23 -5 33t-23 20q-35 18 -78 28.5t-100 10.5q-23 0 -44.5 -2t-56.5 -6q-2 -39 -4 -69.5t-4 -59.5t-2 -58v-69v-96q29 -1 62 -2q17 0 35 1q54 1 98 1q41 2 74.5 3t84.5 5l-10 -102q-41 4 -78 4 h-76q-41 0 -94 1h-34q-33 0 -62 -1v-252v-53q0 -30 8 -52q6 -20 19.5 -31.5t42.5 -11.5h49v-53h-357v53h19q20 0 26.5 8.5t8.5 38.5q2 25 4 48.5t3 50t2 59.5t1 76v448q0 55 -2 77t-10 36q-12 23 -50 23h-41zM63 918v53l639 2l19 -12v-197h-64v47q0 23 -5 33t-23 20 q-35 18 -78 28.5t-100 10.5q-23 0 -44.5 -2t-56.5 -6q-2 -39 -4 -69.5t-4 -59.5t-2 -58v-69v-96q29 -1 62 -2q17 0 35 1q54 1 98 1q41 2 74.5 3t84.5 5l-10 -102q-41 4 -78 4h-76q-41 0 -94 1h-34q-33 0 -62 -1v-252v-53q0 -30 8 -52q6 -20 19.5 -31.5t42.5 -11.5h49v-53 h-357v53h19q20 0 26.5 8.5t8.5 38.5q2 25 4 48.5t3 50t2 59.5t1 76v448q0 55 -2 77t-10 36q-12 23 -50 23h-41z" />
</font>
</defs>
</svg>
