<?xml version="1.0" standalone="no"?>
<!DOCTYPE svg PUBLIC "-//W3C//DTD SVG 1.1//EN" "http://www.w3.org/Graphics/SVG/1.1/DTD/svg11.dtd" >
<svg xmlns="http://www.w3.org/2000/svg">
<metadata></metadata>
<defs>
<font id="patrick_hand_regularregular" horiz-adv-x="404" >
<font-face units-per-em="1000" ascent="800" descent="-200" />
<missing-glyph horiz-adv-x="228" />
<glyph unicode="&#xfb01;" horiz-adv-x="361" d="M-35 428q0 44 78 44q11 0 34 -3q3 188 55 227q25 19 71 19q125 0 125 -127q0 -22 -12 -35.5t-31.5 -13.5t-32 13t-12.5 32l4 24q0 19 -10 25.5t-17 6.5q-41 0 -54.5 -19.5t-13.5 -63.5l2 -90l72 2l27 1q75 0 78 -42q2 -53 2 -82l-6 -254q0 -36 1 -52q-3 -19 -16 -32.5 t-30 -13.5t-27 25q0 13 -6.5 131t-6.5 172t1 75q-14 -5 -32 -5h-53q2 -57 10 -160.5t8 -188.5q-3 -17 -18.5 -30.5t-30.5 -13.5q-27 0 -27 32q0 84 -9 183t-11 178q-17 1 -41 1t-37 2t-23.5 13t-10.5 20z" />
<glyph unicode="&#xfb02;" horiz-adv-x="562" d="M-40 390q0 42 72 42q12 0 40 -1q4 202 53 276q40 61 110 61t93.5 -20.5t23.5 -85.5q-9 -121 -9 -204.5t6 -266.5q3 -66 33 -97q17 -17 35 -17q27 0 52.5 39.5t51.5 39.5q12 0 21 -7.5t9 -22t-22 -44.5t-57.5 -56t-65.5 -26t-52.5 12.5t-37 30.5t-24.5 49 q-18 58 -22.5 120t-4.5 142h-116q2 -52 7 -130t5 -181q-3 -17 -18.5 -30t-30.5 -13q-27 0 -27 31q0 84 -5.5 163.5t-7.5 159.5h-50q-38 0 -50 13t-12 23zM145 427h119l-1 143q0 68 5 125q-47 0 -73.5 -26t-37.5 -70.5t-11.5 -85t-0.5 -60.5v-26z" />
<glyph unicode="&#xfb03;" horiz-adv-x="556" d="M-17 431q0 16 15 28.5t34 12.5l62 -3q2 146 10 172q15 51 34.5 62.5t53.5 11.5q75 0 85 -35q9 16 40 25t66 9q60 0 98.5 -32t38.5 -94q0 -22 -12 -35.5t-31.5 -13.5t-32 13t-12.5 32l2 21q0 32 -51 32q-25 0 -34 -19.5t-9 -65.5l1 -84l56 1h25q95 0 98 -41q2 -53 2 -82 l-6 -254q0 -36 1 -52q-3 -19 -16 -32.5t-30 -13.5t-27 25q0 13 -6.5 131t-6.5 172t1 75q-16 -5 -66 -5h-22q2 -52 9 -158.5t7 -192.5q-3 -17 -19 -31t-29 -14q-28 0 -28 33q0 83 -7 183t-9 180l-29 2l-23 -2q-1 0 -44 3q1 -53 8 -159.5t7 -192.5q-2 -17 -18.5 -30.5 t-29.5 -13.5q-27 0 -27 32q0 85 -8 186t-10 178h-45q-66 0 -66 36zM168 559l1 -90h99l-3 83l3 43q0 45 -48 45q-26 0 -36 -9.5t-13 -25.5t-3 -46z" />
<glyph horiz-adv-x="1000" />
<glyph horiz-adv-x="1000" />
<glyph unicode="&#xd;" horiz-adv-x="1000" />
<glyph unicode=" "  horiz-adv-x="228" />
<glyph unicode="&#x09;" horiz-adv-x="228" />
<glyph unicode="&#xa0;" horiz-adv-x="228" />
<glyph unicode="!" horiz-adv-x="247" d="M77 688q5 14 21.5 19.5t27.5 5.5q33 0 38 -25l-9 -341q0 -47 1 -72q-4 -13 -15.5 -23t-25.5 -10t-23 22q-15 252 -15 424zM80 84q0 16 13 32t36.5 16t35 -8.5t11.5 -40t-14.5 -42t-29.5 -10.5q-23 0 -37.5 18.5t-14.5 34.5z" />
<glyph unicode="&#x22;" horiz-adv-x="303" d="M44 583l8 149q2 15 12 23t22 8q26 0 31 -29q4 -22 4 -39t-3 -41t-5 -70q-1 -17 -11 -27t-22.5 -10t-22.5 9.5t-13 26.5zM167 596q0 48 3 63.5t3 61.5q2 16 12 25t21.5 9t21 -8t12.5 -22l-5 -125q0 -18 -10.5 -27.5t-21.5 -9.5q-33 0 -36 33z" />
<glyph unicode="#" horiz-adv-x="457" d="M35 133q0 12 10 21.5t26 9.5h32q12 49 40 113q-39 -2 -60 -2q-16 1 -25 10.5t-9 21.5t7.5 19.5t21.5 11.5t27.5 6t34.5 4t32 4q6 13 10.5 44.5t14 49.5t28 18t26.5 -9t8 -29t-15 -67q14 0 72 -4q3 10 6 26q8 39 14 55q9 27 31 27q30 0 30 -41q0 -24 -17 -74 q3 0 15.5 -2.5t20.5 -4.5q20 -6 20 -28q0 -11 -7.5 -20.5t-12 -10t-13 -0.5t-43.5 2q-15 -35 -24.5 -67.5t-15.5 -44.5h39q26 -12 26 -33q0 -12 -7.5 -21t-21.5 -11h-49q-1 -8 -3 -28q-3 -33 -10.5 -58t-32 -25t-28.5 27l11 81l-92 -4q-2 -10 -5.5 -31.5t-6 -33.5t-11 -23 t-20.5 -11t-21.5 9t-10.5 25q1 10 4 31.5t4 33.5h-17q-15 2 -24 11.5t-9 21.5zM168 167q31 0 89 2q5 19 9 35q17 67 23 88q-44 0 -74 -4q-10 -19 -47 -121z" />
<glyph unicode="$" horiz-adv-x="507" d="M60 128q0 16 9 25.5t21.5 9.5t34 -19t48 -42t47.5 -30q3 39 5 119.5t7 124.5q-119 45 -149 92q-12 20 -12 55.5t19 79.5t56.5 77.5t86.5 43.5v28q2 15 12 23.5t22 8.5q25 0 34 -29v-28q63 -5 111.5 -36.5t63.5 -82.5q-1 -23 -19 -33q-8 -4 -17 -4q-21 0 -31 24 q-7 27 -34 42t-64 19v-27l-3 -102l-3 -106q83 -31 126.5 -83.5t43.5 -134.5q0 -37 -17 -65t-46 -44q-57 -30 -128 -30l-1 -24q-1 -17 -11.5 -28t-23 -11t-22 9.5t-11.5 26.5v28q-53 14 -104 49.5t-51 73.5zM140 460q3 -43 99 -75l1 83l2 90q0 23 -1 35q-44 -11 -72.5 -52 t-28.5 -81zM287 61q117 9 117 71t-25.5 96t-82.5 60q-4 -41 -5.5 -117t-3.5 -110z" />
<glyph unicode="%" horiz-adv-x="643" d="M43 477q0 57 24 95t59.5 56.5t83.5 18.5t85 -28.5t37 -89.5t-51.5 -121t-117.5 -60q-46 0 -83 36t-37 93zM97 42.5q0 9.5 7 23.5q11 22 62 84t121.5 179t102 166t41.5 71q20 46 49 70q19 13 34.5 13t20 -7.5t4.5 -23.5v-19q0 -16 -55 -96q-10 -14 -45.5 -65.5 t-119 -182.5t-128.5 -207q-25 -41 -51 -41t-38 18q-5 8 -5 17.5zM116 487q0 -39 11 -50.5t41 -11.5t59.5 25t29.5 65q0 73 -45 73q-47 0 -71.5 -31t-24.5 -70zM324 131.5q0 63.5 51 110.5t107 47t90.5 -40.5t34.5 -101.5t-45.5 -100.5t-105.5 -39.5t-96 30.5t-36 94z M398 141q0 -65 62 -65q27 0 54 25t27 50q0 44 -23 62q-11 8 -26 8q-34 0 -64 -21.5t-30 -58.5z" />
<glyph unicode="&#x26;" horiz-adv-x="564" d="M67 200q0 73 35 113t86 72q-42 86 -42 147t34.5 96.5t82 35.5t81.5 -44.5t34 -97.5t-27.5 -87.5t-79.5 -70.5q10 -18 33 -51.5t32 -49.5l28 -51q26 43 32 73.5t37 30.5q15 0 25 -9.5t10 -25.5q0 -39 -70 -133q29 -63 41 -104q-2 -16 -13 -26.5t-21 -10.5t-16.5 4t-10.5 9 q-8 12 -15.5 35t-12.5 34q-40 -48 -68.5 -66t-66 -18t-74 32.5t-55.5 78t-19 84.5zM138 204q0 -26 11 -55q21 -59 66 -59t104 64q-11 20 -44 73t-48 85l-7 14q-26 -19 -42 -35q-40 -40 -40 -87zM215 504q4 -41 26 -86q64 44 64 85t-14 63t-28 22q-46 0 -48 -84z" />
<glyph unicode="'" horiz-adv-x="164" d="M44 691l8 149q2 15 12 23t22 8q26 0 31 -29q4 -22 4 -39t-3 -41t-5 -70q-1 -17 -11 -27t-22.5 -10t-22.5 9.5t-13 26.5z" />
<glyph unicode="(" horiz-adv-x="334" d="M60 327q0 116 9 156q18 81 42.5 127t46.5 79.5t43 58.5t31.5 31.5t23.5 6.5t25.5 -10t12.5 -17q0 -11 -50 -81.5t-62 -92.5q-32 -55 -38.5 -119t-6.5 -131.5t21.5 -153.5t49.5 -116q85 -93 85 -114q0 -12 -15 -18t-31 -6t-30 12q-93 93 -125 182.5t-32 205.5z" />
<glyph unicode=")" horiz-adv-x="364" d="M59 -42q0 3 50.5 76t63.5 95q32 59 39.5 122t7.5 132t-22 155.5t-50 116.5q-88 91 -88 117q0 10 15 15.5t33 5.5t25 -9q100 -99 131 -191.5t31 -221t-25 -204.5t-96 -174q-36 -49 -49.5 -58t-27.5 -9t-26 10.5t-12 21.5z" />
<glyph unicode="*" d="M43 638.5q0 14.5 10 24.5t21 10t20 -5t20.5 -15t20 -19t20.5 -21.5t17 -17.5q1 10 1 30q2 39 7 63q7 31 32.5 31t34.5 -30l-5 -65q36 21 75 37h5q16 0 26 -9.5t10 -21.5t-14.5 -25.5t-31.5 -23t-41 -22.5t-35 -20q16 -13 47 -26.5t49 -25.5t18 -26.5t-9.5 -24t-26.5 -9.5 q-34 0 -87 37q-1 -5 -1.5 -14.5t-1 -14.5t-1 -13t-1.5 -12t-3 -10q-6 -21 -28 -21q-13 0 -22.5 9.5t-12.5 26.5q0 36 4 72q-54 -38 -74.5 -38t-30.5 16q-5 8 -5 17t8.5 18.5t17.5 16t26.5 16.5l24.5 14q-46 44 -71 64q-13 13 -13 27.5z" />
<glyph unicode="+" horiz-adv-x="480" d="M35 227q0 16 13 32t32 18h124v8l-2 70q0 59 14 80t37 21t30 -29l-2 -150h126q29 -5 29 -27q0 -16 -12 -30.5t-29 -19.5h-115q-1 -11 -1 -23l1 -48q0 -117 -49 -117q-31 0 -31 35q0 102 3 153h-135q-33 0 -33 27z" />
<glyph unicode="," horiz-adv-x="202" d="M46 -53q0 10 3 21q19 21 25 45.5t6 59.5q6 31 33 31t36 -28q0 -67 -21 -119q-7 -19 -20 -32t-29 -13q-33 0 -33 35z" />
<glyph unicode="-" d="M36 232.5q0 36.5 49 43.5h246q37 -11 37 -37q0 -31 -45 -43h-255q-32 0 -32 36.5z" />
<glyph unicode="." horiz-adv-x="214" d="M55 46q0 23 14.5 48.5t42.5 25.5q14 0 31.5 -14.5t20.5 -45.5q0 -22 -16 -40.5t-36.5 -18.5t-38.5 11t-18 34z" />
<glyph unicode="/" horiz-adv-x="423" d="M44 -14q0 4 3 14q56 130 145 362.5t139 350.5q14 26 41 26q11 0 19.5 -7t8.5 -18.5t-24.5 -69t-117 -293.5t-150.5 -371q-17 -23 -37 -23q-27 0 -27 29z" />
<glyph unicode="0" horiz-adv-x="448" d="M31 316q0 134 48 236q23 51 64 81.5t95 30.5t96 -52q81 -101 81 -289.5t-77 -276.5q-41 -47 -99 -47q-208 0 -208 317zM115 319.5q0 -92.5 34.5 -160.5t79.5 -68q25 0 36 9.5t17 14t11.5 16.5t8.5 17.5t7.5 21t5.5 18.5q17 57 17 120t-5.5 109t-17 86t-30.5 65t-47 25 t-52 -26t-37 -69q-28 -86 -28 -178.5z" />
<glyph unicode="1" horiz-adv-x="363" d="M26 406.5q0 15.5 9 29.5l188 201q23 21 57.5 21t39.5 -27q-7 -134 -7 -275t3 -309q-3 -19 -18.5 -34t-34.5 -15t-28 25q-3 142 -3 268t3 237q-37 -33 -74.5 -78.5t-65.5 -72.5q-14 -9 -30 -9t-27.5 11.5t-11.5 27z" />
<glyph unicode="2" horiz-adv-x="468" d="M44 54q0 34 35 85.5t51 66.5t44.5 40.5t43.5 39.5q107 101 107 192q0 49 -27 80.5t-73 31.5t-100 -46q-15 -14 -26 -14q-32 0 -32 39q0 25 33.5 48.5t71 34t73 10.5t73.5 -20.5t61 -60t23 -94t-18.5 -103t-50 -85.5t-65.5 -68q-102 -94 -135 -143q61 -4 133.5 -4t157.5 7 q31 -6 31 -30q0 -15 -8.5 -26t-27.5 -17q-51 -18 -147 -18h-42h-11h-16.5t-22.5 0.5t-24 1t-23 2t-23.5 3.5t-20.5 5q-17 4 -31 14.5t-14 27.5z" />
<glyph unicode="3" horiz-adv-x="448" d="M32 114q0 20 14.5 33.5t31 13.5t24.5 -5.5t28 -23.5q26 -22 52 -37.5t64.5 -15.5t63 42.5t24.5 95.5q0 71 -77 93q-35 10 -93 14q-24 7 -24 25t10 29t31 11t49.5 17t48 43.5t19.5 54.5t-23.5 56t-56 28t-61.5 -17.5t-49 -37.5q-15 -11 -30 -11t-23.5 8.5t-8.5 21.5 q0 25 34 53t78.5 45t76.5 17q68 0 104.5 -43t36.5 -91q0 -95 -65 -154q48 -18 76.5 -62.5t28.5 -101.5t-19.5 -104.5t-59.5 -79t-82.5 -31.5t-93.5 19t-90 47t-39 48z" />
<glyph unicode="4" horiz-adv-x="375" d="M36 326.5q0 68.5 10 132t18 110.5t9 56q6 18 22 29t30 11q31 0 31 -31v-9q-2 -11 -6 -39.5t-6 -41l-6 -37.5q-12 -87 -12 -137.5t1 -64.5q13 -3 34.5 -3t50.5 2.5t41 2.5q4 58 6.5 105t9 51t21.5 4t21 -1q19 -1 24.5 -15.5t5.5 -46.5l-7 -240q0 -67 6 -120 q-4 -17 -20 -31t-33 -14q-37 0 -37 116l1 52q0 6 0.5 25.5t0.5 28.5q-36 -6 -101.5 -6t-90 21.5t-24.5 90z" />
<glyph unicode="5" horiz-adv-x="423" d="M34 106.5q0 17.5 7 29.5q15 25 40.5 25t43.5 -21q37 -45 57 -53t38 -8q45 2 71 48t26 91q0 80 -44 107.5t-94 27.5q-16 0 -38.5 -5t-35 -5t-24.5 5q-28 12 -29 47q-1 21 -6 89t-5 98q0 70 23 70q129 4 140 4q104 0 152 -15q20 -12 20 -35t-13 -35t-26.5 -12t-60.5 10.5 t-81.5 10.5t-55.5 -15t-21 -57q0 -11 1.5 -37t1.5 -40q29 11 72 11q104 0 157.5 -56.5t53.5 -157.5q0 -126 -85 -191q-44 -33 -97 -33t-88 9q-58 16 -83 51q-17 25 -17 42.5z" />
<glyph unicode="6" horiz-adv-x="399" d="M35 177v49t21 104.5t44 120.5t43 83.5t35 53t31 40t22 29t23 8.5t28.5 -6.5t11 -15t-20.5 -42.5t-47.5 -79t-31.5 -52t-12 -22q-34 -70 -43 -104l65 2q69 0 116.5 -33.5t47.5 -117t-63.5 -140t-142.5 -56.5t-105 58q-20 48 -22 120zM115 186q0 -41 17.5 -75.5t45.5 -34.5 q45 0 80 38.5t35 81.5q0 19 -10 40q-19 38 -80 38l-72 -5q-16 -42 -16 -83z" />
<glyph unicode="7" horiz-adv-x="495" d="M17 632q0 11 11.5 22.5t18 11.5t12 -1t146.5 -23t156 -30q1 0 2 -1q26 -15 26 -31q0 -45 -34 -45l-7 1q0 -4 -7 -105l104 1q16 -3 22 -9.5t6 -21.5q0 -42 -82 -42l-48 1q-14 0 -14 -211q0 -70 2 -106q-4 -17 -18 -30.5t-29 -13.5q-28 0 -28 75q0 156 9 286l-132 -8 q-13 0 -21.5 7t-8.5 19.5t13 27.5t29 18l126 3q2 21 4.5 62t4.5 62q-43 6 -125 21t-118 21q-20 12 -20 39z" />
<glyph unicode="8" horiz-adv-x="433" d="M31 141q0 47 16 87q32 84 108 140q-42 24 -71 72.5t-29 97.5q0 63 48 95t118.5 32t120 -42.5t49.5 -95.5q0 -31 -30.5 -80t-73.5 -75q99 -116 99 -214q0 -75 -53 -116t-133 -41t-132 54q-37 39 -37 86zM106 162q0 -39 33 -62t86.5 -23t72.5 35q6 13 7 31q0 80 -93 180 q-76 -48 -99 -115q-7 -22 -7 -46zM126 526q0 -27 17 -44t26 -24t27.5 -20t26.5 -19q101 70 101 108q0 21 -13 37q-25 31 -76 31h-24q-85 0 -85 -69z" />
<glyph unicode="9" horiz-adv-x="367" d="M29 488.5q0 62.5 18 95t73 57.5t95 25t61 -9q37 -17 48 -55t11 -91l-3 -228q0 -150 4 -239q-2 -16 -15.5 -29.5t-30 -13.5t-26.5 22q-7 162 -7 326q-25 -19 -57 -31.5t-59.5 -12.5t-49.5 17.5t-35 45.5q-27 58 -27 120.5zM102 502q0 -61 27 -96q16 -21 40 -21q3 1 16 5 t17 6q36 12 57 29l1 72q0 72 -19 95q-13 4 -37 4q-102 0 -102 -94z" />
<glyph unicode=":" horiz-adv-x="232" d="M59 344.5q0 22.5 14 48.5t42 26q15 0 32.5 -15t20.5 -45q0 -22 -16.5 -40.5t-36.5 -18.5t-38 11t-18 33.5zM65 56q0 57 59 57q9 0 20 -5q6 -4 15 -21.5t9 -36t-17 -34t-38 -15.5t-34.5 15.5t-13.5 39.5z" />
<glyph unicode=";" horiz-adv-x="232" d="M56 60.5q0 22.5 13.5 40.5t37 18t36.5 -9q25 -16 25 -71t-29 -90t-51 -35t-22 15q0 7 21 32.5t25 43.5q-22 0 -39 16.5t-17 39zM59 339.5q0 14.5 5 31.5t18.5 31t30.5 14t34.5 -14.5t20.5 -45.5q0 -21 -16.5 -39t-33 -18t-28.5 4t-21.5 13t-9.5 23.5z" />
<glyph unicode="&#x3c;" horiz-adv-x="396" d="M26 236q0 18 17 29q143 119 256 192q9 5 22 5t23.5 -11t10.5 -25.5t-8 -24.5q-44 -33 -123.5 -90.5t-104.5 -75.5q34 -25 112 -77t118 -85q8 -12 8 -24t-13 -23.5t-26 -11.5t-18 3q-42 33 -129 93t-130 95q-15 13 -15 31z" />
<glyph unicode="=" horiz-adv-x="572" d="M109 229q0 14 8 27t20 15q143 1 315 1q22 -1 22 -25q0 -13 -7.5 -25t-18.5 -14l-316 -4q-23 0 -23 25zM116 396q0 13 8.5 26t20.5 15l190 -4q44 0 120 4q19 -4 19 -20t-8 -28.5t-18 -16.5q-74 -4 -118 -4l-190 4q-24 0 -24 24z" />
<glyph unicode="&#x3e;" horiz-adv-x="400" d="M42 434q0 28 26 28q10 0 21 -5q42 -35 133 -96t133 -96q19 -17 19 -31t-10 -25q-42 -34 -131.5 -96t-131.5 -96q-5 -3 -19 -3t-26.5 12t-12.5 26.5t6 23.5q33 24 114.5 79.5t123.5 88.5q-35 25 -113.5 78t-118.5 82q-13 17 -13 30z" />
<glyph unicode="?" horiz-adv-x="368" d="M35 595q0 37 52.5 77t111.5 40q82 0 130 -67q26 -36 26 -75t-16 -70.5t-38.5 -57t-45.5 -48.5q-55 -55 -55 -73.5t13.5 -40t13.5 -30t-5 -17.5q-12 -18 -34.5 -18t-45.5 30t-23 68t14 66.5t35 51t43 42.5q67 63 67 97q0 25 -26 43.5t-52 18.5t-47.5 -12t-31.5 -27 q-28 -40 -43 -40t-25 6q-18 11 -18 36zM143 84q0 16 12.5 32t36 16t35.5 -8.5t12 -40t-15 -42t-33.5 -10.5t-33 18.5t-14.5 34.5z" />
<glyph unicode="@" horiz-adv-x="550" d="M35 214q0 68 43 128t108.5 93t129.5 33t116 -31q27 -16 43.5 -46t16.5 -69t-19 -73.5t-51 -58.5t-70 -34q-2 -18 -9.5 -27.5t-14 -11t-15.5 -1.5q-25 0 -25 26v3q-10 -1 -31 -1q-72 0 -96 29q-15 19 -15 43t19.5 54t50.5 49t54 19t41 -6q0 6 10 10t22 4q28 0 28 -17 q0 -19 -5 -56.5t-6 -44.5q29 16 46.5 41.5t17.5 53.5t-21 45q-35 29 -97.5 29t-109.5 -28.5t-71 -71t-24 -93t42 -89t125 -38.5q51 0 93 22.5t61 49.5t36 27t25.5 -8t8.5 -18t-1 -13q-16 -65 -73.5 -100t-126 -35t-124.5 23t-94 72t-38 117zM211 211q14 -8 43.5 -8t38.5 1 q7 40 7 64q0 15 -18.5 15t-33 -7t-26 -24t-11.5 -41z" />
<glyph unicode="A" horiz-adv-x="488" d="M24 30q0 39 21 139.5t53 210.5t76.5 194.5t84.5 84.5q20 0 71 -129t89.5 -284t48.5 -211q0 -18 -10 -27t-26.5 -9t-28.5 8.5t-15 23.5l-48 213q-128 0 -195 19q-37 -154 -49 -243q-4 -19 -36 -19q-15 0 -25.5 7.5t-10.5 21.5zM167 341q62 -22 156 -22q-41 149 -75 229 q-50 -94 -81 -207z" />
<glyph unicode="B" horiz-adv-x="507" d="M58 454q0 155 82 199q27 14 60 14t62 -7q57 -14 96 -54t39 -98q0 -93 -57 -140q28 -2 52 -19t39 -42q32 -52 32 -106t-15.5 -89.5t-39.5 -55.5q-61 -52 -210 -52q-5 0 -127 3q-12 47 -12 376zM133 301q0 -3 1 -87t6 -143q39 -4 129 -4q61 0 93.5 40.5t32.5 84.5t-12 70 q-26 54 -106 54q-33 0 -144 -15zM134 406q0 -24 2 -33q6 1 27 3.5t32 4t31 6t32 10.5q37 16 54 41t17 66t-34.5 66t-84 25t-63 -25t-13.5 -62l2 -33z" />
<glyph unicode="C" horiz-adv-x="548" d="M42 331q0 77 23.5 140.5t64.5 102.5q84 80 206 80q68 0 148 -26q18 -13 18 -30t-16.5 -29.5t-37.5 -12.5q-52 14 -101 14q-107 0 -163.5 -63.5t-56.5 -190.5t66 -197q35 -37 82 -37t149 50q35 17 48 17q26 0 26 -27t-25 -45q-42 -22 -67.5 -34.5t-70 -27t-80 -14.5 t-67.5 14.5t-55 38.5q-48 52 -69.5 126t-21.5 151z" />
<glyph unicode="D" horiz-adv-x="475" d="M36 407q0 72 5 218q5 16 20.5 26.5t28.5 10.5t18 -1q144 -41 247 -152q50 -54 80.5 -126t32.5 -151q0 -176 -146 -221q-43 -13 -87.5 -13t-82.5 7q4 -9 4 -21.5t-16 -25.5t-39 -13t-29 27l-13 60q-15 11 -15 24.5t11 22.5q-19 147 -19 328zM119 415q0 -179 20 -332 q25 -7 63 -7q69 0 124.5 17.5t58.5 57.5q3 29 3 43q0 131 -70 230.5t-194 151.5q-5 -106 -5 -161z" />
<glyph unicode="E" horiz-adv-x="442" d="M41 370.5q0 17.5 11 30.5q-4 113 -4 211q6 24 18.5 35t36.5 14q132 -6 286 -6q38 -8 38 -33.5t-28 -36t-54 -12.5q-33 -1 -48 -1h-65q-24 0 -105 8q0 -120 4 -172q80 -1 204 -1q36 -7 36 -33t-29 -39q-5 -3 -11 -4l-173 3q-18 0 -26 -2l4 -172q0 -58 -3 -83l232 3 q32 -4 32 -27q0 -15 -13.5 -30t-31.5 -19l-256 -4q-23 0 -32 8.5t-9 28.5q4 31 4 90v70l-4 147q-14 9 -14 26.5z" />
<glyph unicode="F" horiz-adv-x="375" d="M-18 614q0 10 9.5 22.5t25.5 15.5q48 0 95 -5t98 -5t58.5 0.5t15 0.5h10.5l29 1q83 0 83 -33q0 -10 -6 -19q-12 -21 -36 -21l-48 3l-38 -2q-148 0 -172 3l-1 -126l1 -66h219q27 -5 27 -27q0 -6 -3 -13q-10 -23 -33 -30h-207q7 -144 7 -259q0 -27 -8 -40.5t-26 -13.5 q-32 0 -38 44q-2 12 -3 21.5t-1 25.5v26.5v29v28.5l-2 401q-5 -1 -10 -1q-12 0 -23 4q-4 2 -8.5 4.5t-7.5 6t-5 9t-2 15.5z" />
<glyph unicode="G" horiz-adv-x="480" d="M44 317.5q0 70.5 23 138t62 113t91.5 70.5t110.5 25q81 0 141 -60q0 -2 1.5 -10t1.5 -18.5t-12.5 -23t-26.5 -12.5t-21 7v-2q-6 3 -6 6q-40 25 -81.5 25t-73.5 -16q-58 -29 -92.5 -99t-34.5 -158.5t39 -155.5t93 -67q32 0 58 15t41 41.5t15 59.5q0 85 -30 85h-30 q-19 0 -34 7q-28 12 -28 29t10 32.5t27 18.5q129 0 148.5 -69t19.5 -199q0 -59 -6.5 -79.5t-30.5 -20.5t-32 9t-10 40q-24 -21 -60.5 -35.5t-65 -14.5t-54 10t-45.5 27.5t-38 40.5q-32 44 -51 107t-19 133.5z" />
<glyph unicode="H" horiz-adv-x="468" d="M54 208.5q0 77.5 2 158.5l5 244q5 16 19 27.5t28 11.5q22 0 28 -27l-4 -240q81 -13 145.5 -13t81.5 1q-3 89 -3 254q5 23 28 35q10 6 19 6q23 0 28 -26l2 -368q0 -64 -5 -225q-2 -19 -17.5 -32.5t-31.5 -13.5q-24 0 -24 31q4 112 4 194v69q-19 -2 -83 -2t-144 12v-43 q0 -115 12 -219q-4 -18 -18.5 -32.5t-31 -14.5t-26.5 23q-14 112 -14 189.5z" />
<glyph unicode="I" horiz-adv-x="235" d="M76 28q10 105 10 248l-6 336q4 14 19.5 24t35.5 10t25 -23l4 -347q0 -148 -8 -239q-2 -15 -18.5 -26.5t-33.5 -11.5q-28 0 -28 29z" />
<glyph unicode="J" horiz-adv-x="370" d="M35 184q1 15 16 27.5t32.5 12.5t24.5 -20q1 -9 2.5 -21t2 -19t2.5 -17q2 -14 9.5 -28t30.5 -33t42.5 -19t31.5 9t19 27q15 39 17.5 79t2.5 80.5t-3.5 90.5t-7 89t-10 99.5t-8.5 89.5q1 14 17 25.5t36 11.5t27 -20q22 -289 22 -363.5t-2 -103.5t-10 -67t-23 -61t-43.5 -40 t-61.5 -17t-53.5 6.5t-35.5 16t-27 24.5q-35 45 -50 141z" />
<glyph unicode="K" horiz-adv-x="523" d="M47 607q0 22 15 38.5t34 16.5q24 0 32 -30q15 -96 20 -288q88 81 138 140t106 153q16 27 47 27q16 0 26.5 -8.5t10.5 -20.5t-7 -27q-56 -93 -94.5 -143.5t-74.5 -92.5q43 -43 82 -98t61.5 -96t59.5 -113q1 -4 1 -18t-12 -29.5t-29 -15.5t-30 14q-69 138 -96 177 q-54 80 -101 123q-56 -54 -84 -75q2 -32 2 -67v-53.5v-28.5t-1 -26q-2 -23 -13.5 -44t-39.5 -21t-28 35l1 78q0 117 -12 269q-6 169 -14 224z" />
<glyph unicode="L" horiz-adv-x="372" d="M28 217l9 418q0 12 13 19t32.5 7t34 -9.5t14.5 -27.5q-3 -32 -16.5 -169t-13.5 -223.5t7 -158.5h19t83.5 7.5t86.5 7.5q47 0 47 -34q0 -29 -27 -40q-29 -12 -57 -13q-29 -1 -45 -1l-62 1l-54 -1q-13 0 -35 2t-28 18q-8 91 -8 197z" />
<glyph unicode="M" horiz-adv-x="595" d="M55 32l5 375l-1 161q0 16 11 32.5t30 16.5t40 -30q21 -118 69 -161q21 -20 51 -31q133 0 186 160q10 30 18 69q6 17 21.5 29.5t31.5 12.5q24 0 30 -31q1 -63 3 -217t3 -203l2 -104q0 -45 -4.5 -60.5t-10.5 -27.5q-12 -24 -42 -24q-26 0 -26 33l1 95q0 61 -2.5 171.5 t-2.5 144.5q-78 -133 -209 -133q-41 0 -69 13.5t-53 43.5v-209q0 -74 -1 -111q-4 -20 -20.5 -34t-33.5 -14q-27 0 -27 33z" />
<glyph unicode="N" horiz-adv-x="532" d="M41 32.5q0 13.5 3 84.5t4 106q7 67 8.5 96.5t1.5 105.5l-2 92q0 67 13 82q6 8 16 12q19 0 46 -12q42 -42 75.5 -93t51.5 -79.5t44 -75t39 -70t40.5 -74t34.5 -64.5l-12 296v15v27v77q0 86 19 98q10 6 26 6t29 -13t13 -32l-3 -90l3 -306q0 -41 3.5 -91t3.5 -69.5 t-11.5 -40t-31.5 -20.5q-39 0 -52 23.5t-46 86.5q-54 103 -108 197t-117 172v-24q0 -301 -17 -427q-3 -24 -37 -24q-15 0 -26 7.5t-11 21z" />
<glyph unicode="O" horiz-adv-x="556" d="M42 366.5q0 64.5 15 117t45.5 94.5t82.5 65.5t121 23.5t119 -45q96 -85 96 -263q0 -88 -26 -167t-80.5 -133t-126.5 -58q-47 0 -86 18.5t-65 50.5q-54 66 -74.5 149t-20.5 147.5zM122 387q0 -34 4 -66t16 -74t30 -75.5t50 -57t76.5 -23.5t78.5 41t44 89q16 73 16 133 q0 103 -28 163q-31 67 -110 67q-134 0 -167 -127q-10 -36 -10 -70z" />
<glyph unicode="P" horiz-adv-x="481" d="M40 337q0 10 12 24l-3 64q0 63 7 183q9 35 52 44t94 9t95 -6.5t86.5 -21.5t67.5 -46t25 -76.5t-19 -82.5q-33 -66 -113 -96t-174 -30q-24 0 -34 2q3 -191 3 -197.5t0.5 -19t0.5 -20.5v-19q-2 -48 -36 -48q-10 0 -23.5 4t-18 38t-6 59.5t-2 56.5t-1 57t-0.5 55.5v45.5 q-13 11 -13 21zM128 481q0 -42 3 -102q48 -5 78 -5t54 3q128 17 128 135q0 41 -95 58q-50 8 -99 8t-65 -1q-4 -54 -4 -96z" />
<glyph unicode="Q" horiz-adv-x="655" d="M49 306.5q0 70.5 18 131.5t50.5 112t85 83t117 32t120.5 -29.5t91 -78.5q74 -103 74 -238q0 -48 -12.5 -93.5t-47.5 -98.5q2 -3 31 -33.5t29 -45.5t-7 -26q-13 -23 -33.5 -23t-35 14t-19.5 19.5t-16.5 19.5t-12.5 15q-71 -60 -174 -71q-78 6 -138 53.5t-90 117t-30 140z M132 332q0 -96 42 -171q21 -38 58.5 -62t86.5 -27q42 4 69.5 12t55.5 29l-79 91q-31 36 -31 54.5t13.5 30.5t27.5 12t27.5 -9t28 -25t26 -30t25.5 -33t18 -24q32 57 32 127t-25.5 133t-78.5 105t-123 42q-47 0 -81.5 -23t-54.5 -61q-37 -75 -37 -171z" />
<glyph unicode="R" horiz-adv-x="454" d="M37 535q0 38 18 64.5t49 39.5q56 25 128 25q35 0 79 -17.5t79.5 -53.5t35.5 -79t-39.5 -90.5t-94 -83t-107.5 -53.5q76 -53 141 -118t89 -122q1 -4 1 -15.5t-12.5 -23.5t-31.5 -12t-32 16q-23 55 -86 114t-141 109l6 -192q-4 -19 -18.5 -33t-32 -14t-25.5 24 q-3 132 -3 263v216q-3 24 -3 36zM115 343q5 1 14 1q45 4 98.5 34t87.5 61t34 57q0 43 -44 65t-100 22t-89 -14q-1 -77 -1 -226z" />
<glyph unicode="S" horiz-adv-x="459" d="M34 504q0 52 36 89q68 69 196 69q49 0 87.5 -12t53.5 -32.5t15 -33.5t-4 -20q-10 -17 -26.5 -17t-35.5 11q-58 34 -104 34t-89.5 -24t-43.5 -62q0 -52 49.5 -71.5t95.5 -27.5q78 -16 127 -55t49 -129q0 -58 -27.5 -109t-78 -82.5t-111.5 -31.5q-37 0 -63.5 11.5t-38 17 t-37 19.5t-36.5 20q-13 12 -13 26t7 24q16 22 44 22l10 -1q96 -55 158 -55q41 0 73.5 30.5t32.5 98t-50.5 89.5t-96.5 30q-80 14 -129.5 49.5t-49.5 122.5z" />
<glyph unicode="T" horiz-adv-x="468" d="M1 604q0 15 12.5 29t30.5 16q73 0 205.5 8t202.5 8q29 -9 29 -29q0 -14 -12 -27t-29 -16q-74 0 -168 -4q-6 -96 -6 -201l5 -348q-2 -19 -16.5 -31.5t-30.5 -12.5q-25 0 -25 33l-6 324q0 115 10 231q-87 -7 -168 -7q-34 0 -34 27z" />
<glyph unicode="U" horiz-adv-x="550" d="M35 388.5q0 53.5 14 223.5q7 16 21.5 28.5t29.5 12.5q22 0 27 -30q-14 -167 -14 -219t7.5 -97t34.5 -98.5t66.5 -92t78.5 -38.5q63 0 108 98q19 35 21 109q1 17 2 28l2 132q0 95 -14 168q0 21 14 37t31 16t29 -17q17 -84 17 -195v-76q0 -88 -5 -114.5t-12.5 -63.5 t-35.5 -80q-31 -57 -80 -88.5t-99.5 -31.5t-104 44.5t-86.5 109t-42.5 123t-9.5 112z" />
<glyph unicode="V" horiz-adv-x="562" d="M61 586q0 15 15 30.5t34 15.5t33 -19q18 -41 48 -110q101 -232 144 -339q6 22 17.5 69.5t22 88.5t24.5 94q26 95 61 170.5t73 75.5q12 0 20.5 -7t8.5 -19t-12 -33.5t-32 -83.5t-26 -76q-12 -41 -49 -176.5t-71 -235.5q-5 -16 -19 -26.5t-31.5 -10.5t-26.5 25 q-41 121 -84 218.5t-88 197t-53.5 118t-8.5 33.5z" />
<glyph unicode="W" horiz-adv-x="616" d="M29 599q0 20 15 36.5t33 16.5q23 0 30 -29q27 -326 54 -480q13 23 43.5 96.5t57.5 120.5t52 47q17 0 29 -18q63 -179 108 -252q2 11 12 60t12.5 64t10.5 58t11 63q24 148 30 243q4 17 18.5 29.5t29.5 12.5q22 0 29 -30q-6 -95 -16 -161.5t-14 -95.5t-16.5 -91.5t-16 -79 t-19 -91.5t-17.5 -83q-14 -35 -42 -35q-15 0 -27 12q-47 63 -87 156t-50 115q-25 -44 -62.5 -131t-60.5 -129q-18 -23 -40 -23q-46 0 -70 245q-1 5 -11 94.5t-26 259.5z" />
<glyph unicode="X" horiz-adv-x="601" d="M29 24q0 17 8 32q17 20 84.5 94.5t118.5 137.5q-128 199 -173 277q-5 10 -5 25t14 30.5t33.5 15.5t29.5 -17q88 -145 161 -259q104 122 197 272q17 30 48 30q12 0 20.5 -7.5t8.5 -19t-6 -27.5q-47 -78 -95 -144t-129 -169q87 -139 159 -223q8 -15 8 -29.5t-14.5 -29.5 t-32.5 -15t-31 10q-45 57 -150 216q-60 -71 -191 -217q-17 -12 -29 -12q-34 0 -34 29z" />
<glyph unicode="Y" horiz-adv-x="442" d="M20 627.5q0 11.5 12.5 24.5t26 13t32.5 -26.5t45.5 -77t30 -56t23.5 -44t27 -48.5l46 80q52 94 108 160q15 13 29.5 13t22.5 -8t8 -19t-4 -20q-46 -56 -80 -116t-43 -76.5t-29 -54t-27 -48.5l-4 -203q0 -36 3 -77q-3 -16 -16 -29t-23 -13t-15.5 4t-9 12.5t-5.5 16 t-2.5 20.5t-0.5 20v20v17l3 130q0 49 -5 94q-43 63 -73 121.5t-36.5 71.5t-20.5 41.5t-18.5 37t-4.5 20z" />
<glyph unicode="Z" horiz-adv-x="507" d="M37 619.5q0 10.5 14 26.5t32 19q91 0 210 -10t176 -31q18 -12 18 -30v-7q-45 -101 -120 -199q28 0 42 1q29 -5 29 -29t-19 -35t-37 -12t-26.5 -1.5t-25.5 0t-23 0.5q-24 -27 -56.5 -58.5t-49.5 -48.5q-46 -46 -73 -129l173 -3q88 0 147 7q28 -5 28 -30.5t-28.5 -38 t-56.5 -13.5q-31 -1 -48 -1l-63 1h-117l-86 -2q-18 0 -25.5 7.5t-7.5 25.5q16 85 45.5 131.5t69 91.5t57.5 67q-63 10 -112 36q-12 12 -12 24q0 20 15 33.5t35 13.5l9 -1q32 -18 63.5 -22t65.5 -7q4 6 17.5 23t19 24t16.5 22q39 50 64 98q-117 26 -326 26q-25 0 -32 16 q-2 4 -2 14.5z" />
<glyph unicode="[" horiz-adv-x="303" d="M61 312v85l3 304q0 36 22.5 47.5t69.5 11.5h16q23 0 48 -4q37 -6 37 -32q0 -33 -27 -40q-21 -5 -40 -5l-33 1q-9 0 -17 -1q3 -74 3 -179t-0.5 -185t-1.5 -160t-1 -142q6 1 26 1q74 0 74 -28q0 -53 -96 -53q-59 0 -73 16q-7 9 -7 22z" />
<glyph unicode="\" horiz-adv-x="420" d="M25 719.5q0 9.5 7.5 17t17.5 7.5q22 0 39 -23q58 -136 150.5 -371.5t116.5 -294t24 -69.5t-8 -17.5t-19 -6.5q-27 0 -41 26q-49 115 -138 348t-146 365q-3 9 -3 18.5z" />
<glyph unicode="]" horiz-adv-x="296" d="M44 721q0 39 89 39h12q48 0 71 -11.5t23 -47.5l1 -304v-113l-1 -313q0 -27 -30 -34q-22 -4 -52 -4q-96 0 -96 51q0 30 75 30q19 0 25 -1l-1 444q0 148 1 222q-14 2 -30 1q-32 -2 -59.5 4.5t-27.5 36.5z" />
<glyph unicode="^" horiz-adv-x="370" d="M36 652q0 6 1 9q8 22 70 79t83.5 57t75.5 -54t66 -90q-3 -30 -31 -30q-16 0 -31 13t-38.5 41.5t-43.5 47.5q-48 -37 -85 -81q-13 -15 -40 -15t-27 23z" />
<glyph unicode="_" horiz-adv-x="571" d="M31 -33.5q0 26.5 36 32.5h449q25 -9 25 -28q0 -22 -37 -31h-449q-24 0 -24 26.5z" />
<glyph unicode="`" horiz-adv-x="220" d="M22 701q0 14 10 23.5t23 9.5t24 -9q25 -28 45 -42.5t48 -18.5q25 -17 25 -33t-11 -26.5t-32.5 -10.5t-55 21.5t-55 46.5t-21.5 39z" />
<glyph unicode="a" horiz-adv-x="459" d="M56 218q0 180 103 230q32 15 73 15t80 -14q13 18 36 18q42 0 43 -64q1 -16 1 -28l-1 -70q0 -40 -7 -101q5 -107 23 -191q-3 -11 -16 -17.5t-28 -6.5t-24 4t-12.5 12.5t-5 14.5t-1.5 16.5t-1 12.5q-47 -49 -122.5 -49t-108 57.5t-32.5 160.5zM133 217q0 -105 43 -134 q13 -9 34.5 -9t47 18.5t35.5 43.5q19 55 19 118t-15 92.5t-53 29.5q-16 0 -41.5 -3t-47.5 -45t-22 -71v-40z" />
<glyph unicode="b" horiz-adv-x="412" d="M56 676q5 17 19.5 28.5t30.5 11.5q22 0 27 -28q0 -57 -2.5 -92.5t-2.5 -52.5t4 -80q20 6 53 6q60 0 106.5 -30.5t71.5 -83.5t25 -116t-24.5 -115.5t-75 -88.5t-116.5 -36q-105 0 -105 56q0 88 -5.5 247t-5.5 374zM139 372q5 -61 13 -283q18 -6 39 -6q55 0 89 42.5 t34 100.5t-24.5 96.5t-74.5 50.5q-27 5 -43.5 5t-32.5 -6z" />
<glyph unicode="c" horiz-adv-x="388" d="M25 235q0 69 36.5 123.5t90.5 81.5t117 27t91 -18q13 -8 13 -19q0 -20 -11 -45t-31 -25q-9 0 -38 11.5t-41 11.5q-56 0 -98 -41.5t-42 -111t21.5 -105.5t78.5 -36q31 0 78.5 25.5t62 25.5t22.5 -8t8 -20q0 -25 -31 -51.5t-75 -43.5t-81 -17q-81 0 -126 63.5t-45 171.5z " />
<glyph unicode="d" horiz-adv-x="428" d="M35 192q0 76 34.5 151t103.5 108q39 18 86 18q18 0 28 -1l-1 80l1 64l-1 49q0 54 34 54q18 0 25.5 -5.5t11.5 -22t4 -67.5t3 -127.5t4 -120.5t7.5 -138t6.5 -155l-2 -56q-3 -19 -14 -24.5t-31.5 -5.5t-26.5 26l-3 16q-43 -34 -102 -34q-78 0 -123 57.5t-45 133.5z M116 212q0 -69 44 -107q25 -22 54.5 -22t52 10t27.5 24t5.5 54t0.5 45v19q0 54 -12 99t-32 45q-28 0 -62 -6t-45 -21q-33 -43 -33 -140z" />
<glyph unicode="e" horiz-adv-x="399" d="M49 255.5q0 76.5 34 138.5q37 69 128 69q50 0 99.5 -30t49.5 -74.5t-46 -89t-111 -53.5q-6 -1 -9.5 -1.5t-9.5 -1t-9.5 -0.5t-10 -0.5t-9.5 -0.5h-11h-11q11 -78 30 -103q29 -22 49 -25q50 0 92.5 42t62.5 42q7 0 23.5 -14.5t16.5 -28.5t-18 -34t-45 -41.5t-66.5 -37.5 t-73.5 -16t-60 16q-46 29 -70.5 98t-24.5 145.5zM132 283q140 0 140 69q0 42 -56 42q-38 0 -65 -43q-9 -13 -12.5 -31t-6.5 -37z" />
<glyph unicode="f" horiz-adv-x="356" d="M5 421q0 45 84 45l27 -3q3 163 18 201.5t44 46.5q15 4 46 4q70 0 90 -16.5t20 -40t-9.5 -31.5t-19.5 -8t-31 10.5t-39 10.5t-28.5 -12t-13.5 -30.5t-3 -51.5l1 -86h25h24.5h20.5q44 -2 44 -31q0 -25 -17 -33q-21 -10 -43 -11q-15 -1 -25 -1h-10q-13 1 -17 1q2 -39 9 -146 t7 -196q-3 -17 -18.5 -30.5t-30.5 -13.5q-27 0 -27 32q0 83 -7 178t-10 176q-19 1 -28 1h-14q-45 0 -57 13t-12 22z" />
<glyph unicode="g" horiz-adv-x="445" d="M55 231.5q0 134.5 93 199.5q48 33 111 33q83 0 113 -80q24 -65 26 -167v-67t2.5 -89.5t4.5 -74.5t2 -48l1 -79q0 -51 -8 -74q-21 -53 -52 -71q-43 -26 -112 -26t-129 35q-31 15 -31 37.5t12 33t28.5 10.5t62 -22t78.5 -22q72 0 72 115t-4 166q-36 -41 -90 -41t-96 33 q-84 64 -84 198.5zM133 237q0 -63 25.5 -102.5t82.5 -39.5t70 26t13 75q0 188 -92 188q-43 0 -71 -42t-28 -105z" />
<glyph unicode="h" horiz-adv-x="420" d="M40 676q5 23 28 36q8 4 20 4t21.5 -12.5t13 -40.5t4 -56.5t1.5 -77.5t4 -86q49 26 97.5 26t77.5 -14q53 -26 71.5 -88t18.5 -124t-5.5 -121t-7 -78t-18 -31.5t-31.5 -12.5q-28 0 -28 26v6l6 177v51q0 94 -40 117q-18 11 -46 11q-82 0 -82 -64q0 -75 3.5 -126.5t3.5 -88 t-1 -68.5l-2 -4q-5 -15 -19.5 -26.5t-28.5 -11.5q-28 0 -30 26h-3q0 149 -13 327.5t-15 323.5z" />
<glyph unicode="i" horiz-adv-x="241" d="M68 610q0 31 15 42q13 12 22 13.5t11 1.5q46 -8 53 -30q4 -11 4 -31.5t-17 -43t-37.5 -22.5t-35.5 19.5t-15 50.5zM76 338.5q0 65.5 3 116.5q2 18 24 18q61 0 61 -77l-2 -64l-2 -224q0 -47 1 -68q-3 -19 -16 -32.5t-30 -13.5t-27 25q-1 26 -3.5 73.5t-5.5 114t-3 132z " />
<glyph unicode="j" horiz-adv-x="235" d="M-113 -165.5q0 12.5 16.5 28t33.5 15.5t25.5 -9t12 -20t12.5 -20t25 -9q22 0 39 40t21 85q7 108 7 256t-11 230q1 16 13.5 26.5t34 10.5t35.5 -25q11 -90 11 -200.5t-4.5 -213t-10.5 -131t-9.5 -43.5t-14 -40t-23.5 -39t-37 -25t-65 -11t-68 16.5t-42 63.5q-1 2 -1 14.5z M43 605q7 43 30 53q12 6 30 6q37 0 47 -27q7 -19 7 -42t-17 -37t-41.5 -14t-39.5 18t-16 43z" />
<glyph unicode="k" horiz-adv-x="415" d="M43 541v130q4 16 19 28.5t29 12.5q23 0 28 -29q0 -148 1.5 -201t10.5 -222q5 5 15 13q51 42 135 146q16 19 38.5 33.5t34 14.5t22 -7t10.5 -18q0 -2 -13 -26q-44 -75 -97 -132q46 -51 89 -154q18 -42 26.5 -56t8.5 -29.5t-12 -30t-30 -14.5t-49 87q-12 35 -35 77.5 t-50 67.5q-11 -13 -44.5 -43.5t-47.5 -44.5l1 -100q-2 -18 -18 -31.5t-29 -13.5q-27 0 -27 33q0 106 -8 296t-8 213z" />
<glyph unicode="l" horiz-adv-x="284" d="M64 529q0 105 1.5 130t11 37t33.5 12q35 0 42 -35q-9 -93 -10 -355q0 -200 43 -235q12 3 24 19.5t24 31.5t27 15t25 -14.5t10 -45t-33.5 -62.5t-76.5 -32q-85 0 -107 146q-9 56 -10 107.5t-1.5 90t-1.5 62t-1 128.5z" />
<glyph unicode="m" horiz-adv-x="680" d="M40 388q0 20 14.5 36t33 16t27.5 -21q37 49 99 49q78 0 122 -76q49 72 134 72q40 0 72 -18.5t50 -47.5q49 -77 49 -255v-43q0 -62 -12 -79q-4 -6 -11.5 -14t-28.5 -8q-26 0 -26 33l3 125q0 124 -26 166q-16 25 -42 42t-49.5 17t-36.5 -8.5t-22 -31.5q-16 -40 -16 -160 l2 -145h-3q-5 -16 -19.5 -27t-29.5 -11q-24 0 -25 29h-3l2 152l1 55q0 64 -7.5 84t-15.5 36q-16 30 -61.5 30t-62 -28t-16.5 -86l6 -186q0 -86 -47 -86q-26 0 -31 29q0 203 -24 360z" />
<glyph unicode="n" horiz-adv-x="451" d="M65 437q5 17 16.5 30t22.5 13t17 -1.5t9.5 -5.5t6 -7.5t4 -12.5t2 -15t1 -19.5t1.5 -21.5q54 71 135 71q56 0 83 -51q41 -76 41 -232l2 -94q0 -38 -4 -50.5t-10 -21.5q-10 -19 -37 -19q-24 0 -24 32l1 52q0 12 -0.5 31.5t-1 45t-2.5 51t-6 48.5q-6 46 -23.5 77t-43.5 31 t-43 -9t-27 -28q-22 -39 -26 -84t-4 -96l-3 -108q0 -21 -15.5 -32.5t-35.5 -11.5q-25 0 -25 32q0 83 -5.5 204t-5.5 202z" />
<glyph unicode="o" horiz-adv-x="403" d="M25 224q0 90 54 165q25 34 62 56t83.5 22t84.5 -39q71 -73 71 -204q0 -68 -38 -142q-19 -35 -50 -58.5t-72 -23.5t-79.5 23.5t-63.5 58.5q-52 76 -52 142zM101 247.5q0 -43.5 37 -106.5q17 -29 45 -49.5t58 -20.5q29 15 44 50t15 72t-5 66t-15.5 56t-30.5 46t-46 24 q-44 -7 -73 -50.5t-29 -87z" />
<glyph unicode="p" horiz-adv-x="428" d="M41 -277l2 344v353q4 24 12 36t27 12t25 -9t13 -46q4 17 30 35.5t77 18.5t89 -21t59 -57q40 -70 40 -170.5t-58 -159t-161 -58.5q-35 0 -63 23q-12 10 -13 11l-1 -300q-5 -20 -20 -33.5t-32 -13.5q-26 0 -26 35zM120 115q3 -1 14 -10q29 -26 63 -26q138 0 138 142 q0 122 -62 153q-26 14 -64 14q-39 -5 -64 -33.5t-25 -53.5v-186z" />
<glyph unicode="q" horiz-adv-x="463" d="M30 227q0 110 50 173.5t144.5 63.5t139.5 -50q16 -17 26 -32.5t18 -39.5q18 -64 20 -154v-37l8 -207q1 -47 1 -86l-1 -123q-4 -20 -20 -33.5t-28.5 -13.5t-18.5 3q-15 8 -14 32l4 158q0 44 -4.5 105.5t-5.5 78.5q-16 -31 -52.5 -48t-88 -17t-94.5 33q-84 65 -84 194z M110 240q0 -79 34 -122.5t76 -43.5t75.5 30.5t51.5 88.5q-5 108 -40.5 150t-111.5 42q-42 0 -63.5 -33t-21.5 -112z" />
<glyph unicode="r" horiz-adv-x="385" d="M43 443.5q0 9.5 13 19.5t30 10t27 -13t12.5 -26.5t4.5 -36t3 -29.5q26 62 86 87q31 13 69 13q82 0 82 -42q0 -26 -27 -40q-11 -5 -21 -6l-29 3q-126 0 -126 -249l1 -91l-1 -2q-4 -18 -18.5 -32t-29.5 -14q-22 0 -29 36t-7 93l1 30q0 62 -9.5 135t-20.5 109t-11 45.5z" />
<glyph unicode="s" horiz-adv-x="385" d="M55 77q0 35 42 35q20 0 56 -17.5t60 -17.5t44 29.5t20 56.5q0 6 -2 16q-27 26 -106 39q-28 5 -55 15q-59 21 -59 107q0 60 43 94.5t106 34.5q37 0 75 -12q73 -24 73 -61q0 -17 -14.5 -27t-33.5 -10q-4 0 -44.5 18.5t-65 18.5t-45.5 -14.5t-21 -37t12.5 -38.5t32.5 -23 t44 -12q65 -13 91 -25q45 -21 45 -83.5t-47.5 -110t-100.5 -47.5t-88 12q-62 23 -62 60z" />
<glyph unicode="t" horiz-adv-x="344" d="M7 417q0 50 58 50l48 -1q12 0 19 1q-4 101 -4 103q0 7 1 31t3 71q4 17 19 29t30 12q23 0 28 -29l-5 -121q0 -12 4 -95q60 0 117 4q30 -7 30 -35t-20 -40t-40 -13t-31 -1t-28 0.5t-25 0.5q1 -9 3 -55.5t3 -60.5q8 -136 23 -221q-4 -19 -18.5 -33.5t-32 -14.5t-26.5 24 q-15 89 -20.5 212t-6.5 148q-14 -1 -49 -1t-56 6q-24 5 -24 29z" />
<glyph unicode="u" horiz-adv-x="400" d="M28 250.5q0 77.5 8 177.5q4 18 17 29t26 11q28 0 34 -28q-6 -68 -6 -132t2 -92q4 -72 48 -145q40 9 74 36.5t52 61.5q-12 144 -12 247q0 21 13.5 36t32.5 15t31 -27q0 -48 8 -228q2 -25 13 -93t11 -83.5t-15 -31.5t-33.5 -16t-26.5 24l-10 60q-71 -73 -141 -73 q-34 0 -60 25.5t-40 67.5q-26 81 -26 158.5z" />
<glyph unicode="v" horiz-adv-x="400" d="M19 424q0 14 13.5 28.5t30.5 14.5t29 -18q13 -28 63 -124.5t72 -157.5q5 18 16 57q40 138 74 221q17 27 44 27q16 0 22 -10.5t6 -19.5l-1 -10q-48 -121 -72 -210t-51 -190q-6 -14 -19 -24t-30 -10t-24 22q-32 101 -90.5 219t-70.5 144.5t-12 40.5z" />
<glyph unicode="w" horiz-adv-x="463" d="M24 431q6 22 30 33q7 3 13 3q20 0 25 -27q0 -157 53 -300q11 18 24.5 44.5t20.5 40.5q19 34 47 34t57 -48q20 -35 32 -60t14 -27q27 84 27 156l-6 152q5 14 18 25t25 11q29 0 29 -113v-55q0 -135 -41 -239q-23 -60 -55 -60q-19 0 -36 26t-36 69.5t-30 60.5 q-11 -21 -30.5 -59.5t-23.5 -44.5q-33 -52 -60 -52q-10 0 -37 54q-60 179 -60 376z" />
<glyph unicode="x" horiz-adv-x="448" d="M40 42q0 39 140 197q-15 29 -61 101.5t-46 88t13.5 27.5t33.5 12t31 -19l82 -144q34 37 64 81.5t42 62t29.5 17.5t28.5 -11t11 -25t-42 -78t-90 -123q13 -20 43 -69.5t65 -92.5q7 -12 7 -27t-11.5 -28t-27.5 -13q-27 0 -68 60t-68 117q-34 -47 -60 -88t-42.5 -62.5 t-34.5 -21.5t-28.5 11t-10.5 27z" />
<glyph unicode="y" horiz-adv-x="423" d="M11 419q0 19 11.5 33t29 14t31.5 -21q24 -78 50.5 -141t49.5 -116t34 -81q18 62 46 176t41 161q5 22 44 22q13 0 25.5 -9t12.5 -20t-2 -21q-143 -505 -209 -693q-9 -27 -32 -27q-15 0 -26 13t-11 34.5t14.5 70t34 106t25.5 79.5q-24 40 -80 179.5t-89 240.5z" />
<glyph unicode="z" horiz-adv-x="428" d="M31 413q0 24 10 32q16 12 38.5 13.5t44.5 1.5h50q215 0 215 -84q0 -65 -71 -126q-31 -27 -64 -52q-85 -65 -110 -109q23 -11 50.5 -11t88 9.5t79.5 9.5q27 0 34.5 -9.5t7.5 -20.5q0 -68 -204 -68q-111 0 -136 35q-11 16 -11 38t9 43t24.5 39.5t35.5 38t42 36.5 q41 32 81.5 66t49.5 60q-12 31 -77 31q-28 0 -78.5 -7t-61.5 -7h-5q-1 1 -9.5 3.5t-14.5 5.5q-18 8 -18 32z" />
<glyph unicode="{" horiz-adv-x="339" d="M56 360q0 22 34 54q14 14 29 31q33 39 33 99q0 19 -10 69t-10 55t1.5 12.5t5.5 15t9.5 14t13.5 12.5t19 10q22 8 47 8h18q19 0 39 -3q27 -6 27 -30q0 -45 -55 -45q-11 0 -30 3q-12 0 -12 -16.5t6.5 -51t6.5 -54.5q0 -49 -16.5 -90.5t-63.5 -88.5q4 -5 18 -23t17 -22 q21 -30 27.5 -54t9.5 -50q0 -13 -13.5 -68.5t-13.5 -80.5t15.5 -34.5t31.5 -9.5l21 1q39 0 39 -28q0 -14 -12.5 -29t-28.5 -19q-110 0 -137 65q-7 17 -7 34.5t14 63.5t14 76.5t-13.5 59.5t-29.5 46q-44 46 -44 68z" />
<glyph unicode="|" horiz-adv-x="176" d="M52 -19l3 716q5 17 19 29.5t29 12.5q22 0 29 -30l-4 -716q-3 -19 -18.5 -32.5t-31.5 -13.5q-26 0 -26 34z" />
<glyph unicode="}" horiz-adv-x="328" d="M44 707q6 33 76 33h1q54 0 78.5 -22t24.5 -53q0 -2 -10 -52t-10 -75t10 -51t24 -42.5t28 -30.5q34 -32 34 -49.5t-13.5 -36.5t-29.5 -36t-29 -46t-13 -59.5t13 -76.5t13 -61q0 -43 -33.5 -72.5t-110.5 -29.5q-16 4 -28.5 19t-12.5 31q0 26 43 26l17 -1q17 0 32 9.5 t15 34.5t-12.5 78.5t-12.5 69.5t4 34t7 27.5t12 24t12 19t17.5 22.5t18.5 23q-47 46 -64 87.5t-17 101.5q0 10 7 45t7 51t-10 16l-31 -3q-57 0 -57 45z" />
<glyph unicode="~" horiz-adv-x="529" d="M26 445q0 33 57.5 70.5t92.5 37.5t92 -31t79 -38q17 0 56 32t57.5 32t28.5 -12t10 -22q0 -33 -58 -69.5t-90 -36.5t-57 9.5t-42 21.5q-44 30 -68.5 30t-53.5 -30.5t-56 -30.5q-13 0 -30.5 10t-17.5 27z" />
<glyph unicode="&#xa1;" horiz-adv-x="214" d="M67 -185q0 200 16 424q7 20 21 20t26 -9.5t15 -21.5q-1 -24 -1 -78t5.5 -161.5t5.5 -173.5q-7 -26 -39 -26q-16 0 -30.5 7.5t-18.5 18.5zM71 415.5q0 13.5 6.5 26t16.5 21.5t20 9q20 0 36.5 -9.5t16.5 -42.5t-12 -41t-35.5 -8t-36 15.5t-12.5 29z" />
<glyph unicode="&#xa2;" horiz-adv-x="424" d="M25 235q0 85 52 144t127 78q7 46 8 67q4 16 14.5 25t22.5 9t20 -8.5t8 -23.5v-6l-5 -53q101 -8 101 -39q0 -18 -8 -36q-14 -32 -34 -32q-10 0 -33 8.5t-30 10.5q-4 -93 -4 -143t0.5 -83t0.5 -50q10 5 24.5 12.5t31.5 16t31.5 8.5t22.5 -8t8 -20q0 -26 -34 -54t-80 -45 l6 -60q-4 -37 -40 -37q-32 0 -32 84q-85 0 -131.5 63t-46.5 172zM112 224q0 -60 18 -95.5t69 -39.5q-2 44 -2 123t3 160q-39 -16 -63.5 -52t-24.5 -96z" />
<glyph unicode="&#xa3;" horiz-adv-x="550" d="M37 313q0 16 11 26.5t23.5 10.5t17.5 -1l55 -2v33l-6 102v8q0 84 49.5 129t116.5 45t128 -33q20 -10 33.5 -26.5t13.5 -35.5q-4 -17 -16 -26t-29 -9t-26 17q-26 42 -83 42q-29 0 -55 -14t-41 -40q-8 -78 -8 -129t2 -66q46 5 84 5q58 0 58 -35q0 -15 -11 -29t-26 -17h-104 q3 -41 3 -72.5t-4 -59.5q19 -30 53 -46.5t71 -16.5q68 0 102 47q16 14 32 14t24.5 -7.5t8.5 -18.5t-6 -25q-67 -88 -153 -88q-42 0 -80 17q-5 2 -15 5.5t-17 6.5q-45 17 -64 35h-4q-19 0 -40.5 -16t-39 -32t-28 -16t-19 11.5t-8.5 30t23 42.5t50 42.5t30 22.5v82v10 q1 13 0 22.5t-11 9.5l-56 -3q-39 5 -39 48z" />
<glyph unicode="&#xa4;" horiz-adv-x="692" d="M86 594.5q0 16.5 14.5 30t31 13.5t34 -15t41.5 -45.5t29 -36.5q57 28 116.5 28t114.5 -33q8 10 25 31t29 35.5t28 26.5t29.5 12t21.5 -8.5t8 -21.5t-5 -21t-10 -13q-27 -28 -72 -84q59 -66 59 -164.5t-63 -165.5l75 -72q6 -9 6 -25t-13.5 -29.5t-29.5 -13.5t-28 12 l-76 77q-55 -30 -118.5 -30t-112.5 26q-68 -70 -81 -76.5t-22 -6.5q-29 0 -29 29.5t73 100.5q-53 60 -58 165q2 102 64 171q-27 29 -47.5 52t-27 29t-6.5 22.5zM180 332q4 -82 54.5 -128.5t113.5 -46.5t107.5 41t44.5 120t-49.5 126t-114 47t-109 -41t-47.5 -118z" />
<glyph unicode="&#xa5;" horiz-adv-x="464" d="M20 627.5q0 11.5 12.5 24.5t26 13t32.5 -26.5t45.5 -77t30 -56t23.5 -44t27 -48.5l46 80q0 1 9.5 17.5t13 23t14 24t17 26.5t16.5 24q13 19 33 38.5t34.5 19.5t22.5 -8t8 -19t-4 -20q-46 -56 -80 -116t-43 -76.5t-29 -54t-27 -48.5v-44q11 1 41.5 6.5t46.5 6.5 q28 -9 28 -33t-30 -33q-23 -7 -50.5 -10.5t-36.5 -5.5v-36q63 13 81 13t27.5 -9.5t9.5 -22t-15 -23.5q-30 -21 -105 -30q0 -38 2 -59q-3 -16 -16 -29t-23 -13t-15 3t-8 10t-5 12.5t-3 16.5t-1 16v17v14q-13 -4 -39 -8.5t-35.5 -7.5t-19.5 -3t-18 10t-8 21q0 36 29 40l91 20 v36q-57 -12 -87 -14q-35 5 -35 38q0 16 10 21.5t49.5 12.5t62.5 12l2 39q0 15 -2 23q-45 65 -79 132t-38 75.5t-18 36.5t-17.5 34.5t-3.5 18z" />
<glyph unicode="&#xa7;" horiz-adv-x="384" d="M43 319q0 51 41 96q19 20 43 36q-54 26 -54 78q0 81 60 114q37 24 82 24q79 0 79 -43q0 -16 -10 -29.5t-24 -13.5l-40 5q-32 0 -50 -14.5t-18 -38.5t19 -40t46.5 -26.5t54.5 -24t46 -41.5t19 -68q0 -81 -72 -145q14 -18 19 -36t5 -48q0 -53 -35.5 -78.5t-82.5 -25.5 t-74 8q-45 14 -45 38q0 38 38 38l74 -7q44 0 50 26q1 6 1 12q0 37 -47 65.5t-73 48.5q-52 39 -52 90zM109 330.5q0 -26.5 14 -39.5q27 -24 45.5 -34.5t39.5 -21.5q25 15 44.5 41.5t19.5 52.5t-24 50t-51.5 24t-57.5 -23t-30 -49.5z" />
<glyph unicode="&#xa8;" d="M68 571q0 23 17.5 40.5t37.5 17.5t32 -14.5t13 -37.5q-3 -21 -19 -33t-36 -12q-37 0 -45 39zM239 583q0 45 54 45q17 0 30 -10t14 -29q-3 -26 -18.5 -40t-34.5 -14t-32 13t-13 35z" />
<glyph unicode="&#xa9;" horiz-adv-x="759" d="M44 332q0 88 47.5 163t124 120t163.5 52q130 -6 179 -31q27 -13 49 -35q90 -88 90 -266q0 -151 -77.5 -241.5t-224.5 -94.5q-103 0 -190 44q-113 57 -147 184q-14 48 -14 105zM121 325q0 -105 76 -177t189.5 -72t173.5 66t60 187q0 194 -122 246q-49 20 -119 21 q-110 -11 -184 -88.5t-74 -182.5zM215 313q0 119 73 186q39 36 91 36q21 0 54 -12.5t61.5 -36.5t28.5 -45.5t-14 -33t-28 -11.5q-21 0 -51 31q-41 27 -65 30q-34 0 -53.5 -36t-19.5 -78q0 -127 72 -127q3 0 50.5 20.5t71.5 20.5q29 0 29 -29q0 -26 -27 -48.5t-60.5 -33 t-59.5 -10.5q-63 0 -108 52t-45 125z" />
<glyph unicode="&#xab;" horiz-adv-x="478" d="M55 242q0 21 9.5 39.5t25 34.5t31.5 30t34.5 30.5t25.5 25.5t23.5 17t28.5 8q26 0 26 -33q0 -30 -90 -108q-35 -30 -42 -39q5 -5 19 -17.5t24 -20.5q63 -58 63 -89q0 -18 -9 -27.5t-19.5 -9.5t-30.5 14t-31.5 30.5t-37.5 39.5t-38 38.5t-12 36.5zM237 238q0 12 4.5 21 t12 19.5t18.5 25t20.5 26t22.5 26.5t21 23.5t18 19.5t16 16.5t20.5 5.5t25 -7t10.5 -18q0 -33 -115 -157q8 -16 36 -40.5t50.5 -48t22.5 -37t-6.5 -25t-22.5 -11.5t-26.5 6t-15.5 11t-16.5 19t-13.5 16t-18 16t-28 26.5t-24 33.5t-12 33z" />
<glyph unicode="&#xac;" horiz-adv-x="484" d="M35 227q0 28 23.5 39.5t46 12.5t34.5 1l105 -2q55 0 163 -1q20 -3 23 -18q2 -6 2.5 -13t0.5 -10l-1 -163q-2 -17 -11.5 -27t-22 -10t-22.5 9.5t-12 26.5q0 85 1 128h-297q-33 0 -33 27z" />
<glyph unicode="&#xad;" d="M36 232.5q0 36.5 49 43.5h246q37 -11 37 -37q0 -31 -45 -43h-255q-32 0 -32 36.5z" />
<glyph unicode="&#xae;" horiz-adv-x="760" d="M47 336.5q0 82.5 46.5 157.5t122.5 120t163 51q123 -2 178 -29q26 -14 48 -35q91 -89 91 -265q0 -151 -77 -241t-224 -95q-93 0 -175 38q-49 23 -86 58t-62 96.5t-25 144zM124 324.5q0 -105.5 74.5 -176.5t188 -71t173 66.5t59.5 185.5q0 195 -121 246q-48 20 -118 21 q-110 -12 -183 -89t-73 -182.5zM253 185l4 291q10 30 38.5 35.5t49.5 5.5h26q65 0 101 -28t36 -76q0 -29 -15 -55.5t-42 -41.5q4 -7 29 -43.5t32 -57.5l2 -9q0 -23 -22 -38q-10 -6 -22 -6t-21 19q-7 25 -33 63.5t-32 51.5q-43 0 -64 3q0 -8 0.5 -25.5t0.5 -28v-26.5 q-3 -63 -44 -63q-24 0 -24 29zM323 368q10 -8 38.5 -8t56 12t27.5 32.5t-31.5 33t-56.5 12.5t-34 -1v-81z" />
<glyph unicode="&#xb0;" horiz-adv-x="232" d="M31 629.5q0 38.5 26.5 61t66.5 22.5q51 0 66 -50q6 -17 6 -38q-5 -41 -41 -62q-19 -12 -43 -12t-43 13q-38 27 -38 65.5zM80 636q0 -14 8 -23t24 -9q36 0 36 33q0 20 -10.5 27t-22 7t-23.5 -10.5t-12 -24.5z" />
<glyph unicode="&#xb1;" horiz-adv-x="475" d="M35 227q0 16 13 32t32 18h124v8l-2 70q0 59 14 80t37 21t30 -29l-2 -150h126q29 -5 29 -27q0 -16 -12 -30.5t-29 -19.5h-115q-1 -11 -1 -23l1 -48q0 -117 -49 -117q-31 0 -31 35q0 102 3 153h-135q-33 0 -33 27zM36 -88q0 36 49 44h306q37 -12 37 -39q0 -17 -9 -24 t-31 -13h-315q-18 0 -27.5 9.5t-9.5 22.5z" />
<glyph unicode="&#xb2;" horiz-adv-x="236" d="M29 505q0 18 14 34.5t31 27.5q45 29 45 53q0 8 -4 17q-8 0 -25 -7t-28 -7t-21 9t-10 29t28 37t59 17t55 -16t24 -57t-82 -109l69 8q14 0 21 -10t7 -21t-3 -18.5t-10 -12t-13 -7.5q-11 -5 -43 -5l-35 1q-79 0 -79 37z" />
<glyph unicode="&#xb3;" horiz-adv-x="212" d="M17 512q0 13 10.5 23t27.5 12l37 -7q18 0 28 19q-3 2 -10 5t-9 4l-7 3.5t-6.5 4t-4.5 4t-4.5 8t-1.5 13.5t5.5 12.5t37.5 21.5q-6 11 -32 11l-24 -2q-13 0 -22.5 9t-9.5 28q0 34 55 34t76.5 -16t21.5 -34q0 -51 -33 -69q19 -3 29.5 -22t10.5 -38t-21 -44t-54 -25 t-66.5 12t-33.5 33z" />
<glyph unicode="&#xb4;" horiz-adv-x="247" d="M52 753.5q0 13.5 15 31.5q25 13 40 33.5t30 53.5q10 17 27 17t28 -11.5t11 -32.5q-31 -62 -62.5 -93.5t-50.5 -31.5t-28.5 10t-9.5 23.5z" />
<glyph unicode="&#xb5;" horiz-adv-x="493" d="M47 431l2 5q3 9 13 21t36.5 12t33.5 -33q0 -125 -4 -291q51 -66 119 -66q52 0 76.5 20.5t30.5 51.5t6 72.5t-6 108t-6 99.5q4 17 13.5 26.5t30.5 9.5q35 0 44 -30l4 -210q0 -122 -47 -174t-153 -52q-64 0 -112 23q-1 -108 -1 -271q-3 -20 -20.5 -40t-30.5 -20 q-28 0 -28 35z" />
<glyph unicode="&#xb6;" horiz-adv-x="500" d="M36 503q0 77 58.5 119t170.5 42h87q54 0 77 -6t23 -20.5t-6.5 -25t-30.5 -10.5t-35 2q-6 -256 -6 -459l2 -104q0 -20 -11 -33t-24 -13q-38 0 -38 125l9 485h-43q-7 -95 -7 -285l1 -279q0 -35 -47 -45q-16 3 -18.5 9.5t-3 8.5t-1 8.5t-3 91t-2.5 137.5t4 101 q-96 9 -135 70q-21 33 -21 81z" />
<glyph unicode="&#xb8;" horiz-adv-x="571" d="M143 -249.5q0 18.5 11 31.5t24 13t46 -13.5t67.5 -13.5t51.5 11.5t17 52.5q0 28 -36 28l-53 -5q-62 0 -62 73q0 25 7 56q4 12 16 19.5t26 7.5q32 0 32 -41l-2 -30q0 -18 18 -18q8 0 25 2q56 0 78.5 -17t22.5 -58q0 -68 -43 -112t-116 -44t-110 25q-20 14 -20 32.5z" />
<glyph unicode="&#xb9;" horiz-adv-x="240" d="M36 625q0 22 42 56t74 34q36 0 36 -50q0 -29 -7.5 -85t-8.5 -70t-8 -24q-15 -23 -32 -23t-25 12.5t-10 23.5q2 23 8 64t8 53q-5 -6 -22.5 -12t-25.5 -9q-29 0 -29 30z" />
<glyph unicode="&#xbb;" horiz-adv-x="508" d="M60 385q0 11 11 19t24.5 8t25.5 -11q33 -33 81 -90.5t48 -74.5t-8 -33.5t-19 -29.5t-21 -22.5t-20.5 -19t-13 -12t-14 -16.5t-16.5 -19q-26 -17 -29 -17h-4q-38 0 -38 31q0 19 22.5 42.5t50.5 48t36 39.5q-38 40 -77 88.5t-39 68.5zM228 384q0 32 28 32q7 0 24 -7 t24.5 -16.5t26.5 -26.5t35 -30.5t32 -29.5q34 -35 34 -73q0 -22 -12.5 -37.5t-38 -38.5t-37 -40t-31.5 -31t-30.5 -14t-20 9.5t-9.5 24t6.5 27.5t22.5 30t24 25t31 28l23 20q-7 9 -41 39q-87 74 -91 109z" />
<glyph unicode="&#xbc;" horiz-adv-x="535" d="M53 379q0 22 41.5 55.5t74.5 33.5q36 0 36 -49q0 -29 -8 -85.5t-8.5 -70.5t-7.5 -25q-14 -22 -29 -22q-31 0 -37 36q1 29 7.5 67.5t8.5 48.5q-5 -4 -22 -10t-26 -10q-30 0 -30 31zM92 33.5q0 11.5 5 19.5q20 26 52 67q109 141 132 175q101 156 132 169q7 4 17.5 4t19 -10 t8.5 -26t-13 -28l-12 -17q-20 -28 -68 -92q-185 -249 -200.5 -271.5t-32.5 -22.5t-28.5 10.5t-11.5 22zM306 106q0 30 98 139q12 9 28 9q32 0 41 -26q2 -7 2 -13q-4 -20 -11 -79q23 -5 23 -25t-14 -27q-3 -2 -10 -5q-1 -9 -2 -26.5t-2.5 -27t-8.5 -18t-18.5 -8.5t-20 8.5 t-10.5 23.5v42h-24q-42 0 -56.5 7t-14.5 26zM376 131q21 3 24.5 8.5t3.5 8.5t-0.5 9.5t-0.5 10.5q-16 -17 -27 -37z" />
<glyph unicode="&#xbd;" horiz-adv-x="586" d="M53 379q0 22 41.5 55.5t74.5 33.5q36 0 36 -49q0 -29 -8 -85.5t-8.5 -70.5t-7.5 -25q-14 -22 -29 -22q-31 0 -37 36q1 29 7.5 67.5t8.5 48.5q-5 -4 -22 -10t-26 -10q-30 0 -30 31zM92 33.5q0 11.5 5 19.5q20 26 52 67q109 141 132 175q101 156 132 169q7 4 17.5 4t19 -10 t8.5 -26t-13 -28l-12 -17q-20 -28 -68 -92q-185 -249 -200.5 -271.5t-32.5 -22.5t-28.5 10.5t-11.5 22zM347 37q0 18 14 34.5t30 27.5q45 29 45 53q0 8 -4 17q-7 0 -25 -7t-28.5 -7t-20.5 9t-10 29t28 37t59 17t55.5 -16t24.5 -56.5t-83 -109.5l68 8q14 0 21.5 -10t7.5 -21 t-3 -18.5t-10 -12t-13 -7.5q-11 -5 -43 -5l-35 1q-78 0 -78 37z" />
<glyph unicode="&#xbe;" horiz-adv-x="536" d="M44 272q0 13 10.5 22.5t25.5 10.5q33 -6 36 -6q17 0 28 18q-2 0 -14 5.5t-19.5 11.5t-7.5 19t8 18t33 18q-5 11 -32 11h-23q-29 0 -29 33.5t52 33.5q37 0 65 -11.5t28 -36.5q0 -51 -30 -66q17 -3 27 -22t10 -37t-20 -42t-51.5 -24t-64 11.5t-32.5 32.5zM91 36q0 9 7 19 t85.5 112.5t98.5 132.5l29 43.5t14 21.5q69 103 101 103q13 0 21.5 -10.5t8.5 -26t-12 -27.5l-82 -110q-183 -247 -197.5 -270t-35.5 -23t-33 18q-5 8 -5 17zM299 106q0 30 98 139q12 9 28 9q32 0 41 -26q2 -7 2 -13q-4 -20 -11 -79q24 -4 24 -29q0 -16 -8 -20.5t-17 -7.5 q-1 -7 -1 -22q-1 -25 -5.5 -41.5t-20.5 -16.5q-31 0 -34 32v42h-24q-43 0 -57.5 7.5t-14.5 25.5zM368 131q11 1 27 1q1 12 1 36q-13 -13 -28 -37z" />
<glyph unicode="&#xbf;" horiz-adv-x="375" d="M31 -68.5q0 39.5 16 71t38.5 57t45.5 48.5q54 54 54 72.5t-13.5 41t-13.5 33t11 21.5t24 11q27 0 51 -30t24 -68t-14.5 -66.5t-35.5 -51t-43 -42.5q-68 -63 -68 -97q0 -24 26.5 -43.5t52.5 -19.5t47 12.5t32 27.5q28 39 46 39t29.5 -11t11.5 -29q0 -37 -53 -77t-112 -40 q-82 0 -130 66q-26 35 -26 74.5zM148 418.5q0 32.5 14.5 43t31 10.5t26.5 -9q24 -21 24 -41t-13 -35.5t-29 -15.5q-29 0 -41.5 7.5t-12.5 40z" />
<glyph unicode="&#xc0;" horiz-adv-x="488" d="M24 30q0 39 21 139.5t53 210.5t76.5 194.5t84.5 84.5q20 0 71 -129t89.5 -284t48.5 -211q0 -18 -10 -27t-26.5 -9t-28.5 8.5t-15 23.5l-48 213q-128 0 -195 19q-37 -154 -49 -243q-4 -19 -36 -19q-15 0 -25.5 7.5t-10.5 21.5zM167 341q62 -22 156 -22q-41 149 -75 229 q-50 -94 -81 -207zM169 824.5q0 13.5 10.5 23.5t23 10t24.5 -10q32 -34 52.5 -45.5t39.5 -15.5q25 -17 25 -32.5t-11 -26t-32 -10.5t-54.5 21.5t-55.5 46.5t-22 38.5z" />
<glyph unicode="&#xc1;" horiz-adv-x="488" d="M24 30q0 39 21 139.5t53 210.5t76.5 194.5t84.5 84.5q20 0 71 -129t89.5 -284t48.5 -211q0 -18 -10 -27t-26.5 -9t-28.5 8.5t-15 23.5l-48 213q-128 0 -195 19q-37 -154 -49 -243q-4 -19 -36 -19q-15 0 -25.5 7.5t-10.5 21.5zM167 341q62 -22 156 -22q-41 149 -75 229 q-50 -94 -81 -207zM175 753.5q0 13.5 16 31.5q24 13 39 33.5t30 53.5q10 17 27 17t28 -11.5t11 -32.5q-40 -81 -80 -111q-18 -14 -34.5 -14t-26.5 10t-10 23.5z" />
<glyph unicode="&#xc2;" horiz-adv-x="488" d="M24 30q0 39 21 139.5t53 210.5t76.5 194.5t84.5 84.5q20 0 71 -129t89.5 -284t48.5 -211q0 -18 -10 -27t-26.5 -9t-28.5 8.5t-15 23.5l-48 213q-128 0 -195 19q-37 -154 -49 -243q-4 -19 -36 -19q-15 0 -25.5 7.5t-10.5 21.5zM132 751.5q0 15.5 50.5 55.5t72.5 40 t72 -36.5t50 -61.5q0 -15 -12.5 -24.5t-23.5 -9.5t-43.5 25.5t-44.5 38.5q-3 -3 -36.5 -34.5t-50 -31.5t-25.5 11.5t-9 27zM167 341q62 -22 156 -22q-41 149 -75 229q-50 -94 -81 -207z" />
<glyph unicode="&#xc3;" horiz-adv-x="488" d="M24 30q0 39 21 139.5t53 210.5t76.5 194.5t84.5 84.5q20 0 71 -129t89.5 -284t48.5 -211q0 -18 -10 -27t-26.5 -9t-28.5 8.5t-15 23.5l-48 213q-128 0 -195 19q-37 -154 -49 -243q-4 -19 -36 -19q-15 0 -25.5 7.5t-10.5 21.5zM95 745q0 24 33.5 48.5t56.5 24.5t41.5 -9 t40.5 -22.5t40 -19.5q13 0 36.5 24t32.5 24t16 -4q17 -10 17 -25q0 -24 -38 -50t-64 -26t-47.5 11.5t-38.5 23t-29.5 11.5t-22.5 -11t-19.5 -21.5t-19.5 -10.5t-22.5 9.5t-12.5 22.5zM167 341q62 -22 156 -22q-41 149 -75 229q-50 -94 -81 -207z" />
<glyph unicode="&#xc4;" horiz-adv-x="524" d="M48 30q0 39 21 139.5t53 210.5t76.5 194.5t84.5 84.5q20 0 71 -129t89.5 -284t48.5 -211q0 -18 -10 -27t-26.5 -9t-28.5 8.5t-15 23.5l-48 213q-128 0 -195 19q-37 -154 -49 -243q-2 -8 -12.5 -13.5t-24.5 -5.5t-24.5 7.5t-10.5 21.5zM145 756q0 22 17.5 40t37.5 18 t32 -14.5t13 -37.5q-4 -21 -19.5 -33.5t-35.5 -12.5q-37 0 -45 40zM191 341q62 -22 156 -22q-41 149 -75 229q-50 -94 -81 -207zM316 768q0 44 54 44q17 0 30 -9.5t14 -28.5q-3 -26 -18.5 -40t-34.5 -14t-32 13t-13 35z" />
<glyph unicode="&#xc5;" horiz-adv-x="496" d="M24 30q0 49 23.5 156t71.5 233t101 186q-51 22 -51 86q0 31 27 54t63 23t56 -23t20 -65q-6 -57 -51 -75q62 -66 129 -330q45 -184 55 -240q0 -18 -10 -27t-26.5 -9t-28.5 8.5t-15 23.5l-48 213q-128 0 -195 19q-37 -154 -49 -243q-4 -19 -36 -19q-15 0 -25.5 7.5 t-10.5 21.5zM167 341q62 -22 156 -22q-41 149 -75 229q-50 -94 -81 -207zM220 690.5q0 -13.5 7.5 -22.5t23.5 -9q36 0 36 31q0 26 -19 33q-4 2 -14 2t-22 -10.5t-12 -24z" />
<glyph unicode="&#xc6;" horiz-adv-x="661" d="M36 29q0 60 15.5 180.5t72.5 217.5q73 127 125.5 171.5t122.5 44.5l229 -2q37 -9 37 -33q0 -48 -116 -48h-35q-12 0 -91 8q0 -147 4 -196q31 0 73.5 -2t85.5 -2q36 -6 36 -31q0 -13 -11.5 -25.5t-27.5 -16.5q-22 0 -42.5 2t-86.5 2h-26l6 -197v-26l188 3q33 -5 33 -29 q0 -20 -23 -38q-10 -8 -22 -11l-203 -1q-60 0 -60 31l3 258l-90 -2q-48 0 -81 9q-17 -69 -29.5 -165t-14.5 -106q-3 -24 -37.5 -24t-34.5 28zM172 373q25 -5 54 -5l91 4q1 19 1 50t-2 76.5t-3 64.5q-28 -19 -68 -66.5t-73 -123.5z" />
<glyph unicode="&#xc7;" horiz-adv-x="541" d="M42 315q0 175 86 257t208 82q68 0 148 -26q18 -13 18 -30t-16.5 -29.5t-37.5 -12.5q-46 13 -95 13q-105 0 -162 -66.5t-57 -191.5t65 -191q35 -35 91.5 -35t157.5 58q12 6 24 6q26 0 26 -28q0 -31 -66 -67.5t-137 -49.5l-5 -53q0 -28 29 -28q7 0 12 1q56 0 78.5 -17 t22.5 -58q0 -68 -43 -112t-116 -44t-110 25q-20 14 -20 32.5t11 31.5t24 13t46 -13.5t67.5 -13.5t51.5 11.5t17 52.5q0 28 -36 28l-53 -5q-62 0 -62 73q0 32 12 77q-46 10 -81.5 43t-56.5 79q-41 94 -41 188z" />
<glyph unicode="&#xc8;" horiz-adv-x="442" d="M41 370.5q0 17.5 11 30.5q-4 113 -4 211q6 24 18.5 35t36.5 14q132 -6 286 -6q38 -8 38 -33.5t-28 -36t-54 -12.5q-33 -1 -48 -1h-65q-24 0 -105 8q0 -120 4 -172q80 -1 204 -1q36 -7 36 -33t-29 -39q-5 -3 -11 -4l-173 3q-18 0 -26 -2l4 -172q0 -58 -3 -83l232 3 q32 -4 32 -27q0 -15 -13.5 -30t-31.5 -19l-256 -4q-23 0 -32 8.5t-9 28.5q4 31 4 90v70l-4 147q-14 9 -14 26.5zM131 826q0 14 10 23.5t23 9.5t24 -9q26 -28 45.5 -42.5t47.5 -19.5q25 -16 25 -34.5t-18 -29.5q-10 -5 -28 -5t-51.5 21.5t-55.5 46.5t-22 39z" />
<glyph unicode="&#xc9;" horiz-adv-x="442" d="M41 370.5q0 17.5 11 30.5q-4 113 -4 211q6 24 18.5 35t36.5 14q132 -6 286 -6q38 -8 38 -33.5t-28 -36t-54 -12.5q-33 -1 -48 -1h-65q-24 0 -105 8q0 -120 4 -172q80 -1 204 -1q36 -7 36 -33t-29 -39q-5 -3 -11 -4l-173 3q-18 0 -26 -2l4 -172q0 -58 -3 -83l232 3 q32 -4 32 -27q0 -15 -13.5 -30t-31.5 -19l-256 -4q-23 0 -32 8.5t-9 28.5q4 31 4 90v70l-4 147q-14 9 -14 26.5zM170 753.5q0 13.5 16 31.5q25 13 40 33.5t30 53.5q10 17 27 17t28 -11.5t11 -32.5q-31 -62 -62.5 -93.5t-50.5 -31.5t-29 10t-10 23.5z" />
<glyph unicode="&#xca;" horiz-adv-x="442" d="M41 370.5q0 17.5 11 30.5q-4 113 -4 211q6 24 18.5 35t36.5 14q132 -6 286 -6q38 -8 38 -33.5t-28 -36t-54 -12.5q-33 -1 -48 -1h-65q-24 0 -105 8q0 -120 4 -172q80 -1 204 -1q36 -7 36 -33t-29 -39q-5 -3 -11 -4l-173 3q-18 0 -26 -2l4 -172q0 -58 -3 -83l232 3 q32 -4 32 -27q0 -15 -13.5 -30t-31.5 -19l-256 -4q-23 0 -32 8.5t-9 28.5q4 31 4 90v70l-4 147q-14 9 -14 26.5zM119 754q0 15 50.5 54.5t72.5 39.5t72 -36.5t50 -59t-22 -32.5q-9 -4 -15.5 -4t-37 21.5t-49.5 42.5q-3 -3 -24 -22q-46 -44 -66.5 -44t-28.5 25q-2 7 -2 15z " />
<glyph unicode="&#xcb;" horiz-adv-x="442" d="M41 370.5q0 17.5 11 30.5q-4 113 -4 211q6 24 18.5 35t36.5 14q132 -6 286 -6q38 -8 38 -33.5t-28 -36t-54 -12.5q-33 -1 -48 -1h-65q-24 0 -105 8q0 -120 4 -172q80 -1 204 -1q36 -7 36 -33t-29 -39q-5 -3 -11 -4l-173 3q-18 0 -26 -2l4 -172q0 -58 -3 -83l232 3 q32 -4 32 -27q0 -15 -13.5 -30t-31.5 -19l-256 -4q-23 0 -32 8.5t-9 28.5q4 31 4 90v70l-4 147q-14 9 -14 26.5zM103 752q0 23 17.5 40.5t37.5 17.5t32 -14t13 -38q-4 -21 -19.5 -33t-35.5 -12q-37 0 -45 39zM274 764q0 45 54 45q17 0 30 -9.5t14 -29.5q-5 -35 -30 -48 q-11 -6 -23.5 -6t-22.5 6q-22 12 -22 42z" />
<glyph unicode="&#xcc;" horiz-adv-x="235" d="M38 822q0 14 10.5 24t23 10t24.5 -10q25 -27 45 -41.5t47 -19.5q26 -17 26 -37t-23 -30q-8 -3 -16 -3q-26 0 -59.5 22t-55.5 46.5t-22 38.5zM76 28q10 105 10 248l-6 336q4 14 19.5 24t35.5 10t25 -23l4 -347q0 -148 -8 -239q-2 -15 -18.5 -26.5t-33.5 -11.5 q-28 0 -28 29z" />
<glyph unicode="&#xcd;" horiz-adv-x="235" d="M60 733q0 14 16 31q24 14 39 34.5t30 53.5q10 17 27 17t28 -12t11 -33q-31 -62 -62.5 -93t-50.5 -31t-28.5 9.5t-9.5 23.5zM76 28q10 105 10 248l-6 336q4 14 19.5 24t35.5 10t25 -23l4 -347q0 -148 -8 -239q-2 -15 -18.5 -26.5t-33.5 -11.5q-28 0 -28 29z" />
<glyph unicode="&#xce;" horiz-adv-x="235" d="M8 743.5q0 15.5 50.5 55.5t72.5 40t72 -37t50 -62q0 -14 -12.5 -23.5t-23 -9.5t-43 25t-44.5 38q-5 -3 -18.5 -15.5t-34 -31.5t-36 -19t-24.5 12t-9 27.5zM76 28q10 105 10 248l-6 336q4 14 19.5 24t35.5 10t25 -23l4 -347q0 -148 -8 -239q-2 -15 -18.5 -26.5 t-33.5 -11.5q-28 0 -28 29z" />
<glyph unicode="&#xcf;" horiz-adv-x="235" d="M-7 755q0 22 17.5 39.5t37 17.5t32 -14t12.5 -37q-3 -21 -18.5 -33.5t-36.5 -12.5q-37 0 -44 40zM76 28q10 105 10 248l-6 336q4 14 19.5 24t35.5 10t25 -23l4 -347q0 -148 -8 -239q-2 -15 -18.5 -26.5t-33.5 -11.5q-28 0 -28 29zM163 767q0 44 54 44q18 0 31 -9.5 t14 -28.5q-4 -26 -19.5 -40t-34.5 -14t-32 13t-13 35z" />
<glyph unicode="&#xd0;" horiz-adv-x="589" d="M36 355q0 14 10 25t27 12h36q0 161 4 233q8 26 36 35q9 2 17.5 2t13.5 -1q144 -41 247 -152q50 -54 80.5 -126t32.5 -151q0 -176 -146 -221q-43 -13 -87.5 -13t-82.5 7q4 -9 4 -21.5t-16 -25.5t-39 -13t-29 27l-13 60q-15 11 -15 24.5t11 22.5q-14 101 -18 238h-37 q-17 2 -26.5 13t-9.5 25zM192 392h73q30 -8 30 -38.5t-31 -36.5h-71q4 -125 18 -234q25 -7 63 -7q69 0 124.5 17.5t58.5 57.5q3 29 3 43q0 131 -70 230.5t-194 151.5q-4 -55 -4 -184z" />
<glyph unicode="&#xd1;" horiz-adv-x="532" d="M41 32.5q0 13.5 3 84.5t4 106q7 67 8.5 96.5t1.5 105.5l-2 92q0 67 13 82q6 8 16 12q19 0 46 -12q42 -42 75.5 -93t51.5 -79.5t44 -75t39 -70t40.5 -74t34.5 -64.5l-12 296v15v27v77q0 86 19 98q10 6 26 6t29 -13t13 -32l-3 -90l3 -306q0 -41 3.5 -91t3.5 -69.5 t-11.5 -40t-31.5 -20.5q-39 0 -52 23.5t-46 86.5q-54 103 -108 197t-116 172v-24q0 -301 -18 -427q-3 -24 -37 -24q-15 0 -26 7.5t-11 21zM102 750q0 23 34 48t59 25t63.5 -23t55.5 -28q13 0 36.5 24t34.5 24t21 -9t10 -20q0 -24 -37.5 -50t-64 -26t-47.5 11.5t-38.5 23 t-31.5 11.5t-31 -21.5t-26 -21.5t-16.5 3.5t-14.5 11.5t-7 17z" />
<glyph unicode="&#xd2;" horiz-adv-x="556" d="M42 366.5q0 64.5 15 117t45.5 94.5t82.5 65.5t121 23.5t119 -45q96 -85 96 -263q0 -88 -26 -167t-80.5 -133t-126.5 -58q-47 0 -86 18.5t-65 50.5q-54 66 -74.5 149t-20.5 147.5zM122 387q0 -34 4 -66t16 -74t30 -75.5t50 -57t76.5 -23.5t78.5 41t44 89q16 73 16 133 q0 103 -28 163q-31 67 -110 67q-134 0 -167 -127q-10 -36 -10 -70zM197 818.5q0 17.5 10 27.5t23 10t24 -10q26 -27 45.5 -41.5t47.5 -19.5q25 -17 25 -33t-11 -26.5t-29 -10.5t-43 13.5t-45 30.5q-47 42 -47 59.5z" />
<glyph unicode="&#xd3;" horiz-adv-x="556" d="M42 366.5q0 64.5 15 117t45.5 94.5t82.5 65.5t121 23.5t119 -45q96 -85 96 -263q0 -88 -26 -167t-80.5 -133t-126.5 -58q-47 0 -86 18.5t-65 50.5q-54 66 -74.5 149t-20.5 147.5zM122 387q0 -34 4 -66t16 -74t30 -75.5t50 -57t76.5 -23.5t78.5 41t44 89q16 73 16 133 q0 103 -28 163q-31 67 -110 67q-134 0 -167 -127q-10 -36 -10 -70zM220 750.5q0 11.5 15 29.5q32 17 52 52q8 14 18 36q10 16 27 16t28 -11.5t11 -32.5q-31 -62 -62.5 -93.5t-53.5 -31.5t-32 17q-3 7 -3 18.5z" />
<glyph unicode="&#xd4;" horiz-adv-x="556" d="M42 366.5q0 64.5 15 117t45.5 94.5t82.5 65.5t121 23.5t119 -45q96 -85 96 -263q0 -88 -26 -167t-80.5 -133t-126.5 -58q-47 0 -86 18.5t-65 50.5q-54 66 -74.5 149t-20.5 147.5zM122 387q0 -34 4 -66t16 -74t30 -75.5t50 -57t76.5 -23.5t78.5 41t44 89q16 73 16 133 q0 103 -28 163q-31 67 -110 67q-134 0 -167 -127q-10 -36 -10 -70zM164 751.5q0 15.5 50.5 55.5t72.5 40t72 -36.5t50 -61.5q0 -15 -12.5 -24.5t-23 -9.5t-43 25.5t-44.5 38.5q-4 -3 -37.5 -34.5t-50 -31.5t-25.5 11.5t-9 27z" />
<glyph unicode="&#xd5;" horiz-adv-x="556" d="M42 366.5q0 64.5 15 117t45.5 94.5t82.5 65.5t121 23.5t119 -45q96 -85 96 -263q0 -88 -26 -167t-80.5 -133t-126.5 -58q-47 0 -86 18.5t-65 50.5q-54 66 -74.5 149t-20.5 147.5zM122 387q0 -34 4 -66t16 -74t30 -75.5t50 -57t76.5 -23.5t78.5 41t44 89q16 73 16 133 q0 103 -28 163q-31 67 -110 67q-134 0 -167 -127q-10 -36 -10 -70zM131 750q0 23 33.5 48t56.5 25t41.5 -9t40.5 -22.5t40 -19.5q13 0 36.5 24t34.5 24t21 -9t10 -20q0 -24 -38 -50t-64 -26t-47.5 11.5t-38.5 23t-31 11.5t-31 -21.5t-28 -21.5t-23.5 9t-12.5 23z" />
<glyph unicode="&#xd6;" horiz-adv-x="556" d="M42 366.5q0 64.5 15 117t45.5 94.5t82.5 65.5t121 23.5t119 -45q96 -85 96 -263q0 -88 -26 -167t-80.5 -133t-126.5 -58q-47 0 -86 18.5t-65 50.5q-54 66 -74.5 149t-20.5 147.5zM122 387q0 -34 4 -66t16 -74t30 -75.5t50 -57t76.5 -23.5t78.5 41t44 89q16 73 16 133 q0 103 -28 163q-31 67 -110 67q-134 0 -167 -127q-10 -36 -10 -70zM152 752q0 23 17.5 40.5t34.5 17.5q46 0 48 -52q-3 -21 -19 -33t-36 -12q-37 0 -45 39zM323 764q0 45 54 45q17 0 30 -9.5t14 -29.5q-3 -26 -18.5 -40t-34.5 -14t-32 13t-13 35z" />
<glyph unicode="&#xd7;" horiz-adv-x="490" d="M60 427.5q0 12.5 9 22.5t22.5 10t38.5 -24.5t61.5 -67.5t47.5 -55q15 16 42 46q47 52 74 75q39 27 42 27h11t12.5 -7t4.5 -26.5t-23.5 -44.5t-63.5 -57.5t-61 -57.5q17 -18 48 -45t38.5 -34t25.5 -22q35 -27 35 -55t-42 -28q-10 0 -21.5 10.5t-41.5 41.5q-55 56 -79 81 q-2 -2 -12 -15q-26 -32 -64.5 -74.5t-62.5 -42.5q-15 0 -24.5 10t-9.5 24.5t25.5 44t61.5 63.5t39 38q-100 99 -116.5 124.5t-16.5 38z" />
<glyph unicode="&#xd8;" horiz-adv-x="568" d="M42 368q0 127 61 210q30 42 82 65.5t104.5 23.5t82.5 -14q6 25 20 37.5t29.5 12.5t26 -10.5t10.5 -31.5t-21 -49q84 -86 84 -259q0 -82 -26 -161t-80.5 -133t-126.5 -58q-55 0 -96 24q-1 -27 -26 -36q-7 -2 -18.5 -2t-22.5 9.5t-11 28t18 51.5q-90 97 -90 292zM122 378 q0 -122 57 -214l168 412q-25 8 -60.5 8t-70.5 -16t-55 -46q-39 -57 -39 -144zM227 112q29 -21 72.5 -21t77.5 41t44 89q16 73 16 146q0 109 -36 162q-123 -297 -174 -417z" />
<glyph unicode="&#xd9;" horiz-adv-x="550" d="M35 388.5q0 53.5 14 223.5q7 16 21.5 28.5t29.5 12.5q22 0 27 -30q-14 -167 -14 -219t8 -97t34.5 -98.5t66 -92t78.5 -38.5q63 0 108 98q19 35 21 109q1 17 2 28l2 132q0 95 -14 168q0 21 14 37t31 16t29 -17q17 -84 17 -195v-76q0 -88 -5 -114.5t-12.5 -63.5t-35.5 -80 q-31 -57 -80 -88.5t-99.5 -31.5t-104 44.5t-86.5 109t-42.5 123t-9.5 112zM178 821q0 17 10 27t23 10t24 -10q25 -27 45 -41.5t48 -19.5q25 -17 25 -32.5t-11 -26t-29 -10.5t-43.5 13t-44.5 31q-47 42 -47 59z" />
<glyph unicode="&#xda;" horiz-adv-x="550" d="M35 388.5q0 53.5 14 223.5q7 16 21.5 28.5t29.5 12.5q22 0 27 -30q-14 -167 -14 -219t8 -97t34.5 -98.5t66 -92t78.5 -38.5q63 0 108 98q19 35 21 109q1 17 2 28l2 132q0 95 -14 168q0 21 14 37t31 16t29 -17q17 -84 17 -195v-76q0 -88 -5 -114.5t-12.5 -63.5t-35.5 -80 q-31 -57 -80 -88.5t-99.5 -31.5t-104 44.5t-86.5 109t-42.5 123t-9.5 112zM208 734.5q0 13.5 15 31.5q25 13 40 33.5t30 53.5q10 17 27 17t28 -11.5t11 -32.5q-31 -63 -62.5 -94t-50.5 -31t-28.5 10t-9.5 23.5z" />
<glyph unicode="&#xdb;" horiz-adv-x="550" d="M35 388.5q0 53.5 14 223.5q7 16 21.5 28.5t29.5 12.5q22 0 27 -30q-14 -167 -14 -219t8 -97t34.5 -98.5t66 -92t78.5 -38.5q63 0 108 98q19 35 21 109q1 17 2 28l2 132q0 95 -14 168q0 21 14 37t31 16t29 -17q17 -84 17 -195v-76q0 -88 -5 -114.5t-12.5 -63.5t-35.5 -80 q-31 -57 -80 -88.5t-99.5 -31.5t-104 44.5t-86.5 109t-42.5 123t-9.5 112zM160 751.5q0 15.5 50.5 55.5t72 40t71.5 -36.5t50 -61.5q0 -15 -12.5 -24.5t-23 -9.5t-43 25.5t-44.5 38.5q-4 -3 -24 -22q-55 -44 -62 -44h-1q-17 0 -25.5 11.5t-8.5 27z" />
<glyph unicode="&#xdc;" horiz-adv-x="550" d="M35 388.5q0 53.5 14 223.5q7 16 21.5 28.5t29.5 12.5q22 0 27 -30q-14 -167 -14 -219t8 -97t34.5 -98.5t66 -92t78.5 -38.5q63 0 108 98q19 35 21 109q1 17 2 28l2 132q0 95 -14 168q0 21 14 37t31 16t29 -17q17 -84 17 -195v-76q0 -88 -5 -114.5t-12.5 -63.5t-35.5 -80 q-31 -57 -80 -88.5t-99.5 -31.5t-104 44.5t-86.5 109t-42.5 123t-9.5 112zM140 755q0 22 17.5 39.5t34.5 17.5q46 0 48 -51q-3 -21 -19 -33.5t-36 -12.5q-37 0 -45 40zM311 767q0 44 54 44q24 0 34 -12.5t10 -25.5q-3 -26 -18.5 -40t-34.5 -14t-32 13t-13 35z" />
<glyph unicode="&#xdd;" horiz-adv-x="442" d="M20 627.5q0 11.5 12.5 24.5t26 13t32.5 -26.5t45.5 -77t30 -56t23.5 -44t27 -48.5l46 80q52 94 108 160q15 13 29.5 13t22.5 -8t8 -19t-4 -20q-46 -56 -80 -116t-43 -76.5t-29 -54t-27 -48.5l-4 -203q0 -36 3 -77q-3 -16 -16 -29t-23 -13t-15.5 4t-9 12.5t-5.5 16 t-2.5 20.5t-0.5 20v20v17l3 130q0 49 -5 94q-43 63 -73 121.5t-36.5 71.5t-20.5 41.5t-18.5 37t-4.5 20zM151 740.5q0 13.5 16 31.5q24 13 39 33.5t30 53.5q10 17 27 17t28 -11.5t11 -32.5q-40 -81 -80 -111q-27 -14 -31 -14h-4q-16 0 -26 10t-10 23.5z" />
<glyph unicode="&#xde;" horiz-adv-x="492" d="M60 35v597q10 35 45 35q18 0 32 -23v-56q27 4 57.5 4t59 -4.5t57.5 -12.5q56 -17 94 -59.5t38 -113.5q0 -182 -256 -182q-33 0 -50 1v-174q-3 -19 -18.5 -33t-29.5 -14q-29 0 -29 35zM137 300q65 -4 83 -4q48 0 93.5 19.5t57.5 79.5q-8 68 -65.5 93.5t-130.5 25.5 q-26 0 -38 -2v-212z" />
<glyph unicode="&#xdf;" horiz-adv-x="529" d="M40 395q0 128 43 213q24 47 65 67.5t86 20.5q69 0 114.5 -49.5t45.5 -110.5q0 -25 -11 -69q-23 -89 -83 -111q129 -8 164 -126q9 -32 9 -68q0 -102 -44 -152.5t-125 -50.5q-50 0 -86 24t-45 77q0 22 14.5 38.5t32.5 16.5q20 0 32 -18q22 -68 63 -68t61.5 43.5t20.5 100.5 t-13 83t-47 38.5t-74 12.5t-52 -2q-16 1 -24.5 10t-8.5 21q0 24 26 28q116 43 116 165q0 82 -87 87q-27 0 -50 -24t-37 -61q-31 -80 -31 -173q0 -284 16 -617q-4 -20 -20 -35.5t-29 -15.5t-19.5 5t-10 15t-5.5 21t-2.5 26.5t0 27.5t1 28.5t0.5 25.5l3 325z" />
<glyph unicode="&#xe0;" horiz-adv-x="447" d="M56 218q0 180 103 230q32 15 73 15t80 -14q13 18 36 18q42 0 43 -64q1 -16 1 -28l-1 -70q0 -40 -7 -101q5 -107 23 -191q-3 -11 -16 -17.5t-28 -6.5t-24 4t-12.5 12.5t-5 14.5t-1.5 16.5t-1 12.5q-47 -49 -122.5 -49t-108 57.5t-32.5 160.5zM131 634q0 14 10 23.5t23 9.5 t24 -9q26 -28 45.5 -42.5t47.5 -19.5q25 -16 25 -34.5t-18 -29.5q-10 -5 -28 -5t-51.5 21.5t-55.5 46.5t-22 39zM133 217q0 -105 43 -134q13 -9 34.5 -9t47 18.5t35.5 43.5q19 55 19 118t-15 92.5t-53 29.5q-16 0 -41.5 -3t-47.5 -45t-22 -71v-40z" />
<glyph unicode="&#xe1;" horiz-adv-x="447" d="M56 218q0 180 103 230q32 15 73 15t80 -14q13 18 36 18q42 0 43 -64q1 -16 1 -28l-1 -70q0 -40 -7 -101q5 -107 23 -191q-3 -11 -16 -17.5t-28 -6.5t-24 4t-12.5 12.5t-5 14.5t-1.5 16.5t-1 12.5q-47 -49 -122.5 -49t-108 57.5t-32.5 160.5zM133 217q0 -105 43 -134 q13 -9 34.5 -9t47 18.5t35.5 43.5q19 55 19 118t-15 92.5t-53 29.5q-16 0 -41.5 -3t-47.5 -45t-22 -71v-40zM156 540.5q0 11.5 16 29.5q24 13 39 33.5t30 54.5q10 16 27 16t28 -11.5t11 -32.5q-31 -62 -62.5 -93.5t-53.5 -31.5t-31 17q-4 7 -4 18.5z" />
<glyph unicode="&#xe2;" horiz-adv-x="447" d="M56 218q0 180 103 230q32 15 73 15t80 -14q13 18 36 18q42 0 43 -64q1 -16 1 -28l-1 -70q0 -40 -7 -101q5 -107 23 -191q-3 -11 -16 -17.5t-28 -6.5t-24 4t-12.5 12.5t-5 14.5t-1.5 16.5t-1 12.5q-47 -49 -122.5 -49t-108 57.5t-32.5 160.5zM107 574.5q0 12.5 50.5 52.5 t72.5 40t72 -36.5t50 -59t-22 -32.5q-9 -4 -17 -4t-40.5 25.5t-44.5 38.5q-3 -3 -24 -22q-46 -44 -65.5 -44t-27.5 20q-4 9 -4 21.5zM133 217q0 -105 43 -134q13 -9 34.5 -9t47 18.5t35.5 43.5q19 55 19 118t-15 92.5t-53 29.5q-16 0 -41.5 -3t-47.5 -45t-22 -71v-40z" />
<glyph unicode="&#xe3;" horiz-adv-x="447" d="M56 218q0 180 103 230q32 15 73 15t80 -14q13 18 36 18q42 0 43 -64q1 -16 1 -28l-1 -70q0 -40 -7 -101q5 -107 23 -191q-3 -11 -16 -17.5t-28 -6.5t-24 4t-12.5 12.5t-5 14.5t-1.5 16.5t-1 12.5q-47 -49 -122.5 -49t-108 57.5t-32.5 160.5zM79 567.5q0 14.5 16.5 32 t39 29t40 11.5t36.5 -9.5t40.5 -23t40.5 -19.5q12 0 35.5 24t34.5 24t21.5 -9t10.5 -20q0 -24 -38 -49.5t-64.5 -25.5t-47.5 11t-38.5 22.5t-30 11.5t-22.5 -10.5t-19.5 -21.5t-19 -11t-22.5 9.5t-13 24zM133 217q0 -105 43 -134q13 -9 34.5 -9t47 18.5t35.5 43.5 q19 55 19 118t-15 92.5t-53 29.5q-16 0 -41.5 -3t-47.5 -45t-22 -71v-40z" />
<glyph unicode="&#xe4;" horiz-adv-x="471" d="M79 218q0 180 103 230q32 15 73 15t80 -14q12 18 33.5 18t27.5 -8t9.5 -14t5 -15t2.5 -17t1.5 -19t0 -19t-0.5 -19.5v-51t-7 -100.5q5 -107 23 -191q-3 -11 -16.5 -17.5t-28 -6.5t-23.5 4t-12.5 12.5t-5 14.5t-2 16.5t-0.5 12.5q-47 -49 -124 -49t-108 59.5t-31 158.5z M132 571q0 23 17.5 40.5t37.5 17.5t32 -14.5t13 -37.5q-4 -21 -19.5 -33t-36.5 -12q-37 0 -44 39zM156 217q0 -143 76 -143q23 0 48.5 18.5t35.5 43.5q19 55 19 108t-6 77q-12 55 -63 55q-15 0 -36.5 -2.5t-38.5 -25t-26 -48.5t-9 -43v-40zM302 583q0 45 54 45q18 0 31 -10 t14 -29q-4 -26 -19.5 -40t-31 -14t-25.5 6q-23 12 -23 42z" />
<glyph unicode="&#xe5;" horiz-adv-x="447" d="M56 218q0 180 103 230q32 15 73 15t80 -14q13 18 36 18q42 0 43 -64q1 -16 1 -28l-1 -70q0 -40 -7 -101q5 -107 23 -191q-3 -11 -16 -17.5t-28 -6.5t-24 4t-12.5 12.5t-5 14.5t-1.5 16.5t-1 12.5q-47 -49 -122.5 -49t-108 57.5t-32.5 160.5zM133 217q0 -105 43 -134 q13 -9 34.5 -9t47 18.5t35.5 43.5q19 55 19 118t-15 92.5t-53 29.5q-16 0 -41.5 -3t-47.5 -45t-22 -71v-40zM142 614q0 51 34 79.5t80 28.5t71 -29t25 -83q-4 -39 -32.5 -67t-74.5 -29q-30 0 -54.5 17.5t-36.5 40t-12 42.5zM206 622q0 -16 10 -28t29 -12q45 0 45 44 q0 18 -10 30t-23.5 12t-25.5 -6q-25 -13 -25 -40z" />
<glyph unicode="&#xe6;" horiz-adv-x="682" d="M35 176q0 101 50 187q24 43 68 70t105 27t82 -36q16 13 49.5 26t56.5 13q58 0 106.5 -30t48.5 -72q0 -31 -20.5 -61.5t-48.5 -49.5t-45 -24t-23 -6.5t-12.5 -2.5t-10.5 -2t-11 -1.5t-10 -0.5t-11 -0.5t-10 -0.5h-11.5h-11.5q8 -66 17.5 -83t22 -31t39.5 -14q48 0 90.5 42 t64.5 42q10 0 24 -17.5t14 -28.5t-17.5 -31t-44.5 -41.5t-66 -37.5t-77 -16h-7q-48 12 -92 51q-18 15 -31 33q-23 -39 -61.5 -59.5t-79.5 -20.5q-137 0 -137 176zM103 205q0 -70 36 -111q23 -24 51 -24q42 0 66 38q5 8 8 16q32 88 32 159q0 101 -70 101q-101 0 -123 -179z M373 283q76 0 109 19.5t33 49t-32 39.5q-9 3 -20 3q-34 0 -61 -28q-15 -16 -20 -38t-9 -45z" />
<glyph unicode="&#xe7;" horiz-adv-x="412" d="M25 223q0 81 36.5 135.5t90.5 81.5t117 27t91 -18q13 -8 13 -19q0 -20 -11 -45t-31 -25q-9 0 -38 11.5t-41 11.5q-56 0 -98 -41.5t-42 -111t21.5 -105.5t78.5 -36q31 0 78.5 25.5t62 25.5t22.5 -8t8 -20q0 -33 -48.5 -65.5t-105.5 -42.5v-6l-2 -45q0 -30 29 -30q7 0 12 1 q56 0 78 -17t22 -58q0 -68 -42.5 -112t-115.5 -44t-111 25q-20 14 -20 32.5t11.5 31.5t24.5 13t44.5 -13.5t67 -13.5t52.5 11.5t17 52.5q0 28 -36 28l-52 -5q-63 0 -63 73q0 29 10 77q-62 15 -96 76t-34 142z" />
<glyph unicode="&#xe8;" d="M37 246.5q0 85.5 34 147.5q37 69 128 69q50 0 99.5 -30t49.5 -74.5t-44.5 -87.5t-104.5 -54q-7 -1 -11 -2t-11 -1.5t-10 -0.5t-11 -0.5t-10.5 -0.5h-12h-12.5q11 -78 30.5 -103t48.5 -25q50 0 92 42q54 42 62 42h4.5t20 -14.5t16.5 -28.5t-18 -34t-45 -41.5t-66.5 -37.5 t-77 -16t-68 24t-47.5 62q-36 79 -36 164.5zM102 635.5q0 20.5 18 29.5q8 5 18 5t22 -10q25 -27 44.5 -41.5t47.5 -19.5q25 -17 25 -33t-11 -26.5t-29 -10.5t-43 13.5t-45 30.5q-47 42 -47 62.5zM120 283q140 0 140 69q0 42 -56 42q-28 0 -58 -32q-5 -5 -9 -14.5t-6 -13.5 q-4 -9 -11 -51z" />
<glyph unicode="&#xe9;" d="M37 246.5q0 85.5 34 147.5q37 69 128 69q50 0 99.5 -30t49.5 -74.5t-44.5 -87.5t-104.5 -54q-7 -1 -11 -2t-11 -1.5t-10 -0.5t-11 -0.5t-10.5 -0.5h-12h-12.5q11 -78 30.5 -103t48.5 -25q50 0 92 42q54 42 62 42h4.5t20 -14.5t16.5 -28.5t-18 -34t-45 -41.5t-66.5 -37.5 t-77 -16t-68 24t-47.5 62q-36 79 -36 164.5zM120 283q140 0 140 69q0 42 -56 42q-28 0 -58 -32q-5 -5 -9 -14.5t-6 -13.5q-4 -9 -11 -51zM134 546q0 14 16 31q25 13 40 34t30 54q10 17 27 17t28 -12t11 -33q-31 -62 -62.5 -93.5t-50.5 -31.5t-29 10t-10 24z" />
<glyph unicode="&#xea;" d="M37 246.5q0 85.5 34 147.5q37 69 128 69q50 0 99.5 -30t49.5 -74.5t-44.5 -87.5t-104.5 -54q-7 -1 -11 -2t-11 -1.5t-10 -0.5t-11 -0.5t-10.5 -0.5h-12h-12.5q11 -78 30.5 -103t48.5 -25q50 0 92 42q54 42 62 42h4.5t20 -14.5t16.5 -28.5t-18 -34t-45 -41.5t-66.5 -37.5 t-77 -16t-68 24t-47.5 62q-36 79 -36 164.5zM84 567q0 16 50.5 55.5t72.5 39.5t72 -36.5t50 -61.5q0 -14 -12.5 -24t-23.5 -10t-43.5 25.5t-44.5 38.5q-4 -4 -17.5 -16.5t-34.5 -31t-36 -18.5t-24 11.5t-9 27.5zM120 283q140 0 140 69q0 42 -56 42q-28 0 -58 -32 q-5 -5 -9 -14.5t-6 -13.5q-4 -9 -11 -51z" />
<glyph unicode="&#xeb;" d="M37 246.5q0 85.5 34 147.5q37 69 128 69q50 0 99.5 -30t49.5 -74.5t-44.5 -87.5t-104.5 -54q-7 -1 -11 -2t-11 -1.5t-10 -0.5t-11 -0.5t-10.5 -0.5h-12h-12.5q11 -78 30.5 -103t48.5 -25q50 0 92 42q54 42 62 42h4.5t20 -14.5t16.5 -28.5t-18 -34t-45 -41.5t-66.5 -37.5 t-77 -16t-68 24t-47.5 62q-36 79 -36 164.5zM68 571q0 23 17.5 40.5t37.5 17.5t32 -14.5t13 -37.5q-3 -21 -19 -33t-36 -12q-37 0 -45 39zM120 283q140 0 140 69q0 42 -56 42q-28 0 -58 -32q-5 -5 -9 -14.5t-6 -13.5q-4 -9 -11 -51zM239 583q0 45 54 45q17 0 30 -10t14 -29 q-3 -26 -18.5 -40t-34.5 -14t-32 13t-13 35z" />
<glyph unicode="&#xec;" horiz-adv-x="224" d="M29 634q0 14 10 23.5t23 9.5t24 -9q26 -28 45.5 -42.5t47.5 -19.5q25 -16 25 -32t-11 -26.5t-32 -10.5t-54.5 21.5t-55.5 46.5t-22 39zM70 341.5q0 64.5 3 113.5q2 18 22.5 18t33 -7t19 -16.5t9 -26.5t2.5 -28.5t-1 -32.5t-1 -30l-2 -224q0 -47 1 -68q-4 -19 -17 -32.5 t-30.5 -13.5t-25.5 25q-13 258 -13 322.5z" />
<glyph unicode="&#xed;" horiz-adv-x="223" d="M36 550.5q0 13.5 16 31.5q24 13 39 33.5t30 54.5q10 16 27 16t28 -11.5t11 -32.5q-31 -62 -62.5 -93.5t-50.5 -31.5t-28.5 10t-9.5 23.5zM70 341.5q0 64.5 3 113.5q2 18 22.5 18t33.5 -7q23 -13 26.5 -36t3.5 -35l-2 -63l-2 -224q0 -47 1 -68q-4 -19 -17 -32.5 t-30.5 -13.5t-25.5 25q-13 258 -13 322.5z" />
<glyph unicode="&#xee;" horiz-adv-x="283" d="M19 573.5q0 12.5 50.5 52.5t72.5 40t72 -37t50 -61q0 -15 -12.5 -24.5t-23 -9.5t-43.5 25.5t-45 38.5q-3 -3 -23 -22q-47 -44 -66 -44t-28 20q-4 9 -4 21.5zM98 341.5q0 64.5 4 113.5q2 18 22.5 18t33 -7t18.5 -16.5t9 -26.5t3 -28.5t-1 -32.5t-1 -30l-2 -224 q0 -47 1 -68q-4 -19 -17 -32.5t-30.5 -13.5t-25.5 25q-14 258 -14 322.5z" />
<glyph unicode="&#xef;" horiz-adv-x="315" d="M24 575q0 22 17.5 39.5t37.5 17.5t32 -14t13 -37q-4 -21 -19.5 -33.5t-36.5 -12.5q-37 0 -44 40zM116 341.5q0 64.5 4 113.5q2 18 22.5 18t33 -7t18.5 -16.5t9 -26.5t3 -28.5t-1 -32.5t-1 -30l-2 -224q0 -47 1 -68q-4 -19 -17 -32.5t-30.5 -13.5t-25.5 25 q-14 258 -14 322.5zM194 587q0 44 54 44q18 0 31 -9.5t14 -28.5q-4 -26 -19.5 -40t-34 -14t-32 13t-13.5 35z" />
<glyph unicode="&#xf0;" horiz-adv-x="463" d="M48 202.5q0 43.5 13.5 85.5t37.5 77t63 57t85 22l-50 64l-22 -27q-17 -9 -29.5 -9t-21 8t-8.5 20.5t11 28.5l29 31q-10 10 -20 23t-10 16h1q-11 11 -11 26t14 28t26.5 13t24.5 -6l36 -44l35 36q16 13 29 13q32 0 32 -30q0 -18 -13 -31l-41 -41q4 -5 23 -29t34 -44 q51 -67 72 -124.5t24 -132.5q0 -50 -26 -104t-72.5 -92.5t-98.5 -38.5t-91.5 34.5t-57.5 80.5t-18 89.5zM124 239.5q0 -67.5 29.5 -115t79.5 -47.5q26 0 47 19q55 46 55 138q0 45 -28 92t-69 47t-67 -23q-47 -43 -47 -110.5z" />
<glyph unicode="&#xf1;" horiz-adv-x="392" d="M34 578q0 24 33.5 49t59 25t64 -23t55.5 -29q12 0 36 24t34.5 24t21 -9t10.5 -22.5t-18.5 -31.5t-43 -29.5t-49.5 -11.5t-77 34q-17 11 -30 11t-22.5 -10.5t-19 -21.5t-17.5 -11t-16 3.5t-14.5 11.5t-6.5 17zM36 437q5 17 16.5 30t22.5 13t17 -1.5t9.5 -5.5t6 -7.5 t4 -12.5t2 -15t1.5 -19.5t1 -21.5q54 71 135 71q56 0 83 -51q42 -76 42 -232l1 -94q0 -38 -4 -50.5t-10 -21.5q-10 -19 -37 -19q-24 0 -24 32l1 52q0 12 -0.5 31.5t-0.5 45t-2.5 51t-5.5 48.5q-7 46 -24.5 77t-43.5 31t-43 -9t-27 -28q-21 -39 -25.5 -84t-4.5 -96l-2 -108 q0 -21 -16 -32.5t-36 -11.5q-25 0 -25 32q0 83 -5.5 204t-5.5 202z" />
<glyph unicode="&#xf2;" horiz-adv-x="403" d="M25 224q0 90 54 165q25 34 62 56t83.5 22t84.5 -39q71 -73 71 -204q0 -68 -38 -142q-19 -35 -50 -58.5t-72 -23.5t-79.5 23.5t-63.5 58.5q-52 76 -52 142zM101 247.5q0 -43.5 37 -106.5q17 -29 45 -49.5t58 -20.5q29 15 44 50t15 72t-5 66t-15.5 56t-30.5 46t-46 24 q-44 -7 -73 -50.5t-29 -87zM114 632.5q0 13.5 10.5 23.5t23 10t24.5 -10q25 -27 44.5 -41.5t47.5 -19.5q25 -17 25 -35.5t-18 -28.5q-9 -5 -27.5 -5t-52 21.5t-55.5 46.5t-22 38.5z" />
<glyph unicode="&#xf3;" horiz-adv-x="403" d="M25 224q0 90 54 165q25 34 62 56t83.5 22t84.5 -39q71 -73 71 -204q0 -68 -38 -142q-19 -35 -50 -58.5t-72 -23.5t-79.5 23.5t-63.5 58.5q-52 76 -52 142zM101 247.5q0 -43.5 37 -106.5q17 -29 45 -49.5t58 -20.5q29 15 44 50t15 72t-5 66t-15.5 56t-30.5 46t-46 24 q-44 -7 -73 -50.5t-29 -87zM132 546q0 14 16 31q24 13 39 34t30 54q10 17 27 17t28 -12t11 -33q-40 -81 -80 -111q-19 -14 -35.5 -14t-26 10t-9.5 24z" />
<glyph unicode="&#xf4;" horiz-adv-x="403" d="M25 224q0 90 54 165q25 34 62 56t83.5 22t84.5 -39q71 -73 71 -204q0 -68 -38 -142q-19 -35 -50 -58.5t-72 -23.5t-79.5 23.5t-63.5 58.5q-52 76 -52 142zM85 568.5q0 15.5 50.5 55.5t72.5 40t72 -37t50 -62q0 -14 -12.5 -23.5t-23 -9.5t-43.5 25t-45 38q-4 -3 -13 -12 q-24 -22 -43 -38t-33 -16t-23 12t-9 27.5zM101 247.5q0 -43.5 37 -106.5q17 -29 45 -49.5t58 -20.5q29 15 44 50t15 72t-5 66t-15.5 56t-30.5 46t-46 24q-44 -7 -73 -50.5t-29 -87z" />
<glyph unicode="&#xf5;" horiz-adv-x="403" d="M25 224q0 90 54 165q25 34 62 56t83.5 22t84.5 -39q71 -73 71 -204q0 -68 -38 -142q-19 -35 -50 -58.5t-72 -23.5t-79.5 23.5t-63.5 58.5q-52 76 -52 142zM54 577q0 24 34 48.5t59 24.5t63.5 -22.5t55.5 -28.5q13 0 36.5 24t34.5 24t21 -9t10 -20q0 -24 -37.5 -50 t-64 -26t-47.5 11.5t-38.5 23t-30 11.5t-22.5 -11t-19.5 -21.5t-19.5 -10.5t-22.5 9.5t-12.5 22.5zM101 247.5q0 -43.5 37 -106.5q17 -29 45 -49.5t58 -20.5q29 15 44 50t15 72t-5 66t-15.5 56t-30.5 46t-46 24q-44 -7 -73 -50.5t-29 -87z" />
<glyph unicode="&#xf6;" horiz-adv-x="436" d="M56 220.5q0 62.5 24 117.5t70 92t93 37q87 0 128 -77.5t41 -155.5t-39 -152q-19 -35 -50 -58.5t-71.5 -23.5t-79.5 23.5t-63 58.5q-53 76 -53 138.5zM100 571q0 23 17 40.5t37 17.5t32 -14.5t13 -37.5q-3 -21 -19 -33t-36 -12q-37 0 -44 39zM132 247.5q0 -43.5 37 -106.5 q18 -29 45.5 -49.5t57.5 -20.5q29 15 44 50t15 72t-5 66t-15.5 56t-30 46t-46.5 24q-43 -7 -72.5 -50.5t-29.5 -87zM270 583q0 45 54 45q17 0 30.5 -10t13.5 -29q-7 -54 -56 -54q-16 0 -29 13t-13 35z" />
<glyph unicode="&#xf7;" horiz-adv-x="519" d="M44 264.5q0 16.5 10.5 26t28.5 10.5q54 -5 113 -5l241 8q30 -12 30 -35q0 -12 -8.5 -21.5t-22.5 -12.5l-245 -7q-107 0 -127 10t-20 26.5zM202 102q0 50 62 50q35 -7 37 -48q-14 -45 -56 -45q-21 0 -32 12t-11 31zM205 421.5q0 21.5 15.5 34t33.5 12.5t32 -13t14 -31.5 t-14.5 -34.5t-35 -16t-33 13.5t-12.5 35z" />
<glyph unicode="&#xf8;" horiz-adv-x="420" d="M25 234q0 34 14.5 77t39.5 77.5t62 56.5t72 22t62 -15q15 30 36 30q35 0 35 -22q0 -17 -18 -53q52 -71 52 -183q0 -68 -38 -142q-19 -35 -50 -58.5t-68 -23.5t-73 17q-19 -37 -37 -37t-28 7.5t-10 16t2.5 16t5.5 13.5l7 14l6 12q-72 76 -72 175zM101 246q0 -45 35 -102 l103 224q-17 14 -36 17q-44 -7 -73 -50.5t-29 -88.5zM184 91q23 -20 57 -20q59 32 59 136q0 51 -17 97z" />
<glyph unicode="&#xf9;" horiz-adv-x="400" d="M28 250.5q0 77.5 8 177.5q4 18 17 29t26 11q28 0 34 -28q-6 -68 -6 -132t2 -92q4 -72 48 -145q40 9 74 36.5t52 61.5q-12 144 -12 247q0 21 13.5 36t32.5 15t31 -27q0 -48 8 -228q2 -25 13 -93t11 -83.5t-15 -31.5t-33.5 -16t-26.5 24l-10 60q-71 -73 -141 -73 q-34 0 -60 25.5t-40 67.5q-26 81 -26 158.5zM97 632.5q0 17.5 10.5 27.5t23 10t24.5 -10q25 -27 44.5 -41.5t47.5 -19.5q25 -17 25 -33t-11 -26.5t-29 -10.5t-43 13.5t-45 30.5q-47 42 -47 59.5z" />
<glyph unicode="&#xfa;" horiz-adv-x="400" d="M28 250.5q0 77.5 8 177.5q4 18 17 29t26 11q28 0 34 -28q-6 -68 -6 -132t2 -92q4 -72 48 -145q40 9 74 36.5t52 61.5q-12 144 -12 247q0 21 13.5 36t32.5 15t31 -27q0 -48 8 -228q2 -25 13 -93t11 -83.5t-15 -31.5t-33.5 -16t-26.5 24l-10 60q-71 -73 -141 -73 q-34 0 -60 25.5t-40 67.5q-26 81 -26 158.5zM128 545.5q0 10.5 16 28.5q32 17 52 52q8 13 18 35q10 17 31.5 17t30.5 -25q4 -9 4 -19q-31 -63 -62.5 -94t-54.5 -31t-32 21q-3 5 -3 15.5z" />
<glyph unicode="&#xfb;" horiz-adv-x="400" d="M28 250.5q0 77.5 8 177.5q4 18 17 29t26 11q28 0 34 -28q-6 -68 -6 -132t2 -92q4 -72 48 -145q40 9 74 36.5t52 61.5q-12 144 -12 247q0 21 13.5 36t32.5 15t31 -27q0 -48 8 -228q2 -25 13 -93t11 -83.5t-15 -31.5t-33.5 -16t-26.5 24l-10 60q-71 -73 -141 -73 q-34 0 -60 25.5t-40 67.5q-26 81 -26 158.5zM67 571.5q0 15.5 50.5 55.5t72.5 40t72 -36.5t50 -59t-21 -32.5q-9 -4 -17 -4t-41 25.5t-45 38.5q-3 -3 -36.5 -34.5t-50 -31.5t-25.5 11.5t-9 27z" />
<glyph unicode="&#xfc;" horiz-adv-x="424" d="M52 250.5q0 77.5 8 177.5q4 18 17 29t26 11q28 0 34 -28q-6 -68 -6 -132t2 -92q4 -72 48 -145q40 9 74 36.5t52 61.5q-12 144 -12 247q0 21 13.5 36t32.5 15t31 -27q0 -48 8 -228q2 -25 13 -93t11 -83.5t-15 -31.5t-33.5 -16t-26.5 24l-10 60q-71 -73 -141 -73 q-34 0 -60 25.5t-40 67.5q-26 81 -26 158.5zM92 571q0 32 30 50q13 8 29 8t28 -14.5t13 -37.5q-3 -21 -19 -33t-36 -12q-37 0 -45 39zM263 583q0 45 54 45q17 0 30 -10t14 -29q-3 -26 -18.5 -40t-34.5 -14t-32 13t-13 35z" />
<glyph unicode="&#xfd;" horiz-adv-x="454" d="M42 419q0 19 11.5 33t29 14t31.5 -21q28 -90 77 -203.5t57 -134.5q18 62 46 176t35 140t11 30t12.5 8.5t24 4.5t28 -9t12.5 -20t-2 -21q-142 -505 -209 -693q-8 -27 -32 -27q-15 0 -26 13t-11 34.5t14.5 70t34 106t25.5 79.5q-23 40 -79.5 179.5t-89.5 240.5zM161 534.5 q0 11.5 15 29.5q32 17 52 52q8 14 18 36q10 16 27 16t28 -11.5t11 -32.5q-31 -62 -62.5 -93.5t-53.5 -31.5t-31 17q-4 7 -4 18.5z" />
<glyph unicode="&#xfe;" horiz-adv-x="454" d="M40 547q0 12 10.5 20t27.5 8q33 0 42 -28v-128q7 17 33.5 32.5t75.5 15.5t87 -20.5t59 -57.5q40 -69 40 -170t-58 -159.5t-161 -58.5q-41 0 -76 16l-1 -280q-7 -30 -35 -42q-9 -3 -17 -3q-26 0 -26 33l2 342q0 279 -1.5 373.5t-1.5 106.5zM120 97q3 0 10.5 -3.5t22 -9 t44.5 -5.5q138 0 138 142q0 122 -62 153q-26 14 -64 14q-39 -5 -64 -33.5t-25 -53.5v-204z" />
<glyph unicode="&#xff;" horiz-adv-x="454" d="M42 419q0 19 11.5 33t29 14t31.5 -21q28 -90 77 -203.5t57 -134.5q18 62 46 176t35 140t11 30t12.5 8.5t24 4.5t28 -9t12.5 -20t-2 -21q-142 -505 -209 -693q-8 -27 -32 -27q-15 0 -26 13t-11 34.5t14.5 70t34 106t25.5 79.5q-23 40 -79.5 179.5t-89.5 240.5zM97 571 q0 32 29 50q13 8 29.5 8t28.5 -14.5t13 -37.5q-4 -21 -19.5 -33t-35.5 -12q-37 0 -45 39zM268 583q0 45 54 45q17 0 30 -10t14 -29q-3 -26 -18.5 -40t-34.5 -14t-32 13t-13 35z" />
<glyph unicode="&#x131;" horiz-adv-x="224" d="M70 341.5q0 64.5 3 113.5q2 18 22.5 18t33.5 -7q23 -13 26.5 -36t3.5 -35l-2 -63l-2 -224q0 -47 1 -68q-4 -19 -17 -32.5t-30.5 -13.5t-25.5 25q-13 258 -13 322.5z" />
<glyph unicode="&#x13d;" horiz-adv-x="372" d="M28 217l9 418q0 12 13 19t32.5 7t34 -9.5t14.5 -27.5q-3 -32 -16.5 -169t-13.5 -223.5t7 -158.5h19t83.5 7.5t86.5 7.5q47 0 47 -34q0 -29 -27 -40q-29 -12 -57 -13q-29 -1 -45 -1l-62 1l-54 -1q-13 0 -35 2t-28 18q-8 91 -8 197zM54 845q3 27 29 27q14 0 28 -12 t35.5 -38t38.5 -42q48 36 79 73q11 13 36 13t25 -21l-1 -7q-8 -21 -64.5 -72.5t-76 -51.5t-68.5 49t-61 82z" />
<glyph unicode="&#x13e;" horiz-adv-x="328" d="M64 529q0 105 1.5 130t11 37t33.5 12q35 0 41 -35q-9 -93 -9 -355q0 -200 43 -235q12 3 24 19.5t24 31.5t27 15t25 -14.5t10 -45t-33.5 -62.5t-76.5 -32q-85 0 -107 146q-9 56 -10 107.5t-1.5 90t-1.5 62t-1 128.5zM175 556q0 9 4 20q19 21 25 45.5t6 60.5q3 14 12 22.5 t22 8.5q23 0 34 -29q0 -45 -10 -85q-21 -78 -60 -78q-33 0 -33 35z" />
<glyph unicode="&#x141;" horiz-adv-x="384" d="M-24 183q0 11 5.5 20t16.5 21t19.5 20.5t23.5 22t19 17.5q0 42 3.5 168t3.5 183q0 12 13 19t32.5 7t33.5 -9.5t14 -27.5l-20 -251q33 33 49.5 33t25.5 -9.5t9 -21t-6 -23t-17.5 -24.5t-21.5 -23.5t-25.5 -25t-21.5 -20.5q-2 -60 -2 -88.5t7 -97.5h19t83.5 7.5t91.5 7.5 t33.5 -10.5t9.5 -24.5t-7 -24t-20.5 -15.5t-27.5 -8.5q-21 -5 -71 -5l-65 1l-53 -1q-14 0 -36 2t-29 18q-6 68 -6 164l-28 -27q-9 -5 -22 -5t-23 10t-10 21z" />
<glyph unicode="&#x142;" horiz-adv-x="283" d="M12 230.5q0 10.5 3.5 18t9.5 14.5q10 13 30.5 31.5t27.5 25.5v77l-3 209q0 60 10 81t40.5 21t37.5 -35q-7 -64 -8 -266v-3l20 28q13 10 27 10t23.5 -9t9.5 -23q0 -28 -83 -114q5 -184 46 -213q14 3 22 15q15 24 25.5 37.5t26 13.5t25.5 -14.5t10 -45t-33.5 -62.5t-69 -32 t-56.5 15q-38 26 -51 83.5t-14 133.5l-21 -22q-9 -5 -22 -5t-23 10t-10 20.5z" />
<glyph unicode="&#x152;" horiz-adv-x="775" d="M48 337q0 94 5.5 125.5t11 55t14.5 40t21 34.5q19 28 61.5 48.5t107.5 20.5q111 0 131 -54v7q0 22 10 30t25 12.5t42.5 4.5t57.5 -1.5t70.5 -3.5t74.5 -3q42 -9 42 -35q0 -47 -128 -47h-45q-20 0 -77 6q0 -146 3 -198q122 -3 162 -3q39 -7 39 -33q0 -13 -12 -26t-29 -17 l-126 5l-33 -1l6 -176q0 -34 -1 -51l192 3q34 -5 34 -28q0 -16 -13.5 -31t-32.5 -20l-193 -1q-44 0 -62 17.5t-18 58.5q-30 -45 -58 -60t-79 -15t-85 23q-59 39 -88.5 129t-29.5 184zM126 371q0 -70 14.5 -124.5t29 -85t35.5 -50t46 -19.5q114 0 114 236q0 125 -15 171 t-27 60q-34 23 -54 25q-143 0 -143 -213z" />
<glyph unicode="&#x153;" horiz-adv-x="687" d="M35 224q0 90 53 165q25 34 61.5 56t78.5 22q69 0 113 -70q43 66 120 66q59 0 107.5 -30t48.5 -74t-45 -87.5t-105 -54.5q-6 -1 -10 -2t-11 -1.5t-10 -0.5t-11 -0.5t-10.5 -0.5h-11.5h-12q7 -55 14 -72q13 -32 29 -44t40 -12q44 0 86.5 42t63.5 42q7 0 23.5 -14.5 t16.5 -28.5t-17.5 -34t-45 -41.5t-66.5 -37.5t-77 -16q-74 0 -111 77q-46 -73 -115 -73q-44 0 -82.5 23.5t-63.5 58.5q-51 76 -51 142zM109 251q0 -40 19 -75.5t35 -56.5t39.5 -34.5t48.5 -13.5q53 30 56 125v40q-14 132 -96 149q-43 -7 -72.5 -50.5t-29.5 -83.5zM389 283 q140 0 140 69q0 42 -56 42q-27 0 -50 -24t-30 -62q-1 -6 -4 -25z" />
<glyph unicode="&#x15a;" horiz-adv-x="459" d="M34 504q0 52 36 89q68 69 196 69q49 0 87.5 -12t53.5 -32.5t15 -33.5t-4 -20q-10 -17 -26.5 -17t-35.5 11q-58 34 -104 34t-89.5 -24t-43.5 -62q0 -52 49.5 -71.5t95.5 -27.5q78 -16 127 -55t49 -129q0 -58 -27.5 -109t-78 -82.5t-111.5 -31.5q-37 0 -63.5 11.5t-38 17 t-37 19.5t-36.5 20q-13 12 -13 26t7 24q16 22 44 22l10 -1q96 -55 158 -55q41 0 73.5 30.5t32.5 98t-50.5 89.5t-96.5 30q-80 14 -129.5 49.5t-49.5 122.5zM167 747.5q0 13.5 15 31.5q25 13 40 33.5t30 53.5q10 17 27 17t28 -11.5t11 -32.5q-31 -62 -62.5 -93.5t-50.5 -31.5 t-28.5 10t-9.5 23.5z" />
<glyph unicode="&#x15b;" horiz-adv-x="385" d="M55 77q0 35 42 35q20 0 56 -17.5t60 -17.5t44 29.5t20 56.5q0 6 -2 16q-27 26 -106 39q-28 5 -55 15q-59 21 -59 107q0 60 43 94.5t106 34.5q37 0 75 -12q73 -24 73 -61q0 -17 -14.5 -27t-33.5 -10q-4 0 -44.5 18.5t-65 18.5t-45.5 -14.5t-21 -37t12.5 -38.5t32.5 -23 t44 -12q65 -13 91 -25q45 -21 45 -83.5t-47.5 -110t-100.5 -47.5t-88 12q-62 23 -62 60zM146 546.5q0 11.5 16 29.5q25 13 40 33.5t30 54.5q10 16 31.5 16t30.5 -24q4 -9 4 -20q-31 -62 -62.5 -93.5t-53.5 -31.5t-32 17q-4 7 -4 18.5z" />
<glyph unicode="&#x160;" horiz-adv-x="459" d="M34 504q0 52 36 89q68 69 196 69q49 0 87.5 -12t53.5 -32.5t15 -33.5t-4 -20q-10 -17 -26.5 -17t-35.5 11q-58 34 -104 34t-89.5 -24t-43.5 -62q0 -52 49.5 -71.5t95.5 -27.5q78 -16 127 -55t49 -129q0 -58 -27.5 -109t-78 -82.5t-111.5 -31.5q-37 0 -63.5 11.5t-38 17 t-37 19.5t-36.5 20q-13 12 -13 26t7 24q16 22 44 22l10 -1q96 -55 158 -55q41 0 73.5 30.5t32.5 98t-50.5 89.5t-96.5 30q-80 14 -129.5 49.5t-49.5 122.5zM102 844q3 27 29 27q14 0 28 -12t35.5 -38t38.5 -42q48 36 79 73q11 13 36 13t25 -21l-1 -8q-8 -20 -64.5 -71.5 t-76 -51.5t-68.5 49t-61 82z" />
<glyph unicode="&#x161;" horiz-adv-x="361" d="M31 77q0 35 42 35q20 0 56 -17.5t56.5 -17.5t34.5 14t23.5 34.5t9.5 32t-2 21.5q-29 28 -85 35t-95.5 29.5t-39.5 89.5t43 101.5t106 34.5q37 0 75 -12q73 -24 73 -61q0 -17 -14.5 -27t-33.5 -10q-4 0 -44.5 18.5t-65 18.5t-45.5 -14.5t-21 -37t12.5 -38.5t32.5 -23 t44 -12q65 -13 91 -25q45 -21 45 -83.5t-47.5 -110t-100.5 -47.5t-88 12q-62 23 -62 60zM52 684q3 28 28 28q15 0 28.5 -12.5t35 -38.5t38.5 -42q49 36 80 73q11 14 36 14t25 -22l-1 -7q-5 -13 -34 -43t-61.5 -55.5t-45 -25.5t-41 23.5t-55 55t-33.5 52.5z" />
<glyph unicode="&#x16f;" horiz-adv-x="400" d="M28 250.5q0 77.5 8 177.5q4 18 17 29t26 11q28 0 34 -28q-6 -68 -6 -132t2 -92q4 -72 48 -145q40 9 74 36.5t52 61.5q-12 144 -12 247q0 21 13.5 36t32.5 15t31 -27q0 -48 8 -228q2 -25 13 -93t11 -83.5t-15 -31.5t-33.5 -16t-26.5 24l-10 60q-71 -73 -141 -73 q-34 0 -60 25.5t-40 67.5q-26 81 -26 158.5zM115 580.5q0 38.5 27 61t57 22.5t46 -10q35 -21 35 -78q-5 -41 -41 -63q-19 -11 -43 -11t-43 13q-38 27 -38 65.5zM166 587q0 -14 7.5 -23.5t22.5 -9.5q36 0 36 35q0 19 -10 26t-22 7t-23 -10.5t-11 -24.5z" />
<glyph unicode="&#x178;" horiz-adv-x="442" d="M20 627.5q0 11.5 12.5 24.5t26 13t32.5 -26.5t45.5 -77t30 -56t23.5 -44t27 -48.5l46 80q52 94 108 160q15 13 29.5 13t22.5 -8t8 -19t-4 -20q-46 -56 -80 -116t-43 -76.5t-29 -54t-27 -48.5l-4 -203q0 -36 3 -77q-3 -16 -16 -29t-23 -13t-15.5 4t-9 12.5t-5.5 16 t-2.5 20.5t-0.5 20v20v17l3 130q0 49 -5 94q-43 63 -73 121.5t-36.5 71.5t-20.5 41.5t-18.5 37t-4.5 20zM84 755q0 22 17.5 39.5t37.5 17.5t32 -14t13 -37q-4 -21 -19.5 -33.5t-36.5 -12.5q-37 0 -44 40zM254 767q0 44 54 44q18 0 31 -9.5t14 -28.5q-4 -26 -19.5 -40 t-34 -14t-32 13t-13.5 35z" />
<glyph unicode="&#x17d;" horiz-adv-x="507" d="M37 619.5q0 10.5 14 26.5t32 19q91 0 210 -10t176 -31q18 -12 18 -30v-7q-45 -101 -120 -199q28 0 42 1q29 -5 29 -29t-19 -35t-37 -12t-26.5 -1.5t-25.5 0t-23 0.5q-24 -27 -56.5 -58.5t-49.5 -48.5q-46 -46 -73 -129l173 -3q88 0 147 7q28 -5 28 -30.5t-28.5 -38 t-56.5 -13.5q-31 -1 -48 -1l-63 1h-117l-86 -2q-18 0 -25.5 7.5t-7.5 25.5q16 85 45.5 131.5t69 91.5t57.5 67q-63 10 -112 36q-12 12 -12 24q0 20 15 33.5t35 13.5l9 -1q32 -18 63.5 -22t65.5 -7q4 6 17.5 23t19 24t16.5 22q39 50 64 98q-117 26 -326 26q-25 0 -32 16 q-2 4 -2 14.5zM136 844q3 27 28 27q15 0 28.5 -12t35 -38t38.5 -42q49 36 80 73q11 13 36 13t25 -21l-1 -8q-8 -20 -65 -71.5t-76 -51.5t-68.5 49t-60.5 82z" />
<glyph unicode="&#x17e;" horiz-adv-x="428" d="M31 413q0 24 10 32q16 12 38.5 13.5t44.5 1.5h50q215 0 215 -84q0 -65 -71 -126q-31 -27 -64 -52q-85 -65 -110 -109q23 -11 50.5 -11t88 9.5t79.5 9.5q27 0 34.5 -9.5t7.5 -20.5q0 -68 -204 -68q-111 0 -136 35q-11 16 -11 38t9 43t24.5 39.5t35.5 38t42 36.5 q41 32 81.5 66t49.5 60q-12 31 -77 31q-28 0 -78.5 -7t-61.5 -7h-5q-1 1 -9.5 3.5t-14.5 5.5q-18 8 -18 32zM70 650q3 28 28 28q15 0 28.5 -12.5t35 -38t38.5 -41.5q49 35 80 73q11 13 36 13t25 -22l-1 -7q-8 -20 -65 -71.5t-76 -51.5t-68.5 49t-60.5 81z" />
<glyph unicode="&#x192;" horiz-adv-x="577" d="M35 421q0 14 11.5 28.5t29.5 17.5h148l-2 93q0 93 40.5 124.5t109.5 31.5q109 0 140 -33q10 -10 10 -21.5t-5 -20.5q-11 -21 -35 -21q-9 0 -42 5.5t-52 5.5t-34 -3t-24.5 -7.5t-15.5 -14.5t-9.5 -18t-4.5 -24t-0.5 -27.5t1 -33.5t0.5 -36h159q28 -7 28 -29t-20 -38 q-9 -8 -20 -11h-148v-364l-1 -48l1 -96q0 -48 -6 -78t-24 -55q-33 -48 -144 -48q-65 0 -80 17q-8 9 -8 25.5t13 37t27 20.5t29 -3t29.5 -6t30 -3t28.5 11q27 26 27 155l-1 59l2 376h-151q-37 0 -37 32z" />
<glyph unicode="&#x2c6;" horiz-adv-x="325" d="M36 751.5q0 15.5 50.5 55.5t72.5 40t72 -36.5t50 -61.5q0 -15 -12.5 -24.5t-22 -9.5t-40 21.5t-49.5 42.5q-3 -3 -36.5 -34.5t-50 -31.5t-25.5 11.5t-9 27z" />
<glyph unicode="&#x2c7;" horiz-adv-x="391" d="M65 772q3 27 29 27q14 0 28 -12t35 -38t39 -42q48 36 79 73q11 13 36 13t25 -21l-1 -8q-8 -20 -64.5 -71.5t-72.5 -51.5t-44.5 23.5t-55 55t-33.5 52.5z" />
<glyph unicode="&#x2d8;" horiz-adv-x="300" d="M23 569q0 16 10.5 27.5t25 11.5t22 -7.5t13 -18.5l11.5 -23q15 -26 46.5 -26t47.5 25q7 10 13 21q15 25 31 25t25 -10t9 -26q0 -43 -39.5 -71.5t-86 -28.5t-87.5 26.5t-41 74.5z" />
<glyph unicode="&#x2d9;" horiz-adv-x="140" d="M31 580q4 18 11.5 26t28.5 13q15 0 26.5 -12.5t11.5 -27.5t-13 -29t-25 -14q-35 0 -40 44z" />
<glyph unicode="&#x2da;" horiz-adv-x="202" d="M20 575.5q0 32.5 27 55t63 22.5t55.5 -23t19.5 -65q-3 -29 -25.5 -51.5t-58 -22.5t-58.5 26t-23 58.5zM71 576q0 -14 7.5 -23t22.5 -9q36 0 36 34q0 14 -8 23.5t-21.5 9.5t-25 -10.5t-11.5 -24.5z" />
<glyph unicode="&#x2db;" horiz-adv-x="856" d="M95 -177.5q0 56.5 26.5 106t65.5 66.5q9 4 20.5 4t27 -16t15.5 -30t-12.5 -29t-27.5 -29t-27.5 -37t-12.5 -46q0 -36 57 -36q16 0 48.5 6t49.5 6q19 -6 31 -20.5t12 -29t-19 -24.5q-34 -18 -108.5 -18t-110 35t-35.5 91.5z" />
<glyph unicode="&#x2dc;" horiz-adv-x="469" d="M74 538q0 23 34 48t56.5 25t41.5 -9.5t41 -23t40 -19.5q12 0 36 24t34.5 24t21 -9t10.5 -20q0 -24 -38 -49.5t-64.5 -25.5t-47.5 11.5t-38 22.5t-31 11t-31 -21.5t-28 -21.5t-24 9.5t-13 23.5z" />
<glyph unicode="&#x2dd;" horiz-adv-x="307" d="M31 641q0 11 10 26q24 17 36 39.5t20 56.5q13 23 30 23t27 -10.5t10 -27.5q-15 -67 -53 -114q-22 -28 -45 -28q-35 0 -35 35zM157 636.5q0 13.5 11 28.5q24 16 36 39t20 57q9 21 32 21q31 0 36 -37q-28 -92 -65 -126q-17 -15 -34.5 -15t-26.5 9.5t-9 23z" />
<glyph unicode="&#x3a9;" horiz-adv-x="547" d="M43 57.5q0 19.5 9.5 33.5t26.5 16l78 -7q-5 37 -32.5 95t-32.5 70q-26 68 -26 161.5t44 162.5q22 35 63.5 55.5t95.5 20.5t94 -24t62 -63q43 -77 43 -169q0 -45 -19 -98t-38.5 -106t-19.5 -99q0 -7 11 -7t14.5 0.5t4.5 0.5l64 1q27 -9 27 -40t-9.5 -39.5t-15 -12 t-17 -4.5t-17.5 -1.5t-19 0t-16 0.5q-49 0 -71.5 14t-22.5 56.5t5.5 80t12 61t16.5 58t15.5 58.5t5.5 58t-5 65t-16.5 60t-33 47t-50 18t-51.5 -11q-40 -19 -56 -63t-16 -88t7 -80.5t34.5 -119.5t31.5 -104.5t4 -53t-18 -45.5t-58 -14q-34 0 -76 5q-13 1 -23 16.5t-10 35z " />
<glyph unicode="&#x3c0;" horiz-adv-x="616" d="M50 408q0 30 31 43q10 4 20 5q67 -13 120.5 -13t145 11.5t153.5 14.5q39 -12 39 -47q0 -15 -11 -28t-31 -17q-33 -2 -77 -6l-1 -319q-2 -24 -15.5 -37.5t-27.5 -13.5q-44 0 -49 47l1 311q-59 -8 -100 -10v-308q-1 -23 -14 -36t-30 -13t-31 12.5t-17 35.5v313 q-17 2 -73 12q-33 13 -33 43z" />
<glyph unicode="&#x2000;" horiz-adv-x="444" />
<glyph unicode="&#x2001;" horiz-adv-x="889" />
<glyph unicode="&#x2002;" horiz-adv-x="444" />
<glyph unicode="&#x2003;" horiz-adv-x="889" />
<glyph unicode="&#x2004;" horiz-adv-x="296" />
<glyph unicode="&#x2005;" horiz-adv-x="222" />
<glyph unicode="&#x2006;" horiz-adv-x="148" />
<glyph unicode="&#x2007;" horiz-adv-x="148" />
<glyph unicode="&#x2008;" horiz-adv-x="111" />
<glyph unicode="&#x2009;" horiz-adv-x="177" />
<glyph unicode="&#x200a;" horiz-adv-x="49" />
<glyph unicode="&#x2010;" d="M36 232.5q0 36.5 49 43.5h246q37 -11 37 -37q0 -31 -45 -43h-255q-32 0 -32 36.5z" />
<glyph unicode="&#x2011;" d="M36 232.5q0 36.5 49 43.5h246q37 -11 37 -37q0 -31 -45 -43h-255q-32 0 -32 36.5z" />
<glyph unicode="&#x2012;" d="M36 232.5q0 36.5 49 43.5h246q37 -11 37 -37q0 -31 -45 -43h-255q-32 0 -32 36.5z" />
<glyph unicode="&#x2013;" horiz-adv-x="420" d="M36 340q0 34 49 43h263q37 -11 37 -39q0 -22 -17 -30q-9 -4 -24 -7h-271q-18 0 -27.5 9.5t-9.5 23.5z" />
<glyph unicode="&#x2014;" horiz-adv-x="648" d="M36 340q0 34 49 43h491q37 -11 37 -39q0 -22 -17 -30q-9 -4 -24 -7h-499q-18 0 -27.5 9.5t-9.5 23.5z" />
<glyph unicode="&#x2018;" horiz-adv-x="190" d="M40 731q11 29 33 29q13 0 22.5 -8.5t12.5 -23.5q0 -35 6 -60t25 -45q4 -11 4 -20.5t-4 -17.5q-8 -17 -29 -17t-35.5 18.5t-24.5 59t-10 85.5z" />
<glyph unicode="&#x2019;" horiz-adv-x="220" d="M44 602q0 10 4 21q19 20 25 45t6 60q3 15 12.5 23.5t21.5 8.5q23 0 35 -29q0 -45 -11 -86q-20 -77 -60 -77q-33 0 -33 34z" />
<glyph unicode="&#x201a;" horiz-adv-x="208" d="M46 -53q0 10 3 21q19 21 25 45.5t6 59.5q6 31 33 31t36 -28q0 -67 -21 -119q-7 -19 -20 -32t-29 -13q-33 0 -33 35z" />
<glyph unicode="&#x201c;" horiz-adv-x="315" d="M59 733q9 30 34 30q12 0 22 -8t12 -23q0 -36 6 -60.5t24 -46.5q4 -11 4 -23t-8 -21.5t-24.5 -9.5t-28.5 13q-22 21 -31.5 67t-9.5 82zM179 733q9 30 33 30q13 0 23 -8t12 -23q0 -36 6 -60.5t24 -46.5q4 -11 4 -23t-8 -21.5t-26 -9.5t-33 18.5t-25 59t-10 84.5z" />
<glyph unicode="&#x201d;" horiz-adv-x="303" d="M52 617q0 9 3 20q19 21 24.5 45.5t5.5 61.5q3 15 13 23t22 8q24 0 35 -30q0 -43 -11 -84q-20 -78 -60 -78q-32 0 -32 34zM172 614q0 12 3 23q19 21 24.5 45.5t5.5 61.5q4 20 20 28q7 3 15 3q24 0 35 -30q0 -43 -11 -84q-20 -78 -60 -78q-16 0 -24 9.5t-8 21.5z" />
<glyph unicode="&#x201e;" horiz-adv-x="298" d="M32 -53q0 10 4 21q19 21 25 45.5t6 59.5q5 31 31.5 31t37.5 -28q0 -66 -22 -119q-7 -19 -20 -32t-29 -13q-33 0 -33 35zM152 -53q0 10 4 21q19 21 25 45.5t6 59.5q5 31 31.5 31t37.5 -28q0 -66 -22 -119q-7 -19 -20 -32t-29 -13q-33 0 -33 35z" />
<glyph unicode="&#x2020;" horiz-adv-x="397" d="M34 494q0 17 13 32.5t32 18.5h81v128q4 17 18.5 29.5t29.5 12.5q23 0 28 -30v-141h100q29 -7 29 -29q0 -15 -12 -29.5t-29 -18.5h-88v-423q-3 -19 -18.5 -32t-31.5 -13q-26 0 -26 33v436h-93q-33 0 -33 26z" />
<glyph unicode="&#x2021;" horiz-adv-x="411" d="M35 176.5q0 10.5 6 21.5q14 26 39 30h81v240h-93q-33 0 -33 28q0 14 13.5 30t31.5 19h81v128q4 17 19 29.5t29 12.5q21 0 30 -30v-141h98q30 -7 30 -29q0 -15 -12.5 -30t-29.5 -18h-86v-240h98q30 -9 30 -30q0 -14 -12.5 -29t-29.5 -19h-86v-105q-3 -18 -19.5 -31.5 t-32.5 -13.5q-26 0 -26 33v119h-93q-17 0 -25 7.5t-8 18z" />
<glyph unicode="&#x2022;" horiz-adv-x="352" d="M100 251q0 36 25 54t56 18h11q24 -3 44 -29t20 -41q0 -38 -22.5 -63.5t-56 -25.5t-55.5 25.5t-22 61.5z" />
<glyph unicode="&#x2026;" horiz-adv-x="571" d="M55 46q0 23 14.5 48.5t42.5 25.5q14 0 31.5 -14.5t20.5 -45.5q0 -22 -16 -40.5t-36.5 -18.5t-38.5 11t-18 34zM208 46q0 23 14 48.5t39 25.5t39.5 -19.5t16.5 -40.5q0 -22 -16 -40.5t-36.5 -18.5t-38.5 11t-18 34zM364 46q0 23 14 48.5t42 25.5q15 0 32.5 -14.5 t20.5 -45.5q0 -22 -16 -40.5t-36.5 -18.5t-38.5 11t-18 34z" />
<glyph unicode="&#x202f;" horiz-adv-x="177" />
<glyph unicode="&#x2030;" horiz-adv-x="958" d="M43 477q0 57 24 95t59.5 56.5t83.5 18.5t85 -28.5t37 -89.5t-51.5 -121t-117.5 -60q-46 0 -83 36t-37 93zM97 42.5q0 9.5 7 23.5q11 22 62 84t121.5 179t100.5 163.5t50.5 83t37 55t35.5 18.5q34 0 33 -27q0 -12 -24 -56.5t-70.5 -112t-130 -198.5t-128.5 -207 q-25 -41 -51 -41t-38 18q-5 8 -5 17.5zM116 487q0 -39 11 -50.5t41 -11.5t59.5 25t29.5 65q0 73 -45 73q-47 0 -71.5 -31t-24.5 -70zM324 131.5q0 63.5 51 110.5t107 47t90.5 -40.5t34.5 -101.5t-45.5 -100.5t-105.5 -39.5t-96 30.5t-36 94zM398 141q0 -65 62 -65 q27 0 54 25t27 50q0 44 -23 62q-11 8 -26 8q-34 0 -64 -21.5t-30 -58.5zM637 131.5q0 63.5 51.5 110.5t107.5 47t90 -40.5t34 -101.5t-45 -100.5t-105 -39.5t-96.5 30.5t-36.5 94zM712 134.5q0 -30.5 17 -44.5t44 -14t55 25t28 47t-7 39q-13 34 -44 34q-49 0 -77 -36 q-16 -20 -16 -50.5z" />
<glyph unicode="&#x2039;" horiz-adv-x="304" d="M55 242q0 21 9.5 39.5t25 34.5t31.5 30t34.5 30.5t25.5 25.5t23.5 17t28.5 8q26 0 26 -33q0 -30 -90 -108q-35 -30 -42 -39q5 -5 19 -17.5t24 -20.5q63 -58 63 -89q0 -18 -9 -27.5t-19.5 -9.5t-30.5 14t-31.5 30.5t-37.5 39.5t-38 38.5t-12 36.5z" />
<glyph unicode="&#x203a;" horiz-adv-x="300" d="M60 385q0 11 11 19t24.5 8t25.5 -11q33 -33 81 -90.5t48 -74.5t-8 -33.5t-19 -29.5t-21 -22.5t-20.5 -19t-13 -12t-14 -16.5t-16.5 -19q-26 -17 -29 -17h-4q-38 0 -38 31q0 19 22.5 42.5t50.5 48t36 39.5q-38 40 -77 88.5t-39 68.5z" />
<glyph unicode="&#x2044;" horiz-adv-x="612" d="M49 12q0 12 6 23q84 115 236 345t226 333q18 18 35 18q34 0 34 -25q0 -11 -10 -27q-75 -106 -229 -336t-235 -343q-15 -13 -31 -13q-32 0 -32 25z" />
<glyph unicode="&#x205f;" horiz-adv-x="222" />
<glyph unicode="&#x20ac;" horiz-adv-x="481" d="M19 288.5q0 12.5 10 22.5t27 12h15q0 33 2 56h-20q-14 0 -24 10.5t-10 23.5q0 30 37 35h29q2 2 9.5 18.5t14.5 31t22 40t28 39.5q78 87 202 87t124 -60q0 -27 -34 -27q-11 0 -47 14t-60 14q-42 0 -92.5 -42.5t-83.5 -119.5q19 -3 85.5 -3t77.5 -0.5t25 -4.5q28 -6 28 -32 t-29 -31q-138 0 -210 4q-3 -27 -3 -30.5t2 -22.5h208q28 -11 28 -35q0 -13 -7.5 -22.5t-23.5 -12.5h-192q30 -70 76.5 -121.5t91.5 -51.5q20 0 51.5 14t43.5 14t20 -4q17 -10 17 -32q0 -28 -45 -44t-88.5 -16t-84 24t-69.5 62q-59 75 -85 155h-30q-17 3 -26.5 13t-9.5 22.5z " />
<glyph unicode="&#x2122;" horiz-adv-x="476" d="M24 679q0 30 86 30t89 -24q0 -11 -9.5 -19t-25.5 -11h-25l4 -126q-3 -15 -12.5 -24t-18.5 -9q-27 0 -27 27l3 107v23h-36q-15 0 -21.5 8.5t-6.5 17.5zM237 598.5q0 14.5 0.5 27t2.5 25.5q5 58 33 58q15 0 26 -11t25.5 -35.5t16.5 -27.5q2 3 11 18q13 21 28 38.5t35 17.5 q15 0 25 -33l-3 -152q0 -14 -9.5 -21t-20 -7t-16.5 6.5t-7.5 19t-2 23t0.5 26.5t1 21q-25 -35 -44.5 -35t-45.5 35l2 -63q-4 -36 -30 -36q-9 0 -17.5 10t-8.5 21t-0.5 24t-1 24.5t-0.5 26z" />
<glyph unicode="&#x2211;" horiz-adv-x="572" d="M61 24q0 8 4 19q101 171 182 301q-32 44 -89 130.5t-86 126.5q-4 9 -4 22.5t13.5 27t33.5 16.5l361 4q30 -7 30 -29t-21 -38q-9 -8 -21 -11q-187 0 -280 -4q98 -148 140 -204q12 -20 12 -41t-4 -28q-31 -53 -75.5 -119.5t-76.5 -123.5l276 6q29 -7 29 -29 q0 -14 -12.5 -29t-29.5 -20l-347 -6q-35 0 -35 29z" />
<glyph unicode="&#x221a;" horiz-adv-x="553" d="M47 245q0 12 6 22.5t23 19t43 8.5q48 0 66.5 -21t38.5 -102l63 241q50 196 89 238q15 16 46 16h19q71 0 71 -36q0 -12 -8 -21.5t-23 -13.5q-24 3 -53 3q-25 -40 -42 -88.5t-50 -195.5t-79 -292q-9 -25 -31 -25t-41 47.5t-28 100t-13 78.5l-12 2l-50 -6q-15 0 -29 7 q-6 6 -6 18z" />
<glyph unicode="&#x221e;" horiz-adv-x="975" d="M80 203.5q0 79.5 61 144.5t140 65q49 0 90 -33.5t96 -95.5q59 99 109.5 139t115.5 49q156 -11 196 -117q16 -42 16 -96t-13.5 -98t-39 -79.5t-68.5 -56.5t-101.5 -21t-109.5 37t-108 108q-59 -92 -105 -124t-100 -32q-74 0 -126.5 65.5t-52.5 145zM155 208.5 q0 -47.5 36 -90.5q37 -44 88 -44t82 40t59 94q-96 129 -156 129q-48 0 -78.5 -40.5t-30.5 -88zM516 224q3 -3 18 -22t21 -25.5t21 -23t23 -24.5q36 -29 60.5 -39.5t52.5 -10.5h8q50 8 81.5 56t31.5 107t-35.5 102t-105.5 48q-64 -9 -95 -43t-52 -72.5t-29 -52.5z" />
<glyph unicode="&#x222b;" horiz-adv-x="560" d="M52 -235.5q0 27.5 14.5 45.5t29.5 18t28.5 -9t28 -18t27.5 -9t24.5 11t15.5 30q1 166 2.5 426.5t3.5 314t12 86.5l1 1q18 59 99 59q39 0 78.5 -22.5t56.5 -61.5q4 -11 4 -23t-12 -27t-26 -15t-26 12q-17 28 -37.5 46t-37.5 18q-39 0 -39 -87l-6 -784q0 -37 -36 -56 t-86.5 -19t-84.5 18t-34 45.5z" />
<glyph unicode="&#x2248;" horiz-adv-x="571" d="M95 192.5q0 19.5 22.5 42t52 34t54.5 11.5q48 0 79 -33q33 -34 57 -34q39 0 60.5 31t49.5 31t28 -21q0 -29 -47 -64q-16 -12 -44.5 -25t-53.5 -13t-45.5 15t-40.5 29.5t-44.5 14.5t-43.5 -21q-7 -8 -18.5 -23t-27.5 -15t-27 10.5t-11 30zM98 348q0 45 32 67.5t67 22.5 q68 0 152 -55q7 -5 22 -5t30 13t28.5 26.5t25.5 13.5q36 0 36 -34.5t-41 -57t-69 -22.5q-48 0 -94 30.5t-72.5 30.5t-47.5 -30q-11 -26 -39 -26q-12 0 -21 7t-9 19z" />
<glyph unicode="&#x2260;" horiz-adv-x="607" d="M109 233.5q0 29.5 33 36.5q22 4 43 4l42 -2q6 14 50 96l-137 4q-24 0 -24 24q0 13 8.5 26t20.5 15l171 -4q5 10 13 28q16 36 28.5 57.5t27 21.5t23 -9.5t8.5 -25.5v-5l-25 -67l64 4q19 -4 19 -20.5t-7 -26t-16 -14t-24 -7t-25 -2.5t-25 0.5t-18 0.5q-1 -1 -52 -96h145 q22 -1 22 -25q0 -13 -7.5 -25t-18.5 -14q-125 0 -176 -3q-2 -7 -9 -24q-10 -29 -22 -51t-28 -22t-25.5 9t-9.5 26t18 61h-64q-23 0 -23 29.5z" />
<glyph unicode="&#x2264;" horiz-adv-x="396" d="M22 -89q0 17 13 32.5t32 19.5l258 -3q30 -5 30 -28q0 -15 -12.5 -29.5t-29.5 -18.5l-258 1q-33 0 -33 26zM26 236q0 18 17 29q143 119 256 192q9 5 22 5t23.5 -11t10.5 -25.5t-8 -24.5q-44 -33 -123.5 -90.5t-104.5 -75.5q34 -25 112 -77t118 -85q8 -12 8 -24t-13 -23.5 t-26 -11.5t-18 3q-42 33 -129 93t-130 95q-15 13 -15 31z" />
<glyph unicode="&#x2265;" horiz-adv-x="412" d="M42 434q0 28 26 28q10 0 21 -5q42 -35 133 -96t133 -96q19 -17 19 -31t-10 -25q-42 -34 -131.5 -96t-131.5 -96q-5 -3 -19 -3t-26.5 12t-12.5 26.5t6 23.5q33 24 114.5 79.5t123.5 88.5q-35 25 -113.5 78t-118.5 82q-13 17 -13 30zM47 -70q0 16 12 29.5t30 16.5l264 1 q30 -5 30 -29q0 -14 -12.5 -28.5t-29.5 -19.5l-258 3q-36 0 -36 27z" />
<glyph unicode="&#x25ca;" horiz-adv-x="451" d="M49 215.5q0 7.5 4 19.5q31 65 69 125q73 112 102 112q15 0 66 -64.5t114 -166.5q3 -12 3 -21t-6 -21q-69 -107 -92 -134t-44 -46q-17 -21 -32 -21q-45 0 -180 201q-4 9 -4 16.5zM124 216q18 -26 53 -68.5t55 -75.5l99 151q-7 11 -40.5 69.5t-66.5 98.5 q-22 -30 -55.5 -94.5t-44.5 -80.5z" />
</font>
</defs>
</svg>
