<?xml version="1.0" standalone="no"?>
<!DOCTYPE svg PUBLIC "-//W3C//DTD SVG 1.1//EN" "http://www.w3.org/Graphics/SVG/1.1/DTD/svg11.dtd" >
<svg xmlns="http://www.w3.org/2000/svg">
<metadata></metadata>
<defs>
<font id="happy_monkeyregular" horiz-adv-x="1422" >
<font-face units-per-em="2048" ascent="1638" descent="-410" />
<missing-glyph horiz-adv-x="512" />
<glyph horiz-adv-x="0" />
<glyph unicode="&#xd;" horiz-adv-x="708" />
<glyph horiz-adv-x="0" />
<glyph horiz-adv-x="0" />
<glyph unicode=" "  horiz-adv-x="512" />
<glyph unicode="&#x09;" horiz-adv-x="512" />
<glyph unicode="&#xa0;" horiz-adv-x="512" />
<glyph unicode="!" horiz-adv-x="534" d="M128 106v60q0 47 39.5 74.5t104.5 27.5q58 0 98.5 -26.5t40.5 -75.5v-60q0 -49 -42.5 -77.5t-98.5 -28.5q-65 0 -103.5 28.5t-38.5 77.5zM189 569v969q0 57 81 57q33 0 55 -15t22 -42v-969q0 -28 -23 -44t-56 -16q-79 1 -79 60z" />
<glyph unicode="&#x22;" horiz-adv-x="892" d="M100 1361q0 49 31 89.5t97 40.5q126 0 126 -172q0 -104 -44 -214.5t-82 -110.5q-28 0 -34.5 37.5t-10.5 99.5t-25 98q-6 13 -20 32t-21 30.5t-12 30.5t-5 39zM526 1361q0 49 31 89.5t97 40.5q126 0 126 -172q0 -104 -43.5 -214.5t-82.5 -110.5q-28 0 -34 37.5t-10.5 99.5 t-26.5 98q-6 13 -20 32t-20 30.5t-11.5 30.5t-5.5 39z" />
<glyph unicode="#" horiz-adv-x="1514" d="M75 460q0 32 14.5 54.5t42.5 22.5h217l111 332h-157q-58 0 -58 81q0 32 15 54t43 22h209l142 433q8 39 64 39q34 0 60.5 -19.5t26.5 -47.5q0 -17 -6 -36l-122 -369h345l143 433q8 39 64 39q35 0 61.5 -19.5t26.5 -47.5q0 -17 -7 -36l-121 -369h189q28 0 43.5 -23 t15.5 -56q0 -79 -59 -78h-240l-112 -332h181q29 0 45 -23.5t16 -55.5q0 -79 -61 -78h-231l-112 -339q-12 -41 -67 -41q-33 0 -55 21.5t-22 55.5q0 28 8 55l81 248h-345l-110 -339q-13 -41 -69 -41q-32 0 -54 21.5t-22 55.5q0 28 8 55l81 248h-166q-57 -1 -57 80zM516 537 h344l111 332h-345z" />
<glyph unicode="$" horiz-adv-x="1311" d="M83 356q0 32 24.5 66t56.5 34q11 0 15 -5q61 -63 179.5 -122t237.5 -77v449q-85 2 -143.5 8.5t-127.5 25.5t-110.5 53.5t-70.5 96.5t-29 148q0 166 139.5 261.5t341.5 109.5v142q0 58 81 58q32 0 54.5 -15t22.5 -43v-146q142 -15 259 -69.5t178 -139.5q2 -4 2 -11 q0 -26 -35.5 -52.5t-62.5 -26.5q-4 0 -26 11q-138 113 -315 132v-407q104 -2 176 -15t145 -48t111.5 -107.5t38.5 -182.5q0 -373 -471 -397v-148q0 -28 -23.5 -44.5t-55.5 -16.5q-79 0 -79 61v153q-317 36 -498 223q-15 15 -15 41zM270 1022q0 -55 24.5 -92.5t73.5 -55.5 t100.5 -25.5t127.5 -9.5v409q-136 -10 -231 -66t-95 -160zM754 245q313 19 313 251q0 57 -23.5 96.5t-70 60t-96.5 29.5t-123 13v-450z" />
<glyph unicode="%" horiz-adv-x="2002" d="M79 935q0 160 114 250.5t258 90.5q128 0 236 -96t108 -245q0 -138 -96 -237.5t-252 -99.5q-151 0 -259.5 99.5t-108.5 237.5zM236 932.5q0 -63.5 65 -120t144 -56.5q75 0 133 56.5t58 122.5q0 63 -55 123t-136 60q-93 0 -151 -61t-58 -124.5zM656 81q0 19 35 79l525 1084 q10 19 42 19q41 0 69 -24.5t28 -56.5q0 -28 -18 -58l-540 -1105q-11 -21 -49 -21q-32 0 -62 25.5t-30 57.5zM1212 296q0 161 113.5 250.5t259.5 89.5q128 0 235 -95.5t107 -244.5q0 -138 -95.5 -237.5t-250.5 -99.5q-151 0 -260 99.5t-109 237.5zM1370 294q0 -64 65 -120 t144 -56q75 0 133 56t58 122q0 64 -55.5 123.5t-135.5 59.5q-94 0 -151.5 -60.5t-57.5 -124.5z" />
<glyph unicode="&#x26;" horiz-adv-x="1205" d="M94 422q0 141 72 230.5t200 162.5l-6 10q-141 162 -141 353q0 141 107 227t247 86q143 0 248.5 -89.5t105.5 -245.5q0 -142 -80.5 -231.5t-222.5 -166.5l268 -313l79 130q9 8 25 8q37 0 63.5 -34.5t26.5 -62.5q0 -17 -9 -28l-85 -128l167 -192q12 -14 12 -34 q0 -26 -31.5 -55.5t-64.5 -29.5q-24 0 -36 15l-147 171q-174 -189 -388 -190q-176 0 -293 96t-117 311zM252 411q0 -124 76.5 -181t189.5 -57q158 0 281 142l-317 368q-111 -59 -170.5 -121t-59.5 -151zM372 1156q0 -104 97 -217l40 -49q63 32 101 54.5t79 56.5t60.5 73.5 t19.5 88.5q0 81 -56.5 126.5t-135.5 45.5q-81 0 -143 -47.5t-62 -131.5z" />
<glyph unicode="'" horiz-adv-x="465" d="M100 1361q0 49 31 89.5t97 40.5q126 0 126 -172q0 -104 -44 -214.5t-82 -110.5q-28 0 -34.5 37.5t-10.5 99.5t-25 98q-6 13 -20 32t-21 30.5t-12 30.5t-5 39z" />
<glyph unicode="(" horiz-adv-x="894" d="M87 648q0 245 70.5 454.5t222.5 349t359 139.5q26 0 42 -3t31 -21t15 -50.5t-17.5 -57t-45.5 -24.5q-164 0 -285 -111.5t-179 -289.5t-58 -395q0 -163 35.5 -297.5t91 -221t126 -146t138.5 -85t131 -25.5q26 0 45.5 -25.5t19.5 -57.5q0 -73 -90 -73q-191 0 -344 137.5 t-230.5 351t-77.5 451.5z" />
<glyph unicode=")" horiz-adv-x="894" d="M66 -219q0 32 19 57.5t45 25.5q63 0 131.5 25.5t139 85t125.5 146t90.5 221.5t35.5 297q0 217 -57.5 395t-179 289.5t-285.5 111.5q-28 0 -44.5 24.5t-16.5 56.5q0 47 23 61t64 14q207 0 359 -139.5t222 -349.5t70 -454q0 -238 -77.5 -451.5t-230 -351t-343.5 -137.5 q-90 0 -90 73z" />
<glyph unicode="*" horiz-adv-x="927" d="M128 854q0 24 14 34l184 124l-181 124q-15 14 -15 35q0 32 27.5 62t59.5 30q13 0 39 -17l130 -87v166q0 28 23.5 43.5t54.5 15.5q79 0 79 -59v-166l130 87q14 14 36 14q33 0 62.5 -27.5t29.5 -59.5q0 -28 -17 -37l-181 -124l183 -124q15 -14 15 -36q0 -30 -31 -61 t-63 -31q-19 0 -34 15l-130 87v-165q0 -57 -81 -58q-32 0 -54 15t-22 43v165l-130 -87q-21 -15 -37 -15q-30 0 -60.5 31t-30.5 63z" />
<glyph unicode="+" horiz-adv-x="934" d="M96 567q0 32 15 54t42 22h237v235q0 28 23.5 43.5t55.5 15.5q79 0 78 -59v-235h235q28 0 43.5 -23.5t15.5 -54.5q0 -79 -59 -79h-235v-236q0 -58 -80 -59q-32 0 -54.5 15.5t-22.5 43.5v236h-237q-57 0 -57 81z" />
<glyph unicode="," horiz-adv-x="538" d="M124 145q0 55 41.5 89t106.5 34q139 0 139 -162q0 -91 -80.5 -206t-121.5 -115q-38 0 -38 26q0 10 18 71t18 88.5t-16 35.5q-67 47 -67 139z" />
<glyph unicode="-" horiz-adv-x="1000" d="M128 567q0 32 15 54t42 22h628q28 0 44.5 -23.5t16.5 -54.5q0 -79 -61 -79h-628q-57 0 -57 81z" />
<glyph unicode="." horiz-adv-x="538" d="M128 106v60q0 47 39.5 74.5t104.5 27.5q58 0 98.5 -26.5t40.5 -75.5v-60q0 -49 -42.5 -77.5t-98.5 -28.5q-65 0 -103.5 28.5t-38.5 77.5z" />
<glyph unicode="/" horiz-adv-x="1588" d="M63 -181q0 36 35 79l1290 1591q17 19 43 19q34 0 64 -25.5t30 -51.5q0 -24 -23 -53l-1306 -1612q-19 -21 -49 -22q-33 0 -58.5 21.5t-25.5 53.5z" />
<glyph unicode="0" horiz-adv-x="1250" d="M115 742q0 341 137.5 550.5t377.5 209.5q243 0 374.5 -215.5t131.5 -538.5q0 -356 -128 -556t-378 -202q-240 0 -377.5 204t-137.5 548zM272 739q0 -260 89.5 -426t268.5 -166q177 0 262.5 166t85.5 431q0 162 -33 291.5t-114 219t-201 89.5q-121 0 -204 -89.5 t-118.5 -221t-35.5 -294.5z" />
<glyph unicode="1" horiz-adv-x="972" d="M66 1041q0 24 15 39l428 383q28 28 58 28q68 0 67 -115v-1218h228q28 0 44 -24t16 -55q0 -79 -60 -79h-614q-58 0 -59 81q0 32 15 54.5t44 22.5h229v1052l-284 -243q-14 -14 -35 -15q-32 0 -62 27.5t-30 61.5z" />
<glyph unicode="2" horiz-adv-x="1168" d="M100 57q0 108 58.5 210.5t146 175.5t189.5 151.5t189.5 143.5t146 150t58.5 171q0 123 -116 198.5t-233 75.5q-83 0 -168.5 -37.5t-85.5 -104.5q0 -30 -25.5 -49.5t-58.5 -19.5t-55 18.5t-22 52.5q2 136 135 217t269 81q88 0 175 -28t164.5 -81t127 -141.5t49.5 -196.5 q0 -113 -65 -214.5t-165.5 -182t-204 -154.5t-199 -162.5t-133.5 -172.5h729q28 0 43.5 -24t15.5 -55q0 -79 -59 -79h-808q-98 0 -98 57z" />
<glyph unicode="3" horiz-adv-x="1151" d="M120 301q0 34 22 51.5t54 17.5q34 0 59.5 -19t25.5 -48q0 -69 85 -106t169 -37q174 0 263.5 84t89.5 207q0 84 -37.5 143.5t-96.5 89t-118 41.5t-120 12q-55 0 -84.5 25.5t-29.5 62.5q0 40 31 72t81 32q128 0 205.5 55t77.5 164q0 92 -83.5 138.5t-178.5 46.5 q-84 0 -169 -37.5t-85 -104.5q0 -30 -25.5 -49.5t-59.5 -19.5q-33 0 -54.5 18.5t-21.5 52.5q2 136 135 217t269 81q171 0 301 -96t130 -259q0 -96 -63 -185t-134 -112q118 -28 202 -133t84 -275q0 -209 -150 -319t-370 -110q-136 0 -269 81t-135 218z" />
<glyph unicode="4" horiz-adv-x="1142" d="M53 492q0 45 26 66l690 905q28 28 58 28q68 0 67 -115v-807h100q28 0 44.5 -23.5t16.5 -55.5q0 -79 -61 -79h-100v-352q0 -28 -23 -43.5t-56 -15.5q-79 0 -78 59v352h-627q-57 0 -57 81zM285 569h452v592z" />
<glyph unicode="5" horiz-adv-x="1187" d="M130 931v502q0 57 98 58h701q59 0 59 -79q0 -32 -15.5 -55.5t-43.5 -23.5h-642v-398q134 75 316 75q213 0 359 -155.5t146 -354.5q0 -195 -146.5 -347.5t-360.5 -152.5q-85 0 -184.5 30.5t-181.5 102.5t-82 165q0 35 22.5 52.5t54.5 17.5q34 0 59.5 -19t25.5 -48 q0 -69 103.5 -106t193.5 -37q144 0 249.5 105t105.5 237q0 134 -107.5 243t-250.5 109q-91 0 -165 -28.5t-118.5 -57.5t-67.5 -29q-55 0 -91.5 48t-36.5 146z" />
<glyph unicode="6" horiz-adv-x="1203" d="M118 697q0 417 132 609t406 192q158 0 269.5 -78t113.5 -221q0 -34 -22.5 -52.5t-53.5 -18.5q-34 0 -59.5 19.5t-25.5 49.5q0 73 -67 108t-165 35q-90 0 -159.5 -41t-108.5 -103t-63.5 -147.5t-33.5 -163.5t-9 -161q0 -30 -1 -76.5t-1 -64.5q158 335 463 335 q156 0 266.5 -98t110.5 -259q0 -218 -140.5 -394.5t-362.5 -176.5q-234 0 -361.5 195t-127.5 512zM356 360q0 -94 60.5 -153.5t175.5 -59.5q138 0 249 107.5t111 303.5q0 82 -53 142t-153 60q-156 0 -273 -130t-117 -270z" />
<glyph unicode="7" horiz-adv-x="1055" d="M57 1414q0 33 15 55t43 22h794q106 0 107 -54q0 -18 -14 -59l-484 -1319q-21 -59 -79 -59q-32 0 -55.5 22.5t-23.5 54.5q0 17 6 31l449 1225h-700q-58 0 -58 81z" />
<glyph unicode="8" horiz-adv-x="1232" d="M106 431q0 227 286 408q-100 86 -148 158t-48 153q0 141 113 242t308.5 101t307.5 -101t112 -242q0 -148 -196 -311q285 -181 285 -408q0 -173 -141.5 -303t-370.5 -130q-226 0 -367 130t-141 303zM264 411q0 -106 110 -180.5t235 -74.5q137 0 248.5 74.5t111.5 180.5 q0 108 -126.5 215t-244.5 111q-96 -4 -215 -108.5t-119 -217.5zM354 1171q0 -63 68 -138.5t187 -105.5q118 32 194.5 108.5t76.5 135.5q0 73 -81 117.5t-181 44.5q-110 0 -187 -43.5t-77 -118.5z" />
<glyph unicode="9" horiz-adv-x="1205" d="M96 927q0 217 140 394t362 177q234 0 362.5 -195t128.5 -513q0 -417 -132 -608.5t-408 -191.5q-158 0 -269.5 77.5t-113.5 219.5q0 34 22.5 52.5t53.5 18.5q35 0 60.5 -19.5t25.5 -48.5q0 -73 67 -108t166 -35q89 0 158 40.5t108.5 103.5t64 148t33 162.5t8.5 160.5 q0 30 1 77t1 64q-158 -335 -462 -334q-156 0 -266.5 97.5t-110.5 260.5zM254 929q0 -81 53 -142t153 -61q156 0 273 130t117 270q0 94 -61 154t-175 60q-139 0 -249.5 -108t-110.5 -303z" />
<glyph unicode=":" horiz-adv-x="538" d="M128 106v60q0 47 39.5 74.5t104.5 27.5q58 0 98.5 -26.5t40.5 -75.5v-60q0 -49 -42.5 -77.5t-98.5 -28.5q-65 0 -103.5 28.5t-38.5 77.5zM128 746v59q0 47 39.5 74.5t104.5 27.5q58 0 98.5 -26.5t40.5 -75.5v-59q0 -49 -42.5 -78t-98.5 -29q-65 0 -103.5 29t-38.5 78z " />
<glyph unicode=";" horiz-adv-x="544" d="M128 145q0 55 41.5 89t107.5 34q138 0 138 -162q0 -91 -80.5 -206t-121.5 -115q-38 0 -38 26q0 10 18 71t18 88.5t-15 35.5q-68 47 -68 139zM132 746v59q0 47 39.5 74.5t105.5 27.5q57 0 97.5 -26.5t40.5 -75.5v-59q0 -49 -42.5 -78t-97.5 -29q-66 0 -104.5 29t-38.5 78z " />
<glyph unicode="&#x3c;" horiz-adv-x="1426" d="M89 645.5q0 23.5 21.5 53t53.5 45.5l1018 291q13 4 21 4q33 0 56 -31.5t23 -64.5q0 -34 -32 -51l-905 -246l905 -246q32 -16 32 -51q0 -32 -23 -63.5t-56 -31.5q-8 0 -21 4l-1018 287q-34 17 -54.5 47t-20.5 53.5z" />
<glyph unicode="=" horiz-adv-x="1375" d="M145 567q0 32 15 54t43 22h968q28 0 44 -23.5t16 -54.5q0 -79 -60 -79h-968q-58 0 -58 81zM145 988q0 32 15 54.5t43 22.5h968q28 0 44 -23.5t16 -55.5q0 -79 -60 -79h-968q-58 0 -58 81z" />
<glyph unicode="&#x3e;" horiz-adv-x="1426" d="M145 349q0 35 32 51l905 246l-905 246q-32 17 -32 51q0 33 23 64.5t56 31.5q8 0 21 -4l1018 -291q32 -15 53 -45t21 -53.5t-20 -53t-54 -47.5l-1018 -287q-12 -4 -21 -4q-33 0 -56 31.5t-23 63.5z" />
<glyph unicode="?" horiz-adv-x="1096" d="M77 1193q2 136 135 217t270 81q87 0 174.5 -28t165 -81t126 -141.5t48.5 -196.5q0 -126 -48.5 -223t-123 -147t-142.5 -75.5t-126 -27.5v-124q0 -59 -79 -59q-32 0 -58.5 15.5t-26.5 43.5v256q73 4 145 23.5t143.5 59t116 110.5t44.5 163q0 123 -116 198.5t-233 75.5 q-83 0 -168.5 -37.5t-85.5 -104.5q0 -30 -25.5 -49.5t-59.5 -19.5q-32 0 -54 18.5t-22 52.5zM341 106v60q0 47 39 74.5t106 27.5q57 0 97.5 -26.5t40.5 -75.5v-60q0 -49 -42.5 -77.5t-97.5 -28.5q-66 0 -104.5 28.5t-38.5 77.5z" />
<glyph unicode="@" horiz-adv-x="1699" d="M108 512q0 172 75 322t193 249t261 155.5t283 56.5q309 0 495.5 -174t186.5 -461q0 -176 -118 -337t-291 -161q-71 0 -71 62v164q-156 -240 -415 -241q-117 0 -204.5 79t-87.5 225q0 205 162 363.5t370 158.5q167 0 247 -99t80 -271v-271q79 40 126 139.5t47 203.5 q0 191 -127 327t-361 136q-277 0 -487 -187t-210 -445q0 -253 129 -393.5t344 -140.5q92 0 173.5 26t111.5 59q15 17 43 18q21 0 50 -25.5t29 -49.5q0 -59 -129 -119t-278 -60q-276 0 -451.5 192t-175.5 499zM573 451q0 -146 157 -146q118 0 253 140.5t135 229.5 q0 45 -22.5 76t-57 43.5t-60.5 17.5t-49 5q-145 0 -250.5 -106.5t-105.5 -259.5z" />
<glyph unicode="A" horiz-adv-x="1360" d="M77 79q0 8 4 21l145 384h-88q-57 0 -57 81q0 32 14.5 54t42.5 22h147l296 775q17 35 47 55t53.5 20t53 -21t45.5 -54l295 -775h139q28 0 44 -23.5t16 -54.5q0 -79 -60 -79h-76l146 -384q5 -13 5 -21q0 -32 -32 -55.5t-64 -23.5q-34 0 -51 32l-173 452h-573l-172 -452 q-17 -32 -51 -32q-33 0 -64.5 23.5t-31.5 55.5zM456 641h451l-226 595z" />
<glyph unicode="B" horiz-adv-x="1368" d="M156 59v1374q0 57 80 58q32 0 54.5 -15t22.5 -43v-112q153 172 388 172q158 0 270.5 -85t112.5 -237q0 -94 -50 -186.5t-156 -126.5q203 -32 310 -151t107 -256q0 -211 -136.5 -349t-425.5 -138q-249 0 -424 74q-19 -38 -75 -38q-78 0 -78 59zM313 193q134 -71 391 -71h7 q218 0 322.5 88t104.5 218q0 151 -130 226.5t-343 75.5q-66 0 -189.5 -3t-162.5 -3v-531zM313 896q85 -10 189 -10q201 0 313 82t112 193q0 91 -62 136t-164 45q-120 0 -224.5 -57.5t-163.5 -178.5v-210z" />
<glyph unicode="C" horiz-adv-x="1362" d="M96 756q0 326 235.5 542t554.5 216q191 0 356 -132q16 -14 16 -38q0 -35 -27.5 -63.5t-57.5 -28.5q-21 0 -35 16q-102 89 -256 89q-279 0 -452.5 -180.5t-173.5 -418.5q0 -245 170 -432.5t458 -187.5q187 0 305 134q24 24 40 24q33 0 62.5 -32t29.5 -61q0 -19 -16 -35 q-164 -187 -411 -187q-245 0 -430 112t-276.5 285t-91.5 378z" />
<glyph unicode="D" horiz-adv-x="1494" d="M156 59v1374q0 57 80 58q32 0 54.5 -15t22.5 -43v-17q151 98 296 98q320 0 555.5 -216t235.5 -542q0 -205 -92 -378t-277 -285t-430 -112q-164 0 -288 78q0 -28 -23.5 -43.5t-55.5 -15.5q-78 0 -78 59zM313 264q118 -126 299 -126q287 0 457.5 188t170.5 432 q0 238 -174 418.5t-452 180.5q-151 0 -301 -105v-988z" />
<glyph unicode="E" horiz-adv-x="1431" d="M156 108v1276q0 104 55 105h1094q28 0 44.5 -24t16.5 -55q0 -79 -61 -79h-992v-417h801q28 0 43.5 -23.5t15.5 -55.5q0 -79 -59 -79h-801v-598h992q28 0 44.5 -24t16.5 -55q0 -79 -61 -79h-1094q-36 0 -45.5 25.5t-9.5 82.5z" />
<glyph unicode="F" horiz-adv-x="1390" d="M156 59v1325q0 104 55 105h1094q28 0 44.5 -24t16.5 -55q0 -79 -61 -79h-992v-417h801q28 0 43.5 -23.5t15.5 -55.5q0 -79 -59 -79h-801v-697q0 -28 -24.5 -43.5t-56.5 -15.5q-76 0 -76 59z" />
<glyph unicode="G" horiz-adv-x="1431" d="M98 756q0 215 117 392t302.5 271.5t391.5 94.5q191 0 357 -132q16 -14 16 -38q0 -35 -27.5 -63.5t-57.5 -28.5q-21 0 -36 16q-102 89 -256 89q-281 0 -464 -181.5t-183 -417.5q0 -122 26.5 -227t85 -195.5t166 -144t252.5 -53.5q194 0 297.5 138.5t107.5 355.5h-429 q-57 0 -57 81q0 33 15 55t42 22h522q35 0 45.5 -24t10.5 -81q0 -317 -139.5 -510.5t-382.5 -193.5q-184 0 -326 63.5t-226.5 174.5t-127 246t-42.5 291z" />
<glyph unicode="H" horiz-adv-x="1528" d="M156 59v1374q0 57 80 58q32 0 54.5 -15t22.5 -43v-519h903v519q0 57 81 58q32 0 54.5 -15t22.5 -43v-1374q0 -28 -23.5 -43.5t-55.5 -15.5q-79 0 -79 59v697h-903v-697q0 -28 -23.5 -43.5t-55.5 -15.5q-78 0 -78 59z" />
<glyph unicode="I" horiz-adv-x="468" d="M156 59v1374q0 57 80 58q32 0 54.5 -15t22.5 -43v-1374q0 -28 -23.5 -43.5t-55.5 -15.5q-78 0 -78 59z" />
<glyph unicode="J" horiz-adv-x="1071" d="M28 292q0 35 22.5 52.5t53.5 17.5q34 0 59.5 -19.5t25.5 -48.5q0 -68 85.5 -105.5t168.5 -37.5q118 0 223 94t105 267v921q0 57 81 58q32 0 54.5 -15t22.5 -43v-907q0 -247 -155.5 -389.5t-340.5 -142.5q-137 0 -270 81t-135 217z" />
<glyph unicode="K" horiz-adv-x="1335" d="M156 59v1374q0 57 80 58q32 0 54.5 -15t22.5 -43v-705l767 744q18 18 42 19q32 0 61 -29t29 -60q0 -21 -15 -36l-556 -537l703 -721q8 -8 8 -29q0 -30 -31.5 -54.5t-66.5 -24.5q-21 0 -47 26l-683 690l-211 -204v-453q0 -28 -23.5 -43.5t-55.5 -15.5q-78 0 -78 59z" />
<glyph unicode="L" horiz-adv-x="1089" d="M156 59v1374q0 57 80 58q32 0 54.5 -15t22.5 -43v-1277h699q28 0 43.5 -24t15.5 -55q0 -77 -59 -77h-733q-123 0 -123 59z" />
<glyph unicode="M" horiz-adv-x="1648" d="M156 59v1374q0 28 33 46.5t73 18.5q45 0 59 -26l504 -744l504 744q15 26 53.5 26t74.5 -19.5t36 -45.5v-1374q0 -28 -23 -43.5t-56 -15.5q-79 0 -79 59v1144l-388 -562q-50 -74 -122 -74h-2q-69 0 -122 74l-388 562v-1144q0 -28 -23.5 -43.5t-55.5 -15.5q-78 0 -78 59z " />
<glyph unicode="N" horiz-adv-x="1528" d="M156 59v1374q0 57 63 58q47 0 92 -40l905 -797v779q0 57 81 58q32 0 54.5 -15t22.5 -43v-1374q0 -28 -23.5 -43.5t-55.5 -15.5q-79 0 -79 59v388l-903 795v-1183q0 -28 -23.5 -43.5t-55.5 -15.5q-78 0 -78 59z" />
<glyph unicode="O" d="M102 742q0 325 182.5 542.5t433.5 217.5t425 -222.5t174 -531.5q0 -341 -169.5 -548.5t-429.5 -209.5q-252 0 -434 211t-182 541zM260 739q0 -242 135 -417t323 -175q185 0 313 175.5t128 421.5q0 234 -129 417t-312 183q-188 0 -323 -185.5t-135 -419.5z" />
<glyph unicode="P" horiz-adv-x="1347" d="M156 57v1374q0 59 78 60q75 0 75 -91q219 93 424 93q290 0 426 -138.5t136 -348.5q0 -238 -185 -343t-539 -105q-43 0 -129 6.5t-129 6.5v-514q0 -28 -22.5 -42.5t-54.5 -14.5q-80 0 -80 57zM313 754q87 -28 352 -28q213 0 343 76t130 227q0 130 -104.5 218t-322.5 88 q-187 0 -398 -112v-469z" />
<glyph unicode="Q" horiz-adv-x="1439" d="M100 742q0 325 182 542.5t433.5 217.5t425.5 -222.5t174 -531.5q0 -301 -135.5 -500t-350.5 -246q17 -89 64.5 -137t110.5 -48q53 0 87.5 7.5t69 48t34.5 115.5q0 30 23.5 48.5t57.5 18.5q32 0 54 -18t22 -52q-2 -166 -100 -246t-248 -80q-139 0 -221 87.5t-108 245.5 q-238 18 -406.5 226t-168.5 524zM258 739q0 -242 135 -417t323 -175q185 0 312.5 175.5t127.5 421.5q0 234 -128.5 417t-311.5 183q-188 0 -323 -185.5t-135 -419.5z" />
<glyph unicode="R" horiz-adv-x="1441" d="M156 57v1374q0 59 78 60q75 0 75 -91q219 93 424 93q290 0 426 -138.5t136 -348.5q0 -299 -309 -397l356 -513q12 -24 13 -41q0 -26 -20 -40.5t-53 -14.5q-65 0 -104 53l-353 520q-106 -15 -254 -15q-43 0 -129 6.5t-129 6.5v-514q0 -28 -22.5 -42.5t-54.5 -14.5 q-80 0 -80 57zM313 754q87 -28 352 -28q213 0 343 76t130 227q0 130 -104.5 218t-322.5 88q-187 0 -398 -112v-469z" />
<glyph unicode="S" horiz-adv-x="1331" d="M92 270q0 33 24 66.5t57 33.5q10 0 14 -4q75 -79 225.5 -143.5t282.5 -64.5q380 0 380 252q0 86 -52 140.5t-136 82t-185 47t-203.5 46t-186.5 67t-136 123.5t-52 202q0 179 157.5 276t376.5 97q171 0 320.5 -56.5t220.5 -158.5q2 -4 2 -10q0 -26 -35.5 -52.5 t-62.5 -26.5q-4 0 -26 10q-168 138 -417 138q-150 0 -265.5 -56t-115.5 -171q0 -79 52.5 -130t136 -75.5t186 -43t205 -46t186 -71t136 -131t52.5 -213.5q0 -396 -524 -396q-170 0 -334 61t-269 167q-14 14 -14 40z" />
<glyph unicode="T" horiz-adv-x="1211" d="M21 1414q0 33 15 55t43 22h1051q29 0 45 -23t16 -56q0 -79 -61 -79h-459v-1274q0 -28 -23.5 -43.5t-55.5 -15.5q-79 0 -78 59v1274h-435q-58 0 -58 81z" />
<glyph unicode="U" horiz-adv-x="1490" d="M145 456v975q2 28 24 44t53 16q79 0 79 -60v-956q0 -100 84 -176.5t180.5 -108.5t171.5 -32q90 0 189.5 32t182 107t82.5 178v956q0 59 79 60q30 0 52 -16t24 -44v-975q0 -128 -93.5 -235.5t-229 -164t-269.5 -56.5q-219 0 -414 132t-195 324z" />
<glyph unicode="V" horiz-adv-x="1309" d="M49 1412q0 33 32 56t64 23q34 0 51 -32l458 -1203l460 1203q16 32 51 32q32 0 63.5 -23t31.5 -56q0 -8 -4 -22l-504 -1315q-15 -32 -45 -53.5t-53.5 -21.5t-53 20.5t-47.5 54.5l-500 1315q-4 14 -4 22z" />
<glyph unicode="W" horiz-adv-x="1778" d="M71 1412q0 33 31.5 56t63.5 23q43 0 51 -32l330 -1203l254 1120q10 45 32.5 74.5t50.5 29.5q49 0 73 -102l272 -1122l332 1203q10 32 51 32q32 0 64 -23t32 -56q0 -8 -4 -22l-377 -1315q-15 -32 -45 -53.5t-53.5 -21.5t-53 20.5t-47.5 54.5l-246 907l-236 -907 q-15 -32 -45 -53.5t-53.5 -21.5t-53.5 20.5t-47 54.5l-372 1315q-4 14 -4 22z" />
<glyph unicode="X" horiz-adv-x="1368" d="M53 81q0 15 13 27l515 634l-520 636q-8 6 -8 28q0 34 34.5 59.5t65.5 25.5q14 0 45 -26l485 -598l488 598q30 26 45 26q32 0 66.5 -26t34.5 -59q0 -21 -10 -28l-519 -636l515 -634q13 -12 14 -27q0 -28 -34.5 -54.5t-62 -26.5t-53.5 24l-484 590l-480 -590 q-26 -24 -53.5 -24t-62 26.5t-34.5 54.5z" />
<glyph unicode="Y" horiz-adv-x="1400" d="M100 945v486q2 28 24.5 44t52.5 16q79 0 79 -60v-466q0 -100 84 -177t181 -108.5t172 -31.5q89 0 189 31.5t182 107t82 178.5v466q0 59 79 60q30 0 52 -16t24 -44v-486q0 -174 -161.5 -300.5t-361.5 -150.5v-435q0 -28 -24 -43.5t-55 -15.5q-79 0 -79 59v437 q-205 28 -362.5 152.5t-157.5 296.5z" />
<glyph unicode="Z" horiz-adv-x="1364" d="M43 71q0 21 14 37l959 1225h-871q-58 0 -58 81q0 33 15.5 55t42.5 22h1024q115 0 115 -60q0 -24 -24 -53l-955 -1218h949q28 0 44.5 -23.5t16.5 -55.5q0 -79 -61 -79h-1096q-51 0 -83 19.5t-32 49.5z" />
<glyph unicode="[" horiz-adv-x="640" d="M151 -303v1843q0 35 19 46t70 11h274q28 0 43.5 -23t15.5 -56q0 -79 -59 -79h-205v-1646h205q28 0 43.5 -23.5t15.5 -54.5q0 -79 -59 -79h-288q-26 0 -50.5 17.5t-24.5 43.5z" />
<glyph unicode="\" horiz-adv-x="1588" d="M63 1431q0 26 30.5 51.5t64.5 25.5q26 0 43 -19l1290 -1591q35 -43 34 -79q0 -32 -25.5 -53.5t-58.5 -21.5q-30 0 -48 22l-1306 1612q-24 29 -24 53z" />
<glyph unicode="]" horiz-adv-x="640" d="M69 -285q0 32 15.5 55t43.5 23h204v1646h-204q-59 0 -59 79q0 33 15.5 56t43.5 23h272q51 0 70.5 -11.5t19.5 -45.5v-1843q0 -26 -24.5 -43.5t-50.5 -17.5h-287q-59 0 -59 79z" />
<glyph unicode="^" horiz-adv-x="1773" d="M252 886q0 13 8 23l352 507q53 75 99.5 75t97.5 -75l356 -507q8 -10 8 -23q0 -28 -36 -52.5t-63.5 -24.5t-51.5 32l-311 415l-309 -415q-23 -32 -50 -32q-31 0 -65.5 24.5t-34.5 52.5z" />
<glyph unicode="_" horiz-adv-x="1477" d="M142 -349q0 32 15.5 54.5t43.5 22.5h1075q28 0 43.5 -23.5t15.5 -56.5q0 -79 -59 -79h-1075q-59 0 -59 82z" />
<glyph unicode="`" horiz-adv-x="646" d="M85 1472q0 42 38.5 83.5t85.5 41.5q92 0 166 -138t74 -236q0 -57 -36 -58q-24 0 -78 67t-97 87q-8 4 -34.5 14.5t-37 16t-29.5 19t-28 25.5t-16.5 32t-7.5 46z" />
<glyph unicode="a" horiz-adv-x="1388" d="M81 388q0 285 223.5 491.5t506.5 206.5q194 0 330.5 -147t136.5 -334l-2 -558q0 -28 -26.5 -43.5t-58.5 -15.5q-71 0 -71 59v360q-173 -224 -329.5 -324t-321.5 -100q-153 0 -270.5 124.5t-117.5 280.5zM234 384q0 -122 85.5 -185t180.5 -63q110 0 253 110t238 245 t95 212q0 63 -37 113.5t-91.5 74t-99.5 35t-74 11.5q-209 0 -379.5 -167t-170.5 -386z" />
<glyph unicode="b" horiz-adv-x="1405" d="M128 59v1483q0 55 81 55q77 0 76 -55v-581q131 125 306 125h3q283 0 507 -206.5t224 -491.5q0 -156 -117 -280.5t-271 -124.5q-166 0 -322.5 100t-329.5 324v-348q0 -28 -23.5 -43.5t-54.5 -15.5q-79 0 -79 59zM319 703q0 -77 95 -212t238 -245t253 -110q95 0 180.5 63 t85.5 185q0 219 -170 386t-379 167q-30 0 -75 -11.5t-99 -35t-91.5 -74t-37.5 -113.5z" />
<glyph unicode="c" horiz-adv-x="1181" d="M81 528q0 183 98 316.5t236 193t290 59.5q191 0 356 -132q16 -14 16 -38q0 -35 -27.5 -63.5t-57.5 -28.5q-21 0 -35 15q-102 89 -256 89q-217 0 -340 -132t-123 -281q0 -151 141 -275.5t324 -124.5q187 0 305 134q24 24 40 23q33 0 62.5 -32t29.5 -62q0 -18 -16 -33 q-164 -187 -411 -188q-262 0 -447 165t-185 395z" />
<glyph unicode="d" horiz-adv-x="1405" d="M81 388q0 285 223.5 491.5t506.5 206.5q177 0 309 -125v581q0 55 77 55q81 0 81 -55v-1483q0 -59 -79 -59q-32 0 -55.5 16t-23.5 43v348q-173 -224 -329.5 -324t-321.5 -100q-153 0 -270.5 124.5t-117.5 280.5zM234 384q0 -122 85.5 -185t180.5 -63q110 0 253 110 t238 245t95 212q0 63 -37 113.5t-91.5 74t-99.5 35t-74 11.5q-209 0 -379.5 -167t-170.5 -386z" />
<glyph unicode="e" horiz-adv-x="1268" d="M81 563q0 136 60 242.5t157.5 168t210.5 92.5t230 31q209 0 324 -90.5t115 -222.5q0 -142 -134.5 -242.5t-381.5 -100.5q-221 0 -422 63q24 -158 148 -264t305 -106q95 0 198 29.5t164 86.5q8 16 34 16q30 0 64 -26.5t34 -54.5q-53 -108 -207.5 -158.5t-300.5 -50.5 q-262 0 -430 173t-168 414zM250 669q160 -71 396 -71q185 0 280.5 59t95.5 131q0 64 -80 107.5t-237 43.5q-170 0 -284 -75.5t-171 -194.5z" />
<glyph unicode="f" horiz-adv-x="783" d="M63 933q0 79 61 79h72v132q0 453 339 453q146 0 246.5 -89t102.5 -258q0 -34 -22.5 -52t-54.5 -18q-34 0 -57.5 19t-23.5 49q0 106 -57 148.5t-134 42.5q-181 0 -181 -238v-189h341q57 0 57 -81q0 -32 -15 -54.5t-42 -22.5h-341v-795q0 -57 -82 -57q-32 0 -54 15t-22 42 v795h-72q-28 0 -44.5 23.5t-16.5 55.5z" />
<glyph unicode="g" horiz-adv-x="1405" d="M81 388q0 285 223.5 491.5t506.5 206.5q177 0 309 -125v49q0 57 81 57q32 0 54.5 -15t22.5 -42v-1020q0 -250 -161.5 -391.5t-377.5 -141.5q-170 0 -285 59.5t-117 198.5q0 34 21.5 52t52.5 18q34 0 58.5 -19.5t24.5 -48.5q0 -36 20.5 -58.5t65 -31.5t78 -11t92.5 -2 q151 0 260.5 91.5t109.5 268.5v433q-173 -224 -329.5 -324t-321.5 -100q-153 0 -270.5 124.5t-117.5 280.5zM234 384q0 -122 85.5 -185t180.5 -63q110 0 253 110t238 245t95 212q0 63 -37 113.5t-91.5 74t-99.5 35t-74 11.5q-209 0 -379.5 -167t-170.5 -386z" />
<glyph unicode="h" horiz-adv-x="1433" d="M128 55v1487q0 28 22.5 43t54.5 15q81 0 80 -58v-707q104 110 256 174t309 64q202 0 336.5 -118t134.5 -316q0 -19 -1 -195t-1 -385q0 -28 -23.5 -43.5t-55.5 -15.5q-79 0 -79 59v561q0 104 -58.5 175.5t-129 97t-142.5 25.5q-158 0 -321 -98t-225 -251v-514 q0 -57 -80 -57q-32 0 -54.5 14.5t-22.5 42.5z" />
<glyph unicode="i" horiz-adv-x="412" d="M128 59v949q0 57 81 57q32 0 54 -15t22 -42v-949q0 -28 -23.5 -43.5t-54.5 -15.5q-79 0 -79 59zM128 1337v39q0 57 81 57q32 0 54 -14.5t22 -42.5v-39q0 -28 -23.5 -43.5t-54.5 -15.5q-79 0 -79 59z" />
<glyph unicode="j" horiz-adv-x="412" d="M-402 -183q0 34 22 52t54 18q35 0 58 -19t23 -49q0 -106 57.5 -148.5t134.5 -42.5q181 0 181 238v1142q0 57 81 57q32 0 54 -15t22 -42v-1085q0 -453 -338 -453q-147 0 -247 89t-102 258zM122 1344v38q0 57 81 57q32 0 54 -14.5t22 -42.5v-38q0 -28 -23.5 -44t-54.5 -16 q-79 0 -79 60z" />
<glyph unicode="k" horiz-adv-x="1296" d="M128 59v1481q0 57 81 57q32 0 54 -15t22 -42v-910l731 420q24 15 45 15q32 0 52.5 -30.5t20.5 -65.5q0 -32 -18 -42l-480 -275l659 -544q8 -14 8 -29q0 -36 -43 -62q-28 -17 -55 -17q-30 0 -46 26l-669 541l-205 -118v-390q0 -28 -23.5 -43.5t-54.5 -15.5q-79 0 -79 59z " />
<glyph unicode="l" horiz-adv-x="412" d="M128 59v1481q0 57 81 57q32 0 54 -15t22 -42v-1481q0 -28 -23.5 -43.5t-54.5 -15.5q-79 0 -79 59z" />
<glyph unicode="m" horiz-adv-x="1937" d="M126 59v945q0 57 81 57q32 0 54 -15t22 -42v-114q69 81 166.5 138.5t193.5 57.5q262 0 373 -190q66 92 169.5 141t209.5 49q197 0 312.5 -113t115.5 -313q0 -18 -1 -209t-1 -400q0 -28 -23.5 -43.5t-53.5 -15.5q-79 0 -78 59v590q0 287 -262 288q-38 0 -78 -7.5 t-85.5 -28.5t-82 -52.5t-60 -84.5t-23.5 -120q0 -83 -1 -210.5t-1 -374.5q0 -28 -24.5 -43.5t-56.5 -15.5q-75 0 -74 59v590q0 156 -74.5 222t-191.5 66q-113 0 -218.5 -85.5t-150.5 -197.5v-587q0 -28 -23.5 -43.5t-54.5 -15.5q-79 0 -79 59z" />
<glyph unicode="n" horiz-adv-x="1433" d="M128 55v953q0 28 22.5 42.5t54.5 14.5q81 0 80 -57v-169q106 116 258 183t307 67q200 0 335.5 -125t135.5 -325q0 -19 -1 -195t-1 -385q0 -28 -23.5 -43.5t-55.5 -15.5q-79 0 -79 59v561q0 151 -108 232t-222 81q-156 0 -319 -103.5t-227 -260.5v-514q0 -57 -80 -57 q-32 0 -54.5 14.5t-22.5 42.5z" />
<glyph unicode="o" horiz-adv-x="1354" d="M81 528q0 183 97 316.5t234 193t289 59.5q213 0 393 -161t180 -406q0 -232 -159.5 -397t-417.5 -165q-254 0 -435 165t-181 395zM238 526q0 -151 139 -275.5t322 -124.5q173 0 295 125t122 279q0 149 -117 279t-302 130q-218 0 -338.5 -132t-120.5 -281z" />
<glyph unicode="p" horiz-adv-x="1398" d="M128 -475v1481q0 28 23.5 43.5t55.5 15.5q79 0 78 -59v-233q203 309 599 309q181 0 308 -120.5t127 -282.5q0 -189 -104.5 -347.5t-272 -246t-350.5 -87.5q-177 0 -307 117v-590q0 -57 -80 -57q-32 0 -54.5 14.5t-22.5 42.5zM283 419q0 -130 103.5 -195.5t205.5 -65.5 q124 0 251.5 59.5t218 178t90.5 258.5q0 145 -90.5 209t-218.5 64q-119 0 -252 -80.5t-220.5 -201t-87.5 -226.5z" />
<glyph unicode="q" horiz-adv-x="1398" d="M81 679q0 162 127 282.5t308 120.5q396 0 598 -309v233q0 59 79 59q32 0 55.5 -16t23.5 -43v-1481q0 -28 -22.5 -42.5t-54.5 -14.5q-81 0 -81 57v590q-130 -117 -307 -117q-183 0 -350 87.5t-271.5 246t-104.5 347.5zM248 654q0 -140 90 -258.5t217.5 -178t251.5 -59.5 q102 0 205.5 66t103.5 195q0 106 -87.5 226.5t-220.5 201t-252 80.5q-128 0 -218 -64t-90 -209z" />
<glyph unicode="r" horiz-adv-x="1041" d="M126 59v945q0 57 81 57q32 0 54 -15t22 -42v-267q81 175 180.5 264.5t262.5 89.5q115 0 233 -30q61 -30 61 -81q0 -37 -15 -51.5t-48 -19.5q-108 26 -177 26q-158 0 -288 -155.5t-209 -405.5v-315q0 -28 -23.5 -43.5t-54.5 -15.5q-79 0 -79 59z" />
<glyph unicode="s" horiz-adv-x="1232" d="M83 203q0 28 24.5 59.5t56.5 40.5q15 0 15 -5q69 -74 196 -116t201 -48t137 -6q277 0 277 168q0 58 -41.5 93t-113 47.5t-143.5 17t-157.5 7.5t-129.5 12q-122 24 -215.5 99.5t-93.5 177.5q0 162 163 248t359 86q132 0 283 -46t225 -142q2 -4 2 -10q0 -28 -25.5 -65 t-47.5 -37q-21 0 -43 33q-102 109 -407 110q-126 0 -238.5 -43t-112.5 -126q0 -71 97.5 -105.5t209.5 -34.5q79 0 132 -2t129.5 -12t128 -32.5t100 -57.5t73 -93.5t24.5 -137.5q0 -108 -67 -181.5t-153.5 -102.5t-181.5 -29q-450 0 -648 192q-15 15 -15 41z" />
<glyph unicode="t" horiz-adv-x="911" d="M57 986q0 32 16 55.5t45 23.5h71v262q0 28 22.5 42.5t54.5 14.5q81 0 81 -57v-262h341q29 0 43.5 -22.5t14.5 -54.5q0 -81 -58 -81h-341v-509q0 -238 181 -238q77 0 133.5 42.5t56.5 149.5q0 30 24 48.5t59 18.5q32 0 53.5 -17.5t21.5 -52.5q-2 -168 -101.5 -257.5 t-246.5 -89.5q-339 0 -339 454v451h-71q-61 0 -61 79z" />
<glyph unicode="u" horiz-adv-x="1426" d="M113 435q0 18 1 190t1 381q0 28 23.5 43.5t54.5 15.5q79 0 79 -59v-553q0 -150 108 -234.5t223 -84.5q145 0 309.5 105.5t229.5 262.5v506q0 57 81 57q32 0 54 -15t22 -42v-951q0 -28 -22.5 -42.5t-53.5 -14.5q-81 0 -81 57v175q-106 -118 -254.5 -185.5t-304.5 -67.5 q-200 0 -335 127.5t-135 328.5z" />
<glyph unicode="v" horiz-adv-x="1254" d="M43 986q0 32 31.5 55.5t63.5 23.5q35 0 51 -32l437 -777l439 777q17 32 51 32q32 0 64 -23.5t32 -55.5q0 -15 -5 -21l-494 -890q-36 -75 -87 -75q-49 0 -85 75l-494 890q-4 6 -4 21z" />
<glyph unicode="w" horiz-adv-x="1786" d="M45 988q0 30 35 53.5t65 23.5q34 0 51 -32l351 -777l288 703q4 8 12.5 31.5t12.5 32t12 21.5t18.5 17t23.5 4t24.5 -8.5t21 -23.5t15 -28t11.5 -28.5t6 -17.5l299 -703l311 777q16 32 51 32q32 0 64.5 -24.5t32.5 -52.5q0 -10 -6 -23l-366 -890q-12 -34 -37.5 -54.5 t-49.5 -20.5q-49 0 -86 75l-289 630l-282 -630q-14 -32 -38.5 -53.5t-48.5 -21.5q-51 0 -87 75l-409 890q-6 13 -6 23z" />
<glyph unicode="x" horiz-adv-x="1305" d="M51 75q0 14 12 27l474 424l-474 426q-8 6 -8 28q0 30 34.5 57.5t66.5 27.5q15 0 45 -26l451 -409l454 409q30 26 44 26q32 0 66 -25.5t34 -59.5q0 -21 -8 -28l-473 -426l473 -424q12 -13 12 -27q0 -28 -33.5 -54.5t-61.5 -26.5q-31 0 -53 23l-454 405l-451 -405 q-25 -24 -52 -24l-1 1q-28 0 -62.5 26.5t-34.5 54.5z" />
<glyph unicode="y" d="M115 435v575q0 28 22.5 43.5t51.5 15.5q79 0 79 -59v-557q0 -79 43 -140t108 -93.5t127.5 -48t115.5 -15.5q151 0 285.5 93.5t190.5 248.5v512q0 57 80 57q32 0 54.5 -15t22.5 -42v-1020q0 -126 -56.5 -231.5t-145.5 -169.5t-193.5 -98t-206.5 -34q-175 0 -342.5 80.5 t-169.5 217.5q0 34 22.5 52t54.5 18q34 0 59.5 -19t25.5 -48q0 -69 121.5 -106.5t238.5 -37.5q96 0 190.5 35.5t169.5 122t75 202.5v248q-194 -222 -495 -222q-209 0 -368.5 120.5t-159.5 314.5z" />
<glyph unicode="z" horiz-adv-x="1290" d="M43 73q0 14 8 29l896 805h-798q-60 0 -60 79q0 32 16.5 55.5t43.5 23.5h997q81 0 81 -66q0 -40 -34 -85l-861 -756h835q28 0 43 -22.5t15 -54.5q0 -81 -58 -81h-1037q-28 0 -47 10q-40 26 -40 63z" />
<glyph unicode="{" horiz-adv-x="689" d="M104 -32q0 70 35.5 134t77 106t76.5 97t35 110q0 57 -20.5 75.5t-62.5 18.5q-140 0 -141 83q0 79 122 79q36 0 53 3t33 24.5t16 65.5q0 56 -35 111.5t-76.5 97t-77 105.5t-35.5 134q0 130 143 216t292 88q34 0 52 -22t18 -55q0 -34 -19 -59t-49 -25q-37 0 -80.5 -7.5 t-91.5 -25t-79.5 -49t-31.5 -74.5q0 -57 35 -112.5t76.5 -96t77 -104t35.5 -134.5q0 -104 -54 -162q54 -60 54 -162q0 -72 -35.5 -136t-77 -104.5t-76.5 -96t-35 -110.5q0 -42 31.5 -74.5t79.5 -49.5t91.5 -24.5t80.5 -7.5q30 0 49 -25.5t19 -59.5q0 -32 -18 -54.5 t-52 -22.5q-149 2 -292 88.5t-143 216.5z" />
<glyph unicode="|" horiz-adv-x="459" d="M151 -303v1843q0 57 81 57q32 0 54.5 -15t22.5 -42v-1843q0 -28 -23.5 -43.5t-55.5 -15.5q-79 0 -79 59z" />
<glyph unicode="}" horiz-adv-x="691" d="M81 -260q0 34 19.5 59.5t48.5 25.5q36 0 79.5 7.5t91.5 24.5t80.5 49.5t32.5 74.5q0 55 -35.5 110.5t-77 96t-76.5 104.5t-35 136q0 102 53 162q-53 57 -53 162q0 71 35 134.5t76.5 104t77 96t35.5 112.5q0 43 -32.5 74.5t-80.5 49t-91.5 25t-79.5 7.5q-30 0 -49 25.5 t-19 58.5t18.5 55t51.5 22q149 -2 292 -88t143 -216q0 -71 -35 -134.5t-76.5 -105t-77 -97t-35.5 -111.5q0 -44 16 -65.5t33 -24.5t53 -3q122 0 122 -79q0 -83 -141 -83q-43 0 -63 -18t-20 -76q0 -55 35.5 -110t77 -97t76.5 -106t35 -134q0 -130 -142.5 -216.5t-292.5 -88.5 q-35 0 -52.5 22.5t-17.5 54.5z" />
<glyph unicode="~" horiz-adv-x="1526" d="M115 514q3 128 123 217t266 89q71 0 133 -23.5t93.5 -46t89.5 -69.5q108 -85 196 -85q92 0 166 47.5t74 108.5q0 30 25.5 49t60.5 19q32 0 54.5 -18t22.5 -52q-3 -128 -123.5 -217.5t-266.5 -89.5q-114 0 -204 51q-41 21 -97.5 69.5t-105.5 76t-104 27.5 q-92 0 -166.5 -47t-74.5 -108q0 -30 -25.5 -49.5t-60.5 -19.5q-32 0 -54 18t-22 53z" />
<glyph unicode="&#xa1;" horiz-adv-x="525" d="M124 1429v60q0 49 38.5 77.5t103.5 28.5q55 0 98 -28.5t43 -77.5v-60q0 -49 -40.5 -75.5t-98.5 -26.5q-65 0 -104.5 27.5t-39.5 74.5zM185 57v969q0 60 79 60q32 0 55.5 -15.5t23.5 -44.5v-969q0 -28 -22.5 -42.5t-54.5 -14.5q-81 0 -81 57z" />
<glyph unicode="&#xa2;" horiz-adv-x="1205" d="M73 553q0 218 128.5 358.5t320.5 187.5v407q0 57 81 57q32 0 54 -14.5t22 -42.5v-384h18q191 0 355 -132q17 -14 17 -38q0 -35 -27.5 -63.5t-57.5 -28.5q-21 0 -37 16q-101 89 -254 89h-14v-814h16q187 0 304 134q24 24 40 24q32 0 61.5 -32t29.5 -62q0 -18 -14 -34 q-164 -187 -411 -187h-26v-331q0 -28 -23.5 -43.5t-54.5 -15.5q-79 0 -79 59v354q-198 53 -323.5 202t-125.5 334zM230 551q0 -110 82 -214.5t210 -153.5v754q-140 -47 -216 -158.5t-76 -227.5z" />
<glyph unicode="&#xa3;" horiz-adv-x="1079" d="M104 87q0 66 44.5 119.5t115.5 78.5v354h-73q-28 0 -43.5 23t-15.5 56q0 79 59 79h73v280q0 454 339 455q147 0 247 -90t102 -257q0 -35 -22.5 -53t-53.5 -18q-35 0 -58 19t-23 49q0 107 -58 149.5t-134 42.5q-181 0 -181 -238v-339h340q58 0 58 -81q0 -33 -15 -55 t-43 -22h-340v-347q57 -12 153 -87q79 -59 138 -60q62 0 104.5 32t42.5 77q0 21 18 34t42 13q53 0 53 -92q-2 -89 -76 -151t-175 -62q-79 0 -143 34q-28 15 -68 49t-74.5 53t-72.5 19q-61 0 -104 -32t-43 -76q0 -21 -18 -34t-41 -13q-54 0 -54 91z" />
<glyph unicode="&#xa4;" horiz-adv-x="1426" d="M113 87q0 15 13 28l146 133q-97 132 -97 284q0 171 97 301l-146 132q-8 6 -8 27q0 30 33.5 57.5t65.5 27.5q15 0 45 -25l124 -113q153 104 334 105q162 0 306 -117l141 125q30 26 45 25q32 0 66 -25.5t34 -59.5q0 -21 -9 -27l-173 -154q88 -130 88 -279q0 -146 -76 -272 l161 -145q13 -12 14 -28q0 -28 -34.5 -54.5t-61.5 -26.5q-30 0 -54 24l-126 112q-138 -115 -330 -114q-185 0 -327 108l-122 -106q-26 -24 -53.5 -24t-61.5 26.5t-34 54.5zM330 526q0 -138 107.5 -240.5t278.5 -102.5q156 0 251.5 109.5t95.5 237.5q0 141 -94.5 250.5 t-252.5 109.5q-133 0 -224.5 -63t-126.5 -141.5t-35 -159.5z" />
<glyph unicode="&#xa5;" horiz-adv-x="1460" d="M130 1095v336q2 28 24.5 44t52.5 16q79 0 78 -60v-317q0 -100 84 -177t181.5 -108.5t171.5 -31.5q89 0 189.5 31.5t182 107.5t81.5 178v317q0 59 79 60q30 0 52.5 -16t24.5 -44v-336q0 -175 -161.5 -301.5t-362.5 -150.5v-90h407q28 0 44 -23.5t16 -54.5q0 -79 -60 -79 h-407v-73h407q28 0 44 -23t16 -55q0 -79 -60 -79h-407v-107q0 -28 -23.5 -43.5t-55.5 -15.5q-79 0 -78 59v107h-405q-57 0 -58 82q0 32 15 53.5t43 21.5h405v73h-405q-57 0 -58 81q0 33 15 54.5t43 21.5h405v93q-205 28 -362.5 152t-157.5 297z" />
<glyph unicode="&#xa6;" horiz-adv-x="463" d="M153 -303v629q0 57 81 58q32 0 54.5 -15t22.5 -43v-629q0 -28 -23.5 -43.5t-55.5 -15.5q-79 0 -79 59zM153 909v629q0 28 24 43.5t55 15.5q79 0 79 -59v-629q0 -57 -81 -57q-32 0 -54.5 14.5t-22.5 42.5z" />
<glyph unicode="&#xa7;" horiz-adv-x="1441" d="M77 905q0 258 149.5 416.5t419.5 158.5q193 0 367 -62.5t243 -169.5q4 -8 4 -15q0 -30 -29.5 -66.5t-55.5 -36.5q-10 0 -14 6q-161 164 -341 163q-116 0 -167.5 -73.5t-51.5 -190.5q0 -53 56 -107t140.5 -99t183.5 -114t183 -147t140.5 -202t56.5 -270q0 -207 -162 -360 t-382 -153q-204 0 -377.5 74.5t-250.5 206.5q0 32 23.5 67t57.5 35q11 0 15 -4q51 -69 136 -129.5t182 -60.5q94 0 149 97t55 192q0 77 -54 148.5t-135 125t-176 118.5t-176 125.5t-135 145.5t-54 181zM219 955q0 -92 55.5 -172t137.5 -134.5t179 -117t179 -121t137.5 -148 t55.5 -193.5q0 -64 -31 -155t-97 -168q169 0 270.5 121t101.5 248q0 98 -42.5 182.5t-109.5 143.5t-148.5 113.5t-165 106.5t-150.5 105.5t-109.5 125t-42.5 154.5q0 143 91 275q-132 0 -221.5 -113t-89.5 -253z" />
<glyph unicode="&#xa8;" horiz-adv-x="1773" d="M307 1321v59q0 47 39.5 74.5t104.5 27.5q58 0 98.5 -26.5t40.5 -75.5v-59q0 -49 -43 -78t-98 -29q-65 0 -103.5 29t-38.5 78zM839 1321v59q0 47 39.5 74.5t105.5 27.5q57 0 97.5 -26.5t40.5 -75.5v-59q0 -49 -42.5 -78t-97.5 -29q-66 0 -104.5 29t-38.5 78z" />
<glyph unicode="&#xa9;" horiz-adv-x="1652" d="M110 894q0 135 45.5 249.5t118.5 197t170 141t202.5 87t209.5 28.5q160 0 316.5 -86t263 -251t106.5 -366q0 -278 -193 -485.5t-501 -207.5q-301 0 -519.5 208.5t-218.5 484.5zM266 886q0 -230 170.5 -380t415.5 -150q221 0 377.5 168.5t156.5 367.5q0 92 -35.5 186.5 t-100.5 178t-169.5 136t-228.5 52.5q-145 0 -262 -56t-185 -141t-103.5 -178.5t-35.5 -183.5zM422 880q0 195 141.5 325t332.5 130q116 0 214 -79q10 -10 10 -23q0 -26 -18 -72.5t-32.5 -46.5t-23.5 8q-59 55 -154 56q-156 0 -234.5 -97t-78.5 -199q0 -110 74.5 -188 t240.5 -78q111 0 183 81q15 14 24 14q19 0 37 -48.5t18 -72.5q0 -11 -8 -19q-100 -113 -247 -113q-224 0 -351.5 118.5t-127.5 303.5z" />
<glyph unicode="&#xaa;" horiz-adv-x="964" d="M96 882q0 170 134 293.5t305 123.5q119 0 210.5 -88.5t91.5 -198.5l-2 -335q0 -36 -75 -36q-83 0 -83 36v150q-51 -94 -135 -143.5t-178 -49.5q-113 0 -190.5 66t-77.5 182zM258 922q0 -57 27.5 -95.5t76.5 -38.5q98 0 186 102t88 179q0 37 -47.5 60t-84.5 23 q-83 0 -164.5 -82t-81.5 -148z" />
<glyph unicode="&#xab;" horiz-adv-x="1701" d="M61 662q0 54 71 100l677 527q13 4 22 4q32 0 55 -32t23 -64q0 -34 -31 -51l-608 -481l608 -501q32 -16 31 -51q0 -32 -23.5 -64t-54.5 -32q-8 0 -22 4l-677 544q-71 47 -71 97zM744 662q0 54 69 100l678 527q13 4 21 4q32 0 55.5 -32t23.5 -64q0 -34 -32 -51l-607 -481 l607 -501q32 -16 32 -51q0 -32 -23.5 -64t-55.5 -32q-8 0 -21 4l-678 544q-69 47 -69 97z" />
<glyph unicode="&#xac;" horiz-adv-x="1486" d="M145 716q0 32 15 54t43 22h1075q21 0 42.5 -19t21.5 -43v-308q0 -28 -23.5 -44t-55.5 -16q-79 0 -78 60v212h-982q-58 0 -58 82z" />
<glyph unicode="&#xad;" horiz-adv-x="1000" d="M128 567q0 32 15 54t42 22h628q28 0 44.5 -23.5t16.5 -54.5q0 -79 -61 -79h-628q-57 0 -57 81z" />
<glyph unicode="&#xae;" horiz-adv-x="1652" d="M110 901q0 134 45.5 249.5t118.5 197t170 140t202.5 87.5t209.5 29q160 0 316.5 -86.5t263 -251.5t106.5 -365q0 -279 -193 -486.5t-501 -207.5q-301 0 -519.5 208.5t-218.5 485.5zM266 892q0 -230 170.5 -380t415.5 -150q221 0 377.5 168.5t156.5 368.5q0 91 -35.5 186 t-100.5 178t-169.5 135.5t-228.5 52.5q-145 0 -262 -55.5t-185 -141t-103.5 -179t-35.5 -183.5zM502 581v669q0 10 32.5 21t66.5 11q55 0 57 -28q120 47 206 47q141 0 218 -77.5t77 -182.5q0 -134 -139 -195l169 -245q4 -4 4 -15q0 -33 -126 -33q-32 0 -51 28 q-45 64 -93.5 137.5t-60.5 86.5q-24 -2 -76 -2q-18 0 -61.5 3t-66.5 3v-228q0 -12 -27.5 -20t-49.5 -8q-24 0 -51.5 8t-27.5 20zM658 986q45 -15 173 -15q85 0 128 19.5t43 70.5q0 77 -150 77q-88 0 -194 -52v-100z" />
<glyph unicode="&#xb0;" horiz-adv-x="898" d="M92 1152q0 160 113.5 250.5t258.5 90.5q128 0 235.5 -96t107.5 -245q0 -138 -95.5 -237.5t-251.5 -99.5q-151 0 -259.5 99.5t-108.5 237.5zM250 1150q0 -64 65 -120.5t143 -56.5q74 0 133 56.5t59 122.5q0 64 -55.5 123.5t-136.5 59.5q-94 0 -151 -60.5t-57 -124.5z" />
<glyph unicode="&#xb1;" horiz-adv-x="1004" d="M130 77q0 32 15 54t42 22h628q28 0 44.5 -23.5t16.5 -54.5q0 -79 -61 -79h-628q-57 0 -57 81zM130 716q0 32 15 54t42 22h237v234q0 29 23.5 44.5t54.5 15.5q79 0 79 -60v-234h234q28 0 44.5 -23t16.5 -56q0 -79 -61 -79h-234v-236q0 -57 -81 -57q-32 0 -54 14.5 t-22 42.5v236h-237q-57 0 -57 82z" />
<glyph unicode="&#xb2;" horiz-adv-x="864" d="M100 673q0 79 49 152.5t118.5 131t138.5 109.5t118 105.5t49 102.5q0 53 -37.5 80.5t-88.5 27.5q-49 0 -85 -24.5t-36 -68.5q0 -43 -54 -43q-38 0 -71 28.5t-33 80.5q0 81 84.5 130t166.5 49q309 0 309 -268q0 -84 -48 -151t-108 -107.5t-135 -98t-114 -112.5h384 q15 0 25 -29t10 -50q0 -26 -10 -52.5t-25 -26.5h-549q-58 0 -58 34z" />
<glyph unicode="&#xb3;" horiz-adv-x="758" d="M115 820q0 36 25.5 59.5t52.5 23.5q41 0 41 -41q0 -36 30 -55t77 -19q79 0 123.5 40.5t44.5 93.5q0 51 -41.5 89.5t-115.5 38.5q-33 0 -50 29t-17 55q0 30 19 62.5t48 32.5q106 0 106 100q0 43 -32 67.5t-74.5 24.5t-71 -22.5t-28.5 -65.5q0 -38 -68.5 -38t-68.5 60 q0 83 82 141.5t161 58.5q98 0 178 -67t80 -167q0 -57 -33.5 -111t-73.5 -66q152 -66 153 -224q0 -110 -83 -194.5t-221 -84.5q-83 0 -163 47.5t-80 131.5z" />
<glyph unicode="&#xb4;" horiz-adv-x="527" d="M85 1223q0 98 74.5 236t166.5 138q46 0 84.5 -41.5t38.5 -83.5q0 -26 -7 -46t-16 -32t-27.5 -25.5t-29.5 -19t-37.5 -16t-35.5 -14.5q-42 -19 -96.5 -86.5t-77.5 -67.5q-37 1 -37 58z" />
<glyph unicode="&#xb5;" horiz-adv-x="1175" d="M156 -238v1246q0 57 80 57q32 0 54.5 -15t22.5 -42v-848q26 -4 83 -4q158 0 287.5 155.5t208.5 404.5v290q0 28 23.5 43.5t55.5 15.5q79 0 79 -59v-949q0 -57 -81 -57q-32 0 -54.5 15t-22.5 42v297q-81 -175 -179.5 -264.5t-263.5 -89.5q-87 0 -136 8v-246 q0 -28 -23.5 -44t-55.5 -16q-78 1 -78 60z" />
<glyph unicode="&#xb6;" d="M77 1006q0 485 528 485h688q28 0 43.5 -23t15.5 -56q0 -79 -59 -79h-204v-1614q0 -28 -24 -44t-55 -16q-79 0 -79 60v1614h-248v-1616q0 -57 -80 -58q-32 0 -54.5 15t-22.5 43v854q-207 0 -328 115t-121 320z" />
<glyph unicode="&#xb7;" horiz-adv-x="538" d="M128 618v59q0 47 39.5 75t104.5 28q58 0 98.5 -27t40.5 -76v-59q0 -49 -42.5 -77.5t-98.5 -28.5q-65 0 -103.5 28.5t-38.5 77.5z" />
<glyph unicode="&#xb8;" horiz-adv-x="638" d="M81 -317q0 30 22.5 46.5t49.5 16.5q43 0 48 -31q6 -79 95 -79q41 0 71.5 19t30.5 53q0 40 -18 67t-54 38.5t-60 15t-63 5.5v142q6 24 80 24q77 0 77 -24v-53q59 0 125 -52t66 -154q0 -93 -70 -144.5t-155 -51.5q-126 0 -185.5 50t-59.5 112z" />
<glyph unicode="&#xb9;" horiz-adv-x="725" d="M81 1240q0 30 19 49l256 229q18 19 51 20q34 0 60.5 -20t26.5 -51v-668h107q15 0 25 -27.5t10 -51.5q0 -26 -10 -52.5t-25 -26.5h-371q-15 0 -24.5 28t-9.5 53q0 21 9.5 49t24.5 28h107v508l-171 -146q-12 -9 -19 -9q-24 0 -45 27.5t-21 60.5z" />
<glyph unicode="&#xba;" horiz-adv-x="898" d="M92 1152q0 160 113.5 250.5t258.5 90.5q128 0 235.5 -96t107.5 -245q0 -138 -95.5 -237.5t-251.5 -99.5q-151 0 -259.5 99.5t-108.5 237.5zM250 1150q0 -64 65 -120.5t143 -56.5q74 0 133 56.5t59 122.5q0 64 -55.5 123.5t-136.5 59.5q-94 0 -151 -60.5t-57 -124.5z" />
<glyph unicode="&#xbb;" horiz-adv-x="1701" d="M110 113q0 35 32 51l608 501l-608 481q-32 17 -32 51q0 32 24 64t55 32q9 0 22 -4l677 -527q71 -46 71 -100q0 -50 -71 -97l-677 -544q-12 -4 -22 -4q-32 0 -55.5 32t-23.5 64zM792 113q0 35 33 51l606 501l-606 481q-33 17 -33 51q0 32 23.5 64t56.5 32q8 0 20 -4 l677 -527q71 -46 71 -100q0 -50 -71 -97l-677 -544q-12 -4 -20 -4q-33 0 -56.5 32t-23.5 64z" />
<glyph unicode="&#xbc;" horiz-adv-x="1990" d="M75 1240q0 30 19 49l255 229q19 19 51 20q35 0 61.5 -20t26.5 -51v-668h106q14 0 25 -27.5t11 -51.5q0 -26 -10.5 -52.5t-25.5 -26.5h-370q-15 0 -25 28t-10 53q0 21 10 49t25 28h106v508l-170 -146q-12 -9 -20 -9q-24 0 -44.5 27.5t-20.5 60.5zM417 -10q0 36 34 79 l1163 1590q17 19 43 20q34 0 63.5 -25.5t29.5 -51.5q0 -9 -42 -70l-1159 -1595q-14 -21 -49 -22q-32 0 -57.5 21t-25.5 54zM1205 262q0 34 16 51l436 543q18 26 62 26q39 0 68.5 -21.5t29.5 -55.5v-464h59q34 -6 34 -85q0 -73 -34 -73h-59v-168q0 -35 -67 -34 q-34 0 -62.5 10.5t-28.5 23.5v168h-399q-28 0 -41.5 23.5t-13.5 55.5zM1421 341h238v260z" />
<glyph unicode="&#xbd;" horiz-adv-x="2126" d="M75 1240q0 30 19 49l255 229q19 19 51 20q35 0 61.5 -20t26.5 -51v-668h106q14 0 25 -27.5t11 -51.5q0 -26 -10.5 -52.5t-25.5 -26.5h-370q-15 0 -25 28t-10 53q0 21 10 49t25 28h106v508l-170 -146q-12 -9 -20 -9q-24 0 -44.5 27.5t-20.5 60.5zM417 -10q0 36 34 79 l1163 1590q17 19 43 20q34 0 63.5 -25.5t29.5 -51.5q0 -24 -23 -53l-1178 -1612q-19 -21 -49 -22q-32 0 -57.5 21t-25.5 54zM1395 34q0 79 49 152.5t118.5 130.5t138.5 109.5t118 106t49 101.5q0 53 -37.5 81.5t-88.5 28.5q-49 0 -85 -24.5t-36 -69.5q0 -43 -54 -43 q-38 0 -71 29t-33 80q0 81 84.5 129.5t167.5 48.5q309 0 309 -268q0 -83 -48.5 -150t-109 -107.5t-135 -98t-113.5 -112.5h384q15 0 24.5 -29t9.5 -50q0 -26 -9.5 -52.5t-24.5 -26.5h-549q-58 0 -58 34z" />
<glyph unicode="&#xbe;" horiz-adv-x="2022" d="M94 820q0 36 25.5 59.5t53.5 23.5q40 0 40 -41q0 -36 29.5 -55t76.5 -19q79 0 124 40.5t45 93.5q0 51 -41.5 89.5t-116.5 38.5q-33 0 -49.5 29t-16.5 55q0 30 19.5 62.5t46.5 32.5q106 0 107 100q0 43 -32.5 67.5t-75 24.5t-71 -22.5t-28.5 -65.5q0 -38 -68 -38t-68 60 q0 83 82 141.5t161 58.5q98 0 177.5 -67t79.5 -167q0 -57 -33 -111t-73 -66q153 -66 153 -224q0 -110 -83 -194.5t-221 -84.5q-83 0 -163 47.5t-80 131.5zM453 -10q0 36 35 79l1162 1590q15 19 43 20q34 0 64 -25.5t30 -51.5q0 -9 -43 -70l-1158 -1595q-15 -21 -49 -22 q-33 0 -58.5 21t-25.5 54zM1242 262q0 34 14 51l437 543q19 26 63 26q38 0 67.5 -21.5t29.5 -55.5v-464h60q34 -6 34 -85q0 -73 -34 -73h-60v-168q0 -35 -66 -34q-35 0 -63.5 10.5t-28.5 23.5v168h-398q-28 0 -41.5 23.5t-13.5 55.5zM1457 341h238v260z" />
<glyph unicode="&#xbf;" horiz-adv-x="1096" d="M100 447q0 126 49 222.5t123.5 147t143 76t125.5 27.5v124q0 59 79 59q32 0 58.5 -16t26.5 -43v-256q-73 -4 -145 -23t-143.5 -58.5t-116 -111t-44.5 -162.5q0 -124 116 -199.5t233 -75.5q83 0 168 37t85 106q0 30 25.5 48.5t59.5 18.5q33 0 55 -18t22 -52 q-2 -136 -135 -217t-269 -81q-88 0 -175 27.5t-165 81t-127 142t-49 196.5zM473 1325v59q0 49 42.5 78t98.5 29q65 0 103.5 -29t38.5 -78v-59q0 -47 -39.5 -74.5t-104.5 -27.5q-58 0 -98.5 26.5t-40.5 75.5z" />
<glyph unicode="&#xc0;" horiz-adv-x="1360" d="M77 79q0 8 4 21l145 384h-88q-57 0 -57 81q0 32 14.5 54t42.5 22h147l296 775q17 35 47 55t53.5 20t53 -21t45.5 -54l295 -775h139q28 0 44 -23.5t16 -54.5q0 -79 -60 -79h-76l146 -384q5 -13 5 -21q0 -32 -32 -55.5t-64 -23.5q-34 0 -51 32l-173 452h-573l-172 -452 q-17 -32 -51 -32q-33 0 -64.5 23.5t-31.5 55.5zM376 1898q0 43 38.5 84.5t85.5 41.5q92 0 167 -139t75 -237q0 -57 -37 -57q-24 0 -78 67t-97 86q-8 4 -34.5 15t-37.5 16t-30 19.5t-27.5 25.5t-16.5 31.5t-8 46.5zM456 641h451l-226 595z" />
<glyph unicode="&#xc1;" horiz-adv-x="1360" d="M77 79q0 8 4 21l145 384h-88q-57 0 -57 81q0 32 14.5 54t42.5 22h147l296 775q17 35 47 55t53.5 20t53 -21t45.5 -54l295 -775h139q28 0 44 -23.5t16 -54.5q0 -79 -60 -79h-76l146 -384q5 -13 5 -21q0 -32 -32 -55.5t-64 -23.5q-34 0 -51 32l-173 452h-573l-172 -452 q-17 -32 -51 -32q-33 0 -64.5 23.5t-31.5 55.5zM456 641h451l-226 595zM601 1648q0 98 74.5 237t165.5 139q47 0 85.5 -41.5t38.5 -84.5q0 -26 -7.5 -46.5t-16 -31.5t-28 -25.5t-29.5 -19.5t-37 -16t-36 -15q-42 -19 -96.5 -86t-78.5 -67q-35 0 -35 57z" />
<glyph unicode="&#xc2;" horiz-adv-x="1360" d="M77 79q0 8 4 21l145 384h-88q-57 0 -57 81q0 32 14.5 54t42.5 22h147l296 775q17 35 47 55t53.5 20t53 -21t45.5 -54l295 -775h139q28 0 44 -23.5t16 -54.5q0 -79 -60 -79h-76l146 -384q5 -13 5 -21q0 -32 -32 -55.5t-64 -23.5q-34 0 -51 32l-173 452h-573l-172 -452 q-17 -32 -51 -32q-33 0 -64.5 23.5t-31.5 55.5zM328 1674q0 13 9 23l244 252q7 6 19 19t18 18.5t15.5 13.5t16 12.5t15 8t17.5 3.5t18 -5t21 -13t18.5 -15.5t18.5 -22.5l22 -19l249 -252q8 -8 8 -23q0 -28 -30.5 -51t-59.5 -23q-32 0 -61 30l-205 181l-202 -181 q-28 -28 -59.5 -28t-61.5 22t-30 50zM456 641h451l-226 595z" />
<glyph unicode="&#xc3;" horiz-adv-x="1360" d="M77 79q0 8 4 21l145 384h-88q-57 0 -57 81q0 32 14.5 54t42.5 22h147l296 775q17 35 47 55t53.5 20t53 -21t45.5 -54l295 -775h139q28 0 44 -23.5t16 -54.5q0 -79 -60 -79h-76l146 -384q5 -13 5 -21q0 -32 -32 -55.5t-64 -23.5q-34 0 -51 32l-173 452h-573l-172 -452 q-17 -32 -51 -32q-33 0 -64.5 23.5t-31.5 55.5zM248 1699q0 90 75 152t175 62q49 0 92.5 -16.5t65 -31t62.5 -48.5q79 -59 138 -59q61 0 104.5 31.5t43.5 76.5q0 21 17.5 34t41.5 13q53 0 53 -92q-2 -89 -76.5 -151t-175.5 -62q-79 0 -142 34q-28 15 -68 49t-74.5 53.5 t-73.5 19.5q-61 0 -103.5 -32.5t-42.5 -76.5q0 -21 -18.5 -34t-40.5 -13q-53 0 -53 91zM456 641h451l-226 595z" />
<glyph unicode="&#xc4;" horiz-adv-x="1360" d="M77 79q0 8 4 21l145 384h-88q-57 0 -57 81q0 32 14.5 54t42.5 22h147l296 775q17 35 47 55t53.5 20t53 -21t45.5 -54l295 -775h139q28 0 44 -23.5t16 -54.5q0 -79 -60 -79h-76l146 -384q5 -13 5 -21q0 -32 -32 -55.5t-64 -23.5q-34 0 -51 32l-173 452h-573l-172 -452 q-17 -32 -51 -32q-33 0 -64.5 23.5t-31.5 55.5zM275 1746v60q0 47 39.5 74.5t104.5 27.5q57 0 98 -26.5t41 -75.5v-60q0 -49 -42.5 -77.5t-98.5 -28.5q-65 0 -103.5 28.5t-38.5 77.5zM456 641h451l-226 595zM807 1746v60q0 47 39.5 74.5t105.5 27.5q57 0 98 -26.5t41 -75.5 v-60q0 -49 -42.5 -77.5t-98.5 -28.5q-66 0 -104.5 28.5t-38.5 77.5z" />
<glyph unicode="&#xc5;" horiz-adv-x="1362" d="M79 79q0 8 4 21l145 384h-88q-57 0 -57 81q0 32 15 54t42 22h147l284 743q-59 28 -96.5 81t-37.5 116q0 102 74.5 161.5t165.5 59.5q85 0 154.5 -63t69.5 -158q0 -128 -111 -191l287 -749h139q28 0 44 -23.5t16 -54.5q0 -79 -60 -79h-76l146 -384q5 -13 5 -21 q0 -32 -32 -55.5t-64 -23.5q-34 0 -51 32l-173 452h-573l-172 -452q-17 -32 -51 -32q-33 0 -64.5 23.5t-31.5 55.5zM458 641h451l-226 595zM573 1579q0 -30 31.5 -56.5t72.5 -26.5q32 0 58.5 27.5t26.5 57t-25.5 58.5t-59.5 29q-49 0 -76.5 -28.5t-27.5 -60.5z" />
<glyph unicode="&#xc6;" horiz-adv-x="1565" d="M63 79q0 8 6 21l183 384h-126q-57 0 -57 81q0 32 14.5 54t42.5 22h200l371 775q26 45 49 62q10 10 32 11h669q28 0 43.5 -24t15.5 -55q0 -79 -59 -79h-567v-417h374q28 0 44.5 -23.5t16.5 -55.5q0 -79 -61 -79h-374v-598h567q28 0 43.5 -24t15.5 -55q0 -79 -59 -79h-669 q-36 0 -46 25.5t-10 82.5v376h-291l-220 -452q-17 -32 -51 -32q-32 0 -64.5 23.5t-32.5 55.5zM506 641h216v441z" />
<glyph unicode="&#xc7;" horiz-adv-x="1362" d="M96 756q0 326 235.5 542t554.5 216q191 0 356 -132q16 -14 16 -38q0 -35 -27.5 -63.5t-57.5 -28.5q-21 0 -35 16q-102 89 -256 89q-279 0 -452.5 -180.5t-173.5 -418.5q0 -245 170 -432.5t458 -187.5q187 0 305 134q24 24 40 24q33 0 62.5 -32t29.5 -61q0 -19 -16 -35 q-164 -187 -411 -187q-68 0 -142 11v-69q59 0 125 -52t66 -154q0 -93 -70 -144.5t-155 -51.5q-126 0 -185.5 49.5t-59.5 112.5q0 30 22.5 46.5t49.5 16.5q43 0 47 -31q6 -79 96 -79q41 0 71.5 19t30.5 53q0 40 -18 67t-54.5 38.5t-60 15t-63.5 5.5v196q-234 83 -366 283.5 t-132 442.5z" />
<glyph unicode="&#xc8;" horiz-adv-x="1431" d="M156 108v1276q0 104 55 105h1094q28 0 44.5 -24t16.5 -55q0 -79 -61 -79h-992v-417h801q28 0 43.5 -23.5t15.5 -55.5q0 -79 -59 -79h-801v-598h992q28 0 44.5 -24t16.5 -55q0 -79 -61 -79h-1094q-36 0 -45.5 25.5t-9.5 82.5zM433 1898q0 43 38 84.5t85 41.5 q92 0 166.5 -139t74.5 -237q0 -57 -37 -57q-24 0 -78 67t-96 86q-9 4 -35.5 15t-37.5 16t-30 19.5t-27.5 25.5t-15.5 31.5t-7 46.5z" />
<glyph unicode="&#xc9;" horiz-adv-x="1431" d="M156 108v1276q0 104 55 105h1094q28 0 44.5 -24t16.5 -55q0 -79 -61 -79h-992v-417h801q28 0 43.5 -23.5t15.5 -55.5q0 -79 -59 -79h-801v-598h992q28 0 44.5 -24t16.5 -55q0 -79 -61 -79h-1094q-36 0 -45.5 25.5t-9.5 82.5zM685 1648q0 98 75 237t167 139 q46 0 84.5 -41.5t38.5 -84.5q0 -26 -7.5 -46.5t-16 -31.5t-27.5 -25.5t-29.5 -19.5t-37.5 -16t-36 -15q-42 -19 -96 -86t-78 -67q-37 0 -37 57z" />
<glyph unicode="&#xca;" horiz-adv-x="1431" d="M156 108v1276q0 104 55 105h1094q28 0 44.5 -24t16.5 -55q0 -79 -61 -79h-992v-417h801q28 0 43.5 -23.5t15.5 -55.5q0 -79 -59 -79h-801v-598h992q28 0 44.5 -24t16.5 -55q0 -79 -61 -79h-1094q-36 0 -45.5 25.5t-9.5 82.5zM405 1674q0 13 8 23l245 252q7 6 18.5 19 t18 18.5t16 13.5t16 12.5t15 8t16.5 3.5t18 -5t21.5 -13t18.5 -15.5t19 -22.5l21 -19l250 -252q8 -8 8 -23q0 -28 -31 -51t-59 -23q-32 0 -61 30l-205 181l-202 -181q-28 -28 -60 -28t-61.5 22t-29.5 50z" />
<glyph unicode="&#xcb;" horiz-adv-x="1431" d="M156 108v1276q0 104 55 105h1094q28 0 44.5 -24t16.5 -55q0 -79 -61 -79h-992v-417h801q28 0 43.5 -23.5t15.5 -55.5q0 -79 -59 -79h-801v-598h992q28 0 44.5 -24t16.5 -55q0 -79 -61 -79h-1094q-36 0 -45.5 25.5t-9.5 82.5zM354 1746v60q0 47 39.5 74.5t104.5 27.5 q57 0 97.5 -26.5t40.5 -75.5v-60q0 -49 -42.5 -77.5t-97.5 -28.5q-65 0 -103.5 28.5t-38.5 77.5zM886 1746v60q0 47 39.5 74.5t105.5 27.5q57 0 97.5 -26.5t40.5 -75.5v-60q0 -49 -42.5 -77.5t-97.5 -28.5q-66 0 -104.5 28.5t-38.5 77.5z" />
<glyph unicode="&#xcc;" horiz-adv-x="468" d="M-51 1898q0 43 38.5 84.5t85.5 41.5q91 0 165.5 -139t74.5 -237q0 -57 -36 -57q-24 0 -78 67t-97 86q-8 4 -34.5 15t-37.5 16t-30 19.5t-27.5 25.5t-16 31.5t-7.5 46.5zM156 59v1374q0 57 80 58q32 0 54.5 -15t22.5 -43v-1374q0 -28 -23.5 -43.5t-55.5 -15.5 q-78 0 -78 59z" />
<glyph unicode="&#xcd;" horiz-adv-x="468" d="M156 59v1374q0 57 80 58q32 0 54.5 -15t22.5 -43v-1374q0 -28 -23.5 -43.5t-55.5 -15.5q-78 0 -78 59zM173 1648q0 98 74 237t166 139q47 0 85.5 -41.5t38.5 -84.5q0 -26 -7.5 -46.5t-16.5 -31.5t-27.5 -25.5t-29.5 -19.5t-37.5 -16t-34.5 -15q-43 -19 -97.5 -86 t-77.5 -67q-36 0 -36 57z" />
<glyph unicode="&#xce;" horiz-adv-x="468" d="M-120 1674q0 13 10 23l244 252q6 6 18 19t18.5 18.5t16 13.5t16 12.5t15 8t16.5 3.5t18 -5t21.5 -13t18 -15.5l19.5 -22.5l21 -19l249 -252q9 -8 9 -23q0 -28 -31 -51t-59 -23q-32 0 -61 30l-205 181l-202 -181q-28 -28 -59.5 -28t-62 22t-30.5 50zM156 59v1374 q0 57 80 58q32 0 54.5 -15t22.5 -43v-1374q0 -28 -23.5 -43.5t-55.5 -15.5q-78 0 -78 59z" />
<glyph unicode="&#xcf;" horiz-adv-x="468" d="M-173 1746v60q0 47 39.5 74.5t105.5 27.5q57 0 97.5 -26.5t40.5 -75.5v-60q0 -49 -42 -77.5t-98 -28.5q-66 0 -104.5 28.5t-38.5 77.5zM156 59v1374q0 57 80 58q32 0 54.5 -15t22.5 -43v-1374q0 -28 -23.5 -43.5t-55.5 -15.5q-78 0 -78 59zM360 1746v60q0 47 39.5 74.5 t104.5 27.5q58 0 98.5 -26.5t40.5 -75.5v-60q0 -49 -42.5 -77.5t-98.5 -28.5q-65 0 -103.5 28.5t-38.5 77.5z" />
<glyph unicode="&#xd0;" horiz-adv-x="1573" d="M36 716q0 32 15 54t43 22h140v641q0 57 81 58q32 0 54.5 -15t22.5 -43v-8q138 89 296 89q320 0 555 -216t235 -542q0 -205 -91.5 -378t-276.5 -285t-431 -112q-164 0 -287 78q0 -28 -23.5 -43.5t-55.5 -15.5q-79 0 -79 59v575h-140q-58 0 -58 82zM392 264 q118 -126 299 -126q287 0 457.5 188t170.5 432q0 238 -174 418.5t-452 180.5q-139 0 -301 -105v-460h330q28 0 44 -23t16 -56q0 -79 -60 -79h-330v-370z" />
<glyph unicode="&#xd1;" horiz-adv-x="1528" d="M156 59v1374q0 57 63 58q47 0 92 -40l905 -797v779q0 57 81 58q32 0 54.5 -15t22.5 -43v-1374q0 -28 -23.5 -43.5t-55.5 -15.5q-79 0 -79 59v388l-903 795v-1183q0 -28 -23.5 -43.5t-55.5 -15.5q-78 0 -78 59zM330 1699q0 90 76 152t175 62q49 0 93 -16.5t65 -31 t62 -48.5q79 -59 138 -59q61 0 104 31.5t43 76.5q0 21 18 34t42 13q53 0 53 -92q-2 -89 -76.5 -151t-175.5 -62q-79 0 -142 34q-28 15 -68 49t-74.5 53.5t-72.5 19.5q-62 0 -104.5 -32.5t-42.5 -76.5q0 -21 -18 -34t-41 -13q-54 0 -54 91z" />
<glyph unicode="&#xd2;" d="M102 742q0 325 182.5 542.5t433.5 217.5t425 -222.5t174 -531.5q0 -341 -169.5 -548.5t-429.5 -209.5q-252 0 -434 211t-182 541zM260 739q0 -242 135 -417t323 -175q185 0 313 175.5t128 421.5q0 234 -129 417t-312 183q-188 0 -323 -185.5t-135 -419.5zM407 1898 q0 43 38.5 84.5t84.5 41.5q92 0 166.5 -139t74.5 -237q0 -57 -36 -57q-24 0 -78 67t-96 86q-9 4 -36 15t-37.5 16t-29.5 19.5t-27.5 25.5t-16 31.5t-7.5 46.5z" />
<glyph unicode="&#xd3;" d="M102 742q0 325 182.5 542.5t433.5 217.5t425 -222.5t174 -531.5q0 -341 -169.5 -548.5t-429.5 -209.5q-252 0 -434 211t-182 541zM260 739q0 -242 135 -417t323 -175q185 0 313 175.5t128 421.5q0 234 -129 417t-312 183q-188 0 -323 -185.5t-135 -419.5zM650 1648 q0 98 74.5 237t165.5 139q47 0 85.5 -41.5t38.5 -84.5q0 -26 -7.5 -46.5t-16 -31.5t-28 -25.5t-30 -19.5t-37 -16t-35.5 -15q-43 -19 -97 -86t-78 -67q-35 0 -35 57z" />
<glyph unicode="&#xd4;" d="M102 742q0 325 182.5 542.5t433.5 217.5t425 -222.5t174 -531.5q0 -341 -169.5 -548.5t-429.5 -209.5q-252 0 -434 211t-182 541zM260 739q0 -242 135 -417t323 -175q185 0 313 175.5t128 421.5q0 234 -129 417t-312 183q-188 0 -323 -185.5t-135 -419.5zM354 1674 q0 13 8 23l245 252q7 6 18 19t18 18.5t16.5 13.5t15.5 12.5t15 8t17.5 3.5t18 -5t21 -13t18 -15.5l19.5 -22.5l21 -19l250 -252q8 -8 8 -23q0 -28 -30.5 -51t-59.5 -23q-32 0 -61 30l-205 181l-203 -181q-28 -28 -59.5 -28t-61 22t-29.5 50z" />
<glyph unicode="&#xd5;" d="M102 742q0 325 182.5 542.5t433.5 217.5t425 -222.5t174 -531.5q0 -341 -169.5 -548.5t-429.5 -209.5q-252 0 -434 211t-182 541zM260 739q0 -242 135 -417t323 -175q185 0 313 175.5t128 421.5q0 234 -129 417t-312 183q-188 0 -323 -185.5t-135 -419.5zM275 1699 q0 90 75.5 152t175.5 62q49 0 92.5 -16.5t65 -31t62.5 -48.5q79 -59 138 -59q61 0 104 31.5t43 76.5q0 21 18 34t42 13q53 0 53 -92q-2 -89 -77 -151t-175 -62q-79 0 -142 34q-28 15 -68.5 49t-74.5 53.5t-72 19.5q-62 0 -104.5 -32.5t-42.5 -76.5q0 -21 -18 -34t-42 -13 q-53 0 -53 91z" />
<glyph unicode="&#xd6;" d="M102 742q0 325 182.5 542.5t433.5 217.5t425 -222.5t174 -531.5q0 -341 -169.5 -548.5t-429.5 -209.5q-252 0 -434 211t-182 541zM260 739q0 -242 135 -417t323 -175q185 0 313 175.5t128 421.5q0 234 -129 417t-312 183q-188 0 -323 -185.5t-135 -419.5zM303 1746v60 q0 47 39.5 74.5t104.5 27.5q57 0 98 -26.5t41 -75.5v-60q0 -49 -43 -77.5t-98 -28.5q-65 0 -103.5 28.5t-38.5 77.5zM835 1746v60q0 47 39.5 74.5t105.5 27.5q57 0 97.5 -26.5t40.5 -75.5v-60q0 -49 -42.5 -77.5t-97.5 -28.5q-66 0 -104.5 28.5t-38.5 77.5z" />
<glyph unicode="&#xd7;" horiz-adv-x="876" d="M145 362q0 21 15 36l166 167l-164 165q-14 15 -15 36q0 37 30 64.5t57 27.5q21 0 38 -17l167 -166l166 166q15 15 36 15q36 0 64 -29.5t28 -57.5q0 -21 -17 -39l-167 -165l169 -167q14 -14 15 -36q0 -28 -30 -60t-64 -32q-19 0 -34 15l-166 166l-167 -166 q-14 -15 -36 -15q-28 0 -59.5 30t-31.5 62z" />
<glyph unicode="&#xd8;" horiz-adv-x="1453" d="M32 75q0 36 34 78l153 166q-99 183 -99 423q0 325 182 542.5t433 217.5q224 0 393 -187l154 165q17 19 43 20q34 0 64 -25.5t30 -51.5q0 -24 -24 -53l-172 -188q110 -197 110 -434q0 -341 -169.5 -548.5t-428.5 -209.5q-245 0 -422 195l-149 -164q-18 -21 -49 -21 q-32 0 -57.5 21.5t-25.5 53.5zM277 739q0 -156 60 -292l683 748q-128 149 -285 149q-187 0 -322.5 -185.5t-135.5 -419.5zM424 305q130 -158 311 -158q185 0 312.5 175.5t127.5 421.5q0 162 -67 311z" />
<glyph unicode="&#xd9;" horiz-adv-x="1490" d="M145 456v975q2 28 24 44t53 16q79 0 79 -60v-956q0 -100 84 -176.5t180.5 -108.5t171.5 -32q90 0 189.5 32t182 107t82.5 178v956q0 59 79 60q30 0 52 -16t24 -44v-975q0 -128 -93.5 -235.5t-229 -164t-269.5 -56.5q-219 0 -414 132t-195 324zM460 1898q0 43 38.5 84.5 t84.5 41.5q92 0 167 -139t75 -237q0 -57 -37 -57q-24 0 -78 67t-96 86q-9 4 -36 15t-37.5 16t-29.5 19.5t-27.5 25.5t-16 31.5t-7.5 46.5z" />
<glyph unicode="&#xda;" horiz-adv-x="1490" d="M145 456v975q2 28 24 44t53 16q79 0 79 -60v-956q0 -100 84 -176.5t180.5 -108.5t171.5 -32q90 0 189.5 32t182 107t82.5 178v956q0 59 79 60q30 0 52 -16t24 -44v-975q0 -128 -93.5 -235.5t-229 -164t-269.5 -56.5q-219 0 -414 132t-195 324zM665 1648q0 98 74 237 t166 139q47 0 85.5 -41.5t38.5 -84.5q0 -26 -7.5 -46.5t-16.5 -31.5t-27.5 -25.5t-29.5 -19.5t-37.5 -16t-34.5 -15q-43 -19 -97.5 -86t-77.5 -67q-36 0 -36 57z" />
<glyph unicode="&#xdb;" horiz-adv-x="1490" d="M145 456v975q2 28 24 44t53 16q79 0 79 -60v-956q0 -100 84 -176.5t180.5 -108.5t171.5 -32q90 0 189.5 32t182 107t82.5 178v956q0 59 79 60q30 0 52 -16t24 -44v-975q0 -128 -93.5 -235.5t-229 -164t-269.5 -56.5q-219 0 -414 132t-195 324zM390 1674q0 13 8 23 l245 252q6 6 18 19t18 18.5t16 13.5t16.5 12.5t15 8t17 3.5t18 -5t21.5 -13t18 -15.5t22 -22.5l18 -19l250 -252q8 -8 8 -23q0 -28 -31 -51t-58 -23q-32 0 -63 30l-203 181l-203 -181q-28 -28 -60 -28t-61.5 22t-29.5 50z" />
<glyph unicode="&#xdc;" horiz-adv-x="1490" d="M145 456v975q2 28 24 44t53 16q79 0 79 -60v-956q0 -100 84 -176.5t180.5 -108.5t171.5 -32q90 0 189.5 32t182 107t82.5 178v956q0 59 79 60q30 0 52 -16t24 -44v-975q0 -128 -93.5 -235.5t-229 -164t-269.5 -56.5q-219 0 -414 132t-195 324zM339 1746v60q0 47 39 74.5 t106 27.5q57 0 97.5 -26.5t40.5 -75.5v-60q0 -49 -42.5 -77.5t-97.5 -28.5q-66 0 -104.5 28.5t-38.5 77.5zM872 1746v60q0 47 39 74.5t105 27.5q57 0 97.5 -26.5t40.5 -75.5v-60q0 -49 -42.5 -77.5t-97.5 -28.5q-66 0 -104 28.5t-38 77.5z" />
<glyph unicode="&#xdd;" horiz-adv-x="1400" d="M100 945v486q2 28 24.5 44t52.5 16q79 0 79 -60v-466q0 -100 84 -177t181 -108.5t172 -31.5q89 0 189 31.5t182 107t82 178.5v466q0 59 79 60q30 0 52 -16t24 -44v-486q0 -174 -161.5 -300.5t-361.5 -150.5v-435q0 -28 -24 -43.5t-55 -15.5q-79 0 -79 59v437 q-205 28 -362.5 152.5t-157.5 296.5zM612 1648q0 98 74 237t166 139q47 0 85.5 -41.5t38.5 -84.5q0 -26 -7.5 -46.5t-16.5 -31.5t-28 -25.5t-29.5 -19.5t-37 -16t-34.5 -15q-43 -19 -97.5 -86t-77.5 -67q-36 0 -36 57z" />
<glyph unicode="&#xde;" horiz-adv-x="1345" d="M156 57v1374q0 59 78 60q75 0 75 -66v-260q219 93 424 93q290 0 426 -138t136 -349q0 -239 -185 -343.5t-539 -104.5q-43 0 -129 7t-129 7v-280q0 -28 -22.5 -42.5t-54.5 -14.5q-80 0 -80 57zM313 520q87 -28 352 -28q213 0 343 75.5t130 227.5q0 130 -104.5 218 t-322.5 88q-187 0 -398 -113v-468z" />
<glyph unicode="&#xdf;" horiz-adv-x="1043" d="M128 -260v1676q0 54 37.5 93.5t95.5 57.5t111.5 25.5t104.5 7.5q161 0 258.5 -65t97.5 -208q0 -106 -39.5 -187t-78 -129t-38.5 -74q0 -30 30 -66t73 -78.5t84 -97t71 -136.5t30 -177q0 -151 -116 -266.5t-276 -115.5q-61 0 -127 30.5t-66 82.5q0 35 29.5 60t61.5 25 q17 0 52 -22.5t60 -22.5q96 0 161 70.5t65 178.5q0 82 -36 148t-87.5 108.5t-102.5 79.5t-87 78.5t-36 86.5q0 38 33 87t72.5 91.5t72.5 104.5t33 124q0 137 -175 137q-108 0 -211 -35v-1672q0 -28 -23.5 -43.5t-54.5 -15.5q-79 0 -79 59z" />
<glyph unicode="&#xe0;" horiz-adv-x="1388" d="M81 388q0 285 223.5 491.5t506.5 206.5q194 0 330.5 -147t136.5 -334l-2 -558q0 -28 -26.5 -43.5t-58.5 -15.5q-71 0 -71 59v360q-173 -224 -329.5 -324t-321.5 -100q-153 0 -270.5 124.5t-117.5 280.5zM234 384q0 -122 85.5 -185t180.5 -63q110 0 253 110t238 245 t95 212q0 63 -37 113.5t-91.5 74t-99.5 35t-74 11.5q-209 0 -379.5 -167t-170.5 -386zM402 1472q0 42 38.5 83.5t85.5 41.5q92 0 166 -138t74 -236q0 -57 -36 -58q-24 0 -78 67t-96 87q-8 4 -35 14.5t-37.5 16t-29.5 19t-28 25.5t-16.5 32t-7.5 46z" />
<glyph unicode="&#xe1;" horiz-adv-x="1388" d="M81 388q0 285 223.5 491.5t506.5 206.5q194 0 330.5 -147t136.5 -334l-2 -558q0 -28 -26.5 -43.5t-58.5 -15.5q-71 0 -71 59v360q-173 -224 -329.5 -324t-321.5 -100q-153 0 -270.5 124.5t-117.5 280.5zM234 384q0 -122 85.5 -185t180.5 -63q110 0 253 110t238 245 t95 212q0 63 -37 113.5t-91.5 74t-99.5 35t-74 11.5q-209 0 -379.5 -167t-170.5 -386zM563 1223q0 98 74 236t166 138q47 0 85.5 -41.5t38.5 -83.5q0 -26 -7.5 -46t-16.5 -32t-28 -25.5t-29.5 -19t-37 -16t-35.5 -14.5q-43 -19 -97 -86.5t-78 -67.5q-35 1 -35 58z" />
<glyph unicode="&#xe2;" horiz-adv-x="1388" d="M81 388q0 285 223.5 491.5t506.5 206.5q194 0 330.5 -147t136.5 -334l-2 -558q0 -28 -26.5 -43.5t-58.5 -15.5q-71 0 -71 59v360q-173 -224 -329.5 -324t-321.5 -100q-153 0 -270.5 124.5t-117.5 280.5zM234 384q0 -122 85.5 -185t180.5 -63q110 0 253 110t238 245 t95 212q0 63 -37 113.5t-91.5 74t-99.5 35t-74 11.5q-209 0 -379.5 -167t-170.5 -386zM323 1248q0 12 9 24l245 251q6 6 18 19t18.5 18t16 14t16 13t15 7t16.5 3t18 -4t21.5 -13t18.5 -16t19 -22l21 -19l249 -251q9 -8 9 -24q0 -28 -31 -51.5t-59 -23.5q-32 0 -61 30 l-205 181l-202 -181q-28 -28 -59.5 -28t-62 22.5t-30.5 50.5z" />
<glyph unicode="&#xe3;" horiz-adv-x="1388" d="M81 388q0 285 223.5 491.5t506.5 206.5q194 0 330.5 -147t136.5 -334l-2 -558q0 -28 -26.5 -43.5t-58.5 -15.5q-71 0 -71 59v360q-173 -224 -329.5 -324t-321.5 -100q-153 0 -270.5 124.5t-117.5 280.5zM234 384q0 -122 85.5 -185t180.5 -63q110 0 253 110t238 245 t95 212q0 63 -37 113.5t-91.5 74t-99.5 35t-74 11.5q-209 0 -379.5 -167t-170.5 -386zM245 1274q0 89 75.5 151t175.5 62q49 0 92.5 -16t65 -31t62.5 -50q79 -59 138 -59q61 0 104.5 32t43.5 76q0 21 17.5 34.5t41.5 13.5q53 0 53 -92q-2 -90 -76.5 -151.5t-175.5 -61.5 q-79 0 -142 34q-28 14 -68 48.5t-74.5 53.5t-73.5 19q-61 0 -103.5 -31.5t-42.5 -76.5q0 -21 -18.5 -34t-41.5 -13q-53 0 -53 92z" />
<glyph unicode="&#xe4;" horiz-adv-x="1388" d="M81 388q0 285 223.5 491.5t506.5 206.5q194 0 330.5 -147t136.5 -334l-2 -558q0 -28 -26.5 -43.5t-58.5 -15.5q-71 0 -71 59v360q-173 -224 -329.5 -324t-321.5 -100q-153 0 -270.5 124.5t-117.5 280.5zM234 384q0 -122 85.5 -185t180.5 -63q110 0 253 110t238 245 t95 212q0 63 -37 113.5t-91.5 74t-99.5 35t-74 11.5q-209 0 -379.5 -167t-170.5 -386zM272 1321v59q0 47 40 74.5t105 27.5q57 0 98 -26.5t41 -75.5v-59q0 -49 -42.5 -78t-98.5 -29q-66 0 -104.5 29t-38.5 78zM805 1321v59q0 47 39.5 74.5t105.5 27.5q57 0 98 -26.5 t41 -75.5v-59q0 -49 -42.5 -78t-99.5 -29q-65 0 -103.5 29t-38.5 78z" />
<glyph unicode="&#xe5;" horiz-adv-x="1388" d="M81 388q0 285 223.5 491.5t506.5 206.5q194 0 330.5 -147t136.5 -334l-2 -558q0 -28 -26.5 -43.5t-58.5 -15.5q-71 0 -71 59v360q-173 -224 -329.5 -324t-321.5 -100q-153 0 -270.5 124.5t-117.5 280.5zM234 384q0 -122 85.5 -185t180.5 -63q110 0 253 110t238 245 t95 212q0 63 -37 113.5t-91.5 74t-99.5 35t-74 11.5q-209 0 -379.5 -167t-170.5 -386zM424 1388q0 102 74.5 162t166.5 60q85 0 154 -63t69 -159q0 -89 -63 -153t-160.5 -64t-169 65t-71.5 152zM561 1386q0 -30 31.5 -56.5t72.5 -26.5q32 0 58.5 28t26.5 58t-25.5 58.5 t-59.5 28.5q-49 0 -76.5 -28.5t-27.5 -61.5z" />
<glyph unicode="&#xe6;" horiz-adv-x="2295" d="M81 388q0 285 223.5 491.5t506.5 206.5q122 0 225.5 -62.5t166.5 -165.5q90 118 243.5 178.5t319.5 60.5q209 0 324 -90.5t115 -222.5q0 -142 -134.5 -242.5t-381.5 -100.5q-219 0 -421 59q6 -168 138 -267t313 -99q96 0 199.5 29.5t162.5 86.5q8 16 34 16 q31 0 64.5 -26.5t33.5 -54.5q-53 -108 -207.5 -158.5t-299.5 -50.5q-262 0 -430 173v-102q0 -28 -26.5 -43.5t-58.5 -15.5q-71 0 -71 59v360q-173 -224 -329.5 -324t-321.5 -100q-153 0 -270.5 124.5t-117.5 280.5zM234 384q0 -122 85.5 -185t180.5 -63q110 0 253 110 t238 245t95 212q0 63 -37 113.5t-91.5 74t-99.5 35t-74 11.5q-209 0 -379.5 -167t-170.5 -386zM1276 669q160 -71 396 -71q185 0 281 59t96 131q0 64 -79.5 107.5t-237.5 43.5q-205 0 -315.5 -76.5t-140.5 -193.5z" />
<glyph unicode="&#xe7;" horiz-adv-x="1181" d="M81 528q0 183 98 316.5t236 193t290 59.5q191 0 356 -132q16 -14 16 -38q0 -35 -27.5 -63.5t-57.5 -28.5q-21 0 -35 15q-102 89 -256 89q-217 0 -340 -132t-123 -281q0 -151 141 -275.5t324 -124.5q187 0 305 134q24 24 40 23q33 0 62.5 -32t29.5 -62q0 -18 -16 -33 q-164 -187 -411 -188q-20 0 -59 4v-49q59 0 125.5 -52t66.5 -154q0 -93 -70.5 -144.5t-155.5 -51.5q-126 0 -186 49.5t-60 112.5q0 30 22.5 46.5t50.5 16.5q43 0 47 -31q6 -79 96 -79q40 0 71.5 19t31.5 53q0 40 -18.5 67t-55 38.5t-59.5 15t-64 5.5v168q-183 59 -299 204.5 t-116 321.5z" />
<glyph unicode="&#xe8;" horiz-adv-x="1268" d="M81 563q0 136 60 242.5t157.5 168t210.5 92.5t230 31q209 0 324 -90.5t115 -222.5q0 -142 -134.5 -242.5t-381.5 -100.5q-221 0 -422 63q24 -158 148 -264t305 -106q95 0 198 29.5t164 86.5q8 16 34 16q30 0 64 -26.5t34 -54.5q-53 -108 -207.5 -158.5t-300.5 -50.5 q-262 0 -430 173t-168 414zM250 669q160 -71 396 -71q185 0 280.5 59t95.5 131q0 64 -80 107.5t-237 43.5q-170 0 -284 -75.5t-171 -194.5zM433 1472q0 42 38 83.5t85 41.5q92 0 166.5 -138t74.5 -236q0 -57 -37 -58q-24 0 -78 67t-96 87q-9 4 -35.5 14.5t-37.5 16t-30 19 t-27.5 25.5t-15.5 32t-7 46z" />
<glyph unicode="&#xe9;" horiz-adv-x="1268" d="M81 563q0 136 60 242.5t157.5 168t210.5 92.5t230 31q209 0 324 -90.5t115 -222.5q0 -142 -134.5 -242.5t-381.5 -100.5q-221 0 -422 63q24 -158 148 -264t305 -106q95 0 198 29.5t164 86.5q8 16 34 16q30 0 64 -26.5t34 -54.5q-53 -108 -207.5 -158.5t-300.5 -50.5 q-262 0 -430 173t-168 414zM250 669q160 -71 396 -71q185 0 280.5 59t95.5 131q0 64 -80 107.5t-237 43.5q-170 0 -284 -75.5t-171 -194.5zM535 1223q0 98 74 236t166 138q47 0 85.5 -41.5t38.5 -83.5q0 -26 -7.5 -46t-16 -32t-27.5 -25.5t-30 -19t-37.5 -16t-34.5 -14.5 q-43 -19 -97.5 -86.5t-77.5 -67.5q-36 1 -36 58z" />
<glyph unicode="&#xea;" horiz-adv-x="1268" d="M81 563q0 136 60 242.5t157.5 168t210.5 92.5t230 31q209 0 324 -90.5t115 -222.5q0 -142 -134.5 -242.5t-381.5 -100.5q-221 0 -422 63q24 -158 148 -264t305 -106q95 0 198 29.5t164 86.5q8 16 34 16q30 0 64 -26.5t34 -54.5q-53 -108 -207.5 -158.5t-300.5 -50.5 q-262 0 -430 173t-168 414zM250 669q160 -71 396 -71q185 0 280.5 59t95.5 131q0 64 -80 107.5t-237 43.5q-170 0 -284 -75.5t-171 -194.5zM279 1248q0 12 8 24l245 251q7 6 19 19t18 18t15.5 14t16 13t15 7t17 3t18 -4t21 -13t18.5 -16t21 -22l19 -19l250 -251q8 -8 8 -24 q0 -28 -30.5 -51.5t-58.5 -23.5q-33 0 -62 30l-205 181l-201 -181q-29 -28 -60.5 -28t-61.5 22.5t-30 50.5z" />
<glyph unicode="&#xeb;" horiz-adv-x="1268" d="M81 563q0 136 60 242.5t157.5 168t210.5 92.5t230 31q209 0 324 -90.5t115 -222.5q0 -142 -134.5 -242.5t-381.5 -100.5q-221 0 -422 63q24 -158 148 -264t305 -106q95 0 198 29.5t164 86.5q8 16 34 16q30 0 64 -26.5t34 -54.5q-53 -108 -207.5 -158.5t-300.5 -50.5 q-262 0 -430 173t-168 414zM234 1321v59q0 47 39.5 74.5t106.5 27.5q57 0 97.5 -26.5t40.5 -75.5v-59q0 -49 -42.5 -78t-99.5 -29q-65 0 -103.5 29t-38.5 78zM250 669q160 -71 396 -71q185 0 280.5 59t95.5 131q0 64 -80 107.5t-237 43.5q-170 0 -284 -75.5t-171 -194.5z M766 1321v59q0 47 40 74.5t106 27.5q57 0 97.5 -26.5t40.5 -75.5v-59q0 -49 -42.5 -78t-98.5 -29q-66 0 -104.5 29t-38.5 78z" />
<glyph unicode="&#xec;" horiz-adv-x="412" d="M-81 1472q0 42 38.5 83.5t85.5 41.5q91 0 165.5 -138t74.5 -236q0 -57 -35 -58q-24 0 -78.5 67t-96.5 87q-9 4 -36 14.5t-37 16t-29.5 19t-28 25.5t-16 32t-7.5 46zM128 59v949q0 57 81 57q32 0 54 -15t22 -42v-949q0 -28 -23.5 -43.5t-54.5 -15.5q-79 0 -79 59z" />
<glyph unicode="&#xed;" horiz-adv-x="412" d="M128 59v949q0 57 81 57q32 0 54 -15t22 -42v-949q0 -28 -23.5 -43.5t-54.5 -15.5q-79 0 -79 59zM136 1223q0 98 74.5 236t165.5 138q47 0 85.5 -41.5t38.5 -83.5q0 -26 -7 -46t-15.5 -32t-27.5 -25.5t-30 -19t-37.5 -16t-35.5 -14.5q-42 -19 -96.5 -86.5t-77.5 -67.5 q-37 1 -37 58z" />
<glyph unicode="&#xee;" horiz-adv-x="412" d="M-147 1248q0 12 9 24l244 251q6 6 18 19t18.5 18t16 14t16 13t15 7t17 3t18 -4t21.5 -13t18 -16t21 -22l20 -19l248 -251q9 -8 10 -24q0 -28 -31.5 -51.5t-58.5 -23.5q-32 0 -62 30l-204 181l-203 -181q-28 -28 -59.5 -28t-61.5 22.5t-30 50.5zM128 59v949q0 57 81 57 q32 0 54 -15t22 -42v-949q0 -28 -23.5 -43.5t-54.5 -15.5q-79 0 -79 59z" />
<glyph unicode="&#xef;" horiz-adv-x="412" d="M-201 1321v59q0 47 39.5 74.5t106.5 27.5q57 0 97.5 -26.5t40.5 -75.5v-59q0 -49 -42.5 -78t-97.5 -29q-66 0 -105 29t-39 78zM128 59v949q0 57 81 57q32 0 54 -15t22 -42v-949q0 -28 -23.5 -43.5t-54.5 -15.5q-79 0 -79 59zM332 1321v59q0 47 39.5 74.5t105.5 27.5 q58 0 98.5 -26.5t40.5 -75.5v-59q0 -49 -43 -78t-98 -29q-65 0 -104 29t-39 78z" />
<glyph unicode="&#xf0;" horiz-adv-x="1067" d="M79 428q0 181 129 303.5t298 122.5q137 0 254 -98q-42 147 -213 324l-157 -128q-15 -15 -36 -15q-28 0 -60 29.5t-32 62.5q0 20 15 36l158 128l-83 70q-26 20 -47.5 51.5t-21.5 53.5q0 30 23.5 56.5t69.5 26.5q43 0 138 -81l67 -60l156 125q15 15 36 16q36 0 63.5 -30.5 t27.5 -57.5q0 -20 -16 -38l-151 -124q279 -300 279 -677q0 -242 -115 -388t-337 -146q-207 0 -326 131t-119 307zM236 426q0 -128 93 -201.5t201 -73.5q92 0 168.5 68t76.5 173q0 122 -76.5 203.5t-178.5 81.5q-120 0 -202 -73.5t-82 -177.5z" />
<glyph unicode="&#xf1;" horiz-adv-x="1433" d="M128 55v953q0 28 22.5 42.5t54.5 14.5q81 0 80 -57v-169q106 116 258 183t307 67q200 0 335.5 -125t135.5 -325q0 -19 -1 -195t-1 -385q0 -28 -23.5 -43.5t-55.5 -15.5q-79 0 -79 59v561q0 151 -108 232t-222 81q-156 0 -319 -103.5t-227 -260.5v-514q0 -57 -80 -57 q-32 0 -54.5 14.5t-22.5 42.5zM290 1274q0 89 75.5 151t175.5 62q49 0 92.5 -16t65 -31t61.5 -50q79 -59 139 -59q61 0 104 32t43 76q0 21 18 34.5t42 13.5q53 0 53 -92q-3 -90 -77 -151.5t-175 -61.5q-79 0 -143 34q-28 14 -68 48.5t-74 53.5t-73 19q-61 0 -104 -31.5 t-43 -76.5q0 -21 -18 -34t-41 -13q-53 0 -53 92z" />
<glyph unicode="&#xf2;" horiz-adv-x="1354" d="M81 528q0 183 97 316.5t234 193t289 59.5q213 0 393 -161t180 -406q0 -232 -159.5 -397t-417.5 -165q-254 0 -435 165t-181 395zM238 526q0 -151 139 -275.5t322 -124.5q173 0 295 125t122 279q0 149 -117 279t-302 130q-218 0 -338.5 -132t-120.5 -281zM433 1472 q0 42 38 83.5t85 41.5q92 0 166.5 -138t74.5 -236q0 -57 -37 -58q-24 0 -78 67t-96 87q-9 4 -35.5 14.5t-37.5 16t-30 19t-27.5 25.5t-15.5 32t-7 46z" />
<glyph unicode="&#xf3;" horiz-adv-x="1354" d="M81 528q0 183 97 316.5t234 193t289 59.5q213 0 393 -161t180 -406q0 -232 -159.5 -397t-417.5 -165q-254 0 -435 165t-181 395zM238 526q0 -151 139 -275.5t322 -124.5q173 0 295 125t122 279q0 149 -117 279t-302 130q-218 0 -338.5 -132t-120.5 -281zM565 1223 q0 98 74 236t166 138q47 0 85.5 -41.5t38.5 -83.5q0 -26 -7.5 -46t-16.5 -32t-28 -25.5t-29.5 -19t-37 -16t-35.5 -14.5q-43 -19 -97 -86.5t-77 -67.5q-36 1 -36 58z" />
<glyph unicode="&#xf4;" horiz-adv-x="1354" d="M81 528q0 183 97 316.5t234 193t289 59.5q213 0 393 -161t180 -406q0 -232 -159.5 -397t-417.5 -165q-254 0 -435 165t-181 395zM238 526q0 -151 139 -275.5t322 -124.5q173 0 295 125t122 279q0 149 -117 279t-302 130q-218 0 -338.5 -132t-120.5 -281zM321 1248 q0 12 9 24l245 251q6 6 18 19t18.5 18t15.5 14t16 13t15.5 7t16.5 3t18 -4t21.5 -13t18 -16t21.5 -22l19 -19l249 -251q9 -8 9 -24q0 -28 -31 -51.5t-59 -23.5q-32 0 -61 30l-205 181l-202 -181q-28 -28 -59.5 -28t-62 22.5t-30.5 50.5z" />
<glyph unicode="&#xf5;" horiz-adv-x="1354" d="M81 528q0 183 97 316.5t234 193t289 59.5q213 0 393 -161t180 -406q0 -232 -159.5 -397t-417.5 -165q-254 0 -435 165t-181 395zM238 526q0 -151 139 -275.5t322 -124.5q173 0 295 125t122 279q0 149 -117 279t-302 130q-218 0 -338.5 -132t-120.5 -281zM242 1274 q0 89 76 151t176 62q49 0 92.5 -16t65 -31t61.5 -50q79 -59 139 -59q61 0 104 32t43 76q0 21 18 34.5t42 13.5q53 0 53 -92q-2 -90 -76.5 -151.5t-175.5 -61.5q-79 0 -142 34q-28 14 -68.5 48.5t-74.5 53.5t-73 19q-61 0 -103.5 -31.5t-42.5 -76.5q0 -21 -18.5 -34 t-41.5 -13q-54 0 -54 92z" />
<glyph unicode="&#xf6;" horiz-adv-x="1354" d="M81 528q0 183 97 316.5t234 193t289 59.5q213 0 393 -161t180 -406q0 -232 -159.5 -397t-417.5 -165q-254 0 -435 165t-181 395zM238 526q0 -151 139 -275.5t322 -124.5q173 0 295 125t122 279q0 149 -117 279t-302 130q-218 0 -338.5 -132t-120.5 -281zM270 1321v59 q0 47 39.5 74.5t105.5 27.5q57 0 97.5 -26.5t40.5 -75.5v-59q0 -49 -42 -78t-98 -29q-66 0 -104.5 29t-38.5 78zM803 1321v59q0 47 39.5 74.5t104.5 27.5q58 0 98.5 -26.5t40.5 -75.5v-59q0 -49 -42 -78t-99 -29q-65 0 -103.5 29t-38.5 78z" />
<glyph unicode="&#xf7;" horiz-adv-x="949" d="M102 456q0 32 15 54t43 22h628q28 0 44 -23t16 -56q0 -79 -60 -79h-628q-58 0 -58 82zM328 106v60q0 47 39.5 74.5t105.5 27.5q57 0 98 -26.5t41 -75.5v-60q0 -49 -43 -77.5t-98 -28.5q-65 0 -104 28.5t-39 77.5zM328 746v59q0 47 39.5 74.5t105.5 27.5q57 0 98 -26.5 t41 -75.5v-59q0 -49 -43 -78t-98 -29q-65 0 -104 29t-39 78z" />
<glyph unicode="&#xf8;" horiz-adv-x="1354" d="M77 -104q0 36 33 78l140 168q-169 165 -169 386q0 183 97 316.5t234 193t289 59.5q134 0 272 -75l194 234q17 19 43 20q34 0 63.5 -25.5t29.5 -51.5q0 -24 -23 -53l-179 -217q173 -167 173 -399t-159.5 -397t-417.5 -165q-167 0 -317 81l-171 -207q-19 -21 -49 -21 q-32 0 -57.5 21.5t-25.5 53.5zM238 526q0 -138 118 -256l518 631q-84 38 -177 38q-218 0 -338.5 -132t-120.5 -281zM484 177q102 -51 215 -51q173 0 295 125t122 279q0 149 -114 275z" />
<glyph unicode="&#xf9;" horiz-adv-x="1426" d="M113 435q0 18 1 190t1 381q0 28 23.5 43.5t54.5 15.5q79 0 79 -59v-553q0 -150 108 -234.5t223 -84.5q145 0 309.5 105.5t229.5 262.5v506q0 57 81 57q32 0 54 -15t22 -42v-951q0 -28 -22.5 -42.5t-53.5 -14.5q-81 0 -81 57v175q-106 -118 -254.5 -185.5t-304.5 -67.5 q-200 0 -335 127.5t-135 328.5zM431 1472q0 42 37.5 83.5t84.5 41.5q92 0 167 -138t75 -236q0 -57 -37 -58q-24 0 -78 67t-97 87q-8 4 -34.5 14.5t-37.5 16t-30 19t-27.5 25.5t-15.5 32t-7 46z" />
<glyph unicode="&#xfa;" horiz-adv-x="1426" d="M113 435q0 18 1 190t1 381q0 28 23.5 43.5t54.5 15.5q79 0 79 -59v-553q0 -150 108 -234.5t223 -84.5q145 0 309.5 105.5t229.5 262.5v506q0 57 81 57q32 0 54 -15t22 -42v-951q0 -28 -22.5 -42.5t-53.5 -14.5q-81 0 -81 57v175q-106 -118 -254.5 -185.5t-304.5 -67.5 q-200 0 -335 127.5t-135 328.5zM586 1223q0 98 74.5 236t166.5 138q47 0 85 -41.5t38 -83.5q0 -26 -7.5 -46t-16 -32t-27.5 -25.5t-30 -19t-37.5 -16t-34.5 -14.5q-43 -19 -97 -86.5t-78 -67.5q-36 1 -36 58z" />
<glyph unicode="&#xfb;" horiz-adv-x="1426" d="M113 435q0 18 1 190t1 381q0 28 23.5 43.5t54.5 15.5q79 0 79 -59v-553q0 -150 108 -234.5t223 -84.5q145 0 309.5 105.5t229.5 262.5v506q0 57 81 57q32 0 54 -15t22 -42v-951q0 -28 -22.5 -42.5t-53.5 -14.5q-81 0 -81 57v175q-106 -118 -254.5 -185.5t-304.5 -67.5 q-200 0 -335 127.5t-135 328.5zM352 1248q0 12 8 24l245 251q7 6 18 19t18 18t16.5 14t15.5 13t15 7t17 3t18 -4t21.5 -13t18 -16t21.5 -22l19 -19l249 -251q9 -8 9 -24q0 -28 -31 -51.5t-59 -23.5q-32 0 -62 30l-204 181l-203 -181q-28 -28 -59.5 -28t-61 22.5t-29.5 50.5z " />
<glyph unicode="&#xfc;" horiz-adv-x="1426" d="M113 435q0 18 1 190t1 381q0 28 23.5 43.5t54.5 15.5q79 0 79 -59v-553q0 -150 108 -234.5t223 -84.5q145 0 309.5 105.5t229.5 262.5v506q0 57 81 57q32 0 54 -15t22 -42v-951q0 -28 -22.5 -42.5t-53.5 -14.5q-81 0 -81 57v175q-106 -118 -254.5 -185.5t-304.5 -67.5 q-200 0 -335 127.5t-135 328.5zM301 1321v59q0 47 39.5 74.5t104.5 27.5q57 0 97.5 -26.5t40.5 -75.5v-59q0 -49 -42.5 -78t-97.5 -29q-65 0 -103.5 29t-38.5 78zM833 1321v59q0 47 39.5 74.5t105.5 27.5q57 0 97.5 -26.5t40.5 -75.5v-59q0 -49 -42.5 -78t-97.5 -29 q-66 0 -104.5 29t-38.5 78z" />
<glyph unicode="&#xfd;" d="M115 435v575q0 28 22.5 43.5t51.5 15.5q79 0 79 -59v-557q0 -79 43 -140t108 -93.5t127.5 -48t115.5 -15.5q151 0 285.5 93.5t190.5 248.5v512q0 57 80 57q32 0 54.5 -15t22.5 -42v-1020q0 -126 -56.5 -231.5t-145.5 -169.5t-193.5 -98t-206.5 -34q-175 0 -342.5 80.5 t-169.5 217.5q0 34 22.5 52t54.5 18q34 0 59.5 -19t25.5 -48q0 -69 121.5 -106.5t238.5 -37.5q96 0 190.5 35.5t169.5 122t75 202.5v248q-194 -222 -495 -222q-209 0 -368.5 120.5t-159.5 314.5zM598 1223q0 98 75 236t166 138q47 0 85.5 -41.5t38.5 -83.5q0 -26 -8 -46 t-16 -32t-27.5 -25.5t-29.5 -19t-37.5 -16t-35.5 -14.5q-43 -19 -97 -86.5t-78 -67.5q-36 1 -36 58z" />
<glyph unicode="&#xfe;" horiz-adv-x="1400" d="M128 -477v2013q0 28 22.5 42.5t54.5 14.5q81 0 80 -57v-569q130 118 307 117q183 0 350.5 -87.5t272 -246t104.5 -348.5q0 -162 -127 -282t-308 -120q-396 0 -599 309v-786q0 -60 -78 -60q-32 0 -55.5 16t-23.5 44zM283 662q0 -106 87.5 -226.5t220.5 -200t252 -79.5 q128 0 218.5 63.5t90.5 208.5q0 141 -90.5 259t-218 178t-251.5 60q-102 0 -205.5 -66.5t-103.5 -196.5z" />
<glyph unicode="&#xff;" d="M115 435v575q0 28 22.5 43.5t51.5 15.5q79 0 79 -59v-557q0 -79 43 -140t108 -93.5t127.5 -48t115.5 -15.5q151 0 285.5 93.5t190.5 248.5v512q0 57 80 57q32 0 54.5 -15t22.5 -42v-1020q0 -126 -56.5 -231.5t-145.5 -169.5t-193.5 -98t-206.5 -34q-175 0 -342.5 80.5 t-169.5 217.5q0 34 22.5 52t54.5 18q34 0 59.5 -19t25.5 -48q0 -69 121.5 -106.5t238.5 -37.5q96 0 190.5 35.5t169.5 122t75 202.5v248q-194 -222 -495 -222q-209 0 -368.5 120.5t-159.5 314.5zM296 1321v59q0 47 39 74.5t106 27.5q57 0 97.5 -26.5t40.5 -75.5v-59 q0 -49 -42.5 -78t-97.5 -29q-66 0 -104.5 29t-38.5 78zM829 1321v59q0 47 39 74.5t105 27.5q58 0 98.5 -26.5t40.5 -75.5v-59q0 -49 -43 -78t-98 -29q-65 0 -103.5 29t-38.5 78z" />
<glyph unicode="&#x152;" horiz-adv-x="1514" d="M98 742q0 162 60.5 304.5t156.5 237t216.5 150t239.5 55.5h626q28 0 44 -24t16 -55q0 -79 -60 -79h-523v-417h331q28 0 44.5 -23.5t16.5 -55.5q0 -79 -61 -79h-331v-598h523q28 0 44 -24t16 -55q0 -79 -60 -79h-626l-15 2q-122 17 -236.5 73.5t-210.5 146t-153.5 224.5 t-57.5 296zM256 739q0 -215 139.5 -381.5t320.5 -195.5v1163q-179 -32 -319.5 -205.5t-140.5 -380.5z" />
<glyph unicode="&#x153;" horiz-adv-x="1992" d="M81 528q0 183 97 316.5t234 193t289 59.5q179 0 336 -115q181 115 426 115q209 0 324 -90.5t115 -222.5q0 -142 -134 -242.5t-382 -100.5q-221 0 -421 63q24 -158 147.5 -264t303.5 -106q96 0 199.5 29.5t162.5 86.5q9 16 35 16q30 0 63.5 -26.5t33.5 -54.5 q-53 -108 -207 -158.5t-299 -50.5q-205 0 -358 109q-140 -117 -349 -117q-254 0 -435 165t-181 395zM238 526q0 -151 139 -275.5t322 -124.5q126 0 226 79q-120 156 -120 358q0 183 111 315q-108 61 -219 61q-218 0 -338.5 -132t-120.5 -281zM973 669q161 -71 397 -71 q185 0 280.5 59t95.5 131q0 64 -79.5 107.5t-237.5 43.5q-205 0 -315 -76.5t-141 -193.5z" />
<glyph unicode="&#x160;" horiz-adv-x="1370" d="M96 270q0 31 25.5 65.5t57.5 34.5q10 0 14 -4q79 -79 233.5 -143.5t289.5 -64.5q390 0 390 253q0 98 -72.5 148t-181 57.5t-234.5 20.5t-234.5 34.5t-181 101t-72.5 217.5q0 120 81 207t201 126.5t265 39.5q177 0 330.5 -56.5t225.5 -158.5q3 -4 3 -10q0 -26 -36.5 -52.5 t-63.5 -26.5q-2 0 -28 10q-171 138 -429 138q-98 0 -182 -21t-145.5 -74t-61.5 -132t54 -124t140.5 -57.5t191 -16.5t207.5 -18t189.5 -46.5t141 -113t54.5 -206.5q0 -213 -149.5 -304.5t-388.5 -91.5q-175 0 -343 61t-277 167q-14 14 -14 40zM347 1778q0 28 30 50.5 t62 22.5t59 -28l203 -181l204 181q30 30 62 30q28 0 59 -23.5t31 -51.5q0 -14 -9 -22l-249 -252l-19 -22q-15 -12 -21.5 -19.5t-18.5 -16.5t-21.5 -13t-17.5 -4t-17 3t-15.5 8t-16 13t-16 13.5t-18 18.5t-17.5 19l-245 252q-9 10 -9 22z" />
<glyph unicode="&#x161;" horiz-adv-x="1232" d="M83 203q0 28 24.5 59.5t56.5 40.5q15 0 15 -5q69 -74 196 -116t201 -48t137 -6q277 0 277 168q0 58 -41.5 93t-113 47.5t-143.5 17t-157.5 7.5t-129.5 12q-122 24 -215.5 99.5t-93.5 177.5q0 162 163 248t359 86q132 0 283 -46t225 -142q2 -4 2 -10q0 -28 -25.5 -65 t-47.5 -37q-21 0 -43 33q-102 109 -407 110q-126 0 -238.5 -43t-112.5 -126q0 -71 97.5 -105.5t209.5 -34.5q79 0 132 -2t129.5 -12t128 -32.5t100 -57.5t73 -93.5t24.5 -137.5q0 -108 -67 -181.5t-153.5 -102.5t-181.5 -29q-450 0 -648 192q-15 15 -15 41zM272 1523 q0 28 30 50t62 22t60 -28l202 -181l205 181q30 30 61 30q28 0 59 -23t31 -51q0 -15 -9 -23l-249 -252l-21 -21q-12 -12 -19 -20t-18.5 -16.5t-21.5 -13t-18 -4.5t-16.5 3.5t-15 8t-16 12.5t-16 13.5t-18.5 18.5t-18 19l-245 252q-9 10 -9 23z" />
<glyph unicode="&#x178;" horiz-adv-x="1400" d="M100 945v486q2 28 24.5 44t52.5 16q79 0 79 -60v-466q0 -100 84 -177t181 -108.5t172 -31.5q89 0 189 31.5t182 107t82 178.5v466q0 59 79 60q30 0 52 -16t24 -44v-486q0 -174 -161.5 -300.5t-361.5 -150.5v-435q0 -28 -24 -43.5t-55 -15.5q-79 0 -79 59v437 q-205 28 -362.5 152.5t-157.5 296.5zM294 1746v60q0 47 39 74.5t106 27.5q57 0 97.5 -26.5t40.5 -75.5v-60q0 -49 -42.5 -77.5t-97.5 -28.5q-66 0 -104.5 28.5t-38.5 77.5zM827 1746v60q0 47 39 74.5t105 27.5q58 0 98.5 -26.5t40.5 -75.5v-60q0 -49 -43 -77.5t-98 -28.5 q-65 0 -103.5 28.5t-38.5 77.5z" />
<glyph unicode="&#x17d;" horiz-adv-x="1405" d="M63 71q0 21 16 37l937 1034h-850q-57 0 -58 81q0 32 15 54t43 22h1025q115 0 114 -59q0 -30 -23 -53l-935 -1027h929q28 0 43.5 -23.5t15.5 -55.5q0 -79 -59 -79h-1097q-51 0 -83.5 19.5t-32.5 49.5zM315 1736q0 28 29.5 50.5t62 22.5t60.5 -29l202 -180l205 180 q30 31 61 31q28 0 58.5 -23.5t30.5 -51.5q0 -15 -8 -23l-250 -252l-20 -22q-13 -12 -19.5 -19.5t-18 -16t-21.5 -13t-18.5 -4.5t-17 3.5t-15 8t-15.5 13t-16 13.5t-18.5 18t-17.5 19l-246 252q-8 10 -8 23z" />
<glyph unicode="&#x17e;" horiz-adv-x="1290" d="M43 73q0 14 8 29l896 805h-798q-60 0 -60 79q0 32 16.5 55.5t43.5 23.5h997q81 0 81 -66q0 -40 -34 -85l-861 -756h835q28 0 43 -22.5t15 -54.5q0 -81 -58 -81h-1037q-28 0 -47 10q-40 26 -40 63zM281 1523q0 28 30 50t62 22t60 -28l201 -181l205 181q30 30 62 30 q28 0 58.5 -23t30.5 -51q0 -15 -8 -23l-249 -252l-22 -21q-12 -12 -19 -20t-18.5 -16.5t-21 -13t-18 -4.5t-17 3.5t-15 8t-16 12.5t-15.5 13.5t-18 18.5t-18 19l-245 252q-9 10 -9 23z" />
<glyph unicode="&#x192;" horiz-adv-x="800" d="M-98 -230q0 34 19.5 59.5t50.5 25.5q6 0 29 -2t40 -2q160 11 160 238v701h-71q-28 0 -43.5 23.5t-15.5 55.5q0 79 59 78h71v197q0 453 340 453q146 0 246.5 -89t102.5 -258q0 -34 -22 -52t-55 -18q-34 0 -57 19t-23 49q0 106 -57.5 148.5t-134.5 42.5q-181 0 -181 -238 v-254h341q57 0 57 -80q0 -32 -15 -54.5t-42 -22.5h-343v-643q0 -81 -4.5 -137.5t-23.5 -120.5t-53.5 -103.5t-94.5 -66t-148 -26.5q-68 0 -100 16t-32 61z" />
<glyph unicode="&#x2c6;" horiz-adv-x="834" d="M51 1248q0 12 8 24l246 251q6 6 18 19t18 18t15.5 14t16.5 13t15 7t16.5 3t18.5 -4t21.5 -13t18 -16t19.5 -22l20 -19l250 -251q8 -8 8 -24q0 -28 -30.5 -51.5t-58.5 -23.5q-32 0 -62 30l-204 181l-202 -181q-28 -28 -60.5 -28t-62 22.5t-29.5 50.5z" />
<glyph unicode="&#x2dc;" horiz-adv-x="979" d="M41 1274q0 89 75 151t176 62q49 0 92.5 -16t65 -31t62.5 -50q79 -59 138 -59q61 0 104 32t43 76q0 21 18 34.5t41 13.5q53 0 53 -92q-2 -90 -76.5 -151.5t-174.5 -61.5q-79 0 -142 34q-28 14 -68.5 48.5t-74.5 53.5t-72 19q-62 0 -105 -31.5t-43 -76.5q0 -21 -17.5 -34 t-41.5 -13q-53 0 -53 92z" />
<glyph unicode="&#x2000;" horiz-adv-x="1012" />
<glyph unicode="&#x2001;" horiz-adv-x="2024" />
<glyph unicode="&#x2002;" horiz-adv-x="1012" />
<glyph unicode="&#x2003;" horiz-adv-x="2024" />
<glyph unicode="&#x2004;" horiz-adv-x="674" />
<glyph unicode="&#x2005;" horiz-adv-x="506" />
<glyph unicode="&#x2006;" horiz-adv-x="337" />
<glyph unicode="&#x2007;" horiz-adv-x="337" />
<glyph unicode="&#x2008;" horiz-adv-x="253" />
<glyph unicode="&#x2009;" horiz-adv-x="404" />
<glyph unicode="&#x200a;" horiz-adv-x="112" />
<glyph unicode="&#x2010;" horiz-adv-x="1000" d="M128 567q0 32 15 54t42 22h628q28 0 44.5 -23.5t16.5 -54.5q0 -79 -61 -79h-628q-57 0 -57 81z" />
<glyph unicode="&#x2011;" horiz-adv-x="1000" d="M128 567q0 32 15 54t42 22h628q28 0 44.5 -23.5t16.5 -54.5q0 -79 -61 -79h-628q-57 0 -57 81z" />
<glyph unicode="&#x2012;" horiz-adv-x="1000" d="M128 567q0 32 15 54t42 22h628q28 0 44.5 -23.5t16.5 -54.5q0 -79 -61 -79h-628q-57 0 -57 81z" />
<glyph unicode="&#x2013;" horiz-adv-x="1000" d="M128 567q0 32 15 54t42 22h628q28 0 44.5 -23.5t16.5 -54.5q0 -79 -61 -79h-628q-57 0 -57 81z" />
<glyph unicode="&#x2014;" horiz-adv-x="1447" d="M128 567q0 32 15 54t42 22h1075q29 0 45 -23.5t16 -54.5q0 -79 -61 -79h-1075q-57 0 -57 81z" />
<glyph unicode="&#x2018;" horiz-adv-x="514" d="M118 1276q0 92 80.5 206.5t120.5 114.5q39 0 39 -26q0 -10 -18.5 -71t-18.5 -88.5t16 -35.5q69 -47 68 -138q0 -56 -42 -90t-107 -34q-138 0 -138 162z" />
<glyph unicode="&#x2019;" horiz-adv-x="500" d="M113 1474q0 55 41.5 89t107.5 34q138 0 138 -162q0 -91 -81 -206t-121 -115q-39 0 -38 26q0 10 18 71t18 88.5t-15 35.5q-68 47 -68 139z" />
<glyph unicode="&#x201a;" horiz-adv-x="538" d="M124 145q0 55 41.5 89t106.5 34q139 0 139 -162q0 -91 -80.5 -206t-121.5 -115q-38 0 -38 26q0 10 18 71t18 88.5t-16 35.5q-67 47 -67 139z" />
<glyph unicode="&#x201c;" horiz-adv-x="941" d="M118 1276q0 92 80.5 206.5t120.5 114.5q39 0 39 -26q0 -10 -18.5 -71t-18.5 -88.5t16 -35.5q69 -47 68 -138q0 -56 -42 -90t-107 -34q-138 0 -138 162zM543 1276q0 92 81 206.5t122 114.5q38 0 38 -26q0 -10 -18 -71t-18 -88.5t14 -35.5q69 -47 69 -138q0 -56 -41.5 -90 t-108.5 -34q-138 0 -138 162z" />
<glyph unicode="&#x201d;" horiz-adv-x="925" d="M113 1474q0 55 41.5 89t107.5 34q138 0 138 -162q0 -91 -81 -206t-121 -115q-39 0 -38 26q0 10 18 71t18 88.5t-15 35.5q-68 47 -68 139zM539 1474q0 55 41.5 89t107.5 34q139 0 139 -162q0 -91 -81 -206t-122 -115q-38 0 -38 26q0 10 18 71t18 88.5t-15 35.5 q-68 47 -68 139z" />
<glyph unicode="&#x201e;" horiz-adv-x="943" d="M124 145q0 55 41.5 89t106.5 34q139 0 139 -162q0 -91 -80.5 -206t-121.5 -115q-38 0 -38 26q0 10 18 71t18 88.5t-16 35.5q-67 47 -67 139zM528 145q0 55 42 89t107 34q138 0 138 -162q0 -91 -80.5 -206t-120.5 -115q-39 0 -39 26q0 10 18.5 71t18.5 88.5t-16 35.5 q-68 47 -68 139z" />
<glyph unicode="&#x2020;" horiz-adv-x="894" d="M75 567q0 32 14.5 54t42.5 22h236v897q0 57 81 57q33 0 55 -15t22 -42v-897h234q28 0 44 -23.5t16 -54.5q0 -79 -60 -79h-234v-789q0 -28 -23.5 -43.5t-55.5 -15.5q-79 0 -79 59v789h-236q-57 0 -57 81z" />
<glyph unicode="&#x2021;" horiz-adv-x="1245" d="M79 417q0 32 14.5 54.5t42.5 22.5h407v264h-407q-57 0 -57 81q0 33 14.5 55t42.5 22h407v624q0 57 81 57q32 0 54.5 -15t22.5 -42v-624h405q28 0 43.5 -23.5t15.5 -55.5q0 -79 -59 -79h-405v-264h405q28 0 43.5 -23.5t15.5 -55.5q0 -79 -59 -78h-405v-640 q0 -28 -23.5 -43.5t-55.5 -15.5q-79 0 -79 59v640h-407q-57 -1 -57 80z" />
<glyph unicode="&#x2022;" horiz-adv-x="870" d="M113 683q0 145 102 226t232 81q116 0 212.5 -86.5t96.5 -220.5q0 -126 -86.5 -213.5t-226.5 -87.5q-136 0 -233 89t-97 212z" />
<glyph unicode="&#x2026;" horiz-adv-x="1496" d="M128 106v60q0 47 39.5 74.5t104.5 27.5q58 0 98.5 -26.5t40.5 -75.5v-60q0 -49 -42.5 -77.5t-98.5 -28.5q-65 0 -103.5 28.5t-38.5 77.5zM607 106v60q0 47 39 74.5t106 27.5q57 0 97.5 -26.5t40.5 -75.5v-60q0 -49 -42.5 -77.5t-97.5 -28.5q-66 0 -104.5 28.5t-38.5 77.5 zM1086 106v60q0 47 39.5 74.5t105.5 27.5q58 0 98.5 -26.5t40.5 -75.5v-60q0 -49 -43 -77.5t-98 -28.5q-65 0 -104 28.5t-39 77.5z" />
<glyph unicode="&#x202f;" horiz-adv-x="404" />
<glyph unicode="&#x2030;" horiz-adv-x="2876" d="M79 935q0 160 114 250.5t258 90.5q128 0 236 -96t108 -245q0 -138 -96 -237.5t-252 -99.5q-151 0 -259.5 99.5t-108.5 237.5zM236 932.5q0 -63.5 65 -120t144 -56.5q75 0 133 56.5t58 122.5q0 63 -55 123t-136 60q-93 0 -151 -61t-58 -124.5zM656 81q0 19 35 79l525 1084 q10 19 42 19q41 0 69 -24.5t28 -56.5q0 -28 -18 -58l-540 -1105q-11 -21 -49 -21q-32 0 -62 25.5t-30 57.5zM1212 296q0 161 113.5 250.5t259.5 89.5q128 0 235 -95.5t107 -244.5q0 -138 -95.5 -237.5t-250.5 -99.5q-151 0 -260 99.5t-109 237.5zM1370 294q0 -64 65 -120 t144 -56q75 0 133 56t58 122q0 64 -55.5 123.5t-135.5 59.5q-94 0 -151.5 -60.5t-57.5 -124.5zM2085 296q0 161 114 250.5t259 89.5q127 0 235 -95.5t108 -244.5q0 -138 -96 -237.5t-252 -99.5q-150 0 -259 99.5t-109 237.5zM2243 294q0 -64 64.5 -120t143.5 -56 q75 0 134 56t59 122q0 64 -56 123.5t-137 59.5q-93 0 -150.5 -60.5t-57.5 -124.5z" />
<glyph unicode="&#x2039;" horiz-adv-x="1019" d="M61 662q0 47 71 100l677 527q13 4 22 4q32 0 55 -32t23 -64q0 -34 -31 -51l-608 -481l608 -501q32 -16 31 -51q0 -32 -23.5 -64t-54.5 -32q-8 0 -22 4l-677 544q-71 47 -71 97z" />
<glyph unicode="&#x203a;" horiz-adv-x="1019" d="M110 113q0 35 32 51l608 501l-608 481q-32 17 -32 51q0 32 24 64t55 32q9 0 22 -4l677 -527q71 -46 71 -100q0 -50 -71 -97l-677 -544q-12 -4 -22 -4q-32 0 -55.5 32t-23.5 64z" />
<glyph unicode="&#x205f;" horiz-adv-x="506" />
<glyph unicode="&#x20ac;" horiz-adv-x="1477" d="M92 567q0 32 15 54t42 22h24q-7 55 -7 113q0 45 2 67h-19q-57 0 -57 80q0 32 15 54.5t42 22.5h52q75 238 286.5 386t469.5 148q191 0 355 -132q17 -14 17 -38q0 -35 -27.5 -63.5t-57.5 -28.5q-21 0 -37 16q-101 89 -255 89q-212 0 -363.5 -105.5t-220.5 -271.5h750 q28 0 44 -23.5t16 -55.5q0 -79 -60 -78h-788q-4 -43 -4 -65q0 -68 11 -115h781q28 0 44 -23.5t16 -54.5q0 -79 -60 -79h-730q73 -156 218.5 -252t348.5 -96q187 0 303 134q24 24 41 24q32 0 61.5 -32t29.5 -61q0 -19 -14 -35q-164 -187 -411 -187q-281 0 -477 140.5 t-275 364.5h-64q-57 0 -57 81z" />
<glyph unicode="&#x2122;" horiz-adv-x="2087" d="M122 1409.5q0 23.5 8 51.5t23 28h699q14 0 25 -29t11 -50q0 -24 -10.5 -51.5t-25.5 -27.5h-266v-654q0 -15 -29 -24.5t-52 -9.5t-51 9.5t-28 24.5v654h-273q-13 0 -22 27.5t-9 51zM1037 677v780q0 15 34.5 25.5t58.5 10.5q56 0 67 -15l287 -398l288 398q0 4 24.5 9.5 t34.5 5.5q26 0 60 -11.5t34 -24.5v-780q0 -15 -26.5 -24.5t-47.5 -9.5q-26 0 -52.5 9.5t-26.5 24.5v556l-219 -298q-30 -43 -71 -43t-70 43l-217 298v-556q0 -15 -29.5 -24.5t-49.5 -9.5q-26 0 -52.5 9.5t-26.5 24.5z" />
<glyph unicode="&#xe000;" horiz-adv-x="1064" d="M0 0v1065h1065v-1065h-1065z" />
</font>
</defs>
</svg>
