<?xml version="1.0" standalone="no"?>
<!DOCTYPE svg PUBLIC "-//W3C//DTD SVG 1.1//EN" "http://www.w3.org/Graphics/SVG/1.1/DTD/svg11.dtd" >
<svg xmlns="http://www.w3.org/2000/svg">
<metadata>
This is a custom SVG webfont generated by Font Squirrel.
Copyright   : COPYRIGHT ESSELTE LETRASET LTD 1990 
</metadata>
<defs>
<font id="PapyrusLETPlain" horiz-adv-x="1866" >
<font-face units-per-em="2048" ascent="1638" descent="-410" />
<missing-glyph horiz-adv-x="464" />
<glyph unicode=" "  horiz-adv-x="464" />
<glyph unicode="&#x09;" horiz-adv-x="464" />
<glyph unicode="&#xa0;" horiz-adv-x="464" />
<glyph unicode="!" horiz-adv-x="535" d="M301 1449l18 -1l11 14q21 -12 24 -22l-5 -29l-4 -47l-12 -23l11 -57l-16 -4l5 -50l9 -10l1 -22l2 -28l-5 -50l4 -24l-16 -52l1 -12l7 -6l-2 -22l-7 -140l-11 -35l3 -29l20 -34l-4 -38l-2 -46q-6 -10 -15 -19l25 -59l7 -55l4 -21l-14 -15l-21 -46q-6 -13 -40 -34l-18 8 l-49 -3l-18 10q-19 9 -19 25l2 8l40 60l10 100l6 38h23q9 17 9 26t-10 26l-28 -6l-7 85l24 67l-8 27l-8 16l-5 118l-2 26l-10 4v20l31 -2l8 9q-14 20 -39 26l-1 9l3 64l-10 57l3 24q-23 17 -34 34q-12 17 -12 35q0 37 46 71t95 34zM158 97l-21 6q5 20 14 25l63 37l35 33 q8 5 24 9l26 -26l72 -49q24 -16 28 -53l-8 -14l-17 -29l-60 -45l-17 -19l-30 14l-27 34l-39 36l-22 34q-6 4 -21 7z" />
<glyph unicode="&#x22;" horiz-adv-x="665" d="M400 1132l-19 2l-1 43l38 25l86 69q7 7 21 7l17 -2l-2 -19l-1 -108l-13 -54l-6 -34l9 -7l1 -52l-6 -48l-18 -63l2 -9l-6 -4l-2 4l-47 -27l-14 16l-16 93l3 131zM142 1132l-18 2l-1 43l38 25l86 69q7 7 21 7l17 -2l-2 -19l-1 -108l-13 -54l-6 -34l9 -7l1 -52l-6 -48 l-18 -63l2 -9l-6 -4l-3 4l-46 -27l-14 16l-16 93l2 131z" />
<glyph unicode="#" horiz-adv-x="1740" d="M392 1474l-4 -33l3 -98l-4 -31q13 -13 13 -26q0 -20 -20 -46l16 -16l1 -28q0 -26 -17 -49l-13 5v-33q21 -9 26 -19q6 -10 6 -39l-3 -22l4 -29l7 -9l20 10l27 14h47l123 46l35 -8l48 46l51 15l76 48l230 120l85 55l26 13q7 27 21 38q10 9 58 32l3 26l56 87v32l14 6l26 -13 l17 38l-29 37l-11 -3l-16 12l-19 52l-23 15l-20 25l-35 10l-38 -1l-45 21l-25 28l-17 4l-18 -6l-20 10l-32 -15l-14 5l-29 21l-29 12l-9 -2l-47 -19l-59 7l-18 -8l-23 -2l-208 6l-68 -19l-70 -26q-39 -6 -53 -12q-13 -7 -13 -22l6 -123l-7 -13l-5 -42l-23 -27l-8 -21 q46 -20 47 -36zM426 84l-11 -54l4 -61l1 -32l9 -22l7 -24l-17 -17l-12 -43l-48 -29l-31 -21l-32 -6l-12 -22l-27 -13l-47 -19q-27 0 -27 18l19 36l22 253l12 45q33 0 33 15l-4 18l1 22q-30 0 -32 17l5 63v107l10 19l10 39l-5 15l-17 24l-5 17l4 16l17 208l-3 59l13 17l14 25 l-50 21l-1 41q0 48 12 61l29 39l6 18q0 16 -6 23q-7 7 -18 7l-17 -2l-3 16l9 31l-16 31l7 24v41l6 92v2l-2 76l-4 32l20 22l-4 20l-6 43l-19 39l1 37l-4 100l7 49l-24 62l5 62l-3 25q-45 11 -45 35v7l49 18l76 47l56 19l11 -1l2 -19l34 7l26 -16l25 4l92 10l108 15l96 -12 l154 6l29 -12l45 -3l28 -3l33 17l62 -9l71 -2l51 -7l25 -8l112 -6l65 -18l25 -24l41 -23l14 -15l-11 -33l7 -8l15 13l8 -1l11 -27l8 -30l-3 -38l-18 -80l-19 -31q-25 -38 -40 -52q-21 -19 -51 -37q0 -26 -7 -36q-6 -9 -47 -34l-20 -15l-4 6q-44 -71 -182 -140l-43 -15 l-33 11q-8 -17 -14 -22q-7 -6 -27 -12l3 -27l-22 -11l-113 -47l-50 -28l-16 3l-10 -6l95 -89l-4 -32l6 -21l45 16l13 -32l38 -39l20 -30l12 -24l-5 -12l25 -26l21 -1l13 -38q38 -26 38 -45q0 -11 -17 -25q21 -36 41 -36l15 1l29 -40l18 -8l17 -33l76 -96l6 -19l70 -90 l10 -19l-21 -35l23 -43l40 -13l18 9l22 -32q1 0 11 -14l17 -23q31 -42 35 -46q3 -4 29 -34q24 -28 50 -55l10 -11l-14 -9l3 -16l16 -5l5 -14l-16 -4q38 -33 64 -33l23 2l9 -15l-6 -14l18 -10l14 -11l25 -4l33 -26l33 -35l120 -83l36 -38l31 -6l67 -54l120 -37q38 -14 57 -48 l21 -3l37 -2l39 -17l129 -16l29 -9l26 -6q28 28 54 28l61 -7l44 26l62 14l53 43l31 7l60 61q30 -9 30 -28q0 -17 -24 -60q-9 -15 -11 -17q-5 -3 -19 -6l5 -14q-17 -35 -58 -44l-64 -15l-42 -11l-31 -22l-22 13q-46 -24 -86 -24q-25 0 -50 13l-17 -10l-37 2l-100 4l-96 15 q-131 18 -177 52l-27 19l-113 41l-36 34l-21 35l-19 15q-28 -9 -40 -9q-26 0 -48 16l-27 19l-88 58l-21 33l-33 2l-17 32l-19 27l-60 32l-26 28l-46 46l-19 47l-15 17l-4 -26l-42 46v15l-14 45l-16 -3l-13 19l-50 48l-7 17l-25 25l-45 73l-27 20l-13 34h22l-18 19 q-28 31 -43 40t-56 21l-9 25l-27 25l-17 37l-60 70q-19 23 -33 48q-15 26 -15 37l3 20l-11 22q-6 16 -22 16l-26 -4q-55 75 -118 128l-78 65l-28 27l-59 14l-17 10l-59 -14q-40 -8 -60 -16q-26 -12 -49 -31l10 -10l-4 -24l-2 -84l-5 -31l11 -35l-6 -40v-47l-24 -22l-19 -25 l11 -53l19 6l18 -15l-5 -133l8 -160l5 -29l25 -39q0 -22 -52 -26l6 -46q31 0 31 -15z" />
<glyph unicode="$" horiz-adv-x="1093" d="M526 550l-1 -7l13 -24l14 -5l7 -128h-15v-12l-13 -6q3 -19 8 -28q3 -5 25 -17l-2 -22l-8 -64l-4 -45l17 -27l37 -2l25 28l92 56q18 10 46 60q25 41 26 76l3 57l7 25l24 -6l9 26l-5 11l-51 36l-17 48l-24 21l-19 49l-15 5q-17 0 -30 -25l-26 8l-85 20l-10 -1l-3 -44l2 -33 q0 -11 -6 -17q-5 -5 -21 -13zM299 943l11 -17l25 -10l45 -39q20 -17 79 -17h24l5 62l-5 52l14 8l-1 27l-18 17q0 26 12 45l-5 16l4 15l-31 5q-55 0 -116 -76q-46 -55 -46 -78zM170 837l-8 64l12 34l15 25l12 -1q14 0 21 7q7 6 16 25q-20 20 -20 31q0 12 35 26l21 8l-3 26 l26 22q49 43 77 43l23 -2q16 21 24 26q7 5 44 16l20 7l3 63l-5 35l-12 34q0 19 39 25l4 5l40 3l1 -51l-1 -44q0 -27 11 -47t26 -20l28 7l22 3l51 -7l87 -13q6 -16 12 -19q7 -4 21 -5l1 -10q0 -19 -21 -39q-21 -19 -75 -48l-18 22v14l-13 -3l-6 8q-33 0 -51 2q-8 1 -70 16 l-8 -16l5 -54l-22 -44l7 -21h13l1 -144l58 -23q4 -19 11 -24q6 -6 24 -7l12 19l41 -6l15 -21q57 -6 107 -27q49 -21 81 -55q34 -36 44 -74h-22l-3 -16l7 -5v-11l40 -20l6 -25l2 -38q0 -17 -11 -37l-8 6l-14 -4l5 -34q0 -65 -80 -154l-26 -37l-35 -22l-106 -90l-40 -16 q-45 -21 -99 -21l-5 -24l3 -152q0 -13 -11 -21q-10 -8 -36 -19q-12 0 -20 3q-9 2 -16 12h-15l-2 52l6 45l11 33l-10 23q-7 13 -23 24q-14 10 -24 10l-61 -4l-85 35l-24 3l-20 5l-8 32l-8 2l-9 16l-15 2l-43 -13l-30 22l-22 19q-49 40 -49 58q0 11 4 20l5 15l5 31l19 33l3 27 q23 -6 34 -14q13 -11 22 -31l-1 -15l20 -17q32 -22 40 -31q9 -11 15 -29l23 -9l26 -22l64 -20l43 -28q32 -22 61 -22q48 0 51 85l1 19l-2 38l9 194h-8l-3 27l1 109l-11 43l-17 7l-23 26q-9 10 -46 10l-30 1l-16 21l-17 5l-31 -12l-52 27l-15 14l-41 31l-12 16z" />
<glyph unicode="%" horiz-adv-x="1560" d="M816 351l1 -8l10 -3l4 -19l-4 -13l-1 -21q0 -24 7 -34q9 -13 30 -28q-12 -15 -12 -23q0 -11 7 -18t18 -7l17 3l51 -40q0 -21 16 -30l20 5q58 -29 81 -29q36 0 79 21l74 35l51 56l24 15l27 56l22 23l-12 14l17 50l-12 14l8 16l3 23l-25 19l-16 19q13 16 13 25q0 6 -14 23 l-24 -8q-10 21 -22 33q-10 8 -36 16l1 35l-19 8q-4 -12 -9 -15q-7 -4 -18 -5l-4 7h-12l-12 17l-82 12l-20 -14l-33 -8l-23 -22l-46 -21l-21 -14l-15 -16q-17 -17 -42 -46q-11 -13 -16 -27q-5 -16 -8 -35q-24 -9 -24 -27zM253 1054l-26 -11v-40l8 -5l2 -23q0 -35 6 -46 q5 -12 30 -27l-11 -31l14 -32q24 0 33 -4q14 -6 26 -17l23 -21l-1 -14l23 -9l78 -22l21 -2l20 5l68 20l25 16l32 12l15 18l24 22l11 21l25 16l19 41l23 32l-1 28l11 33l-9 39l6 21l-15 5l-20 38l7 17l-11 18l-11 -2l-24 19l-52 33l9 21l-16 19l-28 -18l-38 22l-29 4l-32 3 l-12 -1l-24 -9l-35 -4q-34 -43 -51 -48l-27 -6l-45 -48l-28 -26q-13 -16 -13 -46v-11zM1428 479l9 -40l-5 -48l1 -57l-41 -76l-55 -71q-15 -15 -47 -24l4 -20l-21 -16l-75 -54l-34 -16l-13 -13q-17 -14 -56 -22l-128 -33l-31 23l-13 -9l-52 25l-29 7l-21 10l-8 23l-33 31 l-18 25h-17l-10 41l9 3l-9 30h-9l-10 80l-1 11q20 20 20 28l-6 40l-2 21l41 10l20 35l15 41l32 32l18 22l21 16l86 73l33 15l6 14l33 15l77 13q26 5 67 26l20 -9l67 -18l29 -13l6 7q32 -8 36 -19l27 -51l40 -22zM1134 1228l-12 -19l-5 -32l-32 -46l-18 -21l5 -20l-11 -22 l-41 -59l-9 -26l-37 -20l1 -31l-15 -22l-63 -92l-63 -125l-21 -29l-54 -78l-11 -23l-23 -4l-3 -5l8 -7l-17 -60q-46 -16 -49 -41l-7 -50l-33 -57l-20 -59l-31 -41l-13 -66l-36 -39l2 -29l-23 -42q-28 -34 -50 -40l-41 -11l-59 -24q-12 1 -21 10q-8 8 -8 16q0 11 13 30l31 52 l6 13l44 15q13 4 13 46q12 12 15 18l18 25l23 18l-11 24l10 20q19 37 51 61v21l37 26q2 33 15 58q13 24 59 75q19 22 22 38l6 32l32 23l33 64l51 84l6 24l17 3l17 -10v17l-13 13q6 28 10 32q1 2 42 38q18 18 19 32l2 42l34 51l9 48l47 64l3 60l34 32l1 31q3 27 54 74l20 16 l17 3l78 31l7 2q12 0 32 -20l-38 -78q-22 -34 -56 -34zM131 928l-8 8l23 49l-3 25l-5 17l6 19q24 0 31 13l41 73q14 26 55 34l-2 9h-9l19 17l39 40l55 38l29 15l2 13l25 7l54 20l37 2l69 25l16 -10l107 -17l21 -11l35 -59l16 -17l11 1l18 -5l7 -21q14 -59 16 -63 q4 -10 12 -22l-4 -28l1 -91q0 -20 -92 -154q-12 -19 -37 -20l-8 -10l1 -11l-19 -19l-32 -30l-79 -44l-5 -14l-11 -4l-72 -21l-55 -13l-43 -15l-48 19l-18 -1l-13 2l-25 13l-16 -1q-24 0 -47 47q-19 7 -32 17q-10 7 -21 23q-1 2 -32 53l11 3l-5 30h-14l-6 48z" />
<glyph unicode="&#x26;" horiz-adv-x="1601" d="M947 888l42 -12l-33 -80l-30 -11q-39 -11 -47 -16q-13 -9 -22 -26l-34 11l-18 15l-21 11l-31 -11l-28 9l-14 -11l-55 6l-56 -27l-43 4l-24 -8l15 -25l-38 -7l-58 -34l-41 -20l-75 -91q-13 -12 -39 -15q-3 -14 -11 -36l-20 -43l-16 -57v-36l-9 -21l10 -22l9 -57l18 -33 l10 -26l24 -22l17 -30l71 -71q32 -35 68 -45l62 -14l72 -7l33 3l5 -10l22 5l55 -1l29 14l29 8l105 42l33 6l6 17q53 32 79 55q27 23 63 72l18 31l6 48l6 37q-1 25 -46 55l-70 55q-28 29 -39 36q-12 7 -41 14l-49 25l-33 6l-53 -13l-35 -8q-17 -3 -27 -28l-25 -45l-22 -23 l11 -47v-2q0 -7 -11 -15q-14 -11 -30 -11q-8 0 -14 6l-14 12l-26 16q-15 12 -15 35q0 28 18 44l45 38l58 52l67 24l98 41l40 8l40 -2l77 -23l56 -30l3 -21l12 -26l20 -7l9 17l-8 18l24 -14l62 -39l46 -19q26 0 51 11q26 12 75 43q22 14 27 19q6 5 6 11l13 84q0 29 -45 84 q10 16 15 20t18 7l34 12l18 -17l9 -13l45 -18q12 -9 21 -39h27q0 -67 -25 -138l-22 -11l-58 -58l-54 -33l-29 -4l-19 -14l-63 -16q-30 -7 -30 -35l13 -42l-19 -13l-6 -28q-3 -23 -8 -33q-4 -9 -17 -9l-34 6q2 -23 16 -39l-18 -25l-24 -15l-18 -23l-65 -40l-12 -19l-42 -11 l-81 -46l-84 -37l-97 -29l-77 -9l-66 -14l-26 3l-2 -9h-33l-30 17q-10 -6 -12 -20h-16h-9q-45 0 -66 9t-32 33l-10 -2l-11 12h-9l-5 -21q-18 0 -30 5q-15 6 -29 17q-49 42 -67 64q-24 27 -39 64q11 20 11 31l-2 11l-14 15l-38 20l-6 26l1 16q14 0 22 5q6 4 14 19l-14 17 l-15 -2q-18 0 -18 33q0 22 12 50l30 66l21 43l18 21l22 35l19 12l36 41l34 16l33 52l36 33l6 24l61 27l19 20l18 15q-35 15 -48 29t-14 45l-40 -8l-66 74l5 27q0 15 -23 26l23 50l-8 4l-1 16q0 30 28 58q19 1 24 5q4 3 15 23q13 22 44 47t55 31l7 22l42 5l23 25l122 46 l53 32l70 4l96 17q43 -3 56 -42l30 -10l12 -43q16 -15 17 -29v-1q0 -15 -28 -30l-18 9l-71 18l-26 9l-26 -9l-31 15l-3 -11l-25 -6l-38 10l-57 -17l-2 6l-29 7l-18 -7l-57 -19l-23 -15l-20 -7l-84 -69q-21 -11 -26 -19q-5 -9 -20 -65l-7 -23l25 -24l21 -18l5 -20l32 -20 l25 -18l140 -33l26 -11l22 3l116 -4l51 19l55 2z" />
<glyph unicode="'" horiz-adv-x="407" d="M142 1132l-18 2l-1 43l38 25l86 69q7 7 21 7l17 -2l-2 -19l-1 -108l-13 -54l-6 -34l9 -7l1 -52l-6 -48l-18 -63l2 -9l-6 -4l-3 4l-46 -27l-14 16l-16 93l2 131z" />
<glyph unicode="(" horiz-adv-x="891" d="M412 1100l16 60l15 19l25 53l15 16l13 44l40 25l54 59l46 38l33 49l70 51l37 37q23 17 43 17q9 0 28 -10q-6 -7 -6 -10l16 -47l-12 -24l-18 -35l-27 -19l-65 -10l-36 -19l-18 -19l-38 -29l-41 -49l-58 -50l-22 -50l-68 -111l-17 -67l-20 -50v-29l-24 -110l10 -72l2 -19 l-5 -22l-10 -19l15 -73l-4 -23l18 -65l-5 -29l33 -83l2 -34l36 -66l6 -31l20 -38l3 -12l-2 -10l8 -11l-2 -29l4 -20l56 -46l42 -56l30 -35q-13 -16 -13 -28q0 -20 16 -23l42 -5l64 -44q22 -10 65 -12l25 -2q17 -24 20 -41l-6 -6l-18 4l-26 -55l8 -17q12 -20 12 -30 q0 -16 -37 -53l-26 13l-43 32l-57 31l-20 17q-15 5 -18 7q-7 4 -33 28l-17 14v8l-26 24l-42 51l-14 16l-22 35l16 9v9q-27 5 -41 20q-39 43 -54 106l-11 45l-30 69l-9 19l8 7l3 19l-10 8l10 11l-17 7l-6 35l-25 78l-2 69l-12 29l3 37l-6 68l4 50l-5 25l8 42l10 103l25 37 l-4 28q0 24 23 38l16 61z" />
<glyph unicode=")" horiz-adv-x="891" d="M488 242l-16 -60l-15 -19l-25 -53l-15 -16l-13 -44l-40 -25l-54 -59l-46 -38l-33 -49l-70 -51l-37 -37q-23 -17 -43 -17q-9 0 -28 10q6 7 6 10l-16 47l12 24l18 35l27 19l65 10l36 19l18 19l38 29l41 49l58 50l22 50l68 111l17 67l20 50v29l24 110l-10 72l-2 19l5 22 l10 19l-15 73l4 23l-18 65l5 29l-33 83l-2 34l-36 66l-6 31l-20 38l-3 12l2 10l-8 11l2 29l-4 20l-56 46l-42 56l-30 35q13 16 13 28q0 20 -16 23l-42 5l-64 44q-22 10 -65 12l-25 2q-17 24 -20 41l6 6l18 -4l26 55l-8 17q-12 20 -12 30q0 16 37 53l26 -13l43 -32l57 -31 l20 -17q15 -4 23 -9q1 -1 28 -26l17 -14v-8l26 -24l42 -51l14 -16l22 -35l-16 -9v-9q27 -5 41 -20q39 -43 54 -106l11 -45l30 -69l9 -19l-8 -7l-3 -19l10 -8l-10 -11l17 -7l6 -35l25 -78l2 -69l12 -29l-3 -37l6 -68l-4 -50l5 -25l-8 -42l-10 -103l-25 -37l4 -28 q0 -24 -23 -38l-16 -61z" />
<glyph unicode="*" horiz-adv-x="770" d="M68 1042v15q20 29 24 50q4 20 4 96h17l21 -21l30 -40q14 -17 56 -30l4 -8l10 3l6 18q50 -48 99 -48l14 1v13l-14 5l-10 35l-12 56q0 13 17 36l-4 12q-49 13 -49 63q0 12 16 28l39 -3l32 1q39 0 88 20q8 -8 8 -17v-8l-21 -42q-23 -33 -27 -40q-5 -12 -5 -24l2 -28h18 l-6 -24l-13 -63l3 -26l12 -6l8 20l31 17q48 30 67 30l24 -3q3 30 18 50q15 19 38 19q12 0 18 -11q4 -10 18 -62q6 -23 38 -64l15 -19l-4 -11l-43 1l-35 17h-84l4 -25l-15 -3l-38 2h-4q-21 0 -59 -26l4 -15l24 3q27 -35 47 -47q28 -16 28 -33l-3 -21l27 4q26 0 45 -12 q19 -13 19 -30q0 -10 -7 -16q-5 -4 -58 -43q-16 -11 -44 -51l-12 -19l-12 4l-19 66q6 15 6 25q0 16 -32 63l-23 -13q-3 43 -14 65q-11 21 -38 38l-15 -6v-13l10 -3q-12 -90 -67 -108q15 -30 15 -46q0 -21 -11 -35q-12 -14 -26 -14q-10 0 -19 6l-66 47l-62 19v13l17 14 q19 17 28 22q8 3 26 3l58 53l-20 16q41 20 60 39q18 18 25 46l-15 4l-6 -11l-28 4l-51 3q-18 2 -24 6q-2 2 -12.5 10t-18.5 13q-10 -33 -40 -33q-16 0 -33 9q-18 8 -19 18z" />
<glyph unicode="+" horiz-adv-x="2318" d="M940 893l-51 -22l-49 18l-77 16l-41 19l-74 5l-34 17l-51 20l-80 70q-73 79 -73 129l3 41l-12 39l14 35l6 71q5 36 38 72l35 37l49 59l57 40l57 47l200 90l111 53l104 37l123 30l106 27l89 9l59 5l145 13l54 3l71 -9l129 -28q32 -6 43 -15q10 -10 10 -37l-26 -16l-61 -47 q-2 0 -3 1l-33 11l-40 2l-65 20l-39 -2l-77 16l-48 5l-75 -10l-59 16l-18 -2l-62 -20l-100 -15l-109 -32l-33 8h-11q-21 0 -47 -15l4 -11l-12 -19l-21 -9l-86 -31l-18 -21l-63 -23l-54 -35l-24 1q-24 -1 -39 -36q-44 -16 -74 -49q-25 -28 -42 -65q-17 -39 -17 -64l2 -49 l2 -38q4 -20 64 -77l59 -41l93 -31l54 -62l24 -11l33 14l17 -4v10q0 24 18 24l35 -3l32 4l84 -18l53 5q28 0 56 -11q26 -11 26 -25l-2 -13l51 -2q-13 10 -13 21q0 6 8 12q8 5 13 5l115 -6l151 4l21 -5l21 -2l5 -16l-8 -26l28 -11l22 6l6 17l34 -5q31 22 64 22q56 0 107 -25 l46 -21l147 -47l19 -16l77 -48l25 -27l-1 -21l-9 -19l6 -16l30 -4q32 -43 32 -76l-2 -39l16 -79l5 -39q0 -97 -11 -117l-14 -22l3 -42l-13 -21l-3 -33l-42 -87l-17 -54l-20 -36l3 -13l-29 -56l-25 -34l-78 -101l-90 -86q-37 -52 -51 -52l-22 6v12l-11 -2l-36 -28l5 -18 q0 -20 -44 -44l-83 -44q-93 -50 -137 -56l-68 -7l-252 -54l-32 2l-43 -4l-44 17l-63 -4q-17 3 -30 22q-13 -20 -27 -27q-13 -7 -43 -7l-9 18l-136 5q-16 40 -49 40q-21 0 -30 -28q-48 27 -79 34q-90 22 -107 29q-16 6 -16 18l2 14q-27 6 -35 14q-10 10 -22 38l-16 -2l-3 -36 l-81 22l-121 97l-24 19l-10 25l-39 43l-34 43l-41 56l1 16q16 19 24 35q7 14 15 41l41 45q3 19 8 26t20 11l10 -15l14 3l26 -55l-8 -12l11 -39l-4 -37q0 -35 41 -91l6 12l24 1l7 -34l31 -56l21 -16l53 -45l45 -26l79 -23l84 -45l28 -2l79 -30l85 -18l62 -10l172 -10 q97 0 163 17l6 -6l49 8l21 -2l-3 -11l17 -6l33 11q7 28 23 29l47 3l55 17l47 10l50 21l76 22l37 22l71 46l33 32l28 24l34 51l68 82l11 42l38 68l6 24l22 8l11 4q4 1 6 1q3 1 6 2.5t4 1.5q2 1 6 7q2 3 7 16l-8 8h-25l18 51l-19 28l20 36l5 19l33 186l22 -3l3 15h-13 q-23 0 -28 14l-24 86l-20 44l17 26l-3 15q28 0 28 18q0 20 -35 28q-16 -24 -30 -24l-45 28l-73 29l-24 18l-71 19l-49 8l-48 17l-24 13l-16 -7l-6 13l-2 -6l-23 -11q-39 19 -63 19h-9l-75 -10q-17 0 -20 28l-40 3q-20 -26 -44 -26h-5l-199 13l-61 -5q-18 5 -23 29l-44 8z " />
<glyph unicode="," horiz-adv-x="570" d="M137 -401l-30 9q5 21 11 26q7 6 27 7l6 8l13 -4q16 0 39 26q49 7 58 31l7 19l34 35l15 71l13 21l-10 6l-1 10l2 12l6 16l-11 29l-21 75q-5 13 -36 23l-14 16q-12 20 -20 26q-7 3 -33 3l-25 3l1 20l24 23l40 34l24 33l28 23q31 -7 45 -14q15 -11 25 -23l25 -27l10 -55 l19 -87l1 -13l-4 -19l-11 -20v-85q-2 -27 -21 -52l-28 -39q-4 -7 -7 -22l9 -11l-11 -17q-31 -50 -49 -70q-12 -13 -56 -44l-14 -5l-47 5z" />
<glyph unicode="-" horiz-adv-x="942" d="M374 519h13q3 -41 30 -41q15 0 29 29q21 0 37 12l30 -12l112 -4l86 -15l85 23l24 -5l38 45l15 -19l-13 -23l-9 -22l-36 -34l-17 -19l-30 -15l-62 -46q-17 -11 -35 -11t-27 4l-31 10l-13 3l-44 -6l-19 -3l-27 6q-48 13 -73 13h-4l-76 -4h-2l-64 16l-17 7q-18 0 -24 -2 l-36 -8l-13 5l-20 -19q-22 8 -33 8q-20 0 -44 -31q-36 2 -36 21q0 26 39 54l73 56l50 29l61 5l39 6l31 -12z" />
<glyph unicode="." horiz-adv-x="570" d="M172 81l-22 6l9 20l24 17l49 35l24 29l21 13q44 -33 69 -45l28 -12q29 -12 46 -59l-29 -54l-17 -12q-23 -16 -28 -21q-10 -12 -16 -28q-26 0 -37 11l-98 94z" />
<glyph unicode="/" horiz-adv-x="1083" d="M0 -248l20 26l21 35l56 74l27 1l8 15l14 46l64 110l19 47q11 24 18 27l22 14l-5 33l85 127l13 26l11 27q20 3 24 7t4 17q0 17 -1 24l40 81q10 30 26 43q32 29 32 41q-1 4 -10 17l25 37l19 55l29 45q17 36 21 40t24 13q6 2 9 4q3 1 6 2.5t4 1.5l-16 25q0 23 2 33 q40 1 40 19l-11 35l24 44l5 20q11 -4 22 -4t15 12q4 11 4 53l12 41l39 72l10 25l13 -3l16 29l-5 45l10 27l14 49l33 69l11 54l4 20l17 4q0 3 -1 6q-2 4 -3 5q-2 10 -2 9q0 6 8 11l18 -9q1 3 1 18q-3 7 -23 24q9 33 33 47q22 12 80 15l42 5l30 -11l16 -31l-13 -13l-18 -40 l-41 -69l-28 -96l-143 -269l-14 -55l-96 -158q-1 -8 -2.5 -15t-3.5 -14.5t-2.5 -11t-1.5 -8.5q-3 -16 -7 -21q-4 -6 -14 -10q-6 -2 -13.5 -5.5t-21.5 -9.5l11 -22l-12 -31q-19 8 -26 8q-16 0 -16 -39l13 -6q2 -14 2 -11q0 -5 -3 -11l-14 -24l-41 -63l-28 -77l-17 -29 q-10 6 -14 6q-9 0 -19 -16q-1 -3 -12 -14l13 -20l-10 -22q-37 -1 -37 -18q0 -1 2 -9q6 -14 14 -22l-73 -141l-37 -13q8 -21 8 -28q0 -9 -5 -17l-56 -93l-19 -56l-17 -31l-14 -29l-20 6l-7 -10l-7 -26l-6 -43l-17 -47l-2 -21q-17 -9 -21 -16q-6 -11 -10 -25q-54 -18 -100 -18 q-41 0 -67 29z" />
<glyph unicode="0" horiz-adv-x="1357" d="M799 1175l-45 -6l-62 10l-28 3q-95 0 -114 -16l-16 -13l-78 -29q-41 -25 -81 -82l-30 -26l-29 -65l-37 -43l-11 -46l-27 -57l-13 -89l-12 -53l-1 -31l3 -110q5 -30 19 -64q13 -36 30 -59l44 -58q28 -40 28 -47v-3l-6 -31l4 -17l14 -17l25 -7l11 15l19 -14l68 -42l24 -4 l22 -8l-6 -21q5 -10 11 -16q5 -5 17 -9l18 4l-2 18q49 -31 73 -31l47 -2l58 -7l59 22l94 13l23 14l43 46l29 17l32 47l48 47l22 71l29 32v43l13 27l2 11q0 13 -19 28l15 9q2 12 15 18v8q0 18 -23 29q8 72 8 111q0 96 -13 129l-21 58l-7 24l16 17l-26 41l-12 -21 q-26 20 -35 37q-8 14 -11 49l-26 10q-13 -6 -24 -6q-5 0 -11 2q-4 2 -12 12q-2 4 -8 12l-11 14l4 20q0 16 -9 17l-47 15l-12 15l-29 14zM879 1273l30 -2q0 -22 6 -33q4 -9 23 -22l13 40l18 -8l72 -21l11 -15l-3 -19l38 -10l14 -20l51 -44q12 -11 32 -52q13 -27 13 -45 l-3 -18q27 -21 40 -45q12 -23 31 -89l7 -19l-15 -15l-17 7q17 -16 25 -42h13l11 -78l-3 -27l-10 -54l2 -35l-21 -51l-8 -26q-43 -6 -43 -32q0 -15 10 -42l14 -6l-3 -35l-26 -61l-26 -68l-66 -74l-23 -32l-22 -9l-48 -31l-44 -24l-33 -47l-30 -2l-23 -19l-61 -30l-18 -16 l-10 3l-56 -19l-61 10q-15 0 -43 -20l-108 23l-8 11l-21 -4l-6 7l-3 -7l-41 12l-8 16l-3 -13q-61 19 -92 40q-34 23 -69 67q-12 1 -27 16l-7 32q-1 15 -6 23q-5 6 -20 14l-9 -11l-17 -2q-13 30 -39 53l-11 27q-32 78 -38 107l-11 8l-4 27l-11 24l-1 28l-9 38l9 52l-5 25 l12 17l14 -3l19 17l-12 37l4 22l-14 -15q-20 14 -20 26q0 19 9 41l14 52l26 15l29 24l-16 9q0 27 7 40l43 80l37 63l23 21l15 18l24 -2q11 20 31 28q-16 3 -16 14q0 10 26 22l70 50q39 34 62 42q17 5 21 9t7 16l5 1q11 0 25 -13l21 12l102 64l100 6l51 5q29 0 48 -12z" />
<glyph unicode="1" horiz-adv-x="516" d="M349 1301v-28v-8v-52l-2 -33l-19 -64l12 -74l3 -31q-32 -5 -32 -33q0 -15 7 -22q8 -8 28 -18l-7 -43l-16 -12l1 -51l3 -32q0 -6 -1 -7l-9 -64l24 -61l-11 -72l13 -71l-6 -17l-3 -20l-12 -17l14 -47v-33l5 -55l-7 -21l-2 -21l-20 -24l-3 -14v-14l16 -21q18 -19 18 -47 l-2 -50l-6 -38l7 -45q-28 -28 -74 -46q-45 -19 -82 -19q-26 0 -26 54v3l5 55l22 15q-14 33 -16 62q17 12 19 33l-14 18l2 31l2 48l19 26q11 17 11 30q0 2 -2 10l-17 43l2 24l-1 7q0 13 7 17l24 22q5 5 5 10l-4 18l-23 55l3 96l-18 30q-10 16 -10 36l9 168l11 93l-2 47 q0 40 -11 79l-116 -3q-9 11 -9 19q0 26 10 30l107 57l81 74q37 26 63 26q12 0 30 -8z" />
<glyph unicode="2" horiz-adv-x="1038" d="M0 2v11l18 10l25 23q14 11 34 11h8q17 41 30 54q14 12 42 12q10 21 36 31q-12 15 -12 25q0 8 4 11l56 49l40 48l26 29l25 45l77 80l16 35l26 40l33 90l133 200q20 42 23 67l15 101l3 18q-8 10 -23 35q-7 10 -13 38q-38 25 -57 55l7 18q-16 26 -42 27l-3 -26l-25 11 q-85 35 -122 46q-33 9 -68 9q-57 0 -83 -21l-60 -45l-23 -11l-49 26q4 17 8 28q1 4 20 28l13 21l12 -1q7 0 9 2l11 12l67 33l25 24q35 27 126 27q50 0 91 -10q16 -31 29 -31q11 2 24 21q13 -3 20 -8q5 -6 6 -21q13 -7 22 -7q8 0 25 11l26 -10q51 -18 56 -26l14 -23l53 -31 q13 -7 28 -24q14 -15 26 -36l12 -26l-2 -51l8 -31l1 -8q0 -30 -33 -44l-2 -16l-9 -6q11 -19 11 -28q0 -12 -9 -29l-141 -204l-57 -103l-13 -9l-31 -53l-138 -186l-45 -64l-26 -46q-4 -15 -11 -22q-4 -5 -26 -17q-5 -12 -5 -17q0 -6 7 -17l12 -1l81 4l86 -19l21 -1q25 0 65 9 l16 -12l40 -2l94 4l12 -2l19 -8l22 -1l60 6l23 -11l34 4l79 -3q25 0 69 41l34 -8v-6v-20q0 -12 -3 -17l-32 -50l-14 -26l-51 -15l-50 -39q-15 -9 -31 -9q-27 0 -59 12q-43 17 -64 17h-1l-66 -5l-115 13l-135 -6l-23 2l-18 22l-11 -10l-24 5l-3 -16l-92 -1l-5 26l-8 8l-23 -1 l-6 -30l-46 -4l-36 -12q-31 -11 -68 -11q-81 0 -82 19z" />
<glyph unicode="3" horiz-adv-x="975" d="M517 1307l25 8l23 -6l16 12q41 27 53 27q15 0 15 -14q0 -46 -21 -102q-23 -57 -53 -90l-26 -30l-118 -175l-21 -27h12l12 -2l18 -7l65 2l27 -9l69 -2l50 -28l52 -9l29 -18l59 -25l30 -17l15 -24q43 -64 43 -75q0 -19 -33 -45q20 -14 23 -24q12 -36 12 -96l-5 -42l-9 -35 v-32q0 -20 -19 -59l-17 -23l-17 -8l-94 -186l-38 -33l-24 -46l-48 -42q-20 -16 -31 -33q-10 -16 -18 -41l-28 -23l-42 -22l-17 -21l-35 -19l-74 -62q-25 -18 -39 -21l-41 -9l-26 -37q-9 -9 -64 -32l-34 -17l-18 7q-30 14 -55 14l-14 -1q-19 18 -19 31q0 21 17 26l68 21 l27 15l26 1l60 30l46 9l66 41l72 46l25 31l12 -5q10 0 26 16l-5 18l96 95l-2 14l-8 3l10 19l70 109q40 61 40 124l-1 20q16 22 22 51l-13 14q-3 5 -3 8l8 38l-15 40l-12 44q-1 3 -13 22q14 25 14 33t-15 20l9 9l-12 30l-14 -4l7 15l-18 10q-19 -9 -27 -30q-50 45 -81 58 l-12 45h-10l-15 -19l-14 2l-8 -16q-45 14 -65 14q-15 0 -41 -9q-7 12 -18 13l-32 -3h-35l-101 -69l-28 -7l-58 -18l-20 1v17l13 18l17 37l45 18l33 48l65 38q15 11 19 27l10 33l22 23l5 22l11 20l-10 11l8 20l53 66l16 48l21 43q5 18 5 30q0 27 -55 27q-20 0 -47 -3l-123 14 l-41 4l-41 5h-2q-12 0 -27 -9q-47 -28 -63 -28q-26 0 -26 23q0 21 22 33l77 40l68 46l57 -14l121 4l31 -13l73 5z" />
<glyph unicode="4" horiz-adv-x="1347" d="M298 732l23 -16l43 7l135 -26l52 11h2q14 0 81 -16q12 -4 30 -4q24 0 48 27l39 -5l9 23l-1 59l3 19q-11 27 -11 36q0 13 8 34q20 20 20 31q0 8 -3 12l-31 59l-7 91l-21 17l-35 -51l-29 -5l-111 -99l-207 -140q-30 -21 -37 -64zM11 594h-11q11 36 15 48q5 12 10 15l24 13 l20 18l44 25l43 39l31 15l35 26l59 30l47 35l53 29l32 32l49 23l46 46l34 20l16 28l33 24l26 47l41 57l10 21q36 12 44 27l14 27l20 18l48 82q19 14 37 14q15 0 34 -16l-5 -20q21 -34 21 -77l-1 -21l-5 -68l2 -15l-7 -6l12 -17l-10 -32l-2 -45l-7 -34l2 -18l8 -4l2 -38 l3 -57q0 -28 -6 -45l-21 -64q-3 -7 -3 -16q0 -15 12 -29q12 -13 28 -13q9 0 19 3l10 -20q11 2 15 6q3 3 5 13l17 5l86 -4l69 11l37 -5l39 8l56 20l12 10l8 1l18 -7l18 7l19 16l17 1l7 1q17 0 17 -28v-12l-19 -12q-27 -17 -46 -41l-13 4l-20 -19v-25l-15 -6q-4 -16 -22 -26 l-13 2l-52 -2l-80 20l-109 -18l-70 4l-27 -7q-16 -41 -16 -63l1 -121l-5 -49l12 -33l-30 -4l11 -31l-14 -2q4 -15 10 -21q6 -5 22 -10l-2 -31q15 -15 15 -53l1 -33l-1 -39q0 -21 10 -34l-6 -17q0 -1 1 -4t1 -7l-20 -28l-37 -18l-40 -28l-24 -4l-29 -32l-20 -12q-35 0 -35 37 q0 22 29 43l-5 8l14 36l-2 37l28 49l-5 119l3 131l-4 26l4 15v26l25 66l-9 30l-31 -9q5 15 5 24q0 11 -7 25l-20 3l-126 -8l-88 9l-25 -9l-43 6l-20 -9q-6 -2 -7.5 -3t-2.5 -1l-33 5l-53 7l-32 26h-2q-10 0 -18 -9l-17 -20q-7 -9 -21 -9l-53 4z" />
<glyph unicode="5" horiz-adv-x="1003" d="M8 -278l-8 8q5 44 22 46l43 3l74 27l23 3l14 15l21 12l11 17h14l7 7l21 -3q23 0 34 23l13 31l57 44l95 85l37 24l22 37l51 49l14 17q30 7 38 24l13 33l32 47l11 43l63 126l12 101l8 20l-6 22l1 29l-15 40l33 24l-23 8q-16 -14 -17 -30q-10 20 -22 31q-13 13 -46 36 l-15 12v26q-19 21 -40 21v6l-16 -8l-5 9l-22 3l-83 31l-102 18l-23 6l11 7q0 5 1 7v7q0 17 -16 26l-25 -41l-82 -3l-54 -55l-26 -9q-46 -21 -67 -21q-11 0 -18 7t-7 17q0 17 24 36l49 42q21 18 30 31q26 37 41 56q6 8 21 15l7 22l9 29l56 91l21 74l15 31l3 29l52 31l4 17 l12 21l17 5l57 -3l27 7l129 3l20 2l12 -12l25 10l33 11l105 5l40 27q17 9 34 9l18 -1l8 -39l-18 -26q-44 -60 -56 -92l-17 -2l-23 -20q-8 -5 -19 -10q-19 -8 -25 -10q-31 21 -43 21l-83 1l-33 7l-140 -12l-18 2l-25 -10l-9 27l1 -33l-18 -6l-20 -10l-20 -44l-28 -52l-17 -44 l-8 -25l19 -6l133 -21l35 -12l90 1l41 -3l-4 -9l18 -9l13 13l73 -28l-3 -17l11 -7q-1 -4 -1 -16q0 -23 19 -23q13 0 37 24q15 -3 20 -7l16 -22l59 -54q15 -15 15 -40v-5l-3 -43l9 -31l-5 -43l-2 -38l-16 -42l-19 -70l-25 -25l-39 -89l-54 -75l-20 -43l-60 -75l-51 -60 l-58 -48l-36 -32q-13 -23 -22 -32q-6 -6 -55 -44l-18 -15l-3 -27l-18 -12l-25 -20l-19 -30l-19 -18l-12 -6l-7 6l-28 -33l-40 -27l-51 -35l-36 -21l-23 -23q-8 -5 -15 -5q-11 0 -30 13l-16 -9l-32 6l-29 11h-9h-13z" />
<glyph unicode="6" horiz-adv-x="1081" d="M66 200l-9 60l-2 20q24 29 24 50v4q-1 1 -1 3l-6 60l6 42l-9 27l16 18l52 116l39 32l2 41q2 17 15 36l41 52l59 116q13 21 24 31q12 9 28 14v15q29 20 32 26l25 52l30 42l43 56l32 31l16 24l9 -3v16l20 19l40 58l86 86l37 53l40 27l136 141l50 26l57 38q10 2 11 2 q8 0 15 -4q8 -4 12 -12q4 -7 4 -15q0 -10 -7 -30l-14 -3l-8 -41l-22 -8q-51 -15 -60 -24l-27 -30l-36 -11l-66 -69q-17 -15 -40 -19l-12 -22l-23 -28l-37 -48q-21 -24 -58 -41q-13 -36 -41 -69l-69 -78l-44 -53l-69 -104l-19 -25l-12 -33q-9 -9 -24 -17l-9 -21l-30 -39 l-12 -33l-10 -20q-13 -23 -13 -39h1v-1l5 -58l-40 -93l-7 -26l11 -8q-20 -57 -20 -71l-2 -72l-16 -50l32 -35l42 -94l15 -27q32 -13 43 -25q11 -10 15 -36q14 -6 21 -6q5 0 20 7l105 -45q12 9 18 9q8 0 22 -10q13 13 17 14l31 1l86 51l30 15l27 27l46 41q14 12 28 41 q13 27 17 56q31 9 31 22t-20 30q10 26 10 41q0 32 -45 86l17 35q-25 16 -40 16l-13 -2l-64 67l-13 2l5 24q0 10 -6 14q-7 5 -15 5q-12 0 -29 -17l-20 6l-92 1l-40 13l-26 -5l-31 -3l-16 -19l-15 10l-47 -9q-1 -1 -2 -1q-13 0 -13 17q0 12 16 27q116 104 214 104l89 -1l31 2 l10 -13l22 2q19 0 27 -32q20 16 37 16q20 0 42 -11q21 -12 25 -25l16 -44l18 -17l16 1q23 0 27 -16l9 -47l28 -95l-2 -49q0 -79 -46 -131l-37 -46l-37 -65l-42 -26l-16 -25q-16 -25 -135 -104q-37 -25 -59 -35q-22 -9 -123 -38l-85 -21h-1l-47 13l-81 20l-51 21l-20 13v25 l-24 15l-42 48l-20 18q-11 11 -27 44l11 6l-10 36z" />
<glyph unicode="7" horiz-adv-x="940" d="M-82 -396q9 29 13 37q2 4 29 50q15 25 24 31t31 6l12 26l7 27q5 16 30 47l13 16q-8 8 -8 16q0 7 4 14l52 71l6 19q8 14 35 30q-3 12 -3 22q0 11 6 18l79 118l13 56l32 18l1 25l26 32l10 28l41 63l19 37l14 5l12 28l10 33l88 140l47 93q49 64 49 70l2 17l27 49l42 88 l46 74l10 54l18 16l-1 26q0 19 14 47l-22 16l-42 -3l-102 2l-30 -4l-38 -2l-3 12l7 -3v7l-10 1l9 9q-16 12 -29 12q-20 0 -31 -36l-40 8l-49 -6q-2 14 -16 22q-12 -3 -15 -6q-4 -4 -6 -18l-25 1l-55 1l-45 -5l-109 -54q-4 -2 -9 -2q-25 0 -31 41l16 17l49 49l76 53l26 29 l71 26l19 7q6 1 23 1q31 0 55 -9l43 -15l71 -3l37 -18l25 -4l-11 22l14 2l13 -2l23 -5l62 17l108 -5l23 6v-22l46 -14q18 16 19 21l6 14l70 35l25 23q14 9 31 9q25 0 32 -34q-99 -99 -117 -160l-8 -29l-42 -53l-31 -34q-25 -26 -31 -64l-18 -11l-9 -19l-26 -34l-7 -26 l-22 -40l-2 -15l-29 -25l-11 -31q-6 -26 -28 -55l-42 -58l-144 -259l-10 -17l-11 4l-11 -24h10l-16 -27l-60 -108l-36 -54l-7 -21q-10 -10 -18 -10q-9 0 -12 1l3 -36q0 -19 -9 -28l-46 -42l-7 -55l-26 -46l-15 -56q-9 -29 -41 -58l-6 -56q-13 -27 -37 -53v-17q0 -21 -8 -35 q-8 -15 -35 -40l-25 -23l-25 3l-20 -14q-44 -29 -57 -29q-16 0 -39 14z" />
<glyph unicode="8" horiz-adv-x="1015" d="M448 876q22 -19 45 -20l3 -24l10 -4l45 10l63 -5q18 0 63 16l12 17l17 22l23 15q14 8 20 29q6 29 13 102l3 22l-18 19l-12 23q-30 50 -105 76l-6 21l-27 6q-8 4 -17 4q-11 0 -16 -27l-12 2l-55 -17l-53 -16l-27 -11l-29 -43q0 -19 -3 -24l-18 -25l-12 -21l2 -15l8 -34 l35 -63l-1 -34q8 -23 26 -23q13 0 23 22zM342 139l21 -17l11 5q20 -39 48 -39q17 0 21 25l83 -9l40 23l84 43l44 45l20 10l44 96q20 -9 29 -9q20 0 20 26q0 22 -37 23l11 42l-12 8l-1 19l-1 66q0 16 -33 16q-19 38 -56 75l7 26l-33 22l-42 -1l-72 46l-22 -3l-60 4l-13 -17 q-19 0 -30 -4q-17 -6 -63 -28l-54 -25l-26 -22l-50 -50q-21 -29 -46 -92q-11 -30 -14 -99l-1 -32l1 -23l-12 -2q0 -32 14 -43l24 -11l70 -61q29 -26 86 -33zM83 451l13 19h11l8 -9q20 15 20 26q0 7 -11 20q7 30 22 48q39 44 84 75l45 30l18 13q11 -12 28 -12h9l2 23 q17 17 36 25l8 15l-25 12l-33 11l-38 49l-31 25l-10 15l5 12l-29 67q-2 4 -2 9q0 13 16 38l16 -1q18 0 18 12t-22 25q11 38 24 57q12 19 40 46l149 138l9 11l37 21q60 34 129 46l20 4l19 -12q26 -18 38 -18h5l46 11l29 -24l59 -36l14 -20q-7 -10 -7 -18t11 -22l14 1 q25 0 25 -35l-1 -18l-9 -2l5 -24q5 -33 5 -44q0 -38 -25 -87t-60 -78l-9 6q-23 -23 -30 -56l6 -7l-13 -3q-11 -12 -17 -16q-12 -7 -43 -22l-18 -10l3 -17l20 -7q72 -25 84 -40l24 -40l62 -64l12 -23q-9 -25 -9 -42q0 -16 4 -24q5 -9 13 -15q6 -6 31 -16l-6 -22l-8 -83 q-1 -19 -38 -82q-21 -36 -39 -48l-73 -52l-52 -64l-43 -28l-20 -23l-37 -19l-28 -24l-40 -16l-18 -24l-27 -4l-109 -35l-66 3l-18 -9q-19 19 -30 25q-13 7 -38 13l-3 -9l-22 -4q-22 0 -54 17l-49 24l-30 51l-40 21q-9 9 -16 51l-19 103l-2 11l8 12l7 41l5 34l17 23z" />
<glyph unicode="9" horiz-adv-x="1081" d="M-27 -335q14 28 21 29l33 4l30 13l67 28q19 9 52 40l37 26l26 34l15 -9l37 30l19 34l53 52l25 32l33 21l1 20l18 13l14 15l26 15l-3 16l15 18q48 57 63 78q12 15 42 64l13 3q5 28 16 41q12 15 36 25q7 30 19 45l71 101l-3 32l19 37q18 25 21 55l2 32l34 67l6 23l-3 6 l-3 19l24 109l-13 82l7 39l-7 21h-12l-15 31q-16 36 -25 48q-10 13 -41 33l-25 18l3 22q0 25 -42 32q-19 -13 -30 -13q-21 0 -76 31l-10 -14l-29 12l-7 -2l-38 -15l-8 4l-2 22l-6 -30l-22 -11l-55 -31l-26 -15l-46 -44l-23 -17q-25 -19 -34 -48l-18 -48l-24 -20q-4 -3 -4 -9 q0 -10 17 -27q-9 -31 -9 -42q0 -18 6 -27l32 -55l18 -36l54 -56q20 -20 34 -26q13 -7 36 -7q18 -30 41 -30l85 -3l40 -11l22 -3q30 0 56 26l21 -8l14 -1l22 -13q-11 -21 -25 -37q-13 -13 -33 -26l-41 -27l-22 -6l-94 -26l-58 1l-21 -2l-23 16l-22 -7l-23 -7l-15 6l-19 7 l-10 18l-19 6l-19 -7q-34 11 -41 15q-7 5 -32 29q-36 36 -53 78q-17 39 -30 118l-5 32l4 19l10 77l24 41l23 39l30 34l11 31l17 10l15 15l39 32l35 43q24 29 84 63q104 60 133 79q36 24 72 52l9 -2l64 13l88 -32l102 -28l12 -17q8 -10 45 -26q46 -20 50 -46l9 -49l30 -57 l11 -55l4 -20l-3 -22l-27 -57l5 -65l-10 -46l5 -25l-27 -15v-17q0 -17 -17 -49l-64 -119q-22 -22 -23 -27q-3 -6 -6 -38q-19 -21 -24 -30q-5 -11 -20 -56l-25 -11q-18 -66 -76 -137q-31 -41 -35 -48l-20 6l-34 -50l6 -5v-23l-37 -35l-47 -49l-17 -27l-142 -166 q-31 -38 -48 -51q-15 -12 -44 -17q3 -8 3 -10q0 -14 -31 -49l-32 -34l-15 -12l-39 -9q-12 -32 -53 -52l-6 -4q-3 -2 -6 -3q-42 -21 -62 -21q-9 0 -32 6l-11 19q-21 6 -39 24z" />
<glyph unicode=":" horiz-adv-x="570" d="M172 88l-22 6l9 20l24 17l49 35l24 29l21 13q44 -33 69 -45l28 -12q29 -12 46 -59l-29 -54l-17 -12q-23 -16 -28 -21q-10 -12 -16 -28q-26 0 -37 11l-98 94zM172 574l-22 6l9 20l24 17l49 35l24 29l21 13q44 -33 69 -45l28 -12q29 -12 46 -59l-29 -54l-17 -12 q-23 -16 -28 -21q-10 -12 -16 -28q-26 0 -37 11l-98 94z" />
<glyph unicode=";" horiz-adv-x="570" d="M152 591l6 22l29 20l43 30l22 27l24 17l18 -14l76 -41q33 -19 50 -63l-12 -18l-17 -33l-48 -40l-16 -24l-24 3l-25 24l-50 42l-27 33q-6 9 -49 15zM137 -382l-30 9q5 21 11 26q7 6 27 7l6 8l13 -4q16 0 39 26q51 8 58 32l7 18l34 35l15 71l13 21l-10 6l-1 10l2 13l6 15 l-11 29l-21 75q-5 13 -36 23l-14 16q-12 20 -20 26q-7 3 -33 3l-25 3l1 20l24 23l40 34l24 36l28 20q31 -7 44 -14q14 -7 26 -22l25 -28l10 -55l19 -87l1 -13q0 -12 -4 -19l-11 -19v-86q-2 -27 -21 -52l-28 -39q-4 -7 -7 -22l9 -11l-11 -17q-31 -50 -49 -70q-12 -13 -56 -44 l-14 -5l-47 5z" />
<glyph unicode="&#x3c;" horiz-adv-x="1000" d="M895 1456q22 0 36 -13q14 -14 14 -35q0 -20 -11 -28l-72 -53l-29 -29l-53 -37q-53 -38 -64 -38q-16 0 -16 19q0 24 12 36l101 99l56 73q14 6 26 6zM622 840l86 8q24 4 42 13q20 11 31 20q20 14 19 14q34 20 42 20q16 0 43 -34q-20 -45 -21 -76l-7 -101l-20 -41l24 -29 l-3 -30v-221l-6 -135l14 -65v-35l5 -68q-3 -13 -63 -60l-49 -38q-13 -12 -31 -12q-12 0 -23 8q-10 7 -10 16q0 22 16 63l9 27l-11 11l15 167l7 17l25 4v33q0 30 -5 45q-6 11 -24 22l2 28l-3 11l1 15l11 84l-14 16l1 56q15 8 15 17l-2 18l-27 4l-1 34l3 23l-1 42l-48 13 l-179 -15l-22 8q-35 13 -59 14q-23 0 -29 -13q-7 -13 -9 -42l15 -150q0 -14 -24 -25l-4 -42q0 -15 21 -39l4 -28l8 -117l7 -41q-3 -13 -12 -13l-14 2q-12 0 -14 -5q-3 -8 -4 -22h11l-3 -7l28 -36v-25l-3 -30l4 -23l6 -26l-19 -8v-28l-91 -40l-78 -9l-13 10v9l10 24l9 69 l15 44l7 45l-6 51q26 29 26 53l-22 89l2 92l4 202l5 23q46 7 46 28q0 14 -10 15l-39 3l-33 13l-47 1l-33 5l-21 2l-30 -6q-28 -12 -37 -12q-16 0 -16 19l26 41l36 48q17 11 39 11q17 0 47 -8l53 29l-2 11l9 43l-3 107q1 26 23 49l-33 47l1 22l-5 222l16 55l34 60 q0 12 -22 25q8 46 35 99q26 54 68 102q41 47 83 73l125 75l27 18l34 4l65 17l33 -11l76 3q34 -3 72 -41l14 8l14 -7l-9 -21l-31 -33l-21 -30l-27 -15l-27 -16l-87 44q-46 25 -75 25q-10 0 -39 -9q-35 -11 -46 -16q-70 -29 -92 -97l-28 -80l-23 -47l-14 -65l-16 -23l5 -29 l11 -5l-5 -210l-20 -25v-29l-1 -23l23 -59l-7 -41l7 -103q0 -27 -20 -27q-6 0 -12 2l4 -21l37 -24l6 -40l24 -14l31 -1l108 -6z" />
<glyph unicode="=" horiz-adv-x="904" d="M810 1228l-12 -19l-5 -32q-3 -15 -32 -46l-18 -21l5 -20l-11 -22l-41 -59l-9 -26l-37 -20l1 -31l-15 -22l-63 -92l-63 -125l-21 -29l-53 -81l-12 -20l-23 -4l-3 -5l8 -7l-17 -60q-45 -16 -50 -41l-6 -50l-33 -57l-20 -59l-31 -41l-13 -66l-36 -39l2 -29q-1 -16 -23 -42 q-28 -34 -50 -40l-41 -11l-59 -24q-12 1 -21 10q-8 8 -8 16q0 11 13 30q25 35 31 52l6 13l44 15q13 4 13 46l15 18l18 25l23 18l-11 24l10 20q19 37 51 61v21l37 26q2 33 15 58q13 24 59 75q19 22 22 38l6 32l32 23l34 64l50 84l6 24l17 3l17 -10v17l-13 13q6 28 10 32 q1 2 42 38q18 18 19 32l2 42l34 51l9 48l47 64l3 60l34 32l1 31q3 27 54 74l20 16l17 3l85 33q12 0 32 -20q-8 -32 -38 -78q-14 -21 -26 -28q-10 -6 -30 -6z" />
<glyph unicode="&#x3e;" horiz-adv-x="1035" d="M357 1061l7 -103q0 -30 -33 -30l5 -21q35 -15 36 -25l6 -39q3 -15 45 -15q70 0 121 14q52 16 74 16l36 -2l23 -40l-21 -14l-52 -34l-17 -11l-6 -4l-42 -32l-32 4l-45 7l-55 13q-17 0 -29 -14q-13 -13 -13 -34l15 -175q0 -13 -23 -25l-5 -18q0 -16 22 -39l4 -28l8 -117 l6 -41q-1 -13 -12 -13l-14 2q-16 -7 -18 -27h11l-2 -7l28 -36l-1 -25l-2 -30l4 -23l5 -26l-18 -8v-28l-91 -40l-79 -9l-12 10v9l10 24l9 69l15 44l6 45l-6 51q26 28 26 53l-21 89l1 92l4 197l5 23q46 7 46 28q0 14 -9 14l-40 4l-33 13l-46 1l-34 5l-20 1q-19 0 -31 -5 q-28 -12 -36 -12q-17 0 -17 19l4 12l22 29l36 48q17 11 40 11q13 0 47 -8l53 29l-3 11l10 67l-3 88q2 28 23 49l-34 47l1 22l-4 222q0 33 15 55l34 60q0 12 -21 25q8 48 35 100q27 55 67 101q41 47 83 73l125 75l27 18l34 4l66 17l33 -11l75 3l24 -6l44 33l18 3l14 -21 l1 -44l9 -29l2 -15l-1 -26l-5 -73v-13l1 -38l-3 -29l-24 -51l-3 -22q20 -1 25 -6q3 -3 5 -28l1 -23q0 -15 -24 -33l-3 -24l1 -28l17 -29l-7 -191l-1 -137l-26 -53l13 -76l-20 -49l18 -23l17 -17l7 -325l-23 -29l3 -40l-10 -67l10 -21h27l1 -37l19 -160l-2 -53l2 -41l-16 -24 l6 -26l-22 -4l-65 -40l-27 -5l-31 -17l-13 -2q-20 0 -20 11l1 25l-6 46l15 108l2 139q2 45 24 84l-13 30l-15 37q0 17 24 59q10 16 10 31q0 16 -31 28l4 16l-8 4l-1 13l1 18l16 69v172l20 79q0 15 -24 36l1 47l-6 180q0 18 28 67l14 27q-36 15 -36 31l6 38l-21 18l-1 40 l-4 48l16 59l-15 59l3 41l-19 145v9l-6 3q-66 36 -95 36q-25 0 -85 -25q-68 -29 -92 -97l-27 -80l-23 -47l-14 -65l-17 -23l6 -29l10 -5l-5 -210l-20 -25l2 -30l-2 -22l23 -59z" />
<glyph unicode="?" horiz-adv-x="987" d="M383 119l4 17l22 13l57 34l27 26l22 12l28 -26l87 -66q6 -5 9 -22l5 -23l-19 -21l-14 -24l-56 -37l-14 -18q-26 8 -27 10l-28 36l-39 36l-27 37q0 1 -1 1l-1 1zM462 1319l29 8q20 -11 28 -11l29 9l127 -5q34 0 47 -13l35 -28q14 -9 59 -18l22 -4q12 -22 42 -68 q28 -40 28 -67q0 -26 -23 -61h-18l-22 -18l3 -23l-21 -18l-36 -43l-66 -53l-18 -20l-18 7q-10 6 -16 6q-8 0 -29 -21q16 -7 16 -18q0 -5 -3 -8l-94 -111q-8 -8 -8 -20q0 -33 37 -69l-18 -9q1 -29 25 -49q-22 -37 -45 -37q-1 0 -2 1h-3l-57 9q-43 8 -47 23l-8 31l-10 16 l-3 16l1 8l17 12v15l2 15l33 31l62 92l63 58q38 42 75 61q43 22 46 35l11 42l21 50l-8 25l-5 10q-22 46 -34 55l-1 1q0 1 -1 2q-2 1 -4 3l-12 17l-20 -4l-98 37l-23 4l7 27l-20 8q-10 0 -27 -14l-3 -15l-16 2l-96 -5l-49 3q-35 -2 -110 -48q-26 -15 -26 -26q0 -14 11 -34 l9 -19l-17 -20q-36 -48 -41 -49l-17 -7l-29 -21q-6 -3 -12 -3l-17 2q-25 3 -31 10q-7 7 -7 31q0 44 16 60l30 33l15 23l34 21l70 60l65 30l45 23l37 4l46 20z" />
<glyph unicode="@" horiz-adv-x="2193" d="M338 1421l-16 -19l10 -24l20 -1l9 -77l1 -100l1 -32l35 -5q43 0 119 52q79 53 118 106l21 8l66 32l78 85l44 22l79 101l38 23q28 19 28 48q0 60 -111 85l-41 -3q-31 26 -48 28l-55 3l-64 16l-71 -3l-111 4l-41 -4l-66 -15l-22 -11l1 -13l-7 -20l10 -18l-3 -110l1 -124z M1898 436l5 53q0 24 -30 90l-7 17q-21 46 -41 72q-22 28 -61 61l15 31l-3 12l-23 5l-46 2l-94 75l-144 110l-24 36l-85 23l-65 32h-14l-21 2l-92 37l-16 24l-36 -6l-28 11l-71 13l-101 34l-59 9l-66 19l-30 4l-10 -10l-19 5l-37 8l-17 -1l-12 -5l-19 5l-14 14 q-33 -30 -51 -38q-18 -10 -49 -13l-17 -16l-76 -48l-15 -18l-31 -15l-21 -62l-4 -22q-22 -3 -29 -10t-10 -33l-13 -4l-2 -11l34 -4l4 -23q23 -5 23 -25l-3 -270l3 -51l-28 -57l1 -29q0 -16 4 -23q3 -8 14 -16l-4 -9l14 -46l-2 -49l9 -76l-1 -53l2 -25q-41 -11 -41 -34 l38 -74v-84l10 -78l-5 -96l4 -22q-15 0 -23 -5q-9 -7 -23 -28l66 -25l7 -31l16 -3l37 21l9 -1l135 -42l62 -6l46 -34l48 14l63 -4l127 13l28 -1l34 -17l70 9l5 17l21 5l89 17l22 12l35 4l33 18l149 78l110 70l51 28l37 38l71 63l45 57l30 24l21 37l-14 21q28 24 49 49 q15 20 18 41l13 96l30 91zM816 1841l114 -12l60 -1l21 3l14 -22l24 -3q26 0 36 -6q11 -8 27 -31l13 -19l12 1q18 0 18 -24q0 -42 -35 -74l-48 -45l-17 -29l-20 -15l-60 -65l-112 -94l-27 -35l-25 -21q41 -26 72 -26h41l76 -23l56 -10l57 -39l26 -7l14 2l33 16l52 -19 l103 -24l12 -25l-3 -26l31 -9l49 19l36 -34l77 -25l38 -29l82 -47q34 -19 40 -55l-19 -12l54 -18l18 22l19 -12l76 -54l33 -37l32 -41l-3 -7l-25 -6q14 -13 21 -18q6 -3 25 -5l24 -19q74 -62 93 -104q33 -69 33 -148l-13 -61l5 -30l-5 -15l-49 -32l-10 -22q31 -18 31 -42 q0 -34 -19 -87l-9 -28l-64 -81q-7 -18 -24 -18l-14 1l-23 -34l1 -24q0 -29 -37 -66l-45 -50l-8 -16l-17 -18l-26 4q-55 -50 -120 -97q-63 -45 -93 -57l-36 -13l-86 -49l-55 -18l-100 -43l-69 -13l-21 -13l-76 -19l-49 -7l-69 -14l-173 4l-52 -5l-22 3l-58 17l-37 -8l-44 7 l-32 28l-68 -6l-174 39l-43 2l-63 5l-76 -18l-50 6q-58 1 -58 14q0 7 9 21q7 13 16 15l28 6l30 19l38 19q36 16 36 37l-8 58l-2 26l8 44l12 34l-7 20l13 20l-18 65l9 97l3 119l3 81q1 75 43 76v12q-17 13 -22 21q-4 5 -7 22l-24 10l4 30l19 9l-2 27l-13 112l-7 74l6 17 l23 33l3 17l-4 25l-19 25v47l-7 25l-3 19l6 88l5 59l2 30l-4 41l-3 31q0 23 41 34v51l-39 3l-16 137q0 35 26 35l25 -9l4 10l-4 12l-9 5q-2 14 -5 20q-4 6 -24 28l-14 21l-21 10l14 66l-3 17l-11 31l-7 60l-10 26l-37 -5q-16 0 -23 7q-8 6 -14 26q43 40 83 60q37 19 84 19 q37 0 81 -16l17 24l29 1l82 -13l111 19q20 -29 37 -29l19 5l50 29l41 -19l21 1l59 -11h29z" />
<glyph unicode="A" horiz-adv-x="1504" d="M410 552l-7 -24l16 -3l33 -10l28 6l22 -8l4 7l18 2l130 -7l81 5l33 -14q13 13 19 14l69 5l27 4l-5 -12l9 -3q9 0 22 16l26 2q63 4 93 8q23 2 32 6q14 8 31 22l-9 8l6 6l-4 9h-22q-14 20 -18 76l-2 20l-39 10l-47 95h-14l-62 121l10 22l-7 26l-47 24l-71 144q-9 14 -49 44 l-12 -9l-13 -40l-7 -1q-11 -37 -17 -52q-6 -11 -26 -29q-25 -22 -29 -48l-4 -23l-44 -100q-15 -33 -21 -45t-19 -25l-8 -22q-7 -19 -12 -24q-7 -5 -23 -5l-3 -23q-5 -52 -16 -75q-13 -25 -43 -43l18 -29q-13 -2 -17 -6q-5 -5 -10 -22zM-11 -23l38 67l29 35l21 39l16 21 l13 18v8q42 8 42 37v26l31 37l43 94l24 34l29 62l32 63l38 65l42 39q4 4 4 10q0 7 -9 19q20 15 24 20q7 8 15 25l-12 19l13 20l17 46q3 8 23 26l-2 10l47 116l34 93q9 26 44 64l-8 22l6 27q13 42 22 51q6 6 45 14l4 14l-10 31q-2 14 -2 16q0 14 10 21l70 45l13 30 q20 27 55 30l12 -43l14 2l-4 -10l14 -31l28 -38l36 -68l21 -54l26 -45l-26 -9q0 -8 9 -19q37 -21 37 -38l-2 -18l22 -25l25 -45l16 -24l1 -9l-7 -19l4 -20l15 -18l27 -24l35 -69l19 -32l1 -24q37 -34 37 -52q0 -4 -3 -15l20 -20l45 -76q3 -4 6 -8.5t6 -9.5q3 -7 11 -19 q3 -4 6 -9.5t4 -9.5q18 -31 19 -35q3 -12 4 -27q33 -18 33 -39v-4l-5 -44q0 -5 4 -13l41 -20l13 -19l6 -19q3 -11 33 -31v-22l35 -35l31 -55l18 -21q27 -34 27 -55q0 -5 -6 -11l-38 -34l-42 -59h-32l-21 -5l-1 20l-12 24l1 20l-2 19q-13 21 -16 48h-17l-8 23l-34 69l-8 33 l-49 88q-8 21 -8 42v17q-12 6 -19 13q-6 6 -9 11q-36 63 -42 99l-35 15q-10 -45 -36 -45h-4l-104 19l-37 -1l-26 3l-144 -19l-84 5l-45 -13l-34 13l-28 5q-18 -26 -44 -26h-6l-88 7l-33 -9l-42 -2q-26 -8 -51 -68l-18 -40l-11 -2q-18 -52 -30 -75q-15 -27 -45 -71l-1 -20 l-14 -23l-55 -123q-9 -18 -46 -27l3 -16q-19 -3 -35 -3q-24 0 -59 23z" />
<glyph unicode="B" horiz-adv-x="1480" d="M335 1105l1 -15l38 -10l4 -24q6 -33 6 -56q0 -18 -13 -43q32 8 42 15l12 7l80 2q12 2 36 9l27 9q16 -14 27 -14t17 6l35 32l98 30q21 8 49 35q25 24 34 43q11 26 12 90q-98 53 -142 53l-29 -4l-22 13l-25 -4l-100 10l-46 -5q-68 -5 -113 -22l-2 -20l6 -73l-31 -49l-3 -9z M335 115l-6 -14q26 -6 39 -11q9 -5 23 -22l27 -5l72 -14l80 -6l101 -23l96 4l130 -2q21 1 32 9l34 11l32 14l37 34l55 35q26 21 45 63l32 66l17 28l8 42l28 76l-2 9l-14 89q-8 90 -36 121q-20 23 -28 34l-10 28l-12 17l-36 10l-20 2q-40 41 -54 45l-147 50l-27 18l-47 6 l-34 39q-15 15 -36 15q-11 0 -18 -16l-23 7l-2 -13l-19 -2l-20 10l-49 9l-44 1l-45 11l-65 5q-20 0 -54 -19l12 -84l-26 -31l2 -30q0 -16 2 -38q1 -17 6 -28q6 -13 14 -24l-3 -55l1 -64l3 -25q0 -36 -13 -55q0 -18 3 -27q1 -9 12 -23l-33 -31l1 -42l29 -12l4 -20l7 -70 l17 -61q-8 -35 -78 -41zM98 -3l-7 37l-1 14l27 18l79 34l31 44l17 24l5 190l4 20l-12 30l22 64l-17 -5l-2 44q0 27 8 70l18 8l4 8l-16 52l11 35l-20 49l10 82l-3 23h-14l-10 35l4 27l-9 9l2 15l-3 57l4 51l-8 29l5 18l4 12l-4 15q-9 17 -11 27q-3 14 -4 55l-2 27 q15 11 15 24l-1 14q-26 2 -57 22l-35 -4l-3 12l-8 -1v14l20 19l55 21l21 18q23 17 48 17l37 -3l45 4l23 -9l162 6l15 -14l21 -6l7 9l38 8l80 -9l86 -5q54 -5 94 -29l18 15l37 -9l25 -6h29l27 -6q30 -19 41 -28q14 -14 14 -24q0 -23 -21 -62l-12 -23l-15 1q-22 0 -23 -19 l-3 -35l-41 -20l-35 -33l-97 -51l-31 -26v-11l29 -12l29 -23l25 -11l10 9l65 -22q0 -46 18 -46q15 0 34 16l23 1q20 0 32 -5q11 -6 18 -22h15l15 -15l17 5l113 -61v-19l20 -11q47 -23 47 -44q0 -14 -7 -29q20 -27 34 -27l15 6q42 -52 42 -82q0 -9 -17 -20l7 -7l-2 -20 q38 -53 38 -80v-8l-11 -62l-1 -30l-30 -47l-36 -77l-13 -21q-18 15 -30 15l-22 -7l2 -32l-21 -2l24 -11l4 -12l-71 -61l-60 -41q-21 -16 -39 -26q-13 -7 -45 -18q-53 -37 -93 -52q-43 -18 -94 -24q-49 -6 -134 -6q-64 0 -112 5q-47 5 -76 14q-33 10 -85 33l-15 -21l-43 15 l-24 -11q-24 17 -60 25l-6 12h-8h-13l-65 -6q-10 1 -23 25l-41 4l8 -18l-19 -12q-25 -19 -34 -19q-10 0 -22 6z" />
<glyph unicode="C" horiz-adv-x="1516" d="M88 785q6 -3 7 -3q10 1 23 25q-12 23 -12 35q0 14 9 27l64 133l39 26l15 34l23 18l21 18l47 16l39 54q21 25 68 42l74 26l48 22l41 26l98 35q45 22 82 25l65 -1l177 19l58 2l24 -2l35 -15l50 3l44 -20l24 1q22 0 38 -12q15 -13 15 -32q0 -23 -20 -35l-34 -22l-16 -13 q-9 -6 -18 -6q-7 0 -12 3l-79 36l-20 3q0 2 1 3v2q0 9 -16 22l-11 2l-55 -8l-74 14l-88 -6l-49 4l-15 1q-31 0 -59 -11l-66 -27l-31 -2l-43 -24l-39 -13l-69 -39l-20 3l-28 -22v-30q-67 -34 -79 -48l-81 -89l-17 -13l8 -8l-8 -21q-12 -35 -14 -39q-4 -7 -24 -18l14 -14 l-1 -20l-12 -39l-1 -125l-6 -25l10 -23l24 -51l-5 -15l-21 -3l8 -21l41 -45l20 -59l14 -17l7 -24l40 -62l11 -19l17 -17l30 -48l19 -12q10 -7 21 -28l21 -1q20 -20 32 -42l19 -5l77 -35l31 -9l29 -26q10 -10 89 -27l141 -31q27 -7 56 -7l18 1l77 6l117 -2l51 25l89 19l43 26 l76 29l54 34q4 0 5 1h4q22 0 22 -25q0 -17 -8 -31l-11 -19l-14 -44q-10 -15 -27 -15l-50 -4l-120 -41l-130 -8l-140 -29q-35 -5 -53 -5q-55 0 -131 10l-24 3q-10 43 -47 43q-18 0 -41 -20l3 -13l-193 55l-6 15l-13 -4q-18 0 -60 30l-54 41l-35 28l-16 22l-84 76l-2 26 q22 0 22 13q0 17 -52 24l-23 5l1 24q-19 9 -27 17q-8 9 -22 34l7 8l-7 8h-15l-66 176l11 6l2 10l-15 61l-1 58q0 40 20 75z" />
<glyph unicode="D" horiz-adv-x="1692" d="M333 956l-3 -21l14 -18q21 -7 30 -14q6 -7 6 -20q-21 -10 -21 -22q0 -8 1 -9l22 -49l-7 -179l8 -24l-9 -51l7 -9l-4 -36l4 -56q0 -19 -6 -27q-4 -6 -33 -23l4 -31l34 -20l1 -25l-4 -121v-1q0 -19 16 -61q5 -12 5 -23q0 -7 -8 -21l-18 2q-21 0 -31 -34q72 -13 97 -13 l133 3l48 -3l150 42l21 3l113 43l75 30l32 11l23 19l72 30l57 54l23 12l13 13l13 37l41 22l22 35l42 49l9 25q31 0 40 4q9 3 9 14q0 15 -27 21q34 35 50 77q15 39 23 112q8 65 24 102q-19 7 -24 16q-6 7 -7 26l-9 3v11q0 15 -11 31l-19 31l2 11l-21 18l-50 37q-18 15 -56 63 h-22q-28 0 -41 5l-96 50l-43 9l-28 12l-21 4l-4 23q-28 5 -33 5q-9 0 -26 -12q-34 20 -51 21q-28 4 -37 7q-5 2 -16 14l-16 17q-25 -14 -43 -14q-21 0 -41 12l-25 17l-60 11l-144 19l-69 -6l-14 6l-12 -6l-9 -22l-24 11l-3 -29q-1 -39 -11 -66l5 -20q13 -39 13 -55v-19 l-13 8h-7q3 -39 17 -62l-1 -31l-11 3q-10 -8 -19 -8h-11zM96 3v5l15 16l25 6q33 11 40 11l8 -2l17 18q18 18 18 28l1 30l12 43l1 21v11l13 8q-15 20 -15 37l4 60l3 26l21 24q-12 21 -12 25l-1 33l-12 25l2 58v69l15 33q5 13 5 22q0 15 -23 32l-1 40l-1 18q0 12 20 27l3 55 l-25 -1l-6 22l4 53l-10 78l8 23l-15 27l-1 99l-27 31l24 46l1 14l-6 57l-2 32q-19 1 -42 13l-26 11v28l35 15l78 -1l43 19q26 8 54 8l65 2l36 -13l24 8l20 -10l32 1l39 -2l36 -5h1h3l32 6l68 -22l79 -2l27 -12l113 -12l67 -21l80 -14l56 -20l22 -7l-4 -22l11 -11l-8 -12 l4 -4l-6 -9l7 2l35 13l28 8h1l24 -8l36 -10l22 -16l3 -22l8 -1l39 2q16 0 44 -36h14q25 0 77 -35q57 -40 94 -91l-15 -15l2 -13l14 -21l19 -16q11 -8 19 -43q-18 -10 -18 -22q0 -4 3 -7l27 -43q4 -4 4 -17l-9 -43l3 -49q0 -23 -4 -32q-6 -14 -17 -26l-17 -20l-41 -10 q-7 -4 -13 -29l5 -4l10 1l-7 12l21 -14l-10 -16l-6 -24l-18 -25l-22 -33l-77 -50l-38 -61l-35 -25l-68 -72q-19 -17 -46 -28l-73 -26l-18 -8q0 -18 -10 -28l-21 -8l-117 -57l-72 -45q-43 -24 -67 -24q-12 0 -32 12l-27 -16l-49 -16l-58 -18l-38 -8l-82 -7l-24 -4l-52 21 q-19 -11 -36 -17q-16 -5 -39 -8l-7 8q-28 0 -45 16l-37 6v-25q-34 -18 -70 -18q-23 0 -46 6q-92 22 -97 22q-23 0 -23 9z" />
<glyph unicode="E" horiz-adv-x="1478" d="M494 1319l39 -12q33 13 48 13q8 0 9 -1l152 -17l133 8l51 -14l30 6v12q73 8 101 19q42 17 54 17l19 -5q-4 -21 -13 -33q-8 -9 -33 -20q0 -18 -6 -26q-7 -8 -30 -20q-52 -24 -86 -24h-10l-52 4l-46 -5l-92 10l-21 1q-28 19 -55 20q-23 -26 -78 -26l-31 2l-3 18l-21 -4 l-29 -13l-137 11l-23 -32l9 -7l-1 -9l5 -53l-9 -78l5 -29l2 -23l20 -6l138 -12q15 -1 40 -20l31 6q26 10 42 10h1l107 -7l63 -1l58 -1q30 0 57 15l76 -14l18 3l43 11l78 2l82 10q12 -1 29 -14l19 12q17 14 21 15q6 2 16 2l23 -2l22 2v-32l-27 -18l-60 -53q-11 -8 -22 -8h-3 l-67 9l-86 -3l-47 11l-169 -10l-29 1q-13 21 -27 21q-3 0 -11 -2l-45 -18l-131 14l-63 -24l-45 14l-38 -23l-110 9l-9 -15l5 -54l-17 -52l9 -17l14 -18l-15 -43q17 -27 18 -42l-4 -33l8 -91v-3q0 -14 -21 -40q26 -32 26 -54q0 -6 -3 -14l-27 -57l28 -51l13 -191l30 -6 l136 -47l45 7q15 -1 44 -18q17 18 29 18h4l93 -18l55 8l49 -11l119 8l35 -6l56 -2l20 -7l-5 15l23 5l94 1l21 8l116 21q36 10 45 10q8 0 24 -6l-11 -43l-23 3q-13 0 -17 -7l-21 -43l-26 -19l-9 -11l-36 5l-43 -20h-1l-50 14l-5 1l-113 -4l-34 5l-9 17q-48 -11 -70 -13l-38 2 l-23 -3l-8 19l-13 1l-10 -2l-35 -19l-197 -3l-29 -13q-32 22 -50 22l-11 -1l-51 -15l-57 12l-176 -7q-13 0 -76 26l9 23l26 57l4 53l10 49v76l6 28l-4 232l4 59l-1 22l-8 23l41 3q-9 21 -19 34q-11 14 -28 24l-3 17l4 74l-9 126l8 50l4 20l-20 6l-9 21l-4 65l-11 21l-2 10 l2 23l9 13l53 -13l-16 14q-13 10 -13 20q0 8 3 17l-16 5l-20 -5q-4 79 -19 84l-39 16l10 20q9 9 33 18l18 7q48 22 75 22h3q1 -1 3 -1l147 -25z" />
<glyph unicode="F" horiz-adv-x="1263" d="M167 1247l-30 11q0 30 12 34l62 16l81 27l94 -4q42 0 73 -12q35 -16 52 -16h2l42 10l29 -14h37l55 -11l37 5l148 -1l225 34l28 -1q-1 -25 -20 -45q-54 -60 -106 -60h-11l-233 -1l-41 10l-116 1l-20 10q-11 4 -36 4l-7 -5l-3 -11l-27 3l-101 8q-18 0 -48 -10l16 -11 l-17 -10l4 -44q-20 -17 -20 -26q0 -15 13 -38l11 -24l-10 -52l27 -2l6 -10l12 3l29 -7l61 -5l35 -17l12 7l5 10l38 -5l111 1q38 0 102 -12l18 13l16 -1l218 5l48 -10l63 24l37 2l63 16l20 -2q-3 -17 -8 -25q-4 -6 -31 -32l-34 -35q-19 -21 -33 -21h-4l-63 11l-76 -4l-26 14 l-47 -4l-95 8l-34 2l-26 -3l-18 19l-22 -6l-41 -22l-32 -6l-35 4l-61 11h-3l-57 -11l-86 7l-54 -7l-26 -5q0 -19 -8 -59q-8 -37 -8 -71l1 -33l6 -79l2 -53q0 -11 -2 -17l-24 -91l3 -12q25 -7 25 -20l-10 -26l-3 -19l13 -6l3 -6l-15 -38l9 -34l-6 -43l17 -66l1 -109l2 -59 q0 -16 -8 -24q-8 -9 -37 -23l-19 -10l-3 5q-35 -6 -42 -16l-14 -13q-5 -6 -34 -9l-23 -4l-3 47q0 22 6 32q5 12 21 22l-2 14q0 8 8 27l-19 30l6 21l15 176l8 20l-9 37l17 62v9l-1 20l-9 5v11l-6 6l4 24l-6 31l-1 23q0 9 11 22l-1 52l-17 11l5 140q12 12 12 31v6q-1 2 -1 6 q-15 14 -20 28q-6 14 -6 46l1 30q19 25 19 44l-2 22l-21 -7l-4 25l10 41q7 24 7 45q0 26 -8 37q-8 10 -29 13z" />
<glyph unicode="G" horiz-adv-x="1505" d="M81 624l-13 21l11 64l6 47q1 8 8 22q4 11 14 24q-2 6 -2 10q0 7 11 32l8 21l39 17l-4 36q0 11 4 15l52 65l25 46l26 22l27 39l48 37l17 29l95 40l33 23l37 6l12 10l17 14l21 9q59 24 86 24l88 3l43 20l84 7l51 11l96 -13h15h15q26 -29 33 -29q12 0 25 18h12l3 9l22 -5 l58 -24l40 -3q24 -3 24 -19q0 -17 -30 -26q-26 -25 -45 -25l-17 5q-21 -39 -42 -39q-7 0 -8 1l-39 15l-46 11l-31 23l-47 12l-46 17l-117 -8l-67 -2q-58 -3 -87 -22l-66 -40l-67 -31l-81 -58l-35 -16l-22 -44q-50 -9 -50 -35q0 -8 8 -26l-17 -23q-6 -10 -12 -19 q-5 -5 -19 -12l6 -29l-11 -25l-33 -105l-12 -32l-7 -36l4 -23v-21l-7 -19l-8 5l3 -17q-23 -14 -23 -28q0 -10 15 -27l32 -10l-2 -26q0 -11 7 -28q-18 -18 -18 -29q0 -6 4 -14l26 12l11 -22l20 -68l24 -38l-9 -36l11 -21h11q18 0 29 -11q8 -8 23 -41l9 -21l9 -10l-23 -13 l13 -10l37 7l26 -19l21 -12l23 -20l37 -14l70 -44l36 -12l-7 -20q38 -3 47 -7l31 -11l84 -2l20 -12l22 8l75 6l41 6l21 2q15 0 32 -11l22 12q26 16 44 16h2l32 -3l38 6l-3 12l18 7q25 9 27 10q7 2 11 6q6 4 14 12l3 -6q37 12 37 31l-10 31l4 78l-9 113l15 35q1 1 1 8 q0 21 -23 35l-4 22l-4 36l4 23l-20 1l-76 7l-51 3l-21 -1l-42 -5q-8 0 -21 7l7 28q14 6 18 9q4 4 14 20l14 17q32 -13 56 -13l16 1l235 13l29 -1q24 -42 24 -59q0 -13 -22 -26v-18h12l-2 -36l3 -21q0 -13 -3 -21q-3 -7 -16 -20l9 -48q16 -20 16 -48q0 -21 -8 -55 q-22 -1 -30 -9t-8 -34l52 -45l-3 -64l3 -18q0 -29 -15 -55l-19 2l-14 -3l-26 -14l-70 10l-68 -24h-104l-129 -16q-1 -1 -5 -1l-44 5q-54 -26 -93 -26l-22 1l-63 9l-145 6l-40 8l-55 11l-27 5l-8 24q-19 2 -29 13q-19 -10 -28 -10q-12 0 -36 15l-22 12q-2 26 -18 44 q-18 -8 -28 -8q-8 0 -11 3l-10 11l-45 42l-26 54l-25 29l-27 40l-15 37q15 29 16 54l-11 15l-37 6l-16 36q-11 20 -11 30q0 -8 2 18v1l-14 81q-2 24 -2 26q0 28 12 53z" />
<glyph unicode="H" horiz-adv-x="1566" d="M137 1201l1 63l24 13l32 24l54 24l39 16l31 -12q0 -17 11 -41q-16 -20 -17 -27q-4 -11 -5 -48l-1 -25l18 -70l5 -40l-10 -2l-19 -46l14 -17l-3 -21l-11 -18l-9 -21l5 -21l8 -17q7 -15 7 -66l22 -5l178 -10l27 -19l68 -9l20 4l8 10l68 -5l9 -3q16 13 29 13l19 -1l2 -8 l12 -10l21 3l111 2l41 5l37 -14q19 28 43 28h4l51 -5l96 9l58 -3l20 5l7 22l18 45l-4 115l3 25l-14 22l-23 25l-1 43l-7 45l12 21q-10 31 -10 64q0 21 10 22l28 4l31 23h23q13 3 41 28l26 -13l11 -47l8 -27l-28 -106l6 -55l-3 -24l-12 1q-12 0 -14 -21q5 -9 20 -17l19 -10 l6 -28l7 -41l-2 -12l-16 -30l4 -183l-5 -155l16 -26q-8 -35 -8 -55v-2v-3v-12v-25q-19 -22 -19 -31v-4l28 -47l-7 -135l24 -137l-53 -45l-15 -33l-15 7l-11 -5l-13 -23l-55 -24l-4 4l-24 5l-2 27l5 25l18 35l-6 31l4 24l10 60l15 51l-9 65l-1 21l27 17q0 52 -14 89l15 53 l-20 19l12 53l-11 6l6 167l-11 11l-11 40l-8 -8q-18 0 -24 -3q-9 -6 -18 -17l-26 -26l-38 16q-33 -11 -48 -11q-10 0 -24 2q-25 20 -47 20h-8l-105 -9l-104 13l-86 -6l-43 10l-66 -18l-99 10l-27 -2l-31 21l-10 -24l-123 2q-26 -28 -26 -45l13 -79q3 -16 3 -33 q0 -22 -12 -39l7 -61q-12 -10 -15 -18q-5 -8 -6 -25q9 -14 30 -20l1 -42v-132v-5l3 -25q0 -8 -13 -18l2 -21l14 -61l3 -21q0 -48 -40 -66l-53 -24l-45 -27l-26 -11l-6 7h-10q-12 26 -12 41q0 19 6 29l21 51l11 35l15 5l1 35l-16 16q14 23 14 32q0 10 -14 30l-3 20l9 165 l-10 45q1 25 17 36l13 11q5 3 8 22q-30 14 -30 38q0 3 1 4l5 76l-12 33l-1 114l-4 58l3 29l-16 -1l-4 -5l-8 27l8 -8l3 39q38 20 38 43q0 33 -42 37l-14 70v16z" />
<glyph unicode="I" horiz-adv-x="492" d="M154 -31l-17 26q19 37 19 54l-1 23l28 88v31v33l45 8l2 9q0 9 -11 26l-25 -2l-4 4l-5 -6l3 34l2 45l7 73l-2 40l18 28q-15 13 -20 26q-5 12 -5 35t14 56l-13 16v28l1 97q0 9 -1 12l-5 21l-1 21q11 11 11 28l-17 20l7 17l-8 73l12 37v4q0 17 -21 36l-1 19l-7 89l7 36 l-14 21l2 33v57q7 14 31 19l50 4q11 2 33 39l36 10l32 12q6 0 13 -4q7 -18 7 -31l-4 -31l-5 -32l-21 -35l13 -104q0 -24 -22 -67v-20l14 -5l-1 -32l5 -82q0 -32 -24 -59l14 -22l-1 -31v-26l-22 -35l12 -26q7 -15 7 -29l-4 -55v-60l-14 -47q-1 -2 -1 -7q0 -14 18 -25l-1 -39 l2 -21l2 -43v-17l-18 -54l18 -10l-5 -17l7 -56l-4 -94l7 -39l2 -25q-92 -83 -124 -83l-13 2l-3 -10z" />
<glyph unicode="J" horiz-adv-x="1115" d="M34 90l-19 154l-1 15l40 25l17 -20l36 -81l43 -34l38 -38l23 -1q64 -55 116 -55l27 3l17 -16q24 -24 33 -24q13 0 27 17q29 -12 48 -12l39 2l55 1l42 18q93 53 110 90l10 25l30 49l7 28l15 12l-3 27l4 28l13 71l12 115l11 25l-3 24l3 57l-3 15l6 7h17q12 -6 16 -6 q10 0 27 16q-15 18 -27 24q-11 5 -38 7l-2 25l-10 112q0 7 1 11l6 81q0 5 -2 11l-16 37q-7 0 -7 27v12l4 59l3 39l-2 8l-15 31q-4 8 -4 22q0 19 13 48l1 17l-7 2l-11 -4l-17 14q-24 20 -24 30q0 2 1 2l55 35l56 39l49 18l14 22l24 4q25 -29 25 -58l-4 -45l-10 -6v-8 q0 -12 19 -16l1 -31l-1 -16l-19 -51l2 -2q0 1 2 -7l17 -12l10 -50l5 -25q0 -4 -3 -10l-17 -37l7 -45l-12 -24l14 -51l-9 -37l7 -85v-6q0 -11 -4 -15l-14 -17l19 -41l-1 -41l-2 -59l-14 -42l7 -36l-2 -23l-2 -61q-2 -30 -32 -44l-4 -17l-15 -3v-12h28l-2 -26l-16 -51 q-6 -49 -19 -50l-42 -26l-12 -16v-36q-29 -4 -46 -20l22 -20l-81 -69q-88 -64 -161 -64q-10 0 -30 5q-27 -12 -77 -12l-38 1q-45 0 -98 19q-14 35 -35 35q-11 0 -38 -7l-21 -5l-37 15l-62 33l-56 20l-27 23z" />
<glyph unicode="K" horiz-adv-x="1464" d="M137 1259l2 13l140 67q24 12 41 12q26 0 26 -35l-1 -19q-20 -14 -24 -31q34 -27 34 -75l-3 -25q-45 -16 -45 -45q0 -28 47 -28l-4 -188q-36 -9 -36 -25q0 -4 1 -5l31 -60l-5 -26v-72l-6 -23l-21 -20l19 -7l20 6l30 15l60 47q34 22 47 25q36 10 47 18q9 7 17 30l24 9 l73 46l33 23l19 23l45 33l102 103l35 16q5 20 25 47l11 17l24 -2q11 0 22 11l-7 10l7 10l-11 20l31 43l24 31l89 41l63 38q2 1 9 1q9 0 16 -6q6 -7 6 -16q0 -26 -38 -62q-72 -67 -85 -80q-38 -50 -50 -59q-11 -10 -41 -16l-10 -19q-31 -59 -58 -72l-27 -13l-104 -97l-71 -45 l-88 -64l-40 -39l-29 -31l-19 -16q0 -14 4 -18q3 -5 14 -8q16 -22 37 -35q111 -70 132 -93q6 -5 8 -10l17 -50h31q7 -1 17 -7l91 -66l46 -26l40 -35q26 -19 31 -24t14 -25l29 -1l82 -74l-1 -42l57 -2l15 -17l19 -10q-7 -14 -7 -27q0 -15 14 -32q12 -12 23 -12t20 4l4 17 l17 4q10 0 38 -18l4 -21l12 -4l75 17q1 0 2 1h3q14 0 42 -26l-18 -27h-10q-15 0 -35 -12q-35 -23 -124 -48l-17 -4l-10 -14l-19 11l-30 42l-33 19l-18 15l-16 -5l-16 17l-164 110l-58 69l-58 30q-61 33 -78 84l-19 -5l-32 22l-72 48q-21 14 -21 22l-2 32l-11 23 q-25 -30 -44 -30q-7 0 -8 1l-57 34l-41 21l-80 63l-27 12l-10 -39l4 -230l-1 -45l-10 5l-8 -16l3 -22l5 -39l18 -27q0 -1 1 -2v-1l-2 -72l1 -10l-11 -8l10 -34q0 -4 -1 -7l-48 -21l-39 -27l-11 7l-46 -18l-17 -1l-28 -10l-14 26l9 24q31 77 31 81l11 90l6 29q23 5 31 13 q8 10 8 31l-3 35l-28 -5l-8 42q0 21 21 37v23q-16 17 -16 40l1 19l2 77l-1 84l27 14l6 11l-12 57l13 17l-21 9q-2 6 -5 20q-1 5 -1 47l-2 23q22 12 27 20t5 30l-35 16l-4 27l-4 66l-6 35l5 40l-23 22l3 12l-8 79l-2 66z" />
<glyph unicode="L" horiz-adv-x="1242" d="M137 -10l1 18l38 15v14l15 11q1 34 8 49q6 14 26 31l-9 29l5 102l-4 28l21 32l-22 16l14 34l5 30l12 24l-14 29l4 22l-4 17l2 29l-4 30l6 76l1 45l17 40l6 21l-24 12l-5 110q14 3 23 17l-11 51l-20 5q-14 65 -14 151q0 38 9 63l-10 23l-6 57l-12 24h-14l-14 26l19 19 l25 10l29 25l57 18l17 10l20 6l21 -9l14 2v-13l6 -6l-3 -74l2 -35q0 -28 -18 -39l-6 -20l5 -6l16 3v-13l-6 -7l11 -41v-2l-4 -62l4 -59l1 -20l-9 -79h-13q-11 -22 -11 -33q0 -31 27 -39l-2 -23l3 -158q0 -65 -17 -113l-8 7q-9 -16 -9 -21q0 -3 4 -15l21 -6l5 -34l-1 -30v-5 l-5 -98l-2 -30q-15 -13 -15 -22t16 -22l1 -56l-6 -61q0 -26 19 -38q20 -12 60 -12q22 0 67 5l7 -6l24 -3l31 -14l21 -3q16 4 25 21l125 -5l77 1l85 10l14 -2v-21q32 -12 47 -12q11 0 32 7q0 14 6 21q4 7 20 12l16 -1q23 0 59 16q15 -19 34 -19q23 38 75 38l46 -7l-12 -18 l-21 -15l-22 -20l10 -23q-24 -24 -38 -26l-40 -3l-29 -20l-22 -6h-4l-53 8l-137 -5l-129 13l-100 -7q-30 0 -50 11l-26 16l-22 4v-23q-29 -10 -52 -10q-33 0 -79 10l4 -8l-32 4q-16 1 -27 15l-21 -3l1 -7l-25 -5l-131 -14l-24 -5q-24 0 -24 19z" />
<glyph unicode="M" horiz-adv-x="1769" d="M170 391l-2 25q18 14 19 33l11 5q-3 12 -5 17t-3 7l-11 26q-3 8 -3 14q0 15 16 34q-16 28 -16 50q0 6 1 7l6 122l-7 107l1 23l33 -12q11 13 11 24v6l-45 4l-3 49l32 2l3 21q0 16 -27 28l-10 55l9 1l2 11l-17 99l3 47l-19 39q0 19 38 36l18 -3l12 26l21 8l45 35 q13 10 27 10l20 -5q5 -23 9 -29q4 -7 21 -16q8 -29 11 -34q2 -4 35 -58l-8 -22l-10 -31l3 -14l31 -14l24 -76l-20 -30l13 -6l7 -22q18 0 28 -6q9 -7 21 -30l33 -71l37 -104q-27 -22 -27 -37l11 -25l22 -2q14 -1 22 -7q6 -5 10 -22l-17 -28q9 -15 21 -15l12 1l11 -20 q39 -70 39 -87l-8 -32l-7 -22l20 -10l19 -5l24 -29l38 -42l11 -39l23 -20l26 -66l23 -25l33 -64l15 -14l25 24l72 82l38 63l31 62l50 83l92 216l36 55l11 63l50 115l10 31l12 4l12 9v10l17 8l-3 16l-19 7q9 43 21 49l18 8l18 15q-7 18 -29 45q16 22 16 37q0 -3 -2 11l17 21 l31 45l60 50q35 32 46 32l25 -5l-7 -68l8 -8l19 2q28 0 28 -16l-3 -40l-8 -31l-11 2l-5 -17l15 -38l4 -211v-10q0 -16 -8 -27l-27 -38q-2 -2 -5 -24q10 -13 17 -16q7 -4 25 -4l1 -35l-4 -166l17 -72l8 -125l8 -84q0 -18 -8 -40q12 -13 16 -26q3 -14 6 -59l5 -77v-3 q0 -33 -34 -71q-22 -28 -41 -28q-5 0 -16 3l-18 -13q-19 -15 -34 -15l-16 1l1 25l8 58l-2 41l19 120l-11 54l-6 116l-6 41l1 101l-4 65l5 39l-15 128l13 27l-16 6l-1 25l-14 59l3 57l-10 26l-25 -7l-8 -13l3 -28l-52 -80l-3 -21l-16 -17l-11 -27l-14 -22l-6 -35l-27 -60 l-4 -23q-30 -26 -44 -49l-32 -73l-92 -155l-63 -118l-17 -24l-59 -55q-9 -9 -9 -17v-4q8 -29 8 -31l-2 -10q-29 -4 -43 -39q-13 -34 -21 -48t-19 -19q-12 -6 -45 -15q-15 16 -22 27q-6 7 -10 17q-4 9 -5 25l-9 6q0 16 -4 21q-5 7 -20 12l-7 -7l-15 26l-25 66l-20 28l-23 62 l-24 36q13 27 13 46q0 16 -6 22l-34 28l-124 246l-30 65v2l7 26l-15 33l-7 30l-22 -11l-11 21q-21 37 -35 67q-10 23 -24 66q-26 0 -34 17l-13 -33h-16l-5 -8q15 -22 15 -41l-6 -75q-2 -25 -5 -38q-4 -10 -18 -28l23 -49l-3 -25l-1 -71l-8 -43l6 -215l-11 -34q12 -23 14 -56 v-9v-11q-24 -3 -33 -13q-9 -11 -12 -41l37 -12l2 -23v-23q0 -32 -8 -37l-75 -51l-37 -30l-15 -3l-20 2l-2 13l-5 18l19 48l-1 96l17 121l-2 63l-2 21z" />
<glyph unicode="N" horiz-adv-x="1337" d="M137 1181l8 22l26 16q33 19 39 25t11 24l17 10l47 54q5 5 12 5q19 0 36 -29l43 -87l18 -24l18 -30l-7 -7q29 -27 35 -37q11 -17 28 -53l53 -86q15 -22 15 -33t-7 -24l39 -22l-4 -18l16 -22l41 -58l31 -29l9 -32l91 -97l-18 -11q5 -19 12 -24q8 -7 33 -11l45 -66l-13 -2 l26 -20q29 -19 37 -30q7 -10 10 -39l14 -15l-2 -14q0 -16 15 -46l22 -15q44 -18 45 -21l44 -66l22 -15l29 -25l9 22v122l19 48q-20 28 -20 39q0 9 2 15l12 42l7 142l16 32l-12 30l8 47v2q0 13 -24 23l-6 260q15 2 19 7q5 6 6 28l-30 22l-4 35q-1 40 -10 57q-9 14 -33 14 q-5 17 -5 24q0 36 87 60q13 21 25 30q9 6 45 22q12 -19 12 -38l-4 -28l6 -23l-2 -38l1 -84q0 -23 -5 -43l-9 -41v-2l17 -66l-5 -49l6 -22q-2 -10 -22 -20q15 -27 15 -35l-4 -82l3 -66l-12 -47l5 -66l-6 -92l6 -53l-7 -36l5 -93l-2 -27l-8 10q-15 -15 -15 -25q0 -20 29 -38 q8 -32 8 -56q0 -37 -15 -75q-14 -36 -56 -99l-15 -21l-40 -23l-8 22l-47 71l-59 75l-45 79l-16 21l3 23q0 21 -35 50q-42 34 -53 49l-56 99l-29 34l-18 52q-18 40 -64 41l-12 23l-57 95l-16 53l-33 38l-7 -8l-17 9q-31 55 -67 98q-32 37 -63 53q8 30 8 36q0 10 -5 18 q-4 7 -13 7l-23 -8q-17 16 -27 16l-21 -10l23 -47l-25 -9l6 -16l-8 -43l5 -87l-6 -27l-18 -9l4 -25l16 -57q1 -1 1 -5q0 -17 -25 -48l9 -41l8 -22l1 -295l11 -86q0 -4 -1 -6l-13 -59l3 -10q19 -13 19 -24q0 -17 -49 -84l-13 -18l-23 2q-23 -23 -31 -23q-1 0 -2 1l-22 2 l-16 -5l2 25q0 25 8 36l23 29l16 24l-23 21l5 24l14 28q-10 24 -10 34q0 6 1 7l15 53l-5 115q7 16 32 21v10l-23 25l3 23l-4 21l6 57q0 3 -1 4l-13 44l7 56l-4 41q0 22 27 38l-2 27l-14 31q0 9 7 30q-18 15 -18 32q0 19 12 62l-10 15l-2 28l-10 68q0 9 10 30v22q0 63 -11 76 z" />
<glyph unicode="O" d="M192 768l-1 -11q36 -21 36 -44l-2 -70l15 -102l-3 -26l34 -53q-24 -13 -24 -27q0 -27 32 -27q-2 0 20 2l38 -45q-13 -14 -13 -23l7 -17h8l42 -38l52 -30l76 -59l55 -11l33 -34l103 -38l86 -38l28 3l185 -26l30 -3l21 3l39 10l100 -6l43 8l76 30l29 9l15 -13q33 8 34 18 l9 34l101 85l40 71l17 29h11l13 28l-6 9l6 19l3 82l16 38l4 29l16 10l10 63q-21 38 -21 54v3l4 96l-1 31q29 20 29 41q0 43 -56 52l-6 55l-50 76l-7 31l-12 2l-20 23l-45 53l-41 27l-40 33l-20 5l-12 23l-19 -1q-23 0 -43 11l-89 49l-88 13l-64 13l-62 -3l-46 1l-49 -15 l-44 -7l-47 -26l-24 5h-1l-24 -7l-111 -61l-27 -4q-31 -41 -49 -47l-27 -10l-88 -86l-16 -13q-32 -26 -74 -99l-11 -19l-20 -3l-10 -21l-13 -51l-12 -15l-6 -20l-40 6q-5 -15 -11 -21q-7 -7 -21 -13zM68 521l6 86l7 23l6 56l50 129l7 21q16 52 65 79v12l51 59q8 -5 14 -5 q16 0 20 12l16 43l17 25q13 21 31 32l32 15l25 32l64 44q53 40 72 40l16 -5l28 32l18 3l187 76q15 7 39 7q19 0 52 -11l17 4l5 18l28 -3l17 -2h4l49 12l78 -3l39 8l33 -4l30 1l35 -12l61 -11l42 -23l123 -45l11 -11l24 -14v-10l-5 -3q-7 -7 -7 -13q0 -8 21 -22l6 8 q21 0 33 -22q0 -19 5 -31q4 -10 17 -20q21 8 30 8q26 0 42 -21l17 -22l37 -32l5 -23l23 -31l8 -27q-18 -21 -18 -34q0 -5 3 -10l60 -62l5 -23l16 -47q0 -9 -5 -24l-12 -8v-11l16 -2l3 -21l10 -77q0 -7 -1 -9l-20 -61l4 -50l-14 -28q-9 3 -14 3q-18 0 -18 -33q0 -4 2 -6 q21 -30 21 -43q0 -6 -4 -14q-21 -18 -29 -45l-22 -10l6 -6l-7 -7l16 -12l-1 -7l-18 -15l-23 -39l-16 -17q-13 13 -23 13q-18 0 -18 -20q0 -10 17 -27q-31 -52 -103 -98q-70 -45 -146 -81q-83 -39 -130 -49l-20 -4q-70 -14 -93 -14h-5l-38 3l-26 -5l-35 23l-29 -14 q-18 -12 -26 -12h-9q-6 16 -16 28q-8 7 -26 15q-59 -32 -96 -32q-9 0 -23 8q-16 0 -24 2l-68 21l-61 -3l-22 19l-33 -3l-29 3l-41 13l-126 27l-35 29l-46 16l-46 50q-16 11 -47 11l-27 32q8 21 8 30q0 30 -73 42v7l-13 6l-12 21l-10 11l-1 23l-21 59l-4 21z" />
<glyph unicode="P" horiz-adv-x="1327" d="M360 1109l-18 -12q30 -21 30 -44q0 -2 -2 -16l-15 -45l14 -41v-53l9 -118l-3 -17h-10q-22 0 -22 -20q0 -16 12 -18l31 1l90 1l23 4l18 -22l27 5l75 21l137 15l79 25l69 21q41 12 53 27l21 29l38 26l4 18l27 15l9 14l71 66l11 41l13 36l-17 30l-5 25l-73 71q-22 26 -36 31 l-13 -9q-138 56 -220 56h-2l-93 -2l-83 15l-58 -19l-128 3q-26 -3 -43 -20t-17 -43v-75zM155 1249l-18 2l2 36l17 7l80 31l53 21l201 -10l43 8q19 4 52 4l38 -2l66 -5l44 -2l17 1l37 3l6 -3l17 -16l90 -2l49 -20l25 12l64 -13l19 -18q18 -19 29 -21l77 -6l67 -37l38 -21 q-7 -10 -7 -15q0 -10 23 -28l2 -28l15 -39l-17 -56q-9 -33 -21 -43q-15 -13 -49 -23q-2 0 -5.5 -1.5t-7.5 -2.5q-4 -2 -6.5 -2.5t-4.5 -1.5l21 -17q-6 -27 -32 -53q-25 -1 -36 -6t-25 -22l15 -8l-38 -30l-51 -23l-23 -17l-59 -13q-17 -5 -53 -30l-34 -21l-15 4l-45 -15 l-83 -22l-54 -17l-48 3l-30 -13l-28 2l-22 -8l-27 3q-28 0 -57 -12l-84 -35l-21 -8l-5 -19l9 -115l-8 -20l14 -99v-9v-13q-32 -3 -32 -23q0 -3 1 -4l25 -54l9 -130l3 -48q0 -26 -22 -33l-32 -11l-31 -28l-25 -2l-46 -26q-10 -2 -11 -2q-9 0 -15 8q-7 7 -7 17q0 9 3 15l20 36 l-6 61l20 160l-14 76l18 100l-4 39l16 59l1 32h-15l-1 21l3 19l14 27l-3 18l2 24l-15 21l-7 112l5 25l2 47l9 29l-14 37v2q0 1 -1 1l4 67l-3 17l17 10l-3 55h-25q-6 33 -6 48q0 22 7 63v2q0 5 -3 9t-7 4l-29 9z" />
<glyph unicode="Q" d="M232 725l-11 -26l3 -37l-3 -74l9 -41l2 -35l14 -25l10 -24q-19 -19 -19 -37q0 -10 7 -13l44 -14l33 -38q-7 -13 -7 -16q0 -18 38 -41l13 -29l42 -28l35 -27l106 -44l46 -39l58 -21l51 -17l48 -4l43 -17l18 -8q33 16 85 29q54 14 81 14q17 0 36 -17q16 10 20 10l31 1l20 4 l33 -24h31l51 -15l52 17l33 6l51 47l22 -8l32 24l24 31l61 43l37 44l20 23l14 -12l21 36l-2 25l-3 23q0 1 1 2v2l8 25l4 38l34 74l8 45l5 27q-19 34 -19 57l5 97l-1 37q24 14 24 24l-7 25l-7 23h-29l-8 17l-5 55l-29 41l-26 59l-41 43l-40 46l-32 20l-14 26l-7 -4l-25 15 l-33 26l-59 14l-82 46l-93 18l-76 16l-47 -3h-49l-41 -13l-49 -5l-51 -25l-30 2l-126 -61l-34 -9l-55 -46l-28 -11l-51 -51l-53 -47l-37 -45l-42 -62l-25 -15q-11 -8 -15 -32q-9 -46 -18 -61t-27 -15l-22 2l-30 -26q1 -13 8 -18q6 -6 36 -19zM277 976q20 14 26 23t9 31 l16 15l43 46l199 124l21 21l31 10l186 69l44 5l21 2l20 -13q24 18 39 24q15 5 46 5l24 -1h2h8l61 5l36 1q41 0 99 -9q60 -11 77 -20l51 -26l113 -44q17 -13 19 -24l5 -29l12 -18q9 4 16 4q16 0 39 -19l-10 -10l15 -34l32 -6l40 -9l28 -30l29 -23l14 -34l22 -32 q10 -14 10 -27q0 -5 -1 -7l-13 -28q-2 -6 -2 -7q0 -15 33 -20l11 -21q33 -63 33 -95q0 -15 -16 -34l18 -15l6 -111l-5 -23l-19 -92l-16 -13q-2 -16 -5 -22l-9 -16l11 -31q0 -2 1 -3v-4q0 -16 -33 -54l-20 -25l10 -22l-46 -68q-17 11 -24 11q-4 0 -23 -11q0 -4 -1 -6.5 t-1 -3.5q0 -10 12 -33q-27 -40 -88 -82q-59 -41 -165 -88l24 -21l73 -9q13 -1 33 -32l14 -17l19 -7l9 9q92 -16 158 -16q87 0 142 39q58 40 75 40q23 0 23 -24q0 -38 -41 -68q-43 -31 -101 -35l-186 -14l-94 -15l-109 14l-43 -2q-27 1 -65 16l-95 36l-41 6l-41 17l-62 12 l-24 14l-19 13q-28 -14 -40 -14t-17 5l-16 16l-22 11h-4l-102 -25l-93 31l-71 -1l-33 18l-135 21l-68 20l-21 4l-27 27l-47 19l-46 49l-48 17l-25 30l5 24q0 17 -6 20l-73 39q-20 12 -39 91q-21 78 -21 149l8 70l10 37l2 43l53 133l5 14q12 31 65 101q33 45 47 45q9 0 19 -3 z" />
<glyph unicode="R" horiz-adv-x="1402" d="M352 948l9 -23l-5 -32v-28l-8 -48q4 -24 42 -41l-2 -9l90 4l14 -13l18 4l32 5l66 24l22 -9l22 11l92 33l32 21l68 30l49 81l55 60l4 32l19 52l4 29q0 43 -25 61l-32 24l-35 26l-33 3l-47 17l-11 1l-16 -1l-12 30l-26 3l-15 -24l-141 12l-14 -10l-15 2l-139 -16l-21 1 l-15 -19q-23 0 -30 -16q-8 -18 -8 -70l2 -65l2 -43l1 -27q-29 -21 -29 -40q0 -24 36 -32zM176 1258l-39 21l4 27l20 7l15 6q71 26 127 29l72 4l30 3q24 -18 32 -18h1l101 18l22 -12q2 -1 7 -1l25 2l71 -3h141l106 -18l67 -5l56 -29l62 -17q32 -12 51 -39q18 -28 18 -68 q0 -35 -18 -86l-35 6q1 -24 18 -35l-11 -23l-22 -23l-11 -14q-5 -5 -33 -5q-5 -8 -5 -14l8 -18l-12 -16l-23 -11l-45 -51l-33 -14l-33 -22l-20 -2q-5 -15 -12 -23q-7 -9 -17 -13l-24 -10l-30 -11h-25l-49 -17l-14 -1l-9 1l-27 -24q-10 7 -18 7q-2 0 -11 -4q-3 -7 -3 -9 q0 -8 14 -22l-7 -18q-19 -13 -19 -26q0 -3 4 -10h21q10 12 31 14l20 -21l-11 -10q3 -30 20 -30l21 2l21 -27l58 -63l38 -35l42 -50l-5 -27l43 -22q13 -24 16 -27q7 -7 26 -21l47 -50l30 -34l16 -18v-14q0 -18 9 -32l42 -12l18 -15l36 -31l101 -64l20 -20q10 -2 9 -2h1l63 10 h2q11 0 38 -24l-22 -14l-24 -19l-37 -9l-72 -25q-26 -8 -63 -8l-35 1q-35 49 -38 50l-52 31l-25 20l-13 15q-23 25 -25 32l-9 58l-38 14l-33 49l-40 15l-21 32l-18 4l-14 17l-32 27l-18 22l-29 16l-36 40l-19 21q2 24 2 23q0 24 -16 27l-49 11l-14 16l-57 43l-28 42l-35 19 l-30 27l-26 10l-64 48l-20 7l-7 -26l-8 -25l-3 -47q15 -10 15 -22q0 -7 -3 -12l-9 -26l-3 -57l-4 -44l5 -29l-8 -25l13 -24l-3 -21l-4 -54l2 -32l20 -162v-5q0 -18 -13 -31l-21 -19l-15 -15h-35q-17 0 -30 -13l-54 -44q-8 -5 -18 -5q-21 0 -21 14q0 10 24 58q11 24 11 52 l2 68l12 35l-7 73l11 18l17 -1q13 0 18 8t5 31l-15 13q-22 18 -22 40l5 38l-11 13v32l1 46l8 76v1l-8 97l6 47l-12 27q3 12 36 24v36q-10 18 -27 18l-1 46l-5 77v2l7 39q-14 24 -19 42q-4 13 -4 48v5l1 40l-6 6l5 72q0 34 -18 59z" />
<glyph unicode="S" horiz-adv-x="1336" d="M137 276l15 -76q19 -9 27 -17q6 -6 11 -27l24 4l19 -12l17 -26l67 -17l69 -31l137 -29q37 -23 40 -23q13 0 16 20l15 3l125 -8l38 20l24 -7l37 8l42 13q37 12 52 33l28 40l34 37q9 11 17 47q38 0 38 25l-3 20l-2 25l16 16l31 93h11l-6 60l-20 55l-7 23l-30 2l-73 45 l-91 35l-20 21l-28 18l-21 -11l-6 -10l-138 6l-30 37l-25 -32l-21 5l-57 12q-55 13 -93 25q-27 8 -47 20l1 22l-34 15q-8 0 -17 -4q-37 29 -46 43q-12 18 -25 61l8 3l-20 23l-2 32l-4 33v6q-1 1 -1 5l12 40l13 22l12 31l33 25q22 18 22 58l19 13l107 82l48 30l78 38l107 35 l24 9l28 3l61 6l31 13l100 -13l45 2l29 -10l48 -11q51 -10 51 -33q0 -12 -1 -16q-15 -3 -21 -7l-28 -23q-18 -15 -78 -32l-20 11l-54 40l-29 4l-81 17l-48 -3l-55 -2l-99 -52l-69 -34l-46 -38l-24 -25l-42 -77l-41 -25l-7 -25l26 -15q-3 -15 -3 -22q0 -13 9 -34l-38 -21 l10 -22l20 -8l38 -6l38 -32l83 -37l23 -21l68 6l62 -6l4 -11l25 4l34 4q5 0 15 -2l52 -14l28 -5q4 -46 27 -46q5 0 6 1l44 28l55 -4l38 2q36 0 61 -24l51 -46q3 0 6 1q-1 0 15 2h1q20 0 71 -70l15 -20l5 -26l11 -95q0 -21 -10 -58l-42 3l-15 -7l4 -27q24 -13 24 -36 q0 -39 -9 -53l-54 -71l-18 -30l-39 -41l-39 -37l-20 -9l-158 -104l-77 -24q-33 -11 -43 -11q-3 0 -21 5q-31 -16 -68 -16l-47 1l-89 1l-33 9l-120 8l-66 36l-28 -6l13 -11l-28 4l-28 5l-80 58l-53 6l-55 35q-35 21 -35 34q0 19 17 51q16 30 36 52q30 33 64 38z" />
<glyph unicode="T" horiz-adv-x="1424" d="M42 1215l-28 2q2 33 7 45q6 14 24 27l75 57q30 14 94 14h20q12 -29 33 -29q17 0 46 23l45 -4l88 -29l73 4l59 -14l115 -6l51 -27l22 -3l3 8l23 -1q51 0 73 -5q21 -5 37 -21l36 -6l19 11l32 3l43 18l73 -1l50 8q32 -9 50 -9q100 0 186 44l14 -5l5 -24l-17 -14l-25 -43 l-80 -30l-37 -24q-10 -7 -25 -7h-2l-58 11l-135 5l-94 9l-90 -7l-34 6l-14 -1l-10 -47l3 -25l3 -32v-4q-1 -1 -1 -4l-11 -48l3 -37l-4 -30l7 -23q-22 0 -30 -6q-7 -7 -9 -30q33 -7 35 -20l-4 -71l1 -47q0 -27 -39 -66q9 -15 15 -18q5 -4 25 -7l5 -14q-15 -11 -19 -17 q-4 -7 -4 -26l24 -27l-2 -48l2 -43q0 -14 -15 -31l11 -25l-4 -27l8 -36l-5 -29l2 -24l2 -41q-39 -16 -39 -44q0 -25 37 -44l14 -168l-14 -12l-18 -9l-53 -45l-19 -2h-15l-11 -14q-11 8 -18 8q-6 0 -14 -5l-11 27q1 2 1.5 4t0.5 4q0 5 1 6v4l8 43v2l-8 53l9 78l5 114l11 86 v23l18 23l-24 92l9 64l-6 85l-4 57v3q0 20 18 68l-8 22q-21 56 -22 77v2l3 29l-13 51l2 29l-13 74l-3 24l31 62q20 8 20 23q0 12 -1 15l-55 11l-20 -1l-21 3l-45 18l-90 -8l-137 14l-147 -9l-25 5q-22 -30 -44 -30q-6 0 -7 1z" />
<glyph unicode="U" horiz-adv-x="1640" d="M116 639l17 17q17 -5 26 -5q14 0 14 12q0 13 -19 23l-1 40l-20 7l24 123l10 22l11 18l23 70l16 26l8 22l25 24q-5 30 -5 33q0 21 9 40q10 19 37 61l-19 10l-21 -10q-10 24 -10 38t17 28q16 13 40 13l23 -1l10 17l25 4l99 48l28 11q20 -25 20 -42q0 -11 -7 -17l-20 -17 l-44 -62l-13 -11l-2 -30l-27 -40l-37 -52l-22 -36l-25 -97l-26 -76l-4 -59l-28 -80l-1 -37l-18 -76l8 -49l-9 -37l34 -112l3 -23q-30 -4 -30 -40q0 -19 36 -24l10 -25l17 -47l48 -64l8 -23l20 -8l37 -31l94 -28l63 -18l36 -12q26 -30 39 -30t29 37l116 6l21 -19l22 11l71 26 l27 20l77 35l50 43l25 4l68 43l47 13q4 4 8 13l-18 11l21 14l34 27l61 99l31 24q9 12 9 41l-1 13v59l1 73q15 12 20 22q4 7 4 31l-36 27l-10 224l13 21q-11 17 -11 28q0 15 12 43l-12 8l-2 24l-8 87q0 14 18 38l-47 47l12 33l20 1q33 33 52 39l22 7l20 13l26 -4q19 28 28 35 q8 5 29 5l11 -25v-25l-2 -60l-21 -74l3 -36l-6 -29l14 -47q1 0 1 -1v-1q0 -15 -24 -57l-13 -26l-23 -5l14 -20q37 -49 37 -66l-10 -60l-1 -33l-13 -3l9 -12l-8 -32v-3l18 -121l-6 -25q-25 -12 -25 -27t27 -36l2 -86l-8 -25q-3 -12 -3 -15q0 -10 12 -34q10 -21 10 -41 q0 -17 -15 -40q21 -20 24 -29l-1 -79l5 -100v-5q-1 -2 -1 -7q-25 -5 -39 -14q-20 -12 -65 -48l-9 -15l-19 3l-38 -31q-11 24 -11 41q0 32 17 54h14q0 14 -5 22q-5 6 -23 11l2 100l9 6l-7 47q-12 5 -16 5l-10 -2l-11 -10q-4 1 -17 1q-12 0 -18 -6l-24 -17l-41 -19l-150 -103 l-49 -17l-66 -35l-88 -30l-67 -21q-40 -18 -63 -18h-35l-61 -22l-56 -1l-34 -4l-31 4l-74 14l-45 21l-34 9l-39 39l-18 19l-33 -4l-19 16l-12 21l-35 29q-11 16 -11 64v16l-31 16l-12 35l-15 61l-9 22l28 51q-26 23 -37 42q-10 17 -10 43q0 19 8 41l25 60z" />
<glyph unicode="V" horiz-adv-x="1190" d="M23 1179l-23 35l7 17l3 17q2 8 17 23q36 0 62 17q23 16 46 56q15 7 21 7q5 0 14 -3l12 -38l10 -29q0 -10 -17 -25l23 -1l4 -24l14 -60q2 -14 2 -17q0 -20 -19 -39l24 -4l3 -25q3 -19 9 -24l23 -20l20 -74l38 -60l7 -57l27 -44l-12 -33l1 -26q0 -18 2 -26q1 -7 4 -8 q2 -1 15 -6q12 15 21 15q2 0 4 -2q3 -2 6 -5l32 -100l46 -108q4 -11 4 -23l-4 -40q18 -16 19 -34q13 7 19 7q11 0 15 -10l16 -54l51 -95l-5 -34v-2q0 -21 15 -38q15 -18 31 -18q15 0 23 17l77 197l28 47q3 21 10 27q8 6 29 6v27q0 35 10 61l-9 16l25 54l22 71l31 19 q11 9 11 16v2l-10 47l50 136l1 14l-1 23l17 15l-15 62l8 12l-10 15l19 31l-5 11l11 12q1 22 4 30q0 1 31 59l15 32q-15 17 -15 24q0 17 16 42q6 8 10 9l70 17l63 24q31 -7 31 -43q0 -24 -14 -47l-15 -26l-12 -54l-68 -145l-25 -102l-21 -23q0 -30 -6 -44q-8 -14 -28 -33 l-35 -34q0 -72 -19 -104l-40 -67l-35 -122q-31 -63 -31 -84q0 -4 3 -16l-12 -21l-20 -55l-16 -28l-12 -58l-21 -48l2 -38l-37 -52q-8 -14 -8 -38l-35 -23q-78 -54 -127 -63l-22 39l-45 128l-22 79v1l1 27l-9 23l-9 -3l-30 85l11 23q-17 5 -23 11q-7 6 -15 21q9 17 9 28 q0 1 -0.5 6t-1.5 10q-14 17 -17 18l-30 19q-9 5 -9 30v1l2 25l-9 17l-8 33l-31 25l-35 92l-16 27l1 27l-25 34l32 27l-18 19l-20 -1q-5 0 -16 3l-61 119q12 18 12 28l-6 22l-33 13l-30 56l-19 27l-6 44l-11 22h-13z" />
<glyph unicode="W" horiz-adv-x="1603" d="M45 1291l22 -1l11 14l22 14l35 18l26 20q30 -21 36 -48l30 -123l8 -24q-27 -15 -39 -15l-19 3q8 -39 51 -39l19 2l9 -32l13 -43l18 -26l4 -24q23 -29 23 -43q0 -12 -26 -23q10 -21 10 -30t-11 -29l20 -15l29 -10l3 -33l32 -35l10 -35l10 -31l-12 -12q25 -19 37 -44 q32 -70 58 -213q13 -79 44 -79h3l1 2h1h1l23 37l28 29l13 21q-17 17 -17 32q0 9 4 13l50 81l12 63l32 97l2 32l13 35l3 77l15 26l6 40l16 35l-1 41l17 74l15 108l22 18l14 24l-8 24l9 23q33 1 60 25l36 -7l17 -29l23 -21q9 -7 15 -77l3 -25l-27 -12q1 -33 10 -43 q8 -10 33 -11l14 -79l7 -20l30 -62l2 -25q1 -2 1 -8l-15 -13l23 -26q-7 -19 -27 -21q8 -18 14 -23q8 -6 28 -10q25 -53 25 -123h-13l9 -19l20 -25l5 -76l29 -91l17 -64q9 -19 34 -23l7 -25l8 26l40 98l3 20l29 45l18 31l-18 23l6 16l18 13l42 177l20 29l15 104l23 88l3 14 q17 8 24 30l7 21l-18 24l20 63l5 38l-2 40l22 21l31 39l79 40l13 21q3 1 10 1q20 0 20 -15q0 -12 -16 -40l-11 -62l-6 -42l-31 -107l-11 -28l-22 5l-17 -4l-3 -23l28 -12q-1 -27 -6 -36q-4 -8 -19 -18q0 -65 -28 -97l-31 -44l2 -32l-9 -32l-5 -33l-23 -49v-27q0 -16 -20 -62 l-13 -31l-12 6q-5 -17 -20 -26l3 -32l14 -4l-6 -29l-32 -79l-24 -44l-2 -47l-5 -27l15 -37l-12 -20l-28 -41l-5 -41l-8 -25l-4 -28l-25 -38l-10 -47q-6 -24 -22 -40q-17 -17 -36 -17l-24 9q-4 26 -6 27l-21 36l-16 90l-15 44l-14 3l2 47l21 7q-9 23 -18 30q-9 6 -31 11l6 47 l-5 28q13 4 18 14l-9 14l-6 1l-9 21l-27 107l-32 59l-23 109l-33 67l-14 21q22 4 31 25q-12 12 -22 12q1 0 -21 -2l-5 15l4 53l-15 36l-2 20q-12 14 -22 14q-9 0 -11 -8l-39 -142l-21 -20l-19 -33l-21 -51l2 -52q-3 -34 -38 -51l-2 -22l-12 -25v-57l-14 -20l-9 -23l7 -7 l-7 -21l-36 -120l-11 -52l-9 -28q-4 -9 -4 -23q0 -15 11 -37q-15 -6 -21 -12t-12 -21l7 -7l-13 -33l-9 -64q-1 -7 -19 -21l-17 -13l-2 8q-18 15 -27 33q-8 14 -20 53l-24 74l-25 111q-11 34 -31 65l11 20l20 38q0 8 -17 22l-6 -9l-34 3l-8 27l-9 63l-8 19l16 51l-5 16l-32 3 l-39 94l8 18l-2 15l-3 21l-29 -4l-8 32l-21 32l-34 91l-23 22l-19 74l-14 18l8 29q0 14 -7 21l-29 27l-30 109l-48 67v7q0 16 31 48z" />
<glyph unicode="X" horiz-adv-x="1333" d="M35 -16l-21 21v11l137 121q40 32 48 50l12 27l79 85l9 24l102 154l37 51q19 12 21 16q3 5 3 14v7l15 18q46 54 48 89q0 1 -0.5 4.5t-1.5 7.5q13 16 13 25q0 10 -16 23l-47 43l-31 29q-30 37 -33 40q-8 8 -27 17l-6 30l-18 12l-23 25l-32 21l-35 67l-77 65l-70 86l-29 23 l-15 13l9 27l29 29l12 24l63 35l24 14q37 -18 58 -61l2 -8l-12 -4l9 -25q8 -6 25 -6q45 -33 62 -56q17 -25 23 -59h-17l14 -33h27l14 -22l38 -57l29 -27l26 -51q-24 -24 -24 -39l5 -17q4 1 16 1q15 0 34 -14l7 17l19 -20q21 -20 28 -29q7 -10 7 -27q47 22 67 68l27 65l60 81 l33 57l22 39l18 31l14 7q17 49 54 98q10 14 32 16l27 19q-8 14 -8 23q0 15 12 15l27 5l86 32q25 0 26 -27l-20 -18l-52 -66l-29 -25l-27 -40l-19 -6l-26 -13q12 -19 12 -29q0 -17 -50 -41q-11 -49 -16 -54l-27 -34l-39 -55l-27 -25l-11 -18l-32 -4l16 -39l-46 -39l-4 -18 q-9 -46 -21 -68l25 -27l47 -32l42 -55l32 -26l11 -41l17 -25l23 -10l26 -28l29 -29l9 -34l32 -12l-11 -13l12 -25l31 -3l11 -22q18 -39 31 -46l70 -43l24 -16v-8q-1 -2 -1 -6q0 -21 15 -45q17 3 21 9q5 5 5 23l97 -72l24 -5q43 -4 53 -13q8 -7 15 -48q-33 -30 -43 -74 q-20 -4 -48 -23q-9 -20 -16 -21l-28 7l-21 3l-51 36l-36 24l-37 24v8l-7 -1l-16 17l-22 35q-1 2 -15 13q18 23 18 38q0 6 -4 13q-10 2 -9 2q-13 0 -52 -16l-24 23q0 28 -7 36t-30 13l-55 78l12 4q-9 22 -32 22l-44 46l-11 21l-54 63l-5 31l-15 17l-10 -21l-15 22l-43 48 l-3 7q-3 8 -7 13l14 9q0 23 -15 32q-14 -8 -19 -8q-7 0 -15 4l-14 -18l-29 -37l-52 -69l-49 -82l-18 -13l-15 -19q-2 -30 -28 -67q-26 -36 -69 -67q-9 -33 -17 -51q-9 -19 -34 -56l-14 -19q-13 10 -23 10t-27 -17l17 -26l-54 -64l-93 -50q-18 7 -32 7q-7 0 -22 -3z" />
<glyph unicode="Y" horiz-adv-x="1283" d="M165 1338l17 1l10 -12l-13 -45l3 -17v-16l42 -48l4 -20l-3 -35l33 -25l-9 -31q-6 -18 -6 -27t14 -20l41 5q42 0 54 -22l29 -52l21 -33l6 -19l-14 -12q23 -33 38 -33q13 0 17 1q44 -58 62 -76q28 -29 65 -57l-14 -8q9 -23 15 -29q4 -7 21 -16l11 10l56 -58q7 -49 39 -49 q12 0 28 12q4 4 9 8l14 11l20 19l62 86l25 26l53 98l51 68l17 51l22 44l15 58l40 63l8 20l50 -6q-1 22 -8 30q-6 7 -29 8l8 21q15 42 34 54l40 26q70 44 93 44q3 0 13 -3q-3 -48 -22 -77l-42 -59l-44 -82l-32 -23l-35 -88l-14 -14l-23 -35l-25 -16q-15 -12 -15 -24l2 -27 l-28 -40l-26 -49l-17 -12l-41 -81q-13 -21 -55 -50l-21 -15l15 -31l-14 -20l-37 -46l-21 -39l-17 -14l-1 -38q0 -29 -5 -42q-6 -12 -28 -31q5 -19 10 -25q4 -7 22 -20l-6 -100l-12 4l-15 -10l6 -54l17 -2l4 -92l-21 -4v-18q31 -22 31 -38q0 -5 -8 -19l-20 -1l-21 1l-22 -7 q-63 -23 -95 -23q-18 0 -38 23l4 26l13 74l6 49v6l-4 75q0 11 14 30l6 15l-7 6l-23 3l4 25l15 22l4 23l-1 39l1 29h16q0 24 -4 32q-5 10 -16 18l14 8l-12 23l-49 39l-44 56q-13 10 -39 13q-1 44 -13 55l-71 66l-2 57q-8 32 -28 32q-11 0 -25 -6q-2 28 -10 38q-9 11 -38 26 l-13 -6l-28 32l-86 88l-33 46l-19 20q30 5 30 20q0 10 -8 18q-8 7 -20 7q-14 0 -25 -4q-64 80 -64 128q0 18 9 37q9 20 20 25l61 28l49 26l12 2z" />
<glyph unicode="Z" horiz-adv-x="1361" d="M52 -3l14 8l14 23l13 23l42 33q20 14 45 57l23 6q5 29 18 50l48 71q25 38 43 56q13 12 37 15l-8 20l25 44l22 35q3 4 7 10q2 3 5 6.5t6 7.5l16 -3l14 24l-13 9q13 24 27 38q41 45 79 113l23 -9l29 34l-13 48l50 72l12 6l8 -2l12 33l-11 11l21 23l97 153l15 12l7 27l16 14 l40 64l16 15l-3 22l24 39l-38 -2l-93 -4l-39 5l-23 -10l-105 10l-48 -7l-108 5l-28 -4l-19 32l-55 -10l6 -17l-197 -11q-11 -17 -24 -17q-26 0 -26 26q0 18 16 31l49 39l51 48l41 -17q36 17 52 17h4q1 -1 3 -1l129 -19l139 -6l19 -10l45 16l44 -8q15 -26 26 -26q-1 0 11 5 q8 24 26 24h3l82 -7l105 9q36 -2 70 -14q45 17 62 17q19 0 44 -22l-52 -85l-11 -4l-13 7l-16 -12q-10 6 -15 6q-3 0 -11 -5q0 -19 4 -27q4 -9 15 -25l-15 -18q-27 -37 -38 -46q-10 -7 -32 -7l-7 -6l-22 -1l-4 -21q22 -10 22 -24q0 -4 -1 -5l-33 -48l-23 -37l-34 -33l-4 -31 l-31 -38l-59 -90l-24 -10l-6 -66q-55 -58 -86 -120q-16 2 -18 2q-12 0 -25 -13q3 -9 3 -12q0 -9 -12 -23q-29 0 -46 -15q2 -18 4 -24l14 -24q2 -2 2 -6q0 -19 -57 -99l-12 -18h-53q-4 -16 -16 -19v-25q26 -12 26 -30q0 -13 -43 -68l-17 -24q27 -18 42 -23q17 -6 50 -6h19 l70 2h23h24q44 0 69 -5q23 -4 48 -21l42 25l72 -3l110 3l21 -2l7 -22l21 4l30 20l61 -10h160l26 -5l17 16q20 -10 33 -10q18 0 65 34l17 10q20 0 36 -14q-16 -58 -33 -67l-100 -56l-30 -21q-21 -12 -42 -12q-12 0 -14 1l-74 25q-20 7 -34 7h-4q-1 -1 -5 -1l-47 -4l-89 15 l-82 -1l-37 2l-21 14q-26 -14 -36 -14q-8 0 -26 6q-19 -12 -35 -12l-87 3l-36 -1q-20 19 -34 19q-6 0 -9 -1l5 -19l-47 -6q-29 20 -33 20q-10 0 -18 -23q-126 0 -216 -18q-40 -8 -60 -8q-15 0 -41 14q-19 -6 -37 -6q-21 0 -39 15z" />
<glyph unicode="[" horiz-adv-x="891" d="M372 615l-5 22l41 3q-19 39 -46 58l-4 17l4 74l-8 127l7 49l5 20l-21 238l-8 21l-4 65l-12 21l-2 10l2 24l9 12l54 -13l-17 14q-13 10 -13 21q0 7 3 16q-10 5 -16 5q-7 0 -19 -5q-6 79 -20 84l-39 16l10 20l34 18l18 8q42 18 71 18q6 0 9 -1l148 -22l67 -6q8 -1 39 -12 l43 13l71 13l54 17l20 -4q-5 -25 -12 -32q-7 -9 -34 -22q0 -26 -11 -31l-43 -22l-17 -9l-30 14l-49 -15l-141 11l-20 -32l10 -7l-1 -17l4 -45l-8 -310l5 -29q0 -6 1 -9v-14l2 -61l-6 -51v-4l5 -54l-18 -52l9 -16l14 -19l-15 -43q17 -28 19 -42l-4 -33l7 -91v-3 q0 -14 -21 -40q26 -32 26 -54q0 -6 -3 -14l-28 -63l29 -45q16 -23 16 -38l-15 -327l12 -86q12 3 14 3l152 -45l45 6l24 -7l20 -3q29 44 59 44l37 -7l-11 -43q-13 -24 -21 -25q-17 -4 -20 -7l-21 -16q-18 -10 -26 -19l-8 -11l-36 5l-43 -20h-2l-2 20q-1 4 -6 4l-3 -1l-52 -15 l-57 12l-176 -7l-75 27l8 22l26 57l4 53l10 49v76l7 29l-4 481l3 59z" />
<glyph unicode="\" horiz-adv-x="1083" d="M1059 -227l24 -21q-26 -29 -67 -29q-46 0 -100 18q-3 15 -9 24q-7 9 -22 17l-2 21l-17 47l-6 43l-7 26l-7 10l-20 -6l-14 29l-17 31l-20 56l-55 93q-5 13 -5 19q0 11 7 26l-36 13l-73 141q11 14 14 22q2 8 2 9q0 17 -37 18l-10 22l13 20l-12 14l-19 16q-3 0 -14 -6 l-17 29l-29 77l-40 63l-14 24q-3 6 -3 11q0 2 1 4.5t1 6.5l13 6q0 39 -16 39q-7 0 -26 -8l-12 31l11 22q-48 19 -53 33l-13 62l-96 158l-15 55l-143 269l-27 96l-41 69l-31 53l16 31l30 11l42 -5q57 -3 81 -15q23 -14 32 -47q-21 -16 -23 -24q-2 -6 -2 -7t2 -11l19 9 q8 -6 8 -11q0 -3 -3 -11q0 -2 -4 -9l18 -4l4 -20l11 -54l32 -69l15 -49l10 -27l-5 -45l16 -29l13 3l10 -25l39 -72q11 -20 12 -41q2 -44 5 -53q3 -12 13 -12q7 0 23 4l5 -20l23 -44l-10 -35q0 -18 40 -19q2 -10 2 -33l-16 -25l18 -8l27 -15l19 -38l29 -45l19 -55l25 -37 q-8 -10 -11 -17q0 -12 33 -41l26 -43l40 -81q-2 -26 -2 -25q0 -11 5 -16q4 -4 24 -7l11 -27l13 -26l85 -127l-5 -33l22 -14l37 -74l64 -110l14 -46l7 -15l28 -1l56 -74z" />
<glyph unicode="]" horiz-adv-x="891" d="M544 691l5 -22l-41 -3q16 -30 20 -34q5 -8 26 -24l4 -17l-4 -74l8 -127l-7 -49l-5 -20l21 -238l8 -21l4 -65l12 -21l2 -10l-2 -24l-9 -12l-54 13l17 -14q13 -10 13 -21q0 -7 -3 -16q10 -5 16 -5q7 0 19 5q4 -46 8 -65q3 -16 12 -19l39 -16l-10 -20l-34 -18l-18 -8 q-42 -18 -71 -18q-6 0 -9 1l-148 22l-67 6q-7 1 -39 12l-43 -13l-71 -13l-54 -17l-20 4q4 22 13 35q7 8 33 19q0 26 11 31l43 22l17 9l30 -14l49 15l141 -11l20 32l-10 7l1 17l-4 45l8 310l-5 29v12q-1 3 -1 11l-2 61l6 51v4l-5 54l18 52l-9 16l-14 19l15 43q-17 28 -19 42 l4 33l-7 91v3q0 15 21 40q-26 32 -26 54q0 7 3 14l28 63l-29 45q-16 23 -16 38l15 327l-12 86q-12 -3 -14 -3l-152 45l-45 -6l-24 7l-20 3q-29 -44 -59 -44l-37 7l11 43q13 24 21 25q17 4 20 7l21 16q18 10 26 19l8 11l36 -5l43 20h2l2 -20q1 -4 6 -4l3 1l52 15l57 -12 l176 7l75 -27l-8 -22l-26 -57l-4 -53l-10 -49v-76l-7 -29l4 -481l-3 -59z" />
<glyph unicode="^" horiz-adv-x="2608" d="M3898 -504l18 -5l15 12l17 14l35 -8l22 -20v-43l-19 -41l-30 -14l-46 -11l-24 -11l-20 -11l-49 -1l-81 -34l-64 -17l-40 -13l-35 -2l-31 -14l-63 -7l-43 -16l-42 -6l-74 -18l-88 -2l-18 -8q-10 -2 -12 -2q-10 0 -17 4l-44 20q-10 0 -15 -35q-8 4 -12 4l-74 -22 q-4 -2 -11 -2q-13 0 -23 10l-16 18l-2 2q-1 1 -2 1l-3 1l-6 3l-19 -12q4 -9 4 -21q0 -5 -4 -10q-4 -7 -10 -7l-51 11l-78 -5l-47 16l-56 20h-1h-26q-16 0 -19 31q-26 29 -43 29q-6 0 -8 -5l-8 -21l-16 -5l-15 -7h-1q0 -1 -1 -1l-22 6l-36 9l-65 7l-43 20q-109 55 -160 55 l-44 35l-33 17l-55 -6l-19 28l-90 15l-80 33l-24 -9l-114 57q-16 3 -23 6q-7 1 -13 7q-2 2 -4 5.5t-4 5.5l-7 -7l-26 4q-54 8 -67 15q-14 8 -20 31l-15 10l-28 7l-57 -2l-55 39q-2 1 -7 1q-14 0 -27 -16l-23 3l-53 35l-94 11l-66 21l-117 -22l-30 2l-31 -5l-76 12l-33 -15 l-7 15l-27 5l-68 8l-22 10l-119 47l-33 19l-144 65l-47 44q-3 21 -10 27t-28 6l-32 32q-49 46 -51 67l-4 73q0 18 -50 24l-16 18l-22 26q-18 21 -36 55q-17 32 -17 50q0 2 4 10t4 17q-4 9 -23 33q-18 23 -33 51q-16 29 -24 63q16 17 16 31l-25 30l-1 16l1 56l-3 24l-1 28 l1 24l7 43l-3 58l20 100l1 29l49 -6l15 31l-16 20l-27 21q-6 6 -6 12q0 15 11 39l25 53l35 83l57 94l86 129l25 27l63 84l170 136l68 70q30 23 72 24q4 26 15 31l37 15l41 21l30 3l61 32l76 23l102 58l31 6l112 24l160 12l44 4h5l43 -11l111 -15l47 -14l87 -20l52 -22 l82 -14l32 -37l22 -10l47 -11q29 -8 44 -29l39 -42l30 9l21 -14q114 -81 165 -143l-3 -29l-8 -44l9 -33l47 9q19 0 28 -12l18 -24l22 -45l-8 -17l22 -14l6 -33l29 -37l7 -40l25 -60q0 3 -2 -15l-18 -6q1 -24 7 -33q5 -8 24 -20l5 -58q0 -22 -4 -38q-4 -17 -14 -27l-28 -26 q-5 -5 -5 -11q0 -22 26 -22l21 3l-1 -25l-6 -113l-5 -75l-37 -154l-10 -59l-7 -25q-16 30 -33 30q-20 0 -20 -20q0 -25 39 -36l-13 -30l-16 -31l-23 -25l-11 -44l-38 -43l-1 -23l-21 -16l-24 -42l-62 -64l-48 -42l-28 -5l-20 -31l-27 -17l-77 -70l-67 -35l-78 -51l-71 -29 l-76 -43l-79 -30l-19 -7l2 -12l36 -13l38 -20l61 -17l43 -41l19 -5l8 1l25 9l69 -27h26q16 -73 147 -73l55 -8l24 -7l6 -19l24 3l68 -32l27 -15l54 -8l47 -24q2 3 21 3l-1 -15q0 -11 6 -21t11 -10q1 0 7 2l26 15l7 2h4l30 11l126 -33l83 -36l30 -1l58 -19l32 -2l38 -33 l32 -1l109 -7l66 4l38 -5l49 6l67 -5l18 8l120 16q18 2 17 2q13 0 32 -10q25 31 35 31l23 -2l49 7l26 -7l16 23q17 -6 27 -6q8 0 21 5l92 44q9 4 12 4q2 0 4 -2l14 -11q3 -3 8 -3q10 0 18 11l23 30l66 47zM382 340l-1 -19l16 -19l21 -41l43 -64l6 -31l5 -23q29 -7 33 -13 l40 -51l24 -20l-8 -25l18 -53l39 7l28 -25l41 -51l68 -50l17 -20l29 -6l151 -72q24 -13 120 -16q11 -26 27 -26q13 0 28 9l-4 11l12 13l17 6l76 32l29 2h17l6 6l21 -3q19 16 38 16l98 -9l23 -4l9 -22l21 3l48 -22l15 26l77 28l78 36l36 7l42 -7l10 24l-1 6l19 12l62 47 l62 29l65 65l49 37l87 103l50 75l7 27l60 121q17 36 20 71l6 65l7 27l23 -11l11 15l-24 71l2 39l-1 35l17 76l4 106l6 23l-17 19l-2 14l11 98q1 1 1 5l-9 27l-11 18l-21 57l-12 20l6 15l30 8q-7 30 -29 52l-18 -12l-10 18l-72 133l-58 81l-86 74l-37 38l-25 12l-25 24 l-45 19q-21 10 -38 51l-18 10l-16 -16l-16 12l-102 45l-50 31l-68 6l-30 17l-84 -2l-72 16l-37 4l-40 -4l-119 -27l-11 -2l-58 14l2 16l-20 -2q-11 -46 -20 -54l-46 -20l-45 -17l-58 4l-9 -2q-17 -19 -19 -45l-29 -11l-145 -87l-33 -5l-22 -15l-36 -25l1 -13l-59 -57 l-47 -43l-66 -75l-22 -15l-9 -49l-37 -24l-40 -114l-41 -65l-28 -177l-13 -48v-53l-9 -48q-1 -3 -1 -12q0 -18 4 -26l14 -31l-4 -102l27 -74l-8 -34l25 -35l15 -48l19 -27z" />
<glyph unicode="_" horiz-adv-x="1024" d="M0 -410v137h1024v-137h-1024z" />
<glyph unicode="`" horiz-adv-x="585" d="M160 1289l-23 39q23 14 34 14l51 -6l66 -3q31 0 50 -8q17 -9 27 -30q-15 -9 -23 -20l9 -21l10 -38l44 -70l11 -32l-9 -8q8 -15 12 -18q4 -4 16 -4l14 -13l-23 -34q-15 -3 -21 -3q-13 0 -37 10l-8 -3q-4 17 -7 20l-27 46q-10 17 -33 31q-13 33 -28 47q-16 15 -49 24 l-13 25l-18 30z" />
<glyph unicode="a" horiz-adv-x="1097" d="M198 253l9 -11l-3 -9l22 -90l-22 -57l18 -20l25 33q22 -19 41 -28q15 -8 59 -19l19 -27l70 -6l18 18l21 -11l14 9l11 6q26 -8 29 -8q28 0 77 28q7 4 9 5q3 2 6.5 3.5t6.5 3.5q49 1 78 10q23 7 40 27l22 27l49 41l1 13v12q14 7 19 15q4 7 4 23q-15 15 -17 24l4 41l-9 91 l12 26l-33 18l-17 -2l-90 6l-45 -3l-31 22l-20 -11l-56 -4l-38 -12l-24 12l-28 -18l-150 -72l-32 -24l-28 -38l-34 -20q-9 -9 -9 -18q0 -4 2 -6zM303 415q21 44 75 44l6 7l22 -2q14 17 24 23q10 4 50 12l127 24l37 -4l47 9l84 8q17 4 31 16q11 11 11 25v5q-1 1 -1 2l-11 45 l7 66q-4 37 -51 43l-14 22q-24 39 -36 49q-13 10 -51 16l-59 11l-54 4l-27 -6q-17 9 -23 31l-26 -12l-31 -30l-98 -49q-31 -17 -41 -34l-13 -19q-10 -16 -29 -16l-20 4l-28 13l-31 8q-20 8 -32 18q-13 10 -13 20q0 1 2 7l16 12l33 24l36 7l53 25l66 23l18 4l41 22l37 -5 l121 27l51 -3l39 1l39 -16l120 -21l18 -12v-14l-14 -8q8 -33 24 -33q6 0 7 1l29 12q1 0 2 1h2q6 0 13 -10l19 -37l20 -17l1 -23l-5 -50q0 -33 34 -58l12 -149l-28 -36l33 -37v-11l-5 -95l7 -72l1 -17l-1 -22l-14 -4q2 -31 4 -39q3 -9 21 -46l15 -30l-11 -20l-16 -24l-29 -12 l-41 -22l-39 -11q-36 -14 -43 -14q-6 0 -13 7t-7 13q0 10 11 45q1 1 7 34l-21 -13l-89 -30q-31 -12 -54 -12h-1l-41 1l-45 -23l-33 -3l-92 -20l-41 6l-25 -10l-19 -4l-29 3l-66 14l-47 3q-96 15 -128 96l-26 11l-7 24l-2 19l-14 47l37 74l11 33q8 13 12 17q7 7 26 22l78 63 l33 12l55 22q-6 0 10 -2z" />
<glyph unicode="b" horiz-adv-x="1235" d="M282 109q25 -25 39 -25l73 -3l31 -15h35l39 -15l29 -7l-2 -9l25 9l13 2l94 -5l72 19q83 16 120 56l46 49l30 32l35 71l25 48l12 67l6 25l-12 128l1 35q0 21 -8 26l-41 28l-20 37q-13 23 -54 45l-80 45l-48 26l-137 12l-79 15q-31 0 -51 -11l-97 -55l-67 -38 q-10 -13 -10 -33l8 -87l6 -59l1 -22l-3 -20l-24 -48l29 -88l-8 -49l6 -138v-8q-27 -18 -34 -40zM86 -1l-2 22l-2 25l27 21q28 19 33 32l10 24l17 24l-3 113q6 33 40 36l6 30l-2 16l-39 16l-1 12l6 145l-3 57l9 15l16 -2l3 26l-27 19l-1 15l2 13l4 26l-15 86l1 72l-2 43l2 6 l20 32q4 4 4 15q0 20 -25 42l-1 34v176l-7 27l7 110l-7 58l-1 39l29 45l-12 23q-13 22 -13 34l4 16q35 15 35 38q0 30 -36 31l-19 47l14 108l-18 38q-15 18 -16 30l26 23l41 31l52 15l36 18q10 5 23 5q15 0 28 -9q12 -10 12 -22q0 -19 -18 -54l-9 -20q25 -28 25 -41v-3 q-1 -1 -1 -2l-12 -45l1 -45l-15 -38l12 -123l-26 -42q-5 -12 -5 -22q0 -6 2 -8l33 -45l-15 -158l14 -85q0 -25 -30 -36l-25 -9l3 -31q2 -23 8 -31q5 -8 30 -23l3 -22l5 -70q0 -20 -7 -33l-28 -63q2 -4 12 -12q9 -7 21 -15q15 -5 24 -5q22 0 49 31q25 -5 29 -5q26 0 71 18 l91 31q11 -16 18 -20q8 -6 16 -6t33 5l2 21l26 -2l52 1q11 0 23 -14q82 -1 122 -11q51 -11 70 -27t25 -52l31 -6q12 19 25 19q6 0 10 -4l17 -22l31 -28l18 -43l33 -34l7 -17l15 -71l17 -39q6 -13 6 -34q0 -60 -49 -133l-16 5q-17 -22 -17 -39q0 -16 6 -40l-7 -12l-3 -22 l-24 -27l-40 -54l-48 -32l-107 -98l-48 -24l-85 -35l-80 -16l-86 -15q-3 0 -4 1l-61 16h-45l-129 34l-84 6l-49 18l-94 -39l-12 -2z" />
<glyph unicode="c" horiz-adv-x="1020" d="M903 882q-7 -31 -17 -42q-12 -12 -40 -23l-3 -23l-40 -23l-30 -16q-2 0 -2 1l-29 4l-35 -5l-153 25l-22 2q-5 0 -21 -2l-82 -16h-29q-33 -6 -67 -54l-43 -14l-17 -42l-35 -5q5 -15 5 -14l-42 -80l-4 -35l1 -61q0 -41 6 -70q6 -27 24 -62l-9 -23q-10 -16 -10 -20 q0 -6 7 -16q22 -5 32 -11q9 -9 26 -34l26 -37l11 -23h22l14 -16l64 -47l29 -25l34 -9l27 -12h47l114 -14h4q21 0 71 28l18 -7l70 47q12 1 33 11q20 9 36 24q11 10 53 52q17 17 27 17q8 0 14 -6q5 -8 5 -16v-4q-1 -1 -1 -5l-13 -52q0 -1 1 -2v-6l-43 -53l-25 -7l-38 -27 l-16 -4l-45 -21h-2q-1 -1 -2 -1l-64 1q-23 0 -48 -14l-51 -28l-79 -5l-80 6l-17 14l-61 8l-64 17l-93 21l-44 38l-38 40l13 35q-22 -9 -36 -9q-1 0 -2 1h-6l-18 20l-25 44l-14 19l-6 57l9 28l-8 16l-22 23l12 51l-3 92l33 60l45 88l54 47l100 97l29 20l39 28l19 7l41 30 l130 40l30 8q4 0 5 -1l51 -23l51 15l96 -17l82 12q9 0 34 -12z" />
<glyph unicode="d" horiz-adv-x="1241" d="M244 239v-11l23 -12q22 -32 59 -64t67 -47l46 -21l14 -9l30 -3l24 -1l58 -20l15 -1l48 2l101 3q33 5 80 19q43 14 66 23l43 38l24 26l-11 28l6 26l3 29l-2 41l-3 44v7l3 33l-9 45q-1 1 -1 4q0 22 44 31l-9 62q-25 12 -25 26v3l8 43l-7 77l2 21l-10 24v24q0 13 -12 13 q-4 0 -6 6l-41 -9l-9 -2l-15 2l-187 46h-66l-23 1q-9 0 -11 -2l-35 -14l-46 -1l-57 -38l-41 -5l-29 -22l-42 -36q-23 -26 -27 -43l-6 -25l-38 -41l-41 -62q-17 -36 -17 -54q0 -23 7 -40l7 -18l23 -82l23 -41zM68 396l-2 19l12 25l63 145q8 17 17 24q11 9 22 9h2l33 -3l11 85 l41 32l40 46l29 19l19 16q9 5 21 8q8 0 12 -1q3 0 5.5 -0.5t3.5 -1.5q26 -1 40 -22q11 16 23 24q11 8 29 12l-2 29l30 13q22 6 31 9q5 2 12.5 4t13.5 4q8 3 17 6h1l35 -2l47 16l22 -14q14 -8 20 -11l4 -9q11 -8 14 -8q11 0 24 28l53 -13q57 -13 75 -21q17 -8 28 -23l58 1 l-8 22l-11 15l-6 73l-5 19l8 52l-8 140l2 13l32 12l-14 20l-3 28l-16 45q-8 26 -8 49l1 13l10 141l-8 63l5 27q20 5 22 20l-13 13q-12 0 -20 3t-19 11l1 12l-1 13l-8 61l-4 67q-2 13 -6 20q-4 6 -17 16q9 34 32 40l63 13l41 26l44 11l23 6q20 -25 20 -51l-2 -25l-10 -54 l3 -28l-5 -88v-74l-11 -43l1 -92q-4 -14 -25 -42l32 -83l-8 -23l1 -47l-8 -20l8 -68q0 -10 -8 -36l-22 -1q-10 -29 -10 -45q0 -4 3 -9l35 -48l-3 -73l7 -84l-5 -35v-12v-22l-13 -17l6 -94l-3 -67l9 -64l-1 -43l7 -48l-1 -78l16 -77l1 -64l13 -45l2 -41v-30q10 -9 18 -41 q7 -29 7 -56l-2 -20l-21 -6l-69 -13l-72 -7q-8 59 -26 70q-10 -8 -37 -19q-26 -10 -34 -15q-31 -16 -78 -27.5t-104 -18.5q-120 -14 -237 -14q-61 0 -85 10q-28 11 -41 39q-19 -2 -27 -17l-31 10q-3 18 -10 28q-7 9 -23 16l-12 -12q-32 8 -50 21q-16 11 -55 55q4 12 4 25 q0 23 -21 41l-28 25l-4 22l-17 74v18q0 32 13 74z" />
<glyph unicode="e" horiz-adv-x="1087" d="M427 656l24 4l21 -2l60 -13h3l66 13l22 4l16 -23l22 1l88 18l36 -5q26 2 26 22q0 14 -36 69l-71 49l-22 25l-33 1l-77 5l-18 -3l-42 -24l-56 -12l-70 -28l-25 -9l-33 -48q-28 -18 -33 -26l-5 -13l124 -8zM402 840l14 10l30 6l90 29l71 7l44 19l20 3q52 0 86 -57 q15 3 19 7q5 3 9 15l27 -24l37 -19l84 -83q33 -47 45 -70q11 -23 31 -88l8 -23l-10 -5l-39 8l-43 -13l-33 6l-37 -11l-70 9l-67 -5l-70 13l-114 -2l-56 2l-135 -19l-49 2l-67 -20l-24 -4l-4 -25q-2 -23 -6 -32q-5 -10 -24 -23l2 -18q32 -24 35 -32l27 -103l13 -24 q-11 -11 -11 -17l1 -1q1 -2 1 -5l39 -12l8 -23q14 -39 28 -45l52 -21l19 -39q8 -7 44 -10l15 -27l30 -4l86 -31l72 14l190 31l43 25l62 39l53 69q12 17 34 17q34 0 34 -31q0 -16 -4 -23l-21 -34l-46 -82l-43 -2l-27 -24q-11 -8 -32 -12l-179 -33l-30 -11l-63 6l-92 -8 l-104 6l-28 1q-24 17 -28 18l-97 36l-33 31l-66 44l-50 71l-22 16q13 26 13 42q0 7 -3 13l-28 42l-6 58l-2 45q0 27 10 61q16 58 29 73l37 47l19 43l46 45l52 68l45 24l65 44z" />
<glyph unicode="f" horiz-adv-x="804" d="M169 831l53 28l-3 12l10 67l-3 107q2 28 23 49l-34 47l1 22l-4 222q0 33 15 55l34 60q0 12 -21 25q8 48 35 100q27 55 67 101q41 47 83 73l125 75l27 18l34 4l66 17l33 -11l75 3q34 -3 72 -41q11 8 15 8q7 0 14 -7l-10 -21l-31 -33l-21 -30l-27 -15l-26 -16l-87 44 q-46 25 -75 25q-9 0 -39 -8q-16 -5 -47 -17q-67 -28 -92 -97l-27 -80l-23 -47l-14 -65l-17 -23l6 -29l10 -5l-5 -210l-20 -25l1 -29l-1 -23l23 -59l-7 -41l7 -98v-5q0 -26 -33 -49l5 -21q35 -15 36 -25l6 -39q2 -12 25 -14l30 -1l109 -6l80 13l85 7l46 13l26 2l38 -1l24 -40 l-21 -14l-76 -49l-39 -32l-100 15l-103 -11q-22 0 -40 7q-40 13 -60 13q-14 0 -25 -15q-12 -16 -12 -33v-6l15 -150v-1q0 -13 -23 -24q-5 -17 -5 -18q0 -16 22 -39l4 -28l8 -117l6 -41l-12 -13q-6 0 -14 2q-16 -7 -18 -27h11l-2 -7l28 -36l-1 -25l-2 -30l4 -23l5 -26l-18 -8 v-28l-91 -40l-79 -9l-12 10v9l10 24l9 69l15 44l6 45l-6 51q26 28 26 53l-2 14l-19 70v5l1 92l4 177l5 24q46 6 46 28q0 14 -9 14l-40 4l-33 13l-46 1l-34 5l-20 1q-14 0 -31 -5q-28 -12 -36 -12q-17 0 -17 19q0 7 4 12l22 29l36 48q17 11 40 11q13 0 47 -8z" />
<glyph unicode="g" horiz-adv-x="1107" d="M294 471l-5 -27q0 -22 11 -27l42 -17l53 -42q29 -17 117 -17q50 0 77 11l75 33l43 8l28 28l48 33l16 49l10 18l-1 42q0 83 -17 97l-54 49l-27 38l-77 40l-30 9l-25 6l-35 -17l-26 4l-29 3l-14 -2l-45 -19l-32 -2l-30 -16l-18 -8l-50 -52q-20 -16 -28 -30q-7 -13 -12 -52 l-6 -56v-1l2 -21l2 -19q2 -13 9 -21q8 -10 28 -22zM-52 -447l11 24l17 13l24 10l51 51l79 32l20 12q7 0 15 -8q6 -9 6 -18q0 -6 -5 -9l-63 -60l-10 -22l-12 -27l-3 -15l5 -27q-25 -16 -25 -28q0 -6 13 -22l6 5l23 -12q13 -27 19 -33l88 -55l19 -28l33 -11q24 -9 45 -9 q5 0 6 1l46 4l65 -13l32 6l146 -1l47 10l129 30l84 32l43 4l20 16l11 17l31 19l55 36l19 10v17q35 20 35 38v2q-1 1 -1 2l-6 32l26 104l2 23l-22 10l-6 21l-40 83l-4 28q-9 16 -81 40l-19 7l-47 12h-2l-53 -3l-33 9l-86 -2l-47 23l-43 -21q-23 -14 -62 -14h-72l-36 -1 q-36 18 -52 18l-9 -2l-39 -26q-4 -3 -8 -3q-27 0 -108 33q-37 13 -78 45l-7 24q-15 45 -15 69q0 29 21 47l58 53l22 20l30 15l33 19l38 4q23 5 47 36h-19l-26 -1l-33 -3q-20 0 -58 20l-21 10l-15 19l-4 23q-4 22 -55 30l-13 27l-20 24q-6 9 -6 24l1 16l7 43l2 48l23 41l4 65 q5 14 46 55l21 25q9 7 10 7q2 1 3.5 2t2.5 1l27 13l18 17q27 32 48 47q20 12 44 15l7 12l24 4l172 40l180 -19l42 29q31 19 52 19q7 0 9 -1l49 -8l102 3q11 -1 19 -6q6 -4 16 -17q26 8 29 15l11 31q5 13 89 35l18 6l17 -18q-9 -37 -21 -50q-13 -15 -48 -31l-20 -10 q-3 -22 -9 -31q-7 -8 -27 -22l-32 -21q-8 -5 -24 -5l-38 2l-42 2l-30 -1l-23 -1l-3 -11q33 -16 49 -32q14 -16 23 -45l19 -13v-45h-13l-2 -11l-20 -9l15 -25q8 -14 8 -22q0 -9 -9 -23l-43 -52l-12 -18l-80 -70l-14 -25q-12 -15 -56 -38l-59 -31q-46 -25 -154 -35l-7 -13 l3 -24q0 -8 -4 -15t-10 -9l-63 -10l-41 -21l-47 -13q-26 -9 -49 -36q-23 -29 -23 -52l2 -18l44 -39l22 8l84 -11l66 7l35 -18l17 -4l5 2l30 23q20 16 51 16l119 -1h12l25 -18l13 -9q13 0 29 30l32 -3q63 -1 80 -7l32 -17l78 -25l30 -19l-1 -28q14 -5 20 -20l24 1l24 3 q9 0 19 -8q9 -9 12 -21l7 -32l32 -118l2 -12q0 -45 -48 -151l-8 -21q-17 -12 -21 -17q-4 -4 -27 -47l-25 -39l-13 -1l-25 -26l-37 -22q-8 -5 -26 -30l-199 -96l-20 -4l-55 -22l-123 -13l-90 -27l-106 3l-22 -5l-23 11l-18 -4l-54 1l-41 -4l-70 35l-84 14l-78 58l-51 25 q-19 18 -32 56q-15 40 -15 72q0 21 23 69z" />
<glyph unicode="h" horiz-adv-x="1163" d="M133 1810l-24 18q3 11 9 19q5 6 18 12l79 42q46 23 69 23q30 0 33 -16l-7 -70l-3 -128q-1 -30 -18 -41l-24 -13q-13 -6 -13 -27q0 -15 5 -33l11 -2q22 17 40 19l2 -19l-12 -185l3 -59l-24 -49l-2 -24q35 -40 35 -54q0 -5 -1 -6l-14 -24v-4l11 -84l2 -12l-1 -12l-11 -31 l11 -42l-5 -37l7 -25l-12 -166l2 -15l10 -6l151 116l18 -9l62 25l39 7l48 7q28 -1 35 -40h24l19 13l24 23l45 -6l116 -9l58 -54l32 -22l17 -26l-24 -13q17 -11 24 -11l14 4q30 -34 30 -89l-4 -64q-1 -40 -6 -51q-4 -11 -22 -29l17 -39l-27 -42l29 -28v-167l-18 -19l3 -31 l13 -74l-3 -66l1 -21q0 -28 -39 -31l-27 -3l-61 -33l-20 -12l-42 36l7 25l36 111l-15 82l23 90q6 23 6 79q-25 10 -25 29q0 22 13 64q9 29 9 53l-1 8l-9 76l12 40l-11 18l-13 32q-7 18 -19 21l-36 13l-57 29l-37 -2l-61 10l-82 -4l-43 -2q-37 -7 -57 -18l-53 -30l-43 -17 l-25 -23l-32 -35l-20 -27l14 -63l-12 -152l1 -10l-14 2l-7 -6h-13l6 -20l29 -39q1 -1 1 -3l8 -87l5 -47l4 -30l-1 -12l-8 -19l4 -93l-13 -25l-11 1l-11 -2l-19 -10q-8 -2 -26 -2l-17 -16q-27 -27 -52 -32l-10 22l-7 3l2 39l13 46l1 40l21 37l5 23q-22 28 -22 44v1l10 297 l-3 93l42 70l-5 23l-15 -14q-13 13 -18 26q-4 9 -4 36v229l7 36h11l21 21q-17 9 -17 35q-26 15 -28 26l-1 77l-8 118l13 31l5 20l-24 29l3 23l3 26l8 22l7 23q-26 35 -26 43l2 192l-24 94z" />
<glyph unicode="i" horiz-adv-x="428" d="M323 1456q22 0 36 -13q14 -14 14 -35q0 -20 -11 -28l-73 -53l-28 -29l-54 -37q-53 -38 -63 -38q-16 0 -16 19q0 24 12 36l101 99l56 73q14 6 26 6zM109 794q10 35 58 61l97 57q26 -3 48 -34q-18 -40 -21 -76l-7 -101l-17 -33q-2 -2 -2 -8q0 -15 24 -29l-4 -30l-1 -197 l-4 -154l14 -66v-34l4 -68q-5 -16 -62 -60l-49 -39q-15 -12 -31 -12q-13 0 -23 7q-11 8 -11 18q0 17 17 62l8 28l-10 11l15 167l7 17l24 3l1 34q0 30 -5 47q-7 15 -25 39l1 32v6v17q0 35 11 59l-14 16l1 56q14 8 14 17l-2 18l-27 4v31v27l2 41q0 28 -6 41q-7 12 -25 25z" />
<glyph unicode="j" horiz-adv-x="426" d="M99 1231l-19 31q32 49 82 86l6 20l29 32l44 51q11 14 28 14h7q2 -1 7 -1l9 -20l18 -21q11 -16 11 -27q0 -1 -2 -7t-3 -7l-135 -92l-63 -50zM-274 -1164l23 -7l25 21l68 6l32 21l74 34l38 36q52 47 67 84l59 133l31 42l-7 51l20 133l1 84l29 53l2 24q-16 6 -20 15 q-6 7 -6 24v17l7 90l-2 86l8 56l19 5q4 0 13 -3l8 31l-12 10q-5 0 -9 -1t-5 -1q-11 0 -24 7l-1 162h34l6 21q0 23 -14 45q-14 20 -34 26l3 170l20 -2q12 0 15 7q2 8 2 36l-8 11q-38 0 -38 14l6 44l4 23h11q7 24 7 50q0 49 -11 66l-24 34l-9 154l-29 35l21 37l27 11l111 72 q9 6 18 6q23 0 26 -36l-8 -31l6 -47l-4 -108l1 -19l-24 -46l1 -33l-8 -35q40 -7 40 -30l-12 -73l5 -162l-9 -59l6 -48l-2 -69l10 -70l3 -29l-1 -39l-1 -51l1 -32l2 -38q0 -10 -1 -12l-11 -31l-5 -27l2 -20l15 -63l-6 -123q-3 -53 -15 -99l-28 -10l-3 -10l16 -53l-25 -119 l-2 -14q-1 -9 -28 -74l-21 -48l-12 -27l-19 -5l-8 -21l-26 -35l-51 -81l-73 -75l-17 -25l-59 -27l-15 -17q-11 -15 -28 -23l-12 3q-13 0 -78 -22l-55 1l-71 -23q-57 -9 -81 -9q-35 0 -85 49q-41 39 -41 59q0 9 11 18q11 8 25 8l15 -2l123 -44l57 1z" />
<glyph unicode="k" horiz-adv-x="1121" d="M133 1807l-7 16q5 11 11 17q3 2 21 7q11 7 54 44l22 16l-1 -1q10 0 29 10l18 12l15 -8v-14l-7 -2l-10 -52l6 -169l-4 -96q0 -30 8 -76l-18 -17l-3 -87l7 -18l20 -3l4 -17l-3 -62l7 -43l-1 -19l4 -75l-4 -142v-93v-3l-10 -63q-1 -3 -1 -14q0 -12 5 -24l22 -38q2 -8 2 -7 l-7 -60q-1 -3 -1 -9l8 -121l1 -25l-3 -46l-8 -68v-2q0 -9 11 -44l13 7l44 36l64 44l132 136l129 129l62 75q36 39 100 74l26 -20q28 -16 28 -31q0 -17 -7 -30q-7 -12 -36 -46l-21 -8q-19 -5 -24 -10q-7 -6 -18 -26q-33 0 -59 -12l1 -24q0 -28 -14 -39l-61 -46l-25 -22 l-14 -3l-17 2q-8 -36 -15 -40l-42 -25l-36 -34l-33 -25q-28 -21 -28 -41q0 -23 38 -46q112 -67 123 -88l32 -65q9 -16 57 -33l26 14l121 -53q14 -6 14 -17l-1 -14l41 -24l16 16l44 -15l28 -12h28q5 0 27 -8q14 14 27 14q8 0 13 -4q5 -5 5 -11q0 -15 -23 -56l-3 -7 q-22 -42 -56 -45l-53 -8l-21 -12q-10 -2 -11 -2q-5 0 -13 2l-42 16l-61 15l-50 24l-21 11l1 28q0 24 -36 24l-24 -1l-6 -11l-21 12l-131 108l-31 10l-161 133q-7 4 -15 4q-6 0 -12 -7t-6 -13v-2l23 -268q0 -10 -11 -24q-13 -15 -26 -19l-70 -17l-26 -16l-22 -10 q-15 16 -15 29l1 10l18 121l-11 200l22 3q12 14 12 23q0 7 -3 17q-31 13 -31 30q0 9 3 16q1 5 11 21l9 15q4 7 8 15q-4 11 -28 19l-1 28l-3 96l-1 64l3 77q14 7 19 15q4 7 4 27l-26 6l-2 283q24 12 24 29q0 13 -4 34l-21 15l-1 44l-14 109l11 100l-10 40l-9 6l-1 30l-15 118 l1 117l-7 26z" />
<glyph unicode="l" horiz-adv-x="449" d="M268 1918l17 3l14 -21l1 -44l10 -29l2 -15l-2 -26l-5 -73l1 1l1 -38q0 -23 -3 -29l-25 -51l-2 -22q20 -1 24 -6q3 -3 5 -28l2 -23q0 -17 -25 -33l-1 -24l-2 -20q0 -3 1 -4v-4l18 -29l-7 -191l-2 -137l-25 -53l13 -76l-20 -49q3 -8 18 -23l17 -17l7 -325l-24 -29 q4 -31 4 -40q0 -28 -10 -67l10 -21h27l1 -37l19 -160l-3 -53l3 -41q-2 -14 -17 -24l6 -26l-21 -4l-65 -40l-27 -5l-31 -17q-6 -2 -14 -2q-18 0 -20 11l2 25l-6 46l14 108l3 139q0 45 24 84l-14 30q-15 32 -15 37q0 16 25 59q10 17 10 31q0 16 -32 28l4 16l-8 4v13l1 18 l15 69v172l21 79q-1 15 -24 36l1 47l-6 180q0 18 28 67l14 27q-37 16 -37 31q0 6 7 38l-21 18l-2 40l-3 48q0 6 1 7l15 52l-16 71l3 35l-18 116l-1 9v7l7 32l8 41l89 50z" />
<glyph unicode="m" horiz-adv-x="1450" d="M132 796l-23 18q19 34 49 56q30 23 93 48q28 -25 36 -38q6 -12 6 -36l-2 -38l-3 -40l39 9l38 39l27 10l41 34l112 37l17 8l21 7q18 -16 18 -42l17 -6l16 7v24q25 17 37 17q7 0 16 -3l8 6q22 2 19 2q33 0 55 -24q21 -23 29 -65q3 -17 7 -22q6 -8 17 -14l17 14l33 34l40 21 l52 31l25 7h2l43 -3l39 13h58l36 4l34 -14l43 -11q57 -16 57 -65q-18 -13 -18 -25t16 -12q5 0 15 5l5 -23l4 -55l9 -25l3 -17l-4 -65l-1 -57v-24l-13 -18q-12 -15 -12 -21l14 -109l3 -34v-1v-68v-3l4 -33q-1 -7 -21 -22l-1 -33l18 5l5 -22l-1 -69l15 -44l-26 -15l-53 -26 l-51 -38q-9 -3 -16 -3q-8 0 -28 5l-3 48l3 27l15 48l-11 98l8 55l3 51l20 49q1 1 1 6q0 15 -19 28l-2 22l-6 103q0 8 3 15l26 73l-28 38l-13 92l-9 24l-19 9l-44 27q-13 9 -46 9q-86 0 -161 -37q-71 -35 -71 -60v-72l-26 -19q-1 -1 -1 -7q0 -18 26 -35l8 -227q-13 -9 -21 -9 q-7 0 -15 4l2 -23l28 -57l-6 -36l4 -18q5 -17 14 -69q6 -45 6 -79q0 -4 -3 -10l-15 -8l-38 -25l-58 -25l-19 -9q-8 0 -24 16l-1 10l9 104l-5 88q1 18 7 29q3 7 22 22l2 21l-15 31l-6 25l-16 30l4 27l3 82l32 42q3 6 3 13q0 12 -6 19t-13 7q-6 0 -12 -3l-9 22v23v41 q0 148 -65 148q-11 0 -33 -8l-21 30l-24 -6l-18 -13l-49 -8l-50 -20l-38 -5l-23 -9l-11 -23q-29 -60 -37 -88q-8 -29 -8 -65l1 -17l4 -136l-3 -24l-25 -12l4 -20l23 -32l-3 -103l15 -180q0 -11 -30 -26l-64 -33q-11 -7 -28 -7q-10 0 -30 7v24l-1 28l3 98l-6 42l17 29l5 27 l-19 13l-1 25l-1 14l4 14l18 26l10 22v22q-14 1 -20 7q-7 5 -8 26q-3 23 -3 56v29l1 48l1 21l17 2l2 45l-4 32l-18 37l-7 76l-8 38l-5 28z" />
<glyph unicode="n" horiz-adv-x="1124" d="M136 786l-20 23l14 23l20 23l37 18l33 26q21 12 39 12q15 0 26 -7q11 -8 11 -17l3 -94l4 -32l19 7q39 47 85 82q50 38 71 38q15 0 22 -19q15 4 48 22q26 17 49 17h5l82 -10l31 12l91 -13q42 -3 74 -32h14q37 0 53 -28l15 -25l22 -31q9 -16 13 -74l1 -55l2 -25l-23 -30 l7 -25l12 -23l1 -23v-17q0 -5 -2 -13l-15 -30q-3 -5 -4 -27l21 -28l-2 -28l-2 -70q0 -7 1 -8l13 -40l3 -89l5 -108l-9 -29l-139 -67q-28 35 -28 47v4l24 96l3 44l9 -3l15 19q-13 27 -37 34l-3 16l16 187l-10 25l3 35l-1 76l12 35l-19 19l3 59q-12 34 -37 65q1 2 1 9 q0 10 -10 19l-24 3l-51 30l-82 -5l-94 7q-13 -6 -26 -25l-19 4l-77 -15l-29 -6l-35 -27l-45 -20q-36 -19 -37 -47l-2 -98l-12 -61l20 -60v-32l-2 -120l-18 -41l-3 -14l1 -6l18 -33l7 -108l8 -36q0 -8 -7 -16q-8 -9 -16 -11l-65 -16l-19 -6q-15 -25 -31 -25q-12 0 -22 10 q-2 2 -2 4l-4 4q-2 4 -2 5l13 75l-1 84l10 35l-9 55l6 60l1 131q0 25 34 29q-2 20 -8 25q-7 6 -34 6l1 181l23 15l-12 19z" />
<glyph unicode="o" horiz-adv-x="1225" d="M214 401l2 -23q-30 -27 -30 -35q0 1 5 -11q9 10 16 10q9 0 12 -6l23 -74l50 -84l-5 -52q7 -7 18 -7q12 0 24 12l22 -5l121 -75l122 -11l70 -12l80 15l50 12l66 66l46 13l23 25l54 111l26 23q14 14 14 24v4l-15 48l17 115l-36 114l-6 51l-10 19h-3q-1 -1 -3 -1q-9 0 -14 3 q-3 2 -12 11l-48 63l-16 23l-84 39q-18 28 -23 33q-7 6 -18 6q-15 0 -42 -10q-28 11 -40 11l-29 -2l-49 -3l-68 -24l-16 15l-13 -17l-67 -41l-125 -110l-24 -19q-5 -36 -11 -50q-6 -15 -35 -67l-14 -24q1 -2 1 -9q0 -19 -6 -27q-8 -8 -30 -11q-3 -12 -3 -14q0 -5 2 -7z M87 307l-32 20v42q0 83 46 182q40 90 57 101l42 25l22 40q11 22 27 29l96 48l52 42l63 25l114 39l91 9l75 1q35 0 48 -7q12 -7 12 -26q17 -15 24 -15q11 0 31 29l26 -6l64 -23l27 -23l36 -21l38 -59q17 -18 59 -18q32 -39 45 -78q12 -40 18 -123l2 -31l-22 3l5 -22l-24 -16 q5 -17 9 -23t19 -13l1 -19q0 -108 -84 -237q-20 -28 -48 -59q-29 -33 -34 -40l-30 -10l-188 -88l-104 -4l-76 -19l-90 2l-31 -7l-90 16l-37 2l-21 23l-54 9l-28 13l-96 77l-22 44l-31 25l-24 63l-8 25l9 7q1 15 5 20q4 6 17 10z" />
<glyph unicode="p" horiz-adv-x="1258" d="M273 596l5 -9l21 -7l-4 -50l4 -115q0 -14 -19 -45q13 -24 20 -46q3 -13 3 -37l-4 -93l-1 -34l27 -14l51 -24l41 -31l12 18l29 -11l85 -7l74 -27l82 12l51 -2l38 16l41 18l48 38l40 24l36 45l43 31q40 25 43 50l4 37l24 50q1 2 1 7l-5 80l-1 20l13 11q-25 15 -31 21 q-7 7 -15 25l-15 46l-52 77l-3 40l-14 14h-55l-79 52l-58 5l-52 20l-147 -3l-21 1l-28 -4l-83 -24l-40 -7l-34 -14l-24 -6q-24 -10 -24 -60l1 -12q-16 -34 -21 -42q-4 -7 -6 -15q-3 -7 -3 -12q0 -1 2 -7zM109 766q3 31 13 41l19 13l47 53l43 23l24 13q20 -1 48 -26l-4 -19 l-4 -30l3 -17l18 -1l34 17q52 32 82 42q29 10 67 10q27 0 46 -18l18 12l10 11l26 6l41 9l112 -2l97 3q21 -3 44 -31h14q12 0 34 -13l74 -36q21 -9 26 -20l18 -38q5 -9 18 -9q8 0 26 8q32 -22 51 -60q15 -27 31 -90q16 -64 16 -97v-3l-5 -33l-2 -30l10 -42l-20 -53l-10 -25 l-29 -37l-21 -39l-27 -27l-17 -25l-16 -3l-25 6l-11 -19q-24 -49 -38 -60q-16 -11 -49 -11h-4l-15 1q-4 -34 -28 -56q-25 -22 -82 -43l-54 -19l-45 -17l-90 -1l-25 -5l-24 -15q-27 12 -37 13q-26 3 -59 5l-25 3l4 22l-24 5l-19 -12l-18 -9l-28 2l-44 -2l-20 7l-5 -24l3 -150 l-13 -67l-2 -30l15 1l8 -185l-25 -4l-7 -16l4 -25l12 -54l-5 -21l14 9l11 -5l2 -67l6 -67l4 -45q0 -20 -30 -23l-7 -14l35 -8l-2 -21l10 -49l4 -31l-13 -19l-25 -21l-20 -33l-24 -8l-53 -24l-16 -2l-39 2l-1 36l2 34l7 84l-2 84q2 24 22 39l-10 64q16 13 21 25q6 13 8 29 q-17 6 -22 11q-6 6 -10 19l9 37l-6 27v106l-4 81l11 94l1 26q23 23 23 43q0 12 -8 54l-23 6l-10 34v15l11 333l12 37l-4 37l-3 26l-19 7v26l-4 147l1 17l5 41l-9 85q-1 32 -6 43q-4 8 -29 22z" />
<glyph unicode="q" horiz-adv-x="1180" d="M209 456l10 -10l-4 -18l-4 -33l1 -13l46 -143l2 -34q8 -23 64 -32l-2 -37q0 -21 13 -21l55 2q3 0 22 -6q34 -13 64 -43q57 21 94 21q23 0 38 -7l31 -13l125 38l91 19q24 13 32 52l42 2l2 14l-20 40l2 32l4 47l9 45l-22 175l5 92l-11 47l-6 63q-3 23 -15 34q-12 9 -40 9 l-40 8v-13q-50 -10 -71 -10q-31 0 -60 24l-9 2l-61 -7l-31 14l-15 2q-40 0 -81 -7q-25 -5 -34 -13l-49 -43l-62 -46l-39 -52l-44 -79q-6 -13 -11 -40h-10q-13 -48 -13 -51l1 -3q1 -3 1 -8zM55 372l2 50q30 77 75 160l34 1q10 77 52 113l73 61l64 56l24 10l35 29l76 17l65 37 l45 -3l63 1l27 -15l94 -4l24 -5l27 -28q1 -1 6 -1q14 0 37 26l15 -3l131 44q1 1 3 1q19 0 19 -36l-2 -43l-8 -94l-7 -32v-1l3 -32l-3 -37l-25 -2l-3 -12l11 -37q12 -9 21 -26q8 -18 8 -34l-2 -39l-2 -166l-20 -12q0 -4 -1 -5t-1 -3q0 -18 28 -40l-1 -27l15 -56l-19 -73v-7 l10 -66l2 -33v-16l-6 -199l1 -69q-12 -1 -18 -7q-5 -6 -7 -22l-2 -22l18 -15l4 -20l-1 -43l11 -35l-4 -110l16 -138l-8 -81l13 -54q4 -15 4 -37q0 -33 -17 -62q-12 -17 -113 -53l-27 -11l-37 10l1 22l2 41l35 90q2 6 2 8q0 11 -16 11l2 40q-1 7 -1 26q0 31 6 40l16 22l10 17 q-7 19 -28 28l-1 21l3 71l3 23v25l1 28l10 2l-11 61q7 22 38 30l-4 25l-24 48q-4 7 -4 30v11l3 71l-1 7l1 40l-2 17q0 20 6 28q4 6 21 11l-43 66q20 35 20 50q0 13 -16 22q-18 8 -39 8q-6 0 -7 -1l-86 -33l-48 -10l-20 -6l-28 7l-18 -5q-43 -43 -78 -43h-5l-164 9 q-67 3 -75 8l-86 43l-61 13q-19 10 -55 58l-17 29q0 3 1 4l15 45l-7 10q-13 -9 -22 -9q-28 0 -45 102l-6 24l49 28l-3 12q-46 4 -46 25z" />
<glyph unicode="r" horiz-adv-x="790" d="M132 752l-23 42q8 39 32 63l61 31l38 25q29 -8 39 -19t10 -37v-5l-1 -27q0 -37 17 -37h4l52 28l48 17l86 47l29 13l22 -7l46 15q39 12 60 12l42 -5q21 -27 34 -27q3 0 5 2l22 11q4 4 12 4q25 0 48 -26q16 -19 16 -34q0 -7 -4 -10l-57 -43l-30 -34l-18 -5l-27 16l-19 18 l-59 3l-57 21l-24 6q-12 -21 -26 -26q-13 -6 -58 -6l-32 -14l-25 7l-20 -15l-80 -63q-21 -27 -22 -94l-3 -77l-23 -14q20 -31 20 -66h17v-28l5 -129l3 -68l-5 -60q-30 -16 -30 -31q0 -4 8 -17l26 6l-2 -9l8 -40v-4q0 -16 -16 -32q-15 -15 -33 -17l-38 -4l-60 -32l-25 16 l3 20l15 57l-6 77l7 10h20l1 12l-3 20l-13 29l-2 40l-7 35v1v28l1 33q16 19 38 52l8 24l-1 10q-48 0 -48 22l5 76l-5 76q1 6 11 19v27l-12 12l-3 26z" />
<glyph unicode="s" horiz-adv-x="967" d="M154 253l23 -29l17 -88l37 -22l58 -47l28 -8l54 -26l37 1l25 -6l49 14l80 9l42 21l38 14q38 23 72 92q35 70 35 123q0 21 -12 37l-39 54l-11 27l-24 11l-12 -16l-22 2l-53 7h-64h-17l-27 39q-27 -27 -36 -32q-13 -7 -47 -11l-35 -5l-21 9l-24 1l-26 20l-32 -5l-33 14 l-43 15q-24 9 -42 39q-19 28 -19 62q0 30 15 66t45 72t71 67q48 37 115 73q58 31 119 52q57 18 95 18q17 0 74 -20l30 -11q60 12 88 12q26 0 44 -8q17 -9 17 -22q0 -11 -29 -34q-30 -22 -72 -45l-30 -16l-26 3l-49 3l-39 10l-18 34h-13l-17 -19l-31 1l-27 -1l-42 -5h-1 l-30 7l-17 -11l-63 -37q-68 -60 -68 -105q0 -34 22 -44l65 -29l20 -11v-25l31 -15l33 30l17 -3l168 13l80 -18l36 7l47 -32l70 -39q18 -10 36 -63l9 -27q17 -54 17 -104q0 -39 -14 -67q-15 -27 -35 -27q-11 0 -20 4l-12 -24l-19 -49l-45 -48l-21 -28l-27 -3l-93 -47l-43 -7 l-73 -23l-57 9l-89 -20q-18 0 -98 19q-44 10 -54 17l-39 26l-49 29q-26 19 -48 52q-22 31 -22 56q0 15 35 44q36 28 75 47z" />
<glyph unicode="t" horiz-adv-x="741" d="M190 857l26 4l-1 23l-6 214l-24 56l-8 31q32 42 62 61q29 19 77 25q19 31 34 31q26 0 26 -89q0 -67 -6 -118q-7 -51 -18 -80q-3 -9 -6 -17q-4 -12 -9 -18q-4 -6 -14 -6l1 -47q20 0 32 -14l-6 -28l4 -24l21 -2l100 -22q15 -4 33 -4q19 0 30 4l40 12l75 8l58 21l20 1h8h22 l2 -3l2 -1v-3l-11 -29l-3 -20l-72 -54l-42 -37l-25 -6l-37 4q-94 20 -97 20q-1 0 -1 -1l-67 -4l-39 7q-12 -1 -23 -9q-10 -9 -10 -21q0 -10 12 -13l-2 -129q-44 -11 -44 -37l4 -24l40 -8l4 -95l2 -21l-9 -30q-17 5 -22 5q-8 0 -16 -6q-8 -8 -8 -16q0 -12 16 -31q13 16 19 16 q7 0 19 -13l2 -135l5 -21l24 -47q2 -6 2 -34q35 -24 75 -24q32 0 65 13q34 12 50 27l98 89q6 6 15 6q14 0 35 -12l-6 -22q-16 -82 -33 -88l-237 -86l-40 -21l-31 18l-21 4l-10 -26l-19 -2q-28 0 -68 29q-42 32 -46 50l-7 29l-11 36l2 55l-1 63l21 66l-7 25l-4 33l1 24l3 97 l-2 26l-3 34q0 -1 2 5l25 30q5 8 5 12q0 22 -35 22l-8 14q11 74 11 145q-43 8 -72 8q-65 0 -125 -19q-8 6 -8 15q0 17 8 23l38 31l8 24q8 17 20 17z" />
<glyph unicode="u" horiz-adv-x="1144" d="M294 881l11 -24q-20 -52 -20 -104l5 -57l-1 -24l-17 -50q-4 -47 -4 -56q0 -16 7 -29l16 -29l-23 -76l9 -24l-8 -44l-10 -57q0 -6 3 -12l14 -25l6 -106q7 -28 28 -42q22 -15 79 -31l74 -19q20 -5 68 -5q30 0 49 6l57 23l62 -15q14 5 20 32l33 19l44 61l37 30q17 20 20 56 l8 103l6 21l-20 23l1 36l3 158l-5 53l-11 62q0 14 20 34l-5 18l-16 2l-5 31v7l8 31l1 21l16 -4l111 39h3q11 0 19 -20q7 -18 7 -46l-8 -203l-13 -155l-27 9q-12 -25 -12 -39l5 -21q12 5 19 5t14 -5q6 -4 6 -13l-9 -188l19 -36l12 -96q5 -7 16 -21q2 -2 8 -11l11 -13 q-9 -27 -32 -36l-114 -50q-31 16 -31 59l2 56l-19 5l-64 -31l-94 -46l-36 -17l-120 -23l-39 -13h-10q-13 0 -15 1l-37 16l-45 -13l-41 36l-80 -13q-32 0 -74 47q-44 50 -44 101q0 19 19 34l-31 13l-3 38l-2 53q0 20 8 41l19 35l-19 55l3 60l-4 68q1 3 2 8l8 24l12 37v14 l-19 -8l-13 12l1 21l2 120q0 31 -6 43l-8 14l-2 6q0 17 25 29l12 6l72 32q39 14 51 14q13 0 25 -28z" />
<glyph unicode="v" horiz-adv-x="906" d="M27 807l-13 16q11 31 27 38l60 28l24 25q6 2 8 2l24 -4l23 -6l6 -21l26 -62l22 -111l37 -66l15 -49l21 -47l5 -41l21 -21l16 -58l51 -92l-8 -36l17 -14l24 -17l51 -102l27 -11q6 0 10 6l26 56l38 73l47 108l17 33q33 3 33 17v2l-6 66l4 19l48 110l-3 75l33 75l13 59 q11 24 40 40t62 16l33 -4l-10 -27l-51 -107l-20 -63l-29 -90l-12 -36l-30 -70l-15 -66l-42 -67l-123 -269l-31 -42l14 -19l-25 -19l-53 -28l-39 -35q-7 -6 -15 -6q-7 0 -16 9q-6 13 -6 16l-12 44l-24 27l-30 67l-56 108l-4 55l-4 22q-10 17 -39 21q19 16 19 29q0 22 -14 39 q-15 15 -37 15l-13 -1l-17 63l-19 46l-1 59l-44 38z" />
<glyph unicode="w" horiz-adv-x="1313" d="M14 784l-14 25q23 50 43 57l40 15l44 32q3 1 12 1q14 0 25 -8q10 -8 13 -21l42 -151l8 -25q-2 -8 -20 -22q14 -47 31 -47q8 0 16 2l21 3q28 -38 28 -51q0 -3 -1 -4l-6 -44l22 -66l9 -39l28 -37l52 -173l22 -26l14 -19h17l10 18q31 55 31 80l5 60l26 58l12 53q3 8 36 89 q0 75 10 99q9 26 42 42l-9 21l-22 29l4 64l-9 29l-3 33l25 13l22 15q21 13 75 20l19 3l18 -15l25 -17l12 -68l17 -84l-14 -37v-1q0 -26 40 -44l23 -70l6 -21l20 -63l92 -254l12 -23q5 -9 15 -13q10 -7 17 -8l30 46q-10 19 -10 43q0 9 3 16l69 178l3 45l29 91l3 72l12 65 q7 63 11 83q1 14 11 24q12 10 42 29q38 24 51 24q12 0 28 -6q-4 -82 -12 -111l-22 -67l-5 -29l-21 -54l-6 -35q-5 -12 -26 -30l-3 -21l2 -28l-106 -342l-10 -102l-78 -63l-25 -32l-21 -15l-16 15l-17 20l-23 14l-7 19l-12 42l-23 28l20 12l-3 19l-20 19l-27 17 q-18 12 -24 36l-25 102l-37 69q2 15 13 15q10 0 18 -4q0 45 -28 60l-30 17q-12 7 -31 89l-7 20h-12l-10 -23l-71 -245l-52 -146l-11 -59l-13 -35l-5 -36l-48 -32l-17 -16q-38 -5 -70 -26l-10 23l-29 56l-17 38l-41 142l-59 103l8 79l-6 18q-38 2 -48 26l-17 40l-19 35 l-23 72l-29 30z" />
<glyph unicode="x" horiz-adv-x="1001" d="M371 378l35 40l-16 29l-53 52l-13 52l-38 12l-51 52l-48 38l-9 48q-5 20 -22 20q-7 0 -22 -4l-16 12q-28 21 -45 36q-18 14 -26 27q-8 11 -18 29l23 23q31 31 55 44q18 8 61 13l9 9h10l13 -20l39 -45l47 -62q19 -18 19 -31v-8q20 -26 29 -32q10 -7 29 -8l36 -46 q57 -51 57 -69l-2 -31q-1 -1 -1 -2q0 -8 16 -21q15 -15 25 -15q20 0 45 37l20 29q29 1 41 10q10 7 21 37l-7 18l17 15q53 44 56 57l9 43l31 39l44 63l29 19q35 25 56 25q22 0 22 -28q0 -12 -5 -17l-50 -70l-35 -54l-49 -53l-94 -108l-89 -94l-10 -32q26 0 36 -6 q11 -8 23 -27l24 -3l20 -22l71 -74q27 -28 51 -45q35 -24 35 -39q0 -7 -8 -15l8 -7q23 0 37 -20q25 0 34 -4q8 -4 27 -26q14 -17 39 -35q27 -19 43 -37q15 -18 15 -26t-26 -34l-18 -18q-25 -25 -48 -37q-27 -15 -45 -15q-4 0 -12 8q-3 4 -5 5.5t-10 10.5l-15 15l-109 122 q-9 9 -40 81l-29 -2l-38 37q-38 43 -43 48q-9 8 -30 19l-21 12q-11 40 -34 70l-29 -14l-15 -40l-40 -32l-36 -50q-21 -29 -47 -45l-31 -18l-22 -27l-72 -117q-18 -31 -66 -50l-10 -36l-25 -1q-58 0 -58 43q0 19 23 39l132 128l28 20l59 81z" />
<glyph unicode="y" horiz-adv-x="1105" d="M-8 -561l13 -29l10 -29l38 -52l40 -61q18 -21 30 -21h2l14 2l84 -35l69 -4q18 -12 27 -12q6 0 26 14l24 -3q45 0 120 35q68 33 84 51l75 78l47 29q29 22 43 73l25 82l37 58l-5 43l18 80l1 82q1 41 19 84l17 55l-12 48l-12 139l-1 22l1 10l15 54l-9 13l-31 -14l-36 -20 l-27 -31l-96 -61l-50 -48l-76 -55q-39 -27 -48 -28l-67 -11l-38 -14q-17 -5 -31 -5q-40 0 -104 26t-88 50q-39 41 -39 99l1 21q20 14 20 25q0 1 -2 7l-19 29l-2 28l4 28l40 89l-7 35q-2 14 -2 12q0 19 8 49l20 74q9 38 9 49l2 79l19 77q0 16 -13 36l-29 2l-2 17l35 43l24 9 l34 9l100 58h8q13 0 23 -12q10 -13 10 -30v-4q-1 -1 -1 -4l-30 -74l-16 -77l-23 -114l-8 -69q-4 -15 -15 -18l-30 -8q-18 -4 -18 -21q0 -25 41 -25l-27 -207l-9 -60l5 -15l14 -20l30 -46l57 -24l26 -30l16 -5q5 0 6 1l34 21l96 31l41 31l70 49l65 64l44 26l18 10l36 95l7 5 l3 19l22 23l-9 56l8 14l-4 43l6 23l-16 89l-8 120l-30 59v7q-1 1 -1 5l1 16l42 15l31 29l58 8l25 7q27 -21 27 -36v-3l-6 -37l4 -72l-8 -28v-28l-12 -45l2 -15q30 -78 30 -80v-27l4 -64l-14 -35q-3 -9 -3 -18q0 -28 33 -58l-3 -24l2 -131l-34 -94v-5l3 -15l20 -23l-8 -53 l4 -78l-10 -25l2 -106l-13 -35l-10 -50l-17 -32l2 -51l-36 -87l-8 -21l-27 -19l-76 -95l-46 -68q-28 -42 -50 -52l-28 -15l-23 -26l-31 -19l-19 -15l-44 -13q-1 0 -16.5 -6.5t-46.5 -22.5l-63 -22l-91 -27l-94 11l-49 5q-38 3 -61 17l-68 42l-35 9l-26 37l-54 32 q-17 20 -17 56q0 42 28 79q10 13 39 15z" />
<glyph unicode="z" horiz-adv-x="910" d="M222 269l21 43q11 -4 21 -4q12 0 29 14q20 20 20 30q0 7 -11 21l137 180q37 0 41 21l14 47l51 62l45 78l16 24l-58 20l-160 -5l-121 12l-64 -4h-8l-17 1h-16l-26 -2l-47 -12q-13 0 -13 19q0 15 9 22l39 26q23 16 48 55q14 2 8 2l66 -11l17 11q34 -28 55 -28q8 0 11 1 l28 7l27 -5l39 3l98 -25l107 15l41 -5l38 7l45 3l41 9q22 -1 34 -44l-13 -15l-48 -57l-29 -41q-7 -16 -14 -20q-8 -5 -25 -5l-19 1q0 -19 -1 -24q-1 -6 -7 -16q-3 -6 -14 -18l-32 -35l-25 -33q-15 -4 -31 -16q1 -4 1 -16t-7 -19l-39 -41l-38 -52q-36 -36 -38 -50q0 -1 1 -2 l2 -8q-8 -12 -14 -18l-4 -4l-5 -5l-77 -106l-54 -19q-11 -11 -11 -28q0 -10 7 -30l-41 -60l-12 -23l59 -1l62 1q18 0 45 -15q24 15 32 17l110 -2l143 11l76 -16l26 -4l16 3v23l19 6q46 17 71 17q9 0 14 -5q4 -5 4 -14q0 -12 -9 -23l-17 -25l-14 -26h-13q-14 -30 -29 -43 q-14 -13 -40 -13l-19 1l-72 15l-108 -3l-82 28l-99 -17l-65 6l-41 -12q-21 -6 -52 -6h-18l-74 2l-32 -1l-80 -7q-33 0 -33 31q0 8 5 16l56 62l80 109z" />
<glyph unicode="{" horiz-adv-x="2181" d="M2500 -230l37 25l166 44l69 34l39 12l26 -11l14 21l23 10l125 70l37 7l6 -29l1 -11l-13 -26l4 -16l-26 -68l-23 -13l-42 -18l-76 -3l-82 -42h-38l-42 -13l-69 -11l-190 -41l-25 -3l-13 16l-34 -6l-6 -20l-25 -5l-133 -15l-55 -11q-18 0 -41 14l-36 -5q-17 -23 -32 -24 l-215 -15l-78 -18h-70l-34 -5l-26 10l-8 -12l-23 3l-84 15l-86 -18l-64 11l-102 -1l-164 19l-143 13l-182 50l-67 19l-43 17l-80 52l-30 10q-20 10 -46 30q-27 21 -46 44l-13 33l-46 36l-42 51l-32 34l-5 33l-49 23l-35 77l-16 41l1 29l-13 41l-12 3q-22 54 -40 122 q-18 66 -18 94l9 38q-21 44 -21 82q0 15 22 43l-13 44l8 56q39 0 39 18q0 22 -35 25l7 34l9 71l17 74l7 24l14 7l5 24l14 36h18q17 20 21 57q-15 14 -15 25q0 10 44 48l3 19l34 60l28 38l21 43q19 30 38 37l28 13l19 16l-10 23l8 15l26 22l31 33l46 12q2 16 8 22q7 7 27 13 l31 -25l2 28l7 30l24 16l63 46l53 24l39 24h53q10 25 24 37q12 12 39 24l53 32l45 9l33 22l57 14l125 44l36 3l45 15l123 -5l27 17l20 3l17 -1l182 -24l94 6l146 -44l49 -6l25 2q14 -25 14 -36q0 -25 -48 -51l-13 -7q-17 -20 -72 -20l-27 21l-150 45l-64 29l-34 -16l-90 1 l-62 -4q-21 0 -21 23v12l-58 -2q-6 -19 -22 -26l-36 -1l-141 -36l-33 9l-19 -5l-27 -21l-83 -30l-64 -37l-35 -15l-65 -44l-29 -18l-18 -19l-76 -47l-19 -24l-94 -88l-88 -130l-29 -33l-19 -50l-38 -43l-37 -19l-16 -14l4 -20l5 -36l-2 -11l-33 -74l4 -23l-41 -170l-8 -92 v-26l-12 5l-30 -42l40 -26l2 -36l4 -83l8 -56l27 -83l4 -22l-26 -3l7 -33q-16 -17 -16 -25q0 -13 22 -32q19 10 27 10q27 0 33 -55q22 -13 36 -32q18 -24 43 -66q35 -56 35 -70l-4 -19l24 -26l21 2l18 -9l15 -26l50 -48l16 -35l-1 -13q0 -18 34 -19l28 -2l22 -19l47 -18 l80 -38l23 3l90 -29v-22l97 -15l94 -18l66 -9l67 -1l31 -15l49 -1l76 -3l74 11l128 4l60 2l48 -13l36 23l53 6l79 12q19 0 32 -24l26 8l18 14q11 10 44 11q114 6 167 22l88 18l58 -8l55 28l38 9q20 -12 29 -12z" />
<glyph unicode="|" horiz-adv-x="2282" d="M352 1582l-14 -29l21 -22l6 6h11l10 -21l9 -60l7 -22l-4 -70l4 -47l-15 -35l10 -47l-8 -76l11 -116q-7 -19 -17 -19q-9 0 -20 9l-8 -18q16 -22 25 -28q10 -7 36 -11l-2 -21l-1 -224l-12 -71l6 -24q-17 -2 -23 -15l31 -33v-154l9 -174l-6 -59l11 -119l-14 -26l-32 10 q-22 0 -22 -18t11 -32t24 -14l17 2l4 -28l7 -23l4 -102l7 -55q0 -12 -9 -21q-8 -9 -28 -16q-7 -20 -17 -28q-11 -9 -28 -13l5 -10l18 4l79 -2l24 1l28 -15l17 24l45 -2l87 4l25 -10l-1 10q0 27 52 27l16 -4l23 4q53 0 75 9l29 13l100 36l75 35l67 24l38 14h22l84 40l24 4v17 l26 8l108 63l66 38l94 80l68 53l38 55l55 50l33 56l61 68l17 37l39 87l6 56l38 111l1 55l11 96l7 20q46 22 46 63q0 18 -10 31t-37 28l7 12l-7 18l-25 131v37l-50 66l-36 95q-40 10 -54 17q-13 4 -15 14l-5 34l-21 21l-59 7l-22 17l-93 60l-38 31l-32 15l-92 48l-116 25 l-43 13l-94 16l-80 17l-17 -3v8l-31 -2l-47 16l-34 26l-53 -13l-215 16l-184 -6l-42 17l-14 1l-48 -22l-4 -11l5 -48l-8 -25l-4 -40l-18 -34zM253 -104l-8 59l15 77l2 28l-12 18l2 86v66l4 35q44 6 44 37l-9 27l-30 -5l-13 41l9 104l-12 43l4 48l-2 52l16 29l-18 15l-3 34 l17 9v14l-18 34l-2 126l-2 46l7 21l26 -5l14 21l-34 25l5 10l-29 3l-7 25v1l10 117l-10 73l-4 55l7 53h11q11 36 11 45q0 23 -33 38l-2 30l-19 78l-11 95l-3 63l-9 57l-12 -5l-30 3l-63 -8q-18 8 -18 25q0 19 15 26l29 16l15 13q17 3 27 10q11 7 26 28l24 -5h113l17 -12 l18 -7l44 14l68 3h138l37 -2q14 -21 37 -21h12l3 15l142 -6q26 -20 43 -20l18 4l3 15l25 5l27 -8l11 3l145 -18l70 -4l27 -7l38 -7l4 -17l31 -17l34 19l19 12l22 -9l34 2l93 -42l24 7q47 -27 71 -35q26 -10 96 -22l23 -4l30 -22l40 -9l54 -39l33 -30l62 -41l47 -23l18 -16 l-4 -20q0 -24 30 -44l25 7l16 -24l68 -70l9 -37l30 -82l2 -55l20 -73l3 -99l9 -14l5 -55l-20 -125q-11 -67 -17 -79q-7 -18 -34 -24l12 -37l-18 -72q-16 -51 -34 -51q-7 0 -13 7q-8 10 -17 28l-21 -37v-40l21 -21l-20 -60l-61 -80l-2 -15l-23 -23l-31 -31l-8 -23l-30 -35 l-11 -16l-18 -10l-41 14v13l-8 9l-18 -33l17 -32q-23 -25 -45 -43q-21 -16 -81 -51q-19 16 -49 21l-13 -19q15 -15 15 -26q0 -8 -6 -16q-5 -5 -34 -26q-26 -18 -116 -75q-24 -15 -39 -15q-10 0 -24 15h-23q-7 -40 -26 -46l-74 -22l-53 -46l-15 5l-76 -33l-47 -25l-28 -7 l-32 -17l-68 -10l-153 -51l-73 -6l-162 -28l-53 -2l-82 -8l-99 4l-198 -11q-23 8 -23 37l48 21l68 31l16 35l15 25l2 85z" />
<glyph unicode="}" horiz-adv-x="1775" d="M1129 -448l-132 23l-108 -7l-90 13l-40 -4l-31 8l-125 10l-137 16l-50 -6l-98 8l-23 1l-44 -5l-47 -10l-32 1l-21 -8l-34 31l20 13l13 22l31 32l11 51l23 37l5 6l3 80l1 55l4 162l-2 54l26 39q25 5 30 11q5 9 11 40q-29 0 -42 5q-11 4 -26 20l4 25l3 25l-2 9l-10 52l4 31 l2 55l44 48l-7 29q-36 0 -38 27l5 72l-10 192l6 68l-7 61l-1 24l27 7l3 70l-25 25l-19 8l1 18l-1 12l-5 47l17 47l2 20l-43 13l-1 9l15 40l13 22q-15 21 -20 36q-6 17 -6 34l3 18l26 64l-8 26l-18 -3l-2 33l-20 125v28l-14 19l8 43l-23 6q-42 8 -51 13q-12 6 -12 20l11 25 l20 2l54 32l20 5l33 18l25 -3l100 -10l77 -11l23 1l47 -21l52 15l33 7l12 -2l68 -20l75 -2l45 -6l40 -3l46 3l91 5l52 -15l20 -10l23 24l29 -4l193 2l47 -2l74 13l55 -1l39 9l29 -7l11 24l31 5l76 21l16 2q31 0 31 -26q0 -17 -14 -34q-13 -14 -54 -41l-61 -42l-22 -10l-14 2 l-97 -4l-129 16l-40 -7l-89 11l-57 -13l-160 11l-160 -15l-28 -1q-6 15 -16 21t-35 6l-36 -5l-42 -20l-162 15l-27 -6l-27 -4l2 -22l1 -38q0 -45 -8 -63q-9 -16 -44 -30l-8 13l-9 -48q37 -9 47 -22t10 -59v-21l4 -59l28 -3l148 -18l117 -6l38 -7l201 6l111 -6l86 11l125 2 l110 25l74 7l26 9l22 -10l-10 -29l-48 -55l-14 -21l-11 -17l-125 5l-28 23l-7 -2l-27 -18l-30 -6h-18l-84 7l-53 -7l-128 11l-86 -7l-72 5h-106l-104 7l-37 -11l-59 -4l-28 -2l-9 -37l-1 -131l-20 -54l-12 -4l8 -41l27 -2l7 -311q-28 -4 -28 -26q0 -18 12 -32l22 -24l-3 -37 l9 -42l-16 -44l12 -149l-4 -155l4 -21q-35 -24 -35 -44l3 -7l33 -34l9 -57l8 -74l-7 -14l-6 -28l9 -58l-12 -68l-4 -26l30 -9l28 -4h42l102 -20l48 -1l-5 -19l35 -21l50 22l25 -4l25 -8l13 -14l24 -14l32 32l48 -8l30 -2l33 1l32 -9l13 -13l36 -11l24 19l30 -6l39 -7 l121 -10q22 -1 34 -28l38 -3q27 0 51 -18l9 2v9l54 13l90 -6l146 -8q23 -2 23 -22v-11l18 -3l14 4l35 16l28 5l19 -1l115 -11l272 8l25 -13l32 -2l17 3l22 16l215 10l142 32l88 31l11 -2l90 24l75 23l64 43l39 12l21 11l16 -20l-13 -29l-19 -55l-2 -26l-18 -22l-17 -24 q-16 -21 -52 -21l-48 10l-24 -20l-52 -7l-55 -15l-51 -2l-80 -18l-49 5l-21 -12l-27 -7l-94 2l-36 -3l-13 12h-37l-18 -13l-35 -4l-81 1l-25 -2l-31 15l-31 -4l-49 2l-25 -6l-163 6h-147l-118 17l-55 -12l7 16h-15l-12 -12l-57 3l-117 17z" />
<glyph unicode="~" horiz-adv-x="1676" d="M429 1834l42 -5l106 5l49 -16l53 7l20 -16l23 -3l139 -6l45 -10h92l39 -1l18 2l15 8h139l123 16l125 -5l25 15l79 21l56 7l44 6l21 6l4 -24l-20 -41l-88 -81l-18 -20l-34 5l-20 -2l-49 15l-16 -3l4 -18l-23 2l-59 8l-176 4l-34 24l-91 4l-7 -13l-35 -3l-43 -4l-14 2 l-43 13l-38 -1l-32 1l-34 -11l-16 -2l-74 4l-92 7l-23 4l-106 -13l-86 19l-30 -17l4 -26l-2 -18l-2 -87l-2 -59l1 -22l-17 -11l6 -24l12 -21l3 -86l2 -24l24 6l23 -3l72 -10l48 -5h3l85 1q32 0 45 -4q14 -5 26 -15l45 12l73 -12l33 16l24 -7l22 14l32 -8l101 -5l24 22l43 -1 l76 5l53 -11l76 19l102 12l95 25h15l-4 -24l-31 -45l-4 -37l-29 -18l-37 -27l-48 4l-63 5l-53 25l-44 -19l-27 -8l-73 1l-33 -3l-33 7l-108 -5l-68 6l-61 -4l-49 9l-66 -13l-94 1l-53 -3l-61 17l-12 -6l-3 -19l-24 1l-22 2l-21 -6l4 -9l-9 -39l1 -43l1 -61l6 -56l-29 -12 l-11 -29l9 -30q18 -5 25 -21l-7 -68l8 -128l-16 -29v-48q18 -6 18 -16l-2 -15l-18 -5l-4 -10l20 -21l-2 -20l2 -184l-39 -41l-5 -16q0 -22 43 -26l11 -348l-17 -18l-13 -22l13 -43l10 -22l19 -2l2 -34l7 -85q0 -43 -27 -43l-24 6l-7 -39l-22 -8l-46 -21l-56 -15l-29 -11 l-29 18l7 22l-18 18l49 102l-3 12l3 15l15 99l-2 74l12 13h12l12 -11l7 3l-7 23q-52 3 -52 47l2 45q3 49 6 56q2 8 17 20l-1 28q33 14 33 26l-6 13l-9 -5l-4 25q-31 0 -31 21l3 64l-1 59l9 32l-4 18l21 41l-4 10l-16 14l1 111l-13 71q0 21 22 34q1 15 6 23q4 5 19 12l-11 45 q-22 5 -29 15q-9 11 -9 31l3 80l-17 133l-1 25l11 46l19 -3l9 36l-11 32l-8 3l-17 23l7 80l-11 41l-6 55l-11 49l-5 73l-9 25l5 53l-22 50l-8 61l-1 25l-23 -5q-26 0 -55 33l19 25l21 6l104 59l50 -8l42 22l46 -19z" />
<glyph unicode="&#xa1;" horiz-adv-x="535" d="M234 14l-18 1l-11 -14q-21 12 -24 22l5 29l4 47l12 23l-11 57l16 4l-5 50l-9 10l-1 22l-2 28l5 50l-4 24l16 52l-1 12l-7 6l2 22l7 140l11 35l-3 29l-20 34l4 38l2 46q6 10 15 19l-25 59l-7 55l-4 21l14 15l21 46q6 13 40 34l18 -8l49 3l18 -10q19 -9 19 -25l-2 -8 l-40 -60l-10 -100l-6 -38h-23q-9 -17 -9 -26t10 -26l28 6l7 -85l-24 -67l8 -27l8 -16l5 -118l2 -26l10 -4v-20l-31 2l-8 -9q14 -20 39 -26l1 -9l-3 -64l10 -57l-3 -24q23 -17 34 -34q12 -17 12 -35q0 -37 -46 -71t-95 -34zM377 1366l21 -6q-5 -20 -14 -25l-63 -37l-35 -33 q-8 -5 -24 -9l-26 26l-72 49q-24 16 -28 53l8 14l17 29l60 45l17 19l30 -14l27 -34l39 -36l22 -34q6 -4 21 -7z" />
<glyph unicode="&#xa2;" horiz-adv-x="963" d="M246 538l8 -19q23 -6 37 -18q14 -13 27 -45l9 -19h17l15 -16l51 -37l20 -16l22 -7l20 -9l18 53q-11 6 -15 11q-5 5 -9 17l4 22q8 42 8 50l-2 44v39l10 29l4 21l-14 17l1 26l-4 108l2 8l13 22l10 22l-22 11l4 31q-15 14 -15 25q0 3 3 12l-22 -5l-51 -7l-21 -13l-32 -31 l-29 -8q-6 -23 -12 -29q-7 -7 -29 -10l-6 -7l6 -20q-23 -25 -31 -45q-8 -21 -8 -54l2 -41l3 -17l3 -22l18 -42zM109 574q18 36 18 53l-3 59l20 34l44 86l41 37l91 85l76 47l16 14l40 13l34 18l-16 52l8 45l-9 17l2 17l2 20l23 13l44 29l11 6l13 -16l-3 -47l2 -83l-10 -42 l40 -20l43 15l40 -8l26 -5l13 -2l12 2l66 8h3q1 0 2 -1t1 -2q9 -4 9 -15q0 -10 -16 -32q-21 -5 -27 -11t-8 -26l-22 -10l-31 -22l-31 3l-79 2l-32 12l2 -52l-5 -98l1 -5l1 -39q0 -8 -2 -10l-8 -13l-7 -21l9 -33l-10 -26v-19h8l11 -18l-3 -58l4 -39l1 -35v-56 q-15 -13 -15 -31l2 -22l22 -2l27 -3l6 1l57 20h20l49 32l42 19l61 54l24 14q14 -10 19 -26q-11 -28 -11 -43l1 -10l-34 -42l-24 -10l-32 -23l-61 -22l-40 3l-52 -15l-54 -22q-3 0 -14 3l-4 -4l4 -22l6 -74l4 -18l-10 -41l1 -12l-82 -35l-11 11l8 200l-10 -4l-15 13l-55 7 l-51 13l-67 14q-24 13 -50 40l-20 26l10 21l-31 -3l-17 17l-18 35l-12 16l-2 20l-5 20l6 31q-1 11 -27 31z" />
<glyph unicode="&#xa3;" horiz-adv-x="1499" d="M1303 -17l-78 9l-102 -11l-39 11l-33 -6l-61 8l-66 8l-59 11l-20 -5l-25 3l-21 6l-215 -6q-56 22 -70 22t-36 -31l-18 -7l-101 12l-51 -17l-57 -5h-31l-53 8l-3 25l19 9l53 43l36 13l27 17l48 26l22 43l20 35l30 76l37 9l3 13l8 5l-5 14l15 15l-46 12l2 43l8 70v86l2 24 h-27l-18 18l-92 5l-82 11h-41l-64 18l-23 2l7 18l18 10l63 40l25 8l27 19q1 1 4 1l77 -22l51 -15l15 -2l13 10q-32 26 -53 75q-21 48 -21 96l-12 6l-9 47l29 33l-21 -5l-6 11l38 88l-11 14l9 23q20 57 51 57q6 0 30 -8l4 41l-12 3l12 15l18 11l101 71l38 11l61 29l79 12 l27 11l45 9l15 -4l25 -16l49 -21l20 -22l-14 -22l-38 -28l-16 -19l-26 -3l-41 -10l-21 -2l-24 22l-56 6l-28 7l-13 2q-30 0 -51 -21l-21 -21l-56 -58l-19 -31l-10 -72l-5 -48l13 -63l-2 -48l55 -62l45 -120q39 -41 160 -42q3 -19 8 -24q6 -7 20 -14l2 11q15 2 19 6q5 5 6 18 h20l64 11l94 3l88 47q29 0 29 -19q0 -16 -25 -35q-1 -25 -17 -37q-15 -11 -96 -49l-20 -10l-22 2l-64 7h-4l-27 -6l-77 12h-37l-78 15l-20 -7l-1 -46l-13 -26l2 -22q16 -16 16 -30q0 -19 -10 -52l-29 -11l-9 -28l16 -8l2 -21q0 -47 -88 -145v-37l74 -19q14 -19 21 -23 q9 -5 28 -8l8 8l23 -3l137 -12h19l17 -4l1 -6l25 -3l53 -9h11l30 6l22 3l117 -7l185 8l53 -7q13 0 24 23q32 1 57 7q15 3 59 23l46 20l3 -31l3 -27q0 -20 -29 -43q-33 -27 -48 -27q-16 3 -25 3.5t-16 1.5q-5 1 -14 1l-27 -9q-15 -34 -37 -34z" />
<glyph unicode="&#xa4;" horiz-adv-x="2608" d="M1649 -189l33 -11q19 0 35 24q-13 16 -13 28q0 7 7 11q6 4 39 15l15 12l52 31l30 17q18 -15 36 -15l16 30l22 14l3 22l21 16l70 55l54 43l43 59l37 41l29 56l33 52l27 65l15 23l-2 11l15 42q11 -4 18 -11q6 -6 9 -19l10 -1l18 21l33 15l6 10q0 13 -17 24q-19 -13 -30 -13 q-20 0 -20 13l7 47l-3 70l3 25l-9 29l-5 39l-1 45l3 43l-1 30l21 -10l18 35l-16 29l-35 26l2 47l-15 131q-16 15 -21 27t-5 40q0 49 -15 74l-62 104l-44 85l-27 28l2 36l-12 36l-40 -13q-47 72 -86 95l-95 53l-61 52l-24 -5l-16 14h-13q-23 0 -44 8q-23 9 -53 28l8 30 q0 37 -27 37q-16 0 -52 -41l-32 7l-34 3l-62 23l-68 -6l-32 10l-125 -16l-37 6l-24 1l-21 -3l-86 -14l-76 -35l-50 -9l-28 -26l-16 6q-4 -18 -10 -24q-7 -5 -38 -20l-23 -15l-1 -22l-53 -22l-103 -86l-61 -39l-28 -44l-69 -70l-12 -27l-37 -53l-64 -109l-27 -82l-27 -37 l-10 -58l-13 -18l1 -20l-2 -18l-29 -63l7 -182l-7 -51l9 -44l2 -18v-47l10 -32l20 -29l6 -27l8 -37l-1 -37l40 -60v-30l11 -29l8 -9h15l18 -46l24 -21l8 -23l17 -26l-16 -48q5 -12 14 -18q10 -7 22 -7q16 0 38 16l25 -36l85 -69l12 -20l3 -47l35 -19l32 6l50 -43l-5 -16 l56 -30l88 -42l17 -17l137 -25l48 -15h51l57 1l23 4l10 -21l11 -4l67 21l42 5l84 28h57l39 28l71 29zM813 -343l-48 -9l-48 21l-33 5l-30 22l-72 38l-82 54l2 6l-29 31l-14 46l-10 25l-27 4l-21 8h-32l-32 40l-31 37l-7 37l-27 33l-76 133q-23 40 -23 65q0 15 15 34l13 -1 l3 18q0 24 -47 39q-13 33 -13 77v20q-21 65 -21 181l1 37l2 20l3 74l17 48l32 -10q11 17 11 28q0 15 -31 40l25 83l32 94l47 105l20 30l43 88l60 91l25 29l38 24l21 56q11 29 75 66l20 12q3 35 24 35l35 -8l16 32q5 14 22 27q16 13 37 13l9 20v10l33 29l96 47l20 19l17 1 l47 35l112 46l71 33l86 13l97 7l101 15l57 4l53 -15l50 2l59 -15l42 6l25 2l22 -5l38 -33l76 -11l35 -18l54 -13l22 -7l7 -27l10 -4l18 13l19 -6l36 -16l20 -30l18 -21l14 14l67 -37l63 -48l49 -72l-15 -15l5 -50l32 15q13 0 33 -29h19l14 -23l35 -72l24 -28l9 -26 q-16 -16 -16 -31q0 -12 6 -18l43 -51l11 -24l-1 -74l19 -62l1 -38l7 -43l1 -19l-5 -20l-28 -27l-5 -18q0 -34 8 -50q7 -16 29 -25l18 -39l-7 -71l1 -96l-43 -125l-8 -50l-30 -41l6 -22l-21 -25l-18 -50l-48 -67l-62 -69l-41 -46l-46 -60l-33 -37l-31 -21l-78 -73l-78 -50 l-127 -79l-98 -43l-230 -108l-144 -35l-160 -41l-96 -10l-67 -6l-134 29l-45 4l-15 15q-3 28 -19 28z" />
<glyph unicode="&#xa5;" horiz-adv-x="1349" d="M140 1273l-52 7l33 19l15 9q56 32 76 32l19 -1l70 -5l1 -17l-11 -30l5 -33l49 -69l-9 -14l-29 -10l33 -28q-15 -25 -15 -40q0 -9 12 -30l38 4q28 0 45 -14q16 -14 34 -54l26 -48l-15 -11l31 -30q17 0 23 -3q9 -9 16 -19l15 -19l-13 -19l67 -60l1 -7l-11 -4l32 -43l10 10 l54 -54q10 -46 38 -46q31 0 62 43l53 72l30 35l53 95l46 69l50 141l31 52l13 24l44 -5l3 9q0 13 -34 26q9 28 19 48q8 16 17 21l75 46q34 22 48 22l15 -4q-6 -50 -21 -73l-38 -53l-39 -77l-33 -22l-13 -44l-20 -37l-34 -49l-21 -11q-15 -10 -15 -24l1 -31l-67 -96l-38 -75 l-16 -19l51 -1l121 -4l83 -2l86 3l-68 -111l-28 -1l-33 -7l-57 24l-31 8l-16 -15l-45 2l-61 -1l-42 4q-14 2 -11 2q-12 0 -16 -7l-34 -50l-20 -25l-2 -33l-4 -28l14 1l75 -9l50 -7l128 -5l129 10q0 -41 -8 -70q-7 -26 -30 -52q-21 -2 -28 -6t-15 -21l-18 11l-44 -9 q-10 -2 -13 -2q-7 0 -15 5l-30 28l-33 11q-7 -13 -16 -20q-9 -6 -20 -6q-9 0 -24 5l-58 22l-13 -7l-22 -6v-48q-6 2 -13 2q-14 0 -14 -12v-3l5 -14v-20q2 -5 17 -12l3 -86h-11l-8 -7v-12l20 -9l7 -151l-22 -4l-32 2l-89 -24l-11 -1l-22 1l-10 22l2 14l7 54l8 255l6 38l-27 6 l1 17h-25l-81 -9l-49 -5l-13 2l-131 13l-80 -13l-33 3q22 34 24 74l63 52l9 -18l6 16l21 6l43 3l18 4l35 -10l13 -2l14 1q0 -37 33 -37q14 0 29 21l28 4l80 17l32 -10q0 32 -21 42l13 13q-3 14 -10 21q-8 8 -28 21l-29 25l5 12l-16 24l-25 4l-177 -13l-131 14q-34 0 -75 -15 l-5 22q0 16 28 53l-17 6l20 19l26 14l23 24l29 -20l33 8l25 6l21 -3h20l11 -21l50 -17l-1 21l36 6q-28 19 -28 36l3 37v2q0 32 -55 32l-8 32l-24 17l-37 51l-65 66l-21 25l23 8l-23 21l29 8l-2 25q-58 10 -64 34l-23 68l-19 29q11 15 15 36z" />
<glyph unicode="&#xa7;" horiz-adv-x="2422" d="M2161 1237l-12 55l24 78l9 61l17 18l18 -3l10 19q0 12 -27 31l-2 9l15 70v63l10 31l4 49q5 29 28 61q24 32 48 42l29 10l43 39l11 1h16l6 -18l-9 -43l-4 -55l-8 -29l-21 -84l-19 -22l1 -47l-21 -82v-10v-14l-27 -30v-57l-9 -24q-42 0 -49 -22q0 -32 32 -61l-10 -23 l-27 -58q-13 -29 -17 -51q-6 -24 -18 -84q-13 -63 -48 -107l5 -10l-10 -45l3 -20q-2 -16 -26 -30l-5 -40l-19 -61l-43 -200l-15 -30l-8 -21l-20 -9l-9 -36l18 -46l-14 -58l7 -30l-16 -40l-25 -79l-10 -29l-4 -67l-17 -63l6 -30q-27 -24 -33 -32q-5 -7 -5 -17l19 -55l-11 -41 l4 -125l-2 -16l-22 -9l-66 -45h-11l-9 16l-51 132l-36 72l-1 24l-7 58l12 20q-29 9 -42 31t-25 86l-10 55l-13 123l-7 21l-23 15l-20 93l-26 79l-17 80l-45 119l-10 28l2 17l-8 41l19 36l-7 17l-24 -10l-13 8l-43 138l-8 38l25 44l-15 8l5 40l-33 -2l-23 -15l-7 4l-7 10 l-31 110l-50 142l-5 29l-30 45l-22 -60l-14 -82l-14 -35l-20 -100l-6 -25l-19 -29l-28 -98l-18 -27l-7 -79l-116 -451l-32 -48l-13 -57l-14 -32l24 -15l-37 -95l-31 -119l-41 -203l-5 -26l3 -15l36 -76l-8 -29l-26 -28l-17 -32l-22 -18l-41 -14l-41 -16l-31 23l-13 133 l-16 65l-7 24l-19 7l-51 166l14 45v21l-38 12l-16 -4l-31 108l-4 26l15 22l-22 -3l-28 70l-18 75l-31 95l18 34l-13 19l-28 17l-11 46l-27 53l-3 26l18 12l-3 76l-23 -8l-25 12l-10 -2l-8 22l-21 90l-28 101l1 67l-45 37l-62 200l-12 45l15 7l2 18l-26 46l-20 47l-16 4 l-6 25l-12 34l-15 66l-43 94v8l18 35l20 3l30 44l88 67l31 9l13 18l21 -56l12 -92l15 -49l1 -47l7 -31q-24 -16 -24 -32q0 -28 36 -34l20 -72l16 3l8 -25l11 -95l17 -48l-21 -41l-10 -20l25 -36q37 -7 37 -46q0 -25 -26 -42l3 -44l15 4l30 -13l9 -20l22 -40l14 -57l43 -130 l11 -51l11 -33l11 -25l-9 -23l27 -50l50 -144l4 -72l6 -33l18 4l15 -12l23 -110l36 -86l12 -59l7 -28q21 -3 27 -9q6 -8 12 -38l37 95l9 68l39 115l29 113l32 71l49 190l29 59l-2 29l6 25l26 119l50 121l18 100l42 131q13 40 13 79l1 20l-9 44l26 119l-3 41q2 25 26 52 l18 29l-23 26l30 81l60 48l42 35l23 10l38 -28l19 -14l-16 -81l21 -66l28 -125l-21 -17l7 -32l60 -77l16 -44l12 -66l23 -53l13 -90l24 -51l-3 -14l10 -52v-22l21 -35l30 -99l7 -24l-15 -9l20 -92h22l9 -24l15 -21l18 -66l27 -83l2 -26l-1 -24q44 -61 44 -108q0 -27 -15 -77 l30 -30l21 6l15 -17q3 -48 10 -67q7 -24 31 -68l14 17l25 41l-8 28l23 25l24 94l-3 29l17 67l3 27l20 25l13 49l31 94l15 90q11 65 39 116l19 31l57 256q26 64 26 90z" />
<glyph unicode="&#xa8;" horiz-adv-x="1030" d="M630 1174l2 11l122 94l22 -17l70 -41q47 -26 47 -57q0 -24 -30 -47l-56 -46l-17 -18l-28 14l-27 30l-38 32l-24 29q-11 8 -43 16zM176 1149l-39 10l4 25l20 13l44 34l22 26l28 23l13 -12l22 -14l63 -30q30 -18 42 -55l-13 -21l-12 -35l-53 -47l-18 -19l-25 11z" />
<glyph unicode="&#xa9;" horiz-adv-x="1721" d="M981 -71l23 65l16 65l37 118l7 30q16 68 32 97q13 27 44 39l7 25l-6 21l8 24l66 223l61 128l-1 16l16 36l14 51l5 32l40 144q10 44 22 61q11 14 42 20l-9 15l5 17q0 14 -23 37l17 38l19 64l56 131l17 75l11 39l-8 37l16 49l20 -8l5 12l-9 16l7 33l10 72l15 36q44 5 61 13 q17 7 52 39l25 7l8 -5l2 -9l17 -11l-12 -34l-21 -30l-13 -51l-30 -97l-30 -74l-19 -50l-27 -93l-25 -59l-17 -26l-46 -173l-23 -29q-12 -18 -20 -63l-29 -124l-28 -79l-22 -51l-22 -25l-20 -65l-20 -26l18 -20l-32 -72l-44 -166l-88 -247q-12 -63 -24 -86q-12 -22 -37 -28 l1 -38l21 4l2 -19l-20 -61l-16 -51l-20 -129l-10 -53l-6 -26l-13 5l-14 -10l2 -16q0 -19 -18 -26l-41 -13l-49 -24l-20 4l-10 30l-21 81l-44 103l-30 99l-24 41l-25 23l-7 41l-49 106l-36 67l-9 22l20 14l16 39q-17 3 -24 8t-11 21l-7 25l-35 -19l-17 6l-3 37l-68 174 l-10 65l-35 23l-13 43l-41 88l-16 66l2 40l-10 23l-25 -9l-24 33l-15 47l-46 94l-5 31l1 23q-31 23 -44 43q-12 18 -29 69l-10 29l23 4l7 28l-10 16l-19 6l-24 29l-9 2l-16 -2l-12 19l-23 39l-27 68l-13 25l-6 33l-13 18l-47 93l-41 83l13 33l22 2l19 13l50 39l69 41l30 9 l10 -23l31 -72q22 -48 22 -67l-5 -49h-20l-20 -44l51 4l3 -23l33 -53l7 -24l11 -2l18 -49l19 -41l23 -69l10 -23l-17 -30l24 -37l12 -21l19 1l20 -48l19 -65l72 -152l12 -46v-15l-10 -3l-1 -15l-11 -6l8 -16l31 -4l2 15h17l6 -18l13 -37l40 -74l30 -79l33 -66q21 -46 21 -56 q0 -24 -25 -49q7 -29 15 -37t29 -8l17 -20l26 -35l12 -49l24 -45l19 -46l31 -47l42 -102l47 -59l26 -51l-23 -19q13 -15 19 -17q5 -4 24 -4z" />
<glyph unicode="&#xaa;" horiz-adv-x="1247" d="M1011 1436l10 57q0 30 -25 77l-23 15l-53 38l-48 23l-100 34l-34 19q0 28 -23 39l-11 -6l-24 2l-36 -23l-57 15l-74 4l-41 13l-31 4l-39 -2l-14 -200q-44 -26 -44 -55v-3l2 -20q22 8 34 8q28 0 28 -20q0 -16 -1 -21l-4 -37l-28 -58l9 -17l19 -20q8 -10 8 -60l3 -441 l27 19l79 35l26 25l35 22l37 48l45 21l39 33l22 29l44 36l103 131l35 26q35 32 47 95l16 24q18 28 22 32q6 6 24 10l8 11zM294 687l16 31q0 13 -19 25q-9 -19 -29 -21q-13 29 -13 67q0 73 37 137l-11 26q-25 0 -25 19q0 18 6 45l5 34l-2 76l-2 73l-4 48l-10 37l7 39l-33 108 l5 164l-39 91l-4 29l1 27l-11 4l-19 -13l-13 31v14l22 8l62 41l41 8l66 46l24 5q20 -30 37 -30l63 37l27 -5l50 -10l93 -29l67 -7l117 -29l23 -4l25 -31l20 -3l50 11l59 -22l19 -38l12 -4l44 4l34 -13l25 -7l45 -43l41 -36l8 -60l5 -36l-18 -27l-2 -23q-16 -10 -21 -17 q-6 -7 -17 -36l-10 -22l-38 -3l2 -29l1 -25l-4 -19l-24 -25l-52 -73q-16 -22 -70 -42l-31 -68l-16 -14l-53 -55l-48 -25l-37 -47l-112 -93l-20 -30l-76 -52l-50 -46l-65 -36q-45 -19 -45 -45l1 -27l4 -19q0 -11 -21 -16l3 -23q1 -40 3 -49q2 -10 6 -15q4 -6 19 -16l2 -24 l-10 -210l3 -47l-15 -20l2 -21l5 -38l-3 -28l13 -10l-1 -118l-40 -16q0 -29 9 -36q9 -9 37 -9l1 -36l-3 -58l10 -51l-17 -25q23 -41 23 -57q0 -33 -52 -52l-38 -16l-23 -18l-59 -19l-34 -12q-9 0 -16 10q-8 10 -8 20q0 23 30 38l-18 20l3 20l13 166l8 35l7 22l-16 25l17 39 l10 148l1 99q0 15 5 20q4 4 20 4l2 20q-4 15 -9 21q-6 6 -19 9l-19 33l1 27l10 100l-9 62l-7 57l13 54l10 25l24 3z" />
<glyph unicode="&#xab;" horiz-adv-x="1047" d="M52 359l16 23l6 14l14 13l125 83l56 31l58 45l17 13l5 20l13 14l45 59l32 14l59 29h1l26 -4l22 -5l-18 -25l-56 -65l-14 -21l-58 -29l-61 -52l-39 -26l-21 -11l-4 -29l6 -27q27 0 37 -16q-7 -15 -7 -23l4 -15l28 -15l28 -52l42 -25l37 -40l28 -21l8 -25l6 -20h17 q38 20 49 20l14 -1q0 -48 -15 -62l-17 -16l-23 -22l-54 -16l-27 -14l-29 7h-16l1 25l-8 16l-29 42q-50 74 -63 74l-17 -3l-22 23q-22 25 -44 47q-8 8 -26 17q-14 7 -50 18l-35 43q-24 -11 -35 -11q-3 0 -4 1h-8zM422 365l16 23l6 14l14 13l125 83l56 31l58 45l17 13l5 20 l13 14l45 59l32 14l59 29h1l26 -4l22 -5l-18 -25l-56 -65l-14 -21l-58 -29l-61 -52l-39 -26l-21 -11l-4 -29l6 -27q27 0 37 -16q-7 -15 -7 -23l4 -15l28 -15l28 -52l42 -25l37 -40l28 -21l8 -25l6 -20h17q38 20 49 20l14 -1q0 -48 -15 -62l-17 -16l-23 -22l-54 -16l-27 -14 l-29 7h-16l1 25l-8 16l-29 42q-50 74 -63 74l-17 -3l-22 23q-22 25 -44 47q-8 8 -26 17q-14 7 -50 18l-35 43q-24 -11 -35 -11q-3 0 -4 1h-8z" />
<glyph unicode="&#xac;" horiz-adv-x="1348" d="M1612 -414l-34 -2l-73 6l-90 -5l-90 11l-101 3l-67 1l-139 15l-78 16l-117 -4l-80 12l-49 -4l-45 9l-92 8l-145 18l-66 -7l-106 9l-27 1l-37 -5l-44 -10l-22 15l-14 25l8 17q47 16 52 34l13 54l13 35l-14 30q23 48 29 87q6 40 6 148l-13 7l11 76l-2 57l-2 35q35 14 40 20 q6 6 7 33l3 25q-40 4 -40 49l6 53v74l8 28l21 3l7 27l-5 24l-38 -1l-10 27q0 13 31 43l-15 1l-14 26l1 25l12 47l-9 143l5 116l-6 52q0 18 31 37l18 11l3 20l-7 26h-27l-5 9h-13l-6 44l-4 133l-18 89l34 29l6 18l-5 9l-33 24l-14 39l16 65l-19 9l-7 14l11 55l-21 45l-6 20 h-23l-12 21l30 33l22 7l6 -2l85 40l90 21l16 -1l11 8l18 -46l-1 -11l-3 -92q0 -25 -1 -34q-2 -22 -2 -21q-2 -8 -5 -11l-4 -6q-2 -3 -5 -6l-20 4l-64 -28l36 -26l15 5l7 -14l41 -11l1 -213l-10 -4l-3 -10l16 -62l-2 -33l-4 -89l-7 -39h-21v-57q14 -4 21 -13q6 -7 6 -25 l-8 -58h-18l-10 -29l9 -27l20 -7l9 -26l-7 -96l3 -145l-11 -58l4 -53l1 -100l2 -32l-17 3l-12 -26l12 -24l12 -18l12 -5l-1 -23l-7 -171l3 -32l10 -60l-29 -63l15 -128l-10 -60l-6 -29l15 -12l25 3l25 7l39 -13l75 -8l14 -15l57 -11l-13 -21l37 -13l40 5l11 -4l4 11l40 5 l56 -19l52 5l54 -6l95 -21l51 -3l31 -7l40 7l42 -11l59 -4l30 -6l8 -22l57 12l22 13l65 -9l186 -8l28 -4v-23l5 -5l29 16q15 0 30 -28l25 5l26 27l8 4l15 -2l51 -11l176 -6l45 -14l50 2l30 -14l2 18l12 5l23 3l45 11l348 26l64 18l30 -17l29 3l150 52l56 8q32 6 45 25l14 21 l74 40l35 22q9 0 16 -10t7 -23q0 -21 -14 -44l-26 -41l-7 -39l-35 -28l-26 -18l-51 -7l-119 -32l-74 1l-66 -11l-44 -8l-148 -15l-211 -5l-134 -5l-70 4l-72 8q-12 0 -32 -11l-34 3l-18 2l-27 1l-52 -2l-22 11l-28 -3l-20 -2l-16 2l-26 12l-22 3z" />
<glyph unicode="&#xad;" horiz-adv-x="942" d="M374 519h13q3 -41 30 -41q15 0 29 29q21 0 37 12l30 -12l112 -4l86 -15l85 23l24 -5l38 45l15 -19l-13 -23l-9 -22l-36 -34l-17 -19l-30 -15l-62 -46q-17 -11 -35 -11t-27 4l-31 10l-13 3l-44 -6l-19 -3l-27 6q-48 13 -73 13h-4l-76 -4h-2l-64 16l-17 7q-18 0 -24 -2 l-36 -8l-13 5l-20 -19q-22 8 -33 8q-20 0 -44 -31q-36 2 -36 21q0 26 39 54l73 56l50 29l61 5l39 6l31 -12z" />
<glyph unicode="&#xae;" horiz-adv-x="1944" d="M943 -411l-15 14l10 29l-10 51l18 110v126l25 19l3 38q51 4 51 26l-13 15l-19 -6l-8 8v11q-28 7 -30 22l2 43l1 81l3 25l29 30l-8 14l-16 -7l-12 20l-3 84l2 42l1 36l2 11l-1 13q0 59 -12 81q-11 21 -53 41q-1 33 -41 92l-12 18l13 34l-17 36l-45 8l-22 -9l-16 11l-22 40 l-31 43l-18 45l-38 14l-10 14q-18 20 -18 49l-16 -12l-11 6l-18 27l-30 37l-15 31l-82 113l-6 26l-19 34l-6 25l-29 5l-32 34l-39 57l-32 36l-6 54l-47 29l-17 37l-25 22l-40 54l-28 29l-7 22l15 21q10 13 10 31l-33 12l-32 -11l-24 22l-37 55l2 13l56 31l28 36l38 21l1 9 l57 36l30 -16l20 -27l-10 -21l23 -30l8 -22l47 -65l9 -40l-2 -28l29 -19q30 -19 56 -82l-20 -37l25 -23l9 9h17l24 -49l28 -9l10 -19l26 -38l37 -65l54 -72l2 -15l-3 -12l-14 -22l22 -18l24 -13l20 9l40 -71l39 -13l32 -43l38 -42l71 -103l51 -26l46 -49l32 -46l22 -22 l-6 -20q16 -10 25 -10q11 0 39 24l25 19l37 39l7 21l24 23l29 53l106 121l17 44l66 86l57 107l53 76l28 65l60 89l4 44l33 60l33 37l59 147l13 16h14l7 -7v18l34 15l18 -4l-6 -15q28 22 45 29q15 7 58 18l26 7l1 -52l-26 -17l-102 -140l-29 -23l-8 -13l-17 -31l7 -21 l-19 -21l-74 -104l-20 -24l-48 -76l-46 -40l-22 -19q15 -15 15 -25q0 -32 -47 -52l-29 -43q-1 -37 -18 -75l-74 -119l-71 -71l-18 -28q-24 0 -29 -4t-25 -36l6 -40q-39 -27 -62 -62l-29 -52l-1 -106l-7 -123l1 -15q-19 -9 -27 -17q-10 -12 -22 -37l25 -27l23 -19l5 -47 l-1 -40l-10 -40l13 -47l-13 -94l-8 -44l6 -28l1 -55l20 -29l-5 -102l8 -88l-14 -36l-22 2l-50 -33l-31 -5l-42 -22l-47 -34z" />
<glyph unicode="&#xaf;" horiz-adv-x="2142" d="M1812 1333l-13 81l14 46l-24 31l-6 103l-14 57l22 28v17q-37 19 -37 35q0 14 17 25l67 36l62 45q21 0 34 -19t13 -48l-1 -23l-23 -127l6 -188l-18 -109l1 -21h12l1 -9l-4 -203l3 -50l-18 -3l-7 -28l16 -60l9 -2l2 -11l-10 -55l7 -115l-13 -215l24 -149l-12 -32l-19 -1 v-25l3 -17q23 -20 23 -46l-3 -50v-30q0 -31 7 -51l11 -29l-7 -104l7 -54l-2 -57l12 -57l-14 -68l10 -65q-4 -24 -46 -60q-35 -31 -95 -37l-1 28v18q0 19 -15 36l-59 -21l-14 5l-22 42l-44 75q-29 50 -29 58l5 23l-30 23l-35 18l-32 63l-57 75l8 29l-27 39l-38 31l-19 26 l-28 38q17 17 17 27l-3 10l-20 -1l-9 24l-20 19l-11 20q-33 3 -41 14q-10 11 -17 62l-24 6l-46 78l-64 74l-36 42l4 17q29 14 45 38q-16 10 -24 10q-12 0 -35 -15l-35 28l-21 29l-50 45l-22 40l-50 63l-29 70l-17 10l-20 -5l-14 17l-52 78l-20 12l-58 77l-65 83l-3 11l12 12 l16 -2q-18 32 -29 40q-14 11 -38 17l-4 -16l-20 21q-20 20 -20 42l-18 15l-55 47l-54 57q-12 15 -23 25l-11 10q-3 3 -25 10l-5 -50l1 -107l-19 -90q-2 -56 -2 -48q-1 -3 -1 -5.5t-1 -4.5q-2 -6 -9 -17l-11 -21l15 -16l9 -33l9 -17l2 -114l6 -78l-4 -25l-8 -21l-21 -3 q12 -23 14 -47l2 -24l23 -17l-4 -48l6 -137v-18q0 -20 -8 -41l-27 1l-8 -12l9 -26l4 -28l12 -21l1 -123l6 -25l-7 -22l-19 -2l-3 -81l18 4q21 0 22 -52l2 -115l23 -252q-5 -28 -22 -49l-29 7l-22 -14l-87 -56l-35 -17l-5 36l23 157v72q2 29 9 44l18 32l4 20l-4 29l-18 88 l3 32l-3 54l8 14l10 21q-30 9 -30 23l20 121l-21 285l28 33l-11 23l3 53l-16 45l2 44l-4 42l7 119v15l16 55l-44 28l-2 33l2 25l-2 68q18 14 20 34q37 7 37 38q0 22 -18 59l-25 -16l-10 3l-2 12l2 44l-11 22l3 116l-10 68l-1 30q-20 0 -28 8t-8 25q0 15 13 27q25 7 30 17 l11 18q6 10 34 34q30 27 58 48l64 38l7 -36h37l-1 -25q0 -14 6 -25q5 -9 26 -33q-8 -30 -8 -40q0 -14 8 -20t24 -6l39 -28l7 -19l10 -27l41 -52l13 -18l18 4l15 -8l89 -134l75 -89l10 -35l159 -212l3 -14l-11 -18l19 -31l14 -23l39 -20l12 -18l20 3l15 -20l59 -84l51 -51 l113 -155l17 -28l9 -35l44 -22l34 -39l12 -18l22 -8l11 -14l25 -17l68 -100l86 -94l22 -35l23 -29l-9 -23l16 -26l23 -19l88 -104l61 -55l13 3l-2 26l-5 63l15 205l-9 86l18 34l7 21q-38 47 -38 84l12 46l-15 75l3 85l-9 53l12 61l-7 92l13 31l-9 30l10 46l-2 34l3 115 l-4 133z" />
<glyph unicode="&#xb0;" horiz-adv-x="819" d="M82 1351v-1337h655v1337h-655zM751 0h-683v1365h683v-1365z" />
<glyph unicode="&#xb1;" horiz-adv-x="2176" d="M1504 684l6 32l-7 14l-35 33l-24 40l-33 73l-45 80l-12 39q16 36 16 47q0 18 -23 18l-25 -4l-10 22l-16 16l-6 35l-61 99l-4 16l-26 47l-13 23l-13 69l-12 -7l-13 27l-31 51l-9 39l-19 13l-64 -178l-39 -12q1 -28 20 -43l-29 -82l-67 -137l-8 -34l1 -25l-20 -17l-8 -17 l-24 -46l8 -16l-63 -88l-45 -99l-17 -29l-17 -55l-15 -25h-23l-21 -43l9 -7l-2 -13l-13 -21l-23 -30l-43 -86l-8 -10l-25 -36q107 -45 156 -47h98l63 -15l60 11l37 -9l79 2l48 -8l147 27l45 -11l29 5l28 -2l105 15l43 -18l20 -3l25 16l73 1l21 10l33 3l-8 38l-12 15l-8 22 l4 15l-20 13l-7 19l-30 65l-2 13l3 24l18 -2q-1 37 -10 49q-8 11 -35 11l-7 6l-18 -3l-18 39zM850 1150l10 2q3 0 17 -14l25 46l-22 4l1 9l36 105l3 11l12 -1l12 25l-3 16l20 105l9 88l41 109l-8 78l8 24l34 27l16 20l32 8q7 33 21 47q13 13 55 24q25 -39 46 -94 q20 -57 20 -85l-3 -21l-30 -2l-7 -10l20 -43l2 -22l42 13l12 -3v-15l20 -18l16 -38l40 -80l-2 -21l19 -40l1 -8l-1 -16l-48 -18v-11l23 -10l20 2v-33l23 10l17 -5l9 -18l16 -16l11 -27l14 -24l-1 -33l73 -159l2 -10q0 -15 -18 -15h-10l9 -25h27l7 -14l27 -78l20 -24l50 -113 l31 -38v-19l1 -13l43 -68l24 -50l27 -42l2 -13l-14 -39l20 -9l-5 -24l13 -19l33 -16l22 -16l4 -16l33 -59l37 -54l11 -33l19 -38l4 -23l32 -49l37 -61l14 -39q-35 -11 -35 -30q0 -13 9 -23q8 -11 20 -11l4 1l28 6l18 -6l31 -53l66 -104l6 -33l20 -17v-16l24 -36l-4 -14 l-24 -9l-34 -24l-12 -4l-23 9q-18 -3 -26 -9q-7 -7 -13 -28l-39 -3l-8 -10l-28 15l-18 47l-7 33l-31 56l9 13l-16 5l-13 39l-29 68l-6 44l-25 31l-23 21v43l19 -2l5 25q0 23 -29 23l-22 -2l-16 29l-13 16l-13 27l-17 42q-12 1 -19 5q-7 3 -8 10q-2 6 -4 18l23 -4 q-6 17 -22 21l-9 2l-52 -10l-32 14l-17 16l-31 14l-55 -14l-56 -10l-112 10l-39 -10h-160l-117 -15l-122 -4l-56 -6l-73 -2l-70 -12l-15 -1q-20 0 -33 7q-14 6 -30 25h-14l-44 -10l11 -13l-49 -14l-31 6l-15 1q-50 0 -107 -93l-24 -37l-16 -18l-13 -16l-32 -10l-13 -19 l-8 -32l-35 -56q-34 -45 -81 -73l-8 11l-18 -18l-8 -45l-24 -17l-21 -19l-38 -13l-39 -31l-85 -42l-65 -23l-43 -17l-73 -27l-34 -1l-107 -10l-31 -7l-69 20l-116 37l-44 14l-47 27q-60 28 -60 39l10 31l22 17q52 48 62 48q18 0 62 -29l30 -20l-12 -12l18 -19q7 -30 26 -30 l56 22l44 -20q35 -23 51 -23l59 3l72 -10l23 15l110 22l52 25l35 26l51 25l49 40l43 51l100 97l57 70l32 37l64 96l19 22l-5 11q-26 4 -41 10q-10 5 -30 24l-24 -4q2 35 13 42l46 22l33 53l40 12l40 -16l24 25l10 12q30 38 35 49q7 15 8 40q25 10 49 33l-1 8l12 26l-5 18 l43 86l80 165l39 55l26 64q23 35 23 45l-3 10l11 12l-9 16q24 20 35 42q9 21 18 78z" />
<glyph unicode="&#xb2;" horiz-adv-x="1038" d="M0 2v11l18 10l25 23q14 11 34 11h8q17 41 30 54q14 12 42 12q10 21 36 31q-12 15 -12 25q0 8 4 11l56 49l40 48l26 29l25 45l77 80l16 35l26 40l33 90l133 200q20 42 23 67l15 101l3 18q-8 10 -23 35q-7 10 -13 38q-38 25 -57 55l7 18q-16 26 -42 27l-3 -26l-25 11 q-85 35 -122 46q-33 9 -68 9q-57 0 -83 -21l-60 -45l-23 -11l-49 26q4 17 8 28q1 4 20 28l13 21l12 -1q7 0 9 2l11 12l67 33l25 24q35 27 126 27q50 0 91 -10q16 -31 29 -31q11 2 24 21q13 -3 20 -8q5 -6 6 -21q13 -7 22 -7q8 0 25 11l26 -10q51 -18 56 -26l14 -23l53 -31 q13 -7 28 -24q14 -15 26 -36l12 -26l-2 -51l8 -31l1 -8q0 -30 -33 -44l-2 -16l-9 -6q11 -19 11 -28q0 -12 -9 -29l-141 -204l-57 -103l-13 -9l-31 -53l-138 -186l-45 -64l-26 -46q-4 -15 -11 -22q-4 -5 -26 -17q-5 -12 -5 -17q0 -6 7 -17l12 -1l81 4l86 -19l21 -1q25 0 65 9 l16 -12l40 -2l94 4l12 -2l19 -8l22 -1l60 6l23 -11l34 4l79 -3q25 0 69 41l34 -8v-6v-20q0 -12 -3 -17l-32 -50l-14 -26l-51 -15l-50 -39q-15 -9 -31 -9q-27 0 -59 12q-43 17 -64 17h-1l-66 -5l-115 13l-135 -6l-23 2l-18 22l-11 -10l-24 5l-3 -16l-92 -1l-5 26l-8 8l-23 -1 l-6 -30l-46 -4l-36 -12q-31 -11 -68 -11q-81 0 -82 19z" />
<glyph unicode="&#xb3;" horiz-adv-x="975" d="M517 1307l25 8l23 -6l16 12q41 27 53 27q15 0 15 -14q0 -46 -21 -102q-23 -57 -53 -90l-26 -30l-118 -175l-21 -27h12l12 -2l18 -7l65 2l27 -9l69 -2l50 -28l52 -9l29 -18l59 -25l30 -17l15 -24q43 -64 43 -75q0 -19 -33 -45q20 -14 23 -24q12 -36 12 -96l-5 -42l-9 -35 v-32q0 -20 -19 -59l-17 -23l-17 -8l-94 -186l-38 -33l-24 -46l-48 -42q-20 -16 -31 -33q-10 -16 -18 -41l-28 -23l-42 -22l-17 -21l-35 -19l-74 -62q-25 -18 -39 -21l-41 -9l-26 -37q-9 -9 -64 -32l-34 -17l-18 7q-30 14 -55 14l-14 -1q-19 18 -19 31q0 21 17 26l68 21 l27 15l26 1l60 30l46 9l66 41l72 46l25 31l12 -5q10 0 26 16l-5 18l96 95l-2 14l-8 3l10 19l70 109q40 61 40 124l-1 20q16 22 22 51l-13 14q-3 5 -3 8l8 38l-15 40l-12 44q-1 3 -13 22q14 25 14 33t-15 20l9 9l-12 30l-14 -4l7 15l-18 10q-19 -9 -27 -30q-50 45 -81 58 l-12 45h-10l-15 -19l-14 2l-8 -16q-45 14 -65 14q-15 0 -41 -9q-7 12 -18 13l-32 -3h-35l-101 -69l-28 -7l-58 -18l-20 1v17l13 18l17 37l45 18l33 48l65 38q15 11 19 27l10 33l22 23l5 22l11 20l-10 11l8 20l53 66l16 48l21 43q5 18 5 30q0 27 -55 27q-20 0 -47 -3l-123 14 l-41 4l-41 5h-2q-12 0 -27 -9q-47 -28 -63 -28q-26 0 -26 23q0 21 22 33l77 40l68 46l57 -14l121 4l31 -13l73 5z" />
<glyph unicode="&#xb4;" horiz-adv-x="565" d="M140 1020l-3 20q18 63 35 93l39 65q27 44 27 53l-5 35l-15 11l20 38l46 2l108 17h6q13 0 30 -14l-11 -16l-55 -93l-37 -42l-24 -25l4 -11l-12 -24l-41 -60l-39 -34l-12 -20h-6v5h-55z" />
<glyph unicode="&#xb5;" horiz-adv-x="2362" d="M360 285l23 -80l-10 -74l14 -15l21 10l11 -2l21 -36l48 -109l44 -32l116 -116q45 -14 49 -17q7 -4 15 -20l11 5l75 -38q24 -12 88 -23q59 -10 97 -10l24 1q20 -19 39 -23q18 -6 54 -6l16 2l27 13l47 -6l165 9h118l29 3l13 20l35 3l84 10l67 13l45 -14l37 38l36 -3l73 14 l73 10l67 21l21 6l-5 10l16 51l-3 43l5 66l-9 110l13 54l5 33l-3 25l-16 56l-2 135l-2 31l20 56l-28 23q-9 83 -47 88l-42 5l-20 6l-33 -8h-80l-32 -2l-33 8l-27 -9q-18 2 -18 19q0 16 25 34l52 30l29 -2h43l78 -19l35 17l35 -4l25 -3l23 1l38 2l36 -5l70 13q36 -3 36 -46 l-12 -73l6 -21l-4 -62l6 -75v-26l1 -27v-2l-16 -74l-6 -23h-26l-10 -30l-9 -40l19 -28l28 24q8 20 18 20q11 0 11 -13l-3 -18l-4 -28l2 -32l1 -31q0 -26 -7 -36q-8 -11 -29 -15l23 -42l21 2l5 -60l11 -93l-7 -38v-23l-28 -1l-31 -33h-84l-114 -22l-48 5l-6 -12l-167 -28 l-10 9l-30 -5l-53 -21l-88 -4l-35 -11l-90 -10l-63 -18l-78 -8l-99 -17l-49 -3l-35 -5l-25 20l-68 -3l-22 -17l-30 1l-57 -3l-82 6l-41 2l-38 -1l-26 30l-48 9v-13l-9 -9q-101 26 -128 51l-51 48l-35 32l-24 44h-32l-45 24l-54 66l-40 42l8 60l-34 36l-23 -6l-12 23l-18 31 l-30 93l-37 102l-3 75l-9 52l-11 138l-2 20q0 31 39 35l7 24l-15 49q-11 -7 -18 -7q-11 0 -11 14l5 28l4 49l13 49l19 88l32 75l24 -4l12 2q18 0 18 43q-37 1 -37 23q0 19 24 56l30 51l38 59l44 52l32 53l15 21l27 -11l34 21l-6 23l16 31l68 67l17 20l49 34l27 28l30 20 l10 16l100 62l30 28l67 29l12 -20q23 8 32 18q9 9 10 28l78 39l80 35l63 19l38 1l211 56l76 4h22l26 8l14 9l114 -10l33 6l82 -3l127 -8l26 -7l52 -5l19 -14l13 12l38 -9l3 -15l-17 -18l-18 -10l-98 -60l-13 -4l-58 15l-96 16l-45 16l-21 18l-7 3l-37 -19l-26 1l-92 8 l-51 -10h-62l-67 -25l-47 18q-21 0 -53 -30l-28 -1l-45 -5l-8 -26q-71 -17 -117 -41q-54 -28 -135 -89l-18 -14l-29 5l-15 -7l-13 -28l-30 -29l-23 -20l-24 -3l-53 -61l-28 10l-3 -30l-45 -58l-35 -38l-55 -88l-27 -38q-19 0 -27 -6q-8 -8 -18 -34l-12 7l-10 -14l12 4l5 -6 l-1 -23l-18 -30l-44 -110l-20 -27l2 -76l-33 -97l-4 -36q-16 -3 -24 -9q-10 -8 -16 -19l18 -17l22 -40l-5 -22l-6 -35l6 -61l-32 -58q0 -15 17 -32l23 4l4 -29l12 -55l-26 -30q3 -20 29 -20z" />
<glyph unicode="&#xb6;" horiz-adv-x="1632" d="M-40 1670l-11 28l1 18l24 6l8 24l23 20l25 22l34 16l44 50l18 3l44 -26l-2 -19l15 -60l29 -49l20 -19l9 -28l27 -48l7 -23l-7 -26l-4 -15l12 -22q30 -2 58 -22q28 -21 36 -47l10 -31l8 -20q32 -23 32 -39q0 -3 -6 -17l11 1l8 11l15 -24l48 -83l25 -31l53 -68l-7 -35 q0 -22 28 -22l15 1l24 -34l51 -77l-22 -9l-4 -33l25 -40l23 -15l9 4v25l17 2l16 -15l30 -50l38 -37l33 -31l76 111l20 6l9 20l17 16l12 18l-3 12q3 14 35 62l27 39l44 90l80 129h16l51 89l-17 8l3 18l70 141l37 84l50 75l16 -6l11 18l37 83q19 40 25 47q8 9 15 9l36 4l72 21 l30 -9l-9 -21l-87 -127l-17 -40l-48 -63l-12 3l-9 -14l2 -10q0 -26 -36 -88l-83 -141l-44 -47l-6 -31l-30 -34l-23 -61l-29 -34l-42 -83q-13 -18 -38 -18l-12 -18l-5 -32l-56 -82l-6 -24q-14 -6 -19 -14q-5 -6 -16 -39l-27 -39l-31 -28l-17 -48l-29 -60l37 -38h20l14 -16 l50 -92l57 -47l12 -19l41 -49l66 -134l44 -53l6 -26l-12 -4l1 -21v-11l9 -19l23 4l22 -4q11 15 18 15q15 0 52 -60l105 -112l3 -24l13 -44l40 -21l72 -67l67 -48l15 -33l42 -16l24 -25l-13 -18l-88 -61l-17 -14l-36 -18l-42 -33l-48 17l-12 23l-54 88l-35 37l-43 55l-72 62 l-12 15l12 25l-2 11l-20 11l-16 15l-31 13l-108 164l-34 24l-16 37l-94 144l-19 97l-16 21l-38 -23l-10 2l-73 118l-25 -35l-62 -81l-55 -96l-56 -68l-30 -43l8 -20l-41 -57l-114 -160l-52 -39l-10 -18l-24 -22q-1 -51 -33 -92l-38 -54q-12 -33 -15 -39q-4 -6 -22 -14 q-12 -58 -41 -63l-33 -5l-31 -10q-8 -32 -40 -32q-69 0 -69 35q0 15 11 24l52 45l28 50l220 237l36 60l62 79l10 27l28 35l34 57l48 62l40 39l28 64l57 73l23 40q37 22 49 87l9 31l-58 71l5 19q21 11 22 30l-43 52l-8 -2l1 -24l-13 -4l-25 12l-22 44q-48 20 -73 66l-62 111 l-24 35l-50 45l-33 74l-38 45l-18 43l-24 21l10 65l-23 -9l-2 23l-26 21l-46 -5l-27 42l-176 224l-20 35z" />
<glyph unicode="&#xb7;" horiz-adv-x="516" d="M144 607l-21 7l9 20l24 17q43 28 48 35l25 29l21 13l69 -45l28 -12q28 -13 46 -59l-29 -55l-17 -11q-23 -16 -28 -21q-10 -12 -16 -28q-25 0 -38 11l-97 94z" />
<glyph unicode="&#x2219;" horiz-adv-x="516" d="M144 607l-21 7l9 20l24 17q43 28 48 35l25 29l21 13l69 -45l28 -12q28 -13 46 -59l-29 -55l-17 -11q-23 -16 -28 -21q-10 -12 -16 -28q-25 0 -38 11l-97 94z" />
<glyph unicode="&#xb8;" horiz-adv-x="1489" d="M366 1407l2 -72l23 -7l-4 -108l18 -4l53 2l23 -11l-6 -20l25 3l53 22l41 3l86 13l94 6q37 1 69 23l88 11l11 -3l17 12l46 13l55 23l27 4q33 7 83 51q44 38 53 72l13 45l20 40q3 8 3 15q0 30 -38 65q-36 33 -79 46l-92 29l-25 10l9 13q-22 25 -30 25q-16 0 -32 -19l-17 -1 l-13 1l-39 9l-76 10l-27 29l-26 -4l-30 -14l-15 -3l-82 16l-33 14q-8 26 -28 35l-26 -8l-30 -17l-121 7l-17 -7l-3 -22l-11 -69l-6 -46l3 -21l-12 -20l-14 -43l3 -11l18 2l7 -10q-11 -61 -11 -129zM408 -132l-3 -50l26 -125q0 -21 -74 -41l-16 -34q-4 -7 -47 -21l-61 -20 l-27 -10l-21 45l10 30l14 26q-8 27 -8 49q0 25 8 46t28 58q0 18 -14 37v23l6 59l8 39q17 37 17 47q0 14 -31 45l8 27v123l11 61l-5 13l-4 27q32 23 32 36l-9 26l3 24l-17 14l2 47l-2 22l-5 58l3 14l23 41l2 23l-16 24l7 37l-1 61l6 50q0 36 -33 58l6 74l-16 133l10 29l1 16 l-5 95q-6 84 -8 101q-3 11 -15 21l-10 70l24 16l-8 52l-15 3v9q35 9 35 30l-43 72q-9 14 -9 36q0 27 11 62q-13 8 -17 15q-7 7 -11 18q14 23 14 33q0 24 -24 25l-27 1l-25 21l21 29l91 35l27 21l30 10l38 17l21 4q29 0 29 -35q78 30 130 30l27 -2l132 -21l81 -6l80 -19 l39 -2q13 -27 23 -37q9 -9 22 -9l15 6l27 26l83 -31l207 -36q66 -32 79 -32l14 4q19 -17 32 -22q13 -6 35 -7l11 -23l47 -35q18 -13 18 -34q0 -17 -9 -40l-33 -101q-4 -16 -21 -19l-3 14l-24 -12l-19 -16q-5 -4 -32 -4l-11 -30l22 -20l-19 -18l-43 -37l-43 -13l-58 -49 l-36 -6l-81 -38l-41 -7l-58 -16h-37l-25 -1q-12 -27 -32 -29l-84 -18l-40 7l-46 -17l-96 -6l-76 -29l-88 -11l-43 -15q26 -11 26 -26l-5 -89l-2 -98l-13 -28l-12 3l3 -26l10 -54l2 -110l12 -39l-4 -299l5 -69q0 -17 -7 -23q-7 -7 -24 -7l-5 -21l5 -26q6 3 11 3q23 0 23 -23 l-6 -65l-1 -41l-31 -26l16 -51l31 -10l1 -24z" />
<glyph unicode="&#xb9;" horiz-adv-x="516" d="M349 1301v-28v-8v-52l-2 -33l-19 -64l12 -74l3 -31q-32 -5 -32 -33q0 -15 7 -22q8 -8 28 -18l-7 -43l-16 -12l1 -51l3 -32q0 -6 -1 -7l-9 -64l24 -61l-11 -72l13 -71l-6 -17l-3 -20l-12 -17l14 -47v-33l5 -55l-7 -21l-2 -21l-20 -24l-3 -14v-14l16 -21q18 -19 18 -47 l-2 -50l-6 -38l7 -45q-28 -28 -74 -46q-45 -19 -82 -19q-26 0 -26 54v3l5 55l22 15q-14 33 -16 62q17 12 19 33l-14 18l2 31l2 48l19 26q11 17 11 30q0 2 -2 10l-17 43l2 24l-1 7q0 13 7 17l24 22q5 5 5 10l-4 18l-23 55l3 96l-18 30q-10 16 -10 36l9 168l11 93l-2 47 q0 40 -11 79l-116 -3q-9 11 -9 19q0 26 10 30l107 57l81 74q37 26 63 26q12 0 30 -8z" />
<glyph unicode="&#xba;" horiz-adv-x="1589" d="M1209 1352l-13 53l17 98l-17 33l6 60l12 5l-17 17l9 37l-4 22l-13 33l-2 22q-22 6 -30 12t-18 20h-16q0 32 12 36l63 25l101 74q35 24 57 24q19 0 35 -12q16 -13 16 -27l-8 -70l-7 -88l-24 -61q15 -9 19 -25q4 -15 4 -68l1 -102q0 -29 -34 -39l-5 -25l8 -9l17 4l6 -16 l-3 -39l5 -31l-25 -38q-7 -13 -7 -25q0 -14 16 -33q27 0 27 -49l-2 -48l6 -117v-42l-19 -64l6 -22l17 -33l1 -55l8 -37l10 -166l1 -61l-7 -31l-2 -17l1 -18q-24 -19 -29 -27q-7 -10 -7 -22q0 -16 14 -41l14 11l12 -40l3 -16l-18 -71l-5 -24q-4 -15 -22 -15l-23 2l8 -62 q0 -20 -7 -30l-20 -33l-25 -45l-39 -35l-25 -41l-18 -17l-140 -133q-48 -44 -111 -72l-254 -115l-40 -23l-68 -13l-27 -2l-53 -24l-18 -2l-160 -34l-58 -7l-46 6l-61 15l-21 4l-32 18l-23 13l-20 20l-20 13l-13 29l-5 27l-5 22q23 5 23 17q0 26 -54 52l1 28l-9 46v66l-2 19 q0 15 33 23q21 -18 31 -51l19 -50l-12 -24l1 -16l17 -15l34 -50l38 -42l44 -42l28 -7l17 -13q18 -15 48 -15h105l49 -7l39 7q6 16 13 21q6 4 23 9l46 13l19 4l39 -9l17 2l23 13l16 19l36 19l27 15l35 3l24 10l-10 27l24 9l31 10l50 25l42 17q37 16 86 64q31 31 64 39l12 49 l32 46l51 127l27 60l13 43l-5 36l9 73l-1 41l5 31l-14 16l1 38l3 113l4 26q-13 25 -13 38q0 15 11 28q12 12 39 29l-21 18q-13 9 -14 15q-2 8 -2 30v15l-13 10l-2 71l-5 48l25 84l3 21l-20 13l1 17q0 20 -24 30l1 31l5 153q0 46 -9 71z" />
<glyph unicode="&#xbb;" horiz-adv-x="1047" d="M1003 473l-16 -23l-6 -14l-14 -13l-125 -83l-56 -31l-58 -45l-17 -13l-5 -20l-13 -14l-45 -59l-32 -14l-59 -29h-1l-26 4l-22 5l18 25l56 65l14 21l58 29l61 52l39 26l21 11l4 29l-6 27q-27 0 -37 16q7 15 7 23l-4 15l-28 15l-28 52l-42 25l-37 40l-28 21l-8 25l-6 20 h-17q-38 -20 -49 -20l-14 1q0 48 15 62l17 16l23 22l54 16l27 14l29 -7h16l-1 -25l8 -16l29 -42q50 -74 63 -74l17 3l22 -23q22 -25 44 -47q8 -8 26 -17q14 -7 50 -18l35 -43q24 11 35 11q3 0 4 -1h8zM637 465l-16 -23l-6 -14l-14 -13l-125 -83l-56 -31l-58 -45l-17 -13 l-5 -20l-13 -14l-45 -59l-32 -14l-59 -29h-1l-26 4l-22 5l18 25l56 65l14 21l58 29l61 52l39 26l21 11l4 29l-6 27q-27 0 -37 16q7 15 7 23l-4 15l-28 15l-28 52l-42 25l-37 40l-28 21l-8 25l-6 20h-17q-38 -20 -49 -20l-14 1q0 48 15 62l17 16l23 22l54 16l27 14l29 -7h16 l-1 -25l8 -16l29 -42q50 -74 63 -74l17 3l22 -23q22 -25 44 -47q8 -8 26 -17q14 -7 50 -18l35 -43q24 11 35 11q3 0 4 -1h8z" />
<glyph unicode="&#xbf;" horiz-adv-x="987" d="M604 1178l-4 -17l-22 -13l-57 -34l-27 -26l-22 -12l-28 26l-87 66q-6 5 -9 22l-5 23l19 21l14 24l56 37l14 18q26 -8 27 -10l28 -36l39 -36l27 -37q0 -1 1 -2h1zM525 -22l-29 -8q-20 11 -28 11l-29 -9l-127 5q-34 0 -47 13l-35 28q-14 9 -59 18l-22 4q-12 22 -42 68 q-28 40 -28 67q0 26 23 61h18l22 18l-3 23l21 18l36 43l66 53l18 20l18 -7q10 -6 16 -6q8 0 29 21q-16 7 -16 18q0 5 3 8l94 111q8 8 8 20q0 33 -37 69l18 9q-1 29 -25 49q22 37 45 37q1 0 2 -1h3l57 -9q43 -8 47 -23l8 -31l10 -16l3 -16l-1 -8l-17 -12v-15l-2 -15l-33 -31 l-62 -92l-63 -58q-38 -42 -75 -61q-43 -22 -46 -35l-11 -42l-21 -50l8 -25l5 -10q22 -46 34 -55l1 -1q0 -1 1 -2q2 -1 4 -3l12 -17l20 4l98 -37l23 -4l-7 -27l20 -8q10 0 27 14l3 15l16 -2l96 5l49 -3q35 2 110 48q26 15 26 26q0 14 -11 34l-9 19l17 20q36 48 41 49l17 7 l29 21q6 3 12 3l17 -2q25 -3 31 -10q7 -7 7 -31q0 -44 -16 -60l-30 -33l-15 -23l-34 -21l-70 -60l-65 -30l-45 -23l-37 -4l-46 -20z" />
<glyph unicode="&#xc0;" horiz-adv-x="1504" d="M468 1760l-23 39q23 14 34 14l51 -6l66 -3q31 0 50 -8q17 -9 27 -30q-15 -9 -23 -20l9 -21l10 -38l44 -70l11 -32l-9 -8q8 -15 12 -18q4 -4 16 -4l14 -13l-23 -34q-15 -3 -21 -3q-13 0 -37 10l-8 -3q-4 17 -7 20l-27 46q-10 17 -33 31q-13 33 -28 47q-16 15 -49 24 l-13 25l-18 30zM410 552l-7 -24l16 -3l33 -10l28 6l22 -8l4 7l18 2l130 -7l81 5l33 -14q13 13 19 14l69 5l27 4l-5 -12l9 -3q9 0 22 16l26 2q63 4 93 8q23 2 32 6q14 8 31 22l-9 8l6 6l-4 9h-22q-14 20 -18 76l-2 20l-39 10l-47 95h-14l-62 121l10 22l-7 26l-47 24l-71 144 q-9 14 -49 44l-12 -9l-13 -40l-7 -1q-11 -37 -17 -52q-6 -11 -26 -29q-25 -22 -29 -48l-4 -23l-44 -100q-15 -33 -21 -45t-19 -25l-8 -22q-7 -19 -12 -24q-7 -5 -23 -5l-3 -23q-5 -52 -16 -75q-13 -25 -43 -43l18 -29q-13 -2 -17 -6q-5 -5 -10 -22zM-11 -23l38 67l29 35 l21 39l16 21l13 18v8q42 8 42 37v26l31 37l43 94l24 34l29 62l32 63l38 65l42 39q4 4 4 10q0 7 -9 19q20 15 24 20q7 8 15 25l-12 19l13 20l17 46q3 8 23 26l-2 10l47 116l34 93q9 26 44 64l-8 22l6 27q13 42 22 51q6 6 45 14l4 14l-10 31q-2 14 -2 16q0 14 10 21l70 45 l13 30q20 27 55 30l12 -43l14 2l-4 -10l14 -31l28 -38l36 -68l21 -54l26 -45l-26 -9q0 -8 9 -19q37 -21 37 -38l-2 -18l22 -25l25 -45l16 -24l1 -9l-7 -19l4 -20l15 -18l27 -24l35 -69l19 -32l1 -24q37 -34 37 -52q0 -4 -3 -15l20 -20l45 -76q3 -4 6 -8.5t6 -9.5 q3 -7 11 -19q3 -4 6 -9.5t4 -9.5q18 -31 19 -35q3 -12 4 -27q33 -18 33 -39v-4l-5 -44q0 -5 4 -13l41 -20l13 -19l6 -19q3 -11 33 -31v-22l35 -35l31 -55l18 -21q27 -34 27 -55q0 -5 -6 -11l-38 -34l-42 -59h-32l-21 -5l-1 20l-12 24l1 20l-2 19q-13 21 -16 48h-17l-8 23 l-34 69l-8 33l-49 88q-8 21 -8 42v17q-12 6 -19 13q-6 6 -9 11q-36 63 -42 99l-35 15q-10 -45 -36 -45h-4l-104 19l-37 -1l-26 3l-144 -19l-84 5l-45 -13l-34 13l-28 5q-18 -26 -44 -26h-6l-88 7l-33 -9l-42 -2q-26 -8 -51 -68l-18 -40l-11 -2q-18 -52 -30 -75 q-15 -27 -45 -71l-1 -20l-14 -23l-55 -123q-9 -18 -46 -27l3 -16q-19 -3 -35 -3q-24 0 -59 23z" />
<glyph unicode="&#xc1;" horiz-adv-x="1504" d="M713 1479l-3 20q18 63 35 93l39 65q27 44 27 53l-5 35l-15 11l20 38l46 2l108 17h6q13 0 30 -14l-11 -16l-55 -93l-37 -42l-24 -25l4 -11l-12 -24l-41 -60l-39 -34l-12 -20h-6v5h-55zM410 552l-7 -24l16 -3l33 -10l28 6l22 -8l4 7l18 2l130 -7l81 5l33 -14q13 13 19 14 l69 5l27 4l-5 -12l9 -3q9 0 22 16l26 2q63 4 93 8q23 2 32 6q14 8 31 22l-9 8l6 6l-4 9h-22q-14 20 -18 76l-2 20l-39 10l-47 95h-14l-62 121l10 22l-7 26l-47 24l-71 144q-9 14 -49 44l-12 -9l-13 -40l-7 -1q-11 -37 -17 -52q-6 -11 -26 -29q-25 -22 -29 -48l-4 -23 l-44 -100q-15 -33 -21 -45t-19 -25l-8 -22q-7 -19 -12 -24q-7 -5 -23 -5l-3 -23q-5 -52 -16 -75q-13 -25 -43 -43l18 -29q-13 -2 -17 -6q-5 -5 -10 -22zM-11 -23l38 67l29 35l21 39l16 21l13 18v8q42 8 42 37v26l31 37l43 94l24 34l29 62l32 63l38 65l42 39q4 4 4 10 q0 7 -9 19q20 15 24 20q7 8 15 25l-12 19l13 20l17 46q3 8 23 26l-2 10l47 116l34 93q9 26 44 64l-8 22l6 27q13 42 22 51q6 6 45 14l4 14l-10 31q-2 14 -2 16q0 14 10 21l70 45l13 30q20 27 55 30l12 -43l14 2l-4 -10l14 -31l28 -38l36 -68l21 -54l26 -45l-26 -9 q0 -8 9 -19q37 -21 37 -38l-2 -18l22 -25l25 -45l16 -24l1 -9l-7 -19l4 -20l15 -18l27 -24l35 -69l19 -32l1 -24q37 -34 37 -52q0 -4 -3 -15l20 -20l45 -76q3 -4 6 -8.5t6 -9.5q3 -7 11 -19q3 -4 6 -9.5t4 -9.5q18 -31 19 -35q3 -12 4 -27q33 -18 33 -39v-4l-5 -44 q0 -5 4 -13l41 -20l13 -19l6 -19q3 -11 33 -31v-22l35 -35l31 -55l18 -21q27 -34 27 -55q0 -5 -6 -11l-38 -34l-42 -59h-32l-21 -5l-1 20l-12 24l1 20l-2 19q-13 21 -16 48h-17l-8 23l-34 69l-8 33l-49 88q-8 21 -8 42v17q-12 6 -19 13q-6 6 -9 11q-36 63 -42 99l-35 15 q-10 -45 -36 -45h-4l-104 19l-37 -1l-26 3l-144 -19l-84 5l-45 -13l-34 13l-28 5q-18 -26 -44 -26h-6l-88 7l-33 -9l-42 -2q-26 -8 -51 -68l-18 -40l-11 -2q-18 -52 -30 -75q-15 -27 -45 -71l-1 -20l-14 -23l-55 -123q-9 -18 -46 -27l3 -16q-19 -3 -35 -3q-24 0 -59 23z" />
<glyph unicode="&#xc2;" horiz-adv-x="1504" d="M935 1467l-29 43q-22 4 -32 10t-35 31l-18 16q7 13 7 23q0 8 -8 22l-23 1l-16 24q-19 32 -30 43q-10 9 -29 9l-46 -5l1 -13l-19 -18q-50 -47 -59 -68l-14 -30l-23 -28l-17 -24l-31 -20l-31 -30q-13 -12 -41 -22q-27 -10 -46 -10q-10 0 -27 15q26 38 38 45l69 38l27 38 l66 62l11 27l62 64l40 45l107 67l26 26l14 10l26 30q15 0 23 -7q9 -7 9 -19q0 -7 -5 -15l-28 -43q0 -19 24 -46l-9 -7l1 -20l27 -14l26 -9l61 -62l15 -18q-7 -15 -7 -40l65 -24l11 -24q5 -16 5 -18q2 -8 11 -14l71 14l12 -13q-66 -89 -130 -89l-40 11l-1 22q-36 14 -61 14z M410 552l-7 -24l16 -3l33 -10l28 6l22 -8l4 7l18 2l130 -7l81 5l33 -14q13 13 19 14l69 5l27 4l-5 -12l9 -3q9 0 22 16l26 2q63 4 93 8q23 2 32 6q14 8 31 22l-9 8l6 6l-4 9h-22q-14 20 -18 76l-2 20l-39 10l-47 95h-14l-62 121l10 22l-7 26l-47 24l-71 144q-9 14 -49 44 l-12 -9l-13 -40l-7 -1q-11 -37 -17 -52q-6 -11 -26 -29q-25 -22 -29 -48l-4 -23l-44 -100q-15 -33 -21 -45t-19 -25l-8 -22q-7 -19 -12 -24q-7 -5 -23 -5l-3 -23q-5 -52 -16 -75q-13 -25 -43 -43l18 -29q-13 -2 -17 -6q-5 -5 -10 -22zM-11 -23l38 67l29 35l21 39l16 21 l13 18v8q42 8 42 37v26l31 37l43 94l24 34l29 62l32 63l38 65l42 39q4 4 4 10q0 7 -9 19q20 15 24 20q7 8 15 25l-12 19l13 20l17 46q3 8 23 26l-2 10l47 116l34 93q9 26 44 64l-8 22l6 27q13 42 22 51q6 6 45 14l4 14l-10 31q-2 14 -2 16q0 14 10 21l70 45l13 30 q20 27 55 30l12 -43l14 2l-4 -10l14 -31l28 -38l36 -68l21 -54l26 -45l-26 -9q0 -8 9 -19q37 -21 37 -38l-2 -18l22 -25l25 -45l16 -24l1 -9l-7 -19l4 -20l15 -18l27 -24l35 -69l19 -32l1 -24q37 -34 37 -52q0 -4 -3 -15l20 -20l45 -76q3 -4 6 -8.5t6 -9.5q3 -7 11 -19 q3 -4 6 -9.5t4 -9.5q18 -31 19 -35q3 -12 4 -27q33 -18 33 -39v-4l-5 -44q0 -5 4 -13l41 -20l13 -19l6 -19q3 -11 33 -31v-22l35 -35l31 -55l18 -21q27 -34 27 -55q0 -5 -6 -11l-38 -34l-42 -59h-32l-21 -5l-1 20l-12 24l1 20l-2 19q-13 21 -16 48h-17l-8 23l-34 69l-8 33 l-49 88q-8 21 -8 42v17q-12 6 -19 13q-6 6 -9 11q-36 63 -42 99l-35 15q-10 -45 -36 -45h-4l-104 19l-37 -1l-26 3l-144 -19l-84 5l-45 -13l-34 13l-28 5q-18 -26 -44 -26h-6l-88 7l-33 -9l-42 -2q-26 -8 -51 -68l-18 -40l-11 -2q-18 -52 -30 -75q-15 -27 -45 -71l-1 -20 l-14 -23l-55 -123q-9 -18 -46 -27l3 -16q-19 -3 -35 -3q-24 0 -59 23z" />
<glyph unicode="&#xc3;" horiz-adv-x="1504" d="M520 1666l64 30l102 48q6 3 11 3q22 0 52 -13l30 -11q13 -13 17 -34l28 -4l58 -44l26 -11l12 14l8 -2l23 -15q22 0 66 22l20 14l18 37q6 13 24 16l36 6l26 15l26 -37l-40 -31l-46 -51q-16 -19 -48 -26l-10 -21l-22 -6l-54 -34l-34 -12l-31 -26l-35 9q-36 23 -87 40 q-7 18 -15 26q-8 5 -31 10l-10 -15q-16 26 -54 40l-28 10l-34 -12l-46 -15l-19 -18l-38 11h-6l-3 -10l-12 6l-13 -8l-2 -14l8 -3l-2 -18q-49 -24 -72 -24q-28 0 -28 22q0 17 31 36q96 59 134 100zM410 552l-7 -24l16 -3l33 -10l28 6l22 -8l4 7l18 2l130 -7l81 5l33 -14 q13 13 19 14l69 5l27 4l-5 -12l9 -3q9 0 22 16l26 2q63 4 93 8q23 2 32 6q14 8 31 22l-9 8l6 6l-4 9h-22q-14 20 -18 76l-2 20l-39 10l-47 95h-14l-62 121l10 22l-7 26l-47 24l-71 144q-9 14 -49 44l-12 -9l-13 -40l-7 -1q-11 -37 -17 -52q-6 -11 -26 -29q-25 -22 -29 -48 l-4 -23l-44 -100q-15 -33 -21 -45t-19 -25l-8 -22q-7 -19 -12 -24q-7 -5 -23 -5l-3 -23q-5 -52 -16 -75q-13 -25 -43 -43l18 -29q-13 -2 -17 -6q-5 -5 -10 -22zM-11 -23l38 67l29 35l21 39l16 21l13 18v8q42 8 42 37v26l31 37l43 94l24 34l29 62l32 63l38 65l42 39q4 4 4 10 q0 7 -9 19q20 15 24 20q7 8 15 25l-12 19l13 20l17 46q3 8 23 26l-2 10l47 116l34 93q9 26 44 64l-8 22l6 27q13 42 22 51q6 6 45 14l4 14l-10 31q-2 14 -2 16q0 14 10 21l70 45l13 30q20 27 55 30l12 -43l14 2l-4 -10l14 -31l28 -38l36 -68l21 -54l26 -45l-26 -9 q0 -8 9 -19q37 -21 37 -38l-2 -18l22 -25l25 -45l16 -24l1 -9l-7 -19l4 -20l15 -18l27 -24l35 -69l19 -32l1 -24q37 -34 37 -52q0 -4 -3 -15l20 -20l45 -76q3 -4 6 -8.5t6 -9.5q3 -7 11 -19q3 -4 6 -9.5t4 -9.5q18 -31 19 -35q3 -12 4 -27q33 -18 33 -39v-4l-5 -44 q0 -5 4 -13l41 -20l13 -19l6 -19q3 -11 33 -31v-22l35 -35l31 -55l18 -21q27 -34 27 -55q0 -5 -6 -11l-38 -34l-42 -59h-32l-21 -5l-1 20l-12 24l1 20l-2 19q-13 21 -16 48h-17l-8 23l-34 69l-8 33l-49 88q-8 21 -8 42v17q-12 6 -19 13q-6 6 -9 11q-36 63 -42 99l-35 15 q-10 -45 -36 -45h-4l-104 19l-37 -1l-26 3l-144 -19l-84 5l-45 -13l-34 13l-28 5q-18 -26 -44 -26h-6l-88 7l-33 -9l-42 -2q-26 -8 -51 -68l-18 -40l-11 -2q-18 -52 -30 -75q-15 -27 -45 -71l-1 -20l-14 -23l-55 -123q-9 -18 -46 -27l3 -16q-19 -3 -35 -3q-24 0 -59 23z" />
<glyph unicode="&#xc4;" horiz-adv-x="1504" d="M835 1630l2 11l122 94l22 -17l70 -41q47 -26 47 -57q0 -24 -30 -47l-56 -46l-17 -18l-28 14l-27 30l-38 32l-24 29q-11 8 -43 16zM381 1605l-39 10l4 25l20 13l44 34l22 26l28 23l13 -12l22 -14l63 -30q30 -18 42 -55l-13 -21l-12 -35l-53 -47l-18 -19l-25 11zM410 552 l-7 -24l16 -3l33 -10l28 6l22 -8l4 7l18 2l130 -7l81 5l33 -14q13 13 19 14l69 5l27 4l-5 -12l9 -3q9 0 22 16l26 2q63 4 93 8q23 2 32 6q14 8 31 22l-9 8l6 6l-4 9h-22q-14 20 -18 76l-2 20l-39 10l-47 95h-14l-62 121l10 22l-7 26l-47 24l-71 144q-9 14 -49 44l-12 -9 l-13 -40l-7 -1q-11 -37 -17 -52q-6 -11 -26 -29q-25 -22 -29 -48l-4 -23l-44 -100q-15 -33 -21 -45t-19 -25l-8 -22q-7 -19 -12 -24q-7 -5 -23 -5l-3 -23q-5 -52 -16 -75q-13 -25 -43 -43l18 -29q-13 -2 -17 -6q-5 -5 -10 -22zM-11 -23l38 67l29 35l21 39l16 21l13 18v8 q42 8 42 37v26l31 37l43 94l24 34l29 62l32 63l38 65l42 39q4 4 4 10q0 7 -9 19q20 15 24 20q7 8 15 25l-12 19l13 20l17 46q3 8 23 26l-2 10l47 116l34 93q9 26 44 64l-8 22l6 27q13 42 22 51q6 6 45 14l4 14l-10 31q-2 14 -2 16q0 14 10 21l70 45l13 30q20 27 55 30 l12 -43l14 2l-4 -10l14 -31l28 -38l36 -68l21 -54l26 -45l-26 -9q0 -8 9 -19q37 -21 37 -38l-2 -18l22 -25l25 -45l16 -24l1 -9l-7 -19l4 -20l15 -18l27 -24l35 -69l19 -32l1 -24q37 -34 37 -52q0 -4 -3 -15l20 -20l45 -76q3 -4 6 -8.5t6 -9.5q3 -7 11 -19q3 -4 6 -9.5 t4 -9.5q18 -31 19 -35q3 -12 4 -27q33 -18 33 -39v-4l-5 -44q0 -5 4 -13l41 -20l13 -19l6 -19q3 -11 33 -31v-22l35 -35l31 -55l18 -21q27 -34 27 -55q0 -5 -6 -11l-38 -34l-42 -59h-32l-21 -5l-1 20l-12 24l1 20l-2 19q-13 21 -16 48h-17l-8 23l-34 69l-8 33l-49 88 q-8 21 -8 42v17q-12 6 -19 13q-6 6 -9 11q-36 63 -42 99l-35 15q-10 -45 -36 -45h-4l-104 19l-37 -1l-26 3l-144 -19l-84 5l-45 -13l-34 13l-28 5q-18 -26 -44 -26h-6l-88 7l-33 -9l-42 -2q-26 -8 -51 -68l-18 -40l-11 -2q-18 -52 -30 -75q-15 -27 -45 -71l-1 -20l-14 -23 l-55 -123q-9 -18 -46 -27l3 -16q-19 -3 -35 -3q-24 0 -59 23z" />
<glyph unicode="&#xc5;" horiz-adv-x="1504" d="M745 1551l20 -11l58 30l4 43q0 28 -33 62l-16 19q-18 2 -25 14q-76 -22 -76 -60q0 -33 9 -44l13 -17l24 -30zM592 1567l-18 15v21l22 34l-1 11q0 21 32 53q38 35 75 44l49 11l22 6l19 -6l32 -1l39 -15q26 -6 35 -26q23 -52 23 -102q0 -36 -30 -65q-32 -30 -82 -46 q-54 -17 -117 -17l-8 9q-10 -3 -18 -3q-7 0 -12 3l-15 11l-34 26zM410 552l-7 -24l16 -3l33 -10l28 6l22 -8l4 7l18 2l130 -7l81 5l33 -14q13 13 19 14l69 5l27 4l-5 -12l9 -3q9 0 22 16l26 2q63 4 93 8q23 2 32 6q14 8 31 22l-9 8l6 6l-4 9h-22q-14 20 -18 76l-2 20l-39 10 l-47 95h-14l-62 121l10 22l-7 26l-47 24l-71 144q-9 14 -49 44l-12 -9l-13 -40l-7 -1q-11 -37 -17 -52q-6 -11 -26 -29q-25 -22 -29 -48l-4 -23l-44 -100q-15 -33 -21 -45t-19 -25l-8 -22q-7 -19 -12 -24q-7 -5 -23 -5l-3 -23q-5 -52 -16 -75q-13 -25 -43 -43l18 -29 q-13 -2 -17 -6q-5 -5 -10 -22zM-11 -23l38 67l29 35l21 39l16 21l13 18v8q42 8 42 37v26l31 37l43 94l24 34l29 62l32 63l38 65l42 39q4 4 4 10q0 7 -9 19q20 15 24 20q7 8 15 25l-12 19l13 20l17 46q3 8 23 26l-2 10l47 116l34 93q9 26 44 64l-8 22l6 27q13 42 22 51 q6 6 45 14l4 14l-10 31q-2 14 -2 16q0 14 10 21l70 45l13 30q20 27 55 30l12 -43l14 2l-4 -10l14 -31l28 -38l36 -68l21 -54l26 -45l-26 -9q0 -8 9 -19q37 -21 37 -38l-2 -18l22 -25l25 -45l16 -24l1 -9l-7 -19l4 -20l15 -18l27 -24l35 -69l19 -32l1 -24q37 -34 37 -52 q0 -4 -3 -15l20 -20l45 -76q3 -4 6 -8.5t6 -9.5q3 -7 11 -19q3 -4 6 -9.5t4 -9.5q18 -31 19 -35q3 -12 4 -27q33 -18 33 -39v-4l-5 -44q0 -5 4 -13l41 -20l13 -19l6 -19q3 -11 33 -31v-22l35 -35l31 -55l18 -21q27 -34 27 -55q0 -5 -6 -11l-38 -34l-42 -59h-32l-21 -5l-1 20 l-12 24l1 20l-2 19q-13 21 -16 48h-17l-8 23l-34 69l-8 33l-49 88q-8 21 -8 42v17q-12 6 -19 13q-6 6 -9 11q-36 63 -42 99l-35 15q-10 -45 -36 -45h-4l-104 19l-37 -1l-26 3l-144 -19l-84 5l-45 -13l-34 13l-28 5q-18 -26 -44 -26h-6l-88 7l-33 -9l-42 -2q-26 -8 -51 -68 l-18 -40l-11 -2q-18 -52 -30 -75q-15 -27 -45 -71l-1 -20l-14 -23l-55 -123q-9 -18 -46 -27l3 -16q-19 -3 -35 -3q-24 0 -59 23z" />
<glyph unicode="&#xc6;" horiz-adv-x="2318" d="M597 581l-10 -11q6 -18 16 -25q8 -6 34 -8l95 -2l49 -5l30 -19l56 14l68 1l48 3l23 -6l46 10l27 9l-9 20l12 33l6 44l-12 81l4 81l22 34l-22 26l14 25l-29 43l9 30q6 18 6 46l-8 24l-2 75q-3 23 -18 23q-7 0 -9 -5l-17 -31l-36 -27q-12 -12 -14 -44l-23 -8l-50 -71 l-90 -92l-20 -41l-88 -105q-48 -60 -75 -74q-25 -15 -28 -19q-5 -8 -5 -29zM1999 74l25 3l51 -6l9 1v9l93 28l100 13q-6 -39 -25 -49l-14 -9l-10 -16l-32 -22q-19 -19 -41 -19h-13l-16 -19l-14 -4l-15 -11l-61 12l-43 -5l-37 12l-44 -4l-100 5l-15 -2l-4 8l-92 -9l-21 13 h-19l-12 -2l-11 1l-18 2l-109 -11l-133 5l-309 -7h-23l-10 17l33 87l8 63l15 29l-13 35l3 59l-4 35l8 35l1 11l-9 71l-4 26l-17 4l-70 -2l-55 6l-59 -10l-111 2l-51 -14l-78 8l-43 -6l-70 10l-27 1l-15 -17l-47 -47l-18 -9l-41 -48l3 -9l-24 -38l-42 -56l-10 -13l-17 -22 l-22 5q-24 -28 -24 -57q0 -7 5 -24l-16 -17l-15 -17l-34 -63l-19 -8l-24 2q-31 -24 -68 -34l-52 -1l-27 10q13 53 24 61l50 31l35 37l57 52l39 48q19 32 27 40t33 12q24 42 37 59q11 15 37 36l-5 16l90 80q31 24 43 49l24 19l13 30l64 71l42 49l14 6l23 26l17 13l-4 9l44 55 l52 87l57 53l92 145l102 128l18 53l-14 30l51 28l91 24l22 10l27 -21l37 -3l59 -13l64 1l89 -23l45 15l38 -3l71 -11l74 9l29 -4l30 4l49 -14h21l-7 7l23 13l72 9l61 17l22 6l8 -13l-14 -20l-23 -24l-19 -38l-37 -15l-17 -7l-132 1l-62 -2l-35 11l-26 -9l-22 -3l-20 2 l-13 -1l-47 -4l-19 13l-21 5l-45 -8h-157l-20 -2l-5 -22l-2 -47l-6 -21l9 -68l-7 -28q19 -31 20 -32q4 -6 8 -7q6 -2 46 -8l61 -8l136 1l145 -16l51 4l47 -2l37 8l65 -11l74 15l47 -6l133 2l21 -3q26 19 37 23q9 3 65 13l12 -23l-18 -21l-36 -30l-20 -22l-28 -10l-29 -17 l-72 17l-94 -1l-57 11l-47 -9l-66 -3l-79 -7l-43 3l-86 -4h-21l-65 8q-22 8 -41 8l-37 -19l-12 -2l-20 1l-79 4q-35 0 -55 -9q-21 -10 -21 -25l15 -55l-7 -34l3 -33q0 -21 -13 -31l-35 -36q0 -8 11 -16q10 -7 21 -7l17 1l1 -9l-5 -72l12 -39l-23 -36q25 -31 25 -49l-30 -81 l28 -49l1 -78l7 -126l-4 -19l20 -5l61 -16l67 -17l60 12l76 -11l59 8h231l31 1l51 -8h17q20 -18 30 -18q6 0 21 9l2 21z" />
<glyph unicode="&#xc7;" horiz-adv-x="1516" d="M1424 140l63 33q22 0 22 -24q0 -12 -8 -30l-11 -19l-14 -44q-9 -14 -24 -14l-53 -5l-20 -10l-45 -13l-55 -18l-130 -8l-140 -29l-42 -2l-64 2l-2 -98q33 -16 54 -16l21 3l23 -25l40 -24q11 -6 11 -20l-4 -42l16 -35l-18 -45q-18 -36 -37 -52q-21 -18 -51 -25l-21 -12 l-13 5l-21 9l-9 -24l-25 -5l-40 1q-61 0 -61 29q0 9 12 26l30 5l66 3q27 1 48 36q20 35 20 76l-1 21l-19 4l-6 21l-22 1l-18 -3l-31 -10q-6 0 -13 13t-7 26l2 16l8 39l1 78l5 27l-39 3q-13 45 -48 45q-18 0 -41 -20l3 -13l-193 55l-6 15q-8 -4 -13 -4q-18 0 -60 30l-55 39 l-34 30l-16 22l-84 76l-2 26q22 0 22 13q0 17 -52 24l-23 5l1 24q-19 9 -27 17q-8 9 -22 34l7 8l-7 8h-15l-66 176l11 6l2 10l-15 61l-1 58q0 32 24 72q14 0 26 25q-12 23 -12 35q0 14 9 27l64 133q14 14 39 26l15 34l23 18l21 18l47 16l39 54q21 25 68 42l74 28l48 20 l41 26l98 35q45 22 82 25l65 -1l177 19l57 4l25 -4l35 -15l50 3l44 -20l24 1q22 0 38 -12q15 -13 15 -32q0 -23 -20 -35l-34 -22l-16 -13l-18 -6l-12 3l-79 36l-20 3v13l-15 14l-11 2l-55 -8l-74 14l-88 -6l-49 4l-15 1q-31 0 -59 -11l-66 -27l-31 -2l-43 -24l-39 -13 l-69 -39l-20 3l-28 -22v-30q-67 -34 -79 -48l-81 -89l-17 -13l8 -8l-8 -21q-12 -35 -14 -39q-4 -7 -24 -18l14 -14l-1 -20l-12 -39l-1 -125l-6 -25l10 -23l24 -51l-5 -15l-21 -3l8 -21l41 -45l20 -59l14 -17l7 -24l40 -62l11 -19l17 -17l30 -48l19 -12l21 -28l21 -1 q20 -20 32 -42l19 -5l77 -35l31 -9l29 -26l89 -27l141 -31l56 -7l18 1l77 6l117 -2l51 25l89 19l43 26z" />
<glyph unicode="&#xc8;" horiz-adv-x="1478" d="M436 1760l-23 39q23 14 34 14l51 -6l66 -3q31 0 50 -8q17 -9 27 -30q-15 -9 -23 -20l9 -21l10 -38l44 -70l11 -32l-9 -8q8 -15 12 -18q4 -4 16 -4l14 -13l-23 -34q-15 -3 -21 -3q-13 0 -37 10l-8 -3q-4 17 -7 20l-27 46q-10 17 -33 31q-13 33 -28 47q-16 15 -49 24 l-13 25l-18 30zM494 1319l39 -12q33 13 48 13q8 0 9 -1l152 -17l133 8l51 -14l30 6v12q73 8 101 19q42 17 54 17l19 -5q-4 -21 -13 -33q-8 -9 -33 -20q0 -18 -6 -26q-7 -8 -30 -20q-52 -24 -86 -24h-10l-52 4l-46 -5l-92 10l-21 1q-28 19 -55 20q-23 -26 -78 -26l-31 2 l-3 18l-21 -4l-29 -13l-137 11l-23 -32l9 -7l-1 -9l5 -53l-9 -78l5 -29l2 -23l20 -6l138 -12q15 -1 40 -20l31 6q26 10 42 10h1l107 -7l63 -1l58 -1q30 0 57 15l76 -14l18 3l43 11l78 2l82 10q12 -1 29 -14l19 12q17 14 21 15q6 2 16 2l23 -2l22 2v-32l-27 -18l-60 -53 q-11 -8 -22 -8h-3l-67 9l-86 -3l-47 11l-169 -10l-29 1q-13 21 -27 21q-3 0 -11 -2l-45 -18l-131 14l-63 -24l-45 14l-38 -23l-110 9l-9 -15l5 -54l-17 -52l9 -17l14 -18l-15 -43q17 -27 18 -42l-4 -33l8 -91v-3q0 -14 -21 -40q26 -32 26 -54q0 -6 -3 -14l-27 -57l28 -51 l13 -191l30 -6l136 -47l45 7q15 -1 44 -18q17 18 29 18h4l93 -18l55 8l49 -11l119 8l35 -6l56 -2l20 -7l-5 15l23 5l94 1l21 8l116 21q36 10 45 10q8 0 24 -6l-11 -43l-23 3q-13 0 -17 -7l-21 -43l-26 -19l-9 -11l-36 5l-43 -20h-1l-50 14l-5 1l-113 -4l-34 5l-9 17 q-48 -11 -70 -13l-38 2l-23 -3l-8 19l-13 1l-10 -2l-35 -19l-197 -3l-29 -13q-32 22 -50 22l-11 -1l-51 -15l-57 12l-176 -7q-13 0 -76 26l9 23l26 57l4 53l10 49v76l6 28l-4 232l4 59l-1 22l-8 23l41 3q-9 21 -19 34q-11 14 -28 24l-3 17l4 74l-9 126l8 50l4 20l-20 6 l-9 21l-4 65l-11 21l-2 10l2 23l9 13l53 -13l-16 14q-13 10 -13 20q0 8 3 17l-16 5l-20 -5q-4 79 -19 84l-39 16l10 20q9 9 33 18l18 7q48 22 75 22h3q1 -1 3 -1l147 -25z" />
<glyph unicode="&#xc9;" horiz-adv-x="1478" d="M672 1479l-3 20q18 63 35 93l39 65q27 44 27 53l-5 35l-15 11l20 38l46 2l108 17h6q13 0 30 -14l-11 -16l-55 -93l-37 -42l-24 -25l4 -11l-12 -24l-41 -60l-39 -34l-12 -20h-6v5h-55zM494 1319l39 -12q33 13 48 13q8 0 9 -1l152 -17l133 8l51 -14l30 6v12q73 8 101 19 q42 17 54 17l19 -5q-4 -21 -13 -33q-8 -9 -33 -20q0 -18 -6 -26q-7 -8 -30 -20q-52 -24 -86 -24h-10l-52 4l-46 -5l-92 10l-21 1q-28 19 -55 20q-23 -26 -78 -26l-31 2l-3 18l-21 -4l-29 -13l-137 11l-23 -32l9 -7l-1 -9l5 -53l-9 -78l5 -29l2 -23l20 -6l138 -12 q15 -1 40 -20l31 6q26 10 42 10h1l107 -7l63 -1l58 -1q30 0 57 15l76 -14l18 3l43 11l78 2l82 10q12 -1 29 -14l19 12q17 14 21 15q6 2 16 2l23 -2l22 2v-32l-27 -18l-60 -53q-11 -8 -22 -8h-3l-67 9l-86 -3l-47 11l-169 -10l-29 1q-13 21 -27 21q-3 0 -11 -2l-45 -18 l-131 14l-63 -24l-45 14l-38 -23l-110 9l-9 -15l5 -54l-17 -52l9 -17l14 -18l-15 -43q17 -27 18 -42l-4 -33l8 -91v-3q0 -14 -21 -40q26 -32 26 -54q0 -6 -3 -14l-27 -57l28 -51l13 -191l30 -6l136 -47l45 7q15 -1 44 -18q17 18 29 18h4l93 -18l55 8l49 -11l119 8l35 -6 l56 -2l20 -7l-5 15l23 5l94 1l21 8l116 21q36 10 45 10q8 0 24 -6l-11 -43l-23 3q-13 0 -17 -7l-21 -43l-26 -19l-9 -11l-36 5l-43 -20h-1l-50 14l-5 1l-113 -4l-34 5l-9 17q-48 -11 -70 -13l-38 2l-23 -3l-8 19l-13 1l-10 -2l-35 -19l-197 -3l-29 -13q-32 22 -50 22l-11 -1 l-51 -15l-57 12l-176 -7q-13 0 -76 26l9 23l26 57l4 53l10 49v76l6 28l-4 232l4 59l-1 22l-8 23l41 3q-9 21 -19 34q-11 14 -28 24l-3 17l4 74l-9 126l8 50l4 20l-20 6l-9 21l-4 65l-11 21l-2 10l2 23l9 13l53 -13l-16 14q-13 10 -13 20q0 8 3 17l-16 5l-20 -5q-4 79 -19 84 l-39 16l10 20q9 9 33 18l18 7q48 22 75 22h3q1 -1 3 -1l147 -25z" />
<glyph unicode="&#xca;" horiz-adv-x="1478" d="M840 1467l-29 43q-22 4 -32 10t-35 31l-18 16q7 13 7 23q0 8 -8 22l-23 1l-16 24q-19 32 -30 43q-10 9 -29 9l-46 -5l1 -13l-19 -18q-50 -47 -59 -68l-14 -30l-23 -28l-17 -24l-31 -20l-31 -30q-13 -12 -41 -22q-27 -10 -46 -10q-10 0 -27 15q26 38 38 45l69 38l27 38 l66 62l11 27l62 64l40 45l107 67l26 26l14 10l26 30q15 0 23 -7q9 -7 9 -19q0 -7 -5 -15l-28 -43q0 -19 24 -46l-9 -7l1 -20l27 -14l26 -9l61 -62l15 -18q-7 -15 -7 -40l65 -24l11 -24q5 -16 5 -18q2 -8 11 -14l71 14l12 -13q-66 -89 -130 -89l-40 11l-1 22q-36 14 -61 14z M494 1319l39 -12q33 13 48 13q8 0 9 -1l152 -17l133 8l51 -14l30 6v12q73 8 101 19q42 17 54 17l19 -5q-4 -21 -13 -33q-8 -9 -33 -20q0 -18 -6 -26q-7 -8 -30 -20q-52 -24 -86 -24h-10l-52 4l-46 -5l-92 10l-21 1q-28 19 -55 20q-23 -26 -78 -26l-31 2l-3 18l-21 -4 l-29 -13l-137 11l-23 -32l9 -7l-1 -9l5 -53l-9 -78l5 -29l2 -23l20 -6l138 -12q15 -1 40 -20l31 6q26 10 42 10h1l107 -7l63 -1l58 -1q30 0 57 15l76 -14l18 3l43 11l78 2l82 10q12 -1 29 -14l19 12q17 14 21 15q6 2 16 2l23 -2l22 2v-32l-27 -18l-60 -53q-11 -8 -22 -8h-3 l-67 9l-86 -3l-47 11l-169 -10l-29 1q-13 21 -27 21q-3 0 -11 -2l-45 -18l-131 14l-63 -24l-45 14l-38 -23l-110 9l-9 -15l5 -54l-17 -52l9 -17l14 -18l-15 -43q17 -27 18 -42l-4 -33l8 -91v-3q0 -14 -21 -40q26 -32 26 -54q0 -6 -3 -14l-27 -57l28 -51l13 -191l30 -6 l136 -47l45 7q15 -1 44 -18q17 18 29 18h4l93 -18l55 8l49 -11l119 8l35 -6l56 -2l20 -7l-5 15l23 5l94 1l21 8l116 21q36 10 45 10q8 0 24 -6l-11 -43l-23 3q-13 0 -17 -7l-21 -43l-26 -19l-9 -11l-36 5l-43 -20h-1l-50 14l-5 1l-113 -4l-34 5l-9 17q-48 -11 -70 -13l-38 2 l-23 -3l-8 19l-13 1l-10 -2l-35 -19l-197 -3l-29 -13q-32 22 -50 22l-11 -1l-51 -15l-57 12l-176 -7q-13 0 -76 26l9 23l26 57l4 53l10 49v76l6 28l-4 232l4 59l-1 22l-8 23l41 3q-9 21 -19 34q-11 14 -28 24l-3 17l4 74l-9 126l8 50l4 20l-20 6l-9 21l-4 65l-11 21l-2 10 l2 23l9 13l53 -13l-16 14q-13 10 -13 20q0 8 3 17l-16 5l-20 -5q-4 79 -19 84l-39 16l10 20q9 9 33 18l18 7q48 22 75 22h3q1 -1 3 -1l147 -25z" />
<glyph unicode="&#xcb;" horiz-adv-x="1478" d="M739 1630l2 11l122 94l22 -17l70 -41q47 -26 47 -57q0 -24 -30 -47l-56 -46l-17 -18l-28 14l-27 30l-38 32l-24 29q-11 8 -43 16zM285 1605l-39 10l4 25l20 13l44 34l22 26l28 23l13 -12l22 -14l63 -30q30 -18 42 -55l-13 -21l-12 -35l-53 -47l-18 -19l-25 11zM494 1319 l39 -12q33 13 48 13q8 0 9 -1l152 -17l133 8l51 -14l30 6v12q73 8 101 19q42 17 54 17l19 -5q-4 -21 -13 -33q-8 -9 -33 -20q0 -18 -6 -26q-7 -8 -30 -20q-52 -24 -86 -24h-10l-52 4l-46 -5l-92 10l-21 1q-28 19 -55 20q-23 -26 -78 -26l-31 2l-3 18l-21 -4l-29 -13l-137 11 l-23 -32l9 -7l-1 -9l5 -53l-9 -78l5 -29l2 -23l20 -6l138 -12q15 -1 40 -20l31 6q26 10 42 10h1l107 -7l63 -1l58 -1q30 0 57 15l76 -14l18 3l43 11l78 2l82 10q12 -1 29 -14l19 12q17 14 21 15q6 2 16 2l23 -2l22 2v-32l-27 -18l-60 -53q-11 -8 -22 -8h-3l-67 9l-86 -3 l-47 11l-169 -10l-29 1q-13 21 -27 21q-3 0 -11 -2l-45 -18l-131 14l-63 -24l-45 14l-38 -23l-110 9l-9 -15l5 -54l-17 -52l9 -17l14 -18l-15 -43q17 -27 18 -42l-4 -33l8 -91v-3q0 -14 -21 -40q26 -32 26 -54q0 -6 -3 -14l-27 -57l28 -51l13 -191l30 -6l136 -47l45 7 q15 -1 44 -18q17 18 29 18h4l93 -18l55 8l49 -11l119 8l35 -6l56 -2l20 -7l-5 15l23 5l94 1l21 8l116 21q36 10 45 10q8 0 24 -6l-11 -43l-23 3q-13 0 -17 -7l-21 -43l-26 -19l-9 -11l-36 5l-43 -20h-1l-50 14l-5 1l-113 -4l-34 5l-9 17q-48 -11 -70 -13l-38 2l-23 -3l-8 19 l-13 1l-10 -2l-35 -19l-197 -3l-29 -13q-32 22 -50 22l-11 -1l-51 -15l-57 12l-176 -7q-13 0 -76 26l9 23l26 57l4 53l10 49v76l6 28l-4 232l4 59l-1 22l-8 23l41 3q-9 21 -19 34q-11 14 -28 24l-3 17l4 74l-9 126l8 50l4 20l-20 6l-9 21l-4 65l-11 21l-2 10l2 23l9 13 l53 -13l-16 14q-13 10 -13 20q0 8 3 17l-16 5l-20 -5q-4 79 -19 84l-39 16l10 20q9 9 33 18l18 7q48 22 75 22h3q1 -1 3 -1l147 -25z" />
<glyph unicode="&#xcc;" horiz-adv-x="492" d="M154 -31l-17 26q19 37 19 54l-1 23l28 88v31v33l45 8l2 9q0 9 -11 26l-25 -2l-4 4l-5 -6l3 34l2 45l7 73l-2 40l18 28q-15 13 -20 26q-5 12 -5 35t14 56l-13 16v28l1 97q0 9 -1 12l-5 21l-1 21q11 11 11 28l-17 20l7 17l-8 73l12 37v4q0 17 -21 36l-1 19l-7 89l7 36 l-14 21l2 33v57q7 14 31 19l50 4q11 2 33 39l36 10l32 12q6 0 13 -4q7 -18 7 -31l-4 -31l-5 -32l-21 -35l13 -104q0 -24 -22 -67v-20l14 -5l-1 -32l5 -82q0 -32 -24 -59l14 -22l-1 -31v-26l-22 -35l12 -26q7 -15 7 -29l-4 -55v-60l-14 -47q-1 -2 -1 -7q0 -14 18 -25l-1 -39 l2 -21l2 -43v-17l-18 -54l18 -10l-5 -17l7 -56l-4 -94l7 -39l2 -25q-92 -83 -124 -83l-13 2l-3 -10zM51 1760l-23 39q23 14 34 14l51 -6l66 -3q31 0 50 -8q17 -9 27 -30q-15 -9 -23 -20l9 -21l10 -38l44 -70l11 -32l-9 -8q8 -15 12 -18q4 -4 16 -4l14 -13l-23 -34 q-15 -3 -21 -3q-13 0 -37 10l-8 -3q-4 17 -7 20l-27 46q-10 17 -33 31q-13 33 -28 47q-16 15 -49 24l-13 25l-18 30z" />
<glyph unicode="&#xcd;" horiz-adv-x="492" d="M154 -31l-17 26q19 37 19 54l-1 23l28 88v31v33l45 8l2 9q0 9 -11 26l-25 -2l-4 4l-5 -6l3 34l2 45l7 73l-2 40l18 28q-15 13 -20 26q-5 12 -5 35t14 56l-13 16v28l1 97q0 9 -1 12l-5 21l-1 21q11 11 11 28l-17 20l7 17l-8 73l12 37v4q0 17 -21 36l-1 19l-7 89l7 36 l-14 21l2 33v57q7 14 31 19l50 4q11 2 33 39l36 10l32 12q6 0 13 -4q7 -18 7 -31l-4 -31l-5 -32l-21 -35l13 -104q0 -24 -22 -67v-20l14 -5l-1 -32l5 -82q0 -32 -24 -59l14 -22l-1 -31v-26l-22 -35l12 -26q7 -15 7 -29l-4 -55v-60l-14 -47q-1 -2 -1 -7q0 -14 18 -25l-1 -39 l2 -21l2 -43v-17l-18 -54l18 -10l-5 -17l7 -56l-4 -94l7 -39l2 -25q-92 -83 -124 -83l-13 2l-3 -10zM167 1479l-3 20q18 63 35 93l39 65q27 44 27 53l-5 35l-15 11l20 38l46 2l108 17h6q13 0 30 -14l-11 -16l-55 -93l-37 -42l-24 -25l4 -11l-12 -24l-41 -60l-39 -34l-12 -20 h-6v5h-55z" />
<glyph unicode="&#xce;" horiz-adv-x="492" d="M154 -31l-17 26q19 37 19 54l-1 23l28 88v31v33l45 8l2 9q0 9 -11 26l-25 -2l-4 4l-5 -6l3 34l2 45l7 73l-2 40l18 28q-15 13 -20 26q-5 12 -5 35t14 56l-13 16v28l1 97q0 9 -1 12l-5 21l-1 21q11 11 11 28l-17 20l7 17l-8 73l12 37v4q0 17 -21 36l-1 19l-7 89l7 36 l-14 21l2 33v57q7 14 31 19l50 4q11 2 33 39l36 10l32 12q6 0 13 -4q7 -18 7 -31l-4 -31l-5 -32l-21 -35l13 -104q0 -24 -22 -67v-20l14 -5l-1 -32l5 -82q0 -32 -24 -59l14 -22l-1 -31v-26l-22 -35l12 -26q7 -15 7 -29l-4 -55v-60l-14 -47q-1 -2 -1 -7q0 -14 18 -25l-1 -39 l2 -21l2 -43v-17l-18 -54l18 -10l-5 -17l7 -56l-4 -94l7 -39l2 -25q-92 -83 -124 -83l-13 2l-3 -10zM457 1467l-29 43q-22 4 -32 10t-35 31l-18 16q7 13 7 23q0 8 -8 22l-23 1l-16 24q-19 32 -30 43q-10 9 -29 9l-46 -5l1 -13l-19 -18q-50 -47 -59 -68l-14 -30l-23 -28 l-17 -24l-31 -20l-31 -30q-13 -12 -41 -22q-27 -10 -46 -10q-10 0 -27 15q26 38 38 45l69 38l27 38l66 62l11 27l62 64l40 45l107 67l26 26l14 10l26 30q15 0 23 -7q9 -7 9 -19q0 -7 -5 -15l-28 -43q0 -19 24 -46l-9 -7l1 -20l27 -14l26 -9l61 -62l15 -18q-7 -15 -7 -40 l65 -24l11 -24q5 -16 5 -18q2 -8 11 -14l71 14l12 -13q-66 -89 -130 -89l-40 11l-1 22q-36 14 -61 14z" />
<glyph unicode="&#xcf;" horiz-adv-x="492" d="M154 -31l-17 26q19 37 19 54l-1 23l28 88v31v33l45 8l2 9q0 9 -11 26l-25 -2l-4 4l-5 -6l3 34l2 45l7 73l-2 40l18 28q-15 13 -20 26q-5 12 -5 35t14 56l-13 16v28l1 97q0 9 -1 12l-5 21l-1 21q11 11 11 28l-17 20l7 17l-8 73l12 37v4q0 17 -21 36l-1 19l-7 89l7 36 l-14 21l2 33v57q7 14 31 19l50 4q11 2 33 39l36 10l32 12q6 0 13 -4q7 -18 7 -31l-4 -31l-5 -32l-21 -35l13 -104q0 -24 -22 -67v-20l14 -5l-1 -32l5 -82q0 -32 -24 -59l14 -22l-1 -31v-26l-22 -35l12 -26q7 -15 7 -29l-4 -55v-60l-14 -47q-1 -2 -1 -7q0 -14 18 -25l-1 -39 l2 -21l2 -43v-17l-18 -54l18 -10l-5 -17l7 -56l-4 -94l7 -39l2 -25q-92 -83 -124 -83l-13 2l-3 -10zM357 1630l2 11l122 94l22 -17l70 -41q47 -26 47 -57q0 -24 -30 -47l-56 -46l-17 -18l-28 14l-27 30l-38 32l-24 29q-11 8 -43 16zM-97 1605l-39 10l4 25l20 13l44 34l22 26 l28 23l13 -12l22 -14l63 -30q30 -18 42 -55l-13 -21l-12 -35l-53 -47l-18 -19l-25 11z" />
<glyph unicode="&#xd1;" horiz-adv-x="1337" d="M452 1666l64 30l102 48q6 3 11 3q22 0 52 -13l30 -11q13 -13 17 -34l28 -4l58 -44l26 -11l12 14l8 -2l23 -15q22 0 66 22l20 14l18 37q6 13 24 16l36 6l26 15l26 -37l-40 -31l-46 -51q-16 -19 -48 -26l-10 -21l-22 -6l-54 -34l-34 -12l-31 -26l-35 9q-36 23 -87 40 q-7 18 -15 26q-8 5 -31 10l-10 -15q-16 26 -54 40l-28 10l-34 -12l-46 -15l-19 -18l-38 11h-6l-3 -10l-12 6l-13 -8l-2 -14l8 -3l-2 -18q-49 -24 -72 -24q-28 0 -28 22q0 17 31 36q96 59 134 100zM137 1181l8 22l26 16q33 19 39 25t11 24l17 10l47 54q5 5 12 5q19 0 36 -29 l43 -87l18 -24l18 -30l-7 -7q29 -27 35 -37q11 -17 28 -53l53 -86q15 -22 15 -33t-7 -24l39 -22l-4 -18l16 -22l41 -58l31 -29l9 -32l91 -97l-18 -11q5 -19 12 -24q8 -7 33 -11l45 -66l-13 -2l26 -20q29 -19 37 -30q7 -10 10 -39l14 -15l-2 -14q0 -16 15 -46l22 -15 q44 -18 45 -21l44 -66l22 -15l29 -25l9 22v122l19 48q-20 28 -20 39q0 9 2 15l12 42l7 142l16 32l-12 30l8 47v2q0 13 -24 23l-6 260q15 2 19 7q5 6 6 28l-30 22l-4 35q-1 40 -10 57q-9 14 -33 14q-5 17 -5 24q0 36 87 60q13 21 25 30q9 6 45 22q12 -19 12 -38l-4 -28l6 -23 l-2 -38l1 -84q0 -23 -5 -43l-9 -41v-2l17 -66l-5 -49l6 -22q-2 -10 -22 -20q15 -27 15 -35l-4 -82l3 -66l-12 -47l5 -66l-6 -92l6 -53l-7 -36l5 -93l-2 -27l-8 10q-15 -15 -15 -25q0 -20 29 -38q8 -32 8 -56q0 -37 -15 -75q-14 -36 -56 -99l-15 -21l-40 -23l-8 22l-47 71 l-59 75l-45 79l-16 21l3 23q0 21 -35 50q-42 34 -53 49l-56 99l-29 34l-18 52q-18 40 -64 41l-12 23l-57 95l-16 53l-33 38l-7 -8l-17 9q-31 55 -67 98q-32 37 -63 53q8 30 8 36q0 10 -5 18q-4 7 -13 7l-23 -8q-17 16 -27 16l-21 -10l23 -47l-25 -9l6 -16l-8 -43l5 -87 l-6 -27l-18 -9l4 -25l16 -57q1 -1 1 -5q0 -17 -25 -48l9 -41l8 -22l1 -295l11 -86q0 -4 -1 -6l-13 -59l3 -10q19 -13 19 -24q0 -17 -49 -84l-13 -18l-23 2q-23 -23 -31 -23q-1 0 -2 1l-22 2l-16 -5l2 25q0 25 8 36l23 29l16 24l-23 21l5 24l14 28q-10 24 -10 34q0 6 1 7 l15 53l-5 115q7 16 32 21v10l-23 25l3 23l-4 21l6 57q0 3 -1 4l-13 44l7 56l-4 41q0 22 27 38l-2 27l-14 31q0 9 7 30q-18 15 -18 32q0 19 12 62l-10 15l-2 28l-10 68q0 9 10 30v22q0 63 -11 76z" />
<glyph unicode="&#xd2;" d="M788 1760l-23 39q23 14 34 14l51 -6l66 -3q31 0 50 -8q17 -9 27 -30q-15 -9 -23 -20l9 -21l10 -38l44 -70l11 -32l-9 -8q8 -15 12 -18q4 -4 16 -4l14 -13l-23 -34q-15 -3 -21 -3q-13 0 -37 10l-8 -3q-4 17 -7 20l-27 46q-10 17 -33 31q-13 33 -28 47q-16 15 -49 24 l-13 25l-18 30zM192 768l-1 -11q36 -21 36 -44l-2 -70l15 -102l-3 -26l34 -53q-24 -13 -24 -27q0 -27 32 -27q-2 0 20 2l38 -45q-13 -14 -13 -23l7 -17h8l42 -38l52 -30l76 -59l55 -11l33 -34l103 -38l86 -38l28 3l185 -26l30 -3l21 3l39 10l100 -6l43 8l76 30l29 9l15 -13 q33 8 34 18l9 34l101 85l40 71l17 29h11l13 28l-6 9l6 19l3 82l16 38l4 29l16 10l10 63q-21 38 -21 54v3l4 96l-1 31q29 20 29 41q0 43 -56 52l-6 55l-50 76l-7 31l-12 2l-20 23l-45 53l-41 27l-40 33l-20 5l-12 23l-19 -1q-23 0 -43 11l-89 49l-88 13l-64 13l-62 -3l-46 1 l-49 -15l-44 -7l-47 -26l-24 5h-1l-24 -7l-111 -61l-27 -4q-31 -41 -49 -47l-27 -10l-88 -86l-16 -13q-32 -26 -74 -99l-11 -19l-20 -3l-10 -21l-13 -51l-12 -15l-6 -20l-40 6q-5 -15 -11 -21q-7 -7 -21 -13zM68 521l6 86l7 23l6 56l50 129l7 21q16 52 65 79v12l51 59 q8 -5 14 -5q16 0 20 12l16 43l17 25q13 21 31 32l32 15l25 32l64 44q53 40 72 40l16 -5l28 32l18 3l187 76q15 7 39 7q19 0 52 -11l17 4l5 18l28 -3l17 -2h4l49 12l78 -3l39 8l33 -4l30 1l35 -12l61 -11l42 -23l123 -45l11 -11l24 -14v-10l-5 -3q-7 -7 -7 -13q0 -8 21 -22 l6 8q21 0 33 -22q0 -19 5 -31q4 -10 17 -20q21 8 30 8q26 0 42 -21l17 -22l37 -32l5 -23l23 -31l8 -27q-18 -21 -18 -34q0 -5 3 -10l60 -62l5 -23l16 -47q0 -9 -5 -24l-12 -8v-11l16 -2l3 -21l10 -77q0 -7 -1 -9l-20 -61l4 -50l-14 -28q-9 3 -14 3q-18 0 -18 -33q0 -4 2 -6 q21 -30 21 -43q0 -6 -4 -14q-21 -18 -29 -45l-22 -10l6 -6l-7 -7l16 -12l-1 -7l-18 -15l-23 -39l-16 -17q-13 13 -23 13q-18 0 -18 -20q0 -10 17 -27q-31 -52 -103 -98q-70 -45 -146 -81q-83 -39 -130 -49l-20 -4q-70 -14 -93 -14h-5l-38 3l-26 -5l-35 23l-29 -14 q-18 -12 -26 -12h-9q-6 16 -16 28q-8 7 -26 15q-59 -32 -96 -32q-9 0 -23 8q-16 0 -24 2l-68 21l-61 -3l-22 19l-33 -3l-29 3l-41 13l-126 27l-35 29l-46 16l-46 50q-16 11 -47 11l-27 32q8 21 8 30q0 30 -73 42v7l-13 6l-12 21l-10 11l-1 23l-21 59l-4 21z" />
<glyph unicode="&#xd3;" d="M945 1479l-3 20q18 63 35 93l39 65q27 44 27 53l-5 35l-15 11l20 38l46 2l108 17h6q13 0 30 -14l-11 -16l-55 -93l-37 -42l-24 -25l4 -11l-12 -24l-41 -60l-39 -34l-12 -20h-6v5h-55zM192 768l-1 -11q36 -21 36 -44l-2 -70l15 -102l-3 -26l34 -53q-24 -13 -24 -27 q0 -27 32 -27q-2 0 20 2l38 -45q-13 -14 -13 -23l7 -17h8l42 -38l52 -30l76 -59l55 -11l33 -34l103 -38l86 -38l28 3l185 -26l30 -3l21 3l39 10l100 -6l43 8l76 30l29 9l15 -13q33 8 34 18l9 34l101 85l40 71l17 29h11l13 28l-6 9l6 19l3 82l16 38l4 29l16 10l10 63 q-21 38 -21 54v3l4 96l-1 31q29 20 29 41q0 43 -56 52l-6 55l-50 76l-7 31l-12 2l-20 23l-45 53l-41 27l-40 33l-20 5l-12 23l-19 -1q-23 0 -43 11l-89 49l-88 13l-64 13l-62 -3l-46 1l-49 -15l-44 -7l-47 -26l-24 5h-1l-24 -7l-111 -61l-27 -4q-31 -41 -49 -47l-27 -10 l-88 -86l-16 -13q-32 -26 -74 -99l-11 -19l-20 -3l-10 -21l-13 -51l-12 -15l-6 -20l-40 6q-5 -15 -11 -21q-7 -7 -21 -13zM68 521l6 86l7 23l6 56l50 129l7 21q16 52 65 79v12l51 59q8 -5 14 -5q16 0 20 12l16 43l17 25q13 21 31 32l32 15l25 32l64 44q53 40 72 40l16 -5 l28 32l18 3l187 76q15 7 39 7q19 0 52 -11l17 4l5 18l28 -3l17 -2h4l49 12l78 -3l39 8l33 -4l30 1l35 -12l61 -11l42 -23l123 -45l11 -11l24 -14v-10l-5 -3q-7 -7 -7 -13q0 -8 21 -22l6 8q21 0 33 -22q0 -19 5 -31q4 -10 17 -20q21 8 30 8q26 0 42 -21l17 -22l37 -32l5 -23 l23 -31l8 -27q-18 -21 -18 -34q0 -5 3 -10l60 -62l5 -23l16 -47q0 -9 -5 -24l-12 -8v-11l16 -2l3 -21l10 -77q0 -7 -1 -9l-20 -61l4 -50l-14 -28q-9 3 -14 3q-18 0 -18 -33q0 -4 2 -6q21 -30 21 -43q0 -6 -4 -14q-21 -18 -29 -45l-22 -10l6 -6l-7 -7l16 -12l-1 -7l-18 -15 l-23 -39l-16 -17q-13 13 -23 13q-18 0 -18 -20q0 -10 17 -27q-31 -52 -103 -98q-70 -45 -146 -81q-83 -39 -130 -49l-20 -4q-70 -14 -93 -14h-5l-38 3l-26 -5l-35 23l-29 -14q-18 -12 -26 -12h-9q-6 16 -16 28q-8 7 -26 15q-59 -32 -96 -32q-9 0 -23 8q-16 0 -24 2l-68 21 l-61 -3l-22 19l-33 -3l-29 3l-41 13l-126 27l-35 29l-46 16l-46 50q-16 11 -47 11l-27 32q8 21 8 30q0 30 -73 42v7l-13 6l-12 21l-10 11l-1 23l-21 59l-4 21z" />
<glyph unicode="&#xd4;" d="M1167 1467l-29 43q-22 4 -32 10t-35 31l-18 16q7 13 7 23q0 8 -8 22l-23 1l-16 24q-19 32 -30 43q-10 9 -29 9l-46 -5l1 -13l-19 -18q-50 -47 -59 -68l-14 -30l-23 -28l-17 -24l-31 -20l-31 -30q-13 -12 -41 -22q-27 -10 -46 -10q-10 0 -27 15q26 38 38 45l69 38l27 38 l66 62l11 27l62 64l40 45l107 67l26 26l14 10l26 30q15 0 23 -7q9 -7 9 -19q0 -7 -5 -15l-28 -43q0 -19 24 -46l-9 -7l1 -20l27 -14l26 -9l61 -62l15 -18q-7 -15 -7 -40l65 -24l11 -24q5 -16 5 -18q2 -8 11 -14l71 14l12 -13q-66 -89 -130 -89l-40 11l-1 22q-36 14 -61 14z M192 768l-1 -11q36 -21 36 -44l-2 -70l15 -102l-3 -26l34 -53q-24 -13 -24 -27q0 -27 32 -27q-2 0 20 2l38 -45q-13 -14 -13 -23l7 -17h8l42 -38l52 -30l76 -59l55 -11l33 -34l103 -38l86 -38l28 3l185 -26l30 -3l21 3l39 10l100 -6l43 8l76 30l29 9l15 -13q33 8 34 18l9 34 l101 85l40 71l17 29h11l13 28l-6 9l6 19l3 82l16 38l4 29l16 10l10 63q-21 38 -21 54v3l4 96l-1 31q29 20 29 41q0 43 -56 52l-6 55l-50 76l-7 31l-12 2l-20 23l-45 53l-41 27l-40 33l-20 5l-12 23l-19 -1q-23 0 -43 11l-89 49l-88 13l-64 13l-62 -3l-46 1l-49 -15l-44 -7 l-47 -26l-24 5h-1l-24 -7l-111 -61l-27 -4q-31 -41 -49 -47l-27 -10l-88 -86l-16 -13q-32 -26 -74 -99l-11 -19l-20 -3l-10 -21l-13 -51l-12 -15l-6 -20l-40 6q-5 -15 -11 -21q-7 -7 -21 -13zM68 521l6 86l7 23l6 56l50 129l7 21q16 52 65 79v12l51 59q8 -5 14 -5 q16 0 20 12l16 43l17 25q13 21 31 32l32 15l25 32l64 44q53 40 72 40l16 -5l28 32l18 3l187 76q15 7 39 7q19 0 52 -11l17 4l5 18l28 -3l17 -2h4l49 12l78 -3l39 8l33 -4l30 1l35 -12l61 -11l42 -23l123 -45l11 -11l24 -14v-10l-5 -3q-7 -7 -7 -13q0 -8 21 -22l6 8 q21 0 33 -22q0 -19 5 -31q4 -10 17 -20q21 8 30 8q26 0 42 -21l17 -22l37 -32l5 -23l23 -31l8 -27q-18 -21 -18 -34q0 -5 3 -10l60 -62l5 -23l16 -47q0 -9 -5 -24l-12 -8v-11l16 -2l3 -21l10 -77q0 -7 -1 -9l-20 -61l4 -50l-14 -28q-9 3 -14 3q-18 0 -18 -33q0 -4 2 -6 q21 -30 21 -43q0 -6 -4 -14q-21 -18 -29 -45l-22 -10l6 -6l-7 -7l16 -12l-1 -7l-18 -15l-23 -39l-16 -17q-13 13 -23 13q-18 0 -18 -20q0 -10 17 -27q-31 -52 -103 -98q-70 -45 -146 -81q-83 -39 -130 -49l-20 -4q-70 -14 -93 -14h-5l-38 3l-26 -5l-35 23l-29 -14 q-18 -12 -26 -12h-9q-6 16 -16 28q-8 7 -26 15q-59 -32 -96 -32q-9 0 -23 8q-16 0 -24 2l-68 21l-61 -3l-22 19l-33 -3l-29 3l-41 13l-126 27l-35 29l-46 16l-46 50q-16 11 -47 11l-27 32q8 21 8 30q0 30 -73 42v7l-13 6l-12 21l-10 11l-1 23l-21 59l-4 21z" />
<glyph unicode="&#xd5;" d="M739 1666l64 30l102 48q6 3 11 3q22 0 52 -13l30 -11q13 -13 17 -34l28 -4l58 -44l26 -11l12 14l8 -2l23 -15q22 0 66 22l20 14l18 37q6 13 24 16l36 6l26 15l26 -37l-40 -31l-46 -51q-16 -19 -48 -26l-10 -21l-22 -6l-54 -34l-34 -12l-31 -26l-35 9q-36 23 -87 40 q-7 18 -15 26q-8 5 -31 10l-10 -15q-16 26 -54 40l-28 10l-34 -12l-46 -15l-19 -18l-38 11h-6l-3 -10l-12 6l-13 -8l-2 -14l8 -3l-2 -18q-49 -24 -72 -24q-28 0 -28 22q0 17 31 36q96 59 134 100zM192 768l-1 -11q36 -21 36 -44l-2 -70l15 -102l-3 -26l34 -53 q-24 -13 -24 -27q0 -27 32 -27q-2 0 20 2l38 -45q-13 -14 -13 -23l7 -17h8l42 -38l52 -30l76 -59l55 -11l33 -34l103 -38l86 -38l28 3l185 -26l30 -3l21 3l39 10l100 -6l43 8l76 30l29 9l15 -13q33 8 34 18l9 34l101 85l40 71l17 29h11l13 28l-6 9l6 19l3 82l16 38l4 29 l16 10l10 63q-21 38 -21 54v3l4 96l-1 31q29 20 29 41q0 43 -56 52l-6 55l-50 76l-7 31l-12 2l-20 23l-45 53l-41 27l-40 33l-20 5l-12 23l-19 -1q-23 0 -43 11l-89 49l-88 13l-64 13l-62 -3l-46 1l-49 -15l-44 -7l-47 -26l-24 5h-1l-24 -7l-111 -61l-27 -4q-31 -41 -49 -47 l-27 -10l-88 -86l-16 -13q-32 -26 -74 -99l-11 -19l-20 -3l-10 -21l-13 -51l-12 -15l-6 -20l-40 6q-5 -15 -11 -21q-7 -7 -21 -13zM68 521l6 86l7 23l6 56l50 129l7 21q16 52 65 79v12l51 59q8 -5 14 -5q16 0 20 12l16 43l17 25q13 21 31 32l32 15l25 32l64 44q53 40 72 40 l16 -5l28 32l18 3l187 76q15 7 39 7q19 0 52 -11l17 4l5 18l28 -3l17 -2h4l49 12l78 -3l39 8l33 -4l30 1l35 -12l61 -11l42 -23l123 -45l11 -11l24 -14v-10l-5 -3q-7 -7 -7 -13q0 -8 21 -22l6 8q21 0 33 -22q0 -19 5 -31q4 -10 17 -20q21 8 30 8q26 0 42 -21l17 -22l37 -32 l5 -23l23 -31l8 -27q-18 -21 -18 -34q0 -5 3 -10l60 -62l5 -23l16 -47q0 -9 -5 -24l-12 -8v-11l16 -2l3 -21l10 -77q0 -7 -1 -9l-20 -61l4 -50l-14 -28q-9 3 -14 3q-18 0 -18 -33q0 -4 2 -6q21 -30 21 -43q0 -6 -4 -14q-21 -18 -29 -45l-22 -10l6 -6l-7 -7l16 -12l-1 -7 l-18 -15l-23 -39l-16 -17q-13 13 -23 13q-18 0 -18 -20q0 -10 17 -27q-31 -52 -103 -98q-70 -45 -146 -81q-83 -39 -130 -49l-20 -4q-70 -14 -93 -14h-5l-38 3l-26 -5l-35 23l-29 -14q-18 -12 -26 -12h-9q-6 16 -16 28q-8 7 -26 15q-59 -32 -96 -32q-9 0 -23 8q-16 0 -24 2 l-68 21l-61 -3l-22 19l-33 -3l-29 3l-41 13l-126 27l-35 29l-46 16l-46 50q-16 11 -47 11l-27 32q8 21 8 30q0 30 -73 42v7l-13 6l-12 21l-10 11l-1 23l-21 59l-4 21z" />
<glyph unicode="&#xd6;" d="M1053 1630l2 11l122 94l22 -17l70 -41q47 -26 47 -57q0 -24 -30 -47l-56 -46l-17 -18l-28 14l-27 30l-38 32l-24 29q-11 8 -43 16zM599 1605l-39 10l4 25l20 13l44 34l22 26l28 23l13 -12l22 -14l63 -30q30 -18 42 -55l-13 -21l-12 -35l-53 -47l-18 -19l-25 11zM192 768 l-1 -11q36 -21 36 -44l-2 -70l15 -102l-3 -26l34 -53q-24 -13 -24 -27q0 -27 32 -27q-2 0 20 2l38 -45q-13 -14 -13 -23l7 -17h8l42 -38l52 -30l76 -59l55 -11l33 -34l103 -38l86 -38l28 3l185 -26l30 -3l21 3l39 10l100 -6l43 8l76 30l29 9l15 -13q33 8 34 18l9 34l101 85 l40 71l17 29h11l13 28l-6 9l6 19l3 82l16 38l4 29l16 10l10 63q-21 38 -21 54v3l4 96l-1 31q29 20 29 41q0 43 -56 52l-6 55l-50 76l-7 31l-12 2l-20 23l-45 53l-41 27l-40 33l-20 5l-12 23l-19 -1q-23 0 -43 11l-89 49l-88 13l-64 13l-62 -3l-46 1l-49 -15l-44 -7l-47 -26 l-24 5h-1l-24 -7l-111 -61l-27 -4q-31 -41 -49 -47l-27 -10l-88 -86l-16 -13q-32 -26 -74 -99l-11 -19l-20 -3l-10 -21l-13 -51l-12 -15l-6 -20l-40 6q-5 -15 -11 -21q-7 -7 -21 -13zM68 521l6 86l7 23l6 56l50 129l7 21q16 52 65 79v12l51 59q8 -5 14 -5q16 0 20 12l16 43 l17 25q13 21 31 32l32 15l25 32l64 44q53 40 72 40l16 -5l28 32l18 3l187 76q15 7 39 7q19 0 52 -11l17 4l5 18l28 -3l17 -2h4l49 12l78 -3l39 8l33 -4l30 1l35 -12l61 -11l42 -23l123 -45l11 -11l24 -14v-10l-5 -3q-7 -7 -7 -13q0 -8 21 -22l6 8q21 0 33 -22q0 -19 5 -31 q4 -10 17 -20q21 8 30 8q26 0 42 -21l17 -22l37 -32l5 -23l23 -31l8 -27q-18 -21 -18 -34q0 -5 3 -10l60 -62l5 -23l16 -47q0 -9 -5 -24l-12 -8v-11l16 -2l3 -21l10 -77q0 -7 -1 -9l-20 -61l4 -50l-14 -28q-9 3 -14 3q-18 0 -18 -33q0 -4 2 -6q21 -30 21 -43q0 -6 -4 -14 q-21 -18 -29 -45l-22 -10l6 -6l-7 -7l16 -12l-1 -7l-18 -15l-23 -39l-16 -17q-13 13 -23 13q-18 0 -18 -20q0 -10 17 -27q-31 -52 -103 -98q-70 -45 -146 -81q-83 -39 -130 -49l-20 -4q-70 -14 -93 -14h-5l-38 3l-26 -5l-35 23l-29 -14q-18 -12 -26 -12h-9q-6 16 -16 28 q-8 7 -26 15q-59 -32 -96 -32q-9 0 -23 8q-16 0 -24 2l-68 21l-61 -3l-22 19l-33 -3l-29 3l-41 13l-126 27l-35 29l-46 16l-46 50q-16 11 -47 11l-27 32q8 21 8 30q0 30 -73 42v7l-13 6l-12 21l-10 11l-1 23l-21 59l-4 21z" />
<glyph unicode="&#xd7;" horiz-adv-x="0" />
<glyph unicode="&#xfd;" horiz-adv-x="0" />
<glyph unicode="&#xd8;" d="M1546 319l28 27l8 57l-6 47l24 74l4 21l12 4l12 66l-21 52l3 105l-1 22q30 23 30 44q0 43 -57 53q0 39 -6 55q-7 16 -40 62l-13 21l-1 17l-18 13l-62 75l-32 10l-22 -26l-78 -80l-34 -53l-158 -154q-40 -61 -48 -67q-11 -9 -58 -27l7 -22l-25 -27l-25 7q-14 -8 -20 -15 q-5 -7 -10 -24l12 -3l-4 -16l-17 -18l-126 -127l-23 -37l-20 -10l-17 2l-31 -30v-13q0 -22 -18 -28l-38 -11l-4 -42l-52 -53l-38 -47l-21 -24l29 -11l32 -32l128 -47l50 -27l25 4l188 -27l103 9l94 -5l43 9l90 34l24 5l4 -12l21 7l22 22l1 21l94 74zM225 806l-33 -36l26 -27 q15 -16 15 -60l-1 -12l-3 -69l13 -70l-1 -15l30 -47l-21 -36l4 -16l47 -4l35 -46q-11 -14 -11 -21q0 -5 6 -17l15 -1q20 -27 40 -39l55 -32l17 -11l46 42l31 35l21 24q9 9 19 13q15 6 31 11q6 25 13 35q5 9 29 33l47 53l33 35q41 26 45 31q4 4 4 24l39 40l14 22l78 80l19 26 l65 30l-10 26l13 26q45 3 48 18l3 31q4 16 43 50l16 16l17 -2q16 0 22 13l16 41l33 48l130 129l18 33l-28 5l-45 12l-90 48l-83 14l-80 15l-55 -4l-45 -1l-50 -14l-44 -8l-46 -22l-22 4l-114 -60l-48 -13l-47 -49l-30 -10l-45 -46l-59 -53l-72 -96l-33 -26l-15 -31l-9 -41 l-9 -12l-7 -20zM745 12l-22 11l-13 -1l-18 -2l-34 1l-43 20h-26l-7 -1l-87 19l-64 23l-48 -37l-47 -61l-31 -30l-18 -21l-31 -6l-18 -34l-53 -73l-14 -24l-29 -18l-18 -21l-57 -16l-19 -2l-24 3q-62 6 -62 25l-1 4l19 16l64 50l40 36l24 27l35 6l40 55l131 133l22 24l-22 26 l-27 29l-55 18l-22 27q10 16 10 27q0 6 -6 18l-25 17l-57 25l-23 56l-20 57l-14 87l-4 17l4 43l2 47l12 41v41l51 128l6 20l53 72l14 21l12 9l36 48l17 -2q9 0 14 8q4 7 22 50q19 44 87 70q21 44 86 76l59 33l17 2l31 27l65 22l141 57l41 5l65 -6l12 24l19 -10l74 12l75 -3 l33 9l49 -5l29 2l25 -11l68 -12l38 -25l38 -5l22 -12l30 28l33 35l26 47l11 20q15 2 19 7q6 7 7 26l25 -7l6 16l-18 28q40 36 62 46q23 9 64 9l65 2l22 -7l7 -26l-19 -15l-33 -39l-71 -72l-62 -91l-71 -69l-15 -17l17 -23l22 14l22 -26l7 -32l10 -18l35 8l29 -11l28 -31 l22 -14l18 -18l3 -21l24 -35l7 -25q-19 -25 -19 -31q0 1 2 -5l61 -68l6 -21l13 -33l3 -20l-4 -44l9 -28l1 -53l5 -26l-17 -48l5 -49l-16 -43l-21 6l-12 -29l19 -34v-36l-32 -45l-15 -8l-3 -12l16 -20l-21 -17l-16 -30l-20 -24q-16 13 -25 13q-16 0 -16 -18q0 -16 10 -40 l-89 -88l-180 -93l-24 -7l-90 -33q-48 -15 -108 -15l-40 2l-26 -5l-30 26l-57 -29l-16 7l-33 36l-21 -9l-60 -16l-22 -7l-39 13z" />
<glyph unicode="&#xd9;" horiz-adv-x="1640" d="M651 1760l-23 39q23 14 34 14l51 -6l66 -3q31 0 50 -8q17 -9 27 -30q-15 -9 -23 -20l9 -21l10 -38l44 -70l11 -32l-9 -8q8 -15 12 -18q4 -4 16 -4l14 -13l-23 -34q-15 -3 -21 -3q-13 0 -37 10l-8 -3q-4 17 -7 20l-27 46q-10 17 -33 31q-13 33 -28 47q-16 15 -49 24 l-13 25l-18 30zM116 639l17 17q17 -5 26 -5q14 0 14 12q0 13 -19 23l-1 40l-20 7l24 123l10 22l11 18l23 70l16 26l8 22l25 24q-5 30 -5 33q0 21 9 40q10 19 37 61l-19 10l-21 -10q-10 24 -10 38t17 28q16 13 40 13l23 -1l10 17l25 4l99 48l28 11q20 -25 20 -42 q0 -11 -7 -17l-20 -17l-44 -62l-13 -11l-2 -30l-27 -40l-37 -52l-22 -36l-25 -97l-26 -76l-4 -59l-28 -80l-1 -37l-18 -76l8 -49l-9 -37l34 -112l3 -23q-30 -4 -30 -40q0 -19 36 -24l10 -25l17 -47l48 -64l8 -23l20 -8l37 -31l94 -28l63 -18l36 -12q26 -30 39 -30t29 37 l116 6l21 -19l22 11l71 26l27 20l77 35l50 43l25 4l68 43l47 13q4 4 8 13l-18 11l21 14l34 27l61 99l31 24q9 12 9 41l-1 13v59l1 73q15 12 20 22q4 7 4 31l-36 27l-10 224l13 21q-11 17 -11 28q0 15 12 43l-12 8l-2 24l-8 87q0 14 18 38l-47 47l12 33l20 1q33 33 52 39 l22 7l20 13l26 -4q19 28 28 35q8 5 29 5l11 -25v-25l-2 -60l-21 -74l3 -36l-6 -29l14 -47q1 0 1 -1v-1q0 -15 -24 -57l-13 -26l-23 -5l14 -20q37 -49 37 -66l-10 -60l-1 -33l-13 -3l9 -12l-8 -32v-3l18 -121l-6 -25q-25 -12 -25 -27t27 -36l2 -86l-8 -25q-3 -12 -3 -15 q0 -10 12 -34q10 -21 10 -41q0 -17 -15 -40q21 -20 24 -29l-1 -79l5 -100v-5q-1 -2 -1 -7q-25 -5 -39 -14q-20 -12 -65 -48l-9 -15l-19 3l-38 -31q-11 24 -11 41q0 32 17 54h14q0 14 -5 22q-5 6 -23 11l2 100l9 6l-7 47q-12 5 -16 5l-10 -2l-11 -10q-4 1 -17 1q-12 0 -18 -6 l-24 -17l-41 -19l-150 -103l-49 -17l-66 -35l-88 -30l-67 -21q-40 -18 -63 -18h-35l-61 -22l-56 -1l-34 -4l-31 4l-74 14l-45 21l-34 9l-39 39l-18 19l-33 -4l-19 16l-12 21l-35 29q-11 16 -11 64v16l-31 16l-12 35l-15 61l-9 22l28 51q-26 23 -37 42q-10 17 -10 43 q0 19 8 41l25 60z" />
<glyph unicode="&#xda;" horiz-adv-x="1640" d="M902 1479l-3 20q18 63 35 93l39 65q27 44 27 53l-5 35l-15 11l20 38l46 2l108 17h6q13 0 30 -14l-11 -16l-55 -93l-37 -42l-24 -25l4 -11l-12 -24l-41 -60l-39 -34l-12 -20h-6v5h-55zM116 639l17 17q17 -5 26 -5q14 0 14 12q0 13 -19 23l-1 40l-20 7l24 123l10 22l11 18 l23 70l16 26l8 22l25 24q-5 30 -5 33q0 21 9 40q10 19 37 61l-19 10l-21 -10q-10 24 -10 38t17 28q16 13 40 13l23 -1l10 17l25 4l99 48l28 11q20 -25 20 -42q0 -11 -7 -17l-20 -17l-44 -62l-13 -11l-2 -30l-27 -40l-37 -52l-22 -36l-25 -97l-26 -76l-4 -59l-28 -80l-1 -37 l-18 -76l8 -49l-9 -37l34 -112l3 -23q-30 -4 -30 -40q0 -19 36 -24l10 -25l17 -47l48 -64l8 -23l20 -8l37 -31l94 -28l63 -18l36 -12q26 -30 39 -30t29 37l116 6l21 -19l22 11l71 26l27 20l77 35l50 43l25 4l68 43l47 13q4 4 8 13l-18 11l21 14l34 27l61 99l31 24q9 12 9 41 l-1 13v59l1 73q15 12 20 22q4 7 4 31l-36 27l-10 224l13 21q-11 17 -11 28q0 15 12 43l-12 8l-2 24l-8 87q0 14 18 38l-47 47l12 33l20 1q33 33 52 39l22 7l20 13l26 -4q19 28 28 35q8 5 29 5l11 -25v-25l-2 -60l-21 -74l3 -36l-6 -29l14 -47q1 0 1 -1v-1q0 -15 -24 -57 l-13 -26l-23 -5l14 -20q37 -49 37 -66l-10 -60l-1 -33l-13 -3l9 -12l-8 -32v-3l18 -121l-6 -25q-25 -12 -25 -27t27 -36l2 -86l-8 -25q-3 -12 -3 -15q0 -10 12 -34q10 -21 10 -41q0 -17 -15 -40q21 -20 24 -29l-1 -79l5 -100v-5q-1 -2 -1 -7q-25 -5 -39 -14q-20 -12 -65 -48 l-9 -15l-19 3l-38 -31q-11 24 -11 41q0 32 17 54h14q0 14 -5 22q-5 6 -23 11l2 100l9 6l-7 47q-12 5 -16 5l-10 -2l-11 -10q-4 1 -17 1q-12 0 -18 -6l-24 -17l-41 -19l-150 -103l-49 -17l-66 -35l-88 -30l-67 -21q-40 -18 -63 -18h-35l-61 -22l-56 -1l-34 -4l-31 4l-74 14 l-45 21l-34 9l-39 39l-18 19l-33 -4l-19 16l-12 21l-35 29q-11 16 -11 64v16l-31 16l-12 35l-15 61l-9 22l28 51q-26 23 -37 42q-10 17 -10 43q0 19 8 41l25 60z" />
<glyph unicode="&#xdb;" horiz-adv-x="1640" d="M1058 1467l-29 43q-22 4 -32 10t-35 31l-18 16q7 13 7 23q0 8 -8 22l-23 1l-16 24q-19 32 -30 43q-10 9 -29 9l-46 -5l1 -13l-19 -18q-50 -47 -59 -68l-14 -30l-23 -28l-17 -24l-31 -20l-31 -30q-13 -12 -41 -22q-27 -10 -46 -10q-10 0 -27 15q26 38 38 45l69 38l27 38 l66 62l11 27l62 64l40 45l107 67l26 26l14 10l26 30q15 0 23 -7q9 -7 9 -19q0 -7 -5 -15l-28 -43q0 -19 24 -46l-9 -7l1 -20l27 -14l26 -9l61 -62l15 -18q-7 -15 -7 -40l65 -24l11 -24q5 -16 5 -18q2 -8 11 -14l71 14l12 -13q-66 -89 -130 -89l-40 11l-1 22q-36 14 -61 14z M116 639l17 17q17 -5 26 -5q14 0 14 12q0 13 -19 23l-1 40l-20 7l24 123l10 22l11 18l23 70l16 26l8 22l25 24q-5 30 -5 33q0 21 9 40q10 19 37 61l-19 10l-21 -10q-10 24 -10 38t17 28q16 13 40 13l23 -1l10 17l25 4l99 48l28 11q20 -25 20 -42q0 -11 -7 -17l-20 -17 l-44 -62l-13 -11l-2 -30l-27 -40l-37 -52l-22 -36l-25 -97l-26 -76l-4 -59l-28 -80l-1 -37l-18 -76l8 -49l-9 -37l34 -112l3 -23q-30 -4 -30 -40q0 -19 36 -24l10 -25l17 -47l48 -64l8 -23l20 -8l37 -31l94 -28l63 -18l36 -12q26 -30 39 -30t29 37l116 6l21 -19l22 11l71 26 l27 20l77 35l50 43l25 4l68 43l47 13q4 4 8 13l-18 11l21 14l34 27l61 99l31 24q9 12 9 41l-1 13v59l1 73q15 12 20 22q4 7 4 31l-36 27l-10 224l13 21q-11 17 -11 28q0 15 12 43l-12 8l-2 24l-8 87q0 14 18 38l-47 47l12 33l20 1q33 33 52 39l22 7l20 13l26 -4q19 28 28 35 q8 5 29 5l11 -25v-25l-2 -60l-21 -74l3 -36l-6 -29l14 -47q1 0 1 -1v-1q0 -15 -24 -57l-13 -26l-23 -5l14 -20q37 -49 37 -66l-10 -60l-1 -33l-13 -3l9 -12l-8 -32v-3l18 -121l-6 -25q-25 -12 -25 -27t27 -36l2 -86l-8 -25q-3 -12 -3 -15q0 -10 12 -34q10 -21 10 -41 q0 -17 -15 -40q21 -20 24 -29l-1 -79l5 -100v-5q-1 -2 -1 -7q-25 -5 -39 -14q-20 -12 -65 -48l-9 -15l-19 3l-38 -31q-11 24 -11 41q0 32 17 54h14q0 14 -5 22q-5 6 -23 11l2 100l9 6l-7 47q-12 5 -16 5l-10 -2l-11 -10q-4 1 -17 1q-12 0 -18 -6l-24 -17l-41 -19l-150 -103 l-49 -17l-66 -35l-88 -30l-67 -21q-40 -18 -63 -18h-35l-61 -22l-56 -1l-34 -4l-31 4l-74 14l-45 21l-34 9l-39 39l-18 19l-33 -4l-19 16l-12 21l-35 29q-11 16 -11 64v16l-31 16l-12 35l-15 61l-9 22l28 51q-26 23 -37 42q-10 17 -10 43q0 19 8 41l25 60z" />
<glyph unicode="&#xdc;" horiz-adv-x="1640" d="M985 1630l2 11l122 94l22 -17l70 -41q47 -26 47 -57q0 -24 -30 -47l-56 -46l-17 -18l-28 14l-27 30l-38 32l-24 29q-11 8 -43 16zM531 1605l-39 10l4 25l20 13l44 34l22 26l28 23l13 -12l22 -14l63 -30q30 -18 42 -55l-13 -21l-12 -35l-53 -47l-18 -19l-25 11zM116 639 l17 17q17 -5 26 -5q14 0 14 12q0 13 -19 23l-1 40l-20 7l24 123l10 22l11 18l23 70l16 26l8 22l25 24q-5 30 -5 33q0 21 9 40q10 19 37 61l-19 10l-21 -10q-10 24 -10 38t17 28q16 13 40 13l23 -1l10 17l25 4l99 48l28 11q20 -25 20 -42q0 -11 -7 -17l-20 -17l-44 -62 l-13 -11l-2 -30l-27 -40l-37 -52l-22 -36l-25 -97l-26 -76l-4 -59l-28 -80l-1 -37l-18 -76l8 -49l-9 -37l34 -112l3 -23q-30 -4 -30 -40q0 -19 36 -24l10 -25l17 -47l48 -64l8 -23l20 -8l37 -31l94 -28l63 -18l36 -12q26 -30 39 -30t29 37l116 6l21 -19l22 11l71 26l27 20 l77 35l50 43l25 4l68 43l47 13q4 4 8 13l-18 11l21 14l34 27l61 99l31 24q9 12 9 41l-1 13v59l1 73q15 12 20 22q4 7 4 31l-36 27l-10 224l13 21q-11 17 -11 28q0 15 12 43l-12 8l-2 24l-8 87q0 14 18 38l-47 47l12 33l20 1q33 33 52 39l22 7l20 13l26 -4q19 28 28 35 q8 5 29 5l11 -25v-25l-2 -60l-21 -74l3 -36l-6 -29l14 -47q1 0 1 -1v-1q0 -15 -24 -57l-13 -26l-23 -5l14 -20q37 -49 37 -66l-10 -60l-1 -33l-13 -3l9 -12l-8 -32v-3l18 -121l-6 -25q-25 -12 -25 -27t27 -36l2 -86l-8 -25q-3 -12 -3 -15q0 -10 12 -34q10 -21 10 -41 q0 -17 -15 -40q21 -20 24 -29l-1 -79l5 -100v-5q-1 -2 -1 -7q-25 -5 -39 -14q-20 -12 -65 -48l-9 -15l-19 3l-38 -31q-11 24 -11 41q0 32 17 54h14q0 14 -5 22q-5 6 -23 11l2 100l9 6l-7 47q-12 5 -16 5l-10 -2l-11 -10q-4 1 -17 1q-12 0 -18 -6l-24 -17l-41 -19l-150 -103 l-49 -17l-66 -35l-88 -30l-67 -21q-40 -18 -63 -18h-35l-61 -22l-56 -1l-34 -4l-31 4l-74 14l-45 21l-34 9l-39 39l-18 19l-33 -4l-19 16l-12 21l-35 29q-11 16 -11 64v16l-31 16l-12 35l-15 61l-9 22l28 51q-26 23 -37 42q-10 17 -10 43q0 19 8 41l25 60z" />
<glyph unicode="&#xdd;" horiz-adv-x="1283" d="M116 1487l-3 20q18 63 35 93l39 65q27 44 27 53l-5 35l-15 11l20 38l46 2l108 17h6q13 0 30 -14l-11 -16l-55 -93l-37 -42l-24 -25l4 -11l-12 -24l-41 -60l-39 -34l-12 -20h-6v5h-55zM165 1338l17 1l10 -12l-13 -45l3 -17v-16l42 -48l4 -20l-3 -35l33 -25l-9 -31 q-6 -18 -6 -27t14 -20l41 5q42 0 54 -22l29 -52l21 -33l6 -19l-14 -12q23 -33 38 -33q13 0 17 1q44 -58 62 -76q28 -29 65 -57l-14 -8q9 -23 15 -29q4 -7 21 -16l11 10l56 -58q7 -49 39 -49q12 0 28 12q4 4 9 8l14 11l20 19l62 86l25 26l53 98l51 68l17 51l22 44l15 58 l40 63l8 20l50 -6q-1 22 -8 30q-6 7 -29 8l8 21q15 42 34 54l40 26q70 44 93 44q3 0 13 -3q-3 -48 -22 -77l-42 -59l-44 -82l-32 -23l-35 -88l-14 -14l-23 -35l-25 -16q-15 -12 -15 -24l2 -27l-28 -40l-26 -49l-17 -12l-41 -81q-13 -21 -55 -50l-21 -15l15 -31l-14 -20 l-37 -46l-21 -39l-17 -14l-1 -38q0 -29 -5 -42q-6 -12 -28 -31q5 -19 10 -25q4 -7 22 -20l-6 -100l-12 4l-15 -10l6 -54l17 -2l4 -92l-21 -4v-18q31 -22 31 -38q0 -5 -8 -19l-20 -1l-21 1l-22 -7q-63 -23 -95 -23q-18 0 -38 23l4 26l13 74l6 49v6l-4 75q0 11 14 30l6 15 l-7 6l-23 3l4 25l15 22l4 23l-1 39l1 29h16q0 24 -4 32q-5 10 -16 18l14 8l-12 23l-49 39l-44 56q-13 10 -39 13q-1 44 -13 55l-71 66l-2 57q-8 32 -28 32q-11 0 -25 -6q-2 28 -10 38q-9 11 -38 26l-13 -6l-28 32l-86 88l-33 46l-19 20q30 5 30 20q0 10 -8 18q-8 7 -20 7 q-14 0 -25 -4q-64 80 -64 128q0 18 9 37q9 20 20 25l61 28l49 26l12 2z" />
</font>
</defs>
</svg>
