<?xml version="1.0" standalone="no"?>
<!DOCTYPE svg PUBLIC "-//W3C//DTD SVG 1.1//EN" "http://www.w3.org/Graphics/SVG/1.1/DTD/svg11.dtd" >
<svg xmlns="http://www.w3.org/2000/svg">
<metadata></metadata>
<defs>
<font id="gillius_adf_no2_cdbold" horiz-adv-x="1136" >
<font-face units-per-em="2048" ascent="1536" descent="-512" />
<missing-glyph horiz-adv-x="614" />
<glyph unicode="&#xdf;" horiz-adv-x="1021" d="M119 2v1061q0 203 100 306.5t279 107.5q168 0 261 -131.5t99 -339.5q-70 -6 -115 -17.5t-86 -52.5t-41 -109q0 -35 28 -73.5t52 -55.5l45 -34q111 -78 162 -149.5t51 -188.5q0 -186 -100 -270.5t-266 -84.5q-102 0 -240 56v204q16 -6 50 -17t44.5 -14t34 -10.5t37.5 -9.5 t36.5 -4t49.5 -4h21q70 0 97 24.5t27 92.5v24q0 29 -5 49.5t-18 38t-22.5 26.5t-32 26.5t-32.5 27.5l-68 45q-154 113 -153 283q0 260 243 321q-18 143 -161 144q-170 0 -174 -213v-1059h-203z" />
<glyph unicode="&#xfb01;" horiz-adv-x="997" d="M47 758v166h123v114v21q0 354 287 358h127v-178h-121q-53 0 -74.5 -37t-23.5 -112v-166h505v-924h-196v758h-309v-758h-195v758h-123zM674 1300.5q0 47.5 27.5 81t68.5 33.5q43 0 70.5 -32.5t27.5 -82.5q0 -47 -27.5 -79.5t-70.5 -32.5q-41 0 -68.5 32.5t-27.5 80z" />
<glyph unicode="&#xfb02;" horiz-adv-x="1026" d="M66 760v164h120v133q0 354 332 360h365v-1417h-191v1237h-176q-55 0 -93 -37t-40 -104v-172h221v-164h-221v-760h-197v760h-120z" />
<glyph horiz-adv-x="2048" />
<glyph horiz-adv-x="2048" />
<glyph unicode="&#xd;" horiz-adv-x="681" />
<glyph unicode=" "  horiz-adv-x="614" />
<glyph unicode="&#x09;" horiz-adv-x="614" />
<glyph unicode="&#xa0;" horiz-adv-x="614" />
<glyph unicode="!" horiz-adv-x="405" d="M104 84q0 47 28 81t69 34t69.5 -34t28.5 -81t-28.5 -80t-69.5 -33t-69 33t-28 80zM115 793v624h174v-624l-23 -347h-133z" />
<glyph unicode="&#x22;" horiz-adv-x="671" d="M119 772v459h162v-459h-162zM391 772v459h162v-459h-162z" />
<glyph unicode="#" horiz-adv-x="1183" d="M27 381v180h274l61 273h-247v176h274l88 383h164l-82 -383h191l81 383h164l-80 -383h240v-176h-278l-56 -273h244v-180h-277l-81 -381h-166l75 381h-172l-92 -381h-162l80 381h-243zM469 561h186l62 273h-187z" />
<glyph unicode="$" horiz-adv-x="886" d="M59 84v211q92 -78 152.5 -103.5t173.5 -29.5v393q-326 68 -326 346q0 164 89.5 252t236.5 104v220h113v-220q104 0 268 -57v-205q-76 47 -123 63.5t-145 33.5v-369q164 -27 255 -107.5t91 -248.5q0 -332 -346 -373v-281h-113v281q-152 4 -326 90zM248 918 q0 -78 33.5 -115t103.5 -60v347q-137 -23 -137 -172zM498 168q78 18 114.5 57t38.5 123q0 86 -38 121t-115 57v-358z" />
<glyph unicode="%" horiz-adv-x="1476" d="M47 1051q0 158 74 274.5t215 116.5t217 -116.5t76 -274.5q0 -166 -73 -282t-220.5 -116t-216 113t-72.5 285zM219 1050.5q0 -96.5 27.5 -169t89.5 -74.5q119 0 123 244q0 236 -123 235q-59 0 -88 -69.5t-29 -166zM287 -29l739 1471h164l-739 -1471h-164zM844 366.5 q0 159.5 76.5 277.5t216.5 120q143 0 216.5 -119.5t73.5 -277.5q0 -160 -72.5 -278t-217.5 -118q-143 0 -218 118t-75 277.5zM1018 367q0 -238 119 -238q114 0 118 238q0 96 -28.5 167.5t-89.5 71.5q-115 0 -119 -239z" />
<glyph unicode="&#x26;" horiz-adv-x="1198" d="M55 442q0 219 201 424q-27 41 -53 101q-20 59 -21 131q0 150 97 245q88 98 241 99q145 0 260 -82v-203q-74 51 -126 74.5t-117 23.5q-74 0 -115 -47q-49 -39 -49 -98q0 -41 26 -102q27 -51 90 -131l373 -467q78 150 80 362h184q-16 -231 -151 -485l221 -285h-242l-98 127 q-176 -158 -356 -158q-195 0 -320 130t-125 341zM250 455q0 -135 75.5 -214t188.5 -79q133 0 268 100l-422 473q-111 -131 -110 -280z" />
<glyph unicode="'" horiz-adv-x="374" d="M115 1169v248h147q-4 -340 -29 -459h-94z" />
<glyph unicode="(" horiz-adv-x="485" d="M70 610q0 408 233 865h150q-102 -244 -147.5 -434.5t-47.5 -430.5q0 -236 47.5 -432t149.5 -434h-152q-233 446 -233 866z" />
<glyph unicode=")" horiz-adv-x="487" d="M27 1475h153q234 -449 234 -865q0 -207 -64.5 -438t-169.5 -428h-151q104 236 151 434.5t47 432t-48 432t-152 432.5z" />
<glyph unicode="*" horiz-adv-x="997" d="M63 1171l70 123l293 -186v334h143v-334l297 186l66 -123l-316 -172l318 -172l-68 -118l-297 178v-332h-143v332l-291 -178l-69 118l311 172z" />
<glyph unicode="+" horiz-adv-x="1052" d="M35 446v168h407v445h170v-445h406v-168h-406v-446h-170v446h-407z" />
<glyph unicode="," horiz-adv-x="432" d="M57 -197q90 68 90 187q0 29 -10 63v156h197v-154q0 -74 -91 -161t-186 -91z" />
<glyph unicode="-" horiz-adv-x="681" d="M119 395v135h442v-135h-442z" />
<glyph unicode="." horiz-adv-x="434" d="M119 0v209h194v-209h-194z" />
<glyph unicode="/" horiz-adv-x="608" d="M18 -180l402 1597h172l-406 -1597h-168z" />
<glyph unicode="0" horiz-adv-x="1026" d="M92 704.5q0 129.5 16.5 243t58.5 233t130 190.5t213 71q100 0 178 -49.5t122 -123t71.5 -177t38 -195.5t10.5 -192.5t-9.5 -192.5t-38 -193.5t-73.5 -176t-122 -123t-177 -48.5q-125 0 -212 70t-129 187.5t-59.5 232t-17.5 244zM297 704.5q0 -73.5 2 -126t13.5 -139.5 t32 -141t63.5 -96t102 -42q217 0 217 545q0 549 -217 548q-59 0 -102 -43t-63.5 -98t-32 -142t-13.5 -139.5t-2 -126z" />
<glyph unicode="1" horiz-adv-x="544" d="M53 1036v207l176 174h179v-1417h-183v1204z" />
<glyph unicode="2" horiz-adv-x="917" d="M66 0v180q10 14 214.5 267t217.5 272q51 61 90 143t39 154q0 104 -57.5 165.5t-145.5 61.5q-145 0 -346 -129v232q215 96 342 96q182 0 298 -108.5t116 -307.5q0 -70 -19.5 -135.5t-40 -104t-67.5 -112.5l-402 -488h531v-186h-770z" />
<glyph unicode="3" horiz-adv-x="940" d="M55 47v223q78 -57 147.5 -78.5t170.5 -21.5q131 0 202.5 55.5t71.5 196.5q0 121 -66.5 178t-174.5 57h-156v189h160q92 0 150 48t61 148q0 201 -215 201q-133 0 -318 -72v203q184 68 330 68q174 0 290.5 -96.5t116.5 -280.5q0 -205 -186 -303q102 -45 156.5 -136 t54.5 -204q0 -227 -131 -339t-342 -112q-141 0 -322 76z" />
<glyph unicode="4" horiz-adv-x="968" d="M45 328v204l483 885h230v-903h168v-186h-168v-328h-191v328h-522zM221 514h346v676z" />
<glyph unicode="5" horiz-adv-x="923" d="M66 39v225q150 -94 317 -94q119 0 190.5 74.5t71.5 218.5q0 137 -72.5 212t-189.5 75q-92 0 -133 -11.5t-135 -56.5l69 735h576v-194h-428l-41 -301q55 23 119 28q201 0 318.5 -132t121.5 -355q0 -238 -125 -365t-340 -127q-160 0 -319 68z" />
<glyph unicode="6" horiz-adv-x="983" d="M76 555v23q0 248 150.5 501.5t301.5 362.5h224q-94 -55 -260 -280.5t-168 -301.5q78 82 194 86q193 0 295 -135t102 -350t-107.5 -352.5t-297.5 -137.5q-152 2 -253 90.5t-141 213t-40 280.5zM293 471q0 -113 60.5 -212t154.5 -99h2q109 0 164 84t55 217q0 131 -55.5 215 t-163.5 84q-117 0 -167 -88t-50 -201z" />
<glyph unicode="7" horiz-adv-x="856" d="M35 1223v194h776v-98l-424 -1319h-203l391 1223h-540z" />
<glyph unicode="8" horiz-adv-x="1005" d="M84 408q0 246 217 344q-188 92 -188 313q0 184 109.5 280.5t279.5 96.5q168 0 278.5 -96.5t112.5 -280.5q0 -205 -174 -311q190 -98 196 -346q0 -215 -109.5 -326t-303.5 -111q-197 0 -307.5 111t-110.5 326zM289 408q0 -123 56 -185.5t157 -62.5q96 0 153.5 64.5 t57.5 183.5q0 117 -57.5 180t-153.5 63q-98 0 -155.5 -62.5t-57.5 -180.5zM313 1047q0 -100 51.5 -152.5t137.5 -52.5q78 0 131 56.5t53 148.5q0 90 -54 148t-130 58q-86 0 -137.5 -54t-51.5 -152z" />
<glyph unicode="9" horiz-adv-x="985" d="M66 952q0 215 107.5 352.5t297.5 137.5q152 -2 253 -90t141 -213t40 -281v-22q0 -248 -147.5 -503t-296.5 -362h-232q92 55 259 280.5t169 301.5q-82 -82 -194 -86q-193 0 -295 134t-102 351zM252 952q0 -131 55 -215t164 -84q102 0 157.5 76t57.5 203v10 q0 115 -59.5 213t-153.5 98h-2q-109 0 -164 -84t-55 -217z" />
<glyph unicode=":" horiz-adv-x="434" d="M119 0v250h194v-250h-194zM119 623v249h194v-249h-194z" />
<glyph unicode=";" horiz-adv-x="436" d="M51 -197q90 72 90 195q0 43 -10 70v168h199v-164q-2 -82 -92.5 -173.5t-186.5 -95.5zM133 618v254h195v-254h-195z" />
<glyph unicode="&#x3c;" horiz-adv-x="1097" d="M39 449v159l983 373v-180l-731 -273l731 -270v-180z" />
<glyph unicode="=" horiz-adv-x="1224" d="M119 291v162h985v-162h-985zM119 608v158h985v-158h-985z" />
<glyph unicode="&#x3e;" horiz-adv-x="1101" d="M74 78v180l733 270l-733 273v180l987 -373v-159z" />
<glyph unicode="?" horiz-adv-x="729" d="M35 1112v217q84 59 153.5 86t161.5 27q150 0 240 -91t92 -257q0 -57 -19.5 -107.5t-40 -79t-65.5 -84.5l-70 -94q-57 -74 -69 -104.5t-12 -124.5v-138h-187v166q0 96 25.5 158t89.5 135l72 101q68 72 75 163q0 78 -46 120t-113 42q-80 0 -143.5 -32.5t-143.5 -102.5z M217 84q0 47 27.5 81t68.5 34q43 0 71 -33t28 -82q0 -47 -28 -80t-71 -33q-41 0 -68.5 33t-27.5 80z" />
<glyph unicode="@" horiz-adv-x="1816" d="M68 514q0 164 55 314.5t160.5 272.5t276.5 193.5t382 71.5q184 0 340 -61.5t258 -166t159.5 -238.5t57.5 -279q0 -252 -163.5 -398.5t-454.5 -148.5v100q-98 -102 -256 -102q-188 0 -291 129t-103 307q0 182 101.5 311t292.5 131q186 0 256 -92v72h198v-672 q201 47 209 358q0 227 -167 390t-433 170q-295 0 -484.5 -197t-189.5 -465q0 -299 192.5 -479t465.5 -180q231 0 448 159l123 -145q-150 -106 -278.5 -155.5t-292.5 -51.5q-362 0 -612 237.5t-250 614.5zM717 508q0 -106 52 -178t149 -72q98 0 147 70.5t53 179.5 q0 111 -55 186q-59 63 -148 64q-96 0 -145 -70t-53 -180z" />
<glyph unicode="A" d="M10 0l453 1417h209l452 -1417h-209l-104 356h-487l-105 -356h-209zM383 543h371l-185 631z" />
<glyph unicode="B" horiz-adv-x="1042" d="M119 0v1417h401q383 0 393 -360q0 -94 -41 -174t-106 -117q211 -100 211 -358q0 -209 -112.5 -308.5t-309.5 -99.5h-436zM315 188h230q109 0 165 55.5t56 182.5t-55.5 179t-165.5 52h-230v-469zM315 844h207h2q185 0 187 194q0 182 -205 191h-191v-385z" />
<glyph unicode="C" horiz-adv-x="1103" d="M70 704.5q0 325.5 148.5 531.5t434.5 206q207 0 385 -139v-248q-84 104 -170 148t-206 44q-100 0 -175 -42t-118 -117.5t-64.5 -170t-23.5 -212.5q0 -244 93 -392.5t288 -148.5q117 0 201.5 43t174.5 141v-231q-162 -145 -385 -146q-287 0 -435 204t-148 529.5z" />
<glyph unicode="D" horiz-adv-x="1204" d="M119 0v1417h340q344 0 506.5 -167t162.5 -539.5t-163.5 -541.5t-505.5 -169h-340zM315 188h168q225 0 331 128.5t106 394.5q0 270 -103.5 391t-333.5 125h-168v-1039z" />
<glyph unicode="E" horiz-adv-x="952" d="M119 0v1417h768v-192h-574v-377h547v-189h-547v-469h588v-190h-782z" />
<glyph unicode="F" horiz-adv-x="851" d="M119 0v1417h700v-192h-506v-373h455v-190h-455v-662h-194z" />
<glyph unicode="G" horiz-adv-x="1208" d="M70 704.5q0 333.5 151.5 535.5t448.5 202q227 0 415 -139v-244q-100 104 -188 146t-215 42q-389 0 -399 -542q0 -254 96 -397.5t303 -143.5q129 0 244 57v348h-258v185h454v-615q-193 -168 -452 -168q-295 0 -447.5 200t-152.5 533.5z" />
<glyph unicode="H" horiz-adv-x="1159" d="M119 0v1417h196v-569h525v569h198v-1417h-198v659h-525v-659h-196z" />
<glyph unicode="I" horiz-adv-x="436" d="M119 0v1417h196v-1417h-196z" />
<glyph unicode="J" horiz-adv-x="436" d="M-104 -193h67q94 0 125 76t31 223v1311h196v-1311q0 -246 -74.5 -369.5t-267.5 -123.5h-77v194z" />
<glyph unicode="K" horiz-adv-x="1087" d="M119 0v1417h196v-571l486 571h254l-586 -661l621 -756h-250l-525 651v-651h-196z" />
<glyph unicode="L" horiz-adv-x="892" d="M119 0v1417h196v-1227h564v-190h-760z" />
<glyph unicode="M" horiz-adv-x="1398" d="M133 0v1417h199l334 -758l333 758h195v-1417h-193v1024l-335 -758l-334 758v-1024h-199z" />
<glyph unicode="N" horiz-adv-x="1150" d="M133 0v1417h199l491 -1022v1022h193v-1417h-193l-491 1018v-1018h-199z" />
<glyph unicode="O" horiz-adv-x="1253" d="M70 702q0 197 56 359t185 269.5t314 107.5q141 0 250.5 -60.5t175 -165t98.5 -234t33 -276.5q0 -201 -56.5 -361.5t-185.5 -265t-315 -104.5q-270 0 -412.5 212t-142.5 519zM281 702q0 -137 31.5 -253.5t112.5 -201.5t200 -85q117 0 197.5 83t113.5 200.5t33 256.5 q0 141 -32 258t-112 200t-200 83q-92 0 -161 -47t-108 -127t-57 -172t-18 -195z" />
<glyph unicode="P" horiz-adv-x="950" d="M119 0v1417h368q199 0 306.5 -108.5t107.5 -323.5q0 -219 -107.5 -326.5t-306.5 -107.5h-176v-551h-192zM311 743h176q94 0 146.5 62.5t56.5 179.5q0 236 -203 242h-176v-484z" />
<glyph unicode="Q" horiz-adv-x="1255" d="M70 698q0 199 56 363t185 272.5t314 108.5q186 0 315 -106.5t185.5 -269.5t56.5 -368q0 -492 -310 -671q0 -45 31 -85t64 -44h26q139 0 191 69q0 -90 -72 -151.5t-139 -61.5h-6q-117 0 -198 59.5t-91 153.5q-23 0 -34 -2t-19 -2q-184 0 -312.5 105.5t-185.5 267.5 t-57 362zM281 698q0 -98 19 -191t58 -174t109 -129t158 -48q117 0 197.5 84t113.5 201.5t33 256.5q0 145 -32 264t-112 202t-200.5 83t-200.5 -84t-111.5 -202.5t-31.5 -262.5z" />
<glyph unicode="R" horiz-adv-x="1030" d="M119 0v1417h373q413 0 413 -411q0 -135 -44 -215t-169 -121q12 -12 23.5 -24.5t22 -28t19.5 -27.5t19 -32.5t15.5 -31t15.5 -33t14 -30.5t14.5 -31.5t12.5 -28.5q4 -12 32.5 -104t62.5 -168t77 -131h-207q-43 41 -69.5 99.5t-51 143.5t-39.5 122q-82 217 -180 217h-8 h-152v-582h-194zM313 772h179q94 0 148 58.5t54 173.5q0 219 -202 225h-179v-457z" />
<glyph unicode="S" horiz-adv-x="978" d="M70 1026q0 207 115.5 311.5t308.5 104.5q186 0 352 -80v-213q-109 55 -174.5 76.5t-161.5 21.5q-229 0 -236 -207q0 -94 48.5 -132t146.5 -60l98 -21q170 -45 262.5 -145.5t92.5 -284.5q0 -225 -125 -325.5t-336 -100.5q-61 0 -137 16.5t-112 29t-134 46.5v236 q205 -137 383 -137q102 0 176 54t74 167q0 104 -49.5 150.5t-151.5 76.5l-92 21q-117 29 -187.5 68.5t-115.5 120.5t-45 206z" />
<glyph unicode="T" horiz-adv-x="1067" d="M23 1225v192h1021v-192h-409v-1225h-199v1225h-413z" />
<glyph unicode="U" horiz-adv-x="1126" d="M109 537v880h194v-856q0 -201 55.5 -300t208.5 -99q147 0 201.5 101.5t54.5 297.5v856h197v-880q0 -565 -453 -566q-459 0 -458 566z" />
<glyph unicode="V" d="M14 1417h203l354 -913l347 913h206l-553 -1446z" />
<glyph unicode="W" horiz-adv-x="1583" d="M33 1417h198l238 -842l326 875l340 -875l217 842h198l-411 -1446l-344 985l-353 -985z" />
<glyph unicode="X" horiz-adv-x="1067" d="M6 0l416 760l-365 657h211l275 -506l274 506h209l-369 -680l394 -737h-211l-308 580l-317 -580h-209z" />
<glyph unicode="Y" horiz-adv-x="1026" d="M0 1417h209l303 -561l307 561h209l-414 -747v-670h-204v670z" />
<glyph unicode="Z" horiz-adv-x="1077" d="M47 0v166l721 1059h-700v192h944l4 -162l-719 -1069h735v-186h-985z" />
<glyph unicode="[" horiz-adv-x="516" d="M119 -256v1733h354v-168h-178v-1401h178v-164h-354z" />
<glyph unicode="\" horiz-adv-x="612" d="M18 1417h168l406 -1597h-172z" />
<glyph unicode="]" horiz-adv-x="516" d="M45 -92h174v1401h-174v168h350v-1733h-350v164z" />
<glyph unicode="^" horiz-adv-x="1122" d="M33 895l438 522h174l442 -522l-196 -8l-332 346l-336 -346z" />
<glyph unicode="_" horiz-adv-x="851" d="M-16 -322h876v-137h-876v137z" />
<glyph unicode="`" horiz-adv-x="546" d="M57 1352h207l232 -312h-166z" />
<glyph unicode="a" horiz-adv-x="962" d="M74 285q0 160 105.5 239.5t269.5 79.5q100 -4 153 -31v31q-8 156 -186 164q-92 0 -150.5 -21.5t-126.5 -89.5v193q117 102 289 102q182 0 270 -95t90 -251v-393q0 -25 17.5 -41t36.5 -16h2q27 0 65 32v-4q0 -53 -58 -131t-120 -78q-51 0 -90 34t-39 85 q-90 -119 -235 -119q-137 0 -213 81t-80 229zM272 297q0 -139 131 -139q199 0 199 252q-57 29 -137 30q-92 0 -142.5 -30.5t-50.5 -112.5z" />
<glyph unicode="b" horiz-adv-x="980" d="M117 41v1376h188v-493q71 22 146 22h6q207 0 324.5 -131t117.5 -354q-4 -221 -117.5 -353.5t-316.5 -132.5q-240 0 -348 66zM305 184q70 -28 141 -28h5q237 6 237 303q0 143 -61.5 224t-175.5 81q-87 -7 -146 -23v-557z" />
<glyph unicode="c" horiz-adv-x="864" d="M78 461q0 223 117.5 354t324.5 131q94 0 266 -61v-195q-90 43 -135 56.5t-125 17.5q-115 0 -176 -81t-61 -222q0 -299 237 -305q20 0 37 1t33 3t27.5 4t27 7t24.5 8t25.5 11.5t24.5 12.5t29.5 14t31.5 16v-194q-156 -63 -276 -64q-201 0 -315.5 132.5t-116.5 353.5z" />
<glyph unicode="d" horiz-adv-x="976" d="M78 461q0 223 117.5 354t324.5 131q78 0 152 -22v493h186v-1376q-158 -66 -348 -66q-201 0 -315.5 132.5t-116.5 353.5zM289 461q0 -299 237 -305q74 0 146 28v557q-63 16 -146 23q-115 0 -176 -81t-61 -222z" />
<glyph unicode="e" horiz-adv-x="940" d="M76 453q0 203 107.5 348t291.5 145q188 0 285.5 -117.5t97.5 -320.5v-86h-575v-6q1 -98 61 -175q62 -79 162 -79q111 0 157 13t162 71v-197q-174 -74 -327 -74q-195 0 -308.5 132.5t-113.5 345.5zM289 586h379q-10 178 -193 178q-139 0 -186 -178z" />
<glyph unicode="f" horiz-adv-x="612" d="M47 760v164h121v114q8 375 242 379h155v-180h-157q-49 0 -50 -182v-131h215v-164h-215v-760h-190v760h-121z" />
<glyph unicode="g" horiz-adv-x="829" d="M14 -160q0 168 148 260q-84 66 -84 144q0 61 29.5 97t76.5 40q-66 84 -65 213q4 141 92 243.5t207 104.5q55 0 112 -27h232v-143h-113q51 -72 51 -178q0 -147 -85 -248.5t-205 -101.5q-29 0 -75 11t-67 32h-6q-43 0 -43 -41q0 -23 43 -48.5t84 -25.5q16 2 45 2 q158 0 284 -91t126 -245q0 -129 -122 -229.5t-288 -100.5t-271.5 100.5t-105.5 231.5zM199 -162q0 -76 50 -121t140 -45q92 0 150.5 45t58.5 121t-58.5 123t-150.5 47q-90 0 -140 -47t-50 -123zM279 598q0 -72 37.5 -123t93 -51t94.5 51t39 123t-39 123t-94.5 51t-93 -51 t-37.5 -123z" />
<glyph unicode="h" horiz-adv-x="970" d="M119 0v1417h190v-594q78 123 238 123q156 0 234.5 -111.5t78.5 -289.5v-545h-196v537q0 111 -34 164t-116 55q-86 0 -144.5 -69t-60.5 -181v-506h-190z" />
<glyph unicode="i" horiz-adv-x="428" d="M115 1300.5q0 47.5 28.5 81t69.5 33.5t69.5 -33.5t28.5 -81t-28.5 -80t-69.5 -32.5t-69.5 32.5t-28.5 80zM119 0v924h188v-924h-188z" />
<glyph unicode="j" horiz-adv-x="428" d="M55 -338q25 12 49 47q14 33 15 139v1076h188v-1076q0 -184 -59 -264q-47 -51 -125 -76zM115 1300.5q0 47.5 28.5 81t69.5 33.5t69.5 -33.5t28.5 -81t-28.5 -80t-69.5 -32.5t-69.5 32.5t-28.5 80z" />
<glyph unicode="k" horiz-adv-x="952" d="M119 0v1417h190v-831l363 338h246l-453 -422l469 -502h-250l-375 406v-406h-190z" />
<glyph unicode="l" horiz-adv-x="477" d="M141 0v1417h195v-1417h-195z" />
<glyph unicode="m" horiz-adv-x="1497" d="M119 0v922h194v-97q100 121 240 121q84 0 148.5 -44t99.5 -122q113 166 289 166q156 0 227.5 -112.5t71.5 -284.5v-549h-199v545q0 104 -31 159.5t-106 55.5q-195 0 -201 -242v-518h-201v545q0 109 -30.5 162t-108.5 53h-6q-80 0 -134.5 -68.5t-58.5 -173.5v-518h-194z " />
<glyph unicode="n" horiz-adv-x="970" d="M119 0v922h190v-95q86 119 238 119q160 0 236.5 -108.5t76.5 -288.5v-549h-196v545q0 109 -34 162t-116 53q-90 0 -146.5 -65.5t-58.5 -176.5v-518h-190z" />
<glyph unicode="o" horiz-adv-x="968" d="M76 461q2 211 110.5 348t296.5 137q186 0 296 -144t110 -341q-2 -205 -110.5 -344.5t-295.5 -141.5q-182 2 -293.5 145.5t-113.5 340.5zM289 469q0 -170 57 -236.5t137 -68.5q86 0 141.5 88t57.5 209q-2 121 -55.5 208t-143.5 89q-96 -2 -145 -84t-49 -205z" />
<glyph unicode="p" horiz-adv-x="978" d="M115 -494v1385q139 57 348 57q203 0 316.5 -132t117.5 -353q0 -223 -117.5 -354.5t-324.5 -131.5q-78 0 -152 23v-494h-188zM303 182q63 -16 146 -22q115 0 176 81t61 222t-62.5 221t-174.5 84q-94 0 -146 -20v-566z" />
<glyph unicode="q" horiz-adv-x="976" d="M78 463q2 221 116.5 353t315.5 132q190 0 348 -57v-1385h-186v494q-74 -23 -152 -23q-207 0 -324.5 131.5t-117.5 354.5zM350.5 241q61.5 -81 175.5 -81q83 6 146 22v566q-51 20 -146 20q-237 -6 -237 -303q0 -143 61.5 -224z" />
<glyph unicode="r" horiz-adv-x="704" d="M119 0v922h190v-86q55 96 154 102q49 0 107.5 -21.5t74.5 -44.5l-63 -206q-90 92 -160 92h-8q-49 -4 -77 -45t-28 -115v-598h-190z" />
<glyph unicode="s" horiz-adv-x="841" d="M86 37v209q139 -70 190 -80q45 -8 125 -10q156 0 164 100q0 18 -4 33.5t-16.5 27t-20.5 18.5t-28.5 14t-29.5 10t-33.5 8.5t-33.5 7.5l-51 12q-125 27 -191.5 88.5t-68.5 186.5q0 150 98.5 217t245.5 67q162 0 289 -55v-195q-20 8 -55 23.5t-44.5 19.5t-30 11.5 t-36.5 8.5t-41 3t-61 4q-164 0 -168 -98q0 -16 5 -28.5t15 -22t20.5 -16.5t28 -12t27.5 -8t30.5 -7.5t26.5 -6.5l43 -14q139 -31 213 -91.5t74 -193.5q0 -104 -58.5 -173.5t-136 -94.5t-172.5 -25q-117 0 -315 62z" />
<glyph unicode="t" horiz-adv-x="673" d="M59 772v162h99l75 254h115v-254h225v-162h-225v-485q0 -84 20.5 -110.5t88.5 -26.5h10q98 0 156 38v-178q-84 -39 -166 -39q-164 0 -232.5 69t-68.5 247v485h-97z" />
<glyph unicode="u" horiz-adv-x="974" d="M109 373v551h198v-547q0 -106 34 -160.5t118 -54.5q98 0 149 65.5t51 178.5v518h197v-924h-197v96q-100 -121 -231 -121q-158 0 -238.5 111t-80.5 287z" />
<glyph unicode="v" horiz-adv-x="917" d="M35 924h184l240 -535l237 535h189l-426 -953z" />
<glyph unicode="w" horiz-adv-x="1253" d="M47 924h180l166 -488l236 520l237 -520l162 488h178l-323 -953l-254 623l-262 -623z" />
<glyph unicode="x" horiz-adv-x="915" d="M27 0l323 485l-297 439h205l203 -308l203 308h202l-301 -447l316 -477h-199l-225 340l-232 -340h-198z" />
<glyph unicode="y" horiz-adv-x="892" d="M27 924h188l248 -619l211 619h190l-471 -1278q-27 -70 -90 -104t-123 -34l-63 148q27 0 68.5 21.5t54.5 56.5l125 340z" />
<glyph unicode="z" horiz-adv-x="868" d="M76 0v205l481 530h-463v189h694v-205l-479 -531h475v-188h-708z" />
<glyph unicode="{" horiz-adv-x="702" d="M16 496v168h68q92 0 133 53q35 47 35 174v225q0 217 72 289q72 70 270 72h70v-170h-72q-104 0 -125 -37q-20 -33 -25 -158v-231q0 -152 -41 -215q-23 -49 -94 -86q72 -33 94 -76q41 -61 41 -223v-234q0 -115 25 -158q23 -33 125 -36h72v-170h-70q-195 0 -272 73 q-70 76 -70 287v223q0 125 -35 180q-37 49 -133 50h-68z" />
<glyph unicode="|" horiz-adv-x="393" d="M119 -459v1942h153v-1942h-153z" />
<glyph unicode="}" horiz-adv-x="696" d="M37 -147h74q98 0 118 34q27 39 27 160v234q0 156 37 221q25 43 100 78q-76 35 -100 86q-37 59 -37 215v231q0 125 -27 158q-16 33 -118 37h-74v170h67q197 0 269 -72q74 -68 73 -289v-225q0 -127 35 -176q41 -51 133 -51h66v-168h-66q-96 0 -133 -50q-35 -49 -35 -180 v-223q0 -213 -73 -287q-70 -74 -269 -73h-67v170z" />
<glyph unicode="~" horiz-adv-x="1173" d="M94 385v158q70 47 154 84q80 25 149 24q74 -4 189.5 -47t208.5 -43q49 0 114 21q109 53 170 92v-150q-72 -51 -155 -88q-68 -20 -146 -22h-8q-66 0 -197 45t-182 45h-12q-59 0 -119 -25q-68 -25 -166 -94z" />
<glyph unicode="&#xa1;" horiz-adv-x="409" d="M106 1300.5q0 47.5 29 81t70 33.5t68.5 -33.5t27.5 -81t-27.5 -80t-68.5 -32.5t-70 32.5t-29 80zM115 0v627l16 344h145l15 -344v-627h-176z" />
<glyph unicode="&#xa2;" horiz-adv-x="825" d="M51 530q0 233 97.5 383t291.5 181v264h117v-266q133 -16 217 -74v-197q-63 51 -99 66.5t-118 27.5v-772q109 8 217 90v-192q-86 -59 -217 -80v-258h-117v264q-197 25 -293 176.5t-96 386.5zM248 530q-1 -327 192 -380v757q-100 -27 -144 -122t-48 -255z" />
<glyph unicode="&#xa3;" horiz-adv-x="892" d="M43 0v190h178v398h-151v164h151v200q0 254 84 369q90 121 283 121q49 0 108 -17q72 -18 133 -45v-209q-113 57 -141 70q-57 12 -86 12q-98 0 -139 -61q-43 -86 -43 -258v-182h299v-164h-299v-398h428v-190h-805z" />
<glyph unicode="&#xa4;" horiz-adv-x="1144" d="M61 207l179 186q-66 131 -66 215q0 90 70 211l-178 189l129 129l176 -187q109 59 198 60q84 0 199 -60l188 191l127 -131l-184 -191q63 -121 64 -211q0 -33 -4.5 -58.5t-16.5 -56t-18 -41t-29 -51.5l188 -190l-133 -127l-182 182q-119 -66 -199 -65.5t-202 63.5 l-179 -186zM362 608q0 -102 60.5 -178t146.5 -76q84 0 145.5 78t61.5 176.5t-63.5 171t-147.5 72.5q-82 0 -140 -72.5t-63 -171.5z" />
<glyph unicode="&#xa5;" horiz-adv-x="995" d="M33 1417h182l283 -635l278 635h187l-246 -545h198v-147h-264l-57 -129v-29h321v-145h-317v-422h-201v422h-317v145h319l-4 29l-55 129h-260v147h199z" />
<glyph unicode="&#xa6;" horiz-adv-x="393" d="M119 -332v740h153v-740h-153zM119 621v737h153v-737h-153z" />
<glyph unicode="&#xa7;" horiz-adv-x="794" d="M57 686q0 166 136 266q-45 43 -66 86t-23 115q0 139 88.5 214t215.5 75q123 0 247 -60v-186q-152 70 -227 74q-57 0 -98 -30t-41 -91q0 -74 139 -172q14 -6 35 -19q147 -102 192 -151q82 -92 82 -215q0 -88 -33.5 -148.5t-101.5 -117.5q78 -80 88 -203 q-2 -150 -89 -228.5t-222 -78.5q-121 0 -260 59v191q133 -70 241 -76q57 0 98.5 30.5t41.5 96.5q0 51 -57.5 111.5t-118.5 93.5q-12 8 -47 33.5t-46.5 33.5t-40 30.5t-39 35t-31 35t-27.5 41t-18.5 44t-14.5 53t-3 58.5zM223 709q0 -45 26.5 -90.5t77 -86t83 -62t86.5 -52.5 q2 2 15 18.5t17 22.5t14.5 21.5t13.5 25.5t7 25.5t4 31.5q0 43 -24.5 87t-69.5 83t-79 62.5t-81 54.5q-10 6 -16 10q-70 -78 -74 -151z" />
<glyph unicode="&#xa8;" horiz-adv-x="663" d="M90 1245q0 47 27.5 81t68.5 34q43 0 71 -33t28 -82q0 -47 -28 -79.5t-71 -32.5q-41 0 -68.5 32.5t-27.5 79.5zM367 1245q0 47 27.5 81t68.5 34q43 0 70.5 -33t27.5 -82q0 -47 -27.5 -79.5t-70.5 -32.5q-41 0 -68.5 32.5t-27.5 79.5z" />
<glyph unicode="&#xa9;" horiz-adv-x="1318" d="M68 612q0 248 162.5 430.5t426.5 182.5q262 0 426 -182.5t164 -430.5q0 -250 -162.5 -431t-427.5 -181q-238 0 -413.5 169t-175.5 443zM207 614q0 -199 128 -344t322 -145q184 0 316.5 140t132.5 347q0 203 -122 343.5t-327 146.5q-176 0 -313 -137.5t-137 -350.5z M295 612q0 180 104.5 279.5t276.5 99.5q125 0 227 -49v-149q-57 37 -99 49t-120 12q-100 0 -155.5 -63.5t-55.5 -178.5q0 -119 58.5 -182t162.5 -63q100 0 209 59v-139q-100 -55 -227 -56q-174 0 -276.5 100.5t-104.5 280.5z" />
<glyph unicode="&#xaa;" horiz-adv-x="770" d="M84 778q0 240 307 240h98q-4 88 -139 88q-37 0 -86 -14q-57 -18 -131 -52v164q35 14 125 37q55 12 111 12q291 0 290 -303v-372h-170v55q-31 -33 -80 -53.5t-92 -20.5q-100 0 -165.5 56.5t-67.5 162.5zM106 387v148h553v-148h-553zM254 788q0 -76 96 -75q66 0 102.5 45 t36.5 121l-81 2q-47 0 -74 -3.5t-53.5 -26t-26.5 -63.5z" />
<glyph unicode="&#xab;" horiz-adv-x="862" d="M45 453v82l397 337v-196l-198 -180l198 -185v-194zM360 453v82l402 337v-196l-203 -180l203 -185v-194z" />
<glyph unicode="&#xac;" horiz-adv-x="1177" d="M55 535v176h1002v-475h-185v299h-817z" />
<glyph unicode="&#xad;" horiz-adv-x="681" d="M119 395v135h442v-135h-442z" />
<glyph unicode="&#xae;" horiz-adv-x="1318" d="M68 612q0 268 178 440.5t411.5 172.5t411.5 -172.5t178 -440.5q0 -254 -174 -433t-416 -179q-264 0 -426.5 182.5t-162.5 429.5zM219 614q0 -201 124 -345t314 -144q184 0 315.5 131t131.5 358q0 203 -121 342.5t-326 145.5q-176 0 -307 -137.5t-131 -350.5zM406 272v699 h237q137 0 214 -44t77 -163q0 -135 -135 -178q29 -25 55.5 -63t38.5 -61.5t44 -94t42 -95.5h-162l-102 174q-33 63 -52.5 83t-70.5 24h-27v-281h-159zM565 672h72q59 0 92 17.5t33 74.5q0 55 -32 71.5t-93 18.5h-72v-182z" />
<glyph unicode="&#xaf;" horiz-adv-x="724" d="M119 1137v120h485v-120h-485z" />
<glyph unicode="&#xb0;" horiz-adv-x="614" d="M86 1024q0 94 64.5 161.5t154.5 67.5t153.5 -66.5t63.5 -162.5t-63.5 -162.5t-153.5 -66.5t-154.5 67.5t-64.5 161.5zM244 1022q0 -37 17.5 -60.5t43.5 -23.5q25 0 43.5 24.5t18.5 59.5t-18.5 59.5t-43.5 24.5q-27 0 -44 -23.5t-17 -60.5z" />
<glyph unicode="&#xb1;" horiz-adv-x="1134" d="M66 0v188h1001v-188h-1001zM66 571v187h409v301h184v-301h408v-187h-408v-305h-184v305h-409z" />
<glyph unicode="&#xb2;" horiz-adv-x="655" d="M80 551v121q313 285 313 356q0 41 -30.5 60.5t-71.5 19.5q-20 0 -35.5 -1t-32 -4t-26 -4t-25.5 -8.5t-23.5 -10.5t-30 -14t-32.5 -15v153q158 49 221 49q106 0 182 -52t76 -159q0 -18 -6 -38.5t-14 -38t-23.5 -41t-27 -39t-33 -39t-33.5 -36.5t-36.5 -36.5t-34 -31 t-34 -30t-26.5 -24.5h270v-137h-487z" />
<glyph unicode="&#xb3;" horiz-adv-x="669" d="M74 575v156q57 -31 94 -40t102 -9q135 0 136 84q0 82 -127 82h-89v137h99q100 0 100 68q0 57 -104 57q-29 0 -45.5 -1t-35 -4t-27.5 -5t-36.5 -9.5t-48.5 -13.5v140q139 37 215 36q106 0 179 -45t75 -147q0 -96 -80 -137q97 -54 97 -158q0 -121 -84 -174t-209 -53 q-55 0 -211 36z" />
<glyph unicode="&#xb4;" horiz-adv-x="544" d="M51 1040l230 312h206l-270 -312h-166z" />
<glyph unicode="&#xb5;" horiz-adv-x="1011" d="M119 -352v1276h192v-576q0 -203 172 -203q184 0 185 234v545h188v-707q0 -61 31 -61h19t13.5 3t10.5 5t15 11t24 18v-185q-51 -51 -123 -51q-98 0 -150 106q-80 -106 -202 -106q-111 0 -183 92v-401h-192z" />
<glyph unicode="&#xb6;" horiz-adv-x="894" d="M43 870q0 166 107 267q104 94 272 94h354v-1395h-164v1241h-80v-1241h-159v672q-143 14 -234 100q-96 102 -96 262z" />
<glyph unicode="&#xb7;" horiz-adv-x="387" d="M90 588q0 47 27.5 80.5t68.5 33.5q43 0 71 -32.5t28 -81.5q0 -47 -28 -80t-71 -33q-41 0 -68.5 33t-27.5 80z" />
<glyph unicode="&#xb8;" horiz-adv-x="524" d="M80 -147q55 -33 137 -37q51 0 51 39q0 14 -5 28.5t-15 31.5t-17.5 28.5t-21.5 31t-19 25.5h142q27 -23 61.5 -78t34.5 -94q0 -145 -197 -154q-39 0 -55 2t-39.5 8.5t-56.5 10.5v158z" />
<glyph unicode="&#xb9;" horiz-adv-x="421" d="M74 1061v143l110 35h117v-688h-143v541z" />
<glyph unicode="&#xba;" horiz-adv-x="790" d="M84 907q0 162 82 254t229.5 92t225 -92t79.5 -254q0 -162 -78.5 -255t-226 -93t-229.5 93t-82 255zM119 387v148h553v-148h-553zM260 907q0 -86 36 -141t99 -55q59 0 96 56t37 140q0 88 -33.5 143.5t-99.5 55.5q-61 0 -98 -57.5t-37 -141.5z" />
<glyph unicode="&#xbb;" horiz-adv-x="858" d="M98 117v194l203 185l-203 180v196l400 -337v-82zM412 117v194l202 185l-202 180v196l403 -337v-82z" />
<glyph unicode="&#xbc;" horiz-adv-x="1427" d="M35 1221v147l125 37h139v-717h-168v563zM184 -29l748 1471h188l-751 -1471h-185zM799 172v147l319 494h176v-491h107v-150h-107v-170h-168v170h-327zM975 322h151v282z" />
<glyph unicode="&#xbd;" horiz-adv-x="1402" d="M35 1221v147l123 37h141v-717h-168v563zM184 -29l748 1471h186l-749 -1471h-185zM827 2v137q53 66 82 92q256 260 256 340q0 49 -34.5 75t-81.5 30q-35 0 -66 -7t-47 -14.5t-53 -27t-56 -27.5v178q164 53 240 53q123 0 202 -61t79 -184q0 -139 -269 -408q-25 -18 -26 -22 h297v-154h-523z" />
<glyph unicode="&#xbe;" horiz-adv-x="1542" d="M39 639v176q66 -41 96.5 -49t116.5 -12q59 0 103 25.5t44 78.5q0 106 -139 107h-98v153h104q115 0 115 90q0 41 -36 58.5t-81 17.5q-74 0 -203 -45v166q156 37 228 37q121 0 198.5 -59.5t79.5 -168.5q0 -117 -92 -163q107 -54 107 -193t-87 -201.5t-231 -62.5 q-94 0 -225 45zM295 -29l752 1471h182l-748 -1471h-186zM915 172v147l318 498h176v-495h109v-150h-109v-170h-168v170h-326zM1094 322h147v280z" />
<glyph unicode="&#xbf;" horiz-adv-x="731" d="M45 317q0 59 19.5 111.5t42 82.5t67.5 83l68 94q33 37 47 65.5t24 84.5q2 20 2 75v131h189v-159q0 -98 -24.5 -157.5t-86.5 -133.5l-133 -186q-16 -39 -16 -82q0 -76 45 -115q37 -49 117 -49q127 0 286 141v-219q-150 -113 -311 -113q-154 0 -245 90.5t-91 255.5z M313 1302.5q0 47.5 28 81t69 33.5t69.5 -33.5t28.5 -81t-28.5 -80t-69.5 -32.5t-69 32.5t-28 80z" />
<glyph unicode="&#xc0;" d="M10 0l453 1417h209l452 -1417h-209l-104 356h-487l-105 -356h-209zM346 1800h189l172 -280h-160zM383 543h371l-185 631z" />
<glyph unicode="&#xc1;" d="M10 0l453 1417h209l452 -1417h-209l-104 356h-487l-105 -356h-209zM383 543h371l-185 631zM426 1520l170 280h188l-194 -280h-164z" />
<glyph unicode="&#xc2;" d="M10 0l453 1417h209l452 -1417h-209l-104 356h-487l-105 -356h-209zM301 1520l180 282h174l181 -282h-152l-115 155l-118 -155h-150zM383 543h371l-185 631z" />
<glyph unicode="&#xc3;" d="M10 0l453 1417h209l452 -1417h-209l-104 356h-487l-105 -356h-209zM301 1583q2 98 46 150.5t118 56.5q27 0 42 -3t35.5 -12.5t32.5 -13.5l101 -43q27 4 29 72h135q-4 -86 -51.5 -146.5t-114.5 -60.5q-47 0 -117 35l-92 43q-27 -2 -31 -76zM383 543h371l-185 631z" />
<glyph unicode="&#xc4;" d="M10 0l453 1417h209l452 -1417h-209l-104 356h-487l-105 -356h-209zM336 1667q0 45 25.5 76t64.5 31q37 0 62.5 -31t25.5 -76q0 -41 -25.5 -71.5t-62.5 -30.5q-39 0 -64.5 30.5t-25.5 71.5zM383 543h371l-185 631zM614 1667q0 45 25 76t63.5 31t63.5 -31t25 -76 q0 -43 -26 -72.5t-62.5 -29.5t-62.5 29.5t-26 72.5z" />
<glyph unicode="&#xc5;" d="M10 0l453 1417h209l452 -1417h-209l-104 356h-487l-105 -356h-209zM348 1716q0 94 64.5 162t154.5 68t153.5 -67t63.5 -163t-63.5 -162.5t-153.5 -66.5t-154.5 66.5t-64.5 162.5zM383 543h371l-185 631zM508 1714q0 -35 16.5 -59.5t43 -24.5t44 24.5t17.5 59.5 t-17.5 58.5t-44.5 23.5q-25 0 -42 -23.5t-17 -58.5z" />
<glyph unicode="&#xc6;" horiz-adv-x="1554" d="M6 0l498 1417h985v-192h-580v-377h555v-189h-555v-469h592v-190h-790v358h-379l-123 -358h-203zM401 543h310v692h-64z" />
<glyph unicode="&#xc7;" horiz-adv-x="1103" d="M70 700q0 330 148.5 536t434.5 206q203 0 385 -139v-246q-156 190 -376 190q-197 0 -288 -150.5t-91 -396.5q0 -244 92 -392t287 -148q115 0 202.5 43t173.5 141v-235q-119 -98 -284 -140q57 -84 57 -157q0 -100 -53 -140.5t-154 -46.5q-70 0 -155 29v166q43 -27 60 -31 t83 -8q35 0 49 20q27 18 27 47q0 47 -54 119q-270 18 -407 219t-137 514z" />
<glyph unicode="&#xc8;" horiz-adv-x="952" d="M119 0v1417h768v-192h-574v-377h547v-189h-547v-469h588v-190h-782zM279 1800h190l170 -280h-160z" />
<glyph unicode="&#xc9;" horiz-adv-x="952" d="M119 0v1417h768v-192h-574v-377h547v-189h-547v-469h588v-190h-782zM360 1520l170 280h187l-195 -280h-162z" />
<glyph unicode="&#xca;" horiz-adv-x="952" d="M119 0v1417h768v-192h-574v-377h547v-189h-547v-469h588v-190h-782zM236 1520l180 282h174l176 -282h-148l-114 157l-121 -157h-147z" />
<glyph unicode="&#xcb;" horiz-adv-x="952" d="M119 0v1417h768v-192h-574v-377h547v-189h-547v-469h588v-190h-782zM276 1667q0 45 25 76t63.5 31t63.5 -31t25 -76q0 -43 -26 -72.5t-62.5 -29.5t-62.5 29.5t-26 72.5zM553 1667q0 45 25.5 76t62.5 31q39 0 64.5 -31t25.5 -76q0 -41 -25.5 -71.5t-64.5 -30.5 q-37 0 -62.5 30.5t-25.5 71.5z" />
<glyph unicode="&#xcc;" horiz-adv-x="436" d="M6 1800h178l162 -280h-149zM119 0v1417h196v-1417h-196z" />
<glyph unicode="&#xcd;" horiz-adv-x="436" d="M80 1520l164 280h174l-189 -280h-149zM119 0v1417h196v-1417h-196z" />
<glyph unicode="&#xce;" horiz-adv-x="436" d="M-37 1520l172 282h166l176 -282h-143l-117 157l-115 -157h-139zM119 0v1417h196v-1417h-196z" />
<glyph unicode="&#xcf;" horiz-adv-x="436" d="M-8 1667q0 45 24.5 76t63.5 31q37 0 62.5 -31t25.5 -76q0 -41 -25.5 -71.5t-62.5 -30.5t-62.5 29.5t-25.5 72.5zM119 0v1417h196v-1417h-196zM266 1667q0 45 25.5 76t64.5 31q37 0 62.5 -31t25.5 -76q0 -41 -25.5 -71.5t-62.5 -30.5q-39 0 -64.5 30.5t-25.5 71.5z" />
<glyph unicode="&#xd0;" horiz-adv-x="1277" d="M35 649v166h155v602h342q342 0 507 -167.5t167 -538.5q0 -369 -167 -540t-507 -171h-342v649h-155zM385 188h170q229 0 332.5 126t103.5 396.5t-103.5 391.5t-332.5 125h-170v-412h262v-166h-262v-461z" />
<glyph unicode="&#xd1;" horiz-adv-x="1167" d="M133 0v1417h199l491 -1022v1022h193v-1417h-193l-491 1018v-1018h-199zM324 1583q2 98 47 150.5t123 56.5q27 0 43 -3t38.5 -12.5t32.5 -13.5l99 -43q18 4 20 72h150q-2 -86 -52.5 -146.5t-122.5 -60.5h-2q-29 0 -103.5 39t-100.5 39h-2q-20 -2 -25 -76z" />
<glyph unicode="&#xd2;" horiz-adv-x="1253" d="M70 702q0 197 56 359t185 269.5t314 107.5q141 0 250.5 -60.5t175 -165t98.5 -234t33 -276.5q0 -201 -56.5 -361.5t-185.5 -265t-315 -104.5q-270 0 -412.5 212t-142.5 519zM281 702q0 -137 31.5 -253.5t112.5 -201.5t200 -85q117 0 197.5 83t113.5 200.5t33 256.5 q0 141 -32 258t-112 200t-200 83q-92 0 -161 -47t-108 -127t-57 -172t-18 -195zM406 1800h190l170 -278h-164z" />
<glyph unicode="&#xd3;" horiz-adv-x="1253" d="M70 702q0 197 56 359t185 269.5t314 107.5q141 0 250.5 -60.5t175 -165t98.5 -234t33 -276.5q0 -201 -56.5 -361.5t-185.5 -265t-315 -104.5q-270 0 -412.5 212t-142.5 519zM281 702q0 -137 31.5 -253.5t112.5 -201.5t200 -85q117 0 197.5 83t113.5 200.5t33 256.5 q0 141 -32 258t-112 200t-200 83q-92 0 -161 -47t-108 -127t-57 -172t-18 -195zM485 1522l170 278h185l-193 -278h-162z" />
<glyph unicode="&#xd4;" horiz-adv-x="1253" d="M70 702q0 197 56 359t185 269.5t314 107.5q141 0 250.5 -60.5t175 -165t98.5 -234t33 -276.5q0 -201 -56.5 -361.5t-185.5 -265t-315 -104.5q-270 0 -412.5 212t-142.5 519zM281 702q0 -137 31.5 -253.5t112.5 -201.5t200 -85q117 0 197.5 83t113.5 200.5t33 256.5 q0 141 -32 258t-112 200t-200 83q-92 0 -161 -47t-108 -127t-57 -172t-18 -195zM358 1520l187 282h162l186 -282h-152l-116 157l-117 -157h-150z" />
<glyph unicode="&#xd5;" horiz-adv-x="1253" d="M70 702q0 197 56 359t185 269.5t314 107.5q141 0 250.5 -60.5t175 -165t98.5 -234t33 -276.5q0 -201 -56.5 -361.5t-185.5 -265t-315 -104.5q-270 0 -412.5 212t-142.5 519zM281 702q0 -137 31.5 -253.5t112.5 -201.5t200 -85q117 0 197.5 83t113.5 200.5t33 256.5 q0 141 -32 258t-112 200t-200 83q-92 0 -161 -47t-108 -127t-57 -172t-18 -195zM348 1583q2 98 45 150.5t117 56.5q20 0 36.5 -2t25 -5t24.5 -9.5t27 -10.5l98 -45q27 8 29 72h133q-2 -86 -49.5 -146.5t-114.5 -60.5q-45 0 -117 39l-92 41q-25 -2 -29 -78z" />
<glyph unicode="&#xd6;" horiz-adv-x="1253" d="M70 702q0 197 56 359t185 269.5t314 107.5q141 0 250.5 -60.5t175 -165t98.5 -234t33 -276.5q0 -201 -56.5 -361.5t-185.5 -265t-315 -104.5q-270 0 -412.5 212t-142.5 519zM281 702q0 -137 31.5 -253.5t112.5 -201.5t200 -85q117 0 197.5 83t113.5 200.5t33 256.5 q0 143 -32 260t-112 199t-200.5 82t-200.5 -83t-111.5 -199.5t-31.5 -258.5zM399 1667q0 45 26 76t62 31q39 0 65 -31t26 -76q0 -41 -26 -71.5t-65 -30.5q-37 0 -62.5 30.5t-25.5 71.5zM676 1667q0 45 25.5 76t64.5 31q37 0 62.5 -31t25.5 -76q0 -41 -25.5 -71.5 t-62.5 -30.5q-39 0 -64.5 30.5t-25.5 71.5z" />
<glyph unicode="&#xd7;" horiz-adv-x="999" d="M51 174l332 354l-332 359l111 121l336 -359l338 359l112 -119l-332 -361l332 -354l-112 -123l-338 359l-336 -359z" />
<glyph unicode="&#xd8;" horiz-adv-x="1277" d="M70 45l133 182q-123 172 -123 478q0 201 57.5 361.5t187.5 264t314 103.5q207 0 336 -138l127 183l104 -109l-129 -182q109 -176 117 -483q0 -311 -142.5 -518t-412.5 -207q-193 0 -336 135l-127 -181zM295 705q0 -190 35 -310l528 754q-100 96 -219 96q-121 0 -202 -83 t-111.5 -198.5t-30.5 -258.5zM420 272q100 -104 219 -104q176 0 259 157t83 380q0 166 -33 311z" />
<glyph unicode="&#xd9;" horiz-adv-x="1126" d="M109 537v880h194v-856q0 -201 55.5 -300t208.5 -99q147 0 201.5 101.5t54.5 297.5v856h197v-880q0 -565 -453 -566q-459 0 -458 566zM344 1800h191l172 -278h-162z" />
<glyph unicode="&#xda;" horiz-adv-x="1126" d="M109 537v880h194v-856q0 -201 55.5 -300t208.5 -99q147 0 201.5 101.5t54.5 297.5v856h197v-880q0 -565 -453 -566q-459 0 -458 566zM424 1522l170 278h190l-198 -278h-162z" />
<glyph unicode="&#xdb;" horiz-adv-x="1126" d="M109 537v880h194v-856q0 -201 55.5 -300t208.5 -99q147 0 201.5 101.5t54.5 297.5v856h197v-880q0 -565 -453 -566q-459 0 -458 566zM299 1520l176 282h174l178 -282h-147l-113 159l-121 -159h-147z" />
<glyph unicode="&#xdc;" horiz-adv-x="1126" d="M109 537v880h194v-856q0 -201 55.5 -300t208.5 -99q147 0 201.5 101.5t54.5 297.5v856h197v-880q0 -565 -453 -566q-459 0 -458 566zM336 1667q0 45 24.5 76t63.5 31t63.5 -31t24.5 -76q0 -43 -25.5 -72.5t-62.5 -29.5t-62.5 29.5t-25.5 72.5zM612 1667q0 45 25 76 t63.5 31t63 -31t24.5 -76q0 -43 -25.5 -72.5t-62 -29.5t-62.5 29.5t-26 72.5z" />
<glyph unicode="&#xdd;" horiz-adv-x="1026" d="M0 1417h209l303 -561l307 561h209l-414 -747v-670h-204v670zM375 1520l170 280h186l-199 -280h-157z" />
<glyph unicode="&#xde;" horiz-adv-x="952" d="M119 0v1417h192v-246h176q203 0 308 -104q106 -113 106 -322q0 -215 -106 -325q-104 -109 -308 -111h-176v-309h-192zM311 502h176q100 0 150 63q49 55 53 180q0 113 -53 173q-49 63 -150 63h-176v-479z" />
<glyph unicode="&#xe0;" horiz-adv-x="962" d="M74 285q0 160 105.5 239.5t269.5 79.5q100 -4 153 -31v31q-8 156 -186 164q-92 0 -150.5 -21.5t-126.5 -89.5v193q117 102 289 102q182 0 270 -95t90 -251v-393q0 -25 17.5 -41t36.5 -16q28 -1 67 32v-4q0 -53 -58 -131t-120 -78q-51 0 -90 34t-39 85q-90 -119 -235 -119 q-137 0 -213 81t-80 229zM272 297q0 -139 131 -139q199 0 199 252q-57 29 -137 30q-92 0 -142.5 -30.5t-50.5 -112.5zM285 1352h213l233 -355h-172z" />
<glyph unicode="&#xe1;" horiz-adv-x="962" d="M74 285q0 160 105.5 239.5t269.5 79.5q100 -4 153 -31v31q-8 156 -186 164q-92 0 -150.5 -21.5t-126.5 -89.5v193q117 102 289 102q182 0 270 -95t90 -251v-393q0 -25 17.5 -41t36.5 -16q28 -1 67 32v-4q0 -53 -58 -131t-120 -78q-51 0 -90 34t-39 85q-90 -119 -235 -119 q-137 0 -213 81t-80 229zM272 297q0 -139 131 -139q199 0 199 252q-57 29 -137 30q-92 0 -142.5 -30.5t-50.5 -112.5zM283 995l225 357h199l-256 -357h-168z" />
<glyph unicode="&#xe2;" horiz-adv-x="962" d="M74 285q0 160 105.5 239.5t269.5 79.5q100 -4 153 -31v31q-8 156 -186 164q-92 0 -150.5 -21.5t-126.5 -89.5v193q117 102 289 102q182 0 270 -95t90 -251v-393q0 -25 17.5 -41t36.5 -16q28 -1 67 32v-4q0 -53 -58 -131t-120 -78q-51 0 -90 34t-39 85q-90 -119 -235 -119 q-137 0 -213 81t-80 229zM174 993l209 359h137l209 -359h-162l-114 178l-117 -178h-162zM272 297q0 -139 131 -139q199 0 199 252q-57 29 -137 30q-92 0 -142.5 -30.5t-50.5 -112.5z" />
<glyph unicode="&#xe3;" horiz-adv-x="962" d="M74 285q0 160 105.5 239.5t269.5 79.5q100 -4 153 -31v31q-8 156 -186 164q-92 0 -150.5 -21.5t-126.5 -89.5v193q117 102 289 102q182 0 270 -95t90 -251v-393q0 -25 17.5 -41t36.5 -16q28 -1 67 32v-4q0 -53 -58 -131t-120 -78q-51 0 -90 34t-39 85q-90 -119 -235 -119 q-137 0 -213 81t-80 229zM172 1036q0 111 42 193t124 82q61 0 123 -49l80 -68q14 2 14 53v64h145q0 -113 -43 -193t-125 -82q-57 0 -118 49l-80 68q-14 -2 -15 -51v-66h-147zM272 297q0 -139 131 -139q199 0 199 252q-57 29 -137 30q-92 0 -142.5 -30.5t-50.5 -112.5z" />
<glyph unicode="&#xe4;" horiz-adv-x="962" d="M74 285q0 160 105.5 239.5t269.5 79.5q100 -4 153 -31v31q-8 156 -186 164q-92 0 -150.5 -21.5t-126.5 -89.5v193q117 102 289 102q182 0 270 -95t90 -251v-393q0 -25 17.5 -41t36.5 -16q28 -1 67 32v-4q0 -53 -58 -131t-120 -78q-51 0 -90 34t-39 85q-90 -119 -235 -119 q-137 0 -213 81t-80 229zM225 1245q0 49 28 82t71 33q41 0 68.5 -34t27.5 -81t-27.5 -79.5t-68.5 -32.5q-43 0 -71 32.5t-28 79.5zM272 297q0 -139 131 -139q199 0 199 252q-57 29 -137 30q-92 0 -142.5 -30.5t-50.5 -112.5zM502 1245q0 47 28.5 81t69.5 34t68.5 -34 t27.5 -81t-27.5 -79.5t-68.5 -32.5t-69.5 32.5t-28.5 79.5z" />
<glyph unicode="&#xe5;" horiz-adv-x="962" d="M74 285q0 160 105.5 239.5t269.5 79.5q100 -4 153 -31v31q-8 156 -186 164q-92 0 -150.5 -21.5t-126.5 -89.5v193q117 102 289 102q182 0 270 -95t90 -251v-393q0 -25 17.5 -41t36.5 -16q28 -1 67 32v-4q0 -53 -58 -131t-120 -78q-51 0 -90 34t-39 85q-90 -119 -235 -119 q-137 0 -213 81t-80 229zM211 1237q0 104 66.5 177t162.5 73q98 0 166 -73t68 -177t-67.5 -178t-166.5 -74q-94 0 -161.5 74t-67.5 178zM272 297q0 -139 131 -139q199 0 199 252q-57 29 -137 30q-92 0 -142.5 -30.5t-50.5 -112.5zM377 1235q0 -39 18.5 -66.5t44.5 -27.5 q29 0 48.5 27.5t19.5 66.5q0 37 -19.5 63.5t-48.5 26.5q-27 0 -45 -26.5t-18 -63.5z" />
<glyph unicode="&#xe6;" horiz-adv-x="1497" d="M72 281q0 322 409 321h135q-6 154 -180 162q-94 0 -148.5 -16.5t-150.5 -65.5v197q207 68 314 67q80 0 158.5 -36t125.5 -95q53 55 135 93t152 38q195 0 294 -106.5t99 -304.5v-103h-604q2 -272 244 -276q104 0 160.5 18.5t164.5 75.5v-201q-186 -74 -333 -74 q-100 0 -192.5 46.5t-152.5 125.5q-53 -88 -121.5 -130t-177.5 -42q-152 0 -241.5 77t-89.5 229zM279 291q0 -66 39.5 -100.5t103.5 -34.5q92 0 143 80.5t51 193.5l-86 2q-47 0 -71.5 -1t-64.5 -8t-61.5 -21.5t-37.5 -42t-16 -68.5zM817 602h402q-4 88 -52.5 125t-142.5 37 q-88 0 -130 -37t-77 -125z" />
<glyph unicode="&#xe7;" horiz-adv-x="864" d="M78 457q0 223 117 356q123 133 325 133q66 0 133 -14q70 -18 133 -49v-191q-115 41 -161 53q-33 14 -99 19q-111 0 -178 -80q-59 -80 -59 -227q0 -154 59 -230q66 -80 178 -80q55 0 105 15q57 16 155 65v-200q-55 -29 -141 -50v-6q14 -16 21 -30q20 -35 20 -91 q0 -90 -51 -131q-61 -43 -150 -45q-39 0 -73 7l-86 24v170q61 -29 90 -35q18 -4 55 -8q27 0 39 14q12 10 12 29t-12 41q0 6 -23 49q-182 10 -292 133q-115 133 -117 359z" />
<glyph unicode="&#xe8;" horiz-adv-x="940" d="M76 453q0 203 107.5 348t291.5 145q188 0 285.5 -117.5t97.5 -320.5v-86h-575q-2 -102 60.5 -181t162.5 -79q111 0 157 13t162 71v-197q-174 -74 -327 -74q-195 0 -308.5 132.5t-113.5 345.5zM289 586h379q-10 178 -193 178q-139 0 -186 -178zM295 1352h209l260 -355 h-195z" />
<glyph unicode="&#xe9;" horiz-adv-x="940" d="M76 453q0 203 107.5 348t291.5 145q188 0 285.5 -117.5t97.5 -320.5v-86h-575q-2 -102 60.5 -181t162.5 -79q111 0 157 13t162 71v-197q-174 -74 -327 -74q-195 0 -308.5 132.5t-113.5 345.5zM289 586h379q-10 178 -193 178q-139 0 -186 -178zM303 995l240 357h211 l-277 -357h-174z" />
<glyph unicode="&#xea;" horiz-adv-x="940" d="M76 453q0 203 107.5 348t291.5 145q188 0 285.5 -117.5t97.5 -320.5v-86h-575q-2 -102 60.5 -181t162.5 -79q111 0 157 13t162 71v-197q-174 -74 -327 -74q-195 0 -308.5 132.5t-113.5 345.5zM205 993l205 359h141l209 -359h-164l-115 178l-114 -178h-162zM289 586h379 q-10 178 -193 178q-139 0 -186 -178z" />
<glyph unicode="&#xeb;" horiz-adv-x="940" d="M76 453q0 203 107.5 348t291.5 145q188 0 285.5 -117.5t97.5 -320.5v-86h-575q-2 -102 60.5 -181t162.5 -79q111 0 157 13t162 71v-197q-174 -74 -327 -74q-195 0 -308.5 132.5t-113.5 345.5zM268 1245q0 47 29 81t70 34t68.5 -34t27.5 -81t-27.5 -79.5t-68.5 -32.5 t-70 32.5t-29 79.5zM289 586h379q-10 178 -193 178q-139 0 -186 -178zM545 1245q0 47 28.5 81t69.5 34t69.5 -34t28.5 -81t-28.5 -79.5t-69.5 -32.5t-69.5 32.5t-28.5 79.5z" />
<glyph unicode="&#xec;" horiz-adv-x="428" d="M45 1352h207l231 -355h-170zM119 0v924h190v-924h-190z" />
<glyph unicode="&#xed;" horiz-adv-x="428" d="M14 995l230 357h209l-273 -357h-166zM119 0v924h188v-924h-188z" />
<glyph unicode="&#xee;" horiz-adv-x="428" d="M-55 993l202 359h140l205 -359h-162l-113 178l-115 -178h-157zM119 0v924h188v-924h-188z" />
<glyph unicode="&#xef;" horiz-adv-x="428" d="M-16 1245q0 49 26.5 82t69.5 33q41 0 68.5 -34t27.5 -81t-27.5 -79.5t-68.5 -32.5q-43 0 -69.5 32.5t-26.5 79.5zM119 0v924h188v-924h-188zM258 1245q0 47 28.5 81t69.5 34t69 -34t28 -81t-28 -79.5t-69 -32.5t-69.5 32.5t-28.5 79.5z" />
<glyph unicode="&#xf0;" horiz-adv-x="978" d="M78 451q0 199 109.5 337t285.5 138q2 0 23 -11l-66 78l-240 -80l-40 131l190 66l-137 174h231l88 -106l254 92l43 -135l-207 -72l95 -107q186 -226 186 -505q0 -215 -106.5 -345.5t-299.5 -130.5q-188 0 -298.5 131.5t-110.5 344.5zM289 451q0 -131 49 -207t149 -76 q98 0 147.5 77t49.5 206q0 174 -66 272q-27 8 -112 25q-217 0 -217 -297z" />
<glyph unicode="&#xf1;" horiz-adv-x="970" d="M119 0v922h190v-95q86 119 238 119q160 0 236.5 -108.5t76.5 -288.5v-549h-196v545q0 109 -34 162t-116 53q-90 0 -146.5 -65.5t-58.5 -176.5v-518h-190zM215 1036q0 113 42 194t126 81q66 0 121 -47l82 -70q16 4 16 86v31h150q0 -111 -45 -192t-127 -83q-55 0 -119 49 l-82 70q-18 -2 -19 -49q0 -10 1 -32.5t1 -37.5h-147z" />
<glyph unicode="&#xf2;" horiz-adv-x="968" d="M76 461q2 211 110.5 348t297 137t296 -137t109.5 -348q-2 -205 -110.5 -344.5t-295.5 -141.5q-182 2 -293.5 145.5t-113.5 340.5zM289 469q0 -170 57 -236.5t137 -68.5q86 0 141.5 88t57.5 209q-2 121 -55.5 208t-143.5 89q-96 -2 -145 -84t-49 -205zM315 1352h209 l240 -355h-172z" />
<glyph unicode="&#xf3;" horiz-adv-x="968" d="M76 461q2 211 110.5 348t297 137t296 -137t109.5 -348q-2 -205 -110.5 -344.5t-295.5 -141.5q-182 2 -293.5 145.5t-113.5 340.5zM289 469q0 -170 57 -236.5t137 -68.5q86 0 141.5 88t57.5 209q-2 121 -55.5 208t-143.5 89q-96 -2 -145 -84t-49 -205zM324 995l241 357 h209l-270 -357h-180z" />
<glyph unicode="&#xf4;" horiz-adv-x="968" d="M76 461q2 211 110.5 348t297 137t296 -137t109.5 -348q-2 -205 -110.5 -344.5t-295.5 -141.5q-182 2 -293.5 145.5t-113.5 340.5zM219 993l207 359h139l207 -359h-164l-110 178l-117 -178h-162zM289 469q0 -170 57 -236.5t137 -68.5q86 0 141.5 88t57.5 209 q-2 121 -55.5 208t-143.5 89q-96 -2 -145 -84t-49 -205z" />
<glyph unicode="&#xf5;" horiz-adv-x="968" d="M76 461q2 211 110.5 348t297 137t296 -137t109.5 -348q-2 -205 -110.5 -344.5t-295.5 -141.5q-182 2 -293.5 145.5t-113.5 340.5zM244 1036q0 111 36.5 193t106.5 82q63 0 121 -49l80 -68q14 2 14 63v54h148q0 -113 -44 -193t-126 -82q-49 0 -105 49l-92 68 q-18 -2 -18 -49q0 -8 1 -30.5t1 -37.5h-123zM289 469q0 -170 57 -236.5t137 -68.5q86 0 141.5 88t57.5 209q-2 121 -55.5 208t-143.5 89q-96 -2 -145 -84t-49 -205z" />
<glyph unicode="&#xf6;" horiz-adv-x="968" d="M76 461q2 211 110.5 348t297 137t296 -137t109.5 -348q-2 -205 -110.5 -344.5t-295.5 -141.5q-182 2 -293.5 145.5t-113.5 340.5zM258 1245q0 47 28.5 81t69.5 34t69 -34t28 -81t-28 -79.5t-69 -32.5t-69.5 32.5t-28.5 79.5zM289 469q0 -170 57 -236.5t137 -68.5 q86 0 141.5 88t57.5 209q-2 121 -55.5 208t-143.5 89q-96 -2 -145 -84t-49 -205zM535 1245q0 47 28.5 81t69.5 34t69.5 -34t28.5 -81t-28.5 -79.5t-69.5 -32.5t-69.5 32.5t-28.5 79.5z" />
<glyph unicode="&#xf7;" horiz-adv-x="911" d="M51 440v183h807v-183h-807zM344 123v242h240v-242h-240zM344 694v242h240v-242h-240z" />
<glyph unicode="&#xf8;" horiz-adv-x="1015" d="M70 20l108 142q-88 147 -88 299q0 219 113.5 350t308.5 131q35 0 58.5 -2t48 -13.5t32.5 -15.5t40 -26.5t42 -30.5l113 145l110 -96l-120 -153q76 -133 75 -287q0 -207 -104.5 -346.5t-294.5 -139.5q-115 0 -223 78l-105 -133zM295 422q0 -61 10 -109l309 398 q-41 45 -102 45h-16q-78 0 -121 -56.5t-70 -171.5q-10 -41 -10 -106zM401 197q33 -27 111 -29q88 0 139.5 90t53.5 203q0 49 -5 127z" />
<glyph unicode="&#xf9;" horiz-adv-x="974" d="M109 373v551h198v-547q0 -106 34 -160.5t118 -54.5q98 0 149 65.5t51 178.5v518h197v-924h-197v96q-100 -121 -231 -121q-158 0 -238.5 111t-80.5 287zM305 1352h211l240 -355h-172z" />
<glyph unicode="&#xfa;" horiz-adv-x="974" d="M109 373v551h198v-547q0 -106 34 -160.5t118 -54.5q98 0 149 65.5t51 178.5v518h197v-924h-197v96q-100 -121 -231 -121q-158 0 -238.5 111t-80.5 287zM297 995l240 357h211l-281 -357h-170z" />
<glyph unicode="&#xfb;" horiz-adv-x="974" d="M109 373v551h198v-547q0 -106 34 -160.5t118 -54.5q98 0 149 65.5t51 178.5v518h197v-924h-197v96q-100 -121 -231 -121q-158 0 -238.5 111t-80.5 287zM213 993l205 359h141l209 -359h-160l-121 178l-114 -178h-160z" />
<glyph unicode="&#xfc;" horiz-adv-x="974" d="M109 373v551h198v-547q0 -106 34 -160.5t118 -54.5q98 0 149 65.5t51 178.5v518h197v-924h-197v96q-100 -121 -231 -121q-158 0 -238.5 111t-80.5 287zM254 1245q0 47 27.5 81t68.5 34t70 -34t29 -81t-29 -79.5t-70 -32.5t-68.5 32.5t-27.5 79.5zM530 1245q0 47 28 81 t69 34q43 0 70.5 -33t27.5 -82q0 -47 -27.5 -79.5t-70.5 -32.5q-41 0 -69 32.5t-28 79.5z" />
<glyph unicode="&#xfd;" horiz-adv-x="892" d="M27 924h188l248 -619l211 619h190l-471 -1278q-27 -70 -90 -104t-123 -34l-63 148q27 0 68.5 21.5t54.5 56.5l125 340zM322 995l210 357h216l-275 -357h-151z" />
<glyph unicode="&#xfe;" horiz-adv-x="995" d="M117 -494v1911h188v-493q74 23 152 22q207 0 324.5 -131t117.5 -354q-4 -221 -117.5 -353.5t-316.5 -132.5q-74 0 -160 11v-480h-188zM305 184q72 -29 146 -28q238 6 237 305q0 141 -61.5 222t-175.5 81q-87 -7 -146 -23v-557z" />
<glyph unicode="&#xff;" horiz-adv-x="897" d="M27 924h188l248 -619l211 619h190l-471 -1278q-27 -70 -90 -104t-123 -34l-63 148q27 0 68.5 21.5t54.5 56.5l125 340zM227 1245q0 47 28 81t69 34q43 0 70.5 -33t27.5 -82q0 -47 -27.5 -79.5t-70.5 -32.5q-41 0 -69 32.5t-28 79.5zM504 1245q0 49 27.5 82t70.5 33 q41 0 68.5 -34t27.5 -81t-27.5 -79.5t-68.5 -32.5q-43 0 -70.5 32.5t-27.5 79.5z" />
<glyph unicode="&#x152;" horiz-adv-x="1679" d="M66 711q0 356 185 531t523 175h838v-194h-580v-375h555v-189h-555v-466h596v-193h-854q-340 0 -523 175t-185 536zM285 711q0 -270 117.5 -394t353.5 -124h80v1030h-80q-236 0 -352.5 -122t-118.5 -390z" />
<glyph unicode="&#x153;" horiz-adv-x="1568" d="M76 461q0 217 110.5 351t294.5 134h8q90 0 176.5 -43t135.5 -115q51 63 137 110.5t158 47.5q190 0 291.5 -114.5t101.5 -313.5v-96h-586q2 -125 59.5 -193.5t161.5 -68.5q111 0 165 16.5t165 73.5v-201q-186 -74 -336 -74q-80 0 -172 46.5t-145 111.5q-51 -74 -133 -116 t-179 -42q-186 8 -297.5 147.5t-115.5 338.5zM291 455q0 -117 54 -206t144 -89q98 0 158 91t60 210t-59.5 209t-158.5 90q-100 0 -149 -86t-49 -219zM907 586h381q-8 174 -190 174q-76 0 -118 -43t-73 -131z" />
<glyph unicode="&#x178;" horiz-adv-x="1026" d="M0 1417h209l303 -561l307 561h209l-414 -747v-670h-204v670zM297 1667q0 45 25.5 76t62.5 31q39 0 64.5 -31t25.5 -76q0 -41 -25.5 -71.5t-64.5 -30.5q-37 0 -62.5 30.5t-25.5 71.5zM573 1667q0 45 26 76t63 31q39 0 64.5 -31t25.5 -76q0 -41 -26 -71.5t-64 -30.5 q-37 0 -63 30.5t-26 71.5z" />
<glyph unicode="&#x2c6;" horiz-adv-x="661" d="M55 1040l205 312h139l205 -312h-158l-116 156l-117 -156h-158z" />
<glyph unicode="&#x2dc;" horiz-adv-x="710" d="M84 1077q0 94 43 164t123 70q66 0 121 -41l75 -58q16 2 17 58v41h145q0 -96 -43 -164t-125 -70q-49 0 -116 41l-78 60q-16 -2 -17 -39q0 -8 1 -28.5t1 -33.5h-147z" />
<glyph unicode="&#x2000;" horiz-adv-x="973" />
<glyph unicode="&#x2001;" horiz-adv-x="1946" />
<glyph unicode="&#x2002;" horiz-adv-x="973" />
<glyph unicode="&#x2003;" horiz-adv-x="1946" />
<glyph unicode="&#x2004;" horiz-adv-x="648" />
<glyph unicode="&#x2005;" horiz-adv-x="486" />
<glyph unicode="&#x2006;" horiz-adv-x="324" />
<glyph unicode="&#x2007;" horiz-adv-x="324" />
<glyph unicode="&#x2008;" horiz-adv-x="243" />
<glyph unicode="&#x2009;" horiz-adv-x="389" />
<glyph unicode="&#x200a;" horiz-adv-x="108" />
<glyph unicode="&#x2010;" horiz-adv-x="681" d="M119 395v135h442v-135h-442z" />
<glyph unicode="&#x2011;" horiz-adv-x="681" d="M119 395v135h442v-135h-442z" />
<glyph unicode="&#x2012;" horiz-adv-x="681" d="M119 395v135h442v-135h-442z" />
<glyph unicode="&#x2013;" horiz-adv-x="1048" d="M119 403v119h809v-119h-809z" />
<glyph unicode="&#x2014;" horiz-adv-x="1822" d="M119 403v119h1585v-119h-1585z" />
<glyph unicode="&#x2018;" horiz-adv-x="421" d="M90 1020v154q2 74 89 160.5t161 90.5l6 -18q-70 -51 -70 -162q0 -37 13 -67v-158h-199z" />
<glyph unicode="&#x2019;" horiz-adv-x="436" d="M63 1012q90 68 91 184q0 41 -11 66v155h199v-151q-2 -78 -93 -165t-186 -89z" />
<glyph unicode="&#x201a;" horiz-adv-x="432" d="M57 -223q92 72 93 186q0 29 -11 64v155h197v-151q0 -76 -92 -163t-187 -91z" />
<glyph unicode="&#x201c;" horiz-adv-x="724" d="M90 1020v154q2 74 98.5 161.5t182.5 89.5l4 -18q-78 -49 -78 -162q0 -37 12 -67v-158h-219zM371 1020v154q0 74 97 160.5t181 90.5l6 -18q-78 -51 -77 -162q0 -37 12 -67v-158h-219z" />
<glyph unicode="&#x201d;" horiz-adv-x="735" d="M72 1030q76 47 75 164q0 43 -10 68v155h219v-151q-2 -74 -98 -163t-180 -91zM354 1030q76 49 76 162q0 37 -12 70v155h223v-151q-2 -74 -98.5 -163t-182.5 -91z" />
<glyph unicode="&#x201e;" horiz-adv-x="737" d="M72 -205q76 47 75 164q0 43 -10 68v155h219v-151q-2 -74 -98 -163t-180 -91zM354 -205q76 49 76 162q0 37 -12 70v155h223v-151q-2 -74 -98.5 -163t-182.5 -91z" />
<glyph unicode="&#x2022;" horiz-adv-x="659" d="M86 675.5q0 102.5 69.5 174.5t170 72t170 -72t69.5 -174.5t-69.5 -174t-170 -71.5t-170 71.5t-69.5 174z" />
<glyph unicode="&#x2026;" horiz-adv-x="1468" d="M119 0v209h217v-209h-217zM621 0v209h221v-209h-221zM1126 0v209h222v-209h-222z" />
<glyph unicode="&#x202f;" horiz-adv-x="389" />
<glyph unicode="&#x2039;" horiz-adv-x="534" d="M45 453v82l389 337v-196l-203 -180l203 -185v-194z" />
<glyph unicode="&#x203a;" horiz-adv-x="532" d="M98 117v194l197 185l-197 180v196l389 -337v-82z" />
<glyph unicode="&#x205f;" horiz-adv-x="486" />
<glyph unicode="&#x20ac;" horiz-adv-x="1044" d="M27 481l55 146h108v159h-163l55 146h117q35 225 155.5 367.5t317.5 142.5q76 0 159.5 -42t143.5 -102v-245q-80 109 -141.5 154.5t-157.5 45.5q-223 0 -281 -321h473l-77 -146h-414v-159h356l-53 -146h-285q53 -322 281 -321q96 0 154.5 43t144.5 149v-235 q-57 -61 -141 -103.5t-162 -42.5q-201 0 -318.5 139.5t-154.5 370.5h-172z" />
<glyph unicode="&#x2122;" horiz-adv-x="1206" d="M61 1112v119h441v-119h-150v-356h-143v356h-148zM522 756v475h176l113 -170l104 170h172v-475h-141v309l-100 -182h-72l-106 184v-311h-146z" />
<glyph unicode="&#x25fc;" horiz-adv-x="921" d="M0 0v922h922v-922h-922z" />
</font>
</defs>
</svg>
