<?xml version="1.0" standalone="no"?>
<!DOCTYPE svg PUBLIC "-//W3C//DTD SVG 1.1//EN" "http://www.w3.org/Graphics/SVG/1.1/DTD/svg11.dtd" >
<svg xmlns="http://www.w3.org/2000/svg">
<metadata>
This is a custom SVG webfont generated by Font Squirrel.
Copyright   :  Copyright 1997 Hallmark Cards Inc All rights reserved This font is authorized for use by official Hallmark Cards licensees only and may not be copied or distributed 
</metadata>
<defs>
<font id="SandyTextHmkBoldRegular" horiz-adv-x="761" >
<font-face units-per-em="2048" ascent="1638" descent="-410" />
<missing-glyph horiz-adv-x="378" />
<glyph unicode=" "  horiz-adv-x="378" />
<glyph unicode="&#x09;" horiz-adv-x="378" />
<glyph unicode="&#xa0;" horiz-adv-x="378" />
<glyph unicode="!" horiz-adv-x="589" d="M68 51q0 43 33.5 85t74.5 42q59 0 60 -65q0 -43 -34 -86t-75 -43q-59 -1 -59 67zM289 444q0 12 6 33q63 215 234 554t302 509q14 20 74 34.5t111 14.5q61 0 61 -20q0 -12 -28 -33q-43 -29 -50 -35q-121 -123 -356 -484.5t-315 -555.5q-14 -33 -29 -33q-10 0 -10 16z" />
<glyph unicode="&#x22;" horiz-adv-x="589" d="M365 1102q0 12 8 28q68 129 182 345q14 23 45 22q29 0 54.5 -17.5t25.5 -37.5q0 -10 -6 -19q-57 -90 -264 -325q-14 -16 -29 -17q-16 1 -16 21zM608 1102q0 12 8 28q68 129 183 345q14 23 45 22q29 0 54.5 -17.5t25.5 -37.5q0 -10 -6 -19q-57 -90 -265 -325 q-14 -16 -28 -17q-17 1 -17 21z" />
<glyph unicode="#" horiz-adv-x="1269" d="M59 352q0 25 31 37q41 18 313 39q41 82 166 289q-86 -4 -182 -23q-8 -14 -22 -14q-20 0 -39 20.5t-19 44.5q0 39 49 54q70 23 289 32q61 92 209 320q25 39 84 39q23 0 23 -14q0 -6 -11 -19q-78 -100 -227 -319q117 0 235 4q53 78 207 309q25 39 84 39q23 0 23 -12 q0 -8 -10 -21q-104 -129 -226 -317q74 -2 191 -11q39 -8 39 -34q0 -14 -12.5 -30.5t-20.5 -16.5q-66 -2 -260 -9q-6 0 -199 -305q131 0 201 -12q51 -8 51 -43q0 -31 -18 -33q-78 0 -283 -4q-137 -246 -137 -350q0 -10 3 -20.5t3 -14.5q0 -23 -27 -23q-35 0 -37 35 q-4 80 142 369l-266 -16q-131 -217 -132 -330q0 -8 4.5 -19.5t4.5 -17.5q0 -20 -25 -21q-33 0 -37 35q-4 80 131 350q-61 -6 -121.5 -11t-69.5 -17t-28 -12q-25 0 -49.5 23t-24.5 50zM463 430q66 -2 258 6q86 170 176 303q-123 -6 -248 -16q-65 -100 -186 -293z" />
<glyph unicode="$" horiz-adv-x="708" d="M80 311q0 29 10 60q4 18 16 18q18 0 20.5 -42t47.5 -81q39 -35 92 -49q55 119 162 346q-86 119 -86 240q0 154 135 239q109 72 238 86q35 59 84 146q2 14 24 45q27 18 43 18q27 0 27 -28q0 -8 -4 -17q-31 -51 -98 -159q41 -2 55 -7q23 -6 39 -24q25 -23 24 -49 q0 -43 -41 -43q-12 0 -26 6q-23 14 -97 41q-78 -152 -208 -395q63 -102 63 -193q0 -141 -154 -260q-70 -55 -153 -55q6 8 -80 -177q-10 -25 -37 -24q-16 0 -16 12q0 4 2 8l74 174v3l2 10q-158 22 -158 151zM326 213q57 -2 112 39q70 51 70 123q0 51 -47 137 q-22 -55 -135 -299zM442 872q0 -78 60 -159q55 109 178 346q-16 2 -33 2q-84 0 -144.5 -52.5t-60.5 -136.5z" />
<glyph unicode="%" horiz-adv-x="1316" d="M238 696q0 225 235 447q16 6 47 18q55 39 105 39q111 0 110 -135q0 -23 -4 -47q-23 -127 -143 -299q-137 -197 -250 -197q-41 0 -70.5 48t-29.5 126zM313 -45q14 111 285 498q131 184 293 385q139 166 276 331q33 41 107 41q29 0 29 -14q0 -8 -15 -20 q-111 -117 -383 -441q-131 -154 -260 -309q-117 -152 -198.5 -294t-72.5 -179t-30 -37q-35 0 -31 39zM330 659q0 -37 13 -59t36 -14q98 35 192 213q88 168 88 284q0 80 -49 80q-68 0 -67 -37q0 -10 14 -36q10 -16 -4 -17q-43 -6 -64 -31q-117 -154 -155 -354q-4 -15 -4 -29z M745 135q0 229 238 447q14 6 47 20q55 39 105 39q49 0 79.5 -38t30.5 -99q0 -135 -127 -318q-131 -188 -256 -221q-47 -12 -82 37t-35 133zM838 84q0 -61 32 -61q8 0 19 4q86 41 173 176t105 262q4 33 4 55q0 84 -51 84q-70 0 -69 -37q0 -10 14 -37q10 -18 -4 -18 q-43 -4 -62 -31q-121 -160 -157 -354q-4 -23 -4 -43z" />
<glyph unicode="&#x26;" horiz-adv-x="1345" d="M25 256q0 193 228 368t544 207q-209 63 -209 193q0 68 64.5 134.5t170.5 109.5q156 61 299 61q166 0 174 -63q4 -20 -8 -58q-12 -43 -35 -43q-14 -2 -31.5 14.5t-37.5 18.5q-61 8 -125 8q-168 0 -288 -63.5t-120 -138.5q0 -49 58 -86q106 -66 229 -66q29 0 55 4 q29 8 29 -43q0 -61 -29 -59q-279 4 -545 -154t-288 -340q-2 -25 -2 -45q0 -121 82 -182q76 -57 204 -58q211 0 406 127q207 135 207 250q0 51 -35 109q-39 2 -86 0q-55 -4 -53 -4q-25 0 -44.5 17.5t-19.5 35.5q0 35 53 45q43 8 78 8q49 0 90 -17.5t50 -17.5h305q27 0 26 -18 q0 -31 -28 -33q-86 -4 -250 -16q27 -55 26 -103q0 -123 -217 -279.5t-483 -156.5q-172 0 -299 86q-145 101 -145 248z" />
<glyph unicode="'" horiz-adv-x="329" d="M362 1102q0 12 11 28q68 129 182 343q12 25 45 24q29 0 54.5 -17.5t25.5 -37.5q0 -10 -6 -19q-59 -90 -264 -325q-14 -16 -29 -17q-19 1 -19 21z" />
<glyph unicode="(" horiz-adv-x="647" d="M203 127q0 410 282 883q260 438 615 702q37 27 67 27q37 0 37 -29q0 -20 -22 -39q-344 -315 -602 -725q-315 -498 -316 -870q0 -106 29 -193q4 -8 4 -16q0 -27 -23 -27q-27 0 -38 43q-33 113 -33 244z" />
<glyph unicode=")" horiz-adv-x="671" d="M-82 -152q0 16 23 37q324 293 583 731q299 502 299 873q0 115 -32 203q-4 12 -5 20q0 25 21 25q25 0 39 -41q41 -123 41 -271q0 -401 -271 -866q-248 -426 -589 -700q-43 -33 -78 -33q-31 -1 -31 22z" />
<glyph unicode="*" horiz-adv-x="942" d="M457 1085q0 31 21.5 51.5t123.5 41.5q162 31 189 39q-147 166 -168 159q-6 -2 -13 -2q-14 0 -14 15q0 25 27.5 52t58.5 21q25 -4 68 -63q49 -70 98 -137q49 100 162 292q16 23 88 23q43 0 43 -14q0 -4 -6 -11q-76 -80 -228 -307q272 51 310 51q33 -6 32 -20 q0 -12 -12 -14q-172 -31 -330 -76q66 -106 142 -240q4 -31 -11.5 -42t-21.5 -3q-55 84 -168 244q-47 -80 -86 -170q-39 -98 -37 -133q0 -25 -29 -25q-39 0 -39 29q2 76 127 305q-76 -27 -129 -47q-131 -51 -135 -68q-10 -14 -22 -14q-14 0 -27.5 19t-13.5 44z" />
<glyph unicode="+" horiz-adv-x="1157" d="M115 481q-33 43 92 45q76 2 153 4q115 4 207 5l131 383q8 25 50 24q29 0 49 -15.5t12 -41.5q-35 -90 -135 -350q166 -4 323 -19q84 -8 84 -41q0 -31 -65 -26q-109 6 -371 0q-72 -186 -139 -367q-16 -31 -90 -62q39 168 125 426q-113 -6 -326 -12q-65 0 -100 47z" />
<glyph unicode="," horiz-adv-x="344" d="M-98 -182q0 10 16 30q92 98 117 250q14 80 80 76q70 -4 69 -61q0 -63 -85 -170t-144 -129q-53 -21 -53 4z" />
<glyph unicode="-" horiz-adv-x="708" d="M145 500q0 43 41 47q188 18 394 -12q27 -4 26 -37q0 -33 -33 -35q-289 -14 -356 -49q-6 -2 -12 -2q-23 0 -41.5 28.5t-18.5 59.5z" />
<glyph unicode="." horiz-adv-x="421" d="M14 51q0 43 33 85t76 42q57 0 57 -65q0 -43 -32.5 -86t-73.5 -43q-60 -1 -60 67z" />
<glyph unicode="/" horiz-adv-x="774" d="M-135 -317q0 248 377 763q322 440 874 1018q10 25 51 66q37 23 70 22q55 0 55 -39q0 -10 -8 -18q-647 -639 -1032 -1165q-369 -508 -322 -672q2 -8 2 -16q0 -47 -36 -48q-31 1 -31 89z" />
<glyph unicode="0" horiz-adv-x="798" d="M55 229q0 383 434 840q14 16 50 25.5t47 15.5q104 82 188 82q68 0 108 -52.5t40 -142.5q0 -51 -15 -112q-70 -291 -286 -582q-205 -270 -375 -334q-18 -6 -35 -6q-66 0 -111 73.5t-45 192.5zM180 141q0 -104 58 -104q29 0 67 29q176 125 326 401q117 213 166 401 q29 113 28 176q0 98 -69 99q-39 0 -101 -29q-45 -33 -47 -82q-2 -39 -22 -41q-41 -4 -90 -73q-162 -225 -260 -517q-56 -162 -56 -260z" />
<glyph unicode="1" d="M-63 -10q0 23 32 41q43 20 119 30q96 6 191 15q-31 37 -31 108q0 115 78 258q188 350 428 691q-223 -86 -328 -172q-8 -6 -18 -7q-29 0 -29 31q0 12 10 25q127 127 395 231q16 6 45 6q49 0 98.5 -16.5t49.5 -36.5q0 -6 -4 -10q-643 -887 -643 -1055q0 -29 14 -47 q76 0 166 -8q137 -14 137 -39q0 -8 -10 -8q-575 -20 -606 -60q-16 -16 -41 -16q-53 0 -53 39z" />
<glyph unicode="2" horiz-adv-x="849" d="M-80 39q0 18 10 43q57 143 471 502q459 395 537 501q57 82 57 111q0 20 -26 21q-18 0 -62 -13q-174 -39 -323 -153q-121 -90 -146 -150q-8 -20 -24 -20q-20 0 -41 31.5t-21 62.5q0 16 6 26q61 125 240 213q166 82 320 86q68 0 130 -56t62 -130q0 -33 -16 -63 q-59 -119 -277 -291q-47 -37 -414 -303q-248 -182 -342 -287q-31 -35 -30 -43q0 -8 14 -8q55 0 171 20.5t175 20.5q63 0 111 -8q31 -6 48 -41t17 -66q0 -23 -10 -20q-41 4 -100 4q-279 0 -418 -62q-8 -4 -25 -4q-94 0 -94 76z" />
<glyph unicode="3" horiz-adv-x="839" d="M-166 23q0 76 72 106q29 14 41 14t4 -20q-12 -31 -12 -35q0 -10 16 -10q150 16 394.5 154.5t357.5 271.5q43 49 43 84q0 59 -121 59q-90 0 -234 -35q-27 -6 -47 26t-20 69t22 49q606 354 606 399q0 16 -55 16q-106 0 -414 -131q-10 -4 -24 -4q-33 0 -68 25.5t-35 52.5 q0 14 13 27q117 96 180 96q37 0 29 -2q199 57 325 57q178 0 178 -96q0 -29 -20 -51q-90 -94 -555 -379q51 8 92 8q121 0 189 -102q23 -35 22 -76q0 -162 -283.5 -366.5t-621.5 -286.5q-33 -8 -53.5 16.5t-20.5 63.5z" />
<glyph unicode="4" horiz-adv-x="839" d="M111 553q0 90 59 164q145 180 352 332q188 139 352 200q12 4 27 4q63 0 60 -49q53 53 129 53q53 0 53 -22q0 -6 -6 -14q-375 -528 -490 -742q68 8 184 33q29 8 29 -14q0 -25 -106 -58q-78 -23 -131 -30q-25 -4 -43 -37q-174 -301 -174 -416q0 -8 3 -18.5t3 -14.5 q0 -29 -43 -28q-41 0 -43 34q-8 129 172 465q-92 -10 -158 -10q-158 0 -207 80q-22 37 -22 88zM236 506q0 -43 43 -49q102 -12 258 12q113 219 389 682q6 8 6 14q0 10 -14 11q-16 0 -44 -15q-150 -78 -374 -295q-227 -223 -258 -329q-6 -19 -6 -31z" />
<glyph unicode="5" horiz-adv-x="888" d="M37 33q0 59 63 112q18 16 29 17q6 0 6 -8q0 -10 -12 -35t-12 -37q0 -29 36 -29q29 0 80 21q180 70 338 205q135 113 201 223q33 53 33 84q0 55 -101 51q-74 -4 -219 -33t-194 -29q-31 0 -49 7q-43 14 -43 71q0 35 16 60q131 205 301 360q-23 20 25 43q342 156 456 156 q92 0 92 -62q0 -27 -18 -49t-45 -22q-16 0 -31 10q-37 23 -78 22q-68 0 -280 -104q-43 -20 -70 -53q-129 -156 -192 -256q-16 -23 -17 -33q0 -14 29 -10q131 20 213 20q141 0 248 -82q47 -37 47 -90q0 -127 -230 -317q-209 -176 -450 -281q-41 -18 -78 -18q-94 0 -94 86z " />
<glyph unicode="6" horiz-adv-x="980" d="M31 172q0 98 104 283q123 217 336 419q180 174 371 287q176 106 243 96q41 -6 41 -43q0 -29 -32 -28q-8 0 -20.5 8t-20.5 8q-4 0 -11 -2q-268 -119 -589 -516q-315 -385 -316 -571q0 -70 58 -82q66 -14 254 94q182 106 323 235q82 76 82 119q0 23 -29 23q-14 0 -37 -6 q-291 -80 -552 -351q-8 -8 -17 -8q-14 0 -14 21q0 14 12 26q111 125 291 242q211 137 348 137q47 0 78 -29.5t31 -74.5q0 -53 -47 -105q-133 -145 -340 -258q-213 -115 -359 -114q-80 0 -121 41q-67 61 -67 149z" />
<glyph unicode="7" horiz-adv-x="817" d="M90 -4q0 106 223 385q102 125 414 469q217 240 207 264q-18 43 -107 43q-100 0 -262 -51q-143 -47 -243 -100q-6 -4 -13 -5q-35 0 -35 78q0 94 54 107q264 68 413 67q174 0 234 -94q33 -49 33 -94q0 -61 -70 -152q-53 -72 -215 -239q-365 -377 -432 -455 q-162 -190 -146 -264q6 -20 -14 -21q-41 1 -41 62z" />
<glyph unicode="8" horiz-adv-x="813" d="M8 57q0 121 160 312q74 88 254 262q-111 109 -111 203q0 14 8 73q16 129 219 273.5t371 144.5q63 0 107 -25q35 -23 35 -71q0 -68 -43 -102.5t-43 -12.5q0 6 4 18.5t4 18.5q0 27 -47 27q-74 0 -209 -60q-143 -63 -238 -143q-100 -84 -100 -141q0 -33 38 -66t77 -63 q313 279 419 339q8 6 13 7q23 0 -2 -27q-35 -37 -383 -369q119 -119 118 -233q0 -143 -199.5 -318.5t-326.5 -175.5q-61 0 -93 39t-32 90zM84 47q0 -70 63 -70q47 0 113 41q303 186 303 363q0 100 -94 201q-152 -137 -215 -215q-117 -135 -162 -269q-8 -26 -8 -51z" />
<glyph unicode="9" horiz-adv-x="905" d="M133 602q0 176 288 435t513 282q59 6 93 -21.5t34 -74.5q0 -20 -8 -41q37 2 83 -13.5t46 -31.5l-4 -9q-123 -147 -451 -645q-365 -551 -348 -612q8 -27 -23 -27q-41 0 -41 47q0 98 220 480l282 471q-412 -350 -579 -350q-105 -1 -105 110zM217 571q0 -37 41 -36 q18 0 43 6q150 47 387 245q229 193 295 316q29 55 29 80q0 43 -111 2q-180 -68 -385 -234q-213 -172 -283 -321q-16 -35 -16 -58z" />
<glyph unicode=":" horiz-adv-x="421" d="M25 51q0 43 33.5 85t74.5 42q59 0 60 -65q0 -43 -34 -86t-75 -43q-59 -1 -59 67zM299 674q0 43 33 85t74 42q59 0 59 -66q0 -43 -33 -86t-74 -43q-59 0 -59 68z" />
<glyph unicode=";" horiz-adv-x="421" d="M-98 -182q0 10 16 30q92 98 117 250q14 80 80 76q70 -4 69 -61q0 -63 -85 -170t-144 -129q-53 -21 -53 4zM244 674q0 43 33.5 85t74.5 42q59 0 60 -66q0 -43 -34 -86t-75 -43q-59 0 -59 68z" />
<glyph unicode="&#x3c;" horiz-adv-x="1169" d="M111 451q0 39 39 38q12 0 24 -4q10 0 29 19q113 45 424 153q360 127 456 150q25 6 25 -35q0 -51 -39 -63q-375 -100 -803 -273q-18 -6 -4 -16q174 -82 688 -285q31 -12 31 -26q0 -16 -31.5 -28.5t-72.5 -12.5q-37 0 -68 10q-104 41 -348 158q-233 111 -338 167 q-12 30 -12 48z" />
<glyph unicode="=" horiz-adv-x="1157" d="M209 414q0 33 102 37q428 8 629 -13q88 -8 88 -43t-70 -33q-160 8 -327 0l-312 -12q-33 -2 -71.5 21t-38.5 43zM291 604q0 33 102 35q428 10 629 -10q88 -10 88 -45t-70 -31q-160 6 -327 0q-156 -6 -312 -14q-33 0 -71.5 21t-38.5 44z" />
<glyph unicode="&#x3e;" horiz-adv-x="1165" d="M158 113q0 51 41 63q442 127 800 270q20 8 7 19q-68 33 -687 283q-39 16 -38 40q0 25 33.5 44.5t86.5 21.5q18 -20 56 -47q293 -113 686 -322q12 -31 12 -51q0 -37 -37 -37q-12 0 -24 4q-14 2 -29 -16q-92 -41 -422 -158q-356 -125 -457 -149q-28 -6 -28 35z" />
<glyph unicode="?" horiz-adv-x="864" d="M199 51q0 43 32.5 85t73.5 42q59 0 60 -65q0 -43 -33 -86t-74 -43q-59 -1 -59 67zM334 416q0 207 528 592q428 313 428 450q0 68 -90 68t-239 -66q-139 -59 -238 -133q-33 -25 -41 -52.5t-17.5 -30.5t-17.5 -3q-29 0 -54.5 28.5t-25.5 61.5q0 27 21 45q106 96 272 154 q152 51 295 51q162 0 215 -63q41 -51 41 -97q0 -80 -127 -200.5t-446 -337.5q-158 -106 -289 -240q-158 -160 -158 -248q0 -39 31 -61q6 -4 6 -10q0 -16 -27 -17q-16 0 -28 12q-39 42 -39 97z" />
<glyph unicode="@" horiz-adv-x="1609" d="M156 266q0 61 10 129q55 367 312 639.5t546 278.5q213 6 350 -150q127 -143 127 -346q0 -55 -12 -108q-37 -176 -131 -318q-88 -131 -207 -198q-47 -27 -104 -27q-102 0 -115 67q-4 27 -4 56q0 78 55 239q-283 -360 -401 -360q-111 0 -111 135q0 233 279 537 q133 143 258 143t125 -135q0 -18 -5 -41q-2 -16 28 -29.5t26 -21.5q-186 -371 -187 -486q0 -63 49 -63q29 0 82 29q94 49 179 167q98 139 131 318q10 53 10 108q0 182 -100 295q-115 133 -328 119q-246 -16 -498 -280.5t-307 -577.5q-10 -66 -10 -125q0 -184 114 -274 q100 -80 273 -80q160 0 336 63q104 39 157 70q10 6 17 6q10 0 10 -12q0 -18 -16 -33q-45 -29 -142 -76q-174 -66 -352 -65q-195 0 -307 86q-137 104 -137 321zM557 250q0 -43 27 -43q23 0 69 37q111 88 234 237q143 178 174 301q6 23 6 39q0 39 -33 39q-43 0 -125 -61 q-276 -209 -340 -473q-12 -47 -12 -76z" />
<glyph unicode="A" horiz-adv-x="1540" d="M-104 -137q0 129 127 317q137 207 397 434q-20 4 -21 21q0 20 32 41q29 19 67 18h8q584 492 919 649q33 16 50 17q10 0 10 -8q0 -20 -37 -43q-451 -272 -776 -576q-18 -16 -19 -26q0 -10 33 -11h522q35 0 52 33q154 319 178 377q109 246 118 364q1 8 1 15q0 40 -19 69 q-29 43 -84 43q-106 0 -276 -149q-10 -8 -17 -8q-10 0 -10 14q0 16 14 41q37 63 123 103t176 40q106 0 170 -55q70 -58 70 -170v-12q-6 -121 -92 -324q-12 -27 -59.5 -106.5t-78.5 -147t-31 -112.5q0 -14 54 -21q25 -2 25 -18q0 -18 -29 -23q-41 0 -88 -10 q-78 -158 -154.5 -316.5t-76.5 -218.5q0 -51 51 -51h8q33 4 57.5 -10t24.5 -31q0 -18 -37 -18q-74 2 -135 2q-57 0 -171 -18.5t-163 -18.5q-29 0 -29 39q0 43 43 57q37 11 126 11q59 0 143 -5q33 -2 32 7q0 -14 -16 38q-16 35 -16 91q0 152 116 397q6 14 6 20q0 8 -38 9 q-442 0 -619 -9q-31 -2 -55 -32q-313 -274 -449 -537q-74 -143 -73 -225q0 -81 74 -82q10 0 22 2q51 6 51 -21q0 -25 -44 -24h-7q-180 6 -180 168z" />
<glyph unicode="B" horiz-adv-x="1656" d="M4 1139q0 215 148 368q170 174 469 181h17q312 0 611 -211q319 -223 320 -484q0 -88 -41 -168q-47 -90 -268 -151q225 -143 225 -373q0 -160 -115 -287q-184 -205 -418 -204q-233 0 -417 198q-111 -145 -236 -145q-86 0 -129 100q-31 74 -31 172q0 197 94 363q6 14 19 14 q14 0 14 -18q0 -6 -4 -15q-57 -139 -57 -291q0 -121 35.5 -203.5t85.5 -82.5q68 0 163 166q-139 186 -147 395q-1 8 -1 16q0 44 21 43q10 0 11 -12q43 -217 164 -365q152 260 487 1233q4 10 12 11q20 0 45 -36t25 -77q0 -14 -4 -27q-76 -258 -191 -542q-166 -406 -323 -625 q201 -223 407 -223q152 0 258 112q100 106 101 244q0 147 -118 275t-267 151q-12 2 -13 12q0 23 49 65q42 37 56 36h4q70 -39 133 -39q86 0 141.5 59.5t63.5 151.5q1 14 1 27q0 133 -109 274q-120 156 -310 254q-193 99 -389 98h-23q-219 -6 -354 -96q-152 -100 -151 -279 q0 -162 127 -373q18 -31 18 -45q0 -12 -12 -12q-33 0 -78 49q-119 123 -119 316z" />
<glyph unicode="C" horiz-adv-x="1343" d="M115 295q0 229 192 498q170 238 434 434q256 190 467 250q90 25 162 24q111 0 170 -57q51 -49 51 -129q0 -63 -30 -121q-27 -49 -72 -49q-14 0 -14 14q0 10 10 27q35 61 35 98q0 59 -90 59q-51 0 -134 -18q-403 -98 -749 -441t-346 -640q0 -61 18 -117q72 -205 301 -205 q152 0 328 90q170 88 287 217q37 43 71 43q23 0 15 -18q-66 -164 -263.5 -278.5t-402.5 -114.5q-227 0 -344 149q-96 125 -96 285z" />
<glyph unicode="D" horiz-adv-x="1796" d="M-2 1044q0 170 87 329t228 239q166 92 342 92q311 0 602 -270q90 113 209 112q63 0 99 -45q14 -18 14 -33q0 -12 -10 -14q-10 -4 -17 8q-23 33 -65 33q-100 0 -170 -125q344 -381 344 -762q0 -334 -256 -590q-156 -156 -371 -155q-219 0 -403 168q-53 -76 -130 -123 t-143 -47q-43 0 -71 22q-92 76 -92 228t92 315q6 12 16 12q18 0 19 -20q0 -6 -3 -12q-49 -129 -49 -265q0 -104 30 -171.5t75 -67.5q12 0 22 4q84 31 183 180q-190 211 -191 348q0 23 27 23q16 0 20 -19q33 -139 189 -288q92 137 290 608q102 244 132 309q61 129 131 246 q-326 338 -585 338h-3q-109 0 -211 -56q-133 -74 -211 -232.5t-78 -334.5q0 -184 86 -319q4 -6 4 -13q0 -18 -18 -18q-12 0 -25 10q-139 139 -139 356zM686 92q184 -168 363 -168q170 0 294 146q145 172 146 440q0 184 -70 377q-68 184 -178 317q-82 -190 -211 -491 q-180 -394 -344 -621z" />
<glyph unicode="E" horiz-adv-x="1316" d="M68 338q0 9 -1 18q0 222 245 419q255 206 626 257q-244 70 -244 217q0 80 76 158t205 129q186 74 358 74q203 0 211 -80q1 -11 1 -22q0 -27 -7 -56q-12 -53 -41 -55q-16 0 -37.5 18.5t-46.5 22.5q-80 12 -158 12q-199 0 -342 -70q-135 -68 -135 -153q0 -57 76 -103 q100 -61 215 -61q59 0 129 14q20 6 21 -37q0 -41 -19.5 -92t-38.5 -51q-309 -4 -618 -145q-383 -174 -383 -449q0 -160 129 -252q119 -84 299 -84q170 0 323 78q166 84 256 238q23 39 41 39q31 0 31 -56q0 -43 -39 -96q-94 -123 -256 -190q-154 -66 -326 -66 q-223 0 -374 104q-168 117 -176 320z" />
<glyph unicode="F" horiz-adv-x="1421" d="M231 1356q197 143 488 143q225 0 446 -90q236 -96 420 -281q10 -10 10 -24q0 -18 -14 -19q-4 0 -8 5q-305 270 -705 270q-295 0 -549 -141q-236 -131 -286 -293q-6 -20 -17 -21q-15 0 -14 28q0 126 62.5 236t166.5 187zM35 145q0 219 201 408q16 14 32 14q18 0 18 -12 q0 -14 -24 -43q-156 -195 -156 -389q0 -113 58.5 -184.5t157.5 -71.5q78 0 165 47q168 88 338 332q121 172 281 487q-287 0 -322 -20q-2 -2 -4 -2q-6 0 -6 6q0 16 16.5 37.5t43 27.5t116.5 6q133 0 178 3q104 188 117 309q2 18 21 18q29 0 76 -42q46 -40 47 -61 q0 -44 -80 -222q143 0 166.5 -5.5t23.5 -19.5q0 -10 -12 -12q-70 -2 -207 -15q-348 -721 -750 -886q-94 -39 -180 -39q-139 0 -227 94t-88 235z" />
<glyph unicode="G" horiz-adv-x="1517" d="M96 313q0 301 326 643q336 356 780 488q80 23 144 22q115 0 178 -67q53 -59 53 -146q0 -76 -39 -125q-23 -29 -53 -28q-18 0 -19 16q0 10 13 29q29 47 28 78q0 61 -104 61q-68 0 -174 -24q-373 -88 -713 -406.5t-340 -593.5q0 -55 17 -102q59 -178 274 -178 q213 0 449.5 157.5t308.5 360.5h-39q-131 0 -203 -13q-20 -4 -20 15q0 18 18 43.5t37 27.5q94 10 500 11q16 0 16 -25q0 -39 -33 -45q-47 -2 -147 -14q-227 -561 -461 -834q-193 -223 -363 -223q-72 0 -129 41q-25 18 -24 39q0 14 20 14q12 0 37 -8q49 -18 98 -19 q154 0 304 193q109 141 270 469q-311 -252 -596 -252q-262 0 -377 232q-37 71 -37 163z" />
<glyph unicode="H" horiz-adv-x="1912" d="M0 827q0 252 399 435q391 180 910 180q127 0 252 -12q33 -2 32 -31q0 -23 -20 -23q-33 1 -66 1q-376 0 -700 -87q-328 -88 -520.5 -237.5t-192.5 -309.5q0 -78 47 -147q6 -10 4 -18q-4 -10 -12 -11q-10 0 -24 15q-109 120 -109 245zM178 2q0 29 29 42t76 13q10 0 34 -2 h35q66 0 105 23q70 41 170 203q113 190 223 383q-88 2 -88 30q0 8 8 19q18 27 121 26q152 250 346 549q14 16 47 17q39 0 82 -17.5t43 -36.5q0 -6 -8 -10q-57 -37 -328 -502q150 -2 514 -8q188 301 385 543q180 223 254 262q47 25 133 25q51 0 51 -13q0 -6 -6 -10 q-297 -240 -665 -807q74 -4 125 -14q18 -2 18 -19q0 -27 -33 -26h-153q-281 -459 -281 -662q0 -74 47 -73q35 0 90 38q27 20 35 7q8 -14 -8 -27q-76 -61 -139 -61q-115 0 -115 167q0 229 229 613q-48 1 -122 0q-150 0 -408 -2q-303 -483 -530 -613q223 -8 223 -53 q0 -16 -27 -16q-80 0 -240.5 -19.5t-232.5 -19.5q-39 0 -39 51z" />
<glyph unicode="I" d="M-188 -25q0 23 26 31q100 31 322 37q-31 25 -31 86q0 145 188 524q8 14 347 650q-188 -12 -236 -19q-72 -12 -98 -43q-4 -6 -15 -6q-20 0 -42.5 16.5t-22.5 36.5q0 23 35 41q84 47 428 47q2 0 59 27t84 27q31 0 39 -23t14 -23q199 -16 269 -34q31 -10 30 -25 q0 -31 -43 -22q-64 11 -198 11q-38 0 -82 -1q-27 0 -39 -25q-229 -385 -459 -772q-188 -338 -188 -435q0 -32 20.5 -38t106.5 -8t159 -25q14 -4 15 -22q0 -27 -23 -27q-92 8 -184 8q-154 0 -277 -16q-109 -16 -131 -31q-6 -6 -16 -6q-18 0 -37.5 19.5t-19.5 39.5z" />
<glyph unicode="J" horiz-adv-x="1073" d="M-274 -578q0 23 6 48q66 279 374 526q248 197 490 270q43 12 74 76q145 301 291 604q188 365 335 502q-338 -94 -626 -277q-330 -209 -385 -415q-10 -39 -11 -72q0 -117 132 -117q63 0 147 31q10 4 18 4q12 0 13 -8q0 -18 -31 -33q-92 -45 -174 -45q-96 0 -154.5 60.5 t-58.5 156.5q0 160 156 307q197 182 577 340q393 162 682 168h6q30 0 31 -18q0 -16 -31 -19q-61 -4 -93 -20t-67 -66q-152 -219 -401 -704q-264 -508 -414 -737q-260 -395 -559 -629q-82 -66 -176 -66q-66 0 -108.5 36t-42.5 97zM-188 -582q0 -70 61 -69q59 0 154 61 q276 176 591 823q-270 -90 -477 -278q-172 -158 -270 -352q-59 -117 -59 -185z" />
<glyph unicode="K" horiz-adv-x="1488" d="M-29 887q0 129 150 264q162 143 430 238q301 104 670 116h7q30 0 29 -16q0 -10 -16 -12q-352 -37 -639 -160q-248 -106 -397 -252q-137 -131 -137 -238q0 -72 67 -104q10 -4 10 -14q0 -14 -18 -15q-12 0 -25 8q-131 66 -131 185zM158 2q0 29 32 41q10 4 86 25 q51 12 82 41q68 66 351 657q274 582 307 602q14 10 45 10q39 0 76 -16t32 -37q-2 -18 -23.5 -31.5t-25.5 -19.5q-133 -236 -221 -402q869 516 1022 517h4q25 0 45.5 -23t20.5 -37q0 -6 -6 -4q-10 1 -21 1q-227 0 -1018 -486q221 -1034 436 -1035q16 0 31 5q18 6 19 -7 q0 -37 -74 -36q-139 0 -293 251q-168 270 -256 689q-143 -301 -254 -457q-61 -88 -170 -182q272 -12 272 -64q0 -20 -12 -20q-71 4 -141 4t-139 -4q-129 -6 -152 -19q-8 -6 -16 -6q-39 0 -39 43z" />
<glyph unicode="L" horiz-adv-x="1333" d="M-18 90q0 100 47 221q41 104 94 170q16 20 33 21q20 0 20 -25q0 -16 -10 -35q-98 -176 -98 -321q0 -74 24 -139q27 -72 92 -72q121 0 326 260q-100 119 -193 276q-6 8 -6 21q0 33 21 33q6 0 12 -11q43 -63 193 -239q63 90 200 377q147 307 244 456q268 426 575 426 q61 0 130 -16q23 -6 22 -31q0 -39 -31 -39q-10 0 -20 7q-53 35 -103 34q-84 0 -182 -116q-45 -57 -203 -297q-145 -227 -292 -455q-186 -285 -283 -414q106 -129 244 -219q172 -113 325 -113q104 0 197 56q12 6 18 6q10 0 11 -12q0 -29 -25 -52q-121 -117 -256 -116 q-248 0 -547 385q-207 -262 -373 -262q-66 0 -122 43q-84 61 -84 192z" />
<glyph unicode="M" horiz-adv-x="2258" d="M-4 1042q0 168 106.5 329t268.5 235q121 55 254 55q195 0 352 -111q174 -123 264 -358q78 -207 78 -469q0 -147 -25 -313q328 373 891 807q14 10 66 86q20 29 59 28q33 0 59.5 -16.5t26.5 -38.5q0 -6 -2 -10q-487 -950 -487 -1216q0 -14 2 -25q6 -49 37 -50q59 0 112 111 q4 10 13 10q12 0 12 -20q0 -10 -6 -23q-33 -68 -88.5 -107.5t-106.5 -39.5q-98 0 -98 137q0 289 383 1073q-217 -147 -475 -383q-225 -207 -387 -389q-23 -27 -58 -104q-31 -70 -55 -90q-12 -12 -39 -13q-59 0 -59 35q0 14 16 35q90 106 102 196q10 68 11 134 q0 190 -113 505q-420 -375 -627 -727q-166 -283 -166 -491q0 -86 30 -136t77 -50q6 0 19.5 3t19.5 3q18 0 18 -11q0 -14 -23 -29q-17 -11 -33 -11q-7 0 -13 1q-207 41 -207 246q0 229 248.5 579.5t638.5 663.5q-98 225 -240 363q-154 152 -315 151q-74 0 -144 -32 q-305 -135 -305 -498q0 -160 53 -276q8 -18 9 -33q0 -14 -11 -15q-14 0 -37 23q-106 112 -106 276z" />
<glyph unicode="N" horiz-adv-x="1748" d="M-14 961q0 156 80 288q86 141 239 221q143 74 297 74q297 0 498 -260q268 -350 276 -924q326 651 516 920q262 371 502 406q21 3 35 2q32 0 33 -13q0 -12 -35 -20q-336 -84 -1032 -1422q-2 -4 -31 -108q-27 -94 -59 -135q-8 -14 -33 -15q-49 0 -49 41q0 16 12 37 q37 63 61 160q17 74 17 123v10q-12 393 -279.5 752.5t-554.5 359.5q-68 0 -127 -22q-127 -47 -196 -201q-61 -135 -62 -305q0 -193 72 -301q8 -14 8 -27q0 -18 -14 -18q-16 0 -37 22q-137 146 -137 355zM0 49q0 53 25 53q12 0 18 -26q18 -76 76 -76q109 0 327 279 q227 289 502 790q8 16 27 16q25 0 24 -20q0 -4 -2 -8q-594 -1157 -854 -1157q-86 0 -137 123q-6 12 -6 26z" />
<glyph unicode="O" horiz-adv-x="1554" d="M127 322q0 291 244 583q20 23 55 70q281 461 756 547q43 8 86 8q168 0 275.5 -118t107.5 -306q0 -229 -160 -477q-182 -285 -539 -535q-233 -164 -463 -164q-178 0 -276 111q-86 99 -86 281zM244 324q0 -152 78.5 -239t214.5 -87q180 0 397 160q289 211 440 460 q131 219 131 422q0 166 -90 269.5t-239 103.5q-61 0 -132 -18q-319 -92 -530 -377q45 31 131 72q37 8 37 -15q0 -18 -25 -31q-117 -57 -186 -213q-8 -16 -16 -16q-4 0 -11.5 2t-13.5 2q-18 0 -37 -35q-149 -253 -149 -460z" />
<glyph unicode="P" horiz-adv-x="1488" d="M-55 1114q0 236 174 389q195 172 454 172q266 0 521 -168q246 -160 358 -389q76 -154 76 -282q0 -184 -148 -289q-137 -102 -364 -103q-66 0 -135 11q-137 18 -138 98q0 68 72 80q18 4 33 4q35 0 35 -14q0 -10 -17 -17q-51 -20 -51 -51q0 -33 47 -41q55 -8 109 -8 q180 0 292.5 95t112.5 249q0 164 -131 342q-152 209 -350 319q-182 100 -369 101q-225 0 -374 -142q-102 -96 -103 -294q0 -170 76 -379q2 -8 2 -17q0 -16 -14 -16q-16 0 -39 24q-129 133 -129 326zM391 -49q0 221 123 522q139 338 387 641q18 20 53 21q29 0 54.5 -16.5 t25.5 -37.5q0 -12 -8 -22q-266 -324 -424 -676q-141 -307 -141 -496q0 -132 73 -132q6 0 13 1q33 4 33 -14q0 -27 -50 -29h-6q-133 0 -133 238z" />
<glyph unicode="Q" horiz-adv-x="1597" d="M119 373q18 246 215 512q184 250 444 415q270 172 494 173q150 0 149 -39q0 -18 -32 -17h-5q-206 0 -493 -200q-276 -195 -477 -463q-213 -287 -213 -500q0 -123 69.5 -189.5t194.5 -66.5q139 0 319 84q-201 174 -352 174q-74 0 -127 -43q-16 -14 -31 -14q-12 0 -12 12 t17 25q109 86 245 86q203 0 394 -172q365 219 555 462q164 213 163 396q0 123 -76.5 196.5t-207.5 73.5q-16 0 -49 -4t-50 -4q-37 0 -36 14q0 33 100 43q19 2 38 2q126 0 222 -84q115 -102 115 -270q0 -190 -154 -406q-178 -250 -539 -495q94 -92 201 -164q103 -69 144 -69 q5 0 10 1q14 4 14 -6q0 -25 -35 -43t-63 -18q-150 0 -412 233q-190 -74 -348 -74q-195 0 -297 109q-96 100 -96 276q0 26 2 54z" />
<glyph unicode="R" horiz-adv-x="1372" d="M-88 1145q0 160 89 304t238.5 216t321.5 72q268 0 520 -154q244 -150 353 -364q63 -127 63 -234q0 -150 -123 -233q-115 -80 -303 -80q-90 0 -186 18q43 -383 92 -543q68 -211 190 -210q35 0 74 14q23 10 23 -19q0 -8 -7 -12q-57 -39 -114 -39q-156 0 -275 250 q-131 272 -131 578q0 66 119 104q23 6 29 -29q8 -41 22 -45q53 -12 109 -12q137 0 233.5 77t96.5 202q0 145 -142 305q-152 174 -346 268q-184 88 -364 88q-229 0 -375 -133q-115 -106 -115 -336q0 -188 86 -391q4 -10 4 -19q0 -12 -8 -12q-12 0 -41 29q-133 141 -133 340z M344 88q0 199 145 528q166 373 435 703q18 23 69 38t92 15q33 0 33 -12q0 -4 -4 -10q-299 -338 -516 -764q-193 -373 -192 -527q0 -45 24 -45q6 0 15.5 3t13.5 3q18 0 18 -18q0 -37 -47 -45q-8 -1 -15 -1q-71 0 -71 132z" />
<glyph unicode="S" horiz-adv-x="980" d="M6 150q0 186 178 315q23 18 35 18q10 0 10 -8q0 -12 -18 -29q-135 -115 -135 -258q0 -96 61.5 -160.5t157.5 -64.5q86 0 176 53q211 123 211 369q0 113 -53 203q-156 256 -156 440q0 281 350 490q190 113 367 112q117 0 189.5 -50t72.5 -132q0 -49 -31 -105 q-16 -33 -37 -32q-12 0 -12 10q0 8 6 25.5t6 29.5q0 72 -78.5 127.5t-195.5 55.5q-135 0 -268 -80q-240 -145 -240 -351q0 -121 100.5 -331.5t100.5 -329.5q0 -147 -90 -283.5t-250 -232.5q-109 -66 -209 -66q-111 0 -179.5 77t-68.5 188z" />
<glyph unicode="T" horiz-adv-x="1462" d="M12 870q0 190 113 349q129 182 348 278q205 88 459 88q256 0 516 -91t475 -259q14 -10 14 -25q0 -18 -18 -18q-12 0 -27 10q-362 268 -825 268q-270 0 -506 -96q-227 -92 -342 -241q-125 -166 -125 -334q0 -137 84 -227.5t217 -90.5q51 0 51 -20q0 -14 -22.5 -25.5 t-50.5 -9.5q-164 10 -264 143q-97 125 -97 301zM668 45q0 479 610 1260q41 53 149 53q41 0 41 -15q0 -4 -4 -8q-332 -387 -542 -813q-186 -375 -187 -573q0 -18 8.5 -51t8.5 -50q0 -31 -15 -30q-12 0 -24 22q-45 78 -45 205z" />
<glyph unicode="U" horiz-adv-x="1812" d="M-41 856q0 174 297 350q326 195 821 267q8 1 14 1q21 0 21 -16q0 -14 -14 -16q-506 -123 -789 -332q-229 -168 -229 -309q0 -66 57 -88q27 -10 27 -29q0 -16 -19 -16q-4 0 -10 2q-176 61 -176 186zM469 143q0 201 145 521q141 309 385 655q14 20 80 20q96 0 97 -32 q0 -4 -2 -11q-592 -889 -592 -1224q0 -113 80 -113q31 0 71 18q158 74 361 279q154 156 362 420l320 414q12 14 39 14q68 0 67 -45q0 -6 -2 -15q-96 -242 -299 -610q-195 -352 -297 -483q-23 -29 -47 -29q-12 0 -12 12t10 31q242 406 385 774q2 8 2 15q0 10 -6 10 q-14 0 -37 -31q-648 -837 -930 -836q-83 0 -135 72q-45 65 -45 174z" />
<glyph unicode="V" horiz-adv-x="1241" d="M-82 1028q0 160 184 277q227 143 646 143q33 0 32 -12q0 -18 -41 -25q-358 -49 -559 -197q-164 -119 -164 -239q0 -49 36 -73.5t36 -31.5q0 -10 -25 -10q-12 0 -24 4q-121 31 -121 164zM602 1245q6 37 53 62.5t90 25.5q49 0 49 -29q0 -5 -1 -12q-63 -287 -129 -571 q-100 -461 -103 -655q184 266 369 534q270 379 477 598q274 291 457 324q9 2 14 2q12 0 12 -8q0 -18 -43 -43q-229 -123 -616 -599q-274 -338 -721 -974q-23 -29 -43 -29q-37 0 -37 57q0 344 172 1317z" />
<glyph unicode="W" horiz-adv-x="2152" d="M-16 906q0 152 206 294q262 178 793 281q8 2 15 1q16 0 16 -12q0 -25 -39 -34q-467 -129 -709 -310q-190 -141 -190 -266q0 -70 59 -94q29 -10 29 -23q0 -23 -49 -10q-131 37 -131 173zM141 -127q68 244 342 762q213 403 359 633q23 35 84 35t61 -32q0 -10 -6 -22 q-16 -35 -336 -565q-270 -453 -319 -625q158 197 342 390q72 74 430 432q47 72 94 145q102 135 184 135q27 0 58.5 -11t31.5 -28q0 -6 -10 -14q-131 -102 -254 -365q-127 -272 -127 -479q0 -154 82 -221q63 -51 146 -51q154 0 337 168q170 156 289 379q121 231 119 407 q-4 170 -92 277q-80 96 -187 96q-55 0 -106 -34t-61 -34q-14 0 -15 17q0 39 27 51q100 51 186 51q131 0 211 -110.5t96 -309.5q2 -23 2 -46q0 -194 -122 -415q-127 -231 -328 -391q-207 -164 -385 -164q-162 0 -250 136q-78 117 -78 288q0 164 70 355q-182 -193 -365 -383 q-227 -242 -418 -492q-33 -43 -65 -43q-34 0 -34 37q0 17 7 41z" />
<glyph unicode="X" horiz-adv-x="1134" d="M-152 -231q0 145 189.5 378.5t525.5 501.5q-49 356 -49 625q0 47 3 81t34 34q35 0 79 -35t44 -62q2 -178 22 -534q473 375 723 522q10 6 31 6q51 0 51 -18q0 -6 -8 -11q-266 -158 -788 -579q31 -342 94 -539q55 -168 112 -168q8 0 18.5 7.5t18.5 7.5q35 0 35 -49 q0 -27 -25 -31q-12 -4 -26 -4q-119 0 -220.5 184t-140.5 477q-348 -266 -526 -500q-145 -190 -145 -311q0 -20 9 -43.5t9 -30.5q0 -20 -16 -20q-12 0 -25 14q-29 40 -29 97zM-49 1182q0 123 123 209q152 104 438 104q98 0 211 -14q35 -4 35 -17q0 -23 -49 -20q-24 1 -48 0 q-323 0 -499 -105q-143 -86 -144 -200q0 -53 33 -74q14 -10 15 -23q0 -15 -12 -14q-8 0 -21 6q-82 44 -82 148z" />
<glyph unicode="Y" horiz-adv-x="1775" d="M-86 1042q0 178 102 320q119 164 336 211q68 16 146 16q258 0 424 -162q227 -221 227 -710q0 -238 -55 -535q266 326 551 641q328 365 430 430q20 14 43 15q27 0 48 -17.5t21 -36.5q0 -12 -12 -20q-141 -88 -449 -401q-326 -332 -602 -682q-457 -573 -514 -852 q-12 -55 -53 -56q-51 0 -51 58q0 12 4 24q78 262 471 764q23 29 35 143.5t12 237.5q0 449 -151 760q-169 340 -457 340h-17q-199 -6 -311 -174q-98 -147 -98 -350q0 -90 22 -168q4 -18 4 -31q0 -23 -12 -23q-8 0 -22 17q-72 91 -72 241z" />
<glyph unicode="Z" horiz-adv-x="1394" d="M6 1073q0 82 72 178q172 223 540 224q158 0 398 -41q203 -37 403 -74q12 -2 25 -2q20 0 88 26l12 2q28 0 58 -31q37 -38 36 -67q0 -14 -14 -14q-31 -2 -61 -2q-39 -4 -74 -39q-74 -78 -397 -533q-369 -514 -398 -550q367 -315 625 -316q98 0 154 49q10 8 24 6 q12 -2 12 -14q0 -14 -20 -35q-133 -131 -246 -131q-211 0 -618 365q-178 -195 -322 -195q-51 0 -92 29q-111 80 -111 233q0 82 37 172q12 29 27 29q20 0 12 -47q-8 -53 -8 -105q0 -207 115 -243q20 -8 43 -8q96 0 247 194q-80 82 -163.5 166t-135.5 94q-23 4 -22 17 q0 16 31 16q49 0 159 -80l189 -139q215 348 317 508q164 252 193 295q129 193 202 266q-436 53 -657 53q-393 0 -569 -137q-53 -43 -54 -100q0 -61 61.5 -112.5t162.5 -64.5q23 -2 22 -12q0 -16 -49 -20q-7 0 -14 -1q-80 0 -152 44q-88 55 -88 147z" />
<glyph unicode="[" d="M-94 -381q18 39 49 111q137 340 399 940q242 557 303 682q27 57 84 168q150 12 369 -11q14 -2 14 -14q0 -14 -16 -14q-86 0 -190 -11q-16 -2 -60 -32q-84 -59 -430 -846q-340 -772 -336 -858v-27q2 -12 23 -12q90 -6 182 -31q16 -4 16 -14q0 -14 -16 -12q-72 6 -215 -15 q-27 -27 -100 -26q-88 -1 -76 22z" />
<glyph unicode="\" horiz-adv-x="890" d="M303 1518q0 35 10 34q20 0 68 -98q147 -289 293 -739q133 -412 207 -766q-4 -25 -4 -68q12 -39 12 -65q0 -43 -27 -43q-49 0 -61 59q-70 371 -199 805q-141 475 -291 801q-8 51 -8 80z" />
<glyph unicode="]" horiz-adv-x="780" d="M-213 -391q0 12 14 14q78 8 213 51q92 31 119 82q94 147 352 721q283 627 349 875q20 72 0 112q-143 20 -216 15q-18 -2 -18 12q0 10 18 14q49 14 189 23q55 4 184 10q35 -57 35 -63q0 -10 -9 -17.5t-9 -11.5q0 -2 4 -10.5t2 -14.5q-111 -272 -367 -831 q-262 -575 -438 -926q-18 -35 -211 -59q-119 -14 -193 -8q-18 0 -18 12z" />
<glyph unicode="^" horiz-adv-x="1060" d="M201 545q82 102 371.5 421.5t361.5 387.5q33 12 31 26q23 53 59 54q23 0 45 -21q4 -109 -14 -369q-20 -248 -39 -370q-4 -10 3 -30.5t7 -29.5q-55 -98 -100 -98q-27 0 -21 47q37 283 84 723q-4 -2 -20 -12q-303 -326 -660 -744q-20 -23 -63 -22q-27 0 -42 10.5t-3 26.5z " />
<glyph unicode="_" horiz-adv-x="1353" d="M-141 -268q0 47 110 49h1288q53 0 54 -17q0 -31 -78 -34q-477 -8 -1342 -25q-32 0 -32 27z" />
<glyph unicode="`" horiz-adv-x="679" d="M477 1286q0 25 21.5 44.5t46.5 19.5q23 0 37 -17q74 -84 217 -289q10 -12 10 -22q0 -16 -16 -16q-25 0 -52 26q-80 70 -252 225q-12 13 -12 29z" />
<glyph unicode="a" horiz-adv-x="907" d="M2 113q0 289 344 659q168 180 322 180q152 0 151 -166q0 -25 -4 -53q-2 -18 34 -44q32 -23 32 -33q0 -41 -31.5 -106t-79 -141t-59.5 -100q-86 -188 -113 -340q-2 -16 -27 -16q-47 0 -47 57q0 8 2 21q18 94 48 181t63 175q-201 -252 -318 -352q-104 -92 -180 -92 q-137 0 -137 170zM98 55q0 -59 37 -59q39 0 115 61q129 102 280 287q174 211 232 361q0 14 2 40q4 16 4 31q0 53 -55 53q-68 0 -164 -71q-143 -106 -258 -256q-137 -178 -180 -359q-13 -55 -13 -88z" />
<glyph unicode="b" horiz-adv-x="880" d="M53 80q0 51 37 110q-20 6 -20 54q0 158 147 514q160 387 344 610q213 258 438 258q76 0 152 -31q29 -12 29 -28q0 -14 -17 -15q-8 0 -30.5 8.5t-38.5 8.5q-168 0 -430 -334q-240 -303 -367 -614q233 293 397 292q51 0 94 -30q66 -49 66 -158q0 -182 -162 -424t-356 -336 q-47 -25 -105 -24q-74 0 -126 38t-52 101zM141 92q0 -98 82 -98q27 0 60 12q141 53 269 266t146 426q1 13 2 25q0 88 -71 88q-76 0 -178 -104q-86 -84 -172 -215q-92 -137 -93 -191q0 -16 9 -22q23 -18 12 -29q-66 -70 -66 -158z" />
<glyph unicode="c" horiz-adv-x="708" d="M39 219q0 74 27 154q82 252 233 399q137 135 268 135q129 0 166 -135q4 -14 4 -33q0 -68 -39 -154.5t-75 -99.5q-14 -6 -27 -6q-35 0 -35 37q0 74 86 141q33 27 33 25q-2 59 -76 59q-90 0 -194 -88q-127 -106 -209 -293q-53 -121 -54 -208q0 -139 107 -140q78 0 168 82 q10 10 22 10q18 0 19 -18q0 -14 -17 -29q-98 -98 -202 -98q-88 0 -146.5 71.5t-58.5 188.5z" />
<glyph unicode="d" horiz-adv-x="890" d="M29 115q0 141 77 313q88 205 263 393q125 135 258 135q152 0 164 -176l213 410q129 233 196 235q45 0 78 -13t33 -26q0 -4 -6 -6q-98 -31 -418 -667q-307 -613 -308 -738q0 -9 -0.5 -12.5t-5 -6.5t-14.5 -3q-42 0 -42 44q0 12 3 28q16 92 47 176l62 168 q-193 -244 -296.5 -337t-172.5 -93q-35 0 -74 20q-57 31 -57 156zM121 70q0 -70 43 -70q37 0 102 51q115 92 254 275q154 199 209 346q0 14 2 41q6 20 6 39q0 84 -80 84q-137 0 -325 -283q-166 -246 -203 -408q-8 -42 -8 -75z" />
<glyph unicode="e" horiz-adv-x="708" d="M29 188q0 72 24 150q90 270 271 438q160 150 309 150q102 0 147 -80q16 -31 17 -72q0 -121 -125 -244q-166 -160 -514 -276q-27 -63 -27 -119q0 -131 107 -131q80 0 176 94q10 8 20 8q14 0 15 -18q0 -14 -11 -27q-102 -121 -215 -120q-84 0 -139 68t-55 179zM186 330 q1 -4 10 -4q6 0 15 2q203 55 360 184q152 123 152 217q0 55 -41 55q-88 0 -233 -110q-172 -131 -256 -316q-7 -16 -8 -23q0 -3 1 -5z" />
<glyph unicode="f" horiz-adv-x="669" d="M-178 -479q0 20 4 43q74 377 283 856q246 565 620 1128q4 6 0 25q-4 18 25 47q8 8 22 8q33 0 68 -30.5t35 -65.5q0 -14 -7 -27q-35 -61 -174 -274q-131 -205 -229 -383q63 -37 88 -92q6 -12 45 0q23 8 70 53q12 12 20 8q8 -6 8 -20q0 -16 -12 -33q-39 -47 -94 -66 q-2 -305 -193 -733q-178 -399 -333 -522q-63 -51 -127 -51q-51 0 -85 35t-34 94zM-96 -479q0 -76 49 -76q47 0 121 74q117 115 281.5 517t164.5 582q0 23 -4 41.5t-12 42.5q-31 23 -84 64q-156 -268 -311 -610q-205 -457 -205 -635z" />
<glyph unicode="g" horiz-adv-x="892" d="M-317 -774q0 27 8 59q47 178 262 353q160 131 510 327q55 117 155 373q-324 -387 -471 -387q-33 0 -65 14q-66 25 -66 148q0 127 78 293q90 195 266 387q139 156 281 155q76 0 123 -50t47 -136q0 -25 -4 -53q2 -2 37 -29q24 -17 23 -28q0 -2 -1 -5q-55 -143 -272 -661 q-4 -8 12.5 -9.5t16.5 -7.5q0 -2 -2 -8q-8 -12 -32 -23.5t-28 -19.5q-360 -584 -661 -760q-59 -35 -115 -35q-102 1 -102 103zM-256 -776q0 -66 45 -66q23 0 51 19q303 190 570 700q-528 -301 -643 -555q-23 -51 -23 -98zM96 74q0 -68 51 -68q39 0 105 37q176 104 412 446 q8 14 21 67.5t54 121.5q12 10 25 37q1 11 1 20q0 92 -87 92q-59 0 -125 -49q-143 -109 -260 -258q-143 -188 -187 -379q-10 -38 -10 -67z" />
<glyph unicode="h" horiz-adv-x="946" d="M-27 25q0 12 4 24q258 662 404 950q233 463 444 590q104 63 232 64q121 0 155 -60q12 -18 13 -32q0 -20 -15 -21q-6 0 -10 6q-43 57 -100 58q-293 0 -924 -1338q412 508 758 643q16 8 31 9q47 0 47 -58q0 -27 -13 -45q-373 -541 -372 -737q0 -57 35 -58q25 0 55 29 q10 8 16 8q10 0 10 -14q0 -29 -42 -53.5t-72 -24.5q-84 0 -84 160q0 219 200 563q14 25 15 37q0 10 -8 10q-12 0 -35 -14q-143 -90 -352 -315q-225 -244 -273 -388q-14 -43 -61 -43q-58 1 -58 50z" />
<glyph unicode="i" horiz-adv-x="417" d="M-10 63q0 25 8 54q39 156 131 375q84 203 154 325q2 4 -2 27q-2 16 24 39q10 8 27 8q37 0 80 -42t43 -83q0 -16 -9 -29q-360 -541 -360 -688q0 -35 25 -35q33 0 98 56q14 14 27 14q8 0 8 -10q0 -12 -19 -33q-80 -82 -147 -82q-88 0 -88 104zM524 1120q0 37 39 105 q32 53 72 52q7 0 14 -1q88 -18 88 -100q0 -23 -12 -41q-55 -90 -113 -91q-18 0 -41 9q-47 24 -47 67z" />
<glyph unicode="j" horiz-adv-x="487" d="M-549 -504q-3 18 -2 32q0 40 23 40q12 0 22 -23q31 -74 78 -73q66 0 168 135q307 401 606 1267q0 2 -2 27q0 16 27 39q12 10 35 10q41 0 86 -34.5t45 -71.5q0 -12 -7 -23q-496 -1042 -852 -1351q-94 -80 -149 -80q-64 0 -78 106zM528 1247q0 37 41 103q24 53 73 53 q9 0 20 -2q86 -18 86 -101q0 -23 -11 -40q-57 -90 -114 -91q-18 0 -41 9q-54 22 -54 69z" />
<glyph unicode="k" horiz-adv-x="862" d="M-27 -12q0 16 9 39q467 1264 835 1517q119 82 221 82q80 0 144 -49q76 -61 75 -160q0 -49 -22 -98q-14 -33 -33 -33q-10 0 -10 19q0 16 6 50t6 50q0 145 -110 145q-57 0 -117 -49q-190 -162 -356 -397q-172 -246 -371 -649q387 471 567 471q61 0 113 -58q33 -37 33 -90 q0 -121 -144 -241q-160 -137 -424 -199q39 -338 142 -363q18 -4 18 -12q0 -20 -55 -20q-106 0 -193 151q-66 111 -94 242q-102 -225 -135 -330q-14 -53 -72 -53q-33 0 -33 35zM266 369q178 8 334 102q127 76 172 160q20 39 21 84q0 88 -68 88q-35 0 -80 -29 q-86 -51 -207 -179t-172 -226z" />
<glyph unicode="l" horiz-adv-x="468" d="M23 2q0 264 312 857t531 722q74 43 166 43q106 0 152 -55q10 -14 10 -27q0 -20 -23 -20q-14 0 -20 14q-16 33 -49 33q-137 0 -454.5 -459t-506.5 -940q-41 -104 -41 -156q0 -47 33 -47q57 0 164 109q6 4 16 2q10 -4 11 -12q0 -12 -19 -27q-137 -131 -215 -131 q-67 0 -67 94z" />
<glyph unicode="m" horiz-adv-x="1277" d="M-35 -10q39 166 180 487q137 315 199 389q27 33 82 33q39 0 67.5 -14.5t18.5 -26.5q-139 -164 -285 -465q135 147 271 297q141 143 258 211q29 16 49 17q45 0 45 -56q0 -82 -203 -467q207 236 307 334q123 121 236 184q23 12 43 13q59 0 59 -86q0 -55 -32 -117l-254 -467 q-94 -184 -95 -250q0 -10 2 -20q4 -20 -8 -39t-28 -19q-23 0 -30 35t-7 74q0 145 104 387q117 266 121 291q2 20 -8 20q-18 0 -66 -47q-391 -391 -520 -682q-27 -61 -59 -61q-31 0 -31 49q4 86 127 371q127 297 133 342q4 23 -8 22q-12 0 -43 -24q-135 -117 -295 -322 q-180 -229 -244 -393q-18 -47 -51 -47q-16 0 -28 14q-8 11 -8 23q0 5 1 10z" />
<glyph unicode="n" horiz-adv-x="946" d="M-49 18q47 152 199 453q145 289 210 369q35 43 123 43q66 0 66 -19q0 -6 -119 -186q-135 -205 -188 -320q446 461 682 557q16 6 30 7q47 0 47 -60q0 -47 -34 -100q-381 -600 -381 -723q0 -30 23 -30q36 0 128 73q8 6 13 6q8 0 4 -16q-6 -16 -23 -33q-82 -90 -164 -90 q-86 0 -86 75v11q12 143 125 383q117 250 119 272q4 25 -10 25q-10 0 -29 -13q-172 -127 -334 -305q-195 -211 -258 -381q-16 -47 -71 -47q-33 0 -56 16q-18 12 -17 26q0 3 1 7z" />
<glyph unicode="o" d="M25 158q0 190 143 424q152 250 342 315q37 12 72 12q74 0 118 -49q49 -55 50 -158q0 -84 -35 -192q4 -8 13 -18.5t9 -14.5t-6 -8q-18 -16 -41 -16q-115 -233 -254 -369q-131 -127 -241 -127q-80 0 -125 59.5t-45 141.5zM121 127q0 -35 8 -66q16 -49 68 -49q88 0 213 119 q135 133 227 330q8 16 6 22q0 2 -14 23q-10 12 -11 41q0 100 76 168q2 88 -63 88q-23 0 -53 -12q-127 -53 -285 -267q-172 -229 -172 -397z" />
<glyph unicode="p" horiz-adv-x="931" d="M-90 -360q0 229 139 598q135 354 344 702q14 25 72 25q84 0 84 -35q0 -8 -8 -17q-49 -66 -119 -200q219 217 362 217q131 0 131 -189q0 -188 -151.5 -424.5t-341.5 -339.5q-45 -23 -92 -22q-68 0 -116 50t-54 147q-170 -428 -170 -570q0 -57 18 -96q15 -31 15 -48 q0 -21 -23 -22q-20 0 -41 27q-49 66 -49 197zM211 141q18 -127 96 -127q70 0 167 113t169 240q100 178 100 309q0 137 -84 137q-88 0 -249 -190q-80 -94 -142 -230q-59 -132 -59 -221q0 -17 2 -31z" />
<glyph unicode="q" horiz-adv-x="890" d="M-2 117q0 182 160 436q174 272 383 362q59 25 110 25q150 0 150 -162q0 -37 -10 -76q-6 -27 37 -42q37 -13 38 -31q0 -3 -2 -6q-25 -61 -321 -619q-238 -449 -238 -584q0 -70 55 -73q23 0 23 -11q0 -12 -22.5 -24t-45.5 -12q-78 0 -77 125q0 201 348 894 q-319 -350 -459 -350q-61 0 -95 43.5t-34 104.5zM82 78q0 -59 43 -60q35 0 94 35q180 111 354 342q143 195 150 258q2 14 9 33t7 35q0 88 -47 88q-39 0 -127 -43q-133 -63 -284 -258q-168 -215 -197 -397q-2 -19 -2 -33z" />
<glyph unicode="r" horiz-adv-x="772" d="M-16 4q0 94 131 406q121 293 188 395q37 53 182 53q29 0 29 -31q0 -27 -25 -43q-53 -35 -160.5 -215t-174.5 -348q426 526 671 662q23 12 45 12q70 0 70 -78q0 -47 -35 -102q-43 -63 -90 -64q-43 0 -45 66q-2 31 -25 31t-57 -33q-170 -152 -326 -330q-199 -223 -278 -385 q-14 -29 -57 -29t-43 33z" />
<glyph unicode="s" horiz-adv-x="581" d="M-47 117q0 45 20 100q6 18 19 19q18 0 14 -41q-1 -11 -1 -22q0 -54 35 -98q42 -52 110 -52q35 0 71 16q88 37 88 135q0 78 -55 197q-31 70 -31 141q0 182 170 319q119 98 236 99q63 0 84 -33q12 -20 12 -43q0 -57 -43 -57q-8 0 -16 4q-55 29 -111 28q-90 0 -148.5 -65.5 t-58.5 -159.5q0 -59 40 -147t40 -158q0 -213 -190 -315q-47 -27 -107 -27q-74 0 -123 39q-55 43 -55 121z" />
<glyph unicode="t" horiz-adv-x="481" d="M37 31q0 158 129 465q96 233 203 419h-170q-25 0 -25 19q0 23 35 24q32 2 80 2.5t112 -2.5q39 66 80 130.5t72 95.5q18 18 65 18q41 0 74 -13t23 -30q-41 -53 -135 -198h-4q0 1 81 4q24 1 45 0q41 0 66 -2q55 -6 55 -23q0 -20 -24 -22q-78 0 -246 -3q-147 -213 -289 -491 q-156 -313 -155 -432q0 -14 5 -29.5t5 -19.5q0 -27 -31 -27q-51 0 -51 115z" />
<glyph unicode="u" horiz-adv-x="917" d="M-6 82q0 137 96 367q100 240 260 456q6 8 21 8q33 0 74.5 -32.5t41.5 -59.5q0 -8 -6 -14q-410 -588 -409 -756q0 -43 34 -43q20 0 56 17q86 41 332 344q256 317 340 503q10 23 34 23q27 0 57.5 -25.5t30.5 -46.5q0 -6 -4 -10q-380 -708 -380 -824q0 -7 1 -12 q6 -16 -32 -16q-37 0 -43 31q-1 6 -1 13q0 101 177 509q-272 -336 -336 -405q-147 -156 -238 -156q-106 0 -106 129z" />
<glyph unicode="v" horiz-adv-x="712" d="M39 10q119 594 119 727q0 39 -8 45q0 72 163 111q27 8 37 -2t8 -37q-10 -68 -77 -336q-84 -336 -111 -452q186 233 373 464q311 381 372 381q23 0 23 -22q0 -8 -6 -15q-78 -63 -359 -413q-193 -242 -387 -486q-23 -29 -84 -28q-66 0 -65 45q0 8 2 18z" />
<glyph unicode="w" horiz-adv-x="1191" d="M51 117q0 147 74 352q80 225 219 430q6 10 29 10q35 0 73.5 -20.5t38.5 -46.5q0 -10 -8 -21q-123 -154 -239.5 -403.5t-116.5 -351.5q0 -45 26 -46q8 0 19 5q59 23 270 333q141 211 285 422q12 16 39 17q29 0 54.5 -18.5t25.5 -43.5q0 -8 -6 -18q-233 -436 -234 -623 q0 -76 45 -76q29 0 70 33q201 160 413 621q-6 29 -6 61q0 51 23 111q29 78 72 78q29 0 28 -54q0 -66 -43 -190q2 -2 17 -6q8 -2 8 -8q0 -4 -25.5 -16.5t-32.5 -24.5q-166 -342 -323 -514q-139 -150 -248 -150q-41 0 -72 23q-41 29 -41 118q0 137 95 385 q-199 -303 -293 -415.5t-146 -112.5q-90 0 -90 160z" />
<glyph unicode="x" horiz-adv-x="686" d="M-49 -33q8 84 90 193q70 92 248 274q-23 104 -47 211q-27 117 -49 146q-10 0 -22.5 3t-12.5 11q0 25 96 84q23 14 41 14q29 0 41 -31q14 -109 61 -342q336 305 424 332q33 8 33 -10q0 -10 -14 -21q-145 -102 -430 -368q61 -238 65 -252q39 -123 90 -184q12 -12 4 -25 q-8 -12 -24 -12q-25 0 -43 20q-131 133 -191 352q-312 -282 -311 -415q0 -37 -16 -37q-33 0 -34 46q1 5 1 11z" />
<glyph unicode="y" horiz-adv-x="972" d="M-295 -770q0 82 74 192q80 125 213 232q141 113 420 272q47 29 53 33q18 14 31 43q47 113 96 223q70 166 104 287q-317 -412 -497 -537q-63 -43 -109 -43q-82 0 -82 119q0 134 82 330q96 229 287 475q33 43 125 43q86 0 86 -33q0 -8 -6 -16q-223 -291 -363 -531 q-131 -225 -131 -301q0 -27 21 -26q18 0 49 18q147 96 377 379q248 301 358 551q18 39 74 39q55 0 55 -37q0 -8 -4 -16q-152 -352 -387 -901q-4 -12 -4 -21q0 -10 7 -18.5t7 -10.5q0 -4 -2 -8q-20 -10 -68 -65q-287 -510 -610 -727q-78 -55 -147 -56q-109 0 -109 111z M-240 -768q0 -53 52 -53q53 0 122 47q104 70 244 250q150 195 244 397q-584 -350 -651 -590q-11 -31 -11 -51z" />
<glyph unicode="z" horiz-adv-x="686" d="M-502 -721q0 57 39 139q72 154 330 381q217 190 409 307l2 18q0 41 -24 78q-29 44 -72 44q-8 0 -16.5 -2t-15.5 -2q-28 0 -27 32q0 31 45 45q178 59 347 202t169 241q0 35 -23.5 58.5t-58.5 23.5q-111 0 -283 -135q-155 -122 -155 -203q0 -9 2 -17q2 -10 2 -18 q0 -16 -10 -16q-18 0 -35 45q-12 35 -12 59q0 131 165 275q160 139 297 139q94 0 152 -74q41 -53 41 -115q0 -135 -182 -288q-158 -133 -346 -207q127 -10 163 -131q12 6 23 6q14 0 14 -12q0 -18 -28 -37q1 -10 0 -21q0 -158 -170 -418q-203 -305 -473 -450 q-84 -47 -160 -47q-109 0 -109 100zM-438 -700q0 -63 59 -64q39 0 92 33q211 131 373 371q147 217 184 405q-506 -356 -676 -649q-32 -53 -32 -96z" />
<glyph unicode="{" horiz-adv-x="817" d="M-6 -385q-4 147 76 313q31 63 153 265q90 145 103 221q2 16 2 28q0 47 -33 60l-49 8q-14 6 -15 20q0 18 22.5 39t35.5 21q29 0 41 -2q102 10 139 149q37 152 76 305q57 190 153 328q43 61 129 105.5t158 46.5q125 4 180 -78q12 -20 4 -29q-6 -6 -24 6q-35 29 -137 27 q-55 0 -122 -43t-112 -105q-61 -86 -111.5 -244.5t-99.5 -314.5q-25 -74 -85 -130t-118 -72q53 -29 46 -95q-10 -92 -138 -344q-133 -266 -174 -501q-2 -14 -2 -25q0 -51 74 -45q20 -6 63 16q6 8 13 9q8 0 8 -11q0 -8 -12 -8q-23 -39 -76 -39q-14 -2 -31 -2q-57 0 -96 32 t-41 89z" />
<glyph unicode="|" horiz-adv-x="544" d="M326 -68q-8 358 45 1395q-8 37 -9 92q35 78 89 78q25 0 42 -18.5t13 -42.5q-37 -356 -68 -813q-29 -463 -26 -682q-27 -102 -60 -103q-24 0 -26 94z" />
<glyph unicode="}" horiz-adv-x="817" d="M-240 -371q8 8 27 -6q35 -29 137 -26q129 2 228 137q78 109 129 268q43 152 88 301q27 78 83 136.5t117 72.5q-27 31 -39 90q-2 16 -2 33q0 72 65.5 202t131.5 261q82 178 113 348q2 14 2 27q0 51 -74 45q-20 4 -64 -17q-6 -8 -12 -8q-8 0 -8 8t12 10q23 37 76 37 q18 4 39 4q63 0 102 -28q45 -37 37 -105q-25 -170 -176 -435t-166 -353q-2 -14 -2 -29q0 -45 33 -57l49 -8q14 -8 14 -23q0 -16 -22.5 -37.5t-36.5 -21.5q-27 0 -39 2q-117 -12 -139 -148q-35 -225 -76 -352q-59 -193 -166 -311q-41 -49 -118.5 -82t-147.5 -35 q-135 -4 -188 74q-15 18 -7 26z" />
<glyph unicode="~" horiz-adv-x="1093" d="M125 485q0 25 25 54q84 80 237 75q86 -2 254 -61q156 -55 201 -47q98 16 125 76q16 35 49 34q31 0 31 -30q0 -20 -15 -47q-66 -125 -227 -125q-94 0 -223 43q-145 49 -170 53q-45 4 -80 4q-104 0 -139 -53q-8 -12 -27 -12q-41 -1 -41 36z" />
<glyph unicode="&#xa1;" horiz-adv-x="589" d="M-238 -430q-12 -35 33 -128t76 -93q14 0 14 28.5t4 75.5q33 170 202 567.5t284 571.5q14 20 14 35q0 10 -8 10q-14 0 -37 -27q-143 -172 -328.5 -503.5t-253.5 -536.5zM492 922q0 -72 59 -72q35 0 63 35q37 45 37 94q0 72 -59 72q-37 0 -66 -35q-34 -45 -34 -94z" />
<glyph unicode="&#xa2;" horiz-adv-x="696" d="M152 403q0 70 24 142q92 260 246 393q117 102 225 102q18 0 33 -4q27 59 70 129q2 12 22 39q25 18 41 19q27 0 27 -27q0 -6 -2 -12q-35 -57 -105 -168q41 -27 60 -84q4 -12 4 -35q0 -51 -13 -98q-16 -55 -43 -60q-25 -4 -24 15q0 6 8 37.5t6 50.5q-6 63 -49 67 q-80 -147 -346 -680q86 -4 174 80q14 12 25 13q10 0 10 -9q0 -10 -15 -24q-106 -113 -213 -99q-29 -59 -75 -165q-8 -18 -33 -19q-25 0 -16 19q27 63 75 174q-53 12 -84.5 68t-31.5 136zM221 381q0 -117 68 -139q23 55 145 309q131 274 180 364q-211 -37 -348 -352 q-45 -98 -45 -182z" />
<glyph unicode="&#xa3;" horiz-adv-x="1200" d="M-33 131q0 100 39 195q39 102 109 157q16 14 26 15q8 0 9 -11q0 -12 -15 -38q-63 -113 -63 -252q2 -180 88 -183q121 -6 254 215q-57 72 -158 222q-2 6 -2 12q0 16 14 16q10 0 19 -12q39 -55 155 -188q18 33 176 372q-106 -6 -139 -14q-10 -6 -20 -6q-35 0 -35 35 q0 33 51 47q29 8 174 2q92 193 135 270q90 168 162 240q55 55 141.5 93t163.5 38q115 0 185 -49q16 -14 16 -37q0 -31 -25 -31q-16 0 -32 21q-29 33 -95 32q-84 0 -192 -121q-154 -176 -324 -462q100 -4 275 -13q47 -2 39 -22q-8 -18 -54 -19q-152 4 -290 2 q-92 -143 -271 -424q199 -215 373 -215q113 0 193 48q14 8 24 8q14 0 14 -15q0 -14 -18 -32q-111 -117 -238 -117q-176 0 -382 272q-164 -229 -304 -231q-76 -2 -127 49t-51 131z" />
<glyph unicode="&#xa4;" horiz-adv-x="2291" d="M39 10q119 594 119 727q0 39 -8 45q0 72 163 111q27 8 37 -2t8 -37q-10 -68 -77 -336q-84 -336 -111 -452q186 233 373 464q311 381 372 381q23 0 23 -22q0 -8 -6 -15q-78 -63 -359 -413q-193 -242 -387 -486q-23 -29 -84 -28q-77 0 -63 63zM850 51q0 43 34 85t74 42 q59 0 60 -65q0 -43 -34 -86t-75 -43q-59 -1 -59 67zM1331 -10q0 23 38 42t116 29q94 6 188 15q-31 37 -31 108q0 115 78 258q188 350 428 691q-223 -86 -327 -172q-8 -6 -19 -7q-29 0 -28 31q0 12 12 25q125 127 395 231q16 6 43 6q51 0 99.5 -16.5t48.5 -36.5q0 -6 -5 -10 q-643 -887 -643 -1055q0 -29 15 -47q76 0 166 -8q137 -14 137 -39q0 -8 -10 -8q-575 -20 -607 -60q-14 -16 -41 -16q-53 0 -53 39z" />
<glyph unicode="&#xa6;" horiz-adv-x="530" d="M92 -90q0 27 17 76q68 209 219 579q18 47 53 47q47 0 47 -53q0 -14 -6 -24q-80 -188 -229 -574q-31 -43 -64 -65q-37 -25 -37 14zM397 721q0 18 9 43q6 12 116 280q100 244 101 252q0 8 -9.5 25.5t-9.5 28.5q0 8 6 14q33 49 88 49q37 0 68 -19.5t31 -41.5q0 -6 -4 -11 q-141 -258 -273 -567q-39 -88 -94 -88q-29 0 -29 35z" />
<glyph unicode="&#xa8;" horiz-adv-x="847" d="M434 1081q0 31 25 72q20 51 63 41q45 -8 45 -49q0 -18 -8 -35q-29 -78 -74 -78q-51 0 -51 49zM743 1083q0 39 29 79t62 32q45 -8 45 -49q0 -18 -9 -35q-31 -78 -75 -78q-52 0 -52 51z" />
<glyph unicode="&#xa9;" horiz-adv-x="1744" d="M217 522q0 51 8 103q43 295 283 505.5t536 210.5q270 0 450.5 -178t180.5 -442q0 -49 -6 -100q-43 -297 -282.5 -509t-536.5 -212q-270 0 -451.5 179t-181.5 443zM281 530q0 -242 161.5 -406.5t411.5 -164.5q297 0 527.5 229.5t230.5 526.5q0 240 -161 402.5t-409 162.5 q-299 0 -530 -226.5t-231 -523.5zM489 438q0 213 205 406q186 176 408 221q39 8 74 8q70 0 107.5 -30.5t37.5 -73.5t-35 -84q-45 -51 -110 -70q-29 -8 -29 23q0 14 14 16q51 6 88 53q6 12 6 21q0 23 -49 22q-39 0 -100 -16q-195 -49 -340 -180q-160 -139 -195 -316 q-6 -27 -6 -49q0 -160 213 -178q90 -8 190.5 16.5t137.5 65.5q6 8 14 8q20 0 21 -22q0 -57 -164 -93q-133 -29 -207 -20q-123 10 -197 76q-84 71 -84 196z" />
<glyph unicode="&#xaa;" horiz-adv-x="907" d="M2 113q0 289 344 659q168 180 322 180q152 0 151 -166q0 -25 -4 -53q-2 -18 34 -44q32 -23 32 -33q0 -41 -31.5 -106t-79 -141t-59.5 -100q-86 -188 -113 -340q-2 -16 -27 -16q-47 0 -47 57q0 8 2 21q18 94 48 181t63 175q-201 -252 -318 -352q-104 -92 -180 -92 q-137 0 -137 170zM98 55q0 -59 37 -59q39 0 115 61q129 102 280 287q174 211 232 361q0 14 2 40q4 16 4 31q0 53 -55 53q-68 0 -164 -71q-143 -106 -258 -256q-137 -178 -180 -359q-13 -55 -13 -88z" />
<glyph unicode="&#xab;" horiz-adv-x="763" d="M72 444q0 43 30 68q127 88 367 258q25 16 45 16t18 -18q0 -23 -30 -49q-80 -68 -162 -135q-96 -82 -150 -150q78 -166 142 -246q35 -47 14 -69q-23 -20 -57 20q-63 74 -189 228q-28 38 -28 77zM377 438q0 43 31 66q127 88 368 258q47 33 62 8q12 -20 -33 -59 q-80 -68 -160 -138q-94 -82 -149 -147q68 -143 141 -246q23 -31 18 -53q-2 -23 -20 -23q-20 0 -43 27q-94 113 -186 231q-29 37 -29 76z" />
<glyph unicode="&#xad;" horiz-adv-x="1167" d="M147 496q0 33 103 34q549 12 790 -10q88 -8 88 -45q0 -35 -69 -31q-164 8 -410 0q-195 -6 -391 -14q-33 0 -72 21.5t-39 44.5z" />
<glyph unicode="&#x2212;" horiz-adv-x="1167" d="M147 496q0 33 103 34q549 12 790 -10q88 -8 88 -45q0 -35 -69 -31q-164 8 -410 0q-195 -6 -391 -14q-33 0 -72 21.5t-39 44.5z" />
<glyph unicode="&#xae;" horiz-adv-x="1740" d="M209 522q0 51 8 103q43 295 282.5 505.5t536.5 210.5q270 0 450.5 -178t180.5 -442q0 -49 -6 -100q-43 -297 -282.5 -509t-536.5 -212q-270 0 -451.5 179t-181.5 443zM272 530q0 -242 162 -406.5t412 -164.5q297 0 527.5 229.5t230.5 526.5q0 240 -161 402.5t-409 162.5 q-299 0 -530.5 -226.5t-231.5 -523.5zM498 219q8 49 57 166q197 455 227 590q12 31 -43 31q-12 0 -24 -9q-8 -2 -15.5 2.5t-5.5 14.5q8 14 63.5 30.5t96.5 16.5q248 0 354 -64q117 -72 117 -204q0 -109 -82 -189q-123 -121 -291 -147q-23 -2 -18 -19q12 -59 59 -116 q4 -4 142 -117q0 -6 -27 -15.5t-43 -7.5q-88 20 -174 103q-100 96 -109 166q-2 18 15.5 35.5t40.5 17.5q6 0 21 -4t32 -4q106 6 207.5 113.5t101.5 213.5q0 88 -76 144q-49 35 -133 39q-63 0 -69 -48q-66 -188 -260 -591q-37 -74 -37 -125q6 -8 0 -41q-8 -14 -50 -15 q-77 0 -77 33z" />
<glyph unicode="&#xb0;" horiz-adv-x="675" d="M315 942q0 66 39 129q74 125 95 146q51 55 155 79q25 4 51 4q88 0 149.5 -58t61.5 -144q0 -125 -114.5 -237.5t-241.5 -112.5q-61 0 -109 30q-86 53 -86 164zM414 922q0 -61 29.5 -98.5t74.5 -37.5q57 0 115 52q139 125 139 266q0 59 -32.5 107.5t-90.5 48.5 q-18 0 -39 -9q-86 -33 -114 -96q18 6 18 -10q2 -14 -12 -23q-43 -25 -64 -80q-24 -65 -24 -120z" />
<glyph unicode="&#xb2;" horiz-adv-x="849" d="M-80 39q0 18 10 43q57 143 471 502q459 395 537 501q57 82 57 111q0 20 -26 21q-18 0 -62 -13q-174 -39 -323 -153q-121 -90 -146 -150q-8 -20 -24 -20q-20 0 -41 31.5t-21 62.5q0 16 6 26q61 125 240 213q166 82 320 86q68 0 130 -56t62 -130q0 -33 -16 -63 q-59 -119 -277 -291q-47 -37 -414 -303q-248 -182 -342 -287q-31 -35 -30 -43q0 -8 14 -8q55 0 171 20.5t175 20.5q63 0 111 -8q31 -6 48 -41t17 -66q0 -23 -10 -20q-41 4 -100 4q-279 0 -418 -62q-8 -4 -25 -4q-94 0 -94 76z" />
<glyph unicode="&#xb3;" horiz-adv-x="839" d="M-166 23q0 76 72 106q29 14 41 14t4 -20q-12 -31 -12 -35q0 -10 16 -10q150 16 394.5 154.5t357.5 271.5q43 49 43 84q0 59 -121 59q-90 0 -234 -35q-27 -6 -47 26t-20 69t22 49q606 354 606 399q0 16 -55 16q-106 0 -414 -131q-10 -4 -24 -4q-33 0 -68 25.5t-35 52.5 q0 14 13 27q117 96 180 96q37 0 29 -2q199 57 325 57q178 0 178 -96q0 -29 -20 -51q-90 -94 -555 -379q51 8 92 8q121 0 189 -102q23 -35 22 -76q0 -162 -283.5 -366.5t-621.5 -286.5q-33 -8 -53.5 16.5t-20.5 63.5z" />
<glyph unicode="&#xb4;" horiz-adv-x="679" d="M522 1055q0 23 31 49q78 74 250 227q12 10 26 10q23 0 42.5 -21.5t19.5 -47.5q0 -25 -23 -41q-92 -63 -307 -184q-14 -8 -24 -9q-15 1 -15 17z" />
<glyph unicode="&#xb8;" horiz-adv-x="1273" d="M125 -449q0 25 39 35q199 51 198 117q0 31 -16 47l-39 29q-10 10 -10 24q0 35 56.5 88.5t92.5 53.5q20 0 17 -35q-29 -23 -78 -72q-16 -23 -6 -28q51 -27 65 -39q33 -29 33 -66q4 -113 -305 -178q-47 -11 -47 24z" />
<glyph unicode="&#xb9;" d="M-63 -10q0 23 32 41q43 20 119 30q96 6 191 15q-31 37 -31 108q0 115 78 258q188 350 428 691q-223 -86 -328 -172q-8 -6 -18 -7q-29 0 -29 31q0 12 10 25q127 127 395 231q16 6 45 6q49 0 98.5 -16.5t49.5 -36.5q0 -6 -4 -10q-643 -887 -643 -1055q0 -29 14 -47 q76 0 166 -8q137 -14 137 -39q0 -8 -10 -8q-575 -20 -606 -60q-16 -16 -41 -16q-53 0 -53 39z" />
<glyph unicode="&#xba;" d="M25 158q0 190 143 424q152 250 342 315q37 12 72 12q74 0 118 -49q49 -55 50 -158q0 -84 -35 -192q4 -8 13 -18.5t9 -14.5t-6 -8q-18 -16 -41 -16q-115 -233 -254 -369q-131 -127 -241 -127q-80 0 -125 59.5t-45 141.5zM121 127q0 -35 8 -66q16 -49 68 -49q88 0 213 119 q135 133 227 330q8 16 6 22q0 2 -14 23q-10 12 -11 41q0 100 76 168q2 88 -63 88q-23 0 -53 -12q-127 -53 -285 -267q-172 -229 -172 -397z" />
<glyph unicode="&#xbb;" horiz-adv-x="768" d="M-55 123q-14 23 30 61q84 70 168 142q98 86 156 157q-76 158 -147 254q-23 31 -21 56q2 23 23 22q20 0 43 -27l100 -118q33 -41 94 -121q31 -39 31 -78q0 -45 -33 -70q-131 -92 -381 -268q-49 -35 -63 -10zM262 115q-14 23 31 59l168 143q98 86 155 158q-76 158 -147 254 q-23 31 -20 55q2 23 22 23t43 -27l100 -118q33 -41 95 -121q31 -39 30 -78q0 -45 -32 -70q-131 -92 -381 -268q-50 -35 -64 -10z" />
<glyph unicode="&#xbc;" horiz-adv-x="2375" d="M1647 553q0 90 59 164q145 180 352 332q188 139 352 200q12 4 27 4q63 0 60 -49q53 53 129 53q53 0 53 -22q0 -6 -6 -14q-375 -528 -490 -742q68 8 184 33q29 8 29 -14q0 -25 -106 -58q-78 -23 -131 -30q-25 -4 -43 -37q-174 -301 -174 -416q0 -8 3 -18.5t3 -14.5 q0 -29 -43 -28q-41 0 -43 34q-8 129 172 465q-92 -10 -158 -10q-158 0 -207 80q-22 37 -22 88zM1772 506q0 -43 43 -49q102 -12 258 12q113 219 389 682q6 8 6 14q0 10 -14 11q-16 0 -44 -15q-150 -78 -374 -295q-227 -223 -258 -329q-6 -19 -6 -31zM627 -317q0 248 377 763 q322 440 874 1018q10 25 51 66q37 23 70 22q55 0 55 -39q0 -10 -8 -18q-647 -639 -1032 -1165q-369 -508 -322 -672q2 -8 2 -16q0 -47 -36 -48q-31 1 -31 89zM-63 -10q0 23 32 41q43 20 119 30q96 6 191 15q-31 37 -31 108q0 115 78 258q188 350 428 691q-223 -86 -328 -172 q-8 -6 -18 -7q-29 0 -29 31q0 12 10 25q127 127 395 231q16 6 45 6q49 0 98.5 -16.5t49.5 -36.5q0 -6 -4 -10q-643 -887 -643 -1055q0 -29 14 -47q76 0 166 -8q137 -14 137 -39q0 -8 -10 -8q-575 -20 -606 -60q-16 -16 -41 -16q-53 0 -53 39z" />
<glyph unicode="&#xbd;" horiz-adv-x="2385" d="M1456 39q0 18 10 43q57 143 471 502q459 395 537 501q57 82 57 111q0 20 -26 21q-18 0 -62 -13q-174 -39 -323 -153q-121 -90 -146 -150q-8 -20 -24 -20q-20 0 -41 31.5t-21 62.5q0 16 6 26q61 125 240 213q166 82 320 86q68 0 130 -56t62 -130q0 -33 -16 -63 q-59 -119 -277 -291q-47 -37 -414 -303q-248 -182 -342 -287q-31 -35 -30 -43q0 -8 14 -8q55 0 171 20.5t175 20.5q63 0 111 -8q31 -6 48 -41t17 -66q0 -23 -10 -20q-41 4 -100 4q-279 0 -418 -62q-8 -4 -25 -4q-94 0 -94 76zM627 -317q0 248 377 763q322 440 874 1018 q10 25 51 66q37 23 70 22q55 0 55 -39q0 -10 -8 -18q-647 -639 -1032 -1165q-369 -508 -322 -672q2 -8 2 -16q0 -47 -36 -48q-31 1 -31 89zM-63 -10q0 23 32 41q43 20 119 30q96 6 191 15q-31 37 -31 108q0 115 78 258q188 350 428 691q-223 -86 -328 -172q-8 -6 -18 -7 q-29 0 -29 31q0 12 10 25q127 127 395 231q16 6 45 6q49 0 98.5 -16.5t49.5 -36.5q0 -6 -4 -10q-643 -887 -643 -1055q0 -29 14 -47q76 0 166 -8q137 -14 137 -39q0 -8 -10 -8q-575 -20 -606 -60q-16 -16 -41 -16q-53 0 -53 39z" />
<glyph unicode="&#xbe;" horiz-adv-x="2453" d="M1725 553q0 90 59 164q145 180 352 332q188 139 352 200q12 4 27 4q63 0 60 -49q53 53 129 53q53 0 53 -22q0 -6 -6 -14q-375 -528 -490 -742q68 8 184 33q29 8 29 -14q0 -25 -106 -58q-78 -23 -131 -30q-25 -4 -43 -37q-174 -301 -174 -416q0 -8 3 -18.5t3 -14.5 q0 -29 -43 -28q-41 0 -43 34q-8 129 172 465q-92 -10 -158 -10q-158 0 -207 80q-22 37 -22 88zM1850 506q0 -43 43 -49q102 -12 258 12q113 219 389 682q6 8 6 14q0 10 -14 11q-16 0 -44 -15q-150 -78 -374 -295q-227 -223 -258 -329q-6 -19 -6 -31zM705 -317q0 248 377 763 q322 440 874 1018q10 25 51 66q37 23 70 22q55 0 55 -39q0 -10 -8 -18q-647 -639 -1032 -1165q-369 -508 -322 -672q2 -8 2 -16q0 -47 -36 -48q-31 1 -31 89zM-166 23q0 76 72 106q29 14 41 14t4 -20q-12 -31 -12 -35q0 -10 16 -10q150 16 394.5 154.5t357.5 271.5 q43 49 43 84q0 59 -121 59q-90 0 -234 -35q-27 -6 -47 26t-20 69t22 49q606 354 606 399q0 16 -55 16q-106 0 -414 -131q-10 -4 -24 -4q-33 0 -68 25.5t-35 52.5q0 14 13 27q117 96 180 96q37 0 29 -2q199 57 325 57q178 0 178 -96q0 -29 -20 -51q-90 -94 -555 -379 q51 8 92 8q121 0 189 -102q23 -35 22 -76q0 -162 -283.5 -366.5t-621.5 -286.5q-33 -8 -53.5 16.5t-20.5 63.5z" />
<glyph unicode="&#xbf;" horiz-adv-x="864" d="M-528 -422q0 80 128 201t447 338q158 106 289 239q158 160 158 248q0 39 -33 62q-4 4 -4 10q0 16 24 16q16 0 29 -12q41 -41 41 -96q0 -207 -528 -592q-430 -313 -431 -453q0 -66 93 -65q88 0 237 65q139 59 238 133q35 25 43 56q8 25 20 28q6 2 15 2q27 0 52 -28.5 t25 -61.5q0 -27 -18 -45q-106 -96 -272 -153q-154 -51 -295 -52q-162 0 -217 64q-41 51 -41 96zM518 887q0 43 34 86t75 43q59 0 59 -68q0 -43 -34 -85t-74 -42q-60 0 -60 66z" />
<glyph unicode="&#xc0;" horiz-adv-x="1540" d="M-104 -137q0 129 127 317q137 207 397 434q-20 4 -21 21q0 20 32 41q29 19 67 18h8q584 492 919 649q33 16 50 17q10 0 10 -8q0 -20 -37 -43q-451 -272 -776 -576q-18 -16 -19 -26q0 -10 33 -11h522q35 0 52 33q154 319 178 377q109 246 118 364q1 8 1 15q0 40 -19 69 q-29 43 -84 43q-106 0 -276 -149q-10 -8 -17 -8q-10 0 -10 14q0 16 14 41q37 63 123 103t176 40q106 0 170 -55q70 -58 70 -170v-12q-6 -121 -92 -324q-12 -27 -59.5 -106.5t-78.5 -147t-31 -112.5q0 -14 54 -21q25 -2 25 -18q0 -18 -29 -23q-41 0 -88 -10 q-78 -158 -154.5 -316.5t-76.5 -218.5q0 -51 51 -51h8q33 4 57.5 -10t24.5 -31q0 -18 -37 -18q-74 2 -135 2q-57 0 -171 -18.5t-163 -18.5q-29 0 -29 39q0 43 43 57q37 11 126 11q59 0 143 -5q33 -2 32 7q0 -14 -16 38q-16 35 -16 91q0 152 116 397q6 14 6 20q0 8 -38 9 q-442 0 -619 -9q-31 -2 -55 -32q-313 -274 -449 -537q-74 -143 -73 -225q0 -81 74 -82q10 0 22 2q51 6 51 -21q0 -25 -44 -24h-7q-180 6 -180 168zM1231 1978q0 25 21.5 44.5t46.5 19.5q23 0 37 -17q74 -84 217 -289q10 -12 10 -22q0 -16 -16 -16q-25 0 -52 26 q-80 70 -252 225q-12 13 -12 29z" />
<glyph unicode="&#xc1;" horiz-adv-x="1540" d="M-104 -137q0 129 127 317q137 207 397 434q-20 4 -21 21q0 20 32 41q29 19 67 18h8q584 492 919 649q33 16 50 17q10 0 10 -8q0 -20 -37 -43q-451 -272 -776 -576q-18 -16 -19 -26q0 -10 33 -11h522q35 0 52 33q154 319 178 377q109 246 118 364q1 8 1 15q0 40 -19 69 q-29 43 -84 43q-106 0 -276 -149q-10 -8 -17 -8q-10 0 -10 14q0 16 14 41q37 63 123 103t176 40q106 0 170 -55q70 -58 70 -170v-12q-6 -121 -92 -324q-12 -27 -59.5 -106.5t-78.5 -147t-31 -112.5q0 -14 54 -21q25 -2 25 -18q0 -18 -29 -23q-41 0 -88 -10 q-78 -158 -154.5 -316.5t-76.5 -218.5q0 -51 51 -51h8q33 4 57.5 -10t24.5 -31q0 -18 -37 -18q-74 2 -135 2q-57 0 -171 -18.5t-163 -18.5q-29 0 -29 39q0 43 43 57q37 11 126 11q59 0 143 -5q33 -2 32 7q0 -14 -16 38q-16 35 -16 91q0 152 116 397q6 14 6 20q0 8 -38 9 q-442 0 -619 -9q-31 -2 -55 -32q-313 -274 -449 -537q-74 -143 -73 -225q0 -81 74 -82q10 0 22 2q51 6 51 -21q0 -25 -44 -24h-7q-180 6 -180 168zM1499 1757q0 23 31 49q78 74 250 227q12 10 26 10q23 0 42.5 -21.5t19.5 -47.5q0 -25 -23 -41q-92 -63 -307 -184 q-14 -8 -24 -9q-15 1 -15 17z" />
<glyph unicode="&#xc2;" horiz-adv-x="1540" d="M-104 -137q0 129 127 317q137 207 397 434q-20 4 -21 21q0 20 32 41q29 19 67 18h8q584 492 919 649q33 16 50 17q10 0 10 -8q0 -20 -37 -43q-451 -272 -776 -576q-18 -16 -19 -26q0 -10 33 -11h522q35 0 52 33q154 319 178 377q109 246 118 364q1 8 1 15q0 40 -19 69 q-29 43 -84 43q-106 0 -276 -149q-10 -8 -17 -8q-10 0 -10 14q0 16 14 41q37 63 123 103t176 40q106 0 170 -55q70 -58 70 -170v-12q-6 -121 -92 -324q-12 -27 -59.5 -106.5t-78.5 -147t-31 -112.5q0 -14 54 -21q25 -2 25 -18q0 -18 -29 -23q-41 0 -88 -10 q-78 -158 -154.5 -316.5t-76.5 -218.5q0 -51 51 -51h8q33 4 57.5 -10t24.5 -31q0 -18 -37 -18q-74 2 -135 2q-57 0 -171 -18.5t-163 -18.5q-29 0 -29 39q0 43 43 57q37 11 126 11q59 0 143 -5q33 -2 32 7q0 -14 -16 38q-16 35 -16 91q0 152 116 397q6 14 6 20q0 8 -38 9 q-442 0 -619 -9q-31 -2 -55 -32q-313 -274 -449 -537q-74 -143 -73 -225q0 -81 74 -82q10 0 22 2q51 6 51 -21q0 -25 -44 -24h-7q-180 6 -180 168zM1331 1768q0 20 31 38q80 55 159 109q123 84 158 84q25 0 45 -29q37 -72 115 -213q23 -39 -6 -51q-25 -8 -54 23 q-43 57 -135 170q-25 -10 -256 -136q-20 -12 -37 -12q-20 1 -20 17z" />
<glyph unicode="&#xc3;" horiz-adv-x="1540" d="M-104 -137q0 129 127 317q137 207 397 434q-20 4 -21 21q0 20 32 41q29 19 67 18h8q584 492 919 649q33 16 50 17q10 0 10 -8q0 -20 -37 -43q-451 -272 -776 -576q-18 -16 -19 -26q0 -10 33 -11h522q35 0 52 33q154 319 178 377q109 246 118 364q1 8 1 15q0 40 -19 69 q-29 43 -84 43q-106 0 -276 -149q-10 -8 -17 -8q-10 0 -10 14q0 16 14 41q37 63 123 103t176 40q106 0 170 -55q70 -58 70 -170v-12q-6 -121 -92 -324q-12 -27 -59.5 -106.5t-78.5 -147t-31 -112.5q0 -14 54 -21q25 -2 25 -18q0 -18 -29 -23q-41 0 -88 -10 q-78 -158 -154.5 -316.5t-76.5 -218.5q0 -51 51 -51h8q33 4 57.5 -10t24.5 -31q0 -18 -37 -18q-74 2 -135 2q-57 0 -171 -18.5t-163 -18.5q-29 0 -29 39q0 43 43 57q37 11 126 11q59 0 143 -5q33 -2 32 7q0 -14 -16 38q-16 35 -16 91q0 152 116 397q6 14 6 20q0 8 -38 9 q-442 0 -619 -9q-31 -2 -55 -32q-313 -274 -449 -537q-74 -143 -73 -225q0 -81 74 -82q10 0 22 2q51 6 51 -21q0 -25 -44 -24h-7q-180 6 -180 168zM1188 1774q4 49 61.5 108.5t106.5 59.5q45 0 129 -55.5t129 -55.5q47 0 95 45t59 45q16 0 14 -22q-4 -55 -62.5 -110.5 t-109.5 -55.5q-49 0 -135 54.5t-129 54.5q-45 0 -90 -43t-54 -43q-16 0 -14 18z" />
<glyph unicode="&#xc4;" horiz-adv-x="1540" d="M-104 -137q0 129 127 317q137 207 397 434q-20 4 -21 21q0 20 32 41q29 19 67 18h8q584 492 919 649q33 16 50 17q10 0 10 -8q0 -20 -37 -43q-451 -272 -776 -576q-18 -16 -19 -26q0 -10 33 -11h522q35 0 52 33q154 319 178 377q109 246 118 364q1 8 1 15q0 40 -19 69 q-29 43 -84 43q-106 0 -276 -149q-10 -8 -17 -8q-10 0 -10 14q0 16 14 41q37 63 123 103t176 40q106 0 170 -55q70 -58 70 -170v-12q-6 -121 -92 -324q-12 -27 -59.5 -106.5t-78.5 -147t-31 -112.5q0 -14 54 -21q25 -2 25 -18q0 -18 -29 -23q-41 0 -88 -10 q-78 -158 -154.5 -316.5t-76.5 -218.5q0 -51 51 -51h8q33 4 57.5 -10t24.5 -31q0 -18 -37 -18q-74 2 -135 2q-57 0 -171 -18.5t-163 -18.5q-29 0 -29 39q0 43 43 57q37 11 126 11q59 0 143 -5q33 -2 32 7q0 -14 -16 38q-16 35 -16 91q0 152 116 397q6 14 6 20q0 8 -38 9 q-442 0 -619 -9q-31 -2 -55 -32q-313 -274 -449 -537q-74 -143 -73 -225q0 -81 74 -82q10 0 22 2q51 6 51 -21q0 -25 -44 -24h-7q-180 6 -180 168zM1317 1757q0 31 25 72q20 51 63 41q45 -8 45 -49q0 -18 -8 -35q-29 -78 -74 -78q-51 0 -51 49zM1626 1759q0 39 29 79t62 32 q45 -8 45 -49q0 -18 -9 -35q-31 -78 -75 -78q-52 0 -52 51z" />
<glyph unicode="&#xc5;" horiz-adv-x="1540" d="M-104 -137q0 129 127 317q137 207 397 434q-20 4 -21 21q0 20 32 41q29 19 67 18h8q584 492 919 649q33 16 50 17q10 0 10 -8q0 -20 -37 -43q-451 -272 -776 -576q-18 -16 -19 -26q0 -10 33 -11h522q35 0 52 33q154 319 178 377q109 246 118 364q1 8 1 15q0 40 -19 69 q-29 43 -84 43q-106 0 -276 -149q-10 -8 -17 -8q-10 0 -10 14q0 16 14 41q37 63 123 103t176 40q106 0 170 -55q70 -58 70 -170v-12q-6 -121 -92 -324q-12 -27 -59.5 -106.5t-78.5 -147t-31 -112.5q0 -14 54 -21q25 -2 25 -18q0 -18 -29 -23q-41 0 -88 -10 q-78 -158 -154.5 -316.5t-76.5 -218.5q0 -51 51 -51h8q33 4 57.5 -10t24.5 -31q0 -18 -37 -18q-74 2 -135 2q-57 0 -171 -18.5t-163 -18.5q-29 0 -29 39q0 43 43 57q37 11 126 11q59 0 143 -5q33 -2 32 7q0 -14 -16 38q-16 35 -16 91q0 152 116 397q6 14 6 20q0 8 -38 9 q-442 0 -619 -9q-31 -2 -55 -32q-313 -274 -449 -537q-74 -143 -73 -225q0 -81 74 -82q10 0 22 2q51 6 51 -21q0 -25 -44 -24h-7q-180 6 -180 168zM1405 1855q0 63 46 109.5t110 46.5q63 0 109 -46t46 -110q0 -63 -46 -108t-109 -45t-109.5 45t-46.5 108zM1458 1855 q0 -41 31 -70.5t72 -29.5q43 0 73.5 29.5t30.5 70.5q0 43 -30.5 75t-73.5 32q-41 0 -72 -32t-31 -75z" />
<glyph unicode="&#xc6;" horiz-adv-x="2437" d="M-104 -137q0 129 127 317q137 207 397 434q-20 4 -21 21q0 20 32 40.5t75 18.5q584 492 919 649q33 16 50 17q10 0 10 -8q0 -20 -37 -43q-451 -272 -776 -576q-18 -16 -19 -26q0 -10 33 -11h522q35 0 52 33q154 319 178 377q109 246 118 364q4 49 -18 84q-29 43 -84 43 q-106 0 -276 -149q-10 -8 -17 -8q-10 0 -10 14q0 16 14 41q37 63 123 103t176 40q106 0 170 -55q74 -61 70 -182q-4 -109 -72 -275q-25 -61 -141 -309q244 170 567 215q-244 70 -243 217q0 80 76.5 158t205.5 129q184 74 357 74q203 0 210 -80q4 -37 -4 -78q-12 -53 -41 -55 q-18 0 -38.5 18.5t-45.5 22.5q-80 12 -159 12q-199 0 -337 -68.5t-138 -154.5q0 -57 73 -103q100 -61 217 -61q57 0 127 14q20 6 21 -37q0 -41 -18.5 -92t-36.5 -51q-311 -4 -619 -145q-385 -174 -385 -449q0 -160 129 -252q119 -84 299 -84q172 0 324 78q168 84 256 238 q25 39 43 39q29 0 28 -56q0 -43 -39 -96q-92 -123 -256 -190q-152 -66 -323 -66q-190 0 -332 78q-154 86 -201 237q-35 -84 -34 -125q0 -55 59 -51q33 4 57.5 -10t24.5 -31q0 -18 -37 -18q-74 2 -135 2q-57 0 -171 -18.5t-163 -18.5q-29 0 -29 39q0 43 43 57q61 18 269 6 q33 -2 32 7q0 -14 -16 38q-16 35 -16 91q0 152 116 397q6 14 6 20q0 8 -38 9q-442 0 -619 -9q-31 -2 -55 -32q-313 -274 -449 -537q-74 -143 -73 -225q0 -92 96 -80q51 6 51 -21t-51 -24q-180 6 -180 168z" />
<glyph unicode="&#xc7;" horiz-adv-x="1343" d="M115 295q0 229 192 498q170 238 434 434q256 190 467 250q90 25 162 24q111 0 170 -57q51 -49 51 -129q0 -63 -30 -121q-27 -49 -72 -49q-14 0 -14 14q0 10 10 27q35 61 35 98q0 59 -90 59q-51 0 -134 -18q-403 -98 -749 -441t-346 -640q0 -61 18 -117q72 -205 301 -205 q152 0 328 90q170 88 287 217q37 43 71 43q23 0 15 -18q-66 -164 -263.5 -278.5t-402.5 -114.5q-227 0 -344 149q-96 125 -96 285zM238 -500q0 25 39 35q199 51 198 117q0 31 -16 47l-39 29q-10 10 -10 24q0 35 56.5 88.5t92.5 53.5q20 0 17 -35q-29 -23 -78 -72 q-16 -23 -6 -28q51 -27 65 -39q33 -29 33 -66q4 -113 -305 -178q-47 -11 -47 24z" />
<glyph unicode="&#xc8;" horiz-adv-x="1316" d="M68 338q0 9 -1 18q0 222 245 419q255 206 626 257q-244 70 -244 217q0 80 76 158t205 129q186 74 358 74q203 0 211 -80q1 -11 1 -22q0 -27 -7 -56q-12 -53 -41 -55q-16 0 -37.5 18.5t-46.5 22.5q-80 12 -158 12q-199 0 -342 -70q-135 -68 -135 -153q0 -57 76 -103 q100 -61 215 -61q59 0 129 14q20 6 21 -37q0 -41 -19.5 -92t-38.5 -51q-309 -4 -618 -145q-383 -174 -383 -449q0 -160 129 -252q119 -84 299 -84q170 0 323 78q166 84 256 238q23 39 41 39q31 0 31 -56q0 -43 -39 -96q-94 -123 -256 -190q-154 -66 -326 -66 q-223 0 -374 104q-168 117 -176 320zM1065 1964q0 25 21.5 44.5t46.5 19.5q23 0 37 -17q74 -84 217 -289q10 -12 10 -22q0 -16 -16 -16q-25 0 -52 26q-80 70 -252 225q-12 13 -12 29z" />
<glyph unicode="&#xc9;" horiz-adv-x="1316" d="M68 338q0 9 -1 18q0 222 245 419q255 206 626 257q-244 70 -244 217q0 80 76 158t205 129q186 74 358 74q203 0 211 -80q1 -11 1 -22q0 -27 -7 -56q-12 -53 -41 -55q-16 0 -37.5 18.5t-46.5 22.5q-80 12 -158 12q-199 0 -342 -70q-135 -68 -135 -153q0 -57 76 -103 q100 -61 215 -61q59 0 129 14q20 6 21 -37q0 -41 -19.5 -92t-38.5 -51q-309 -4 -618 -145q-383 -174 -383 -449q0 -160 129 -252q119 -84 299 -84q170 0 323 78q166 84 256 238q23 39 41 39q31 0 31 -56q0 -43 -39 -96q-94 -123 -256 -190q-154 -66 -326 -66 q-223 0 -374 104q-168 117 -176 320zM1263 1719q0 23 31 49q78 74 250 227q12 10 26 10q23 0 42.5 -21.5t19.5 -47.5q0 -25 -23 -41q-92 -63 -307 -184q-14 -8 -24 -9q-15 1 -15 17z" />
<glyph unicode="&#xca;" horiz-adv-x="1316" d="M68 338q0 9 -1 18q0 222 245 419q255 206 626 257q-244 70 -244 217q0 80 76 158t205 129q186 74 358 74q203 0 211 -80q1 -11 1 -22q0 -27 -7 -56q-12 -53 -41 -55q-16 0 -37.5 18.5t-46.5 22.5q-80 12 -158 12q-199 0 -342 -70q-135 -68 -135 -153q0 -57 76 -103 q100 -61 215 -61q59 0 129 14q20 6 21 -37q0 -41 -19.5 -92t-38.5 -51q-309 -4 -618 -145q-383 -174 -383 -449q0 -160 129 -252q119 -84 299 -84q170 0 323 78q166 84 256 238q23 39 41 39q31 0 31 -56q0 -43 -39 -96q-94 -123 -256 -190q-154 -66 -326 -66 q-223 0 -374 104q-168 117 -176 320zM1114 1770q0 20 31 38q80 55 159 109q123 84 158 84q25 0 45 -29q37 -72 115 -213q23 -39 -6 -51q-25 -8 -54 23q-43 57 -135 170q-25 -10 -256 -136q-20 -12 -37 -12q-20 1 -20 17z" />
<glyph unicode="&#xcb;" horiz-adv-x="1316" d="M68 338q0 9 -1 18q0 222 245 419q255 206 626 257q-244 70 -244 217q0 80 76 158t205 129q186 74 358 74q203 0 211 -80q1 -11 1 -22q0 -27 -7 -56q-12 -53 -41 -55q-16 0 -37.5 18.5t-46.5 22.5q-80 12 -158 12q-199 0 -342 -70q-135 -68 -135 -153q0 -57 76 -103 q100 -61 215 -61q59 0 129 14q20 6 21 -37q0 -41 -19.5 -92t-38.5 -51q-309 -4 -618 -145q-383 -174 -383 -449q0 -160 129 -252q119 -84 299 -84q170 0 323 78q166 84 256 238q23 39 41 39q31 0 31 -56q0 -43 -39 -96q-94 -123 -256 -190q-154 -66 -326 -66 q-223 0 -374 104q-168 117 -176 320zM1106 1749q0 31 25 72q20 51 63 41q45 -8 45 -49q0 -18 -8 -35q-29 -78 -74 -78q-51 0 -51 49zM1415 1751q0 39 29 79t62 32q45 -8 45 -49q0 -18 -9 -35q-31 -78 -75 -78q-52 0 -52 51z" />
<glyph unicode="&#xcc;" d="M-188 -25q0 23 26 31q100 31 322 37q-31 25 -31 86q0 145 188 524q8 14 347 650q-188 -12 -236 -19q-72 -12 -98 -43q-4 -6 -15 -6q-20 0 -42.5 16.5t-22.5 36.5q0 23 35 41q84 47 428 47q2 0 59 27t84 27q31 0 39 -23t14 -23q199 -16 269 -34q31 -10 30 -25 q0 -31 -43 -22q-64 11 -198 11q-38 0 -82 -1q-27 0 -39 -25q-229 -385 -459 -772q-188 -338 -188 -435q0 -32 20.5 -38t106.5 -8t159 -25q14 -4 15 -22q0 -27 -23 -27q-92 8 -184 8q-154 0 -277 -16q-109 -16 -131 -31q-6 -6 -16 -6q-18 0 -37.5 19.5t-19.5 39.5zM631 1806 q0 25 21.5 44.5t46.5 19.5q23 0 37 -17q74 -84 217 -289q10 -12 10 -22q0 -16 -16 -16q-25 0 -52 26q-80 70 -252 225q-12 13 -12 29z" />
<glyph unicode="&#xcd;" d="M-188 -25q0 23 26 31q100 31 322 37q-31 25 -31 86q0 145 188 524q8 14 347 650q-188 -12 -236 -19q-72 -12 -98 -43q-4 -6 -15 -6q-20 0 -42.5 16.5t-22.5 36.5q0 23 35 41q84 47 428 47q2 0 59 27t84 27q31 0 39 -23t14 -23q199 -16 269 -34q31 -10 30 -25 q0 -31 -43 -22q-64 11 -198 11q-38 0 -82 -1q-27 0 -39 -25q-229 -385 -459 -772q-188 -338 -188 -435q0 -32 20.5 -38t106.5 -8t159 -25q14 -4 15 -22q0 -27 -23 -27q-92 8 -184 8q-154 0 -277 -16q-109 -16 -131 -31q-6 -6 -16 -6q-18 0 -37.5 19.5t-19.5 39.5zM786 1561 q0 23 31 49q78 74 250 227q12 10 26 10q23 0 42.5 -21.5t19.5 -47.5q0 -25 -23 -41q-92 -63 -307 -184q-14 -8 -24 -9q-15 1 -15 17z" />
<glyph unicode="&#xce;" d="M-188 -25q0 23 26 31q100 31 322 37q-31 25 -31 86q0 145 188 524q8 14 347 650q-188 -12 -236 -19q-72 -12 -98 -43q-4 -6 -15 -6q-20 0 -42.5 16.5t-22.5 36.5q0 23 35 41q84 47 428 47q2 0 59 27t84 27q31 0 39 -23t14 -23q199 -16 269 -34q31 -10 30 -25 q0 -31 -43 -22q-64 11 -198 11q-38 0 -82 -1q-27 0 -39 -25q-229 -385 -459 -772q-188 -338 -188 -435q0 -32 20.5 -38t106.5 -8t159 -25q14 -4 15 -22q0 -27 -23 -27q-92 8 -184 8q-154 0 -277 -16q-109 -16 -131 -31q-6 -6 -16 -6q-18 0 -37.5 19.5t-19.5 39.5zM660 1584 q0 20 31 38q80 55 159 109q123 84 158 84q25 0 45 -29q37 -72 115 -213q23 -39 -6 -51q-25 -8 -54 23q-43 57 -135 170q-25 -10 -256 -136q-20 -12 -37 -12q-20 1 -20 17z" />
<glyph unicode="&#xcf;" d="M-188 -25q0 23 26 31q100 31 322 37q-31 25 -31 86q0 145 188 524q8 14 347 650q-188 -12 -236 -19q-72 -12 -98 -43q-4 -6 -15 -6q-20 0 -42.5 16.5t-22.5 36.5q0 23 35 41q84 47 428 47q2 0 59 27t84 27q31 0 39 -23t14 -23q199 -16 269 -34q31 -10 30 -25 q0 -31 -43 -22q-64 11 -198 11q-38 0 -82 -1q-27 0 -39 -25q-229 -385 -459 -772q-188 -338 -188 -435q0 -32 20.5 -38t106.5 -8t159 -25q14 -4 15 -22q0 -27 -23 -27q-92 8 -184 8q-154 0 -277 -16q-109 -16 -131 -31q-6 -6 -16 -6q-18 0 -37.5 19.5t-19.5 39.5zM672 1570 q0 31 25 72q20 51 63 41q45 -8 45 -49q0 -18 -8 -35q-29 -78 -74 -78q-51 0 -51 49zM981 1572q0 39 29 79t62 32q45 -8 45 -49q0 -18 -9 -35q-31 -78 -75 -78q-52 0 -52 51z" />
<glyph unicode="&#xd1;" horiz-adv-x="1748" d="M-14 961q0 156 80 288q86 141 239 221q143 74 297 74q297 0 498 -260q268 -350 276 -924q326 651 516 920q262 371 502 406q21 3 35 2q32 0 33 -13q0 -12 -35 -20q-336 -84 -1032 -1422q-2 -4 -31 -108q-27 -94 -59 -135q-8 -14 -33 -15q-49 0 -49 41q0 16 12 37 q37 63 61 160q17 74 17 123v10q-12 393 -279.5 752.5t-554.5 359.5q-68 0 -127 -22q-127 -47 -196 -201q-61 -135 -62 -305q0 -193 72 -301q8 -14 8 -27q0 -18 -14 -18q-16 0 -37 22q-137 146 -137 355zM0 49q0 53 25 53q12 0 18 -26q18 -76 76 -76q109 0 327 279 q227 289 502 790q8 16 27 16q25 0 24 -20q0 -4 -2 -8q-594 -1157 -854 -1157q-86 0 -137 123q-6 12 -6 26zM1196 1559q4 49 61.5 108.5t106.5 59.5q45 0 129 -55.5t129 -55.5q47 0 95 45t59 45q16 0 14 -22q-4 -55 -62.5 -110.5t-109.5 -55.5q-49 0 -135 54.5t-129 54.5 q-45 0 -90 -43t-54 -43q-16 0 -14 18z" />
<glyph unicode="&#xd2;" horiz-adv-x="1554" d="M127 322q0 291 244 583q20 23 55 70q281 461 756 547q43 8 86 8q168 0 275.5 -118t107.5 -306q0 -229 -160 -477q-182 -285 -539 -535q-233 -164 -463 -164q-178 0 -276 111q-86 99 -86 281zM244 324q0 -152 78.5 -239t214.5 -87q180 0 397 160q289 211 440 460 q131 219 131 422q0 166 -90 269.5t-239 103.5q-61 0 -132 -18q-319 -92 -530 -377q45 31 131 72q37 8 37 -15q0 -18 -25 -31q-117 -57 -186 -213q-8 -16 -16 -16q-4 0 -11.5 2t-13.5 2q-18 0 -37 -35q-149 -253 -149 -460zM1020 1902q0 25 21.5 44.5t46.5 19.5q23 0 37 -17 q74 -84 217 -289q10 -12 10 -22q0 -16 -16 -16q-25 0 -52 26q-80 70 -252 225q-12 13 -12 29z" />
<glyph unicode="&#xd3;" horiz-adv-x="1554" d="M127 322q0 291 244 583q20 23 55 70q281 461 756 547q43 8 86 8q168 0 275.5 -118t107.5 -306q0 -229 -160 -477q-182 -285 -539 -535q-233 -164 -463 -164q-178 0 -276 111q-86 99 -86 281zM244 324q0 -152 78.5 -239t214.5 -87q180 0 397 160q289 211 440 460 q131 219 131 422q0 166 -90 269.5t-239 103.5q-61 0 -132 -18q-319 -92 -530 -377q45 31 131 72q37 8 37 -15q0 -18 -25 -31q-117 -57 -186 -213q-8 -16 -16 -16q-4 0 -11.5 2t-13.5 2q-18 0 -37 -35q-149 -253 -149 -460zM1333 1651q0 23 31 49q78 74 250 227q12 10 26 10 q23 0 42.5 -21.5t19.5 -47.5q0 -25 -23 -41q-92 -63 -307 -184q-14 -8 -24 -9q-15 1 -15 17z" />
<glyph unicode="&#xd4;" horiz-adv-x="1554" d="M127 322q0 291 244 583q20 23 55 70q281 461 756 547q43 8 86 8q168 0 275.5 -118t107.5 -306q0 -229 -160 -477q-182 -285 -539 -535q-233 -164 -463 -164q-178 0 -276 111q-86 99 -86 281zM244 324q0 -152 78.5 -239t214.5 -87q180 0 397 160q289 211 440 460 q131 219 131 422q0 166 -90 269.5t-239 103.5q-61 0 -132 -18q-319 -92 -530 -377q45 31 131 72q37 8 37 -15q0 -18 -25 -31q-117 -57 -186 -213q-8 -16 -16 -16q-4 0 -11.5 2t-13.5 2q-18 0 -37 -35q-149 -253 -149 -460zM1200 1690q0 20 31 38q80 55 159 109 q123 84 158 84q25 0 45 -29q37 -72 115 -213q23 -39 -6 -51q-25 -8 -54 23q-43 57 -135 170q-25 -10 -256 -136q-20 -12 -37 -12q-20 1 -20 17z" />
<glyph unicode="&#xd5;" horiz-adv-x="1554" d="M127 322q0 291 244 583q20 23 55 70q281 461 756 547q43 8 86 8q168 0 275.5 -118t107.5 -306q0 -229 -160 -477q-182 -285 -539 -535q-233 -164 -463 -164q-178 0 -276 111q-86 99 -86 281zM244 324q0 -152 78.5 -239t214.5 -87q180 0 397 160q289 211 440 460 q131 219 131 422q0 166 -90 269.5t-239 103.5q-61 0 -132 -18q-319 -92 -530 -377q45 31 131 72q37 8 37 -15q0 -18 -25 -31q-117 -57 -186 -213q-8 -16 -16 -16q-4 0 -11.5 2t-13.5 2q-18 0 -37 -35q-149 -253 -149 -460zM1059 1673q4 49 61.5 108.5t106.5 59.5 q45 0 129 -55.5t129 -55.5q47 0 95 45t59 45q16 0 14 -22q-4 -55 -62.5 -110.5t-109.5 -55.5q-49 0 -135 54.5t-129 54.5q-45 0 -90 -43t-54 -43q-16 0 -14 18z" />
<glyph unicode="&#xd6;" horiz-adv-x="1554" d="M127 322q0 291 244 583q20 23 55 70q281 461 756 547q43 8 86 8q168 0 275.5 -118t107.5 -306q0 -229 -160 -477q-182 -285 -539 -535q-233 -164 -463 -164q-178 0 -276 111q-86 99 -86 281zM244 324q0 -152 78.5 -239t214.5 -87q180 0 397 160q289 211 440 460 q131 219 131 422q0 166 -90 269.5t-239 103.5q-61 0 -132 -18q-319 -92 -530 -377q45 31 131 72q37 8 37 -15q0 -18 -25 -31q-117 -57 -186 -213q-8 -16 -16 -16q-4 0 -11.5 2t-13.5 2q-18 0 -37 -35q-149 -253 -149 -460zM1087 1685q0 31 25 72q20 51 63 41q45 -8 45 -49 q0 -18 -8 -35q-29 -78 -74 -78q-51 0 -51 49zM1396 1687q0 39 29 79t62 32q45 -8 45 -49q0 -18 -9 -35q-31 -78 -75 -78q-52 0 -52 51z" />
<glyph unicode="&#xd7;" horiz-adv-x="1142" d="M145 117q127 117 426 368q-55 84 -161 246q-6 8 -7 23q0 31 20.5 62.5t47.5 31.5q33 0 64 -49q49 -84 122 -242q117 98 320 266q16 10 39 11q55 0 55 -43q0 -20 -22 -46q-197 -156 -347 -276q66 -139 136 -287q6 -29 6 -49q0 -43 -25 -43q-23 0 -39 35q-72 139 -159 278 l-342 -270q-48 -14 -134 -16z" />
<glyph unicode="&#xd8;" horiz-adv-x="1554" d="M-119 -49q18 35 49 61q100 88 211 183q-14 59 -14 127q0 291 244 583q20 23 55 70q281 461 756 547q43 8 86 8q225 0 327 -193q43 31 84 62q55 39 93 45q18 2 49 14q51 39 80 39q10 0 14 -4q16 -31 -29 -61q-123 -84 -256 -179q20 -70 21 -147q0 -229 -160 -477 q-182 -285 -539 -535q-233 -164 -463 -164q-178 0 -276 111q-35 39 -57 102q-106 -88 -207 -170q-50 -26 -68 -22zM246 283q641 539 1216 958q-86 172 -286 172q-61 0 -132 -18q-319 -92 -530 -377q45 31 131 72q37 8 37 -17q0 -16 -25 -29q-117 -57 -186 -213 q-8 -16 -16 -16q-4 0 -11.5 2t-13.5 2q-18 0 -37 -35q-163 -280 -147 -501zM256 221q51 -223 281 -223q180 0 397 160q289 211 440 460q131 219 131 422q0 61 -12 117q-627 -449 -1237 -936z" />
<glyph unicode="&#xd9;" horiz-adv-x="1812" d="M-41 856q0 174 297 350q326 195 821 267q8 1 14 1q21 0 21 -16q0 -14 -14 -16q-506 -123 -789 -332q-229 -168 -229 -309q0 -66 57 -88q27 -10 27 -29q0 -16 -19 -16q-4 0 -10 2q-176 61 -176 186zM469 143q0 201 145 521q141 309 385 655q14 20 80 20q96 0 97 -32 q0 -4 -2 -11q-592 -889 -592 -1224q0 -113 80 -113q31 0 71 18q158 74 361 279q154 156 362 420l320 414q12 14 39 14q68 0 67 -45q0 -6 -2 -15q-96 -242 -299 -610q-195 -352 -297 -483q-23 -29 -47 -29q-12 0 -12 12t10 31q242 406 385 774q2 8 2 15q0 10 -6 10 q-14 0 -37 -31q-648 -837 -930 -836q-83 0 -135 72q-45 65 -45 174zM1290 1669q0 25 21.5 44.5t46.5 19.5q23 0 37 -17q74 -84 217 -289q10 -12 10 -22q0 -16 -16 -16q-25 0 -52 26q-80 70 -252 225q-12 13 -12 29z" />
<glyph unicode="&#xda;" horiz-adv-x="1812" d="M-41 856q0 174 297 350q326 195 821 267q8 1 14 1q21 0 21 -16q0 -14 -14 -16q-506 -123 -789 -332q-229 -168 -229 -309q0 -66 57 -88q27 -10 27 -29q0 -16 -19 -16q-4 0 -10 2q-176 61 -176 186zM469 143q0 201 145 521q141 309 385 655q14 20 80 20q96 0 97 -32 q0 -4 -2 -11q-592 -889 -592 -1224q0 -113 80 -113q31 0 71 18q158 74 361 279q154 156 362 420l320 414q12 14 39 14q68 0 67 -45q0 -6 -2 -15q-96 -242 -299 -610q-195 -352 -297 -483q-23 -29 -47 -29q-12 0 -12 12t10 31q242 406 385 774q2 8 2 15q0 10 -6 10 q-14 0 -37 -31q-648 -837 -930 -836q-83 0 -135 72q-45 65 -45 174zM1440 1420q0 23 31 49q78 74 250 227q12 10 26 10q23 0 42.5 -21.5t19.5 -47.5q0 -25 -23 -41q-92 -63 -307 -184q-14 -8 -24 -9q-15 1 -15 17z" />
<glyph unicode="&#xdb;" horiz-adv-x="1812" d="M-41 856q0 174 297 350q326 195 821 267q8 1 14 1q21 0 21 -16q0 -14 -14 -16q-506 -123 -789 -332q-229 -168 -229 -309q0 -66 57 -88q27 -10 27 -29q0 -16 -19 -16q-4 0 -10 2q-176 61 -176 186zM469 143q0 201 145 521q141 309 385 655q14 20 80 20q96 0 97 -32 q0 -4 -2 -11q-592 -889 -592 -1224q0 -113 80 -113q31 0 71 18q158 74 361 279q154 156 362 420l320 414q12 14 39 14q68 0 67 -45q0 -6 -2 -15q-96 -242 -299 -610q-195 -352 -297 -483q-23 -29 -47 -29q-12 0 -12 12t10 31q242 406 385 774q2 8 2 15q0 10 -6 10 q-14 0 -37 -31q-648 -837 -930 -836q-83 0 -135 72q-45 65 -45 174zM1391 1506q0 20 31 38q80 55 159 109q123 84 158 84q25 0 45 -29q37 -72 115 -213q23 -39 -6 -51q-25 -8 -54 23q-43 57 -135 170q-25 -10 -256 -136q-20 -12 -37 -12q-20 1 -20 17z" />
<glyph unicode="&#xdc;" horiz-adv-x="1812" d="M-41 856q0 174 297 350q326 195 821 267q8 1 14 1q21 0 21 -16q0 -14 -14 -16q-506 -123 -789 -332q-229 -168 -229 -309q0 -66 57 -88q27 -10 27 -29q0 -16 -19 -16q-4 0 -10 2q-176 61 -176 186zM469 143q0 201 145 521q141 309 385 655q14 20 80 20q96 0 97 -32 q0 -4 -2 -11q-592 -889 -592 -1224q0 -113 80 -113q31 0 71 18q158 74 361 279q154 156 362 420l320 414q12 14 39 14q68 0 67 -45q0 -6 -2 -15q-96 -242 -299 -610q-195 -352 -297 -483q-23 -29 -47 -29q-12 0 -12 12t10 31q242 406 385 774q2 8 2 15q0 10 -6 10 q-14 0 -37 -31q-648 -837 -930 -836q-83 0 -135 72q-45 65 -45 174zM1331 1464q0 31 25 72q20 51 63 41q45 -8 45 -49q0 -18 -8 -35q-29 -78 -74 -78q-51 0 -51 49zM1640 1466q0 39 29 79t62 32q45 -8 45 -49q0 -18 -9 -35q-31 -78 -75 -78q-52 0 -52 51z" />
<glyph unicode="&#xdd;" horiz-adv-x="1775" d="M536 1729q0 23 31 49q78 74 250 227q12 10 26 10q23 0 42.5 -21.5t19.5 -47.5q0 -25 -23 -41q-92 -63 -307 -184q-14 -8 -24 -9q-15 1 -15 17zM-86 1042q0 178 102 320q119 164 336 211q68 16 146 16q258 0 424 -162q227 -221 227 -710q0 -238 -55 -535q266 326 551 641 q328 365 430 430q20 14 43 15q27 0 48 -17.5t21 -36.5q0 -12 -12 -20q-141 -88 -449 -401q-326 -332 -602 -682q-457 -573 -514 -852q-12 -55 -53 -56q-51 0 -51 58q0 12 4 24q78 262 471 764q23 29 35 143.5t12 237.5q0 449 -151 760q-169 340 -457 340h-17 q-199 -6 -311 -174q-98 -147 -98 -350q0 -90 22 -168q4 -18 4 -31q0 -23 -12 -23q-8 0 -22 17q-72 91 -72 241z" />
<glyph unicode="&#xdf;" horiz-adv-x="978" d="M-358 -418q0 29 32 29q27 0 60 -25q4 -4 8 -4q37 0 137 172q59 98 187 342q74 141 152.5 329.5t154.5 375.5q135 322 286 483q190 203 441 203q117 0 194.5 -64.5t77.5 -152.5q0 -154 -168 -289q-104 -84 -364 -215q-156 -78 -156 -160q0 -53 55 -145q47 -78 47 -172 q0 -205 -190 -326q-53 -33 -117 -33q-72 0 -119 41q-53 45 -53 123q0 49 21 105q10 29 26 20q14 -6 11 -43q-6 -57 43 -110.5t114 -53.5q27 0 53 13q106 47 107 139q0 74 -66 186q-61 102 -61 176q0 147 262 291q416 223 410 467q-4 137 -131 137q-164 0 -332 -221 q-78 -104 -223 -387q-127 -221 -398 -717q-307 -584 -428 -583q-27 0 -50 22t-23 47z" />
<glyph unicode="&#xe0;" horiz-adv-x="907" d="M2 113q0 289 344 659q168 180 322 180q152 0 151 -166q0 -25 -4 -53q-2 -18 34 -44q32 -23 32 -33q0 -41 -31.5 -106t-79 -141t-59.5 -100q-86 -188 -113 -340q-2 -16 -27 -16q-47 0 -47 57q0 8 2 21q18 94 48 181t63 175q-201 -252 -318 -352q-104 -92 -180 -92 q-137 0 -137 170zM98 55q0 -59 37 -59q39 0 115 61q129 102 280 287q174 211 232 361q0 14 2 40q4 16 4 31q0 53 -55 53q-68 0 -164 -71q-143 -106 -258 -256q-137 -178 -180 -359q-13 -55 -13 -88zM532 1298q0 25 21.5 44.5t46.5 19.5q23 0 37 -17q74 -84 217 -289 q10 -12 10 -22q0 -16 -16 -16q-25 0 -52 26q-80 70 -252 225q-12 13 -12 29z" />
<glyph unicode="&#xe1;" horiz-adv-x="907" d="M2 113q0 289 344 659q168 180 322 180q152 0 151 -166q0 -25 -4 -53q-2 -18 34 -44q32 -23 32 -33q0 -41 -31.5 -106t-79 -141t-59.5 -100q-86 -188 -113 -340q-2 -16 -27 -16q-47 0 -47 57q0 8 2 21q18 94 48 181t63 175q-201 -252 -318 -352q-104 -92 -180 -92 q-137 0 -137 170zM98 55q0 -59 37 -59q39 0 115 61q129 102 280 287q174 211 232 361q0 14 2 40q4 16 4 31q0 53 -55 53q-68 0 -164 -71q-143 -106 -258 -256q-137 -178 -180 -359q-13 -55 -13 -88zM690 1108q0 23 31 49q78 74 250 227q12 10 26 10q23 0 42.5 -21.5 t19.5 -47.5q0 -25 -23 -41q-92 -63 -307 -184q-14 -8 -24 -9q-15 1 -15 17z" />
<glyph unicode="&#xe2;" horiz-adv-x="907" d="M2 113q0 289 344 659q168 180 322 180q152 0 151 -166q0 -25 -4 -53q-2 -18 34 -44q32 -23 32 -33q0 -41 -31.5 -106t-79 -141t-59.5 -100q-86 -188 -113 -340q-2 -16 -27 -16q-47 0 -47 57q0 8 2 21q18 94 48 181t63 175q-201 -252 -318 -352q-104 -92 -180 -92 q-137 0 -137 170zM98 55q0 -59 37 -59q39 0 115 61q129 102 280 287q174 211 232 361q0 14 2 40q4 16 4 31q0 53 -55 53q-68 0 -164 -71q-143 -106 -258 -256q-137 -178 -180 -359q-13 -55 -13 -88zM549 1094q0 20 31 38q80 55 159 109q123 84 158 84q25 0 45 -29 q37 -72 115 -213q23 -39 -6 -51q-25 -8 -54 23q-43 57 -135 170q-25 -10 -256 -136q-20 -12 -37 -12q-20 1 -20 17z" />
<glyph unicode="&#xe3;" horiz-adv-x="907" d="M2 113q0 289 344 659q168 180 322 180q152 0 151 -166q0 -25 -4 -53q-2 -18 34 -44q32 -23 32 -33q0 -41 -31.5 -106t-79 -141t-59.5 -100q-86 -188 -113 -340q-2 -16 -27 -16q-47 0 -47 57q0 8 2 21q18 94 48 181t63 175q-201 -252 -318 -352q-104 -92 -180 -92 q-137 0 -137 170zM98 55q0 -59 37 -59q39 0 115 61q129 102 280 287q174 211 232 361q0 14 2 40q4 16 4 31q0 53 -55 53q-68 0 -164 -71q-143 -106 -258 -256q-137 -178 -180 -359q-13 -55 -13 -88zM428 1114q4 49 61.5 108.5t106.5 59.5q45 0 129 -55.5t129 -55.5 q47 0 95 45t59 45q16 0 14 -22q-4 -55 -62.5 -110.5t-109.5 -55.5q-49 0 -135 54.5t-129 54.5q-45 0 -90 -43t-54 -43q-16 0 -14 18z" />
<glyph unicode="&#xe4;" horiz-adv-x="907" d="M2 113q0 289 344 659q168 180 322 180q152 0 151 -166q0 -25 -4 -53q-2 -18 34 -44q32 -23 32 -33q0 -41 -31.5 -106t-79 -141t-59.5 -100q-86 -188 -113 -340q-2 -16 -27 -16q-47 0 -47 57q0 8 2 21q18 94 48 181t63 175q-201 -252 -318 -352q-104 -92 -180 -92 q-137 0 -137 170zM98 55q0 -59 37 -59q39 0 115 61q129 102 280 287q174 211 232 361q0 14 2 40q4 16 4 31q0 53 -55 53q-68 0 -164 -71q-143 -106 -258 -256q-137 -178 -180 -359q-13 -55 -13 -88zM528 1134q0 31 25 72q20 51 63 41q45 -8 45 -49q0 -18 -8 -35 q-29 -78 -74 -78q-51 0 -51 49zM837 1136q0 39 29 79t62 32q45 -8 45 -49q0 -18 -9 -35q-31 -78 -75 -78q-52 0 -52 51z" />
<glyph unicode="&#xe5;" horiz-adv-x="907" d="M2 113q0 289 344 659q168 180 322 180q152 0 151 -166q0 -25 -4 -53q-2 -18 34 -44q32 -23 32 -33q0 -41 -31.5 -106t-79 -141t-59.5 -100q-86 -188 -113 -340q-2 -16 -27 -16q-47 0 -47 57q0 8 2 21q18 94 48 181t63 175q-201 -252 -318 -352q-104 -92 -180 -92 q-137 0 -137 170zM98 55q0 -59 37 -59q39 0 115 61q129 102 280 287q174 211 232 361q0 14 2 40q4 16 4 31q0 53 -55 53q-68 0 -164 -71q-143 -106 -258 -256q-137 -178 -180 -359q-13 -55 -13 -88zM657 1173q0 63 46 109.5t110 46.5q63 0 109 -46t46 -110q0 -63 -46 -108 t-109 -45t-109.5 45t-46.5 108zM710 1173q0 -41 31 -70.5t72 -29.5q43 0 73.5 29.5t30.5 70.5q0 43 -30.5 75t-73.5 32q-41 0 -72 -32t-31 -75z" />
<glyph unicode="&#xe6;" horiz-adv-x="1273" d="M2 113q0 289 344 659q168 180 322 180q152 0 151 -166q0 -25 -4 -53q-2 -12 10 -24q186 217 375 217q102 0 148 -80q16 -31 16 -72q0 -121 -125 -244q-166 -160 -514 -276q-27 -63 -27 -119q0 -131 107 -131q82 0 176 94q10 8 20 8q14 0 15 -18q0 -14 -10 -27 q-102 -121 -215 -120q-119 0 -173 122q-12 -47 -20 -94q-2 -16 -27 -16q-47 0 -47 57q0 8 2 21q18 94 48 181t63 175q-201 -252 -318 -352q-104 -92 -180 -92q-137 0 -137 170zM98 55q0 -59 37 -59q39 0 115 61q129 102 280 287q174 211 232 361q0 14 2 40q4 16 4 31 q0 53 -55 53q-68 0 -164 -71q-143 -106 -258 -256q-137 -178 -180 -359q-13 -55 -13 -88zM754 330q2 -6 24 -2q203 55 361 184q154 123 153 217q0 55 -43 55q-88 0 -233 -110q-170 -131 -256 -316q-10 -22 -6 -28z" />
<glyph unicode="&#xe7;" horiz-adv-x="708" d="M39 219q0 74 27 154q82 252 233 399q137 135 268 135q129 0 166 -135q4 -14 4 -33q0 -68 -39 -154.5t-75 -99.5q-14 -6 -27 -6q-35 0 -35 37q0 74 86 141q33 27 33 25q-2 59 -76 59q-90 0 -194 -88q-127 -106 -209 -293q-53 -121 -54 -208q0 -139 107 -140q78 0 168 82 q10 10 22 10q18 0 19 -18q0 -14 -17 -29q-98 -98 -202 -98q-88 0 -146.5 71.5t-58.5 188.5zM-86 -402q0 25 39 35q199 51 198 117q0 31 -16 47l-39 29q-10 10 -10 24q0 35 56.5 88.5t92.5 53.5q20 0 17 -35q-29 -23 -78 -72q-16 -23 -6 -28q51 -27 65 -39q33 -29 33 -66 q4 -113 -305 -178q-47 -11 -47 24z" />
<glyph unicode="&#xe8;" horiz-adv-x="681" d="M29 188q0 72 24 150q90 270 271 438q160 150 309 150q102 0 147 -80q16 -31 17 -72q0 -121 -125 -244q-166 -160 -514 -276q-27 -63 -27 -119q0 -131 107 -131q80 0 176 94q10 8 20 8q14 0 15 -18q0 -14 -11 -27q-102 -121 -215 -120q-84 0 -139 68t-55 179zM186 330 q1 -4 10 -4q6 0 15 2q203 55 360 184q152 123 152 217q0 55 -41 55q-88 0 -233 -110q-172 -131 -256 -316q-7 -16 -8 -23q0 -3 1 -5zM467 1259q0 25 21.5 44.5t46.5 19.5q23 0 37 -17q74 -84 217 -289q10 -12 10 -22q0 -16 -16 -16q-25 0 -52 26q-80 70 -252 225 q-12 13 -12 29z" />
<glyph unicode="&#xe9;" horiz-adv-x="681" d="M29 188q0 72 24 150q90 270 271 438q160 150 309 150q102 0 147 -80q16 -31 17 -72q0 -121 -125 -244q-166 -160 -514 -276q-27 -63 -27 -119q0 -131 107 -131q80 0 176 94q10 8 20 8q14 0 15 -18q0 -14 -11 -27q-102 -121 -215 -120q-84 0 -139 68t-55 179zM186 330 q1 -4 10 -4q6 0 15 2q203 55 360 184q152 123 152 217q0 55 -41 55q-88 0 -233 -110q-172 -131 -256 -316q-7 -16 -8 -23q0 -3 1 -5zM612 1051q0 23 31 49q78 74 250 227q12 10 26 10q23 0 42.5 -21.5t19.5 -47.5q0 -25 -23 -41q-92 -63 -307 -184q-14 -8 -24 -9 q-15 1 -15 17z" />
<glyph unicode="&#xea;" horiz-adv-x="681" d="M29 188q0 72 24 150q90 270 271 438q160 150 309 150q102 0 147 -80q16 -31 17 -72q0 -121 -125 -244q-166 -160 -514 -276q-27 -63 -27 -119q0 -131 107 -131q80 0 176 94q10 8 20 8q14 0 15 -18q0 -14 -11 -27q-102 -121 -215 -120q-84 0 -139 68t-55 179zM186 330 q1 -4 10 -4q6 0 15 2q203 55 360 184q152 123 152 217q0 55 -41 55q-88 0 -233 -110q-172 -131 -256 -316q-7 -16 -8 -23q0 -3 1 -5zM443 1065q0 20 31 38q80 55 159 109q123 84 158 84q25 0 45 -29q37 -72 115 -213q23 -39 -6 -51q-25 -8 -54 23q-43 57 -135 170 q-25 -10 -256 -136q-20 -12 -37 -12q-20 1 -20 17z" />
<glyph unicode="&#xeb;" horiz-adv-x="681" d="M29 188q0 72 24 150q90 270 271 438q160 150 309 150q102 0 147 -80q16 -31 17 -72q0 -121 -125 -244q-166 -160 -514 -276q-27 -63 -27 -119q0 -131 107 -131q80 0 176 94q10 8 20 8q14 0 15 -18q0 -14 -11 -27q-102 -121 -215 -120q-84 0 -139 68t-55 179zM186 330 q1 -4 10 -4q6 0 15 2q203 55 360 184q152 123 152 217q0 55 -41 55q-88 0 -233 -110q-172 -131 -256 -316q-7 -16 -8 -23q0 -3 1 -5zM463 1069q0 31 25 72q20 51 63 41q45 -8 45 -49q0 -18 -8 -35q-29 -78 -74 -78q-51 0 -51 49zM772 1071q0 39 29 79t62 32q45 -8 45 -49 q0 -18 -9 -35q-31 -78 -75 -78q-52 0 -52 51z" />
<glyph unicode="&#xec;" horiz-adv-x="417" d="M-10 63q0 25 8 54q39 156 131 375q84 203 154 325q2 4 -2 27q-2 16 24 39q10 8 27 8q37 0 80 -42t43 -83q0 -16 -9 -29q-360 -541 -360 -688q0 -35 25 -35q33 0 98 56q14 14 27 14q8 0 8 -10q0 -12 -19 -33q-80 -82 -147 -82q-88 0 -88 104zM188 1233q0 25 21.5 44.5 t46.5 19.5q23 0 37 -17q74 -84 217 -289q10 -12 10 -22q0 -16 -16 -16q-25 0 -52 26q-80 70 -252 225q-12 13 -12 29z" />
<glyph unicode="&#xed;" horiz-adv-x="417" d="M-10 63q0 25 8 54q39 156 131 375q84 203 154 325q2 4 -2 27q-2 16 24 39q10 8 27 8q37 0 80 -42t43 -83q0 -16 -9 -29q-360 -541 -360 -688q0 -35 25 -35q33 0 98 56q14 14 27 14q8 0 8 -10q0 -12 -19 -33q-80 -82 -147 -82q-88 0 -88 104zM393 1022q0 23 31 49 q78 74 250 227q12 10 26 10q23 0 42.5 -21.5t19.5 -47.5q0 -25 -23 -41q-92 -63 -307 -184q-14 -8 -24 -9q-15 1 -15 17z" />
<glyph unicode="&#xee;" horiz-adv-x="417" d="M-10 63q0 25 8 54q39 156 131 375q84 203 154 325q2 4 -2 27q-2 16 24 39q10 8 27 8q37 0 80 -42t43 -83q0 -16 -9 -29q-360 -541 -360 -688q0 -35 25 -35q33 0 98 56q14 14 27 14q8 0 8 -10q0 -12 -19 -33q-80 -82 -147 -82q-88 0 -88 104zM191 1016q0 20 31 38 q80 55 159 109q123 84 158 84q25 0 45 -29q37 -72 115 -213q23 -39 -6 -51q-25 -8 -54 23q-43 57 -135 170q-25 -10 -256 -136q-20 -12 -37 -12q-20 1 -20 17z" />
<glyph unicode="&#xef;" horiz-adv-x="417" d="M-10 63q0 25 8 54q39 156 131 375q84 203 154 325q2 4 -2 27q-2 16 24 39q10 8 27 8q37 0 80 -42t43 -83q0 -16 -9 -29q-360 -541 -360 -688q0 -35 25 -35q33 0 98 56q14 14 27 14q8 0 8 -10q0 -12 -19 -33q-80 -82 -147 -82q-88 0 -88 104zM235 1042q0 31 25 72 q20 51 63 41q45 -8 45 -49q0 -18 -8 -35q-29 -78 -74 -78q-51 0 -51 49zM544 1044q0 39 29 79t62 32q45 -8 45 -49q0 -18 -9 -35q-31 -78 -75 -78q-52 0 -52 51z" />
<glyph unicode="&#xf1;" horiz-adv-x="946" d="M-49 18q47 152 199 453q145 289 210 369q35 43 123 43q66 0 66 -19q0 -6 -119 -186q-135 -205 -188 -320q446 461 682 557q16 6 30 7q47 0 47 -60q0 -47 -34 -100q-381 -600 -381 -723q0 -30 23 -30q36 0 128 73q8 6 13 6q8 0 4 -16q-6 -16 -23 -33q-82 -90 -164 -90 q-86 0 -86 75v11q12 143 125 383q117 250 119 272q4 25 -10 25q-10 0 -29 -13q-172 -127 -334 -305q-195 -211 -258 -381q-16 -47 -71 -47q-33 0 -56 16q-18 12 -17 26q0 3 1 7zM455 1096q4 49 61.5 108.5t106.5 59.5q45 0 129 -55.5t129 -55.5q47 0 95 45t59 45 q16 0 14 -22q-4 -55 -62.5 -110.5t-109.5 -55.5q-49 0 -135 54.5t-129 54.5q-45 0 -90 -43t-54 -43q-16 0 -14 18z" />
<glyph unicode="&#xf2;" d="M25 158q0 190 143 424q152 250 342 315q37 12 72 12q74 0 118 -49q49 -55 50 -158q0 -84 -35 -192q4 -8 13 -18.5t9 -14.5t-6 -8q-18 -16 -41 -16q-115 -233 -254 -369q-131 -127 -241 -127q-80 0 -125 59.5t-45 141.5zM121 127q0 -35 8 -66q16 -49 68 -49q88 0 213 119 q135 133 227 330q8 16 6 22q0 2 -14 23q-10 12 -11 41q0 100 76 168q2 88 -63 88q-23 0 -53 -12q-127 -53 -285 -267q-172 -229 -172 -397zM465 1245q0 25 21.5 44.5t46.5 19.5q23 0 37 -17q74 -84 217 -289q10 -12 10 -22q0 -16 -16 -16q-25 0 -52 26q-80 70 -252 225 q-12 13 -12 29z" />
<glyph unicode="&#xf3;" d="M25 158q0 190 143 424q152 250 342 315q37 12 72 12q74 0 118 -49q49 -55 50 -158q0 -84 -35 -192q4 -8 13 -18.5t9 -14.5t-6 -8q-18 -16 -41 -16q-115 -233 -254 -369q-131 -127 -241 -127q-80 0 -125 59.5t-45 141.5zM121 127q0 -35 8 -66q16 -49 68 -49q88 0 213 119 q135 133 227 330q8 16 6 22q0 2 -14 23q-10 12 -11 41q0 100 76 168q2 88 -63 88q-23 0 -53 -12q-127 -53 -285 -267q-172 -229 -172 -397zM635 1051q0 23 31 49q78 74 250 227q12 10 26 10q23 0 42.5 -21.5t19.5 -47.5q0 -25 -23 -41q-92 -63 -307 -184q-14 -8 -24 -9 q-15 1 -15 17z" />
<glyph unicode="&#xf4;" d="M25 158q0 190 143 424q152 250 342 315q37 12 72 12q74 0 118 -49q49 -55 50 -158q0 -84 -35 -192q4 -8 13 -18.5t9 -14.5t-6 -8q-18 -16 -41 -16q-115 -233 -254 -369q-131 -127 -241 -127q-80 0 -125 59.5t-45 141.5zM121 127q0 -35 8 -66q16 -49 68 -49q88 0 213 119 q135 133 227 330q8 16 6 22q0 2 -14 23q-10 12 -11 41q0 100 76 168q2 88 -63 88q-23 0 -53 -12q-127 -53 -285 -267q-172 -229 -172 -397zM383 1035q0 20 31 38q80 55 159 109q123 84 158 84q25 0 45 -29q37 -72 115 -213q23 -39 -6 -51q-25 -8 -54 23q-43 57 -135 170 q-25 -10 -256 -136q-20 -12 -37 -12q-20 1 -20 17z" />
<glyph unicode="&#xf5;" d="M25 158q0 190 143 424q152 250 342 315q37 12 72 12q74 0 118 -49q49 -55 50 -158q0 -84 -35 -192q4 -8 13 -18.5t9 -14.5t-6 -8q-18 -16 -41 -16q-115 -233 -254 -369q-131 -127 -241 -127q-80 0 -125 59.5t-45 141.5zM121 127q0 -35 8 -66q16 -49 68 -49q88 0 213 119 q135 133 227 330q8 16 6 22q0 2 -14 23q-10 12 -11 41q0 100 76 168q2 88 -63 88q-23 0 -53 -12q-127 -53 -285 -267q-172 -229 -172 -397zM354 1065q4 49 61.5 108.5t106.5 59.5q45 0 129 -55.5t129 -55.5q47 0 95 45t59 45q16 0 14 -22q-4 -55 -62.5 -110.5t-109.5 -55.5 q-49 0 -135 54.5t-129 54.5q-45 0 -90 -43t-54 -43q-16 0 -14 18z" />
<glyph unicode="&#xf6;" d="M25 158q0 190 143 424q152 250 342 315q37 12 72 12q74 0 118 -49q49 -55 50 -158q0 -84 -35 -192q4 -8 13 -18.5t9 -14.5t-6 -8q-18 -16 -41 -16q-115 -233 -254 -369q-131 -127 -241 -127q-80 0 -125 59.5t-45 141.5zM121 127q0 -35 8 -66q16 -49 68 -49q88 0 213 119 q135 133 227 330q8 16 6 22q0 2 -14 23q-10 12 -11 41q0 100 76 168q2 88 -63 88q-23 0 -53 -12q-127 -53 -285 -267q-172 -229 -172 -397zM430 1069q0 31 25 72q20 51 63 41q45 -8 45 -49q0 -18 -8 -35q-29 -78 -74 -78q-51 0 -51 49zM739 1071q0 39 29 79t62 32 q45 -8 45 -49q0 -18 -9 -35q-31 -78 -75 -78q-52 0 -52 51z" />
<glyph unicode="&#xf7;" horiz-adv-x="1073" d="M131 471q-18 23 2.5 38t73.5 15q102 4 360 8q61 2 88 0q154 0 328 -18q68 -8 72 -37q4 -16 -13.5 -24.5t-40.5 -6.5q-236 10 -370 0q-25 -2 -86 -2q-33 -2 -330 -12q-53 -2 -84 39zM399 88q0 49 39 101.5t76 43.5q57 -12 57 -65q0 -20 -8 -41q-45 -100 -100 -100 q-64 0 -64 61zM653 776q0 39 35 101q29 47 74 47q61 0 61 -64q0 -18 -10 -41q-45 -102 -96 -102q-64 0 -64 59z" />
<glyph unicode="&#xf8;" d="M-152 -27q0 12 31 41q70 59 148 125q-10 188 135 430q154 262 348 328q37 12 72 12q72 0 119 -51t49 -151q51 39 100 71q18 4 51 17q51 39 64 14q12 -20 -19 -43q-96 -63 -203 -141q-8 -53 -28 -115q4 -8 13 -18.5t9 -14.5t-6 -8q-18 -16 -41 -16q-115 -233 -254 -369 q-131 -127 -241 -127q-57 0 -102.5 37t-59.5 94q-70 -55 -133 -108q-29 -16 -43 -13q-9 0 -9 6zM123 160q-6 -55 6 -99q16 -49 68 -49q88 0 213 119q135 133 227 330q8 16 6 22q0 2 -14 23q-8 8 -11 29q-251 -185 -495 -375zM137 231q258 213 496 390q20 57 61 94 q2 88 -63 88q-23 0 -53 -12q-104 -43 -246 -213q-148 -183 -195 -347z" />
<glyph unicode="&#xf9;" horiz-adv-x="917" d="M-6 82q0 137 96 367q100 240 260 456q6 8 21 8q33 0 74.5 -32.5t41.5 -59.5q0 -8 -6 -14q-410 -588 -409 -756q0 -43 34 -43q20 0 56 17q86 41 332 344q256 317 340 503q10 23 34 23q27 0 57.5 -25.5t30.5 -46.5q0 -6 -4 -10q-380 -708 -380 -824q0 -7 1 -12 q6 -16 -32 -16q-37 0 -43 31q-1 6 -1 13q0 101 177 509q-272 -336 -336 -405q-147 -156 -238 -156q-106 0 -106 129zM446 1241q0 25 21.5 44.5t46.5 19.5q23 0 37 -17q74 -84 217 -289q10 -12 10 -22q0 -16 -16 -16q-25 0 -52 26q-80 70 -252 225q-12 13 -12 29z" />
<glyph unicode="&#xfa;" horiz-adv-x="917" d="M-6 82q0 137 96 367q100 240 260 456q6 8 21 8q33 0 74.5 -32.5t41.5 -59.5q0 -8 -6 -14q-410 -588 -409 -756q0 -43 34 -43q20 0 56 17q86 41 332 344q256 317 340 503q10 23 34 23q27 0 57.5 -25.5t30.5 -46.5q0 -6 -4 -10q-380 -708 -380 -824q0 -7 1 -12 q6 -16 -32 -16q-37 0 -43 31q-1 6 -1 13q0 101 177 509q-272 -336 -336 -405q-147 -156 -238 -156q-106 0 -106 129zM643 1026q0 23 31 49q78 74 250 227q12 10 26 10q23 0 42.5 -21.5t19.5 -47.5q0 -25 -23 -41q-92 -63 -307 -184q-14 -8 -24 -9q-15 1 -15 17z" />
<glyph unicode="&#xfb;" horiz-adv-x="917" d="M-6 82q0 137 96 367q100 240 260 456q6 8 21 8q33 0 74.5 -32.5t41.5 -59.5q0 -8 -6 -14q-410 -588 -409 -756q0 -43 34 -43q20 0 56 17q86 41 332 344q256 317 340 503q10 23 34 23q27 0 57.5 -25.5t30.5 -46.5q0 -6 -4 -10q-380 -708 -380 -824q0 -7 1 -12 q6 -16 -32 -16q-37 0 -43 31q-1 6 -1 13q0 101 177 509q-272 -336 -336 -405q-147 -156 -238 -156q-106 0 -106 129zM477 1100q0 20 31 38q80 55 159 109q123 84 158 84q25 0 45 -29q37 -72 115 -213q23 -39 -6 -51q-25 -8 -54 23q-43 57 -135 170q-25 -10 -256 -136 q-20 -12 -37 -12q-20 1 -20 17z" />
<glyph unicode="&#xfc;" horiz-adv-x="917" d="M-6 82q0 137 96 367q100 240 260 456q6 8 21 8q33 0 74.5 -32.5t41.5 -59.5q0 -8 -6 -14q-410 -588 -409 -756q0 -43 34 -43q20 0 56 17q86 41 332 344q256 317 340 503q10 23 34 23q27 0 57.5 -25.5t30.5 -46.5q0 -6 -4 -10q-380 -708 -380 -824q0 -7 1 -12 q6 -16 -32 -16q-37 0 -43 31q-1 6 -1 13q0 101 177 509q-272 -336 -336 -405q-147 -156 -238 -156q-106 0 -106 129zM504 1091q0 31 25 72q20 51 63 41q45 -8 45 -49q0 -18 -8 -35q-29 -78 -74 -78q-51 0 -51 49zM813 1093q0 39 29 79t62 32q45 -8 45 -49q0 -18 -9 -35 q-31 -78 -75 -78q-52 0 -52 51z" />
<glyph unicode="&#xfd;" horiz-adv-x="972" d="M1005 1118q0 23 31 49q78 74 250 227q12 10 26 10q23 0 42.5 -21.5t19.5 -47.5q0 -25 -23 -41q-92 -63 -307 -184q-14 -8 -24 -9q-15 1 -15 17zM-295 -770q0 82 74 192q80 125 213 232q141 113 420 272q47 29 53 33q18 14 31 43q47 113 96 223q70 166 104 287 q-317 -412 -497 -537q-63 -43 -109 -43q-82 0 -82 119q0 134 82 330q96 229 287 475q33 43 125 43q86 0 86 -33q0 -8 -6 -16q-223 -291 -363 -531q-131 -225 -131 -301q0 -27 21 -26q18 0 49 18q147 96 377 379q248 301 358 551q18 39 74 39q55 0 55 -37q0 -8 -4 -16 q-152 -352 -387 -901q-4 -12 -4 -21q0 -10 7 -18.5t7 -10.5q0 -4 -2 -8q-20 -10 -68 -65q-287 -510 -610 -727q-78 -55 -147 -56q-109 0 -109 111zM-240 -768q0 -53 52 -53q53 0 122 47q104 70 244 250q150 195 244 397q-584 -350 -651 -590q-11 -31 -11 -51z" />
<glyph unicode="&#xff;" horiz-adv-x="972" d="M-295 -770q0 82 74 192q80 125 213 232q141 113 420 272q47 29 53 33q18 14 31 43q47 113 96 223q70 166 104 287q-317 -412 -497 -537q-63 -43 -109 -43q-82 0 -82 119q0 134 82 330q96 229 287 475q33 43 125 43q86 0 86 -33q0 -8 -6 -16q-223 -291 -363 -531 q-131 -225 -131 -301q0 -27 21 -26q18 0 49 18q147 96 377 379q248 301 358 551q18 39 74 39q55 0 55 -37q0 -8 -4 -16q-152 -352 -387 -901q-4 -12 -4 -21q0 -10 7 -18.5t7 -10.5q0 -4 -2 -8q-20 -10 -68 -65q-287 -510 -610 -727q-78 -55 -147 -56q-109 0 -109 111z M-240 -768q0 -53 52 -53q53 0 122 47q104 70 244 250q150 195 244 397q-584 -350 -651 -590q-11 -31 -11 -51zM563 1101q0 31 25 72q20 51 63 41q45 -8 45 -49q0 -18 -8 -35q-29 -78 -74 -78q-51 0 -51 49zM872 1103q0 39 29 79t62 32q45 -8 45 -49q0 -18 -9 -35 q-31 -78 -75 -78q-52 0 -52 51z" />
<glyph unicode="&#x131;" horiz-adv-x="417" d="M-10 63q0 25 8 54q39 156 131 375q84 203 154 325q2 4 -2 27q-2 16 24 39q10 8 27 8q37 0 80 -42t43 -83q0 -16 -9 -29q-360 -541 -360 -688q0 -35 25 -35q33 0 98 56q14 14 27 14q8 0 8 -10q0 -12 -19 -33q-80 -82 -147 -82q-88 0 -88 104z" />
<glyph unicode="&#x152;" horiz-adv-x="2531" d="M127 322q0 291 244 583q20 23 55 70q281 461 756 547q43 8 86 8q168 0 275.5 -118t107.5 -306q0 -135 -60 -283q242 166 559 209q-244 70 -243 217q0 80 76.5 158t205.5 129q186 74 359 74q203 0 211 -80q4 -37 -6 -78q-12 -53 -41 -55q-16 0 -38 18.5t-46 22.5 q-80 12 -160 12q-197 0 -340 -70q-135 -68 -135 -153q0 -57 73 -103q100 -61 218 -61q59 0 126 14q23 6 23 -37q0 -41 -19.5 -92t-37.5 -51q-309 -4 -619 -145q-383 -174 -383 -449q0 -160 129 -252q117 -84 299 -84q170 0 324 78q166 84 256 238q23 39 41 39q31 0 31 -56 q0 -43 -39 -96q-94 -123 -256 -190q-154 -66 -326 -66q-223 0 -375 104q-168 117 -176 320v33q-141 -143 -330 -277q-233 -164 -463 -164q-178 0 -276 111q-86 99 -86 281zM244 324q0 -152 78.5 -239t214.5 -87q180 0 397 160q289 211 440 460q131 219 131 422 q0 168 -90 270.5t-239 102.5q-61 0 -132 -18q-319 -92 -530 -377q45 31 131 72q37 8 37 -17q0 -16 -25 -29q-117 -57 -186 -213q-8 -16 -16 -16q-4 0 -11.5 2t-13.5 2q-18 0 -37 -35q-149 -253 -149 -460z" />
<glyph unicode="&#x153;" horiz-adv-x="1243" d="M25 158q0 190 143 424q152 250 342 315q37 12 72 12q74 0 118 -49q49 -55 50 -158q0 -25 -5 -51q96 131 216 205q111 70 206 70q102 0 148 -80q16 -31 16 -72q0 -121 -125 -244q-166 -160 -514 -276q-27 -63 -26 -119q0 -131 106 -131q80 0 176 94q10 8 21 8q14 0 14 -18 q0 -14 -10 -27q-102 -121 -215 -120q-84 0 -139.5 68.5t-55.5 178.5q0 25 2 52q-197 -283 -370 -283q-80 0 -125 59.5t-45 141.5zM121 127q0 -35 8 -66q16 -49 70 -49q86 0 209 115q133 129 223 319q4 10 12 29q2 6 -14 31q-10 12 -11 41q0 100 76 168q2 88 -63 88 q-23 0 -53 -12q-127 -53 -285 -267q-172 -229 -172 -397zM721 330q2 -6 24 -2q203 55 361 184q152 123 151 217q0 55 -40 55q-88 0 -234 -110q-172 -131 -256 -316q-10 -22 -6 -28z" />
<glyph unicode="&#x178;" horiz-adv-x="1775" d="M-86 1042q0 178 102 320q119 164 336 211q68 16 146 16q258 0 424 -162q227 -221 227 -710q0 -238 -55 -535q266 326 551 641q328 365 430 430q20 14 43 15q27 0 48 -17.5t21 -36.5q0 -12 -12 -20q-141 -88 -449 -401q-326 -332 -602 -682q-457 -573 -514 -852 q-12 -55 -53 -56q-51 0 -51 58q0 12 4 24q78 262 471 764q23 29 35 143.5t12 237.5q0 449 -151 760q-169 340 -457 340h-17q-199 -6 -311 -174q-98 -147 -98 -350q0 -90 22 -168q4 -18 4 -31q0 -23 -12 -23q-8 0 -22 17q-72 91 -72 241zM1261 1456q0 31 25 72q20 51 63 41 q45 -8 45 -49q0 -18 -8 -35q-29 -78 -74 -78q-51 0 -51 49zM1570 1458q0 39 29 79t62 32q45 -8 45 -49q0 -18 -9 -35q-31 -78 -75 -78q-52 0 -52 51z" />
<glyph unicode="&#x2c6;" horiz-adv-x="681" d="M504 1090q0 20 31 38q80 55 159 109q123 84 158 84q25 0 45 -29q37 -72 115 -213q23 -39 -6 -51q-25 -8 -54 23q-43 57 -135 170q-25 -10 -256 -136q-20 -12 -37 -12q-20 1 -20 17z" />
<glyph unicode="&#x2da;" horiz-adv-x="837" d="M647 1202q0 63 46 109.5t110 46.5q63 0 109 -46t46 -110q0 -63 -46 -108t-109 -45t-109.5 45t-46.5 108zM700 1202q0 -41 31 -70.5t72 -29.5q43 0 73.5 29.5t30.5 70.5q0 43 -30.5 75t-73.5 32q-41 0 -72 -32t-31 -75z" />
<glyph unicode="&#x2dc;" horiz-adv-x="897" d="M432 1067q4 49 61.5 108.5t106.5 59.5q45 0 129 -55.5t129 -55.5q47 0 95 45t59 45q16 0 14 -22q-4 -55 -62.5 -110.5t-109.5 -55.5q-49 0 -135 54.5t-129 54.5q-45 0 -90 -43t-54 -43q-16 0 -14 18z" />
<glyph unicode="&#x2013;" horiz-adv-x="980" d="M137 512q0 25 21 29q37 12 258 6q219 -4 440 -10q18 0 18 -25q0 -43 -26 -43q-543 8 -649 -35q-16 -8 -39 21.5t-23 56.5z" />
<glyph unicode="&#x2014;" horiz-adv-x="1597" d="M137 494q0 27 35 34q59 12 518 9q440 -2 772 -17q29 -2 29 -26q0 -33 -29 -33q-1159 12 -1263 -19q-20 -8 -41 12t-21 40z" />
<glyph unicode="&#x2018;" horiz-adv-x="329" d="M334 1108q-2 51 56.5 185t113.5 186q29 27 55 26q37 0 62 -45q10 -18 10 -37q0 -39 -45 -65q-51 -33 -114.5 -116t-92.5 -150q-10 -29 -23 -29q-16 0 -22 45z" />
<glyph unicode="&#x2019;" horiz-adv-x="329" d="M334 1087q0 12 18 31q45 51 90 150q43 90 54 153q14 80 77 76q72 -4 72 -61q0 -61 -100.5 -196.5t-157.5 -156.5q-53 -21 -53 4z" />
<glyph unicode="&#x201a;" horiz-adv-x="342" d="M-129 -227q0 12 16 30q47 51 93 150q41 92 53 156q12 80 78 75q72 -6 71 -61q0 -63 -101 -197.5t-157 -156.5q-53 -19 -53 4z" />
<glyph unicode="&#x201c;" horiz-adv-x="589" d="M334 1108q-2 51 56.5 185t113.5 186q29 27 55 26q37 0 62 -45q10 -18 10 -37q0 -39 -45 -65q-51 -33 -114.5 -116t-92.5 -150q-10 -29 -23 -29q-16 0 -22 45zM569 1108q-2 51 56.5 185t113.5 186q29 27 56 26q37 0 61 -45q10 -18 10 -37q0 -39 -45 -65 q-51 -33 -114.5 -116t-92.5 -150q-10 -29 -22 -29q-17 0 -23 45z" />
<glyph unicode="&#x201d;" horiz-adv-x="589" d="M334 1087q0 12 18 31q45 51 90 150q43 90 54 153q14 80 77 76q72 -4 72 -61q0 -61 -100.5 -196.5t-157.5 -156.5q-53 -21 -53 4zM580 1087q0 12 18 31q47 51 92 150q41 90 51 153q14 80 80 76q70 -4 70 -61q0 -61 -100.5 -196.5t-157.5 -156.5q-53 -21 -53 4z" />
<glyph unicode="&#x201e;" horiz-adv-x="589" d="M-129 -227q0 12 16 30q47 51 93 150q41 92 53 156q12 80 78 75q72 -6 71 -61q0 -63 -101 -197.5t-157 -156.5q-53 -19 -53 4zM117 -227q0 12 18 30q45 51 90 150q43 92 54 156q14 80 77 75q72 -6 72 -61q0 -63 -100.5 -197.5t-157.5 -156.5q-53 -19 -53 4z" />
<glyph unicode="&#x2022;" horiz-adv-x="847" d="M207 532q0 74 41 136q63 96 192 96q74 0 131 -39q98 -63 99 -190q0 -78 -43 -138q-66 -98 -189 -98q-76 0 -135 43q-96 67 -96 190z" />
<glyph unicode="&#x2026;" horiz-adv-x="1263" d="M14 51q0 43 33 85t76 42q57 0 57 -65q0 -43 -32.5 -86t-73.5 -43q-60 -1 -60 67zM436 51q0 43 33 85t76 42q57 0 57 -65q0 -43 -32.5 -86t-73.5 -43q-60 -1 -60 67zM858 51q0 43 33 85t76 42q57 0 57 -65q0 -43 -33 -86t-73 -43q-60 -1 -60 67z" />
<glyph unicode="&#x2039;" horiz-adv-x="460" d="M72 444q0 43 32 68q125 88 365 258q27 18 45 18q20 0 18 -20q0 -23 -30 -49q-80 -68 -162 -137q-94 -82 -147 -148q70 -154 141 -246q23 -31 18 -53q-2 -23 -22 -22q-20 0 -41 26q-63 74 -187 228q-30 38 -30 77z" />
<glyph unicode="&#x203a;" horiz-adv-x="436" d="M-51 117q-12 23 31 59q82 68 161 137q92 82 148 152q-72 152 -142 246q-23 29 -18 51q2 23 23 22q20 0 41 -24q94 -113 186 -232q31 -39 31 -77q0 -41 -33 -66q-127 -88 -365 -256q-49 -37 -63 -12z" />
<glyph unicode="&#x2044;" horiz-adv-x="774" d="M-135 -317q0 248 377 763q322 440 874 1018q10 25 51 66q37 23 70 22q55 0 55 -39q0 -10 -8 -18q-647 -639 -1032 -1165q-369 -508 -322 -672q2 -8 2 -16q0 -47 -36 -48q-31 1 -31 89z" />
<glyph unicode="&#x2122;" horiz-adv-x="2027" d="M385 1341q0 16 9 23.5t44 15.5q20 0 124 -2t155 -2q45 0 84 27q16 2 28 -6q6 -29 39 -17q100 0 281 -8q6 0 6 -10q0 -37 -29 -37q-80 -2 -245 -8q-29 -6 -37 -12q-14 -10 -27 -45q-102 -207 -264 -570q-23 -57 -23 -90q0 -25 15 -45q4 -4 4 -8q0 -10 -23 -19l-32 -16 q-31 -6 -64 2q-39 10 -37 33q16 78 45 151q106 225 252 555q4 10 4 21q0 43 -49 43q-66 10 -164 -6q-12 0 -63 -11q-12 -8 -22.5 7.5t-10.5 33.5zM913 504q0 115 136 407q98 201 194 400q-43 -4 -43 10q0 8 19 22q41 47 116 48q51 0 68 -21q10 -33 10 -84q-16 -74 -16 -186 q0 -166 30 -307q8 -41 35 -41q18 0 49 22q74 53 228 209q158 164 266 295q20 47 70 98q8 8 26 8q29 0 61.5 -13t37.5 -28q-4 -14 -31 -49q-141 -285 -232 -549q-37 -104 -36 -151q0 -31 4 -33q6 -14 -11.5 -24.5t-40.5 -10.5q-18 0 -28 9q-18 14 -19 75q0 82 23 152 q63 207 129 352l-16 14q-338 -383 -486 -454q-14 -6 -33 -6q-80 0 -98 61q-43 131 -29 447q2 10 -12 14t-14 -6q-139 -266 -164 -316q-125 -260 -125 -354q0 -29 -37 -29q-31 1 -31 19z" />
<glyph unicode="&#xe000;" horiz-adv-x="905" d="M0 905h905v-905h-905v905z" />
<glyph unicode="&#xfb01;" horiz-adv-x="1087" d="M660 63q0 25 8 54q39 156 131 375q84 203 154 325q2 4 -2 27q-2 16 24 39q10 8 27 8q37 0 80 -42t43 -83q0 -16 -9 -29q-360 -541 -360 -688q0 -35 25 -35q33 0 98 56q14 14 27 14q8 0 8 -10q0 -12 -19 -33q-80 -82 -147 -82q-88 0 -88 104zM1194 1120q0 37 39 105 q32 53 72 52q7 0 14 -1q88 -18 88 -100q0 -23 -12 -41q-55 -90 -113 -91q-18 0 -41 9q-47 24 -47 67zM-178 -479q0 20 4 43q74 377 283 856q246 565 620 1128q4 6 0 25q-4 18 25 47q8 8 22 8q33 0 68 -30.5t35 -65.5q0 -14 -7 -27q-35 -61 -174 -274q-131 -205 -229 -383 q63 -37 88 -92q6 -12 45 0q23 8 70 53q12 12 20 8q8 -6 8 -20q0 -16 -12 -33q-39 -47 -94 -66q-2 -305 -193 -733q-178 -399 -333 -522q-63 -51 -127 -51q-51 0 -85 35t-34 94zM-96 -479q0 -76 49 -76q47 0 121 74q117 115 281.5 517t164.5 582q0 23 -4 41.5t-12 42.5 q-31 23 -84 64q-156 -268 -311 -610q-205 -457 -205 -635z" />
<glyph unicode="&#xfb02;" horiz-adv-x="1138" d="M693 2q0 264 312 857t531 722q74 43 166 43q106 0 152 -55q10 -14 10 -27q0 -20 -23 -20q-14 0 -20 14q-16 33 -49 33q-137 0 -454.5 -459t-506.5 -940q-41 -104 -41 -156q0 -47 33 -47q57 0 164 109q6 4 16 2q10 -4 11 -12q0 -12 -19 -27q-137 -131 -215 -131 q-67 0 -67 94zM-178 -479q0 20 4 43q74 377 283 856q246 565 620 1128q4 6 0 25q-4 18 25 47q8 8 22 8q33 0 68 -30.5t35 -65.5q0 -14 -7 -27q-35 -61 -174 -274q-131 -205 -229 -383q63 -37 88 -92q6 -12 45 0q23 8 70 53q12 12 20 8q8 -6 8 -20q0 -16 -12 -33 q-39 -47 -94 -66q-2 -305 -193 -733q-178 -399 -333 -522q-63 -51 -127 -51q-51 0 -85 35t-34 94zM-96 -479q0 -76 49 -76q47 0 121 74q117 115 281.5 517t164.5 582q0 23 -4 41.5t-12 42.5q-31 23 -84 64q-156 -268 -311 -610q-205 -457 -205 -635z" />
<glyph unicode="&#xfb03;" horiz-adv-x="1757" d="M1329 63q0 25 8 54q39 156 131 375q84 203 154 325q2 4 -2 27q-2 16 24 39q10 8 27 8q37 0 80 -42t43 -83q0 -16 -9 -29q-360 -541 -360 -688q0 -35 25 -35q33 0 98 56q14 14 27 14q8 0 8 -10q0 -12 -19 -33q-80 -82 -147 -82q-88 0 -88 104zM1863 1120q0 37 39 105 q32 53 72 52q7 0 14 -1q88 -18 88 -100q0 -23 -12 -41q-55 -90 -113 -91q-18 0 -41 9q-47 24 -47 67zM492 -479q0 20 4 43q74 377 283 856q246 565 620 1128q4 6 0 25q-4 18 25 47q8 8 22 8q33 0 68 -30.5t35 -65.5q0 -14 -7 -27q-35 -61 -174 -274q-131 -205 -229 -383 q63 -37 88 -92q6 -12 45 0q23 8 70 53q12 12 20 8q8 -6 8 -20q0 -16 -12 -33q-39 -47 -94 -66q-2 -305 -193 -733q-178 -399 -333 -522q-63 -51 -127 -51q-51 0 -85 35t-34 94zM574 -479q0 -76 49 -76q47 0 121 74q117 115 281.5 517t164.5 582q0 23 -4 41.5t-12 42.5 q-31 23 -84 64q-156 -268 -311 -610q-205 -457 -205 -635zM-178 -479q0 20 4 43q74 377 283 856q246 565 620 1128q4 6 0 25q-4 18 25 47q8 8 22 8q33 0 68 -30.5t35 -65.5q0 -14 -7 -27q-35 -61 -174 -274q-131 -205 -229 -383q63 -37 88 -92q6 -12 45 0q23 8 70 53 q12 12 20 8q8 -6 8 -20q0 -16 -12 -33q-39 -47 -94 -66q-2 -305 -193 -733q-178 -399 -333 -522q-63 -51 -127 -51q-51 0 -85 35t-34 94zM-96 -479q0 -76 49 -76q47 0 121 74q117 115 281.5 517t164.5 582q0 23 -4 41.5t-12 42.5q-31 23 -84 64q-156 -268 -311 -610 q-205 -457 -205 -635z" />
<glyph unicode="&#xfb04;" horiz-adv-x="1808" d="M1362 2q0 264 312 857t531 722q74 43 166 43q106 0 152 -55q10 -14 10 -27q0 -20 -23 -20q-14 0 -20 14q-16 33 -49 33q-137 0 -454.5 -459t-506.5 -940q-41 -104 -41 -156q0 -47 33 -47q57 0 164 109q6 4 16 2q10 -4 11 -12q0 -12 -19 -27q-137 -131 -215 -131 q-67 0 -67 94zM492 -479q0 20 4 43q74 377 283 856q246 565 620 1128q4 6 0 25q-4 18 25 47q8 8 22 8q33 0 68 -30.5t35 -65.5q0 -14 -7 -27q-35 -61 -174 -274q-131 -205 -229 -383q63 -37 88 -92q6 -12 45 0q23 8 70 53q12 12 20 8q8 -6 8 -20q0 -16 -12 -33 q-39 -47 -94 -66q-2 -305 -193 -733q-178 -399 -333 -522q-63 -51 -127 -51q-51 0 -85 35t-34 94zM574 -479q0 -76 49 -76q47 0 121 74q117 115 281.5 517t164.5 582q0 23 -4 41.5t-12 42.5q-31 23 -84 64q-156 -268 -311 -610q-205 -457 -205 -635zM-178 -479q0 20 4 43 q74 377 283 856q246 565 620 1128q4 6 0 25q-4 18 25 47q8 8 22 8q33 0 68 -30.5t35 -65.5q0 -14 -7 -27q-35 -61 -174 -274q-131 -205 -229 -383q63 -37 88 -92q6 -12 45 0q23 8 70 53q12 12 20 8q8 -6 8 -20q0 -16 -12 -33q-39 -47 -94 -66q-2 -305 -193 -733 q-178 -399 -333 -522q-63 -51 -127 -51q-51 0 -85 35t-34 94zM-96 -479q0 -76 49 -76q47 0 121 74q117 115 281.5 517t164.5 582q0 23 -4 41.5t-12 42.5q-31 23 -84 64q-156 -268 -311 -610q-205 -457 -205 -635z" />
</font>
</defs>
</svg>
