<?xml version="1.0" standalone="no"?>
<!DOCTYPE svg PUBLIC "-//W3C//DTD SVG 1.1//EN" "http://www.w3.org/Graphics/SVG/1.1/DTD/svg11.dtd" >
<svg xmlns="http://www.w3.org/2000/svg">
<metadata></metadata>
<defs>
<font id="puritanitalic" horiz-adv-x="548" >
<font-face units-per-em="1024" ascent="819" descent="-205" />
<missing-glyph horiz-adv-x="279" />
<glyph horiz-adv-x="0" />
<glyph horiz-adv-x="0" />
<glyph horiz-adv-x="279" />
<glyph unicode=" "  horiz-adv-x="279" />
<glyph unicode="&#x09;" horiz-adv-x="279" />
<glyph unicode="&#xa0;" horiz-adv-x="279" />
<glyph unicode="!" horiz-adv-x="240" d="M26 45q2 25 21 42t42 17q26 0 41 -17t13 -42q-3 -25 -21.5 -41.5t-44.5 -16.5q-24 0 -39 16.5t-12 41.5zM61 197l56 526h87l-56 -526h-87z" />
<glyph unicode="&#x22;" horiz-adv-x="336" d="M76 640q-2 -23 6.5 -76.5t19.5 -77.5h14q16 26 36 80q18 51 20 74q6 57 -42 57t-54 -57zM220 640q-2 -23 7.5 -76.5t19.5 -77.5h14q16 26 36 80q18 51 20 74q6 57 -42 57q-49 0 -55 -57z" />
<glyph unicode="#" d="M59 398l7 54l105 11l8 81l-104 -12l6 54l105 11l9 77l58 6l-9 -77l84 8l8 77l60 8l-10 -79l83 10l-6 -54l-83 -9l-8 -80l82 9l-7 -54l-81 -8l-12 -99l-58 -6l11 99l-83 -9l-11 -100l-59 -6l11 100zM229 469l83 9l10 80l-83 -8z" />
<glyph unicode="$" d="M54 71l56 63q51 -69 135 -68q47 0 82 27.5t40 77.5q5 49 -40 77q-13 8 -87 36q-59 23 -87 48q-39 38 -39 100q0 13 1 27q6 57 49 101q41 41 99 55l10 92h92l-10 -89q61 -11 116 -60l-51 -59q-51 48 -113 48q-91 0 -100 -93q-6 -54 85 -86t120 -56q44 -36 44 -106 q0 -15 -1 -33q-15 -148 -166 -179l-10 -96h-92l11 93q-102 14 -144 80z" />
<glyph unicode="%" d="M-3 -54l460 697l67 -27l-454 -696zM48 523q0 9 1 21q5 53 40 87.5t83 34.5q47 0 74.5 -34.5t22.5 -87.5q-6 -60 -40.5 -92t-83.5 -32q-44 0 -70.5 26t-26.5 77zM112 541q-4 -34 11 -52q11 -14 29 -14q17 0 31 14q18 17 23 52q3 34 -12 52q-13 15 -29 15t-32 -15 q-18 -18 -21 -52zM279 102q0 11 2 23q5 54 40.5 89.5t85.5 35.5q47 0 75 -35.5t23 -89.5q-7 -62 -41.5 -94.5t-84.5 -32.5q-100 0 -100 104zM344 121q-3 -35 12 -52q11 -13 29 -14q17 0 32 14q19 18 22 52q4 35 -11 54q-13 15 -30 15q-16 0 -31 -15q-18 -19 -23 -54z" />
<glyph unicode="&#x26;" horiz-adv-x="568" d="M8 153q0 66 41 126q40 57 102 89q-40 63 -33 128q7 69 60 114t120 45q86 0 146 -73l-53 -50q-41 57 -106 58q-76 0 -85 -79q-4 -46 19 -107q57 23 117 25l8 -62q-54 0 -91 -17q68 -112 115 -164q19 51 21 72q3 24 -3 65l73 6q4 -104 -37 -197q24 -31 89 -64l-54 -64 q-39 13 -90 64q-84 -77 -169 -77q-93 0 -144 48q-46 44 -46 114zM85 182q-5 -50 24 -83q31 -37 91 -37q68 0 119 59q-101 116 -140 193q-85 -45 -94 -132z" />
<glyph unicode="'" horiz-adv-x="198" d="M68 642q-2 -25 8 -79q11 -58 25 -77q19 28 39.5 78t23.5 78q6 57 -41 57q-49 0 -55 -57z" />
<glyph unicode="(" horiz-adv-x="325" d="M42 242q0 144 50 294q49 145 136 266l62 -31q-133 -248 -154 -440q-5 -45 -5 -88q0 -85 21 -177q10 -47 47 -177l-71 -30q-86 181 -86 383z" />
<glyph unicode=")" horiz-adv-x="323" d="M33 -111q80 160 100 211q45 112 57 227q4 44 5 88q0 160 -65 356l69 31q82 -164 82 -370q-1 -307 -183 -573z" />
<glyph unicode="*" horiz-adv-x="281" d="M20 531l83 52l-81 52l26 45l70 -63l-4 93l48 -1l-5 -92l67 63l26 -45l-79 -51l80 -53l-27 -45l-67 62l4 -91h-48l3 91l-68 -62z" />
<glyph unicode="+" horiz-adv-x="509" d="M54 289v64h169v181h63v-181h171v-64h-171v-191h-63v191h-169z" />
<glyph unicode="," horiz-adv-x="260" d="M56 -74l44 -12q106 122 117 209h-99q-5 -45 -27 -111q-20 -60 -35 -86z" />
<glyph unicode="-" horiz-adv-x="389" d="M51 273v96h287v-96h-287z" />
<glyph unicode="&#x2010;" horiz-adv-x="389" d="M51 273v96h287v-96h-287z" />
<glyph unicode="." horiz-adv-x="238" d="M62 66q3 32 26.5 53t50.5 21q28 0 45.5 -21.5t14.5 -52.5q-3 -32 -25.5 -53.5t-50.5 -21.5t-46 21.5t-15 53.5z" />
<glyph unicode="/" horiz-adv-x="394" d="M-33 -157l397 878l81 -18l-397 -877z" />
<glyph unicode="0" d="M20 265q0 148 70 260q81 132 220 132q105 0 164 -80q53 -75 53 -192q0 -150 -71 -262q-84 -132 -224 -132q-113 0 -165 85q-46 71 -47 189zM100 275q0 -90 30 -143q36 -66 111 -65q89 0 146 89q47 74 58 177q3 28 4 53q0 196 -147 196q-105 0 -160 -107q-42 -84 -42 -200 z" />
<glyph unicode="1" horiz-adv-x="494" d="M105 591l8 61h232l-70 -652h-91l63 591h-142z" />
<glyph unicode="2" d="M40 0l8 79l211 217q118 122 127 207q4 37 -25 68.5t-68 31.5q-72 0 -138 -74l-44 51q95 95 188 95q72 0 123.5 -57.5t43.5 -132.5q-9 -92 -127 -219l-175 -187h300l-8 -79h-416z" />
<glyph unicode="3" d="M44 47l42 49q29 -29 70 -50q47 -25 84 -24q67 0 109 51q36 44 43 103q5 53 -34 90.5t-111 37.5q-12 0 -36 1h-35l6 68h23q19 -1 23 -1q17 0 55 11q87 27 95 111q6 50 -19 88q-28 43 -80 43q-31 0 -73.5 -25.5t-62.5 -50.5l-40 47q86 90 179 90q79 0 132.5 -55.5 t45.5 -129.5q-5 -47 -40 -89q-38 -45 -91 -57q65 -12 110.5 -63t39.5 -112q-9 -88 -71 -148q-72 -69 -186 -69q-112 0 -178 84z" />
<glyph unicode="4" d="M18 143l9 78l354 444h61l-47 -444h108l-8 -78h-108l-18 -172h-71l19 172h-299zM124 221h202l31 298z" />
<glyph unicode="5" d="M28 72l39 55q29 -38 76 -67q53 -33 100 -32q68 0 118 47t56 110q7 68 -32.5 116t-94.5 48q-32 0 -71 -18q-47 -24 -66 -62l-62 33l38 351h361l-9 -83h-284l-24 -218q40 66 133 67q89 1 143 -52t54 -144q0 -115 -79 -186.5t-197 -71.5q-56 0 -117 33t-82 74z" />
<glyph unicode="6" d="M27 220q0 26 3 53q17 172 102 280q94 120 248 120q82 0 160 -39l-39 -63q-65 34 -129 34q-93 0 -164 -82q-68 -78 -85 -190q39 59 96 90q50 28 100 28q77 0 132 -58q58 -60 58 -151q0 -109 -73.5 -187t-182.5 -78q-97 0 -157 55q-70 63 -69 188zM116 202q0 -65 36 -109 q40 -50 108 -50q69 0 121 61q49 58 49 128q0 69 -38 109t-98 40q-73 0 -125.5 -54t-52.5 -125z" />
<glyph unicode="7" d="M74 -7l346 595h-308l6 61h401l-6 -62l-357 -617z" />
<glyph unicode="8" d="M24 147q0 73 56 133q47 50 124 80q-62 41 -81 62q-33 38 -28 88q8 80 80 129q63 42 141 42q73 0 122 -41q55 -46 47 -118q-10 -94 -139 -157q160 -62 146 -190q-9 -88 -73 -143q-70 -61 -185 -61q-90 0 -148 43q-62 48 -62 133zM110 172q-7 -70 46 -109q41 -30 92 -29 q62 0 106.5 37.5t52.5 100.5q6 58 -37 96q-26 22 -99 53q-84 -39 -105 -55q-50 -37 -56 -94zM172 510q3 -44 32 -72q22 -20 69 -41q130 45 138 116q5 47 -31 80q-34 30 -80 30q-44 0 -79 -29q-39 -31 -49 -84z" />
<glyph unicode="9" d="M32 36l38 62q69 -68 174 -67q88 0 143 102q43 79 57 195q-43 -62 -76 -85q-44 -30 -111 -29q-88 1 -140 58q-49 54 -49 137q0 108 63 180q67 77 172 77q91 0 153 -56q74 -66 73 -188q0 -23 -3 -47q-17 -163 -72 -265q-80 -147 -226 -147q-126 0 -196 73zM148 438 q-7 -61 24 -106q34 -50 95 -50q76 0 125.5 47t49.5 122q0 62 -35 103q-40 46 -110 46q-61 0 -104 -53q-38 -46 -45 -109z" />
<glyph unicode=":" horiz-adv-x="249" d="M47 66q4 32 27 53t50 21q28 0 46 -21.5t14 -52.5q-3 -32 -25 -53.5t-50 -21.5t-46.5 21.5t-15.5 53.5zM88 443q3 32 26 53.5t50 21.5q28 0 46 -21.5t15 -53.5q-4 -32 -26.5 -53t-50.5 -21q-27 0 -45.5 21.5t-14.5 52.5z" />
<glyph unicode=";" horiz-adv-x="260" d="M36 -74l44 -12q105 122 116 209h-100q-4 -45 -25 -111q-20 -60 -35 -86zM104 442q3 31 26.5 52.5t51.5 21.5t46 -21t15 -53q-4 -31 -26 -51.5t-50 -20.5q-29 0 -48 21t-15 51z" />
<glyph unicode="&#x3c;" horiz-adv-x="374" d="M28 296l223 246l76 -3l-192 -247l192 -246l-75 -3z" />
<glyph unicode="=" horiz-adv-x="451" d="M52 138v67h346v-67h-346zM52 294v66h346v-66h-346z" />
<glyph unicode="&#x3e;" horiz-adv-x="373" d="M25 539l76 3l223 -246l-223 -253l-75 3l191 246z" />
<glyph unicode="?" horiz-adv-x="495" d="M61 553q74 144 212 144q85 0 133 -57q41 -52 33 -120q-8 -81 -84 -140q-28 -19 -54 -39q-30 -25 -42 -58q-8 -19 -17 -39q-2 -6 -2 -50h-71q-2 79 14 117q18 45 81 95q51 40 61 50q32 32 35 65q4 47 -22.5 75t-69.5 28q-96 0 -142 -107zM135 45q3 25 21.5 42t42.5 17 q26 0 41.5 -17t12.5 -42q-2 -25 -21.5 -41.5t-45.5 -16.5q-24 0 -38.5 16.5t-12.5 41.5z" />
<glyph unicode="@" horiz-adv-x="1034" d="M54 244q0 196 138 333.5t333 137.5q194 0 310.5 -122t116.5 -319q0 -109 -74 -192q-32 -36 -86 -64q-59 -31 -107 -30q-38 0 -60.5 29t-18.5 72q-77 -100 -172 -100q-157 0 -156 216q0 116 70 212q78 108 194 107q32 0 64 -11q42 -14 60 -41l3 42h74l-65 -418 q1 -12 12 -23t26 -12t50 19t52 40q27 29 45 78q18 45 19 76q0 167 -96 268.5t-261 101.5q-166 0 -283 -117t-117 -283q0 -169 106 -289q111 -122 274 -122q159 0 262 52q94 48 156 148l68 -44q-77 -129 -207 -183q-108 -44 -279 -44q-193 0 -323 144q-128 139 -128 338z M362 220q0 -68 13 -97q24 -57 95 -57q41 0 89.5 47.5t57.5 96.5l36 198q-13 26 -53 41q-32 12 -61 12q-46 0 -99 -44q-78 -67 -78 -197z" />
<glyph unicode="A" horiz-adv-x="581" d="M-5 0l289 670h82l150 -666l-88 -14l-40 193h-230l-80 -193zM186 254h189l-63 310z" />
<glyph unicode="B" horiz-adv-x="536" d="M30 2l69 654l170 3q1 0 15 1h13q76 0 117.5 -34.5t41.5 -99.5q0 -58 -18 -93q-16 -31 -39 -46t-70 -28q140 -31 140 -147q0 -11 -2 -24q-9 -90 -72 -140q-62 -49 -153 -48h-4zM128 69h96q142 0 155 120q1 8 1 15q0 42 -30 76q-34 38 -101 39h-94zM162 384l69 -1h4 q57 -1 94 29q39 30 44 82q1 8 1 16q0 89 -105 89q-14 0 -85 -3z" />
<glyph unicode="C" horiz-adv-x="551" d="M30 285q0 154 84 266q93 124 242 125q50 0 112 -22q48 -16 78 -34l-48 -81q-87 57 -145 57q-102 0 -168 -97q-52 -76 -62 -174q-2 -19 -2 -38q0 -94 47 -153.5t122 -59.5q87 0 169 44l33 -67q-68 -35 -104 -45q-46 -14 -105 -14q-126 0 -194 88q-59 79 -59 205z" />
<glyph unicode="D" horiz-adv-x="578" d="M30 2l69 657q71 3 150 4q154 0 225 -62q76 -63 76 -204q0 -31 -4 -66q-16 -158 -106 -244q-93 -89 -255 -89q-30 0 -76.5 2t-78.5 2zM129 76h92q97 0 160 77q56 67 66 166q4 37 5 69q0 209 -183 209q-30 0 -86 -2z" />
<glyph unicode="E" horiz-adv-x="500" d="M30 0l69 655h368l-8 -73h-277l-20 -198h258l-8 -77l-258 1l-25 -230l273 1l-8 -79h-364z" />
<glyph unicode="F" horiz-adv-x="501" d="M30 0l69 655h369l-8 -73h-278l-20 -198h260l-8 -77h-260l-33 -307h-91z" />
<glyph unicode="G" horiz-adv-x="595" d="M29 285q0 24 3 46q12 126 90 226q91 119 222 119q47 0 107 -17q66 -19 94 -45l-46 -76q-79 58 -154 58q-96 0 -161 -99q-50 -78 -60 -172q-2 -19 -2 -39q0 -92 44 -152t116 -60q73 0 135 31l21 203h-145l8 76h236l-34 -322q-67 -38 -108 -51q-52 -17 -119 -17 q-121 0 -187 89q-60 79 -60 202z" />
<glyph unicode="H" horiz-adv-x="595" d="M30 0l69 655h91l-28 -271h285l29 271h90l-69 -655h-90l32 307h-285l-33 -307h-91z" />
<glyph unicode="I" horiz-adv-x="220" d="M30 0l69 657h91l-69 -657h-91z" />
<glyph unicode="J" horiz-adv-x="220" d="M-189 -112l54 69q11 -14 31.5 -25t32.5 -11q100 0 116 141l63 591h91l-62 -582q-11 -102 -61 -163q-59 -71 -168 -71q-61 0 -97 51z" />
<glyph unicode="K" horiz-adv-x="543" d="M30 0l69 655h91l-34 -322q188 217 293 348l66 -51q-96 -105 -252 -287q34 -66 118 -179l123 -162l-111 -24q-78 120 -194 305l-56 -72l-22 -211h-91z" />
<glyph unicode="L" horiz-adv-x="513" d="M30 0l69 656h91l-61 -582h293l-8 -74h-384z" />
<glyph unicode="M" horiz-adv-x="812" d="M41 0l70 657h130l146 -527l264 527h120l-70 -657h-91l56 523l-254 -524h-85l-146 528l-56 -527h-84z" />
<glyph unicode="N" horiz-adv-x="595" d="M30 0l70 659h76l257 -465l49 461h84l-67 -644l-68 -22q-75 166 -265 486l-50 -474z" />
<glyph unicode="O" horiz-adv-x="659" d="M34 330q15 144 110 238t226 94q119 0 190 -79t71 -206q0 -24 -2 -47q-17 -164 -117 -258q-91 -88 -221 -88q-117 0 -187 72q-73 77 -73 212q0 32 3 62zM166.5 126q50.5 -64 132.5 -64q108 0 180 97q67 89 67 198q0 98 -49 162q-53 67 -138 67q-108 0 -179 -100 q-64 -88 -64 -198q0 -98 50.5 -162z" />
<glyph unicode="P" horiz-adv-x="470" d="M30 0l69 655l194 4h6q71 0 112 -43q43 -45 43 -118q0 -89 -60 -157q-62 -71 -150 -71q-39 0 -94 4l-29 -274h-91zM157 338l80 1q60 1 95 51q32 44 32 107q-1 102 -87 102h-3l-90 -2z" />
<glyph unicode="Q" horiz-adv-x="673" d="M36 331q15 144 110 237.5t227 93.5q119 0 189.5 -77.5t70.5 -203.5q0 -74 -25 -155q-29 -90 -73 -132l108 -105l-60 -61l-114 110q-82 -54 -176 -54q-116 0 -187 73q-73 77 -73 212q0 32 3 62zM167.5 127q49.5 -65 130.5 -65q56 0 113 33l-70 68l61 59l72 -69 q61 75 72 171q2 19 2 37q0 96 -49 159q-53 65 -138 65q-109 0 -179 -98q-64 -87 -64 -197q0 -98 49.5 -163z" />
<glyph unicode="R" horiz-adv-x="542" d="M30 0l69 656q207 3 208 3q160 -2 160 -146q0 -16 -2 -35q-9 -75 -63 -122q-46 -40 -112 -53q28 -46 95 -147q35 -53 119 -146l-116 -20q-47 53 -104 150q-37 62 -86 158l-45 -2l-32 -296h-91zM160 365h66q82 0 119.5 34t37.5 114q0 84 -105 84h-5l-89 -2z" />
<glyph unicode="S" horiz-adv-x="503" d="M14 75l55 65q53 -72 147 -72h3q54 0 91 28q41 33 47 91v10q0 59 -65 90q-69 30 -137 58q-76 44 -76 132q0 14 2 30q8 76 73 126q61 49 143 49q94 0 166 -62l-49 -65q-49 49 -125 49q-104 0 -116 -103v-8q0 -59 96 -93q99 -35 131 -60q47 -38 47 -115q0 -16 -2 -36 q-10 -100 -84 -153q-63 -46 -153 -46q-61 0 -115 23t-79 62z" />
<glyph unicode="T" d="M59 586l8 68h484l-7 -68h-191l-62 -586h-91l62 586h-203z" />
<glyph unicode="U" horiz-adv-x="584" d="M53 191q0 20 2 45l45 419h91l-45 -419q-2 -20 -2 -40q0 -136 114 -137q60 0 101 38q50 46 60 139l45 419h92l-45 -419q-13 -128 -95 -196q-71 -57 -168 -57q-84 0 -136 48q-58 54 -59 160z" />
<glyph unicode="V" horiz-adv-x="561" d="M76 645l89 24l106 -535l219 535l74 -24l-281 -655h-67z" />
<glyph unicode="W" horiz-adv-x="807" d="M49 641l91 19l82 -510l191 500h65l82 -499l193 509l67 -19l-250 -647h-53l-95 476l-196 -476h-64z" />
<glyph unicode="X" horiz-adv-x="565" d="M3 5l224 320l-144 316l95 19l111 -248l158 250l75 -21l-200 -299l173 -337l-100 -20l-129 284l-172 -284z" />
<glyph unicode="Y" horiz-adv-x="515" d="M62 642l84 24l117 -305l178 305l76 -24l-220 -363l-29 -279h-92l29 279z" />
<glyph unicode="Z" horiz-adv-x="557" d="M37 0l1 79l384 509l-312 -2l7 68h402v-73l-381 -503h325l-8 -78h-418z" />
<glyph unicode="[" horiz-adv-x="275" d="M11 -117l92 875h157l-5 -52h-73l-80 -751h83l-7 -72h-167z" />
<glyph unicode="\" horiz-adv-x="394" d="M58 703l83 18l211 -878l-84 -17z" />
<glyph unicode="]" horiz-adv-x="272" d="M5 -117l7 72h83l80 751h-74l5 52h155l-92 -875h-164z" />
<glyph unicode="^" d="M106 517l180 177l144 -177l-49 -53l-105 142l-133 -142z" />
<glyph unicode="_" d="M2 -112l6 61h538l-6 -61h-538z" />
<glyph unicode="`" horiz-adv-x="336" d="M59 662l56 66l204 -98l-55 -61z" />
<glyph unicode="a" horiz-adv-x="504" d="M31 202q0 131 81 224q84 97 213 97q33 0 68.5 -4.5t67.5 -4.5l-42 -370q-2 -16 -2 -36q0 -51 11 -108h-87l-2 122q-23 -38 -45 -77q-44 -56 -110 -56q-78 0 -119 70q-34 58 -34 143zM116 215q0 -149 91 -149h1q36 0 85 60.5t56 121.5l25 199q-45 8 -77 9q-87 0 -137 -77 q-44 -68 -44 -164z" />
<glyph unicode="b" horiz-adv-x="527" d="M28 0l76 717h81l-27 -258q76 65 133 65h2q93 0 145 -66q47 -59 47 -155q0 -18 -2 -38q-14 -134 -82 -207q-63 -68 -161 -68q-66 0 -126 51l-20 -41h-66zM121 111q15 -25 51 -39q33 -14 67 -15q130 0 152 205q2 19 2 41q0 151 -109 151q-93 0 -134 -74z" />
<glyph unicode="c" horiz-adv-x="490" d="M38 214q0 17 1 34q15 138 99 211q71 60 164 60h3q90 -1 156 -54l-50 -68q-36 29 -58 39q-29 13 -66 14q-69 0 -114 -63q-40 -56 -49 -143q-2 -15 -2 -30q0 -74 41 -117q37 -39 92 -39q74 0 143 57l34 -54q-83 -73 -185 -73q-119 0 -172 81q-37 58 -37 145z" />
<glyph unicode="d" horiz-adv-x="523" d="M26 211q0 123 62 212q71 101 188 101q72 0 115 -59l27 249h80l-76 -714h-68l-8 43q-89 -56 -148 -56q-83 0 -130 69q-42 61 -42 155zM118 222q0 -71 27 -113q30 -46 87 -47q62 0 121 47l30 280q-24 38 -47.5 51.5t-70.5 13.5q-76 0 -115 -82q-32 -66 -32 -150z" />
<glyph unicode="e" horiz-adv-x="495" d="M32 188q-1 12 -1 24q0 116 62 202q76 105 211 105q70 0 113 -33q48 -37 48 -108q0 -45 -42 -83q-37 -32 -83 -42q-105 -24 -171 -24q-24 0 -51 3q-1 -9 -2 -24q0 -8 1 -17q1 -30 15.5 -64.5t53.5 -53.5q33 -15 69 -16q58 0 142 66l34 -57q-92 -78 -191 -78 q-197 0 -208 200zM124 292h17q63 0 158 18q88 18 88 76q0 37 -22.5 51.5t-74.5 14.5q-83 0 -129 -69q-29 -43 -37 -91z" />
<glyph unicode="f" horiz-adv-x="331" d="M25 440l7 67h80l7 67q7 71 42 121q48 69 135 69q45 0 69 -10q7 -3 54 -35l-45 -52q-44 31 -84 31h-2q-35 0 -59 -31q-28 -35 -32 -96l-8 -64h143l-7 -67h-143l-68 -616h-78l68 616h-79z" />
<glyph unicode="g" horiz-adv-x="523" d="M12 -159l49 58q56 -82 158 -82q75 0 107 68q15 32 26 115l15 101q-55 -111 -127 -111h-1q-91 0 -144 62q-48 57 -48 148q0 27 5 54q17 101 72 171q73 92 190 92q49 0 75 -2.5t55 -2.5h50l-48 -449q-16 -159 -53 -222q-55 -96 -190 -96q-118 0 -191 96zM135 213 q0 -61 26 -103q31 -48 85 -49q42 0 88 57q38 47 41 75t31 251q-46 8 -92 9q-88 -1 -137 -80q-42 -67 -42 -160z" />
<glyph unicode="h" horiz-adv-x="524" d="M27 0l75 713h81l-27 -263q49 42 81.5 57.5t71.5 15.5q61 0 105 -42q46 -45 46 -113q0 -11 -1 -22l-37 -346h-80l36 333q1 11 1 21q0 50 -28 77q-23 23 -57 23q-46 0 -96.5 -37t-53.5 -69l-36 -348h-81z" />
<glyph unicode="i" horiz-adv-x="238" d="M34 0l54 507h83l-54 -507h-83zM97 673q2 24 20 39.5t42 15.5q22 0 36 -16q12 -14 12 -33v-6q-3 -25 -20.5 -41t-40.5 -16q-24 0 -38 16q-12 13 -12 33q0 4 1 8z" />
<glyph unicode="j" horiz-adv-x="238" d="M-55 -146l24 -77q58 22 96 47q60 42 68 109l17 159l44 415h-81l-56 -529q-4 -34 -8 -49q-10 -28 -29 -41q-32 -23 -75 -34zM123 674q2 24 20 39.5t40 15.5q24 0 39 -16q12 -13 12 -31q0 -4 -1 -8q-3 -24 -20.5 -40t-40.5 -16t-38 16q-12 13 -12 32q0 4 1 8z" />
<glyph unicode="k" horiz-adv-x="487" d="M28 0l75 714h81l-45 -431l250 251l65 -48l-226 -207l213 -261l-75 -44l-198 257l-38 -34l-21 -197h-81z" />
<glyph unicode="l" horiz-adv-x="239" d="M42 0l76 715h80l-76 -715h-80z" />
<glyph unicode="m" horiz-adv-x="794" d="M37 0l53 507h81l-7 -72q87 84 152 84q39 0 71 -25.5t45 -67.5q96 98 172 98q66 0 106 -53q31 -42 31 -93q0 -10 -1 -19l-38 -359h-80l37 354q1 10 1 19q0 80 -80 81q-29 0 -75 -33q-56 -39 -62 -91l-34 -330h-80l38 359q1 8 1 16q0 36 -20 56q-20 22 -55 22 q-42 0 -88.5 -38.5t-50.5 -75.5l-36 -339h-81z" />
<glyph unicode="n" horiz-adv-x="524" d="M37 0l53 507h81l-6 -57q50 42 83 57.5t73 15.5q59 0 102 -42q47 -46 47 -114q0 -10 -1 -21l-37 -346h-80l35 333q2 11 2 21q0 50 -28 77q-23 23 -57 23q-41 0 -90 -33q-55 -38 -60 -85l-36 -336h-81z" />
<glyph unicode="o" horiz-adv-x="559" d="M38 218q0 20 2 40q14 132 104 206q75 60 167 60q83 0 142 -52q68 -60 68 -171q0 -22 -2 -43q-9 -91 -64 -167q-76 -102 -202 -102q-121 0 -175 81q-40 57 -40 148zM126 218q0 -71 30 -114q35 -49 100 -49q87 0 136 79q41 67 41 159q0 71 -29 114q-33 49 -95 49 q-90 0 -140 -78q-43 -67 -43 -160z" />
<glyph unicode="p" horiz-adv-x="529" d="M26 -202l75 709h81l-5 -48q74 65 125 65h2q202 0 202 -201q0 -135 -60 -228q-70 -108 -200 -108q-65 0 -113 58l-27 -247h-80zM139 103q57 -48 119 -48q66 0 111 72q37 59 44 132q2 24 2 44q0 153 -120 153q-37 0 -75.5 -24t-51.5 -59z" />
<glyph unicode="q" horiz-adv-x="523" d="M46 216q0 23 3 47q10 103 64 173q67 88 182 88h3q32 0 67 -20q31 -17 45 -38l4 41h82l-76 -709h-82l28 257q-101 -68 -153 -68h-1q-76 0 -121 64t-45 165zM134 225q0 -70 33 -116.5t86 -46.5q54 0 119 47l27 265q-7 36 -36.5 59.5t-68.5 23.5q-80 0 -124 -80 q-36 -66 -36 -152z" />
<glyph unicode="r" horiz-adv-x="350" d="M37 0l54 507h81l-12 -103q84 114 140 114q17 0 55 -16l-32 -82q-42 12 -55 12q-34 -1 -78 -55q-39 -49 -40 -71l-32 -306h-81z" />
<glyph unicode="s" horiz-adv-x="447" d="M27 45l48 63q47 -51 131 -52q41 0 74 31q30 28 32 57v8q0 48 -71 70q-44 10 -119 39q-50 28 -50 89q0 8 1 16q8 80 66 122q49 38 117 38h3q70 -1 142 -47l-33 -64q-67 46 -119 46q-89 0 -97 -75q0 -4 -1 -7q0 -33 36 -48q71 -25 143 -48q69 -34 69 -103q0 -8 -1 -17 q-8 -86 -71 -134q-57 -43 -137 -43q-105 0 -163 59z" />
<glyph unicode="t" horiz-adv-x="359" d="M36 440l7 68h81l11 103h81l-11 -103h152l-7 -69l-152 1l-32 -304q-1 -7 -1 -14q0 -54 50 -54h2q32 0 85 46l34 -56q-65 -66 -150 -66q-44 0 -72.5 35t-28.5 95q0 13 1 26l31 292h-81z" />
<glyph unicode="u" horiz-adv-x="523" d="M54 137q0 13 2 27l36 343h81l-36 -339q-1 -12 -1 -24q0 -90 79 -90q48 0 99 38.5t55 75.5l35 339h80l-53 -507h-73l-6 53q-82 -71 -162 -71h-2q-55 0 -93 41q-41 43 -41 114z" />
<glyph unicode="v" horiz-adv-x="475" d="M48 490l83 23l97 -395l174 395l76 -23l-238 -502h-56z" />
<glyph unicode="w" horiz-adv-x="752" d="M53 490l81 21l71 -405l168 398h71l90 -396l150 403l73 -21l-210 -499h-63l-93 379l-175 -379h-64z" />
<glyph unicode="x" horiz-adv-x="503" d="M-4 22l210 230l-143 223l80 45l123 -203l171 202l60 -36l-197 -226l166 -237l-74 -47l-144 222l-189 -220z" />
<glyph unicode="y" horiz-adv-x="491" d="M-13 -182l33 72q26 -13 50 -14h1q47 0 89 61q3 5 50 90l-143 462l80 22l111 -379l176 378l71 -17l-276 -579q-22 -44 -66 -77q-51 -38 -108 -38q-15 0 -68 19z" />
<glyph unicode="z" horiz-adv-x="493" d="M28 0l7 68l266 310q24 27 58 62h-275l7 66h371l-7 -72l-258 -306q-13 -15 -53 -56h286l-7 -72h-395z" />
<glyph unicode="{" d="M115 327l5 41q44 40 57 59q28 37 33 82q2 25 4 72t4 67q23 206 185 206q26 0 74 -11l-22 -77q-41 13 -58 13q-46 0 -63 -21q-20 -28 -31 -118q-2 -27 -4.5 -73t-3.5 -61q-8 -74 -100 -150l-4 -25q30 -24 51 -65q26 -49 25 -102q0 -10 -1 -22q-2 -24 -12.5 -83.5 t-12.5 -82.5q-6 -60 -3 -75q7 -30 44 -30q45 0 72 21l13 -76q-65 -19 -97 -18q-74 4 -101 54q-22 38 -19 111q1 28 8 89q1 14 7.5 57t8.5 67q5 43 -14 87q-16 38 -45 64z" />
<glyph unicode="|" horiz-adv-x="234" d="M38 -225l98 927h90l-98 -927h-90z" />
<glyph unicode="}" d="M81 -184l29 76q24 -22 68 -21q51 0 59 63q2 13 5 42q2 24 4.5 84t4.5 82q6 59 45 116q32 47 69 73l3 25q-76 76 -68 150q1 13 13 97q9 59 10 98q0 49 -17 66q-13 12 -51 12q-16 0 -59 -13l-9 77q51 11 78 11q143 0 144 -161q0 -36 -10 -92q-12 -76 -14 -92q-5 -45 14 -82 q10 -19 45 -59l-3 -41q-82 -62 -92 -151q-2 -25 -4.5 -67t-3.5 -57q-6 -57 -11 -85q-9 -50 -25 -83q-38 -82 -132 -86q-32 -1 -92 18z" />
<glyph unicode="~" horiz-adv-x="404" d="M87 464q42 45 93 45q36 0 81 -35q18 -14 34 -14t35 20q8 7 18 18l11 -72q-41 -38 -79 -38q-25 0 -58 28t-51 28q-30 0 -73 -54z" />
<glyph unicode="&#xa1;" horiz-adv-x="240" d="M26 -105l65 618h86l-65 -618h-86zM96 665q2 25 21 41.5t44 16.5q26 0 40.5 -17t12.5 -41q-3 -25 -22 -42.5t-44 -17.5t-40 17.5t-12 42.5z" />
<glyph unicode="&#xa2;" horiz-adv-x="490" d="M36 213q0 18 2 35q13 121 80 192q56 61 140 76l9 88h91l-9 -87q63 -11 113 -52l-52 -70q-58 50 -123 50q-69 0 -113 -60q-40 -54 -49 -141q-2 -15 -2 -30q0 -74 41 -115q36 -37 91 -37q77 0 143 55l35 -56q-66 -58 -140 -70l-8 -82h-91l8 81q-93 14 -135 91 q-31 55 -31 132z" />
<glyph unicode="&#xa3;" horiz-adv-x="487" d="M42 55q15 4 41 14q6 2 18 13q39 34 45 93q7 67 0 133h-61l7 71h54q-5 92 -4 108q9 79 57 129q51 55 134 56q63 0 117 -33l-37 -62q-59 30 -81 29q-47 0 -79.5 -37.5t-37.5 -85.5q-2 -22 1 -52q2 -27 5 -52h139l-7 -71h-122q-1 -62 -7 -126q-8 -79 -42 -104q82 11 113 11 q70 0 130 -17l-25 -79q-52 14 -130 14q-135 0 -225 -21z" />
<glyph unicode="&#xa4;" horiz-adv-x="500" d="M31 246l6 77h102l5 47h-101l7 75h103l22 210h292l-8 -73h-201l-14 -137h182l-8 -76h-182l-6 -46h183l-7 -77h-183l-18 -168l197 1l-8 -79h-289l27 246h-101z" />
<glyph unicode="&#xa5;" horiz-adv-x="543" d="M69 656h92l106 -270l164 270h93l-221 -366l-2 -19h88l-6 -60h-88l-7 -61h88l-6 -61h-88l-10 -87h-91l9 87h-91l6 61h92l7 61h-91l6 60h91l2 19z" />
<glyph unicode="&#xa6;" horiz-adv-x="186" d="M55 -18v280h79v-280h-79zM55 391v281h79v-281h-79z" />
<glyph unicode="&#xa7;" horiz-adv-x="401" d="M33 -36l38 50q40 -46 101 -46q28 0 51 21q20 19 23 39q2 26 -18 40q-12 8 -43 16q-13 3 -38 10q-10 2 -17 6q-63 23 -57 87q7 61 57 94q-45 25 -39 78q6 58 49 91q38 29 87 27q54 -1 108 -36l-29 -51q-51 35 -86 35q-34 0 -48 -13.5t-17 -45.5q-2 -17 24 -30 q20 -6 64 -19q96 -29 88 -104q-7 -62 -52 -93q39 -25 33 -79q-6 -63 -52 -98q-41 -32 -99 -32q-79 0 -128 53zM136 194q-2 -23 51 -38q10 -3 31 -10q42 17 46 54q2 27 -18 40q-13 9 -52 19q-51 -6 -58 -65z" />
<glyph unicode="&#xa8;" horiz-adv-x="313" d="M-5 612q2 20 17.5 37t39.5 17t35.5 -16.5t9.5 -37.5q-2 -20 -17 -36.5t-40 -16.5q-24 0 -35.5 16.5t-9.5 36.5zM210 612q2 20 17 37t40 17q24 0 35.5 -17t9.5 -37t-17 -36.5t-40 -16.5t-36 16.5t-9 36.5z" />
<glyph unicode="&#xa9;" horiz-adv-x="815" d="M69 324q0 140 99 239.5t240 99.5q140 0 239 -99.5t99 -239.5t-99 -239.5t-239 -99.5t-239.5 99.5t-99.5 239.5zM135 324q0 -113 80 -193t193 -80t192.5 80t79.5 193t-80 192.5t-192 79.5q-113 0 -193 -79.5t-80 -192.5zM222 326q0 87 45 147q51 69 141 70q61 0 123 -36 l-24 -52q-60 37 -96 37q-66 0 -102 -63q-28 -49 -27 -112q0 -70 35.5 -115t88.5 -45q54 0 104 28l26 -43q-72 -38 -130 -38q-89 0 -140 69q-44 60 -44 153z" />
<glyph unicode="&#xab;" horiz-adv-x="399" d="M5 296l158 166l71 -3l-133 -166l133 -165l-71 -3zM151 296l156 166l73 -3l-134 -166l134 -165l-73 -3z" />
<glyph unicode="&#xac;" horiz-adv-x="627" d="M90 256v95h481v-322h-86v227h-395z" />
<glyph unicode="&#xad;" horiz-adv-x="509" d="M53 292v64h404v-64h-404z" />
<glyph unicode="&#xae;" horiz-adv-x="815" d="M69 324q0 140 99 239.5t240 99.5q140 0 239 -99.5t99 -239.5t-99 -239.5t-239 -99.5t-239.5 99.5t-99.5 239.5zM135 324q0 -113 80 -193t193 -80t192.5 80t79.5 193t-80 192.5t-192 79.5q-113 0 -192.5 -79.5t-79.5 -192.5h-1zM272 117v420q99 2 132 2q115 -1 114 -116 q-1 -93 -100 -112q35 -48 70 -95q25 -32 87 -92l-72 -13q-35 35 -78 96q-28 40 -65 100l-29 -1v-189h-59zM331 350h43q52 0 71.5 19.5t19.5 60.5q0 70 -77 69l-57 -1v-148z" />
<glyph unicode="&#xaf;" horiz-adv-x="415" d="M104 608l7 67h239l-6 -67h-240z" />
<glyph unicode="&#xb0;" horiz-adv-x="279" d="M5 596q6 55 49.5 94t101.5 39q57 0 91 -38.5t27 -94.5q-6 -56 -48 -94.5t-99 -38.5t-92.5 39t-29.5 94zM59 596q-4 -35 17 -58.5t57 -23.5q34 0 58.5 23.5t28.5 58.5t-15.5 58.5t-54.5 23.5t-61 -23.5t-30 -58.5z" />
<glyph unicode="&#xb1;" horiz-adv-x="513" d="M54 287v63h168v179h64v-179h171v-63h-171v-190h-64v189zM68 12v56h383v-56h-383z" />
<glyph unicode="&#xb4;" horiz-adv-x="336" d="M56 631l226 98l41 -66l-225 -93z" />
<glyph unicode="&#xb5;" horiz-adv-x="520" d="M33 -201l73 699h75l-37 -351q-10 -99 109 -99q40 0 78 37q37 34 40 68l37 346h81l-39 -380q-6 -49 7 -80q9 -24 20 -32q18 -12 26 -20l-71 -49q-63 39 -68 124l-72 -62q-30 -23 -64 -23q-30 0 -56 14q-30 14 -40 39l-24 -231h-75z" />
<glyph unicode="&#xb6;" horiz-adv-x="519" d="M51 505q0 84 40 120q37 33 120 32h93v-657h-71v345h-25q-158 0 -157 160zM377 0v657h70v-657h-70z" />
<glyph unicode="&#xb7;" horiz-adv-x="241" d="M62 423q4 34 27 57.5t50 23.5q29 0 46.5 -23.5t13.5 -57.5q-3 -34 -25.5 -57.5t-50.5 -23.5q-29 0 -46.5 23.5t-14.5 57.5z" />
<glyph unicode="&#xb8;" horiz-adv-x="209" d="M8 -175l41 35q27 -33 48 -33q37 0 41 35q4 40 -30 40q-14 0 -37 -16l-45 22l15 96l59 1l-10 -53q10 4 27 4q43 0 65 -30q20 -26 17 -61q-3 -36 -32 -62.5t-76 -26.5q-67 0 -83 49z" />
<glyph unicode="&#xbb;" horiz-adv-x="402" d="M2 128l134 165l-134 166l74 3l155 -166l-155 -171zM147 128l135 165l-135 166l73 3l157 -166l-157 -171z" />
<glyph unicode="&#xbf;" horiz-adv-x="470" d="M11 72q10 101 93 155q59 40 84 111q23 62 24 152h82q1 -14 1 -30q0 -78 -25 -149q-29 -82 -82.5 -124.5t-61.5 -50.5q-32 -32 -35 -65q-5 -47 22 -75t69 -28q96 0 143 106l65 -35q-75 -144 -212 -144q-85 0 -132 57q-42 52 -35 120zM208 639q2 25 21 41.5t45 16.5 q24 0 39 -16.5t13 -41.5q-3 -26 -21.5 -42.5t-43.5 -16.5t-40.5 17t-12.5 42z" />
<glyph unicode="&#xc0;" horiz-adv-x="593" d="M-9 0l288 670h82l150 -666l-88 -14l-40 193h-230l-79 -193zM181 254h189l-62 310zM199 795l55 66l205 -98l-56 -61z" />
<glyph unicode="&#xc1;" horiz-adv-x="581" d="M-9 0l288 670h82l150 -666l-88 -14l-40 193h-230l-79 -193zM181 254h189l-62 310zM196 764l225 98l41 -66l-224 -93z" />
<glyph unicode="&#xc2;" horiz-adv-x="581" d="M-9 0l288 670h82l150 -666l-88 -14l-40 193h-230l-79 -193zM176 672l7 72l153 116l133 -116l-7 -72l-136 95zM181 254h189l-62 310z" />
<glyph unicode="&#xc3;" horiz-adv-x="593" d="M-7 0l288 670h83l149 -666l-88 -14l-40 193h-230l-79 -193zM174 773q16 22 49 36q30 14 56 15q29 1 68.5 -34t60.5 -35q26 0 54 25l19 -61q-10 -11 -38.5 -22.5t-40.5 -11.5q-29 0 -71.5 35.5t-59.5 35.5q-40 0 -75 -43zM183 254h189l-62 310z" />
<glyph unicode="&#xc4;" horiz-adv-x="593" d="M-7 0l289 670h83l149 -666l-89 -14l-40 193h-230l-79 -193zM177 764q2 20 17.5 36t39.5 16t36 -16.5t10 -35.5q-2 -20 -17.5 -36.5t-39.5 -16.5q-26 0 -38 17q-10 14 -8 36zM184 254h189l-62 310zM392 764q2 20 17.5 36t40.5 16q24 0 35.5 -16.5t9.5 -35.5 q-2 -20 -17.5 -36.5t-39.5 -16.5q-26 0 -38 17q-10 14 -8 36z" />
<glyph unicode="&#xc5;" horiz-adv-x="593" d="M-10 0l288 670h82l150 -666l-88 -14l-40 193h-230l-79 -193zM180 254h189l-62 310zM245 792q4 38 32.5 63t69.5 25t64.5 -25.5t19.5 -62.5q-4 -39 -32.5 -64.5t-69.5 -25.5t-64.5 25.5t-19.5 64.5zM294 792q-5 -45 39 -46q44 0 49 46q4 44 -40 44t-48 -44z" />
<glyph unicode="&#xc6;" horiz-adv-x="882" d="M-5 0l289 670h82l98 -438l45 423h368l-9 -73h-276l-21 -198h258l-8 -77l-258 1l-24 -230l273 1l-8 -79h-379l-37 183h-230l-80 -193zM186 254h189l-63 310z" />
<glyph unicode="&#xc7;" horiz-adv-x="583" d="M47 284q0 154 84 266q92 125 243 126q50 0 111 -22q47 -16 77 -34l-48 -81q-87 57 -144 57q-102 0 -168 -97q-52 -76 -63 -174q-2 -19 -2 -38q0 -94 47.5 -153.5t121.5 -59.5q87 0 170 44l32 -67q-63 -32 -97 -43q-43 -14 -96 -16l-7 -40q9 4 26 4q43 0 66 -30 q19 -26 17 -61q-4 -36 -31 -62q-31 -27 -78 -27q-66 0 -83 49l41 35q26 -33 49 -33q36 0 39 35q4 40 -29 40q-14 0 -37 -16l-45 22l14 87q-104 13 -161 98q-49 76 -49 191z" />
<glyph unicode="&#xc8;" horiz-adv-x="500" d="M24 0l69 655h368l-7 -73h-277l-21 -198h258l-8 -77l-259 1l-24 -230l274 1l-9 -79h-364zM168 795l54 66l205 -98l-56 -61z" />
<glyph unicode="&#xc9;" horiz-adv-x="480" d="M24 0l69 655h368l-7 -73h-277l-21 -198h258l-8 -77l-259 1l-24 -230l274 1l-9 -79h-364zM164 764l226 98l41 -66l-226 -93z" />
<glyph unicode="&#xca;" horiz-adv-x="500" d="M24 0l69 655h368l-7 -73h-277l-21 -198h258l-8 -77l-259 1l-23 -230l273 1l-9 -79h-364zM142 672l9 72l153 116l133 -116l-8 -72l-135 95z" />
<glyph unicode="&#xcb;" horiz-adv-x="500" d="M27 0l68 655h368l-7 -73h-277l-21 -198h258l-8 -77l-257 1l-25 -230l273 1l-8 -79h-364zM146 766q2 20 17 36.5t40 16.5q24 0 35.5 -16.5t9.5 -36.5t-17.5 -36.5t-39.5 -16.5q-25 0 -36 16t-9 37zM360 766q2 20 17 36.5t40 16.5q24 0 36 -17t10 -36q-2 -20 -17 -36.5 t-40 -16.5t-36.5 16t-9.5 37z" />
<glyph unicode="&#xcc;" horiz-adv-x="220" d="M24 0l69 657h91l-69 -657h-91zM28 795l55 66l204 -98l-56 -61z" />
<glyph unicode="&#xcd;" horiz-adv-x="220" d="M24 0l69 657h91l-69 -657h-91zM24 764l226 98l41 -66l-225 -93z" />
<glyph unicode="&#xce;" horiz-adv-x="220" d="M3 672l8 72l153 116l133 -116l-8 -72l-135 95zM24 0l70 657h91l-70 -657h-91z" />
<glyph unicode="&#xcf;" horiz-adv-x="220" d="M-4 766q2 20 17 36.5t39 16.5t35.5 -16.5t9.5 -36.5t-17 -36.5t-39 -16.5q-25 0 -36 16t-9 37zM27 0l69 657h91l-69 -657h-91zM210 766q2 20 17 36.5t39 16.5t36 -17t10 -36q-2 -20 -17 -36.5t-40 -16.5t-36 16t-9 37z" />
<glyph unicode="&#xd0;" horiz-adv-x="578" d="M0 273l7 70h59l33 316q71 3 150 4q154 0 225 -62q76 -63 76 -204q0 -31 -4 -66q-16 -158 -106 -244q-93 -89 -255 -89q-30 0 -76.5 2t-78.5 2l28 271h-58zM129 76h92q97 0 160 77q56 68 66 166q4 37 5 69q0 209 -183 209q-30 0 -86 -2l-26 -252h69l-7 -70h-69z" />
<glyph unicode="&#xd1;" horiz-adv-x="583" d="M27 0l70 659h76l257 -465l49 461h84l-67 -644l-68 -22q-75 166 -265 486l-50 -474zM195 763q17 22 50 36q30 14 55 15q28 1 68 -34.5t60 -35.5q26 0 54 26l21 -61q-10 -11 -38.5 -22.5t-41.5 -11.5q-28 0 -71.5 35t-58.5 35q-41 0 -77 -43z" />
<glyph unicode="&#xd2;" horiz-adv-x="659" d="M25 272q0 28 3 58q15 144 110 238t227 94q119 0 190 -79t71 -206q0 -24 -3 -47q-17 -164 -116 -258q-91 -88 -221 -88q-117 0 -188 72q-74 78 -73 216zM111 285q0 -95 50.5 -159t132.5 -64q106 0 179 97q67 89 67 198q0 98 -50.5 163.5t-135.5 65.5q-109 0 -179 -100 q-65 -89 -64 -201zM244 795l54 66l205 -98l-56 -61z" />
<glyph unicode="&#xd3;" horiz-adv-x="659" d="M25 272q0 28 3 58q15 144 110 238t227 94q119 0 190 -79t71 -206q0 -24 -3 -47q-17 -164 -116 -258q-91 -88 -221 -88q-117 0 -188 72q-74 78 -73 216zM111 285q0 -95 50.5 -159t132.5 -64q106 0 179 97q67 89 67 198q0 98 -50.5 163.5t-135.5 65.5q-109 0 -180 -100 q-63 -89 -63 -201zM240 764l225 98l42 -66l-225 -93z" />
<glyph unicode="&#xd4;" horiz-adv-x="659" d="M25 272q0 28 3 58q15 144 109.5 238t226.5 94q119 0 190 -79t71 -206q0 -24 -2 -47q-17 -164 -116 -258q-92 -88 -222 -88q-117 0 -187 72q-74 78 -73 216zM110 285q0 -95 50.5 -159t132.5 -64q108 0 180 97q67 89 67 198q0 98 -50 162q-52 67 -137 67q-108 0 -179 -100 q-65 -89 -64 -201zM226 682l8 73l154 115l133 -115l-8 -73l-135 95z" />
<glyph unicode="&#xd5;" horiz-adv-x="663" d="M27 272q0 28 3 58q15 144 109.5 238t227.5 94q119 0 190 -79t71 -206q0 -24 -3 -47q-17 -164 -116 -258q-91 -88 -222 -88q-116 0 -187 72q-74 78 -73 216zM113 285q0 -95 50.5 -159t132.5 -64q106 0 179 97q67 89 67 198q0 98 -50.5 163.5t-135.5 65.5q-109 0 -180 -100 q-63 -89 -63 -201zM196 773q17 22 48 36t56 15q29 1 69 -34t60 -35q26 0 54 25l21 -61q-11 -11 -39 -22.5t-41 -11.5q-28 0 -71.5 35.5t-59.5 35.5q-40 0 -76 -43z" />
<glyph unicode="&#xd6;" horiz-adv-x="663" d="M27 272q0 28 4 58q15 144 110 238t226 94q119 0 190 -79t71 -206q0 -24 -2 -47q-17 -164 -116 -258q-92 -88 -222 -88q-117 0 -187 72q-75 78 -74 216zM113 285q0 -95 50.5 -159t132.5 -64q106 0 179 97q68 89 68 198q0 98 -51 163.5t-136 65.5q-109 0 -179 -100 q-65 -89 -64 -201zM222 766q2 20 17 36.5t40 16.5q24 0 36 -17t10 -36q-2 -20 -18 -36.5t-40 -16.5q-25 0 -36 16t-9 37zM437 766q2 20 17 36.5t40 16.5q24 0 36 -17t10 -36q-2 -20 -18 -36.5t-40 -16.5q-25 0 -36 16t-9 37z" />
<glyph unicode="&#xd8;" horiz-adv-x="659" d="M32 272q0 28 3 58q15 144 110 238t226 94q32 0 58 -7l18 43l77 -24l-19 -47q127 -73 127 -251q0 -23 -2 -46q-17 -164 -117 -258q-91 -88 -221 -88q-29 0 -50 4l-24 -59l-77 25l24 58q-133 70 -133 260zM117 286q0 -130 82 -191l200 487q-16 4 -39 4q-108 0 -179 -100 q-65 -89 -64 -200zM273 65l27 -3q106 0 179 97q68 89 68 198q0 124 -75 189z" />
<glyph unicode="&#xd9;" horiz-adv-x="584" d="M47 191q0 20 3 45l44 419h91l-44 -419q-2 -20 -2 -40q0 -136 114 -137q59 0 101 38q49 46 60 139l44 419h92l-44 -419q-14 -128 -96 -196q-70 -57 -167 -57q-85 0 -137 48q-59 54 -59 160zM201 795l54 66l205 -98l-56 -61z" />
<glyph unicode="&#xda;" horiz-adv-x="584" d="M47 191q0 20 3 45l44 419h91l-44 -419q-3 -20 -3 -40q0 -136 115 -137q59 0 100 38q50 46 61 139l44 419h92l-44 -419q-14 -128 -96 -196q-70 -57 -168 -57q-84 0 -136 48q-59 54 -59 160zM197 764l226 98l41 -66l-225 -93z" />
<glyph unicode="&#xdb;" horiz-adv-x="584" d="M47 191q0 20 2 45l45 419h91l-45 -419q-2 -20 -2 -40q0 -136 115 -137q59 0 100 38q50 46 60 139l45 419h92l-45 -419q-13 -128 -96 -196q-70 -57 -167 -57q-85 0 -137 48q-58 54 -58 160zM175 682l8 73l154 115l133 -115l-8 -73l-135 95z" />
<glyph unicode="&#xdc;" horiz-adv-x="533" d="M49 191q0 20 3 45l44 419h91l-44 -419q-2 -20 -2 -40q0 -136 115 -137q59 0 100 38q49 46 60 139l44 419h92l-44 -419q-13 -128 -96 -196q-70 -57 -167 -57q-85 0 -136 48q-59 54 -60 160zM169 766q2 20 17 36.5t39 16.5t35.5 -16.5t9.5 -36.5t-17 -36.5t-39 -16.5 q-25 0 -36 16t-9 37zM383 766q2 20 17 36.5t39 16.5t36 -17t10 -36q-2 -20 -17.5 -36.5t-39.5 -16.5q-25 0 -36 16t-9 37z" />
<glyph unicode="&#xdd;" horiz-adv-x="515" d="M60 642l84 24l117 -305l178 305l76 -24l-220 -363l-29 -279h-91l29 279zM182 702l226 99l42 -67l-227 -92z" />
<glyph unicode="&#xde;" horiz-adv-x="556" d="M17 -111l88 828h86l-10 -100q56 75 144 75q95 0 147 -70q48 -65 48 -163q0 -18 -2 -37q-14 -143 -87 -213q-64 -61 -162 -61q-23 0 -44 4q-40 6 -89 42l-33 -305h-86zM145 280q32 -61 126 -62q80 0 124 77q36 63 36 150q0 71 -30 116q-34 52 -104 52q-81 0 -125 -75z" />
<glyph unicode="&#xdf;" horiz-adv-x="562" d="M16 0l58 542q20 190 226 190q85 0 133.5 -42.5t48.5 -116.5q0 -20 -4 -39q-7 -41 -46 -96q-45 16 -96 20q-33 2 -58.5 -19.5t-28.5 -54.5q-3 -25 23 -42q18 -11 68 -28q67 -22 79 -26q45 -20 61 -49q18 -35 13 -92q-7 -67 -64.5 -114.5t-126.5 -47.5q-63 0 -102 14 q-44 17 -78 60l50 67q26 -42 57 -55q25 -10 76 -11q39 0 69 24t35 57q5 53 -72 80l-80 26q-46 17 -67 41q-27 31 -21 81q9 87 68 127q44 31 107 30q20 0 40 -3q8 10 16 28q0 7 1 27q4 38 -32 62.5t-81 24.5q-54 0 -89 -30q-39 -33 -45 -93l-58 -542h-80z" />
<glyph unicode="&#xe0;" horiz-adv-x="502" d="M31 202q0 131 81 224q84 97 213 97q33 0 68.5 -4.5t67.5 -4.5l-42 -370q-2 -16 -2 -36q0 -51 11 -108h-87l-2 122q-23 -38 -45 -77q-44 -56 -110 -56q-78 0 -119 70q-34 58 -34 143zM116 215q0 -150 92 -149q36 0 85 60.5t56 121.5l25 199q-45 8 -77 9q-87 0 -137 -77 q-44 -68 -44 -164zM217 662l58 66l200 -98l-59 -61z" />
<glyph unicode="&#xe1;" horiz-adv-x="502" d="M31 202q0 131 81 224q84 97 213 97q33 0 68.5 -4.5t67.5 -4.5l-42 -370q-2 -16 -2 -36q0 -51 11 -108h-87l-2 122q-23 -38 -45 -77q-44 -56 -110 -56q-78 0 -119 70q-34 58 -34 143zM116 215q0 -150 92 -149q36 0 85 60.5t56 121.5l25 199q-45 8 -77 9q-87 0 -137 -77 q-44 -68 -44 -164zM233 631l231 98l37 -66l-230 -93z" />
<glyph unicode="&#xe2;" horiz-adv-x="502" d="M31 202q0 131 81 224q84 97 213 97q33 0 68.5 -4.5t67.5 -4.5l-42 -370q-2 -16 -2 -36q0 -51 11 -108h-87l-2 122q-23 -38 -45 -77q-44 -56 -110 -56q-78 0 -119 70q-34 58 -34 143zM116 215q0 -150 92 -149q36 0 85 60.5t56 121.5l25 199q-45 8 -77 9q-87 0 -137 -77 q-44 -68 -44 -164zM167 539l11 72l159 116l128 -116l-12 -72l-130 95z" />
<glyph unicode="&#xe3;" horiz-adv-x="537" d="M31 202q0 131 81 224q84 97 213 97q33 0 68.5 -4.5t67.5 -4.5l-42 -370q-2 -16 -2 -36q0 -51 11 -108h-87l-2 122q-23 -38 -45 -77q-44 -56 -110 -56q-78 0 -119 70q-34 58 -34 143zM116 215q0 -150 92 -149q36 0 85 60.5t56 121.5l25 199q-45 8 -77 9q-87 0 -137 -77 q-44 -68 -44 -164zM166 650q18 22 50 36t57 15q29 1 67 -34t58 -35q25 0 56 25l17 -61q-11 -11 -40 -22.5t-41 -11.5q-29 0 -70.5 35.5t-57.5 35.5q-40 0 -79 -43z" />
<glyph unicode="&#xe4;" horiz-adv-x="502" d="M31 202q0 131 81 224q84 97 213 97q33 0 68.5 -4.5t67.5 -4.5l-42 -370q-2 -16 -2 -36q0 -51 11 -108h-87l-2 122q-23 -38 -45 -77q-44 -56 -110 -56q-78 0 -119 70q-34 58 -34 143zM116 215q0 -150 92 -149q36 0 85 60.5t56 121.5l25 199q-45 8 -77 9q-87 0 -137 -77 q-44 -68 -44 -164zM176 612q3 20 19 37t41 17t35.5 -17t7.5 -37t-19.5 -36.5t-40.5 -16.5q-25 0 -35.5 16.5t-7.5 36.5zM391 612q3 20 19 37t41 17q24 0 35 -17t8 -37t-19.5 -36.5t-40.5 -16.5q-25 0 -35.5 16.5t-7.5 36.5z" />
<glyph unicode="&#xe5;" horiz-adv-x="502" d="M31 202q0 131 81 224q84 97 213 97q33 0 68.5 -4.5t67.5 -4.5l-42 -370q-2 -16 -2 -36q0 -51 11 -108h-87l-2 122q-23 -38 -45 -77q-44 -56 -110 -56q-78 0 -119 70q-34 58 -34 143zM116 215q0 -150 92 -149q36 0 85 60.5t56 121.5l25 199q-45 8 -77 9q-87 0 -137 -77 q-44 -68 -44 -164zM173 652q0 44 31.5 74.5t76.5 30.5q37 0 58 -20.5t21 -52.5q0 -44 -31.5 -74t-75.5 -30q-37 0 -58.5 20t-21.5 52zM223 669q-7 -45 37 -45q43 0 50 45q7 44 -37 44q-43 0 -50 -44z" />
<glyph unicode="&#xe6;" horiz-adv-x="793" d="M28 110q0 10 1 20q9 83 63 120q34 24 128 45q58 13 113 18l7 62q3 34 -20.5 55.5t-59.5 21.5q-56 0 -142 -66l-36 57q36 30 98 57q58 25 88 24q105 0 141 -85q75 80 190 80q68 0 115 -50q48 -53 48 -135q0 -14 -2 -29l-6 -62h-348q-4 -41 -4 -60q2 -24 17 -55 q15 -35 60 -55q37 -15 75 -16q60 0 140 66l36 -57q-92 -78 -192 -78q-127 0 -179 87l-43 -37q-18 -12 -57 -34q-47 -20 -104 -20q-55 0 -91 33t-36 93zM102 129q-4 -34 13 -55q17 -26 58 -26q40 0 84 22q53 26 57 65l11 104q-13 0 -81.5 -12t-90.5 -23q-44 -23 -51 -75z M420 307h260l3 33q11 112 -99 112q-75 0 -110 -37q-28 -27 -54 -108z" />
<glyph unicode="&#xe7;" horiz-adv-x="494" d="M43 193q-7 128 62 223q77 104 208 103q89 0 154 -54l-50 -68q-61 52 -123 53q-82 0 -130 -90q-40 -76 -36 -161q3 -67 43 -106q36 -35 88 -35q74 0 142 57l35 -54q-85 -74 -185 -73h-2l-9 -36q9 4 25 4q38 0 61 -24q18 -22 18 -52q0 -46 -34.5 -75t-80.5 -29 q-66 0 -79 49l43 35q24 -33 46 -33q38 0 43 35q6 40 -28 40q-15 0 -39 -16l-43 22l19 86q-139 31 -148 199z" />
<glyph unicode="&#xe8;" horiz-adv-x="508" d="M32 188q-7 131 61 226q76 105 211 105q70 0 113 -33q48 -37 48 -108q0 -45 -42 -83q-37 -32 -83 -42q-105 -24 -171 -24q-24 0 -51 3q-2 -14 -1 -41q1 -30 15.5 -64.5t53.5 -53.5q33 -15 69 -16q58 0 142 66l34 -57q-92 -78 -191 -78q-197 0 -208 200zM124 292 q67 -3 175 18q89 18 88 77q0 36 -22.5 50.5t-74.5 14.5q-83 0 -129 -69q-29 -43 -37 -91zM228 662l59 66l199 -98l-58 -61z" />
<glyph unicode="&#xe9;" horiz-adv-x="508" d="M32 188q-7 131 61 226q76 105 211 105q70 0 113 -33q48 -37 48 -108q0 -45 -42 -83q-37 -32 -83 -42q-105 -24 -171 -24q-24 0 -51 3q-2 -14 -1 -41q1 -30 15.5 -64.5t53.5 -53.5q33 -15 69 -16q58 0 142 66l34 -57q-92 -78 -191 -78q-197 0 -208 200zM124 292 q67 -3 175 18q89 18 88 77q0 36 -22.5 50.5t-74.5 14.5q-83 0 -129 -69q-29 -43 -37 -91zM244 631l230 98l38 -66l-230 -93z" />
<glyph unicode="&#xea;" horiz-adv-x="508" d="M32 188q-7 131 61 226q76 105 211 105q70 0 113 -33q48 -37 48 -108q0 -45 -42 -83q-37 -32 -83 -42q-105 -24 -171 -24q-24 0 -51 3q-2 -14 -1 -41q1 -30 15.5 -64.5t53.5 -53.5q33 -15 69 -16q58 0 142 66l34 -57q-92 -78 -191 -78q-197 0 -208 200zM124 292 q67 -3 175 18q89 18 88 77q0 36 -22.5 50.5t-74.5 14.5q-83 0 -129 -69q-29 -43 -37 -91zM189 539l12 72l158 116l128 -116l-12 -72l-130 95z" />
<glyph unicode="&#xeb;" horiz-adv-x="508" d="M32 188q-7 131 61 226q76 105 211 105q70 0 113 -33q48 -37 48 -108q0 -45 -42 -83q-37 -32 -83 -42q-105 -24 -171 -24q-24 0 -51 3q-2 -14 -1 -41q1 -30 15.5 -64.5t53.5 -53.5q33 -15 69 -16q58 0 142 66l34 -57q-92 -78 -191 -78q-197 0 -208 200zM124 292 q67 -3 175 18q89 18 88 77q0 36 -22.5 50.5t-74.5 14.5q-83 0 -129 -69q-29 -43 -37 -91zM198 612q3 20 18.5 37t40.5 17t35.5 -17t7.5 -37t-19 -36.5t-40 -16.5q-25 0 -35.5 16.5t-7.5 36.5zM413 612q3 20 18.5 37t40.5 17q24 0 35 -17t8 -37t-19 -36.5t-40 -16.5 q-25 0 -35.5 16.5t-7.5 36.5z" />
<glyph unicode="&#xec;" horiz-adv-x="254" d="M32 662l54 66l205 -98l-57 -61zM40 0l54 507h82l-54 -507h-82z" />
<glyph unicode="&#xed;" horiz-adv-x="239" d="M29 631l225 98l41 -66l-226 -93zM40 0l54 507h82l-54 -507h-82z" />
<glyph unicode="&#xee;" horiz-adv-x="215" d="M-4 539l8 72l153 116l133 -116l-8 -72l-136 95zM40 0l54 507h82l-54 -507h-82z" />
<glyph unicode="&#xef;" horiz-adv-x="211" d="M-15 612q2 20 16.5 37t38.5 17q25 0 36.5 -16.5t9.5 -37.5q-2 -20 -17 -36.5t-40 -16.5q-24 0 -35 16.5t-9 36.5zM44 0l53 507h82l-53 -507h-82zM199 612q2 20 16.5 37t39.5 17q24 0 36 -17t10 -37t-17 -36.5t-40 -16.5t-36 16.5t-9 36.5z" />
<glyph unicode="&#xf0;" horiz-adv-x="576" d="M18 216q0 16 2 33q14 139 99 210q73 61 182 61q79 0 118 -45q-7 30 -35 82h-146l7 71h96q-41 55 -61 74l73 47q47 -51 88 -121h140l-9 -71h-96q51 -117 51 -212q0 -16 -1 -32q-18 -151 -87 -234q-79 -96 -217 -96q-97 0 -153 72q-50 66 -51 161zM110 230q0 -72 33 -117 q36 -49 99 -50q82 0 135 61q50 55 59 144q5 54 2 99q-50 84 -145 84q-73 0 -122 -49.5t-59 -139.5q-2 -16 -2 -32z" />
<glyph unicode="&#xf1;" horiz-adv-x="497" d="M33 0l53 507h81l-6 -57q50 42 82.5 57.5t72.5 15.5q59 0 104 -42q47 -46 47 -114q0 -10 -1 -21l-37 -346h-81l35 333q1 11 1 21q0 50 -27 77q-24 23 -57 23q-42 0 -91 -33q-55 -38 -61 -85l-34 -336h-81zM135 650q16 22 49 36q30 14 55 15q29 1 69 -34t61 -35q24 0 54 25 l19 -61q-11 -11 -38.5 -22.5t-39.5 -11.5q-29 0 -72.5 35.5t-60.5 35.5q-40 0 -75 -43z" />
<glyph unicode="&#xf2;" horiz-adv-x="556" d="M33 219q0 19 2 39q13 132 104 206q75 60 167 60q83 0 141 -52q70 -61 70 -174q0 -19 -2 -40q-10 -91 -65 -167q-76 -102 -202 -102q-122 0 -176 81q-39 58 -39 149zM120 218q0 -71 31 -114q34 -49 100 -49q86 0 135 79q41 67 41 159q0 71 -29 114q-33 49 -95 49 q-89 0 -140 -78q-43 -67 -43 -160zM214 662l55 66l205 -98l-55 -61z" />
<glyph unicode="&#xf3;" horiz-adv-x="556" d="M33 219q0 19 2 39q13 132 104 206q75 60 167 60q82 0 141 -52q70 -61 70 -174q0 -19 -2 -40q-10 -91 -65 -167q-76 -102 -202 -102q-122 0 -176 81q-39 58 -39 149zM120 218q0 -71 31 -114q34 -49 100 -49q86 0 135 79q41 67 41 159q0 71 -29 114q-33 49 -95 49 q-89 0 -140 -78q-43 -67 -43 -160zM211 631l225 98l41 -66l-224 -93z" />
<glyph unicode="&#xf4;" horiz-adv-x="556" d="M33 219q0 19 2 39q13 132 104 206q75 60 167 60q83 0 141 -52q70 -61 70 -174q0 -19 -2 -40q-10 -91 -65 -167q-76 -102 -202 -102q-122 0 -176 81q-39 58 -39 149zM120 218q0 -71 31 -114q34 -49 100 -49q86 0 135 79q41 67 41 159q0 71 -29 114q-32 49 -95 49 q-89 0 -140 -78q-43 -67 -43 -160zM169 539l7 72l153 116l133 -116l-7 -72l-136 95z" />
<glyph unicode="&#xf5;" horiz-adv-x="556" d="M34 219q0 19 2 39q14 132 104 206q75 60 168 60q82 0 141 -52q70 -61 69 -174q0 -19 -2 -40q-9 -91 -65 -167q-75 -102 -202 -102q-121 0 -175 81q-40 58 -40 149zM122 218q0 -71 30 -114q35 -49 100 -49q87 0 135 79q42 67 42 159q0 71 -29 114q-33 49 -96 49 q-89 0 -139 -78q-43 -67 -43 -160zM168 650q16 22 49 36q30 14 55 15q28 1 68.5 -34t60.5 -35q26 0 54 25l20 -61q-10 -11 -38.5 -22.5t-41.5 -11.5q-28 0 -71 35.5t-59 35.5q-40 0 -77 -43z" />
<glyph unicode="&#xf6;" horiz-adv-x="556" d="M36 219q0 19 2 39q13 132 104 206q75 60 167 60q83 0 142 -52q70 -61 69 -174q0 -19 -2 -40q-10 -91 -65 -167q-76 -102 -202 -102q-121 0 -176 81q-39 58 -39 149zM123 218q0 -71 31 -114q34 -49 100 -49q87 0 135 79q42 67 42 159q0 71 -29 114q-33 49 -96 49 q-89 0 -139 -78q-44 -67 -44 -160zM161 612q2 20 17 37t39 17t35.5 -16.5t9.5 -37.5q-3 -20 -16 -35q-16 -18 -40 -18q-25 0 -36.5 16.5t-8.5 36.5zM375 612q2 20 17 37t39 17t36 -17t10 -37q-3 -20 -18 -36.5t-39 -16.5q-25 0 -36.5 16.5t-8.5 36.5z" />
<glyph unicode="&#xf7;" horiz-adv-x="507" d="M54 282v71h403v-71h-403zM209 163q0 29 18 48t43 19q26 0 44 -19.5t18 -47.5q0 -29 -18 -48.5t-44 -19.5t-43.5 19.5t-17.5 48.5zM209 474q0 29 18 48.5t43 19.5q26 0 44 -19.5t18 -48.5t-18 -48t-44 -19t-43.5 19t-17.5 48z" />
<glyph unicode="&#xf8;" horiz-adv-x="559" d="M38 218q0 20 2 40q13 132 104 206q75 60 166 60q10 0 29 -2l29 70l77 -25l-28 -69q104 -58 104 -199q0 -20 -2 -41q-10 -91 -65 -167q-75 -102 -201 -102q-25 0 -44 3l-26 -63l-78 25l27 63q-94 56 -94 201zM125 218q0 -80 39 -124l147 362h-3q-89 0 -139 -78 q-44 -67 -44 -160zM236 56q6 -1 20 -1q87 0 135 79q42 68 42 159t-46 133z" />
<glyph unicode="&#xf9;" horiz-adv-x="493" d="M48 137q0 13 1 27l37 343h81l-36 -339q-2 -12 -2 -24q0 -90 80 -90q48 0 98.5 38.5t54.5 75.5l36 339h80l-54 -507h-73q-1 14 -4 53q-85 -72 -166 -71q-55 0 -92 41q-41 43 -41 114zM183 662l55 66l204 -98l-56 -61z" />
<glyph unicode="&#xfa;" horiz-adv-x="493" d="M48 137q0 13 1 27l37 343h81l-36 -339q-2 -12 -2 -24q0 -90 80 -90q48 0 98.5 38.5t54.5 75.5l36 339h80l-54 -507h-73q-1 14 -4 53q-85 -72 -166 -71q-55 0 -94 42t-39 113zM169 631l225 98l41 -66l-225 -93z" />
<glyph unicode="&#xfb;" horiz-adv-x="493" d="M48 137q0 13 1 27l37 343h81l-36 -339q-2 -12 -2 -24q0 -90 80 -90q48 0 98.5 38.5t54.5 75.5l36 339h80l-54 -507h-73q-1 14 -4 53q-85 -72 -166 -71q-54 0 -92 41q-41 43 -41 114zM147 539l9 72l152 116l133 -116l-8 -72l-135 95z" />
<glyph unicode="&#xfc;" horiz-adv-x="493" d="M51 137q0 13 1 27l37 343h81l-36 -339q-1 -12 -1 -24q0 -90 79 -90q48 0 98.5 38.5t55.5 75.5l35 339h80l-53 -507h-73q-2 14 -5 53q-85 -72 -165 -71q-55 0 -93 41q-41 43 -41 114zM139 612q2 20 17 37t40 17q24 0 35.5 -16.5t9.5 -37.5q-2 -20 -17.5 -36.5t-39.5 -16.5 q-25 0 -36 16.5t-9 36.5zM353 612q2 20 17 37t40 17q24 0 36 -17t10 -37t-17.5 -36.5t-40.5 -16.5t-36 16.5t-9 36.5z" />
<glyph unicode="&#xfd;" horiz-adv-x="491" d="M-13 -182l33 72q26 -13 50 -14q47 -1 90 61q3 5 50 90l-143 462l80 22l111 -379l176 378l71 -17l-276 -579q-22 -44 -66 -77q-51 -38 -108 -38q-15 0 -68 19zM163 646l226 98l41 -66l-225 -93z" />
<glyph unicode="&#xfe;" horiz-adv-x="534" d="M13 -200l97 901h85l-30 -272q66 83 161 83q90 0 138 -59q45 -55 45 -147q0 -17 -2 -36q-14 -145 -89 -218q-66 -62 -167 -62q-41 0 -67 13l-57 39l-26 -242h-88zM134 99q13 -20 55 -31q35 -10 69 -11q80 0 125 82q37 68 37 155q0 146 -116 146q-41 0 -81 -25t-63 -66z " />
<glyph unicode="&#xff;" horiz-adv-x="478" d="M-16 -182l33 72q26 -13 50 -14q47 -1 93 69q27 49 52 98l-147 446l79 22l117 -363l171 362l70 -17l-276 -579q-22 -44 -66 -77q-51 -38 -107 -38q-16 0 -69 19zM126 612q2 20 17.5 37t39.5 17t35 -16.5t9 -37.5q-2 -20 -16.5 -36.5t-38.5 -16.5q-26 0 -37 16.5t-9 36.5z M340 612q2 20 17.5 37t39.5 17t35.5 -17t9.5 -37t-17 -36.5t-39 -16.5q-26 0 -37 16.5t-9 36.5z" />
<glyph unicode="&#x131;" horiz-adv-x="238" d="M46 0l53 507h83l-53 -507h-83z" />
<glyph unicode="&#x141;" horiz-adv-x="513" d="M-1 263l9 80l61 22l30 291h91l-27 -257l73 26l-9 -80l-72 -26l-26 -245h293l-8 -74h-384l29 285z" />
<glyph unicode="&#x142;" horiz-adv-x="288" d="M11 292l9 80l69 32l27 253h90l-22 -206l82 39l-8 -79l-84 -40l-38 -371h-90l34 325z" />
<glyph unicode="&#x152;" horiz-adv-x="1052" d="M41 291q0 29 3 58q15 143 109 233.5t226 90.5q190 0 258 -213l21 205h364l-8 -74h-272l-20 -198h261l-8 -77h-264l-24 -230h274l-10 -86h-363l24 228q-116 -231 -311 -231q-116 0 -186 76q-74 79 -74 218zM128 303q0 -97 50 -161.5t131 -64.5q106 0 179 99q66 91 66 201 q0 96 -48 155q-51 63 -136 63q-110 0 -180 -94q-62 -86 -62 -198z" />
<glyph unicode="&#x153;" horiz-adv-x="953" d="M38 218q0 20 2 40q14 132 104 206q75 60 167 60q70 0 125 -39q63 -45 80 -129q32 75 95 119t148 44q71 0 115 -42q50 -45 51 -124q0 -13 -2 -27l-7 -63h-337q-9 -87 11 -135q14 -36 55 -55q32 -15 68 -16q60 0 141 66l35 -57q-90 -78 -191 -78q-180 0 -205 169 q-75 -168 -240 -168q-121 0 -175 81q-40 57 -40 148zM126 218q0 -71 30 -114q35 -49 100 -49q87 0 136 79q41 67 41 159q0 71 -29 114q-33 49 -95 49q-90 0 -140 -78q-43 -67 -43 -160zM592 328h250l2 12q11 112 -100 112q-52 0 -84 -22q-43 -30 -68 -102z" />
<glyph unicode="&#x160;" horiz-adv-x="503" d="M14 75l55 65q54 -73 150 -72q54 0 91 28q41 33 47 91q6 66 -65 100q-69 30 -137 58q-76 44 -76 132q0 14 2 30q8 76 73 126q61 49 143 49q94 0 166 -62l-49 -65q-49 49 -125 49q-104 0 -116 -103q-7 -65 96 -101q99 -35 131 -60q47 -38 47 -115q0 -16 -2 -36 q-10 -100 -84 -153q-63 -46 -153 -46q-61 0 -115 23t-79 62zM189 808l8 73l136 -95l151 95l-8 -73l-153 -115z" />
<glyph unicode="&#x161;" horiz-adv-x="447" d="M27 45l48 63q47 -51 131 -52q41 0 74 31q30 28 32 57q6 54 -71 78q-44 10 -119 39q-56 31 -49 105q8 80 66 122q50 39 120 38t142 -47l-33 -64q-67 46 -119 46q-89 0 -97 -75q-4 -39 35 -55q71 -25 143 -48q77 -38 68 -120q-8 -86 -71 -134q-57 -43 -137 -43 q-105 0 -163 59zM131 654l8 73l136 -95l151 95l-8 -73l-153 -115z" />
<glyph unicode="&#x178;" horiz-adv-x="493" d="M59 642l84 24l117 -305l178 305l76 -24l-220 -363l-29 -279h-91l29 279zM157 766q2 20 16.5 36.5t39.5 16.5q24 0 36 -17t10 -36q-2 -20 -17 -36.5t-40 -16.5t-36 16t-9 37zM372 766q2 20 16.5 36.5t39.5 16.5q24 0 36 -17t10 -36q-2 -20 -17 -36.5t-40 -16.5t-36 16 t-9 37z" />
<glyph unicode="&#x17d;" horiz-adv-x="557" d="M32 0v79l385 509l-314 -2l8 68h402v-73l-381 -503h325l-8 -78h-417zM229 798l8 72l136 -95l150 95l-7 -72l-152 -116z" />
<glyph unicode="&#x17e;" horiz-adv-x="493" d="M20 0l8 68l267 310q17 20 58 62h-275l7 66h371l-9 -72l-257 -306q-13 -15 -52 -56h286l-8 -72h-396zM199 654l8 73l136 -95l151 95l-9 -73l-152 -115z" />
<glyph unicode="&#x192;" horiz-adv-x="369" d="M9 -126l112 558l-82 -1l13 68l81 1l8 42q14 71 52 118q52 67 138 68q45 0 68 -10q8 -4 53 -36l-50 -57q-45 32 -85 31q-77 0 -97 -113l-1 -4q-6 -31 -6 -38h140l-13 -67h-138l-113 -559z" />
<glyph unicode="&#x2c6;" horiz-adv-x="345" d="M26 539l8 72l153 116l134 -116l-9 -72l-135 95z" />
<glyph unicode="&#x2c7;" horiz-adv-x="345" d="M38 654l8 73l136 -95l151 95l-8 -73l-153 -115z" />
<glyph unicode="&#x2d8;" horiz-adv-x="353" d="M37 658l51 8q20 -65 85 -65q60 0 94 65l48 -8q-18 -50 -57.5 -78.5t-88.5 -28.5t-85.5 28.5t-46.5 78.5z" />
<glyph unicode="&#x2d9;" horiz-adv-x="242" d="M77 590q2 20 19 34.5t40 14.5q24 0 37.5 -14.5t11.5 -34.5q-2 -19 -18.5 -34t-40.5 -15t-37.5 14.5t-11.5 34.5z" />
<glyph unicode="&#x2da;" horiz-adv-x="312" d="M83 679q4 38 32.5 63t69.5 25t64.5 -25t19.5 -63q-4 -39 -32.5 -64t-69.5 -25t-64.5 25t-19.5 64zM132 679q-5 -45 39 -45t49 45q5 44 -39 44t-49 -44z" />
<glyph unicode="&#x2dc;" horiz-adv-x="384" d="M46 650q16 22 49 36q30 14 56 15q29 1 68.5 -34t60.5 -35q24 0 54 25l19 -61q-10 -11 -38.5 -22.5t-40.5 -11.5q-29 0 -72 35.5t-59 35.5q-40 0 -76 -43z" />
<glyph unicode="&#x2dd;" horiz-adv-x="370" d="M33 574l107 117h65l-108 -117h-64zM159 574l107 117h65l-108 -117h-64z" />
<glyph unicode="&#x3a9;" horiz-adv-x="661" d="M29 0l7 67h159l7 65q-66 10 -112 74.5t-46 139.5q0 141 88 223.5t229 82.5q246 0 246 -233q0 -25 -3 -51q-8 -79 -72.5 -153t-137.5 -82l-7 -66h162l-7 -67h-211l19 180q62 0 115 65q46 56 52 112q3 25 3 47q0 190 -166 191q-95 0 -153.5 -64t-70.5 -174q-6 -60 23 -112 q35 -65 107 -65l-19 -180h-212z" />
<glyph unicode="&#x3c0;" horiz-adv-x="530" d="M84 0l48 453h-41l7 67h403l-56 -520h-90l48 453h-181l-48 -453h-90z" />
<glyph unicode="&#x2000;" horiz-adv-x="440" />
<glyph unicode="&#x2001;" horiz-adv-x="881" />
<glyph unicode="&#x2002;" horiz-adv-x="440" />
<glyph unicode="&#x2003;" horiz-adv-x="881" />
<glyph unicode="&#x2004;" horiz-adv-x="293" />
<glyph unicode="&#x2005;" horiz-adv-x="220" />
<glyph unicode="&#x2006;" horiz-adv-x="146" />
<glyph unicode="&#x2007;" horiz-adv-x="146" />
<glyph unicode="&#x2008;" horiz-adv-x="110" />
<glyph unicode="&#x2009;" horiz-adv-x="176" />
<glyph unicode="&#x200a;" horiz-adv-x="48" />
<glyph unicode="&#x2011;" horiz-adv-x="389" d="M51 273v96h287v-96h-287z" />
<glyph unicode="&#x2012;" horiz-adv-x="389" d="M51 273v96h287v-96h-287z" />
<glyph unicode="&#x2013;" horiz-adv-x="512" d="M35 299v73h442v-73h-442z" />
<glyph unicode="&#x2014;" horiz-adv-x="1024" d="M28 299v73h968v-73h-968z" />
<glyph unicode="&#x2018;" horiz-adv-x="218" d="M40 528h99q5 45 27 111q20 60 35 86l-44 12q-106 -122 -117 -209z" />
<glyph unicode="&#x2019;" horiz-adv-x="246" d="M38 541l44 -13q106 122 117 209h-100q-5 -45 -26 -110q-20 -60 -35 -86z" />
<glyph unicode="&#x201a;" horiz-adv-x="219" d="M31 -135q1 2 34 46q22 29 27 49q-65 3 -57 74q3 29 27.5 49.5t49.5 20.5t44.5 -21t16.5 -49q-5 -46 -31 -89q-14 -24 -55 -76z" />
<glyph unicode="&#x201c;" horiz-adv-x="453" d="M80 528h99q5 45 27 111q20 60 35 86l-44 12q-106 -122 -117 -209zM285 528h99q5 45 27 111q19 60 34 86l-44 12q-106 -122 -116 -209z" />
<glyph unicode="&#x201d;" horiz-adv-x="453" d="M22 541l44 -13q106 122 116 209h-99q-5 -45 -27 -110q-19 -60 -34 -86zM226 541l44 -13q106 122 117 209h-99q-5 -45 -27 -110q-20 -60 -35 -86z" />
<glyph unicode="&#x201e;" horiz-adv-x="427" d="M22 -74l44 -12q106 122 116 209h-99q-5 -45 -27 -111q-19 -60 -34 -86zM226 -74l44 -12q106 122 117 209h-99q-5 -45 -27 -111q-20 -60 -35 -86z" />
<glyph unicode="&#x2020;" horiz-adv-x="226" d="M24 572v35h61v64h40v-64h72v-35h-72v-231h-40v231h-61z" />
<glyph unicode="&#x2021;" horiz-adv-x="226" d="M25 407v24h61v131h-61v25h61v84h38v-84h63v-25h-63v-131h63v-24h-63v-156h-38v156h-61z" />
<glyph unicode="&#x2022;" horiz-adv-x="288" d="M49 298q5 44 36 73t70 29q38 0 62.5 -29t19.5 -73t-35.5 -73.5t-69.5 -29.5t-63.5 29t-19.5 74z" />
<glyph unicode="&#x2026;" horiz-adv-x="635" d="M61 54q3 34 27 54q20 17 49 17t46.5 -18.5t14.5 -52.5q-3 -33 -25 -51.5t-50 -18.5q-29 0 -47 19t-15 51zM255 54q3 34 27 54q20 17 49 17t46 -18.5t14 -52.5q-3 -33 -25 -51.5t-50 -18.5q-29 0 -46.5 19t-14.5 51zM449 54q3 34 26 54q20 17 49 17t46.5 -18.5t14.5 -52.5 q-3 -33 -25 -51.5t-50 -18.5q-29 0 -47 19t-14 51z" />
<glyph unicode="&#x202f;" horiz-adv-x="176" />
<glyph unicode="&#x2030;" horiz-adv-x="907" d="M-3 -54l460 697l67 -27l-454 -696zM48 523q0 9 1 21q5 53 40 87.5t83 34.5q47 0 74.5 -34.5t22.5 -87.5q-6 -60 -40.5 -92t-83.5 -32q-44 0 -70.5 26t-26.5 77zM112 541q-4 -34 11 -52q11 -14 29 -14q17 0 31 14q18 17 23 52q3 34 -12 52q-13 15 -29 15t-32 -15 q-18 -18 -21 -52zM338 97q0 9 1 21q5 53 40.5 87.5t82.5 34.5q48 0 75 -34.5t22 -87.5q-6 -61 -40 -92.5t-83 -31.5q-98 0 -98 103zM402 115q-4 -34 9.5 -50t30.5 -16q16 0 33.5 16t21.5 50q3 34 -13 52q-12 15 -28 15t-32 -15q-18 -18 -22 -52zM622 97q0 9 1 21 q5 53 40 87.5t82 34.5q48 0 75.5 -34.5t22.5 -87.5q-6 -61 -40 -92.5t-83 -31.5q-98 0 -98 103zM686 115q-4 -34 9.5 -50t30.5 -16q16 0 33 16t21 50q3 34 -12 52q-13 15 -29 15t-31 -15q-18 -18 -22 -52z" />
<glyph unicode="&#x2039;" horiz-adv-x="326" d="M57 296l156 166l73 -3l-134 -166l134 -165l-73 -3z" />
<glyph unicode="&#x203a;" horiz-adv-x="324" d="M48 128l133 165l-133 166l73 3l157 -166l-157 -171z" />
<glyph unicode="&#x2044;" horiz-adv-x="549" d="M41 119l431 483l74 -51l-430 -483z" />
<glyph unicode="&#x205f;" horiz-adv-x="220" />
<glyph unicode="&#x2122;" horiz-adv-x="656" d="M28 604l5 53h254l-5 -53h-92l-29 -281h-66l30 281h-97zM278 323l34 336h80l67 -234l115 234h77l-35 -336h-65l21 203l-99 -203h-55l-58 205l-21 -205h-61z" />
<glyph unicode="&#x2202;" horiz-adv-x="565" d="M32 208q0 15 1 31q14 140 92 210q69 61 176 61q42 0 82.5 -15.5t61.5 -37.5q0 38 -12 77q-14 50 -41 70q-41 32 -119 32q-73 0 -144 -30l-14 80q74 20 146 21q115 0 174 -45q89 -69 89 -252q0 -48 -6 -107q-16 -153 -75 -229q-68 -91 -205 -91q-99 0 -156 69 q-50 62 -50 156zM123 222q0 -73 34 -119q36 -50 99 -50q161 0 183 215q5 45 3 90q-57 92 -148 93q-71 0 -115.5 -53.5t-54.5 -145.5q-1 -15 -1 -30z" />
<glyph unicode="&#x2206;" horiz-adv-x="705" d="M51 0l323 673h88l160 -673h-571zM173 57h339l-104 522z" />
<glyph unicode="&#x220f;" horiz-adv-x="609" d="M91 0l70 657h397l-70 -657h-98l62 575h-202l-62 -575h-97z" />
<glyph unicode="&#x2211;" horiz-adv-x="502" d="M59 0l9 72l251 278l-199 220l19 78h355l-9 -74h-256l197 -217l-251 -279l258 1l-9 -79h-365z" />
<glyph unicode="&#x221a;" horiz-adv-x="515" d="M56 304l77 41l44 -226l110 535h81l-145 -664h-79z" />
<glyph unicode="&#x221e;" d="M9 408q6 56 53 96t108 40q75 0 113 -57q49 56 124 57q60 0 99 -40t33 -96t-53.5 -97t-107.5 -41q-76 0 -112 58q-50 -57 -125 -58q-61 0 -99.5 40.5t-32.5 97.5zM66 409q-4 -40 20.5 -62t59.5 -22q37 0 66.5 22t33.5 62q4 36 -19.5 60.5t-61.5 24.5q-37 0 -66 -25.5 t-33 -59.5zM302 409q-4 -36 20 -61t61 -25q38 0 66.5 25t32.5 61t-19.5 60.5t-61.5 24.5q-37 0 -66 -25.5t-33 -59.5z" />
<glyph unicode="&#x222b;" horiz-adv-x="310" d="M-23 -124l29 84q44 -26 78 -19q57 10 70 130q5 45 -27 191q-34 158 -34 239q0 102 42 161q49 69 151 68q13 0 42 -9.5t42 -17.5l-47 -77q-23 19 -48 19q-43 0 -66 -41q-18 -34 -19 -81q0 -47 30 -193.5t30 -226.5q0 -26 -3 -49q-20 -198 -188 -197q-23 0 -82 19z" />
<glyph unicode="&#x2248;" d="M93 145q19 20 58.5 38.5t67.5 18.5q34 0 74 -24.5t55 -24.5q14 0 36 11t33 22l20 -63q-15 -14 -48.5 -26.5t-53.5 -12.5q-24 0 -64 26.5t-59 26.5q-22 0 -52.5 -16.5t-48.5 -39.5zM115 350q19 20 58.5 38.5t67.5 18.5q34 0 73.5 -25t55.5 -25q14 0 35.5 11.5t32.5 22.5 l22 -63q-16 -14 -49.5 -26.5t-53.5 -12.5q-25 0 -66.5 26.5t-61.5 26.5t-48.5 -16.5t-48.5 -39.5z" />
<glyph unicode="&#x2260;" horiz-adv-x="451" d="M39 138l7 67h120l40 89h-151l7 66h175l84 187l60 -22l-74 -165h102l-8 -66h-125l-39 -89h155l-7 -67h-178l-70 -153l-60 21l59 132h-97z" />
<glyph unicode="&#x2264;" horiz-adv-x="256" d="M19 293l157 166l74 -3l-135 -166l135 -165l-74 -3zM22 35v41h226v-41h-226z" />
<glyph unicode="&#x2265;" horiz-adv-x="256" d="M20 125l134 165l-134 166l72 3l158 -166l-158 -171zM22 35v41h226v-41h-226z" />
<glyph unicode="&#x25ca;" horiz-adv-x="589" d="M20 341l262 255l260 -255l-260 -254zM125 340l160 -156l159 156l-159 157z" />
</font>
</defs>
</svg>
