<?xml version="1.0" standalone="no"?>
<!DOCTYPE svg PUBLIC "-//W3C//DTD SVG 1.1//EN" "http://www.w3.org/Graphics/SVG/1.1/DTD/svg11.dtd" >
<svg xmlns="http://www.w3.org/2000/svg">
<metadata></metadata>
<defs>
<font id="puritanbold" horiz-adv-x="512" >
<font-face units-per-em="1024" ascent="819" descent="-205" />
<missing-glyph horiz-adv-x="279" />
<glyph horiz-adv-x="0" />
<glyph horiz-adv-x="0" />
<glyph horiz-adv-x="279" />
<glyph unicode=" "  horiz-adv-x="279" />
<glyph unicode="&#x09;" horiz-adv-x="279" />
<glyph unicode="&#xa0;" horiz-adv-x="279" />
<glyph unicode="!" horiz-adv-x="240" d="M38 45q0 33 22.5 56.5t55.5 23.5q34 0 57.5 -23.5t23.5 -56.5q0 -34 -23.5 -56.5t-57.5 -22.5q-33 0 -55.5 23t-22.5 56zM57 176v526h128v-526h-128z" />
<glyph unicode="&#x22;" horiz-adv-x="336" d="M50 660l23 -225h33l40 225h-96zM195 660l22 -225h35l40 225h-97z" />
<glyph unicode="#" horiz-adv-x="548" d="M71 388v85l94 10v36l-93 -10v85l94 10v70l90 9l-1 -69l38 3v70l90 11l-1 -70l74 7v-85l-74 -8v-35l73 7v-85l-74 -8v-89l-90 -10l1 90l-37 -4l-1 -90l-90 -10l1 90zM255 494l37 3v35l-37 -4v-34z" />
<glyph unicode="$" horiz-adv-x="548" d="M74 82l66 81q62 -77 130 -77q35 0 58.5 26t23.5 66q0 44 -67 71q-103 43 -123 56q-67 49 -66 147q1 58 35 103q33 42 85 60v92h120v-89q52 -14 118 -68l-64 -79q-62 55 -109 55q-29 0 -47 -21t-18 -59t66 -60q94 -32 120 -52q66 -50 66 -155q0 -146 -132 -186v-95h-120 v92q-91 17 -142 92z" />
<glyph unicode="%" horiz-adv-x="548" d="M3 -47l376 696l101 -39l-369 -694zM23 530q0 58 34 97t86 39t86.5 -38.5t34.5 -97.5q0 -65 -33.5 -100.5t-87.5 -35.5q-53 0 -86.5 35.5t-33.5 100.5zM118 527q0 -42 25 -42t25 42q0 45 -26 45q-24 0 -24 -45zM276 134q0 58 35.5 97.5t88.5 39.5q52 0 87 -39t35 -98 q0 -68 -33.5 -104t-88.5 -36t-88 35q-36 37 -36 105zM375 130q0 -43 25 -43t25 43q0 46 -26 46q-24 0 -24 -46z" />
<glyph unicode="&#x26;" horiz-adv-x="568" d="M26 181q0 121 102 191q-34 56 -34 114q0 73 50.5 121t120.5 48q43 0 72 -13q35 -16 72 -60l-58 -64q-39 47 -103 47q-42 0 -42 -64q0 -29 19 -77q42 16 112 18l16 -82q-52 0 -81 -8q57 -82 104 -134q4 15 4 30q0 34 -9 74l90 16l4 -28q5 -31 5 -51q0 -52 -18 -111 q22 -19 95 -59l-66 -89q-34 12 -94 61q-19 -29 -61 -49q-45 -22 -90 -21q-100 0 -158 58q-52 52 -52 132zM133 190q0 -42 24 -74q28 -39 74 -39q42 0 86 46q-110 104 -145 176q-39 -30 -39 -109z" />
<glyph unicode="'" horiz-adv-x="198" d="M51 662l30 -239h30l36 239h-96z" />
<glyph unicode="(" horiz-adv-x="325" d="M47 331q0 253 119 477l83 -46q-94 -250 -94 -431q0 -111 28 -222q13 -49 68 -211l-85 -44q-119 235 -119 477z" />
<glyph unicode=")" horiz-adv-x="323" d="M75 -102q56 167 67 208q29 111 29 221q0 189 -93 436l83 44q115 -218 114 -473q0 -251 -114 -480z" />
<glyph unicode="*" horiz-adv-x="281" d="M14 545l62 38l-61 39l41 71l45 -40l-2 58l77 -2l-3 -54l42 39l41 -72l-58 -38l60 -39l-43 -72l-42 39l2 -55h-77l2 55l-43 -39z" />
<glyph unicode="+" horiz-adv-x="509" d="M53 272v97h155v165h94v-165h155v-97h-155v-174h-94v174h-155z" />
<glyph unicode="," horiz-adv-x="260" d="M42 -96q19 42 27 95q1 10 5 88h107q0 -37 -24 -101q-22 -61 -47 -96z" />
<glyph unicode="-" horiz-adv-x="389" d="M51 273v96h287v-96h-287z" />
<glyph unicode="&#x2010;" horiz-adv-x="389" d="M51 273v96h287v-96h-287z" />
<glyph unicode="." horiz-adv-x="249" d="M37 79q0 37 26.5 63t62.5 26t62.5 -26t26.5 -63t-26 -62.5t-63 -25.5q-36 0 -62.5 25.5t-26.5 62.5z" />
<glyph unicode="/" horiz-adv-x="394" d="M-14 -153l317 877l123 -25l-316 -876z" />
<glyph unicode="0" d="M8 323q0 147 58 241q67 108 189 108q123 0 189 -107q59 -95 60 -242q0 -123 -59 -218q-73 -118 -190 -117q-126 -1 -196 117q-51 87 -51 218zM128 323q0 -88 23 -148q31 -88 104 -88q75 0 109 86q24 60 23 150q0 250 -132 249q-82 0 -111 -91q-16 -52 -16 -158z" />
<glyph unicode="1" d="M103 0v102h137v445h-127v105h237v-550h124v-102h-371z" />
<glyph unicode="2" d="M70 540q74 134 185 134q95 0 157 -58.5t62 -148.5q0 -68 -44 -137q-34 -54 -101 -118q-54 -49 -110 -98h273v-114h-406v101l184 201q82 89 82 164q0 47 -25 80t-70 33q-59 0 -111 -91z" />
<glyph unicode="3" d="M55 71l53 77q77 -79 142 -78q58 0 88 38q26 32 26 79q0 46 -29 77q-32 35 -87 35h-64v88h64q43 0 73 31t30 76q0 36 -28 64t-66 28q-33 0 -56 -19q-15 -11 -46 -49l-64 59q76 99 165 99q73 0 131 -46q65 -51 65 -129q0 -54 -32 -91q-20 -25 -68 -51q52 -26 86 -71 q38 -51 38 -110q0 -67 -53 -128q-60 -70 -152 -69q-140 0 -216 90z" />
<glyph unicode="4" d="M16 144v78l291 445h96v-431h90v-92h-90v-144h-111v144h-276zM140 236h152v239z" />
<glyph unicode="5" d="M26 66l49 75q63 -79 154 -79q58 0 100 54q36 47 36 96q0 119 -117 119q-20 0 -55 -21t-55 -50l-84 21v378h379v-113h-297v-191q19 29 53 51q42 27 84 26q86 0 145 -59q61 -63 61 -165q0 -90 -63 -157q-73 -76 -194 -76q-141 1 -196 91z" />
<glyph unicode="6" d="M16 276q0 172 60 274q71 122 221 122q72 0 166 -46l-41 -85q-49 37 -126 37q-80 0 -123 -75q-36 -60 -42 -160q24 46 84 72q43 17 77 17q87 0 143 -52q62 -58 63 -162q0 -99 -63 -168q-66 -73 -168 -73q-108 0 -173 67q-78 78 -78 232zM140 198q0 -57 32 -96 q35 -43 95 -43q48 0 84.5 46.5t36.5 98.5q0 62 -30.5 96t-83.5 34q-56 0 -93 -35q-41 -38 -41 -101z" />
<glyph unicode="7" d="M37 548v111h432v-103l-273 -589l-113 31l277 550h-323z" />
<glyph unicode="8" d="M37 181q0 109 139 179q-108 71 -107 146q0 85 63 130q53 38 132 38q73 0 123 -38q56 -43 56 -121q0 -81 -99 -148q139 -75 139 -184q0 -93 -54 -149q-59 -62 -171 -63q-95 0 -155 52q-66 56 -66 158zM142 183q0 -62 39 -96q32 -28 73 -28q48 0 81 35.5t33 88.5 q0 91 -111 135q-115 -58 -115 -135zM177 509q12 -70 80 -98q92 36 92 96q0 37 -25 63.5t-60 26.5q-32 0 -56 -22q-27 -24 -31 -66z" />
<glyph unicode="9" d="M25 439q0 98 64.5 165.5t167.5 67.5q96 0 163 -70q79 -81 79 -230q0 -153 -47 -254q-68 -144 -216 -145q-122 0 -210 84l61 79q43 -39 76.5 -53.5t80.5 -14.5q73 0 109 83q29 65 29 158q-73 -86 -148 -86q-84 0 -144 59q-66 62 -65 157zM135 442q0 -52 33 -94 q35 -45 83 -45q56 0 91 37.5t35 94.5q0 59 -28 102q-33 49 -92 49q-54 0 -88 -41t-34 -103z" />
<glyph unicode=":" horiz-adv-x="249" d="M37 79q0 37 26.5 63t62.5 26t62.5 -26t26.5 -63t-26 -62.5t-63 -25.5q-36 0 -62.5 25.5t-26.5 62.5zM37 430q0 37 26.5 62.5t62.5 25.5q37 0 63 -25.5t26 -62.5t-26.5 -63t-62.5 -26t-62.5 26t-26.5 63z" />
<glyph unicode=";" horiz-adv-x="260" d="M42 -96q19 42 27 95q1 10 5 88h107q0 -37 -24 -101q-22 -61 -47 -96zM70 428q0 88 70 88q68 0 68 -88t-68 -88q-70 0 -70 88z" />
<glyph unicode="&#x3c;" horiz-adv-x="374" d="M0 296l242 246l126 -4l-206 -246l206 -245l-125 -4z" />
<glyph unicode="=" horiz-adv-x="451" d="M91 128v100h329v-100h-329zM91 260v100h329v-100h-329z" />
<glyph unicode="&#x3e;" horiz-adv-x="373" d="M-16 538l126 4l241 -246l-241 -253l-124 4l205 245z" />
<glyph unicode="?" horiz-adv-x="559" d="M65 552q36 85 83 120.5t128 35.5q100 0 156 -54q50 -50 50 -133q0 -53 -24 -91q-19 -29 -67 -65q-55 -41 -78 -108q-5 -15 -5 -75h-100q-4 19 -2 50q2 48 2 42q0 53 22 86q18 27 83 79q48 39 48 82q0 38 -24.5 68.5t-56.5 30.5q-82 0 -119 -108zM187 61q0 31 22.5 53.5 t55.5 22.5q34 0 57.5 -22t23.5 -54t-23.5 -53t-57.5 -21q-33 0 -55.5 21t-22.5 53z" />
<glyph unicode="@" horiz-adv-x="1034" d="M34 244q0 195 144 333t347 138t325.5 -121.5t122.5 -318.5q0 -112 -88.5 -204.5t-199.5 -92.5q-61 0 -94 100q-70 -98 -157 -98q-179 0 -179 224q0 118 76 217q84 112 211 111q31 0 56 -16l43 -35l8 41h92q-7 -84 -25 -194q-17 -97 -34 -196l8 -49q6 -17 46 -17 q43 0 89 67.5t46 141.5q0 157 -96 260t-250 103t-263 -122q-106 -118 -106 -272q0 -164 88 -280q93 -125 240 -125q106 0 174 30q63 29 148 109l61 -70q-102 -93 -155 -118q-80 -38 -228 -38q-209 0 -333 146q-117 137 -117 346zM381 217q0 -66 12 -95q19 -50 77 -50 q31 0 75.5 45t51.5 87l35 192q-13 17 -43 33.5t-50 16.5q-51 0 -97 -47q-61 -62 -61 -182z" />
<glyph unicode="A" horiz-adv-x="581" d="M24 2l213 668h104l215 -663l-119 -19l-48 164h-212l-47 -164zM205 247h156l-76 266z" />
<glyph unicode="B" horiz-adv-x="513" d="M65 2v654q8 0 96 2q65 2 102 2q82 0 129.5 -43.5t47.5 -122.5q0 -40 -25.5 -76.5t-66.5 -58.5q53 -4 93.5 -52t40.5 -110q0 -118 -84 -165q-61 -34 -183 -34q-28 0 -79.5 2t-70.5 2zM185 83h69q55 0 84 33q28 30 28 82q0 43 -29 76q-33 37 -85 37h-67v-228zM185 389h45 q46 0 74 29q25 27 25 66q-1 100 -85 101q-22 0 -59 -2v-194z" />
<glyph unicode="C" horiz-adv-x="570" d="M32 337q0 133 70 229q81 110 219 110q87 0 201 -71l-43 -80q-65 38 -66 40q-37 17 -76 18q-82 0 -129 -93q-38 -74 -38 -164q0 -97 50 -164q47 -63 114 -64q36 0 68 13q25 9 79 40l48 -80q-68 -44 -106 -60q-49 -19 -108 -19q-139 0 -216 108q-67 96 -67 237z" />
<glyph unicode="D" horiz-adv-x="578" d="M65 2v656q82 4 166 5q315 0 315 -336q0 -154 -79 -239q-82 -90 -240 -90q-25 0 -72.5 2t-89.5 2zM189 89h57q79 0 128 75q44 67 44 157q0 262 -178 262h-24q-15 -1 -27 -1v-493z" />
<glyph unicode="E" horiz-adv-x="473" d="M65 0v655h367v-87h-249v-168h233v-91l-233 1v-219h246v-91h-364z" />
<glyph unicode="F" horiz-adv-x="474" d="M65 0v655h368v-87h-250v-168h235v-91h-235v-309h-118z" />
<glyph unicode="G" horiz-adv-x="595" d="M32 331q-1 124 64 225q78 120 210 120q47 0 107 -18q69 -22 108 -54l-42 -78q-82 56 -150 57q-77 0 -123 -94q-38 -77 -38 -163q0 -96 42 -164t103 -68q62 0 97 17v200h-135v89h256v-333q-67 -41 -106 -55q-50 -18 -116 -18q-132 0 -209 107q-68 94 -68 230z" />
<glyph unicode="H" horiz-adv-x="595" d="M65 0v655h121v-255h225v255h120v-655h-120v309h-225v-309h-121z" />
<glyph unicode="I" horiz-adv-x="250" d="M65 0v656h121v-656h-121z" />
<glyph unicode="J" horiz-adv-x="252" d="M-154 -114l63 77q25 -30 42 -41q23 -15 54 -15q60 0 61 154v594h122v-586q0 -260 -175 -260q-56 0 -94 20q-24 13 -73 57z" />
<glyph unicode="K" horiz-adv-x="555" d="M65 0v656h121v-297l206 330l108 -54q-82 -113 -213 -297q37 -61 125 -165q72 -83 143 -165l-143 -32q-101 138 -191 285l-35 -50v-211h-121z" />
<glyph unicode="L" horiz-adv-x="513" d="M65 0v656h119v-569h265v-87h-384z" />
<glyph unicode="M" horiz-adv-x="812" d="M75 0v657h155l179 -483l182 483h145v-657h-134v437l-156 -438h-106l-157 442v-441h-108z" />
<glyph unicode="N" horiz-adv-x="595" d="M65 0v659h98l264 -414v410h104v-640l-97 -30q-100 184 -263 426l-1 -411h-105z" />
<glyph unicode="O" horiz-adv-x="659" d="M33 330q0 143 85 237.5t216 94.5q130 0 212 -94.5t82 -237.5q0 -163 -88 -257q-83 -89 -213 -89q-129 0 -209 89q-85 94 -85 257zM161 321q0 -99 47 -172t119 -73q73 0 124 75q49 72 49 168q0 102 -45 176q-46 76 -121 76h-2q-76 0 -125 -76q-46 -73 -46 -174z" />
<glyph unicode="P" horiz-adv-x="486" d="M65 0v656l192 3h3q82 1 140 -55t58 -142q0 -79 -68.5 -139t-153.5 -60q-12 0 -53 2v-265h-118zM183 335h33q51 0 87.5 37.5t36.5 86.5q0 117 -112 126h-7q-5 -1 -15 -1q-16 -2 -23 -1v-248z" />
<glyph unicode="Q" horiz-adv-x="673" d="M32 329q0 144 85.5 238.5t217.5 94.5q131 0 213 -93t82 -237q0 -133 -77 -207l131 -119l-77 -86l-132 122q-81 -61 -147 -61q-129 0 -211 90q-85 95 -85 258zM161 322q0 -99 45 -172q48 -76 119 -76q44 0 79 29l-77 65l80 85l70 -64q24 37 24 134q0 101 -44 172 q-47 75 -122 75h-2q-77 0 -126 -75q-46 -72 -46 -173z" />
<glyph unicode="R" horiz-adv-x="534" d="M65 0v656q28 0 105 2q56 1 92 1q92 -1 142 -51q49 -50 49 -135q0 -73 -41 -127q-36 -46 -91 -63q81 -113 234 -267l-151 -27q-75 77 -198 280h-23v-269h-118zM183 341h42q113 0 113 129q0 43 -17 73q-24 42 -77 42h-5l-56 -2v-242z" />
<glyph unicode="S" horiz-adv-x="464" d="M25 84l55 79q61 -72 140 -72q107 0 107 103q0 55 -75 86q-122 51 -136 61q-73 50 -73 154q0 86 67 140q56 45 122 45q106 0 193 -73l-41 -86q-70 66 -132 66q-42 0 -62 -17q-24 -19 -24 -69q0 -51 72 -80q112 -45 134 -62q72 -53 72 -158q0 -108 -68 -164 q-59 -47 -148 -47q-136 0 -203 94z" />
<glyph unicode="T" horiz-adv-x="548" d="M32 571v83h484v-83h-176v-571h-122v571h-186z" />
<glyph unicode="U" horiz-adv-x="625" d="M65 241v414h121v-414q0 -82 46 -129q38 -39 85 -39q45 0 81 40q41 47 41 128v414h122v-414q0 -128 -86 -199q-72 -59 -170 -59q-96 0 -163 60q-78 70 -77 198z" />
<glyph unicode="V" horiz-adv-x="555" d="M8 641l127 32l158 -482l148 483l106 -34l-225 -650h-90z" />
<glyph unicode="W" horiz-adv-x="807" d="M11 637l136 27l115 -451l113 438h105l113 -437l106 451l103 -29l-180 -642h-80l-125 412l-132 -412h-90z" />
<glyph unicode="X" horiz-adv-x="565" d="M27 10l193 315l-182 311l119 42l134 -261l136 263l95 -45l-180 -298l218 -327l-128 -36l-150 276l-142 -281z" />
<glyph unicode="Y" horiz-adv-x="515" d="M11 636l126 34l132 -290l140 290l94 -34l-186 -358v-278h-120v278z" />
<glyph unicode="Z" horiz-adv-x="557" d="M36 76l314 487l-280 -2v93h412l24 -86l-307 -467h290v-101h-427z" />
<glyph unicode="[" horiz-adv-x="230" d="M74 -117v875h159v-89h-59v-678h67v-108h-167z" />
<glyph unicode="\" horiz-adv-x="394" d="M6 699l112 25l285 -877l-111 -24z" />
<glyph unicode="]" horiz-adv-x="272" d="M51 -9h67v678h-59v89h156v-875h-164v108z" />
<glyph unicode="^" horiz-adv-x="548" d="M108 527l165 175l169 -175l-61 -73l-108 121l-104 -121z" />
<glyph unicode="_" horiz-adv-x="548" d="M5 -51h538v-61h-538v61z" />
<glyph unicode="`" horiz-adv-x="336" d="M48 652l219 -85l65 74l-220 91z" />
<glyph unicode="a" horiz-adv-x="502" d="M42 139q0 85 49 121q32 22 125 40q48 9 87 13v54q0 23 -18.5 42.5t-42.5 19.5q-93 0 -152 -70l-44 63q28 46 91 76q53 26 101 26h4q73 0 122.5 -47t49.5 -120v-257q0 -6 7.5 -14t15.5 -8q33 0 43 10l12 -65q-62 -34 -101 -34q-15 0 -40 18q-28 21 -35 48q-43 -38 -59 -49 q-33 -22 -65 -22h-3q-61 0 -102 40q-45 44 -45 115zM141 140q0 -29 18.5 -50.5t43.5 -21.5q62 0 102 49l1 111q-31 0 -75 -8q-49 -8 -65 -19q-25 -15 -25 -61z" />
<glyph unicode="b" horiz-adv-x="527" d="M66 -1v718h110v-273q19 35 67 62q41 24 72 24h2q81 0 130 -77q42 -69 42 -161q0 -302 -200 -302q-36 0 -122 57l-8 -48h-93zM176 131q15 -18 47.5 -33.5t57.5 -15.5q58 0 78 69q12 41 13 127q0 161 -90 161h-1q-58 0 -105 -96v-212z" />
<glyph unicode="c" horiz-adv-x="490" d="M40 248q0 137 80 212q65 63 156 63h6q58 0 155 -65l-34 -71q-67 54 -131 54q-55 0 -86 -65q-26 -53 -26 -126v-5q0 -79 33 -127.5t87 -48.5q60 0 133 65l46 -60q-40 -46 -81 -66t-98 -20q-134 0 -197 105q-43 71 -43 155z" />
<glyph unicode="d" horiz-adv-x="523" d="M38 254q0 105 45 187q49 89 122 89q52 0 80 -12q15 -7 63 -45v241h111v-715h-94l-9 51q-31 -19 -62 -39q-41 -24 -65 -24h-2q-93 0 -145 88q-44 74 -44 179zM159 265q0 -81 22 -131q25 -57 71 -57q31 0 96 53v220q-34 48 -44 59q-28 30 -61 30q-84 0 -84 -174z" />
<glyph unicode="e" horiz-adv-x="502" d="M40 253q0 116 61 190q66 79 178 79q77 0 129 -51q57 -56 57 -150v-77h-303q2 -173 120 -174h2q66 0 131 64l46 -62q-53 -51 -93 -69q-36 -15 -94 -15q-134 0 -195 110q-39 72 -39 155zM169 331h184v12q0 99 -80 99h-2q-35 0 -61 -26q-32 -31 -41 -85z" />
<glyph unicode="f" horiz-adv-x="331" d="M18 418v92h72v54q0 200 149 200q47 0 71 -14q5 -3 50 -43l-49 -69q-39 34 -71 35h-1q-43 0 -43 -101q0 -13 1 -34.5t1 -27.5h127v-92h-127v-418h-108v418h-72z" />
<glyph unicode="g" horiz-adv-x="523" d="M42 -120q0 55 91 114q-40 0 -65 24q-23 22 -23 52q0 20 36 54q46 45 50 50q-81 63 -81 154q0 76 56.5 132t139.5 56q96 0 143 -59l134 60v-116h-101q15 -50 15 -70q0 -82 -54 -136.5t-135 -54.5q-27 0 -58 10q-4 -6 -21 -25q-12 -13 -12 -19q0 -32 47 -37q7 -1 74 -1 q109 0 139 -13q63 -25 63 -116t-104 -144q-80 -40 -163 -40q-77 0 -124 33t-47 92zM152 -95q0 -39 15 -56q19 -20 72 -20q50 0 93 35t43 71q0 31 -23 41q-16 7 -61 8h-96q-10 -3 -26.5 -29t-16.5 -50zM162 328q0 -39 21 -72q25 -38 65 -38q36 0 60.5 34.5t24.5 80.5 q0 35 -25 68q-28 37 -64 37q-38 0 -62 -38q-20 -32 -20 -72z" />
<glyph unicode="h" horiz-adv-x="524" d="M65 0v713h109v-297q56 107 124 107h1q59 0 109 -47q52 -52 52 -129v-347h-110v334q0 96 -57 96q-45 0 -86 -48q-33 -39 -33 -55v-327h-109z" />
<glyph unicode="i" horiz-adv-x="238" d="M44 673q0 33 22.5 54.5t53.5 21.5q30 0 52.5 -21.5t22.5 -54.5t-22 -55t-53 -22t-53.5 22t-22.5 55zM65 0v507h109v-507h-109z" />
<glyph unicode="j" horiz-adv-x="238" d="M-31 -135q86 26 94 69q1 5 2 53v520h110v-563q0 -81 -53 -119q-37 -26 -114 -53zM47 674q0 33 22.5 54.5t53.5 21.5t53.5 -21.5t22.5 -54.5t-22.5 -54.5t-53.5 -21.5t-53.5 21.5t-22.5 54.5z" />
<glyph unicode="k" horiz-adv-x="487" d="M65 -1v715h109v-418l182 253l97 -67l-189 -200l222 -250l-98 -64l-183 259l-31 -45v-183h-109z" />
<glyph unicode="l" horiz-adv-x="239" d="M66 0v715h108v-715h-108z" />
<glyph unicode="m" horiz-adv-x="794" d="M65 0v508h109v-91q65 102 132 102q37 0 73.5 -29.5t52.5 -67.5q77 102 145 102q70 0 113 -56q40 -50 40 -116v-352h-115v347q0 83 -55 83q-26 0 -62 -35q-44 -42 -44 -91v-304h-115v332q0 38 -19 66t-41 28q-31 0 -68 -43t-37 -70v-313h-109z" />
<glyph unicode="n" horiz-adv-x="524" d="M65 0v508h109v-91q62 106 126 106q65 0 111 -50q49 -53 49 -133v-340h-110v328q0 51 -18 79q-14 24 -38 24h-2q-38 0 -78 -43.5t-40 -77.5v-310h-109z" />
<glyph unicode="o" horiz-adv-x="559" d="M40 258q0 131 83 205q69 61 160 61q90 0 156 -61q80 -73 80 -205q0 -90 -46 -165q-65 -104 -191 -104q-138 0 -201 105q-41 70 -41 164zM159 252q0 -74 29 -125q33 -58 90 -58q58 0 92 59q30 50 30 124q0 80 -27 132q-32 59 -86 59q-62 0 -98 -60q-30 -53 -30 -131z" />
<glyph unicode="p" horiz-adv-x="529" d="M65 -202v710h109v-84q13 40 55 70.5t84 30.5q96 0 142 -82q37 -67 37 -176q0 -291 -213 -291q-31 1 -105 53v-231h-109zM174 117q63 -47 106 -47q47 0 72 63q20 51 21 121q0 81 -17 121q-22 56 -78 56q-25 0 -61 -44q-33 -39 -43 -70v-200z" />
<glyph unicode="q" horiz-adv-x="523" d="M38 258q0 88 41 168q48 94 124 94q47 0 79 -15q20 -9 64 -44v47h110v-710h-110v246q-53 -38 -63 -44q-40 -24 -66 -24q-86 0 -134 84q-45 77 -45 198zM156 249q0 -74 26.5 -128t67.5 -54q14 0 45 28q47 43 51 46v208q-9 28 -38.5 55.5t-56.5 27.5q-95 -1 -95 -183z" />
<glyph unicode="r" horiz-adv-x="346" d="M65 0v508h109v-83q13 32 37 60q28 33 51 33q39 0 64 -10l-13 -127q-17 10 -26 12q-5 1 -31 0q-30 -1 -57 -32q-25 -27 -25 -42v-319h-109z" />
<glyph unicode="s" horiz-adv-x="447" d="M47 68l57 76q53 -71 118 -71h2q33 0 53 18.5t20 46.5q0 51 -117 85q-58 16 -85 42q-35 34 -35 92q0 83 55 129q46 40 113 40h2q69 0 156 -55l-40 -76q-59 42 -108 42q-33 0 -51 -17.5t-18 -39.5q0 -28 22 -37q36 -14 70 -25q147 -44 148 -149q0 -89 -59 -139 q-52 -44 -130 -44q-111 0 -173 82z" />
<glyph unicode="t" horiz-adv-x="359" d="M22 420v84h71v107h116v-107h102v-85l-102 1v-274q0 -65 37 -65h1q31 0 41 4q1 0 35 19l24 -70q-52 -29 -71 -35q-26 -7 -80 -7q-103 0 -103 166v262h-71z" />
<glyph unicode="u" horiz-adv-x="523" d="M65 170v337h109v-334q0 -96 53 -96q37 0 80 47q40 43 40 70v313h110v-507h-100q-3 28 -10 73q-71 -91 -127 -91q-63 0 -108 50q-47 54 -47 138z" />
<glyph unicode="v" horiz-adv-x="475" d="M16 485l111 32l115 -393l109 393l108 -32l-180 -497h-78z" />
<glyph unicode="w" horiz-adv-x="752" d="M23 486l112 29l95 -393l104 383h96l108 -382l89 392l109 -29l-158 -495h-88l-111 323l-114 -323h-89z" />
<glyph unicode="x" horiz-adv-x="499" d="M6 33l174 219l-155 213l102 61l128 -201l132 200l91 -52l-163 -216l179 -225l-96 -66l-149 221l-148 -219z" />
<glyph unicode="y" horiz-adv-x="491" d="M17 -176l33 97q38 -20 72 -20h1q51 0 87 132l-186 451l116 31l121 -375l111 373l103 -26l-204 -567q-18 -48 -54 -81q-44 -40 -100 -40q-29 0 -100 25z" />
<glyph unicode="z" horiz-adv-x="493" d="M54 0v79l208 285q10 15 40 54h-239v88h374v-82l-192 -268q-13 -22 -43 -62h248v-94h-396z" />
<glyph unicode="{" horiz-adv-x="548" d="M115 317l1 57q37 43 45 56q20 33 20 72q0 25 -2.5 69.5t-2.5 64.5q0 218 162 218q27 0 88 -15l-20 -115q-53 18 -66 18q-40 0 -49 -40q-3 -11 -3 -73q0 -26 2.5 -71t2.5 -59q0 -77 -75 -152v-7q33 -30 56 -76q28 -56 28 -114q0 -23 -3.5 -81t-3.5 -79q0 -56 3 -67 q5 -15 25 -15q44 0 71 25l31 -121q-48 -16 -106 -14q-94 5 -124 93q-17 51 -18 171q0 14 2 55t2 64q0 77 -66 136z" />
<glyph unicode="|" horiz-adv-x="234" d="M67 -225v927h131v-927h-131z" />
<glyph unicode="}" horiz-adv-x="548" d="M130 839q61 15 88 15q162 0 162 -218q0 -19 -2.5 -64.5t-2.5 -69.5q0 -39 20 -72q8 -13 45 -56l1 -57q-67 -59 -66 -136q0 -24 1.5 -64.5t1.5 -54.5q0 -121 -18 -172q-30 -87 -123 -92q-58 -3 -106 14l30 121q29 -26 72 -25q17 0 22 8.5t6 33.5v40q0 22 -3.5 79.5 t-3.5 80.5q0 58 29 114q23 46 55 76v7q-75 75 -75 152q0 14 2.5 59t2.5 71q0 62 -3 73q-9 40 -49 40q-13 0 -65 -18z" />
<glyph unicode="~" horiz-adv-x="404" d="M83 464q45 45 97 45q34 0 67 -18.5t38 -18.5q11 -1 31 21q10 12 21 23l27 -89q-46 -39 -86 -39q-28 0 -64 25q-26 17 -36 17q-12 0 -25 -13q-8 -8 -40 -48z" />
<glyph unicode="&#xa1;" horiz-adv-x="240" d="M38 665q0 33 23 55.5t56 22.5q34 0 57 -22.5t23 -55.5t-23 -56.5t-57 -23.5q-33 0 -56 23.5t-23 56.5zM49 -105v618h127v-618h-127z" />
<glyph unicode="&#xa2;" horiz-adv-x="490" d="M39 248q0 116 52 187q46 62 122 82v87h121v-86q54 -12 113 -60l-50 -78q-52 42 -65 50q-28 16 -57 16q-51 0 -85 -63q-32 -59 -31 -138q0 -77 34.5 -126.5t78.5 -49.5q32 0 62 19q23 13 66 55l60 -72q-60 -62 -126 -81v-81h-121v80q-100 23 -144 120q-30 64 -30 139z" />
<glyph unicode="&#xa3;" horiz-adv-x="487" d="M58 84q18 4 36 9q24 6 34 17q26 26 26 73q0 65 -10 117h-68v95h55q-10 55 -10 83q0 82 42 135q47 58 130 59q62 0 134 -42l-45 -83q-70 35 -84 35q-32 0 -53.5 -33.5t-21.5 -74.5q0 -15 13 -79h129v-95h-109q4 -44 4 -99q0 -47 -32 -84q38 5 86 5q62 0 142 -22l-22 -112 q-14 4 -75 25q-36 14 -59 14q-48 0 -226 -45z" />
<glyph unicode="&#xa4;" horiz-adv-x="500" d="M37 231v80h93v47h-93v89h93v208h302v-107h-182v-101h166v-90h-166v-46h166v-80h-166v-119l179 1v-113h-299v231h-93z" />
<glyph unicode="&#xa5;" horiz-adv-x="543" d="M22 656h126l113 -230l113 230h127l-175 -362h77v-85h-80v-50h80v-85h-80v-72h-122v72h-84v85h84v50h-84v85h81z" />
<glyph unicode="&#xa6;" horiz-adv-x="186" d="M55 -18v303h79v-303h-79zM55 369v303h79v-303h-79z" />
<glyph unicode="&#xa7;" horiz-adv-x="401" d="M51 -24l50 81q47 -54 95 -54q17 0 29 13t12 23q0 17 -16 24q-3 2 -30 10q-18 4 -52 16q-68 26 -67 98q0 51 29 86q-30 28 -29 75q0 63 41 99q36 31 85 30q50 -1 118 -45l-34 -83q-60 41 -86 41q-28 0 -32 -14q-2 -6 -2 -22q0 -11 67 -26q99 -32 100 -116q0 -53 -27 -86 q27 -28 27 -75q1 -69 -43 -106q-38 -34 -96 -34q-74 -1 -139 65zM162 194q0 -7 35 -18l20 -6q19 13 20 30q0 16 -16 24q-6 3 -35 12q-24 -4 -24 -42z" />
<glyph unicode="&#xa8;" horiz-adv-x="313" d="M-26 643q0 27 18 48q19 26 54 26q34 0 54 -26q17 -22 18 -48q0 -28 -18 -49q-20 -25 -54 -25q-35 0 -54 25q-18 20 -18 49zM189 643q0 28 17 48q20 26 55 26q34 0 54 -26q17 -22 18 -48q0 -28 -18 -49q-20 -25 -54 -25q-35 0 -54 25q-18 20 -18 49z" />
<glyph unicode="&#xa9;" horiz-adv-x="815" d="M69 324q0 140 99 239.5t240 99.5q140 0 239 -99.5t99 -239.5t-99 -239.5t-239 -99.5t-239.5 99.5t-99.5 239.5zM135 324q0 -113 80 -193t193 -80t192.5 80t79.5 193t-80 192.5t-192 79.5q-113 0 -193 -79.5t-80 -192.5zM222 326q0 87 45 147q51 69 141 70q61 0 123 -36 l-24 -52q-60 37 -96 37q-66 0 -102 -63q-28 -49 -27 -112q0 -70 35.5 -115t88.5 -45q54 0 104 28l26 -43q-72 -38 -130 -38q-89 0 -140 69q-44 60 -44 153z" />
<glyph unicode="&#xab;" horiz-adv-x="399" d="M-1 296l159 166l109 -4l-133 -165l133 -164l-109 -4zM160 296l159 166l110 -4l-134 -165l134 -164l-110 -4z" />
<glyph unicode="&#xac;" horiz-adv-x="627" d="M90 230v121h481v-322h-117v201h-364z" />
<glyph unicode="&#xad;" horiz-adv-x="509" d="M53 292v64h404v-64h-404z" />
<glyph unicode="&#xae;" horiz-adv-x="815" d="M69 324q0 140 99 239.5t240 99.5q140 0 239 -99.5t99 -239.5t-99 -239.5t-239 -99.5t-239.5 99.5t-99.5 239.5zM135 324q0 -113 80 -193t193 -80t192.5 80t79.5 193t-80 192.5t-192 79.5q-113 0 -192.5 -79.5t-79.5 -192.5h-1zM272 117v420q99 2 132 2q115 -1 114 -116 q-1 -93 -100 -112q35 -48 70 -95q25 -32 87 -92l-72 -13q-35 35 -78 96q-28 40 -65 100l-29 -1v-189h-59zM331 350h43q52 0 73 21q17 18 18 59q0 70 -77 69l-57 -1v-148z" />
<glyph unicode="&#xaf;" horiz-adv-x="415" d="M108 608v67h239v-67h-239z" />
<glyph unicode="&#xb0;" horiz-adv-x="279" d="M-5 596q0 59 42.5 101t103.5 42t102.5 -42t41.5 -101t-41 -101t-103 -42q-61 0 -103.5 42t-42.5 101zM70 596q0 -31 20.5 -51.5t50.5 -20.5q31 0 50 20.5t19 51.5t-19 51.5t-50 20.5t-51 -20.5t-20 -51.5z" />
<glyph unicode="&#xb1;" horiz-adv-x="513" d="M53 266v98h154v165h95v-165h155v-98h-155v-175h-95v175h-154zM67 -39v89h385v-89h-385z" />
<glyph unicode="&#xb4;" horiz-adv-x="336" d="M48 641l220 91l33 -80l-219 -85z" />
<glyph unicode="&#xb5;" horiz-adv-x="520" d="M70 -201v699h105v-351q0 -75 91 -74q29 0 54.5 28t25.5 52v346h113v-379q-1 -70 27 -88q19 -13 43 -39l-86 -67q-66 39 -88 104l-9 -11q-47 -52 -95 -52q-41 0 -76 23v-191h-105z" />
<glyph unicode="&#xb6;" horiz-adv-x="519" d="M51 495q0 88 42 127q39 36 121 35h103v-657h-101v325q-166 0 -165 170zM346 0v657h101v-657h-101z" />
<glyph unicode="&#xb7;" horiz-adv-x="241" d="M42 423q0 41 26 71t63 30q38 0 63 -29.5t25 -71.5q0 -41 -25 -71t-63 -30q-37 0 -63 30t-26 71z" />
<glyph unicode="&#xb8;" horiz-adv-x="209" d="M11 -180l42 29q31 -36 61 -35q8 0 16 15.5t8 25.5q0 13 -7.5 24.5t-13.5 11.5q-30 0 -37 -16l-58 17l6 112l82 1l-4 -42h4q43 0 69 -32q23 -28 23 -64q0 -40 -20 -72q-25 -40 -69 -40q-73 0 -102 65z" />
<glyph unicode="&#xbb;" horiz-adv-x="402" d="M-17 129l135 164l-134 165l110 4l158 -166l-158 -171zM144 129l136 164l-136 165l112 4l158 -166l-158 -171z" />
<glyph unicode="&#xbf;" horiz-adv-x="470" d="M35 83q0 104 78 164q43 33 57 94q13 58 4 160h110q8 -48 8 -97q0 -156 -78 -227q-44 -41 -45 -41q-25 -28 -25 -54q0 -37 21 -57.5t53 -20.5q73 0 108 108l97 -52q-34 -86 -79 -125q-48 -41 -122 -40q-86 0 -139 61q-48 55 -48 127zM158 623q0 31 21.5 52.5t50.5 21.5 q30 0 51 -21t21 -53t-21 -54t-51 -22t-51 22t-21 54z" />
<glyph unicode="&#xc0;" horiz-adv-x="593" d="M30 2l212 668h104l216 -663l-119 -19l-57 184h-185l-56 -184zM160 795l48 66l215 -98l-49 -61zM228 267h130l-64 228z" />
<glyph unicode="&#xc1;" horiz-adv-x="581" d="M30 2l212 668h104l216 -663l-119 -19l-57 184h-185l-56 -184zM150 764l220 91l63 -80l-219 -85zM228 267h130l-64 228z" />
<glyph unicode="&#xc2;" horiz-adv-x="581" d="M30 2l212 668h104l216 -663l-119 -19l-57 184h-185l-56 -184zM150 677v100l140 109l145 -109v-99l-144 89zM228 267h130l-64 228z" />
<glyph unicode="&#xc3;" horiz-adv-x="593" d="M30 2l212 668h104l216 -663l-119 -19l-57 184h-185l-56 -184zM133 792q40 51 108 53q31 1 70.5 -26.5t49.5 -27.5q13 0 53 31l38 -78q-16 -16 -44.5 -27t-43.5 -11q-30 -1 -78 30q-37 24 -45 24q-27 0 -68 -48zM228 267h130l-64 228z" />
<glyph unicode="&#xc4;" horiz-adv-x="593" d="M30 2l212 668h104l216 -663l-119 -19l-57 184h-185l-56 -184zM119 776q0 28 16 48q20 26 55 26q34 0 55 -26q17 -22 17 -48q0 -28 -17 -49q-20 -25 -55 -25t-54 25q-17 20 -17 49zM228 267h130l-64 228zM334 776q0 28 16 48q20 26 56 26q33 0 54 -26q17 -22 17 -48 q0 -28 -17 -49q-20 -25 -54 -25q-35 0 -56 25q-16 20 -16 49z" />
<glyph unicode="&#xc5;" horiz-adv-x="593" d="M30 2l212 668h104l216 -663l-119 -19l-57 184h-185l-56 -184zM207 792q0 38 26 63t67 25t67 -25.5t26 -62.5q0 -39 -26 -64.5t-67 -25.5t-67 25.5t-26 64.5zM228 267h130l-64 228zM266 792q0 -45 34 -46q34 0 34 46q0 44 -34 44t-34 -44z" />
<glyph unicode="&#xc6;" horiz-adv-x="882" d="M24 2l219 668h106l104 -353v339h389v-98h-263v-158h245v-101h-245v-198h260v-102h-395l-54 173h-190l-57 -184zM232 278h127l-64 227z" />
<glyph unicode="&#xc7;" horiz-adv-x="583" d="M38 337q0 133 68 228q78 110 217 111q93 1 203 -65l-52 -111q-35 24 -70 46q-44 27 -76 26q-83 0 -130 -87q-38 -71 -38 -159q0 -98 47 -163.5t112 -65.5q55 0 159 59l57 -97q-70 -38 -103 -49q-43 -16 -92 -18l-3 -40q9 4 25 4q43 0 70 -30q23 -26 23 -61 q0 -36 -26 -62.5t-73 -26.5q-66 0 -89 49l38 35q29 -33 52 -33q36 0 36 35q0 40 -34 40q-14 0 -35 -16l-48 22l6 86q-120 15 -186 121q-58 92 -58 222z" />
<glyph unicode="&#xc8;" horiz-adv-x="500" d="M70 0v655h367v-107h-248v-148h232v-101l-232 1v-188l246 1v-113h-365zM129 795l47 66l216 -98l-50 -61z" />
<glyph unicode="&#xc9;" horiz-adv-x="480" d="M70 0v655h367v-107h-248v-148h232v-101l-232 1v-188l246 1v-113h-365zM119 774l219 91l63 -80l-219 -85z" />
<glyph unicode="&#xca;" horiz-adv-x="500" d="M70 0v655h367v-107h-248v-148h232v-101l-232 1v-188l246 1v-113h-365zM128 697v90l141 109l146 -109v-89l-146 79z" />
<glyph unicode="&#xcb;" horiz-adv-x="500" d="M70 0v655h367v-107h-248v-148h232v-101l-232 1v-188l246 1v-113h-365zM88 776q0 28 16 48q20 26 56 26q33 0 53 -26q17 -22 17 -48q0 -28 -17 -49q-19 -25 -53 -25q-35 0 -56 25q-16 20 -16 49zM302 776q0 27 17 48q19 26 55 26q34 0 54 -26q17 -22 17 -48q0 -28 -17 -49 q-20 -25 -54 -25q-35 0 -55 25q-17 20 -17 49z" />
<glyph unicode="&#xcc;" horiz-adv-x="220" d="M-11 795l48 66l215 -98l-49 -61zM49 0v657h132v-657h-132z" />
<glyph unicode="&#xcd;" horiz-adv-x="220" d="M-22 764l221 91l63 -80l-219 -85zM49 0v657h132v-657h-132z" />
<glyph unicode="&#xce;" horiz-adv-x="220" d="M-32 697v90l142 109l145 -109v-89l-145 79zM43 0v657h132v-657h-132z" />
<glyph unicode="&#xcf;" horiz-adv-x="220" d="M-62 766q0 28 16 48q20 26 55 26q33 0 53 -26q17 -22 18 -48q0 -28 -18 -49q-19 -25 -53 -25q-35 0 -55 25q-16 20 -16 49zM49 0v657h132v-657h-132zM152 766q0 27 17 48q19 26 54 26q34 0 55 -26q17 -22 17 -48q0 -28 -17 -49q-20 -25 -55 -25t-54 25q-17 20 -17 49z " />
<glyph unicode="&#xd0;" horiz-adv-x="578" d="M6 257v104h54v297q83 4 158 5q166 0 245 -77q82 -81 83 -255q1 -157 -80 -243q-83 -90 -242 -90q-26 0 -74 2t-90 2v255h-54zM183 110h66q81 0 127 64q41 58 41 147q0 119 -37 177q-42 65 -136 64h-29q-20 -1 -32 -1v-200h65v-104h-65v-147z" />
<glyph unicode="&#xd1;" horiz-adv-x="583" d="M70 -1v660h98l254 -394v390h115v-640l-87 -30q-80 145 -265 419v-403zM155 761q40 51 107 53q31 1 71 -26.5t50 -27.5q13 0 52 32l38 -78q-16 -16 -44.5 -27.5t-43.5 -11.5q-30 0 -78 31q-37 24 -45 23q-27 0 -67 -48z" />
<glyph unicode="&#xd2;" horiz-adv-x="659" d="M38 330q0 143 85 237.5t216 94.5t212.5 -94.5t81.5 -237.5q0 -163 -88 -257q-83 -89 -213 -89q-129 0 -209 89q-85 94 -85 257zM156 321q0 -96 51 -165.5t125 -69.5q75 0 129.5 69t54.5 164q0 99 -51 170.5t-128 71.5t-129 -71t-52 -169zM204 795l48 66l215 -98l-49 -61z " />
<glyph unicode="&#xd3;" horiz-adv-x="659" d="M38 330q0 143 85 237.5t216 94.5t212.5 -94.5t81.5 -237.5q0 -163 -88 -257q-83 -89 -213 -89q-129 0 -209 89q-85 94 -85 257zM156 321q0 -96 51 -165.5t125 -69.5q75 0 129.5 69t54.5 164q0 99 -51 170.5t-128 71.5t-129 -71t-52 -169zM194 764l220 91l63 -80l-219 -85 z" />
<glyph unicode="&#xd4;" horiz-adv-x="659" d="M38 330q0 143 85 237.5t216 94.5t212.5 -94.5t81.5 -237.5q0 -163 -88 -257q-83 -89 -213 -89q-129 0 -209 89q-85 94 -85 257zM156 321q0 -96 51 -165.5t125 -69.5q75 0 129.5 69t54.5 164q0 99 -51 170.5t-128 71.5t-129 -71t-52 -169zM200 677v100l141 109l145 -109 v-99l-145 89z" />
<glyph unicode="&#xd5;" horiz-adv-x="663" d="M38 330q0 143 85 237.5t216 94.5t212.5 -94.5t81.5 -237.5q0 -163 -88 -257q-83 -89 -213 -89q-129 0 -209 89q-85 94 -85 257zM155 771q40 51 107 53q31 1 71 -26.5t50 -27.5q13 0 52 32l38 -78q-16 -16 -44.5 -27.5t-43.5 -11.5q-30 0 -78 31q-37 24 -45 23 q-27 0 -67 -48zM156 321q0 -96 51 -165.5t125 -69.5q75 0 129.5 69t54.5 164q0 99 -51 170.5t-128 71.5t-129 -71t-52 -169z" />
<glyph unicode="&#xd6;" horiz-adv-x="663" d="M38 330q0 143 85 237.5t216 94.5t212.5 -94.5t81.5 -237.5q0 -163 -88 -257q-83 -89 -213 -89q-129 0 -209 89q-85 94 -85 257zM156 321q0 -96 51 -165.5t125 -69.5q75 0 129.5 69t54.5 164q0 99 -51 170.5t-128 71.5t-129 -71t-52 -169zM163 766q0 28 16 48q20 26 55 26 q34 0 55 -26q17 -22 17 -48q0 -28 -17 -49q-20 -25 -55 -25t-54 25q-17 20 -17 49zM378 766q0 28 16 48q20 26 56 26q33 0 54 -26q17 -22 17 -48q0 -28 -17 -49q-20 -25 -54 -25q-35 0 -56 25q-16 20 -16 49z" />
<glyph unicode="&#xd8;" horiz-adv-x="659" d="M33 330q0 143 85 237.5t216 94.5q23 0 42 -4l13 45l112 -34l-16 -51q67 -42 105 -117.5t38 -170.5q0 -163 -88 -257q-83 -89 -213 -89q-11 0 -32 2l-19 -62l-111 35l18 60q-150 87 -150 311zM151 321q0 -113 67 -186l128 425q-5 1 -14 1q-78 0 -129.5 -71t-51.5 -169z M326 86h1q75 0 129.5 69t54.5 164q0 111 -60 183z" />
<glyph unicode="&#xd9;" horiz-adv-x="584" d="M70 241v414h121v-414q0 -158 101 -158q45 0 76 35q36 42 35 123v414h122v-414q0 -129 -75 -199q-65 -59 -160 -59q-94 0 -153 60q-68 68 -67 198zM161 795l48 66l215 -98l-49 -61z" />
<glyph unicode="&#xda;" horiz-adv-x="584" d="M70 241v414h121v-414q0 -158 101 -158q45 0 76 35q36 42 35 123v414h122v-414q0 -129 -75 -199q-65 -59 -160 -59q-94 0 -153 60q-68 68 -67 198zM151 764l220 91l63 -80l-219 -85z" />
<glyph unicode="&#xdb;" horiz-adv-x="584" d="M70 241v414h121v-414q0 -158 101 -158q45 0 76 35q36 42 35 123v414h122v-414q0 -129 -75 -199q-65 -59 -160 -59q-94 0 -153 60q-68 68 -67 198zM148 687v90l142 109l145 -109v-89l-145 79z" />
<glyph unicode="&#xdc;" horiz-adv-x="533" d="M70 241v414h121v-414q0 -158 101 -158q45 0 76 35q36 42 35 123v414h122v-414q0 -129 -75 -199q-65 -59 -160 -59q-94 0 -153 60q-68 68 -67 198zM110 766q0 28 16 48q20 26 55 26q33 0 53 -26q17 -22 18 -48q0 -28 -18 -49q-19 -25 -53 -25q-35 0 -55 25q-16 20 -16 49z M324 766q0 27 17 48q19 26 54 26q34 0 55 -26q17 -22 17 -48q0 -28 -17 -49q-20 -25 -55 -25t-54 25q-17 20 -17 49z" />
<glyph unicode="&#xdd;" horiz-adv-x="515" d="M27 636l112 34l126 -286l124 286l109 -34l-174 -358v-278h-122v278zM140 713l219 91l64 -80l-219 -85z" />
<glyph unicode="&#xde;" horiz-adv-x="556" d="M61 -111v828h117v-83q67 59 106 59q104 0 167 -89q54 -78 55 -187q1 -144 -65 -217q-57 -63 -155 -64q-27 0 -54 16l-54 32v-295h-117zM178 287q15 -23 44.5 -39.5t58.5 -16.5q53 0 81 54q25 47 25 119q0 75 -28 126q-33 59 -93 60q-55 0 -88 -68v-235z" />
<glyph unicode="&#xdf;" horiz-adv-x="562" d="M53 -1v513q0 95 53 155q58 66 166 65q91 0 142.5 -51.5t51.5 -140.5q0 -69 -35 -129q-60 23 -85 22q-47 0 -47 -50q0 -18 24 -30q6 -3 54 -18q81 -26 115 -80q24 -38 23 -96q0 -73 -53.5 -123.5t-124.5 -50.5q-58 0 -82 11q-28 13 -73 66l51 81q30 -42 61 -53 q13 -5 48 -5q28 0 45 24q13 18 13 44q0 33 -34 52q-12 6 -62 22q-115 38 -115 161q0 41 36 87q42 54 100 54q23 0 46 -9q3 5 3 17q0 8 -1 22t-1 18q0 24 -34 38q-30 14 -71 15q-41 0 -71 -34t-30 -84v-513h-113z" />
<glyph unicode="&#xe0;" horiz-adv-x="502" d="M42 139q0 85 49 121q32 22 125 40q48 9 87 13v54q0 23 -18.5 42.5t-42.5 19.5q-93 0 -152 -70l-44 63q28 46 91 76q55 27 105 26q73 0 122.5 -47t49.5 -120v-257q0 -6 7.5 -14t15.5 -8q33 0 43 10l12 -65q-62 -34 -101 -34q-15 0 -40 18q-28 21 -35 48q-43 -38 -59 -49 q-34 -23 -68 -22q-61 0 -102 40q-45 44 -45 115zM99 652l219 -85l65 74l-220 91zM141 140q0 -29 18.5 -50.5t43.5 -21.5q62 0 102 49l1 111q-31 0 -75 -8q-49 -8 -65 -19q-25 -15 -25 -61z" />
<glyph unicode="&#xe1;" horiz-adv-x="502" d="M42 139q0 85 49 121q32 22 125 40q48 9 87 13v54q0 23 -18.5 42.5t-42.5 19.5q-93 0 -152 -70l-44 63q28 46 91 76q55 27 105 26q73 0 122.5 -47t49.5 -120v-257q0 -6 7.5 -14t15.5 -8q33 0 43 10l12 -65q-62 -34 -101 -34q-15 0 -40 18q-28 21 -35 48q-43 -38 -59 -49 q-34 -23 -68 -22q-61 0 -102 40q-45 44 -45 115zM129 641l220 91l64 -80l-219 -85zM141 140q0 -29 18.5 -50.5t43.5 -21.5q62 0 102 49l1 111q-31 0 -75 -8q-49 -8 -65 -19q-25 -15 -25 -61z" />
<glyph unicode="&#xe2;" horiz-adv-x="502" d="M42 139q0 85 49 121q32 22 125 40q48 9 87 13v54q0 23 -18.5 42.5t-42.5 19.5q-93 0 -152 -70l-44 63q28 46 91 76q55 27 105 26q73 0 122.5 -47t49.5 -120v-257q0 -6 7.5 -14t15.5 -8q33 0 43 10l12 -65q-62 -34 -101 -34q-15 0 -40 18q-28 21 -35 48q-43 -38 -59 -49 q-34 -23 -68 -22q-61 0 -102 40q-45 44 -45 115zM118 534v90l141 108l145 -108v-89l-145 78zM141 140q0 -29 18.5 -50.5t43.5 -21.5q62 0 102 49l1 111q-31 0 -75 -8q-49 -8 -65 -19q-25 -15 -25 -61z" />
<glyph unicode="&#xe3;" horiz-adv-x="502" d="M42 139q0 85 49 121q32 22 125 40q48 9 87 13v54q0 23 -18.5 42.5t-42.5 19.5q-93 0 -152 -70l-44 63q28 46 91 76q55 27 105 26q73 0 122.5 -47t49.5 -120v-257q0 -6 7.5 -14t15.5 -8q33 0 43 10l12 -65q-62 -34 -101 -34q-15 0 -40 18q-28 21 -35 48q-43 -38 -59 -49 q-34 -23 -68 -22q-61 0 -102 40q-45 44 -45 115zM79 648q40 51 107 53q31 1 71.5 -26.5t50.5 -27.5q12 0 51 32l39 -78q-16 -16 -44 -27.5t-44 -11.5q-32 0 -78 31q-36 24 -45 23q-27 0 -67 -48zM141 140q0 -29 18.5 -50.5t43.5 -21.5q62 0 102 49l1 111q-31 0 -75 -8 q-49 -8 -65 -19q-25 -15 -25 -61z" />
<glyph unicode="&#xe4;" horiz-adv-x="502" d="M42 139q0 85 49 121q32 22 125 40q48 9 87 13v54q0 23 -18.5 42.5t-42.5 19.5q-93 0 -152 -70l-44 63q28 46 91 76q55 27 105 26q73 0 122.5 -47t49.5 -120v-257q0 -6 7.5 -14t15.5 -8q33 0 43 10l12 -65q-62 -34 -101 -34q-15 0 -40 18q-28 21 -35 48q-43 -38 -59 -49 q-34 -23 -68 -22q-61 0 -102 40q-45 44 -45 115zM77 612q0 28 16 48q20 26 55 26q34 0 55 -26q17 -22 17 -48q0 -28 -17 -49q-20 -25 -55 -24q-35 0 -54 24q-17 20 -17 49zM141 140q0 -29 18.5 -50.5t43.5 -21.5q62 0 102 49l1 111q-31 0 -75 -8q-49 -8 -65 -19 q-25 -15 -25 -61zM292 612q0 28 16 48q20 26 56 26q33 0 54 -26q17 -22 17 -48q0 -28 -17 -49q-20 -25 -54 -24q-35 0 -56 24q-16 20 -16 49z" />
<glyph unicode="&#xe5;" horiz-adv-x="502" d="M42 139q0 85 49 121q32 22 125 40q48 9 87 13v54q0 23 -18.5 42.5t-42.5 19.5q-93 0 -152 -70l-44 63q28 46 91 76q55 27 105 26q73 0 122.5 -47t49.5 -120v-257q0 -6 7.5 -14t15.5 -8q33 0 43 10l12 -65q-62 -34 -101 -34q-15 0 -40 18q-28 21 -35 48q-43 -38 -59 -49 q-34 -23 -68 -22q-61 0 -102 40q-45 44 -45 115zM141 140q0 -29 18.5 -50.5t43.5 -21.5q62 0 102 49l1 111q-31 0 -75 -8q-49 -8 -65 -19q-25 -15 -25 -61zM154 669q0 38 25.5 63t66.5 25q42 0 67.5 -25t25.5 -63q0 -39 -25.5 -64t-67.5 -25q-41 0 -66.5 25t-25.5 64z M213 669q0 -45 33 -45q34 0 34 45q0 44 -34 44q-33 0 -33 -44z" />
<glyph unicode="&#xe6;" horiz-adv-x="793" d="M42 139q0 85 52 124q34 25 127 47q40 9 90 17v40q0 22 -18.5 37t-43.5 15q-47 0 -133 -70l-63 83q42 38 105 67q58 26 91 25q92 0 143 -67q66 62 168 62q79 0 131 -56t52 -152v-66h-307q2 -175 128 -175q55 0 116 80l55 -73q-72 -89 -178 -89q-117 0 -179 71 q-54 -47 -90 -60q-41 -15 -93 -15q-63 0 -107 40q-46 43 -46 115zM151 137q-1 -55 55 -55q34 0 65 14q40 17 40 47v76l-54 -9q-56 -10 -71 -16q-36 -16 -35 -57zM437 333h193v1q0 105 -76 105q-55 0 -81 -27q-19 -20 -36 -79z" />
<glyph unicode="&#xe7;" horiz-adv-x="494" d="M40 248q0 137 80 212q67 65 162 63q58 0 155 -65l-34 -71q-67 54 -131 54q-55 0 -86 -65q-27 -55 -26 -131q0 -79 33 -127.5t87 -48.5q60 0 133 65l46 -60q-72 -82 -169 -86h-4l-3 -36q9 4 25 4q43 0 70 -30q23 -25 23 -61t-24 -62q-28 -28 -75 -27q-65 0 -88 49l38 35 q29 -33 51 -33q37 0 37 35q0 40 -35 40q-14 0 -35 -16l-48 22l4 84h4q-105 18 -155 116q-35 67 -35 140zM214 -175l38 35q29 -33 51 -33q37 0 37 35q0 40 -35 40q-14 0 -35 -16l-48 22l5 84l59 -4l-3 -36q9 4 25 4q43 0 70 -30q24 -26 23 -61q0 -36 -24 -62q-28 -28 -75 -27 q-65 0 -88 49z" />
<glyph unicode="&#xe8;" horiz-adv-x="508" d="M40 253q0 116 61 190q66 79 178 79q77 0 129 -51q57 -56 57 -150v-77h-303q2 -173 120 -174q67 -1 133 64l46 -62q-53 -51 -93 -69q-36 -15 -94 -15q-134 0 -195 110q-39 72 -39 155zM151 652l219 -85l44 74l-220 91zM169 331h184q5 112 -82 111q-35 0 -61 -26 q-32 -31 -41 -85z" />
<glyph unicode="&#xe9;" horiz-adv-x="508" d="M40 253q0 116 61 190q66 79 178 79q77 0 129 -51q57 -56 57 -150v-77h-303q2 -173 120 -174q67 -1 133 64l46 -62q-53 -51 -93 -69q-36 -15 -94 -15q-134 0 -195 110q-39 72 -39 155zM129 641l220 91l33 -80l-219 -85zM169 331h184q5 112 -82 111q-35 0 -61 -26 q-32 -31 -41 -85z" />
<glyph unicode="&#xea;" horiz-adv-x="508" d="M40 253q0 116 61 190q66 79 178 79q77 0 129 -51q57 -56 57 -150v-77h-303q2 -173 120 -174q67 -1 133 64l46 -62q-53 -51 -93 -69q-36 -15 -94 -15q-134 0 -195 110q-39 72 -39 155zM138 574v91l142 108l145 -108v-90l-145 79zM169 331h184q5 112 -82 111q-35 0 -61 -26 q-32 -31 -41 -85z" />
<glyph unicode="&#xeb;" horiz-adv-x="508" d="M40 253q0 116 61 190q66 79 178 79q77 0 129 -51q57 -56 57 -150v-77h-303q2 -173 120 -174q67 -1 133 64l46 -62q-53 -51 -93 -69q-36 -15 -94 -15q-134 0 -195 110q-39 72 -39 155zM76 643q0 27 18 48q19 26 54 26q34 0 54 -26q17 -22 18 -48q0 -28 -18 -49 q-20 -25 -54 -25q-35 0 -54 25q-18 20 -18 49zM169 331h184q5 112 -82 111q-35 0 -61 -26q-32 -31 -41 -85zM291 643q0 28 17 48q20 26 55 26q34 0 54 -26q17 -22 18 -48q0 -28 -18 -49q-20 -25 -54 -25q-35 0 -54 25q-18 20 -18 49z" />
<glyph unicode="&#xec;" horiz-adv-x="254" d="M-13 652l219 -85l65 74l-220 91zM65 0v507h109v-507h-109z" />
<glyph unicode="&#xed;" horiz-adv-x="239" d="M-10 641l219 91l43 -80l-219 -85zM65 0v507h109v-507h-109z" />
<glyph unicode="&#xee;" horiz-adv-x="215" d="M-25 534v90l141 108l146 -108v-89l-146 78zM65 0v507h109v-507h-109z" />
<glyph unicode="&#xef;" horiz-adv-x="211" d="M-56 643q0 27 17 48q19 26 54 26q34 0 55 -26q17 -22 17 -48q0 -28 -17 -49q-20 -25 -55 -25t-54 25q-17 20 -17 49zM65 0v507h109v-507h-109zM159 643q0 28 16 48q20 26 55 26q34 0 55 -26q17 -22 17 -48q0 -28 -17 -49q-20 -25 -55 -25t-54 25q-17 20 -17 49z" />
<glyph unicode="&#xf0;" horiz-adv-x="592" d="M37 255q0 142 78 215q68 63 175 64q27 0 112 -59q0 23 -23 52q-13 15 -28 32h-143v75h90q-13 20 -57 65l76 55q60 -59 102 -120h137v-75h-77q26 -56 43 -142q16 -80 16 -131q-4 -303 -269 -303q-108 0 -174 89q-58 78 -58 183zM159 257q0 -73 37 -134q40 -66 94 -66 q66 0 100 62q30 53 31 135q1 100 1 99q-77 106 -134 106q-60 0 -97 -60q-33 -55 -32 -142z" />
<glyph unicode="&#xf1;" horiz-adv-x="497" d="M65 0v508h109v-91q62 106 126 106q65 0 111 -50q49 -53 49 -133v-340h-110v328q0 51 -18 79q-15 25 -40 24q-38 0 -78 -43.5t-40 -77.5v-310h-109zM100 648q40 51 108 53q31 1 71 -26.5t51 -27.5q12 0 51 32l39 -78q-16 -16 -44.5 -27.5t-43.5 -11.5q-32 0 -78 31 q-36 24 -45 23q-27 0 -68 -48z" />
<glyph unicode="&#xf2;" horiz-adv-x="556" d="M40 258q0 131 83 205q69 61 160 61q90 0 156 -61q80 -73 80 -205q0 -90 -46 -165q-65 -104 -191 -104q-138 0 -201 105q-41 70 -41 164zM159 252q0 -74 29 -125q33 -58 90 -58q58 0 92 59q31 52 30 129q0 75 -27 127q-32 59 -86 59q-62 0 -98 -60q-30 -53 -30 -131z M182 662l48 66l215 -98l-49 -61z" />
<glyph unicode="&#xf3;" horiz-adv-x="556" d="M40 258q0 131 83 205q69 61 160 61q90 0 156 -61q80 -73 80 -205q0 -90 -46 -165q-65 -104 -191 -104q-138 0 -201 105q-41 70 -41 164zM159 252q0 -74 29 -125q33 -58 90 -58q58 0 92 59q31 52 30 129q0 75 -27 127q-32 59 -86 59q-62 0 -98 -60q-30 -53 -30 -131z M172 641l220 91l64 -80l-219 -85z" />
<glyph unicode="&#xf4;" horiz-adv-x="556" d="M40 258q0 131 83 205q69 61 160 61q90 0 156 -61q80 -73 80 -205q0 -90 -46 -165q-65 -104 -191 -104q-138 0 -201 105q-41 70 -41 164zM148 534v90l142 108l145 -108v-89l-145 78zM159 252q0 -74 29 -125q33 -58 90 -58q58 0 92 59q31 52 30 129q0 75 -27 127 q-32 59 -86 59q-62 0 -98 -60q-30 -53 -30 -131z" />
<glyph unicode="&#xf5;" horiz-adv-x="556" d="M40 258q0 131 83 205q69 61 160 61q90 0 156 -61q80 -73 80 -205q0 -90 -46 -165q-65 -104 -191 -104q-138 0 -201 105q-41 70 -41 164zM133 648q40 51 108 53q31 1 70.5 -26.5t49.5 -27.5q13 0 53 32l38 -78q-16 -16 -44.5 -27.5t-43.5 -11.5q-30 0 -78 31 q-37 24 -45 23q-27 0 -68 -48zM159 252q0 -74 29 -125q33 -58 90 -58q58 0 92 59q31 52 30 129q0 75 -27 127q-32 59 -86 59q-62 0 -98 -60q-30 -53 -30 -131z" />
<glyph unicode="&#xf6;" horiz-adv-x="556" d="M40 258q0 131 83 205q69 61 160 61q90 0 156 -61q80 -73 80 -205q0 -90 -46 -165q-65 -104 -191 -104q-138 0 -201 105q-41 70 -41 164zM107 643q0 27 18 48q19 26 54 26q34 0 54 -26q17 -22 18 -48q0 -28 -18 -49q-20 -25 -54 -25q-35 0 -54 25q-18 20 -18 49zM159 252 q0 -74 29 -125q33 -58 90 -58q58 0 92 59q31 52 30 129q0 75 -27 127q-32 59 -86 59q-62 0 -98 -60q-30 -53 -30 -131zM322 643q0 28 17 48q20 26 55 26q34 0 54 -26q17 -22 18 -48q0 -28 -18 -49q-20 -25 -54 -25q-35 0 -54 25q-18 20 -18 49z" />
<glyph unicode="&#xf7;" horiz-adv-x="507" d="M53 266v103h414v-103h-414zM195 145q0 33 21.5 56.5t51.5 23.5q32 0 53.5 -23.5t21.5 -56.5q0 -34 -21.5 -57t-53.5 -23q-31 0 -52 23t-21 57zM195 492q0 34 21.5 57t51.5 23q32 0 53.5 -23.5t21.5 -56.5t-21.5 -56.5t-53.5 -23.5q-31 0 -52 23.5t-21 56.5z" />
<glyph unicode="&#xf8;" horiz-adv-x="559" d="M40 258q0 131 83 205q69 61 160 61h11l21 73l111 -35l-22 -73q115 -71 115 -231q0 -90 -46 -165q-65 -104 -191 -104q-18 0 -27 1l-19 -66l-110 35l19 67q-59 39 -86 116q-19 54 -19 116zM159 252q0 -61 21 -110l89 300q-54 -8 -84 -67q-27 -51 -26 -123zM279 69 q58 1 92 59q29 53 29 129q0 74 -27 127z" />
<glyph unicode="&#xf9;" horiz-adv-x="493" d="M65 170v337h109v-334q0 -96 53 -96q37 0 80 47q40 43 40 70v313h110v-507h-100q-3 28 -10 73q-71 -91 -127 -91q-63 0 -108 50q-47 54 -47 138zM151 662l47 66l216 -98l-50 -61z" />
<glyph unicode="&#xfa;" horiz-adv-x="493" d="M65 170v337h109v-334q0 -96 53 -96q37 0 80 47q40 43 40 70v313h110v-507h-100q-3 28 -10 73q-71 -91 -127 -91q-63 0 -108 50q-47 54 -47 138zM129 641l220 91l64 -80l-219 -85z" />
<glyph unicode="&#xfb;" horiz-adv-x="493" d="M65 170v337h109v-334q0 -96 53 -96q37 0 80 47q40 43 40 70v313h110v-507h-100q-3 28 -10 73q-71 -91 -127 -91q-63 0 -108 50q-47 54 -47 138zM128 534v90l141 108l146 -108v-89l-146 78z" />
<glyph unicode="&#xfc;" horiz-adv-x="493" d="M65 170v337h109v-334q0 -96 53 -96q37 0 80 47q40 43 40 70v313h110v-507h-100q-3 28 -10 73q-71 -91 -127 -91q-63 0 -108 50q-47 54 -47 138zM87 643q0 27 18 48q19 26 54 26q34 0 54 -26q17 -22 18 -48q0 -28 -18 -49q-20 -25 -54 -25q-35 0 -54 25q-18 20 -18 49z M302 643q0 28 17 48q20 26 55 26q34 0 54 -26q17 -22 18 -48q0 -28 -18 -49q-20 -25 -54 -25q-35 0 -54 25q-18 20 -18 49z" />
<glyph unicode="&#xfd;" horiz-adv-x="491" d="M17 -176l33 97q38 -20 72 -20q52 -1 88 132l-186 451l116 31l121 -375l111 373l103 -26l-204 -567q-18 -48 -54 -81q-44 -40 -100 -40q-29 0 -100 25zM126 659l220 91l33 -80l-219 -85z" />
<glyph unicode="&#xfe;" horiz-adv-x="534" d="M61 -200v901h116v-259q45 43 56 52q35 27 64 26q99 0 157 -76q50 -70 51 -175q1 -146 -66 -221q-59 -67 -160 -66q-42 0 -71 14q-6 3 -28 17l-3 2v-215h-116zM177 114q14 -13 46.5 -26t55.5 -13q53 0 81 58q26 51 26 126q0 68 -22 112q-27 52 -80 52q-27 0 -61 -40 q-27 -33 -46 -74v-195z" />
<glyph unicode="&#xff;" horiz-adv-x="478" d="M23 -176l32 97q38 -20 72 -20q31 0 56 59q15 45 30 89l-184 435l108 31l130 -375l111 373l102 -26l-204 -567q-17 -48 -54 -81q-44 -40 -100 -40q-26 0 -99 25zM66 612q0 28 16 48q20 26 55 26q33 0 53 -26q17 -22 18 -48q0 -28 -18 -49q-19 -25 -53 -24q-35 0 -55 24 q-16 20 -16 49zM280 612q0 27 17 48q19 26 54 26q34 0 55 -26q17 -22 17 -48q0 -28 -17 -49q-20 -25 -55 -24q-35 0 -54 24q-17 20 -17 49z" />
<glyph unicode="&#x131;" horiz-adv-x="238" d="M65 0v507h109v-507h-109z" />
<glyph unicode="&#x141;" horiz-adv-x="513" d="M6 240v115l53 21v280h121v-233l64 24v-116l-64 -25v-198h269v-108h-390v260z" />
<glyph unicode="&#x142;" horiz-adv-x="288" d="M15 262l1 119l55 31v245h111v-182l67 37l1 -118l-68 -38l1 -356h-112v294z" />
<glyph unicode="&#x152;" horiz-adv-x="1052" d="M43 348q0 143 86 234t221 91q154 0 249 -151v132h388v-107h-294v-148h285v-101h-285v-188h294v-110h-388v161q-98 -164 -255 -164q-132 0 -215 92q-86 96 -86 259zM165 339q0 -97 52 -168t127 -71q76 0 131 71t55 168q0 98 -50.5 165t-130.5 67t-132 -67.5t-52 -164.5z " />
<glyph unicode="&#x153;" horiz-adv-x="1057" d="M91 258q0 131 86 205q71 61 166 61q61 0 117 -29q62 -33 96 -96q66 120 205 120q80 0 130 -50q55 -53 55 -148v-77h-302q7 -174 110 -174q72 0 129 82l63 -82q-88 -82 -200 -82q-83 0 -132 38q-36 28 -63 86q-67 -123 -209 -123q-143 0 -208 105q-43 70 -43 164zM214 252 q0 -72 31 -121q34 -53 93 -53q61 0 96 54q31 50 31 125q0 74 -30 122q-32 54 -88 54q-66 0 -101 -55q-32 -49 -32 -126zM657 331h183q-2 41 -22 71q-24 37 -64 37q-89 0 -97 -108z" />
<glyph unicode="&#x160;" horiz-adv-x="503" d="M25 84l55 79q61 -72 140 -72q108 0 107 105q0 53 -75 84q-122 51 -136 61q-74 51 -73 157q1 84 67 137q56 45 122 45q106 0 193 -73l-41 -86q-70 66 -132 66q-42 0 -62 -17q-25 -20 -24 -73q0 -47 72 -76q112 -45 134 -62q73 -54 72 -161q0 -105 -68 -161 q-59 -47 -148 -47q-136 0 -203 94zM170 796v99l145 -89l142 90v-100l-141 -108z" />
<glyph unicode="&#x161;" horiz-adv-x="447" d="M47 68l57 76q54 -72 120 -71q33 0 53 18.5t20 46.5q0 51 -117 85q-58 16 -85 42q-35 34 -35 92q0 83 55 129q46 40 113 40h2q69 0 156 -55l-40 -76q-59 42 -108 42q-33 0 -51 -17.5t-18 -39.5q0 -28 22 -37q36 -14 70 -25q147 -44 148 -149q0 -89 -59 -139 q-52 -44 -130 -44q-111 0 -173 82zM128 642v99l145 -89l142 90v-100l-141 -108z" />
<glyph unicode="&#x178;" horiz-adv-x="493" d="M27 636l112 34l126 -286l124 286l109 -34l-174 -358v-278h-122v278zM98 776q0 28 17 48q20 26 55 26q34 0 54 -26q17 -22 18 -48q0 -28 -18 -49q-20 -25 -54 -25q-35 0 -54 25q-18 20 -18 49zM313 776q0 28 17 48q20 26 55 26q33 0 54 -26q17 -22 18 -48q0 -28 -18 -49 q-20 -25 -54 -25q-35 0 -55 25q-17 20 -17 49z" />
<glyph unicode="&#x17d;" horiz-adv-x="557" d="M70 88l285 475l-269 -2v93h401l12 -83l-285 -470h281v-101h-416zM190 785v100l146 -89l141 90v-101l-140 -108z" />
<glyph unicode="&#x17e;" horiz-adv-x="493" d="M59 0v79l208 285q10 15 40 54h-238v88h373v-82l-192 -268q-13 -22 -43 -62h248v-94h-396zM168 642v99l145 -89l142 90v-100l-141 -108z" />
<glyph unicode="&#x192;" horiz-adv-x="369" d="M24 406l10 103l71 1q22 216 175 218q47 0 76 -14q5 -3 64 -44l-61 -86q-56 37 -86 37q-51 0 -60 -110h129l-9 -102h-126l-47 -534l-111 -1l48 533z" />
<glyph unicode="&#x2c6;" horiz-adv-x="345" d="M36 534v90l141 108l146 -108v-89l-146 78z" />
<glyph unicode="&#x2c7;" horiz-adv-x="345" d="M36 642v99l145 -89l142 90v-100l-141 -108z" />
<glyph unicode="&#x2d8;" horiz-adv-x="353" d="M27 657l77 10q25 -48 70 -49q42 0 65 50l76 -11q-37 -106 -140 -106q-109 0 -148 106z" />
<glyph unicode="&#x2d9;" horiz-adv-x="242" d="M56 590q0 30 21.5 49.5t53.5 19.5q31 0 53 -20.5t22 -48.5q0 -29 -21.5 -49.5t-53.5 -20.5t-53.5 20.5t-21.5 49.5z" />
<glyph unicode="&#x2da;" horiz-adv-x="312" d="M83 679q0 38 26 63t67 25t67 -25t26 -63q0 -39 -26 -64t-67 -25t-67 25t-26 64zM142 679q0 -45 34 -45t34 45q0 44 -34 44t-34 -44z" />
<glyph unicode="&#x2dc;" horiz-adv-x="384" d="M41 648q42 51 109 53q31 1 70 -26.5t50 -27.5q14 0 52 32l38 -78q-16 -16 -44 -27.5t-44 -11.5q-31 0 -77 31q-36 24 -45 23q-27 0 -68 -48z" />
<glyph unicode="&#x2dd;" horiz-adv-x="370" d="M18 574l114 117h102l-112 -117h-104zM180 574l113 117h103l-113 -117h-103z" />
<glyph unicode="&#x3a9;" horiz-adv-x="661" d="M41 366q0 141 78 216q74 71 207 70q132 0 203 -72.5t71 -213.5q0 -76 -51 -149t-122 -89v-27h152v-101h-236v208q60 0 101 52q37 46 37 95q0 204 -156 205q-78 0 -122 -53.5t-44 -151.5q0 -53 30 -95q39 -52 108 -52v-208h-235v101h148v27q-70 18 -119.5 90t-49.5 148z " />
<glyph unicode="&#x3c0;" horiz-adv-x="530" d="M71 420v100h402v-520h-119v420h-127v-420h-118v420h-38z" />
<glyph unicode="&#x2000;" horiz-adv-x="448" />
<glyph unicode="&#x2001;" horiz-adv-x="896" />
<glyph unicode="&#x2002;" horiz-adv-x="448" />
<glyph unicode="&#x2003;" horiz-adv-x="896" />
<glyph unicode="&#x2004;" horiz-adv-x="298" />
<glyph unicode="&#x2005;" horiz-adv-x="224" />
<glyph unicode="&#x2006;" horiz-adv-x="149" />
<glyph unicode="&#x2007;" horiz-adv-x="149" />
<glyph unicode="&#x2008;" horiz-adv-x="112" />
<glyph unicode="&#x2009;" horiz-adv-x="179" />
<glyph unicode="&#x200a;" horiz-adv-x="49" />
<glyph unicode="&#x2011;" horiz-adv-x="389" d="M51 273v96h287v-96h-287z" />
<glyph unicode="&#x2012;" horiz-adv-x="389" d="M51 273v96h287v-96h-287z" />
<glyph unicode="&#x2013;" d="M35 299v73h442v-73h-442z" />
<glyph unicode="&#x2014;" horiz-adv-x="1024" d="M28 299v73h968v-73h-968z" />
<glyph unicode="&#x2018;" horiz-adv-x="141" d="M1 505q0 37 25 96q21 54 47 90l67 -3q-19 -42 -26 -95q-1 -10 -5 -88h-108z" />
<glyph unicode="&#x2019;" horiz-adv-x="141" d="M1 518q19 42 27 95q1 10 5 88h107q0 -37 -24 -101q-22 -60 -47 -95z" />
<glyph unicode="&#x201a;" horiz-adv-x="219" d="M1 -96q19 42 27 95q1 10 5 88h107q0 -37 -24 -101q-22 -61 -47 -96z" />
<glyph unicode="&#x201c;" horiz-adv-x="439" d="M52 505q0 37 25 96q21 54 47 90l67 -3q-19 -42 -26 -95q-1 -10 -5 -88h-108zM257 505q0 37 25 96q21 54 47 90l67 -3q-19 -42 -26 -95q-1 -10 -5 -88h-108z" />
<glyph unicode="&#x201d;" horiz-adv-x="439" d="M52 508q19 42 27 95q1 10 5 88h107q0 -37 -24 -101q-22 -60 -47 -95zM257 508q19 42 27 95q1 10 5 88h107q0 -37 -24 -101q-22 -60 -47 -95z" />
<glyph unicode="&#x201e;" horiz-adv-x="427" d="M52 -106q19 42 27 95q1 10 5 88h107q0 -37 -24 -102q-22 -60 -47 -95zM257 -106q19 42 27 95q1 10 5 88h107q0 -37 -24 -102q-22 -60 -47 -95z" />
<glyph unicode="&#x2020;" horiz-adv-x="226" d="M24 547v67h49v57h65v-57h59v-67h-59v-206h-65v206h-49z" />
<glyph unicode="&#x2021;" horiz-adv-x="226" d="M4 392v61h62v82h-62v59h62v77h78v-77h64v-59h-64v-82h64v-61h-64v-141h-78v141h-62z" />
<glyph unicode="&#x2022;" horiz-adv-x="288" d="M49 298q0 44 27.5 73t66.5 29q38 0 66 -29t28 -73t-28 -73.5t-66 -29.5q-39 0 -66.5 29t-27.5 74z" />
<glyph unicode="&#x2026;" horiz-adv-x="921" d="M128 54q0 43 28 69q25 23 61 22q37 0 62.5 -24t25.5 -67q0 -42 -25.5 -66.5t-62.5 -24.5q-36 0 -62.5 24.5t-26.5 66.5zM373 54q0 43 27 69q25 23 62 22q37 0 62.5 -24t25.5 -67q0 -42 -25.5 -66.5t-62.5 -24.5q-36 0 -62.5 24.5t-26.5 66.5zM617 54q0 43 28 69 q25 23 62 22q37 0 62.5 -24t25.5 -67q0 -42 -26 -66.5t-62 -24.5t-63 24.5t-27 66.5z" />
<glyph unicode="&#x202f;" horiz-adv-x="179" />
<glyph unicode="&#x2030;" horiz-adv-x="907" d="M23 530q0 57 35 96.5t88 39.5q54 0 89.5 -38.5t35.5 -97.5q0 -65 -34.5 -100.5t-90.5 -35.5q-54 0 -88.5 35.5t-34.5 100.5zM24 -47l388 696l104 -39l-382 -694zM121 527q0 -42 25 -42q26 0 26 42q0 45 -27 45q-24 0 -24 -45zM341 127q0 57 36.5 96t89.5 39t88.5 -39 t35.5 -96q0 -67 -34.5 -102t-89.5 -35q-56 0 -91 35.5t-35 101.5zM441 124q0 -43 26 -43t26 43q0 14 -7 28q-8 17 -20 17q-25 0 -25 -45zM612 127q0 57 36 96t89 39t88.5 -39t35.5 -96q0 -67 -34 -102t-90 -35q-55 0 -90 35.5t-35 101.5zM712 124q0 -43 25 -43q26 0 26 43 q0 14 -6 28q-8 17 -21 17q-24 0 -24 -45z" />
<glyph unicode="&#x2039;" horiz-adv-x="326" d="M50 296l150 166l104 -4l-127 -165l127 -164l-104 -4z" />
<glyph unicode="&#x203a;" horiz-adv-x="324" d="M31 129l126 164l-126 165l103 4l150 -166l-150 -171z" />
<glyph unicode="&#x2044;" horiz-adv-x="549" d="M54 129l372 479l106 -67l-371 -480z" />
<glyph unicode="&#x205f;" horiz-adv-x="224" />
<glyph unicode="&#x2122;" horiz-adv-x="656" d="M15 604v53h254v-53h-91v-281h-65v281h-98zM295 323v336h80l91 -234l91 234h77v-336h-66v203l-78 -203h-55l-79 205v-205h-61z" />
<glyph unicode="&#x2202;" horiz-adv-x="565" d="M44 244q-1 141 70 213q62 63 170 63q70 0 124 -57q-8 27 -26 62q-20 39 -35 49q-34 26 -96 26q-71 0 -148 -35l-31 116q82 25 159 25q111 0 172 -46q119 -87 119 -355q0 -150 -49 -227q-59 -95 -197 -95q-108 0 -173 83q-58 75 -59 178zM165 257q0 -72 33.5 -120.5 t88.5 -48.5q129 0 129 184q0 40 -5 78q-55 76 -128 76q-54 0 -86 -43.5t-32 -125.5z" />
<glyph unicode="&#x2206;" horiz-adv-x="705" d="M79 0l249 673h108l229 -673h-586zM241 92h263l-123 410z" />
<glyph unicode="&#x220f;" horiz-adv-x="609" d="M126 0v657h397v-657h-126v542h-145v-542h-126z" />
<glyph unicode="&#x2211;" horiz-adv-x="502" d="M93 549l13 99h353v-107h-204l177 -184l-185 -245l212 1v-113h-365v93l194 254z" />
<glyph unicode="&#x221a;" horiz-adv-x="515" d="M52 315l104 58l26 -144l81 425h109l-135 -664h-99z" />
<glyph unicode="&#x221e;" horiz-adv-x="548" d="M9 408q0 56 45.5 96t110.5 40q63 0 109 -40q45 40 110 40q63 0 109 -40t46 -96t-46 -97t-109 -41q-66 0 -110 41q-46 -41 -109 -41q-65 0 -110.5 40t-45.5 98zM99 409q0 -27 19.5 -42t46.5 -15q26 0 45 15t19 42q0 23 -19 39.5t-45 16.5q-28 0 -47 -16.5t-19 -39.5z M319 409q0 -24 18.5 -41t46.5 -17t46.5 17t18.5 41q0 23 -18.5 39.5t-46.5 16.5t-46.5 -16.5t-18.5 -39.5z" />
<glyph unicode="&#x222b;" horiz-adv-x="310" d="M18 -119l26 123q49 -29 73 -29q42 0 42 106q0 38 -47 199q-49 168 -50 257q0 82 37 133q44 60 133 60q39 0 101 -37l-52 -112q-36 28 -51 28q-46 0 -46 -73q0 -45 46 -210q48 -172 49 -261q0 -86 -33 -140q-42 -69 -132 -68q-22 0 -96 24z" />
<glyph unicode="&#x2248;" horiz-adv-x="548" d="M129 162q52 62 104 62q33 0 66 -21.5t39 -21.5q5 0 28 24q10 12 21 24l39 -97q-49 -51 -95 -51q-27 0 -64 29q-28 22 -37 21q-12 0 -25 -15q-7 -8 -38 -54zM129 344q52 62 104 63q33 0 66 -22.5t39 -22.5q5 0 28 25q10 12 21 25l39 -98q-49 -51 -95 -51q-29 0 -64 29 q-27 22 -37 21q-12 0 -25 -15q-6 -7 -38 -54z" />
<glyph unicode="&#x2260;" horiz-adv-x="451" d="M52 128v100h113l15 44h-128v101h161l59 179l92 -33l-50 -146h84v-101h-116l-16 -44h132v-100h-165l-49 -148l-90 32l38 116h-80z" />
<glyph unicode="&#x2264;" horiz-adv-x="256" d="M13 289l150 170l104 -4l-127 -169l127 -167l-104 -5zM22 4v75h226v-75h-226z" />
<glyph unicode="&#x2265;" horiz-adv-x="256" d="M3 119l126 167l-126 169l103 4l150 -170l-150 -175zM22 4v75h226v-75h-226z" />
<glyph unicode="&#x25ca;" horiz-adv-x="589" d="M12 341l270 262l268 -262l-268 -261zM163 340l122 -118l121 118l-121 119z" />
</font>
</defs>
</svg>
