<?xml version="1.0" standalone="no"?>
<!DOCTYPE svg PUBLIC "-//W3C//DTD SVG 1.1//EN" "http://www.w3.org/Graphics/SVG/1.1/DTD/svg11.dtd" >
<svg xmlns="http://www.w3.org/2000/svg">
<metadata>
This is a custom SVG webfont generated by Font Squirrel.
Copyright   :  1990 1991 1992 1994 1997 1998 2000 2002 2004 Adobe Systems Incorporated All rights reserved Protected by US Patents D337604 D338907 D508943
Designer    : Robert Slimbach
Foundry URL : httpwwwadobecomtype
</metadata>
<defs>
<font id="MinionProMediumItalic" horiz-adv-x="983" >
<font-face units-per-em="2048" ascent="1489" descent="-559" />
<missing-glyph horiz-adv-x="464" />
<glyph unicode=" "  horiz-adv-x="464" />
<glyph unicode="&#x09;" horiz-adv-x="464" />
<glyph unicode="&#xa0;" horiz-adv-x="464" />
<glyph unicode="!" horiz-adv-x="534" d="M96 94q0 63 37 103.5t96 40.5q47 0 79 -35t32 -90q0 -61 -40 -99.5t-91 -38.5h-2q-49 0 -80 34t-31 85zM242 410q8 82 21 227t25.5 267t20.5 229q8 125 17 163q12 63 131 64h2q61 0 86 -17q20 -13 19 -36q0 -6 -1 -13q-8 -43 -43 -159l-211 -725q-10 -12 -36.5 -12 t-30.5 12z" />
<glyph unicode="&#x22;" horiz-adv-x="722" d="M262 961q57 319 62 444l163 49l19 -18q-18 -68 -75.5 -216.5t-102.5 -230.5zM592 961q59 350 59 444l164 49l21 -18q-23 -72 -79.5 -218.5t-99.5 -228.5z" />
<glyph unicode="#" d="M76 401l26 129h207l82 277h-188l28 129h197l94 317h88l-94 -317h219l96 317h87l-95 -317h176l-26 -129h-187l-81 -277h167l-24 -129h-182l-107 -360h-86l105 360h-222l-104 -360h-88l106 360h-194zM397 530h219l84 277h-221z" />
<glyph unicode="$" d="M78 414l57 6q8 -55 25.5 -105.5t48.5 -103.5t82 -89t117 -44l94 506l-41 26q-233 135 -234 316q0 156 118 248t288 94l33 155h73l-28 -157q100 -4 241 -76q-2 -12 -10 -264l-61 -6q-12 238 -185 278l-88 -459l43 -28q117 -72 178.5 -148t61.5 -186q0 -164 -124 -262.5 t-300 -104.5l-33 -172h-76l35 170q-113 6 -194.5 45t-116.5 78q0 148 -4 283zM389 987q0 -119 152 -211l80 426q-111 -2 -171.5 -65.5t-60.5 -149.5zM481 76q111 8 172.5 75.5t61.5 165.5q0 74 -34 125.5t-112 106.5z" />
<glyph unicode="%" horiz-adv-x="1560" d="M188 842q0 168 104.5 313t262.5 145q117 0 175 -80.5t58 -201.5q0 -168 -105 -312.5t-263 -144.5q-115 0 -173.5 81t-58.5 200zM287 -8l1020 1345l59 -49l-1020 -1347zM336 805q0 -180 94 -180q72 0 123 93t69.5 190.5t18.5 170.5q0 158 -94 158q-68 0 -119 -84 t-71.5 -179t-20.5 -169zM870 256q0 168 104.5 313.5t262.5 145.5q115 0 174 -81t59 -200v-4q0 -166 -105 -310.5t-263 -144.5q-115 0 -173.5 81t-58.5 200zM1018 217q0 -178 94 -178q72 0 123 93t69.5 190.5t18.5 169.5q0 160 -94 159q-68 0 -119 -84t-71.5 -179t-20.5 -171 z" />
<glyph unicode="&#x26;" horiz-adv-x="1564" d="M135 438q0 233 168 410q55 59 126 100t122 41q57 0 91 -41t34 -104q0 -25 -4 -51h2q250 236 250 417q0 27 -13 76q-1 6 -1 12q0 25 22 49q27 30 63 29q39 0 61.5 -32.5t22.5 -86.5q0 -170 -241 -407q-242 -240 -537 -416q25 -143 122 -223t228 -80q178 0 309.5 140.5 t192.5 377.5q-111 72 -166 72q-39 0 -61.5 -24.5t-22.5 -61.5q0 -53 21 -90q16 -27 16 -39q-2 -18 -27.5 -31.5t-50.5 -13.5q-35 0 -60.5 32.5t-25.5 75.5q0 92 125 189q39 31 90 52t80 21q104 0 313 -165q37 -31 58 -31q37 0 39 207h65q6 -61 6 -127q0 -244 -114 -244 q-37 0 -97 43q-98 72 -127 90q-70 -258 -198 -405q-186 -223 -451 -224q-184 0 -307 124t-123 339zM291 545q0 -25 2 -39q139 80 246 178q10 37 10 85q0 47 -21 80q-23 36 -59 36q-61 0 -119.5 -98.5t-58.5 -241.5z" />
<glyph unicode="'" horiz-adv-x="397" d="M262 961q57 324 62 444l163 49l21 -18q-20 -66 -78.5 -214.5t-101.5 -232.5z" />
<glyph unicode="(" horiz-adv-x="702" d="M160 352q0 371 169 669t443 435l35 -49q-227 -152 -362.5 -448.5t-135.5 -634.5q0 -414 172 -629l-49 -41q-135 111 -203.5 302t-68.5 396z" />
<glyph unicode=")" horiz-adv-x="688" d="M-33 -297q217 150 346 424t142 582q6 61 5 122q0 139 -29 275q-42 197 -140 309l49 41q147 -115 216 -328q54 -168 54 -352q0 -50 -4 -100q-14 -334 -176 -611.5t-430 -410.5z" />
<glyph unicode="*" horiz-adv-x="815" d="M213 827l223 179l-205 225l37 45l238 -182l135 266l53 -17l-73 -282l274 -17l-2 -57l-275 -37l64 -286l-51 -19l-129 275l-258 -142z" />
<glyph unicode="+" horiz-adv-x="1224" d="M152 469v106h428v422h122v-422h428v-106h-428v-469h-122v469h-428z" />
<glyph unicode="," horiz-adv-x="491" d="M-10 -174q82 33 132 82q52 51 52 110q0 89 -94 119q-20 6 -21 31q2 45 34 74.5t73 29.5q68 0 112 -61q40 -56 40 -130q0 -7 -1 -13q-4 -115 -92 -192t-211 -112z" />
<glyph unicode="-" horiz-adv-x="686" d="M100 403l37 119h477l-36 -119h-478z" />
<glyph unicode="." horiz-adv-x="491" d="M80 88q0 59 35 97t90 38q47 0 76.5 -32.5t29.5 -81.5q0 -61 -37.5 -97.5t-89.5 -36.5q-45 0 -74.5 32t-29.5 81z" />
<glyph unicode="/" horiz-adv-x="659" d="M-29 -92l656 1452h112l-655 -1452h-113z" />
<glyph unicode="0" d="M102 473q4 127 41 265.5t102.5 267.5t175 211.5t241.5 82.5q172 0 246 -139q67 -126 68 -302q0 -19 -1 -40q-4 -131 -40 -272t-99.5 -272.5t-172 -215.5t-239.5 -84q-174 0 -252 142q-70 128 -70 316q-1 20 0 40zM291 416q-2 -34 -2 -65q0 -306 147 -306q82 0 150.5 92 t108.5 229.5t63.5 271.5t27.5 243q3 39 3 75q0 48 -5 91q-8 74 -42.5 129t-96.5 55q-82 0 -151.5 -85t-110.5 -215t-64.5 -264t-27.5 -251z" />
<glyph unicode="1" d="M156 0l12 55q137 12 169 40t58 157l148 749q9 46 9 75t-9 40q-18 23 -109 25h-67l12 53q215 31 397 106l-203 -1048q-12 -62 -12 -101q0 -40 13 -55q26 -29 171 -41l-14 -55h-575z" />
<glyph unicode="2" d="M6 0l4 45q266 223 404 356q170 166 260 292t90 249q0 98 -52.5 157.5t-158.5 59.5q-143 0 -283 -182l-45 43l131 168q125 113 274.5 112.5t236.5 -87.5t87 -236q0 -61 -21.5 -121.5t-50 -107t-92 -111t-107.5 -102.5l-136 -119l-295 -256h358q88 0 128 21.5t100 107.5 l53 -25q-33 -70 -115 -264h-770z" />
<glyph unicode="3" d="M117 209q25 16 43 -2q123 -127 256 -127q123 0 201.5 83t78.5 243q0 119 -66.5 182t-164.5 63q-47 0 -119 -16l-10 57q385 104 385 314q0 80 -45 125t-125 45q-51 0 -101.5 -27t-79 -55.5t-67.5 -75.5l-41 45l100 127q111 111 269 110q125 0 199.5 -71.5t74.5 -177.5 q0 -109 -94 -187q-72 -55 -160 -104v-4q111 -31 176.5 -107t65.5 -186q0 -205 -225 -361q-88 -61 -189.5 -94t-177.5 -33q-125 0 -201 72q-42 36 -41 74q0 48 58 88z" />
<glyph unicode="4" d="M43 365l12 59q461 559 766 864h101l-162 -831h192l-18 -92h-191l-24 -132q-10 -55 -10 -89q0 -36 11 -51q22 -28 140 -38l-14 -55h-531l13 55q129 10 160.5 37t54.5 141l26 132h-526zM190 457h396l131 622h-6q-249 -272 -521 -622z" />
<glyph unicode="5" d="M73 177q17 24 38 36q23 14 45 -6q117 -127 266 -127q123 0 197.5 85t74.5 236q0 133 -71.5 210t-214.5 77q-90 0 -183 -33l-14 19l168 602h592l-66 -160h-477l-113 -364q168 49 217 49q164 0 259.5 -94.5t95.5 -231.5q0 -117 -68.5 -220t-191.5 -179q-160 -100 -316 -101 q-70 0 -131 24t-94 56q-36 36 -36 70q1 22 23 52z" />
<glyph unicode="6" d="M92 403q0 297 182.5 525.5t483.5 322.5q123 39 268 62l12 -66q-113 -18 -227 -67q-338 -143 -465 -455l4 -4l127 61q74 35 125 35q147 0 236.5 -97t89.5 -255q0 -203 -138.5 -346.5t-326.5 -143.5q-170 0 -270.5 120t-100.5 308zM283 393q0 -145 53 -246.5t158 -101.5 q109 0 176 111.5t67 271.5q0 117 -54 197t-179 80q-86 0 -182 -62q-39 -100 -39 -250z" />
<glyph unicode="7" d="M119 0q479 594 796 1116h-430q-94 0 -132 -25.5t-91 -127.5l-57 18q49 125 90 295h778l17 -25l-783 -1253l-174 -23z" />
<glyph unicode="8" d="M78 295q0 121 112 215q57 49 226 152q-168 133 -168 286q0 145 116.5 248.5t280.5 103.5q125 0 217 -77.5t92 -204.5q0 -117 -92 -195l-186 -129q115 -86 171 -158.5t56 -175.5q0 -160 -135 -272.5t-322 -112.5q-154 0 -261 85t-107 235zM260 295q0 -109 58.5 -179.5 t160.5 -70.5q100 0 168 72.5t68 189.5q0 94 -57.5 158.5t-184.5 155.5q-213 -133 -213 -326zM416 1014q0 -66 33.5 -122t64.5 -81t90 -66q10 -6 14 -10q170 111 170 285q0 94 -48 152.5t-128 58.5q-86 0 -141 -63.5t-55 -153.5z" />
<glyph unicode="9" d="M86 29q213 41 395.5 187t263.5 374l-141 -68q-61 -31 -115 -30q-129 0 -220 95t-91 247q0 188 136.5 327t318.5 139q174 0 265 -125.5t91 -304.5q0 -293 -174 -519t-438 -324q-174 -59 -281 -60zM369 883q0 -123 59 -198t168 -75q96 0 168 54q37 102 37 247 q0 47 -6.5 93.5t-24.5 102.5t-60 90t-106 34q-100 0 -167.5 -103.5t-67.5 -244.5z" />
<glyph unicode=":" horiz-adv-x="491" d="M80 88q0 57 36 96t89 39q47 0 76.5 -32.5t29.5 -84.5q0 -59 -37.5 -95t-89.5 -36q-45 0 -74.5 32t-29.5 81zM172 713q0 59 35 97t90 38q47 0 76.5 -33t29.5 -84q0 -59 -37.5 -95t-89.5 -36q-45 0 -74.5 33t-29.5 80z" />
<glyph unicode=";" horiz-adv-x="491" d="M-8 -176q182 76 182 188q0 96 -94 125q-18 8 -19 31q2 45 34 74.5t73 29.5q68 0 109.5 -59t41.5 -135q0 -121 -89 -199t-216 -117zM166 713q0 59 35 97t90 38q47 0 76.5 -32t29.5 -83q0 -59 -37.5 -96t-89.5 -37q-45 0 -74.5 33t-29.5 80z" />
<glyph unicode="&#x3c;" horiz-adv-x="1222" d="M135 467v104l926 467v-118l-801 -400v-4l803 -397v-119z" />
<glyph unicode="=" horiz-adv-x="1224" d="M139 281v106h994v-106h-994zM139 655v107h994v-107h-994z" />
<glyph unicode="&#x3e;" horiz-adv-x="1222" d="M207 0v119l801 397v4l-801 400v118l926 -467v-104z" />
<glyph unicode="?" horiz-adv-x="733" d="M162 94q0 63 37 103.5t94 40.5q49 0 81 -35t32 -88q0 -63 -39 -101.5t-95 -38.5q-49 0 -79.5 34t-30.5 85zM193 635q0 76 59 137.5t162 124.5q166 100 210 144t44 85q0 43 -29 70t-80 27q-59 0 -113.5 -27t-88 -53.5t-42.5 -26.5q-25 0 -49 30t-24 64q0 39 55 80 q98 70 190 70h2q113 0 196 -91t83 -212q0 -139 -139 -232q-197 -125 -230 -155q-49 -47 -49 -95q0 -68 66 -139l-43 -41q-68 35 -124 101.5t-56 138.5z" />
<glyph unicode="@" horiz-adv-x="1517" d="M111 408q0 176 67.5 325.5t180 245.5t254 149.5t290.5 53.5q262 0 412.5 -151.5t150.5 -375.5q0 -211 -144 -360.5t-355 -149.5q-72 0 -90 42q-9 20 -9 45q0 27 11 61l24 104l-4 2q-55 -82 -165.5 -169t-174.5 -87q-41 0 -70.5 48.5t-29.5 125.5q0 98 43 205t127 187 q150 139 336 145h4q24 0 102 -18q41 -8 66 -9q-63 -244 -111 -469q-10 -46 -10 -74q0 -14 3 -24q7 -29 38 -27q113 2 212 114t99 308q0 207 -136 327t-345 120q-283 0 -461 -189.5t-178 -484.5q0 -100 28.5 -192.5t89 -172t171 -128t256.5 -48.5q178 0 317 70l20 -57 q-188 -106 -407 -107q-256 0 -434 165t-178 450zM618 360q0 -86 44 -86q35 0 109.5 63.5t154.5 190.5q37 98 59 224q-41 23 -108 22q-74 0 -134 -63q-47 -51 -86 -152t-39 -199z" />
<glyph unicode="A" horiz-adv-x="1361" d="M-39 0l14 57q98 14 136.5 45t111.5 160l611 1077l71 19l53 -340l132 -774q20 -117 48.5 -145.5t135.5 -41.5l-14 -57h-498l16 57q100 10 122 33q15 15 15 53q0 18 -4 41q-4 29 -47 291h-422l-137 -270q-28 -61 -28 -91q0 -14 6 -22q18 -25 137 -35l-14 -57h-445zM489 565 h363l-80 514h-4z" />
<glyph unicode="B" horiz-adv-x="1202" d="M12 0l15 57q117 10 148.5 40t55.5 153l164 844q12 59 12 94q0 34 -11 47q-22 27 -144 37l14 57h490q393 0 393 -282q0 -131 -93 -210t-243 -110v-4q133 -27 217 -106.5t84 -213.5q0 -111 -63.5 -195.5t-169.5 -135.5q-150 -72 -422 -72h-447zM414 254q-6 -37 -7 -66 q0 -56 24 -79q36 -37 136 -37q143 0 238.5 94t95.5 248q0 268 -313 268h-92zM510 754h96q164 0 253 77.5t89 212.5q0 115 -66.5 166.5t-164.5 51.5q-61 0 -92 -21q-25 -16 -39 -92z" />
<glyph unicode="C" horiz-adv-x="1306" d="M133 557q0 358 246 580.5t610 222.5q174 0 352 -64q0 -12 -7 -135t-11 -184l-61 -6q-12 176 -88 245.5t-230 69.5q-256 0 -424 -214t-168 -509q0 -229 106.5 -374.5t297.5 -145.5q137 0 237.5 81t202.5 241l55 -31q-78 -186 -161 -314q-199 -51 -355 -51 q-266 0 -434 154.5t-168 433.5z" />
<glyph unicode="D" horiz-adv-x="1458" d="M16 0l15 57q117 12 147.5 42t52.5 149l160 829q12 62 12 100q0 36 -11 50q-22 29 -142 45l14 57h512q313 0 487.5 -137t174.5 -420q0 -195 -88 -357.5t-250 -262.5q-242 -152 -633 -152h-451zM413 157q5 -36 33 -53q45 -29 140 -28q291 0 464 204.5t173 503.5 q0 225 -122 349t-341 124q-94 0 -129 -20q-27 -16 -45 -102l-162 -867q-12 -58 -13 -92q1 -10 2 -19z" />
<glyph unicode="E" horiz-adv-x="1148" d="M4 0l14 57q125 12 157 41t54 150l162 833q12 63 12 101q0 36 -11 51q-22 29 -146 39l16 57h895q-6 -57 -37 -315l-61 -4q-4 139 -29 182q-18 37 -55 51t-139 14h-150q-53 0 -67.5 -13t-24.5 -70l-84 -439h186q125 0 160 22.5t74 127.5h61l-78 -396h-61q1 17 1 32 q0 86 -20 107q-24 24 -155 23h-184l-68 -356q-13 -69 -13 -114q0 -58 21 -77q33 -31 201 -30q111 0 167 14t97 55q59 55 139 195l60 -21q-84 -221 -129 -317h-965z" />
<glyph unicode="F" horiz-adv-x="1085" d="M20 0l13 57q113 10 144.5 41t55.5 158l156 815q14 74 14 116q0 33 -9 45q-19 28 -142 40l14 57h895q-4 -20 -17 -139l-20 -174l-61 -6q-4 129 -25 178q-16 39 -56 54t-142 15h-156q-51 0 -65.5 -14t-24.5 -67l-88 -463h207q129 0 162.5 22.5t76.5 124.5h62l-80 -397h-60 q0 115 -25.5 140.5t-154.5 25.5h-207l-69 -373q-11 -59 -11 -98q0 -44 14 -60q26 -31 167 -41l-15 -57h-553z" />
<glyph unicode="G" horiz-adv-x="1400" d="M135 557q0 352 245 577.5t626 225.5q178 0 362 -62q-14 -150 -25 -323l-61 -6q-2 170 -84 243.5t-242 73.5q-264 0 -433 -211t-169 -506q0 -236 114 -381t316 -145q190 0 220 143l36 189q10 52 11 85q0 39 -15 53q-27 26 -178 40l14 57h519l-15 -55q-84 -14 -106.5 -40 t-42.5 -140l-33 -168q-13 -68 -13 -120q0 -23 3 -42l-95 -23l-112 -26.5t-105.5 -18t-121.5 -8.5q-276 0 -445.5 156t-169.5 432z" />
<glyph unicode="H" horiz-adv-x="1527" d="M23 0l14 57q113 10 141.5 40t52.5 155l160 825q11 63 11 102.5t-11 53.5q-23 29 -147 39l14 57h524l-14 -57q-111 -10 -140.5 -41t-52.5 -154l-63 -329h647l62 329q13 68 13 108q0 33 -9 47q-20 30 -142 40l13 57h526l-14 -57q-117 -10 -146.5 -40t-54.5 -155l-158 -825 q-12 -64 -11 -103q0 -37 10 -52q22 -30 147 -40l-15 -57h-538l14 57q121 10 152.5 40t54.5 153l78 409h-647l-76 -407q-13 -66 -13 -106q0 -36 11 -50q23 -29 147 -39l-14 -57h-526z" />
<glyph unicode="I" horiz-adv-x="698" d="M14 0l15 57q117 8 148.5 38t53.5 147l164 850q11 56 11 91q0 37 -12 51q-24 28 -152 38l14 57h537l-15 -57q-117 -10 -145.5 -37t-50.5 -143l-164 -850q-11 -59 -11 -96t11 -51q23 -28 149 -38l-14 -57h-539z" />
<glyph unicode="J" horiz-adv-x="669" d="M-53 -233q164 49 225 223q37 96 80 315l145 778q10 58 10 94q0 40 -12 54q-23 27 -147 41l14 57h520l-14 -57q-113 -14 -139.5 -41t-48.5 -148l-152 -815q-35 -197 -101.5 -314.5t-185.5 -184.5q-88 -55 -176 -66z" />
<glyph unicode="K" horiz-adv-x="1347" d="M23 0l16 57q111 10 140.5 41t53.5 164l156 813q13 69 14 109q0 33 -10 47q-20 29 -141 41l14 57h512l-12 -57q-115 -12 -143.5 -41t-53.5 -156l-69 -360q74 25 153 90q217 180 406 371q41 41 41 59q0 20 -58 29l-57 8l14 57h478l-15 -55q-111 -16 -165 -40t-148 -99 q-96 -76 -438 -373q164 -285 360 -563q59 -82 99 -106.5t124 -35.5l-14 -57h-311q-227 350 -371 594q-38 66 -82 66q-14 0 -29 -7l-71 -391q-13 -73 -14 -115q0 -35 10 -49q20 -31 141 -41l-12 -57h-518z" />
<glyph unicode="L" horiz-adv-x="1095" d="M10 0l15 57q117 8 148.5 38t53.5 147l166 850q12 60 12 95q0 34 -11 48q-22 27 -146 37l12 57h531l-13 -57q-121 -10 -149.5 -37t-50.5 -143l-162 -842q-7 -37 -7 -66q0 -57 27 -82q33 -29 180 -28q172 0 236 63q74 70 145 209l60 -22q-109 -276 -131 -324h-916z" />
<glyph unicode="M" horiz-adv-x="1798" d="M-12 0l14 57q86 8 126 35t67 92q51 135 143 447l119 407q29 100 28 149q0 24 -7 36q-22 35 -165 49l17 57h352l217 -999l621 999h344l-15 -57q-129 -10 -157.5 -37t-48.5 -152q-39 -272 -109 -804q-8 -66 -8 -110q0 -52 12 -69q23 -31 145 -43l-14 -57h-528l14 57 q115 12 143.5 44t51.5 178l133 849h-6l-666 -1118h-49q-59 340 -203 1100h-6l-147 -532q-80 -297 -95 -392q-3 -19 -2 -34q0 -42 20 -60q28 -25 136 -35l-12 -57h-465z" />
<glyph unicode="N" horiz-adv-x="1443" d="M2 0l14 57q82 4 121 30t60 91q41 141 84 352l102 490q15 78 15 113q0 37 -23 75q-20 33 -55 46.5t-117 17.5l12 57h309l592 -1024h6l92 488q45 238 54 352q1 10 1 20q0 55 -31 76q-36 25 -148 31l16 57h465l-12 -57q-90 -4 -124 -31t-55 -98q-35 -113 -80 -348l-153 -811 h-70l-602 1077h-6l-102 -533q-53 -271 -54 -351q0 -63 33 -87q35 -25 141 -33l-12 -57h-473z" />
<glyph unicode="O" horiz-adv-x="1456" d="M135 549q0 213 96.5 399.5t269.5 299t382 112.5q248 0 398.5 -163t150.5 -423q0 -334 -213 -569.5t-537 -235.5q-244 0 -395.5 161t-151.5 419zM348 526q0 -215 88 -349t262 -134q156 0 279 120t182.5 291t59.5 347q0 219 -85 352t-266 133q-147 0 -269 -114.5 t-186.5 -288t-64.5 -357.5z" />
<glyph unicode="P" horiz-adv-x="1148" d="M12 0l15 57q117 10 147.5 40t56.5 159l162 823q13 64 13 103q0 33 -10 47q-22 29 -142 43l14 57h473q215 0 328 -87t113 -261q0 -135 -76 -237.5t-184.5 -151.5t-231.5 -57h-74l-139 40l-63 -319q-12 -61 -12 -99q0 -42 14 -58q27 -30 166 -42l-13 -57h-557zM492 645 q70 -27 143 -27q131 0 238.5 97.5t107.5 277.5q0 127 -68.5 198t-193.5 71q-51 0 -84 -17q-33 -14 -49 -100z" />
<glyph unicode="Q" horiz-adv-x="1456" d="M133 547q0 330 216 571.5t534 241.5q246 0 397.5 -164t151.5 -424q0 -270 -152 -486t-395 -286l26 -18q217 -156 455 -267l-16 -47q-135 0 -252 33q-145 39 -443 252l-26 20q-223 16 -359.5 173t-136.5 401zM348 524q0 -186 70.5 -315t199.5 -160l148 37q10 -6 28 -18 l23 -17q174 51 287 276.5t113 469.5q0 219 -85 354t-266 135q-145 0 -267 -114.5t-186.5 -289t-64.5 -358.5z" />
<glyph unicode="R" horiz-adv-x="1239" d="M18 0l15 57q117 12 146.5 42t56.5 161l157 821q12 68 12 108q0 34 -9 46q-19 27 -142 37l14 57h457q201 0 297 -63q125 -86 125 -254q0 -143 -91 -242.5t-229 -144.5q78 -186 123 -275q80 -156 125 -217q53 -70 137 -96l-18 -53h-23q-152 6 -222 50t-128 150 q-61 117 -135 303q-25 57 -50.5 76t-78.5 19h-80l-59 -320q-12 -68 -12 -109q0 -39 11 -55q22 -31 142 -41l-12 -57h-529zM489 649h91q137 0 215 51q70 47 110.5 125t40.5 172q0 129 -61.5 197t-171.5 68q-61 0 -90 -21q-23 -16 -37 -90z" />
<glyph unicode="S" horiz-adv-x="966" d="M76 403l59 7q12 -88 44 -165t106.5 -140.5t179.5 -63.5q109 0 175.5 70.5t66.5 185.5q0 82 -45.5 145.5t-139.5 139.5l-59 47q-66 51 -108 92t-83 115.5t-41 152.5q0 164 118 267.5t302 103.5q109 0 203 -35l88 -33q0 -2 -6 -291l-62 -8q-33 297 -247 297 q-100 0 -160.5 -68.5t-60.5 -164.5q0 -80 46 -139.5t138 -129.5l61 -45q119 -90 180.5 -177t61.5 -201q0 -176 -133 -286t-322 -110q-115 0 -215 40t-141 85q0 23 -2 126t-4 183z" />
<glyph unicode="T" horiz-adv-x="1241" d="M182 1012q68 225 97 368h47q14 -35 33.5 -43t64.5 -8h776q37 0 56.5 10.5t50.5 40.5h47q-20 -98 -49 -364l-66 -4q0 135 -25 186q-14 35 -58 47t-155 12h-120l-189 -1009q-10 -55 -10 -92q0 -43 14 -60q27 -31 164 -39l-12 -57h-576l15 57q127 8 160.5 39t56.5 152 l192 1009h-102q-121 0 -168 -13t-78 -48q-45 -53 -102 -184h-64z" />
<glyph unicode="U" horiz-adv-x="1447" d="M231 1272l15 57h522l-14 -57q-115 -10 -143.5 -38t-51.5 -149l-96 -499q-17 -96 -18 -173q0 -131 51 -208q80 -123 243 -123q180 0 290 137t167 428l29 148q45 231 53 362v12q0 53 -33 74q-37 23 -147 29l14 57h477l-12 -57q-94 -4 -129 -28.5t-53 -86.5 q-29 -86 -82 -362l-33 -166q-72 -369 -240 -525q-147 -135 -352 -135q-201 0 -319 111q-112 104 -113 306q0 86 20 189l97 510q12 62 11 100q0 36 -10 49q-22 28 -143 38z" />
<glyph unicode="V" horiz-adv-x="1384" d="M201 1272l14 57h485l-16 -57l-53 -8q-57 -8 -72 -27q-9 -12 -9 -39q0 -16 3 -37q8 -61 34 -203l64 -351l62 -343h4q367 651 465 856q31 66 30 96q0 8 -2 13q-10 25 -82 35l-57 8l14 57h451l-14 -57q-100 -12 -140.5 -42t-115.5 -153q-174 -279 -623 -1097h-65 q-96 571 -199 1112q-23 113 -52.5 141.5t-125.5 38.5z" />
<glyph unicode="W" horiz-adv-x="1945" d="M221 1272l12 57h480l-15 -57l-51 -8q-61 -10 -76 -32q-9 -14 -9 -52q0 -22 3 -52l86 -831h4l478 1010h65l168 -1014h4q293 633 369 829q22 60 22 89q0 12 -4 19q-12 24 -92 34l-51 8l14 57h440l-14 -57q-100 -14 -134 -42t-97 -151q-109 -213 -520 -1102h-70l-164 1000 h-6l-481 -1000h-70l-125 1098q-14 129 -39 158t-127 39z" />
<glyph unicode="X" horiz-adv-x="1314" d="M-49 0l14 57q96 10 141.5 32t114.5 97q119 127 400 478l-197 448q-43 100 -77 125t-138 35l14 57h488l-13 -57l-53 -10q-49 -10 -58 -22.5t3 -53.5q29 -80 162 -371q162 199 274 356q25 38 25 57q0 4 -1 8q-7 17 -59 26l-57 10l14 57h447l-15 -57q-106 -12 -147 -32.5 t-117 -102.5q-88 -96 -330 -394l226 -503q51 -117 87 -143.5t152 -39.5l-14 -57h-528l12 57l59 9q57 10 69 27q4 6 4 17q0 19 -13 54q-23 59 -185 428q-201 -252 -317 -426q-26 -39 -26 -60q0 -5 1 -10q8 -20 70 -33l47 -6l-14 -57h-465z" />
<glyph unicode="Y" horiz-adv-x="1259" d="M197 1272l14 57h485l-14 -57l-68 -10q-51 -8 -60 -26q-3 -6 -3 -16q0 -18 10 -46q86 -258 180 -486q227 319 320 475q23 40 23 61q0 7 -3 11q-10 18 -69 29l-60 8l17 57h444l-16 -57q-100 -10 -141.5 -36t-118.5 -122q-121 -154 -330 -457q-37 -51 -49 -116l-58 -283 q-14 -66 -13 -106q0 -38 12 -53q26 -30 165 -42l-14 -57h-565l14 57q127 10 158.5 40t58.5 161l53 270q5 22 6 45q0 38 -16 78l-174 471q-35 94 -63.5 117t-124.5 33z" />
<glyph unicode="Z" horiz-adv-x="1210" d="M2 33l999 1224h-307q-143 0 -196.5 -15t-85.5 -56q-53 -66 -105 -195l-61 6q53 209 84 383h45q18 -33 36.5 -42t63.5 -9h782l13 -29l-989 -1216q123 -10 305 -10q160 0 243.5 12t128.5 51q68 59 152 228l61 -27q-84 -254 -122 -338h-1033z" />
<glyph unicode="[" horiz-adv-x="702" d="M100 -332l340 1774h353l-15 -60q-158 -16 -191.5 -41.5t-58.5 -152.5l-241 -1266q-12 -62 -12 -100q0 -39 13 -52q26 -26 185 -42l-14 -60h-359z" />
<glyph unicode="\" horiz-adv-x="768" d="M178 1360h113l379 -1452h-113z" />
<glyph unicode="]" horiz-adv-x="702" d="M-25 -332l15 60q160 16 192.5 40.5t57.5 153.5l241 1266q10 49 14.5 73.5t-2 48t-13.5 33t-37.5 18.5t-57.5 12t-90 9l14 60h359l-340 -1774h-353z" />
<glyph unicode="^" horiz-adv-x="1136" d="M154 432l393 844h96l393 -844l-129 2l-315 705l-318 -707h-120z" />
<glyph unicode="_" horiz-adv-x="1024" d="M0 -154h1024v-102h-1024v102z" />
<glyph unicode="`" horiz-adv-x="819" d="M412 1341l6 19q16 8 77 18q50 9 75 9q5 0 10 -1l42 -188l40 -176l-62 -18q-157 286 -188 337z" />
<glyph unicode="a" horiz-adv-x="1015" d="M78 209q0 154 66.5 305.5t174.5 245.5q82 70 188.5 116t203.5 46q57 0 129 -17q61 -12 84 -12l8 -8q-70 -272 -141 -660q-7 -39 -8 -61q0 -27 12 -27q14 0 60 33t87 74l27 -49q-80 -98 -172 -159t-140 -61q-53 0 -52 86q0 41 11 101l37 180h-4q-109 -154 -252 -272 q-117 -94 -196 -95q-49 0 -86 60.5t-37 173.5zM266 248q0 -131 53 -131q55 0 183.5 140t177.5 243q33 115 70 301q-57 29 -134 28q-82 0 -135 -41q-98 -72 -156.5 -228t-58.5 -312z" />
<glyph unicode="b" horiz-adv-x="1001" d="M143 322l193 907q7 38 7 60q0 18 -5 25q-10 15 -70 15l-57 2l4 53q74 8 145.5 25.5t115.5 31t56 13.5q17 0 18 -27q0 -14 -5 -36q-100 -408 -178 -770h4q121 147 239.5 224t196.5 77q70 0 109.5 -62.5t39.5 -167.5q0 -170 -88 -341t-225 -263q-168 -113 -317 -113 q-53 0 -100.5 26t-69.5 65q-27 46 -27 123q-1 58 14 133zM311 334q-11 -58 -11 -103q0 -64 23 -100q38 -61 107 -61q53 0 105 30q90 55 162.5 217t72.5 338q0 143 -68 144q-53 0 -158.5 -86t-195.5 -217q-23 -64 -37 -162z" />
<glyph unicode="c" horiz-adv-x="788" d="M88 276q0 133 57.5 268.5t155.5 225.5q70 61 164 106.5t168 45.5q66 0 113 -32t47 -79q0 -57 -70 -94q-29 -18 -47 10q-70 96 -156 96q-92 0 -160 -129q-86 -158 -86 -370q0 -109 38 -164.5t104 -55.5q70 0 148.5 47.5t129.5 100.5l31 -47q-92 -109 -204.5 -169.5 t-207.5 -60.5q-104 0 -164.5 79t-60.5 222z" />
<glyph unicode="d" horiz-adv-x="1050" d="M80 223q0 147 64.5 297t174.5 242q72 63 181.5 111.5t183.5 48.5q61 0 119 -21l65 326q7 36 8 58q0 20 -7 28q-13 16 -81 16h-59l4 53q78 8 153 26.5t119 32t54 13.5q19 0 19 -26q0 -13 -5 -33q-137 -592 -250 -1188q-6 -28 -5 -45q0 -27 13 -27q39 0 144 101l29 -50 q-78 -94 -169.5 -152.5t-140.5 -58.5q-54 0 -53 87q0 42 12 104l35 168l-4 -2q-102 -135 -264 -264q-121 -92 -201 -93q-57 0 -98 64.5t-41 183.5zM268 264q0 -147 62 -147q72 0 199.5 131t183.5 235l63 293q-59 55 -162 55q-78 0 -133 -38q-94 -70 -153.5 -230t-59.5 -299z " />
<glyph unicode="e" horiz-adv-x="825" d="M86 276q0 147 64.5 292t181.5 235q152 119 291 119q84 0 135 -48.5t51 -117.5q0 -225 -539 -365q-2 -25 -2 -63q0 -94 36 -159t120 -65q137 0 299 156l35 -49q-221 -236 -441 -236q-94 0 -162.5 68.5t-68.5 232.5zM279 457q365 100 364 268q0 51 -28.5 81t-69.5 30 q-45 0 -80 -25q-53 -31 -108 -117.5t-78 -236.5z" />
<glyph unicode="f" horiz-adv-x="563" d="M-291 -430q0 45 60 92q23 16 41 0q25 -25 64.5 -40t70.5 -15q51 0 82 43q59 70 133 497l110 654h-168l-6 22l62 62h129q57 272 176 405q72 76 153.5 120t145.5 44q55 0 93 -30q36 -28 36 -57q0 -24 -20 -54q-17 -27 -35 -39q-31 -20 -54 2q-72 78 -131 78 q-57 0 -101 -99.5t-87 -369.5h233l-43 -68l-207 -20q-57 -340 -106 -576q-53 -250 -114.5 -386t-155.5 -230q-123 -125 -230 -125q-47 0 -89 27.5t-42 62.5z" />
<glyph unicode="g" horiz-adv-x="870" d="M-8 -158q84 68 256 156q-80 53 -76 102q0 53 133 129q-186 39 -186 248q0 98 47 189.5t127 152.5q131 102 268 103q109 0 178 -58q158 2 234 47l16 -39q-80 -86 -151 -98l-50 -6q16 -45 17 -111q0 -180 -152 -309q-109 -88 -272 -121q-37 -27 -39 -59q0 -41 147 -117 q150 -76 215.5 -140.5t65.5 -131.5q0 -121 -164 -210t-330 -89q-154 0 -263 67q-108 66 -107 159q0 67 86 136zM92 -256q0 -74 82 -125t188 -51q111 0 178.5 43t67.5 104q0 72 -145 158q-94 57 -160 88q-211 -104 -211 -217zM293 487q0 -84 33.5 -131t89.5 -47 q84 0 153.5 96.5t69.5 251.5q0 86 -33 138.5t-96 52.5q-84 0 -145 -98q-72 -116 -72 -263z" />
<glyph unicode="h" horiz-adv-x="1054" d="M70 -8q158 709 256 1222q8 44 8 68q0 19 -5 27q-11 16 -75 18l-57 2l8 53q74 6 146.5 24.5t114.5 33t52 14.5q16 0 17 -27q0 -17 -7 -45l-178 -837h4q168 223 365 329q78 47 143 48q80 0 80 -118q0 -60 -20 -151l-103 -442q-6 -30 -6 -49q0 -26 12 -27q14 0 57.5 26.5 t82.5 63.5l26 -49q-84 -92 -170 -146.5t-137 -54.5q-55 0 -55 83q0 47 18 122l107 465q12 54 11 87q0 53 -30 52q-66 0 -201 -129t-210 -260q-16 -74 -78 -381q-80 -12 -162 -39z" />
<glyph unicode="i" horiz-adv-x="567" d="M115 721q86 84 181 141.5t140 57.5q40 0 41 -64q0 -40 -16 -104l-135 -549q-8 -30 -9 -47q0 -20 13 -21q37 0 139 94l29 -47q-63 -74 -160.5 -140.5t-149.5 -66.5t-52 79q0 48 20 126l123 510q9 34 9 51t-9 17q-35 0 -138 -84zM340 1193q0 42 31 81q33 41 86 41 q43 0 65.5 -27.5t22.5 -68.5v-6q0 -48 -33 -84q-35 -38 -84 -37q-39 0 -63.5 26.5t-24.5 74.5z" />
<glyph unicode="j" horiz-adv-x="552" d="M-215 -453q0 49 53 95q25 20 45 8q59 -39 107 -39q41 0 70.5 47t56.5 158q12 53 166 825q10 56 10 84.5t-10 28.5q-33 0 -148 -97l-26 48q90 94 187 155.5t146 61.5q38 0 38 -78q0 -52 -17 -139l-115 -578q-76 -369 -250 -524q-137 -125 -221 -125q-33 0 -62.5 20 t-29.5 49zM328 1207q0 42 30 81q33 41 88 41q41 0 65 -28.5t24 -69.5q0 -51 -33 -88t-82 -37q-41 0 -66.5 26.5t-25.5 74.5z" />
<glyph unicode="k" horiz-adv-x="968" d="M66 -12q180 788 274 1245q6 31 6 50t-6 27q-12 15 -74 17l-61 2l10 53q76 8 147.5 26.5t114.5 32t53 13.5q15 0 15 -26q0 -14 -4 -35l-203 -899h4q51 61 172 182q246 246 354 246q41 0 65.5 -20.5t24.5 -45.5q0 -45 -43 -88q-18 -18 -34 -12q-37 16 -82 16 q-111 0 -254 -158q53 -178 153 -374q59 -123 90 -123q37 0 117 92l35 -45q-123 -188 -235 -189q-76 0 -138 138q-80 168 -149 374q-86 -88 -105 -122q-41 -184 -71 -349q-88 -16 -164 -41z" />
<glyph unicode="l" horiz-adv-x="520" d="M125 227l209 992q7 37 7 59q0 21 -6 30q-13 17 -85 19l-55 2l8 53q74 6 147.5 24.5t117.5 33t52 14.5q18 0 18 -27q0 -14 -6 -36l-247 -1184q-6 -30 -6 -48q0 -26 12 -26q18 0 68.5 34t91.5 75l30 -49q-80 -92 -175 -155t-146 -63q-55 0 -55 98q0 59 20 154z" />
<glyph unicode="m" horiz-adv-x="1615" d="M111 -8q88 328 168 690q9 39 8 60q0 23 -11 24q-35 0 -139 -96l-24 51q86 90 170 145.5t129 55.5q47 0 46 -82q0 -61 -26 -168l-33 -142h4q172 242 359 349q70 43 129 43q77 0 77 -128q0 -71 -24 -182l-18 -77h4q172 240 368 346q70 41 125 41q76 0 76 -118 q0 -70 -26 -181l-101 -420q-7 -29 -7 -46q0 -20 11 -20q41 0 135 90l29 -51q-80 -90 -168 -145.5t-131 -55.5q-56 0 -55 88q0 48 16 121l113 471q12 51 12 82q0 47 -29 47q-63 0 -202.5 -148.5t-198.5 -260.5q-59 -244 -80 -361q-86 -8 -166 -37l-12 15q102 414 145 610 q18 87 18 130v11q-3 41 -32 41q-66 0 -204 -150.5t-193 -258.5q-29 -102 -84 -361q-78 -8 -164 -37z" />
<glyph unicode="n" horiz-adv-x="1095" d="M111 -8q102 401 165 688q8 38 9 59q0 25 -13 25q-14 0 -54 -27.5t-77 -64.5l-28 51q84 90 169 144.5t132 54.5q44 0 44 -78q0 -57 -24 -156l-39 -164h4q168 229 363 348q80 49 141 50q77 0 77 -120q0 -69 -26 -177l-96 -416q-8 -32 -8 -50q0 -22 12 -22q14 0 53 25.5 t78 66.5l31 -51q-88 -98 -171 -150.5t-130 -52.5q-54 0 -54 85q0 50 19 130l107 449q13 57 13 92q0 49 -28 51q-61 0 -198.5 -140t-212.5 -271q-51 -193 -82 -355q-78 -12 -162 -39z" />
<glyph unicode="o" horiz-adv-x="970" d="M92 297q0 190 88 337.5t221 217.5q123 70 232 70q131 0 203.5 -85t72.5 -237q0 -137 -57 -272t-162 -224q-154 -129 -321 -129q-141 0 -209 92.5t-68 229.5zM281 303q0 -113 44 -178.5t119 -65.5q33 0 64 13q82 35 147.5 185.5t65.5 342.5q0 119 -43 179.5t-115 60.5 q-35 0 -74 -15q-72 -35 -140 -172t-68 -350z" />
<glyph unicode="p" horiz-adv-x="1005" d="M-135 -510l10 55q94 18 125 47t51 121l225 1055q-78 -27 -163 -74l-17 56q80 55 197 100l22 92q63 70 166 125l21 -12l-37 -160q86 27 190 27q154 0 224.5 -73t70.5 -216q0 -225 -174 -420q-74 -86 -178 -149.5t-205 -88.5q-68 0 -117 21l-55 -279q-8 -45 -8 -73 q0 -26 7 -38q15 -24 91 -34l49 -4l-8 -55zM307 135q18 -27 54 -48q33 -20 63 -20q3 0 6 1q109 0 220.5 174t111.5 364q0 223 -205 223q-45 0 -111 -14z" />
<glyph unicode="q" horiz-adv-x="1001" d="M76 211q0 156 65.5 301t171.5 240q66 57 155 99t157 56q57 14 112 15q66 0 185 -31l32 -8q-55 -225 -96 -449l-129 -706q-7 -50 -7 -81q0 -28 6 -39q13 -24 85 -34l51 -6l-10 -53l-485 -25l10 55l35 6q72 16 97.5 44t43.5 120l127 611h-4q-100 -127 -248 -246 q-133 -104 -219 -105q-57 0 -96 67t-39 169zM264 264q0 -143 62 -143q66 0 183.5 111.5t186.5 224.5q49 197 72 342q-55 31 -141 30q-84 0 -146 -45q-98 -74 -157.5 -226.5t-59.5 -293.5z" />
<glyph unicode="r" horiz-adv-x="757" d="M96 719q78 86 164 144.5t131 58.5q48 0 48 -86q0 -57 -21 -152l-21 -100h6q80 152 163 245t143 93q57 0 90 -54q12 -20 12 -41q0 -25 -16 -53q-23 -37 -56 -65q-29 -18 -47 0q-39 35 -71 34q-39 0 -101 -81q-100 -147 -139 -250q-37 -158 -82 -398q-92 -14 -160 -39 l-16 17q106 453 147 680q7 41 8 63q0 28 -12 29q-14 0 -57 -28.5t-84 -65.5z" />
<glyph unicode="s" horiz-adv-x="696" d="M20 127q0 55 64 90q35 18 53 -6q90 -129 205 -129q55 0 91 34t36 81q0 74 -123 168q-55 43 -89 72.5t-63.5 78.5t-29.5 100q0 111 110 205q51 43 117 72t117 29q68 0 116 -37t48 -82q0 -57 -56 -90q-31 -18 -47 8q-74 96 -163 96q-45 0 -75 -29.5t-30 -76.5 q0 -80 135 -179q96 -72 136 -125t40 -118q0 -117 -123.5 -215.5t-255.5 -98.5q-74 0 -142.5 48.5t-70.5 103.5z" />
<glyph unicode="t" horiz-adv-x="634" d="M127 819l51 66h123l47 192l170 131l21 -14l-72 -309h235l-55 -74l-201 -10l-116 -551q-10 -49 -10 -79q0 -44 22 -44q25 0 84 39t96 78l29 -47q-61 -76 -162.5 -149t-175.5 -73q-29 0 -46 25t-22 85q-1 9 0 18q0 57 21 147l119 551h-152z" />
<glyph unicode="u" horiz-adv-x="1095" d="M113 725q88 88 176 142.5t135 54.5q37 0 44 -39q2 -9 2 -21q0 -42 -19 -125l-111 -481q-11 -49 -11 -80q0 -54 33 -53q76 0 207 141.5t197 261.5l76 342l157 54h23q-96 -381 -158 -705q-7 -36 -7 -57q0 -25 11 -25q14 0 60.5 32t85.5 71l28 -52q-78 -92 -168 -151.5 t-139 -59.5q-55 0 -55 88q0 50 18 127q16 63 37 172h-4q-152 -209 -326 -327q-84 -59 -161 -60q-91 0 -91 121q0 59 21 146l107 452q6 30 6 48q0 23 -11 26q-23 0 -139 -94z" />
<glyph unicode="v" horiz-adv-x="921" d="M88 707q61 88 133 151.5t121 63.5q78 0 94 -232q27 -461 29 -500h4q301 371 301 523q0 57 -22 92q-10 23 0 49q27 68 94 68q39 0 64.5 -34t27.5 -87q0 -98 -127 -275q-225 -309 -426 -551h-62q-10 289 -43 639q-14 150 -36 150q-31 0 -117 -105z" />
<glyph unicode="w" horiz-adv-x="1376" d="M90 707q72 92 145.5 153.5t124.5 61.5q72 0 80 -211q6 -244 6 -463h5q303 514 372 641h56l34 -347l35 -343h4q276 371 277 510q0 55 -23 96q-14 23 0 53q27 63 90 64q41 0 67 -34t26 -87q0 -78 -84 -213q-104 -170 -435 -613h-61q-12 143 -61 623h-7l-381 -623h-59 q-2 268 -25 660q-6 129 -30.5 129t-120.5 -102z" />
<glyph unicode="x" horiz-adv-x="972" d="M25.5 147.5q27.5 30.5 58.5 30.5q18 0 34.5 -20.5t47.5 -20.5q74 0 272 297l-65 209q-39 129 -70 129q-35 0 -129 -115l-37 43q150 221 254 222q39 0 65.5 -48.5t67.5 -171.5l35 -110q127 184 202 257t142 73q39 0 63.5 -28t24.5 -65q-2 -37 -29.5 -66.5t-54.5 -29.5 q-18 0 -33 19q-20 25 -47 24q-41 0 -116 -92q-70 -80 -129 -164l69 -217q55 -176 98.5 -176t145.5 119l37 -43q-150 -227 -270 -228q-82 0 -140 189l-59 192q-137 -215 -216 -298t-153 -83q-41 0 -69 30q-27 28 -27 67q0 45 27.5 75.5z" />
<glyph unicode="y" horiz-adv-x="915" d="M-121 -473q285 186 477 444q0 258 -63 672q-18 121 -45 121q-33 0 -117 -117l-37 49q59 92 129 159t123 67q84 0 113 -248q25 -207 45 -512h4q264 399 264 549q0 39 -24 98q-10 25 4 55q29 57 90 58q37 0 60.5 -32t25.5 -85q0 -90 -74 -219q-129 -233 -360 -563 q-229 -324 -373 -486l-223 -57z" />
<glyph unicode="z" horiz-adv-x="854" d="M51 -18q-20 22 -20 51q0 63 94 160l256 257l307 312q-42 -8 -85 -8l-42 2q-160 12 -186 12q-68 0 -112 -41t-95 -129l-53 27q49 113 88 170q76 121 153 120q57 0 209 -22q109 -20 172 -21q57 0 129 78l43 -45l-125 -145l-159 -169l-221 -224l-162 -166h6q56 0 151 -33 q133 -47 179 -47q90 0 208 174l48 -39q-82 -166 -150 -231.5t-139 -65.5q-66 0 -273 98q-51 26 -87 26q-27 0 -46 -13q-33 -25 -63 -72q-13 -16 -25 -16z" />
<glyph unicode="{" horiz-adv-x="702" d="M172 522l12 64q61 4 103.5 21.5t63 48t28.5 53t16 57.5q6 37 21 182q12 135 33 252q49 254 344 254l-7 -57q-98 -12 -140 -59.5t-58 -127.5q-12 -66 -21 -192q-14 -193 -20 -225q-37 -197 -211 -234l-2 -8q131 -31 131 -170q0 -43 -10.5 -88t-32.5 -111l-31 -90 q-55 -197 -55 -250q0 -113 135 -129l-14 -57q-258 0 -258 194q0 88 65 312q55 186 55 239q0 113 -147 121z" />
<glyph unicode="|" horiz-adv-x="501" d="M215 -512v2048h135v-2048h-135z" />
<glyph unicode="}" horiz-adv-x="702" d="M-14 -344l8 59q96 14 139 60.5t57 122.5q14 66 23 194q12 188 20 223q39 199 207 236l2 8q-127 31 -126 169q0 16 1 34q2 33 12.5 74t30.5 102l27 80q47 170 51 219q1 9 1 18q0 121 -132 142l15 57q49 0 92 -9t85 -31.5t63 -68.5q17 -36 17 -85q0 -14 -1 -29 q-2 -70 -64 -283q-51 -176 -53 -213q-1 -10 -1 -19q0 -121 148 -130l-14 -62q-61 -4 -102 -21.5t-61.5 -49t-28 -52t-15.5 -57.5q-4 -20 -22 -182q-12 -145 -33 -250q-49 -256 -346 -256z" />
<glyph unicode="~" horiz-adv-x="1159" d="M141 379q92 223 271 223q104 0 233 -74q137 -82 213 -82q59 0 98 40t72 130l80 -45q-72 -233 -262 -233q-96 0 -260 92q-109 66 -183 66q-121 0 -186 -172z" />
<glyph unicode="&#xa1;" horiz-adv-x="532" d="M39 -242l211 725q10 12 36.5 11.5t30.5 -11.5q-8 -107 -20 -227.5l-26 -265.5l-21 -230q-14 -156 -17 -166q-12 -61 -131 -61h-2q-107 0 -107 55q0 17 46 170zM219 780q0 63 39 102.5t94 39.5h2q47 0 79 -35t32 -88q0 -61 -38 -100.5t-95 -39.5q-49 0 -81 34t-32 87z" />
<glyph unicode="&#xa2;" d="M147 567q0 205 149.5 355.5t358.5 179.5l33 168h76l-31 -164q133 0 207 -62q31 -23 31 -57q0 -33 -26.5 -59.5t-51.5 -28.5q-14 0 -33 21q-68 84 -145 94l-133 -699q6 0 13 -1t11 -1q139 0 264 109l33 -47q-156 -168 -346 -185l-39 -198h-74l39 201q-145 12 -240.5 110 t-95.5 264zM330 616q0 -117 50 -191.5t128 -94.5l131 692q-145 -4 -227 -120t-82 -286z" />
<glyph unicode="&#xa3;" d="M0 88q25 37 125 131q133 127 141 385h-184l16 76h170q2 86 13 166q33 227 217 366q127 90 229 91q66 0 115 -27t67 -57q10 -18 10 -34q0 -18 -12 -34q-16 -25 -45 -47q-33 -18 -55 8q-94 90 -170 90q-133 0 -162 -190q-14 -94 -14 -332h340l-17 -76h-327 q-31 -236 -244 -393h6q83 0 211 -57q160 -74 244 -74q113 0 123 84q2 12 2 25q0 21 -6 44q-6 25 12 48q47 53 82 53q23 0 32 -28q5 -15 4 -33q0 -16 -3 -35q-10 -59 -59.5 -122t-115.5 -104q-100 -68 -194 -67q-18 0 -37.5 3t-43.5 11l-38 13q-14 5 -43 19.5t-38 19.5 l-42 24q-33 18 -37 20q-86 49 -129 49q-49 0 -98 -86q-12 -27 -29 -26q-37 14 -37 43q0 22 21 53z" />
<glyph unicode="&#xa4;" d="M92 276l144 138q-90 106 -91 252q0 150 91 252l-144 137l84 86l133 -154q98 78 223 78h3q125 0 221 -78l133 154l88 -86l-146 -137q90 -106 91 -252q0 -143 -91 -252l146 -138l-88 -86l-133 154q-96 -78 -223 -78t-224 78l-133 -154zM279 666q0 -129 73.5 -210t182 -81 t181 81t72.5 210q0 127 -72.5 208.5t-183.5 81.5q-109 0 -181 -81.5t-72 -208.5z" />
<glyph unicode="&#xa5;" d="M113 369l16 73h268l29 156h-268l16 74h248q-25 129 -109 438q-16 63 -43.5 83.5t-103.5 27.5l12 55h432l-12 -55l-61 -11q-39 -4 -50.5 -18t-3.5 -53q25 -127 95 -428q150 217 253 411q19 38 20 57q0 6 -2 10q-7 17 -54 25l-58 7l13 55h383l-13 -55q-78 -8 -112.5 -32 t-94.5 -106q-106 -145 -278 -411h248l-19 -74h-262l-33 -156h271l-17 -73h-268l-29 -148q-10 -49 -9 -80q0 -36 12 -49q24 -25 153 -35l-12 -57h-531l15 57q119 8 148.5 34t51.5 130l29 148h-270z" />
<glyph unicode="&#xa6;" horiz-adv-x="501" d="M215 -358v716h135v-716h-135zM215 666v716h135v-716h-135z" />
<glyph unicode="&#xa7;" horiz-adv-x="970" d="M121 -52q20 24 41 34q20 12 39 -5q86 -68 172 -67q63 0 112.5 36t51.5 93v6q0 84 -105 197q-6 6 -156 182q-127 147 -126 293q0 213 231 420q166 154 334 182q102 0 149 -53q23 -23 23 -54q-2 -23 -20.5 -44t-35.5 -31q-23 -8 -34 4q-88 72 -172 71q-66 0 -105 -37.5 t-39 -84.5q0 -61 62 -136l168 -178q170 -166 170 -336q0 -231 -267 -473q-166 -143 -335 -176q-90 0 -148 49q-33 27 -33 60q0 22 23 48zM270 799q0 -131 105 -248l100 -113q113 -121 143 -196q25 -50 25 -114q0 -20 -2 -42l4 -4q104 117 105 260q0 145 -111 270l-195 222 q-71 82 -71 180q0 15 2 30q-104 -98 -105 -243v-2z" />
<glyph unicode="&#xa8;" horiz-adv-x="819" d="M272 1178q0 45 31 82.5t82 37.5q39 0 60.5 -26.5t21.5 -65.5q0 -49 -30.5 -84t-78.5 -35q-37 0 -61.5 26t-24.5 65zM641 1178q0 45 30.5 82.5t82.5 37.5q39 0 60.5 -26.5t21.5 -65.5q0 -49 -31 -84t-78 -35q-37 0 -61.5 26t-24.5 65z" />
<glyph unicode="&#xa9;" horiz-adv-x="1421" d="M143 659q0 262 177.5 443.5t443.5 181.5q264 0 441 -181t177 -444q0 -260 -177 -439t-443 -179q-264 0 -441.5 179t-177.5 439zM242 662q0 -233 148.5 -392t373.5 -159t373.5 158.5t148.5 392.5q0 236 -148.5 394t-375.5 158q-223 0 -371.5 -158t-148.5 -394zM416 655 q0 166 115.5 264.5t283.5 98.5q129 0 217 -37q6 -53 23 -184l-47 -9q-33 84 -80 126t-125 42q-106 0 -169 -79.5t-63 -206.5q0 -133 68 -217t170 -84q143 0 219 170l49 -11q-6 -20 -16 -62l-19 -74q-8 -32 -16 -48q-123 -39 -219 -39q-188 0 -289.5 104.5t-101.5 245.5z" />
<glyph unicode="&#xaa;" horiz-adv-x="690" d="M137 696q0 90 41 182.5t101 147.5q49 43 124.5 75t145.5 32h2q31 0 70 -9q31 -8 77 -8q-57 -240 -80 -387q-8 -57 5 -57q27 0 86 55l18 -41q-53 -55 -113.5 -93t-93.5 -38q-41 0 -41 54q0 21 6 50l23 111h-4q-72 -90 -158 -154q-86 -61 -131 -61q-31 0 -54.5 32.5 t-23.5 108.5zM276 735q0 -68 29 -67q41 0 111 75q55 53 96 125q14 25 29.5 84.5t19.5 94.5q-27 16 -82 16q-37 0 -65 -16q-51 -29 -90 -109q-48 -105 -48 -203z" />
<glyph unicode="&#xab;" horiz-adv-x="921" d="M113 455q141 133 350 374l47 -32l-219 -342l147 -342l-53 -31q-182 264 -272 373zM451 455q121 115 350 374l47 -32l-219 -342l147 -342l-53 -31q-192 281 -272 373z" />
<glyph unicode="&#xac;" horiz-adv-x="1224" d="M127 649v107h981v-555h-123v448h-858z" />
<glyph unicode="&#xad;" horiz-adv-x="686" d="M100 403l37 119h477l-36 -119h-478z" />
<glyph unicode="&#xae;" horiz-adv-x="641" d="M145 1087q0 109 78 187t189 78q113 0 188.5 -78t75.5 -187q0 -104 -77 -183t-189.5 -79t-188.5 75.5t-76 186.5zM205 1087q0 -90 59.5 -152.5t147.5 -62.5t147 62.5t59 152.5q0 92 -59 155t-149 63q-88 0 -146.5 -63t-58.5 -155zM283 950v31q29 2 34 7t5 32v141 q0 27 -5.5 32t-31.5 7v31h139q98 0 98 -74q0 -47 -55 -72q27 -49 68 -92q10 -12 26 -20l-8 -25q-68 0 -98 43q-20 29 -39 60q-10 14 -25 14h-8v-45q0 -27 5 -32t32 -7v-31h-137zM383 1100h16q18 0 35 8q23 16 23 43q0 49 -49 49q-25 0 -25 -24v-76z" />
<glyph unicode="&#xaf;" horiz-adv-x="819" d="M287 1114l26 113h463l-26 -113h-463z" />
<glyph unicode="&#xb0;" horiz-adv-x="720" d="M184 1063q0 127 89 212t216 85q117 0 193 -71.5t76 -196.5q0 -129 -88 -210t-217 -81q-117 0 -193 71.5t-76 190.5zM303 1065q0 -78 43 -129t115 -51q80 0 130 59.5t50 143t-42 136t-117.5 52.5t-127 -59.5t-51.5 -151.5z" />
<glyph unicode="&#xb1;" horiz-adv-x="1224" d="M121 0v106h993v-106h-993zM121 635v106h436v387h123v-387h434v-106h-434v-414h-123v414h-436z" />
<glyph unicode="&#xb2;" horiz-adv-x="673" d="M100 811l6 39q168 127 240 190q188 168 189 281q0 119 -119 119q-76 0 -174 -113l-37 35l84 102q76 82 192 82q86 0 146.5 -54t60.5 -146q0 -27 -8 -52.5t-17.5 -45t-30.5 -45.5l-34 -40q-12 -14 -44 -40l-43 -34q-11 -9 -47 -36l-44 -33l-117 -92v-4h186q53 0 81 14 t67 66l43 -19l-80 -174h-500z" />
<glyph unicode="&#xb3;" horiz-adv-x="673" d="M143 905q12 37 45 51q20 16 43 -6q76 -72 152 -71q55 0 95 41t40 108q0 70 -39 104.5t-98 34.5q-39 0 -76 -12l-10 49q96 20 158.5 64.5t62.5 101.5q0 84 -92 84q-78 0 -154 -96l-34 35l65 77q68 76 180 76h2q74 0 127.5 -40t53.5 -111q0 -84 -138 -150v-4 q59 -14 101.5 -55t42.5 -103q0 -143 -176 -231q-106 -53 -189 -53q-100 0 -147 51q-17 17 -18 38q0 8 3 17z" />
<glyph unicode="&#xb4;" horiz-adv-x="819" d="M418 1038q125 201 186 324q23 6 90 13q53 6 79 6q8 0 13 -1l7 -26l-324 -350z" />
<glyph unicode="&#xb5;" horiz-adv-x="1054" d="M2 -377q4 98 74 406l190 848l164 43l14 -11l-145 -620q-9 -49 -9 -84q0 -26 5 -44q12 -42 47 -42q68 0 188.5 142t184.5 263q49 207 76 344l157 54h23q-96 -385 -156 -707q-7 -36 -7 -57q0 -25 11 -25q14 0 59.5 33t84.5 72l30 -52q-78 -92 -168 -151.5t-139 -59.5 q-55 0 -55 87q0 49 18 126q6 23 13.5 55.5t12.5 59.5t11 53h-6q-154 -219 -272 -317q-82 -63 -144 -64q-63 0 -86 93h-6q-36 -129 -36 -254q0 -24 1 -47q10 -156 66 -211l2 -17q-14 -23 -49 -43t-74 -20q-37 0 -59 38q-21 35 -21 97v12z" />
<glyph unicode="&#xb6;" horiz-adv-x="1001" d="M119 -311q18 39 49 55q18 18 41 0q61 -47 133 -47t122 68.5t91 277.5l53 268l-133 -55q-18 -6 -39 -6q-109 0 -191.5 106.5t-82.5 257.5q0 223 162.5 368.5t380.5 145.5h380l7 -26l-72 -53l-168 -21l-186 -969q-51 -254 -205 -387q-49 -45 -108.5 -71.5t-88.5 -26.5 q-80 0 -129 49q-21 22 -21 45q0 11 5 21z" />
<glyph unicode="&#xb7;" horiz-adv-x="491" d="M143 459q0 59 36 98t93 39q47 0 78 -33t31 -84q0 -63 -39 -99t-92 -36q-47 0 -77 32t-30 83z" />
<glyph unicode="&#xb8;" horiz-adv-x="819" d="M162 -422q141 64 141 126q0 32 -37 73q-34 43 -34 67q0 23 26 58l82 98h82l-43 -51q-23 -27 -23 -42.5t23 -43.5q62 -77 61 -132q0 -60 -74 -119q-71 -56 -180 -89z" />
<glyph unicode="&#xb9;" horiz-adv-x="673" d="M184 811l13 47q82 8 106.5 26.5t36.5 90.5l70 362q7 36 7 57q0 15 -4 20q-9 13 -61 20l-53 4l10 45q139 18 283 63l-109 -571q-6 -30 -6 -51q0 -28 11 -39q19 -18 106 -27l-10 -47h-400z" />
<glyph unicode="&#xba;" horiz-adv-x="653" d="M150 766q0 106 52 193.5t132 130.5q74 43 155 43q88 0 142.5 -56.5t54.5 -154.5q0 -186 -137 -291q-94 -76 -197 -76q-96 0 -149 60.5t-53 150.5zM291 772q0 -72 25.5 -111.5t70.5 -39.5q23 0 45 8q41 18 80 105q37 83 37 191v11q-4 135 -100 135q-16 0 -41 -10 q-43 -18 -80 -93t-37 -196z" />
<glyph unicode="&#xbb;" horiz-adv-x="921" d="M119 115l219 340l-148 342l54 30q193 -281 272 -372q-141 -133 -350 -375zM457 115l219 340l-146 342l52 30q193 -281 272 -372q-121 -115 -350 -375z" />
<glyph unicode="&#xbc;" horiz-adv-x="1564" d="M156 567l12 49q80 8 104.5 27t38.5 90l72 363q5 33 5 53q0 18 -4 23q-9 13 -60 18l-54 4l11 47q119 14 284 59l-110 -567q-6 -30 -6 -51q0 -28 11 -38q19 -17 107 -28l-12 -49h-399zM268 -8l1039 1345l57 -49l-1040 -1347zM774 199l10 49q260 287 463 485h94l-90 -461 h117l-12 -73h-119l-8 -49q-5 -26 -5 -45q0 -24 9 -33q16 -16 88 -25l-8 -47h-369l10 47q82 8 105.5 23.5t34.5 76.5l10 52h-330zM899 272h219l64 314h-4q-218 -240 -279 -314z" />
<glyph unicode="&#xbd;" horiz-adv-x="1531" d="M141 567l13 49q82 8 106.5 27t36.5 90l72 363q5 33 5 53q0 18 -4 23q-9 13 -61 18l-53 4l12 47q115 14 283 59l-111 -567q-5 -29 -5 -48q0 -30 11 -41q18 -17 107 -28l-12 -49h-400zM242 -6l1038 1343l59 -49l-1042 -1347zM821 0l6 39q154 117 238 190q90 78 140 143.5 t50 135.5q0 55 -30.5 87t-89.5 32q-76 0 -172 -113l-35 37l80 100q78 82 200 82q82 0 141.5 -54t59.5 -144q0 -31 -8 -58.5t-26.5 -55.5t-34 -47.5t-47 -46t-49.5 -39.5l-54 -42q-37 -29 -49 -37l-117 -92v-4h184q55 0 82 14t68 66l43 -19l-80 -174h-500z" />
<glyph unicode="&#xbe;" horiz-adv-x="1531" d="M168 657q10 37 45 56q20 14 43 -8q84 -74 152 -74q55 0 95 42t40 109q0 70 -39 106t-96 36q-43 0 -76 -15l-10 52q96 20 158.5 64t62.5 99q0 84 -92 84q-80 0 -154 -94l-35 33l66 80q70 74 180 73h2q74 0 127 -39.5t53 -109.5q0 -88 -139 -150v-4q59 -14 101 -55t42 -104 q0 -141 -172 -230q-104 -53 -192 -53q-100 0 -146 49q-18 20 -18 40q0 6 2 13zM291 -8l1042 1345l58 -49l-1043 -1347zM793 199l10 49q260 287 463 485h94l-90 -461h119l-15 -73h-119l-8 -50q-5 -26 -5 -44q0 -24 9 -33q16 -16 88 -25l-8 -47h-368l10 47q82 8 105.5 23.5 t33.5 76.5l10 52h-329zM918 272h219l63 314h-4z" />
<glyph unicode="&#xbf;" horiz-adv-x="739" d="M-12 -164q0 139 139 227l52 34l50 32q16 10 43 28.5t40 28.5l32 26q18 15 27.5 26.5t18.5 26t13.5 27.5t4.5 27q0 66 -66 138l39 41q72 -37 129 -102.5t57 -137.5q0 -76 -59 -137.5t-164 -124.5q-166 -100 -207 -143q-45 -45 -45 -86q0 -43 30 -69t79 -26q61 0 114.5 26 t86 51.5t40.5 25.5q25 0 49.5 -28t24.5 -62q0 -43 -57 -82q-96 -70 -189 -70h-2q-113 0 -196.5 91t-83.5 212zM346 780q0 63 39 102.5t96 39.5q47 0 79 -35t32 -86q0 -63 -38 -102.5t-95 -39.5q-49 0 -81 34t-32 87z" />
<glyph unicode="&#xc0;" horiz-adv-x="1361" d="M-39 0l14 57q98 14 136.5 45t111.5 160l611 1077l71 19l53 -340l132 -774q20 -117 48.5 -145.5t135.5 -41.5l-14 -57h-498l16 57q100 10 122 33q15 15 15 53q0 18 -4 41q-4 29 -47 291h-422l-137 -270q-28 -61 -28 -91q0 -14 6 -22q18 -25 137 -35l-14 -57h-445zM489 565 h363l-80 514h-4zM547 1544q6 27 37.5 71t52.5 52l338 -215l-29 -53l-395 127z" />
<glyph unicode="&#xc1;" horiz-adv-x="1361" d="M-39 0l14 57q98 14 136.5 45t111.5 160l611 1077l71 19l53 -340l132 -774q20 -117 48.5 -145.5t135.5 -41.5l-14 -57h-498l16 57q100 10 122 33q15 15 15 53q0 18 -4 41q-4 29 -47 291h-422l-137 -270q-28 -61 -28 -91q0 -14 6 -22q18 -25 137 -35l-14 -57h-445zM489 565 h363l-80 514h-4zM754 1454l336 213q20 -6 52 -50t38 -73l-6 -16l-392 -127z" />
<glyph unicode="&#xc2;" horiz-adv-x="1361" d="M-39 0l14 57q98 14 136.5 45t111.5 160l611 1077l71 19l53 -340l132 -774q20 -117 48.5 -145.5t135.5 -41.5l-14 -57h-498l16 57q100 10 122 33q15 15 15 53q0 18 -4 41q-4 29 -47 291h-422l-137 -270q-28 -61 -28 -91q0 -14 6 -22q18 -25 137 -35l-14 -57h-445zM489 565 h363l-80 514h-4zM602 1448q158 100 283 217h53q84 -100 215 -217l-39 -47q-117 49 -223 117q-150 -80 -260 -117z" />
<glyph unicode="&#xc3;" horiz-adv-x="1361" d="M-39 0l14 57q98 14 136.5 45t111.5 160l611 1077l71 19l53 -340l132 -774q20 -117 48.5 -145.5t135.5 -41.5l-14 -57h-498l16 57q100 10 122 33q15 15 15 53q0 18 -4 41q-4 29 -47 291h-422l-137 -270q-28 -61 -28 -91q0 -14 6 -22q18 -25 137 -35l-14 -57h-445zM489 565 h363l-80 514h-4zM610 1442q66 168 164 168h4q43 0 125 -37q76 -33 107 -33q47 0 96 86l51 -35q-59 -170 -166 -170q-41 0 -143 49q-53 27 -86 27q-53 0 -98 -92z" />
<glyph unicode="&#xc4;" horiz-adv-x="1361" d="M-39 0l14 57q98 14 136.5 45t111.5 160l611 1077l71 19l53 -340l132 -774q20 -117 48.5 -145.5t135.5 -41.5l-14 -57h-498l16 57q100 10 122 33q15 15 15 53q0 18 -4 41q-4 29 -47 291h-422l-137 -270q-28 -61 -28 -91q0 -14 6 -22q18 -25 137 -35l-14 -57h-445zM489 565 h363l-80 514h-4zM586 1507q0 45 30.5 83t81.5 38q39 0 61.5 -26.5t22.5 -65.5q0 -49 -31.5 -84t-78.5 -35q-37 0 -61.5 25.5t-24.5 64.5zM975 1507q0 45 30.5 83t81.5 38q39 0 61.5 -26.5t22.5 -65.5q0 -49 -31.5 -84t-78.5 -35q-37 0 -61.5 25.5t-24.5 64.5z" />
<glyph unicode="&#xc5;" horiz-adv-x="1361" d="M-39 0l14 57q98 14 136.5 45t111.5 160l611 1077l71 19l53 -340l132 -774q20 -117 47.5 -145.5t136.5 -41.5l-17 -57h-495l16 57q100 10 123 34q15 16 16 54q0 17 -4 39q-4 29 -47 291h-424q-96 -186 -135 -270q-30 -62 -30 -92q0 -13 6 -21q18 -25 137 -35l-14 -57h-445 zM489 565h363l-80 514h-4zM769 1706q58 51 136 51q70 0 119 -47q47 -45 47 -119v-6q-2 -80 -61.5 -129t-137.5 -49q-74 0 -119 46q-44 44 -44 112q-1 88 60 141zM803 1568q0 -38 19 -63q22 -27 59 -26q39 0 65.5 30.5t28.5 79.5v8q0 38 -19 63q-20 28 -59 28q-41 0 -67 -32 q-27 -34 -27 -88z" />
<glyph unicode="&#xc6;" horiz-adv-x="1767" d="M-84 0l12 57q100 12 144.5 39t115.5 125l672 948q28 40 28 59q0 5 -2 8q-9 15 -79 24l-109 10l19 59h1057q-12 -133 -35 -311l-62 -4q-4 129 -30 182q-18 37 -59.5 49t-147.5 12h-144q-49 0 -62 -11t-24 -66l-92 -494h187q129 0 165.5 24.5t75.5 129.5h62l-78 -398h-62 q0 8 1 16q0 99 -25 122q-27 25 -158 24h-184l-58 -317q-12 -63 -12 -106q0 -58 23 -77q35 -31 202 -30q111 0 165.5 13t97.5 52q59 57 135 197l61 -23q-2 -4 -55 -140t-70 -173h-968l12 57q125 10 158.5 40t58.5 155l70 352h-357q-207 -307 -268 -416q-31 -51 -31 -77 q0 -6 1 -11q9 -25 75 -32l61 -11l-12 -57h-475zM621 686h317l113 567q-27 0 -64 -30z" />
<glyph unicode="&#xc7;" horiz-adv-x="1308" d="M137 551q0 354 243 581.5t619 227.5q145 0 347 -57q-16 -311 -19 -326l-61 -6q-12 178 -91 246.5t-225 68.5q-258 0 -426 -214t-168 -509q0 -236 101.5 -377t283.5 -141q143 0 246 81t211 245l57 -25q-86 -213 -159 -323q-182 -47 -326 -52l-22 -26q-23 -27 -23 -43.5 t25 -44.5q64 -75 63 -136q0 -64 -75 -121q-73 -56 -185 -89l-21 55q146 64 146 126q0 30 -39 77q-37 41 -37 67q0 25 29 62l61 73q-246 8 -400.5 162t-154.5 418z" />
<glyph unicode="&#xc8;" horiz-adv-x="1148" d="M4 0l14 57q125 12 157 41t56 150l162 833q12 63 12 101q0 36 -11 51q-22 29 -148 39l14 57h897q-6 -57 -37 -315l-61 -4q-4 139 -29 182q-18 37 -55 51t-139 14h-150q-53 0 -67.5 -13t-24.5 -70l-84 -439h186q127 0 162 23.5t72 126.5h63l-78 -396h-61v18q0 99 -21 121 q-24 24 -153 23h-184l-70 -356q-13 -68 -13 -113q0 -58 21 -78q35 -31 201 -30q111 0 167 14t99 55q59 55 137 195l60 -21q-92 -244 -127 -317h-967zM477 1546q6 27 38 71t50 52l340 -213l-28 -55l-396 129z" />
<glyph unicode="&#xc9;" horiz-adv-x="1148" d="M4 0l14 57q125 12 157 41t56 150l162 833q12 63 12 101q0 36 -11 51q-22 29 -148 39l14 57h897q-6 -57 -37 -315l-61 -4q-4 139 -29 182q-18 37 -55 51t-139 14h-150q-53 0 -67.5 -13t-24.5 -70l-84 -439h186q127 0 162 23.5t72 126.5h63l-78 -396h-61v18q0 99 -21 121 q-24 24 -153 23h-184l-70 -356q-13 -68 -13 -113q0 -58 21 -78q35 -31 201 -30q111 0 167 14t99 55q59 55 137 195l60 -21q-92 -244 -127 -317h-967zM637 1454l336 213q23 -4 54.5 -48t35.5 -73l-4 -18l-393 -127z" />
<glyph unicode="&#xca;" horiz-adv-x="1148" d="M4 0l14 57q125 12 157 41t56 150l162 833q12 63 12 101q0 36 -11 51q-22 29 -148 39l14 57h897q-6 -57 -37 -315l-61 -4q-4 139 -29 182q-18 37 -55 51t-139 14h-150q-53 0 -67.5 -13t-24.5 -70l-84 -439h186q127 0 162 23.5t72 126.5h63l-78 -396h-61v18q0 99 -21 121 q-24 24 -153 23h-184l-70 -356q-13 -68 -13 -113q0 -58 21 -78q35 -31 201 -30q111 0 167 14t99 55q59 55 137 195l60 -21q-92 -244 -127 -317h-967zM492 1448q158 100 282 217h53q78 -94 217 -217l-38 -47q-109 43 -226 117q-150 -80 -260 -117z" />
<glyph unicode="&#xcb;" horiz-adv-x="1148" d="M4 0l14 57q125 12 157 41t56 150l162 833q12 63 12 101q0 36 -11 51q-22 29 -148 39l14 57h899q-4 -29 -39 -315l-61 -4q-4 135 -29 182q-18 37 -56 51t-140 14h-148q-53 0 -67.5 -13t-24.5 -70l-84 -439h186q127 0 162 23.5t72 126.5h63l-78 -396h-61v18q0 99 -21 121 q-24 24 -153 23h-186l-68 -356q-13 -68 -13 -113q0 -58 21 -78q35 -31 201 -30q111 0 167 14t99 55q59 55 137 195l60 -21q-92 -244 -127 -317h-967zM489 1507q0 45 31 83t82 38q39 0 61.5 -26.5t22.5 -65.5q0 -49 -31.5 -84t-79.5 -35q-37 0 -61.5 24.5t-24.5 65.5z M879 1507q0 45 30.5 83t81.5 38q39 0 61.5 -26.5t22.5 -65.5q0 -49 -31.5 -84t-78.5 -35q-37 0 -61.5 24.5t-24.5 65.5z" />
<glyph unicode="&#xcc;" horiz-adv-x="698" d="M14 0l15 57q117 8 148.5 38t53.5 147l164 850q11 56 11 91q0 37 -12 51q-24 28 -152 38l14 57h537l-15 -57q-117 -10 -145.5 -37t-50.5 -143l-164 -850q-11 -59 -11 -96t11 -51q23 -28 149 -38l-14 -57h-539zM254 1544q6 27 38 71t52 52l338 -215l-29 -53l-395 127z" />
<glyph unicode="&#xcd;" horiz-adv-x="698" d="M14 0l15 57q117 8 148.5 38t53.5 147l164 850q11 56 11 91q0 37 -12 51q-24 28 -152 38l14 57h537l-15 -57q-117 -10 -145.5 -37t-50.5 -143l-164 -850q-11 -59 -11 -96t11 -51q23 -28 149 -38l-14 -57h-539zM403 1454l336 213q20 -6 52 -50t38 -73l-6 -16l-391 -127z " />
<glyph unicode="&#xce;" horiz-adv-x="698" d="M14 0l15 57q117 8 148.5 38t53.5 147l164 850q11 56 11 91q0 37 -12 51q-24 28 -152 38l14 57h537l-15 -57q-117 -10 -145.5 -37t-50.5 -143l-164 -850q-11 -59 -11 -96t11 -51q23 -28 149 -38l-14 -57h-539zM260 1448q158 100 283 217h53q84 -100 215 -217l-39 -47 q-117 49 -223 117q-150 -80 -260 -117z" />
<glyph unicode="&#xcf;" horiz-adv-x="698" d="M14 0l15 57q117 8 148.5 38t53.5 147l164 850q11 56 11 91q0 37 -12 51q-24 28 -152 38l14 57h537l-15 -57q-117 -10 -145.5 -37t-50.5 -143l-164 -850q-11 -59 -11 -96t11 -51q23 -28 149 -38l-14 -57h-539zM254 1507q0 45 30.5 83t82.5 38q39 0 61.5 -26.5t22.5 -65.5 q0 -49 -32 -84t-79 -35q-37 0 -61.5 25.5t-24.5 64.5zM645 1507q0 45 31 83t82 38q39 0 61.5 -26.5t22.5 -65.5q0 -49 -32 -84t-79 -35q-37 0 -61.5 25.5t-24.5 64.5z" />
<glyph unicode="&#xd0;" horiz-adv-x="1480" d="M31 0l16 57q119 10 149.5 38t53.5 149l80 411h-221l18 82h217l66 340q10 47 14 74t0 49.5t-11 32.5t-31 19.5t-46.5 12.5t-69.5 7l15 57h514q307 0 483 -135t176 -414q0 -195 -89 -359.5t-251 -268.5q-242 -152 -635 -152h-448zM432 158q4 -37 35 -56q45 -27 135 -26 q158 0 284 62.5t201.5 166t114.5 228t39 262.5q0 211 -107.5 336.5t-340.5 125.5q-100 0 -138 -16q-35 -16 -47 -86l-78 -418h312l-19 -82h-309l-72 -379q-11 -64 -11 -100q0 -10 1 -18z" />
<glyph unicode="&#xd1;" horiz-adv-x="1443" d="M2 0l14 57q82 6 121 32t60 91q39 133 84 350l102 490q15 78 15 113q0 37 -23 75q-20 33 -55 46.5t-117 17.5l12 57h309l592 -1024h6l92 490q45 236 54 350q1 10 1 20q0 55 -31 76q-36 25 -148 31l16 57h465l-12 -57q-90 -4 -124 -31t-55 -98q-35 -113 -80 -348l-153 -811 h-70l-602 1077h-6l-102 -533q-53 -267 -54 -351q0 -63 33 -87q35 -25 141 -33l-12 -57h-473zM641 1434q68 168 168 168q43 0 125 -37q70 -33 106 -33q49 0 95 84l53 -35q-61 -170 -166 -170q-29 0 -143 47q-53 27 -86 27q-51 0 -99 -90z" />
<glyph unicode="&#xd2;" horiz-adv-x="1456" d="M135 549q0 213 96.5 399.5t269.5 299t382 112.5q248 0 398.5 -163t150.5 -423q0 -334 -213 -569.5t-537 -235.5q-244 0 -395.5 161t-151.5 419zM348 526q0 -215 88 -349t262 -134q156 0 279 120t182.5 291t59.5 347q0 219 -85 352t-266 133q-147 0 -269 -114.5 t-186.5 -288t-64.5 -357.5zM635 1565q6 27 38 70.5t52 52.5l338 -215l-29 -54l-395 127z" />
<glyph unicode="&#xd3;" horiz-adv-x="1456" d="M135 549q0 213 96.5 399.5t269.5 299t382 112.5q248 0 398.5 -163t150.5 -423q0 -334 -213 -569.5t-537 -235.5q-244 0 -395.5 161t-151.5 419zM348 526q0 -215 88 -349t262 -134q156 0 279 120t182.5 291t59.5 347q0 219 -85 352t-266 133q-147 0 -269 -114.5 t-186.5 -288t-64.5 -357.5zM733 1473l336 213q20 -6 52 -50.5t38 -72.5l-6 -17l-391 -127z" />
<glyph unicode="&#xd4;" horiz-adv-x="1456" d="M135 549q0 213 96.5 399.5t269.5 299t382 112.5q248 0 398.5 -163t150.5 -423q0 -334 -213 -569.5t-537 -235.5q-244 0 -395.5 161t-151.5 419zM348 526q0 -215 88 -349t262 -134q156 0 279 120t182.5 291t59.5 347q0 219 -85 352t-266 133q-147 0 -269 -114.5 t-186.5 -288t-64.5 -357.5zM616 1464q158 100 283 217h53q84 -100 215 -217l-39 -47q-117 49 -223 117q-150 -80 -260 -117z" />
<glyph unicode="&#xd5;" horiz-adv-x="1456" d="M135 549q0 213 96.5 399.5t269.5 299t382 112.5q248 0 398.5 -163t150.5 -423q0 -334 -213 -569.5t-537 -235.5q-244 0 -395.5 161t-151.5 419zM348 526q0 -215 88 -349t262 -134q156 0 279 120t182.5 291t59.5 347q0 219 -85 352t-266 133q-147 0 -269 -114.5 t-186.5 -288t-64.5 -357.5zM631 1462q63 168 168 168q43 0 125 -37q80 -33 106 -32q47 0 96 84l52 -35q-59 -168 -166 -168q-37 0 -144 47q-57 27 -86 27q-53 0 -98 -93z" />
<glyph unicode="&#xd6;" horiz-adv-x="1456" d="M135 549q0 213 96.5 399.5t269.5 299t382 112.5q248 0 398.5 -163t150.5 -423q0 -334 -213 -569.5t-537 -235.5q-244 0 -395.5 161t-151.5 419zM348 526q0 -215 88 -349t262 -134q156 0 279 120t182.5 291t59.5 347q0 219 -85 352t-266 133q-147 0 -269 -114.5 t-186.5 -288t-64.5 -357.5zM610 1526q0 45 31 83t82 38q39 0 60.5 -27t21.5 -66q0 -49 -31 -83.5t-78 -34.5q-37 0 -61.5 25.5t-24.5 64.5zM999 1526q0 45 31 83t82 38q39 0 61.5 -27t22.5 -66q0 -49 -31.5 -83.5t-79.5 -34.5q-37 0 -61.5 25.5t-24.5 64.5z" />
<glyph unicode="&#xd7;" horiz-adv-x="1224" d="M152 100l391 404l-391 399l77 82l394 -399l395 403l80 -80l-396 -405l396 -404l-80 -82l-395 404l-394 -404z" />
<glyph unicode="&#xd8;" horiz-adv-x="1454" d="M135 551q0 213 96.5 398.5t270.5 298t383 112.5q178 0 305 -84l106 145l60 -47l-107 -145q182 -162 183 -455q0 -338 -215.5 -571.5t-538.5 -233.5q-172 0 -297 84l-107 -141l-55 51l100 135q-184 164 -184 453zM346 535q0 -199 72 -308l696 944q-74 115 -244 115 q-154 0 -276.5 -114.5t-185 -284.5t-62.5 -352zM461 160q84 -117 237 -117q156 0 280 118t183.5 287.5t59.5 346.5q0 190 -66 307z" />
<glyph unicode="&#xd9;" horiz-adv-x="1447" d="M231 1272l15 57h522l-14 -57q-115 -10 -143.5 -38t-51.5 -149l-96 -499q-17 -96 -18 -173q0 -131 51 -208q80 -123 243 -123q180 0 290 137t167 428l29 148q45 231 53 362v12q0 53 -33 74q-37 23 -147 29l14 57h477l-12 -57q-94 -4 -129 -28.5t-53 -86.5 q-29 -86 -82 -362l-33 -166q-72 -369 -240 -525q-147 -135 -352 -135q-201 0 -319 111q-112 104 -113 306q0 86 20 189l97 510q12 62 11 100q0 36 -10 49q-22 28 -143 38zM649 1544q6 27 38 71t52 52l338 -215l-28 -53l-396 127z" />
<glyph unicode="&#xda;" horiz-adv-x="1447" d="M231 1272l15 57h522l-14 -57q-115 -10 -143.5 -38t-51.5 -149l-96 -499q-17 -96 -18 -173q0 -131 51 -208q80 -123 243 -123q180 0 290 137t167 428l29 148q45 231 53 362v12q0 53 -33 74q-37 23 -147 29l14 57h477l-12 -57q-94 -4 -129 -28.5t-53 -86.5 q-29 -86 -82 -362l-33 -166q-72 -369 -240 -525q-147 -135 -352 -135q-201 0 -319 111q-112 104 -113 306q0 86 20 189l97 510q12 62 11 100q0 36 -10 49q-22 28 -143 38zM805 1454l336 213q20 -6 52 -50t38 -73l-6 -16l-391 -127z" />
<glyph unicode="&#xdb;" horiz-adv-x="1447" d="M231 1272l15 57h522l-14 -57q-115 -10 -143.5 -38t-51.5 -149l-96 -499q-17 -96 -18 -173q0 -131 51 -208q80 -123 243 -123q180 0 290 137t167 428l29 148q45 231 53 362v12q0 53 -33 74q-37 23 -147 29l14 57h477l-12 -57q-94 -4 -129 -28.5t-53 -86.5 q-29 -86 -82 -362l-33 -166q-72 -369 -240 -525q-147 -135 -352 -135q-201 0 -319 111q-112 104 -113 306q0 86 20 189l97 510q12 62 11 100q0 36 -10 49q-22 28 -143 38zM661 1454q158 100 283 217h53q84 -100 215 -217l-39 -47q-117 49 -223 117q-150 -80 -260 -117z" />
<glyph unicode="&#xdc;" horiz-adv-x="1447" d="M231 1272l15 57h522l-14 -57q-115 -10 -143.5 -38t-51.5 -149l-96 -499q-17 -96 -18 -173q0 -131 51 -208q80 -123 243 -123q180 0 290 137t167 428l29 148q45 231 53 362v12q0 53 -33 74q-37 23 -147 29l14 57h477l-12 -57q-94 -4 -129 -28.5t-53 -86.5 q-29 -86 -82 -362l-33 -166q-72 -369 -240 -525q-147 -135 -352 -135q-201 0 -319 111q-112 104 -113 306q0 86 20 189l97 510q12 62 11 100q0 36 -10 49q-22 28 -143 38zM647 1507q0 45 31 83t82 38q39 0 61.5 -26.5t22.5 -65.5q0 -49 -32 -84t-79 -35q-37 0 -61.5 25.5 t-24.5 64.5zM1036 1507q0 45 31 83t82 38q39 0 61.5 -26.5t22.5 -65.5q0 -49 -32 -84t-79 -35q-37 0 -61.5 25.5t-24.5 64.5z" />
<glyph unicode="&#xdd;" horiz-adv-x="1259" d="M195 1272l16 57h485l-14 -57l-68 -10q-51 -8 -60 -26q-3 -6 -3 -16q0 -18 10 -46q86 -258 180 -486q236 330 320 473q23 40 23 61q0 7 -3 12q-10 19 -69 28l-60 10l17 57h444l-16 -57q-98 -10 -139 -36t-119 -122q-102 -129 -330 -457q-35 -49 -51 -116l-56 -283 q-14 -66 -13 -106q0 -38 12 -53q26 -30 163 -42l-14 -57h-563l14 57q125 10 158 40t59 161l53 270q4 22 5 45q0 40 -15 78l-176 471q-37 94 -65.5 117t-124.5 33zM692 1452l334 213q23 -4 54.5 -48t35.5 -73l-6 -18l-391 -127z" />
<glyph unicode="&#xde;" horiz-adv-x="1124" d="M20 0l15 55q117 12 146.5 38t49.5 136l166 865q12 58 12 93q0 32 -10 46q-20 29 -137 39l12 57h504l-14 -57q-115 -10 -141.5 -43t-57.5 -201h144q193 0 300 -79t107 -240q0 -186 -143.5 -292t-343.5 -110q-41 0 -74 8l-121 33l-22 -119q-9 -49 -10 -81q0 -39 14 -54 q25 -27 164 -39l-15 -55h-545zM449 418q76 -29 153 -29q119 0 215 82t96 246q0 111 -62.5 176t-199.5 68q-51 0 -84 -13q-20 -10 -32 -69z" />
<glyph unicode="&#xdf;" horiz-adv-x="1060" d="M-260 -440q0 49 57 92q23 20 45 4q55 -45 119 -45q55 0 82 43q59 74 125 496l100 647h-155l-11 26l62 62h119q57 297 237 450q147 125 305 125q121 0 190.5 -69.5t69.5 -182.5q0 -80 -32 -123q-238 -172 -238 -311q0 -59 70 -174q94 -152 94 -254q0 -141 -135 -256 t-271 -115q-63 0 -119.5 37t-56.5 80t47 76q27 16 50 -2q92 -86 178 -86q70 0 112.5 48t42.5 114q0 84 -71 200q-2 4 -16.5 28l-18.5 31l-16 27q-12 20 -15.5 28.5t-12.5 26t-12 29t-8.5 26.5t-6.5 27.5t-1 26.5q0 78 65.5 162t198.5 199q18 45 19 110q0 98 -47 157.5 t-125 59.5q-47 0 -87 -22.5t-67.5 -54t-53.5 -87t-41 -101.5t-30.5 -118.5t-22.5 -116.5l-20 -116q-4 -27 -6 -39l-74 -446q-88 -492 -268 -670q-61 -66 -125.5 -99.5t-105.5 -33.5q-43 0 -81 24.5t-38 59.5z" />
<glyph unicode="&#xe0;" horiz-adv-x="1015" d="M78 209q0 154 66.5 305.5t174.5 245.5q82 70 188.5 116t203.5 46q57 0 129 -17q61 -12 84 -12l8 -8q-70 -272 -141 -660q-7 -39 -8 -61q0 -27 12 -27q14 0 60 33t87 74l27 -49q-80 -98 -172 -159t-140 -61q-53 0 -52 86q0 41 11 101l37 180h-4q-109 -154 -252 -272 q-117 -94 -196 -95q-49 0 -86 60.5t-37 173.5zM266 248q0 -131 53 -131q55 0 183.5 140t177.5 243q33 115 70 301q-57 29 -134 28q-82 0 -135 -41q-98 -72 -156.5 -228t-58.5 -312zM500 1341l6 21q16 8 77 18q50 9 75 9h10q12 -59 42 -191l40 -174l-62 -20 q-157 286 -188 337z" />
<glyph unicode="&#xe1;" horiz-adv-x="1015" d="M78 209q0 154 66.5 305.5t174.5 245.5q82 70 188.5 116t203.5 46q57 0 129 -17q61 -12 84 -12l8 -8q-70 -272 -141 -660q-7 -39 -8 -61q0 -27 12 -27q14 0 60 33t87 74l27 -49q-80 -98 -172 -159t-140 -61q-53 0 -52 86q0 41 11 101l37 180h-4q-109 -154 -252 -272 q-117 -94 -196 -95q-49 0 -86 60.5t-37 173.5zM266 248q0 -131 53 -131q55 0 183.5 140t177.5 243q33 115 70 301q-57 29 -134 28q-82 0 -135 -41q-98 -72 -156.5 -228t-58.5 -312zM563 1038q125 201 187 324q23 6 90 13q53 6 79 6q8 0 13 -1l6 -26l-324 -350z" />
<glyph unicode="&#xe2;" horiz-adv-x="1015" d="M78 209q0 154 66.5 305.5t174.5 245.5q82 70 188.5 116t203.5 46q57 0 129 -17q61 -12 84 -12l8 -8q-70 -272 -141 -660q-7 -39 -8 -61q0 -27 12 -27q14 0 60 33t87 74l27 -49q-80 -98 -172 -159t-140 -61q-53 0 -52 86q0 41 11 101l37 180h-4q-109 -154 -252 -272 q-117 -94 -196 -95q-49 0 -86 60.5t-37 173.5zM266 248q0 -131 53 -131q55 0 183.5 140t177.5 243q33 115 70 301q-57 29 -134 28q-82 0 -135 -41q-98 -72 -156.5 -228t-58.5 -312zM408 1038q180 207 268 332h49q53 -158 145 -334l-51 -37q-68 76 -145 193 q-121 -115 -223 -193z" />
<glyph unicode="&#xe3;" horiz-adv-x="1015" d="M78 209q0 154 66.5 305.5t174.5 245.5q82 70 188.5 116t203.5 46q57 0 129 -17q61 -12 84 -12l8 -8q-70 -272 -141 -660q-7 -39 -8 -61q0 -27 12 -27q14 0 60 33t87 74l27 -49q-80 -98 -172 -159t-140 -61q-53 0 -52 86q0 41 11 101l37 180h-4q-109 -154 -252 -272 q-117 -94 -196 -95q-49 0 -86 60.5t-37 173.5zM266 248q0 -131 53 -131q55 0 183.5 140t177.5 243q33 115 70 301q-57 29 -134 28q-82 0 -135 -41q-98 -72 -156.5 -228t-58.5 -312zM389 1083q35 90 80 134.5t88 44.5q41 0 121 -39q82 -35 108 -35q43 0 95 86l51 -25 q-68 -182 -168 -182q-16 0 -35.5 5t-30 9t-38.5 18l-35 17q-53 25 -88 25q-49 0 -99 -90z" />
<glyph unicode="&#xe4;" horiz-adv-x="1015" d="M78 209q0 154 66.5 305.5t174.5 245.5q82 70 188.5 116t203.5 46q57 0 129 -17q61 -12 84 -12l8 -8q-70 -272 -141 -660q-7 -39 -8 -61q0 -27 12 -27q14 0 60 33t87 74l27 -49q-80 -98 -172 -159t-140 -61q-53 0 -52 86q0 41 11 101l37 180h-4q-109 -154 -252 -272 q-117 -94 -196 -95q-49 0 -86 60.5t-37 173.5zM266 248q0 -131 53 -131q55 0 183.5 140t177.5 243q33 115 70 301q-57 29 -134 28q-82 0 -135 -41q-98 -72 -156.5 -228t-58.5 -312zM393 1176q0 45 31 82.5t82 37.5q39 0 61.5 -26.5t22.5 -65.5q0 -49 -32 -84t-79 -35 q-37 0 -61.5 26t-24.5 65zM760 1176q0 45 30.5 82.5t81.5 37.5q39 0 61.5 -26.5t22.5 -65.5q0 -49 -31.5 -84t-78.5 -35q-37 0 -61.5 26t-24.5 65z" />
<glyph unicode="&#xe5;" horiz-adv-x="1015" d="M78 209q0 154 66.5 305.5t174.5 245.5q82 70 188.5 116t203.5 46q57 0 129 -17q61 -12 84 -12l8 -8q-70 -272 -141 -660q-7 -39 -8 -61q0 -27 12 -27q14 0 60 33t87 74l27 -49q-80 -98 -172 -159t-140 -61q-53 0 -52 86q0 41 11 101l37 180h-4q-109 -154 -252 -272 q-117 -94 -196 -95q-49 0 -86 60.5t-37 173.5zM266 248q0 -131 53 -131q55 0 183.5 140t177.5 243q33 115 70 301q-57 29 -134 28q-82 0 -135 -41q-98 -72 -156.5 -228t-58.5 -312zM546 1310q60 52 140 52q72 0 122 -48q48 -46 48 -122v-6q-2 -80 -63.5 -130t-141.5 -50 q-76 0 -123 47q-45 45 -45 114q0 89 63 143zM579 1172q0 -40 20 -66q22 -29 60 -29q41 0 69 32t30 81v8q0 40 -20 66q-22 29 -62 28q-39 0 -67 -32q-30 -36 -30 -88z" />
<glyph unicode="&#xe6;" horiz-adv-x="1368" d="M74 205q0 156 63.5 308.5t167.5 244.5q78 70 190.5 117t204.5 47q41 0 95 -13q29 -4 82 -4l8 -8l-29 -115l4 -2q66 63 155 102.5t159 39.5q84 0 132 -47.5t48 -116.5q0 -92 -92.5 -171t-207 -124t-249.5 -78q-2 -23 -2 -70q0 -88 35.5 -148.5t113.5 -60.5q154 0 316 160 l35 -47q-227 -242 -455 -242q-86 0 -150.5 64.5t-64.5 220.5q0 29 2 49h-4q-94 -127 -234 -237q-115 -96 -202 -97q-47 0 -84 55.5t-37 172.5zM262 248q0 -125 51 -125q70 0 179 121q121 131 165 231q20 53 47 165t31 161q-51 29 -127 28q-80 0 -127 -30q-80 -51 -143 -197 q-76 -170 -76 -354zM813 455q201 55 287 121.5t86 150.5q0 102 -99 102q-53 0 -98 -30q-51 -33 -102 -118t-74 -226z" />
<glyph unicode="&#xe7;" horiz-adv-x="784" d="M86 268q0 135 58.5 274.5t158.5 229.5q70 61 166 105.5t176 44.5q63 0 110.5 -32t47.5 -71q0 -51 -62 -94q-17 -12 -31 -12q-19 0 -32 20q-63 88 -150 88q-98 0 -163 -121q-92 -176 -93 -378q0 -104 37 -161t107 -57q115 0 278 146l29 -47q-133 -152 -297 -207l-41 -51 q-20 -27 -19 -42.5t25 -45.5q64 -75 64 -136q0 -64 -75 -121q-73 -56 -185 -89l-23 53q148 62 148 128q0 30 -39 77q-37 39 -37 65q0 25 28 62l66 79v2q-18 -2 -34 -2q-93 0 -150 68q-68 80 -68 225z" />
<glyph unicode="&#xe8;" horiz-adv-x="825" d="M86 276q0 147 64.5 292t181.5 235q152 119 291 119q84 0 135 -48.5t51 -117.5q0 -225 -539 -365q-2 -25 -2 -63q0 -94 36 -159t120 -65q137 0 299 156l35 -49q-221 -236 -441 -236q-94 0 -162.5 68.5t-68.5 232.5zM279 457q365 100 364 268q0 51 -28.5 81t-69.5 30 q-45 0 -80 -25q-53 -31 -108 -117.5t-78 -236.5zM401 1341l7 19q16 8 76 18q50 9 76 9q5 0 9 -1l42 -188l40 -176l-61 -18q-158 286 -189 337z" />
<glyph unicode="&#xe9;" horiz-adv-x="825" d="M86 276q0 147 64.5 292t181.5 235q152 119 291 119q84 0 135 -48.5t51 -117.5q0 -225 -539 -365q-2 -25 -2 -63q0 -94 36 -159t120 -65q137 0 299 156l35 -49q-221 -236 -441 -236q-94 0 -162.5 68.5t-68.5 232.5zM279 457q365 100 364 268q0 51 -28.5 81t-69.5 30 q-45 0 -80 -25q-53 -31 -108 -117.5t-78 -236.5zM481 1038q125 201 187 324q23 6 90 13q53 6 79 6q8 0 13 -1l6 -26l-324 -350z" />
<glyph unicode="&#xea;" horiz-adv-x="825" d="M86 276q0 147 64.5 292t181.5 235q152 119 291 119q84 0 135 -48.5t51 -117.5q0 -225 -539 -365q-2 -25 -2 -63q0 -94 36 -159t120 -65q137 0 299 156l35 -49q-221 -236 -441 -236q-94 0 -162.5 68.5t-68.5 232.5zM279 457q365 100 364 268q0 51 -28.5 81t-69.5 30 q-45 0 -80 -25q-53 -31 -108 -117.5t-78 -236.5zM317 1038q180 207 269 332h49q53 -158 145 -334l-51 -37q-68 76 -145 193q-121 -115 -224 -193z" />
<glyph unicode="&#xeb;" horiz-adv-x="825" d="M86 276q0 147 64.5 292t181.5 235q152 119 291 119q84 0 135 -48.5t51 -117.5q0 -225 -539 -365q-2 -25 -2 -63q0 -94 36 -159t120 -65q139 0 301 156l35 -49q-223 -236 -443 -236q-94 0 -162.5 68.5t-68.5 232.5zM279 457q365 100 364 268q0 51 -28.5 81t-69.5 30 q-45 0 -80 -25q-53 -31 -108 -117.5t-78 -236.5zM301 1176q0 45 30.5 82.5t82.5 37.5q39 0 60.5 -26.5t21.5 -65.5q0 -49 -31 -84t-78 -35q-37 0 -61.5 26t-24.5 65zM668 1176q0 45 30.5 82.5t81.5 37.5q39 0 61.5 -26.5t22.5 -65.5q0 -49 -31.5 -84t-78.5 -35 q-37 0 -61.5 26t-24.5 65z" />
<glyph unicode="&#xec;" horiz-adv-x="569" d="M117 723q86 84 181 141.5t140 57.5q41 0 42 -64q0 -40 -17 -106l-137 -547q-7 -31 -8 -48q0 -21 12 -22q35 0 141 94l31 -47q-66 -74 -163 -140.5t-148.5 -66.5t-51.5 80q0 48 19 125l123 512q7 30 7 47t-7 21q-33 0 -138 -86zM225 1341l6 21q16 8 77 17q49 8 75 8 q6 0 10 -1q12 -61 82 -362l-63 -20z" />
<glyph unicode="&#xed;" horiz-adv-x="569" d="M117 723q86 84 181 141.5t140 57.5q41 0 42 -64q0 -40 -17 -106l-137 -547q-7 -31 -8 -48q0 -21 12 -22q35 0 141 94l31 -47q-66 -74 -163 -140.5t-148.5 -66.5t-51.5 80q0 48 19 125l123 512q7 30 7 47t-7 21q-33 0 -138 -86zM324 1038q96 158 186 322q18 8 87 15 q44 5 69 5q15 0 24 -2l6 -26l-323 -348z" />
<glyph unicode="&#xee;" horiz-adv-x="569" d="M117 723q86 84 181 141.5t140 57.5q41 0 42 -64q0 -40 -17 -106l-137 -547q-7 -31 -8 -48q0 -21 12 -22q35 0 141 94l31 -47q-66 -74 -163 -140.5t-148.5 -66.5t-51.5 80q0 48 19 125l123 512q7 30 7 47t-7 21q-33 0 -138 -86zM158 1040q170 190 266 332h51 q45 -141 146 -336l-52 -37q-47 53 -147 193q-133 -123 -223 -193z" />
<glyph unicode="&#xef;" horiz-adv-x="569" d="M117 723q86 84 181 141.5t140 57.5q41 0 42 -64q0 -40 -17 -106l-137 -547q-7 -31 -8 -48q0 -21 12 -22q35 0 141 94l29 -47q-63 -74 -160.5 -140.5t-149.5 -66.5t-52 79q0 48 20 126l123 512q7 30 7 47t-7 21q-33 0 -138 -86zM154 1176q0 45 30.5 82.5t83.5 37.5 q39 0 60.5 -26.5t21.5 -65.5q0 -49 -30.5 -84t-77.5 -35q-39 0 -63.5 25t-24.5 66zM522 1176q0 45 31 82.5t82 37.5q39 0 60.5 -26.5t21.5 -65.5q0 -49 -31 -84t-78 -35q-37 0 -61.5 25t-24.5 66z" />
<glyph unicode="&#xf0;" horiz-adv-x="962" d="M98 293q0 195 87 338t208 211q137 76 254 76q33 -2 76 -13q-2 45 -31.5 118t-62.5 122l-291 -154l-29 66l277 145q-35 49 -114 110.5t-148 84.5q4 39 28 57q74 -12 171.5 -66.5t164.5 -125.5l254 133l35 -62l-236 -129q174 -223 174 -512q0 -176 -60 -332.5t-167 -248.5 q-152 -135 -323 -136q-133 0 -200 94.5t-67 223.5zM287 319q0 -115 40 -187.5t115 -72.5q29 0 54 13q82 31 160 197q77 163 77 399v12q0 90 -35 117q-49 41 -120 41q-47 0 -97 -25q-63 -33 -128.5 -161t-65.5 -333z" />
<glyph unicode="&#xf1;" horiz-adv-x="1095" d="M111 -8q102 401 165 688q8 38 9 59q0 25 -13 25q-14 0 -54 -27.5t-77 -64.5l-28 51q84 90 169 144.5t132 54.5q44 0 44 -78q0 -57 -24 -156l-39 -164h4q168 229 363 348q80 49 141 50q77 0 77 -120q0 -69 -26 -177l-96 -416q-8 -32 -8 -50q0 -22 12 -22q14 0 53 25.5 t78 66.5l31 -51q-88 -98 -171 -150.5t-130 -52.5q-54 0 -54 85q0 50 19 130l107 449q13 57 13 92q0 49 -28 51q-61 0 -198.5 -140t-212.5 -271q-51 -193 -82 -355q-78 -12 -162 -39zM410 1083q35 90 78.5 133.5t86.5 43.5q39 0 121 -37q82 -35 109 -35q45 0 94 86l51 -27 q-68 -180 -168 -180q-39 0 -137 49q-55 25 -90 25q-49 0 -96 -90z" />
<glyph unicode="&#xf2;" horiz-adv-x="970" d="M92 297q0 190 88 337.5t221 217.5q123 70 232 70q131 0 203.5 -85t72.5 -237q0 -137 -57 -272t-162 -224q-154 -129 -321 -129q-141 0 -209 92.5t-68 229.5zM281 303q0 -113 44 -178.5t119 -65.5q33 0 64 13q82 35 147.5 185.5t65.5 342.5q0 119 -43 179.5t-115 60.5 q-35 0 -74 -15q-72 -35 -140 -172t-68 -350zM446 1341l7 19q16 8 76 18q50 9 76 9q5 0 9 -1l42 -188l40 -176l-61 -18q-158 286 -189 337z" />
<glyph unicode="&#xf3;" horiz-adv-x="970" d="M92 297q0 190 88 337.5t221 217.5q123 70 232 70q131 0 203.5 -85t72.5 -237q0 -137 -57 -272t-162 -224q-154 -129 -321 -129q-141 0 -209 92.5t-68 229.5zM281 303q0 -113 44 -178.5t119 -65.5q33 0 64 13q82 35 147.5 185.5t65.5 342.5q0 119 -43 179.5t-115 60.5 q-35 0 -74 -15q-72 -35 -140 -172t-68 -350zM504 1038q125 201 186 324q23 6 90 13q53 6 79 6q8 0 13 -1l7 -26l-324 -350z" />
<glyph unicode="&#xf4;" horiz-adv-x="970" d="M92 297q0 190 88 337.5t221 217.5q123 70 232 70q131 0 203.5 -85t72.5 -237q0 -137 -57 -272t-162 -224q-154 -129 -321 -129q-141 0 -209 92.5t-68 229.5zM281 303q0 -113 44 -178.5t119 -65.5q33 0 64 13q82 35 147.5 185.5t65.5 342.5q0 119 -43 179.5t-115 60.5 q-35 0 -74 -15q-72 -35 -140 -172t-68 -350zM377 1038q180 207 268 332h49q53 -158 146 -334l-52 -37q-68 76 -145 193q-121 -115 -223 -193z" />
<glyph unicode="&#xf5;" horiz-adv-x="970" d="M92 297q0 190 88 337.5t221 217.5q123 70 232 70q131 0 203.5 -85t72.5 -237q0 -137 -57 -272t-162 -224q-154 -129 -321 -129q-141 0 -209 92.5t-68 229.5zM281 303q0 -113 44 -178.5t119 -65.5q33 0 64 13q82 35 147.5 185.5t65.5 342.5q0 119 -43 179.5t-115 60.5 q-35 0 -74 -15q-72 -35 -140 -172t-68 -350zM356 1083q35 90 80 134.5t88 44.5q41 0 121 -39q74 -35 109 -35q43 0 94 86l51 -27q-68 -180 -168 -180q-37 0 -139 47q-53 25 -88 25q-48 0 -98 -90z" />
<glyph unicode="&#xf6;" horiz-adv-x="970" d="M92 297q0 190 88 337.5t221 217.5q123 70 232 70q131 0 203.5 -85t72.5 -237q0 -137 -57 -272t-162 -224q-154 -129 -321 -129q-141 0 -209 92.5t-68 229.5zM281 303q0 -113 44 -178.5t117 -65.5q33 0 64 13q84 35 149.5 185.5t65.5 342.5q0 119 -43 179.5t-115 60.5 q-35 0 -71 -15q-74 -33 -142.5 -171t-68.5 -351zM354 1176q0 45 31 82.5t82 37.5q39 0 61.5 -26.5t22.5 -65.5q0 -49 -32 -84t-79 -35q-37 0 -61.5 26t-24.5 65zM723 1176q0 45 30.5 82.5t82.5 37.5q39 0 61.5 -26.5t22.5 -65.5q0 -49 -32 -84t-79 -35q-37 0 -61.5 26 t-24.5 65z" />
<glyph unicode="&#xf7;" horiz-adv-x="1224" d="M137 467v106h993v-106h-993zM528 215q0 43 32 72.5t77 29.5q39 0 70.5 -30.5t31.5 -71.5t-32.5 -72.5t-71.5 -31.5q-45 0 -76 30.5t-31 73.5zM532 825q0 43 32 74t73 31q45 0 75.5 -31t30.5 -74q0 -41 -31.5 -71.5t-76.5 -30.5q-39 0 -71 30.5t-32 71.5z" />
<glyph unicode="&#xf8;" horiz-adv-x="974" d="M92 297q0 190 85 334.5t214 216.5q135 74 246 74q88 0 145 -37l78 106l51 -41l-77 -106q80 -82 79 -250q0 -131 -57 -265t-160 -223q-66 -57 -156.5 -94t-174.5 -37q-88 0 -144 37l-78 -106l-49 45l76 102q-78 84 -78 244zM268 317q0 -41 17 -114l411 559q-37 78 -127 78 q-41 0 -75 -15q-76 -31 -151 -165t-75 -343zM313 135q41 -78 119 -78q35 0 72 15q86 33 161 182q73 146 72 332v10q0 59 -12 96z" />
<glyph unicode="&#xf9;" horiz-adv-x="1095" d="M113 725q88 88 176 142.5t135 54.5q37 0 44 -39q2 -9 2 -21q0 -42 -19 -125l-111 -481q-11 -49 -11 -80q0 -54 33 -53q76 0 207 141.5t197 261.5l76 342l157 54h23q-96 -381 -158 -705q-7 -36 -7 -57q0 -25 11 -25q14 0 60.5 32t85.5 71l28 -52q-78 -92 -168 -151.5 t-139 -59.5q-55 0 -55 88q0 50 18 127q16 63 37 172h-4q-152 -209 -326 -327q-84 -59 -161 -60q-91 0 -91 121q0 59 21 146l107 452q6 30 6 48q0 23 -11 26q-23 0 -139 -94zM494 1341l6 21q16 8 77 17q49 8 74 8q6 0 10 -1q12 -57 42 -186l40 -176l-61 -20 q-157 286 -188 337z" />
<glyph unicode="&#xfa;" horiz-adv-x="1095" d="M113 725q88 88 176 142.5t135 54.5q37 0 44 -39q2 -9 2 -21q0 -42 -19 -125l-111 -481q-11 -49 -11 -80q0 -54 33 -53q76 0 207 141.5t197 261.5l76 342l157 54h23q-96 -381 -158 -705q-7 -36 -7 -57q0 -25 11 -25q14 0 60.5 32t85.5 71l28 -52q-78 -92 -168 -151.5 t-139 -59.5q-55 0 -55 88q0 50 18 127q16 63 37 172h-4q-152 -209 -326 -327q-84 -59 -161 -60q-91 0 -91 121q0 59 21 146l107 452q6 30 6 48q0 23 -11 26q-23 0 -139 -94zM588 1038q92 145 188 322q18 8 87 15q44 5 70 5q15 0 23 -2l7 -26l-324 -348z" />
<glyph unicode="&#xfb;" horiz-adv-x="1095" d="M113 725q88 88 176 142.5t135 54.5q37 0 44 -39q2 -9 2 -21q0 -42 -19 -125l-111 -481q-11 -49 -11 -80q0 -54 33 -53q76 0 207 141.5t197 261.5l76 342l157 54h23q-96 -381 -158 -705q-7 -36 -7 -57q0 -25 11 -25q14 0 60.5 32t85.5 71l28 -52q-78 -92 -168 -151.5 t-139 -59.5q-55 0 -55 88q0 50 18 127q16 63 37 172h-4q-152 -209 -326 -327q-84 -59 -161 -60q-91 0 -91 121q0 59 21 146l107 452q6 30 6 48q0 23 -11 26q-23 0 -139 -94zM436 1040q168 188 268 332h50q51 -154 145 -336l-49 -37q-47 53 -148 193q-121 -115 -223 -193z " />
<glyph unicode="&#xfc;" horiz-adv-x="1095" d="M113 725q88 88 176 142.5t135 54.5q37 0 44 -39q2 -9 2 -21q0 -42 -19 -125l-111 -481q-11 -49 -11 -80q0 -54 33 -53q76 0 207 141.5t197 261.5l76 342l157 54h23q-96 -381 -158 -705q-7 -36 -7 -57q0 -25 11 -25q14 0 60.5 32t85.5 71l28 -52q-78 -92 -168 -151.5 t-139 -59.5q-55 0 -55 88q0 50 18 127q16 63 37 172h-4q-152 -209 -326 -327q-84 -59 -161 -60q-91 0 -91 121q0 59 21 146l107 452q6 30 6 48q0 23 -11 26q-23 0 -139 -94zM418 1176q0 45 31.5 82.5t82.5 37.5q39 0 60.5 -26.5t21.5 -65.5q0 -49 -30.5 -84t-77.5 -35 q-37 0 -62.5 26t-25.5 65zM786 1176q0 45 31 82.5t82 37.5q39 0 60.5 -26.5t21.5 -65.5q0 -49 -30.5 -84t-78.5 -35q-37 0 -61.5 26t-24.5 65z" />
<glyph unicode="&#xfd;" horiz-adv-x="915" d="M-121 -473q285 186 477 444q0 258 -63 672q-18 121 -45 121q-33 0 -117 -117l-37 49q59 92 129 159t123 67q84 0 113 -248q25 -207 45 -512h4q264 399 264 549q0 39 -24 98q-10 27 4 53q31 59 90 60q37 0 60.5 -32t25.5 -85q0 -90 -74 -219q-129 -233 -360 -563 q-229 -324 -373 -486l-223 -57zM522 1038l187 322q18 8 87 15q44 5 69 5q15 0 24 -2l6 -24l-324 -350z" />
<glyph unicode="&#xfe;" horiz-adv-x="1015" d="M-152 -514l7 57q96 18 125.5 48t54.5 141l295 1456q8 51 8 81q0 28 -7 38q-15 20 -98 22h-45l7 55q72 8 146.5 27t122.5 33t58 14q23 0 23 -28q0 -12 -4 -29l-164 -780h4q127 154 244.5 227.5t195.5 73.5q63 0 106.5 -61.5t43.5 -176.5q0 -174 -85 -339t-220 -259 q-76 -55 -162 -83t-121 -28q-76 0 -131 33l-51 -278q-9 -47 -9.5 -78t9.5 -45q18 -29 102 -37l49 -4l-6 -55zM283 133q61 -66 153 -65q76 0 131 36q74 49 144.5 209t70.5 334q0 145 -69 146q-57 0 -158.5 -81t-196.5 -225q-30 -127 -75 -354z" />
<glyph unicode="&#xff;" horiz-adv-x="915" d="M-121 -473q285 186 477 444q0 258 -63 672q-18 121 -45 121q-33 0 -117 -117l-37 49q59 92 129 159t123 67q84 0 113 -248q25 -207 45 -512h4q264 399 264 549q0 39 -24 98q-10 25 4 55q29 57 90 58q37 0 60.5 -32t25.5 -85q0 -90 -74 -219q-129 -233 -360 -563 q-229 -324 -373 -486l-223 -57zM336 1176q0 45 30.5 82.5t82.5 37.5q39 0 61 -26.5t22 -65.5q0 -49 -30.5 -84t-77.5 -35q-39 0 -63.5 26t-24.5 65zM702 1176q0 45 31 82.5t82 37.5q39 0 61.5 -26.5t22.5 -65.5q0 -49 -30.5 -84t-77.5 -35q-39 0 -64 26t-25 65z" />
<glyph unicode="&#x152;" horiz-adv-x="1947" d="M139 561q0 371 251 581t626 210q82 -2 201.5 -12.5t173.5 -10.5h561q-2 -18 -8.5 -67.5t-14.5 -123t-14 -118.5l-62 -6q0 123 -28 180q-18 37 -59.5 50t-149.5 13h-139q-51 0 -64.5 -12t-23.5 -67l-86 -445h182q127 0 164 24.5t75 127.5h62l-78 -391h-61v15q0 99 -25 122 q-27 25 -156 24h-178l-69 -362q-13 -69 -13 -114q0 -57 21 -75q33 -31 198 -30q111 0 168.5 14t98.5 55q63 59 141 195l57 -21q-113 -287 -127 -317h-620q-74 0 -189 -12q-96 -10 -172 -11q-147 0 -261.5 38t-185.5 97.5t-116 138.5t-62.5 154.5t-17.5 155.5zM354 565 q0 -88 21.5 -172t69 -166t141.5 -130q90 -46 214 -46h11q80 4 131 27q55 25 76 135l176 913q6 27 6 48q0 55 -39 73q-66 31 -180 31q-262 0 -444.5 -187.5t-182.5 -525.5z" />
<glyph unicode="&#x153;" horiz-adv-x="1413" d="M92 301q0 186 84 331.5t211 217.5t231 72q178 0 234 -183l2 2q74 74 177.5 127.5t182.5 53.5q82 0 131.5 -48.5t49.5 -119.5q0 -70 -53.5 -132.5t-141.5 -107.5t-172 -75.5t-176 -53.5q-4 -27 -4 -55q0 -225 160 -226q139 0 303 162l35 -49q-221 -242 -435 -242 q-166 0 -209 179h-2q-61 -78 -158.5 -128.5t-185.5 -50.5q-135 0 -199.5 96.5t-64.5 229.5zM281 315q0 -113 38.5 -183.5t112.5 -70.5q35 0 66 17q76 33 145.5 183.5t69.5 346.5q0 233 -154 234h-2q-35 0 -68 -15q-74 -33 -141 -164t-67 -348zM860 455q197 53 280 120.5 t85 151.5q0 51 -25.5 77.5t-64.5 26.5h-2q-47 0 -93 -26q-53 -33 -105 -118t-75 -232z" />
<glyph unicode="&#x178;" horiz-adv-x="1259" d="M195 1272l16 57h485l-14 -57l-68 -10q-51 -8 -60 -26q-3 -6 -3 -16q0 -18 10 -46q86 -258 180 -486q236 330 320 473q23 40 23 61q0 7 -3 12q-10 19 -69 28l-60 10l17 57h444l-14 -57q-100 -10 -141 -36t-119 -122q-102 -129 -330 -457q-37 -51 -49 -116l-58 -283 q-14 -66 -13 -106q0 -38 12 -53q26 -30 163 -42l-14 -57h-563l14 57q125 10 158 40t59 161l53 270q4 22 5 45q0 40 -15 78l-176 471q-37 94 -65.5 117t-124.5 33zM547 1509q0 45 30.5 83t83.5 38q39 0 60.5 -26.5t21.5 -65.5q0 -49 -30.5 -84t-77.5 -35q-39 0 -62.5 24.5 t-25.5 65.5zM938 1509q0 45 30.5 83t82.5 38q39 0 60.5 -26.5t21.5 -65.5q0 -49 -31 -84t-78 -35q-37 0 -61.5 24.5t-24.5 65.5z" />
<glyph unicode="&#x2c6;" horiz-adv-x="819" d="M305 1038q180 207 268 332h50q53 -158 145 -334l-51 -37q-68 76 -146 193q-121 -115 -223 -193z" />
<glyph unicode="&#x2dc;" horiz-adv-x="819" d="M268 1083q35 90 80 134.5t88 44.5q41 0 121 -39q74 -35 109 -35q43 0 94 86l51 -27q-68 -180 -168 -180q-37 0 -139 47q-49 27 -88 27q-49 0 -99 -90z" />
<glyph unicode="&#x2013;" horiz-adv-x="1024" d="M109 410l26 110h815l-24 -110h-817z" />
<glyph unicode="&#x2014;" horiz-adv-x="1869" d="M109 410l28 110h1661l-29 -110h-1660z" />
<glyph unicode="&#x2018;" horiz-adv-x="456" d="M325 1358q89 74 207 104l21 -59q-178 -72 -184 -189q0 -5 -1 -9q0 -77 101 -103q23 -6 23 -37q-2 -41 -32 -65.5t-65 -24.5q-63 0 -114 55q-49 53 -50 133q1 118 94 195z" />
<glyph unicode="&#x2019;" horiz-adv-x="446" d="M205 1024q182 70 184 186q6 88 -100 115q-25 8 -23 37q2 41 32 65.5t67 24.5q63 0 113 -56q48 -54 48 -136q0 -118 -91 -192q-89 -73 -210 -103z" />
<glyph unicode="&#x201a;" horiz-adv-x="468" d="M-10 -172q182 76 182 194q0 87 -98 113q-27 4 -23 37q2 39 32 64.5t67 25.5q63 0 114 -57q49 -55 49 -135q0 -119 -91 -195q-89 -74 -210 -104z" />
<glyph unicode="&#x201c;" horiz-adv-x="815" d="M324 1357q88 73 206 105l25 -57q-178 -74 -184 -191q0 -5 -1 -9q0 -76 99 -103q23 -6 23 -37q-2 -41 -32 -65.5t-65 -24.5q-63 0 -114 55q-49 53 -50 133q1 118 93 194zM684 1358q90 74 209 104l20 -57q-178 -74 -184 -193v-9q0 -77 98 -105q25 -4 25 -37 q-2 -39 -31.5 -63.5t-66.5 -24.5q-63 0 -115 56q-49 54 -49 134q0 118 94 195z" />
<glyph unicode="&#x201d;" horiz-adv-x="806" d="M205 1024q182 70 184 186q6 90 -100 117q-25 4 -23 35q2 41 32 65.5t67 24.5q63 0 113 -56q48 -54 48 -136q0 -118 -91 -192q-89 -73 -210 -103zM565 1024q184 74 185 190q0 87 -101 113q-23 4 -22 35q2 41 31.5 65.5t64.5 24.5q63 0 114 -55q48 -53 48 -133 q0 -119 -91 -195q-89 -74 -208 -104z" />
<glyph unicode="&#x201e;" horiz-adv-x="833" d="M-10 -172q182 76 182 194q0 87 -98 113q-23 4 -23 37q2 39 32 64.5t67 25.5q63 0 114 -57q49 -55 49 -135q0 -119 -91 -195q-89 -74 -210 -104zM352 -172q185 76 185 200q0 80 -99 107q-27 4 -22 37q2 39 31.5 64.5t64.5 25.5q66 0 117 -56q49 -54 49 -136 q0 -120 -93 -196q-89 -73 -210 -103z" />
<glyph unicode="&#x2022;" horiz-adv-x="772" d="M147 448.5q0 112.5 76 191.5t185 79h4q104 0 179 -79t75 -191.5t-75 -191.5t-183.5 -79t-184.5 79t-76 191.5z" />
<glyph unicode="&#x2026;" horiz-adv-x="1853" d="M131 92q0 59 36 98t93 39q47 0 78 -33.5t31 -84.5q0 -61 -39 -98.5t-92 -37.5q-47 0 -77 33t-30 84zM750 92q0 59 35.5 98t93.5 39q47 0 77.5 -33.5t30.5 -84.5q0 -61 -39 -98.5t-92 -37.5q-47 0 -76.5 33t-29.5 84zM1362 92q0 59 36 98t93 39q47 0 77.5 -33.5 t30.5 -84.5q0 -61 -38.5 -98.5t-92.5 -37.5q-47 0 -76.5 33t-29.5 84z" />
<glyph unicode="&#x2039;" horiz-adv-x="581" d="M111 455q141 133 350 374l47 -34l-219 -340l147 -342l-53 -31q-182 264 -272 373z" />
<glyph unicode="&#x203a;" horiz-adv-x="581" d="M117 115l219 340l-148 342l54 30q193 -281 272 -372q-141 -133 -350 -375z" />
<glyph unicode="&#x20ac;" d="M16 520l37 74h109q6 74 24 127h-100l35 74h86q78 236 241.5 370.5t368.5 134.5q27 0 50 -3l39 -5q15 -2 37 -9t31 -11l33 -15l29 -12q-18 -233 -22 -258l-60 -8q-8 129 -42.5 191.5t-118.5 62.5q-113 0 -219.5 -119t-165.5 -319h512l-37 -74h-496q-18 -61 -22 -127h471 l-37 -74h-439q-1 -32 -1 -62q0 -411 208 -411q76 0 138.5 53.5t152.5 171.5l47 -32q-23 -47 -67.5 -121t-71.5 -105q-109 -39 -215 -39q-205 0 -301 146q-92 139 -92 379v20h-142z" />
<glyph unicode="&#x2122;" horiz-adv-x="950" d="M184 1206q0 20 3 60.5t3 52.5h27q4 -10 10 -10q4 -2 17 -2h219q16 0 26 12h25q0 -23 4 -113h-31q-14 45 -24 51q-10 14 -49 15h-29v-197q0 -41 8 -50t47 -11v-33h-180v33q39 2 46 11t7 50v197h-24q-35 0 -51 -17q-12 -8 -23 -49h-31zM543 981v33q39 0 45 26q8 39 12 88 l6 78q2 43 -5 52.5t-46 13.5v35h137l99 -201l100 201h133v-35q-31 -4 -38 -12.5t-7 -42.5l2 -140q0 -43 7 -52t40 -11v-33h-166v33q35 2 41 10t6 45l2 184h-4l-121 -266h-26l-109 250h-4l-6 -117q-2 -18 -2 -78q2 -27 49 -28v-33h-145z" />
<glyph unicode="&#xe000;" horiz-adv-x="920" d="M0 920h920v-920h-920v920z" />
<glyph unicode="&#xfb01;" horiz-adv-x="1095" d="M-227 -340q23 16 43 0q57 -49 123 -49q49 0 84 41q66 72 139 504l38 229l38 229l32 189h-161l-7 22l60 60h123q61 289 223 436q147 133 305 133q106 0 156 -46q47 -44 47 -88v-3q0 -33 -21.5 -61.5t-56.5 -36.5q-20 -6 -35 -6q-35 0 -43 30q-25 131 -123 131 q-188 0 -274 -489h209q145 0 286 30q27 -11 28 -59q0 -36 -15 -92l-127 -537q-10 -40 -10 -62q0 -29 16 -32q14 0 62.5 33t86.5 70l31 -46q-59 -76 -161.5 -145.5t-159.5 -69.5t-57 86q0 48 18 121l114 488q12 51 12 80q0 22 -7 31q-15 22 -93 22h-252q-68 -389 -106 -561 q-59 -264 -118.5 -402.5t-149.5 -230.5q-127 -129 -236 -129q-47 0 -85 24q-36 23 -36 56q1 49 60 100z" />
<glyph unicode="&#xfb02;" horiz-adv-x="1089" d="M-283 -434q0 53 60 94q23 16 41 0q59 -51 125 -51q49 0 86 43q61 66 135 508l104 641h-164l-6 22l62 62h125q49 266 200 413q68 68 161 112t171 44q96 0 152 -51q98 51 125 51q16 0 15 -26q0 -15 -5 -39q-168 -784 -244 -1170q-6 -29 -5 -48q0 -30 13 -38q18 0 68.5 35 t85.5 74l29 -49q-68 -90 -166.5 -154t-151.5 -64q-54 0 -54 99q0 62 21 162l215 1042q-20 35 -65 62.5t-102 27.5q-119 0 -184.5 -128t-104.5 -355h227l-41 -68l-201 -18q-80 -446 -108 -588q-51 -246 -110.5 -380t-153.5 -226q-125 -125 -236 -125q-45 0 -82 25.5t-37 60.5 z" />
<glyph unicode="&#xfb03;" horiz-adv-x="1632" d="M-279 -440q4 45 52 88q20 20 38 20q10 0 19 -6q68 -49 119 -49q53 0 84 43q63 84 129 489l106 658h-170l-4 18l58 64h133q51 225 190 360q66 68 163 114t189 46q145 0 213 -88q137 137 310 137q109 0 162 -49t53 -94q0 -63 -76 -92q-26 -11 -45 -11q-33 0 -41 35 q-33 135 -127 135q-190 0 -270 -493h215q164 0 276 33q33 0 33 -56q0 -37 -14 -98l-130 -535q-11 -44 -10 -68q0 -26 13 -28q18 0 65 31t86 69l27 -47q-59 -76 -160.5 -143.5t-155.5 -67.5q-57 0 -56 89q0 49 17 126l113 478q12 53 12 82q0 22 -7 30q-15 20 -97 21h-242 q-53 -311 -88 -494q-51 -274 -122.5 -421.5t-188.5 -245.5q-129 -113 -268 -113q-135 0 -224 96q-51 -57 -122.5 -100t-133.5 -43q-47 0 -85 22.5t-38 57.5zM180 -270q31 -41 90.5 -69t120.5 -28q121 0 178 91q82 106 142 450l104 629h-371q-20 -104 -52 -288.5t-52 -289.5 q-64 -337 -160 -495zM459 885h368q49 215 127 329q-70 109 -198 109q-113 0 -183.5 -100t-113.5 -338z" />
<glyph unicode="&#xfb04;" horiz-adv-x="1638" d="M-285 -442q4 45 52 88q19 19 36 19q11 0 21 -7q70 -47 121 -47q57 0 88 43q66 92 129 489l108 660h-170l-8 20l60 62h135q49 225 184 360q66 68 164 114t194 46q129 0 213 -88q61 57 153.5 97t166.5 40q98 0 156 -49q102 49 127 49q15 0 14 -30q0 -20 -6 -54 q-127 -557 -240 -1151q-7 -34 -7 -55q0 -33 17 -33q14 0 63.5 34t86.5 71l29 -46q-74 -90 -169.5 -152.5t-146.5 -62.5q-57 0 -57 100q0 56 18 144l219 1059q-57 90 -174 90q-207 0 -286 -483h227l-43 -66l-199 -18q-12 -66 -27.5 -161l-29.5 -175t-31 -162 q-53 -279 -123.5 -424t-187.5 -239q-131 -111 -266 -111q-139 0 -230 96q-51 -59 -123.5 -102t-134.5 -43q-45 0 -84 22.5t-39 55.5zM180 -266q33 -43 93.5 -71t121.5 -28q125 0 180 89q78 94 140 452l102 627h-373l-46 -265q-34 -198 -56 -315q-64 -339 -162 -489zM459 885 h372q41 211 123 329q-31 47 -86 77t-116 30q-109 0 -178.5 -97t-114.5 -339z" />
</font>
</defs>
</svg>
